<svg width="24" height="24" viewBox="0 0 24 24" fill="none" xmlns="http://www.w3.org/2000/svg">
<g clip-path="url(#clip0_730_11136)">
<path fill-rule="evenodd" clip-rule="evenodd" d="M5.3427 5.14568C4.95217 5.5362 4.95217 6.16937 5.3427 6.55989L10.6356 11.8528L5.3427 17.1457C4.95217 17.5362 4.95217 18.1694 5.3427 18.5599C5.73322 18.9504 6.36639 18.9504 6.75691 18.5599L12.0498 13.267L17.3427 18.5599C17.7332 18.9504 18.3664 18.9504 18.7569 18.5599C19.1474 18.1694 19.1474 17.5362 18.7569 17.1457L13.464 11.8528L18.7569 6.55989C19.1474 6.16937 19.1474 5.5362 18.7569 5.14568C18.3664 4.75515 17.7332 4.75515 17.3427 5.14568L12.0498 10.4386L6.75691 5.14568C6.36639 4.75515 5.73322 4.75515 5.3427 5.14568Z" fill="#494A4A"/>
</g>
<defs>
<clipPath id="clip0_730_11136">
<rect width="24" height="24" fill="white"/>
</clipPath>
</defs>
</svg>
