<svg width="360" height="240" viewBox="0 0 360 240" fill="none" xmlns="http://www.w3.org/2000/svg">
<path fill-rule="evenodd" clip-rule="evenodd" d="M233.559 177.639L249.024 196.841L240.582 204.871L222.296 187.529L233.559 177.639Z" fill="#FFA300"/>
<path fill-rule="evenodd" clip-rule="evenodd" d="M237.028 203.823L248.752 193.759C248.752 193.759 253.12 198.552 255.067 197.279C258.194 195.236 260.227 190.605 268.162 188.388C276.098 186.173 284.214 192.876 284.214 192.876L251.75 218.845L237.028 203.823Z" fill="#006880"/>
<path fill-rule="evenodd" clip-rule="evenodd" d="M263.57 192.562C263.992 193.663 264.355 194.781 264.658 195.92C265.05 197.39 267.335 196.767 266.941 195.291C266.637 194.152 266.275 193.034 265.853 191.933C265.624 191.336 265.056 190.925 264.397 191.106C263.826 191.263 263.34 191.962 263.57 192.562" fill="black"/>
<path fill-rule="evenodd" clip-rule="evenodd" d="M267.701 189.719C268.118 191.156 268.485 192.604 268.804 194.066C269.127 195.554 271.41 194.924 271.086 193.436C270.768 191.975 270.401 190.526 269.984 189.089C269.56 187.629 267.275 188.25 267.701 189.719" fill="black"/>
<path fill-rule="evenodd" clip-rule="evenodd" d="M183.78 166.04C183.78 166.04 176.46 187.03 171.45 204.35C170.52 204.34 169.6 204.33 168.67 204.32C149.42 203.92 131.79 205.16 113.32 205.56C110.54 201.25 107.68 196.59 107.68 196.59L128.83 181.51L140.74 194.74L150.24 165.03L183.78 166.04Z" fill="black"/>
<path fill-rule="evenodd" clip-rule="evenodd" d="M179.837 54.9429C179.33 54.9429 178.833 54.9859 178.343 55.0469C177.852 54.9859 177.356 54.9429 176.849 54.9429C142.36 54.9429 114.302 83.0019 114.302 117.49C114.302 143.347 129.839 166.189 153.885 175.684C155.308 176.245 156.773 176.511 158.214 176.511C162.915 176.511 167.358 173.682 169.19 169.045C171.583 162.985 168.609 156.133 162.55 153.74C147.572 147.826 137.895 133.596 137.895 117.49C137.895 96.0099 155.37 78.5359 176.849 78.5359C177.356 78.5359 177.852 78.4929 178.343 78.4299C178.833 78.4929 179.33 78.5359 179.837 78.5359C201.316 78.5359 218.791 96.0099 218.791 117.49C218.791 133.596 209.112 147.826 194.135 153.74C188.075 156.132 185.102 162.985 187.495 169.045C189.326 173.682 193.769 176.511 198.471 176.511C199.911 176.511 201.378 176.245 202.799 175.684C226.846 166.189 242.383 143.347 242.383 117.49C242.383 83.0019 214.325 54.9429 179.837 54.9429" fill="#00880D"/>
<path fill-rule="evenodd" clip-rule="evenodd" d="M112.561 193.106L100.975 176.511L109.483 170.38L122.91 185.721L112.561 193.106Z" fill="#FFA300"/>
<path fill-rule="evenodd" clip-rule="evenodd" d="M110.484 170.268L100.948 177.96C100.948 177.96 97.9381 174.972 95.1681 176.511C92.3981 178.051 90.2351 181.897 83.4921 183.746C76.7491 185.593 71.0571 178.774 71.0571 178.774L100.276 157.617L110.484 170.268Z" fill="#006880"/>
<path fill-rule="evenodd" clip-rule="evenodd" d="M92.9217 177.799C92.6917 176.895 92.5187 175.982 92.4257 175.052C92.3627 174.416 91.9267 173.868 91.2427 173.868C90.6507 173.868 89.9947 174.412 90.0587 175.052C90.1717 176.193 90.3567 177.318 90.6387 178.429C91.0147 179.903 93.2987 179.278 92.9217 177.799" fill="black"/>
<path fill-rule="evenodd" clip-rule="evenodd" d="M96.716 175.549C96.568 174.695 96.512 173.836 96.517 172.97C96.525 171.446 94.157 171.445 94.15 172.97C94.144 174.049 94.249 175.115 94.433 176.178C94.543 176.808 95.316 177.162 95.889 177.005C96.555 176.821 96.826 176.181 96.716 175.549" fill="black"/>
<path fill-rule="evenodd" clip-rule="evenodd" d="M150.608 174.276C139.774 174.965 136.044 172.297 131.453 168.913C124.003 163.414 123.649 150.946 123.64 150.51C129.956 160.71 139.22 169.04 150.608 174.276" fill="black"/>
<path fill-rule="evenodd" clip-rule="evenodd" d="M283.649 147.636C287.408 149.878 291.107 152.216 294.745 154.649C297.92 156.771 300.887 151.647 297.732 149.538C294.093 147.106 290.395 144.768 286.636 142.526C283.357 140.569 280.378 145.684 283.649 147.636" fill="white"/>
<path fill-rule="evenodd" clip-rule="evenodd" d="M124.568 106.305L125.709 114.52C125.709 114.52 128.06 116.745 129.656 119.518C131.251 122.289 136.888 126.501 135.845 129.263C134.802 132.025 132.005 129.964 129.49 126.811L131.208 139.825C131.208 139.825 132.145 143.191 130.176 143.675C128.207 144.16 127.218 141.845 127.218 141.845L127.519 145.108C127.519 145.108 127.535 147.353 125.389 147.529C123.243 147.704 122.883 144.721 122.883 144.721C122.883 144.721 122.546 146.326 120.488 145.445C118.431 144.563 118.422 141.009 118.422 141.009C118.422 141.009 117.669 142.858 116.106 142.118C114.544 141.379 114.45 140.063 113.464 133.64C112.478 127.217 110.82 121.659 114.303 115.728L112.936 107.723L124.568 106.305Z" fill="#FCA6AE"/>
<path fill-rule="evenodd" clip-rule="evenodd" d="M123.849 142.861C123.389 140.088 123.001 137.295 122.692 134.501C122.53 133.039 120.217 133.022 120.381 134.501C120.713 137.5 121.126 140.499 121.62 143.475C121.863 144.939 124.091 144.319 123.849 142.861" fill="black"/>
<path fill-rule="evenodd" clip-rule="evenodd" d="M128.259 139.697C127.861 137.771 127.517 135.837 127.228 133.891C127.01 132.426 124.782 133.049 124.999 134.506C125.289 136.451 125.632 138.385 126.03 140.311C126.331 141.767 128.559 141.151 128.259 139.697" fill="black"/>
<path fill-rule="evenodd" clip-rule="evenodd" d="M119.355 139.174C119.048 137.336 118.793 135.492 118.589 133.64C118.429 132.178 116.115 132.161 116.278 133.64C116.503 135.697 116.786 137.747 117.126 139.788C117.371 141.252 119.598 140.631 119.355 139.174" fill="black"/>
<path fill-rule="evenodd" clip-rule="evenodd" d="M218.791 117.49C218.791 121.093 218.31 124.604 217.385 127.943C215.016 126.391 213.637 125.367 213.637 125.367L206.033 137.571C201.863 134.953 194.205 134.897 187.927 134.501C179.521 133.969 173.459 135.364 160.327 136.437L139.647 129.133C138.504 125.439 137.895 121.528 137.895 117.49C137.895 109.986 140.028 102.98 143.721 97.0279L144.919 95.2139L144.91 95.2039L131.018 84.8419L128.822 108.561L114.784 109.669L108.877 110.132C108.877 110.132 94.6387 61.1559 107.678 49.8409C119.338 39.7229 169.183 60.5779 169.183 60.5779C169.183 60.5779 198.365 81.5939 203.02 86.2029C212.584 93.3069 218.791 104.686 218.791 117.49" fill="#FFC41C"/>
<path fill-rule="evenodd" clip-rule="evenodd" d="M146.57 131.582L139.638 129.133C138.504 125.43 137.895 121.519 137.895 117.49C137.895 109.233 140.482 101.574 144.873 95.268L144.91 95.231C144.547 95.931 135.563 113.77 146.57 131.582" fill="#FFC41C"/>
<path fill-rule="evenodd" clip-rule="evenodd" d="M200.337 83.8776C197.6 87.0976 188.638 96.2716 178.491 92.3916C166.277 87.7096 163.867 64.4986 163.867 64.4986L169.186 60.5776C169.186 60.5776 191.718 76.8026 200.337 83.8776" fill="#FFC41C"/>
<path fill-rule="evenodd" clip-rule="evenodd" d="M170.838 54.5896C170.838 54.5896 182.797 40.1036 208.401 36.9866C208.401 36.9866 202.987 17.7846 183.67 22.3326C164.353 26.8806 158.794 49.3996 168.648 56.7526L170.838 54.5896Z" fill="#FFA300"/>
<path fill-rule="evenodd" clip-rule="evenodd" d="M208.401 36.9853C182.794 40.1063 170.834 54.5893 170.834 54.5893L168.648 56.7573C166.27 54.9793 164.782 52.3203 164.183 49.2353C166.996 45.5233 172.749 39.8713 183.828 34.9623C192.776 31.0053 199.717 29.7163 204.499 29.4443C207.348 33.2373 208.401 36.9853 208.401 36.9853" fill="#FF7A03"/>
<path fill-rule="evenodd" clip-rule="evenodd" d="M205.053 71.1129C200.706 83.0449 190.716 82.5919 190.716 82.5919C190.716 82.5919 184.4 84.4879 177.304 77.3009C170.208 70.1139 171.424 64.7969 171.424 64.7969C168.874 63.5169 167.431 59.6879 167.994 56.2219C168.121 55.4319 168.348 54.6519 168.702 53.9349C170.308 50.6049 172.749 51.6669 173.393 52.0199C173.502 52.0839 173.556 52.1209 173.556 52.1209C173.556 52.1209 175.344 57.0109 177.522 56.5299C179.391 56.1129 178.03 50.2329 177.613 48.6089C180.253 46.6939 183.692 44.5619 187.948 42.6289C193.529 49.8879 201.886 45.0509 201.886 45.0509C202.575 48.9809 208.782 52.7469 208.782 52.7469C208.782 52.7469 209.399 59.1889 205.053 71.1129" fill="#FCA6AE"/>
<path fill-rule="evenodd" clip-rule="evenodd" d="M196.083 55.8376C196.047 54.7246 194.313 54.7196 194.35 55.8376C194.432 58.3646 194.356 60.8356 194.118 63.3536C194.115 63.3866 194.128 63.4076 194.128 63.4386C194.075 63.6256 193.966 63.7656 193.723 63.7336C193.221 63.6676 193.161 63.0386 193.187 62.6466C193.235 61.9316 192.54 61.6836 192.015 61.8866C191.701 61.9066 191.419 62.0976 191.346 62.5116C191.292 62.8116 191.18 63.7306 190.697 63.6186C190.299 63.5276 190.047 62.7066 190.15 62.3826C190.49 61.3166 188.817 60.8606 188.479 61.9216C188.08 63.1726 188.934 64.8726 190.188 65.2716C191.012 65.5326 191.68 65.2516 192.168 64.7336C192.537 65.1336 193.03 65.4116 193.637 65.4596C194.234 65.5066 194.88 65.2906 195.288 64.8416C195.783 64.2946 195.879 63.5776 195.917 62.8706C195.919 62.8256 195.902 62.7936 195.899 62.7516C196.094 60.4416 196.159 58.1626 196.083 55.8376" fill="black"/>
<path fill-rule="evenodd" clip-rule="evenodd" d="M182.713 64.161C182.713 64.161 182.826 69.625 187.649 72.889C192.471 76.152 196.603 71.808 196.875 68.038C196.875 68.038 187.209 67.702 183.824 63.354L182.713 64.161Z" fill="black"/>
<path fill-rule="evenodd" clip-rule="evenodd" d="M194.908 67.873C194.472 70.423 192.295 70.949 187.894 68.699C185.299 67.374 183.783 65.523 182.912 64.017L183.828 63.354C186.251 66.467 191.895 67.519 194.908 67.873" fill="white"/>
<path fill-rule="evenodd" clip-rule="evenodd" d="M189.99 73.9256C189.237 73.7626 188.447 73.4356 187.649 72.8916C185.226 71.2486 183.992 69.0436 183.365 67.2656C184.491 67.5556 186.505 68.2366 188.057 69.9056C189.309 71.2666 189.799 72.8186 189.99 73.9256" fill="#FF8C8B"/>
<path fill-rule="evenodd" clip-rule="evenodd" d="M179.109 64.397C180.122 65.665 181.934 65.534 183.269 64.851C184.546 64.198 185.279 62.817 185.243 61.406C185.215 60.293 183.482 60.288 183.51 61.406C183.528 62.128 183.259 62.801 182.639 63.212C181.947 63.672 180.897 63.874 180.335 63.17C179.638 62.299 178.419 63.533 179.109 64.397" fill="black"/>
<path fill-rule="evenodd" clip-rule="evenodd" d="M215.016 44.2986C215.016 44.2986 217.92 51.3216 208.782 52.7466C208.782 52.7466 202.576 48.9816 201.886 45.0516C201.886 45.0516 193.529 49.8886 187.948 42.6286L187.957 42.6196C192.041 40.7686 196.877 39.0906 202.494 37.9466L202.503 37.9376C202.639 37.7376 204.336 35.2426 207.267 34.0906C208.764 33.5006 210.57 33.2556 212.657 33.8356C219 35.5966 219.789 42.0026 215.016 44.2986" fill="black"/>
<path fill-rule="evenodd" clip-rule="evenodd" d="M183.263 81.3609C189.767 86.0749 198.363 83.3889 203.025 77.3139C208.308 70.4289 209.514 61.1349 210.086 52.7469C210.2 51.0769 207.598 51.0839 207.485 52.7469C207.051 59.1219 206.249 65.6729 203.456 71.5069C200.102 78.5089 192.087 84.5599 184.575 79.1159C183.219 78.1319 181.919 80.3869 183.263 81.3609" fill="black"/>
<path fill-rule="evenodd" clip-rule="evenodd" d="M177.522 56.5299C175.344 57.0109 173.556 52.1209 173.556 52.1209C173.556 52.1209 173.502 52.0839 173.393 52.0199C174.455 51.0499 175.861 49.8699 177.612 48.6089C178.03 50.2329 179.391 56.1129 177.522 56.5299" fill="black"/>
<path fill-rule="evenodd" clip-rule="evenodd" d="M171.78 56.3415C172.267 56.7735 172.611 57.2965 172.65 57.9625C172.686 58.5645 172.467 59.3995 171.747 59.4225C170.263 59.4705 170.257 61.7815 171.747 61.7345C175.462 61.6125 175.717 56.7485 173.415 54.7075C172.305 53.7235 170.664 55.3525 171.78 56.3415" fill="black"/>
<path fill-rule="evenodd" clip-rule="evenodd" d="M247.982 89.608L246.162 81.517C246.162 81.517 243.633 79.495 241.813 76.865C239.992 74.235 234.025 70.507 234.834 67.668C235.643 64.829 238.602 66.65 241.371 69.583L238.576 56.757C238.576 56.757 237.362 53.481 239.284 52.834C241.206 52.186 242.384 54.412 242.384 54.412L241.813 51.185C241.813 51.185 241.61 48.95 243.734 48.596C245.858 48.242 246.465 51.185 246.465 51.185C246.465 51.185 246.668 49.557 248.791 50.265C250.915 50.973 251.219 54.513 251.219 54.513C251.219 54.513 251.522 52.794 253.14 53.4C254.758 54.007 254.859 55.833 256.377 62.152C257.894 68.47 259.512 76.461 256.275 80.001L258.504 87.424L247.982 89.608Z" fill="#FCA6AE"/>
<path fill-rule="evenodd" clip-rule="evenodd" d="M263.272 141.927C247.619 146.183 225.986 133.57 217.384 127.944C218.31 124.605 218.791 121.093 218.791 117.49C218.791 104.687 207.787 89.2837 198.223 82.1797L241.969 109.183L242.383 87.8267L263.108 84.8417C263.108 84.8417 283.217 136.501 263.272 141.927" fill="#FFC41C"/>
<path fill-rule="evenodd" clip-rule="evenodd" d="M239.081 173.926L215.954 195.188L191.715 165.922C185.98 167.419 172.141 170.701 167.767 171.636C168.339 170.856 168.82 169.985 169.192 169.04C171.578 162.988 168.611 156.137 162.549 153.741C151.316 149.304 143.067 140.194 139.638 129.133L160.326 136.438C186.873 134.501 201.822 131.383 210.606 141.455C214.526 145.956 239.081 173.926 239.081 173.926" fill="black"/>
<path fill-rule="evenodd" clip-rule="evenodd" d="M83.761 127.241C80.19 130.483 76.618 133.726 73.047 136.969C70.221 139.535 74.417 143.71 77.232 141.154C80.803 137.911 84.375 134.669 87.946 131.426C90.772 128.86 86.576 124.684 83.761 127.241" fill="white"/>
<path fill-rule="evenodd" clip-rule="evenodd" d="M240.814 111.494C240.729 115.511 240.602 119.51 240.243 123.514C240.11 124.995 242.423 124.986 242.555 123.514C242.913 119.51 243.041 115.511 243.126 111.494C243.157 110.006 240.846 110.006 240.814 111.494" fill="black"/>
<path fill-rule="evenodd" clip-rule="evenodd" d="M296.113 109.603C300.03 110.15 304.103 110.39 308.055 110.163C311.842 109.946 311.867 104.026 308.055 104.245C304.681 104.438 300.92 104.347 297.686 103.896C296.091 103.672 294.528 104.285 294.046 105.962C293.649 107.343 294.532 109.381 296.113 109.603" fill="white"/>
<path fill-rule="evenodd" clip-rule="evenodd" d="M143.202 96.0498C138.265 106.246 135.035 121.58 140.722 132.166C141.426 133.477 143.422 132.311 142.717 130.999C137.471 121.234 140.666 106.575 145.198 97.2158C145.844 95.8828 143.851 94.7088 143.202 96.0498" fill="black"/>
<path fill-rule="evenodd" clip-rule="evenodd" d="M107.713 95.5134C108.441 99.3804 109.249 103.158 110.829 106.779C111.423 108.139 113.415 106.963 112.825 105.612C111.335 102.197 110.628 98.5414 109.942 94.8994C109.667 93.4394 107.439 94.0574 107.713 95.5134" fill="white"/>
<path fill-rule="evenodd" clip-rule="evenodd" d="M114.714 95.1571C114.561 98.5681 114.667 101.963 115.032 105.358C115.189 106.821 117.502 106.838 117.343 105.358C116.978 101.963 116.873 98.5681 117.025 95.1571C117.092 93.6701 114.78 93.6731 114.714 95.1571" fill="white"/>
<path fill-rule="evenodd" clip-rule="evenodd" d="M202.364 117.584C202.364 104.398 191.675 93.71 178.49 93.71C165.304 93.71 154.615 104.398 154.615 117.584C154.615 130.77 165.304 141.458 178.49 141.458C191.675 141.458 202.364 130.77 202.364 117.584" fill="#00880D"/>
<path fill-rule="evenodd" clip-rule="evenodd" d="M194.091 101.076C204.472 112.402 203.469 128.416 191.452 138.094C190.294 139.026 191.938 140.653 193.087 139.728C206.124 129.228 206.854 111.584 195.726 99.4411C194.718 98.3431 193.087 99.9801 194.091 101.076" fill="black"/>
<path fill-rule="evenodd" clip-rule="evenodd" d="M74.7448 97.7585C71.3138 98.3775 67.8828 98.9955 64.4508 99.6135C60.7088 100.289 62.2938 105.993 66.0238 105.321C69.4558 104.703 72.8868 104.084 76.3178 103.466C80.0608 102.792 78.4748 97.0865 74.7448 97.7585" fill="white"/>
<path fill-rule="evenodd" clip-rule="evenodd" d="M119.516 94.5985C119.43 98.2355 119.703 101.829 120.297 105.417C120.54 106.881 122.767 106.26 122.526 104.803C121.965 101.419 121.746 98.0255 121.828 94.5985C121.863 93.1105 119.551 93.1115 119.516 94.5985" fill="white"/>
<path fill-rule="evenodd" clip-rule="evenodd" d="M125.607 94.2819V104.719C125.607 106.206 127.919 106.209 127.919 104.719V94.2819C127.919 92.7949 125.607 92.7919 125.607 94.2819" fill="white"/>
<path fill-rule="evenodd" clip-rule="evenodd" d="M251.901 100.649C251.842 97.2373 251.501 93.8613 250.896 90.5023C250.633 89.0403 248.405 89.6603 248.667 91.1163C249.235 94.2743 249.534 97.4433 249.589 100.649C249.615 102.135 251.926 102.14 251.901 100.649" fill="white"/>
<path fill-rule="evenodd" clip-rule="evenodd" d="M257.661 101.171C257.249 97.6808 256.836 94.1908 256.424 90.6988C256.252 89.2398 253.938 89.2228 254.113 90.6988C254.525 94.1908 254.937 97.6808 255.349 101.171C255.522 102.63 257.835 102.648 257.661 101.171" fill="white"/>
<path fill-rule="evenodd" clip-rule="evenodd" d="M246.331 101.068V90.4952C246.331 89.0072 244.019 89.0052 244.019 90.4952V101.068C244.019 102.555 246.331 102.558 246.331 101.068" fill="white"/>
<path fill-rule="evenodd" clip-rule="evenodd" d="M259.307 89.1539C259.77 92.6839 260.589 96.0799 261.855 99.4099C262.378 100.787 264.614 100.19 264.084 98.7959C262.898 95.6759 262.053 92.4649 261.618 89.1539C261.428 87.7009 259.114 87.6809 259.307 89.1539" fill="white"/>
<path fill-rule="evenodd" clip-rule="evenodd" d="M251.285 72.828C251.256 72.794 251.228 72.76 251.2 72.726C251.133 72.647 251.063 72.584 250.992 72.531C249.48 70.998 247.682 69.986 245.446 70.294C244.823 70.38 244.495 71.17 244.639 71.716C244.815 72.384 245.445 72.607 246.06 72.523C247.523 72.321 248.747 73.484 249.651 74.463C250.672 75.568 252.23 73.951 251.285 72.828" fill="black"/>
<path fill-rule="evenodd" clip-rule="evenodd" d="M132.204 66.2743C131.423 71.5663 130.717 76.8673 130.088 82.1793C129.913 83.6533 132.226 83.6413 132.399 82.1793C133.004 77.0733 133.682 71.9763 134.433 66.8893C134.648 65.4343 132.421 64.8063 132.204 66.2743" fill="black"/>
<path fill-rule="evenodd" clip-rule="evenodd" d="M75.9675 66.5758C71.6285 66.4128 67.3265 65.9958 63.0435 65.2728C59.3185 64.6448 57.7175 70.3468 61.4705 70.9798C66.2735 71.7908 71.0995 72.3108 75.9675 72.4948C79.7765 72.6378 79.7705 66.7198 75.9675 66.5758" fill="white"/>
<path fill-rule="evenodd" clip-rule="evenodd" d="M293.633 75.873C298.616 73.357 303.679 71.017 308.841 68.891C312.315 67.461 310.793 61.732 307.268 63.184C301.632 65.505 296.088 68.016 290.646 70.763C287.245 72.479 290.237 77.587 293.633 75.873" fill="white"/>
<path fill-rule="evenodd" clip-rule="evenodd" d="M241.495 56.5476C242.052 58.4336 242.556 60.3326 243.005 62.2466C243.346 63.6936 245.575 63.0816 245.234 61.6326C244.785 59.7176 244.281 57.8186 243.724 55.9326C243.304 54.5096 241.072 55.1146 241.495 56.5476" fill="black"/>
<path fill-rule="evenodd" clip-rule="evenodd" d="M250.412 56.3279C250.896 58.2339 251.326 60.1509 251.703 62.0819C251.987 63.5399 254.215 62.9229 253.932 61.4669C253.555 59.5369 253.125 57.6199 252.641 55.7139C252.275 54.2729 250.045 54.8839 250.412 56.3279" fill="black"/>
<path fill-rule="evenodd" clip-rule="evenodd" d="M199.785 57.0253C201.077 55.6143 203.274 55.9533 203.891 57.8423C204.237 58.8983 205.911 58.4463 205.563 57.3813C204.564 54.3233 200.776 53.3783 198.559 55.7993C197.807 56.6213 199.03 57.8503 199.785 57.0253" fill="black"/>
<path fill-rule="evenodd" clip-rule="evenodd" d="M245.627 53.0273C246.342 55.8523 246.982 58.7053 247.542 61.5653C247.828 63.0233 250.056 62.4063 249.771 60.9513C249.211 58.0903 248.571 55.2383 247.856 52.4133C247.491 50.9713 245.261 51.5823 245.627 53.0273" fill="black"/>
<path fill-rule="evenodd" clip-rule="evenodd" d="M184.959 53.8035C185.434 53.0575 186.399 52.8105 187.242 52.9365C188.089 53.0635 188.449 53.7075 188.77 54.4415C189.215 55.4605 190.709 54.5795 190.266 53.5665C189.678 52.2215 188.685 51.2525 187.16 51.1835C185.673 51.1155 184.275 51.6495 183.462 52.9285C182.861 53.8725 184.361 54.7425 184.959 53.8035" fill="black"/>
<path fill-rule="evenodd" clip-rule="evenodd" d="M198.484 51.775C199.832 50.227 203.858 49.979 204.463 52.388C204.87 54.01 207.379 53.323 206.97 51.697C205.892 47.404 199.303 46.885 196.645 49.936C195.55 51.193 197.382 53.04 198.484 51.775" fill="black"/>
<path fill-rule="evenodd" clip-rule="evenodd" d="M167.627 46.6522C167.55 48.1392 168.305 49.4072 169.122 50.5882C169.752 51.5002 171.255 50.6332 170.618 49.7132C169.978 48.7862 169.3 47.8282 169.361 46.6522C169.419 45.5382 167.685 45.5412 167.627 46.6522" fill="white"/>
<path fill-rule="evenodd" clip-rule="evenodd" d="M183.006 49.0554C184.219 47.1424 187.886 47.4404 189.096 49.2524C190.021 50.6374 192.275 49.3364 191.341 47.9404C189.021 44.4634 183.072 44.0984 180.76 47.7434C179.861 49.1594 182.111 50.4664 183.006 49.0554" fill="black"/>
<path fill-rule="evenodd" clip-rule="evenodd" d="M175.576 41.0331C176.231 42.2911 176.886 43.5491 177.54 44.8071C178.055 45.7971 179.552 44.9221 179.037 43.9321C178.382 42.6741 177.727 41.4161 177.073 40.1581C176.557 39.1681 175.061 40.0441 175.576 41.0331" fill="white"/>
<path fill-rule="evenodd" clip-rule="evenodd" d="M215.164 43.5292C214.76 41.8202 213.919 39.8222 212.261 38.9752C210.976 38.3182 209.222 38.6282 208.58 40.0262C207.756 41.8232 209.468 42.5732 210.952 42.7712C212.893 43.0312 214.759 42.3382 216.291 41.1702C217.167 40.5032 216.304 38.9972 215.416 39.6742C214.691 40.2252 213.921 40.6922 213.034 40.9312C212.344 41.1172 210.916 41.3262 210.301 40.8412C209.819 40.7542 209.906 40.6062 210.564 40.4002L211.233 40.4212C211.748 40.5582 212.17 41.0442 212.456 41.4622C212.982 42.2262 213.281 43.0962 213.493 43.9902C213.749 45.0762 215.421 44.6162 215.164 43.5292" fill="black"/>
<path fill-rule="evenodd" clip-rule="evenodd" d="M187.851 35.4795C188.366 36.5795 188.961 37.6325 189.637 38.6415C190.254 39.5645 191.756 38.6975 191.133 37.7665C190.457 36.7575 189.863 35.7045 189.348 34.6045C188.875 33.5945 187.38 34.4735 187.851 35.4795" fill="white"/>
<path fill-rule="evenodd" clip-rule="evenodd" d="M200.085 32.15C200.738 33.289 201.391 34.427 202.044 35.565C202.599 36.533 204.097 35.661 203.541 34.69C202.888 33.552 202.235 32.414 201.582 31.275C201.027 30.308 199.529 31.18 200.085 32.15" fill="white"/>
</svg>
