<svg width="180" height="152" viewBox="0 0 180 152" fill="none" xmlns="http://www.w3.org/2000/svg">
<g clip-path="url(#clip0_259_441)">
<path d="M170.99 5.64001C164.05 2.20001 153.17 1.92001 145.28 1.26001C139.57 0.780009 131.14 0.730009 123.82 1.24001C108.53 3.70001 104.62 5.65001 100.59 12.6C97.81 17.4 97.74 23.48 100.59 27.75C104.37 33.4 108.57 34.97 115.1 35.5C114.93 36.44 114.63 37.42 114.21 38.35C113.14 40.66 111 43.21 109.26 45.04C108.35 46 109.12 47.57 110.4 47.39C113.78 46.91 118.76 45.44 122.26 41.14C124.18 38.79 124.97 37.16 125.39 35.86C133.26 36 140.29 35.95 148.32 36.2C148.76 36.21 149.17 36.22 149.6 36.23C149.6 36.23 154.3 36.3 160.38 36.3C172.19 36.3 177.3 31 178.85 24.04C180.91 14.82 178.55 9.39001 170.99 5.64001Z" fill="#A4CF61"/>
<path d="M99.18 122.79C99.18 122.79 106.12 120.9 108.23 118.79L114.96 123.84L107.6 140.25L102.97 139.83L99.18 122.79Z" fill="#BA6D51"/>
<path d="M5.92 146.84L4.93 136.28L30.39 133.72L32.36 152.29H6.21C6.21 152.29 6.19 149.8 5.92 146.84Z" fill="#CF806F"/>
<path d="M99.18 122.79C99.18 122.79 102.16 121.89 105.11 120.83C108.77 119.51 111.26 118.04 111.26 118.04C112.51 117.02 113.46 115.83 112.91 114.35C111.12 109.48 106.67 98.7 99.18 88.39C89.08 74.5 78.98 72.3 78.98 72.3C71.41 70.09 38.48 72.13 26.12 78.61C17.87 82.94 8.03 89.67 4.2 98.17C0.609997 106.14 -0.580003 125.97 0.259997 134.81C0.359997 135.88 1.3 136.95 2.35 137.17C6.57 138.08 16.39 139.42 30.93 136.88L32.08 152.29L107.16 152.3C106.8 151.76 99.18 122.79 99.18 122.79Z" fill="#802A84"/>
<path d="M29.31 25.9C29.31 25.9 27.56 21.75 24.34 19.82C19.46 16.89 12.06 15.94 5.96 23.17C0.949998 29.11 2.93 42.1 10.95 60.02C15.55 70.3 13.32 79.59 13.32 79.59C13.32 79.59 25.13 74.43 29.09 61.26C31.31 53.86 29.31 25.9 29.31 25.9Z" fill="black"/>
<path d="M79.01 23.6001C79.01 23.6001 85.86 49.7201 81.57 61.0201C77.28 72.3201 71.56 78.4901 52.53 77.1201C40.56 76.2601 35.29 74.0801 35.29 74.0801L34.15 64.2001L33.71 30.0801L59.41 16.6801L79.01 23.6001Z" fill="#CF806F"/>
<path d="M34.2 60.62L33.77 75.94C33.77 75.94 35.29 84.31 46.25 88.42C47.42 88.86 48.55 89.22 49.63 89.53C57.17 91.67 64.87 86.65 64.97 79.55L65.16 66.45L34.2 60.62Z" fill="#CF806F"/>
<path d="M33.76 32.39C33.76 32.39 48.63 28.7 54.54 23.64C59.71 19.21 60.17 17.94 60.17 17.94C60.17 17.94 72.32 27.89 82.12 22.88C86.62 20.58 86.88 17.02 86.88 17.02C86.88 17.02 79.22 13.79 76.1 10.29C69.28 2.65002 58.12 -2.56998 45.27 1.32002C22.42 8.22002 21.88 26.52 21.88 26.52C21.88 26.52 14.79 29.37 17.39 42.9C20.85 60.89 34.15 64.2 34.15 64.2L33.76 32.39Z" fill="black"/>
<path d="M36.4 46.43C36.4 46.43 35.55 44.57 33.72 43.3C32.1 42.17 29.68 41.51 27.08 42.81C21.68 45.51 23.24 51.82 26.43 55.59C29.62 59.36 36.28 57.11 36.28 57.11L36.4 46.43Z" fill="#CF806F"/>
<path d="M41.16 24.53C41.16 24.53 45.53 46.63 42.46 48.36C39.3 50.14 36.4 46.42 36.4 46.42C36.4 46.42 35.13 43.86 32.91 42.8L32.07 29.14L41.16 24.53Z" fill="black"/>
<path d="M76.88 35.41C77.67 34.24 76.86 30.48 71.66 31.86C67.88 32.86 66.58 34.64 67.54 36.96C68.3 38.83 70.98 37.61 72.96 37.04C74.91 36.47 76.16 36.47 76.88 35.41Z" fill="white"/>
<path d="M49.2 42.51C48.19 41.97 47.26 38.03 52.71 36.81C56.67 35.92 59.42 37.02 58.91 39.93C58.6 41.69 56.43 41.66 54.33 42.08C52.26 42.5 50.77 43.35 49.2 42.51Z" fill="white"/>
<path d="M79.85 20.2C80.94 25.5 81.9 30.83 82.76 36.17C84.02 44.02 85.8 52.53 83.68 60.36C82.08 66.25 78.42 72.84 72.9 75.88C64.9 80.29 54.38 79.4 45.72 77.88C43.62 77.51 44.51 74.31 46.6 74.68C54.62 76.09 66.34 77.31 73.15 71.75C78.43 67.43 81.32 59.65 81.37 53.02C81.45 42.43 78.78 31.42 76.66 21.08C76.22 19 79.42 18.11 79.85 20.2Z" fill="black"/>
<path d="M52.86 53.78C52.88 54 52.93 54.35 52.85 54.56C52.92 54.37 52.85 54.53 52.84 54.59C52.83 54.65 52.82 54.72 52.8 54.78C52.77 54.91 52.74 55.03 52.7 55.15C52.68 55.21 52.66 55.27 52.63 55.33C52.57 55.51 52.69 55.21 52.62 55.37C52.56 55.49 52.51 55.6 52.44 55.72C52.38 55.83 52.31 55.94 52.23 56.05C52.19 56.1 52.15 56.16 52.12 56.21C52.24 56.04 52.1 56.23 52.07 56.27C51.9 56.47 51.72 56.65 51.52 56.82C51.5 56.84 51.47 56.86 51.44 56.88C51.52 56.82 51.53 56.81 51.48 56.85C51.43 56.89 51.38 56.93 51.32 56.96C51.21 57.03 51.1 57.1 50.99 57.16C50.88 57.22 50.76 57.28 50.64 57.33C50.58 57.36 50.6 57.35 50.69 57.31C50.66 57.32 50.63 57.33 50.6 57.34C50.54 57.36 50.48 57.38 50.42 57.4C50.3 57.44 50.17 57.47 50.04 57.5C50.01 57.51 49.8 57.55 49.93 57.52C50.06 57.5 49.81 57.53 49.78 57.53C49.34 57.56 48.91 57.9 48.93 58.38C48.95 58.81 49.3 59.27 49.78 59.23C51.12 59.12 52.38 58.49 53.25 57.46C54.11 56.44 54.65 55.12 54.53 53.78C54.49 53.34 54.17 52.91 53.68 52.93C53.28 52.95 52.82 53.31 52.86 53.78Z" fill="black"/>
<path d="M57.91 65.2101C59.58 66.2401 61.8 66.2401 63.47 65.2101C63.85 64.9801 64.03 64.4401 63.77 64.0501C63.53 63.6701 63.01 63.5001 62.61 63.7501C62.44 63.8501 62.27 63.9501 62.09 64.0301C62.27 63.9501 61.98 64.0701 61.95 64.0801C61.86 64.1101 61.76 64.1401 61.67 64.1701C61.58 64.2001 61.48 64.2201 61.38 64.2401C61.34 64.2501 61.03 64.2901 61.24 64.2701C61.06 64.2901 60.87 64.3001 60.69 64.3001C60.51 64.3001 60.32 64.2901 60.14 64.2701C60.35 64.2901 60.04 64.2501 60 64.2401C59.9 64.2201 59.81 64.2001 59.71 64.1701C59.62 64.1401 59.52 64.1201 59.43 64.0801C59.4 64.0701 59.11 63.9501 59.29 64.0301C59.11 63.9501 58.94 63.8601 58.77 63.7501C58.39 63.5201 57.82 63.6601 57.61 64.0501C57.38 64.4701 57.5 64.9601 57.91 65.2101Z" fill="black"/>
<path d="M52.95 58.19C56.72 62.04 62.56 62.93 67.33 60.46C68.3 59.96 67.44 58.49 66.47 59C62.37 61.12 57.37 60.28 54.15 56.99C53.39 56.21 52.19 57.41 52.95 58.19Z" fill="black"/>
<path d="M57.03 28.79C53.01 27.8 48.54 29.68 46.52 33.31C46.09 34.09 46.31 35.2 47.13 35.63C47.93 36.05 48.99 35.85 49.45 35.02C49.55 34.85 49.65 34.67 49.76 34.51C49.81 34.43 49.88 34.35 49.93 34.26C50.05 34.07 49.67 34.57 49.92 34.27C50.18 33.97 50.45 33.68 50.75 33.41C50.81 33.36 50.87 33.31 50.93 33.25C51.23 32.99 50.73 33.39 50.92 33.26C51.08 33.14 51.24 33.03 51.41 32.92C51.75 32.7 52.1 32.53 52.47 32.35C52.68 32.25 52.08 32.49 52.45 32.36C52.53 32.33 52.6 32.3 52.68 32.28C52.87 32.21 53.06 32.15 53.25 32.1C53.44 32.05 53.64 32 53.83 31.97C53.93 31.95 54.03 31.94 54.12 31.92C54.35 31.88 53.69 31.95 54.08 31.93C54.48 31.9 54.87 31.88 55.27 31.91C55.35 31.92 55.43 31.92 55.51 31.93C55.91 31.96 55.25 31.88 55.47 31.92C55.69 31.96 55.9 32 56.12 32.05C56.98 32.26 58 31.77 58.21 30.87C58.42 30 57.95 29.02 57.03 28.79Z" fill="black"/>
<path d="M68.9 28.84C69.07 28.7 68.9 28.85 68.82 28.89C68.9 28.85 68.98 28.78 69.05 28.73C69.17 28.65 69.3 28.57 69.43 28.49C69.58 28.41 69.73 28.33 69.88 28.26C70.08 28.16 69.87 28.28 69.78 28.3C69.86 28.28 69.96 28.23 70.04 28.2C70.34 28.09 70.65 28.01 70.96 27.95C71.03 27.94 71.11 27.92 71.18 27.91C71.55 27.84 70.9 27.93 71.12 27.92C71.29 27.91 71.46 27.89 71.63 27.89C71.95 27.88 72.27 27.9 72.59 27.93C72.82 27.95 72.25 27.87 72.47 27.92C72.56 27.94 72.66 27.95 72.75 27.97C72.9 28 73.04 28.04 73.19 28.08C73.35 28.13 73.51 28.18 73.67 28.24C73.72 28.26 73.96 28.35 73.73 28.26C73.48 28.16 73.78 28.29 73.83 28.32C74.13 28.47 74.42 28.65 74.69 28.85C75.41 29.37 76.61 29 77.01 28.24C77.47 27.36 77.17 26.48 76.4 25.92C75.02 24.92 73.21 24.44 71.51 24.51C69.64 24.59 67.92 25.26 66.48 26.46C65.8 27.03 65.85 28.28 66.48 28.86C67.23 29.51 68.17 29.45 68.9 28.84Z" fill="black"/>
<path d="M57.28 40.67C59.46 40.67 59.47 37.28 57.28 37.28C55.09 37.28 55.09 40.67 57.28 40.67Z" fill="black"/>
<path d="M75.56 35.87C77.74 35.87 77.75 32.48 75.56 32.48C73.37 32.48 73.37 35.87 75.56 35.87Z" fill="black"/>
<path d="M29.42 48.6601C29.25 48.7401 29.43 48.6601 29.48 48.6401C29.53 48.6301 29.57 48.6201 29.62 48.6101C29.52 48.6201 29.51 48.6201 29.57 48.6201C29.64 48.6201 29.71 48.6101 29.79 48.6101C29.84 48.6101 30.09 48.6501 29.89 48.6101C30.04 48.6401 30.18 48.6801 30.32 48.7301C30.16 48.6801 30.36 48.7501 30.39 48.7701C30.46 48.8001 30.52 48.8401 30.58 48.8801C30.63 48.9101 30.75 49.0101 30.64 48.9201C30.69 48.9701 30.75 49.0101 30.8 49.0701C30.83 49.1101 30.95 49.2401 30.86 49.1301C30.91 49.2001 30.96 49.2701 31 49.3501C31.04 49.4201 31.07 49.4901 31.11 49.5501C31.14 49.6001 31.13 49.6001 31.1 49.5201C31.12 49.5701 31.14 49.6201 31.15 49.6601C31.2 49.8101 31.24 49.9601 31.27 50.1101C31.32 50.3501 31.26 49.9501 31.28 50.1901C31.29 50.2701 31.29 50.3401 31.29 50.4201C31.29 50.4901 31.29 50.5701 31.29 50.6401C31.28 50.7301 31.25 50.8401 31.29 50.6901C31.27 50.7701 31.25 50.8501 31.23 50.9301C31.22 50.9501 31.14 51.1601 31.18 51.0701C31.22 50.9801 31.12 51.1801 31.11 51.2001C31.07 51.2801 31.02 51.3501 30.97 51.4301C30.95 51.4601 30.82 51.6401 30.92 51.5101C30.87 51.5701 30.82 51.6301 30.77 51.6901C30.67 51.8001 30.55 51.9101 30.43 52.0001C30.56 51.8901 30.39 52.0201 30.36 52.0401C30.3 52.0801 30.23 52.1101 30.17 52.1501C30.03 52.2401 30.28 52.1201 30.08 52.1901C30 52.2201 29.93 52.2401 29.85 52.2501C29.42 52.3401 29.12 52.8701 29.26 53.2901C29.41 53.7501 29.84 53.9801 30.3 53.8801C31.21 53.6801 31.99 52.9901 32.47 52.2101C32.97 51.4101 33.07 50.4901 32.87 49.5801C32.67 48.6801 32.15 47.8501 31.35 47.3701C30.5 46.8601 29.45 46.7601 28.55 47.1901C28.15 47.3801 28.01 47.9901 28.25 48.3501C28.52 48.7701 28.99 48.8701 29.42 48.6601Z" fill="black"/>
<path d="M58.69 47.95C59.28 49.21 60.2 50.6 61.68 50.82C62.57 50.95 63.48 50.68 64.06 49.97C64.6 49.31 64.83 48.52 64.91 47.69C64.95 47.25 64.49 46.82 64.06 46.84C63.56 46.86 63.26 47.21 63.21 47.69C63.21 47.73 63.2 47.78 63.2 47.82C63.22 47.71 63.22 47.69 63.21 47.76C63.19 47.84 63.18 47.91 63.17 47.99C63.14 48.12 63.11 48.25 63.06 48.37C63.05 48.4 62.96 48.6 63.05 48.41C63.02 48.47 63 48.53 62.97 48.58C62.94 48.65 62.9 48.71 62.86 48.77C62.84 48.8 62.83 48.82 62.81 48.85C62.87 48.77 62.89 48.76 62.85 48.8C62.8 48.85 62.75 48.91 62.7 48.96C62.66 49 62.51 49.09 62.68 48.99C62.63 49.02 62.58 49.06 62.52 49.09C62.46 49.13 62.35 49.15 62.47 49.12C62.39 49.14 62.31 49.16 62.22 49.18C62.16 49.19 62.17 49.19 62.27 49.17C62.23 49.17 62.2 49.17 62.16 49.17C62.12 49.17 61.86 49.15 62.06 49.18C61.99 49.17 61.91 49.15 61.84 49.14C61.77 49.12 61.7 49.1 61.63 49.07C61.8 49.13 61.6 49.05 61.56 49.03C61.5 49 61.44 48.95 61.37 48.92C61.24 48.86 61.51 49.06 61.37 48.92C61.28 48.83 61.19 48.75 61.11 48.65C61.07 48.6 61.03 48.55 60.99 48.51C61.12 48.67 60.99 48.51 60.96 48.47C60.65 48.04 60.37 47.58 60.15 47.1C59.96 46.7 59.35 46.56 58.99 46.8C58.58 47.05 58.49 47.51 58.69 47.95Z" fill="black"/>
<path d="M63.4 47.71C63.94 49.1 65.19 49.88 66.69 49.64C68.1 49.41 68.83 47.97 68.68 46.63C68.59 45.83 68.23 45.08 67.92 44.35C67.6 43.58 67.27 42.81 66.92 42.05C66.24 40.54 65.52 39.05 64.78 37.58C64.29 36.6 62.83 37.46 63.32 38.44C64.43 40.64 65.5 42.86 66.43 45.14C66.72 45.84 67.42 47.12 66.74 47.82C66.23 48.35 65.25 47.84 65.03 47.26C64.86 46.83 64.46 46.54 63.99 46.67C63.58 46.77 63.23 47.28 63.4 47.71Z" fill="black"/>
<path d="M71.3 105.8C71.3 105.8 87.74 100.64 86.61 94.4801C86.18 92.1501 84.04 91.3901 82.15 92.1801C80.26 92.9701 73.31 96.7601 69.37 97.7001C65.43 98.6501 57.85 99.5901 52.8 105.75C47.75 111.9 29.76 152.3 29.76 152.3L53.11 152.25C53.32 151.62 58.47 127.21 58.47 127.21C58.47 127.21 59.38 127.24 60.76 126.89C61.81 126.63 62.81 125.94 62.81 125.94C62.81 125.94 59.63 128.68 61.31 130.36C62.99 132.04 67.62 131.2 70.57 128.68C73.52 126.16 72.04 123.81 72.04 123.81C72.04 123.81 73.78 123.96 74.64 121.76C75.67 119.16 75.11 116.63 75.11 116.63C75.11 116.63 78.28 112.12 75.3 108.22C74.11 106.65 71.3 105.8 71.3 105.8Z" fill="#CF806F"/>
<path d="M27.88 117.19C28.26 121.73 28.95 126.24 29.54 130.76C30.25 136.2 30.96 141.65 31.67 147.09C31.81 148.16 33.51 148.17 33.37 147.09C32.66 141.65 31.95 136.2 31.24 130.76C30.65 126.25 29.96 121.73 29.58 117.19C29.49 116.11 27.79 116.1 27.88 117.19Z" fill="black"/>
<path d="M32.47 118.13C32.04 119.05 31.56 119.95 31.04 120.81C30.54 121.63 29.92 122.52 29.38 123.21C29.11 123.56 29.01 124.07 29.38 124.41C29.69 124.69 30.29 124.78 30.58 124.41C31.9 122.73 33.04 120.92 33.94 118.98C34.13 118.58 34.07 118.05 33.64 117.82C33.25 117.63 32.67 117.7 32.47 118.13Z" fill="black"/>
<path d="M31.36 151.67C33.09 148.03 34.79 144.37 36.52 140.73C36.99 139.75 35.53 138.89 35.06 139.87C33.33 143.51 31.63 147.17 29.9 150.81C29.43 151.8 30.89 152.66 31.36 151.67Z" fill="black"/>
<path d="M55.04 125.77C57.76 128.2 61.61 127.72 64.59 126.06C65.54 125.53 64.69 124.06 63.73 124.6C61.46 125.86 58.36 126.47 56.24 124.58C55.43 123.84 54.22 125.04 55.04 125.77Z" fill="black"/>
<path d="M67.15 114.48C68.83 114.34 70.54 114.64 71.96 115.57C73.39 116.51 74.11 118.14 73.76 119.88C73.67 120.33 73.89 120.8 74.35 120.92C74.77 121.04 75.3 120.78 75.39 120.33C75.64 119.1 75.58 117.87 75.09 116.71C74.66 115.72 73.94 114.91 73.08 114.28C71.42 113.06 69.19 112.61 67.16 112.78C66.7 112.82 66.31 113.14 66.31 113.63C66.3 114.06 66.69 114.51 67.15 114.48Z" fill="black"/>
<path d="M68.89 107.1C70.53 106.93 72.16 107.33 73.49 108.31C74.68 109.2 75.5 110.52 75.84 111.96C76.1 113.02 77.73 112.57 77.48 111.51C76.56 107.67 72.84 104.99 68.89 105.4C68.43 105.45 68.04 105.76 68.04 106.25C68.04 106.67 68.43 107.15 68.89 107.1Z" fill="black"/>
<path d="M61.52 125.68C60.65 126.36 60.22 127.55 60.41 128.63C60.6 129.71 61.38 130.61 62.25 131.23C63.9 132.4 66.45 132.12 68.24 131.41C70.16 130.65 71.87 129.1 72.33 127.01C72.8 124.86 71.9 122.56 70.31 121.09C68.33 119.24 65.51 118.68 62.88 118.77C61.79 118.81 61.79 120.5 62.88 120.47C66.13 120.36 70.44 121.63 70.75 125.5C71.02 128.91 67.19 130.56 64.32 130.27C62.78 130.11 61.17 128.11 62.72 126.89C63.08 126.61 63.01 125.99 62.72 125.69C62.37 125.32 61.88 125.4 61.52 125.68Z" fill="black"/>
<path d="M55.42 126.05L57.53 131.94L58.48 127.21L55.42 126.05Z" fill="black"/>
<path d="M93.6 107.64C93.67 111.13 95.14 114.33 96.11 117.63C97.19 121.3 98.21 124.99 99.26 128.67C101.43 136.26 103.6 143.86 105.77 151.45C106.07 152.5 107.71 152.05 107.41 151C105.29 143.56 103.16 136.13 101.04 128.69C100.01 125.09 98.98 121.48 97.95 117.88C96.99 114.52 95.38 111.18 95.3 107.64C95.28 106.55 93.58 106.55 93.6 107.64Z" fill="black"/>
<path d="M135.56 64.35C135.95 64.27 167.77 59.72 170.52 59.3C174.02 58.76 177.13 64.56 166.75 66.63C157.47 68.49 152.54 70.29 152.54 70.29C152.54 70.29 159.3 71 158.95 75.43C158.95 75.43 158.99 76.88 157.95 78.28C157.95 78.28 159.73 80.98 158.25 82.58C156.77 84.18 155.8 84.2 155.8 84.2C155.8 84.2 155.09 90.19 150.7 89.63L147.28 89.37C147.28 89.37 144.9 93.99 135.95 92.89C135.95 92.89 132.54 122.69 130.27 134.86C128 147.03 120.93 149.15 114.97 149.83C109.01 150.51 100.39 143.9 106.04 125.62C111.68 107.35 119.78 87.49 121.29 83.03C124.24 74.31 130.28 65.46 135.56 64.35Z" fill="#CF806F"/>
<path d="M136.46 72.25C138.83 72.6 141.19 72.95 143.56 73.31C145.26 73.56 147.63 73.61 148.92 74.91C150.26 76.26 149.34 78.36 147.65 78.8C146.56 79.09 145.37 79.09 144.26 79.18C143 79.29 141.73 79.4 140.47 79.51C140.01 79.55 139.54 79.89 139.57 80.41C139.7 82.79 138.93 85.38 136.9 86.8C135.19 88 132.81 87.9 131.45 86.23C130.72 85.33 129.45 86.61 130.18 87.5C131.96 89.68 135.25 89.94 137.58 88.5C140.31 86.81 141.55 83.5 141.38 80.4C141.08 80.7 140.78 81 140.48 81.3C142.06 81.16 143.64 81.03 145.22 80.89C146.48 80.78 147.82 80.76 148.99 80.22C150.87 79.36 151.84 77.05 151.14 75.1C150.39 72.99 148.09 72.22 146.08 71.88C143.05 71.37 139.99 70.97 136.94 70.52C135.8 70.34 135.31 72.08 136.46 72.25Z" fill="black"/>
<path d="M151.34 72.44C150.69 72.68 150.02 72.87 149.34 73.02C149.13 73.07 148.91 73.25 148.8 73.43C148.69 73.62 148.64 73.91 148.71 74.12C148.87 74.6 149.32 74.86 149.82 74.75C150.5 74.6 151.17 74.41 151.82 74.17C152.04 74.09 152.23 73.97 152.36 73.76C152.47 73.57 152.52 73.28 152.45 73.07C152.38 72.85 152.24 72.64 152.04 72.53C151.83 72.43 151.57 72.36 151.34 72.44Z" fill="black"/>
<path d="M148.99 80.15C149.91 80.11 150.83 80.1 151.75 80C152.73 79.89 153.68 79.68 154.63 79.44C155.09 79.33 155.41 78.79 155.26 78.33C155.11 77.86 154.64 77.58 154.15 77.7C153.65 77.83 153.15 77.95 152.64 78.05C152.44 78.09 152.25 78.12 152.05 78.15C152.01 78.16 151.97 78.16 151.93 78.17C151.76 78.2 152.07 78.15 151.96 78.17C151.87 78.18 151.78 78.19 151.69 78.2C150.79 78.29 149.89 78.3 148.99 78.35C148.52 78.37 148.07 78.75 148.09 79.25C148.11 79.72 148.49 80.17 148.99 80.15Z" fill="black"/>
<path d="M143.39 79.72C142.45 80.89 142.52 82.43 143.38 83.65C144.32 84.99 145.9 85.52 147.47 85.67C149.2 85.83 151 85.58 152.71 85.35C154.49 85.11 156.35 84.88 157.94 83.99C158.95 83.43 158.05 81.87 157.03 82.44C155.88 83.08 154.53 83.27 153.25 83.47C151.85 83.69 150.43 83.85 149.01 83.9C147.85 83.94 146.61 83.91 145.59 83.3C144.94 82.92 144.06 81.76 144.67 81C145.38 80.1 144.11 78.82 143.39 79.72Z" fill="black"/>
<path d="M145.41 84.3399C144.15 85.2899 142.87 86.7599 143.88 88.3899C144.53 89.4399 145.68 89.8799 146.84 90.0799C149 90.4599 151.32 90.5099 153.5 90.2699C153.98 90.2199 154.4 89.8899 154.4 89.3699C154.4 88.9199 153.99 88.4199 153.5 88.4699C151.7 88.6699 149.82 88.6299 148.02 88.4399C147.63 88.3999 147.28 88.3499 146.85 88.2499C146.65 88.2099 146.46 88.1499 146.27 88.0899C146.2 88.0699 146.06 88.0099 146.21 88.0699C146.13 88.0299 146.05 87.9899 145.97 87.9499C145.66 87.7699 145.26 87.4399 145.32 87.0399C145.4 86.5699 145.97 86.1599 146.32 85.8899C146.71 85.5999 146.91 85.1099 146.64 84.6599C146.42 84.2799 145.8 84.0499 145.41 84.3399Z" fill="black"/>
<path d="M121.6 20C133.89 19.93 146.17 19.86 158.46 19.79C160.33 19.78 160.34 16.87 158.46 16.88C146.17 16.95 133.89 17.02 121.6 17.09C119.72 17.11 119.72 20.02 121.6 20Z" fill="black"/>
<path d="M147 13.43C149.13 14.3 151.26 15.17 153.38 16.04C154.42 16.47 155.46 16.89 156.51 17.32C157.03 17.53 157.55 17.75 158.07 17.96C158.35 18.07 159.16 18.33 159.27 18.44C159.15 18.23 159.02 18.01 158.9 17.8C159.1 17.26 159.08 17.14 158.83 17.42C158.72 17.51 158.62 17.59 158.51 17.68C158.3 17.85 158.08 18.02 157.87 18.19C157.43 18.54 156.99 18.88 156.54 19.22C155.63 19.91 154.72 20.58 153.79 21.25C151.9 22.6 149.98 23.9 148.02 25.15C146.45 26.15 147.9 28.67 149.49 27.66C151.72 26.24 153.9 24.75 156.03 23.2C157.16 22.38 158.27 21.53 159.38 20.67C160.33 19.93 161.74 19.14 161.81 17.78C161.9 16.22 160.4 15.79 159.23 15.31C157.93 14.78 156.62 14.25 155.32 13.71C152.8 12.68 150.28 11.65 147.76 10.63C147.03 10.33 146.16 10.95 145.97 11.65C145.76 12.48 146.27 13.14 147 13.43Z" fill="black"/>
</g>
<defs>
<clipPath id="clip0_259_441">
<rect width="179.56" height="152.29" fill="white"/>
</clipPath>
</defs>
</svg>
