<svg width="180" height="152" viewBox="0 0 180 152" fill="none" xmlns="http://www.w3.org/2000/svg">
<g clip-path="url(#clip0_259_537)">
<path d="M8.58 5.64001C15.51 2.20001 26.4 1.93001 34.29 1.26001C40 0.780009 48.42 0.730009 55.75 1.24001C71.03 3.70001 74.95 5.65001 78.98 12.6C81.76 17.4 81.83 23.48 78.98 27.75C75.2 33.4 71 34.97 64.47 35.5C64.64 36.44 64.94 37.42 65.36 38.35C66.43 40.66 68.57 43.21 70.31 45.04C71.22 46 70.45 47.57 69.17 47.39C65.79 46.91 60.81 45.44 57.31 41.14C55.39 38.79 54.6 37.16 54.18 35.86C46.31 36 39.28 35.95 31.25 36.2C30.81 36.21 30.4 36.22 29.97 36.23C29.97 36.23 25.27 36.3 19.19 36.3C7.38 36.3 2.27 31 0.720003 24.04C-1.35 14.82 1.02 9.39001 8.58 5.64001Z" fill="#A4CF61"/>
<path d="M80.38 122.79C80.38 122.79 73.44 120.9 71.33 118.79L64.6 123.84L71.96 140.25L76.59 139.83L80.38 122.79Z" fill="#BA6D51"/>
<path d="M173.65 146.84L174.64 136.28L149.18 133.72L147.21 152.29H173.35C173.35 152.29 173.37 149.8 173.65 146.84Z" fill="#CF806F"/>
<path d="M80.38 122.79C80.38 122.79 77.4 121.89 74.45 120.83C70.79 119.51 68.3 118.04 68.3 118.04C67.05 117.02 66.1 115.83 66.65 114.35C68.44 109.48 72.89 98.7 80.38 88.39C90.48 74.5 100.58 72.3 100.58 72.3C108.15 70.09 141.08 72.13 153.44 78.61C161.7 82.94 171.54 89.68 175.37 98.18C178.96 106.15 180.15 125.98 179.31 134.82C179.21 135.89 178.27 136.96 177.22 137.18C173 138.09 163.18 139.43 148.64 136.89L147.49 152.3L72.41 152.31C72.76 151.76 80.38 122.79 80.38 122.79Z" fill="#802A84"/>
<path d="M150.25 25.9001C150.25 25.9001 152 21.7501 155.22 19.8201C160.1 16.8901 167.5 15.9401 173.6 23.1701C178.61 29.1101 176.63 42.1001 168.61 60.0201C164.01 70.3001 166.24 79.5901 166.24 79.5901C166.24 79.5901 154.43 74.4301 150.47 61.2601C148.25 53.8601 150.25 25.9001 150.25 25.9001Z" fill="black"/>
<path d="M100.56 23.6001C100.56 23.6001 93.71 49.7201 98 61.0201C102.29 72.3201 108.01 78.4901 127.04 77.1201C139.01 76.2601 144.28 74.0801 144.28 74.0801L145.42 64.2001L145.86 30.0801L120.16 16.6801L100.56 23.6001Z" fill="#CF806F"/>
<path d="M145.37 60.6201L145.8 75.9401C145.8 75.9401 144.28 84.3101 133.32 88.4201C132.15 88.8601 131.02 89.2201 129.94 89.5301C122.4 91.6701 114.7 86.6501 114.6 79.5501L114.41 66.4501L145.37 60.6201Z" fill="#CF806F"/>
<path d="M145.8 32.3901C145.8 32.3901 130.93 28.7001 125.02 23.6401C119.85 19.2101 119.39 17.9401 119.39 17.9401C119.39 17.9401 107.24 27.8901 97.44 22.8801C92.94 20.5801 92.68 17.0201 92.68 17.0201C92.68 17.0201 100.34 13.7901 103.46 10.2901C110.28 2.64006 121.43 -2.56994 134.29 1.32006C157.14 8.22006 157.68 26.5201 157.68 26.5201C157.68 26.5201 164.77 29.3701 162.17 42.9001C158.71 60.8901 145.41 64.2001 145.41 64.2001L145.8 32.3901Z" fill="black"/>
<path d="M143.17 46.43C143.17 46.43 144.02 44.57 145.85 43.3C147.47 42.17 149.89 41.51 152.49 42.81C157.89 45.51 156.33 51.82 153.14 55.59C149.95 59.36 143.29 57.11 143.29 57.11L143.17 46.43Z" fill="#CF806F"/>
<path d="M138.4 24.53C138.4 24.53 134.03 46.63 137.1 48.36C140.26 50.14 143.16 46.42 143.16 46.42C143.16 46.42 144.43 43.86 146.65 42.8L147.49 29.14L138.4 24.53Z" fill="black"/>
<path d="M102.69 35.4101C101.9 34.2401 102.71 30.4801 107.91 31.8601C111.69 32.8601 112.99 34.6401 112.03 36.9601C111.27 38.8301 108.59 37.6101 106.61 37.0401C104.66 36.4701 103.41 36.4701 102.69 35.4101Z" fill="white"/>
<path d="M130.37 42.5101C131.38 41.9701 132.31 38.0301 126.86 36.8101C122.9 35.9201 120.15 37.0201 120.66 39.9301C120.97 41.6901 123.14 41.6601 125.24 42.0801C127.31 42.5001 128.8 43.3501 130.37 42.5101Z" fill="white"/>
<path d="M99.72 20.2001C98.63 25.5001 97.67 30.8301 96.81 36.1701C95.55 44.0201 93.77 52.5301 95.89 60.3601C97.49 66.2501 101.15 72.8401 106.67 75.8801C114.67 80.2901 125.19 79.4001 133.85 77.8801C135.95 77.5101 135.06 74.3101 132.97 74.6801C124.95 76.0901 113.23 77.3101 106.42 71.7501C101.14 67.4301 98.25 59.6501 98.2 53.0201C98.12 42.4301 100.79 31.4201 102.91 21.0801C103.34 19.0001 100.15 18.1101 99.72 20.2001Z" fill="black"/>
<path d="M125.01 53.7801C124.89 55.1301 125.43 56.4501 126.29 57.4601C127.16 58.4901 128.42 59.1301 129.76 59.2301C130.2 59.2601 130.63 58.8201 130.61 58.3801C130.59 57.8901 130.24 57.5701 129.76 57.5301C129.7 57.5301 129.63 57.5201 129.57 57.5101C129.79 57.5601 129.59 57.5101 129.54 57.5001C129.41 57.4801 129.29 57.4401 129.16 57.4101C129.1 57.3901 129.04 57.3701 128.98 57.3501C128.9 57.3201 128.81 57.2801 128.94 57.3401C128.82 57.2901 128.71 57.2301 128.59 57.1701C128.48 57.1101 128.37 57.0401 128.26 56.9701C128.21 56.9301 128.15 56.9001 128.1 56.8601C127.94 56.7501 128.2 56.9501 128.07 56.8301C127.87 56.6501 127.67 56.4701 127.49 56.2601C127.47 56.2401 127.34 56.0701 127.41 56.1701C127.48 56.2701 127.36 56.0901 127.34 56.0701C127.27 55.9601 127.2 55.8501 127.13 55.7401C127.07 55.6301 127.01 55.5101 126.95 55.3901C126.94 55.3601 126.92 55.3301 126.91 55.3001C126.95 55.3901 126.96 55.4101 126.93 55.3501C126.91 55.2901 126.88 55.2301 126.86 55.1701C126.82 55.0501 126.78 54.9201 126.75 54.8001C126.73 54.7401 126.72 54.6701 126.71 54.6101C126.7 54.5801 126.68 54.3701 126.69 54.5001C126.7 54.6301 126.68 54.4101 126.68 54.3901C126.68 54.3301 126.67 54.2601 126.67 54.2001C126.67 54.0601 126.67 53.9201 126.69 53.7801C126.73 53.3401 126.27 52.9101 125.84 52.9301C125.37 52.9501 125.05 53.3101 125.01 53.7801Z" fill="black"/>
<path d="M120.8 63.7501C120.63 63.8501 120.46 63.9501 120.28 64.0301C120.46 63.9501 120.17 64.0701 120.14 64.0801C120.05 64.1101 119.95 64.1401 119.86 64.1701C119.77 64.2001 119.67 64.2201 119.57 64.2401C119.53 64.2501 119.22 64.2901 119.43 64.2701C119.25 64.2901 119.06 64.3001 118.88 64.3001C118.7 64.3001 118.51 64.2901 118.33 64.2701C118.54 64.2901 118.23 64.2501 118.19 64.2401C118.09 64.2201 118 64.2001 117.9 64.1701C117.81 64.1401 117.71 64.1201 117.62 64.0801C117.59 64.0701 117.3 63.9501 117.48 64.0301C117.3 63.9501 117.13 63.8601 116.96 63.7501C116.58 63.5201 116.01 63.6601 115.8 64.0501C115.58 64.4601 115.7 64.9601 116.1 65.2101C117.77 66.2401 119.99 66.2401 121.66 65.2101C122.04 64.9801 122.22 64.4401 121.96 64.0501C121.72 63.6701 121.21 63.5001 120.8 63.7501Z" fill="black"/>
<path d="M125.41 57.0001C122.19 60.2901 117.19 61.1301 113.09 59.0101C112.12 58.5101 111.26 59.9701 112.23 60.4701C117 62.9401 122.84 62.0501 126.61 58.2001C127.38 57.4101 126.18 56.2101 125.41 57.0001Z" fill="black"/>
<path d="M123.43 32.06C123.62 32.01 123.82 31.98 124.02 31.94C124.34 31.88 123.77 31.96 123.98 31.94C124.08 31.93 124.18 31.92 124.28 31.91C124.68 31.88 125.07 31.9 125.47 31.93C125.7 31.95 125.47 31.94 125.38 31.91C125.47 31.94 125.58 31.94 125.68 31.96C125.88 32 126.07 32.04 126.26 32.09C126.45 32.14 126.64 32.2 126.83 32.26C126.92 32.29 127.02 32.33 127.11 32.36C127.41 32.47 126.9 32.26 127.09 32.35C127.43 32.51 127.77 32.68 128.1 32.88C128.27 32.99 128.43 33.1 128.6 33.22C128.86 33.4 128.43 33.07 128.59 33.21C128.66 33.28 128.74 33.34 128.82 33.4C129.12 33.66 129.39 33.95 129.65 34.26C129.81 34.45 129.6 34.26 129.6 34.2C129.6 34.24 129.74 34.4 129.77 34.44C129.89 34.62 130.01 34.81 130.11 35C130.54 35.78 131.67 36.1 132.43 35.61C133.22 35.1 133.5 34.12 133.04 33.29C131.02 29.65 126.55 27.77 122.53 28.77C121.67 28.98 121.07 30 121.35 30.86C121.64 31.77 122.51 32.29 123.43 32.06Z" fill="black"/>
<path d="M113.07 26.4401C111.63 25.2401 109.92 24.5701 108.04 24.4901C106.34 24.4201 104.54 24.9001 103.15 25.9001C102.43 26.4201 102.01 27.4001 102.54 28.2201C103 28.9301 104.09 29.3801 104.86 28.8301C105.12 28.6401 105.39 28.4701 105.67 28.3301C105.69 28.3201 105.9 28.1901 105.92 28.2101C105.91 28.2001 105.57 28.3401 105.83 28.2501C105.99 28.1901 106.15 28.1401 106.31 28.0901C106.47 28.0401 106.64 28.0001 106.8 27.9701C106.87 27.9501 106.95 27.9401 107.02 27.9301C107.25 27.8801 106.99 27.9401 106.9 27.9401C107.24 27.9301 107.57 27.8801 107.91 27.8901C108.06 27.8901 108.21 27.9101 108.36 27.9201C108.68 27.9401 108.09 27.8701 108.3 27.9101C108.37 27.9201 108.45 27.9301 108.52 27.9501C108.83 28.0101 109.14 28.0901 109.45 28.1901C109.54 28.2201 109.63 28.2601 109.71 28.2901C109.92 28.3601 109.42 28.1501 109.62 28.2501C109.77 28.3301 109.92 28.4001 110.07 28.4801C110.2 28.5501 110.33 28.6301 110.45 28.7101C110.53 28.7601 110.6 28.8201 110.68 28.8701C110.86 28.9901 110.36 28.6101 110.65 28.8501C111.33 29.4201 112.39 29.5701 113.05 28.8501C113.64 28.2101 113.79 27.0501 113.07 26.4401Z" fill="black"/>
<path d="M122.29 40.67C124.47 40.67 124.48 37.28 122.29 37.28C120.11 37.28 120.1 40.67 122.29 40.67Z" fill="black"/>
<path d="M104.01 35.8701C106.19 35.8701 106.2 32.4801 104.01 32.4801C101.82 32.4801 101.82 35.8701 104.01 35.8701Z" fill="black"/>
<path d="M151 47.2001C150.1 46.7701 149.05 46.8701 148.2 47.3801C147.4 47.8501 146.88 48.6901 146.68 49.5901C146.48 50.5001 146.58 51.4201 147.08 52.2201C147.56 53.0001 148.34 53.6901 149.25 53.8901C149.68 53.9801 150.19 53.7601 150.29 53.3001C150.39 52.8701 150.16 52.3601 149.7 52.2601C149.63 52.2501 149.57 52.2301 149.5 52.2101C149.46 52.2001 149.41 52.1801 149.37 52.1601C149.45 52.1901 149.47 52.2001 149.41 52.1701C149.35 52.1301 149.28 52.1001 149.22 52.0601C149.19 52.0401 148.98 51.8901 149.12 52.0001C149 51.9101 148.89 51.8001 148.78 51.6901C148.73 51.6301 148.68 51.5701 148.63 51.5101C148.74 51.6401 148.59 51.4401 148.58 51.4301C148.5 51.3001 148.42 51.1701 148.36 51.0301C148.44 51.1901 148.35 51.0001 148.34 50.9601C148.31 50.8801 148.3 50.8001 148.28 50.7201C148.27 50.6601 148.27 50.6801 148.28 50.7801C148.28 50.7401 148.27 50.7101 148.27 50.6701C148.26 50.5801 148.26 50.5001 148.26 50.4101C148.26 50.3301 148.27 50.2601 148.27 50.1801C148.28 50.0001 148.24 50.3001 148.28 50.1001C148.32 49.9501 148.35 49.8001 148.4 49.6501C148.42 49.6101 148.49 49.4301 148.43 49.5701C148.46 49.5001 148.5 49.4301 148.53 49.3701C148.57 49.2901 148.62 49.2201 148.67 49.1501C148.71 49.1001 148.7 49.1101 148.65 49.1701C148.67 49.1401 148.7 49.1101 148.72 49.0901C148.77 49.0401 148.83 48.9901 148.87 48.9401C148.92 48.9001 148.9 48.9101 148.84 48.9601C148.88 48.9301 148.92 48.9001 148.96 48.8801C149.02 48.8401 149.09 48.8001 149.15 48.7701C149.19 48.7501 149.39 48.6801 149.22 48.7301C149.36 48.6801 149.5 48.6401 149.65 48.6101C149.46 48.6501 149.67 48.6101 149.72 48.6101C149.79 48.6101 149.86 48.6101 149.94 48.6101C150.11 48.6101 149.82 48.5801 150.03 48.6301C150.08 48.6401 150.3 48.7401 150.12 48.6501C150.52 48.8401 151.05 48.7701 151.28 48.3501C151.51 47.9801 151.43 47.4001 151 47.2001Z" fill="black"/>
<path d="M119.41 47.09C119.19 47.56 118.92 48.01 118.62 48.43C118.59 48.47 118.44 48.66 118.58 48.49C118.54 48.54 118.5 48.59 118.46 48.63C118.38 48.72 118.31 48.8 118.22 48.88C118.19 48.9 118.17 48.93 118.14 48.95C118.24 48.87 118.27 48.85 118.22 48.89C118.16 48.92 118.1 48.96 118.04 49C118 49.02 117.77 49.11 117.94 49.05C117.87 49.07 117.8 49.1 117.73 49.12C117.66 49.14 117.59 49.15 117.51 49.16C117.7 49.13 117.49 49.15 117.44 49.15C117.37 49.15 117.22 49.14 117.38 49.16C117.3 49.15 117.22 49.11 117.13 49.1C117.07 49.08 117.08 49.09 117.16 49.12C117.12 49.1 117.08 49.08 117.05 49.06C116.99 49.03 116.94 48.99 116.89 48.96C117.05 49.06 116.91 48.97 116.87 48.93C116.82 48.89 116.78 48.84 116.74 48.79C116.61 48.66 116.81 48.91 116.72 48.76C116.68 48.7 116.64 48.63 116.61 48.57C116.57 48.5 116.54 48.44 116.51 48.37C116.57 48.5 116.53 48.41 116.5 48.33C116.46 48.21 116.42 48.08 116.39 47.95C116.38 47.89 116.37 47.82 116.35 47.76C116.34 47.66 116.34 47.67 116.35 47.79C116.34 47.75 116.34 47.7 116.34 47.66C116.3 47.22 115.98 46.79 115.49 46.81C115.07 46.83 114.6 47.19 114.64 47.66C114.72 48.49 114.95 49.29 115.49 49.94C116.08 50.65 116.98 50.92 117.87 50.79C119.35 50.57 120.27 49.19 120.86 47.92C121.05 47.52 120.99 46.99 120.56 46.76C120.2 46.59 119.61 46.66 119.41 47.09Z" fill="black"/>
<path d="M114.53 47.26C114.31 47.83 113.4 48.31 112.86 47.86C112.1 47.21 112.85 45.82 113.13 45.14C114.07 42.86 115.14 40.64 116.24 38.44C116.73 37.47 115.27 36.61 114.78 37.58C114.04 39.06 113.32 40.55 112.64 42.05C112.3 42.81 111.96 43.58 111.64 44.35C111.33 45.09 110.97 45.83 110.88 46.63C110.73 47.97 111.46 49.42 112.87 49.64C114.37 49.88 115.62 49.1 116.16 47.71C116.33 47.28 115.98 46.78 115.57 46.67C115.09 46.53 114.7 46.83 114.53 47.26Z" fill="black"/>
<path d="M108.27 105.8C108.27 105.8 91.83 100.64 92.96 94.4801C93.39 92.1501 95.53 91.3901 97.42 92.1801C99.31 92.9701 106.26 96.7601 110.2 97.7001C114.14 98.6501 121.72 99.5901 126.77 105.75C131.82 111.9 149.81 152.3 149.81 152.3L126.46 152.25C126.25 151.62 121.1 127.21 121.1 127.21C121.1 127.21 120.19 127.24 118.81 126.89C117.76 126.63 116.76 125.94 116.76 125.94C116.76 125.94 119.94 128.68 118.26 130.36C116.58 132.04 111.95 131.2 109 128.68C106.05 126.16 107.53 123.81 107.53 123.81C107.53 123.81 105.79 123.96 104.93 121.76C103.9 119.16 104.46 116.63 104.46 116.63C104.46 116.63 101.29 112.12 104.27 108.22C105.46 106.65 108.27 105.8 108.27 105.8Z" fill="#CF806F"/>
<path d="M149.98 117.19C149.6 121.73 148.91 126.24 148.32 130.76C147.61 136.2 146.9 141.65 146.19 147.09C146.05 148.17 147.75 148.16 147.89 147.09C148.6 141.65 149.31 136.2 150.02 130.76C150.61 126.25 151.3 121.73 151.68 117.19C151.77 116.1 150.07 116.1 149.98 117.19Z" fill="black"/>
<path d="M145.63 118.99C146.53 120.93 147.67 122.73 148.99 124.42C149.27 124.77 149.9 124.73 150.19 124.42C150.53 124.05 150.48 123.59 150.19 123.22C149.65 122.53 149.03 121.64 148.53 120.82C148 119.95 147.52 119.06 147.1 118.14C146.91 117.74 146.3 117.6 145.94 117.84C145.52 118.1 145.43 118.56 145.63 118.99Z" fill="black"/>
<path d="M149.67 150.82C147.94 147.18 146.24 143.52 144.51 139.88C144.04 138.89 142.58 139.75 143.05 140.74C144.78 144.38 146.48 148.04 148.21 151.68C148.68 152.66 150.14 151.8 149.67 150.82Z" fill="black"/>
<path d="M123.33 124.57C121.2 126.46 118.1 125.85 115.84 124.59C114.89 124.06 114.03 125.52 114.98 126.05C117.96 127.71 121.8 128.19 124.53 125.76C125.34 125.04 124.14 123.84 123.33 124.57Z" fill="black"/>
<path d="M112.41 112.78C110.38 112.62 108.15 113.06 106.49 114.28C105.64 114.9 104.92 115.69 104.5 116.66C103.99 117.83 103.92 119.08 104.17 120.33C104.26 120.78 104.79 121.04 105.21 120.92C105.68 120.79 105.89 120.33 105.8 119.88C105.44 118.14 106.17 116.51 107.6 115.57C109.02 114.63 110.73 114.34 112.41 114.48C112.87 114.52 113.26 114.06 113.26 113.63C113.26 113.14 112.87 112.82 112.41 112.78Z" fill="black"/>
<path d="M110.67 105.4C106.72 104.98 103.01 107.66 102.08 111.51C101.82 112.57 103.46 113.02 103.72 111.96C104.07 110.52 104.88 109.2 106.07 108.31C107.4 107.32 109.04 106.92 110.67 107.1C111.13 107.15 111.52 106.68 111.52 106.25C111.52 105.75 111.13 105.45 110.67 105.4Z" fill="black"/>
<path d="M116.84 126.88C118.21 127.95 117.09 129.68 115.75 130.15C115.06 130.39 114.17 130.33 113.46 130.23C112.73 130.13 111.99 129.91 111.33 129.57C110.03 128.89 108.91 127.66 108.8 126.14C108.68 124.54 109.55 122.95 110.8 121.98C112.46 120.7 114.64 120.39 116.68 120.46C117.77 120.5 117.77 118.8 116.68 118.76C114.31 118.68 111.81 119.12 109.87 120.57C108.15 121.86 106.93 124.02 107.11 126.22C107.29 128.35 108.72 130.17 110.61 131.1C112.34 131.95 114.87 132.45 116.68 131.59C117.72 131.1 118.65 130.15 119.03 129.05C119.44 127.87 119.01 126.45 118.03 125.68C117.67 125.4 117.19 125.33 116.83 125.68C116.55 125.97 116.48 126.6 116.84 126.88Z" fill="black"/>
<path d="M124.14 126.05L122.04 131.94L121.09 127.21L124.14 126.05Z" fill="black"/>
<path d="M84.27 107.64C84.2 111.11 82.63 114.36 81.69 117.64C80.63 121.32 79.59 125 78.53 128.68C76.41 136.12 74.28 143.55 72.16 150.99C71.86 152.04 73.5 152.49 73.8 151.44C75.97 143.85 78.14 136.25 80.31 128.66C81.36 124.98 82.39 121.29 83.46 117.62C84.43 114.32 85.89 111.13 85.97 107.63C85.98 106.55 84.29 106.55 84.27 107.64Z" fill="black"/>
<path d="M44 64.3501C43.61 64.2701 11.79 59.7201 9.04001 59.3001C5.54001 58.7601 2.43001 64.5601 12.81 66.6301C22.09 68.4901 27.02 70.2901 27.02 70.2901C27.02 70.2901 20.26 71.0001 20.61 75.4301C20.61 75.4301 20.57 76.8801 21.61 78.2801C21.61 78.2801 19.83 80.9801 21.31 82.5801C22.79 84.1801 23.76 84.2001 23.76 84.2001C23.76 84.2001 24.47 90.1901 28.86 89.6301L32.28 89.3701C32.28 89.3701 34.66 93.9901 43.61 92.8901C43.61 92.8901 47.02 122.69 49.29 134.86C51.56 147.03 58.63 149.15 64.59 149.83C70.55 150.51 79.17 143.9 73.52 125.62C67.87 107.34 59.8 87.5001 58.29 83.0401C55.32 74.3101 49.28 65.4601 44 64.3501Z" fill="#CF806F"/>
<path d="M42.63 70.5101C39.63 70.9601 36.62 71.3601 33.63 71.8501C31.58 72.1801 29.2 72.9301 28.43 75.0901C27.75 77.0001 28.66 79.2701 30.48 80.1701C31.61 80.7301 32.94 80.7601 34.17 80.8701C35.81 81.0101 37.46 81.1501 39.1 81.3001C38.8 81.0001 38.5 80.7001 38.2 80.4001C38.04 83.5001 39.27 86.8101 42 88.5001C44.32 89.9401 47.62 89.6801 49.4 87.5001C50.13 86.6101 48.86 85.3301 48.13 86.2301C46.77 87.9001 44.39 88.0001 42.68 86.8001C40.65 85.3701 39.88 82.7801 40.01 80.4101C40.04 79.8901 39.57 79.5501 39.11 79.5101C37.91 79.4101 36.71 79.3001 35.5 79.2001C34.37 79.1001 33.18 79.1001 32.07 78.8401C30.33 78.4301 29.22 76.3501 30.65 74.9101C31.9 73.6501 34.18 73.5901 35.83 73.3401C38.26 72.9801 40.69 72.6201 43.11 72.2601C44.25 72.0801 43.76 70.3401 42.63 70.5101Z" fill="black"/>
<path d="M27.75 74.1801C28.4 74.4201 29.07 74.6101 29.75 74.7601C29.99 74.8101 30.23 74.7901 30.44 74.6701C30.63 74.5601 30.8 74.3501 30.85 74.1301C30.9 73.9001 30.89 73.6401 30.76 73.4401C30.64 73.2501 30.45 73.0801 30.22 73.0301C29.54 72.8801 28.87 72.6901 28.22 72.4501C28.01 72.3701 27.71 72.4301 27.53 72.5401C27.34 72.6501 27.17 72.8601 27.12 73.0801C27.07 73.3101 27.08 73.5701 27.21 73.7701C27.34 73.9701 27.51 74.1001 27.75 74.1801Z" fill="black"/>
<path d="M30.57 78.3501C29.67 78.3101 28.77 78.3001 27.87 78.2001C27.79 78.1901 27.71 78.1801 27.63 78.1701C27.42 78.1501 27.78 78.1901 27.66 78.1701C27.62 78.1601 27.58 78.1601 27.54 78.1501C27.34 78.1201 27.15 78.0901 26.95 78.0501C26.43 77.9501 25.92 77.8201 25.41 77.7001C24.95 77.5901 24.41 77.8501 24.3 78.3301C24.19 78.8001 24.44 79.3101 24.93 79.4401C25.88 79.6801 26.84 79.8901 27.81 80.0001C28.73 80.1001 29.65 80.1101 30.57 80.1501C31.04 80.1701 31.49 79.7201 31.47 79.2501C31.45 78.7401 31.08 78.3701 30.57 78.3501Z" fill="black"/>
<path d="M34.91 80.9901C35.49 81.7101 34.7 82.8401 34.09 83.2401C33.06 83.9001 31.76 83.9401 30.58 83.9001C29.2 83.8501 27.82 83.7001 26.46 83.4901C25.14 83.2901 23.73 83.1001 22.55 82.4401C21.54 81.8801 20.63 83.4301 21.64 83.9901C23.19 84.8501 25.01 85.0901 26.74 85.3301C28.49 85.5701 30.33 85.8301 32.11 85.6701C33.64 85.5301 35.21 85.0201 36.15 83.7301C37.04 82.5001 37.15 80.9301 36.19 79.7301C35.45 78.8201 34.19 80.1001 34.91 80.9901Z" fill="black"/>
<path d="M33.25 85.9001C33.6 86.1701 34.17 86.5701 34.25 87.0501C34.31 87.4501 33.91 87.7801 33.6 87.9601C33.53 88.0001 33.46 88.0301 33.4 88.0701C33.34 88.1001 33.36 88.0901 33.45 88.0501C33.4 88.0701 33.35 88.0901 33.31 88.1001C33.13 88.1501 32.96 88.2101 32.78 88.2501C32.34 88.3501 31.95 88.4101 31.56 88.4501C29.76 88.6401 27.88 88.6801 26.08 88.4801C25.6 88.4301 25.18 88.9301 25.18 89.3801C25.18 89.9101 25.59 90.2301 26.08 90.2801C28.26 90.5201 30.58 90.4701 32.74 90.0901C33.9 89.8901 35.05 89.4501 35.7 88.4001C36.72 86.7701 35.44 85.3101 34.17 84.3501C33.78 84.0601 33.16 84.2901 32.94 84.6701C32.65 85.1301 32.86 85.6001 33.25 85.9001Z" fill="black"/>
<path d="M57.97 17.1C45.68 17.03 33.4 16.96 21.11 16.89C19.24 16.88 19.24 19.79 21.11 19.8C33.4 19.87 45.68 19.94 57.97 20.01C59.84 20.02 59.84 17.11 57.97 17.1Z" fill="black"/>
<path d="M31.79 10.6301C29.27 11.6601 26.75 12.6901 24.23 13.7101C22.93 14.2401 21.62 14.7701 20.32 15.3101C19.14 15.7901 17.65 16.2101 17.74 17.7801C17.81 19.1401 19.22 19.9201 20.17 20.6701C21.27 21.5301 22.39 22.3701 23.52 23.2001C25.65 24.7601 27.84 26.2401 30.06 27.6601C31.64 28.6701 33.1 26.1501 31.53 25.1501C29.57 23.9001 27.65 22.6001 25.76 21.2501C24.84 20.5901 23.92 19.9101 23.01 19.2201C22.6 18.9101 22.2 18.6001 21.79 18.2801C21.58 18.1101 21.36 17.9401 21.15 17.7701C21.01 17.6601 20.87 17.5401 20.72 17.4301C20.47 17.1501 20.44 17.2701 20.65 17.8101C20.53 18.0201 20.4 18.2401 20.28 18.4501C20.37 18.3501 21.07 18.1301 21.35 18.0201C21.87 17.8101 22.39 17.5901 22.91 17.3801C24 16.9401 25.08 16.4901 26.17 16.0501C28.3 15.1801 30.43 14.3101 32.55 13.4401C33.28 13.1401 33.79 12.4701 33.57 11.6501C33.39 10.9601 32.52 10.3301 31.79 10.6301Z" fill="black"/>
</g>
<defs>
<clipPath id="clip0_259_537">
<rect width="179.56" height="152.29" fill="white"/>
</clipPath>
</defs>
</svg>
