<svg width="151" height="163" viewBox="0 0 151 163" fill="none" xmlns="http://www.w3.org/2000/svg">
<g clip-path="url(#clip0_243_1621)">
<path d="M148.88 119.31C145.26 97.25 135.26 72.48 104.15 67.05C83.5801 63.46 47.6701 61.17 17.8101 91.65C3.12006 106.63 -6.39994 126.99 5.12006 143.27C7.61006 146.8 12.5101 151.43 19.0001 153.41L16.4501 163.39H135.46L132.57 154.46C148.55 151.27 152.5 141.38 148.88 119.31Z" fill="#EF9AC2"/>
<path d="M98.2501 130.31C100.08 133.73 102.59 136.85 105.12 139.76C108.7 143.87 112.75 147.68 117.35 150.64C121.35 153.21 125.89 155.11 130.69 155.19C134.75 155.26 138.92 154.21 142.34 152C147.08 148.95 149.83 143.96 150.72 138.47C150.93 137.15 148.91 136.58 148.7 137.91C147.95 142.56 145.86 146.95 141.95 149.74C138.89 151.92 135.15 153.03 131.4 153.09C121.81 153.25 113.5 145.94 107.46 139.24C104.71 136.19 102 132.89 100.06 129.25C99.4201 128.06 97.6101 129.12 98.2501 130.31Z" fill="#E66FA9"/>
<path d="M77.6 84.85C77.71 84.17 78.51 83.87 79.03 84.32C81.28 86.29 86.31 91.2 87.83 96.92C89.14 101.84 88.82 105.06 88.45 106.67C88.31 107.29 87.58 107.57 87.07 107.17C85.12 105.65 80.81 101.94 79.15 97.57C76.96 91.76 77.24 87.09 77.6 84.85Z" fill="#901E5E"/>
<path d="M92.26 55.53C92.26 55.53 94.81 61.21 100.54 59.71C105 58.55 104.03 52.4 104.03 52.4C104.03 52.4 109.37 53.23 111.15 47.96C112.44 44.16 109.25 41.54 109.25 41.54C109.25 41.54 114.26 39.95 114.73 33.43C115.24 26.52 109.98 24.55 109.98 24.55C109.98 24.55 112.8 19.66 109.77 16.94C106.1 13.64 101.78 15.79 101.78 15.79C101.78 15.79 101.21 8.09996 97.3 6.86996C90.28 4.65996 87.03 9.59996 87.03 9.59996C87.03 9.59996 88.06 5.40996 82.89 2.70996C78.6 0.469956 74.74 4.64996 74.74 4.64996C74.74 4.64996 73.31 -0.860044 67 0.119956C62.31 0.849956 62.19 6.66996 62.19 6.66996C62.19 6.66996 57.58 4.48996 53.38 7.66996C47.42 12.18 49.72 19.73 49.72 19.73C49.72 19.73 44.34 18.78 42.46 23.73C40.35 29.29 44.91 31.73 44.91 31.73C44.91 31.73 42.05 36.68 47.2 38.85C49.5 39.82 92.26 55.53 92.26 55.53Z" fill="black"/>
<path d="M103.49 39.93C103.49 39.93 104.76 30.08 99.1201 21.88C93.1101 13.15 83.6201 9.99996 69.8201 12.39C56.0201 14.78 50.6701 25.01 48.5801 34.08L86.5701 39.01L84.6001 55.14L95.1501 56.63L103.49 39.93Z" fill="black"/>
<path d="M95.06 44.39C95.06 44.39 96.23 38.14 100.02 37.27C103.82 36.4 105.3 38.92 104.93 43.32C104.57 47.73 101.49 52.13 96.95 51.12C96.95 51.12 94.14 60.61 94.68 66.28C94.68 66.28 89.14 67.72 85.15 71.34C77.39 78.37 77.1 82.47 77.1 82.47C76.42 78.55 72.22 77.29 72.22 77.29C72.22 77.29 55.75 77.94 49.77 69C41.52 56.67 49.35 34.1 49.35 34.1C49.35 34.1 49.99 32.02 51.4 29.72C51.4 29.72 54.04 29.81 56.2 28.34C59.14 26.34 59.21 23.69 59.21 23.69C59.21 23.69 60.44 27.05 66.03 26.74C69.11 26.57 71.22 25.52 73.27 22.26C73.27 22.26 73.49 26.04 77.83 27.95C81.52 29.57 85.09 27.46 85.09 27.46C81.79 30.71 85.32 38.73 90.22 37.76C90.22 37.76 88.63 45.29 91.3 46.56C92.8 47.29 94.53 46.14 95.06 44.39Z" fill="#DC7B6A"/>
<path d="M76.1901 74.83C71.9401 75.87 67.3001 75.82 63.0201 74.95C58.6001 74.05 54.9301 71.87 52.0401 68.38C45.0401 59.91 46.7101 48.69 49.0701 38.82C50.0701 34.66 51.2801 30.27 53.6001 26.64C54.4301 25.33 52.3501 24.13 51.5301 25.43C49.2501 29.02 47.9801 33.3 46.9501 37.4C45.6701 42.49 44.5201 47.82 44.5301 53.08C44.5401 63.51 50.4001 74.21 61.0001 76.95C66.0901 78.27 71.7301 78.4 76.8401 77.15C78.3301 76.78 77.6901 74.46 76.1901 74.83Z" fill="black"/>
<path d="M70.3199 71.61C67.6599 72.63 64.6599 72.6 62.0499 71.43C61.6899 71.27 61.2599 71.33 61.0499 71.69C60.8699 72 60.9499 72.53 61.3099 72.69C64.2699 74.02 67.6699 74.18 70.7099 73.02C71.0799 72.88 71.3299 72.53 71.2199 72.12C71.1199 71.76 70.6899 71.46 70.3199 71.61Z" fill="black"/>
<path d="M101.26 40.8199C100.02 40.9399 99.07 41.7799 98.59 42.9099C98.05 44.1999 98.26 45.6199 98.47 46.9499C98.53 47.3399 99.0201 47.5599 99.3701 47.4599C99.7901 47.3499 99.94 46.9499 99.88 46.5599C99.72 45.5799 99.56 44.5099 99.89 43.5599C99.89 43.5499 99.94 43.4199 99.92 43.4699C99.9 43.5199 99.95 43.3999 99.96 43.3899C100.01 43.2899 100.06 43.1899 100.12 43.0999C100.15 43.0599 100.17 43.0199 100.2 42.9799C100.22 42.9499 100.27 42.8899 100.22 42.9499C100.29 42.8599 100.37 42.7799 100.44 42.7099C100.48 42.6799 100.51 42.6399 100.55 42.6099C100.64 42.5299 100.48 42.6599 100.57 42.5899C100.66 42.5299 100.75 42.4699 100.85 42.4199C100.89 42.3999 100.94 42.3699 100.87 42.3999C100.91 42.3799 100.96 42.3699 101.01 42.3499C101.07 42.3299 101.13 42.3199 101.18 42.2999C101.21 42.2899 101.36 42.2799 101.24 42.2899C101.63 42.2499 101.97 41.9799 101.97 41.5599C102 41.1799 101.66 40.7799 101.26 40.8199Z" fill="black"/>
<path d="M62.4899 50.41C62.5399 49.09 62.7399 47.76 62.9599 46.46C63.1799 45.15 63.4199 43.84 63.7999 42.57C64.0799 41.65 65.5399 41.99 65.2599 42.93C64.6599 44.94 64.3199 47.07 64.0899 49.15C63.9899 50.06 63.7399 51.38 64.2699 52.19C64.8499 53.08 66.2799 52.73 66.3499 51.65C66.4099 50.7 67.8499 50.62 67.8499 51.6C67.8499 52.05 68.1899 52.53 68.6799 52.52C69.1699 52.51 69.4899 52.01 69.4599 51.56C69.4099 50.59 70.9099 50.55 70.9599 51.51C71.0299 52.78 70.0099 53.97 68.7199 54.02C68.0899 54.04 67.5199 53.78 67.0899 53.36C66.5199 53.98 65.6899 54.33 64.7599 54.16C62.9499 53.84 62.4299 52.04 62.4899 50.41Z" fill="black"/>
<path d="M99.87 52.82C100.12 52.8 100.39 52.72 100.68 52.59C101.13 52.38 101.45 51.97 101.59 51.44C101.75 50.82 101.61 50.12 101.24 49.62C100.57 48.71 99.27 48.88 99.22 48.88C99.22 48.88 98.7 48.92 98.77 49.42C98.83 49.83 99.33 49.74 99.33 49.74C99.34 49.74 100.17 49.64 100.53 50.13C100.75 50.43 100.83 50.85 100.74 51.22C100.7 51.38 100.59 51.66 100.31 51.79C99.96 51.95 99.64 51.92 99.42 51.81C99.1 51.66 98.99 51.36 98.95 51.21C98.95 51.21 98.76 51.24 98.48 51.25C98.2 51.26 98.01 51.25 98.01 51.25C98.03 51.35 98.32 52.3 99.06 52.67C99.31 52.8 99.58 52.85 99.87 52.82Z" fill="#FBE574"/>
<path d="M70.6101 34.4C70.8501 34.24 71.0901 34.1 71.3501 33.97C71.4101 33.94 71.4801 33.91 71.5401 33.88C71.4101 33.94 71.4001 33.94 71.5401 33.88C71.6701 33.83 71.8101 33.78 71.9401 33.74C72.0801 33.7 72.2101 33.67 72.3501 33.64C72.4201 33.63 72.4901 33.61 72.5601 33.6C72.4001 33.62 72.4001 33.62 72.5401 33.6C72.8201 33.58 73.0901 33.58 73.3801 33.6C73.5201 33.62 73.5101 33.61 73.3301 33.59C73.3901 33.6 73.4501 33.61 73.5201 33.62C73.6401 33.65 73.7701 33.68 73.8901 33.71C73.9501 33.73 74.3501 33.86 74.0401 33.75C74.1601 33.79 74.2701 33.86 74.3801 33.92C74.4901 33.98 74.5901 34.05 74.7001 34.12C74.8101 34.2 74.8001 34.19 74.6701 34.09C74.7201 34.13 74.7701 34.17 74.8101 34.21C74.9001 34.29 74.9901 34.38 75.0801 34.48C75.1201 34.53 75.1601 34.57 75.2001 34.62C75.1001 34.49 75.0901 34.48 75.1701 34.6C75.5401 35.14 76.2801 35.43 76.8801 35.05C77.4101 34.71 77.7201 33.92 77.3301 33.34C76.4501 32.05 75.1101 31.3 73.5701 31.11C72.1001 30.93 70.5701 31.41 69.3501 32.22C68.8101 32.58 68.5201 33.34 68.9001 33.93C69.2501 34.49 70.0301 34.78 70.6101 34.4Z" fill="black"/>
<path d="M53.84 36.46C53.88 36.43 54.23 36.15 54 36.32C54.11 36.23 54.23 36.15 54.35 36.08C54.59 35.93 54.84 35.79 55.1 35.67C54.84 35.8 55.24 35.62 55.29 35.6C55.42 35.55 55.56 35.51 55.7 35.48C55.84 35.45 55.98 35.42 56.11 35.39C55.8 35.44 56.24 35.38 56.3 35.38C56.43 35.37 56.57 35.37 56.7 35.38C56.78 35.38 57.19 35.36 56.87 35.39C57.11 35.37 57.42 35.52 57.65 35.59C57.78 35.64 57.77 35.64 57.63 35.58C57.69 35.61 57.75 35.64 57.81 35.67C57.93 35.73 58.04 35.8 58.15 35.87C58.21 35.91 58.26 35.94 58.31 35.98C58.19 35.89 58.18 35.88 58.29 35.97C58.39 36.06 58.48 36.15 58.58 36.25C59.03 36.73 59.9 36.74 60.34 36.25C60.81 35.74 60.82 35 60.34 34.49C59.32 33.4 57.78 32.82 56.29 32.88C54.7 32.95 53.25 33.65 52.07 34.69C51.58 35.12 51.6 36.02 52.07 36.45C52.6 36.94 53.31 36.92 53.84 36.46Z" fill="black"/>
<path d="M73.3199 77.7599C74.6099 78.4199 76.6399 79.8599 77.0899 82.4699C77.0899 82.4699 77.3899 78.3699 85.1499 71.3399C89.1399 67.7199 94.6799 66.2799 94.6799 66.2799C94.5799 65.2199 94.5999 64.0299 94.6899 62.7899C96.1699 62.9199 97.5699 63.5299 98.4199 65.0099C101.48 68.9899 91.5899 89.8799 76.9499 90.7599C72.4799 91.0299 68.4599 86.7299 65.6699 77.7999L73.3199 77.7599Z" fill="#901E5E"/>
<path d="M94.2301 68.84C91.4801 73.6 88.0701 77.94 84.1001 81.74C83.2501 82.55 84.5401 83.84 85.3901 83.03C89.4701 79.13 92.9901 74.65 95.8101 69.76C96.3901 68.74 94.8101 67.82 94.2301 68.84Z" fill="#78111B"/>
<path d="M77.92 85.65C78.51 85.3 79.25 85.7299 79.23 86.4199C79.13 89.4199 78.52 96.41 75.07 101.21C72.09 105.34 69.4 107.13 67.92 107.87C67.35 108.15 66.68 107.76 66.66 107.13C66.59 104.66 66.73 98.9699 69.07 94.9199C72.16 89.5299 75.95 86.79 77.92 85.65Z" fill="#901E5E"/>
<path d="M80.6201 82.8599C79.5301 81.6899 77.9401 81.1799 76.3701 81.5399C74.9501 81.8599 73.9401 82.8999 73.2201 84.1199C72.3801 85.5299 71.8201 87.2599 71.9701 88.9199C72.1201 90.5599 73.0701 92.2099 74.5601 92.9899C76.3001 93.8899 78.2501 93.5499 79.7401 92.3299C80.1201 92.0199 80.0601 91.3599 79.7401 91.0399C79.3601 90.6599 78.8301 90.7299 78.4501 91.0399C76.6701 92.5099 74.1501 91.2899 73.8201 89.0599C73.6301 87.8299 74.0201 86.5099 74.5901 85.4299C74.8401 84.9599 75.1101 84.5199 75.4501 84.1399C75.7401 83.8099 76.0901 83.5699 76.4201 83.4399C76.9101 83.2599 77.4001 83.1999 77.8401 83.2899C78.4401 83.4199 78.9001 83.7099 79.3301 84.1599C80.1401 85.0099 81.4301 83.7099 80.6201 82.8599Z" fill="#78111B"/>
<path d="M74.38 92.2999C73.71 93.3699 73.08 94.4499 72.47 95.5599C72.24 95.9799 72.35 96.5699 72.8 96.8099C73.23 97.0399 73.8 96.9299 74.05 96.4799C74.65 95.3799 75.29 94.2899 75.96 93.2199C76.21 92.8099 76.06 92.1999 75.63 91.9699C75.18 91.7399 74.65 91.8699 74.38 92.2999Z" fill="#78111B"/>
<path d="M70.4101 82.44C71.0001 83.6 71.7901 84.66 72.7201 85.57C73.0601 85.9 73.6701 85.94 74.0101 85.57C74.3401 85.21 74.3701 84.64 74.0101 84.28C73.6301 83.91 73.2801 83.52 72.9601 83.1C73.0101 83.16 73.0601 83.22 73.1001 83.28C72.6801 82.73 72.3001 82.14 71.9901 81.51C71.7701 81.08 71.1401 80.93 70.7401 81.18C70.3101 81.47 70.1801 81.98 70.4101 82.44Z" fill="#78111B"/>
<path d="M77.6701 41.3699C78.0101 40.8299 78.3801 40.2999 78.7701 39.7899C78.8501 39.6799 78.8601 39.4799 78.8301 39.3599C78.7901 39.2299 78.6901 39.0899 78.5701 39.0299C78.4401 38.9599 78.2801 38.9299 78.1401 38.9699C78.1001 38.9899 78.0501 39.0099 78.0101 39.0299C77.9301 39.0799 77.8601 39.1499 77.8101 39.2299C77.4201 39.7399 77.0601 40.2699 76.7101 40.8099C76.5501 41.0599 76.6501 41.4299 76.9101 41.5699C77.1901 41.7199 77.5101 41.6299 77.6701 41.3699Z" fill="black"/>
<path d="M78.9301 42.4699C79.3301 42.1799 79.7501 41.9099 80.1901 41.6699C80.3101 41.5999 80.4101 41.4699 80.4501 41.3399C80.4901 41.2099 80.4701 41.0299 80.3901 40.9099C80.2201 40.6499 79.9001 40.5599 79.6301 40.7099C79.1901 40.9499 78.7701 41.2199 78.3701 41.5099C78.2501 41.5999 78.1601 41.6899 78.1101 41.8399C78.0701 41.9699 78.0901 42.1499 78.1701 42.2699C78.2501 42.3899 78.3601 42.4899 78.5001 42.5299C78.6401 42.5599 78.8101 42.5599 78.9301 42.4699Z" fill="black"/>
<path d="M79.2401 42.8999C79.3301 41.6299 77.7501 40.7499 77.2901 40.5499C76.2901 40.1099 74.8001 39.6699 72.8601 39.7999C69.6801 40.0099 68.9001 41.4199 68.7501 42.1699C68.6201 42.7999 68.7901 43.9899 69.8001 44.2999C70.3501 44.4699 71.5101 44.3399 73.5901 44.3999C75.5701 44.4599 76.8701 44.6299 77.4801 44.4799C78.1101 44.3299 79.1501 44.2699 79.2401 42.8999Z" fill="white"/>
<path d="M75.09 44.07C77.25 44.07 77.25 40.72 75.09 40.72C72.93 40.72 72.93 44.07 75.09 44.07Z" fill="black"/>
<path d="M53.48 40.3C53.25 39.65 52.99 39.01 52.71 38.38C52.66 38.26 52.5 38.16 52.38 38.12C52.25 38.08 52.07 38.1 51.95 38.18C51.83 38.26 51.73 38.37 51.69 38.51C51.65 38.66 51.68 38.79 51.75 38.94C51.82 39.09 51.88 39.23 51.94 39.38C51.92 39.34 51.9 39.29 51.88 39.25C52.07 39.69 52.24 40.14 52.4 40.6C52.45 40.74 52.53 40.86 52.66 40.93C52.78 41 52.95 41.03 53.09 40.99C53.37 40.9 53.59 40.59 53.48 40.3Z" fill="black"/>
<path d="M51.72 40.6C51.39 40.22 51.04 39.87 50.67 39.53C50.56 39.43 50.43 39.37 50.28 39.37C50.14 39.37 49.98 39.43 49.89 39.53C49.79 39.64 49.72 39.78 49.73 39.92C49.74 40.06 49.78 40.21 49.89 40.31C50.26 40.64 50.61 41 50.94 41.38C51.03 41.48 51.2 41.54 51.33 41.54C51.47 41.54 51.63 41.48 51.72 41.38C51.82 41.27 51.89 41.13 51.88 40.99C51.88 40.84 51.82 40.72 51.72 40.6Z" fill="black"/>
<path d="M50.5201 42.15C50.8301 40.91 52.1501 40.1 52.6201 39.93C53.6501 39.56 54.7701 39.43 56.7001 39.68C59.8601 40.1 60.4101 41.13 60.6301 41.95C60.8001 42.57 60.5401 43.53 59.5101 43.77C58.9501 43.9 57.7201 43.87 55.7701 43.9C53.7901 43.93 52.1601 44.04 51.5501 43.84C50.9501 43.66 50.2301 43.29 50.5201 42.15Z" fill="white"/>
<path d="M56.7301 43.67C58.8901 43.67 58.8901 40.32 56.7301 40.32C54.5701 40.31 54.5701 43.67 56.7301 43.67Z" fill="black"/>
<path d="M68.0699 57.93C67.2999 58.42 66.6599 59.11 66.3899 60C66.1199 60.9 66.2999 61.99 66.9999 62.66C67.6899 63.31 68.8099 63.55 69.6399 63.02C70.1199 62.71 70.4299 62.18 70.3899 61.6C70.3499 61.03 70.0299 60.51 69.5299 60.23C68.8899 59.88 68.1799 60.01 67.7299 60.58C67.4599 60.92 67.2899 61.31 67.4699 61.74C67.5599 61.95 67.6999 62.1 67.8999 62.21C68.1899 62.37 68.4899 62.33 68.7799 62.19C69.1599 62.02 69.2799 61.44 69.0599 61.11C68.8099 60.72 68.3799 60.64 67.9799 60.83C67.9699 60.84 67.9499 60.84 67.9399 60.85C68.0699 60.81 68.2099 60.78 68.3399 60.74C68.3299 60.74 68.3099 60.74 68.2999 60.74C68.4299 60.78 68.5699 60.81 68.6999 60.85C68.7399 60.98 68.7699 61.11 68.8099 61.25C68.8099 61.64 68.8499 61.76 68.9299 61.62C68.9599 61.54 68.9099 61.68 68.8899 61.67L69.0099 61.54C69.0099 61.55 68.8799 61.62 68.9599 61.58C69.0399 61.54 68.8999 61.6 68.8999 61.6C68.8499 61.61 68.8099 61.6 68.7599 61.61C68.6399 61.62 68.8499 61.64 68.7299 61.6C68.6299 61.57 68.7799 61.64 68.8099 61.65C68.8899 61.69 68.7599 61.62 68.7599 61.61C68.7599 61.61 68.8099 61.67 68.8199 61.67C68.8899 61.73 68.7699 61.62 68.7799 61.62C68.7999 61.62 68.8199 61.71 68.8399 61.72C68.8199 61.72 68.7999 61.58 68.8099 61.66C68.8099 61.68 68.8399 61.81 68.8199 61.69C68.7899 61.54 68.7999 61.86 68.8199 61.7C68.8299 61.59 68.8299 61.68 68.8099 61.7C68.8099 61.71 68.7999 61.72 68.7999 61.73C68.7899 61.77 68.7899 61.77 68.8099 61.71C68.8699 61.66 68.8199 61.68 68.7999 61.71C68.8099 61.7 68.8999 61.61 68.8399 61.66C68.8299 61.66 68.7799 61.71 68.7799 61.72C68.7799 61.69 68.9099 61.64 68.7999 61.69C68.6599 61.76 68.9299 61.66 68.7899 61.7C68.7599 61.71 68.6599 61.72 68.6399 61.74C68.6399 61.74 68.8099 61.73 68.7199 61.73C68.6899 61.73 68.6699 61.73 68.6399 61.73C68.5999 61.73 68.4099 61.71 68.5299 61.73C68.6599 61.75 68.4799 61.72 68.4499 61.71C68.3999 61.7 68.3499 61.68 68.2999 61.66C68.2199 61.63 68.3599 61.68 68.3599 61.69C68.3499 61.68 68.2999 61.66 68.2899 61.65C68.2599 61.63 68.1599 61.55 68.1299 61.55C68.1499 61.55 68.2699 61.67 68.1599 61.57C68.1399 61.55 68.1199 61.53 68.0999 61.51C68.0799 61.49 67.9699 61.36 68.0399 61.45C68.1099 61.54 67.9999 61.39 67.9899 61.36C67.9799 61.33 67.9599 61.31 67.9499 61.28C67.8799 61.17 67.9699 61.3 67.9599 61.31C67.9599 61.31 67.8699 61 67.8599 60.97C67.8299 60.82 67.8599 61.1 67.8599 60.95C67.8599 60.88 67.8499 60.81 67.8599 60.74C67.8599 60.71 67.8799 60.53 67.8599 60.64C67.8399 60.75 67.8799 60.57 67.8799 60.54C67.8899 60.48 67.9099 60.43 67.9299 60.37C67.9399 60.34 67.9499 60.31 67.9599 60.29C67.9999 60.16 67.9499 60.32 67.9499 60.32C67.9399 60.31 68.1499 59.96 68.1699 59.94C68.1699 59.93 68.2199 59.87 68.2199 59.87C68.2199 59.87 68.1199 59.99 68.1999 59.89C68.2399 59.84 68.2899 59.79 68.3399 59.74C68.4299 59.64 68.5399 59.55 68.6399 59.46C68.6499 59.45 68.6899 59.41 68.7099 59.4C68.6699 59.41 68.5999 59.48 68.6899 59.42C68.7499 59.38 68.8199 59.33 68.8899 59.29C69.2399 59.07 69.4099 58.58 69.1699 58.21C68.9299 57.87 68.4399 57.69 68.0699 57.93Z" fill="black"/>
<path d="M65.9401 66.1999C67.3501 66.8999 69.0401 67.0299 70.5201 66.4499C70.9001 66.2999 71.2101 65.9099 71.0701 65.4799C70.9501 65.1099 70.5101 64.7599 70.1001 64.9299C69.7901 65.0499 69.4601 65.1499 69.1301 65.1999C69.1001 65.1999 68.8801 65.2199 69.0701 65.2099C68.9801 65.2199 68.8901 65.2299 68.8001 65.2299C68.6401 65.2399 68.4901 65.2399 68.3301 65.2399C68.2501 65.2399 68.1701 65.2299 68.1001 65.2299C68.0601 65.2299 67.8201 65.1999 68.0101 65.2199C67.8501 65.1999 67.7001 65.1699 67.5501 65.1299C67.4001 65.0899 67.2501 65.0499 67.1001 64.9999C67.0701 64.9899 66.8101 64.8799 66.9801 64.9599C66.9001 64.9199 66.8201 64.8899 66.7401 64.8499C66.3701 64.6699 65.8701 64.7399 65.6601 65.1299C65.4701 65.4799 65.5501 65.9999 65.9401 66.1999Z" fill="black"/>
<path d="M90.4901 118.27C90.4901 118.27 83.9701 112.96 77.5301 118.22C73.2501 121.71 72.7301 125.28 71.4401 127.96C71.2401 128.39 70.0401 130.66 68.0701 132.71C65.1001 135.82 62.0601 138.75 63.3101 141C64.8001 143.67 66.7601 144.01 70.4201 140.58C72.8501 138.3 74.2001 136.85 74.9201 136.22C75.1201 136.04 75.4201 136.27 75.3101 136.51C74.8101 137.61 73.7301 139.95 72.6801 141.86C70.0101 146.75 67.8901 150.99 70.3801 153.07C73.8901 156 76.9001 149.91 78.4001 147.52C79.6001 145.6 81.3001 143.01 81.9101 142.11C81.9501 142.06 82.0301 142.1 82.0001 142.16C81.4701 143.61 79.5301 148.91 78.9001 151.31C78.1701 154.1 77.0101 156.78 78.8401 158.38C80.6701 159.97 83.1801 159.58 84.1901 157.49C84.8401 156.13 88.4301 146.98 89.3201 144.71C89.3401 144.65 89.4301 144.68 89.4101 144.74C89.2101 145.77 88.7701 148.12 88.4201 150.48C87.9501 153.63 87.9001 156.98 88.5901 158.65C89.8201 161.6 93.3701 161.37 94.7001 158.27C95.6201 156.11 98.2301 142.29 98.2301 142.29C98.2301 142.29 98.1101 146.88 100.6 150.08C103.09 153.28 106.69 154.01 108.32 151.45C109.95 148.89 106.47 142.63 106.37 139.71C106.28 136.79 106.74 134.44 106.27 130.12C105.71 125.01 102.96 121.62 98.9101 119.4C94.5501 116.99 90.4901 118.27 90.4901 118.27Z" fill="#B86C51"/>
<path d="M90.8403 132.85C91.1403 135.19 91.9303 137.3 93.5103 139.08C94.9603 140.73 97.2003 142.03 99.4203 142.19C100.35 142.26 100.35 140.81 99.4203 140.74C97.5903 140.6 95.7303 139.4 94.5403 138.06C93.2403 136.59 92.5403 134.79 92.3003 132.86C92.2503 132.47 92.0003 132.13 91.5703 132.13C91.2103 132.12 90.7903 132.45 90.8403 132.85Z" fill="black"/>
<path d="M73.8702 133.64C77.7602 139.74 85.3702 144.69 92.8202 143.81C93.7402 143.7 93.7502 142.25 92.8202 142.36C85.8802 143.18 78.7702 138.62 75.1302 132.91C74.6202 132.12 73.3602 132.85 73.8702 133.64Z" fill="black"/>
<path d="M64.9801 108.13C64.0601 110.78 66.9401 108.75 68.6501 107.79C71.1901 106.37 72.0801 106.01 75.5301 103.26C78.9801 100.5 80.9001 97.88 83.0901 98.67C85.2801 99.47 85.5601 101.42 84.9101 103.16C84.2701 104.9 80.2001 110.76 75.0901 113.28C75.0901 113.28 77.3801 112.63 82.7001 110.61C86.6001 109.13 88.9601 106.25 90.9501 108.45C93.9101 111.75 89.8801 114.59 89.8801 114.59C89.8801 114.59 92.1801 114.99 92.0501 117.29C91.9401 119.23 89.3201 121.72 87.3601 122.99C87.3601 122.99 89.7401 122.3 90.4501 124.18C91.1801 126.11 88.3901 129.54 82.2401 131.8C79.3201 132.88 74.8401 134.17 71.2101 134.32C67.1101 134.5 64.0401 134.25 60.5901 135.2C57.4501 136.07 54.3301 138.49 54.3301 138.49L43.0901 118.93C43.0901 118.93 47.4001 116.84 48.7101 116.28C53.4601 114.25 53.5701 111.39 55.3301 108.18C56.8101 105.47 58.6601 103.37 60.5501 100.85C62.4501 98.33 62.9901 95.85 64.9101 95.71C67.7801 95.5 68.8901 99.55 67.7801 102.46C66.7501 105.18 65.5301 106.54 64.9801 108.13Z" fill="#DA7B6A"/>
<path d="M76.2702 121.22C81.5202 120.67 86.4702 118.66 90.6202 115.4C91.4702 114.73 90.2702 113.56 89.4402 114.22C85.6802 117.19 81.0402 119.06 76.2802 119.55C75.2102 119.66 75.2002 121.33 76.2702 121.22Z" fill="black"/>
<path d="M77.5201 127.48C81.4101 127.33 85.3501 125.96 88.4501 123.57C88.8101 123.29 89.0001 122.85 88.7501 122.42C88.5401 122.07 87.9601 121.84 87.6001 122.12C84.7401 124.33 81.1301 125.66 77.5201 125.8C76.4501 125.85 76.4401 127.52 77.5201 127.48Z" fill="black"/>
<path d="M112.48 110.12C118.42 113.02 123.93 116.72 128.83 121.15C129.83 122.05 131.32 120.57 130.31 119.67C125.28 115.12 119.63 111.29 113.54 108.32C112.33 107.72 111.27 109.53 112.48 110.12Z" fill="#E66FA9"/>
<path d="M41.1201 118.49C45.5601 125.72 50.0201 132.94 54.3701 140.22C55.0601 141.38 56.8801 140.32 56.1801 139.16C51.8301 131.87 47.3701 124.65 42.9301 117.43C42.2201 116.28 40.4101 117.34 41.1201 118.49Z" fill="#E66FA9"/>
<path d="M41.42 116.67C37.09 118.29 32.88 120.23 28.85 122.48C27.67 123.14 28.73 124.95 29.91 124.29C33.79 122.13 37.82 120.25 41.98 118.69C42.51 118.49 42.87 117.98 42.71 117.4C42.57 116.89 41.96 116.47 41.42 116.67Z" fill="#E66FA9"/>
<path d="M5.95001 145.08C9.56001 151.15 16.3 155.15 23.45 154.68C29.33 154.3 35.06 152.1 40.34 149.61C45.74 147.06 50.87 143.95 55.81 140.6C56.92 139.85 55.87 138.03 54.75 138.79C47.56 143.66 39.89 148.21 31.58 150.87C29.3 151.6 26.96 152.21 24.58 152.48C23.77 152.57 22.95 152.63 22.14 152.63C21.82 152.63 21.51 152.62 21.19 152.6C21.04 152.59 20.9 152.58 20.75 152.56C20.5 152.54 20.55 152.54 20.51 152.53C15.07 151.72 10.57 148.72 7.77001 144.02C7.07001 142.86 5.26001 143.92 5.95001 145.08Z" fill="#E66FA9"/>
</g>
<defs>
<clipPath id="clip0_243_1621">
<rect width="150.74" height="163.39" fill="white"/>
</clipPath>
</defs>
</svg>
