<svg width="194" height="146" viewBox="0 0 194 146" fill="none" xmlns="http://www.w3.org/2000/svg">
<g clip-path="url(#clip0_259_306)">
<path d="M189.23 109.72C191.73 121.74 193.07 145.53 193.07 145.53C193.07 145.53 156.89 145.45 151.2 145.53C116.35 146 86.4102 145.79 51.4202 145.54C51.4202 145.54 53.5002 123.72 54.7602 118.37C65.5102 72.48 106.15 53.78 149.93 65.17C178.01 72.48 184.53 92.18 189.23 109.72Z" fill="#EC6723"/>
<path d="M140.04 63.0901C129.75 71.2801 117.75 85.5501 113.18 109.25C111.44 118.3 110.49 138.6 109.7 145.8C101.75 145.66 90.73 145.96 82.79 145.8C84.96 129.57 92.91 89.5601 104.09 72.8401C106.6 69.0901 109.02 65.8601 111.33 63.0901C120.4 61.5201 130.08 61.5101 140.04 63.0901Z" fill="#B2E1EE"/>
<path d="M87.9301 73.2401C84.5401 76.6301 81.4301 80.2901 78.6201 84.1701C77.9301 85.1201 77.2601 86.0901 76.6101 87.0701C76.0501 87.9101 75.2401 88.8601 75.2701 89.9301C75.3301 92.0801 78.0101 93.6301 79.6701 94.5001C80.8801 95.1301 81.9501 93.3101 80.7401 92.6701C79.8401 92.2001 78.9901 91.6601 78.2301 90.9801C77.9601 90.7401 77.5301 90.4201 77.4501 90.0501C77.3401 89.5901 77.8101 89.1001 78.0601 88.7201C79.1501 87.0501 80.3001 85.4101 81.5101 83.8201C83.9401 80.6101 86.6001 77.5801 89.4401 74.7401C90.3901 73.7701 88.8901 72.2701 87.9301 73.2401Z" fill="#FFC11E"/>
<path d="M83.4401 36.4601C83.4401 36.4601 78.1001 41.7101 76.2701 53.0901C74.4401 64.4701 75.8401 76.4201 89.9201 74.0601C89.9301 74.0601 76.8201 64.7601 83.4401 36.4601Z" fill="black"/>
<path d="M100.36 76.5701C100.36 76.5701 103.72 80.4201 115.02 77.4901C126.32 74.5601 130.72 66.7601 130.72 66.7601C130.72 66.7601 124.57 59.1601 128.66 50.9301C128.66 50.9301 133.66 54.0401 137.15 46.0701C140.64 38.1001 136.97 30.3901 132.28 29.4701C127.6 28.5501 122.82 34.0701 124.57 38.8001C124.57 38.8001 120.8 35.8101 121.26 28.5601C121.72 21.3101 121.72 21.3101 121.72 21.3101L113.73 17.8201L98.2702 15.0701L84.6702 25.3401L84.4902 33.0101C84.4902 33.0101 79.1202 48.0301 82.0502 60.1001C84.9802 72.1701 94.0602 77.6601 100.36 76.5701Z" fill="#F6A6AC"/>
<path d="M78.6501 26.2601C78.5001 33.3901 83.4401 36.4701 83.4401 36.4701L84.6701 33.6601C85.0401 35.4201 85.6701 34.6001 89.1201 34.2201C92.5701 33.8401 95.6201 33.4001 95.6201 33.4001C95.6201 33.4001 95.2301 31.8901 95.2601 26.1401C95.2801 21.3101 97.2501 17.6701 97.8901 16.6301C95.9301 20.0601 96.6401 27.4701 97.6201 30.4501C98.6501 33.5201 100.91 32.1501 105.53 31.8901C108.44 31.7201 111.98 31.6301 114.19 31.5801C115.16 31.5601 115.8 30.5801 115.46 29.6701C114.34 26.6501 114 22.9701 113.9 21.0401C114.43 27.6601 119.76 30.2501 119.76 30.2501C120.03 34.1701 123.27 37.5601 124.28 38.5301C124.34 38.5901 124.4 38.6401 124.44 38.6801C124.46 38.7001 124.49 38.7301 124.5 38.7401C124.52 38.7601 124.53 38.7601 124.54 38.7701C124.57 38.7901 124.58 38.8001 124.58 38.8001C122.84 34.0701 127.61 28.5601 132.29 29.4801C136.98 30.4001 140.65 38.1101 137.16 46.0801C133.95 53.3901 129.46 51.3601 128.76 50.9801C128.67 51.0801 128.57 51.2201 128.46 51.3801C128.46 51.3801 128.46 51.3801 128.45 51.3901C124.8 59.4401 130.72 66.7601 130.72 66.7601C139.86 74.4301 155.85 67.1401 156.97 53.3501C158.08 39.5701 154.74 29.3401 145.45 16.5101C136.17 3.69006 123.28 -2.51995 104.09 0.950055C84.8901 4.41005 78.8101 19.1301 78.6501 26.2601Z" fill="black"/>
<path d="M137.44 34.29C137.75 35 138 35.75 138.18 36.55C140.34 37.65 138.46 39.27 140.86 40.05C143.52 40.92 143.18 36.07 137.44 34.29Z" fill="#B3202D"/>
<path d="M114.85 36.9C114.85 36.9 118.06 36.26 122.46 35.83C123.05 35.78 123.65 35.72 124.28 35.67C124.37 35.11 124.54 34.55 124.77 34.02C123.71 34.09 122.74 34.17 121.85 34.26C117.75 34.62 115.52 35 115.52 35L114.85 36.9Z" fill="#B3202D"/>
<path d="M108.56 36.5601C111.68 37.0601 110.41 39.7601 108.45 39.8701C106.49 39.9801 105.03 40.4501 104.29 40.8201C103.55 41.1901 102.08 41.5001 101.45 40.1501C100.7 38.5501 104.6 35.9201 108.56 36.5601Z" fill="white"/>
<path d="M90.6502 39.9501C92.6802 40.6301 92.6202 43.0601 90.3302 43.0801C88.0402 43.1001 86.8402 43.6001 85.9702 43.9601C85.1002 44.3301 84.2802 43.8101 84.1602 42.5401C84.0102 40.9201 87.6702 38.9501 90.6502 39.9501Z" fill="white"/>
<path d="M103.8 74.7201C99.1502 76.6401 93.4802 75.3801 89.7802 72.1201C82.4602 65.6501 81.6002 54.8701 82.7102 45.7901C83.2802 41.1401 84.4102 36.5601 85.8902 32.1201C86.3202 30.8301 84.2802 30.2701 83.8502 31.5601C80.9002 40.3601 79.1502 50.1001 80.8102 59.3401C82.3902 68.1001 88.3402 77.1201 97.9702 77.6801C100.06 77.8001 102.4 77.5801 104.35 76.7701C105.61 76.2501 105.06 74.2001 103.8 74.7201Z" fill="black"/>
<path d="M84.2402 46.29C87.7502 49.16 90.7702 46.34 91.4802 44.83C92.1802 43.32 92.1802 42.72 92.1802 42.72C92.1802 42.72 94.3002 40.56 97.1002 42.22C97.1002 42.22 98.0602 45.84 99.7702 44.58C99.7702 44.58 104.69 48.3 110.68 43.28C116.66 38.25 118.32 31.67 114.7 31.72C111.08 31.77 101.63 34.58 96.5602 39.55C96.5602 39.55 93.7902 38.35 92.0402 40.15C92.0402 40.15 87.0802 35.63 81.2702 35.12C75.4402 34.63 80.7202 43.43 84.2402 46.29ZM98.3602 40.51C98.3602 40.51 102.31 36.16 109.41 34.63C116.51 33.1 111.92 40.12 109.06 42.22C106.19 44.33 101.89 44.43 99.8102 43.06C97.7302 41.68 98.3602 40.51 98.3602 40.51ZM87.0802 38.64C90.0902 40.2 91.4302 41.18 91.1802 42.78C90.9302 44.37 89.3702 45.35 89.3702 45.35C86.5602 47.98 81.6802 42.88 81.2102 39.48C80.7302 36.07 84.0702 37.08 87.0802 38.64Z" fill="#B3202D"/>
<path d="M95.9601 51.0501C95.9401 51.1201 95.9201 51.1901 95.9001 51.2601C95.8501 51.4001 95.9501 51.1601 95.9101 51.2301C95.8901 51.2601 95.8801 51.3001 95.8601 51.3301C95.8201 51.3901 95.7701 51.4501 95.7401 51.5101C95.8101 51.3701 95.7901 51.4501 95.7401 51.5001C95.7201 51.5201 95.7001 51.5401 95.6801 51.5601C95.6501 51.5901 95.6201 51.6201 95.5801 51.6501C95.5101 51.7101 95.5901 51.6301 95.6201 51.6201C95.5601 51.6501 95.5001 51.7001 95.4401 51.7401C95.4001 51.7601 95.3501 51.7801 95.3201 51.8001C95.3501 51.7801 95.4401 51.7501 95.3501 51.7801C95.2701 51.8101 95.1801 51.8201 95.1001 51.8501C95.0101 51.8701 95.2801 51.8401 95.1201 51.8501C95.0801 51.8501 95.0401 51.8501 95.0001 51.8601C94.9601 51.8601 94.9201 51.8601 94.8801 51.8601C94.8501 51.8601 94.7101 51.8501 94.8301 51.8601C94.9501 51.8701 94.8001 51.8501 94.7801 51.8501C94.7401 51.8401 94.7001 51.8301 94.6601 51.8201C94.6301 51.8101 94.5701 51.7801 94.5501 51.7801C94.6101 51.7701 94.6701 51.8401 94.5601 51.7801C94.5501 51.7701 94.5301 51.7601 94.5201 51.7601C94.4801 51.7301 94.4901 51.7501 94.5601 51.8001C94.5401 51.8201 94.4701 51.6501 94.5301 51.7801C94.5801 51.8801 94.5301 51.7701 94.5101 51.7501C94.5001 51.7301 94.4301 51.6201 94.4901 51.7201C94.5501 51.8201 94.4901 51.7101 94.4801 51.6801C94.4701 51.6501 94.4601 51.6101 94.4501 51.5701C94.4301 51.4901 94.4201 51.4101 94.4001 51.3401C94.3301 50.9801 93.8701 50.7401 93.5301 50.8501C93.1401 50.9801 92.9601 51.3301 93.0401 51.7201C93.1301 52.2201 93.3301 52.6901 93.7801 52.9701C94.2201 53.2501 94.7901 53.3301 95.3001 53.2601C96.2701 53.1301 97.0801 52.4001 97.3101 51.4501C97.4001 51.0901 97.2001 50.6701 96.8201 50.5801C96.4701 50.4701 96.0601 50.6601 95.9601 51.0501Z" fill="black"/>
<path d="M93.0602 51.2901C93.0502 51.3801 93.0202 51.4501 93.0002 51.5401C92.9802 51.6201 93.0702 51.4101 93.0102 51.5201C92.9902 51.5601 92.9702 51.6001 92.9402 51.6401C92.9302 51.6501 92.9202 51.6701 92.9102 51.6801C92.8702 51.7401 92.8702 51.7301 92.9402 51.6501C92.9402 51.6601 92.8702 51.7301 92.8602 51.7401C92.8302 51.7701 92.8002 51.7901 92.7802 51.8201C92.6702 51.9201 92.9102 51.7501 92.7702 51.8201C92.7302 51.8401 92.7002 51.8701 92.6602 51.8901C92.6402 51.9001 92.6102 51.9201 92.5802 51.9301C92.6002 51.9201 92.6202 51.9101 92.6502 51.9001C92.6002 51.9501 92.4502 51.9601 92.3802 51.9801C92.2902 52.0001 92.5302 51.9701 92.4002 51.9801C92.3502 51.9801 92.3002 51.9901 92.2502 51.9901C92.2102 51.9901 92.1702 51.9801 92.1302 51.9801C92.0802 51.9801 92.1002 51.9801 92.2002 51.9901C92.1802 51.9901 92.1502 51.9801 92.1302 51.9801C92.0402 51.9601 91.9602 51.9401 91.8702 51.9101C91.7502 51.8701 91.9502 51.9601 91.8802 51.9101C91.8502 51.8901 91.8102 51.8701 91.7702 51.8501C91.7502 51.8401 91.6702 51.7701 91.6502 51.7701C91.7002 51.7701 91.7602 51.8601 91.6602 51.7701C91.6002 51.7101 91.5502 51.6301 91.4802 51.5801C91.5302 51.6201 91.5502 51.6801 91.4902 51.5901C91.4702 51.5601 91.4502 51.5201 91.4302 51.4901C91.4202 51.4701 91.3602 51.3901 91.3702 51.3601C91.4102 51.4501 91.4202 51.4701 91.4002 51.4201C91.3902 51.4001 91.3802 51.3801 91.3802 51.3501C91.3702 51.3301 91.3202 51.1201 91.3202 51.1201C91.3302 51.2201 91.3402 51.2501 91.3302 51.1901C91.3302 51.1701 91.3302 51.1401 91.3202 51.1201C91.3202 51.0701 91.3202 51.0301 91.3202 50.9801C91.3302 50.6101 90.9902 50.2601 90.6102 50.2701C90.2202 50.2901 89.9202 50.5801 89.9002 50.9801C89.8702 52.0801 90.6702 53.1601 91.7802 53.3401C92.3602 53.4401 92.9902 53.3701 93.4902 53.0201C93.9502 52.7101 94.3202 52.2301 94.4002 51.6601C94.4302 51.4601 94.4302 51.2901 94.3302 51.1201C94.2402 50.9701 94.0802 50.8301 93.9102 50.8001C93.6002 50.7201 93.1202 50.9001 93.0602 51.2901Z" fill="black"/>
<path d="M91.2802 51.12C91.7302 48.22 92.2702 45.34 92.8902 42.48C93.0802 41.59 91.7202 41.22 91.5302 42.1C90.9002 44.96 90.3602 47.84 89.9202 50.74C89.8602 51.12 90.0202 51.5 90.4102 51.61C90.7402 51.7 91.2202 51.5 91.2802 51.12Z" fill="black"/>
<path d="M106.8 39.7301C108.26 39.7301 108.26 37.4601 106.8 37.4601C105.34 37.4601 105.34 39.7301 106.8 39.7301Z" fill="black"/>
<path d="M89.1601 42.9401C90.5201 42.9401 90.5201 40.8201 89.1601 40.8201C87.8001 40.8201 87.8001 42.9401 89.1601 42.9401Z" fill="black"/>
<path d="M99.7402 68.67C101.72 69.6 103.88 69.9 106.04 69.57C106.42 69.51 106.63 69.04 106.53 68.7C106.42 68.3 106.04 68.15 105.66 68.21C103.91 68.48 102.05 68.21 100.45 67.46C100.1 67.3 99.6902 67.36 99.4802 67.71C99.3102 68.01 99.4002 68.51 99.7402 68.67Z" fill="black"/>
<path d="M131.35 44.8301C132.25 44.9501 133.06 44.4901 133.42 43.6501C133.77 42.8401 133.63 41.9101 133.43 41.0801C133.06 39.5801 132.02 38.0701 130.39 37.8201C130.01 37.7601 129.63 37.9101 129.52 38.3101C129.43 38.6401 129.63 39.1201 130.01 39.1801C131.01 39.3301 131.65 40.1201 131.96 41.0901C132.12 41.6001 132.26 42.1801 132.22 42.7201C132.2 42.9201 132.13 43.1401 132.03 43.2701C131.96 43.3501 131.92 43.3901 131.82 43.4401C131.85 43.4301 131.6 43.4601 131.74 43.4801C131.36 43.4301 130.98 43.5701 130.87 43.9701C130.77 44.2901 130.97 44.7801 131.35 44.8301Z" fill="black"/>
<path d="M131.54 33.27C130.54 33.68 129.93 34.98 129.5 35.92C129 36.99 128.67 38.14 128.61 39.32C128.56 40.42 128.76 41.52 129.2 42.53C129.61 43.46 130.31 44.56 131.35 44.83C132.23 45.06 132.6 43.7 131.73 43.47C131.09 43.3 130.63 42.33 130.4 41.76C130.09 40.98 129.98 40.15 130.02 39.32C130.06 38.48 130.28 37.64 130.61 36.86C130.78 36.46 130.98 36.08 131.2 35.71C131.32 35.51 131.44 35.31 131.57 35.12C131.64 35.02 131.8 34.68 131.91 34.63C132.27 34.48 132.51 34.16 132.4 33.76C132.32 33.43 131.89 33.13 131.54 33.27Z" fill="black"/>
<path d="M127 49.91C127.37 50.48 127.91 50.94 128.53 51.22C129.24 51.54 129.99 51.67 130.77 51.72C131.14 51.74 131.49 51.38 131.48 51.01C131.46 50.61 131.17 50.33 130.77 50.3C130.61 50.29 130.46 50.27 130.3 50.26C130.22 50.25 130.22 50.25 130.31 50.26C130.27 50.25 130.23 50.25 130.19 50.24C130.11 50.23 130.04 50.21 129.96 50.2C129.81 50.17 129.66 50.13 129.51 50.09C129.44 50.07 129.36 50.04 129.29 50.02C129.25 50.01 129.22 49.99 129.18 49.98C129.26 50.02 129.28 50.02 129.23 50C129.12 49.95 129 49.89 128.89 49.83C128.83 49.8 128.77 49.76 128.72 49.72C128.68 49.7 128.49 49.6 128.66 49.68C128.55 49.62 128.45 49.5 128.37 49.41C128.33 49.36 128.27 49.31 128.24 49.26C128.34 49.43 128.23 49.23 128.21 49.2C128.01 48.89 127.57 48.73 127.24 48.95C126.94 49.14 126.78 49.58 127 49.91Z" fill="black"/>
<path d="M79.3602 93.1C75.4002 98.64 71.7902 105 71.8702 111.98C71.9502 118.41 73.6402 124.93 77.4702 130.17C78.2702 131.26 80.1002 130.2 79.3002 129.1C75.6802 124.14 74.0602 118.08 73.9902 111.98C73.9102 105.38 77.4602 99.39 81.1902 94.17C81.9902 93.06 80.1502 92 79.3602 93.1Z" fill="#FFC11E"/>
<path d="M133.06 75.8801C134.04 79.8501 134.77 83.8801 135.19 87.9601C135.4 89.9701 135.55 92.0001 135.61 94.0201C135.62 94.3001 135.72 94.8301 135.53 95.0901C135.32 95.3801 134.75 95.4601 134.43 95.5201C133.39 95.7401 132.31 95.7601 131.25 95.7001C129.89 95.6201 129.89 97.7401 131.25 97.8201C133.05 97.9201 135.81 97.9701 137.12 96.4801C137.79 95.7101 137.76 94.7801 137.72 93.8201C137.67 92.5401 137.6 91.2601 137.49 89.9801C137.09 85.0401 136.29 80.1401 135.1 75.3201C134.77 73.9901 132.73 74.5501 133.06 75.8801Z" fill="#FFC11E"/>
<path d="M130.09 96.76C130.36 100.19 130.36 103.65 129.98 107.07C129.6 110.52 128.52 113.52 126.63 116.42C123.53 121.19 119.22 125.33 113.93 127.56C112.69 128.08 113.24 130.13 114.49 129.6C120.21 127.19 124.83 122.96 128.24 117.82C130.2 114.86 131.46 111.79 131.94 108.27C132.46 104.46 132.5 100.59 132.2 96.76C132.11 95.41 129.99 95.4 130.09 96.76Z" fill="#FFC11E"/>
<path d="M157.5 108.58C158.7 117.9 159.91 127.22 161.11 136.53C161.24 137.57 162.9 137.59 162.77 136.53C161.57 127.21 160.36 117.89 159.16 108.58C159.02 107.54 157.36 107.53 157.5 108.58Z" fill="black"/>
<path d="M101.49 34.52C101.94 34.18 102.42 33.87 102.91 33.6C103.17 33.46 103.45 33.33 103.72 33.2C103.84 33.15 103.86 33.14 103.78 33.17C103.85 33.14 103.92 33.11 103.99 33.09C104.11 33.04 104.24 33 104.36 32.95C104.89 32.76 105.44 32.62 106 32.51C106.13 32.49 106.26 32.46 106.39 32.44C106.52 32.42 106.54 32.42 106.44 32.43C106.51 32.42 106.59 32.41 106.66 32.4C106.96 32.37 107.26 32.35 107.56 32.34C108.11 32.32 108.64 31.87 108.62 31.28C108.59 30.72 108.15 30.2 107.56 30.22C105 30.3 102.47 31.14 100.41 32.68C99.97 33.01 99.7 33.61 100.03 34.13C100.32 34.57 101.02 34.87 101.49 34.52Z" fill="black"/>
<path d="M92.2501 33.4201C89.8201 32.2001 86.9801 32.1901 84.5501 33.4001C84.0501 33.6501 83.8701 34.3901 84.1701 34.8501C84.5001 35.3601 85.0901 35.4901 85.6201 35.2301C86.4301 34.8301 87.4601 34.6001 88.4001 34.6001C89.0101 34.6001 89.2901 34.6401 89.8001 34.7601C90.3601 34.8901 90.7601 35.0401 91.1801 35.2501C91.6701 35.5001 92.3501 35.4001 92.6301 34.8701C92.8901 34.3801 92.7801 33.6801 92.2501 33.4201Z" fill="black"/>
<path d="M100.27 58.7901C104.97 58.8301 109.58 56.8801 112.83 53.4701C113.46 52.8101 112.46 51.8101 111.83 52.4701C108.84 55.6201 104.62 57.4101 100.27 57.3801C99.3601 57.3701 99.3601 58.7801 100.27 58.7901Z" fill="black"/>
<path d="M111.35 51.2501C111.65 51.9601 112.04 52.6101 112.56 53.1901C113.04 53.7201 113.62 54.1801 114.24 54.5301C114.56 54.7101 115.02 54.6201 115.21 54.2801C115.38 53.9501 115.3 53.5001 114.96 53.3101C114.82 53.2301 114.68 53.1501 114.54 53.0601C114.48 53.0201 114.42 52.9801 114.36 52.9301C114.33 52.9101 114.3 52.8901 114.27 52.8601C114.2 52.8101 114.39 52.9601 114.29 52.8801C114.04 52.6801 113.81 52.4601 113.59 52.2301C113.54 52.1801 113.49 52.1201 113.44 52.0601C113.42 52.0301 113.39 52.0001 113.37 51.9701C113.36 51.9501 113.34 51.9401 113.33 51.9201C113.3 51.8801 113.31 51.9001 113.37 51.9701C113.37 51.9301 113.26 51.8201 113.24 51.7901C113.19 51.7201 113.15 51.6601 113.1 51.5901C113.02 51.4601 112.94 51.3201 112.87 51.1901C112.84 51.1201 112.8 51.0601 112.77 50.9901C112.75 50.9501 112.73 50.9101 112.71 50.8701C112.69 50.8301 112.63 50.6901 112.71 50.8801C112.64 50.7001 112.56 50.5601 112.39 50.4601C112.24 50.3701 112.02 50.3301 111.85 50.3901C111.68 50.4501 111.51 50.5501 111.43 50.7101C111.34 50.8601 111.28 51.0801 111.35 51.2501Z" fill="black"/>
<path d="M106.76 62.01C107.31 62.09 107.81 61.99 108.32 61.8C108.74 61.64 109.16 61.46 109.55 61.24C110.33 60.81 111.01 60.23 111.53 59.51C111.75 59.21 111.59 58.71 111.28 58.54C110.91 58.35 110.55 58.47 110.31 58.79C110.29 58.82 110.26 58.86 110.24 58.89C110.28 58.83 110.27 58.85 110.23 58.89C110.17 58.96 110.11 59.03 110.04 59.1C109.93 59.22 109.8 59.34 109.68 59.44C109.65 59.47 109.62 59.49 109.58 59.52C109.54 59.55 109.47 59.6 109.55 59.54C109.48 59.59 109.41 59.64 109.34 59.69C109.19 59.79 109.04 59.88 108.88 59.97C108.73 60.05 108.58 60.13 108.43 60.2C108.35 60.24 108.28 60.27 108.2 60.31C108.15 60.33 108.07 60.37 108.16 60.33C108.12 60.35 108.08 60.36 108.04 60.38C107.87 60.45 107.7 60.52 107.52 60.57C107.46 60.59 107.4 60.6 107.34 60.62C107.33 60.62 107.19 60.65 107.26 60.64C107.32 60.63 107.19 60.64 107.18 60.64C107.16 60.64 107 60.63 107.12 60.65C106.76 60.6 106.34 60.74 106.25 61.14C106.19 61.47 106.37 61.95 106.76 62.01Z" fill="black"/>
<path d="M99.5401 116.1C92.2001 116.07 90.6601 115.04 90.7101 112.38C90.7601 109.72 94.5701 109.94 102.39 109.4C109.95 108.87 112.03 109.36 112.15 109.39C112.1 109.24 111.38 107.02 112.16 103.54C112.97 99.9401 119.1 99.6701 118.75 103.42C118.4 107.16 120.98 109.66 123.75 111.91C126.51 114.16 129.88 117.5 131.85 120.21C133.25 122.13 148.92 130.71 148.92 130.71C149.31 130.63 139.18 145.85 139.18 145.85L135.86 141.98L132.48 137.58C124.9 140.28 119.17 135.11 119.17 135.11C118.49 136.2 115.65 136.78 115.65 136.78C115.65 136.78 116.55 138.91 112.42 140.03C108.3 141.15 106.24 139.54 105.42 137.51C104.59 135.48 106.58 134.5 106.58 134.5C106.58 134.5 103.01 135.74 101.35 132.98C99.7001 130.22 101.54 128.72 101.54 128.72C95.8501 129.45 96.7801 123.77 98.7801 122.68C100.79 121.58 111.01 117.49 111.01 117.49L108.31 115.88C108.31 115.89 106.88 116.13 99.5401 116.1Z" fill="#F5A0AC"/>
<path d="M119.94 114.06C118.78 113.1 117.63 112.14 116.47 111.18C115.91 110.71 115.35 110.2 114.74 109.8C114.14 109.41 113.43 109.2 112.75 109.02C111.8 108.76 111.39 110.24 112.34 110.5C112.95 110.66 113.55 110.83 114.07 111.2C114.61 111.57 115.09 112.03 115.59 112.45C116.68 113.35 117.77 114.25 118.85 115.16C119.17 115.42 119.62 115.47 119.93 115.16C120.21 114.87 120.26 114.32 119.94 114.06Z" fill="black"/>
<path d="M102.95 129.35C105.67 128.24 108.41 127.17 111.17 126.15C111.56 126.01 111.82 125.63 111.71 125.21C111.61 124.84 111.16 124.53 110.77 124.67C108.01 125.69 105.27 126.75 102.55 127.87C102.17 128.03 101.9 128.38 102.01 128.81C102.11 129.18 102.56 129.51 102.95 129.35Z" fill="black"/>
<path d="M107.39 135.19C109.18 134.59 110.95 133.96 112.72 133.3C113.11 133.16 113.37 132.78 113.26 132.36C113.16 131.99 112.71 131.68 112.32 131.82C110.55 132.48 108.78 133.11 106.99 133.71C106.6 133.84 106.34 134.24 106.45 134.65C106.56 135.04 107 135.33 107.39 135.19Z" fill="black"/>
<path d="M112.51 138.45C115.51 138.18 118.32 137.02 120.63 135.09C120.95 134.83 120.9 134.28 120.63 134.01C120.31 133.69 119.87 133.74 119.55 134.01C117.57 135.65 115.07 136.68 112.51 136.92C112.1 136.96 111.74 137.25 111.74 137.69C111.74 138.06 112.09 138.48 112.51 138.45Z" fill="black"/>
<path d="M119.17 135.78C122.84 139.83 129.13 140.44 133.48 137.11C134.25 136.52 133.49 135.18 132.71 135.79C128.88 138.73 123.51 138.29 120.26 134.7C119.59 133.97 118.51 135.05 119.17 135.78Z" fill="black"/>
<path d="M131.35 137.97C131.96 138.62 132.55 139.29 133.13 139.97C133.41 140.3 133.69 140.63 133.96 140.97C134.1 141.14 134.24 141.32 134.38 141.49C134.41 141.53 134.44 141.57 134.48 141.61C134.5 141.63 134.51 141.65 134.53 141.67C134.5 141.63 134.5 141.63 134.53 141.67C134.6 141.76 134.67 141.86 134.74 141.95C134.98 142.27 135.41 142.47 135.79 142.23C136.1 142.03 136.32 141.52 136.07 141.18C134.93 139.68 133.73 138.25 132.45 136.88C132.18 136.59 131.64 136.58 131.37 136.88C131.07 137.2 131.06 137.66 131.35 137.97Z" fill="black"/>
<path d="M57.8701 111.63L59.3601 99.4401C63.7601 98.1801 66.3501 96.2901 67.2101 94.6901C69.0401 91.3001 69.4901 90.0501 69.4901 90.0501C69.4901 90.0501 69.8301 91.7101 73.2001 90.0301C76.9401 88.1601 77.9901 86.3101 77.5901 84.2301C77.2001 82.1501 75.0601 82.4401 75.0601 82.4401C75.0601 82.4401 78.6301 81.5101 78.5401 78.4001C78.4402 75.2901 76.1401 75.0801 76.1401 75.0801C81.1801 72.6001 77.4201 68.5301 75.2101 68.7301C72.9901 68.9301 62.4801 71.1501 62.4801 71.1501L63.8401 68.4001C63.8401 68.4001 65.1301 67.8201 71.1201 63.8401C76.2301 60.4501 77.4902 58.7301 76.8601 56.9901C76.7501 56.6901 76.5901 56.3901 76.3801 56.0801C74.9401 53.9701 71.9401 56.2001 65.2701 59.9801C58.8101 63.6301 57.3701 65.1501 57.2901 65.2401C57.2501 65.0901 54.5501 69.7101 53.4801 73.0101C53.1701 73.9501 48.0001 85.1501 47.2201 87.1901C46.9201 87.9801 40.5901 103.19 40.2601 105.68C40.0801 107.11 57.8701 111.63 57.8701 111.63Z" fill="#F5A0AC"/>
<path d="M66.7402 77.07C70.0302 76.35 73.3402 75.71 76.6702 75.15C77.1102 75.08 77.3502 74.54 77.2402 74.14C77.1102 73.68 76.6702 73.49 76.2302 73.57C72.9102 74.13 69.6002 74.77 66.3002 75.49C65.2802 75.72 65.7102 77.29 66.7402 77.07Z" fill="black"/>
<path d="M67.9301 84.3201C70.6201 83.6901 73.3301 83.1401 76.0501 82.6801C76.4901 82.6101 76.7301 82.0701 76.6201 81.6701C76.4901 81.2101 76.0501 81.0201 75.6101 81.1001C72.8901 81.5601 70.1801 82.1101 67.4901 82.7401C66.4701 82.9901 66.9001 84.5601 67.9301 84.3201Z" fill="black"/>
<path d="M150.88 132.29C157.2 134.85 163.28 137.99 169.05 141.64C169.95 142.21 170.79 140.78 169.89 140.21C163.99 136.49 157.78 133.32 151.32 130.7C150.34 130.29 149.91 131.89 150.88 132.29Z" fill="black"/>
<path d="M93.2502 101.93C94.5602 102.89 95.9302 103.77 97.3602 104.55C97.4302 104.59 97.5102 104.63 97.6002 104.62C97.6902 104.61 99.1402 99.2101 99.0902 99.1801C99.0802 99.1801 94.7602 101.27 93.2502 101.93Z" fill="white"/>
<path d="M92.5902 103.06C93.7402 103.9 94.9402 104.68 96.1802 105.39C96.5902 105.62 97.0202 105.92 97.5102 105.92C98.0002 105.93 98.4902 105.71 98.7302 105.26C98.8502 105.04 98.9202 104.8 98.9902 104.56C99.3902 103.26 99.7302 101.95 100.07 100.63C100.24 99.9901 100.58 99.1301 100.2 98.5101C99.8102 97.8801 99.0602 97.7301 98.4102 98.0401C96.4802 98.9801 94.5502 99.9301 92.5802 100.79C91.9502 101.07 91.7602 102.03 92.1102 102.58C92.5302 103.23 93.2202 103.34 93.9002 103.05C95.8702 102.19 97.8002 101.23 99.7302 100.3C99.1302 100.14 98.5402 99.9901 97.9402 99.8301C97.9502 99.8501 97.7602 99.1201 97.7602 99.1901C97.7302 98.6701 97.8302 98.7701 97.8002 98.8901C97.7902 98.9301 97.7802 98.9801 97.7702 99.0201C97.7402 99.1601 97.7002 99.3001 97.6702 99.4401C97.5602 99.8701 97.4502 100.29 97.3402 100.71C97.0902 101.65 96.8402 102.58 96.5702 103.51C96.5202 103.68 96.4702 103.84 96.4202 104.01C96.4002 104.06 96.3802 104.11 96.3702 104.17C96.3302 104.29 96.2202 104.37 96.4802 103.92C96.3502 104.15 97.2402 103.33 96.9302 103.48C97.1502 103.42 97.3702 103.36 97.5902 103.3C98.0202 103.45 98.1402 103.47 97.9602 103.38C97.9102 103.35 97.8702 103.33 97.8202 103.3C97.7302 103.25 97.6302 103.19 97.5402 103.14C97.3702 103.04 97.2002 102.94 97.0202 102.84C96.6602 102.63 96.3102 102.41 95.9602 102.19C95.2602 101.74 94.5702 101.27 93.9002 100.78C93.3502 100.37 92.4202 100.67 92.1102 101.25C91.7702 101.95 92.0002 102.62 92.5902 103.06Z" fill="white"/>
<path d="M77.8201 65.68C86.7901 77.22 93.1901 90.65 96.5801 104.87C96.8501 105.99 98.5701 105.51 98.3001 104.4C94.8401 89.86 88.2501 76.21 79.0801 64.42C78.3801 63.51 77.1301 64.78 77.8201 65.68Z" fill="white"/>
<path d="M37.2901 103.86L60.7901 110.68L54.85 145.45H23.3L37.2901 103.86Z" fill="#EC6723"/>
<path d="M60.11 111.64C58.74 120.74 57.29 129.86 56.27 139C56.17 139.9 57.58 139.89 57.68 139C58.68 129.98 60.12 120.99 61.47 112.01C61.61 111.13 60.25 110.74 60.11 111.64Z" fill="black"/>
<path fill-rule="evenodd" clip-rule="evenodd" d="M51.6999 45.02C51.6999 45.02 55.7699 36.5499 52.6799 26.8399C52.4899 26.0799 52.2699 25.2999 52.0199 24.5099C45.9399 5.51995 14.9299 -0.44005 3.07989 21.2899C-8.78011 42.9999 15.6999 70.15 40.9199 57.02C42.1899 56.36 43.7799 55.29 45.4099 53.7999C47.8399 54.88 51.8499 55.71 56.3099 52.79C57.2499 52.17 57.1899 50.7599 56.1899 50.25C53.7199 48.97 51.6999 45.02 51.6999 45.02Z" fill="white"/>
<path fill-rule="evenodd" clip-rule="evenodd" d="M27.3901 43.3299L34.7501 47.8799V24.8299L27.3901 20.7899V43.3299Z" fill="#03A74B"/>
<path fill-rule="evenodd" clip-rule="evenodd" d="M20.02 24.8299L27.38 20.7899V43.3399L20.02 47.8899V24.8299Z" fill="#0D7B3E"/>
<path fill-rule="evenodd" clip-rule="evenodd" d="M22.6602 37.87C22.4702 37.85 22.2802 37.92 22.1402 38.05L21.0602 39C20.9202 39.13 20.8302 39.3 20.8202 39.49C20.8102 39.68 20.8702 39.87 21.0002 40.01C21.1402 40.16 21.3302 40.25 21.5402 40.25C21.7102 40.25 21.8802 40.19 22.0102 40.07L23.0902 39.12C23.2302 38.99 23.3202 38.82 23.3302 38.63C23.3402 38.44 23.2802 38.25 23.1502 38.11C23.0202 37.96 22.8502 37.88 22.6602 37.87Z" fill="#126634"/>
<path fill-rule="evenodd" clip-rule="evenodd" d="M25.8801 35.02C25.6901 35.01 25.5101 35.07 25.3601 35.2L24.2801 36.15C24.1401 36.28 24.0501 36.45 24.0401 36.64C24.0301 36.83 24.0901 37.01 24.2201 37.16C24.3601 37.31 24.5501 37.4 24.7601 37.4C24.9301 37.4 25.1001 37.34 25.2301 37.22L26.3101 36.27C26.6101 36.01 26.6301 35.55 26.3701 35.26C26.2401 35.12 26.0701 35.03 25.8801 35.02Z" fill="#126634"/>
<path fill-rule="evenodd" clip-rule="evenodd" d="M34.75 24.83L42.16 20.64C42.61 20.39 43.16 20.71 43.16 21.22V41.74C43.16 42.03 43.02 42.3 42.78 42.46L34.76 47.88V24.83H34.75Z" fill="#0D7B3E"/>
<path fill-rule="evenodd" clip-rule="evenodd" d="M20.0201 24.83L12.6001 20.63C12.1601 20.38 11.6101 20.7 11.6101 21.21V41.74C11.6101 42.03 11.7501 42.3 12.0001 42.47L20.0201 47.88V24.83Z" fill="#03A74B"/>
<path fill-rule="evenodd" clip-rule="evenodd" d="M19.7002 39.82L18.5002 39.04C18.1702 38.83 17.7202 38.92 17.5102 39.25C17.3002 39.58 17.3902 40.03 17.7202 40.24L18.9202 41.02C19.0402 41.09 19.1702 41.13 19.3102 41.13C19.5602 41.13 19.7802 41.01 19.9102 40.8C20.1202 40.48 20.0302 40.04 19.7002 39.82Z" fill="#126634"/>
<path fill-rule="evenodd" clip-rule="evenodd" d="M35.73 37.5199C35.37 37.3599 34.94 37.5199 34.78 37.8799L34.2 39.1899C34.12 39.3599 34.12 39.5599 34.19 39.7399C34.26 39.9199 34.39 40.0599 34.57 40.1399C34.66 40.1799 34.76 40.1999 34.86 40.1999C35.14 40.1999 35.4 40.0299 35.52 39.7699L36.1 38.4599C36.18 38.2899 36.18 38.0899 36.11 37.9099C36.04 37.7399 35.91 37.5999 35.73 37.5199Z" fill="#126634"/>
<path fill-rule="evenodd" clip-rule="evenodd" d="M31.9301 36.8C31.7701 36.69 31.5901 36.64 31.4001 36.67C31.2101 36.7 31.0501 36.8 30.9301 36.96C30.7001 37.28 30.7701 37.73 31.0901 37.96L32.2501 38.8C32.3701 38.89 32.5201 38.94 32.6701 38.94C32.9001 38.94 33.1201 38.83 33.2501 38.65C33.4801 38.33 33.4101 37.88 33.0901 37.65L31.9301 36.8Z" fill="#126634"/>
<path fill-rule="evenodd" clip-rule="evenodd" d="M28.4501 34.2599C28.2901 34.1499 28.1101 34.0999 27.9201 34.1299C27.7301 34.1599 27.5701 34.2599 27.4501 34.4199C27.3401 34.5699 27.2901 34.7599 27.3201 34.9499C27.3501 35.1399 27.4501 35.3099 27.6101 35.4199L28.7701 36.2699C28.8901 36.3599 29.0401 36.4099 29.1901 36.4099C29.4201 36.4099 29.6401 36.2999 29.7701 36.1199C29.8801 35.9699 29.9301 35.7799 29.9001 35.5899C29.8701 35.3999 29.7701 35.2399 29.6101 35.1199L28.4501 34.2599Z" fill="#126634"/>
<path fill-rule="evenodd" clip-rule="evenodd" d="M37.8502 33.9799C37.7802 33.7999 37.6502 33.6599 37.4702 33.5799C37.1102 33.4199 36.6802 33.5799 36.5202 33.9499L35.9402 35.2599C35.8602 35.4299 35.8602 35.6299 35.9302 35.8099C36.0002 35.9899 36.1302 36.1299 36.3102 36.2099C36.4002 36.2499 36.5002 36.2699 36.6002 36.2699C36.8802 36.2699 37.1402 36.0999 37.2602 35.8399L37.8402 34.5299C37.9202 34.3599 37.9202 34.1599 37.8502 33.9799Z" fill="#126634"/>
<path fill-rule="evenodd" clip-rule="evenodd" d="M23.34 30.9199C23.31 27.8899 20.8 25.4399 17.7 25.4399C14.6 25.4399 12.09 27.8899 12.06 30.9099C12.06 30.9199 12.06 30.9299 12.06 30.9299C12.06 30.9399 12.06 30.9499 12.05 30.9599C12.05 31.3999 12.11 31.8399 12.21 32.2499C12.21 32.2599 12.22 32.2699 12.22 32.2799C12.26 32.4399 12.31 32.5999 12.37 32.7599C13.28 35.5199 16.01 37.4699 17.17 38.1899C17.33 38.2899 17.51 38.3399 17.69 38.3399C17.88 38.3399 18.06 38.2899 18.22 38.1899C19.38 37.4699 22.11 35.5299 23.03 32.7699C23.08 32.6099 23.13 32.4499 23.17 32.2899C23.17 32.2799 23.18 32.2699 23.18 32.2599C23.28 31.8499 23.34 31.4099 23.34 30.9699C23.34 30.9599 23.34 30.9499 23.34 30.9399C23.34 30.9299 23.34 30.9299 23.34 30.9199Z" fill="#ED2838"/>
<path fill-rule="evenodd" clip-rule="evenodd" d="M17.6902 32.55C16.7802 32.55 16.0401 31.83 16.0501 30.94C16.0501 30.05 16.7902 29.33 17.6902 29.33C18.6002 29.33 19.3401 30.05 19.3401 30.94C19.3401 31.83 18.6102 32.55 17.6902 32.55Z" fill="white"/>
<path fill-rule="evenodd" clip-rule="evenodd" d="M42.8501 24.7999C42.8201 21.7699 40.3101 19.3199 37.2101 19.3199C34.1101 19.3199 31.6001 21.7699 31.5701 24.7899C31.5701 24.7999 31.5701 24.8099 31.5701 24.8099C31.5701 24.8199 31.5701 24.8299 31.5601 24.8399C31.5601 25.2799 31.6201 25.7199 31.7201 26.1299C31.7201 26.1399 31.7301 26.1499 31.7301 26.1599C31.7701 26.3199 31.8201 26.4799 31.8801 26.6399C32.7901 29.3999 35.5201 31.3499 36.6801 32.0699C36.8401 32.1699 37.0201 32.2199 37.2001 32.2199C37.3901 32.2199 37.5701 32.1699 37.7301 32.0699C38.8901 31.3499 41.6201 29.4099 42.5401 26.6499C42.5901 26.4899 42.6401 26.3299 42.6801 26.1699C42.6801 26.1599 42.6901 26.1499 42.6901 26.1399C42.7901 25.7299 42.8501 25.2899 42.8501 24.8499C42.8501 24.8399 42.8501 24.8299 42.8501 24.8199C42.8601 24.8199 42.8601 24.8099 42.8501 24.7999Z" fill="#F26E21"/>
<path fill-rule="evenodd" clip-rule="evenodd" d="M37.2102 26.44C36.3002 26.44 35.5602 25.72 35.5702 24.83C35.5702 23.94 36.3102 23.22 37.2102 23.22C38.1202 23.22 38.8602 23.94 38.8602 24.83C38.8602 25.72 38.1202 26.44 37.2102 26.44Z" fill="white"/>
</g>
<defs>
<clipPath id="clip0_259_306">
<rect width="193.08" height="145.85" fill="white"/>
</clipPath>
</defs>
</svg>
