<svg width="194" height="164" viewBox="0 0 194 164" fill="none" xmlns="http://www.w3.org/2000/svg">
<g clip-path="url(#clip0_258_19)">
<path d="M0 164.75C0 164.75 0.13 140.53 2.97 123.75C7.34 97.8899 25.59 66.4499 51.17 59.0099C78.55 51.0399 99.25 49.7799 117.85 55.2599C150.13 64.7699 175.77 80.4499 186.75 113.09C194.71 136.73 193.47 165.02 193.47 165.02L162.39 164.74L0 164.75Z" fill="#E7E6E6"/>
<path d="M37.86 126.62C37.42 130.33 37.05 134.04 36.75 137.77C36.65 138.99 38.55 138.98 38.65 137.77C38.96 134.05 39.33 130.33 39.76 126.62C39.82 126.11 39.28 125.67 38.81 125.67C38.25 125.67 37.92 126.11 37.86 126.62Z" fill="black"/>
<path d="M122.37 56.6499L111.88 53.2899L97.37 86.1599C97.37 86.1599 99.71 95.5599 110.85 94.0699C118.67 93.0299 122.51 79.1299 122.86 72.1899C123.36 62.2099 122.37 56.6499 122.37 56.6499Z" fill="#A1A2A2"/>
<path d="M65.61 73.5799C65.48 80.2799 66.87 90.8899 75.59 93.0399C84.31 95.1899 90.12 89.3799 90.12 89.3799L84.43 71.0599L65.61 73.5799Z" fill="#A1A2A2"/>
<path d="M127.03 36.5C127.03 36.5 129.03 24.2299 122.31 13.74C115.16 2.57995 103.41 -1.76005 86.05 0.649952C68.69 3.05995 61.58 15.65 58.59 26.91L105.9 34.65L102.77 54.75L113.96 54.6199L127.03 36.5Z" fill="black"/>
<path d="M116.31 41.72C116.31 41.72 118.03 33.95 122.81 33.02C127.6 32.09 129.34 35.3 128.71 40.8C128.07 46.3 124.05 51.68 118.41 50.22C118.41 50.22 116.13 58.54 113.27 65.07C109.54 73.61 103.75 83.58 92.74 93.9L83.18 86.62C83.18 86.62 65.66 86.58 57.24 70.02C48.82 53.46 59.56 26.96 59.56 26.96C59.56 26.96 62.65 18.03 69.23 15.28C75.81 12.53 74.76 16.96 79.05 18.78C83.34 20.6 93.04 16.89 96.5 14.11C99.96 11.33 105.41 12.24 107.62 15.17C109.83 18.1 109.29 22.24 107.74 25.36C106.19 28.48 110.36 31.36 110.51 33.24C110.66 35.12 109.05 42.19 107.3 48.6C105.55 55 107.24 54.96 110.63 54.25C114.02 53.54 113.94 49.53 116.31 41.72Z" fill="#F4A5AB"/>
<path d="M81.84 45.92C81.82 46.04 81.78 46.15 81.74 46.27C81.68 46.44 81.71 46.28 81.75 46.26C81.74 46.26 81.67 46.42 81.66 46.44C81.63 46.5 81.59 46.55 81.56 46.61C81.54 46.63 81.44 46.79 81.52 46.68C81.6 46.57 81.49 46.72 81.47 46.74C81.43 46.79 81.38 46.84 81.33 46.88C81.29 46.92 81.25 46.96 81.21 46.99C81.06 47.12 81.19 46.98 81.22 46.99C81.2 46.98 80.95 47.16 80.91 47.18C80.87 47.2 80.81 47.25 80.76 47.25C80.87 47.21 80.89 47.2 80.83 47.22C80.8 47.23 80.77 47.24 80.74 47.25C80.69 47.27 80.64 47.28 80.58 47.3C80.56 47.31 80.31 47.35 80.42 47.34C80.54 47.32 80.32 47.34 80.29 47.35C80.27 47.35 80.09 47.33 80.08 47.34C80.13 47.31 80.28 47.38 80.1 47.34C80.05 47.33 80 47.32 79.94 47.3C79.9 47.29 79.8 47.24 79.76 47.24C79.85 47.24 79.9 47.3 79.77 47.24C79.72 47.21 79.68 47.19 79.63 47.16C79.59 47.13 79.4 47.04 79.6 47.15C79.51 47.1 79.43 47 79.36 46.93C79.32 46.89 79.26 46.84 79.23 46.78C79.32 46.97 79.25 46.8 79.22 46.75C79.18 46.68 79.07 46.55 79.06 46.46C79.1 46.57 79.11 46.59 79.09 46.53C79.08 46.5 79.07 46.47 79.06 46.44C79.04 46.38 79.02 46.31 79.01 46.25C78.9 45.78 78.34 45.46 77.88 45.61C77.39 45.77 77.12 46.24 77.24 46.74C77.58 48.17 78.99 49.33 80.49 49.17C81.98 49.01 83.28 47.9 83.6 46.42C83.7 45.95 83.46 45.41 82.96 45.29C82.51 45.17 81.95 45.42 81.84 45.92Z" fill="black"/>
<path d="M77.36 45.98C77.21 46.23 77.05 46.46 76.9 46.7C76.84 46.79 77 46.59 76.88 46.72C76.83 46.78 76.78 46.83 76.73 46.89C76.68 46.94 76.63 47 76.57 47.05C76.55 47.07 76.39 47.2 76.49 47.12C76.59 47.04 76.42 47.16 76.4 47.18C76.33 47.22 76.26 47.26 76.19 47.3C76.34 47.22 76.12 47.33 76.09 47.33C76.01 47.36 75.93 47.38 75.84 47.4C75.7 47.44 75.56 47.46 75.42 47.49C75.21 47.53 75.52 47.49 75.32 47.5C75.23 47.5 75.15 47.5 75.06 47.5C74.88 47.5 75.11 47.52 75.03 47.5C74.97 47.48 74.9 47.46 74.83 47.45C74.73 47.43 74.98 47.53 74.83 47.45C74.77 47.42 74.71 47.38 74.65 47.35C74.47 47.24 74.77 47.47 74.62 47.33C74.58 47.29 74.54 47.25 74.5 47.21C74.48 47.19 74.34 47.01 74.42 47.12C74.49 47.23 74.39 47.06 74.37 47.04C74.33 46.98 74.3 46.92 74.27 46.86C74.36 47.02 74.26 46.81 74.25 46.78C74.23 46.72 74.21 46.65 74.2 46.59C74.18 46.51 74.18 46.42 74.19 46.56C74.18 46.4 74.18 46.24 74.19 46.08C74.2 45.88 74.15 46.21 74.2 46C74.22 45.92 74.24 45.84 74.26 45.76C74.39 45.3 74.1 44.74 73.62 44.63C73.14 44.52 72.63 44.78 72.49 45.27C72.25 46.15 72.3 47.11 72.75 47.91C73.14 48.6 73.86 49.16 74.65 49.3C75.53 49.45 76.65 49.23 77.39 48.72C78.07 48.26 78.52 47.6 78.93 46.91C79.18 46.5 79.04 45.88 78.6 45.66C78.17 45.42 77.62 45.54 77.36 45.98Z" fill="black"/>
<path d="M74.28 45.52C74.5 42.4 75.4 39.38 76.29 36.4C76.63 35.27 74.86 34.78 74.52 35.91C73.59 39.06 72.68 42.23 72.45 45.52C72.41 46.01 72.9 46.44 73.37 46.44C73.88 46.44 74.24 46.02 74.28 45.52Z" fill="black"/>
<path d="M97.73 26.47C96.34 24.67 94.43 23.55 92.15 23.35C90 23.16 87.78 24.07 86.27 25.59C85.69 26.17 85.65 27.22 86.27 27.8C86.89 28.37 87.86 28.42 88.48 27.8C88.61 27.66 88.75 27.54 88.9 27.41C88.99 27.33 89.05 27.3 88.92 27.39C89 27.34 89.07 27.28 89.15 27.23C89.33 27.11 89.51 27.01 89.7 26.91C89.78 26.87 89.87 26.83 89.96 26.79C90.17 26.69 89.76 26.85 89.98 26.78C90.35 26.67 90.71 26.57 91.08 26.48C91.31 26.43 90.85 26.49 91.09 26.48C91.18 26.48 91.28 26.46 91.37 26.46C91.58 26.45 91.8 26.45 92.01 26.46C92.1 26.47 92.19 26.48 92.29 26.48C92.14 26.47 92.13 26.45 92.29 26.49C92.47 26.53 92.65 26.57 92.83 26.62C93.01 26.67 93.18 26.74 93.36 26.8C93.22 26.75 93.24 26.75 93.37 26.81C93.45 26.85 93.54 26.89 93.62 26.93C93.78 27.02 93.94 27.11 94.1 27.21C94.2 27.27 94.29 27.34 94.39 27.41C94.58 27.54 94.24 27.26 94.4 27.42C94.53 27.55 94.68 27.66 94.81 27.8C94.87 27.87 94.94 27.93 95 28C95.04 28.04 95.24 28.29 95.06 28.06C95.56 28.7 96.42 29.12 97.19 28.62C97.8 28.19 98.26 27.16 97.73 26.47Z" fill="black"/>
<path d="M73.95 26.15C72.43 24.87 70.55 24.1 68.54 24.11C66.54 24.12 64.66 24.9 63.15 26.2C62.53 26.73 62.56 27.87 63.15 28.41C63.81 29.02 64.69 28.98 65.36 28.41C65.43 28.35 65.5 28.29 65.58 28.23C65.45 28.33 65.46 28.33 65.6 28.22C65.76 28.12 65.91 28.01 66.08 27.92C66.22 27.84 66.37 27.76 66.52 27.69C66.58 27.66 66.65 27.63 66.71 27.6C66.56 27.66 66.56 27.66 66.73 27.6C67.09 27.48 67.45 27.39 67.82 27.3C68.15 27.22 67.6 27.3 67.97 27.28C68.16 27.27 68.35 27.25 68.54 27.25C68.73 27.25 68.92 27.26 69.11 27.27C69.56 27.3 68.82 27.2 69.26 27.29C69.63 27.36 70 27.45 70.36 27.58C70.44 27.61 70.76 27.75 70.51 27.64C70.68 27.72 70.85 27.8 71.02 27.9C71.18 27.99 71.35 28.09 71.5 28.2C71.58 28.25 71.65 28.31 71.73 28.37C71.6 28.27 71.61 28.28 71.75 28.39C72.37 28.92 73.35 29.05 73.96 28.39C74.48 27.77 74.61 26.71 73.95 26.15Z" fill="black"/>
<path d="M92.5 84.09C86.89 85.27 80.76 84.76 75.28 83.16C69.86 81.57 64.89 77.98 61.08 73.85C56.36 68.73 54.89 61.09 54.87 54.33C54.86 50.42 55.39 46.53 56.13 42.69C56.66 39.95 57.15 37.15 57.96 34.48C59.63 28.95 61.83 23.26 64.95 18.38C66.03 16.68 63.33 15.12 62.26 16.81C59.21 21.59 57.08 27.13 55.32 32.5C54.45 35.17 53.92 37.92 53.37 40.67C52.56 44.7 51.91 48.79 51.79 52.9C51.58 60.1 52.9 68.4 57.38 74.25C59.48 76.99 62.13 79.21 64.9 81.25C67.33 83.03 69.76 84.54 72.6 85.56C79.07 87.89 86.6 88.51 93.33 87.09C95.29 86.68 94.46 83.68 92.5 84.09Z" fill="black"/>
<path d="M90.35 75.1999C87.14 76.7899 83.39 76.9799 80.02 75.8299C78.9 75.4499 78.42 77.2199 79.53 77.5999C83.38 78.9199 87.64 78.5899 91.27 76.7899C92.33 76.2599 91.4 74.6799 90.35 75.1999Z" fill="black"/>
<path d="M124.25 38.1799C122.53 38.2899 120.86 39.2799 120.09 40.8599C119.3 42.4799 119.43 44.5099 120.53 45.9599C120.83 46.3499 121.32 46.5599 121.78 46.2899C122.17 46.0599 122.41 45.4299 122.11 45.0399C122.01 44.9099 121.92 44.7799 121.83 44.6299C121.78 44.5399 121.74 44.4599 121.69 44.3699C121.68 44.3499 121.63 44.2299 121.66 44.3199C121.59 44.1499 121.54 43.9799 121.49 43.8099C121.47 43.7299 121.45 43.6499 121.44 43.5699C121.41 43.4199 121.43 43.5599 121.42 43.4699C121.35 42.8599 121.42 42.2399 121.66 41.7899C121.81 41.5099 121.95 41.2799 122.09 41.1199C122.19 40.9999 122.3 40.8899 122.42 40.7899C122.42 40.7899 122.6 40.6399 122.54 40.6799C122.48 40.7299 122.66 40.5999 122.67 40.5799C122.8 40.4899 122.93 40.4099 123.07 40.3399C123.15 40.2999 123.24 40.2499 123.32 40.2199C123.21 40.2699 123.37 40.2099 123.41 40.1899C123.56 40.1399 123.71 40.0999 123.86 40.0599C123.94 40.0399 124.01 40.0299 124.09 40.0199C123.93 40.0399 124.2 40.0199 124.22 40.0199C124.71 39.9899 125.14 39.6199 125.14 39.0999C125.16 38.6299 124.74 38.1499 124.25 38.1799Z" fill="black"/>
<path d="M91 57.92C90.73 58.11 90.45 58.28 90.16 58.43C90.01 58.51 89.85 58.61 89.68 58.66C89.71 58.65 89.75 58.63 89.78 58.62C89.74 58.64 89.7 58.65 89.66 58.67C89.58 58.7 89.5 58.73 89.41 58.76C89.1 58.87 88.78 58.96 88.46 59.03C88.32 59.06 88.15 59.12 88.01 59.11C88.14 59.09 88.16 59.09 88.06 59.1C88.02 59.11 87.97 59.11 87.93 59.11C87.84 59.12 87.75 59.13 87.67 59.13C87.19 59.16 86.73 59.53 86.75 60.05C86.77 60.52 87.15 61 87.67 60.97C89.19 60.87 90.68 60.38 91.94 59.5C92.33 59.23 92.55 58.69 92.27 58.25C92 57.86 91.42 57.62 91 57.92Z" fill="black"/>
<path d="M91.14 93.7099C87.97 111.71 85.76 129.75 85.95 148.05C86.01 153.66 86.24 159.27 86.56 164.88C86.66 166.63 89.39 166.64 89.29 164.88C88.27 146.79 88.61 128.82 91.14 110.86C91.91 105.37 92.82 99.8999 93.78 94.4399C94.08 92.7199 91.45 91.9799 91.14 93.7099Z" fill="#A1A2A2"/>
<path d="M81.14 116.32C85.41 116.32 85.42 109.68 81.14 109.68C76.87 109.69 76.86 116.32 81.14 116.32Z" fill="black"/>
<path d="M79.92 152.8C84.19 152.8 84.2 146.16 79.92 146.16C75.65 146.16 75.64 152.8 79.92 152.8Z" fill="black"/>
<path d="M151.93 116.46C154.85 128.54 156.97 140.91 158.04 153.28C158.37 157.09 158.58 160.9 158.59 164.72C158.59 165.94 160.49 165.94 160.49 164.72C160.46 151.22 158.32 137.66 155.64 124.46C155.06 121.61 154.44 118.77 153.76 115.95C153.47 114.77 151.64 115.27 151.93 116.46Z" fill="black"/>
<path d="M148.31 122.9C149.89 124.76 152.09 126.09 154.46 126.63C154.94 126.74 155.51 126.48 155.63 125.97C155.74 125.49 155.48 124.92 154.97 124.8C154.43 124.68 153.9 124.51 153.39 124.31C153.34 124.29 153.27 124.26 153.36 124.3C153.29 124.27 153.22 124.24 153.15 124.21C153.02 124.15 152.9 124.09 152.78 124.03C152.53 123.9 152.29 123.77 152.05 123.63C151.83 123.49 151.61 123.35 151.4 123.2C151.34 123.16 151.28 123.11 151.21 123.06C151.17 123.03 151.1 122.98 151.18 123.04C151.07 122.95 150.96 122.87 150.86 122.78C150.43 122.41 150.03 122 149.66 121.57C149.34 121.19 148.65 121.21 148.32 121.57C147.94 121.96 147.96 122.49 148.31 122.9Z" fill="black"/>
<path d="M81.18 57.7899C82.35 58.1799 83.6 58.1699 84.82 58.0399C85.89 57.9299 86.95 57.7499 87.97 57.4299C89.99 56.7999 91.8 55.6899 93.02 53.9399C93.69 52.9699 92.11 52.0499 91.44 53.0099C90.47 54.3999 88.93 55.2299 87.34 55.6999C85.6 56.2199 83.44 56.6099 81.68 56.0199C80.55 55.6499 80.06 57.4199 81.18 57.7899Z" fill="black"/>
<path d="M71.74 35.5599C71.1 33.9499 69.49 33.3399 68.94 33.1499C67.74 32.7499 66.39 32.3499 64.34 32.8599C60.39 33.8299 60.21 35.2299 60.19 36.2299C60.18 37.0599 60.71 38.5499 61.89 38.7899C62.53 38.9199 63.58 38.4199 65.85 38.1799C68.01 37.9499 70.5 38.4699 71.12 38.1799C71.76 37.8999 72.31 36.9999 71.74 35.5599Z" fill="white"/>
<path d="M66.08 37.8699C68.39 37.8699 68.39 34.2799 66.08 34.2799C63.77 34.2799 63.77 37.8699 66.08 37.8699Z" fill="black"/>
<path d="M94.25 36.54C93.86 35.03 92.32 34.03 91.77 33.82C90.57 33.36 88.83 32.94 86.63 33.23C83.01 33.72 82.27 35.48 82.17 36.41C82.09 37.19 82.4 38.62 83.6 38.93C84.24 39.1 85.41 38.69 87.8 38.62C90.07 38.55 92.59 39.2 93.28 38.97C93.96 38.74 94.61 37.94 94.25 36.54Z" fill="white"/>
<path d="M88.95 38.33C91.18 38.33 91.19 34.86 88.95 34.86C86.72 34.87 86.72 38.33 88.95 38.33Z" fill="black"/>
<path d="M57.3199 104.15C57.3199 104.15 60.0599 100.7 61.7399 95.5299C63.3099 90.7199 68.9799 91.9799 68.6899 95.4299C68.3899 98.8699 67.5599 100.06 67.5599 100.06L57.3199 104.15Z" fill="#E08F8B"/>
<path d="M42.08 132.63L50.82 122.33C50.82 122.33 55.47 105.36 58.19 103.04C60.9 100.71 64.33 99.0699 65.78 98.1999C67.23 97.3299 70.31 94.9999 72.34 96.1599C74.38 97.3199 74.28 103.72 74.28 103.72C74.28 103.72 76.32 104.69 76.51 106.63C76.7 108.57 75.54 112.16 75.54 112.16C75.54 112.16 77.4 112.83 77.48 114.68C77.65 118.68 76.22 121.37 76.22 121.37C76.22 121.37 78.64 121.18 78.84 123.5C79.03 125.83 73.7 133.49 70.99 134.94C68.28 136.39 63.04 138.82 63.04 138.82L58.87 149.49C58.87 149.49 51.47 153.58 48.01 150.27C38.22 140.85 42.08 132.63 42.08 132.63Z" fill="#F4A5AB"/>
<path d="M73.21 102.82C70.48 102.53 68.13 104.16 66.22 105.92C64.21 107.77 62.36 109.78 60.65 111.9C60.32 112.31 60.25 112.88 60.65 113.29C60.99 113.63 61.7 113.71 62.04 113.29C63.61 111.33 65.31 109.47 67.14 107.74C68.81 106.16 70.75 104.52 73.21 104.78C73.74 104.84 74.19 104.29 74.19 103.8C74.19 103.22 73.73 102.87 73.21 102.82Z" fill="black"/>
<path d="M75.57 110.87C72.92 111.18 70.75 112.7 68.99 114.64C67.12 116.69 65.49 118.98 63.78 121.16C63.45 121.58 63.37 122.14 63.78 122.55C64.12 122.89 64.84 122.97 65.17 122.55C66.76 120.52 68.3 118.43 69.98 116.48C71.43 114.8 73.27 113.11 75.57 112.84C76.1 112.78 76.55 112.43 76.55 111.86C76.55 111.37 76.1 110.81 75.57 110.87Z" fill="black"/>
<path d="M75.87 120.05C73.99 120.55 72.56 121.91 71.27 123.29C69.79 124.86 68.36 126.46 66.98 128.11C66.64 128.52 66.58 129.1 66.98 129.5C67.33 129.85 68.03 129.91 68.37 129.5C69.69 127.94 71.04 126.41 72.44 124.92C73.57 123.72 74.75 122.39 76.4 121.95C77.61 121.62 77.1 119.72 75.87 120.05Z" fill="black"/>
<path d="M35.65 135.89C33.77 139.48 33.59 144.86 37.36 150.71C41.14 156.56 46.62 159.36 52.86 159.36C59.1 159.36 58.86 149.47 58.86 149.47C58.86 149.47 51.71 151.78 46.19 144.73C41.44 138.66 43.01 131.52 43.01 131.52C43.01 131.52 37.55 132.28 35.65 135.89Z" fill="#A1A2A2"/>
<path d="M27.33 147.4C30.53 143.33 34.24 139.64 38.38 136.52C38.97 136.08 39.27 135.34 38.87 134.65C38.53 134.07 37.59 133.71 37 134.16C32.66 137.43 28.75 141.2 25.39 145.46C24.93 146.04 24.83 146.83 25.39 147.39C25.87 147.87 26.87 147.98 27.33 147.4Z" fill="#A1A2A2"/>
<path d="M54.16 154.88C53.75 156.26 53.28 157.63 52.77 158.98C52.25 160.34 51.78 161.44 51.15 162.78C50.85 163.42 50.95 164.28 51.64 164.65C52.25 164.97 53.18 164.85 53.51 164.16C54.81 161.39 55.92 158.54 56.8 155.61C57 154.93 56.55 154.09 55.85 153.93C55.11 153.76 54.38 154.15 54.16 154.88Z" fill="#A1A2A2"/>
</g>
<defs>
<clipPath id="clip0_258_19">
<rect width="193.54" height="166.2" fill="white"/>
</clipPath>
</defs>
</svg>
