<svg width="180" height="163" viewBox="0 0 180 163" fill="none" xmlns="http://www.w3.org/2000/svg">
<g clip-path="url(#clip0_259_188)">
<path d="M84.5202 32.07L89.5402 29.63C90.9202 31.68 99.6502 47.03 101.17 50.71C106.05 62.51 108.55 67.61 107.16 74.67C104.38 88.85 83.7602 86.59 82.7102 75.14C82.7202 75.13 94.4802 56.11 84.5202 32.07Z" fill="black"/>
<path d="M98.45 121.48C98.45 121.48 101.57 154.44 101.96 163.44H27.68C27.47 158.08 30.27 142.36 30.27 142.36C28.06 133.68 28.35 127.76 28.35 127.76C28.35 127.76 27.48 129.13 24.99 127.88C21.86 126.31 23.5 122.41 23.5 122.41C23.5 122.41 21.76 125.77 18.53 124.15C15.3 122.53 17.04 119.8 17.04 119.8C17.04 119.8 15.04 121.81 12.19 120.3C10.08 119.18 10.82 116.45 10.82 116.45C10.82 116.45 6.84004 118.31 4.73004 114.96C2.62004 111.6 7.26004 108.14 7.26004 108.14C7.26004 108.14 5.41004 101.19 10.81 92.69C17.54 82.11 39.09 77.21 39.09 77.21L63.99 73.13C63.99 73.13 67.95 73.72 78.79 75.19C85.92 76.16 95.12 76.35 106.13 84.85C114.09 91 116.64 101.37 116.64 101.37C116.64 101.37 121.27 104.06 119.95 107.67C118.77 110.89 114.89 110.5 114.89 110.5C114.89 110.5 117.01 111.95 113.78 113.36C111.42 114.39 109.95 112.05 109.95 112.05C109.95 112.05 111.46 115.17 108.44 116.58C105.35 118.02 103.1 115.37 103.1 115.37C103.1 115.37 104.91 122.51 98.45 121.48Z" fill="#008DB2"/>
<path d="M89.99 35.9C89.99 35.9 92.69 28 84.33 17.84C75.97 7.67997 58.13 -2.29003 38.92 12.51C21.52 25.92 10.92 64.19 14.14 81.53C17.28 98.42 45.98 100.85 51.18 82.59C53.21 75.47 47.71 59.8 47.71 59.8L89.99 35.9Z" fill="black"/>
<path d="M49.77 15.56C53.38 12.52 57.15 10.54 60.84 9.41996C60.65 9.24996 60.47 9.06996 60.28 8.87996C57.76 6.20996 57.77 2.45996 57.9 0.92996C57.93 0.53996 58.28 0.27996 58.65 0.34996C59.88 0.59996 62.56 1.34996 64.49 3.29996C65.65 4.46996 66.44 5.59996 66.96 6.62996C67.26 5.77996 67.69 4.89996 68.3 4.02996C70.29 1.17996 73.57 0.41996 75.2 0.20996C75.74 0.13996 76.2 0.58996 76.18 1.13996C76.12 2.53996 75.79 5.12996 74.38 7.25996C74 7.82996 73.62 8.31996 73.24 8.76996C75.81 9.32996 78.13 10.32 80.05 11.65C91.69 19.72 90.1 30.12 90.1 30.12C90.1 30.12 82.97 7.47996 63.53 17.26C44.09 27.03 44.9 45.44 44.9 45.44C44.9 45.44 43.89 43.49 42.05 43.53C39.73 43.58 38.33 44.45 38.33 44.45C38.33 44.45 37.36 26 49.77 15.56Z" fill="#00A94F"/>
<path d="M58.3199 0C59.4999 0.01 60.6499 0.33 61.7399 0.79C62.7899 1.24 63.8599 1.82 64.7099 2.61C65.5499 3.39 66.2699 4.35 66.7499 5.41C67.1999 6.42 67.3999 7.53 67.5199 8.63C69.0999 9.34 70.4999 10.91 70.2399 12.71C70.1199 13.53 68.8799 13.31 68.9999 12.49C69.1099 11.73 68.6199 11.03 68.0999 10.54C67.5599 10.04 66.9099 9.69 66.1999 9.56C64.9499 9.34 63.4799 10.01 63.0899 11.33C62.9899 11.67 62.7199 11.92 62.3599 11.86C62.0499 11.81 61.7499 11.45 61.8499 11.11C62.4099 9.18 64.2899 8.02 66.2099 8.26C66.1099 7.5 65.9499 6.75 65.6499 6.04C65.2699 5.12 64.6399 4.28 63.9199 3.61C63.1899 2.94 62.3099 2.44 61.4099 2.05C60.4899 1.64 59.4699 1.3 58.4499 1.29C58.1099 1.29 57.7999 1.08 57.7599 0.71C57.7199 0.39 57.9799 0 58.3199 0Z" fill="#008043"/>
<path d="M57.9601 20.66C57.9601 20.66 54.7101 23.1 52.6901 25.47C52.0401 26.23 51.0201 27.5 50.1901 28.72C49.6101 29.57 49.0401 30.58 49.0401 30.58C49.0401 30.58 47.2601 26.13 49.8101 22.9C53.1801 18.63 57.9601 20.66 57.9601 20.66Z" fill="#97CA51"/>
<path d="M49.67 17.37C50.29 18.27 51.55 18.45 52.49 17.77C53.43 17.09 53.7 15.8 53.08 14.9C52.74 14.41 52.2 14.13 51.63 14.09C51.63 14.09 50.83 14.66 50.42 15C49.83 15.49 49.36 15.89 49.36 15.89C49.29 16.38 49.38 16.95 49.67 17.37Z" fill="#E24497"/>
<path d="M72.12 1.94995L73.89 3.60995L72.75 4.59995L70.96 3.02995L70.83 5.98995L69.5 5.90995L69.54 3.68995L67.93 5.61995L67.49 5.36995C67.49 5.36995 68.38 3.48995 69.87 2.34995C70.31 1.99995 71.01 1.49995 71.85 1.12995C72.79 0.719951 73.85 0.449951 73.85 0.449951L74.1 1.29995L72.12 1.94995Z" fill="#97CA51"/>
<path d="M39.41 35.83L41.57 36.42L41.34 37.76L39.34 37.06L40.19 39.17L39.23 39.59L38.72 37.74C38.72 37.74 38.77 37.16 38.91 36.24C39.06 35.31 39.2 34.85 39.2 34.85L40.43 33.58L40.94 34.57L39.41 35.83Z" fill="#FAAE17"/>
<path d="M74.6492 13.311C75.3777 13.1805 75.8687 12.5195 75.746 11.8345C75.6234 11.1496 74.9334 10.7001 74.205 10.8305C73.4765 10.961 72.9854 11.622 73.1081 12.307C73.2308 12.9919 73.9208 13.4414 74.6492 13.311Z" fill="white"/>
<path d="M81.1199 17.4399L82.8499 15.5699L84.1599 16.7599L82.5899 18.5799C82.5899 18.5799 82.5299 18.5299 82.4299 18.4399C82.3199 18.3399 82.0099 18.0799 81.7599 17.8999C81.2799 17.5499 81.1199 17.4399 81.1199 17.4399Z" fill="#E24497"/>
<path d="M64.81 13.1899L64.99 15.0099L58.42 16.1499L58.23 13.4399L64.81 13.1899Z" fill="#FAAE17"/>
<path d="M42.5099 30.97C42.5699 31.69 43.1899 32.21 43.8899 32.14C44.5899 32.07 45.0999 31.43 45.0399 30.72C44.9799 30 44.3599 29.48 43.6599 29.55C42.9599 29.62 42.4499 30.25 42.5099 30.97Z" fill="white"/>
<path d="M76.8301 77.48C76.8301 77.48 78.4601 86.09 68.0201 85.95C59.3801 85.84 54.0901 81.59 51.8301 78.5C51.8301 78.5 51.3401 72.32 49.8501 67.24C48.3501 62.16 47.2501 59.7 47.2501 59.7C47.2501 59.7 40.5901 60.99 37.3101 55.59C34.0301 50.2 35.3901 44.67 39.9601 43.55C44.5301 42.42 44.8801 45.11 46.4401 48.19C48.0001 51.27 53.2301 55.16 52.3001 45.01C52.3001 45.01 57.5001 41.79 61.2701 37C65.0401 32.21 66.5701 27.24 66.5701 27.24C66.5701 27.24 68.9401 29.3 74.7201 31.55C82.2501 34.49 88.2401 33.34 88.8301 33.15C89.4201 32.96 94.1101 52.13 93.9101 61.97C93.6501 74.93 83.8001 77.85 76.8301 77.48Z" fill="#F498A8"/>
<path d="M87.4001 30.83C89.0201 36.22 89.9601 41.82 90.9501 47.36C91.8901 52.59 92.7401 57.98 92.3701 63.31C92.1701 66.18 91.5701 69.14 89.7101 71.42C88.2601 73.19 86.0801 74.23 83.8701 75.02C81.5401 75.85 79.0901 75.95 76.6401 75.82C73.2201 75.63 69.8301 75.01 66.5501 74.06C64.8601 73.57 63.9001 76.14 65.6001 76.63C73.4801 78.92 84.2301 80.48 90.8301 74.22C93.1301 72.04 94.2901 69.11 94.8201 66.03C95.6901 60.93 95.0401 55.55 94.2601 50.48C93.2301 43.75 92.0701 36.87 90.1101 30.34C89.6001 28.66 86.8901 29.13 87.4001 30.83Z" fill="black"/>
<path d="M39.85 50.23C39.92 50.26 40 50.29 40.07 50.32C40.09 50.33 40.32 50.45 40.14 50.35C40.27 50.42 40.39 50.5 40.51 50.58C40.63 50.66 40.74 50.75 40.85 50.84C41 50.96 40.76 50.74 40.91 50.89C40.96 50.94 41 50.98 41.05 51.03C41.15 51.14 41.24 51.25 41.33 51.36C41.38 51.42 41.42 51.49 41.47 51.55C41.59 51.7 41.41 51.44 41.52 51.62C41.67 51.87 41.8 52.13 41.9 52.4C41.92 52.46 41.95 52.52 41.97 52.59C41.99 52.65 41.99 52.64 41.96 52.55C41.97 52.59 41.98 52.63 41.99 52.66C42.03 52.8 42.06 52.94 42.09 53.08C42.12 53.22 42.13 53.37 42.15 53.51C42.15 53.55 42.16 53.59 42.16 53.63C42.16 53.53 42.16 53.51 42.16 53.58C42.16 53.65 42.16 53.71 42.16 53.78C42.16 54.07 42.13 54.36 42.07 54.64C42.11 54.43 42.06 54.66 42.05 54.7C42.03 54.78 42 54.85 41.98 54.92C41.93 55.07 41.86 55.21 41.79 55.36C41.58 55.79 41.89 56.4 42.33 56.54C42.84 56.7 43.28 56.46 43.51 56C44.85 53.24 43.32 49.61 40.5 48.5C40.05 48.32 39.47 48.58 39.32 49.04C39.16 49.53 39.37 50.04 39.85 50.23Z" fill="black"/>
<path d="M78.26 54.4399C78.21 53.7999 77.93 53.1699 77.71 52.5699C77.47 51.9199 77.22 51.2699 76.96 50.6199C76.44 49.3199 75.88 48.0399 75.31 46.7599C74.93 45.9199 73.63 46.5299 74.01 47.3699C74.88 49.2999 75.71 51.2599 76.44 53.2499C76.6 53.6799 76.82 54.1499 76.84 54.6199C76.85 54.8899 76.77 55.3299 76.53 55.4999C76.31 55.6499 75.93 55.5999 75.7 55.5099C75.36 55.3799 75.21 55.0999 75.1 54.7799C74.97 54.4099 74.47 54.2899 74.14 54.4399C74.01 54.4999 73.92 54.5999 73.86 54.6999C73.72 54.8199 73.63 54.9799 73.6 55.1899C73.59 55.2499 73.58 55.3199 73.57 55.3799C73.57 55.4099 73.57 55.4099 73.56 55.4199C73.56 55.4299 73.56 55.4199 73.55 55.4399C73.52 55.5499 73.49 55.6499 73.45 55.7599C73.43 55.8099 73.41 55.8599 73.39 55.9099C73.38 55.9299 73.39 55.9199 73.38 55.9299C73.38 55.9299 73.38 55.9299 73.37 55.9399C73.31 56.0399 73.25 56.1199 73.18 56.2099C73.16 56.2299 73.15 56.2399 73.13 56.2599C73.09 56.2899 73.05 56.3199 73.01 56.3599C73.13 56.2599 73.03 56.3499 72.98 56.3699C72.94 56.3899 72.91 56.3999 72.87 56.4199C72.86 56.4199 72.75 56.4399 72.73 56.4499C72.72 56.4499 72.7 56.4499 72.69 56.4499C72.68 56.4499 72.69 56.4499 72.68 56.4499C72.61 56.4399 72.53 56.4399 72.46 56.4299C72.44 56.4299 72.44 56.4299 72.44 56.4299C72.43 56.4299 72.43 56.4199 72.41 56.4199C72.35 56.3999 72.29 56.3799 72.23 56.3599C72.2 56.3499 72.15 56.3199 72.14 56.3099C72.1 56.2799 72.06 56.2599 72.02 56.2299C72.01 56.2199 72 56.2199 72 56.2099C71.87 56.0499 71.73 55.9099 71.62 55.7399C71.6 55.7199 71.59 55.6899 71.57 55.6699C71.54 55.6299 71.51 55.5799 71.49 55.5299C71.43 55.4299 71.37 55.3199 71.31 55.2099C71.21 55.0299 71.12 54.8399 71.05 54.6499C70.91 54.2999 70.42 54.1299 70.09 54.3099C69.73 54.4999 69.6 54.8899 69.75 55.2699C69.97 55.8099 70.27 56.3199 70.61 56.7899C71.02 57.3499 71.59 57.7199 72.28 57.8499C73.05 57.9899 73.78 57.6899 74.29 57.1199C74.44 56.9499 74.55 56.7599 74.65 56.5599C75.18 56.9499 75.86 57.1199 76.55 57.0099C77.76 56.7999 78.35 55.5599 78.26 54.4399Z" fill="black"/>
<path d="M79.6701 84.2201C78.6601 86.6401 76.7101 88.7801 74.3301 89.9101C72.4701 90.8001 70.2301 90.9601 68.2001 90.9301C63.7301 90.8501 58.7501 89.7501 55.2601 86.8001C54.3801 86.0601 53.3701 87.5201 54.2301 88.2501C58.1601 91.5701 63.9901 92.8201 69.0201 92.7001C71.3301 92.64 73.7301 92.3301 75.7601 91.1601C78.2501 89.7301 80.2201 87.49 81.3301 84.84C81.7801 83.77 80.1101 83.1601 79.6701 84.2201Z" fill="#006B83"/>
<path d="M85.7402 44.98C85.1402 45.25 82.8502 44.89 80.8202 45.16C78.6902 45.45 77.6802 45.92 77.0902 45.83C76.0002 45.66 75.6302 44.38 75.6502 43.66C75.6802 42.8 76.2302 41.12 79.4302 40.34C81.3802 39.87 82.9702 40.1 84.0702 40.41C84.5802 40.55 86.0102 41.32 86.4602 42.67C86.8802 43.91 86.3402 44.7 85.7402 44.98Z" fill="white"/>
<path d="M80.0001 44.7099C82.2501 44.8999 82.5601 41.3999 80.3001 41.2099C78.0501 41.0099 77.7501 44.5099 80.0001 44.7099Z" fill="black"/>
<path d="M59.5802 45.86C59.7102 44.45 60.9302 43.37 61.3902 43.11C62.3902 42.56 63.8802 41.97 65.8902 41.98C69.1802 42 70.1102 43.52 70.3302 44.34C70.5202 45.04 70.4402 46.37 69.4302 46.78C68.8802 47 67.7902 46.78 65.6402 46.98C63.6102 47.17 61.4602 48.05 60.8102 47.93C60.1602 47.81 59.4602 47.16 59.5802 45.86Z" fill="white"/>
<path d="M64.1002 46.72C66.3502 46.91 66.6602 43.41 64.4002 43.22C62.1502 43.02 61.8402 46.52 64.1002 46.72Z" fill="black"/>
<path d="M47.2601 59.7101C47.2601 59.7101 40.5901 61.0001 37.3101 55.6001C34.0301 50.2001 35.3801 44.6701 39.9601 43.5401C44.5301 42.4101 44.8801 45.1001 46.4501 48.1801C47.1901 49.6401 48.5801 51.4301 49.7501 51.5101L47.2601 59.7101Z" fill="#F498A8"/>
<path d="M39.85 50.23C39.92 50.26 40 50.29 40.07 50.32C40.09 50.33 40.32 50.45 40.14 50.35C40.27 50.42 40.39 50.5 40.51 50.58C40.63 50.66 40.74 50.75 40.85 50.84C41 50.96 40.76 50.74 40.91 50.89C40.96 50.94 41 50.98 41.05 51.03C41.15 51.14 41.24 51.25 41.33 51.36C41.38 51.42 41.42 51.49 41.47 51.55C41.59 51.7 41.41 51.44 41.52 51.62C41.67 51.87 41.8 52.13 41.9 52.4C41.92 52.46 41.95 52.52 41.97 52.59C41.99 52.65 41.99 52.64 41.96 52.55C41.97 52.59 41.98 52.63 41.99 52.66C42.03 52.8 42.06 52.94 42.09 53.08C42.12 53.22 42.13 53.37 42.15 53.51C42.15 53.55 42.16 53.59 42.16 53.63C42.16 53.53 42.16 53.51 42.16 53.58C42.16 53.65 42.16 53.71 42.16 53.78C42.16 54.07 42.13 54.36 42.07 54.64C42.12 54.43 42.06 54.66 42.05 54.7C42.03 54.78 42 54.85 41.98 54.92C41.93 55.07 41.86 55.21 41.79 55.36C41.58 55.79 41.89 56.4 42.33 56.54C42.84 56.7 43.28 56.46 43.51 56C44.85 53.23 43.32 49.61 40.5 48.5C40.05 48.32 39.47 48.58 39.32 49.04C39.16 49.53 39.37 50.04 39.85 50.23Z" fill="black"/>
<path d="M60.1902 40.07C60.2002 40.06 60.4102 39.8 60.2702 39.96C60.1402 40.12 60.3402 39.89 60.3702 39.86C60.5002 39.73 60.6302 39.61 60.7702 39.5C60.9002 39.4 61.0302 39.3 61.1702 39.2C61.2902 39.11 61.3502 39.08 61.1902 39.18C61.2702 39.13 61.3502 39.08 61.4302 39.04C61.7502 38.86 62.0702 38.7 62.4102 38.57C62.5902 38.5 62.7702 38.43 62.9602 38.37C62.7702 38.43 62.8702 38.4 63.0002 38.36C63.0902 38.33 63.1902 38.31 63.2802 38.28C63.6402 38.19 64.0102 38.12 64.3702 38.07C64.5602 38.05 64.7602 38.03 64.9502 38.01C65.1702 37.99 64.6002 38.01 64.9702 38.01C65.0502 38.01 65.1202 38.01 65.2002 38.01C65.5802 38.01 65.9502 38.04 66.3202 38.1C66.3902 38.11 66.4602 38.13 66.5402 38.14C66.8902 38.19 66.3502 38.08 66.5402 38.14C66.7302 38.19 66.9202 38.24 67.1002 38.3C67.8002 38.54 68.6802 38.21 68.9202 37.46C69.1502 36.75 68.8402 35.89 68.0802 35.64C64.6002 34.47 60.2002 35.56 57.8502 38.43C57.3802 39 57.5802 40.01 58.1902 40.41C58.9002 40.85 59.6802 40.68 60.1902 40.07Z" fill="black"/>
<path d="M77.61 36.96C77.76 36.83 77.91 36.71 78.07 36.6C78.18 36.51 78.17 36.53 78.06 36.6C78.14 36.55 78.23 36.5 78.31 36.45C78.64 36.26 78.99 36.13 79.34 35.99C79.08 36.1 79.33 35.99 79.39 35.98C79.49 35.95 79.58 35.93 79.68 35.9C79.88 35.85 80.07 35.81 80.27 35.78C80.45 35.75 80.63 35.73 80.81 35.72C80.95 35.71 81.06 35.71 80.86 35.71C80.96 35.71 81.06 35.71 81.16 35.71C81.54 35.71 81.93 35.75 82.3 35.81C82.38 35.82 82.46 35.84 82.54 35.85C82.23 35.8 82.51 35.84 82.58 35.86C82.77 35.91 82.96 35.97 83.15 36.04C83.32 36.1 83.48 36.17 83.64 36.24C83.64 36.24 83.96 36.41 83.79 36.31C83.62 36.21 83.9 36.38 83.93 36.4C84.1 36.5 84.26 36.61 84.41 36.73C84.47 36.78 84.53 36.83 84.59 36.88C84.89 37.12 84.39 36.68 84.66 36.95C85.19 37.47 86.06 37.67 86.66 37.12C87.18 36.64 87.39 35.68 86.83 35.12C83.94 32.25 78.85 32.12 75.78 34.8C75.22 35.29 75.08 36.23 75.61 36.8C76.12 37.34 77.01 37.48 77.61 36.96Z" fill="black"/>
<path d="M28.1899 126.99C28.2099 126.97 28.2199 126.97 28.1899 126.99V126.99Z" fill="#006B83"/>
<path d="M29.5901 124.58C29.6001 124.52 29.6001 124.46 29.5901 124.58V124.58Z" fill="#006B83"/>
<path d="M38.29 119.16C37.97 118.84 37.35 118.79 37.03 119.16C35.36 121.1 32.94 122.31 30.41 122.43C29.93 122.45 29.52 122.82 29.52 123.32C29.52 123.48 29.58 123.63 29.66 123.77C29.64 123.84 29.61 123.91 29.62 124C29.62 124.18 29.62 124.35 29.6 124.53C29.6 124.57 29.59 124.61 29.59 124.65C29.59 124.62 29.59 124.61 29.59 124.6C29.59 124.61 29.59 124.61 29.59 124.62C29.57 124.71 29.56 124.79 29.54 124.88C29.5 125.05 29.45 125.22 29.39 125.39C29.38 125.43 29.36 125.46 29.35 125.5C29.34 125.53 29.28 125.69 29.33 125.56C29.38 125.44 29.33 125.56 29.32 125.59C29.3 125.63 29.28 125.68 29.26 125.72C29.18 125.87 29.1 126.01 29.01 126.15C28.96 126.22 28.91 126.3 28.86 126.37C28.84 126.39 28.82 126.42 28.8 126.44C28.69 126.57 28.57 126.7 28.44 126.82C28.38 126.88 28.31 126.94 28.24 126.99C28.21 127.01 28.18 127.04 28.15 127.06C28.18 127.03 28.2 127.01 28.21 127C28.19 127.02 28.16 127.04 28.14 127.06C27.76 127.33 27.54 127.85 27.82 128.28C28.06 128.65 28.63 128.89 29.04 128.6C30.49 127.57 31.4 125.91 31.41 124.12C34.06 123.76 36.55 122.46 38.31 120.42C38.61 120.05 38.65 119.51 38.29 119.16Z" fill="#006B83"/>
<path d="M93.1702 101.14C95.9702 105.9 97.3802 111.33 97.2602 116.85C97.2402 118 99.0102 117.99 99.0402 116.85C99.1702 111.03 97.6602 105.26 94.7002 100.24C94.1202 99.26 92.5802 100.15 93.1702 101.14Z" fill="#006B83"/>
<path d="M71.5801 114.89C78.3201 114.87 79.7401 113.91 79.6901 111.47C79.6401 109.03 76.1401 109.23 68.9601 108.73C62.0101 108.24 60.1001 108.7 59.9901 108.72C60.0401 108.58 60.7001 106.54 59.9901 103.34C59.2401 100.03 53.6101 99.79 53.9301 103.23C54.2501 106.67 51.8801 108.96 49.3401 111.03C46.8101 113.1 43.7101 116.17 41.9001 118.65C40.6101 120.41 32.7901 125.38 28.3401 128.12C26.5101 129.25 25.2601 130 25.2601 130L26.2301 128.3C25.8701 128.22 25.4701 128.1 25.0001 127.87C21.8701 126.3 23.5101 122.4 23.5101 122.4C23.5101 122.4 21.7701 125.76 18.5401 124.14C15.3101 122.52 17.0501 119.79 17.0501 119.79C17.0501 119.79 15.0501 121.8 12.2001 120.29C10.0901 119.17 10.8301 116.44 10.8301 116.44C10.8301 116.44 9.20009 117.2 7.48009 116.87C2.73009 126.32 -4.84991 144.21 4.35009 152.93C10.8501 159.08 20.8701 153.67 28.3301 147.84C34.0301 143.38 38.2401 138.67 38.2401 138.67L41.3401 134.63C48.3001 137.11 53.5701 132.36 53.5701 132.36C54.2001 133.36 56.8001 133.89 56.8001 133.89C56.8001 133.89 55.9801 135.85 59.7701 136.87C63.5601 137.9 65.4401 136.42 66.2001 134.55C66.9601 132.68 65.1301 131.79 65.1301 131.79C65.1301 131.79 68.4101 132.93 69.9301 130.4C71.4501 127.87 69.7501 126.49 69.7501 126.49C74.9801 127.16 74.1201 121.94 72.2801 120.94C70.4301 119.93 61.0401 116.17 61.0401 116.17L63.5201 114.69C63.5201 114.69 64.8301 114.91 71.5801 114.89Z" fill="#F5A0AC"/>
<path d="M53.83 114.01C54.83 113.18 55.83 112.35 56.83 111.52C57.29 111.14 57.74 110.72 58.23 110.38C58.71 110.05 59.26 109.89 59.82 109.74C60.69 109.5 60.32 108.15 59.45 108.38C58.84 108.54 58.21 108.73 57.67 109.07C57.08 109.44 56.56 109.93 56.03 110.37C54.97 111.25 53.9 112.13 52.84 113.01C52.55 113.25 52.59 113.75 52.84 114.01C53.13 114.3 53.54 114.25 53.83 114.01Z" fill="black"/>
<path d="M68.8202 125.7C66.3202 124.68 63.8002 123.7 61.2702 122.76C60.9102 122.63 60.5002 122.91 60.4002 123.25C60.2902 123.64 60.5302 123.98 60.8902 124.12C63.4202 125.05 65.9402 126.03 68.4402 127.06C68.7902 127.2 69.2102 126.9 69.3102 126.57C69.4202 126.16 69.1702 125.85 68.8202 125.7Z" fill="black"/>
<path d="M64.73 131.07C63.09 130.52 61.46 129.94 59.83 129.33C59.47 129.2 59.06 129.48 58.96 129.82C58.85 130.21 59.09 130.55 59.45 130.69C61.07 131.29 62.7 131.87 64.35 132.43C64.71 132.55 65.12 132.29 65.22 131.94C65.33 131.55 65.1 131.19 64.73 131.07Z" fill="black"/>
<path d="M59.6601 134.01C57.3101 133.79 55.0101 132.85 53.1901 131.34C52.9001 131.1 52.4801 131.05 52.1901 131.34C51.9401 131.59 51.9001 132.09 52.1901 132.34C54.3201 134.11 56.9001 135.17 59.6501 135.42C60.0301 135.45 60.3501 135.07 60.3501 134.72C60.3701 134.3 60.0401 134.04 59.6601 134.01Z" fill="black"/>
<path d="M52.5502 131.97C49.5602 135.27 44.6302 135.67 41.1102 132.97C40.3902 132.42 39.6902 133.64 40.4002 134.19C44.3902 137.25 50.1802 136.69 53.5402 132.97C54.1502 132.3 53.1602 131.3 52.5502 131.97Z" fill="black"/>
<path d="M41.35 133.98C40.17 135.24 39.06 136.56 38.02 137.93C37.8 138.22 37.96 138.73 38.27 138.89C38.64 139.09 38.99 138.95 39.23 138.64C39.29 138.56 39.35 138.49 39.41 138.41C39.55 138.23 39.37 138.46 39.45 138.35C39.48 138.31 39.51 138.27 39.54 138.24C39.67 138.08 39.79 137.92 39.92 137.76C40.18 137.44 40.44 137.12 40.7 136.81C41.23 136.18 41.78 135.57 42.34 134.97C42.59 134.7 42.63 134.24 42.34 133.97C42.07 133.73 41.62 133.69 41.35 133.98Z" fill="black"/>
<path d="M118.5 110.41C118.5 110.41 118.35 110.16 117.95 109.9C116.49 110.64 114.88 110.49 114.88 110.49C114.88 110.49 117 111.94 113.77 113.35C111.41 114.38 109.94 112.04 109.94 112.04C109.94 112.04 111.45 115.16 108.43 116.57C105.34 118.01 103.09 115.36 103.09 115.36C103.09 115.36 104.54 121.14 100.11 121.54L107.63 136.51L99.7402 136.2L72.5102 135.14L72.5002 135.02L72.3102 135.01C68.6902 133.44 65.2702 134.5 63.8202 135.1C60.7502 136.36 59.4202 138.77 59.4202 138.77C59.4202 138.77 60.1002 137.48 56.9402 136.76C53.4302 135.96 51.7102 136.62 50.8402 138.22C49.9702 139.82 51.5502 140.8 51.5502 140.8C51.5502 140.8 48.6602 139.47 47.0302 141.59C45.4002 143.71 46.8102 145.11 46.8102 145.11C42.1002 144.01 42.3702 148.77 43.9602 149.84C45.5502 150.92 53.7602 155.18 53.7602 155.18L51.3502 156.27C51.3502 156.27 50.1702 155.95 44.0102 155.33C38.7502 154.8 36.9702 155.25 36.4502 156.76C36.3602 157.02 36.3002 157.3 36.2702 157.62C36.0802 159.81 39.2902 159.97 45.8002 161.09C52.1002 162.19 53.8802 161.96 53.9902 161.95C53.9302 162.07 58.2602 160.47 60.7702 158.86C61.4902 158.4 62.9502 157.64 64.5802 156.7C67.4302 155.07 70.8302 152.88 71.8802 150.71C75.1702 150.39 88.5202 153.14 101.16 155.18C104.5 155.72 107.79 156.21 110.83 156.58C124.97 158.3 129.33 152.87 131.6 149.46C138.8 138.64 118.5 110.41 118.5 110.41Z" fill="#F5A0AC"/>
<path d="M47.2502 145.72C48.4402 145.93 49.6302 146.15 50.7802 146.51C51.6302 146.78 52.6802 147.14 53.1902 147.93C53.5702 148.52 53.6302 149.35 52.9702 149.71C52.1502 150.16 50.9202 149.99 50.1102 149.63C49.7602 149.48 49.3502 149.53 49.1502 149.88C48.9702 150.18 49.0502 150.69 49.4002 150.84C51.0802 151.59 54.2702 151.79 54.8002 149.45C55.0202 148.47 54.7002 147.47 54.0302 146.73C53.3502 145.98 52.3802 145.56 51.4402 145.24C50.2002 144.82 48.9102 144.59 47.6202 144.36C47.2502 144.29 46.8602 144.46 46.7502 144.85C46.6602 145.19 46.8702 145.65 47.2502 145.72Z" fill="black"/>
<path d="M53.1401 142.12C53.2101 142.15 53.2801 142.18 53.3501 142.2C53.2601 142.16 53.4701 142.25 53.4901 142.26C53.6401 142.33 53.7801 142.4 53.9301 142.48C54.2201 142.64 54.3601 142.73 54.5501 142.92C54.7401 143.11 54.8301 143.25 54.9001 143.56C54.9501 143.8 54.9401 144.21 54.9001 144.45C54.8801 144.6 54.8501 144.75 54.7901 144.86C54.7601 144.92 54.7201 144.98 54.6801 145.04C54.6001 145.16 54.7101 145.02 54.6201 145.12C54.5601 145.18 54.5101 145.24 54.4501 145.29C54.4301 145.31 54.2901 145.42 54.3401 145.38C54.3901 145.34 54.2401 145.44 54.2201 145.46C54.1601 145.5 54.0901 145.54 54.0201 145.57C53.9901 145.58 53.8201 145.65 53.9501 145.6C53.8901 145.62 53.8301 145.64 53.7701 145.66C53.6501 145.7 53.5301 145.72 53.4101 145.75C53.2401 145.78 53.5101 145.75 53.3601 145.75C53.3001 145.75 53.2501 145.76 53.1901 145.76C53.1301 145.76 53.0601 145.76 53.0001 145.75C52.8101 145.74 53.0901 145.77 52.9501 145.74C52.5801 145.67 52.1901 145.84 52.0801 146.23C51.9901 146.57 52.2001 147.03 52.5701 147.1C54.1201 147.38 55.9801 146.47 56.2601 144.81C56.4301 143.8 56.3401 142.8 55.6501 142.01C55.1001 141.38 54.2801 141.04 53.5201 140.74C53.1701 140.6 52.7501 140.9 52.6501 141.23C52.5301 141.66 52.7801 141.98 53.1401 142.12Z" fill="black"/>
<path d="M61.3403 145.29C60.1503 146.23 59.0703 147.29 58.1503 148.49C57.2903 149.61 56.6203 150.94 56.9303 152.39C57.2303 153.78 58.4803 154.66 59.8803 154.58C61.3603 154.5 62.4903 153.58 63.5003 152.59C64.8203 151.3 66.1703 150.06 67.6103 148.9C67.9103 148.66 67.8603 148.16 67.6103 147.9C67.3203 147.6 66.9103 147.66 66.6103 147.9C65.2603 148.99 63.9603 150.15 62.7203 151.37C61.8303 152.25 60.5203 153.61 59.1203 153.07C57.6503 152.51 58.3603 150.61 58.9803 149.7C59.8803 148.39 61.0903 147.25 62.3303 146.27C62.6303 146.03 62.5703 145.52 62.3303 145.27C62.0403 144.99 61.6303 145.06 61.3403 145.29Z" fill="black"/>
<path d="M57.8502 138.47C58.0702 138.62 58.2502 138.81 58.4102 139.07C58.5102 139.25 58.5302 139.3 58.5802 139.44C58.6102 139.52 58.6302 139.61 58.6502 139.69C58.6602 139.73 58.6702 139.76 58.6702 139.8C58.6602 139.74 58.6602 139.75 58.6702 139.83C58.6702 139.9 58.6802 139.98 58.6802 140.05C58.6802 140.08 58.6502 140.35 58.6702 140.23C58.6402 140.4 58.6002 140.56 58.5302 140.72C58.5702 140.62 58.4902 140.81 58.4802 140.82C58.4402 140.89 58.4002 140.97 58.3502 141.04C58.2902 141.13 58.2302 141.22 58.0902 141.35C58.0302 141.41 57.9702 141.47 57.9002 141.52C57.9902 141.45 57.8302 141.57 57.8102 141.58C57.7302 141.63 57.6402 141.68 57.5602 141.72C57.3702 141.82 57.6202 141.71 57.4902 141.75C57.3802 141.79 57.2602 141.81 57.1402 141.83C57.3202 141.8 57.1002 141.83 57.0602 141.83C56.9802 141.83 56.9102 141.84 56.8302 141.84C56.4402 141.84 56.2302 141.81 55.8702 141.73C55.4802 141.64 55.0902 141.51 54.7202 141.34C54.3802 141.18 53.9602 141.24 53.7602 141.59C53.5802 141.9 53.6702 142.39 54.0102 142.55C55.2802 143.15 56.9002 143.58 58.2402 142.95C59.6002 142.32 60.3202 140.72 59.9902 139.28C59.8002 138.44 59.2702 137.72 58.5602 137.24C58.2402 137.03 57.7802 137.18 57.6002 137.49C57.4002 137.85 57.5302 138.26 57.8502 138.47Z" fill="black"/>
<path d="M69.8702 139.7C67.8702 139.81 65.7802 140.18 64.0802 141.33C62.5302 142.37 61.4402 143.92 61.2002 145.79C61.1502 146.17 61.5602 146.49 61.9002 146.49C62.3202 146.49 62.5502 146.16 62.6002 145.79C62.7902 144.38 63.8102 143.15 64.9902 142.42C66.4402 141.51 68.1802 141.21 69.8702 141.12C70.7702 141.06 70.7802 139.65 69.8702 139.7Z" fill="black"/>
<path d="M75.74 62.61C75.76 62.6 75.05 68.21 70.3 68.74C65.55 69.27 62.05 64.21 62.13 59.18C62.13 59.18 62.74 57.68 64.19 59.43C65.64 61.19 70.56 64.61 75.74 62.61Z" fill="black"/>
<path d="M64.96 59.28C64.99 62.12 67.85 65.02 70.64 65.3C72.58 65.5 73.53 63.94 73.98 62.62C70 63.1 66.46 60.82 64.96 59.28Z" fill="white"/>
<path d="M62.75 63.0199C63.75 65.8799 65.86 68.1899 68.55 68.6799C68.47 67.6099 67.84 65.9399 66.37 64.4999C65.17 63.3299 63.84 62.9099 62.75 63.0199Z" fill="#EC145A"/>
<path d="M76.8001 61.53C74.6501 62.6 72.2101 62.66 69.9301 61.96C68.7901 61.61 67.7001 61.1 66.6701 60.5C65.7201 59.94 64.7101 59.33 64.1301 58.36C64.1701 58.3 64.2201 58.24 64.2601 58.18C64.5801 57.7 64.8201 57.18 64.9701 56.63C65.0501 56.33 64.9501 55.97 64.6201 55.87C64.3401 55.78 63.9501 55.9 63.8601 56.22C63.8101 56.4 63.7501 56.58 63.6801 56.76C63.6501 56.85 63.6101 56.94 63.5701 57.02C63.5501 57.07 63.5301 57.11 63.5001 57.16C63.5001 57.17 63.4901 57.18 63.4801 57.19C63.3901 57.35 63.2901 57.51 63.1801 57.67C63.1301 57.75 63.0701 57.82 63.0101 57.89C62.9801 57.93 62.9501 57.96 62.9201 58C62.9101 58.01 62.8901 58.04 62.8701 58.05C62.7401 58.18 62.6001 58.31 62.4501 58.42C62.4301 58.43 62.3301 58.49 62.4201 58.45C62.3801 58.47 62.3401 58.5 62.3001 58.52C62.2601 58.54 62.2201 58.56 62.1801 58.58C62.1701 58.59 62.1601 58.59 62.1601 58.59C62.1601 58.59 62.1601 58.59 62.1501 58.59C62.1101 58.6 62.0601 58.61 62.0201 58.62C62.0001 58.62 61.9901 58.62 61.9701 58.63C61.9601 58.63 61.9601 58.63 61.9601 58.63C61.9101 58.63 61.8501 58.63 61.8001 58.62C61.7901 58.62 61.7101 58.6 61.6901 58.6C61.6601 58.59 61.5901 58.57 61.5801 58.57C61.5301 58.55 61.4801 58.54 61.4301 58.52C61.3901 58.5 61.3401 58.49 61.3001 58.47C61.1001 58.29 60.8601 58.21 60.6001 58.33C60.3401 58.44 60.2101 58.75 60.2601 59.02C60.3501 59.44 60.8101 59.58 61.1701 59.69C61.5201 59.8 61.8701 59.85 62.2401 59.8C62.5701 59.75 62.8601 59.6 63.1301 59.42C63.2001 59.38 63.2601 59.32 63.3201 59.28C63.9301 60.14 64.7601 60.77 65.6701 61.32C66.8801 62.06 68.1701 62.7 69.5301 63.11C72.1001 63.9 74.8801 63.85 77.3101 62.63C77.9901 62.26 77.4801 61.19 76.8001 61.53Z" fill="black"/>
<path d="M63.51 69.1699C64.78 70.2099 66.28 70.8999 67.88 71.2399C68.2 71.3099 68.52 70.9799 68.54 70.6799C68.57 70.3199 68.31 70.0799 67.98 70.0199C67.35 69.8899 66.61 69.6299 65.99 69.3299C65.38 69.0399 64.76 68.6299 64.22 68.1799C63.96 67.9699 63.55 68.0699 63.36 68.3299C63.16 68.5999 63.25 68.9499 63.51 69.1699Z" fill="black"/>
<path fill-rule="evenodd" clip-rule="evenodd" d="M120.99 52.06C120.99 52.06 116.41 42.53 119.89 31.59C120.11 30.73 120.35 29.86 120.63 28.96C127.47 7.58004 162.38 0.870042 175.73 25.34C189.08 49.78 161.52 80.35 133.13 65.56C131.71 64.82 129.91 63.61 128.08 61.93C125.34 63.15 120.83 64.08 115.81 60.8C114.75 60.1 114.82 58.52 115.95 57.94C118.72 56.51 120.99 52.06 120.99 52.06Z" fill="white"/>
<path fill-rule="evenodd" clip-rule="evenodd" d="M161.66 32.2599C161.37 24.7699 155.58 18.8199 148.65 18.9599C141.74 19.0999 136.31 25.2699 136.47 32.7599C136.47 32.7799 136.47 32.7999 136.48 32.8199C136.48 32.8399 136.47 32.8699 136.47 32.8899C136.51 33.9899 136.67 35.0499 136.93 36.0699C136.94 36.0999 136.95 36.1199 136.95 36.1499C137.06 36.5499 137.17 36.9399 137.31 37.3299C139.56 44.1299 145.8 48.8099 148.45 50.5399C148.81 50.7799 149.23 50.8999 149.63 50.8899C150.05 50.8799 150.44 50.7499 150.8 50.4899C153.33 48.6599 159.29 43.7399 161.13 36.8599C161.23 36.4699 161.32 36.0699 161.4 35.6699C161.4 35.6399 161.42 35.6199 161.42 35.5899C161.62 34.5599 161.71 33.4899 161.68 32.3899C161.68 32.3699 161.67 32.3399 161.68 32.3199C161.68 32.2999 161.68 32.2799 161.69 32.2599H161.66Z" fill="#E92A37"/>
<path fill-rule="evenodd" clip-rule="evenodd" d="M149.18 36.5699C147.15 36.6099 145.45 34.8599 145.39 32.6599C145.32 30.4499 146.91 28.6399 148.93 28.5899C150.97 28.5499 152.67 30.3099 152.73 32.5099C152.81 34.7099 151.22 36.5299 149.18 36.5699Z" fill="white"/>
<path d="M149.75 57.7399C152.23 57.7399 154.24 56.6923 154.24 55.3999C154.24 54.1076 152.23 53.0599 149.75 53.0599C147.27 53.0599 145.26 54.1076 145.26 55.3999C145.26 56.6923 147.27 57.7399 149.75 57.7399Z" fill="#E92A37"/>
<path d="M26.3501 114.94C22.3501 119.4 19.9301 125.38 20.4801 131.43C20.9901 137.04 23.9301 142.24 28.6201 145.4C29.7001 146.13 30.7201 144.38 29.6401 143.65C25.4801 140.84 22.8301 136.04 22.4701 131.05C22.0901 125.66 24.2001 120.36 27.7701 116.38C28.6501 115.41 27.2201 113.97 26.3501 114.94Z" fill="white"/>
<path d="M30.27 140.77C30.95 142.37 31.53 144.01 31.99 145.69C32.01 145.78 32.04 145.87 32.01 145.95C31.98 146.04 26.26 146.14 26.24 146.07C26.24 146.08 29.22 142.18 30.27 140.77Z" fill="white"/>
<path d="M28.8401 141.61C28.9801 141.94 28.7101 141.31 28.8401 141.61C28.8801 141.71 28.9201 141.81 28.9601 141.91C29.0401 142.11 29.1201 142.31 29.2001 142.52C29.3601 142.93 29.5101 143.33 29.6501 143.74C29.9301 144.55 30.2101 145.38 30.4101 146.21C30.3901 146.06 30.3701 145.92 30.3501 145.77C30.3501 145.8 30.3601 145.83 30.3601 145.86C30.3801 145.71 30.4001 145.57 30.4201 145.42C30.4201 145.45 30.4101 145.48 30.4101 145.51C30.5501 145.27 30.7001 145.02 30.8401 144.78C31.3501 144.14 31.8501 144.32 31.5101 144.37C31.6601 144.35 31.8001 144.33 31.9501 144.31C31.2701 144.4 30.5601 144.38 29.8701 144.4C28.9301 144.42 27.9901 144.44 27.0501 144.44C26.7901 144.44 26.5201 144.46 26.2601 144.42C26.4101 144.44 26.5501 144.46 26.7001 144.48C26.4101 144.43 26.6501 144.1 27.4101 144.9C27.5001 145.57 27.5801 146.24 27.6701 146.92C29.0201 145.15 30.3701 143.39 31.7001 141.61C31.9401 141.29 31.9701 140.7 31.8701 140.33C31.7601 139.94 31.4701 139.53 31.1101 139.34C30.7201 139.14 30.2601 139.03 29.8301 139.17C29.3901 139.31 29.1101 139.57 28.8401 139.93C27.5101 141.71 26.1501 143.47 24.8101 145.24C24.5901 145.52 24.5701 145.97 24.6101 146.3C24.6601 146.67 24.8101 146.98 25.0701 147.26C25.6201 147.84 26.4601 147.77 27.1901 147.77C27.9301 147.77 28.6801 147.76 29.4201 147.74C30.1001 147.73 30.7801 147.71 31.4601 147.68C31.7601 147.67 32.1101 147.66 32.4001 147.59C32.6901 147.52 32.9901 147.38 33.2001 147.15C33.7701 146.53 33.7601 145.77 33.5401 145C33.0501 143.27 32.4301 141.6 31.7201 139.94C31.5701 139.58 31.0801 139.27 30.7301 139.18C30.3301 139.07 29.8001 139.12 29.4501 139.35C29.0901 139.58 28.7801 139.92 28.6901 140.34C28.5601 140.8 28.6501 141.18 28.8401 141.61Z" fill="white"/>
<path d="M88.1902 114.94C91.7602 118.93 93.8802 124.22 93.4902 129.61C93.1402 134.61 90.4902 139.41 86.3202 142.21C85.2502 142.93 86.2602 144.69 87.3402 143.96C92.0302 140.8 94.9502 135.6 95.4802 129.99C96.0402 123.95 93.6102 117.96 89.6102 113.5C88.7502 112.54 87.3202 113.98 88.1902 114.94Z" fill="white"/>
<path d="M86.8501 117.15C86.5401 115.44 86.3401 113.71 86.2501 111.97C86.2501 111.88 86.2401 111.78 86.2901 111.71C86.3401 111.63 91.9401 112.79 91.9501 112.86C91.9601 112.87 88.1901 116.02 86.8501 117.15Z" fill="white"/>
<path d="M88.4601 116.71C88.3501 116.09 88.2501 115.47 88.1601 114.85C88.1801 115 88.2001 115.14 88.2201 115.29C88.1401 114.7 88.0801 114.11 88.0201 113.53C87.9701 112.98 87.8601 112.35 87.9201 111.8C87.9001 111.95 87.8801 112.09 87.8601 112.24C87.8701 112.21 87.8801 112.19 87.8901 112.16C87.7501 112.4 87.6001 112.65 87.4601 112.89C87.2201 113.03 86.9701 113.18 86.7301 113.32H86.7401C86.5901 113.34 86.4501 113.36 86.3001 113.38C86.3501 113.38 86.3901 113.39 86.4401 113.39C86.2901 113.37 86.1501 113.35 86.0001 113.33C87.6201 113.55 89.2401 113.94 90.8401 114.3C90.9901 114.33 91.1401 114.37 91.2901 114.41C91.3401 114.42 91.3801 114.44 91.4301 114.45C91.4501 114.45 91.4601 114.46 91.4801 114.47C91.1701 114.42 90.6801 113.99 90.5201 113.72C90.6101 113.05 90.6901 112.38 90.7801 111.7C89.4701 112.79 88.1701 113.89 86.8601 114.98C86.4601 115.31 86.0701 115.65 85.6701 115.98C85.0001 116.55 85.0401 117.76 85.6701 118.33C86.3801 118.98 87.3101 118.93 88.0201 118.33C89.5501 117.03 91.0901 115.74 92.6301 114.46C92.7901 114.32 92.9601 114.18 93.1201 114.05C93.6801 113.58 93.7301 112.63 93.3801 112.03C92.9601 111.32 92.2001 111.2 91.4701 111.04C90.7501 110.88 90.0401 110.73 89.3201 110.58C88.6601 110.44 87.9901 110.31 87.3301 110.19C87.0201 110.13 86.6801 110.06 86.3701 110.05C86.1901 110.04 86.0701 110.05 85.8501 110.11C84.9601 110.36 84.5501 111.23 84.5901 112.09C84.6701 113.94 84.9101 115.78 85.2401 117.6C85.3101 117.99 85.6701 118.4 86.0001 118.59C86.3601 118.8 86.8801 118.89 87.2801 118.76C88.2101 118.46 88.6201 117.63 88.4601 116.71Z" fill="white"/>
</g>
<defs>
<clipPath id="clip0_259_188">
<rect width="179.2" height="163.44" fill="white"/>
</clipPath>
</defs>
</svg>
