<svg width="134" height="154" viewBox="0 0 134 154" fill="none" xmlns="http://www.w3.org/2000/svg">
<g clip-path="url(#clip0_243_1782)">
<path fill-rule="evenodd" clip-rule="evenodd" d="M133.38 153.98H1.58008C1.99008 151.47 10.1301 105.13 18.9801 94.2201C27.8301 83.3101 40.3201 77.7401 55.3501 76.2401C57.5901 76.0201 75.6101 75.9801 82.3201 77.3201C97.2801 80.2801 107.63 87.4001 115.48 96.4001C123.33 105.4 131.89 143.17 133.38 153.98Z" fill="#11A906"/>
<path fill-rule="evenodd" clip-rule="evenodd" d="M21.96 153.98L22.76 136.23C22.76 136.23 28.07 134.39 30.11 130.72C32.15 127.06 38.36 125.65 42.3 125.84C46.24 126.03 48.15 120.04 45.06 118.27C41.23 116.09 38.64 117.03 35.9 117.81C33.16 118.59 31.13 116.64 31.64 113.75C32.15 110.86 34.86 98.13 35.88 93.31C36.89 88.49 35.71 86.0701 32.82 85.5801C29.93 85.0901 28.97 90.17 27.28 97.1C25.59 104.04 25.35 107.62 24.52 107.37C23.7 107.13 24.67 102.91 26.38 94.52C28.08 86.13 29.07 80.9401 26.5 79.6901C23.93 78.4401 21.16 79.33 19.77 86.96C18.39 94.59 17.15 103.49 15.91 104.1C14.66 104.71 15.21 96.5801 16.27 90.6801C17.33 84.7801 16.78 83.1501 14.9 82.4801C13.02 81.8001 9.85003 83.7901 8.54003 91.5701C8.54003 91.5701 8.23003 89.5301 5.95003 88.9801C3.68003 88.4301 1.69003 92.35 0.63003 101.06C-0.42997 109.76 1.41003 111.04 0.54003 115.78C-0.32997 120.52 -0.86997 126.84 4.85003 130.85L2.98569e-05 153.98H21.96Z" fill="#A95630"/>
<path fill-rule="evenodd" clip-rule="evenodd" d="M17.5 136.54C19.9 137.22 22.51 137.16 24.85 136.29C25.36 136.1 25.71 135.61 25.56 135.05C25.43 134.56 24.83 134.15 24.32 134.34C22.26 135.1 20.13 135.18 18.05 134.59C17.53 134.44 16.95 134.77 16.81 135.3C16.65 135.83 16.98 136.39 17.5 136.54Z" fill="black"/>
<path fill-rule="evenodd" clip-rule="evenodd" d="M17.8801 124.76C18.6201 122.94 20.1701 121.51 21.8301 120.53C23.6801 119.44 25.8401 118.95 27.9301 119.58C29.1801 119.95 29.7101 118 28.4701 117.63C23.4801 116.14 17.8301 119.57 15.9401 124.22C15.7301 124.72 16.1601 125.33 16.6501 125.46C17.2201 125.62 17.6701 125.26 17.8801 124.76Z" fill="black"/>
<path fill-rule="evenodd" clip-rule="evenodd" d="M11.2201 114.42C14.7001 114.03 18.1801 114.4 21.5001 115.49C22.7401 115.9 23.2701 113.95 22.0401 113.54C18.5701 112.4 14.8601 111.99 11.2201 112.4C10.6801 112.46 10.2101 112.82 10.2101 113.41C10.2201 113.91 10.6801 114.48 11.2201 114.42Z" fill="black"/>
<path fill-rule="evenodd" clip-rule="evenodd" d="M7.35004 92.1001C6.53004 95.9201 6.05004 99.8901 7.08004 103.72C7.42004 104.97 9.36004 104.44 9.03004 103.18C8.09004 99.7101 8.55004 96.1001 9.30004 92.6401C9.57004 91.3701 7.62004 90.8301 7.35004 92.1001Z" fill="black"/>
<path fill-rule="evenodd" clip-rule="evenodd" d="M80.4 153.98L82.76 140.45C82.76 140.45 78.53 136.61 77.92 132.36C77.31 128.12 72.11 124.33 68.45 122.94C64.78 121.55 65.09 115.17 68.53 114.75C72.78 114.22 74.83 116.14 77.07 117.96C79.31 119.78 81.83 118.76 82.36 115.84C82.88 112.92 84.77 99.9101 85.5 94.9901C86.23 90.0701 88.14 88.2701 90.95 88.9601C93.77 89.6501 92.9 94.7901 92.06 101.97C91.22 109.14 90.22 112.6 91.06 112.7C91.9 112.8 92.45 108.45 93.77 99.9101C95.09 91.3601 95.97 86.1001 98.75 85.9601C101.53 85.8101 103.76 87.7501 102.41 95.4601C101.06 103.17 99.13 112 100.06 113.06C100.99 114.12 103.28 106.29 104.34 100.34C105.4 94.3901 106.46 93.0801 108.4 93.1901C110.35 93.3001 112.57 96.4301 111.09 104.24C111.09 104.24 112.08 102.45 114.35 102.84C116.62 103.23 117.09 107.7 115.07 116.28C113.05 124.86 110.93 125.33 110.1 130.11C109.27 134.9 107.59 141.04 100.98 142.52L101.5 153.98H80.4Z" fill="#A95630"/>
<path fill-rule="evenodd" clip-rule="evenodd" d="M87.54 140.79C87.71 140.81 87.37 140.76 87.32 140.75C87.19 140.73 87.06 140.7 86.93 140.68C86.65 140.62 86.38 140.55 86.11 140.47C85.85 140.39 85.6 140.31 85.35 140.21C85.29 140.19 85.23 140.16 85.16 140.14C85 140.08 85.28 140.19 85.12 140.13C84.98 140.07 84.85 140.01 84.71 139.94C84.23 139.71 83.76 139.44 83.32 139.14C83.21 139.06 83.1 138.99 82.99 138.91C82.97 138.9 82.78 138.75 82.85 138.81C82.91 138.86 82.77 138.74 82.76 138.73C82.54 138.55 82.32 138.36 82.11 138.16C81.73 137.8 81.06 137.75 80.68 138.16C80.32 138.55 80.27 139.2 80.68 139.59C82.58 141.39 84.95 142.49 87.54 142.82C88.07 142.89 88.57 142.31 88.55 141.81C88.53 141.2 88.11 140.86 87.54 140.79Z" fill="black"/>
<path fill-rule="evenodd" clip-rule="evenodd" d="M93.1501 131.76C93.0801 129.09 91.9301 126.58 90.2801 124.51C88.6701 122.47 86.4301 121.04 83.8301 120.74C83.2901 120.68 82.8201 121.25 82.8201 121.75C82.8201 122.35 83.2801 122.7 83.8301 122.76C85.8701 122.99 87.6301 124.35 88.8601 125.94C90.1401 127.6 91.0801 129.64 91.1301 131.76C91.1601 133.05 93.1801 133.06 93.1501 131.76Z" fill="black"/>
<path fill-rule="evenodd" clip-rule="evenodd" d="M101.65 122.76C98.41 120.9 94.82 119.79 91.11 119.47C90.57 119.42 90.1 119.97 90.1 120.48C90.1 121.06 90.56 121.44 91.11 121.49C94.46 121.78 97.72 122.84 100.64 124.51C101.76 125.15 102.78 123.4 101.65 122.76Z" fill="black"/>
<path fill-rule="evenodd" clip-rule="evenodd" d="M110.05 104.78C109.53 108.38 108.73 112.03 106.59 115.04C106.27 115.48 106.51 116.16 106.95 116.42C107.46 116.72 108.02 116.5 108.33 116.06C110.56 112.92 111.45 109.07 111.99 105.32C112.07 104.78 111.86 104.24 111.28 104.08C110.81 103.95 110.12 104.24 110.05 104.78Z" fill="black"/>
<path d="M54.15 79.05C54.15 79.05 50.42 89.4 56.38 94.17C62.34 98.94 75.93 96.94 82.09 88.1C87.47 80.38 86.08 74.54 86.08 74.54L54.15 79.05Z" fill="#A95630"/>
<path d="M80.3401 30.11C80.3401 30.11 40.1901 30.12 39.1501 23.19C38.3801 18.07 45.2101 -5.37 82.0701 7.41C94.0001 11.55 102.5 22.99 101.23 37.36C100.35 47.35 96.1501 60.18 89.8601 67.46C82.7601 75.68 78.9001 74.25 78.9001 74.25L80.3401 30.11Z" fill="black"/>
<path d="M86.1201 78.05C86.2601 73.93 85.8701 66.69 85.8701 66.69C86.7901 66.94 88.7601 67.27 92.0101 65.29C95.3801 63.23 100.74 55.81 96.9501 50.93C94.7201 48.05 92.0301 46.47 88.3301 49.85C84.1601 53.66 80.8701 52.86 81.7201 47.52C82.5701 42.18 87.1901 30.01 82.2701 26.52C77.3501 23.03 71.7401 25.06 61.9301 22.69C57.6501 21.66 54.7301 20.22 51.2701 18.62C47.3201 16.79 42.0901 20.22 40.3701 25.34C39.4301 28.15 35.4401 50.42 35.4101 55.55C35.3801 60.21 37.6401 78.34 55.3301 80.41C64.3601 81.46 86.1201 78.05 86.1201 78.05Z" fill="#A95630"/>
<path d="M39.48 18.56C38.51 22.85 37.35 27.09 36.46 31.4C35.09 38.03 34.03 44.78 33.84 51.55C33.58 60.77 35.32 70.13 42.06 76.91C46.76 81.64 53.17 83.7 59.77 83.37C61.77 83.27 61.78 80.14 59.77 80.24C54.35 80.51 49.05 79.11 44.99 75.39C42.18 72.81 40.07 69.38 38.78 65.92C37.23 61.74 36.9 57.23 36.94 52.81C37 46.37 37.93 39.97 39.18 33.67C40.13 28.87 41.42 24.16 42.49 19.4C42.94 17.44 39.93 16.6 39.48 18.56Z" fill="black"/>
<path d="M59.8201 51.3701C59.8001 51.4301 59.7801 51.5001 59.7601 51.5601C59.7501 51.5901 59.6501 51.8201 59.7101 51.7001C59.7701 51.5801 59.6701 51.7801 59.6601 51.8001C59.6301 51.8601 59.6001 51.9101 59.5701 51.9701C59.5301 52.0301 59.4901 52.1001 59.4501 52.1601C59.4201 52.2101 59.3301 52.3801 59.4401 52.1801C59.3901 52.2801 59.2701 52.3801 59.1901 52.4601C59.1501 52.5001 59.1001 52.5401 59.0501 52.5801C58.9001 52.7201 59.2101 52.4801 59.0401 52.5901C59.0101 52.6101 58.7301 52.8001 58.7201 52.7801C58.8301 52.7401 58.8401 52.7301 58.7501 52.7701C58.7301 52.7801 58.7101 52.7801 58.6901 52.7901C58.6301 52.8101 58.5601 52.8301 58.5001 52.8401C58.4601 52.8501 58.4101 52.8601 58.3701 52.8601C58.4101 52.8501 58.4401 52.8501 58.4801 52.8401C58.4501 52.8701 58.3001 52.8501 58.2501 52.8501C58.2201 52.8501 58.0001 52.8301 58.1501 52.8501C58.3001 52.8701 58.0801 52.8301 58.0501 52.8201C57.9901 52.8001 57.9301 52.7801 57.8701 52.7601C57.8101 52.7401 57.8301 52.7501 57.9401 52.7901C57.9001 52.7701 57.8601 52.7501 57.8301 52.7301C57.8101 52.7201 57.7901 52.7101 57.7701 52.7001C57.6901 52.6401 57.7001 52.6501 57.8001 52.7301C57.7601 52.7201 57.7001 52.6401 57.6701 52.6101C57.6501 52.5901 57.5501 52.5001 57.5501 52.4801C57.6201 52.5801 57.6401 52.6001 57.6001 52.5401C57.5801 52.5201 57.5701 52.4901 57.5501 52.4701C57.5201 52.4201 57.4901 52.3701 57.4601 52.3101C57.4501 52.2801 57.4301 52.2601 57.4201 52.2301C57.3901 52.1701 57.4001 52.1901 57.4501 52.3001C57.3901 52.2501 57.3601 52.0201 57.3401 51.9401C57.3301 51.9001 57.3201 51.8601 57.3201 51.8201C57.3301 51.8601 57.3301 51.9001 57.3401 51.9301C57.3201 51.9201 57.3301 51.7701 57.3301 51.7401C57.3301 51.6701 57.3401 51.5901 57.3401 51.5201C57.3501 51.4501 57.3401 51.4801 57.3301 51.6001C57.3401 51.5601 57.3501 51.5201 57.3601 51.4801C57.4601 51.0301 57.2201 50.4901 56.7401 50.3801C56.2901 50.2801 55.7501 50.5201 55.6401 51.0001C55.4601 51.8001 55.5701 52.6701 56.0201 53.3601C56.5001 54.1101 57.2601 54.5401 58.1501 54.6201C59.8301 54.7601 61.1401 53.3101 61.5801 51.8201C61.7101 51.3701 61.4201 50.8301 60.9601 50.7201C60.4401 50.6401 59.9601 50.8901 59.8201 51.3701Z" fill="black"/>
<path d="M55.6801 51.0801C55.6701 51.1101 55.59 51.3401 55.64 51.2101C55.7 51.0801 55.5901 51.3001 55.5701 51.3201C55.5501 51.3501 55.5401 51.3701 55.5201 51.4001C55.4801 51.4501 55.5001 51.4301 55.5701 51.3401C55.5601 51.3801 55.4801 51.4401 55.4501 51.4801C55.4201 51.5101 55.3901 51.5401 55.3601 51.5601C55.2901 51.6201 55.3001 51.6101 55.4001 51.5301C55.4001 51.5501 55.2501 51.6301 55.2401 51.6301C55.2101 51.6501 55.0001 51.7701 55.2001 51.6601C55.1401 51.6901 55.0701 51.7101 55.0001 51.7301C54.9201 51.7501 54.8101 51.7901 54.7301 51.7901C54.7601 51.7901 54.8001 51.7801 54.8301 51.7801C54.7801 51.7801 54.74 51.7901 54.69 51.7901C54.56 51.8001 54.4401 51.7901 54.3101 51.7801C54.2101 51.7701 54.23 51.7701 54.37 51.7901C54.33 51.7801 54.2901 51.7801 54.2501 51.7701C54.1901 51.7601 54.1301 51.7401 54.0701 51.7301C54.0101 51.7101 53.9601 51.6901 53.9001 51.6701C53.7301 51.6101 54.0701 51.7501 53.8601 51.6501C53.7701 51.6101 53.5801 51.5301 53.5201 51.4401C53.6101 51.5101 53.6301 51.5301 53.5801 51.4801C53.5601 51.4601 53.53 51.4401 53.51 51.4201C53.46 51.3701 53.4101 51.3201 53.3601 51.2601C53.2101 51.0901 53.4101 51.3601 53.3301 51.2201C53.3001 51.1701 53.2701 51.1201 53.2401 51.0701C53.2101 51.0201 53.1901 50.9601 53.1601 50.9101C53.2801 51.1001 53.1801 50.9501 53.1601 50.8701C53.1401 50.8001 53.1201 50.7301 53.1101 50.6601C53.1101 50.6401 53.1 50.6201 53.1 50.6001C53.08 50.5001 53.0901 50.5201 53.1101 50.6601C53.0701 50.6401 53.1 50.3001 53.1 50.2601C53.11 50.0301 53.06 50.4001 53.1 50.2201C53.11 50.1601 53.1201 50.1001 53.1401 50.0401C53.1501 50.0201 53.1701 49.8801 53.2001 49.8701C53.1501 49.9901 53.1401 50.0001 53.1801 49.9201C53.2001 49.8801 53.2201 49.8501 53.2401 49.8101C53.4701 49.4001 53.35 48.8201 52.92 48.5901C52.5 48.3701 51.9401 48.4701 51.7001 48.9101C51.0401 50.0801 51.2501 51.6201 52.1801 52.5901C53.1401 53.5901 54.7101 53.8201 55.9501 53.2601C56.6501 52.9501 57.1901 52.2801 57.3801 51.5501C57.5001 51.1001 57.23 50.5601 56.76 50.4501C56.31 50.3501 55.8101 50.6001 55.6801 51.0801Z" fill="black"/>
<path d="M53.2801 49.75C54.4201 46.78 56.1501 44.08 57.4101 41.17C57.6001 40.73 57.5401 40.21 57.0901 39.95C56.7101 39.73 56.0601 39.83 55.8701 40.27C54.5401 43.32 52.7501 46.16 51.5601 49.27C51.3901 49.72 51.7501 50.25 52.1801 50.37C52.6901 50.51 53.1101 50.2 53.2801 49.75Z" fill="black"/>
<path d="M54.1201 37.6501C53.8201 35.7901 52.2701 34.7501 51.7201 34.4201C50.5401 33.7001 49.2101 32.9601 46.9101 33.0001C42.4801 33.0801 41.9501 34.5301 41.7001 35.5801C41.4901 36.4501 41.7001 38.1601 42.8901 38.7101C43.5301 39.0001 44.7701 38.7201 47.2401 39.0101C49.5801 39.2801 52.1001 40.4301 52.8401 40.2801C53.5801 40.1301 54.3901 39.3101 54.1201 37.6501Z" fill="white"/>
<path d="M49.5501 39.14C52.0601 39.14 52.0701 35.24 49.5501 35.24C47.0401 35.24 47.0301 39.14 49.5501 39.14Z" fill="black"/>
<path d="M74.5901 43.8501C74.5401 42.1501 73.1501 40.7301 72.6101 40.3701C71.4501 39.6001 69.7001 38.7301 67.2901 38.5101C63.3401 38.1601 62.1201 39.8501 61.7901 40.8201C61.5201 41.6301 61.5101 43.2201 62.7001 43.8301C63.3401 44.1601 64.6701 44.0101 67.2301 44.5001C69.6601 44.9601 72.1701 46.2601 72.9601 46.1801C73.7501 46.1101 74.6401 45.4201 74.5901 43.8501Z" fill="white"/>
<path d="M68.9501 44.53C71.3801 44.53 71.3801 40.76 68.9501 40.76C66.5201 40.75 66.5201 44.53 68.9501 44.53Z" fill="black"/>
<path d="M62.4101 7.43009C60.3601 6.23009 58.3301 5.19009 56.3401 4.31009C62.4201 1.94009 70.2101 1.52009 79.9901 5.46009C110.46 17.7501 100 46.8201 100 46.8201C100 46.8201 94.7601 39.8001 86.9001 33.5501C82.5901 26.2301 74.2901 14.3901 62.4101 7.43009Z" fill="#016A81"/>
<path d="M56.3301 4.31004C58.3301 5.20004 60.3601 6.24004 62.4001 7.43004C74.2901 14.39 82.5901 26.23 86.8901 33.55C82.7101 30.23 77.8001 27.12 72.5301 25.4C53.8801 19.32 40.7901 22.4 38.6101 23C38.5401 22.96 38.4601 22.91 38.3801 22.86C35.7101 21.26 31.2801 17.22 30.5301 9.24004C29.5501 -1.29996 40.6601 -2.65996 56.3301 4.31004Z" fill="#008BAD"/>
<path d="M94.1901 53.32C91.9201 52.23 89.5501 53.72 88.5201 55.79C87.5001 57.85 86.7701 60.97 89.0201 62.49C89.4201 62.76 90.0101 62.57 90.2401 62.17C90.5001 61.73 90.3201 61.22 89.9201 60.95C89.3501 60.57 89.2601 59.74 89.3301 59.07C89.4201 58.27 89.7001 57.41 90.0501 56.69C90.3901 56.01 90.8301 55.39 91.5001 55.02C92.0601 54.71 92.7401 54.6 93.2801 54.86C93.7101 55.07 94.2401 54.98 94.5001 54.54C94.7401 54.15 94.6201 53.53 94.1901 53.32Z" fill="black"/>
<path d="M57.89 60.69C57.96 60.68 58.23 60.63 58.29 60.68C58.29 60.68 58.16 60.65 58.25 60.67C58.28 60.68 58.31 60.68 58.34 60.69C58.42 60.71 58.49 60.73 58.56 60.75C58.6 60.76 58.66 60.81 58.55 60.75C58.57 60.76 58.6 60.78 58.63 60.79C58.69 60.82 58.74 60.86 58.8 60.9C58.79 60.9 58.71 60.83 58.77 60.88C58.79 60.9 58.81 60.92 58.84 60.94C58.9 60.99 58.95 61.05 59 61.11C59.03 61.14 59.05 61.17 59.07 61.2C59.06 61.19 59.01 61.11 59.05 61.18C59.08 61.24 59.13 61.29 59.16 61.35C59.23 61.47 59.3 61.6 59.36 61.73C59.31 61.61 59.38 61.79 59.4 61.83C59.43 61.9 59.45 61.97 59.47 62.04C59.49 62.1 59.5 62.16 59.52 62.23C59.53 62.29 59.58 62.41 59.57 62.48C59.57 62.46 59.56 62.33 59.57 62.46C59.57 62.49 59.57 62.51 59.58 62.54C59.58 62.6 59.58 62.66 59.58 62.73C59.58 62.86 59.61 62.63 59.58 62.75C59.58 62.75 59.56 62.85 59.55 62.85C59.56 62.83 59.57 62.8 59.58 62.78C59.57 62.8 59.56 62.81 59.56 62.83C59.56 62.84 59.55 62.84 59.55 62.85C59.52 62.89 59.53 62.88 59.58 62.81C59.58 62.81 59.53 62.86 59.52 62.87C59.47 62.93 59.55 62.84 59.56 62.84C59.47 62.91 59.58 62.8 59.59 62.84C59.59 62.86 59.44 62.87 59.44 62.88C59.45 62.86 59.58 62.87 59.47 62.87C59.35 62.87 59.5 62.89 59.51 62.88C59.51 62.88 59.29 62.83 59.41 62.86C59.49 62.88 59.43 62.87 59.4 62.85C59.37 62.83 59.34 62.82 59.32 62.8C59.21 62.74 59.39 62.88 59.31 62.79C59.3 62.78 59.25 62.73 59.24 62.72C59.24 62.74 59.31 62.83 59.26 62.74C59.25 62.73 59.22 62.66 59.21 62.65C59.22 62.65 59.25 62.78 59.24 62.7C59.24 62.68 59.23 62.65 59.22 62.63C59.19 62.53 59.25 62.64 59.22 62.67V62.6C59.21 62.53 59.21 62.65 59.21 62.66C59.22 62.65 59.27 62.48 59.26 62.47C59.27 62.49 59.18 62.61 59.25 62.5C59.26 62.49 59.3 62.42 59.3 62.42C59.31 62.43 59.19 62.54 59.28 62.45C59.29 62.44 59.35 62.39 59.35 62.38C59.35 62.39 59.24 62.45 59.31 62.41C59.33 62.4 59.4 62.34 59.42 62.35C59.42 62.35 59.3 62.4 59.36 62.38C59.41 62.36 59.51 62.37 59.32 62.38C59.35 62.38 59.42 62.39 59.31 62.37C59.25 62.36 59.24 62.36 59.28 62.37C59.33 62.38 59.31 62.37 59.21 62.33C59.17 62.3 59.13 62.26 59.1 62.22C59.05 62.16 59.03 62.09 59.04 62C59 61.93 58.99 61.86 59.03 61.8C59.03 61.79 59.04 61.78 59.04 61.77C59.03 61.8 59.01 61.82 59 61.84C58.97 61.91 59.07 61.78 59.01 61.83C58.99 61.85 58.97 61.87 58.95 61.89C59.04 61.79 58.96 61.88 58.91 61.91C58.59 62.09 58.46 62.56 58.66 62.87C58.87 63.2 59.27 63.31 59.62 63.12C60.16 62.82 60.61 62.12 60.3 61.51C60.05 61.03 59.44 60.88 58.95 61.04C57.98 61.36 57.5 62.61 58.08 63.48C58.36 63.9 58.78 64.18 59.28 64.24C59.84 64.31 60.39 64.08 60.71 63.62C61 63.19 61 62.67 60.93 62.18C60.86 61.72 60.71 61.28 60.49 60.86C60 59.9 59.01 59.18 57.89 59.31C57.53 59.35 57.17 59.6 57.19 60.01C57.21 60.33 57.5 60.74 57.89 60.69Z" fill="black"/>
<path d="M58.6901 68.08C60.4201 68.38 62.3601 68.33 63.8301 67.24C64.1301 67.02 64.2901 66.63 64.0801 66.28C63.9101 65.98 63.4301 65.8 63.1201 66.03C62.5201 66.48 61.8901 66.7 61.1901 66.8C61.1101 66.81 60.8501 66.83 60.7001 66.84C60.5001 66.85 60.3101 66.85 60.1101 66.84C59.9101 66.83 59.7201 66.82 59.5201 66.8C59.5001 66.8 59.2301 66.76 59.3401 66.78C59.2401 66.77 59.1501 66.75 59.0501 66.73C58.6901 66.67 58.2801 66.83 58.1901 67.22C58.1201 67.56 58.3001 68.02 58.6901 68.08Z" fill="black"/>
<path d="M65.76 32.54C68.04 35.06 71.04 36.9 74.3 37.85C75.08 38.08 76.04 37.57 76.22 36.76C76.41 35.92 75.97 35.08 75.13 34.84C74.76 34.73 74.39 34.62 74.03 34.48C73.87 34.42 73.71 34.36 73.55 34.3C73.55 34.3 73.18 34.14 73.38 34.23C73.56 34.31 73.3 34.19 73.27 34.18C72.57 33.86 71.89 33.5 71.23 33.09C70.92 32.9 70.62 32.69 70.32 32.48C70.23 32.42 70.15 32.35 70.06 32.29C70.03 32.27 69.82 32.1 69.96 32.22C70.11 32.34 69.89 32.16 69.87 32.14C69.79 32.07 69.7 32 69.62 31.94C69.03 31.44 68.48 30.91 67.96 30.33C67.41 29.72 66.3 29.73 65.75 30.33C65.17 30.98 65.17 31.89 65.76 32.54Z" fill="black"/>
<path d="M53.3 26.83C53.38 26.77 53.03 26.99 52.97 27.03C52.91 27.06 52.52 27.26 52.63 27.21C52.3 27.35 51.96 27.45 51.62 27.54C50.75 27.79 49.86 27.98 48.97 28.14C47.3 28.42 45.54 28.5 43.81 28.43C42.97 28.39 42.25 29.17 42.25 29.99C42.25 30.87 42.97 31.52 43.81 31.55C45.89 31.64 47.96 31.48 50 31.12C51.95 30.77 53.94 30.3 55.52 29.04C56.18 28.51 56.07 27.38 55.52 26.83C54.86 26.18 53.96 26.3 53.3 26.83Z" fill="black"/>
</g>
<defs>
<clipPath id="clip0_243_1782">
<rect width="133.38" height="153.98" fill="white"/>
</clipPath>
</defs>
</svg>
