<svg width="151" height="170" viewBox="0 0 151 170" fill="none" xmlns="http://www.w3.org/2000/svg">
<g clip-path="url(#clip0_259_106)">
<path d="M121.44 123.39L124.58 169.9H149.55L140.36 113.51L121.44 123.39Z" fill="#A85630"/>
<path d="M57.32 12.12L55.73 11.94C54.17 11.77 54.09 10.66 53.43 12.08C50.51 18.29 47.88 28.89 44.61 51.79C40.35 81.62 46.08 83.14 51.13 83.68C57.25 84.33 67.69 79.64 71.05 64.37C73.79 51.89 57.32 12.12 57.32 12.12Z" fill="black"/>
<path d="M5.02002 113.51C15.63 131.84 33.95 135.72 33.95 135.72L41.08 122.01C39.78 138.54 37.34 155.36 38.91 169.9H124.58L122.46 133.73C137.03 132.56 150.96 127.57 150.96 127.57C150.96 127.57 132.79 79.67 114.25 74.44C104.61 71.72 72.59 69.56 51.64 73.77C32.28 77.66 5.02002 113.51 5.02002 113.51Z" fill="#545554"/>
<path d="M53.6701 20.53C53.6701 20.53 50.6001 45.51 52.8501 56.65C55.1001 67.79 63.0701 68.81 66.5401 69.09C66.5401 69.09 66.5601 76.24 68.8701 78.06C75.3401 83.15 87.9701 79.23 91.7701 73.81C95.5801 68.39 94.4701 18.37 94.4701 18.37C94.4701 18.37 60.5201 13.66 53.6701 20.53Z" fill="#A65630"/>
<path d="M51.14 26.59L56 24.95L57.65 19.64L58.21 24.02L66.32 23.7L69 19.09L68.9 23.8L79.98 25.56L82.86 21.12L82.27 26.43L90.11 28.42C90.11 28.42 85.8 57.6 95.17 87.26C98.81 98.79 110.71 96.23 114.49 94.54C122.59 90.92 124.01 84.22 124.48 78.3C125.34 67.61 118.94 53.37 108.73 25.45C104.79 14.7 100.18 6.72 93.99 3.25C86.63 -0.889999 78.17 -0.609999 69.98 1.5C66.93 2.29 63.57 3.43 60.52 5.16C56.42 7.49 52.82 11.74 51.85 16.35C51.2 19.48 50.61 23.56 51.14 26.59Z" fill="black"/>
<path d="M74.96 70.26C75.19 69.2 74.59 68.59 73.77 68.3C73.88 67.67 73.85 67.02 73.6 66.43C73.16 65.38 72.17 64.69 71.04 64.65C70.26 64.62 69.58 64.95 69.09 65.49C68.86 65.31 68.58 65.18 68.26 65.11C67.72 64.99 67.09 65.12 66.63 65.43C66.38 65.6 66.16 65.83 66.01 66.1C65.67 66.05 65.32 66.1 65.01 66.23C64.32 66.51 63.8 67.12 63.55 67.82C63.3 68.52 63.41 69.24 63.89 69.8C63.92 69.83 63.95 69.86 63.98 69.89C63.44 70.46 63.15 71.28 63.38 72.08C63.56 72.72 64.03 73.25 64.61 73.55C64.93 73.72 65.3 73.8 65.66 73.81C65.78 73.81 65.89 73.79 66 73.77V73.78C66.13 74.09 66.29 74.35 66.51 74.6C66.87 75.01 67.37 75.29 67.91 75.36C68.54 75.44 69.16 75.28 69.64 74.85C69.85 74.66 70.03 74.43 70.15 74.18C70.17 74.14 70.17 74.1 70.19 74.06C70.38 74.21 70.58 74.35 70.81 74.44C71.38 74.66 72 74.6 72.52 74.27C73.33 73.77 73.59 72.92 73.54 72.05C74.24 71.69 74.78 71.04 74.96 70.26Z" fill="black"/>
<path d="M64.96 36.58C64.28 38.12 63.65 39.68 63.07 41.25C62.77 42.05 62.49 42.86 62.21 43.67C62.02 44.25 61.82 44.86 61.82 45.48C61.81 46.89 62.91 47.95 64.32 47.96C65.84 47.97 66.95 46.83 67.17 45.38C67.23 44.95 66.79 44.57 66.4 44.56C65.93 44.55 65.64 44.9 65.58 45.33C65.46 46.16 64.44 46.66 63.73 46.18C63.05 45.72 63.62 44.52 63.81 43.94C64.6 41.6 65.5 39.3 66.49 37.04C66.66 36.65 66.34 36.16 65.96 36.04C65.51 35.91 65.13 36.18 64.96 36.58Z" fill="black"/>
<path d="M65.9001 45.2C65.6001 45.86 65.7401 46.7 66.1301 47.3C66.5901 48 67.2901 48.45 68.1101 48.57C68.8001 48.67 69.5101 48.46 70.0501 48.03C70.6201 47.58 70.8601 46.84 71.0201 46.16C71.1201 45.76 70.9301 45.28 70.4901 45.16C70.0901 45.06 69.6001 45.25 69.4901 45.69C69.4301 45.95 69.3501 46.2 69.2701 46.46C69.2201 46.62 69.3501 46.33 69.2601 46.49C69.2301 46.54 69.2001 46.6 69.1701 46.65C69.1501 46.68 69.1401 46.7 69.1201 46.72C69.0801 46.77 69.1001 46.75 69.1601 46.68C69.1301 46.69 69.0701 46.77 69.0501 46.79C69.0401 46.8 68.9401 46.89 68.9301 46.89C69.0301 46.82 69.0401 46.81 68.9701 46.86C68.9601 46.87 68.9401 46.88 68.9301 46.89C68.8801 46.92 68.8401 46.94 68.7901 46.96C68.6501 47.03 68.9501 46.91 68.7601 46.97C68.7101 46.98 68.6601 47 68.6101 47.01C68.5801 47.02 68.5601 47.02 68.5301 47.02C68.4401 47.03 68.4601 47.03 68.5801 47.02C68.5801 47.04 68.2901 47.01 68.2701 47.01C68.0901 47 68.4501 47.06 68.2701 47.01C68.2201 47 68.1701 46.98 68.1201 46.97C68.0801 46.96 67.9801 46.94 67.9501 46.91C68.0501 46.96 68.0601 46.96 67.9801 46.92C67.9601 46.91 67.9401 46.9 67.9301 46.89C67.8701 46.85 67.8101 46.82 67.7501 46.77C67.7301 46.75 67.7001 46.73 67.6801 46.72C67.7501 46.78 67.7701 46.79 67.7201 46.75C67.6801 46.71 67.6301 46.67 67.5901 46.62C67.5601 46.59 67.4101 46.42 67.5401 46.57C67.5001 46.53 67.3701 46.33 67.3801 46.27C67.4101 46.36 67.4201 46.38 67.4001 46.33C67.3901 46.3 67.3801 46.28 67.3801 46.25C67.3601 46.2 67.3501 46.14 67.3401 46.09C67.3001 45.92 67.3301 46.23 67.3401 46.07C67.3401 46.02 67.3401 45.96 67.3501 45.9C67.3501 45.74 67.3001 46.06 67.3601 45.87C67.3801 45.81 67.4001 45.75 67.4301 45.69C67.5101 45.52 67.4601 45.24 67.3701 45.08C67.2801 44.91 67.0901 44.74 66.9001 44.69C66.7001 44.64 66.4801 44.64 66.2901 44.75C66.0901 44.85 65.9901 45 65.9001 45.2Z" fill="black"/>
<path d="M59.71 49.16C59.08 49.51 58.49 49.9 57.92 50.35C57.83 50.4 57.76 50.48 57.7 50.56C57.63 50.64 57.59 50.74 57.57 50.84C57.53 51.03 57.56 51.28 57.68 51.44C57.8 51.61 57.97 51.75 58.18 51.79C58.38 51.82 58.62 51.81 58.78 51.68C59.34 51.24 59.94 50.84 60.57 50.49C60.74 50.39 60.88 50.18 60.92 49.99C60.96 49.8 60.93 49.55 60.81 49.39C60.69 49.22 60.52 49.08 60.31 49.04C60.09 49.01 59.9 49.05 59.71 49.16Z" fill="black"/>
<path d="M63.86 49.9799C63.61 50.3499 63.37 50.7299 63.12 51.0999C63.06 51.1999 63.04 51.2999 63.04 51.4099C63.02 51.5099 63.03 51.6199 63.07 51.7199C63.13 51.8999 63.28 52.0999 63.46 52.1799C63.65 52.2699 63.87 52.3099 64.08 52.2299C64.14 52.1999 64.2 52.1699 64.26 52.1399C64.38 52.0599 64.47 51.9599 64.54 51.8399C64.79 51.4699 65.03 51.0899 65.28 50.7199C65.34 50.6199 65.36 50.5199 65.36 50.4099C65.38 50.3099 65.37 50.1999 65.33 50.0999C65.27 49.9199 65.12 49.7199 64.94 49.6399C64.75 49.5499 64.53 49.5099 64.32 49.5899C64.26 49.6199 64.2 49.6499 64.14 49.6799C64.02 49.7599 63.93 49.8599 63.86 49.9799Z" fill="black"/>
<path d="M68.9501 50.64C68.9601 50.67 68.9801 50.7 68.9901 50.73C68.9601 50.67 68.9301 50.61 68.9001 50.55C69.1001 50.99 69.2601 51.45 69.3601 51.92C69.4001 52.1 69.5901 52.3 69.7501 52.38C69.9201 52.47 70.1801 52.5 70.3701 52.43C70.5601 52.36 70.7401 52.23 70.8301 52.04C70.8501 51.97 70.8801 51.91 70.9001 51.84C70.9301 51.7 70.9201 51.56 70.8801 51.42C70.7601 50.85 70.5501 50.31 70.2901 49.78C70.2401 49.69 70.1601 49.62 70.0801 49.56C70.0001 49.49 69.9001 49.45 69.8001 49.43C69.6101 49.39 69.3601 49.42 69.2001 49.54C69.0301 49.66 68.8901 49.83 68.8501 50.04C68.8401 50.11 68.8401 50.18 68.8301 50.25C68.8301 50.39 68.8701 50.52 68.9501 50.64Z" fill="black"/>
<path d="M73.53 48.82C73.78 49.08 74.03 49.35 74.29 49.61C74.37 49.69 74.46 49.74 74.56 49.77C74.66 49.82 74.76 49.83 74.87 49.83C74.98 49.83 75.08 49.8 75.17 49.75C75.27 49.71 75.35 49.66 75.42 49.58C75.56 49.42 75.65 49.21 75.63 49C75.62 48.93 75.61 48.8599 75.59 48.7999C75.55 48.6699 75.47 48.5499 75.37 48.4599C75.12 48.1999 74.87 47.9299 74.61 47.6699C74.53 47.5899 74.44 47.5399 74.34 47.5099C74.24 47.4599 74.14 47.45 74.03 47.45C73.92 47.45 73.82 47.4799 73.73 47.5299C73.63 47.5699 73.55 47.62 73.48 47.7C73.34 47.86 73.25 48.0699 73.27 48.2799C73.28 48.3499 73.29 48.4199 73.31 48.4799C73.36 48.6099 73.43 48.72 73.53 48.82Z" fill="black"/>
<path d="M77 49.67C77.06 50.81 77.75 51.72 78.62 52.42C79.46 53.1 80.66 53.47 81.72 53.1C82.08 52.98 82.38 52.65 82.28 52.24C82.19 51.9 81.8 51.55 81.42 51.68C81.32 51.71 81.23 51.74 81.12 51.76C81.06 51.77 81.01 51.78 80.95 51.79C81.02 51.78 81 51.79 80.94 51.79C80.84 51.79 80.73 51.79 80.63 51.78C80.57 51.77 80.52 51.77 80.46 51.76C80.54 51.77 80.51 51.77 80.45 51.75C80.35 51.72 80.25 51.69 80.16 51.66C80.11 51.64 80.06 51.62 80.01 51.6C79.95 51.58 79.94 51.56 80 51.6C79.82 51.5 79.64 51.39 79.48 51.26C79.45 51.23 79.41 51.2 79.38 51.18C79.29 51.11 79.5 51.29 79.35 51.15C79.28 51.08 79.21 51.01 79.14 50.94C79.01 50.8 78.89 50.65 78.77 50.5C78.7 50.41 78.82 50.59 78.77 50.49C78.74 50.44 78.71 50.4 78.69 50.35C78.64 50.27 78.6 50.18 78.56 50.09C78.55 50.08 78.51 49.95 78.53 50.03C78.56 50.12 78.51 49.95 78.51 49.94C78.5 49.9 78.49 49.86 78.48 49.82C78.48 49.8 78.46 49.59 78.47 49.76C78.45 49.38 78.21 49 77.79 49C77.41 48.99 76.97 49.27 77 49.67Z" fill="black"/>
<path d="M62.53 57.19C65.4 57.45 68.32 57.17 71.07 56.33C73.79 55.5 76.56 54.19 78.64 52.22C79.54 51.37 78.26 49.92 77.36 50.78C75.47 52.57 72.9 53.79 70.42 54.51C67.89 55.25 65.27 55.5 62.64 55.26C61.4 55.15 61.29 57.07 62.53 57.19Z" fill="black"/>
<path d="M78.44 50.84C77.3 50.85 76.33 52.17 75.39 52.74C74.31 53.38 73.2 53.89 72.04 54.38C70.36 55.09 68.53 55.11 66.72 55.3C65.72 55.4 64.82 55.63 63.85 55.88C63.69 55.92 63.56 55.99 63.46 56.08C63.18 56.27 63 56.6 63.11 57.03C63.96 60.52 66.93 63.33 70.71 62.5C73.9 61.8 76.63 59.5 78.38 56.8C78.79 56.16 79.15 55.49 79.47 54.81C79.78 54.15 80.3 53.21 80.32 52.47C80.35 51.49 79.31 50.83 78.44 50.84Z" fill="black"/>
<path d="M73.11 56.75C71.37 58.92 71.55 61.05 71.84 62.17C74.54 61.23 76.84 59.16 78.37 56.8C78.77 56.18 79.13 55.52 79.44 54.85C77.8 54.61 74.87 54.57 73.11 56.75Z" fill="#EA525F"/>
<path d="M56.84 28.87C58.29 27.27 61.15 26.51 62.36 28.75C63.32 30.53 66.12 29.08 65.15 27.29C63.01 23.32 57.59 23.36 54.71 26.54C53.36 28.04 55.47 30.38 56.84 28.87Z" fill="black"/>
<path d="M84.8701 30.55C84.1301 28.51 82.2501 27.02 80.2001 26.43C77.6401 25.7 75.1901 26.53 73.2101 28.18C71.6501 29.48 73.7801 31.8 75.3401 30.51C77.5901 28.64 81.0101 29.08 82.0801 32.01C82.7701 33.9 85.5601 32.43 84.8701 30.55Z" fill="black"/>
<path d="M49.4601 31.69C48.8201 38.75 48.6201 45.95 49.1701 53.02C49.3501 55.3 49.7101 57.36 50.5101 59.49C52.7201 65.35 57.4101 69.83 63.7101 70.85C69.8301 71.84 76.1001 69.61 81.5201 66.99C83.3401 66.11 81.8901 63.31 80.0601 64.2C73.1501 67.54 63.4501 70.49 57.1801 64.28C54.1501 61.28 52.7201 57.57 52.3301 53.5C51.6501 46.36 51.9501 39 52.6001 31.87C52.7901 29.84 49.6401 29.67 49.4601 31.69Z" fill="black"/>
<path d="M56.2701 32.2C56.2701 32.2 53.5501 33.4 54.1301 35.73C54.5701 37.51 55.6901 37.34 57.2601 36.76C58.7901 36.2 59.6501 36.24 60.7001 36.87C61.7501 37.5 63.4101 37.54 63.7701 35.81C64.1301 34.09 61.1801 29.89 56.2701 32.2Z" fill="white"/>
<path d="M74.4101 33.6999C74.4101 33.6999 71.7901 34.4899 72.1301 36.8699C72.4701 39.2399 75.1901 37.8599 76.4801 38.0399C77.7701 38.2199 79.0401 40.1599 80.8001 39.8399C82.5501 39.5199 83.6001 38.3299 82.2301 35.8899C80.8401 33.4599 78.1901 32.4899 74.4101 33.6999Z" fill="white"/>
<path d="M60.9301 36.24C58.6001 37.21 57.0901 33.53 59.4201 32.56C61.7601 31.59 63.2701 35.27 60.9301 36.24Z" fill="black"/>
<path d="M79.1 37.86C76.77 38.83 75.26 35.15 77.59 34.18C79.92 33.21 81.44 36.89 79.1 37.86Z" fill="black"/>
<path d="M42.39 97.82C40.85 105.11 40.29 112.55 40.19 119.99C40.16 122.47 40.17 124.96 40.22 127.44C40.23 127.91 40.55 128.34 41.04 128.36C41.48 128.39 41.97 128.01 41.96 127.54C41.82 119.67 41.95 111.77 43.06 103.97C43.33 102.09 43.65 100.22 44.05 98.37C44.15 97.91 43.97 97.42 43.49 97.27C43.08 97.13 42.48 97.36 42.39 97.82Z" fill="#3A3A3A"/>
<path d="M92.44 140.53C92.32 133.76 91.73 131.95 91.7 131.84C91.83 131.87 89.3 127.7 87.13 125.4C86.51 124.74 79.78 115.72 78.48 114.21C77.98 113.63 72.64 103.09 62.04 103.74C53.24 104.28 23.72 130.67 23.72 130.67C23.72 130.67 22.32 130.19 17.39 126.31C12.46 122.43 8.75996 118.86 8.75996 118.86C8.75996 118.86 -2.87004 136.7 0.679961 148.54C2.45996 154.46 5.75996 157.54 9.81996 158.96C16.36 161.24 24.02 160.54 28.06 157.73C36.74 151.71 50.87 135.84 50.87 135.84L63.03 120.65C62.98 123.48 62.87 125.58 63.78 126.97C65.7 129.91 66.51 130.82 66.51 130.82C66.51 130.82 65.03 130.38 64.91 133.81C64.78 137.62 65.81 139.27 67.65 139.86C69.49 140.45 70.19 138.61 70.19 138.61C70.19 138.61 69.38 141.88 71.92 143.15C74.46 144.42 75.63 142.67 75.63 142.67C75.43 147.79 80.32 146.55 81.12 144.69C81.92 142.82 84.71 133.43 84.71 133.43L86.32 135.72C86.32 135.72 86.22 137.01 86.81 143.54C87.31 149.11 88.13 150.87 89.81 151.12C90.1 151.16 90.41 151.17 90.74 151.13C93.05 150.9 92.57 147.52 92.44 140.53Z" fill="#A85630"/>
<path d="M78.12 134.23C77.26 137.18 76.33 140.12 75.34 143.02C75.03 143.93 76.47 144.32 76.78 143.42C77.77 140.51 78.7 137.58 79.56 134.63C79.83 133.7 78.39 133.31 78.12 134.23Z" fill="black"/>
<path d="M71.7899 132.03C71.1199 134.46 70.3799 136.87 69.5699 139.25C69.4399 139.63 69.7199 140.07 70.0899 140.17C70.4999 140.28 70.8799 140.03 71.0099 139.65C71.8199 137.27 72.5699 134.86 73.2299 132.43C73.4799 131.5 72.0399 131.1 71.7899 132.03Z" fill="black"/>
<path d="M58.41 149.66C57.12 148.26 55.74 146.94 54.28 145.72C54.2 145.66 54.12 145.59 54.02 145.58C53.92 145.57 51.02 151.45 51.08 151.5C51.09 151.5 56.54 150.07 58.41 149.66Z" fill="white"/>
<path d="M59.5 148.57C58.36 147.33 57.16 146.16 55.89 145.07C55.48 144.72 55.06 144.27 54.53 144.13C53.79 143.92 53.11 144.2 52.69 144.82C52.6 144.95 52.53 145.08 52.46 145.22C51.7 146.62 51.01 148.07 50.32 149.51C50.17 149.81 50.03 150.12 49.89 150.43C49.68 150.9 49.43 151.38 49.61 151.91C49.89 152.7 50.64 153.2 51.49 152.98C53.93 152.34 56.36 151.68 58.82 151.14C59.6 150.97 60.13 150.02 59.89 149.26C59.62 148.44 58.85 148.01 58.01 148.19C55.55 148.74 53.12 149.4 50.68 150.03C51.31 150.39 51.93 150.74 52.56 151.1C52.53 151.01 52.51 152.17 52.58 151.84C52.63 151.61 52.38 152.28 52.49 152.04C52.56 151.89 52.63 151.74 52.7 151.59C52.91 151.13 53.13 150.68 53.36 150.22C53.86 149.19 54.37 148.17 54.9 147.15C54.99 146.97 55.09 146.79 55.19 146.61C55.22 146.55 55.26 146.5 55.29 146.44C55.3 146.42 55.32 146.4 55.32 146.38C55.23 146.59 54.69 146.97 54.44 147.04C54.17 147.04 53.9 147.04 53.63 147.04C53.21 146.75 53.08 146.68 53.26 146.83C53.31 146.87 53.36 146.92 53.42 146.96C53.51 147.03 53.59 147.11 53.68 147.18C53.87 147.34 54.06 147.51 54.24 147.67C54.6 147.99 54.95 148.31 55.29 148.64C56 149.31 56.68 150.01 57.34 150.73C57.88 151.32 58.96 151.32 59.5 150.73C60.08 150.11 60.08 149.2 59.5 148.57Z" fill="white"/>
<path d="M93.18 142.82C93.49 146.68 93.2 150.7 91.33 154.16C89.73 157.1 87.18 159.42 84.22 160.96C77.57 164.41 69.11 163.37 62.77 159.7C59.21 157.64 56.38 154.45 55.77 150.27C55.58 148.94 53.56 149.51 53.75 150.83C54.98 159.25 64 163.81 71.63 164.88C79.48 165.98 87.82 163.27 92.37 156.5C95.07 152.49 95.66 147.55 95.29 142.82C95.17 141.48 93.07 141.47 93.18 142.82Z" fill="white"/>
</g>
<defs>
<clipPath id="clip0_259_106">
<rect width="150.96" height="169.9" fill="white"/>
</clipPath>
</defs>
</svg>
