<svg width="200" height="200" viewBox="0 0 200 200" fill="none" xmlns="http://www.w3.org/2000/svg">
<g clip-path="url(#clip0_520_4515)">
<path d="M100 200C155.228 200 200 155.228 200 100C200 44.7715 155.228 0 100 0C44.7715 0 0 44.7715 0 100C0 155.228 44.7715 200 100 200Z" fill="#BCE37C"/>
<path d="M193.21 136.29C192.67 133.83 192.15 131.68 191.64 129.91C183.35 101.22 162.1 87.6901 136.07 79.3801C121.07 74.5901 104.37 75.7001 82.29 82.6601C61.67 89.1601 46.94 116.63 43.42 139.23C41.13 153.89 39.77 162.95 46.29 169.73C49.53 173.1 53.66 175.16 53.66 175.16L51.78 187.62C66.08 195.51 82.51 200 100 200C142.43 200 178.68 173.58 193.21 136.29Z" fill="#E7E6E6"/>
<path d="M140 79.62L133.48 80.13L119.55 111.68C119.55 111.68 123.72 118.86 132.69 117.53C141.66 116.21 141.45 103.87 141.73 98.27C142.14 90.22 140 79.62 140 79.62Z" fill="#A1A2A2"/>
<path d="M93.9399 101.53C93.8399 106.93 94.9599 115.49 101.99 117.22C109.02 118.95 113.71 114.26 113.71 114.26L109.12 99.48L93.9399 101.53Z" fill="#A1A2A2"/>
<path d="M143.48 71.63C143.48 71.63 145.09 61.73 139.67 53.27C133.9 44.27 124.43 40.77 110.42 42.72C96.41 44.67 90.68 54.81 88.27 63.89L126.43 70.13L123.91 86.34L132.93 86.24L143.48 71.63Z" fill="black"/>
<path d="M134.82 75.84C134.82 75.84 136.21 69.5701 140.06 68.8301C143.92 68.0801 145.33 70.6701 144.82 75.1C144.31 79.53 141.06 83.87 136.51 82.7C136.51 82.7 134.67 89.4101 132.37 94.6801C129.36 101.56 124.69 109.61 115.82 117.93L108.11 112.06C108.11 112.06 93.9799 112.02 87.1899 98.6701C80.4099 85.3201 89.0599 63.9401 89.0599 63.9401C89.0599 63.9401 91.5499 56.7401 96.8599 54.5201C102.17 52.3001 101.32 55.8801 104.78 57.3401C108.25 58.8101 116.06 55.8201 118.85 53.5801C121.64 51.3401 126.04 52.0701 127.82 54.4401C129.6 56.8101 129.17 60.1401 127.92 62.6501C126.67 65.1701 130.03 67.4901 130.15 69.0101C130.27 70.5201 128.97 76.2301 127.56 81.4001C126.15 86.5601 127.51 86.5301 130.25 85.9601C132.99 85.3901 132.92 82.14 134.82 75.84Z" fill="#F4A5AB"/>
<path d="M107.03 79.23C107.01 79.33 106.99 79.42 106.95 79.51C106.9 79.65 106.92 79.51 106.96 79.5C106.95 79.5 106.89 79.63 106.89 79.64C106.86 79.69 106.84 79.73 106.81 79.78C106.8 79.8 106.71 79.92 106.78 79.83C106.84 79.74 106.75 79.86 106.74 79.88C106.7 79.92 106.67 79.96 106.63 79.99C106.6 80.02 106.57 80.05 106.53 80.08C106.41 80.18 106.51 80.07 106.53 80.08C106.51 80.07 106.31 80.22 106.28 80.23C106.25 80.25 106.2 80.29 106.16 80.29C106.25 80.25 106.27 80.25 106.21 80.27C106.19 80.28 106.16 80.29 106.14 80.3C106.1 80.31 106.06 80.33 106.01 80.34C105.99 80.34 105.79 80.38 105.88 80.37C105.98 80.36 105.8 80.37 105.78 80.37C105.77 80.37 105.62 80.36 105.61 80.36C105.65 80.34 105.77 80.39 105.63 80.36C105.59 80.35 105.55 80.34 105.5 80.33C105.46 80.32 105.39 80.28 105.35 80.28C105.42 80.28 105.46 80.33 105.36 80.28C105.32 80.26 105.28 80.24 105.25 80.21C105.22 80.19 105.06 80.11 105.23 80.2C105.16 80.16 105.09 80.08 105.04 80.02C105.01 79.99 104.96 79.94 104.94 79.9C105.01 80.06 104.96 79.92 104.93 79.88C104.89 79.82 104.81 79.72 104.8 79.65C104.84 79.74 104.84 79.76 104.82 79.7C104.81 79.68 104.8 79.65 104.79 79.63C104.77 79.58 104.76 79.53 104.75 79.48C104.66 79.1 104.21 78.84 103.84 78.96C103.45 79.09 103.23 79.47 103.32 79.87C103.59 81.03 104.73 81.96 105.94 81.83C107.14 81.7 108.19 80.81 108.44 79.61C108.52 79.23 108.33 78.79 107.92 78.7C107.57 78.63 107.11 78.82 107.03 79.23Z" fill="black"/>
<path d="M103.41 79.2801C103.29 79.4801 103.16 79.6701 103.04 79.8601C102.99 79.9301 103.12 79.7701 103.03 79.8801C102.99 79.9301 102.95 79.9701 102.91 80.0101C102.87 80.0501 102.83 80.1001 102.78 80.1401C102.77 80.1501 102.64 80.2601 102.72 80.2001C102.8 80.1401 102.67 80.2301 102.65 80.2401C102.59 80.2801 102.53 80.3001 102.48 80.3401C102.6 80.2701 102.42 80.3601 102.4 80.3701C102.33 80.3901 102.27 80.4101 102.2 80.4301C102.09 80.4601 101.97 80.4801 101.86 80.5001C101.69 80.5401 101.94 80.5001 101.78 80.5101C101.71 80.5101 101.64 80.5101 101.57 80.5101C101.43 80.5101 101.61 80.5301 101.55 80.5101C101.5 80.4901 101.44 80.4801 101.39 80.4701C101.31 80.4501 101.51 80.5401 101.39 80.4701C101.34 80.4401 101.29 80.4201 101.25 80.3901C101.1 80.3001 101.35 80.4901 101.22 80.3701C101.19 80.3401 101.15 80.3101 101.12 80.2701C101.1 80.2501 100.99 80.1101 101.05 80.2001C101.11 80.2901 101.02 80.1601 101.01 80.1401C100.98 80.0901 100.96 80.0401 100.93 79.9901C101 80.1201 100.92 79.9501 100.91 79.9201C100.89 79.8701 100.88 79.8201 100.87 79.7601C100.86 79.6901 100.85 79.6201 100.86 79.7301C100.85 79.6001 100.85 79.4701 100.86 79.3401C100.87 79.1801 100.83 79.4501 100.87 79.2801C100.89 79.2201 100.9 79.1501 100.92 79.0901C101.02 78.7201 100.79 78.2701 100.4 78.1801C100.01 78.0901 99.6 78.3001 99.49 78.7001C99.3 79.4101 99.34 80.1901 99.7 80.8301C100.01 81.3901 100.59 81.8401 101.23 81.9501C101.94 82.0701 102.84 81.8901 103.44 81.4901C103.98 81.1201 104.35 80.5901 104.68 80.0301C104.88 79.7001 104.76 79.2001 104.41 79.0201C104.06 78.8201 103.62 78.9201 103.41 79.2801Z" fill="black"/>
<path d="M100.93 78.91C101.11 76.39 101.84 73.96 102.55 71.55C102.82 70.64 101.39 70.24 101.12 71.16C100.37 73.7 99.6399 76.26 99.4499 78.91C99.4199 79.31 99.8099 79.65 100.19 79.65C100.61 79.65 100.9 79.31 100.93 78.91Z" fill="black"/>
<path d="M119.84 63.54C118.72 62.09 117.18 61.18 115.34 61.02C113.6 60.87 111.82 61.6 110.6 62.83C110.14 63.3 110.1 64.15 110.6 64.61C111.1 65.07 111.88 65.11 112.38 64.61C112.49 64.5 112.6 64.4 112.72 64.3C112.79 64.24 112.84 64.21 112.74 64.28C112.8 64.24 112.86 64.19 112.93 64.15C113.07 64.06 113.22 63.97 113.38 63.89C113.45 63.85 113.52 63.82 113.59 63.79C113.76 63.71 113.43 63.84 113.61 63.78C113.91 63.69 114.19 63.61 114.5 63.54C114.69 63.5 114.32 63.55 114.51 63.54C114.59 63.54 114.66 63.53 114.74 63.52C114.91 63.51 115.08 63.51 115.26 63.52C115.33 63.52 115.41 63.53 115.48 63.54C115.36 63.53 115.35 63.52 115.48 63.54C115.63 63.57 115.77 63.6 115.91 63.64C116.05 63.68 116.19 63.73 116.33 63.78C116.21 63.74 116.24 63.74 116.34 63.78C116.41 63.81 116.47 63.84 116.54 63.88C116.67 63.95 116.8 64.02 116.93 64.11C117.01 64.16 117.08 64.22 117.16 64.27C117.31 64.37 117.04 64.15 117.17 64.28C117.28 64.38 117.39 64.48 117.5 64.58C117.55 64.63 117.6 64.69 117.65 64.74C117.68 64.77 117.85 64.97 117.7 64.79C118.1 65.31 118.8 65.64 119.42 65.24C119.9 64.93 120.27 64.1 119.84 63.54Z" fill="black"/>
<path d="M100.66 63.28C99.4401 62.25 97.9201 61.62 96.3001 61.63C94.6801 61.64 93.1701 62.27 91.9501 63.31C91.4501 63.74 91.4701 64.65 91.9501 65.09C92.4801 65.58 93.2001 65.55 93.7301 65.09C93.7901 65.04 93.8501 64.99 93.9101 64.94C93.8101 65.02 93.8101 65.02 93.9301 64.93C94.0601 64.85 94.1801 64.76 94.3201 64.68C94.4401 64.61 94.5501 64.55 94.6701 64.49C94.7201 64.46 94.7701 64.44 94.8301 64.42C94.7101 64.47 94.7101 64.47 94.8501 64.42C95.1401 64.32 95.4301 64.25 95.7301 64.18C96.0001 64.12 95.5501 64.18 95.8501 64.16C96.0001 64.15 96.1501 64.14 96.3101 64.14C96.4601 64.14 96.6101 64.15 96.7701 64.16C97.1301 64.18 96.5301 64.11 96.8901 64.17C97.1901 64.23 97.4901 64.3 97.7701 64.4C97.8301 64.42 98.0901 64.54 97.8901 64.45C98.0301 64.51 98.1601 64.58 98.3001 64.66C98.4301 64.73 98.5601 64.82 98.6901 64.9C98.7501 64.94 98.8101 64.99 98.8801 65.03C98.7801 64.95 98.7801 64.96 98.8901 65.05C99.3901 65.47 100.18 65.58 100.67 65.05C101.09 64.59 101.2 63.73 100.66 63.28Z" fill="black"/>
<path d="M115.62 110.01C111.07 110.96 106.1 110.55 101.66 109.24C97.26 107.94 93.2 104.99 90.15 101.6C86.36 97.4 85.24 91.12 85.28 85.64C85.3 82.54 85.74 79.46 86.33 76.42C86.75 74.22 87.15 71.99 87.81 69.85C89.16 65.43 90.92 60.92 93.4 57.01C94.27 55.64 92.09 54.38 91.23 55.74C88.76 59.63 87.02 64.12 85.6 68.49C84.89 70.71 84.45 73 84 75.28C83.36 78.53 82.84 81.84 82.77 85.16C82.65 90.88 83.74 97.44 87.3 102.09C88.95 104.25 91.03 106 93.2 107.61C95.17 109.07 97.16 110.32 99.47 111.17C104.71 113.09 110.82 113.58 116.29 112.44C117.87 112.11 117.2 109.68 115.62 110.01Z" fill="black"/>
<path d="M113.89 102.84C111.3 104.12 108.28 104.28 105.56 103.35C104.66 103.04 104.27 104.47 105.17 104.78C108.27 105.84 111.71 105.58 114.64 104.13C115.49 103.7 114.74 102.42 113.89 102.84Z" fill="black"/>
<path d="M141.23 72.99C139.84 73.08 138.49 73.88 137.87 75.15C137.23 76.45 137.34 78.09 138.22 79.26C138.46 79.58 138.86 79.74 139.23 79.53C139.54 79.35 139.74 78.84 139.5 78.52C139.42 78.41 139.34 78.31 139.28 78.19C139.24 78.12 139.2 78.05 139.17 77.98C139.16 77.96 139.12 77.87 139.15 77.94C139.09 77.81 139.05 77.67 139.02 77.53C139 77.47 138.99 77.4 138.98 77.34C138.95 77.22 138.97 77.33 138.97 77.26C138.92 76.77 138.97 76.27 139.16 75.9C139.28 75.67 139.39 75.49 139.51 75.36C139.59 75.27 139.68 75.18 139.78 75.09C139.78 75.09 139.92 74.97 139.88 75C139.83 75.04 139.97 74.93 139.99 74.92C140.09 74.85 140.2 74.78 140.32 74.73C140.39 74.7 140.46 74.66 140.52 74.63C140.43 74.67 140.56 74.62 140.59 74.61C140.71 74.57 140.83 74.53 140.95 74.51C141.01 74.5 141.07 74.48 141.14 74.48C141.01 74.5 141.23 74.48 141.24 74.48C141.64 74.46 141.98 74.16 141.98 73.74C141.97 73.35 141.63 72.96 141.23 72.99Z" fill="black"/>
<path d="M111.61 84.27C110.77 86.09 111.35 88.28 112.98 89.45C113.3 89.68 113.82 89.52 113.99 89.18C114.19 88.8 114.06 88.41 113.72 88.17C113.61 88.09 113.78 88.22 113.71 88.17C113.67 88.14 113.64 88.11 113.6 88.08C113.54 88.02 113.48 87.96 113.42 87.9C113.36 87.84 113.31 87.77 113.25 87.71C113.36 87.83 113.27 87.73 113.25 87.7C113.22 87.66 113.2 87.62 113.17 87.58C113.07 87.43 112.99 87.27 112.91 87.11C112.86 87.02 112.97 87.27 112.91 87.1C112.9 87.06 112.88 87.03 112.87 86.99C112.84 86.9 112.81 86.81 112.79 86.72C112.77 86.64 112.75 86.55 112.73 86.47C112.73 86.45 112.7 86.33 112.71 86.33C112.71 86.33 112.73 86.49 112.72 86.36C112.71 86.18 112.7 86 112.71 85.82C112.71 85.77 112.72 85.73 112.72 85.68C112.73 85.54 112.7 85.77 112.72 85.68C112.74 85.6 112.75 85.51 112.77 85.43C112.79 85.34 112.82 85.25 112.85 85.16C112.86 85.12 112.88 85.09 112.89 85.05C112.95 84.87 112.82 85.19 112.9 85.02C113.06 84.67 113.01 84.21 112.63 84.01C112.3 83.83 111.78 83.89 111.61 84.27Z" fill="black"/>
<path d="M109.52 90.16C109.26 90.26 109 90.34 108.73 90.4C108.62 90.43 108.5 90.45 108.38 90.47C108.34 90.48 108.3 90.48 108.26 90.49C108.36 90.48 108.37 90.48 108.28 90.49C108.22 90.5 108.16 90.5 108.1 90.51C107.85 90.53 107.59 90.54 107.34 90.53C107.2 90.52 107.07 90.51 106.93 90.5C106.73 90.48 107.09 90.53 106.89 90.5C106.81 90.49 106.74 90.47 106.66 90.46C106.28 90.39 105.84 90.57 105.75 90.98C105.67 91.34 105.86 91.81 106.27 91.89C107.48 92.12 108.74 92.05 109.91 91.62C110.27 91.49 110.56 91.11 110.43 90.71C110.31 90.32 109.91 90.02 109.52 90.16Z" fill="black"/>
<path d="M114.53 117.77C112.76 127.86 111.76 138.09 111.03 148.3C110.23 159.43 109.79 170.59 109.79 181.74C109.79 187.23 109.89 192.71 110.2 198.19C110.28 199.6 112.48 199.61 112.4 198.19C111.83 188.06 111.9 177.88 112.23 167.74C112.58 156.66 113.28 145.57 114.45 134.54C115.03 129.12 115.72 123.72 116.66 118.35C116.89 116.97 114.77 116.38 114.53 117.77Z" fill="#A1A2A2"/>
<path d="M106.46 136.01C109.9 136.01 109.91 130.66 106.46 130.66C103.02 130.66 103.01 136.01 106.46 136.01Z" fill="black"/>
<path d="M105.48 165.43C108.92 165.43 108.93 160.08 105.48 160.08C102.03 160.08 102.03 165.43 105.48 165.43Z" fill="black"/>
<path d="M163.56 136.12C166.31 147.52 168.33 159.19 168.36 170.95C168.36 171.93 169.89 171.94 169.89 170.95C169.86 159.06 167.82 147.24 165.03 135.71C164.8 134.76 163.32 135.16 163.56 136.12Z" fill="black"/>
<path d="M160.63 141.31C161.9 142.81 163.68 143.88 165.59 144.32C165.98 144.41 166.44 144.2 166.53 143.79C166.62 143.4 166.41 142.94 166 142.85C165.56 142.75 165.14 142.62 164.72 142.45C164.68 142.43 164.62 142.41 164.7 142.44C164.64 142.42 164.59 142.39 164.53 142.36C164.43 142.31 164.33 142.27 164.23 142.21C164.03 142.11 163.84 142 163.64 141.88C163.46 141.77 163.28 141.65 163.11 141.53C163.06 141.49 163.01 141.46 162.96 141.42C162.93 141.39 162.87 141.35 162.94 141.4C162.85 141.33 162.77 141.26 162.68 141.19C162.33 140.89 162.01 140.56 161.71 140.21C161.45 139.9 160.89 139.92 160.63 140.21C160.33 140.56 160.36 140.98 160.63 141.31Z" fill="black"/>
<path d="M101.87 88.07C103.34 89.03 105.42 89.24 107.14 89.17C108.88 89.11 110.56 88.61 111.89 87.47C112.61 86.85 111.56 85.81 110.84 86.42C109.78 87.33 108.36 87.66 106.99 87.69C105.55 87.72 103.84 87.59 102.61 86.78C101.82 86.27 101.08 87.55 101.87 88.07Z" fill="black"/>
<path d="M111.6 70.94C113.25 69.3 115.75 69.96 117.43 71.17C117.76 71.4 118.25 71.23 118.44 70.9C118.66 70.53 118.5 70.12 118.17 69.89C117.02 69.07 115.64 68.5 114.21 68.48C112.86 68.46 111.51 68.94 110.54 69.9C109.88 70.57 110.92 71.61 111.6 70.94Z" fill="black"/>
<path d="M91.9801 70.6601C93.6301 69.0201 96.1301 69.6801 97.8101 70.8901C98.1401 71.1201 98.6301 70.9501 98.8201 70.6201C99.0401 70.2501 98.8801 69.8401 98.5501 69.6101C97.4001 68.7901 96.0201 68.2201 94.5901 68.2001C93.2401 68.1801 91.8901 68.6601 90.9201 69.6201C90.2601 70.2801 91.3101 71.3301 91.9801 70.6601Z" fill="black"/>
<path d="M103.89 194.94C107.33 194.94 107.34 189.59 103.89 189.59C100.45 189.59 100.44 194.94 103.89 194.94Z" fill="black"/>
<path d="M47.96 135.99C39.87 138.38 31.65 146.19 32.79 156.55C33.93 166.91 43.79 178.64 59.89 174.18C75.99 169.72 77.29 155.27 72.98 147.14C68.68 139.02 56.05 133.6 47.96 135.99Z" fill="#A1A2A2"/>
<path d="M49.4399 164.23C23.9299 158.15 48.67 114.92 49.48 112.02C50.92 106.91 53.1799 99.1801 54.6399 95.4701C56.9299 89.6601 61.5899 75.6301 63.4399 73.8401C65.1499 72.1901 66.07 72.2801 66.07 72.2801C66.07 72.2801 66.8299 69.9701 67.7799 69.0801C69.2699 67.6801 70.58 68.2701 70.58 68.2701C70.58 68.2701 71.01 66.3301 73.07 66.0401C75.13 65.7601 75.8599 67.2201 76.2699 67.9601C76.8999 69.0701 76.7099 71.3401 76.7099 71.3401C76.7099 71.3401 78.3999 70.3201 79.8399 71.9801C83.8199 76.5501 77.5599 96.2701 77.5599 96.2701C77.5599 96.2701 82.4299 101.48 80.1299 107.38C76.9499 115.52 68.23 117 68.23 117C68.23 117 68.8999 138.97 68.1999 145.55C67.5099 152.16 65.88 168.15 49.4399 164.23Z" fill="#E08F8B"/>
<path d="M71.49 101.92C67.44 102.88 64.09 106.2 63.09 110.24C62.86 111.16 64.28 111.55 64.51 110.63C65.39 107.06 68.31 104.18 71.89 103.34C72.8 103.12 72.41 101.7 71.49 101.92Z" fill="black"/>
<path d="M65.0002 88.6001C66.3602 90.0301 65.8602 92.4801 65.2102 94.1301C64.4802 95.9701 63.1302 97.5401 61.4502 98.5701C60.6402 99.0601 61.3802 100.33 62.1902 99.8401C64.2702 98.5701 65.8402 96.6401 66.6902 94.3601C67.5002 92.2001 67.7502 89.3601 66.0402 87.5601C65.3802 86.8701 64.3502 87.9101 65.0002 88.6001Z" fill="black"/>
<path d="M78.2698 96.4101C77.5998 95.3001 76.6798 94.1101 75.4898 93.5201C74.5398 93.0501 73.4198 92.9001 72.3898 93.2001C70.1398 93.8501 69.2598 96.6201 69.8298 98.7101C70.2598 100.26 71.2398 101.74 72.1498 103.04C72.3798 103.36 72.7898 103.52 73.1498 103.3C73.4698 103.11 73.6398 102.62 73.4098 102.3C72.9598 101.65 72.5298 100.99 72.1498 100.3C71.7798 99.6501 71.3998 98.9701 71.2198 98.2401C70.9698 97.2601 71.1498 95.9801 71.8698 95.2201C72.4798 94.5801 73.1498 94.3801 74.0698 94.5701C75.3998 94.8501 76.3298 96.0401 76.9898 97.1501C77.4898 97.9601 78.7598 97.2201 78.2698 96.4101Z" fill="black"/>
<path d="M65.7101 73.68C68.5401 74.09 66.9801 78.27 66.5501 79.92C65.8601 82.57 65.1801 85.22 64.4901 87.87C64.2501 88.79 65.6701 89.18 65.9101 88.26C66.7501 85.04 67.5901 81.81 68.4201 78.59C68.7601 77.25 69.0801 75.78 68.5701 74.43C68.1601 73.35 67.2701 72.43 66.1001 72.26C65.1801 72.13 64.7801 73.54 65.7101 73.68Z" fill="black"/>
<path d="M70.6098 69.8201C72.7698 71.3701 71.9298 75.2601 71.4998 77.4001C70.8798 80.4601 69.9898 83.4801 69.2098 86.5001C68.9698 87.4201 70.3898 87.8101 70.6298 86.8901C71.5498 83.3501 72.6798 79.8001 73.2098 76.1801C73.5898 73.5601 73.7898 70.2901 71.3598 68.5601C70.5798 68.0001 69.8498 69.2801 70.6098 69.8201Z" fill="black"/>
<path d="M76.8602 71.5C76.4502 77.23 75.1502 82.86 73.0502 88.2C72.7002 89.08 74.1202 89.46 74.4702 88.59C76.6202 83.12 77.9102 77.36 78.3402 71.5C78.4002 70.55 76.9302 70.56 76.8602 71.5Z" fill="black"/>
<path d="M66.3 88.5201C69.31 88.1701 72.34 88.8201 74.93 90.4001C75.74 90.9001 76.48 89.6301 75.67 89.1301C72.89 87.4201 69.55 86.6601 66.3 87.0401C65.91 87.0901 65.57 87.3401 65.57 87.7701C65.56 88.1501 65.9 88.5701 66.3 88.5201Z" fill="black"/>
<path d="M64.6697 117.57C65.7397 117.96 66.9097 118.11 68.0497 117.99C68.2497 117.97 68.4197 117.92 68.5697 117.78C68.6997 117.65 68.7897 117.44 68.7797 117.26C68.7597 116.9 68.4497 116.48 68.0497 116.53C67.5197 116.59 66.9897 116.58 66.4597 116.52C66.2597 116.5 66.6197 116.55 66.4197 116.51C66.3497 116.5 66.2797 116.49 66.2197 116.48C66.0897 116.46 65.9697 116.43 65.8497 116.4C65.5797 116.34 65.3197 116.25 65.0597 116.16C64.6997 116.03 64.2397 116.31 64.1597 116.67C64.0697 117.08 64.2897 117.43 64.6697 117.57Z" fill="black"/>
<path d="M57.0799 168.36C33.0999 178.98 26.5799 129.6 25.4699 126.81C23.5199 121.87 20.6299 114.35 19.5499 110.52C17.8499 104.51 13.0499 90.5301 13.4399 87.9801C13.7999 85.6301 14.5799 85.1501 14.5799 85.1501C14.5799 85.1501 13.7799 82.8501 13.9999 81.5701C14.3399 79.5501 15.7399 79.2301 15.7399 79.2301C15.7399 79.2301 14.8999 77.4201 16.3699 75.9501C17.8399 74.4801 19.2999 75.2001 20.0799 75.5301C21.2499 76.0301 22.4799 77.9501 22.4799 77.9501C22.4799 77.9501 23.1999 76.1201 25.3599 76.5601C31.2899 77.7901 38.2699 97.2601 38.2699 97.2601C38.2699 97.2601 45.2999 98.4501 47.0499 104.54C49.4599 112.94 43.4099 119.4 43.4099 119.4C43.4099 119.4 57.2599 136.47 60.6899 142.13C64.1299 147.81 72.5299 161.52 57.0799 168.36Z" fill="#F6A6AC"/>
<path d="M36.9199 105.36C34.1999 108.69 33.5699 113.3 35.2599 117.24C35.4199 117.61 35.9499 117.68 36.2599 117.5C36.6399 117.28 36.6799 116.86 36.5199 116.5C35.1099 113.22 35.6899 109.16 37.9499 106.4C38.5499 105.67 37.5199 104.63 36.9199 105.36Z" fill="black"/>
<path d="M23.5198 98.7601C25.4798 99.0801 26.5798 101.17 27.0898 102.9C27.6698 104.9 27.5598 107.01 26.8098 108.95C26.4698 109.83 27.8898 110.21 28.2298 109.34C29.1098 107.07 29.1798 104.48 28.4098 102.16C27.7198 100.09 26.2698 97.7201 23.9298 97.3401C22.9798 97.1901 22.5898 98.6101 23.5198 98.7601Z" fill="black"/>
<path d="M38.8298 96.9101C36.6998 96.0601 34.0098 95.8401 32.4198 97.8001C30.7898 99.8001 31.9298 102.73 33.8698 104.06C35.1398 104.93 36.7098 105.48 38.1698 105.94C39.0698 106.23 39.4598 104.81 38.5598 104.52C37.2198 104.09 35.7798 103.6 34.6098 102.79C33.6598 102.13 32.8998 100.8 33.1598 99.6201C33.1898 99.4601 33.2398 99.3001 33.2898 99.1501C33.3898 98.8401 33.2198 99.2001 33.3598 98.9901C33.4898 98.8001 33.4598 98.8101 33.5998 98.6601C33.8898 98.3501 34.2198 98.1001 34.6198 97.9401C35.8298 97.4301 37.2798 97.8601 38.4298 98.3201C38.7998 98.4701 39.2398 98.1601 39.3298 97.8101C39.4498 97.4001 39.1998 97.0601 38.8298 96.9101Z" fill="black"/>
<path d="M15.24 86.4301C16.16 85.9101 17.22 86.5101 17.82 87.2501C18.59 88.2001 18.99 89.4701 19.46 90.5901C20.56 93.2001 21.65 95.8101 22.75 98.4301C22.9 98.8001 23.23 99.0501 23.65 98.9401C24 98.8501 24.32 98.4001 24.16 98.0401C22.85 94.9201 21.55 91.8001 20.24 88.6901C19.73 87.4801 19.14 86.2401 18.03 85.4601C17 84.7201 15.62 84.5401 14.5 85.1801C13.68 85.6201 14.42 86.8901 15.24 86.4301Z" fill="black"/>
<path d="M16.6098 80.44C19.3398 80.35 20.9898 83.85 21.9898 85.9C23.3498 88.69 24.4598 91.61 25.6598 94.47C26.0198 95.33 27.4398 94.95 27.0798 94.08C25.7298 90.87 24.5198 87.55 22.9098 84.46C21.6598 82.06 19.7198 78.86 16.6098 78.97C15.6698 79 15.6698 80.47 16.6098 80.44Z" fill="black"/>
<path d="M22.6397 77.9001C25.7897 82.7101 28.1797 87.9601 29.7497 93.4901C30.0097 94.4001 31.4197 94.0101 31.1697 93.1001C29.5697 87.4501 27.1197 82.0701 23.9097 77.1601C23.3897 76.3801 22.1197 77.1101 22.6397 77.9001Z" fill="black"/>
<path d="M24.68 97.8601C26.8 95.8201 29.59 94.4901 32.52 94.2001C32.91 94.1601 33.25 93.8901 33.25 93.4701C33.25 93.1001 32.91 92.7001 32.52 92.7401C29.19 93.0701 26.05 94.5001 23.64 96.8301C22.96 97.4801 24 98.5201 24.68 97.8601Z" fill="black"/>
<path d="M40.8398 122.04C41.9998 121.69 43.0598 121.07 43.9298 120.23C44.2098 119.97 44.2198 119.46 43.9298 119.19C43.6298 118.92 43.1898 118.91 42.8898 119.19C42.7898 119.28 42.6998 119.37 42.5898 119.46C42.5398 119.5 42.4898 119.54 42.4498 119.58C42.4298 119.59 42.3398 119.66 42.4298 119.6C42.5198 119.53 42.4298 119.6 42.4098 119.61C42.1998 119.77 41.9798 119.92 41.7498 120.05C41.5298 120.18 41.2999 120.3 41.0599 120.4C41.0299 120.41 40.9998 120.42 40.9698 120.44C40.9998 120.42 41.1098 120.38 41.0198 120.42C40.9598 120.44 40.8998 120.47 40.8498 120.49C40.7198 120.54 40.5798 120.58 40.4498 120.62C40.0798 120.73 39.8098 121.14 39.9398 121.52C40.0598 121.9 40.4498 122.16 40.8398 122.04Z" fill="black"/>
<path d="M39.8499 78.5001L41.9099 81.6501C42.3099 82.2601 41.8099 83.0801 41.0199 83.1101L37.3299 83.2501C35.9899 83.3401 36.1299 82.5901 36.4399 81.9601L38.0699 78.6701C38.4199 77.9801 39.4399 77.8801 39.8499 78.5001Z" fill="white"/>
<path d="M40.8299 81.07C44.8599 78.5 49.7898 77.6 54.4598 78.64C55.6298 78.9 56.1298 77.11 54.9598 76.84C49.8198 75.69 44.3398 76.62 39.8898 79.46C38.8798 80.1 39.8199 81.72 40.8299 81.07Z" fill="white"/>
</g>
<defs>
<clipPath id="clip0_520_4515">
<rect width="200" height="200" fill="white"/>
</clipPath>
</defs>
</svg>
