<svg width="200" height="200" viewBox="0 0 200 200" fill="none" xmlns="http://www.w3.org/2000/svg">
<g clip-path="url(#clip0_520_4519)">
<path d="M100 200C155.228 200 200 155.228 200 100C200 44.7715 155.228 0 100 0C44.7715 0 0 44.7715 0 100C0 155.228 44.7715 200 100 200Z" fill="#BCE37C"/>
<path d="M99.9999 200C127.51 200 152.42 188.89 170.5 170.92C169.82 164.69 168.98 157.84 168.35 155.15C157.46 108.67 116.3 89.73 71.9599 101.27C43.5299 108.68 36.9299 128.63 32.1599 146.39C30.8199 152.83 29.8099 162.7 29.1499 170.57C47.2599 188.75 72.3199 200 99.9999 200Z" fill="#EC6723"/>
<path d="M111.07 99.17C101.88 97.58 92.0697 97.57 81.9897 99.17C92.4097 107.46 104.57 121.91 109.19 145.92C110.75 154.03 115.34 186.23 116.93 198.56C125.94 197.02 134.54 194.28 142.56 190.5C138.95 144.67 129.02 124.92 118.4 109.04C115.87 105.26 113.41 101.98 111.07 99.17Z" fill="#B2E1EE"/>
<path d="M133.25 110.97C136.13 113.85 138.83 116.92 141.28 120.17C142.46 121.74 143.6 123.34 144.67 124.98C144.89 125.32 145.47 125.91 145.44 126.34C145.42 126.7 144.97 127.07 144.72 127.3C143.92 128.04 143 128.62 142.04 129.13C140.82 129.77 141.9 131.62 143.12 130.98C144.76 130.12 147.42 128.6 147.56 126.49C147.64 125.38 146.9 124.48 146.32 123.6C145.63 122.56 144.92 121.53 144.18 120.52C141.33 116.59 138.18 112.89 134.75 109.45C133.79 108.48 132.27 109.99 133.25 110.97Z" fill="#FFC11E"/>
<path d="M139.31 72.21C139.31 72.21 144.72 77.53 146.57 89.05C148.42 100.57 147 112.68 132.74 110.29C132.74 110.29 146.01 100.86 139.31 72.21Z" fill="black"/>
<path d="M122.18 112.83C122.18 112.83 118.77 116.72 107.33 113.76C95.8899 110.8 91.4299 102.89 91.4299 102.89C91.4299 102.89 97.6499 95.19 93.5199 86.86C93.5199 86.86 88.4499 90.01 84.9199 81.94C81.3899 73.87 85.1099 66.06 89.8499 65.13C94.5899 64.2 99.43 69.79 97.66 74.57C97.66 74.57 101.47 71.54 101.01 64.2C100.55 56.86 100.54 56.85 100.54 56.85L108.63 53.32L124.29 50.53L138.06 60.95L138.24 68.72C138.24 68.72 143.68 83.93 140.71 96.16C137.74 108.39 128.56 113.93 122.18 112.83Z" fill="#F6A6AC"/>
<path d="M144.16 61.87C144.31 69.1 139.31 72.21 139.31 72.21L138.06 69.36C137.69 71.15 137.05 70.31 133.56 69.92C130.07 69.53 126.98 69.09 126.98 69.09C126.98 69.09 127.38 67.57 127.35 61.74C127.33 56.85 125.33 53.16 124.69 52.11C126.68 55.59 125.96 63.09 124.96 66.11C123.92 69.22 121.63 67.83 116.95 67.57C114 67.4 110.42 67.3 108.18 67.25C107.19 67.23 106.55 66.24 106.9 65.32C108.03 62.27 108.38 58.53 108.48 56.58C107.95 63.28 102.55 65.91 102.55 65.91C102.27 69.88 98.9898 73.32 97.9798 74.29C97.9198 74.35 97.8598 74.4 97.8198 74.44C97.7998 74.46 97.7698 74.49 97.7598 74.5C97.7398 74.52 97.7298 74.52 97.7198 74.53C97.6898 74.55 97.6798 74.56 97.6798 74.56C99.4398 69.77 94.6098 64.19 89.8698 65.12C85.1198 66.05 81.4098 73.86 84.9398 81.93C88.1898 89.34 92.7398 87.28 93.4398 86.89C93.5298 86.99 93.6298 87.13 93.7398 87.29C93.7398 87.29 93.7398 87.29 93.7498 87.3C97.4398 95.45 91.4498 102.87 91.4498 102.87C82.1898 110.64 65.9898 103.25 64.8698 89.29C63.7198 75.35 67.0998 64.99 76.5098 52C85.9098 39.02 98.9698 32.73 118.4 36.24C137.85 39.75 144 54.65 144.16 61.87Z" fill="black"/>
<path d="M84.6097 70.01C84.2997 70.72 84.0497 71.49 83.8597 72.3C81.6697 73.41 83.5697 75.06 81.1397 75.85C78.4597 76.72 78.8097 71.81 84.6097 70.01Z" fill="#B3202D"/>
<path d="M107.5 72.65C107.5 72.65 104.25 72 99.7897 71.57C99.1897 71.51 98.5797 71.46 97.9497 71.41C97.8497 70.84 97.6897 70.27 97.4497 69.73C98.5197 69.8 99.5097 69.88 100.4 69.97C104.55 70.34 106.82 70.72 106.82 70.72L107.5 72.65Z" fill="#B3202D"/>
<path d="M113.87 72.31C110.71 72.82 112 75.55 113.98 75.66C115.96 75.77 117.44 76.25 118.19 76.62C118.94 76.99 120.43 77.31 121.07 75.94C121.83 74.32 117.88 71.66 113.87 72.31Z" fill="white"/>
<path d="M132.01 75.7399C129.95 76.4299 130.01 78.8899 132.33 78.9099C134.65 78.9399 135.86 79.4299 136.74 79.7999C137.62 80.1699 138.45 79.6499 138.57 78.3599C138.73 76.7199 135.02 74.7199 132.01 75.7399Z" fill="white"/>
<path d="M118.12 113.02C123.32 115.17 129.68 113.71 133.91 110.25C142.06 103.58 143.36 91.83 142.24 82.04C141.66 77 140.5 72.04 138.89 67.23C138.45 65.93 136.38 66.49 136.82 67.8C139.61 76.14 141.42 85.39 140 94.17C138.67 102.35 133.46 111.47 124.24 111.81C122.39 111.88 120.41 111.66 118.68 110.95C117.42 110.43 116.86 112.5 118.12 113.02Z" fill="black"/>
<path d="M141.53 70.8599C135.65 71.3799 130.62 75.9499 130.62 75.9499C128.84 74.1199 126.04 75.3399 126.04 75.3399C120.9 70.3099 111.33 67.4599 107.67 67.4099C104.01 67.3499 105.68 74.0199 111.74 79.1099C117.8 84.1999 122.78 80.4299 122.78 80.4299C124.51 81.7099 125.48 78.0399 125.48 78.0399C128.32 76.3599 130.47 78.5499 130.47 78.5499C130.47 78.5499 130.47 79.1599 131.18 80.6899C131.89 82.2199 134.95 85.0699 138.51 82.1699C142.07 79.2599 147.41 70.3499 141.53 70.8599ZM122.74 78.8799C120.63 80.2699 116.28 80.1699 113.37 78.0299C110.47 75.8999 105.82 68.7999 113.01 70.3399C120.2 71.8799 124.21 76.2999 124.21 76.2999C124.21 76.2999 124.84 77.4899 122.74 78.8799ZM141.57 75.2499C141.09 78.6999 136.15 83.8599 133.3 81.1999C133.3 81.1999 131.72 80.2099 131.47 78.5999C131.22 76.9799 132.57 75.9899 135.62 74.4099C138.67 72.8299 142.06 71.8099 141.57 75.2499Z" fill="#B3202D"/>
<path d="M125.25 87.3599C125.48 88.3299 126.31 89.0599 127.29 89.1999C127.8 89.2699 128.36 89.1899 128.8 88.9199C129.27 88.6299 129.47 88.1499 129.57 87.6399C129.64 87.2699 129.47 86.8499 129.07 86.7599C128.72 86.6799 128.26 86.8699 128.19 87.2599C128.18 87.3299 128.16 87.3999 128.15 87.4799C128.14 87.5199 128.08 87.6699 128.09 87.6899C128.13 87.5899 128.14 87.5699 128.12 87.6199C128.11 87.6399 128.1 87.6599 128.09 87.6799C128.08 87.6999 128.05 87.7299 128.04 87.7499C128.11 87.6699 128.12 87.6499 128.08 87.6899C128.07 87.7099 128.05 87.7199 128.03 87.7299C128.04 87.6899 128.14 87.6599 128.05 87.6999C128.03 87.7099 128.01 87.7199 127.98 87.7299C127.93 87.7499 127.95 87.7499 128.04 87.7099C128.02 87.7099 127.97 87.7299 127.95 87.7399C127.88 87.7599 127.78 87.7599 127.71 87.7999C127.81 87.7899 127.84 87.7799 127.78 87.7899C127.76 87.7899 127.73 87.7899 127.71 87.7999C127.68 87.7999 127.65 87.7999 127.61 87.7999C127.56 87.7999 127.51 87.7999 127.46 87.7899C127.33 87.7799 127.57 87.8099 127.48 87.7899C127.4 87.7699 127.32 87.7599 127.25 87.7299C127.23 87.7299 127.22 87.7199 127.2 87.7099C127.15 87.6899 127.17 87.6999 127.26 87.7399C127.23 87.7399 127.18 87.6999 127.15 87.6899C127.08 87.6599 127.03 87.6099 126.96 87.5699C126.89 87.5299 127.09 87.6899 126.98 87.5899C126.95 87.5599 126.93 87.5399 126.9 87.5199C126.87 87.4899 126.85 87.4699 126.82 87.4399C126.8 87.4199 126.72 87.32 126.79 87.41C126.86 87.51 126.78 87.3999 126.77 87.3699C126.75 87.3399 126.73 87.3099 126.71 87.2799C126.69 87.2499 126.68 87.2099 126.66 87.1799C126.6 87.0699 126.7 87.2899 126.67 87.2099C126.64 87.1299 126.62 87.0599 126.6 86.9799C126.51 86.6199 126.08 86.3599 125.72 86.4799C125.37 86.5999 125.16 86.9699 125.25 87.3599Z" fill="black"/>
<path d="M128.19 87.6C128.27 88.16 128.64 88.65 129.09 88.96C129.6 89.32 130.24 89.39 130.84 89.29C131.96 89.1 132.78 88.02 132.75 86.9C132.74 86.53 132.43 86.17 132.04 86.19C131.66 86.21 131.31 86.5 131.33 86.9C131.33 86.95 131.33 87 131.33 87.04C131.33 87.06 131.33 87.07 131.33 87.09C131.32 87.15 131.32 87.15 131.33 87.09C131.34 87.03 131.34 87.03 131.33 87.09C131.33 87.11 131.32 87.12 131.32 87.14C131.31 87.19 131.3 87.23 131.28 87.28C131.27 87.3 131.27 87.31 131.26 87.33C131.23 87.4 131.24 87.39 131.28 87.29C131.29 87.31 131.24 87.38 131.23 87.4C131.21 87.44 131.19 87.47 131.17 87.5C131.16 87.52 131.14 87.54 131.13 87.56C131.1 87.6 131.11 87.59 131.17 87.51C131.15 87.57 131.05 87.65 131.01 87.69C130.99 87.71 130.97 87.72 130.96 87.74C130.92 87.77 130.94 87.76 131.01 87.7C131 87.73 130.93 87.75 130.91 87.77C130.87 87.79 130.84 87.81 130.8 87.83C130.66 87.91 130.94 87.79 130.79 87.84C130.7 87.87 130.62 87.9 130.53 87.91C130.4 87.94 130.5 87.89 130.55 87.91C130.53 87.9 130.43 87.92 130.4 87.92C130.36 87.92 130.32 87.92 130.28 87.92C130.15 87.91 130.26 87.89 130.3 87.93C130.28 87.91 130.18 87.91 130.16 87.9C130.12 87.89 130.07 87.87 130.03 87.86C129.95 87.84 130.13 87.92 130.02 87.85C129.97 87.82 129.93 87.8 129.88 87.77C129.77 87.7 129.95 87.84 129.89 87.78C129.86 87.75 129.83 87.73 129.8 87.7C129.79 87.69 129.7 87.61 129.7 87.6C129.76 87.68 129.77 87.69 129.74 87.65C129.73 87.63 129.71 87.61 129.7 87.59C129.68 87.56 129.66 87.52 129.64 87.49C129.58 87.38 129.65 87.46 129.65 87.51C129.65 87.49 129.62 87.4 129.61 87.38C129.6 87.33 129.59 87.29 129.59 87.24C129.57 87.08 129.4 86.89 129.26 86.81C129.11 86.72 128.88 86.68 128.71 86.74C128.54 86.8 128.37 86.9 128.28 87.07C128.16 87.23 128.16 87.4 128.19 87.6Z" fill="black"/>
<path d="M132.75 86.67C132.3 83.74 131.75 80.82 131.11 77.92C130.91 77.02 129.53 77.4 129.73 78.3C130.37 81.2 130.91 84.12 131.37 87.05C131.43 87.43 131.91 87.64 132.25 87.55C132.66 87.43 132.81 87.05 132.75 86.67Z" fill="black"/>
<path d="M116.28 76.04C117.66 76.04 117.66 73.9 116.28 73.9C114.9 73.9 114.9 76.04 116.28 76.04Z" fill="black"/>
<path d="M134.8 79.18C136.18 79.18 136.18 77.04 134.8 77.04C133.42 77.03 133.42 79.18 134.8 79.18Z" fill="black"/>
<path d="M122.08 103.59C120.46 104.35 118.58 104.63 116.8 104.35C116.42 104.29 116.03 104.45 115.92 104.85C115.83 105.19 116.04 105.67 116.42 105.73C118.61 106.07 120.79 105.76 122.8 104.82C123.15 104.66 123.24 104.15 123.06 103.84C122.84 103.49 122.43 103.42 122.08 103.59Z" fill="black"/>
<path d="M90.4001 79.3C90.5201 79.28 90.3201 79.27 90.3101 79.26C90.2401 79.23 90.1801 79.18 90.1301 79.12C90.0101 78.99 89.9401 78.79 89.9101 78.59C89.8401 78.03 90.0001 77.42 90.1601 76.89C90.4701 75.91 91.1201 75.11 92.1401 74.96C92.5201 74.9 92.7301 74.42 92.6401 74.08C92.5301 73.67 92.1401 73.52 91.7601 73.58C90.1101 73.83 89.0501 75.37 88.6801 76.88C88.4801 77.69 88.3401 78.6 88.6501 79.39C89.0001 80.28 89.8301 80.8 90.7801 80.67C91.1601 80.62 91.3701 80.13 91.2801 79.79C91.1701 79.39 90.7901 79.25 90.4001 79.3Z" fill="black"/>
<path d="M90.2198 70.35C90.3298 70.4 90.4998 70.74 90.5598 70.85C90.6898 71.04 90.8198 71.24 90.9298 71.45C91.1398 71.8 91.3298 72.17 91.4898 72.54C91.8398 73.35 92.0798 74.23 92.1198 75.11C92.1598 75.93 92.0498 76.74 91.7598 77.5C91.5398 78.09 91.0598 79.13 90.3898 79.31C89.4998 79.54 89.8798 80.92 90.7698 80.69C91.7998 80.42 92.4998 79.35 92.9098 78.43C93.3798 77.39 93.5998 76.25 93.5398 75.11C93.4798 73.94 93.1598 72.81 92.6798 71.74C92.2398 70.78 91.6098 69.4 90.5798 68.98C90.2198 68.83 89.7998 69.14 89.6998 69.48C89.5998 69.88 89.8598 70.2 90.2198 70.35Z" fill="black"/>
<path d="M93.9597 85.1C93.9397 85.13 93.8197 85.33 93.9297 85.16C93.8997 85.22 93.8397 85.27 93.7997 85.31C93.7197 85.4 93.6097 85.53 93.4997 85.58C93.6697 85.49 93.4797 85.59 93.4397 85.62C93.3797 85.66 93.3297 85.69 93.2697 85.73C93.1597 85.79 93.0397 85.85 92.9297 85.9C92.8797 85.92 92.8997 85.91 92.9797 85.88C92.9397 85.89 92.9097 85.91 92.8697 85.92C92.7997 85.95 92.7197 85.97 92.6497 85.99C92.4997 86.04 92.3497 86.07 92.1897 86.1C92.1097 86.12 92.0397 86.13 91.9597 86.14C91.9197 86.15 91.8797 86.15 91.8397 86.16C91.9297 86.15 91.9397 86.15 91.8497 86.16C91.6897 86.18 91.5397 86.19 91.3797 86.2C91.0097 86.22 90.6497 86.51 90.6697 86.91C90.6897 87.28 90.9897 87.65 91.3797 87.62C92.1697 87.57 92.9197 87.44 93.6497 87.12C94.2797 86.84 94.8297 86.38 95.1997 85.8C95.3997 85.49 95.2697 85 94.9397 84.82C94.5797 84.66 94.1797 84.77 93.9597 85.1Z" fill="black"/>
<path d="M141.59 130.65C145.37 135.94 148.96 142 148.88 148.69C148.81 154.86 147.17 161.01 143.5 166.03C142.69 167.15 144.54 168.22 145.35 167.11C149.23 161.8 150.94 155.21 151.02 148.69C151.1 141.61 147.45 135.18 143.44 129.57C142.64 128.45 140.78 129.52 141.59 130.65Z" fill="#FFC11E"/>
<path d="M156.63 155.26C158.16 162.9 159.23 170.48 159.86 178.25C159.93 179.16 161.36 179.17 161.29 178.25C160.65 170.36 159.57 162.64 158.01 154.88C157.83 153.97 156.45 154.36 156.63 155.26Z" fill="black"/>
<path d="M86.99 111.55C85.78 116.42 84.97 121.39 84.56 126.39C84.46 127.62 84.39 128.85 84.34 130.08C84.3 131.06 84.21 132.06 84.85 132.87C86.12 134.49 89.04 134.44 90.88 134.33C92.25 134.25 92.26 132.11 90.88 132.19C89.81 132.25 88.71 132.24 87.66 132.01C87.35 131.94 86.91 131.89 86.66 131.66C86.35 131.36 86.45 130.89 86.46 130.49C86.52 128.44 86.67 126.39 86.88 124.35C87.31 120.23 88.05 116.14 89.04 112.12C89.39 110.79 87.32 110.21 86.99 111.55Z" fill="#FFC11E"/>
<path d="M89.9198 133.28C89.6198 137.06 89.6498 140.88 90.1398 144.65C90.6198 148.32 91.8798 151.52 93.9198 154.59C97.3798 159.8 102.06 164.1 107.86 166.54C109.13 167.07 109.68 165 108.43 164.47C103.06 162.21 98.6998 158.01 95.5598 153.18C93.6498 150.24 92.5598 147.2 92.1798 143.72C91.7998 140.25 91.7998 136.75 92.0698 133.28C92.1698 131.9 90.0198 131.91 89.9198 133.28Z" fill="#FFC11E"/>
<path d="M91.1001 157.7L98.0801 151.77C98.0801 151.77 97.6101 151.34 98.1101 146.06C98.3501 143.55 99.6501 141.87 103.27 136.68C105.76 133.11 107.27 131.61 109.55 133.68C109.55 133.68 113.94 129.97 116.14 127.89C118.34 125.8 125.07 127.21 122.06 132.62C122.06 132.62 124.52 130.73 126.51 132.87C128.5 135.01 127.47 138.09 127.47 138.09C127.47 138.09 130.56 137.23 131.88 139.1C133.2 140.97 131.63 144.09 131.63 144.09C131.63 144.09 132.67 143.31 134.02 145.15C135.36 146.99 134.04 148.6 129.07 153.43C124.1 158.26 117.49 164.36 111.41 163.53L104.4 171.51L91.1001 157.7Z" fill="#F5A0AC"/>
<path d="M121.19 132.51C119.41 134.39 117.67 136.3 115.97 138.24C115.67 138.58 115.64 139.09 115.97 139.43C116.27 139.73 116.86 139.77 117.16 139.43C118.86 137.49 120.61 135.58 122.38 133.7C122.69 133.37 122.71 132.84 122.38 132.51C122.07 132.2 121.51 132.18 121.19 132.51Z" fill="black"/>
<path d="M126.79 137.98C124.97 139.66 123.14 141.34 121.32 143.02C120.99 143.33 121.01 143.89 121.32 144.21C121.65 144.54 122.17 144.52 122.51 144.21C124.33 142.53 126.16 140.85 127.98 139.17C128.31 138.86 128.29 138.3 127.98 137.98C127.65 137.64 127.13 137.67 126.79 137.98Z" fill="black"/>
<path d="M130.84 143.66C129.37 145.12 127.91 146.57 126.44 148.03C126.13 148.34 126.11 148.91 126.44 149.22C126.78 149.53 127.29 149.55 127.63 149.22C129.1 147.76 130.56 146.31 132.03 144.85C132.34 144.54 132.36 143.97 132.03 143.66C131.69 143.35 131.17 143.33 130.84 143.66Z" fill="black"/>
<path d="M108.94 133.7C108.18 134.6 107.42 135.5 106.66 136.4C106.51 136.57 106.41 136.76 106.41 136.99C106.41 137.2 106.5 137.44 106.66 137.58C106.97 137.87 107.54 137.94 107.85 137.58C108.61 136.68 109.37 135.78 110.13 134.88C110.28 134.71 110.38 134.52 110.38 134.29C110.38 134.08 110.29 133.84 110.13 133.7C109.81 133.41 109.24 133.34 108.94 133.7Z" fill="black"/>
<path d="M112.23 94.1299C116.06 93.5299 119.99 93.8999 123.66 95.1299C124.53 95.4199 124.91 94.0399 124.04 93.7499C120.11 92.4299 115.94 92.1099 111.85 92.7499C110.95 92.8899 111.33 94.2699 112.23 94.1299Z" fill="black"/>
<path d="M110.6 92.42C110.68 92.57 110.77 92.72 110.84 92.88C110.88 92.97 110.92 93.06 110.96 93.15C110.92 93.05 110.99 93.23 111 93.25C111.13 93.58 111.23 93.93 111.31 94.28C111.35 94.45 111.38 94.62 111.41 94.79C111.42 94.83 111.42 94.86 111.43 94.9C111.42 94.83 111.42 94.84 111.43 94.93C111.44 95.02 111.45 95.1 111.45 95.19C111.48 95.55 111.48 95.91 111.45 96.26C111.43 96.63 111.8 96.99 112.16 96.97C112.57 96.95 112.85 96.66 112.87 96.26C112.97 94.68 112.59 93.08 111.82 91.7C111.64 91.37 111.16 91.24 110.84 91.44C110.52 91.65 110.4 92.07 110.6 92.42Z" fill="black"/>
<path d="M113.11 69.1699C114.74 69.6999 116.35 70.3799 118.06 70.6099C119.85 70.8599 121.8 70.8399 123.55 70.3599C124.88 69.9999 124.31 67.9299 122.98 68.2899C121.51 68.6899 119.71 68.7299 118.28 68.4899C116.7 68.2299 115.19 67.5999 113.68 67.0999C112.36 66.6699 111.8 68.7399 113.11 69.1699Z" fill="black"/>
<path d="M129.04 70.54C131.09 71.62 133.31 72.38 135.61 72.73C136.16 72.81 136.79 72.59 136.93 71.98C137.05 71.47 136.77 70.75 136.18 70.66C135.1 70.49 134.03 70.24 132.99 69.9C131.91 69.55 131.13 69.21 130.12 68.68C129.62 68.42 128.93 68.54 128.65 69.06C128.4 69.57 128.51 70.26 129.04 70.54Z" fill="black"/>
<path d="M67.5899 171.6C73.9199 166.78 80.0999 161.76 86.5499 157.11C87.0699 156.74 87.5899 156.36 88.1099 155.99C88.2099 155.92 88.3699 155.84 88.4499 155.74C88.7199 155.43 88.8899 155.71 88.4199 155.49C88.1299 155.35 88.0899 155.48 88.0799 155.43C88.1299 155.73 89.0899 156.39 89.3099 156.62C90.9699 158.29 92.5899 160.01 94.2099 161.71C96.2599 163.87 98.3099 166.03 100.37 168.19C101.34 169.2 102.31 170.22 103.28 171.22C103.68 171.64 104.08 172.05 104.49 172.47C104.95 172.94 105.37 173.19 104.97 173.81C103.96 175.37 102.49 176.78 101.31 178.21C99.5899 180.3 97.8699 182.39 96.1399 184.48C92.8599 188.45 89.6699 192.58 86.0899 196.28C85.3399 197.06 86.5199 198.24 87.2799 197.47C90.6099 194.02 93.5899 190.19 96.6399 186.5C99.8199 182.65 102.99 178.79 106.19 174.95C107.15 173.8 107.25 172.93 106.18 171.81C105.24 170.83 104.29 169.87 103.35 168.89C101.15 166.6 98.9599 164.29 96.7699 161.98C94.8999 160.01 93.0399 158.04 91.1399 156.1C90.5599 155.51 89.2499 153.64 88.2299 153.89C87.5899 154.05 86.8999 154.78 86.3699 155.16C85.5799 155.73 84.7999 156.29 84.0199 156.87C82.0399 158.33 80.0799 159.82 78.1199 161.33C74.3099 164.26 70.5399 167.24 66.7199 170.15C65.8999 170.79 66.7299 172.25 67.5899 171.6Z" fill="black"/>
<path d="M68.98 145.25C67.37 157.72 65.76 170.2 64.15 182.67C63.77 185.58 63.4 188.49 63.02 191.4C62.88 192.47 64.56 192.46 64.7 191.4C66.31 178.93 67.92 166.45 69.53 153.98C69.91 151.07 70.28 148.16 70.66 145.25C70.8 144.18 69.12 144.19 68.98 145.25Z" fill="black"/>
<path d="M138.59 158.9C136.96 159.14 135.32 159.27 133.67 159.29C133.58 159.29 133.49 159.29 133.42 159.24C133.35 159.19 134.61 153.67 134.67 153.66C134.68 153.67 137.56 157.6 138.59 158.9Z" fill="white"/>
<path d="M138.24 157.63C138.13 157.65 138.02 157.66 137.91 157.68C137.54 157.73 138.19 157.65 137.83 157.69C137.65 157.71 137.47 157.73 137.29 157.76C136.87 157.81 136.45 157.85 136.03 157.88C135.63 157.91 135.23 157.94 134.83 157.95C134.63 157.96 134.43 157.97 134.23 157.97C134.12 157.97 134.01 157.98 133.9 157.98C133.86 157.98 133.83 157.98 133.79 157.98C133.54 157.97 133.64 158.02 134.1 158.11C134.26 158.27 134.42 158.43 134.57 158.58C134.54 158.53 134.75 159.47 134.75 159.18C134.75 159.18 134.68 159.64 134.72 159.39C134.75 159.25 134.77 159.11 134.8 158.97C134.89 158.53 134.98 158.1 135.08 157.66C135.29 156.7 135.51 155.73 135.75 154.78C135.79 154.61 135.83 154.45 135.88 154.28C135.89 154.23 135.91 154.17 135.93 154.12C135.93 154.1 135.94 154.09 135.95 154.07C135.91 154.27 135.58 154.69 135.36 154.82C134.76 154.66 134.15 154.5 133.55 154.35C134.55 155.72 135.56 157.08 136.58 158.44C136.94 158.91 137.3 159.38 137.66 159.85C137.86 160.1 138.29 160.24 138.59 160.24C138.91 160.24 139.3 160.1 139.52 159.85C139.75 159.6 139.92 159.27 139.91 158.92C139.89 158.55 139.75 158.28 139.52 157.99C139.47 157.92 139.42 157.86 139.37 157.79C139.34 157.75 139.32 157.71 139.28 157.68C139.25 157.65 139.49 157.96 139.41 157.85C139.39 157.82 139.37 157.8 139.35 157.77C139.21 157.58 139.06 157.4 138.92 157.21C138.59 156.78 138.27 156.34 137.94 155.9C137.35 155.11 136.76 154.31 136.18 153.52C136.06 153.35 135.94 153.19 135.81 153.02C135.38 152.44 134.68 152.16 134 152.55C133.41 152.89 133.3 153.62 133.16 154.22C132.99 154.91 132.83 155.61 132.67 156.31C132.52 156.97 132.37 157.63 132.24 158.29C132.2 158.47 132.17 158.64 132.14 158.82C132.12 158.92 132.08 159.12 132.09 159.26C132.11 160.13 132.86 160.61 133.66 160.63C135.41 160.68 137.2 160.44 138.93 160.19C139.23 160.15 139.57 159.84 139.72 159.58C139.89 159.3 139.96 158.88 139.85 158.56C139.75 158.24 139.55 157.93 139.24 157.77C138.93 157.58 138.61 157.57 138.24 157.63Z" fill="white"/>
<path d="M109.25 127.06C116.22 120.05 127.55 121.47 134.52 127.7C137.74 130.58 139.74 134.85 140.84 138.97C141.46 141.3 141.6 143.66 141.09 146.02C140.29 149.7 139.28 153.2 136.38 155.81C135.51 156.59 136.8 157.87 137.66 157.09C140.67 154.38 141.8 150.85 142.71 147.04C143.33 144.43 143.37 141.85 142.77 139.22C141.77 134.84 139.64 130.12 136.4 126.96C132.85 123.51 128.13 121.21 123.22 120.64C117.67 119.99 111.95 121.78 107.98 125.77C107.15 126.6 108.43 127.88 109.25 127.06Z" fill="white"/>
</g>
<defs>
<clipPath id="clip0_520_4519">
<rect width="200" height="200" fill="white"/>
</clipPath>
</defs>
</svg>
