<svg width="200" height="200" viewBox="0 0 200 200" fill="none" xmlns="http://www.w3.org/2000/svg">
<g clip-path="url(#clip0_520_4516)">
<path d="M100 200C155.228 200 200 155.228 200 100C200 44.7715 155.228 0 100 0C44.7715 0 0 44.7715 0 100C0 155.228 44.7715 200 100 200Z" fill="#BCE37C"/>
<path d="M125.29 142.47L147.49 132.35L158.29 149.42C158.29 149.42 146.23 162.97 145.2 171.86C135.69 174.09 125.29 142.47 125.29 142.47Z" fill="#E08F8B"/>
<path d="M70.9896 145L52.4696 133.12L41.3496 149.42C41.3496 149.42 52.6096 161.99 53.6396 170.88C65.4696 172.21 70.9896 145 70.9896 145Z" fill="#E08F8B"/>
<path d="M118.56 66.36L122.96 64.22C124.17 66.01 131.82 79.47 133.16 82.69C137.44 93.03 139.62 97.5 138.41 103.69C135.98 116.12 117.9 114.13 116.98 104.1C116.98 104.11 127.29 87.44 118.56 66.36Z" fill="black"/>
<path d="M70.4099 176.15L66.6399 178.34L62.9399 192.9C74.3999 197.48 86.9099 200 99.9999 200C113.04 200 125.49 197.5 136.91 192.97L134.49 179.35L70.4099 176.15Z" fill="#00A94F"/>
<path d="M130.77 144.73C130.77 144.73 134.16 171.45 134.5 179.34C134.5 179.34 120.66 187.14 102.31 187.14C83.9599 187.14 66.6399 178.34 66.6399 178.34C66.4599 173.64 71.0099 163.03 71.0099 163.03C69.0699 155.42 69.3299 150.23 69.3299 150.23C69.3299 150.23 68.5699 151.43 66.3899 150.34C63.6499 148.97 65.0799 145.54 65.0799 145.54C65.0799 145.54 63.5499 148.48 60.7199 147.07C57.8899 145.65 59.4099 143.26 59.4099 143.26C59.4099 143.26 57.6599 145.02 55.1599 143.7C53.3099 142.72 53.9599 140.32 53.9599 140.32C53.9599 140.32 50.4699 141.95 48.6199 139.01C46.7699 136.07 50.8399 133.03 50.8399 133.03C50.8399 133.03 49.2099 126.94 53.9499 119.49C59.8499 110.22 78.7299 105.92 78.7299 105.92L100.55 102.35C100.55 102.35 104.02 102.86 113.53 104.15C119.78 105 127.84 105.17 137.49 112.62C144.47 118.01 146.7 127.1 146.7 127.1C146.7 127.1 150.76 129.45 149.6 132.63C148.57 135.45 145.17 135.11 145.17 135.11C145.17 135.11 147.03 136.38 144.2 137.61C142.13 138.51 140.84 136.46 140.84 136.46C140.84 136.46 142.16 139.2 139.52 140.43C136.81 141.69 134.84 139.37 134.84 139.37C134.84 139.37 136.43 145.63 130.77 144.73Z" fill="#008DB2"/>
<path d="M123.35 69.72C123.35 69.72 125.72 62.8 118.39 53.89C111.07 44.99 95.4299 36.24 78.5899 49.22C63.3399 60.97 54.0499 94.51 56.8699 109.71C59.6199 124.51 84.7699 126.64 89.3299 110.64C91.1099 104.4 86.2899 90.67 86.2899 90.67L123.35 69.72Z" fill="black"/>
<path d="M88.0997 51.89C91.2597 49.23 94.5697 47.49 97.7997 46.5C97.6397 46.35 97.4697 46.19 97.3097 46.02C95.0997 43.68 95.1097 40.4 95.2197 39.05C95.2497 38.71 95.5597 38.48 95.8797 38.54C96.9597 38.76 99.3097 39.42 101 41.12C102.02 42.15 102.71 43.14 103.16 44.04C103.42 43.3 103.8 42.53 104.33 41.76C106.07 39.27 108.94 38.59 110.37 38.41C110.84 38.35 111.25 38.74 111.23 39.23C111.17 40.46 110.89 42.73 109.65 44.6C109.32 45.1 108.99 45.53 108.65 45.92C110.9 46.41 112.93 47.28 114.62 48.45C124.84 55.52 123.45 64.64 123.45 64.64C123.45 64.64 117.2 44.8 100.16 53.36C83.1197 61.93 83.8297 78.06 83.8297 78.06C83.8297 78.06 82.9497 76.35 81.3297 76.38C79.2897 76.42 78.0697 77.19 78.0697 77.19C78.0697 77.19 77.2197 61.04 88.0997 51.89Z" fill="#00A94F"/>
<path d="M95.5998 38.26C96.6398 38.27 97.6398 38.55 98.5998 38.95C99.5198 39.34 100.46 39.86 101.2 40.55C101.94 41.24 102.57 42.08 102.99 43.01C103.39 43.9 103.56 44.87 103.66 45.84C105.04 46.46 106.28 47.84 106.04 49.42C105.93 50.14 104.85 49.95 104.95 49.23C105.05 48.57 104.62 47.95 104.16 47.52C103.69 47.08 103.12 46.77 102.49 46.66C101.4 46.47 100.1 47.06 99.7698 48.21C99.6798 48.5 99.4498 48.73 99.1298 48.67C98.8598 48.62 98.5998 48.31 98.6798 48.01C99.1798 46.32 100.82 45.31 102.5 45.51C102.41 44.84 102.27 44.18 102.01 43.56C101.67 42.75 101.12 42.02 100.49 41.43C99.8498 40.84 99.0798 40.41 98.2898 40.06C97.4798 39.7 96.5898 39.4 95.6998 39.39C95.3998 39.39 95.1298 39.21 95.0998 38.88C95.0698 38.6 95.2998 38.26 95.5998 38.26Z" fill="#008043"/>
<path d="M95.2797 56.36C95.2797 56.36 92.4297 58.5 90.6697 60.58C90.0997 61.25 89.2098 62.36 88.4698 63.43C87.9598 64.17 87.4598 65.06 87.4598 65.06C87.4598 65.06 85.8997 61.16 88.1297 58.33C91.0897 54.58 95.2797 56.36 95.2797 56.36Z" fill="#97CA51"/>
<path d="M88.0098 53.48C88.5498 54.27 89.6598 54.43 90.4898 53.83C91.3198 53.23 91.5498 52.11 91.0098 51.31C90.7198 50.88 90.2398 50.64 89.7398 50.6C89.7398 50.6 89.0398 51.1 88.6798 51.39C88.1598 51.82 87.7498 52.17 87.7498 52.17C87.6798 52.62 87.7598 53.11 88.0098 53.48Z" fill="#E24497"/>
<path d="M107.69 39.97L109.24 41.42L108.24 42.29L106.67 40.91L106.56 43.51L105.39 43.45L105.42 41.5L104.01 43.19L103.62 42.97C103.62 42.97 104.4 41.32 105.7 40.32C106.09 40.02 106.71 39.58 107.44 39.26C108.27 38.9 109.19 38.66 109.19 38.66L109.41 39.4L107.69 39.97Z" fill="#97CA51"/>
<path d="M79.0199 69.66L80.9099 70.18L80.7099 71.36L78.9599 70.74L79.7099 72.58L78.8699 72.94L78.4199 71.32C78.4199 71.32 78.4599 70.81 78.5899 70.01C78.7199 69.2 78.8499 68.79 78.8499 68.79L79.9299 67.67L80.3799 68.54L79.0199 69.66Z" fill="#FAAE17"/>
<path d="M109.9 49.9231C110.536 49.8091 110.965 49.232 110.858 48.6341C110.75 48.0361 110.148 47.6437 109.512 47.7576C108.876 47.8715 108.447 48.4486 108.554 49.0466C108.661 49.6446 109.264 50.037 109.9 49.9231Z" fill="white"/>
<path d="M115.58 53.54L117.09 51.9L118.24 52.94L116.86 54.54C116.86 54.54 116.81 54.5 116.72 54.42C116.62 54.34 116.35 54.1 116.13 53.94C115.72 53.64 115.58 53.54 115.58 53.54Z" fill="#E24497"/>
<path d="M101.28 49.8201L101.44 51.4201L95.6795 52.4101L95.5195 50.0401L101.28 49.8201Z" fill="#FAAE17"/>
<path d="M81.7396 65.4C81.7996 66.03 82.3396 66.49 82.9496 66.43C83.5596 66.37 84.0096 65.81 83.9596 65.18C83.8996 64.55 83.3596 64.09 82.7496 64.15C82.1396 64.21 81.6796 64.77 81.7396 65.4Z" fill="white"/>
<path d="M111.82 106.16C111.82 106.16 113.25 113.7 104.1 113.59C96.5197 113.49 91.8897 109.77 89.9097 107.06C89.9097 107.06 89.4797 101.64 88.1697 97.19C86.8597 92.74 85.8897 90.58 85.8897 90.58C85.8897 90.58 80.0497 91.71 77.1797 86.98C74.3097 82.25 75.4897 77.41 79.4997 76.42C83.4997 75.43 83.8097 77.78 85.1797 80.48C86.5497 83.18 91.1297 86.59 90.3097 77.69C90.3097 77.69 94.8697 74.87 98.1697 70.67C101.47 66.47 102.82 62.12 102.82 62.12C102.82 62.12 104.89 63.92 109.96 65.9C116.56 68.48 121.81 67.47 122.33 67.3C122.84 67.13 126.95 83.94 126.79 92.56C126.56 103.93 117.92 106.49 111.82 106.16Z" fill="#F498A8"/>
<path d="M121.08 65.28C122.5 70.01 123.32 74.91 124.19 79.76C125.01 84.34 125.76 89.07 125.43 93.74C125.25 96.25 124.73 98.85 123.1 100.85C121.83 102.4 119.92 103.32 117.98 104C115.94 104.72 113.79 104.82 111.64 104.7C108.64 104.53 105.67 103.99 102.79 103.16C101.31 102.73 100.47 104.98 101.95 105.42C108.86 107.43 118.27 108.79 124.06 103.31C126.08 101.4 127.09 98.83 127.55 96.13C128.31 91.66 127.74 86.94 127.06 82.5C126.16 76.6 125.14 70.57 123.42 64.85C123.01 63.37 120.64 63.79 121.08 65.28Z" fill="black"/>
<path d="M79.41 82.28C79.47 82.31 79.54 82.33 79.6 82.36C79.62 82.37 79.82 82.47 79.66 82.39C79.77 82.45 79.88 82.52 79.98 82.59C80.08 82.66 80.18 82.74 80.28 82.82C80.41 82.93 80.2 82.73 80.33 82.87C80.37 82.91 80.41 82.95 80.45 82.99C80.54 83.08 80.62 83.18 80.69 83.28C80.73 83.33 80.77 83.39 80.81 83.45C80.91 83.58 80.76 83.35 80.85 83.51C80.98 83.73 81.09 83.96 81.19 84.19C81.21 84.24 81.23 84.3 81.25 84.35C81.27 84.4 81.27 84.39 81.24 84.32C81.25 84.35 81.26 84.39 81.27 84.42C81.3 84.54 81.33 84.67 81.36 84.79C81.38 84.92 81.4 85.04 81.41 85.17C81.41 85.2 81.42 85.24 81.42 85.27C81.42 85.18 81.42 85.17 81.42 85.23C81.42 85.29 81.42 85.34 81.42 85.4C81.42 85.65 81.39 85.9 81.34 86.15C81.38 85.96 81.33 86.17 81.32 86.21C81.3 86.28 81.28 86.34 81.26 86.41C81.21 86.54 81.16 86.67 81.1 86.79C80.92 87.17 81.19 87.7 81.57 87.82C82.02 87.96 82.4 87.75 82.6 87.35C83.77 84.93 82.43 81.75 79.96 80.78C79.57 80.63 79.06 80.85 78.93 81.25C78.8 81.67 78.99 82.12 79.41 82.28Z" fill="black"/>
<path d="M113.07 85.97C113.02 85.41 112.78 84.86 112.59 84.33C112.38 83.76 112.16 83.19 111.93 82.62C111.47 81.48 110.99 80.36 110.48 79.24C110.15 78.5 109.01 79.04 109.34 79.78C110.1 81.47 110.83 83.19 111.47 84.93C111.61 85.31 111.8 85.72 111.82 86.13C111.83 86.36 111.76 86.75 111.55 86.9C111.36 87.04 111.02 86.99 110.82 86.91C110.53 86.79 110.39 86.55 110.3 86.27C110.19 85.95 109.74 85.84 109.46 85.97C109.35 86.02 109.27 86.11 109.21 86.2C109.09 86.3 109 86.45 108.98 86.63C108.97 86.69 108.96 86.74 108.95 86.8C108.95 86.82 108.95 86.82 108.95 86.83C108.95 86.84 108.95 86.83 108.94 86.85C108.91 86.94 108.89 87.04 108.85 87.13C108.83 87.18 108.81 87.22 108.79 87.26C108.78 87.27 108.79 87.27 108.78 87.28C108.78 87.28 108.78 87.28 108.77 87.29C108.72 87.37 108.66 87.45 108.6 87.53C108.59 87.54 108.57 87.56 108.56 87.57C108.53 87.6 108.49 87.63 108.45 87.66C108.55 87.57 108.47 87.65 108.43 87.67C108.4 87.69 108.37 87.7 108.33 87.71C108.32 87.71 108.23 87.73 108.21 87.73C108.2 87.73 108.19 87.73 108.17 87.73C108.17 87.73 108.17 87.73 108.16 87.73C108.1 87.72 108.03 87.72 107.97 87.71C107.95 87.71 107.96 87.71 107.95 87.71C107.94 87.71 107.94 87.7 107.92 87.7C107.87 87.68 107.82 87.67 107.77 87.64C107.74 87.63 107.7 87.6 107.69 87.6C107.65 87.58 107.62 87.56 107.58 87.53C107.57 87.52 107.57 87.52 107.56 87.51C107.44 87.37 107.33 87.25 107.23 87.1C107.22 87.08 107.2 87.05 107.19 87.04C107.17 87 107.14 86.96 107.12 86.92C107.07 86.83 107.01 86.74 106.97 86.64C106.89 86.48 106.81 86.32 106.74 86.15C106.61 85.85 106.19 85.7 105.9 85.85C105.59 86.02 105.47 86.36 105.6 86.69C105.79 87.16 106.05 87.61 106.35 88.02C106.71 88.51 107.21 88.84 107.82 88.95C108.49 89.07 109.14 88.81 109.58 88.31C109.71 88.16 109.81 88 109.9 87.82C110.36 88.16 110.96 88.31 111.56 88.21C112.63 88.04 113.15 86.96 113.07 85.97Z" fill="black"/>
<path d="M114.3 112.07C113.42 114.19 111.71 116.06 109.62 117.06C107.99 117.84 106.03 117.98 104.25 117.95C100.34 117.88 95.9698 116.91 92.9098 114.33C92.1398 113.68 91.2498 114.96 92.0098 115.6C95.4498 118.51 100.57 119.6 104.98 119.5C107 119.45 109.11 119.17 110.89 118.15C113.07 116.9 114.8 114.93 115.77 112.61C116.15 111.68 114.69 111.14 114.3 112.07Z" fill="#006B83"/>
<path d="M119.63 77.68C119.1 77.92 117.09 77.6 115.32 77.84C113.45 78.09 112.56 78.51 112.05 78.43C111.1 78.28 110.77 77.16 110.79 76.53C110.81 75.78 111.3 74.3 114.1 73.62C115.81 73.21 117.2 73.41 118.16 73.68C118.6 73.8 119.86 74.48 120.26 75.66C120.62 76.75 120.15 77.44 119.63 77.68Z" fill="white"/>
<path d="M114.58 77.77C116.55 77.94 116.82 74.87 114.85 74.7C112.87 74.53 112.6 77.6 114.58 77.77Z" fill="black"/>
<path d="M96.6998 78.4501C96.8098 77.2101 97.8898 76.2701 98.2898 76.0401C99.1698 75.5601 100.47 75.0401 102.23 75.0501C105.12 75.0701 105.93 76.4001 106.12 77.1201C106.28 77.7301 106.22 78.9001 105.33 79.2601C104.85 79.4601 103.89 79.2601 102.01 79.4401C100.23 79.6101 98.3498 80.3801 97.7798 80.2701C97.2098 80.1601 96.5898 79.6001 96.6998 78.4501Z" fill="white"/>
<path d="M100.59 79.3101C102.56 79.4801 102.83 76.4101 100.86 76.2401C98.8798 76.0701 98.6098 79.1401 100.59 79.3101Z" fill="black"/>
<path d="M85.8997 90.59C85.8997 90.59 80.0497 91.72 77.1797 86.99C74.2997 82.26 75.4897 77.41 79.4997 76.42C83.5097 75.43 83.8197 77.78 85.1897 80.49C85.8397 81.77 87.0597 83.34 88.0797 83.41L85.8997 90.59Z" fill="#F498A8"/>
<path d="M79.4096 82.28C79.4696 82.31 79.5396 82.33 79.5996 82.36C79.6196 82.37 79.8196 82.47 79.6596 82.39C79.7696 82.45 79.8796 82.52 79.9796 82.59C80.0796 82.66 80.1796 82.74 80.2796 82.82C80.4096 82.93 80.1996 82.73 80.3296 82.87C80.3696 82.91 80.4096 82.95 80.4496 82.99C80.5396 83.08 80.6196 83.18 80.6996 83.28C80.7396 83.33 80.7796 83.39 80.8196 83.45C80.9196 83.59 80.7696 83.35 80.8596 83.51C80.9896 83.73 81.0996 83.96 81.1996 84.19C81.2196 84.24 81.2396 84.3 81.2596 84.35C81.2796 84.4 81.2796 84.39 81.2496 84.32C81.2596 84.35 81.2696 84.39 81.2796 84.42C81.3096 84.54 81.3396 84.67 81.3696 84.79C81.3896 84.92 81.4096 85.04 81.4196 85.17C81.4196 85.2 81.4296 85.24 81.4296 85.27C81.4296 85.18 81.4296 85.17 81.4296 85.23C81.4296 85.29 81.4296 85.34 81.4296 85.4C81.4296 85.65 81.3996 85.9 81.3496 86.15C81.3896 85.96 81.3396 86.17 81.3296 86.21C81.3096 86.28 81.2896 86.34 81.2696 86.41C81.2196 86.54 81.1696 86.67 81.1096 86.79C80.9296 87.17 81.1996 87.7 81.5796 87.82C82.0296 87.96 82.4196 87.75 82.6096 87.35C83.7896 84.92 82.4396 81.75 79.9696 80.77C79.5796 80.62 79.0696 80.84 78.9396 81.24C78.7996 81.67 78.9896 82.12 79.4096 82.28Z" fill="black"/>
<path d="M97.2298 73.38C97.2298 73.37 97.4198 73.15 97.2998 73.29C97.1798 73.43 97.3598 73.23 97.3898 73.2C97.4998 73.09 97.6198 72.98 97.7398 72.88C97.8498 72.79 97.9698 72.7 98.0898 72.62C98.1898 72.54 98.2498 72.52 98.1098 72.6C98.1798 72.56 98.2498 72.51 98.3198 72.47C98.5998 72.31 98.8798 72.17 99.1798 72.05C99.3398 71.99 99.4998 71.93 99.6598 71.87C99.4998 71.92 99.5798 71.9 99.6998 71.86C99.7798 71.84 99.8698 71.81 99.9498 71.79C100.27 71.71 100.59 71.65 100.91 71.61C101.08 71.59 101.25 71.58 101.42 71.56C101.61 71.54 101.12 71.56 101.44 71.56C101.51 71.56 101.57 71.56 101.64 71.56C101.97 71.56 102.3 71.59 102.62 71.63C102.68 71.64 102.75 71.65 102.81 71.66C103.12 71.71 102.64 71.61 102.81 71.66C102.98 71.71 103.14 71.75 103.3 71.8C103.91 72.01 104.69 71.72 104.9 71.07C105.1 70.45 104.83 69.69 104.17 69.47C101.12 68.45 97.2598 69.4 95.1998 71.91C94.7898 72.41 94.9598 73.3 95.4998 73.64C96.0998 74.06 96.7898 73.91 97.2298 73.38Z" fill="black"/>
<path d="M112.5 70.65C112.63 70.54 112.76 70.43 112.9 70.33C113 70.26 112.98 70.27 112.89 70.33C112.96 70.28 113.04 70.24 113.11 70.2C113.4 70.04 113.7 69.92 114.01 69.79C113.78 69.89 114 69.79 114.05 69.78C114.13 69.76 114.22 69.73 114.31 69.71C114.48 69.67 114.66 69.63 114.83 69.61C114.99 69.59 115.15 69.57 115.31 69.55C115.43 69.54 115.53 69.54 115.35 69.54C115.44 69.54 115.53 69.54 115.62 69.54C115.96 69.54 116.29 69.57 116.62 69.63C116.69 69.64 116.76 69.66 116.83 69.67C116.56 69.63 116.8 69.66 116.86 69.68C117.03 69.73 117.19 69.78 117.36 69.84C117.51 69.89 117.65 69.95 117.79 70.02C117.79 70.02 118.07 70.17 117.92 70.08C117.77 70 118.02 70.14 118.04 70.16C118.18 70.25 118.32 70.35 118.46 70.45C118.51 70.49 118.57 70.54 118.62 70.58C118.88 70.79 118.45 70.41 118.68 70.64C119.14 71.1 119.9 71.27 120.43 70.79C120.89 70.37 121.07 69.53 120.58 69.04C118.05 66.52 113.59 66.41 110.89 68.76C110.4 69.19 110.28 70.01 110.74 70.51C111.2 70.99 111.97 71.1 112.5 70.65Z" fill="black"/>
<path d="M53.7798 153.17C52.4098 151.82 48.3698 147.63 48.3698 147.63C48.3698 147.63 50.1198 145.42 50.3998 142.31C50.5698 140.42 50.1698 137.25 50.6998 135.78C51.8898 132.46 53.9798 131.37 54.5398 128.68C54.9498 126.68 53.0498 124.95 50.2498 125.19C47.5098 125.42 45.9998 128.67 45.5898 130.47C45.0298 132.94 43.2698 136.1 41.9998 135.49C40.5498 134.8 40.0098 131.49 39.1898 127.36C37.7698 120.21 38.3598 112.75 33.6798 113.08C30.0198 113.33 29.6398 117.3 31.0798 122.48C31.9298 125.54 33.5898 130.33 32.7498 130.58C32.2998 130.72 29.7198 126.94 26.9798 122.69C24.7198 119.2 22.7498 115.68 19.7998 115.57C16.2298 115.44 14.4698 119.05 17.9998 123.25C22.2298 128.27 27.4698 132.7 26.6698 133.43C26.1798 133.88 21.5498 131.18 18.7998 130.07C15.7298 128.84 11.7298 127.84 10.6198 130.8C9.49982 133.76 13.4098 135.1 16.2298 136.09C19.1598 137.11 24.8198 138.74 24.5698 139.29C24.2798 139.9 11.3698 135.63 12.3398 141.41C13.1298 146.08 20.2898 143.77 23.8898 145.48C25.4898 146.24 25.8998 149.87 29.7398 152.21C32.6398 153.97 35.6398 154.53 35.6398 154.53C35.6398 154.53 38.0998 160.91 47.2998 168.98C48.8098 170.32 55.5398 174.42 60.2298 169.57C64.8998 164.72 59.5798 158.89 53.7798 153.17Z" fill="#F498A8"/>
<path d="M27.5998 141.08C28.2798 137.92 30.9898 135.51 33.7798 134.13C34.4998 133.77 33.9998 132.62 33.2698 132.98C30.0398 134.57 27.1298 137.31 26.3498 140.94C26.2798 141.27 26.5898 141.6 26.8998 141.64C27.2698 141.68 27.5298 141.42 27.5998 141.08Z" fill="black"/>
<path d="M43.75 134.27C41.41 135.36 39.77 137.76 39.66 140.35C39.65 140.69 39.86 141.01 40.21 141.05C40.53 141.09 40.89 140.84 40.91 140.5C41 138.35 42.3 136.34 44.26 135.43C44.99 135.08 44.49 133.92 43.75 134.27Z" fill="black"/>
<path d="M69.1899 149.56C69.2099 149.54 69.2099 149.54 69.1899 149.56V149.56Z" fill="#006B83"/>
<path d="M70.4097 147.45C70.4197 147.4 70.4197 147.34 70.4097 147.45V147.45Z" fill="#006B83"/>
<path d="M78.0398 142.69C77.7598 142.41 77.2098 142.37 76.9398 142.69C75.4698 144.39 73.3598 145.45 71.1298 145.56C70.7098 145.58 70.3498 145.9 70.3498 146.34C70.3498 146.48 70.3998 146.61 70.4798 146.73C70.4598 146.79 70.4398 146.86 70.4398 146.93C70.4398 147.08 70.4398 147.24 70.4198 147.39C70.4198 147.42 70.4098 147.46 70.4098 147.49C70.4098 147.47 70.4098 147.46 70.4098 147.44C70.4098 147.45 70.4098 147.45 70.4098 147.46C70.3998 147.54 70.3798 147.61 70.3598 147.69C70.3198 147.84 70.2798 147.99 70.2298 148.13C70.2198 148.16 70.2098 148.19 70.1898 148.23C70.1798 148.26 70.1298 148.4 70.1698 148.28C70.2098 148.17 70.1698 148.28 70.1598 148.3C70.1398 148.34 70.1198 148.38 70.0998 148.42C70.0298 148.55 69.9598 148.68 69.8798 148.8C69.8398 148.86 69.7898 148.93 69.7498 148.99C69.7298 149.01 69.7198 149.03 69.6998 149.05C69.5998 149.17 69.4898 149.28 69.3798 149.39C69.3198 149.44 69.2698 149.49 69.2098 149.54C69.1798 149.56 69.1498 149.58 69.1298 149.6C69.1598 149.57 69.1698 149.56 69.1798 149.55C69.1598 149.57 69.1398 149.59 69.1198 149.6C68.7898 149.84 68.5998 150.29 68.8398 150.67C69.0498 151 69.5498 151.2 69.9098 150.95C71.1798 150.05 71.9698 148.59 71.9898 147.03C74.3098 146.71 76.4998 145.57 78.0398 143.79C78.3098 143.48 78.3498 143.01 78.0398 142.69Z" fill="#006B83"/>
<path d="M126.13 126.9C128.58 131.07 129.82 135.83 129.72 140.67C129.7 141.67 131.26 141.67 131.28 140.67C131.39 135.57 130.07 130.51 127.48 126.11C126.97 125.25 125.62 126.04 126.13 126.9Z" fill="#006B83"/>
<path d="M145.86 153.17C147.23 151.82 151.27 147.63 151.27 147.63C151.27 147.63 149.52 145.42 149.24 142.31C149.07 140.42 149.47 137.25 148.94 135.78C147.75 132.46 145.66 131.37 145.1 128.68C144.69 126.68 146.59 124.95 149.39 125.19C152.13 125.42 153.64 128.67 154.05 130.47C154.61 132.94 156.37 136.1 157.64 135.49C159.09 134.8 159.63 131.49 160.45 127.36C161.87 120.21 161.28 112.75 165.96 113.08C169.62 113.33 170 117.3 168.56 122.48C167.71 125.54 166.05 130.33 166.89 130.58C167.34 130.72 169.92 126.94 172.66 122.69C174.92 119.2 176.89 115.68 179.84 115.57C183.41 115.44 185.17 119.05 181.64 123.25C177.41 128.27 172.17 132.7 172.97 133.43C173.46 133.88 178.09 131.18 180.84 130.07C183.91 128.84 187.91 127.84 189.02 130.8C190.14 133.76 186.23 135.1 183.41 136.09C180.48 137.11 174.82 138.74 175.07 139.29C175.36 139.9 188.27 135.63 187.3 141.41C186.51 146.08 179.35 143.77 175.75 145.48C174.15 146.24 173.74 149.87 169.9 152.21C167 153.97 164 154.53 164 154.53C164 154.53 161.54 160.91 152.34 168.98C150.83 170.32 144.1 174.42 139.41 169.57C134.74 164.72 140.06 158.89 145.86 153.17Z" fill="#F498A8"/>
<path d="M172.04 141.08C171.36 137.92 168.65 135.51 165.86 134.13C165.14 133.77 165.64 132.62 166.37 132.98C169.6 134.57 172.51 137.31 173.29 140.94C173.36 141.27 173.05 141.6 172.74 141.64C172.37 141.68 172.11 141.42 172.04 141.08Z" fill="black"/>
<path d="M155.889 134.27C158.229 135.36 159.869 137.76 159.979 140.35C159.989 140.69 159.779 141.01 159.429 141.05C159.109 141.09 158.749 140.84 158.729 140.5C158.639 138.35 157.339 136.34 155.379 135.43C154.649 135.08 155.149 133.92 155.889 134.27Z" fill="black"/>
<path d="M97.96 87.14C97.96 87.27 97.96 87.4 97.95 87.53C97.94 87.59 97.89 87.73 97.95 87.55C97.93 87.6 97.93 87.66 97.92 87.71C97.88 87.93 97.83 88.2 97.72 88.39C97.82 88.22 97.73 88.37 97.71 88.41C97.69 88.46 97.66 88.51 97.64 88.56C97.58 88.67 97.51 88.78 97.44 88.89C97.41 88.94 97.38 88.98 97.35 89.03C97.32 89.07 97.26 89.21 97.34 89.05C97.29 89.15 97.18 89.24 97.1 89.32C97.02 89.41 96.93 89.49 96.84 89.57C96.8 89.61 96.76 89.64 96.71 89.68C96.57 89.8 96.84 89.59 96.69 89.7C96.49 89.84 96.29 89.96 96.08 90.07C96.05 90.09 95.88 90.18 96.06 90.08C96.01 90.11 95.96 90.12 95.91 90.14C95.79 90.18 95.67 90.22 95.54 90.25C95.43 90.28 95.32 90.28 95.22 90.31C95.41 90.26 95.26 90.3 95.2 90.31C95.13 90.32 95.05 90.32 94.98 90.32C94.58 90.33 94.2 90.67 94.22 91.08C94.24 91.49 94.56 91.85 94.98 91.84C97.42 91.8 99.56 89.6 99.49 87.15C99.48 86.75 99.15 86.37 98.73 86.39C98.32 86.39 97.95 86.71 97.96 87.14Z" fill="black"/>
<path d="M101.92 97.6401C103.37 98.6601 105.36 98.7201 106.91 97.8901C107.26 97.7001 107.4 97.1801 107.18 96.8501C106.95 96.4901 106.51 96.3701 106.14 96.5801C106.06 96.6201 105.99 96.6601 105.91 96.7001C105.84 96.7301 105.85 96.7201 105.91 96.7001C105.87 96.7101 105.83 96.7301 105.79 96.7501C105.63 96.8101 105.46 96.8601 105.3 96.8901C105.22 96.9101 105.13 96.9201 105.05 96.9401C105.21 96.9101 104.99 96.9401 104.93 96.9501C104.75 96.9601 104.56 96.9601 104.38 96.9501C104.34 96.9501 104.29 96.9401 104.25 96.9401C104.23 96.9401 104.09 96.9201 104.19 96.9401C104.29 96.9501 104.15 96.9301 104.13 96.9301C104.09 96.9201 104.05 96.9101 104 96.9101C103.83 96.8801 103.67 96.8301 103.5 96.7801C103.46 96.7701 103.42 96.7501 103.38 96.7401C103.37 96.7301 103.24 96.6801 103.32 96.7201C103.4 96.7601 103.28 96.7001 103.26 96.6901C103.22 96.6701 103.18 96.6501 103.14 96.6301C102.98 96.5501 102.82 96.4501 102.67 96.3501C102.34 96.1201 101.81 96.2801 101.63 96.6201C101.44 96.9901 101.57 97.4001 101.92 97.6401Z" fill="black"/>
<path d="M97.8398 91.09C101.02 94.76 106.22 95.8001 110.63 93.8501C111.53 93.4501 110.75 92.1401 109.86 92.5301C106.05 94.2201 101.62 93.1301 98.9198 90.0101C98.2798 89.2701 97.1998 90.35 97.8398 91.09Z" fill="black"/>
</g>
<defs>
<clipPath id="clip0_520_4516">
<rect width="200" height="200" fill="white"/>
</clipPath>
</defs>
</svg>
