<svg width="200" height="200" viewBox="0 0 200 200" fill="none" xmlns="http://www.w3.org/2000/svg">
<g clip-path="url(#clip0_520_4518)">
<path d="M100 200C155.228 200 200 155.228 200 100C200 44.7715 155.228 0 100 0C44.7715 0 0 44.7715 0 100C0 155.228 44.7715 200 100 200Z" fill="#BCE37C"/>
<path d="M140.61 154.11L143.05 190.28C150.61 186.67 157.64 182.14 164 176.84L158.76 144.62L140.61 154.11Z" fill="#A85630"/>
<path fill-rule="evenodd" clip-rule="evenodd" d="M42.67 137.21C42.67 137.21 31.06 154.36 34.08 163.29C37.1 172.22 55.94 184.4 61.98 184.83C68.02 185.26 67.44 166.12 67.44 166.12L54.76 155.66L60.41 148.12L42.67 137.21Z" fill="#8C4520"/>
<path d="M80.2803 47.4L78.7503 47.23C77.2603 47.06 77.1803 46 76.5403 47.36C73.7403 53.31 71.2203 63.47 68.0903 85.43C64.0103 114.03 69.5003 115.49 74.3403 116.01C80.2103 116.64 90.2203 112.14 93.4403 97.49C96.0803 85.54 80.2803 47.4 80.2803 47.4Z" fill="black"/>
<path d="M170.07 158.11C170.07 158.11 152.64 112.18 134.87 107.16C125.63 104.55 94.9201 102.48 74.8401 106.52C56.2801 110.25 34.3501 137.46 34.3501 137.46C37.1301 154.74 59.5501 162.85 59.5501 162.85L64.7201 152.77C63.6201 166.81 61.6901 180.09 62.3101 192.64C73.9401 197.38 86.6601 200 100 200C115.79 200 130.72 196.34 143.99 189.82L142.74 164.01C156.72 162.89 170.07 158.11 170.07 158.11Z" fill="#545554"/>
<path d="M76.7902 55.47C76.7902 55.47 73.8402 79.42 76.0002 90.1C78.1602 100.79 85.8002 101.76 89.1302 102.03C89.1302 102.03 89.1502 108.89 91.3602 110.64C97.5702 115.53 109.67 111.77 113.32 106.57C116.97 101.37 115.91 53.41 115.91 53.41C115.91 53.41 83.3602 48.88 76.7902 55.47Z" fill="#A65630"/>
<path d="M74.36 61.28L79.02 59.71L80.61 54.62L81.15 58.82L88.93 58.51L91.5 54.09L91.4 58.6L102.02 60.28L104.78 56.02L104.21 61.11L111.73 63.02C111.73 63.02 107.6 91 116.59 119.44C120.08 130.49 131.49 128.05 135.12 126.42C142.89 122.95 144.25 116.53 144.7 110.85C145.52 100.6 139.39 86.94 129.6 60.18C125.83 49.87 121.41 42.22 115.47 38.89C108.39 34.93 100.29 35.19 92.44 37.22C89.52 37.97 86.3 39.07 83.37 40.73C79.44 42.96 75.99 47.04 75.06 51.46C74.41 54.47 73.85 58.37 74.36 61.28Z" fill="black"/>
<path d="M97.2003 103.15C97.4203 102.14 96.8403 101.55 96.0603 101.27C96.1703 100.67 96.1303 100.04 95.9003 99.48C95.4803 98.48 94.5303 97.82 93.4403 97.77C92.6903 97.74 92.0403 98.06 91.5703 98.57C91.3503 98.4 91.0803 98.27 90.7803 98.21C90.2603 98.1 89.6503 98.22 89.2203 98.52C88.9803 98.68 88.7703 98.91 88.6303 99.16C88.3003 99.11 87.9703 99.16 87.6703 99.28C87.0003 99.55 86.5103 100.14 86.2703 100.8C86.0303 101.47 86.1303 102.16 86.6003 102.7C86.6303 102.73 86.6603 102.76 86.6903 102.79C86.1703 103.34 85.8903 104.12 86.1103 104.89C86.2803 105.5 86.7303 106.01 87.2903 106.3C87.6003 106.46 87.9503 106.54 88.3003 106.55C88.4103 106.55 88.5203 106.53 88.6303 106.51V106.52C88.7503 106.81 88.9103 107.06 89.1203 107.3C89.4703 107.69 89.9503 107.96 90.4703 108.03C91.0703 108.11 91.6703 107.95 92.1303 107.54C92.3303 107.36 92.5003 107.14 92.6203 106.89C92.6403 106.86 92.6403 106.82 92.6603 106.78C92.8403 106.92 93.0303 107.06 93.2603 107.14C93.8103 107.35 94.4003 107.29 94.9003 106.98C95.6803 106.5 95.9203 105.68 95.8703 104.85C96.5103 104.53 97.0303 103.9 97.2003 103.15Z" fill="black"/>
<path d="M87.6099 70.86C86.9599 72.34 86.3599 73.83 85.7999 75.34C85.5099 76.11 85.2399 76.89 84.9799 77.67C84.7899 78.23 84.6099 78.81 84.6099 79.4C84.5999 80.75 85.6499 81.76 87.0099 81.78C88.4699 81.79 89.5299 80.7 89.7399 79.31C89.7999 78.9 89.3799 78.53 88.9999 78.52C88.5499 78.51 88.2699 78.85 88.2099 79.26C88.0899 80.05 87.1199 80.53 86.4399 80.08C85.7899 79.64 86.3299 78.49 86.5199 77.93C87.2799 75.69 88.1399 73.48 89.0899 71.31C89.2599 70.93 88.9499 70.47 88.5899 70.35C88.1299 70.22 87.7799 70.48 87.6099 70.86Z" fill="black"/>
<path d="M88.5099 79.13C88.2199 79.76 88.3599 80.57 88.7299 81.14C89.1699 81.81 89.8399 82.24 90.6299 82.36C91.2899 82.46 91.9699 82.25 92.4899 81.84C93.0399 81.4 93.2699 80.7 93.4199 80.05C93.5099 79.66 93.3299 79.2 92.9199 79.09C92.5399 78.99 92.0599 79.18 91.9599 79.59C91.8999 79.84 91.8299 80.08 91.7499 80.33C91.6999 80.48 91.8299 80.21 91.7399 80.36C91.7099 80.41 91.6799 80.46 91.6499 80.51C91.6299 80.53 91.6199 80.56 91.5999 80.58C91.5699 80.62 91.5799 80.61 91.6399 80.54C91.6099 80.55 91.5599 80.63 91.5399 80.65C91.5299 80.66 91.4299 80.75 91.4299 80.74C91.5199 80.68 91.5399 80.67 91.4699 80.71C91.4599 80.72 91.4399 80.73 91.4299 80.73C91.3899 80.75 91.3399 80.77 91.2999 80.8C91.1699 80.87 91.4599 80.75 91.2699 80.81C91.2199 80.82 91.1699 80.83 91.1199 80.84C91.0999 80.84 91.0699 80.85 91.0499 80.85C90.9699 80.86 90.9799 80.86 91.0999 80.85C91.0999 80.87 90.8299 80.84 90.7999 80.84C90.6299 80.83 90.9699 80.88 90.7999 80.84C90.7499 80.83 90.6999 80.82 90.6499 80.8C90.6099 80.79 90.5199 80.77 90.4899 80.74C90.5899 80.79 90.5999 80.79 90.5199 80.75C90.4999 80.74 90.4899 80.73 90.4699 80.72C90.4099 80.69 90.3499 80.65 90.2999 80.61C90.2799 80.59 90.2499 80.58 90.2299 80.56C90.2999 80.62 90.3099 80.63 90.2699 80.59C90.2299 80.55 90.1899 80.51 90.1499 80.47C90.1199 80.44 89.9699 80.28 90.0999 80.42C90.0599 80.38 89.9399 80.19 89.9499 80.14C89.9799 80.23 89.9899 80.25 89.9699 80.2C89.9599 80.17 89.9499 80.15 89.9499 80.12C89.9399 80.07 89.9299 80.02 89.9099 79.96C89.8799 79.8 89.8999 80.09 89.9099 79.94C89.9099 79.89 89.9099 79.83 89.9199 79.78C89.9199 79.63 89.8699 79.94 89.9299 79.75C89.9499 79.69 89.9699 79.63 89.9999 79.58C90.0799 79.42 90.0299 79.15 89.9499 79C89.8599 78.83 89.6799 78.67 89.4999 78.63C89.3099 78.58 89.0899 78.58 88.9199 78.68C88.6999 78.79 88.5999 78.93 88.5099 79.13Z" fill="black"/>
<path d="M82.5703 82.92C81.9703 83.25 81.4003 83.63 80.8603 84.06C80.7703 84.11 80.7003 84.18 80.6503 84.27C80.5803 84.35 80.5403 84.44 80.5203 84.54C80.4803 84.72 80.5103 84.96 80.6203 85.12C80.7303 85.28 80.9003 85.42 81.1003 85.46C81.2903 85.49 81.5203 85.48 81.6803 85.36C82.2203 84.93 82.7903 84.55 83.3903 84.22C83.5603 84.13 83.6903 83.92 83.7303 83.74C83.7703 83.56 83.7403 83.32 83.6303 83.16C83.5203 83 83.3503 82.86 83.1503 82.82C82.9403 82.78 82.7603 82.82 82.5703 82.92Z" fill="black"/>
<path d="M86.5603 83.7099C86.3203 84.0699 86.0903 84.4299 85.8503 84.7899C85.8003 84.8799 85.7703 84.9799 85.7703 85.0799C85.7503 85.1799 85.7603 85.2799 85.8003 85.3799C85.8603 85.5499 86.0003 85.7399 86.1703 85.8199C86.3503 85.9099 86.5703 85.94 86.7603 85.87C86.8203 85.84 86.8803 85.8099 86.9403 85.7899C87.0503 85.7199 87.1403 85.6199 87.2103 85.4999C87.4503 85.1399 87.6803 84.7799 87.9203 84.4199C87.9703 84.3299 88.0003 84.2299 88.0003 84.1299C88.0203 84.0299 88.0103 83.9299 87.9703 83.8299C87.9103 83.6599 87.7703 83.4699 87.6003 83.3899C87.4203 83.2999 87.2003 83.2699 87.0103 83.3399C86.9503 83.3699 86.8903 83.3999 86.8303 83.4199C86.7103 83.4999 86.6203 83.5899 86.5603 83.7099Z" fill="black"/>
<path d="M91.4303 84.34C91.4403 84.37 91.4603 84.39 91.4703 84.42C91.4403 84.36 91.4103 84.3 91.3903 84.24C91.5903 84.66 91.7303 85.1 91.8303 85.55C91.8703 85.73 92.0503 85.91 92.2003 85.99C92.3703 86.08 92.6103 86.11 92.7903 86.04C92.9703 85.97 93.1503 85.85 93.2303 85.67C93.2503 85.61 93.2803 85.54 93.3003 85.48C93.3303 85.35 93.3203 85.21 93.2803 85.08C93.1603 84.53 92.9603 84.01 92.7203 83.51C92.6703 83.42 92.6003 83.35 92.5103 83.3C92.4303 83.23 92.3403 83.19 92.2403 83.17C92.0603 83.13 91.8203 83.16 91.6603 83.27C91.5003 83.38 91.3603 83.55 91.3203 83.75C91.3103 83.82 91.3103 83.89 91.3003 83.95C91.3203 84.1 91.3603 84.23 91.4303 84.34Z" fill="black"/>
<path d="M95.8299 82.6C96.0699 82.85 96.3099 83.1 96.5499 83.36C96.6199 83.43 96.7099 83.48 96.8099 83.51C96.8999 83.55 96.9999 83.57 97.1099 83.56C97.2099 83.56 97.3099 83.53 97.3899 83.48C97.4799 83.45 97.5599 83.39 97.6299 83.31C97.7599 83.16 97.8499 82.96 97.8299 82.75C97.8199 82.68 97.8099 82.62 97.7899 82.55C97.7499 82.42 97.6799 82.31 97.5799 82.22C97.3399 81.97 97.0999 81.72 96.8599 81.46C96.7899 81.39 96.6999 81.34 96.5999 81.31C96.5099 81.27 96.4099 81.25 96.2999 81.26C96.1999 81.26 96.0999 81.29 96.0199 81.34C95.9299 81.37 95.8499 81.43 95.7799 81.51C95.6499 81.66 95.5599 81.86 95.5799 82.07C95.5899 82.14 95.5999 82.2 95.6199 82.27C95.6599 82.4 95.7299 82.5 95.8299 82.6Z" fill="black"/>
<path d="M99.1501 83.41C99.2101 84.5 99.8701 85.38 100.7 86.04C101.51 86.69 102.66 87.05 103.67 86.69C104.01 86.57 104.31 86.26 104.2 85.87C104.11 85.54 103.74 85.21 103.38 85.34C103.29 85.37 103.19 85.4 103.1 85.42C103.05 85.43 102.99 85.44 102.94 85.45C103.01 85.44 102.99 85.45 102.93 85.45C102.83 85.45 102.73 85.45 102.64 85.44C102.59 85.43 102.53 85.43 102.48 85.42C102.55 85.43 102.52 85.43 102.47 85.41C102.37 85.38 102.28 85.36 102.19 85.32C102.14 85.3 102.09 85.28 102.04 85.26C101.99 85.24 101.97 85.22 102.03 85.26C101.86 85.16 101.69 85.06 101.53 84.93C101.5 84.9 101.46 84.88 101.43 84.85C101.34 84.78 101.54 84.96 101.4 84.82C101.33 84.75 101.26 84.69 101.2 84.62C101.07 84.48 100.96 84.34 100.84 84.19C100.78 84.11 100.89 84.27 100.84 84.18C100.81 84.14 100.79 84.09 100.76 84.05C100.71 83.97 100.67 83.89 100.64 83.8C100.63 83.79 100.59 83.67 100.62 83.74C100.65 83.83 100.6 83.67 100.6 83.65C100.59 83.61 100.58 83.57 100.57 83.53C100.57 83.51 100.55 83.31 100.56 83.47C100.54 83.11 100.31 82.74 99.9101 82.74C99.5401 82.76 99.1301 83.03 99.1501 83.41Z" fill="black"/>
<path d="M85.2799 90.62C88.0299 90.87 90.8299 90.6 93.4699 89.79C96.0699 88.99 98.74 87.74 100.73 85.85C101.59 85.03 100.37 83.65 99.4999 84.47C97.6899 86.19 95.2199 87.35 92.8399 88.05C90.4099 88.76 87.8999 89 85.3799 88.77C84.1999 88.66 84.0999 90.51 85.2799 90.62Z" fill="black"/>
<path d="M100.53 84.54C99.4302 84.55 98.5102 85.82 97.6102 86.36C96.5802 86.98 95.5102 87.47 94.4002 87.93C92.7902 88.61 91.0402 88.63 89.2902 88.81C88.3302 88.91 87.4702 89.12 86.5402 89.36C86.3902 89.4 86.2702 89.47 86.1702 89.55C85.9002 89.73 85.7302 90.04 85.8302 90.46C86.6502 93.8 89.5002 96.51 93.1202 95.71C96.1802 95.03 98.8002 92.83 100.47 90.25C100.87 89.64 101.21 89 101.52 88.34C101.82 87.7 102.32 86.81 102.34 86.09C102.36 85.16 101.37 84.53 100.53 84.54Z" fill="black"/>
<path d="M95.4302 90.2C93.7602 92.28 93.9302 94.32 94.2102 95.4C96.8002 94.5 99.0003 92.52 100.48 90.25C100.87 89.65 101.2 89.02 101.51 88.38C99.9302 88.15 97.1102 88.11 95.4302 90.2Z" fill="#EA525F"/>
<path d="M79.8201 63.47C81.2101 61.94 83.9601 61.21 85.1101 63.36C86.0301 65.07 88.7101 63.6799 87.7901 61.9599C85.7401 58.1499 80.54 58.19 77.78 61.24C76.49 62.67 78.5101 64.91 79.8201 63.47Z" fill="black"/>
<path d="M106.7 65.08C105.99 63.13 104.19 61.7 102.22 61.13C99.7699 60.43 97.4199 61.23 95.5099 62.81C94.0099 64.05 96.0499 66.28 97.5499 65.04C99.7099 63.24 102.99 63.67 104.01 66.47C104.68 68.29 107.36 66.88 106.7 65.08Z" fill="black"/>
<path d="M72.7399 66.17C72.1299 72.94 71.9299 79.84 72.4599 86.63C72.6299 88.82 72.9799 90.79 73.7499 92.84C75.8699 98.46 80.3699 102.75 86.4099 103.73C92.2699 104.68 98.2899 102.55 103.49 100.03C105.24 99.18 103.84 96.5 102.09 97.35C95.4599 100.55 86.1599 103.38 80.1499 97.42C77.2499 94.54 75.8699 90.99 75.4999 87.08C74.8499 80.23 75.1299 73.18 75.7499 66.34C75.9399 64.4 72.9199 64.24 72.7399 66.17Z" fill="black"/>
<path d="M79.2801 66.66C79.2801 66.66 76.6701 67.81 77.2301 70.05C77.6501 71.76 78.7201 71.59 80.2301 71.04C81.7001 70.51 82.5201 70.55 83.5301 71.15C84.5401 71.75 86.1201 71.79 86.4801 70.13C86.8201 68.47 83.9901 64.45 79.2801 66.66Z" fill="white"/>
<path d="M96.6699 68.1C96.6699 68.1 94.1599 68.86 94.4899 71.14C94.8199 73.42 97.4199 72.09 98.6599 72.26C99.8999 72.43 101.12 74.3 102.8 73.99C104.48 73.68 105.49 72.54 104.17 70.2C102.84 67.86 100.29 66.94 96.6699 68.1Z" fill="white"/>
<path d="M83.75 70.54C81.52 71.47 80.07 67.94 82.3 67.01C84.54 66.07 85.99 69.61 83.75 70.54Z" fill="black"/>
<path d="M101.17 72.0899C98.9399 73.0199 97.4899 69.4899 99.7199 68.5599C101.96 67.6199 103.41 71.1599 101.17 72.0899Z" fill="black"/>
<path d="M65.9701 129.58C64.5001 136.57 63.9601 143.7 63.8601 150.84C63.8301 153.22 63.8401 155.6 63.8901 157.98C63.9001 158.43 64.2001 158.84 64.6801 158.87C65.1101 158.89 65.5701 158.54 65.5701 158.08C65.4301 150.54 65.5601 142.96 66.6201 135.48C66.8801 133.68 67.1901 131.89 67.5601 130.11C67.6501 129.67 67.4901 129.2 67.0201 129.05C66.6301 128.92 66.0601 129.14 65.9701 129.58Z" fill="#3A3A3A"/>
<path fill-rule="evenodd" clip-rule="evenodd" d="M59.2297 167.6C59.2297 167.6 56.6297 167.76 53.7297 167.47C50.8297 167.18 47.4497 164.61 44.4797 165.75C41.5197 166.89 41.0097 170.54 46.4897 172.02C51.9697 173.5 52.5197 174.77 53.8497 178.55C55.1697 182.34 55.8097 185.05 60.1197 183.32C60.1197 183.32 61.9697 185.47 64.5097 184.63C67.0497 183.79 67.4597 182.81 67.4597 182.81C67.4597 182.81 71.4497 184.25 74.1597 180.87C76.8697 177.49 78.2097 173.17 79.7497 168.7C81.2997 164.23 75.9697 162.27 74.3497 165.64C74.3497 165.64 74.6797 162.98 72.0897 162.07C69.4897 161.17 68.3297 163.1 67.3597 165.52C66.3897 167.94 65.3497 170.38 65.3497 170.38C65.3497 170.38 65.4097 168.24 65.7897 166.41C66.1697 164.57 63.1597 162.07 61.3497 163.9C59.5297 165.72 59.2297 167.6 59.2297 167.6Z" fill="#A85630"/>
<path fill-rule="evenodd" clip-rule="evenodd" d="M57.0599 174.6C58.5599 172.28 59.1899 169.18 60.3099 166.64C60.6199 165.93 61.1099 164.69 61.8099 164.29C63.2199 163.48 64.4099 164.14 64.8499 165.34C65.3799 166.77 64.5799 168.85 64.1799 170.24C63.9499 171.05 65.2399 171.25 65.4699 170.45C66.1699 167.99 67.3199 162.89 63.2599 162.61C61.5399 162.49 60.3399 163.68 59.5899 165.1C58.1599 167.81 57.6999 171.24 56.0499 173.79C55.5899 174.49 56.5999 175.31 57.0599 174.6Z" fill="black"/>
<path fill-rule="evenodd" clip-rule="evenodd" d="M61.1196 181.38C62.5796 177.8 64.0796 174.24 65.4196 170.62C65.7096 169.84 64.5196 169.3 64.2296 170.09C62.8996 173.72 61.3996 177.28 59.9296 180.85C59.6096 181.62 60.7996 182.15 61.1196 181.38Z" fill="black"/>
<path fill-rule="evenodd" clip-rule="evenodd" d="M51.8796 176.79C52.8096 179.24 54.0396 182.42 56.5996 183.62C58.9396 184.71 60.6996 182.4 61.5396 180.49C61.8796 179.72 60.6896 179.19 60.3496 179.96C60.0396 180.66 59.6396 181.4 59.0796 181.93C57.7796 183.17 56.3996 182.1 55.4696 180.98C54.3496 179.62 53.7096 177.95 53.0896 176.32C52.7996 175.54 51.5796 176.01 51.8796 176.79Z" fill="black"/>
<path fill-rule="evenodd" clip-rule="evenodd" d="M61.1798 180.84C61.9598 180.54 61.4898 179.32 60.7098 179.62C59.9298 179.92 60.3998 181.14 61.1798 180.84Z" fill="black"/>
<path fill-rule="evenodd" clip-rule="evenodd" d="M51.2896 167.59C53.8896 167.84 56.4896 168.11 59.0896 168.41C59.9196 168.51 60.1296 167.22 59.2996 167.12C56.6996 166.82 54.0996 166.55 51.4996 166.3C50.6696 166.23 50.4596 167.51 51.2896 167.59Z" fill="black"/>
<path fill-rule="evenodd" clip-rule="evenodd" d="M78.2497 170.22C78.2497 170.22 79.9397 165.81 82.7597 168.74C85.5797 171.67 81.4097 180.38 80.0397 181.76C78.6697 183.13 74.7197 182.96 74.1497 180.88C73.5997 178.8 78.2497 170.22 78.2497 170.22Z" fill="#A85630"/>
<path d="M73.6696 182.42C77.3296 179.51 78.4896 174.42 80.2096 170.3C80.3696 169.92 80.0396 169.47 79.6796 169.37C79.2496 169.25 78.9096 169.52 78.7496 169.9C77.8996 171.94 77.2096 174.04 76.2996 176.06C75.4096 178.02 74.3096 180 72.5996 181.36C71.8396 181.96 72.9196 183.02 73.6696 182.42Z" fill="black"/>
<path d="M72.9498 167.16C72.0798 169.96 70.7998 172.65 69.5998 175.33C69.0498 176.57 68.4898 177.81 67.9498 179.05C67.2598 180.66 66.5498 182.66 64.7198 183.26C63.7998 183.56 64.1898 185.02 65.1198 184.72C67.0598 184.09 68.1298 182.42 68.9098 180.63C69.5098 179.25 70.1098 177.88 70.7198 176.51C72.0298 173.58 73.4498 170.63 74.3998 167.56C74.6998 166.63 73.2398 166.23 72.9498 167.16Z" fill="black"/>
</g>
<defs>
<clipPath id="clip0_520_4518">
<rect width="200" height="200" fill="white"/>
</clipPath>
</defs>
</svg>
