<svg width="200" height="200" viewBox="0 0 200 200" fill="none" xmlns="http://www.w3.org/2000/svg">
<g clip-path="url(#clip0_520_4520)">
<path d="M100 200C155.228 200 200 155.228 200 100C200 44.7715 155.228 0 100 0C44.7715 0 0 44.7715 0 100C0 155.228 44.7715 200 100 200Z" fill="#BCE37C"/>
<path d="M30.3298 108.88C29.6998 103.46 28.8198 95.2299 28.7498 91.1299C28.6498 84.7099 27.5798 69.5499 28.6398 67.1299C29.6198 64.8899 30.5298 64.6199 30.5298 64.6199C30.5298 64.6199 30.3498 62.1199 30.8998 60.9099C31.7698 58.9899 33.2498 59.0399 33.2498 59.0399C33.2498 59.0399 32.8998 57.0199 34.7398 55.9499C36.5798 54.8799 37.8498 55.9799 38.5298 56.5199C39.5598 57.3299 40.2698 59.5599 40.2698 59.5599C40.2698 59.5599 41.4698 57.9299 43.4998 58.9399C49.0698 61.7299 50.8498 82.9099 50.8498 82.9099C50.8498 82.9099 57.5198 85.9499 57.6398 92.4699C57.8098 101.45 50.0998 106.27 50.0998 106.27C50.0998 106.27 30.6898 111.95 30.3298 108.88Z" fill="#B86C51"/>
<path d="M48.0395 90.23C44.4595 92.81 42.6095 97.23 43.2495 101.59C43.3095 102 43.8195 102.21 44.1795 102.12C44.6095 102.01 44.7695 101.59 44.7095 101.19C44.1695 97.56 45.8295 93.68 48.7995 91.53C49.5795 90.97 48.8295 89.66 48.0395 90.23Z" fill="black"/>
<path d="M35.8099 80.4999C37.6799 81.3399 38.2299 83.7299 38.2599 85.5999C38.2999 87.7199 37.6299 89.7799 36.3799 91.4899C35.8099 92.2799 37.1199 93.0299 37.6799 92.2499C39.1499 90.2399 39.8999 87.6999 39.7499 85.2199C39.6199 82.9599 38.8099 80.2099 36.5699 79.1999C35.6899 78.7999 34.9199 80.0999 35.8099 80.4999Z" fill="black"/>
<path d="M51.4999 82.71C50.4199 81.91 49.1099 81.2099 47.7499 81.0999C46.6899 81.0099 45.5799 81.35 44.7399 82.01C42.6699 83.63 43.1899 86.8499 44.7699 88.5999C45.7999 89.7499 47.1599 90.67 48.4499 91.5C49.2699 92.02 50.0299 90.7199 49.2099 90.1999C48.0199 89.4399 46.7899 88.6 45.8399 87.54C45.0699 86.68 44.6299 85.29 45.0299 84.16C45.3599 83.24 46.1099 82.73 47.0799 82.61C48.3999 82.45 49.7199 83.25 50.7299 84.01C51.0599 84.25 51.5699 84.0599 51.7599 83.7399C51.9899 83.3599 51.8299 82.95 51.4999 82.71Z" fill="black"/>
<path d="M30.8396 66.0599C32.0796 65.7499 32.9896 66.9099 33.3396 67.9499C33.7396 69.1399 33.8196 70.4599 33.9896 71.6999C34.3796 74.5199 34.7696 77.3399 35.1596 80.1599C35.2896 81.1199 36.7496 80.7099 36.6196 79.7599C36.1496 76.3799 35.6896 72.9899 35.2196 69.6099C35.0296 68.2599 34.7596 66.8399 33.8396 65.7799C32.9896 64.8099 31.7196 64.2999 30.4496 64.6199C29.4996 64.8399 29.8996 66.2999 30.8396 66.0599Z" fill="black"/>
<path d="M33.78 60.4799C36.52 61.1199 37.22 64.9999 37.68 67.3099C38.31 70.5099 38.65 73.7799 39.09 77.0099C39.22 77.9699 40.68 77.5599 40.55 76.6099C40.05 72.9799 39.73 69.2699 38.87 65.6999C38.24 63.0999 37.14 59.7199 34.18 59.0299C33.23 58.7999 32.83 60.2499 33.78 60.4799Z" fill="black"/>
<path d="M40.4396 59.55C42.2896 65.16 43.2896 71 43.3796 76.91C43.3996 77.88 44.8996 77.88 44.8896 76.91C44.7896 70.87 43.7796 64.88 41.8896 59.15C41.5896 58.23 40.1396 58.62 40.4396 59.55Z" fill="black"/>
<path d="M37.1897 79.9099C39.8297 78.4399 42.9497 77.8699 45.9397 78.3499C46.3397 78.4099 46.7497 78.2499 46.8697 77.8199C46.9697 77.4599 46.7497 76.9599 46.3397 76.8899C42.9297 76.3399 39.4497 76.9199 36.4297 78.5999C35.5797 79.0799 36.3397 80.3799 37.1897 79.9099Z" fill="black"/>
<path d="M46.8496 108.21C48.0996 108.16 49.3096 107.83 50.4096 107.23C50.7596 107.04 50.8996 106.53 50.6796 106.2C50.4496 105.85 50.0196 105.73 49.6496 105.93C49.5296 105.99 49.4196 106.05 49.2996 106.11C49.2296 106.14 49.1596 106.17 49.0996 106.2C48.9396 106.27 49.2196 106.15 49.0696 106.21C48.8196 106.31 48.5596 106.4 48.2996 106.47C48.0496 106.54 47.7896 106.6 47.5296 106.64C47.4796 106.65 47.2796 106.7 47.4796 106.65C47.4196 106.67 47.3496 106.67 47.2796 106.67C47.1396 106.68 46.9996 106.69 46.8596 106.7C46.4696 106.71 46.0896 107.04 46.1096 107.45C46.1096 107.85 46.4296 108.22 46.8496 108.21Z" fill="black"/>
<path d="M181.63 157.78C177.7 145.17 173.63 134.04 170.39 128.82C157.55 108.09 130.34 105.08 110.04 105.09C81.6497 105.1 66.0397 113.09 52.4397 132.28C46.6697 140.42 49.6497 168.58 52.5197 188.03C66.6397 195.66 82.8197 200 99.9997 200C133.7 200 163.51 183.33 181.63 157.78Z" fill="#EF9AC2"/>
<path d="M151.99 151.97C152.82 156.31 153.78 160.62 154.54 164.97C155.42 170.01 155.92 175.1 156.34 180.2C156.49 181.97 159.27 181.99 159.12 180.2C158.68 174.95 158.16 169.69 157.26 164.49C156.49 160.05 155.51 155.65 154.66 151.23C154.34 149.47 151.65 150.22 151.99 151.97Z" fill="#E66FA9"/>
<path d="M112.37 125.95C112.49 125.2 113.37 124.87 113.94 125.37C116.42 127.55 121.96 132.96 123.64 139.25C125.08 144.67 124.73 148.22 124.32 150C124.16 150.69 123.36 150.99 122.8 150.56C120.65 148.89 115.9 144.8 114.07 139.98C111.65 133.56 111.97 128.42 112.37 125.95Z" fill="#901E5E"/>
<path d="M128.52 93.63C128.52 93.63 131.33 99.88 137.64 98.24C142.55 96.96 141.49 90.19 141.49 90.19C141.49 90.19 147.37 91.11 149.34 85.3C150.76 81.11 147.25 78.22 147.25 78.22C147.25 78.22 152.77 76.47 153.29 69.28C153.85 61.67 148.05 59.49 148.05 59.49C148.05 59.49 151.15 54.1 147.82 51.1C143.78 47.46 139.01 49.84 139.01 49.84C139.01 49.84 138.38 41.36 134.07 40C126.32 37.56 122.75 43.01 122.75 43.01C122.75 43.01 123.89 38.39 118.19 35.42C113.46 32.95 109.21 37.56 109.21 37.56C109.21 37.56 107.63 31.49 100.68 32.56C95.5097 33.36 95.3797 39.77 95.3797 39.77C95.3797 39.77 90.2997 37.37 85.6697 40.87C79.0997 45.84 81.6397 54.17 81.6397 54.17C81.6397 54.17 75.7097 53.12 73.6397 58.58C71.3197 64.71 76.3397 67.4 76.3397 67.4C76.3397 67.4 73.1897 72.86 78.8697 75.25C81.3897 76.32 128.52 93.63 128.52 93.63Z" fill="black"/>
<path d="M140.89 76.4499C140.89 76.4499 142.29 65.5899 136.07 56.5499C129.45 46.9299 118.98 43.4599 103.77 46.0899C88.5696 48.7199 82.6696 59.9999 80.3696 69.9999L122.23 75.4299L120.06 93.2099L131.69 94.8499L140.89 76.4499Z" fill="black"/>
<path d="M131.6 81.35C131.6 81.35 132.89 74.46 137.07 73.51C141.25 72.55 142.89 75.33 142.49 80.18C142.09 85.04 138.7 89.89 133.7 88.77C133.7 88.77 130.61 99.23 131.2 105.48C131.2 105.48 125.1 107.07 120.7 111.06C112.15 118.81 111.82 123.32 111.82 123.32C111.07 119 106.44 117.61 106.44 117.61C106.44 117.61 88.2799 118.32 81.6999 108.48C72.6099 94.89 81.2399 70.02 81.2399 70.02C81.2399 70.02 81.9499 67.72 83.4899 65.19C83.4899 65.19 86.3999 65.29 88.7799 63.67C92.0199 61.47 92.0899 58.55 92.0899 58.55C92.0899 58.55 93.4499 62.26 99.6099 61.92C103.01 61.73 105.33 60.58 107.58 56.98C107.58 56.98 107.82 61.15 112.61 63.25C116.68 65.04 120.61 62.71 120.61 62.71C116.97 66.29 120.87 75.13 126.26 74.06C126.26 74.06 124.51 82.36 127.45 83.76C129.12 84.55 131.02 83.29 131.6 81.35Z" fill="#DC7B6A"/>
<path d="M110.8 114.9C106.12 116.05 101 115.99 96.2796 115.03C91.3896 114.03 87.3296 111.63 84.1496 107.75C76.4796 98.42 78.2996 86.0999 80.8996 75.2499C81.9996 70.6499 83.3296 65.7999 85.8996 61.7799C86.8196 60.3399 84.5296 59.0099 83.6096 60.4399C81.0696 64.4199 79.6696 69.21 78.5296 73.76C77.1196 79.41 75.8396 85.3299 75.8896 91.1699C75.9896 102.49 82.3596 114.11 93.8396 117.17C99.4896 118.68 105.81 118.84 111.49 117.44C113.16 117.05 112.46 114.49 110.8 114.9Z" fill="black"/>
<path d="M104.33 111.35C101.4 112.47 98.0897 112.45 95.2197 111.15C94.8197 110.97 94.3497 111.04 94.1197 111.44C93.9197 111.79 94.0097 112.36 94.4097 112.54C97.6697 114.01 101.42 114.18 104.77 112.9C105.18 112.74 105.46 112.36 105.33 111.91C105.22 111.53 104.74 111.19 104.33 111.35Z" fill="black"/>
<path d="M138.44 77.42C137.08 77.55 136.03 78.48 135.5 79.72C134.9 81.14 135.14 82.7 135.37 84.18C135.44 84.61 135.98 84.85 136.36 84.74C136.82 84.61 136.99 84.18 136.92 83.75C136.75 82.67 136.56 81.5 136.94 80.44C136.94 80.43 137 80.29 136.97 80.35C136.95 80.41 137.01 80.27 137.01 80.26C137.06 80.15 137.12 80.04 137.19 79.94C137.22 79.89 137.25 79.85 137.28 79.8C137.3 79.77 137.36 79.7 137.3 79.77C137.38 79.67 137.46 79.59 137.55 79.5C137.59 79.46 137.63 79.43 137.67 79.39C137.77 79.3 137.59 79.44 137.7 79.37C137.8 79.3 137.9 79.24 138 79.18C138.04 79.16 138.1 79.13 138.02 79.16C138.07 79.14 138.12 79.12 138.17 79.11C138.23 79.09 138.3 79.07 138.36 79.06C138.39 79.05 138.56 79.03 138.42 79.05C138.85 79.01 139.23 78.71 139.23 78.24C139.25 77.82 138.88 77.38 138.44 77.42Z" fill="black"/>
<path d="M95.7097 88C95.7697 86.54 95.9897 85.08 96.2297 83.65C96.4697 82.21 96.7397 80.76 97.1497 79.36C97.4497 78.34 99.0697 78.73 98.7597 79.75C98.0997 81.97 97.7297 84.31 97.4697 86.61C97.3597 87.62 97.0897 89.06 97.6697 89.96C98.3097 90.94 99.8897 90.55 99.9697 89.37C100.04 88.33 101.63 88.23 101.63 89.32C101.63 89.82 102 90.34 102.55 90.33C103.09 90.32 103.44 89.77 103.41 89.28C103.35 88.21 105.01 88.16 105.07 89.23C105.15 90.63 104.03 91.94 102.6 91.99C101.91 92.02 101.27 91.72 100.8 91.26C100.17 91.94 99.2597 92.33 98.2297 92.15C96.2097 91.77 95.6397 89.79 95.7097 88Z" fill="black"/>
<path d="M136.9 90.65C137.18 90.63 137.48 90.54 137.79 90.4C138.29 90.17 138.64 89.72 138.79 89.14C138.96 88.46 138.81 87.69 138.4 87.13C137.66 86.13 136.23 86.31 136.17 86.32C136.17 86.32 135.6 86.36 135.68 86.92C135.74 87.37 136.3 87.28 136.3 87.28C136.31 87.28 137.23 87.17 137.63 87.71C137.87 88.04 137.96 88.5 137.86 88.91C137.82 89.08 137.7 89.39 137.39 89.54C137.01 89.72 136.66 89.68 136.41 89.57C136.06 89.4 135.93 89.07 135.89 88.9C135.89 88.9 135.68 88.93 135.37 88.94C135.06 88.96 134.86 88.94 134.86 88.94C134.88 89.05 135.2 90.1 136.02 90.5C136.28 90.62 136.58 90.68 136.9 90.65Z" fill="#FBE574"/>
<path d="M107.28 73C107.54 72.83 107.81 72.67 108.09 72.53C108.16 72.5 108.23 72.46 108.3 72.43C108.15 72.49 108.15 72.49 108.3 72.43C108.45 72.38 108.59 72.32 108.74 72.28C108.89 72.24 109.04 72.2 109.19 72.17C109.27 72.15 109.34 72.14 109.42 72.13C109.25 72.15 109.24 72.15 109.4 72.13C109.71 72.11 110.01 72.11 110.32 72.13C110.48 72.15 110.46 72.14 110.27 72.12C110.34 72.13 110.41 72.14 110.48 72.16C110.62 72.19 110.75 72.22 110.89 72.26C110.95 72.28 111.4 72.43 111.05 72.3C111.18 72.35 111.31 72.42 111.42 72.49C111.54 72.56 111.66 72.64 111.77 72.71C111.89 72.8 111.88 72.79 111.74 72.68C111.79 72.72 111.85 72.77 111.9 72.81C112 72.9 112.1 73 112.19 73.1C112.24 73.15 112.28 73.2 112.32 73.26C112.21 73.12 112.2 73.11 112.29 73.23C112.7 73.82 113.51 74.14 114.17 73.72C114.76 73.34 115.1 72.47 114.66 71.84C113.69 70.42 112.21 69.59 110.52 69.39C108.9 69.19 107.22 69.72 105.87 70.61C105.27 71.01 104.96 71.84 105.38 72.49C105.78 73.11 106.64 73.43 107.28 73Z" fill="black"/>
<path d="M86.1696 72.62C86.2096 72.58 86.5896 72.28 86.3496 72.46C86.4796 72.37 86.5996 72.28 86.7396 72.19C86.9996 72.02 87.2796 71.87 87.5596 71.74C87.2696 71.88 87.7196 71.68 87.7696 71.66C87.9196 71.61 88.0696 71.57 88.2196 71.53C88.3696 71.49 88.5196 71.46 88.6796 71.44C88.3396 71.5 88.8196 71.43 88.8896 71.43C89.0396 71.42 89.1896 71.42 89.3296 71.43C89.4196 71.43 89.8696 71.41 89.5196 71.44C89.7796 71.42 90.1296 71.59 90.3796 71.67C90.5196 71.73 90.5196 71.72 90.3596 71.66C90.4296 71.69 90.4896 71.72 90.5596 71.76C90.6896 71.83 90.8196 71.9 90.9396 71.98C90.9996 72.02 91.0596 72.06 91.1196 72.11C90.9896 72.01 90.9796 72 91.0996 72.1C91.2096 72.2 91.3096 72.3 91.4196 72.41C91.9096 72.94 92.8696 72.94 93.3596 72.41C93.8796 71.85 93.8896 71.03 93.3596 70.47C92.2396 69.27 90.5396 68.63 88.8996 68.7C87.1396 68.78 85.5496 69.55 84.2496 70.7C83.7096 71.18 83.7296 72.16 84.2496 72.64C84.8096 73.15 85.5996 73.13 86.1696 72.62Z" fill="black"/>
<path d="M107.65 118.13C109.08 118.86 111.31 120.44 111.81 123.32C111.81 123.32 112.14 118.81 120.69 111.06C125.09 107.07 131.19 105.48 131.19 105.48C131.08 104.31 131.1 103 131.2 101.63C132.83 101.78 134.37 102.44 135.31 104.08C138.69 108.46 127.78 131.49 111.65 132.45C106.72 132.74 102.29 128.01 99.2197 118.17L107.65 118.13Z" fill="#901E5E"/>
<path d="M130.68 108.3C127.65 113.55 123.9 118.33 119.51 122.52C118.57 123.42 120 124.84 120.93 123.94C125.43 119.64 129.3 114.71 132.41 109.32C133.07 108.19 131.33 107.18 130.68 108.3Z" fill="#78111B"/>
<path d="M112.71 126.83C113.36 126.45 114.18 126.92 114.15 127.68C114.04 130.98 113.37 138.69 109.56 143.98C106.28 148.53 103.31 150.51 101.68 151.32C101.05 151.63 100.31 151.2 100.29 150.5C100.22 147.78 100.37 141.51 102.94 137.04C106.37 131.1 110.54 128.09 112.71 126.83Z" fill="#901E5E"/>
<path d="M115.69 123.75C114.48 122.46 112.74 121.9 111.01 122.29C109.44 122.65 108.33 123.79 107.54 125.13C106.62 126.68 106 128.59 106.17 130.42C106.34 132.22 107.38 134.05 109.02 134.9C110.94 135.89 113.09 135.51 114.72 134.17C115.14 133.82 115.08 133.11 114.72 132.75C114.3 132.33 113.72 132.4 113.3 132.75C111.33 134.37 108.56 133.03 108.19 130.57C107.99 129.21 108.41 127.76 109.04 126.57C109.31 126.05 109.62 125.57 109.99 125.15C110.31 124.79 110.69 124.52 111.06 124.38C111.6 124.18 112.14 124.11 112.62 124.22C113.28 124.36 113.79 124.68 114.26 125.18C115.16 126.12 116.58 124.7 115.69 123.75Z" fill="#78111B"/>
<path d="M108.81 134.16C108.08 135.34 107.37 136.53 106.71 137.75C106.46 138.21 106.58 138.87 107.07 139.13C107.54 139.38 108.18 139.26 108.45 138.77C109.12 137.55 109.82 136.36 110.55 135.18C110.83 134.73 110.66 134.05 110.19 133.8C109.69 133.54 109.11 133.68 108.81 134.16Z" fill="#78111B"/>
<path d="M104.44 123.29C105.09 124.57 105.96 125.74 106.98 126.74C107.36 127.11 108.03 127.14 108.4 126.74C108.77 126.34 108.8 125.71 108.4 125.32C107.98 124.91 107.6 124.48 107.24 124.02C107.29 124.09 107.34 124.16 107.4 124.22C106.93 123.61 106.52 122.96 106.17 122.27C105.93 121.8 105.23 121.63 104.79 121.91C104.32 122.22 104.19 122.79 104.44 123.29Z" fill="#78111B"/>
<path d="M111.779 79.11C112.139 78.51 112.529 77.93 112.939 77.37C113.029 77.25 113.039 77.04 112.999 76.9C112.959 76.76 112.849 76.61 112.719 76.54C112.579 76.47 112.409 76.43 112.249 76.48C112.089 76.53 111.989 76.62 111.889 76.76C111.479 77.32 111.089 77.9 110.729 78.5C110.559 78.77 110.659 79.18 110.949 79.33C111.249 79.48 111.599 79.39 111.779 79.11Z" fill="black"/>
<path d="M113.16 80.2699C113.59 79.9499 114.04 79.6499 114.51 79.3799C114.64 79.2999 114.75 79.1599 114.79 79.0199C114.83 78.8799 114.81 78.6799 114.73 78.5499C114.55 78.2699 114.2 78.1599 113.9 78.3299C113.43 78.5999 112.98 78.8999 112.55 79.2199C112.42 79.3199 112.32 79.4199 112.27 79.5799C112.23 79.7199 112.25 79.9199 112.33 80.0499C112.41 80.1799 112.54 80.2899 112.69 80.3299C112.84 80.3699 113.03 80.3699 113.16 80.2699Z" fill="black"/>
<path d="M86.7599 78.1C86.3099 77.5 85.8399 76.92 85.3399 76.36C85.1299 76.12 84.6999 76.13 84.4899 76.36C84.2599 76.61 84.2599 76.96 84.4899 77.21C84.8899 77.66 85.2799 78.13 85.6499 78.61C85.6199 78.57 85.5899 78.53 85.5599 78.49C85.6199 78.56 85.6699 78.64 85.7299 78.71C85.8299 78.84 85.9299 78.94 86.0899 78.99C86.2299 79.03 86.4299 79.01 86.5599 78.93C86.6899 78.85 86.7999 78.72 86.8399 78.57C86.8499 78.42 86.8499 78.23 86.7599 78.1Z" fill="black"/>
<path d="M85.0499 78.98C84.5899 78.7 84.1099 78.45 83.6199 78.22C83.4699 78.15 83.3199 78.11 83.1499 78.16C83.0099 78.2 82.8599 78.31 82.7899 78.44C82.7199 78.58 82.6799 78.75 82.7299 78.91C82.7799 79.05 82.8699 79.21 83.0099 79.27C83.4999 79.49 83.9799 79.75 84.4399 80.03C84.7099 80.19 85.1199 80.1 85.2699 79.81C85.4199 79.52 85.3399 79.16 85.0499 78.98Z" fill="black"/>
<path d="M113.59 79.99C112.4 78.71 110.74 77.94 109 77.84C107.21 77.74 105.45 78.43 104.12 79.62C103.32 80.34 104.5 81.52 105.3 80.8C107.37 78.94 110.53 79.15 112.41 81.16C113.15 81.95 114.32 80.77 113.59 79.99Z" fill="black"/>
<path d="M93.2198 78.65C91.9398 77.54 90.2598 76.89 88.5498 77C86.8898 77.11 85.3098 77.85 84.1798 79.08C83.4498 79.87 84.6298 81.05 85.3598 80.26C87.0998 78.37 90.0598 78.11 92.0298 79.83C92.3698 80.13 92.8798 80.16 93.2098 79.83C93.5198 79.53 93.5598 78.95 93.2198 78.65Z" fill="black"/>
<path d="M104.34 99.5599C106.57 99.8799 108.85 99.7999 110.89 98.7499C112.91 97.7099 114.44 95.8599 115.18 93.7299C115.54 92.7099 113.92 92.2799 113.57 93.2899C112.96 95.0199 111.67 96.4799 110.04 97.3199C108.43 98.1499 106.53 98.2199 104.77 97.9699C104.32 97.9099 103.87 98.0799 103.74 98.5499C103.65 98.9199 103.89 99.4999 104.34 99.5599Z" fill="black"/>
<path d="M112.22 90.7299C112.36 91.9499 113.07 92.9999 114.14 93.5999C115.3 94.2599 116.69 94.2899 117.97 94.0099C118.4 93.9199 118.69 93.3999 118.55 92.9799C118.4 92.5299 117.98 92.2999 117.52 92.3999C117.4 92.4299 117.28 92.4499 117.16 92.4699C117.11 92.4799 116.98 92.4899 117.1 92.4799C117.05 92.4899 116.99 92.4899 116.94 92.4999C116.68 92.5199 116.42 92.5199 116.17 92.5099C116.1 92.5099 116.04 92.4999 115.97 92.4899C116.06 92.4999 116.01 92.4999 115.95 92.4899C115.83 92.4699 115.71 92.4399 115.6 92.4099C115.48 92.3799 115.37 92.3399 115.25 92.2999C115.01 92.2099 115.31 92.3299 115.19 92.2799C115.14 92.2599 115.09 92.2299 115.04 92.1999C114.95 92.1499 114.86 92.0999 114.78 92.0399C114.74 92.0099 114.71 91.9899 114.67 91.9599C114.59 91.9099 114.77 92.0499 114.65 91.9399C114.5 91.7999 114.35 91.6599 114.22 91.4999C114.33 91.6399 114.23 91.5099 114.21 91.4799C114.18 91.4299 114.15 91.3899 114.12 91.3399C114.1 91.2999 114.08 91.2599 114.05 91.2199C114.04 91.1999 113.96 91.0299 114.01 91.1399C114.05 91.2299 114 91.0999 113.99 91.0799C113.97 91.0299 113.95 90.9699 113.94 90.9199C113.93 90.8799 113.92 90.8299 113.91 90.7899C113.9 90.7599 113.87 90.5299 113.9 90.7399C113.85 90.3099 113.55 89.8799 113.07 89.9099C112.65 89.9099 112.17 90.2699 112.22 90.7299Z" fill="black"/>
<path d="M108.69 103.18C110.65 103.34 112.68 102.51 113.97 101.03C114.26 100.7 114.32 100.17 113.97 99.8499C113.66 99.5599 113.1 99.4999 112.79 99.8499C112.65 100.01 112.51 100.15 112.36 100.29C112.28 100.36 112.2 100.43 112.11 100.5C112.05 100.55 112.04 100.55 112.11 100.5C112.07 100.53 112.03 100.56 111.99 100.59C111.82 100.71 111.65 100.82 111.47 100.92C111.37 100.97 111.28 101.02 111.18 101.07C111.14 101.09 111.09 101.11 111.05 101.13C110.91 101.2 111.11 101.11 111.01 101.15C110.62 101.29 110.23 101.41 109.82 101.48C109.8 101.48 109.65 101.5 109.75 101.49C109.85 101.48 109.7 101.49 109.68 101.5C109.57 101.51 109.46 101.52 109.35 101.52C109.13 101.53 108.91 101.52 108.69 101.5C108.25 101.47 107.84 101.91 107.86 102.33C107.87 102.83 108.22 103.15 108.69 103.18Z" fill="black"/>
<path d="M50.1598 123.4C50.1598 123.4 51.4998 122.99 54.3798 119.9C57.0098 117.08 58.9898 109.83 58.9898 109.83C58.9898 109.83 64.0698 108.13 60.6498 101.12C58.6698 97.08 58.2298 94.76 55.9998 93.75C53.7698 92.74 46.2998 91.76 44.4998 93.51C42.6998 95.26 43.0198 95.84 41.6798 96.04C40.3398 96.24 37.6498 97.05 36.9198 98.46C36.1898 99.87 35.6598 100.49 34.2598 101.35C32.8498 102.2 29.6698 105.16 29.5498 109.64C29.4298 114.12 29.1598 119.55 31.9598 122.79L30.9398 138.67C30.9398 138.67 31.1998 158.55 33.2398 174.46C36.0398 176.97 38.9698 179.33 42.0398 181.51H64.6398C63.6098 167.41 50.1598 123.4 50.1598 123.4Z" fill="#DA7B6A"/>
<path d="M33.8999 112.4C34.5099 112.82 35.2299 113.11 35.9599 113.22C36.1699 113.25 36.3599 113.26 36.5499 113.14C36.7099 113.05 36.8599 112.86 36.8999 112.68C36.9399 112.48 36.9399 112.26 36.8199 112.09C36.7199 111.93 36.5499 111.76 36.3599 111.74C35.9899 111.69 35.6299 111.59 35.2899 111.44C35.3499 111.47 35.4099 111.49 35.4699 111.52C35.1899 111.4 34.9199 111.25 34.6699 111.08C34.5099 110.97 34.2499 110.95 34.0799 111C33.8999 111.05 33.7099 111.19 33.6199 111.35C33.5299 111.53 33.4799 111.75 33.5399 111.94C33.6099 112.14 33.7299 112.28 33.8999 112.4Z" fill="black"/>
<path d="M36.3798 111.03C36.0798 111.81 35.8098 112.62 35.6998 113.45C35.6098 114.09 35.6298 114.73 35.7598 115.37C35.8798 115.96 36.1098 116.53 36.2798 117.1C36.3998 117.5 36.8198 117.75 37.2298 117.64C37.6298 117.53 37.8898 117.09 37.7698 116.69C37.6098 116.15 37.3998 115.62 37.2698 115.07C37.2498 115 37.2398 114.93 37.2298 114.85C37.2198 114.8 37.2098 114.75 37.2198 114.83C37.1998 114.7 37.1898 114.56 37.1898 114.42C37.1898 114.26 37.1898 114.11 37.1998 113.95C37.1998 113.86 37.2098 113.77 37.2198 113.68C37.2298 113.53 37.2098 113.75 37.2198 113.65C37.3598 112.89 37.5898 112.15 37.8698 111.44C38.0198 111.05 37.6998 110.59 37.3298 110.49C36.8898 110.37 36.5298 110.64 36.3798 111.03Z" fill="black"/>
<path d="M36.4896 113.77C34.0196 113.1 31.9596 115.6 32.9096 117.92C33.3896 119.09 34.3896 119.72 35.5696 120.06C36.9796 120.46 38.4996 120.81 39.9696 120.61C42.6296 120.25 44.0896 117.75 44.2296 115.25C44.3196 113.66 43.8896 112.06 43.2296 110.63C42.1396 108.24 40.2296 106.35 38.1096 104.84C37.2996 104.26 36.5296 105.6 37.3296 106.17C39.6796 107.85 41.6596 110.08 42.4196 112.92C42.8496 114.52 42.8496 116.39 41.8596 117.8C40.5496 119.66 38.1996 119.16 36.3196 118.67C35.3096 118.41 34.2796 117.98 34.1996 116.79C34.1296 115.77 35.1096 115.01 36.0796 115.27C37.0396 115.52 37.4496 114.03 36.4896 113.77Z" fill="black"/>
<path d="M42.53 118.45C43.65 118.97 44.83 119.16 46.05 118.9C47.07 118.68 47.74 118.12 48.35 117.3C49.91 115.22 49.86 112.47 49.58 109.99C49.21 106.76 47.97 103.53 45.49 101.33C44.82 100.74 44.08 100.2 43.25 99.87C42.33 99.5 41.93 100.99 42.84 101.36C42.68 101.3 42.92 101.39 43.05 101.47C43.19 101.55 43.34 101.63 43.48 101.72C43.87 101.97 44.23 102.26 44.58 102.58C45.64 103.57 46.47 104.8 47.04 106.13C47.93 108.19 48.21 110.48 48.16 112.71C48.12 114.28 47.87 115.58 46.79 116.8C45.96 117.74 44.35 117.61 43.31 117.12C42.42 116.7 41.63 118.03 42.53 118.45Z" fill="black"/>
<path d="M48.6499 115.69C50.5399 115.84 52.4299 114.85 53.6999 113.5C54.9799 112.15 55.5399 110.08 55.6099 108.26C55.7699 104.37 53.7299 100.27 50.6799 97.8801C49.9099 97.2701 48.8099 98.3601 49.5899 98.9701C52.1599 100.98 53.9599 104.25 54.0699 107.53C54.1799 110.65 52.2899 114.44 48.6499 114.14C47.6599 114.06 47.6699 115.61 48.6499 115.69Z" fill="black"/>
<path d="M56.5996 104.71C56.2096 104.48 55.8296 104.22 55.4696 103.94C55.5196 103.98 55.5696 104.02 55.6296 104.06C55.4096 103.89 55.1896 103.71 54.9796 103.52C54.8296 103.38 54.6396 103.29 54.4296 103.29C54.2396 103.29 54.0096 103.37 53.8796 103.52C53.7496 103.67 53.6396 103.86 53.6496 104.07C53.6596 104.27 53.7196 104.48 53.8796 104.62C54.4796 105.16 55.1296 105.64 55.8196 106.05C55.9896 106.15 56.2196 106.18 56.4096 106.13C56.5896 106.08 56.7796 105.94 56.8696 105.78C57.0696 105.39 56.9696 104.93 56.5996 104.71Z" fill="black"/>
<path d="M54.21 111.21C56.04 111.6 58.28 111.88 59.9 110.7C60.39 110.35 60.78 109.92 61.15 109.45C61.42 109.11 61.7 108.78 61.9 108.4C62.18 107.87 62.35 107.29 62.43 106.7C62.57 105.69 62.5 104.63 62.23 103.64C61.97 102.68 60.48 103.09 60.74 104.05C60.77 104.17 60.8 104.28 60.83 104.4C60.85 104.48 60.86 104.57 60.88 104.65C60.89 104.69 60.93 104.94 60.91 104.81C60.97 105.24 60.98 105.68 60.96 106.11C60.91 106.88 60.64 107.63 60.14 108.27C59.83 108.65 59.53 109.02 59.16 109.34C59.03 109.46 59.24 109.29 59.13 109.36C59.08 109.39 59.03 109.43 58.97 109.47C58.85 109.55 58.73 109.61 58.6 109.68C58.56 109.7 58.53 109.71 58.49 109.73C58.52 109.72 58.64 109.67 58.51 109.72C58.44 109.75 58.37 109.77 58.3 109.79C58.14 109.84 57.97 109.88 57.8 109.92C57.75 109.93 57.7 109.94 57.65 109.95C57.51 109.97 57.68 109.95 57.59 109.96C57.48 109.97 57.37 109.98 57.26 109.99C57 110 56.74 110 56.48 109.99C55.85 109.96 55.23 109.86 54.61 109.72C54.2 109.63 53.78 109.84 53.66 110.26C53.57 110.65 53.8 111.13 54.21 111.21Z" fill="black"/>
<path d="M29.7197 136.21C29.7197 136.21 30.5797 157.41 32.6897 173.96C43.0897 183.43 55.5097 190.74 69.2097 195.17C66.4397 175.5 52.4397 132.28 52.4397 132.28L29.7197 136.21Z" fill="#EF9AC2"/>
<path d="M53.14 130.63C45.59 131.82 38.03 133.01 30.48 134.23C28.78 134.5 29.5 137.08 31.19 136.81C38.74 135.59 46.29 134.4 53.85 133.21C55.55 132.95 54.82 130.37 53.14 130.63Z" fill="#E66FA9"/>
<path d="M69.6299 179.63C69.4799 177.36 68.7599 175.11 68.1399 172.93C67.1299 169.38 65.9899 165.86 64.8399 162.35C62.3499 154.75 59.6999 147.2 57.0899 139.65C56.2199 137.14 55.3199 134.64 54.5499 132.1C54.0399 130.39 51.3599 131.12 51.8699 132.84C53.5699 138.48 55.6699 144.01 57.5799 149.57C60.1699 157.08 62.7699 164.6 65.0299 172.21C65.4799 173.74 65.9199 175.28 66.2999 176.83C66.4399 177.4 66.5699 177.97 66.6799 178.54C66.7199 178.77 66.7699 179 66.7999 179.24C66.8499 179.6 66.7599 178.94 66.7999 179.27C66.8099 179.39 66.8199 179.5 66.8299 179.62C66.9699 181.41 69.7499 181.42 69.6299 179.63Z" fill="#E66FA9"/>
<path d="M60.8696 66.32C62.2796 67.47 63.7496 68.56 64.9296 69.95C66.4796 71.78 67.3696 74.06 67.9796 76.35C68.8996 79.78 69.4496 83.42 69.2396 86.97C69.0396 90.28 68.4996 93.95 66.8796 96.89C66.2996 97.93 67.8996 98.86 68.4796 97.82C71.1196 93.05 71.5396 86.77 70.8296 81.47C70.2196 76.88 69.2096 71.99 66.0496 68.43C64.8996 67.13 63.5096 66.1 62.1796 65.01C61.2696 64.27 59.9496 65.57 60.8696 66.32Z" fill="white"/>
<path d="M60.4299 68.11C59.9499 66.88 59.5599 65.63 59.2499 64.35C59.2299 64.28 59.2199 64.21 59.2399 64.15C59.2699 64.08 63.7899 64.09 63.7999 64.14C63.8199 64.14 61.2699 67.08 60.4299 68.11Z" fill="white"/>
<path d="M61.6499 67.78C61.4099 67.15 61.1899 66.52 60.9899 65.88C60.8899 65.57 60.7999 65.26 60.7199 64.95C60.6699 64.78 60.6299 64.61 60.5799 64.44C60.5599 64.36 60.5399 64.27 60.5199 64.19C60.5099 64.16 60.5099 64.13 60.4999 64.1C60.4499 63.86 60.4399 63.99 60.4699 64.48C60.3599 64.67 60.2499 64.85 60.1499 65.04C60.1599 65.03 59.5499 65.37 59.6199 65.36C59.6799 65.34 59.1899 65.4 59.3299 65.4C59.3699 65.4 59.3999 65.39 59.4399 65.39C59.5599 65.38 59.6699 65.38 59.7899 65.38C60.1399 65.37 60.4899 65.37 60.8399 65.37C61.6299 65.36 62.4199 65.36 63.2099 65.38C63.3499 65.38 63.4899 65.39 63.6299 65.39C63.6699 65.39 63.7099 65.4 63.7599 65.4C63.7699 65.4 63.7899 65.4 63.7999 65.4C63.5199 65.41 63.1499 65.26 62.9499 65.04C62.9499 64.45 62.9499 63.85 62.9499 63.26C61.8099 64.57 60.6599 65.88 59.5699 67.23C59.3499 67.5 59.1999 67.76 59.1999 68.12C59.1999 68.43 59.3399 68.8 59.5699 69.01C60.0299 69.43 60.9099 69.56 61.3499 69.01C62.4399 67.66 63.5899 66.35 64.7299 65.04C65.1899 64.51 65.2199 63.79 64.7299 63.26C64.3299 62.82 63.6599 62.87 63.1099 62.86C62.5399 62.85 61.9699 62.85 61.3999 62.85C60.8599 62.85 60.3299 62.85 59.7899 62.87C59.6399 62.87 59.4899 62.88 59.3499 62.89C59.2099 62.9 59.0699 62.91 58.9399 62.95C58.1899 63.16 57.9199 63.92 58.0499 64.63C58.1699 65.28 58.3799 65.93 58.5799 66.56C58.7799 67.2 58.9999 67.84 59.2399 68.46C59.3599 68.77 59.5199 69.04 59.8199 69.21C60.0899 69.37 60.4899 69.43 60.7899 69.34C61.3599 69.13 61.8999 68.43 61.6499 67.78Z" fill="white"/>
<path d="M70.5995 97.1799C69.5995 98.0299 68.5295 98.8099 67.4295 99.5199C67.3695 99.5599 67.3095 99.5899 67.2395 99.5899C67.1695 99.5899 65.8295 95.4799 65.8695 95.4399C65.8695 95.4399 69.3595 96.7299 70.5995 97.1799Z" fill="white"/>
<path d="M69.7196 96.2899C69.4596 96.5099 69.1996 96.7199 68.9396 96.9299C68.9096 96.9499 68.6696 97.1399 68.8296 97.0199C68.9796 96.8999 68.7796 97.0599 68.7496 97.0799C68.6096 97.1899 68.4696 97.2899 68.3296 97.3899C68.0696 97.5799 67.8096 97.7599 67.5396 97.9399C67.2696 98.1199 66.9896 98.3599 66.6896 98.4799C66.8996 98.4199 67.1096 98.3699 67.3296 98.3099C67.4196 98.3299 67.5096 98.3499 67.5996 98.3599C67.7896 98.4699 67.9696 98.5799 68.1596 98.6799C68.1196 98.6499 68.4196 99.0299 68.3296 98.8899C68.2796 98.8099 68.4896 99.2899 68.4096 99.0799C68.3696 98.9699 68.3296 98.8699 68.2896 98.7599C68.1696 98.4399 68.0696 98.1099 67.9596 97.7899C67.7196 97.0799 67.4896 96.3699 67.2696 95.6499C67.2296 95.5199 67.1896 95.3999 67.1596 95.2699C67.1496 95.2299 67.1396 95.1899 67.1296 95.1599C67.0696 94.9799 67.1596 95.4599 67.1596 95.4299C67.0996 95.6399 67.0496 95.8499 66.9896 96.0699C66.5196 96.2599 66.0396 96.4599 65.5696 96.6499C67.1496 97.2299 68.7196 97.8199 70.2996 98.3899C70.9196 98.6099 71.6996 98.1399 71.8496 97.5099C72.0096 96.7999 71.6396 96.1999 70.9696 95.9599C69.3896 95.3899 67.8196 94.7999 66.2396 94.2199C65.7396 94.0299 65.0596 94.3399 64.8196 94.7999C64.5096 95.3699 64.7196 95.9099 64.8896 96.4699C65.0596 97.0099 65.2296 97.5499 65.4096 98.0799C65.5696 98.5699 65.7296 99.0499 65.9096 99.5299C65.9896 99.7499 66.0596 99.9799 66.1696 100.18C66.3096 100.44 66.5196 100.62 66.7896 100.73C67.3196 100.95 67.8296 100.77 68.2796 100.48C69.4096 99.7499 70.4896 98.9399 71.5196 98.0699C72.0296 97.6399 71.9896 96.7199 71.5196 96.2899C70.9596 95.7999 70.2496 95.8399 69.7196 96.2899Z" fill="white"/>
</g>
<defs>
<clipPath id="clip0_520_4520">
<rect width="200" height="200" fill="white"/>
</clipPath>
</defs>
</svg>
