<svg width="200" height="200" viewBox="0 0 200 200" fill="none" xmlns="http://www.w3.org/2000/svg">
<g clip-path="url(#clip0_520_4517)">
<path d="M100 200C155.228 200 200 155.228 200 100C200 44.7715 155.228 0 100 0C44.7715 0 0 44.7715 0 100C0 155.228 44.7715 200 100 200Z" fill="#BCE37C"/>
<path d="M86.91 158.81C86.91 158.81 74.45 182.4 60.24 172.43C44.96 161.7 34.98 135.5 34.98 135.5C37.17 132.48 49.54 131.44 49.54 131.44L63.33 143.91L71.23 142.97C71.23 142.97 74.09 147.08 78.47 151.42C82.57 155.48 86.91 158.81 86.91 158.81Z" fill="#CF806F"/>
<path d="M149.26 163.52V187.04C156.25 183.08 162.71 178.29 168.52 172.82L167.94 161.24L149.26 163.52Z" fill="#CF806F"/>
<path d="M63.3301 143.9C63.3301 143.9 68.7301 136.57 75.0701 128.61C80.3401 122 85.7101 115.02 94.1001 112.51C112.58 106.98 111.18 125.89 111.18 125.89L80.9901 162.41C80.9901 162.41 74.2701 157.59 70.6501 153.22C68.8501 151.24 67.3201 149.43 66.1801 147.95C64.2601 145.48 63.3301 143.9 63.3301 143.9Z" fill="#802A84"/>
<path d="M160.25 165.42C164.45 164.83 170.12 163.61 170.12 163.61C168.01 129.83 157.41 122.59 146.09 115.03C134.77 107.47 127.09 108.37 127.09 108.37C127.09 108.37 99.7501 106.73 84.6401 117.01C78.4601 121.21 78.5301 139.51 79.7901 155.38C79.9701 157.58 79.4301 162.03 79.9001 164.05C82.9401 177.14 82.5201 191.08 81.9801 198.38C87.8301 199.44 93.8501 200 100 200C118.79 200 136.38 194.81 151.4 185.79L150.76 166C150.76 166.01 155.69 166.06 160.25 165.42Z" fill="#802A84"/>
<path d="M42.63 93.27L45.84 98.17C46.46 99.12 45.68 100.39 44.46 100.44L38.72 100.65C36.63 100.79 36.86 99.63 37.34 98.65L39.87 93.54C40.41 92.46 42 92.3 42.63 93.27Z" fill="white"/>
<path d="M131.62 65.49C131.62 65.49 133.02 61.53 135.91 59.55C140.29 56.55 147.13 55.26 153.21 61.65C158.2 66.9 157.08 79.11 150.61 96.23C146.9 106.06 149.5 114.58 149.5 114.58C149.5 114.58 138.22 110.43 133.8 98.39C131.31 91.63 131.62 65.49 131.62 65.49Z" fill="black"/>
<path d="M85.2302 66.1099C85.2302 66.1099 80.3102 90.8099 84.9202 101.09C89.5302 111.37 95.2102 116.79 112.85 114.47C123.95 113 128.74 110.68 128.74 110.68L129.25 101.41L127.77 69.6099L103.09 58.5599L85.2302 66.1099Z" fill="#CF806F"/>
<path d="M129 98.09L130.25 112.33C130.25 112.33 129.3 120.21 119.32 124.64C118.26 125.11 117.23 125.52 116.23 125.86C109.33 128.27 101.88 124.02 101.39 117.42L100.48 105.24L129 98.09Z" fill="#CF806F"/>
<path d="M127.84 71.78C127.84 71.78 113.79 69.18 108.01 64.79C102.95 60.95 102.45 59.79 102.45 59.79C102.45 59.79 91.6903 69.73 82.2903 65.61C77.9703 63.72 77.5303 60.42 77.5303 60.42C77.5303 60.42 84.4803 56.99 87.1903 53.55C93.1103 46.05 103.21 40.58 115.39 43.48C137.05 48.64 138.57 65.64 138.57 65.64C138.57 65.64 145.33 67.9 143.66 80.64C141.44 97.58 129.24 101.4 129.24 101.4L127.84 71.78Z" fill="black"/>
<path d="M126.17 85C126.17 85 126.86 83.22 128.49 81.93C129.93 80.79 132.15 80.04 134.65 81.1C139.83 83.31 138.73 89.28 135.97 92.96C133.21 96.65 126.88 94.92 126.88 94.92L126.17 85Z" fill="#CF806F"/>
<path d="M120.52 64.88C120.52 64.88 117.68 85.7 120.63 87.14C123.67 88.63 126.17 85 126.17 85C126.17 85 127.21 82.55 129.22 81.43L129.24 68.66L120.52 64.88Z" fill="black"/>
<path d="M87.8705 76.99C87.0705 75.95 87.6205 72.4 92.5405 73.4C96.1105 74.12 97.4205 75.7 96.6605 77.92C96.0505 79.7 93.5005 78.72 91.6205 78.29C89.7605 77.87 88.6005 77.94 87.8705 76.99Z" fill="white"/>
<path d="M114.03 82.06C114.94 81.5 115.59 77.78 110.44 76.94C106.7 76.33 104.2 77.51 104.84 80.19C105.22 81.81 107.24 81.66 109.22 81.94C111.18 82.22 112.62 82.93 114.03 82.06Z" fill="white"/>
<path d="M84.2601 63C83.5401 67.99 82.9401 73.01 82.4401 78.03C81.7101 85.41 80.5201 93.43 82.9301 100.6C84.7501 106 88.5201 111.92 93.8301 114.45C101.52 118.11 111.27 116.69 119.24 114.8C121.17 114.34 120.17 111.41 118.24 111.87C110.85 113.63 100 115.41 93.3601 110.61C88.2101 106.89 85.0801 99.8 84.6701 93.63C84.0101 83.78 85.8801 73.38 87.2801 63.63C87.5701 61.68 84.5401 61.02 84.2601 63Z" fill="black"/>
<path d="M106.91 72.7499C107.09 72.6899 107.28 72.6399 107.46 72.5999C107.53 72.5799 107.61 72.5699 107.68 72.5499C107.7 72.5499 108.07 72.4799 107.81 72.5199C107.56 72.5599 107.89 72.5099 107.94 72.5099C108.03 72.4999 108.13 72.4999 108.22 72.4899C108.39 72.4799 108.56 72.4799 108.73 72.4899C108.92 72.4999 109.11 72.5099 109.3 72.5299C109.61 72.5599 109.08 72.4899 109.28 72.5299C109.37 72.5499 109.47 72.5599 109.56 72.5799C109.92 72.6499 110.27 72.7499 110.61 72.8699C110.68 72.8999 110.75 72.9299 110.82 72.9499C111 73.0099 110.54 72.8199 110.81 72.9499C110.98 73.0299 111.15 73.1099 111.32 73.2099C111.47 73.2899 111.62 73.3799 111.76 73.4699C111.84 73.5199 111.92 73.5699 112 73.6299C112.04 73.6599 112.3 73.8599 112.12 73.7099C111.93 73.5599 112.22 73.7899 112.23 73.7999C112.29 73.8499 112.35 73.8999 112.4 73.9499C112.54 74.0799 112.68 74.2099 112.81 74.3499C112.87 74.4199 112.94 74.4899 113 74.5599C113.02 74.5899 113.05 74.6199 113.07 74.6499C113.14 74.7399 113.12 74.7099 113 74.5499C112.99 74.6299 113.27 74.9399 113.32 75.0199C113.76 75.7199 114.75 76.0599 115.48 75.5899C116.18 75.1399 116.52 74.1699 116.05 73.4299C113.98 70.1799 109.77 68.5399 106.06 69.6899C105.27 69.9399 104.69 70.7999 104.96 71.6399C105.22 72.4399 106.06 73.0099 106.91 72.7499Z" fill="black"/>
<path d="M96.7803 67.88C95.5003 66.93 93.8203 66.48 92.2303 66.53C90.4803 66.59 88.8803 67.21 87.5303 68.31C86.8903 68.84 86.9403 70.01 87.5303 70.55C88.2103 71.18 89.0803 71.11 89.7703 70.55C89.9403 70.41 89.7703 70.58 89.7003 70.6C89.7703 70.58 89.8503 70.49 89.9203 70.45C90.0403 70.37 90.1603 70.3 90.2803 70.23C90.4203 70.15 90.5603 70.08 90.7003 70.02C90.9003 69.93 90.6903 70.05 90.6103 70.06C90.6803 70.05 90.7903 69.99 90.8603 69.97C91.1403 69.87 91.4303 69.8 91.7203 69.74C91.7903 69.73 91.8603 69.72 91.9303 69.7C91.5603 69.81 91.7503 69.72 91.8803 69.71C92.0403 69.7 92.2003 69.69 92.3503 69.68C92.4903 69.68 92.6303 69.68 92.7703 69.69C92.8603 69.69 92.9503 69.7 93.0303 69.71C93.0803 69.71 93.3303 69.75 93.0803 69.71C92.8303 69.68 93.0803 69.71 93.1303 69.72C93.2203 69.74 93.3003 69.75 93.3903 69.77C93.5303 69.8 93.6603 69.84 93.8003 69.88C93.9503 69.92 94.1003 69.98 94.2503 70.03C94.4503 70.09 93.9803 69.9 94.1603 69.99C94.2403 70.03 94.3203 70.06 94.4003 70.1C94.6803 70.24 94.9503 70.41 95.2003 70.6C95.8703 71.09 96.9903 70.73 97.3603 70.03C97.7803 69.22 97.4903 68.4 96.7803 67.88Z" fill="black"/>
<path d="M110.42 81.02C112.46 81.02 112.46 77.86 110.42 77.86C108.38 77.85 108.38 81.02 110.42 81.02Z" fill="black"/>
<path d="M92.9203 77.74C94.9603 77.74 94.9603 74.58 92.9203 74.58C90.8903 74.57 90.8803 77.74 92.9203 77.74Z" fill="black"/>
<path d="M133.36 85.22C132.59 84.91 131.62 85.12 130.95 85.57C130.23 86.06 129.77 86.83 129.63 87.69C129.49 88.56 129.61 89.42 130.13 90.14C130.62 90.83 131.35 91.45 132.21 91.58C132.62 91.64 133.08 91.48 133.18 91.03C133.27 90.65 133.06 90.12 132.63 90.06C132.57 90.05 132.5 90.04 132.44 90.02C132.42 90.01 132.2 89.94 132.28 89.97C132.37 90 132.18 89.92 132.16 89.9C132.09 89.86 132.02 89.81 131.95 89.77C131.81 89.69 132.01 89.83 131.88 89.72C131.83 89.67 131.77 89.62 131.72 89.57C131.67 89.52 131.62 89.46 131.57 89.41C131.56 89.4 131.42 89.22 131.51 89.34C131.43 89.22 131.36 89.1 131.29 88.97C131.2 88.82 131.31 89.06 131.26 88.91C131.24 88.84 131.21 88.76 131.19 88.69C131.18 88.66 131.18 88.63 131.17 88.59C131.18 88.68 131.18 88.69 131.18 88.63C131.18 88.55 131.17 88.47 131.17 88.39C131.17 88.32 131.17 88.25 131.18 88.18C131.18 88.14 131.21 87.93 131.18 88.11C131.2 87.97 131.23 87.83 131.28 87.69C131.3 87.62 131.32 87.55 131.35 87.49C131.29 87.64 131.37 87.45 131.39 87.42C131.43 87.35 131.47 87.28 131.52 87.21C131.54 87.18 131.56 87.15 131.58 87.12C131.53 87.18 131.53 87.19 131.56 87.15C131.61 87.11 131.65 87.05 131.7 87.01C131.72 86.99 131.75 86.97 131.78 86.94C131.71 86.99 131.71 86.99 131.78 86.94C131.9 86.87 132.01 86.79 132.14 86.74C131.98 86.81 132.19 86.73 132.21 86.72C132.28 86.7 132.34 86.69 132.41 86.67C132.59 86.63 132.3 86.66 132.47 86.66C132.54 86.66 132.6 86.66 132.67 86.66C132.83 86.65 132.56 86.63 132.75 86.67C132.82 86.69 132.89 86.71 132.97 86.74C133.35 86.9 133.86 86.57 133.94 86.19C134.02 85.73 133.77 85.39 133.36 85.22Z" fill="black"/>
<path d="M104.03 87.08C104.02 87.11 104.01 87.13 104 87.16C104.04 87.05 104.05 87.03 104.03 87.08C104 87.14 103.98 87.19 103.96 87.25C103.91 87.35 103.86 87.46 103.81 87.56C103.69 87.79 103.56 88.02 103.42 88.23C103.38 88.29 103.34 88.35 103.3 88.41C103.27 88.45 103.2 88.61 103.29 88.44C103.25 88.53 103.15 88.61 103.08 88.67C103.05 88.69 102.92 88.78 103.01 88.73C103.12 88.67 102.92 88.78 102.9 88.79C102.83 88.83 102.76 88.87 102.69 88.9C102.82 88.85 102.67 88.9 102.62 88.91C102.55 88.93 102.49 88.94 102.42 88.96C102.6 88.92 102.41 88.96 102.36 88.96C102.29 88.96 102.22 88.96 102.16 88.95C102.35 88.97 102.11 88.93 102.07 88.92C102.04 88.91 102 88.9 101.97 88.89C102.07 88.93 102.08 88.93 102 88.9C101.95 88.87 101.9 88.84 101.85 88.81C101.7 88.71 101.95 88.92 101.83 88.79C101.79 88.75 101.75 88.71 101.71 88.67C101.65 88.61 101.62 88.54 101.69 88.65C101.65 88.59 101.61 88.54 101.58 88.47C101.54 88.41 101.51 88.35 101.48 88.28C101.4 88.14 101.52 88.41 101.46 88.25C101.37 88 101.3 87.75 101.26 87.48C101.2 87.07 100.66 86.81 100.29 86.93C99.8403 87.07 99.6703 87.46 99.7403 87.9C99.8503 88.6 100.14 89.31 100.64 89.83C101.24 90.45 102.09 90.66 102.92 90.48C104.34 90.18 105.09 88.74 105.58 87.5C105.73 87.11 105.41 86.61 105.03 86.53C104.55 86.42 104.19 86.67 104.03 87.08Z" fill="black"/>
<path d="M99.5602 87.31C99.4502 87.64 99.2602 87.9 98.9402 88.02C98.6902 88.12 98.2602 88.18 98.0302 88C97.2902 87.44 97.9002 86.13 98.1202 85.48C98.8602 83.31 99.7202 81.18 100.63 79.07C100.8 78.67 100.74 78.23 100.35 77.99C100.02 77.79 99.4402 77.88 99.2702 78.27C98.6502 79.7 98.0602 81.14 97.5002 82.59C97.2302 83.3 96.9602 84.01 96.7102 84.73C96.4502 85.46 96.1302 86.23 96.1102 87.02C96.0802 88.29 96.8502 89.52 98.1702 89.66C99.5302 89.8 100.67 89 101.09 87.72C101.41 86.76 99.8802 86.35 99.5602 87.31Z" fill="black"/>
<path d="M66.5003 115.83C66.5003 115.83 65.5703 110.76 63.1303 111C60.2103 111.29 60.3903 113.16 60.6503 116.52C60.8803 119.48 60.4103 121.75 59.6003 122.84C58.8003 123.94 66.5003 115.83 66.5003 115.83Z" fill="#B86C51"/>
<path d="M51.5903 132.66C51.5903 132.66 54.2403 129.48 54.8303 128.78C58.0303 125.04 73.4203 103.68 76.9303 104.65C79.5903 105.39 78.0503 107.73 78.0503 107.73C78.0503 107.73 80.5503 104.3 82.9003 105.59C85.2503 106.88 83.7003 108.96 83.7003 108.96C83.7003 108.96 85.1303 108.08 86.2703 109.39C87.2403 110.51 85.8103 113.19 85.8103 113.19C85.8103 113.19 87.5603 113.33 86.7303 116.22C85.9403 118.96 79.8403 126.21 79.8403 126.21C79.8403 126.21 75.6403 134.5 65.8703 138.9L63.3203 143.89L56.4903 137.72L51.5903 132.66Z" fill="#B86C51"/>
<path d="M78.4605 106.35C75.2805 109.18 72.3205 112.24 69.5705 115.5C69.2605 115.87 69.4505 116.5 69.8205 116.74C70.2605 117.03 70.7505 116.86 71.0605 116.49C73.7005 113.35 76.5805 110.42 79.6405 107.69C80.5205 106.92 79.3205 105.58 78.4605 106.35Z" fill="black"/>
<path d="M82.7804 108.16C79.1304 111.37 75.8004 114.94 72.8404 118.81C72.1404 119.73 73.6404 120.71 74.3404 119.8C77.2104 116.06 80.4304 112.62 83.9704 109.51C84.8404 108.74 83.6504 107.4 82.7804 108.16Z" fill="black"/>
<path d="M84.2804 112.88C81.3604 115.71 78.6104 118.73 76.0504 121.89C75.7504 122.27 75.9304 122.88 76.3004 123.13C76.7404 123.42 77.2404 123.26 77.5404 122.88C80.0004 119.84 82.6504 116.95 85.4604 114.22C86.3004 113.42 85.1104 112.07 84.2804 112.88Z" fill="black"/>
<path d="M65.9603 139.28C68.1703 139.29 70.3803 138.18 71.6903 136.4C71.9603 136.03 71.9903 135.47 71.5903 135.16C71.2403 134.88 70.6403 134.86 70.3503 135.26C70.2103 135.45 70.0603 135.63 69.9003 135.8C69.8203 135.89 69.7303 135.98 69.6403 136.06C69.6003 136.1 69.5603 136.14 69.6203 136.08C69.5803 136.12 69.5403 136.15 69.4903 136.19C69.3103 136.34 69.1203 136.48 68.9303 136.61C68.8303 136.68 68.7203 136.74 68.6103 136.81C68.5603 136.84 68.5103 136.86 68.4703 136.89C68.3303 136.97 68.5003 136.88 68.4203 136.92C68.0003 137.12 67.5603 137.29 67.1003 137.4C67.0803 137.4 66.9203 137.44 67.0103 137.42C67.1103 137.4 66.9403 137.43 66.9203 137.43C66.8003 137.45 66.6803 137.47 66.5503 137.48C66.3003 137.51 66.0603 137.52 65.8103 137.52C65.3503 137.52 64.9503 138.02 65.0003 138.47C65.0803 138.98 65.4703 139.28 65.9603 139.28Z" fill="black"/>
<path d="M49.6502 130.61C49.6502 130.61 50.3802 128.57 49.7402 124.72C49.1002 120.86 48.3802 116.42 50.5102 114.02C53.7802 110.33 53.1802 109.01 51.7502 107.85C49.9302 106.37 45.7502 107.6 44.1702 112.2C43.1702 115.11 42.3002 116.68 41.7002 117.51C40.1102 114.73 33.3602 103.06 29.6202 101.56C26.8202 100.43 26.0502 102.99 26.0502 102.99C26.0502 102.99 23.3502 100.17 21.4502 100.23C18.9202 100.31 18.4702 102.45 18.4702 102.45C18.4702 102.45 16.8702 102.29 15.7102 103.9C14.4402 105.67 16.2302 108.47 16.2302 108.47C16.2302 108.47 15.0502 112.18 17.3202 116.58C19.5902 120.98 21.1802 122.18 21.8002 123.21C22.4102 124.23 23.2202 128.24 29.0802 133.35C33.3202 137.05 36.3702 137.42 36.3702 137.42L41.2702 145.93L56.5102 137.75L49.6502 130.61Z" fill="#CF806F"/>
<path d="M36.7901 113.38C32.2201 113.42 27.7701 115.07 24.2601 118C23.3901 118.73 24.6101 120 25.4701 119.28C28.6201 116.65 32.6601 115.18 36.7701 115.15C37.8901 115.13 37.9201 113.37 36.7901 113.38Z" fill="black"/>
<path d="M28.09 122.87C33.23 122.7 36.38 127.39 38.39 131.48C38.89 132.5 40.43 131.65 39.94 130.64C37.65 125.97 33.92 120.91 28.12 121.11C26.99 121.14 26.96 122.9 28.09 122.87Z" fill="black"/>
<path d="M16.8103 108.98C17.6303 108.5 18.5503 108.78 19.1903 109.44C19.8803 110.15 20.1003 111.14 20.4503 112.03C21.3603 114.35 22.8903 116.58 24.6303 118.34C25.4303 119.15 26.7103 117.94 25.9103 117.13C23.9603 115.16 22.6403 112.79 21.6603 110.22C21.2203 109.07 20.5303 108.01 19.4103 107.42C18.3203 106.84 17.0403 106.8 15.9603 107.43C14.9903 108 15.8303 109.55 16.8103 108.98Z" fill="black"/>
<path d="M18.6401 103.09C20.9801 104.43 22.3501 106.75 23.6501 109.04C24.9801 111.39 26.4901 113.63 27.9101 115.93C28.5001 116.89 30.0501 116.05 29.4601 115.09C27.9501 112.64 26.3601 110.25 24.9401 107.75C23.5901 105.35 22.0001 102.99 19.5501 101.59C18.5701 101.02 17.6601 102.52 18.6401 103.09Z" fill="black"/>
<path d="M25.6501 103.89C28.1101 107.08 30.1801 110.52 32.0701 114.08C32.6001 115.08 34.1501 114.24 33.6201 113.24C31.6701 109.54 29.4901 105.99 26.9401 102.68C26.6501 102.3 26.0101 102.34 25.7001 102.65C25.3001 103 25.3501 103.51 25.6501 103.89Z" fill="black"/>
<path d="M51.2402 147.03C52.1002 146.06 53.0702 145.23 54.0802 144.59C54.6202 144.25 55.1702 143.95 55.7502 143.69C56.3402 143.42 56.8202 143.24 57.4902 143.05C58.0502 142.89 58.4202 142.33 58.2802 141.75C58.1402 141.2 57.5402 140.8 56.9802 140.96C54.2102 141.76 51.6802 143.32 49.7702 145.47C49.4002 145.89 49.2902 146.57 49.7302 146.99C50.1102 147.37 50.8402 147.48 51.2402 147.03Z" fill="white"/>
<path d="M48.56 130.03C48.55 130.07 48.42 130.36 48.51 130.16C48.47 130.25 48.43 130.34 48.38 130.43C48.3 130.59 48.22 130.74 48.12 130.88C48.03 131.03 47.93 131.17 47.83 131.31C47.8 131.35 47.77 131.39 47.74 131.43C47.81 131.34 47.81 131.34 47.75 131.42C47.69 131.49 47.64 131.55 47.58 131.62C47.33 131.89 47.07 132.12 46.78 132.35C46.7 132.41 46.7 132.41 46.78 132.35C46.74 132.38 46.7 132.41 46.66 132.43C46.6 132.47 46.54 132.51 46.47 132.55C46.3 132.66 46.13 132.75 45.95 132.84C45.54 133.05 45.36 133.64 45.6 134.03C45.85 134.45 46.35 134.6 46.79 134.38C48.4 133.58 49.62 132.17 50.25 130.5C50.41 130.07 50.07 129.52 49.64 129.41C49.15 129.3 48.74 129.56 48.56 130.03Z" fill="black"/>
<path d="M46.4103 144.62C50.1603 140.23 55.3803 137.38 61.1003 136.59C61.6803 136.51 62.0103 135.81 61.8903 135.29C61.7403 134.67 61.1603 134.42 60.5903 134.5C54.5603 135.33 48.8903 138.42 44.9303 143.05C44.0303 144.1 45.5103 145.67 46.4103 144.62Z" fill="white"/>
<path d="M148.66 154.92C149.45 163.4 150.12 171.9 150.66 180.4C150.75 181.9 153.09 181.91 153 180.4C152.46 171.9 151.8 163.4 151 154.92C150.86 153.44 148.52 153.42 148.66 154.92Z" fill="black"/>
<path d="M43.8204 96.68C48.7104 93.58 54.7104 92.32 60.4204 93.41C65.1204 94.31 70.0004 96.49 72.9404 100.41C73.5304 101.2 74.8904 100.43 74.2904 99.62C71.0904 95.36 65.9804 92.89 60.8304 91.9C54.7104 90.72 48.2804 91.99 43.0304 95.32C42.1904 95.87 42.9704 97.22 43.8204 96.68Z" fill="white"/>
<path d="M79.4201 152.49C78.3501 157.77 77.5301 162.98 79.2301 168.22C79.9101 170.29 80.6901 172.28 80.9901 174.45C81.2601 176.42 81.4001 178.41 81.4401 180.4C81.4601 181.65 83.4001 181.65 83.3801 180.4C83.3101 176.47 82.8401 172.72 81.5501 169.01C80.6701 166.49 80.0701 164.04 80.1201 161.35C80.1701 158.53 80.7301 155.76 81.2901 153.01C81.5401 151.79 79.6701 151.27 79.4201 152.49Z" fill="black"/>
<path d="M100.03 97.3001C100.01 97.2901 100.78 103.33 105.89 103.9C111 104.47 114.77 99.0301 114.68 93.6101C114.68 93.6101 114.02 91.9901 112.46 93.8801C110.9 95.7701 105.6 99.4501 100.03 97.3001Z" fill="black"/>
<path d="M111.63 93.71C111.6 96.77 108.52 99.89 105.51 100.19C103.42 100.4 102.4 98.73 101.92 97.31C106.2 97.82 110.01 95.37 111.63 93.71Z" fill="white"/>
<path d="M114.01 97.74C112.94 100.82 110.66 103.31 107.76 103.83C107.85 102.68 108.52 100.88 110.1 99.33C111.4 98.07 112.83 97.62 114.01 97.74Z" fill="#EC145A"/>
<path d="M98.8803 96.14C101.19 97.3 103.82 97.36 106.27 96.61C107.5 96.23 108.67 95.69 109.78 95.04C110.8 94.44 111.89 93.79 112.51 92.74C112.46 92.67 112.41 92.61 112.37 92.54C112.03 92.03 111.77 91.46 111.61 90.87C111.52 90.55 111.64 90.16 111.98 90.05C112.28 89.95 112.71 90.08 112.8 90.42C112.85 90.62 112.91 90.81 112.99 91C113.03 91.09 113.07 91.19 113.11 91.28C113.13 91.33 113.16 91.38 113.18 91.43C113.18 91.44 113.19 91.45 113.2 91.46C113.3 91.64 113.41 91.81 113.53 91.97C113.59 92.05 113.65 92.13 113.71 92.21C113.74 92.25 113.78 92.29 113.81 92.33C113.82 92.34 113.85 92.37 113.86 92.38C114 92.52 114.15 92.66 114.31 92.78C114.33 92.79 114.44 92.86 114.35 92.81C114.39 92.83 114.44 92.86 114.48 92.88C114.52 92.9 114.57 92.92 114.61 92.94C114.63 92.95 114.63 92.95 114.63 92.95C114.63 92.95 114.63 92.95 114.64 92.95C114.69 92.96 114.73 92.97 114.78 92.98C114.8 92.98 114.82 92.98 114.83 92.99C114.84 92.99 114.84 92.99 114.85 92.99C114.91 92.99 114.96 92.98 115.02 92.98C115.03 92.98 115.12 92.96 115.14 92.96C115.17 92.95 115.24 92.93 115.26 92.93C115.32 92.91 115.37 92.89 115.42 92.87C115.47 92.85 115.51 92.84 115.56 92.82C115.78 92.62 116.04 92.55 116.32 92.66C116.6 92.78 116.74 93.11 116.68 93.4C116.59 93.85 116.08 94 115.7 94.12C115.32 94.24 114.94 94.3 114.55 94.24C114.2 94.19 113.88 94.03 113.59 93.83C113.52 93.78 113.45 93.73 113.39 93.67C112.73 94.6 111.84 95.27 110.86 95.87C109.56 96.66 108.17 97.35 106.71 97.8C103.94 98.65 100.95 98.6 98.3304 97.29C97.6104 96.92 98.1503 95.77 98.8803 96.14Z" fill="black"/>
<path d="M113.191 104.35C111.831 105.47 110.211 106.21 108.481 106.58C108.131 106.65 107.791 106.3 107.761 105.98C107.731 105.59 108.011 105.34 108.361 105.26C109.031 105.12 109.831 104.84 110.511 104.51C111.161 104.2 111.831 103.75 112.421 103.27C112.701 103.04 113.151 103.15 113.341 103.43C113.571 103.74 113.471 104.13 113.191 104.35Z" fill="black"/>
</g>
<defs>
<clipPath id="clip0_520_4517">
<rect width="200" height="200" fill="white"/>
</clipPath>
</defs>
</svg>
