<svg width="200" height="200" viewBox="0 0 200 200" fill="none" xmlns="http://www.w3.org/2000/svg">
<g clip-path="url(#clip0_520_4522)">
<path d="M100 200C155.228 200 200 155.228 200 100C200 44.7715 155.228 0 100 0C44.7715 0 0 44.7715 0 100C0 155.228 44.7715 200 100 200Z" fill="#BCE37C"/>
<path d="M48.2401 116.75C46.4101 111.39 42.7101 101.61 42.7101 101.61C42.7101 101.61 44.2301 99.9701 45.9401 96.6701C47.6901 93.3101 51.6101 93.1901 53.0701 90.9001C54.5301 88.6101 53.2401 88.9401 53.2401 88.9401C53.2401 88.9401 57.2101 90.1701 58.1101 86.0401C59.0101 81.9101 42.5901 82.1501 40.2801 80.4801C40.2801 80.4801 46.2401 76.7001 50.2401 74.2301C51.2401 73.6101 53.8001 71.3201 51.4601 68.9301C49.4001 66.8301 46.0901 70.1501 41.2301 72.0601C36.4501 73.9301 33.8201 75.4201 32.6301 77.5301C31.4401 79.6501 31.7901 80.0101 30.7201 80.6701C29.6601 81.3301 27.5901 82.9901 27.2201 84.4301C26.8501 85.8701 26.5101 86.5801 25.5001 87.8101C24.4901 89.0401 22.3501 92.6701 22.9601 96.4401C23.5601 100.21 24.2001 104.83 26.9801 106.49C26.9801 106.49 27.9401 111.24 28.6301 120.08C30.1801 139.97 27.0701 156.46 38.3101 159.81C42.8001 161.15 56.5901 155.83 55.7201 144.34C54.6301 130.07 50.0701 122.11 48.2401 116.75Z" fill="#8C4520"/>
<path d="M26.6603 96.8901C26.9703 96.9301 27.2703 96.9101 27.5703 96.8701C27.8903 96.8301 28.2003 96.7501 28.5003 96.6401C28.6703 96.5801 28.8103 96.4901 28.9103 96.3301C29.0003 96.1801 29.0303 95.9701 28.9803 95.8001C28.9303 95.6301 28.8203 95.4701 28.6703 95.3901C28.5203 95.3101 28.3103 95.2601 28.1403 95.3201C27.8703 95.4201 27.5903 95.5001 27.3003 95.5401C27.3603 95.5301 27.4203 95.52 27.4803 95.52C27.2103 95.56 26.9303 95.5601 26.6603 95.5301C26.5003 95.5101 26.2903 95.6201 26.1803 95.7301C26.0603 95.8501 25.9703 96.0401 25.9803 96.2101C25.9903 96.3901 26.0503 96.5701 26.1803 96.6901C26.2303 96.7301 26.2703 96.7601 26.3203 96.8001C26.4203 96.8601 26.5403 96.8901 26.6603 96.8901Z" fill="black"/>
<path d="M27.7601 95.72C27.8101 96.53 28.2001 97.27 28.5401 98C28.8701 98.7 29.2201 99.39 29.5901 100.07C29.7601 100.38 30.2201 100.51 30.5301 100.32C30.8501 100.12 30.9601 99.72 30.7801 99.38C30.4301 98.75 30.1001 98.1 29.7901 97.45C29.6401 97.13 29.4901 96.8 29.3501 96.47C29.3301 96.42 29.3301 96.42 29.3501 96.47C29.3301 96.43 29.3201 96.39 29.3001 96.35C29.2701 96.28 29.2401 96.2 29.2201 96.13C29.2001 96.05 29.1701 95.98 29.1601 95.9C29.1501 95.85 29.1401 95.81 29.1301 95.76C29.1401 95.82 29.1401 95.81 29.1301 95.73C29.1101 95.37 28.8301 95.03 28.4501 95.05C28.0901 95.06 27.7401 95.34 27.7601 95.72Z" fill="black"/>
<path d="M29.02 97.3601C27.18 97.6701 25.92 99.9801 26.77 101.67C27.19 102.51 28.02 102.95 28.94 102.94C29.99 102.93 31.18 102.65 32.16 102.28C33.99 101.59 35.7499 99.9901 35.7099 97.8901C35.6899 96.7801 35.23 95.7701 34.74 94.8001C34.28 93.9001 34.07 92.9001 33.61 92.0001C33.18 91.1701 32.51 90.4001 31.68 89.9701C30.84 89.5401 29.8999 89.4101 28.9699 89.3001C28.0999 89.1901 28.1099 90.5601 28.9699 90.6701C30.5499 90.8601 31.8099 91.3101 32.5099 92.8601C32.9199 93.7601 33.16 94.7001 33.61 95.5801C34.04 96.4301 34.4999 97.4201 34.2999 98.4001C33.8799 100.46 31.53 101.16 29.75 101.47C28.94 101.61 27.98 101.65 27.86 100.62C27.76 99.7201 28.5299 98.8201 29.3799 98.6701C30.2499 98.5401 29.88 97.2201 29.02 97.3601Z" fill="black"/>
<path d="M34.6699 99.9301C36.9299 100.65 38.6599 98.5901 39.4399 96.7301C39.8499 95.7601 40.1099 94.6701 39.9299 93.6201C39.7299 92.4501 38.9999 91.3801 38.5499 90.2901C37.7799 88.3901 37.5099 86.0801 35.9099 84.6301C35.0099 83.8101 33.7699 83.2501 32.5399 83.2801C31.6599 83.3101 31.6599 84.6701 32.5399 84.6501C33.3599 84.6301 34.1899 84.9701 34.8199 85.4801C36.1399 86.5601 36.3699 88.3501 36.9299 89.8601C37.2399 90.7101 37.5899 91.5401 37.9799 92.3601C38.3999 93.2401 38.7299 93.9801 38.5599 94.9801C38.2899 96.4901 36.9899 99.2401 35.0299 98.6201C34.1999 98.3401 33.8399 99.6601 34.6699 99.9301Z" fill="black"/>
<path d="M42.3101 92.4901C43.4701 90.7801 45.2201 89.5901 47.1001 88.8301C47.1801 88.8001 47.2701 88.7601 47.3601 88.7501C47.1201 88.8001 47.1801 88.7701 47.2801 88.7801C47.5101 88.8101 47.7501 88.8301 47.9801 88.8601C48.7801 88.9601 49.5801 89.0801 50.3801 89.2301C51.0201 89.3501 51.7601 89.4601 52.3301 89.7901C52.4401 89.8501 52.5101 89.8901 52.5401 90.0001C52.7201 90.5701 52.1101 91.2201 51.7401 91.5901C50.7501 92.5701 49.4401 93.0901 48.2701 93.8201C47.1301 94.5401 46.2401 95.4601 45.5401 96.6201C44.7901 97.8701 44.2601 99.2701 43.3201 100.4C42.3401 101.57 41.0201 102.42 39.5301 102.75C38.6701 102.94 39.0301 104.26 39.8901 104.07C41.3201 103.75 42.6401 103 43.7001 101.99C44.8401 100.9 45.5201 99.5101 46.2601 98.1401C47.0701 96.6201 48.0201 95.5301 49.5301 94.6701C50.8701 93.9001 52.2901 93.2101 53.2501 91.9401C53.9001 91.0801 54.3401 89.8001 53.4501 88.9401C53.3801 88.8701 53.1001 88.6601 53.2901 88.8001C53.1501 88.6901 53.0301 88.6001 52.8801 88.5201C52.5101 88.3201 52.0701 88.2101 51.6701 88.1101C50.7101 87.8701 49.7301 87.7201 48.7601 87.5901C48.2201 87.5201 47.5801 87.3301 47.0401 87.4301C45.8001 87.6401 44.4901 88.5501 43.5401 89.3001C42.6501 90.0101 41.8101 90.8501 41.1601 91.8001C40.6301 92.5301 41.8201 93.2101 42.3101 92.4901Z" fill="black"/>
<path d="M40.0999 81.1301C44.7299 82.3501 49.5899 82.9101 54.3299 83.4501C55.8799 83.6201 58.2199 84.4201 57.2699 86.4801C56.5299 88.0901 54.2399 88.7901 52.6299 88.4201C51.7699 88.2201 51.4099 89.5401 52.2699 89.7401C54.3199 90.2101 56.7499 89.4801 58.0599 87.7901C59.2999 86.1901 58.9699 83.7701 57.1099 82.7901C56.1299 82.2701 54.9899 82.1401 53.8999 82.0401C52.7199 81.9301 51.5699 81.7801 50.3999 81.5901C47.0799 81.0501 43.7299 80.6801 40.4699 79.8201C39.6099 79.5901 39.2499 80.9101 40.0999 81.1301Z" fill="black"/>
<path d="M41.5399 87.71C41.5799 87.71 41.6299 87.73 41.6699 87.72C41.5099 87.75 41.5099 87.7 41.6099 87.71C41.6499 87.72 41.6899 87.72 41.7199 87.73C41.8999 87.76 42.0799 87.79 42.2699 87.83C42.7999 87.93 43.3199 88.03 43.8499 88.13C44.8099 88.32 45.7699 88.51 46.7199 88.73C47.0799 88.81 47.4599 88.62 47.5599 88.25C47.6499 87.9 47.4399 87.49 47.0799 87.41C46.1099 87.19 45.1299 86.99 44.1499 86.79C43.2999 86.62 42.4099 86.38 41.5399 86.33C41.1699 86.31 40.8599 86.66 40.8599 87.01C40.8599 87.42 41.1699 87.69 41.5399 87.71Z" fill="black"/>
<path d="M142.31 128.61C131.98 119.04 121.62 112.32 93.4002 110.37C65.1702 108.42 48.9302 135.04 48.9302 135.04C43.1802 142.34 38.8102 164.72 35.9502 176.79C53.3002 191.28 75.6302 200 100 200C122.07 200 142.47 192.84 159.01 180.73C156.8 166.97 151.06 136.71 142.31 128.61Z" fill="#11A906"/>
<path d="M110.2 116.07C110.2 116.07 112.49 126 106.47 129.73C100.45 133.46 88.1703 130.1 83.4903 121.29C79.4003 113.59 81.3203 108.37 81.3203 108.37L110.2 116.07Z" fill="#A95630"/>
<path d="M91.54 68.15C91.54 68.15 128.47 72.62 130.21 66.36C131.49 61.74 127.81 39.41 92.47 47.08C81.03 49.55 71.94 59.13 71.51 72.5C71.21 81.79 73.65 94.06 78.63 101.45C84.25 109.8 87.95 108.92 87.95 108.92L91.54 68.15Z" fill="black"/>
<path d="M80.8903 111.61C81.2203 107.81 82.3803 101.19 82.3803 101.19C81.5103 101.32 79.6603 101.4 76.8903 99.22C74.0203 96.95 69.9103 89.53 73.9403 85.46C76.3203 83.06 78.9603 81.91 81.9903 85.43C85.4003 89.4 88.5203 89.02 88.3303 84.02C88.1403 79.02 85.2403 67.3 90.1603 64.64C95.0703 61.98 100.01 64.46 109.3 63.37C113.35 62.89 116.2 61.9 119.56 60.81C123.39 59.56 127.83 63.3 128.84 68.2C129.39 70.89 130.59 91.82 130.05 96.54C129.56 100.83 125.47 117.26 108.97 117.2C100.54 117.16 80.8903 111.61 80.8903 111.61Z" fill="#A95630"/>
<path d="M127.53 62.2801C128.5 71.7901 129.82 81.2001 129.21 90.8001C128.69 99.0301 126.9 106.91 120.55 112.54C116.28 116.33 110.67 117.56 105.11 116.61C103.29 116.3 102.5 119.09 104.34 119.4C109.81 120.33 115.42 119.64 120.1 116.52C123.5 114.25 126.22 111.03 128.15 107.45C130.18 103.67 131.13 99.4801 131.68 95.2401C132.49 89.0401 132.38 82.7301 131.94 76.5001C131.6 71.7401 130.91 67.0301 130.43 62.2801C130.24 60.4401 127.34 60.4201 127.53 62.2801Z" fill="black"/>
<path d="M116.3 72.4801C116.58 72.1101 116.89 71.7701 117.22 71.4501C117.57 71.1301 117.71 71.0101 118.12 70.7601C118.3 70.6501 118.48 70.5501 118.67 70.4501C118.76 70.4001 118.86 70.3601 118.95 70.3201C118.79 70.3901 119.08 70.2701 119.11 70.2601C119.3 70.1901 119.5 70.1301 119.7 70.0801C119.8 70.0601 119.9 70.0301 120 70.0101C120.04 70.0001 120.36 69.9501 120.15 69.9801C121.79 69.7901 123.24 70.3601 124.4 71.5601C124.94 72.1201 125.9 72.1101 126.45 71.5601C127.01 71.0001 127 70.0801 126.45 69.5101C124.84 67.8501 122.48 66.8401 120.15 67.0901C117.81 67.3301 115.69 68.5801 114.26 70.4301C113.78 71.0501 113.66 71.8801 114.26 72.4801C114.75 72.9801 115.82 73.1001 116.3 72.4801Z" fill="black"/>
<path d="M106.44 90.33C106.69 91.79 107.79 93.11 109.33 93.19C110.89 93.27 112.13 91.77 111.98 90.26C111.94 89.83 111.63 89.41 111.15 89.43C110.74 89.45 110.28 89.8 110.32 90.26C110.33 90.38 110.33 90.5 110.33 90.62C110.33 90.8 110.37 90.47 110.33 90.64C110.31 90.71 110.3 90.78 110.28 90.84C110.27 90.86 110.21 91.06 110.25 90.94C110.29 90.82 110.22 91 110.2 91.03C110.17 91.08 110.14 91.13 110.11 91.18C110.09 91.2 110.08 91.23 110.06 91.25C110.13 91.17 110.14 91.15 110.1 91.2C110.06 91.24 110.03 91.28 109.98 91.32C109.96 91.34 109.94 91.36 109.92 91.38C109.85 91.44 109.86 91.43 109.96 91.36C109.96 91.39 109.84 91.44 109.82 91.45C109.8 91.46 109.78 91.47 109.77 91.48C109.69 91.52 109.7 91.52 109.8 91.47C109.75 91.51 109.52 91.58 109.46 91.56C109.49 91.55 109.53 91.55 109.56 91.54C109.52 91.54 109.48 91.55 109.44 91.55C109.4 91.55 109.28 91.57 109.26 91.54C109.37 91.56 109.4 91.56 109.33 91.55C109.3 91.55 109.27 91.54 109.24 91.53C109.18 91.52 109.12 91.5 109.07 91.48C109.04 91.47 109.01 91.46 108.98 91.45C108.92 91.43 108.94 91.44 109.04 91.47C109.04 91.47 108.88 91.39 108.88 91.38C108.87 91.38 108.73 91.28 108.72 91.28C108.8 91.35 108.82 91.36 108.77 91.32C108.75 91.3 108.73 91.28 108.7 91.26C108.61 91.18 108.54 91.09 108.46 91.01C108.34 90.88 108.53 91.13 108.45 90.99C108.42 90.94 108.38 90.89 108.35 90.84C108.3 90.75 108.2 90.62 108.18 90.52C108.22 90.62 108.23 90.63 108.19 90.55C108.18 90.52 108.17 90.49 108.16 90.46C108.14 90.4 108.12 90.34 108.1 90.28C108.06 90.15 108.03 90.02 108.01 89.88C107.94 89.45 107.39 89.17 106.99 89.3C106.55 89.46 106.36 89.87 106.44 90.33Z" fill="black"/>
<path d="M110.28 90.5201C110.53 92.2101 112.55 92.9901 114.03 92.4501C114.75 92.1901 115.38 91.6901 115.69 90.9801C116 90.2801 116.11 89.4601 115.81 88.7301C115.72 88.5201 115.63 88.3501 115.43 88.2401C115.25 88.1401 114.99 88.0901 114.79 88.1601C114.41 88.2801 114.04 88.7501 114.21 89.1801C114.26 89.3001 114.28 89.4201 114.32 89.5401C114.33 89.6001 114.33 89.5801 114.31 89.4601C114.31 89.5001 114.32 89.5401 114.32 89.5801C114.32 89.6401 114.32 89.7001 114.32 89.7501C114.32 89.7901 114.33 89.8901 114.31 89.9201C114.33 89.8101 114.33 89.7801 114.32 89.8401C114.32 89.8701 114.31 89.9001 114.3 89.9301C114.28 90.0001 114.26 90.2201 114.2 90.2601C114.25 90.1501 114.25 90.1401 114.21 90.2201C114.2 90.2501 114.18 90.2701 114.17 90.3001C114.14 90.3501 114.11 90.4001 114.08 90.4501C113.97 90.6301 114.17 90.3701 114.06 90.4801C114.02 90.5201 113.98 90.5701 113.94 90.6101C113.93 90.6201 113.81 90.7401 113.8 90.7301C113.88 90.6701 113.9 90.6601 113.85 90.6901C113.83 90.7101 113.8 90.7201 113.77 90.7401C113.72 90.7701 113.67 90.8001 113.61 90.8301C113.57 90.8501 113.54 90.8701 113.5 90.8801C113.6 90.8401 113.62 90.8301 113.56 90.8501C113.44 90.8801 113.32 90.9201 113.19 90.9501C113.02 90.9901 113.36 90.9501 113.18 90.9501C113.12 90.9501 113.06 90.9601 113 90.9601C112.94 90.9601 112.88 90.9601 112.82 90.9501C112.78 90.9501 112.74 90.9401 112.7 90.9401C112.73 90.9401 112.76 90.9501 112.8 90.9501C112.7 90.9701 112.5 90.8701 112.4 90.8501C112.34 90.8301 112.36 90.8401 112.45 90.8701C112.42 90.8601 112.39 90.8401 112.36 90.8301C112.31 90.8001 112.2 90.7601 112.17 90.7101C112.19 90.7301 112.21 90.7401 112.23 90.7601C112.2 90.7301 112.17 90.7101 112.14 90.6801C112.13 90.6701 112.01 90.5501 112.01 90.5501C112.07 90.6301 112.08 90.6501 112.05 90.6001C112.03 90.5801 112.01 90.5501 112 90.5201C111.98 90.4901 111.91 90.4001 111.91 90.3601C111.95 90.4601 111.95 90.4701 111.92 90.3801C111.91 90.3601 111.91 90.3401 111.9 90.3201C111.88 90.2401 111.86 90.1601 111.85 90.0701C111.79 89.6401 111.22 89.3701 110.83 89.4901C110.39 89.6601 110.21 90.0601 110.28 90.5201Z" fill="black"/>
<path d="M115.86 88.87C115.12 85.94 113.81 83.2 112.95 80.31C112.65 79.29 111.05 79.73 111.35 80.75C112.21 83.64 113.52 86.38 114.26 89.31C114.53 90.35 116.12 89.91 115.86 88.87Z" fill="black"/>
<path d="M114.86 78.5801C115.17 76.8601 116.63 75.93 117.14 75.63C118.25 74.99 119.49 74.3301 121.62 74.4101C125.72 74.5601 126.18 75.9201 126.4 76.9001C126.58 77.7101 126.35 79.29 125.24 79.78C124.64 80.04 123.49 79.7601 121.2 79.9801C119.02 80.1901 116.67 81.2101 115.99 81.0501C115.31 80.8901 114.58 80.1101 114.86 78.5801Z" fill="white"/>
<path d="M119.1 80.04C121.43 80.04 121.43 76.42 119.1 76.42C116.77 76.43 116.77 80.04 119.1 80.04Z" fill="black"/>
<path d="M95.3104 81.4201C95.5504 79.8601 96.9904 78.7101 97.5204 78.4401C98.6704 77.8601 100.38 77.2501 102.62 77.3201C106.3 77.4401 107.23 79.1301 107.42 80.0501C107.58 80.8201 107.41 82.2901 106.25 82.7201C105.62 82.9501 104.42 82.6701 102.01 82.8401C99.7304 83.0001 97.2704 83.9101 96.5504 83.7501C95.8304 83.5901 95.0904 82.8601 95.3104 81.4201Z" fill="white"/>
<path d="M100.63 82.6901C102.88 82.6901 102.88 79.1901 100.63 79.1901C98.3802 79.1901 98.3702 82.6901 100.63 82.6901Z" fill="black"/>
<path d="M110.56 49.28C112.57 48.41 114.56 47.68 116.5 47.08C111.17 44.22 104.05 42.97 94.6103 45.51C65.2103 53.43 71.6103 81.33 71.6103 81.33C71.6103 81.33 77.2103 75.46 85.1303 70.58C89.9003 64.33 98.8503 54.35 110.56 49.28Z" fill="#016A81"/>
<path d="M116.49 47.0801C114.56 47.6701 112.57 48.4001 110.55 49.2801C98.8504 54.3501 89.9004 64.3301 85.1304 70.5801C89.3404 67.9901 94.2104 65.6701 99.2404 64.6801C117.08 61.1501 128.78 65.4501 130.71 66.2401C130.78 66.2101 130.86 66.1701 130.94 66.1401C133.58 64.9601 138.1 61.7401 139.67 54.4801C141.75 44.9001 131.68 42.4101 116.49 47.0801Z" fill="#008BAD"/>
<path d="M76.7701 89.52C78.1201 89.06 79.2201 90.3 79.6301 91.48C80.0101 92.61 80.5601 94.8 79.2101 95.5C78.8101 95.71 78.7001 96.26 78.9101 96.63C79.1501 97.03 79.6401 97.13 80.0401 96.93C82.1801 95.83 81.8701 92.82 81.1801 90.92C80.8101 89.89 80.2101 88.96 79.2801 88.36C78.4201 87.8 77.3101 87.59 76.3301 87.92C75.9101 88.06 75.6301 88.49 75.7501 88.94C75.8701 89.35 76.3401 89.66 76.7701 89.52Z" fill="black"/>
<path d="M108.44 71.35C106.35 69.66 103.69 68.93 101.04 69.5C98.65 70.01 96.52 71.67 95.37 73.81C95 74.5 95.2 75.39 95.89 75.79C96.55 76.18 97.5 75.96 97.87 75.27C99.51 72.22 103.62 71.16 106.39 73.4C107 73.89 107.84 73.99 108.44 73.4C108.95 72.89 109.05 71.84 108.44 71.35Z" fill="black"/>
<path d="M133.87 162.9C134.23 170.7 134.36 178.51 134.87 186.3C134.95 187.56 136.93 187.57 136.85 186.3C136.34 178.51 136.22 170.7 135.85 162.9C135.79 161.64 133.81 161.63 133.87 162.9Z" fill="#027D01"/>
<path d="M71.2301 161.71C70.2301 170 68.8401 178.23 68.1201 186.55C68.0101 187.82 69.9901 187.81 70.1001 186.55C70.8201 178.23 72.2101 169.99 73.2101 161.71C73.3501 160.45 71.3801 160.46 71.2301 161.71Z" fill="#027D01"/>
<path d="M97.5802 98.92C97.5902 99.01 97.6102 99.09 97.6202 99.18C97.5902 98.94 97.6302 99.26 97.6302 99.3C97.6502 99.47 97.6602 99.64 97.6802 99.82C97.7002 100.18 97.7102 100.54 97.7102 100.9C97.7102 101.25 97.6902 101.59 97.6502 101.94C97.6402 102.03 97.6302 102.11 97.6202 102.2C97.6102 102.28 97.5902 102.46 97.6102 102.28C97.5902 102.48 97.5502 102.68 97.5102 102.88C97.4202 103.39 97.6502 103.97 98.2002 104.1C98.6902 104.21 99.3102 103.95 99.4202 103.41C99.7302 101.74 99.7502 100.09 99.4802 98.41C99.4002 97.9 98.7302 97.57 98.2602 97.72C97.7102 97.88 97.4902 98.37 97.5802 98.92Z" fill="black"/>
<path d="M98.9002 101.79C101.93 101.52 104.98 101.7 107.95 102.37C109.19 102.65 109.72 100.74 108.48 100.46C105.34 99.76 102.11 99.53 98.9002 99.81C98.3702 99.86 97.9102 100.23 97.9102 100.8C97.9102 101.3 98.3702 101.84 98.9002 101.79Z" fill="black"/>
<path d="M102.89 106.95C103.44 106.89 103.98 106.9 104.53 106.97C104.46 106.96 104.38 106.95 104.31 106.94C104.71 107 105.11 107.09 105.5 107.22C105.91 107.35 106.42 107.06 106.52 106.64C106.62 106.19 106.38 105.77 105.94 105.62C104.97 105.3 103.91 105.18 102.9 105.29C102.67 105.31 102.48 105.37 102.31 105.53C102.17 105.67 102.06 105.91 102.07 106.12C102.08 106.53 102.43 106.99 102.89 106.95Z" fill="black"/>
<path d="M59.2102 176.91C60.8902 161.78 57.5002 153.41 56.6302 147.07C55.7702 140.73 53.8202 128.99 53.8202 128.99C53.8202 128.99 56.0702 128.33 58.1802 125.42C61.1802 121.28 63.4702 121.76 65.4502 120.08C67.4202 118.4 65.8102 117.43 65.8102 117.43C65.8102 117.43 67.8302 118.08 69.4402 117.4C70.8502 116.81 72.8002 113.71 70.3702 111.81C70.3702 111.81 75.4102 111.93 74.1302 108.02C73.1102 104.9 64.2002 103.16 58.6602 99.8501C53.4902 96.7501 49.6802 98.0101 48.0102 99.6301C46.3402 101.25 46.6402 101.79 45.4002 101.97C44.1602 102.15 41.6702 102.9 40.9902 104.21C40.3102 105.52 39.8302 106.09 38.5202 106.88C37.2202 107.67 34.2702 110.41 34.1602 114.56C34.0502 118.71 33.8002 123.74 36.3902 126.73L35.4402 141.43C35.4402 141.43 30.7302 160.08 32.3402 173.65C37.8502 178.71 43.9202 183.16 50.4602 186.9C54.7902 185.62 58.5802 182.59 59.2102 176.91Z" fill="#A95630"/>
<path d="M37.7401 116.64C38.4001 117.02 39.1301 117.23 39.8901 117.27C40.0701 117.28 40.2701 117.18 40.4001 117.06C40.5201 116.94 40.6201 116.73 40.6101 116.55C40.6001 116.37 40.5401 116.17 40.4001 116.04C40.2601 115.91 40.0901 115.84 39.8901 115.83C39.7901 115.82 39.7001 115.81 39.6001 115.8C39.6601 115.81 39.7301 115.82 39.7901 115.83C39.4301 115.78 39.0801 115.69 38.7401 115.55C38.8001 115.57 38.8501 115.6 38.9101 115.62C38.7501 115.55 38.6001 115.48 38.4501 115.39C38.2901 115.3 38.0801 115.27 37.9001 115.32C37.7301 115.37 37.5501 115.49 37.4701 115.65C37.3001 116 37.3901 116.44 37.7401 116.64Z" fill="black"/>
<path d="M39.35 116.36C39.29 116.83 39.38 117.31 39.47 117.77C39.55 118.17 39.64 118.58 39.74 118.98C39.94 119.81 40.16 120.64 40.4 121.46C40.51 121.83 40.9 122.06 41.28 121.96C41.65 121.86 41.89 121.45 41.78 121.08C41.54 120.29 41.33 119.49 41.14 118.69C41.04 118.29 40.96 117.89 40.87 117.48C40.79 117.1 40.73 116.75 40.78 116.36C40.83 115.98 40.42 115.65 40.07 115.65C39.64 115.64 39.4 115.97 39.35 116.36Z" fill="black"/>
<path d="M40.59 118.37C38.59 117.83 36.73 119.59 37.1 121.61C37.52 123.96 40.27 124.5 42.27 124.71C44.32 124.93 46.79 124.08 47.21 121.8C47.43 120.59 47.14 119.37 46.84 118.2C46.53 117.02 46.51 115.77 46.14 114.6C45.82 113.6 45.33 112.64 44.6 111.88C43.89 111.14 42.99 110.6 42.1 110.09C41.3 109.63 40.58 110.86 41.38 111.32C42.88 112.18 44.11 113.09 44.7 114.78C45.09 115.89 45.08 117.09 45.37 118.23C45.64 119.28 46.03 120.42 45.82 121.52C45.34 123.98 42 123.31 40.34 122.86C39.44 122.62 38.55 122.19 38.48 121.14C38.42 120.2 39.32 119.49 40.22 119.73C41.1 119.99 41.48 118.61 40.59 118.37Z" fill="black"/>
<path d="M45.56 123.46C47.57 125.06 49.91 124.21 51.35 122.31C52.04 121.4 52.51 120.29 52.48 119.13C52.44 117.8 51.91 116.46 51.67 115.15C51.24 112.83 51.35 110.34 50.04 108.28C49.28 107.08 48.18 106.05 46.86 105.51C46.01 105.16 45.64 106.54 46.48 106.89C47.32 107.24 48.1 108.01 48.63 108.75C49.68 110.23 49.75 111.89 49.99 113.62C50.13 114.63 50.3 115.64 50.52 116.64C50.74 117.64 51.2 118.74 51.01 119.77C50.68 121.58 48.44 123.94 46.57 122.46C45.86 121.89 44.84 122.89 45.56 123.46Z" fill="black"/>
<path d="M54.4803 118.02C54.9303 117.46 55.5003 116.98 56.0903 116.58C56.7003 116.16 57.3603 115.82 58.0703 115.6C58.6003 115.44 59.1603 115.42 59.6903 115.27C59.8603 115.22 59.7903 115.28 59.6503 115.24C59.7103 115.26 59.7703 115.28 59.8203 115.3C60.0603 115.41 60.3303 115.49 60.5803 115.58C61.3703 115.88 62.1603 116.19 62.9303 116.54C63.6303 116.85 64.4103 117.17 65.0303 117.64C65.6903 118.15 65.6603 118.77 65.0503 119.39C64.1203 120.35 62.6803 120.58 61.4703 121.01C60.2203 121.45 59.1803 122.09 58.3603 123.14C57.4903 124.26 56.9503 125.61 56.0303 126.69C54.9603 127.94 53.4103 128.59 51.7803 128.56C50.8603 128.54 50.8603 129.97 51.7803 129.99C53.3903 130.02 54.9603 129.51 56.2103 128.5C57.3703 127.57 58.0503 126.26 58.8103 125.01C59.1903 124.39 59.5903 123.78 60.1403 123.31C60.7603 122.78 61.5303 122.49 62.2903 122.25C63.7503 121.78 65.3303 121.35 66.3303 120.09C67.1003 119.12 67.2003 117.92 66.3603 116.97C65.8903 116.44 65.2403 116.1 64.6103 115.79C63.6303 115.3 62.6203 114.88 61.6103 114.48C61.1003 114.28 60.5403 113.98 60.0003 113.87C59.6103 113.79 59.1603 113.9 58.7803 113.97C57.8203 114.13 56.9003 114.46 56.0503 114.93C55.1003 115.46 54.1403 116.17 53.4603 117.03C52.9003 117.72 53.9003 118.74 54.4803 118.02Z" fill="black"/>
<path d="M52.13 105C56.97 107.54 62.18 109.49 67.3 111.37C68.89 111.95 71.62 113.44 70.62 115.6C69.83 117.31 67.16 117.12 65.77 116.44C64.95 116.04 64.22 117.27 65.05 117.67C66.61 118.43 68.48 118.62 70.09 117.9C71.65 117.2 72.46 115.68 72.09 113.99C71.67 112.05 70.06 110.95 68.33 110.24C67.43 109.87 66.5 109.6 65.58 109.27C64.44 108.86 63.34 108.33 62.23 107.88C59.07 106.58 55.88 105.35 52.85 103.77C52.04 103.34 51.32 104.57 52.13 105Z" fill="black"/>
<path d="M53.8805 112.9C54.2005 112.98 54.5105 113.12 54.8105 113.24C55.3705 113.46 55.9204 113.68 56.4804 113.91C57.0804 114.16 57.6804 114.4 58.2804 114.66C58.3404 114.68 58.3905 114.71 58.4505 114.73C58.5305 114.76 58.5204 114.76 58.4404 114.73C58.4804 114.74 58.5104 114.76 58.5504 114.77C58.6604 114.82 58.7805 114.87 58.8905 114.92C59.0804 115 59.2704 115.08 59.4604 115.17C59.8104 115.33 60.2304 115.27 60.4404 114.91C60.6204 114.61 60.5405 114.09 60.1805 113.93C59.1005 113.45 58.0205 113.01 56.9305 112.56C56.3705 112.33 55.8105 112.1 55.2505 111.88C54.9305 111.75 54.6005 111.61 54.2705 111.52C53.3705 111.29 52.9905 112.67 53.8805 112.9Z" fill="black"/>
<path d="M56.1999 72.5601C58.3899 74.4801 58.7399 77.5401 58.3199 80.2701C58.2499 80.7001 58.4299 81.1401 58.8799 81.2601C59.2599 81.3601 59.7999 81.1301 59.8699 80.7001C60.3799 77.4201 59.9799 73.7401 57.3399 71.4201C56.5599 70.7401 55.4199 71.8801 56.1999 72.5601Z" fill="white"/>
<path d="M56.3399 73.0401C56.2499 72.1901 56.1999 71.3301 56.2499 70.4701C56.2399 70.5401 56.2299 70.6101 56.2199 70.6801C56.1999 70.7201 56.1799 70.7501 56.1699 70.7901C56.0699 70.8901 55.9799 70.9801 55.8799 71.0801C55.8199 71.1101 55.7499 71.1301 55.6899 71.1601C55.6199 71.1701 55.5499 71.1801 55.4799 71.1901C55.4899 71.1901 55.4899 71.1901 55.4999 71.1901C55.4299 71.1801 55.3599 71.1701 55.2899 71.1601C55.6299 71.2101 55.9699 71.3201 56.3099 71.4101C56.7799 71.5401 57.2599 71.6701 57.7299 71.8101C57.8099 71.8301 57.8899 71.8601 57.9699 71.8801C57.9899 71.8901 58.0199 71.9001 58.0399 71.9001C58.0499 71.9001 58.0599 71.9101 58.0699 71.9101C57.8999 71.8701 57.6899 71.7201 57.6099 71.5501C57.7099 71.1801 57.7999 70.8201 57.8999 70.4501C57.1899 70.9301 56.4799 71.4001 55.7699 71.8901C55.5599 72.0401 55.3499 72.1801 55.1399 72.3301C54.9699 72.4601 54.8299 72.6001 54.7699 72.8101C54.7199 73.0001 54.7399 73.2601 54.8499 73.4301C55.0699 73.7701 55.5899 73.9801 55.9499 73.7201C56.7599 73.1301 57.5999 72.5801 58.4399 72.0201C58.5299 71.9601 58.6199 71.9001 58.7099 71.8401C59.0899 71.5901 59.1999 71.1501 58.9999 70.7401C58.8299 70.4101 58.4099 70.3301 58.0899 70.2301C57.7399 70.1301 57.3899 70.0301 57.0399 69.9401C56.7099 69.8501 56.3799 69.7601 56.0399 69.6801C55.9499 69.6601 55.8499 69.6301 55.7599 69.6101C55.6699 69.5901 55.5799 69.5701 55.4999 69.5701C55.0499 69.5901 54.7399 69.9101 54.6799 70.3501C54.6199 70.7901 54.6499 71.2601 54.6599 71.7101C54.6699 72.1501 54.6999 72.5901 54.7499 73.0301C54.7699 73.2501 54.8199 73.4401 54.9899 73.6001C55.1299 73.7401 55.3599 73.8401 55.5599 73.8401C55.9299 73.8201 56.3799 73.4901 56.3399 73.0401Z" fill="white"/>
<path d="M60.0603 79.08C59.8403 79.45 59.6103 79.81 59.3703 80.17C59.2503 80.34 59.1303 80.51 59.0003 80.68C58.9403 80.76 58.8803 80.84 58.8203 80.92C58.7003 81.08 58.9303 80.79 58.8003 80.95C58.7903 80.97 58.7803 80.98 58.7603 81C58.7003 81.06 58.7303 81.05 58.8203 80.96C58.9603 80.92 59.0903 80.89 59.2303 80.85C59.3703 80.89 59.5003 80.92 59.6403 80.96C59.8203 81.04 59.8303 81.13 59.7703 81.05C59.7503 81.02 59.7303 81 59.7003 80.97C59.6303 80.89 59.5703 80.81 59.5103 80.73C59.4203 80.61 59.3303 80.5 59.2303 80.38C59.2103 80.36 59.1903 80.33 59.1703 80.31C59.0603 80.16 59.2803 80.45 59.2003 80.35C59.1503 80.28 59.1003 80.21 59.0403 80.15C58.8503 79.91 58.6703 79.66 58.4803 79.41C58.4203 79.33 58.3603 79.25 58.3003 79.16C58.2803 79.13 58.2603 79.1 58.2403 79.08C58.2303 79.07 58.2303 79.06 58.2203 79.05C58.2603 79.09 58.3303 79.35 58.3203 79.44C58.0503 79.71 57.7803 79.98 57.5103 80.25C58.5903 80.27 59.6603 80.29 60.7403 80.3C61.1603 80.3 61.5603 79.93 61.5503 79.49C61.5303 79.05 61.2003 78.69 60.7403 78.68C59.6603 78.67 58.5903 78.65 57.5103 78.63C57.3103 78.63 57.0703 78.72 56.9403 78.87C56.7903 79.04 56.7303 79.21 56.7003 79.44C56.6603 79.73 56.9303 80.02 57.0903 80.24C57.3103 80.53 57.5303 80.82 57.7503 81.11C57.9903 81.42 58.2203 81.72 58.4603 82.02C58.5103 82.08 58.5603 82.15 58.6203 82.21C58.7703 82.37 58.9903 82.46 59.2103 82.46C59.5403 82.46 59.7803 82.27 59.9703 82.02C60.5003 81.34 60.9903 80.63 61.4303 79.89C61.6403 79.53 61.5203 78.99 61.1403 78.79C60.7803 78.58 60.2903 78.69 60.0603 79.08Z" fill="white"/>
</g>
<defs>
<clipPath id="clip0_520_4522">
<rect width="200" height="200" fill="white"/>
</clipPath>
</defs>
</svg>
