<svg width="200" height="200" viewBox="0 0 200 200" fill="none" xmlns="http://www.w3.org/2000/svg">
<g clip-path="url(#clip0_520_4521)">
<path d="M100 200C155.228 200 200 155.228 200 100C200 44.7715 155.228 0 100 0C44.7715 0 0 44.7715 0 100C0 155.228 44.7715 200 100 200Z" fill="#BCE37C"/>
<path d="M77.7002 91.3199C77.7002 91.3199 73.2402 98.7199 72.4802 106.64C71.5702 116.22 74.7602 122.41 74.7602 122.41C74.7602 122.41 76.5302 121.14 78.3102 120.12C80.5502 118.83 87.1902 117.09 87.1902 117.09L87.3802 106.4L77.7002 91.3199Z" fill="#2D2D2D"/>
<path d="M172.08 169.31C165.71 146.18 151.55 114.2 121.83 113.21C75.1202 111.64 47.4502 136.75 47.4502 136.75L47.6702 185.23C62.9002 194.59 80.8202 200 100 200C128.32 200 153.88 188.23 172.08 169.31Z" fill="#E7E6E6"/>
<path d="M63.7002 110.96L62.8502 99.02C62.8502 99.02 67.6702 94.68 68.2702 87.94C68.5202 85.1 68.1102 79.79 64.5602 78.92C64.8002 79.04 64.6202 73.27 61.5702 72C59.6002 71.18 57.8402 72.65 57.6802 72.45C54.5802 68.62 51.1402 72.51 51.1402 72.51C51.1402 72.51 49.2502 70.64 46.9202 71.1C43.4402 71.8 43.3602 73.87 43.3602 73.87C43.3602 73.87 39.8702 71.91 36.4702 74.77C33.9302 76.91 33.8202 82.24 34.1002 86.98C34.4102 92.3 38.9202 98.2 42.8802 100.81L43.0002 111.85L63.7002 110.96Z" fill="#E08F8B"/>
<path d="M66.0801 78.81C65.1501 78.08 64.1201 77.47 63.0801 76.92C61.3901 76.03 59.5701 75.29 57.6501 75.12C56.7901 75.05 55.8801 75.12 55.0701 75.44C54.1901 75.78 53.6501 76.57 53.3301 77.42C52.9501 78.42 52.9601 79.59 53.4701 80.53C53.9701 81.45 54.9201 82.15 55.7601 82.73C56.6901 83.37 57.6901 83.89 58.7001 84.38C59.4001 84.72 60.1701 85.01 60.8001 85.47C61.6301 86.08 62.4301 84.69 61.6101 84.09C61.1601 83.76 60.6301 83.55 60.1401 83.31C59.3701 82.94 58.6001 82.57 57.8601 82.15C56.5801 81.43 54.4401 80.3 54.6801 78.55C54.7601 78 55.0501 77.21 55.5501 76.96C56.1601 76.65 56.9901 76.66 57.6501 76.72C59.2101 76.86 60.7301 77.5 62.1001 78.21C62.7701 78.56 63.4301 78.94 64.0601 79.34C64.2801 79.48 64.4901 79.62 64.7001 79.77C64.7901 79.83 65.2301 80.16 64.9401 79.94C65.2801 80.21 65.7401 80.27 66.0701 79.94C66.3601 79.67 66.4201 79.08 66.0801 78.81Z" fill="black"/>
<path d="M61.2104 83.9899C58.9004 83.7999 56.5404 84.8799 55.0904 86.6799C53.5004 88.6499 52.9904 91.1899 53.3904 93.6599C53.4604 94.0899 53.9904 94.3299 54.3804 94.2199C54.8304 94.0999 55.0104 93.6599 54.9404 93.2299C54.6304 91.3299 55.0604 89.2099 56.3104 87.7099C57.5104 86.2599 59.3304 85.4399 61.2204 85.5999C61.6504 85.6399 62.0204 85.2099 62.0204 84.7999C62.0104 84.3299 61.6404 84.0299 61.2104 83.9899Z" fill="black"/>
<path d="M38.2204 81.89C38.8104 82.47 39.5304 82.9 40.3204 83.16C40.5104 83.22 40.7604 83.18 40.9304 83.08C41.0904 82.98 41.2504 82.8 41.2904 82.61C41.3904 82.18 41.1604 81.78 40.7404 81.64C40.6304 81.6 40.5204 81.56 40.4104 81.52C40.4704 81.55 40.5404 81.57 40.6004 81.6C40.2404 81.45 39.8904 81.25 39.5804 81C39.6304 81.04 39.6904 81.08 39.7404 81.12C39.6004 81.01 39.4704 80.89 39.3404 80.77C39.2004 80.63 38.9904 80.54 38.7804 80.54C38.5904 80.54 38.3604 80.63 38.2204 80.77C38.0804 80.92 37.9804 81.12 37.9904 81.33C38.0004 81.54 38.0704 81.74 38.2204 81.89Z" fill="black"/>
<path d="M41.0303 80.94C40.5803 81.67 40.1703 82.46 39.8903 83.27C39.6903 83.86 39.5903 84.51 39.6003 85.12C39.6103 85.75 39.7503 86.4 39.8203 86.99C39.8703 87.41 40.1403 87.78 40.6103 87.78C41.0003 87.78 41.4503 87.42 41.4003 86.99C41.3603 86.63 41.3103 86.28 41.2503 85.92C41.2403 85.84 41.2303 85.76 41.2103 85.67C41.2203 85.78 41.2103 85.65 41.2003 85.61C41.1903 85.49 41.1703 85.36 41.1703 85.24C41.1403 84.67 41.2103 84.26 41.4003 83.69C41.4403 83.58 41.4803 83.46 41.5303 83.35C41.4903 83.45 41.5403 83.33 41.5603 83.29C41.5903 83.23 41.6103 83.17 41.6403 83.11C41.7403 82.89 41.8603 82.67 41.9703 82.45C42.1003 82.2 42.2403 81.96 42.3803 81.72C42.6003 81.36 42.4603 80.86 42.1003 80.65C41.7403 80.44 41.2503 80.57 41.0303 80.94Z" fill="black"/>
<path d="M40.6904 83.8C38.3304 82.7 35.8104 84.7 36.3004 87.25C36.5504 88.55 37.5104 89.39 38.6604 89.93C40.0004 90.57 41.4504 91.2 42.9604 91.24C45.6404 91.32 47.5504 89.11 48.1304 86.67C48.4904 85.15 48.3804 83.54 48.0204 82.03C47.3804 79.37 45.7804 77.06 43.8904 75.13C43.1804 74.41 42.0704 75.52 42.7804 76.24C44.8504 78.34 46.5004 80.96 46.7504 83.93C46.8904 85.54 46.6104 87.29 45.5104 88.54C43.9404 90.33 41.6504 89.55 39.7904 88.71C38.7904 88.26 37.7104 87.67 37.8204 86.4C37.9104 85.42 38.9804 84.71 39.9104 85.14C40.8004 85.58 41.6004 84.22 40.6904 83.8Z" fill="black"/>
<path d="M50.7503 74.93C52.1303 77.23 52.9203 79.88 52.9303 82.57C52.9403 83.89 52.8003 85.14 51.7903 86.08C50.8103 87 49.4103 87.24 48.1203 86.94C47.1203 86.7 46.6903 88.25 47.6903 88.49C51.0103 89.27 54.1903 87.21 54.4803 83.76C54.7603 80.43 53.8303 76.97 52.1203 74.12C51.6103 73.24 50.2203 74.04 50.7503 74.93Z" fill="black"/>
<path d="M52.4902 86.37C52.7702 86.86 53.2402 87.25 53.7602 87.48C54.0502 87.6 54.3402 87.7 54.6502 87.76C54.9802 87.82 55.3202 87.86 55.6602 87.9C55.8502 87.92 56.1002 87.7899 56.2302 87.6699C56.3702 87.5299 56.4702 87.2999 56.4602 87.0999C56.4502 86.8899 56.3802 86.6799 56.2302 86.5299C56.0602 86.3799 55.8902 86.32 55.6602 86.3C55.5402 86.29 55.4202 86.27 55.3002 86.26C55.3702 86.27 55.4402 86.2799 55.5102 86.2899C55.1202 86.2399 54.7402 86.1699 54.3802 86.0199C54.4402 86.0499 54.5102 86.0699 54.5702 86.0999C54.3802 86.0199 54.2002 85.9199 54.0402 85.7899C54.0902 85.8299 54.1502 85.8699 54.2002 85.9199C54.0802 85.8199 53.9702 85.7199 53.8802 85.5999C53.9202 85.6499 53.9602 85.71 54.0102 85.76C53.9602 85.7 53.9202 85.6399 53.8802 85.5699C53.6702 85.2099 53.1502 85.0499 52.7802 85.2799C52.4102 85.5099 52.2602 85.98 52.4902 86.37Z" fill="black"/>
<path d="M57.6 73.83C57.82 74.61 58.04 75.39 58.26 76.17C58.37 76.57 58.83 76.86 59.25 76.73C59.66 76.6 59.93 76.18 59.81 75.74C59.59 74.96 59.37 74.18 59.15 73.4C59.04 73 58.58 72.71 58.16 72.84C57.75 72.97 57.48 73.39 57.6 73.83Z" fill="black"/>
<path d="M64.1402 180.77C65.7002 165.27 60.3602 134.11 60.3602 134.11C60.3602 134.11 61.8902 133.92 65.6102 131.11C69.0002 128.55 72.5302 121.05 72.5302 121.05C72.5302 121.05 78.3702 120.17 75.9802 111.9C74.6002 107.14 74.5602 104.54 72.3402 103.02C70.1102 101.5 62.1902 99.0199 59.9002 100.57C57.6102 102.12 57.8502 102.82 56.3602 102.78C54.8702 102.74 51.7902 103.11 50.7302 104.5C49.6702 105.89 48.9802 106.47 47.2902 107.13C45.6002 107.79 41.5802 110.4 40.6002 115.24C39.6202 120.08 38.3002 125.93 40.7202 129.97L36.5902 147.02C36.5902 147.02 32.6702 161.68 32.4102 173.67C39.9302 180.57 48.5102 186.33 57.8702 190.69C61.1902 188.79 63.6602 185.55 64.1402 180.77Z" fill="#F6A7AD"/>
<path d="M99.4898 132.59C97.3398 149.59 96.1398 166.72 95.6398 183.85C95.5098 188.49 95.4298 193.14 95.4398 197.78C95.4398 199.49 98.1098 199.5 98.0998 197.78C98.0698 180.65 98.9998 163.49 100.62 146.44C101.06 141.82 101.56 137.2 102.15 132.59C102.36 130.89 99.6998 130.91 99.4898 132.59Z" fill="#B4E2EE"/>
<path d="M132.44 54.0599C132.44 54.0599 137.92 57.5999 139.95 70.3299C141.98 83.0699 139.47 79.7099 143.17 88.2299C146.87 96.7399 147.49 102.51 146.92 107.84C146.34 113.17 145.17 116.79 145.17 116.79L141.07 112.27C141.07 112.27 141.61 116.38 141.2 119.8C140.79 123.22 139 125.96 139 125.96L135.85 119.91C135.85 119.91 135.79 123.02 135.39 124.79C134.93 126.82 133.54 129.14 133.54 129.14C133.54 129.14 130.72 125.43 127.09 123.01C122.36 119.86 117.1 118.25 117.1 118.25L117.67 62.2599L132.44 54.0599Z" fill="#2D2D2D"/>
<path d="M105 130.89C105 130.89 112.18 131.44 114.53 131.94C117.9 132.65 122.39 134.52 124.93 135.65C125.86 136.06 126.91 135.4 126.92 134.4C126.96 128.17 125.85 110.01 120.99 105.79L105 130.89Z" fill="#B4E2EE"/>
<path d="M95.48 130.18C95.48 130.18 89.01 131.09 86.93 131.73C83.68 132.72 80.23 134.21 78.32 135.08C77.67 135.38 76.94 134.84 77.04 134.13C77.73 128.95 80.06 114.33 84.45 109.67L87.16 111.86L91.53 121.04L95.48 130.18Z" fill="#B4E2EE"/>
<path d="M122.63 65.8799C122.63 65.8799 133.92 62.93 137.89 56.02C141.86 49.11 141.49 42.83 141.49 42.83C141.49 42.83 137.23 45.77 134.89 46.7C132.55 47.63 129.64 48.32 129.64 48.32C129.64 48.32 129.97 47.58 131.15 44.52C132.33 41.47 132.66 39.09 132.66 39.09C132.66 39.09 129.55 43.0599 126.02 44.0499C122.49 45.0399 119.17 44.8499 119.17 44.8499C119.17 44.8499 122.46 42.6 123.47 40.91C124.49 39.23 125.96 35.7 125.96 35.7C125.96 35.7 121.64 37.46 117.87 37.56C114.11 37.66 111.97 37.22 110.53 37.93C109.1 38.64 107.8 40.7599 107.8 40.7599C107.8 40.7599 108.17 38.77 105.13 37.66C102.09 36.54 100.62 36.2199 98.7096 35.2599C96.8796 34.3399 94.2196 31.95 94.2196 31.95C94.2196 31.95 93.3696 33.4999 93.3796 35.2599C93.3896 37.7599 95.4696 40.1399 95.4696 40.1399C95.4696 40.1399 94.4296 40.81 91.7496 40.18C88.4896 39.4 86.3596 36.56 86.3596 36.56C86.3596 36.56 85.5596 38.0599 85.9496 39.6699C86.3396 41.2899 87.3696 42.08 87.3696 42.08C87.3696 42.08 85.3596 41.96 83.4196 40.45C81.4896 38.94 80.7796 37.52 80.7796 37.52C80.7796 37.52 75.8796 40.64 75.0096 47.57C74.1396 54.4999 74.6596 57.2 76.2496 61.36C77.8396 65.52 80.2796 69.7099 80.2796 69.7099L122.63 65.8799Z" fill="black"/>
<path d="M87.16 111.8C87.16 111.8 88.86 119.2 92.95 126.38C93.65 127.61 97.06 132.92 98.96 135.85C99.62 136.88 101.06 137.05 101.94 136.2C104.36 133.88 108.63 129.69 109.82 127.92C111.52 125.4 119.75 117.09 120.76 110.31C121.38 106.2 121.09 89.4899 121.09 89.4899C121.09 89.4899 125.89 94.4499 131.05 89.1299C134.51 85.5699 134.3 76.1899 127.95 75.3599C123.68 74.7999 120.79 78.7099 120.79 78.7099C120.79 78.7099 119.92 79.4999 119.82 77.2799C119.67 73.7099 119.82 65.4799 120.14 61.8399C120.26 60.4399 119.94 59.0199 119.17 57.8399C117.2 54.7999 112.19 49.7499 100.69 49.8399C84.27 49.9699 81.53 53.9599 80.15 59.6099C78.78 65.2499 78.83 70.1399 75.97 76.1999C73.11 82.2599 72.67 84.5799 75.17 93.0199C79.26 106.72 87.16 111.8 87.16 111.8Z" fill="#F6A7AD"/>
<path d="M98.0296 82.6699C98.0696 82.8499 98.0396 82.4999 98.0396 82.6799C98.0396 82.7099 98.0396 82.7399 98.0396 82.7699C98.0396 82.8299 98.0396 82.8099 98.0496 82.6999C98.0596 82.7299 98.0196 82.8099 98.0196 82.8399C98.0096 82.8699 97.9996 82.8999 97.9896 82.9199C98.0296 82.8299 98.0396 82.8099 98.0096 82.8599C97.9796 82.8999 97.9596 82.9499 97.9396 82.9899C97.8496 83.1399 98.0496 82.8899 97.9196 83.0099C97.8796 83.0499 97.8296 83.0999 97.7896 83.1399C97.6896 83.2399 97.8596 83.0999 97.7796 83.1499C97.6796 83.2099 97.5896 83.2699 97.4896 83.3199C97.3096 83.4199 97.6396 83.2699 97.4496 83.3399C97.3896 83.3599 97.3296 83.3799 97.2696 83.3999C97.1596 83.4399 97.0496 83.4599 96.9396 83.4899C96.7596 83.5399 97.0396 83.4899 96.8696 83.4999C96.7996 83.4999 96.7396 83.5099 96.6696 83.4999C96.6396 83.4999 96.4796 83.4699 96.5996 83.4999C96.7296 83.5299 96.5296 83.4799 96.5096 83.4799C96.4596 83.4699 96.4196 83.4499 96.3696 83.4399C96.1896 83.3899 96.5096 83.5199 96.3496 83.4299C96.2996 83.3999 96.2496 83.3799 96.1996 83.3399C96.1796 83.3299 96.0396 83.2299 96.1396 83.2999C96.2396 83.3699 96.0896 83.2499 96.0696 83.2299C96.0396 83.1999 95.9996 83.1599 95.9696 83.1199C95.8496 82.9899 96.0496 83.2499 95.9496 83.0899C95.9196 83.0399 95.8896 82.9899 95.8596 82.9299C95.7896 82.7999 95.8796 83.0199 95.8596 82.9299C95.8496 82.8799 95.8296 82.8399 95.8196 82.7899C95.8096 82.7399 95.7796 82.6699 95.7796 82.6099C95.7896 82.7099 95.7996 82.7399 95.7896 82.6699C95.7896 82.6399 95.7896 82.6099 95.7896 82.5799C95.7896 82.5399 95.7696 82.4299 95.7996 82.3999C95.7996 82.4299 95.7896 82.4599 95.7896 82.4899C95.7996 82.4499 95.7996 82.4099 95.8096 82.3699C95.8996 81.9599 95.6896 81.4899 95.2496 81.3899C94.8496 81.2999 94.3596 81.5099 94.2696 81.9499C94.0996 82.7599 94.2896 83.5499 94.8096 84.1899C95.2596 84.7399 95.9796 85.0499 96.6896 85.0799C98.2096 85.1399 99.9796 83.8999 99.5796 82.2199C99.4796 81.8099 98.9996 81.5299 98.5996 81.6599C98.1696 81.8199 97.9296 82.2299 98.0296 82.6699Z" fill="black"/>
<path d="M94.1497 81.9399C94.1397 81.9799 94.1297 82.0199 94.1197 82.0599C94.0897 82.1399 94.0897 82.1399 94.1297 82.0399C94.1297 82.0799 94.0397 82.2199 94.0097 82.2499C94.1597 82.1199 93.9897 82.2599 93.9597 82.2999C93.9197 82.3399 93.7897 82.4999 93.9097 82.3499C93.8697 82.4099 93.7497 82.4499 93.6897 82.4799C93.6497 82.4999 93.6097 82.5199 93.5597 82.5399C93.6397 82.5099 93.6397 82.5099 93.5497 82.5399C93.3897 82.5899 93.2297 82.6299 93.0697 82.6699C92.9797 82.6899 92.9797 82.6899 93.0697 82.6699C93.0197 82.6799 92.9797 82.6799 92.9297 82.6799C92.8997 82.6799 92.8697 82.6799 92.8397 82.6799C92.7997 82.6799 92.7597 82.6799 92.7197 82.6799C92.5297 82.6699 92.8997 82.7199 92.7697 82.6899C92.6897 82.6699 92.5997 82.6499 92.5197 82.6299C92.4897 82.6199 92.4097 82.5699 92.3697 82.5799C92.4997 82.6399 92.5297 82.6499 92.4497 82.6099C92.4297 82.5999 92.4097 82.5899 92.3997 82.5799C92.3097 82.5299 92.2197 82.4599 92.1297 82.4099C92.3197 82.4999 92.1997 82.4599 92.1397 82.4099C92.0997 82.3699 92.0597 82.3399 92.0297 82.2999C92.0097 82.2799 91.9897 82.2499 91.9697 82.2299C91.9197 82.1699 91.9297 82.1799 92.0097 82.2799C92.0097 82.2499 91.9197 82.1399 91.8997 82.1099C91.8697 82.0699 91.8497 82.0199 91.8297 81.9699C91.7897 81.8899 91.7997 81.9099 91.8497 82.0099C91.8397 81.9799 91.8197 81.9399 91.8097 81.9099C91.7597 81.7699 91.7297 81.6399 91.7097 81.4999C91.7397 81.6799 91.6997 81.3899 91.6997 81.3499C91.6997 81.2499 91.6997 81.1599 91.6997 81.0599C91.6997 80.9899 91.7097 80.9099 91.7197 80.8399C91.6997 81.0199 91.7397 80.7199 91.7497 80.6899C91.7897 80.4999 91.8497 80.3099 91.9197 80.1299C92.0697 79.7399 91.7597 79.2399 91.3597 79.1499C90.9097 79.0499 90.5297 79.2899 90.3797 79.7099C89.9197 80.9499 89.9897 82.5499 90.9997 83.5199C91.8097 84.2899 92.9297 84.4599 93.9697 84.0999C94.7797 83.8199 95.5097 83.2399 95.7197 82.3799C95.8197 81.9699 95.5897 81.4999 95.1597 81.3999C94.7297 81.2899 94.2597 81.5099 94.1497 81.9399Z" fill="black"/>
<path d="M93.4398 72.6499C92.5098 74.8999 91.5298 77.1299 90.4898 79.3299C90.3098 79.7199 90.3798 80.1899 90.7798 80.4199C91.1298 80.6199 91.6898 80.5299 91.8698 80.1299C92.9598 77.7999 93.9998 75.4499 94.9798 73.0699C95.1398 72.6699 94.7998 72.1899 94.4198 72.0899C93.9598 71.9599 93.5998 72.2499 93.4398 72.6499Z" fill="black"/>
<path d="M110.78 65.45C108.74 63.79 106.32 62.74 103.67 62.69C101.68 62.65 99.6898 63.18 98.1098 64.41C97.4898 64.89 97.5998 65.96 98.1098 66.47C98.7198 67.08 99.5498 66.96 100.17 66.47C99.8698 66.7 100.22 66.45 100.34 66.38C100.47 66.3 100.61 66.23 100.74 66.16C100.82 66.12 100.9 66.09 100.98 66.05C100.88 66.1 100.77 66.13 100.94 66.07C101.12 66.01 101.3 65.94 101.49 65.89C101.66 65.84 101.84 65.79 102.02 65.76C102.12 65.74 102.22 65.72 102.33 65.7C102.37 65.69 102.71 65.64 102.52 65.67C102.32 65.7 102.72 65.65 102.72 65.65C102.81 65.64 102.9 65.64 102.99 65.63C103.22 65.62 103.45 65.61 103.68 65.62C103.89 65.62 104.11 65.64 104.32 65.66C104.37 65.66 104.68 65.7 104.44 65.67C104.54 65.68 104.64 65.7 104.73 65.72C105.21 65.81 105.69 65.93 106.15 66.09C106.99 66.38 107.94 66.9 108.73 67.54C109.34 68.04 110.19 68.14 110.79 67.54C111.3 67 111.4 65.95 110.78 65.45Z" fill="black"/>
<path d="M93.0499 64.2999C91.5999 62.9699 89.5299 62.5199 87.6099 62.5599C86.3399 62.5899 85.0699 62.8399 83.8799 63.2699C82.8299 63.6599 81.7499 64.1399 80.9499 64.9499C79.6199 66.2799 81.6799 68.3399 83.0099 67.0099C83.0699 66.9499 83.1399 66.8999 83.1899 66.8399C83.2999 66.7099 82.9199 67.0099 83.2099 66.8299C83.3699 66.7299 83.5299 66.6199 83.6999 66.5299C83.8899 66.4299 84.0799 66.3299 84.2799 66.2399C84.4799 66.1499 84.2999 66.2299 84.4299 66.1799C84.5299 66.1399 84.6299 66.0999 84.7299 66.0699C85.2199 65.8899 85.7299 65.7499 86.2399 65.6399C86.8099 65.5199 87.0099 65.4999 87.6099 65.4899C87.8699 65.4799 88.1199 65.4899 88.3799 65.4999C88.4899 65.5099 88.5899 65.5199 88.6999 65.5199C89.1799 65.5499 88.5799 65.4899 88.8299 65.5299C89.2399 65.5899 89.6399 65.6899 90.0299 65.8299C90.0999 65.8599 90.1699 65.8899 90.2399 65.9099C89.9299 65.8099 90.1599 65.8699 90.2299 65.9099C90.3599 65.9799 90.4899 66.0399 90.6099 66.1099C90.7299 66.1799 90.8399 66.2599 90.9599 66.3399C91.1299 66.4399 90.8599 66.2599 90.8399 66.2399C90.8899 66.2699 90.9399 66.3299 90.9799 66.3699C91.5599 66.8999 92.4699 66.9399 93.0399 66.3699C93.5899 65.8199 93.6299 64.8299 93.0499 64.2999Z" fill="black"/>
<path d="M97.7398 83.39C97.7398 83.39 101.41 84.2 102.21 86.26C102.58 87.22 102.03 87.99 100.93 88C99.8298 88.01 98.2498 87.06 98.2498 87.06C98.2498 87.06 98.5898 88.85 97.1598 88.96C95.7298 89.07 94.7798 87.5 94.7798 87.5C94.7798 87.5 94.5898 89.31 93.0298 89.44C91.4698 89.57 91.2198 87.59 91.2198 87.59C91.2198 87.59 89.0098 89.78 87.5298 88.16C86.0498 86.54 88.1598 83.93 89.9798 83.29C91.8098 82.64 91.9698 82.93 91.9698 82.93C91.9698 82.93 92.5498 84.34 94.3398 82.95C94.3398 82.95 94.7798 83.94 96.0498 84.02C97.3098 84.11 97.7398 83.39 97.7398 83.39Z" fill="black"/>
<path d="M77.0298 61.02C77.2998 66.69 74.2598 71.76 72.9898 77.15C71.6998 82.6 72.3798 88.48 73.9998 93.8C75.5898 99.04 78.2498 104.16 81.8698 108.29C85.4198 112.34 90.6698 113.76 95.8998 113.85C101.32 113.94 107.01 112.42 110.97 108.56C112.32 107.25 110.25 105.19 108.91 106.5C105.78 109.55 101.34 110.81 97.0498 110.93C92.1998 111.07 87.2298 110.02 83.9298 106.24C80.6598 102.49 78.2598 97.78 76.8098 93.03C75.2998 88.06 74.6198 82.6 75.8998 77.51C77.2898 72.01 80.2198 66.85 79.9398 61.03C79.8498 59.15 76.9398 59.14 77.0298 61.02Z" fill="black"/>
<path d="M128.48 79.13C127.31 78.93 126.19 79.26 125.28 80.01C124.36 80.77 123.86 81.91 123.7 83.06C123.55 84.16 123.61 85.47 124.23 86.43C124.9 87.47 126.06 87.83 127.23 88C127.66 88.06 128.09 87.9 128.21 87.44C128.31 87.07 128.08 86.52 127.65 86.46C126.97 86.36 126.08 86.27 125.64 85.67C125.18 85.05 125.17 84.08 125.26 83.35C125.42 82 126.5 80.4 128.05 80.67C128.47 80.74 128.91 80.56 129.03 80.11C129.15 79.73 128.91 79.2 128.48 79.13Z" fill="black"/>
<path d="M87.0898 94.8099C88.8398 96.5499 91.7198 97.2399 94.0898 97.4599C97.9998 97.8199 101.75 96.47 104.67 93.89C105.58 93.09 104.25 91.7599 103.34 92.5599C100.77 94.8299 97.4998 95.89 94.0898 95.57C92.2098 95.4 89.6998 94.75 88.4198 93.48C87.5598 92.63 86.2298 93.9599 87.0898 94.8099Z" fill="black"/>
<path d="M102.14 90.15C102.15 91.48 102.72 92.84 103.76 93.69C105.1 94.78 106.82 94.94 108.45 94.49C108.92 94.36 109.26 93.82 109.11 93.33C108.95 92.85 108.46 92.53 107.95 92.67C107.76 92.72 107.57 92.77 107.38 92.8C107.33 92.81 107.28 92.82 107.22 92.83C107.34 92.82 107.35 92.81 107.24 92.83C107.16 92.84 107.09 92.84 107.01 92.85C106.84 92.86 106.67 92.86 106.51 92.85C106.43 92.85 106.35 92.83 106.27 92.83C106.2 92.82 106.23 92.83 106.35 92.84C106.31 92.83 106.26 92.83 106.22 92.82C106.07 92.79 105.93 92.76 105.79 92.71C105.73 92.69 105.67 92.67 105.61 92.65C105.45 92.6 105.8 92.74 105.56 92.63C105.44 92.57 105.33 92.51 105.22 92.44C105.16 92.4 105.11 92.36 105.05 92.33C104.9 92.23 105.21 92.47 105.04 92.32C104.95 92.24 104.86 92.16 104.77 92.07C104.72 92.02 104.67 91.96 104.62 91.9C104.54 91.81 104.56 91.75 104.63 91.92C104.59 91.81 104.48 91.7 104.41 91.6C104.34 91.49 104.29 91.37 104.23 91.26C104.15 91.09 104.3 91.45 104.24 91.28C104.21 91.21 104.19 91.14 104.17 91.07C104.13 90.95 104.1 90.83 104.07 90.7C104.06 90.65 104.05 90.59 104.04 90.54C103.99 90.28 104.05 90.69 104.04 90.52C104.03 90.39 104.02 90.27 104.02 90.15C104.02 89.66 103.59 89.19 103.08 89.21C102.57 89.24 102.14 89.63 102.14 90.15Z" fill="black"/>
<path d="M92.0897 101.03C93.5297 101.59 95.1797 101.67 96.7097 101.5C97.8397 101.38 99.2597 101.2 100.21 100.5C100.62 100.2 100.82 99.68 100.55 99.21C100.31 98.81 99.6797 98.57 99.2597 98.87C99.1097 98.98 98.9597 99.05 98.7897 99.13C99.0097 99.03 98.6997 99.16 98.6297 99.18C98.5097 99.22 98.3797 99.26 98.2597 99.3C97.9897 99.38 97.7197 99.44 97.4397 99.49C97.0797 99.56 96.8697 99.59 96.6097 99.62C95.1897 99.76 93.8997 99.72 92.5997 99.21C92.1297 99.03 91.5697 99.41 91.4397 99.87C91.2797 100.4 91.6097 100.84 92.0897 101.03Z" fill="black"/>
<path d="M100.61 73.1799C100.7 73.0399 100.85 72.8699 101.06 72.6999C101.18 72.6099 100.92 72.7899 101.14 72.6499C101.19 72.6199 101.24 72.5899 101.28 72.5599C101.4 72.4799 101.53 72.4099 101.66 72.3499C102.03 72.1699 102.63 72.0399 103.05 72.0299C103.53 72.0199 103.96 72.0899 104.41 72.2899C104.87 72.4899 105.25 72.8199 105.53 73.2999C106.05 74.1899 107.43 73.3799 106.91 72.4899C105.33 69.7699 100.94 69.7899 99.2196 72.3699C98.9796 72.7299 99.1496 73.2499 99.5096 73.4599C99.9096 73.6999 100.37 73.5399 100.61 73.1799Z" fill="black"/>
<path d="M84.1296 72.75C84.2196 72.61 84.3696 72.44 84.5796 72.27C84.6996 72.18 84.4396 72.36 84.6596 72.22C84.7096 72.19 84.7596 72.16 84.7996 72.13C84.9196 72.05 85.0496 71.98 85.1796 71.92C85.5496 71.74 86.1496 71.61 86.5696 71.6C87.0496 71.59 87.4796 71.66 87.9296 71.86C88.3896 72.06 88.7696 72.39 89.0496 72.87C89.5696 73.76 90.9496 72.95 90.4296 72.06C88.8496 69.34 84.4596 69.36 82.7396 71.94C82.4996 72.3 82.6696 72.82 83.0296 73.03C83.4296 73.26 83.8896 73.11 84.1296 72.75Z" fill="black"/>
<path d="M141.85 172.12C142.96 177.16 143.73 182.26 144.14 187.41C144.28 189.11 146.94 189.12 146.8 187.41C146.36 182.03 145.57 176.69 144.41 171.42C144.05 169.74 141.48 170.45 141.85 172.12Z" fill="#B4E2EE"/>
<path d="M24.2502 87.78C28.9602 92.07 31.1002 98.3 31.4202 104.55C31.6002 108.01 31.2902 111.5 30.7002 114.91C30.1502 118.06 29.2802 121.14 27.6002 123.89C27.0002 124.87 28.5402 125.76 29.1302 124.79C30.8902 121.92 31.8402 118.69 32.4102 115.39C33.0602 111.67 33.4102 107.86 33.1702 104.08C32.7502 97.54 30.4402 91.03 25.5102 86.53C24.6602 85.76 23.4002 87.01 24.2502 87.78Z" fill="white"/>
<path d="M23.2201 88.93C23.0601 87.41 23.0101 85.89 23.0601 84.36C23.0601 84.28 23.0701 84.2 23.1201 84.13C23.1701 84.06 28.2201 85.46 28.2301 85.52C28.2201 85.53 24.4701 88.03 23.2201 88.93Z" fill="white"/>
<path d="M24.68 88.93C24.52 87.4 24.43 85.82 24.52 84.28C24.5 84.41 24.49 84.54 24.47 84.67C24.44 84.74 24.41 84.8 24.37 84.87C24.2 85.04 24.02 85.22 23.85 85.39C23.74 85.44 23.62 85.49 23.51 85.54C23.38 85.56 23.25 85.57 23.12 85.59C23.13 85.59 23.14 85.59 23.15 85.59C23.02 85.57 22.89 85.56 22.76 85.54C23.38 85.63 24 85.84 24.6 86C25.46 86.23 26.32 86.47 27.17 86.72C27.32 86.76 27.47 86.81 27.61 86.85C27.65 86.86 27.7 86.88 27.74 86.89C27.76 86.89 27.77 86.9 27.79 86.91C27.48 86.83 27.11 86.56 26.95 86.26C27.12 85.59 27.3 84.93 27.47 84.26C26.18 85.12 24.89 85.99 23.61 86.86C23.23 87.12 22.84 87.39 22.47 87.66C22.15 87.89 21.91 88.14 21.8 88.53C21.7 88.88 21.75 89.34 21.95 89.65C22.34 90.26 23.28 90.65 23.95 90.17C25.42 89.11 26.95 88.11 28.46 87.1C28.62 86.99 28.79 86.88 28.95 86.77C29.64 86.31 29.85 85.51 29.47 84.77C29.17 84.17 28.4 84.02 27.81 83.85C27.18 83.67 26.54 83.49 25.91 83.32C25.31 83.16 24.71 82.99 24.1 82.84C23.93 82.8 23.76 82.75 23.59 82.72C23.43 82.69 23.27 82.65 23.11 82.66C22.3 82.7 21.72 83.28 21.62 84.07C21.51 84.87 21.56 85.72 21.59 86.53C21.62 87.33 21.67 88.12 21.75 88.91C21.79 89.31 21.89 89.65 22.18 89.94C22.43 90.19 22.85 90.38 23.21 90.37C23.94 90.36 24.76 89.75 24.68 88.93Z" fill="white"/>
<path d="M31.8701 123.73C30.6701 124.66 29.4001 125.52 28.0801 126.28C28.0101 126.32 27.9401 126.36 27.8601 126.35C27.7801 126.34 26.4201 121.52 26.4701 121.48C26.4801 121.49 30.4501 123.15 31.8701 123.73Z" fill="white"/>
<path d="M30.84 122.7C31.15 122.46 30.87 122.68 30.81 122.72C30.73 122.78 30.65 122.84 30.57 122.9C30.43 123 30.3 123.1 30.16 123.2C29.84 123.43 29.52 123.65 29.2 123.87C28.89 124.08 28.58 124.28 28.26 124.48C28.1 124.58 27.94 124.68 27.78 124.77C27.69 124.82 27.61 124.87 27.52 124.93C27.49 124.95 27.46 124.96 27.43 124.98C27.19 125.11 27.33 125.09 27.86 124.9C28.11 124.97 28.35 125.03 28.6 125.1C28.58 125.09 29.15 125.66 29.11 125.6C29.02 125.47 29.28 126.03 29.24 125.9C29.23 125.86 29.21 125.83 29.2 125.79C29.16 125.67 29.12 125.55 29.08 125.43C28.96 125.06 28.86 124.69 28.75 124.31C28.51 123.47 28.27 122.62 28.05 121.78C28.01 121.63 27.97 121.48 27.94 121.33C27.93 121.28 27.92 121.24 27.91 121.19C27.91 121.17 27.91 121.15 27.9 121.14C28 121.45 27.93 121.92 27.75 122.22C27.2 122.44 26.65 122.67 26.1 122.89C27.9 123.64 29.69 124.4 31.5 125.13C31.83 125.26 32.33 125.15 32.62 124.98C32.92 124.8 33.21 124.46 33.29 124.11C33.38 123.74 33.36 123.32 33.14 122.99C32.92 122.65 32.64 122.47 32.27 122.32C30.47 121.58 28.67 120.83 26.87 120.08C26.58 119.96 26.19 120.04 25.92 120.15C25.63 120.27 25.39 120.47 25.22 120.75C24.86 121.36 25.1 122.06 25.27 122.69C25.44 123.32 25.61 123.95 25.79 124.58C25.95 125.15 26.12 125.72 26.29 126.29C26.37 126.54 26.45 126.82 26.58 127.05C26.71 127.29 26.89 127.48 27.13 127.62C27.75 127.99 28.43 127.78 29 127.45C30.37 126.65 31.66 125.74 32.91 124.77C33.18 124.56 33.34 124.07 33.34 123.74C33.34 123.38 33.18 122.95 32.91 122.71C32.63 122.45 32.27 122.27 31.88 122.28C31.46 122.29 31.17 122.45 30.84 122.7Z" fill="white"/>
<path d="M44.7299 119.03C45.3699 119.66 46.1499 120.13 46.9999 120.41C47.1999 120.48 47.4699 120.43 47.6599 120.32C47.8399 120.22 47.9999 120.01 48.0499 119.81C48.1599 119.34 47.9099 118.91 47.4599 118.76C47.3399 118.72 47.2199 118.68 47.0999 118.63C47.1699 118.66 47.2399 118.69 47.2999 118.72C46.9099 118.55 46.5399 118.34 46.1999 118.08C46.2599 118.12 46.3099 118.17 46.3699 118.21C46.2199 118.09 46.0699 117.96 45.9399 117.83C45.7799 117.68 45.5599 117.58 45.3399 117.58C45.1299 117.58 44.8799 117.67 44.7399 117.83C44.5899 117.99 44.4799 118.2 44.4899 118.43C44.4899 118.65 44.5699 118.87 44.7299 119.03Z" fill="black"/>
<path d="M47.78 118C47.3 118.8 46.85 119.64 46.55 120.53C46.34 121.16 46.22 121.87 46.24 122.54C46.26 123.22 46.4 123.92 46.48 124.56C46.54 125.02 46.83 125.41 47.33 125.41C47.75 125.41 48.24 125.02 48.18 124.56C48.13 124.17 48.08 123.79 48.02 123.4C48.01 123.31 47.99 123.22 47.98 123.13C48 123.25 47.98 123.11 47.97 123.06C47.95 122.93 47.94 122.79 47.94 122.65C47.91 122.04 47.98 121.59 48.19 120.97C48.23 120.85 48.28 120.72 48.33 120.6C48.28 120.71 48.34 120.58 48.36 120.54C48.39 120.48 48.42 120.41 48.45 120.35C48.56 120.11 48.68 119.87 48.81 119.64C48.95 119.37 49.1 119.11 49.25 118.85C49.49 118.46 49.34 117.92 48.94 117.69C48.54 117.45 48.01 117.6 47.78 118Z" fill="black"/>
<path d="M47.4001 121.09C44.8501 119.9 42.1201 122.06 42.6501 124.82C42.9201 126.23 43.9601 127.14 45.2001 127.72C46.6501 128.41 48.2201 129.1 49.8501 129.14C52.7501 129.22 54.8201 126.83 55.4501 124.19C55.8401 122.55 55.7201 120.8 55.3301 119.17C54.6301 116.29 52.9101 113.79 50.8501 111.7C50.0801 110.92 48.8801 112.12 49.6501 112.9C51.9001 115.18 53.6701 118.01 53.9501 121.23C54.1001 122.97 53.7901 124.87 52.6001 126.22C50.9001 128.16 48.4201 127.31 46.4101 126.41C45.3301 125.92 44.1501 125.28 44.2801 123.91C44.3801 122.85 45.5401 122.08 46.5501 122.55C47.5301 123.02 48.3901 121.56 47.4001 121.09Z" fill="black"/>
<path d="M53.1303 127.37C54.8803 128.61 57.4102 128.94 59.1302 127.52C61.3503 125.69 61.9002 123.06 62.2002 120.33C62.6202 116.54 61.9502 112.5 59.5902 109.41C58.9802 108.61 58.2603 107.82 57.4003 107.28C56.4703 106.7 55.6102 108.17 56.5402 108.75C56.8702 108.96 56.8903 108.98 57.2403 109.31C57.6203 109.67 57.9802 110.06 58.2902 110.48C59.3502 111.9 60.0102 113.56 60.3602 115.29C60.8902 117.97 60.6102 120.8 59.9102 123.42C59.6002 124.59 58.7002 126.07 57.5302 126.58C56.3902 127.08 54.9303 126.56 53.9903 125.9C53.0903 125.27 52.2403 126.75 53.1303 127.37Z" fill="black"/>
<path d="M60.1003 125.43C62.2603 125.99 64.6303 125.22 66.3303 123.83C67.9303 122.52 68.9003 120.27 69.2403 118.28C69.9403 114.1 68.5203 109.53 65.6903 106.39C64.9603 105.58 63.7603 106.78 64.4903 107.59C66.8003 110.16 68.0303 113.91 67.6703 117.34C67.4803 119.14 66.7503 121.08 65.4403 122.36C64.2403 123.54 62.1903 124.21 60.5603 123.79C59.4903 123.52 59.0403 125.16 60.1003 125.43Z" fill="black"/>
<path d="M70.9399 115.09C70.3199 114.56 69.7499 113.97 69.2499 113.33C69.1199 113.17 68.8399 113.08 68.6499 113.08C68.4399 113.08 68.1899 113.17 68.0499 113.33C67.8999 113.49 67.7899 113.7 67.7999 113.93C67.8099 114.01 67.8199 114.08 67.8299 114.16C67.8699 114.3 67.9399 114.43 68.0499 114.54C68.5499 115.18 69.1199 115.77 69.7399 116.3C69.9099 116.45 70.1099 116.55 70.3399 116.55C70.5499 116.55 70.7999 116.46 70.9399 116.3C71.0899 116.14 71.1999 115.93 71.1899 115.7C71.1799 115.47 71.1099 115.23 70.9399 115.09Z" fill="black"/>
<path d="M67.2102 121.7C69.2002 122.5 71.5502 123.12 73.5602 122.08C74.1502 121.77 74.6602 121.32 75.1602 120.88C76.0202 120.12 76.6102 119.22 76.9402 118.12C77.2302 117.14 77.3302 116.06 77.2302 115.05C77.1902 114.59 76.8702 114.2 76.3802 114.2C75.9502 114.2 75.4902 114.59 75.5302 115.05C75.6802 116.65 75.4002 118.42 74.1202 119.55C73.9202 119.72 73.7302 119.9 73.5302 120.07C73.4702 120.12 73.4202 120.16 73.3602 120.21C73.2302 120.32 73.3702 120.21 73.3302 120.23C73.2102 120.31 73.1002 120.39 72.9802 120.47C72.8502 120.55 72.7202 120.61 72.5902 120.68C72.4502 120.75 72.5702 120.69 72.5302 120.71C72.4402 120.74 72.3402 120.78 72.2502 120.81C71.8302 120.93 71.7402 120.94 71.3102 120.95C70.0502 120.97 68.8202 120.54 67.6702 120.08C67.2402 119.91 66.7402 120.27 66.6202 120.67C66.4802 121.14 66.7802 121.53 67.2102 121.7Z" fill="black"/>
</g>
<defs>
<clipPath id="clip0_520_4521">
<rect width="200" height="200" fill="white"/>
</clipPath>
</defs>
</svg>
