<svg width="200" height="200" viewBox="0 0 200 200" fill="none" xmlns="http://www.w3.org/2000/svg">
<g clip-path="url(#clip0_266_1568)">
<path d="M157.85 143.03C153.76 118.13 143.67 95.3802 108.55 89.2402C89.17 85.8602 63.82 85.2502 34.72 105.12C15.56 118.21 26.44 141.04 23.13 143.81L15.22 146.04C15.22 146.04 15.68 156.64 16.42 164.04C18.74 187.2 23.12 191.18 30.45 193.41V200.28H150.35L147.16 183.5C159.58 170.48 160.57 159.58 157.85 143.03Z" fill="#EC6723"/>
<path d="M108.62 161.91C105.91 167.89 104.11 174.95 106.7 181.29C108.68 186.12 112.83 189.48 117.58 191.41C121.99 193.2 127.07 194.05 131.74 192.86C137.37 191.42 142.59 188.19 146.93 184.4C152.4 179.63 156.88 173.27 158.05 165.99C158.23 164.89 156.55 164.42 156.37 165.53C154.53 176.99 144.27 186.61 133.67 190.44C131.69 191.15 129.6 191.72 127.48 191.71C125.17 191.7 122.81 191.26 120.6 190.61C116.12 189.31 111.8 186.75 109.34 182.68C105.62 176.52 107.33 168.96 110.13 162.79C110.59 161.77 109.09 160.88 108.62 161.91Z" fill="black"/>
<path d="M62.51 92.5999C60.02 94.3299 57.61 96.1699 55.28 98.1099C54.09 99.0999 52.93 100.12 51.79 101.17C50.91 101.97 49.71 102.84 49.78 104.16C49.84 105.37 51.09 106.41 51.82 107.27C52.76 108.38 53.69 109.49 54.63 110.59C56.38 112.65 58.14 114.7 60 116.67C60.07 116.12 60.14 115.56 60.21 115.01C56.79 116.56 53.36 118.1 49.95 119.67C48.71 120.24 47.89 121.03 48.37 122.48C48.94 124.16 49.83 125.79 50.56 127.4C53.65 134.32 56.74 141.23 59.83 148.15C60.38 149.39 62.21 148.32 61.66 147.08C58.91 140.92 56.15 134.75 53.4 128.59C52.73 127.09 52.06 125.58 51.39 124.08C51.16 123.57 50.29 122.29 50.36 121.76C50.34 121.93 50.6 121.7 50.81 121.61C51.18 121.44 51.55 121.27 51.93 121.1C55.05 119.68 58.18 118.26 61.3 116.84C61.95 116.55 61.94 115.63 61.51 115.18C60 113.58 58.56 111.92 57.13 110.25C55.56 108.42 53.75 106.62 52.37 104.65C51.91 103.99 52.07 103.83 52.62 103.31C53.07 102.88 53.53 102.47 53.99 102.05C54.97 101.17 55.96 100.31 56.97 99.4599C59.1 97.6799 61.32 96.0099 63.59 94.4299C64.69 93.6599 63.63 91.8199 62.51 92.5999Z" fill="#FFC11E"/>
<path d="M96.26 92.2402C100.3 96.4702 104.34 100.7 108.38 104.93C109.05 105.63 111.28 107.27 110.77 108.24C110.5 108.75 109.78 109.25 109.36 109.66C108.85 110.16 108.35 110.65 107.83 111.14C105.78 113.1 103.66 114.99 101.48 116.82C101 117.22 101.16 117.9 101.48 118.32C103.26 120.62 105.03 122.92 106.81 125.22C107.7 126.37 108.59 127.52 109.48 128.67C109.85 129.15 110.01 129.23 109.95 129.8C109.9 130.28 109.66 130.56 109.39 130.96C108.99 131.58 108.58 132.21 108.18 132.83C104.9 137.88 101.63 142.93 98.35 147.98C97.61 149.13 99.44 150.19 100.18 149.05C103.9 143.31 107.67 137.59 111.35 131.83C112.02 130.78 112.49 129.71 111.9 128.51C111.26 127.2 110.08 126.04 109.19 124.89C107.12 122.21 105.04 119.53 102.97 116.84C102.97 117.34 102.97 117.84 102.97 118.34C105.5 116.21 107.96 113.99 110.34 111.67C111.22 110.81 112.48 109.89 112.94 108.72C113.44 107.46 112.76 106.48 111.92 105.59C107.23 100.62 102.47 95.7002 97.75 90.7602C96.81 89.7602 95.32 91.2602 96.26 92.2402Z" fill="#FFC11E"/>
<path d="M75.12 93.1803C69.45 121.06 66.56 124.26 63.58 158.22C60.7 191.07 60.58 200.28 60.58 200.28H90.84C90.84 200.28 88.62 147.14 95.63 90.5703C97.66 74.1503 80.79 65.3003 75.12 93.1803Z" fill="#B9E2EE"/>
<path d="M54.08 54.6899C54.08 54.6899 48.01 59.5499 44.91 71.0999C41.81 82.6499 42 95.1599 56.79 94.2099C56.79 94.2099 44.24 83.2099 54.08 54.6899Z" fill="black"/>
<path d="M67.3 97.9101C67.3 97.9101 70.37 102.24 82.34 100.41C94.31 98.5801 99.7 90.9901 99.7 90.9901C99.7 90.9901 94.16 82.4901 99.25 74.4201C99.25 74.4201 104.09 78.1601 108.53 70.3001C112.98 62.4401 110 54.0901 105.26 52.6401C100.52 51.1901 95 56.3901 96.3 61.4501C96.3 61.4501 92.73 57.9601 93.97 50.5201C95.21 43.0801 95.21 43.0801 95.21 43.0801L87.33 38.6301L71.65 34.1401L56.52 43.3201L55.52 51.2201C55.52 51.2201 48.38 66.1601 50.13 78.9401C51.89 91.7401 60.67 98.3701 67.3 97.9101Z" fill="#F6A6AC"/>
<path d="M50.22 43.6401C49.31 50.9901 54.09 54.6901 54.09 54.6901L55.66 51.9101C55.85 53.7701 56.59 52.9901 60.19 52.9601C63.79 52.9301 66.99 52.8101 66.99 52.8101C66.99 52.8101 66.74 51.2101 67.39 45.2701C67.93 40.2801 70.35 36.7301 71.11 35.7301C68.72 39.0701 68.66 46.8001 69.37 49.9801C70.1 53.2601 72.59 52.0901 77.39 52.3101C80.42 52.4401 84.08 52.7201 86.37 52.9001C87.38 52.9801 88.14 52.0401 87.88 51.0601C87.04 47.8301 87.08 43.9801 87.18 41.9801C87.02 48.8701 92.25 52.1201 92.25 52.1201C92.12 56.2001 95.1 60.0501 96.04 61.1501C96.1 61.2201 96.15 61.2801 96.19 61.3201C96.21 61.3501 96.23 61.3701 96.25 61.3901C96.26 61.4101 96.28 61.4201 96.29 61.4301C96.32 61.4601 96.33 61.4701 96.33 61.4701C95.03 56.4001 100.55 51.2201 105.29 52.6601C110.04 54.1001 113.01 62.4601 108.56 70.3201C104.47 77.5401 100.05 74.9601 99.37 74.4901C99.27 74.5901 99.15 74.7101 99.02 74.8701C99.02 74.8701 99.02 74.8701 99.01 74.8801C94.39 82.8101 99.73 91.0001 99.73 91.0001C108.36 99.8901 125.65 94.0501 128.26 79.9401C130.86 65.8201 128.51 54.9001 120.27 40.6701C112.04 26.4501 99.39 18.6701 79.2 20.2101C58.97 21.7401 51.13 36.2901 50.22 43.6401Z" fill="black"/>
<path d="M110.09 58.1699C110.33 58.9299 110.51 59.7399 110.62 60.5799C112.74 61.9399 110.62 63.4199 113.02 64.4799C115.66 65.6599 115.82 60.6199 110.09 58.1699Z" fill="#B3202D"/>
<path d="M86.47 58.4703C86.47 58.4703 89.85 58.1503 94.45 58.1803C95.06 58.1903 95.69 58.1903 96.35 58.2103C96.51 57.6403 96.74 57.0803 97.04 56.5503C95.94 56.5103 94.93 56.4903 94 56.4803C89.73 56.4203 87.38 56.5803 87.38 56.5803L86.47 58.4703Z" fill="#B3202D"/>
<path d="M80.01 57.45C83.17 58.3 81.58 60.95 79.55 60.86C77.52 60.77 75.96 61.1 75.15 61.4C74.35 61.7 72.79 61.87 72.28 60.41C71.68 58.67 75.99 56.37 80.01 57.45Z" fill="white"/>
<path d="M61.16 59.0499C63.19 59.9699 62.87 62.4699 60.5 62.2499C58.13 62.0299 56.84 62.4099 55.91 62.6999C54.98 62.9899 54.18 62.3699 54.19 61.0399C54.2 59.3499 58.19 57.6999 61.16 59.0499Z" fill="white"/>
<path d="M70.94 96.3902C66.59 97.6902 61.29 96.2802 57.89 93.2202C50.18 86.2802 50.13 74.4902 52.14 65.1302C53.21 60.1402 54.89 55.2702 56.99 50.6302C57.57 49.3502 55.68 48.2302 55.09 49.5202C50.95 58.6702 47.85 69.1402 49.06 79.2702C50.14 88.2902 55.51 97.6202 65.24 98.8702C67.28 99.1302 69.53 99.1102 71.52 98.5102C72.88 98.1002 72.3 95.9802 70.94 96.3902Z" fill="black"/>
<path d="M53.86 64.9198C57.18 68.2598 60.6 65.6698 61.49 64.1798C62.37 62.6998 62.43 62.0798 62.43 62.0798C62.43 62.0798 64.84 60.0798 67.57 62.0798C67.57 62.0798 68.17 65.9198 70.07 64.7998C70.07 64.7998 74.76 69.1698 81.47 64.6098C88.18 60.0498 90.59 53.4298 86.85 53.0998C83.1 52.7598 73.05 54.6698 67.28 59.2698C67.28 59.2698 64.55 57.7398 62.54 59.4098C62.54 59.4098 57.89 54.2198 51.95 53.0798C46.01 51.9398 50.52 61.5898 53.86 64.9198ZM69.05 60.4498C69.05 60.4498 73.59 56.3698 81.09 55.5498C88.59 54.7198 83.1 61.4798 79.92 63.3498C76.73 65.2198 72.28 64.8698 70.28 63.2398C68.28 61.5898 69.05 60.4498 69.05 60.4498ZM57.61 57.3198C60.55 59.2498 61.83 60.3998 61.41 62.0298C60.98 63.6498 59.27 64.4898 59.27 64.4898C56.09 66.9098 51.59 61.1198 51.46 57.5598C51.32 53.9898 54.66 55.3798 57.61 57.3198Z" fill="#B3202D"/>
<path d="M65.44 71.1499C65.44 71.1599 65.38 71.3099 65.43 71.1899C65.47 71.0799 65.42 71.1999 65.41 71.2299C65.37 71.2999 65.33 71.3599 65.29 71.4199C65.22 71.5299 65.37 71.3299 65.31 71.3999C65.28 71.4299 65.26 71.4599 65.23 71.4799C65.18 71.5299 65.11 71.5799 65.06 71.6299C65.08 71.5999 65.18 71.5399 65.1 71.5999C65.07 71.6199 65.04 71.6399 65.01 71.6599C64.98 71.6799 64.94 71.6999 64.91 71.7199C64.89 71.7299 64.76 71.7799 64.87 71.7399C64.99 71.6899 64.85 71.7499 64.82 71.7499C64.78 71.7599 64.74 71.7699 64.7 71.7799C64.67 71.7899 64.6 71.7899 64.58 71.8099C64.63 71.7799 64.73 71.7999 64.6 71.7999C64.53 71.8099 64.45 71.8099 64.38 71.7999C64.37 71.7999 64.2 71.7799 64.33 71.7999C64.45 71.8199 64.31 71.7899 64.28 71.7899C64.2 71.7699 64.12 71.7499 64.04 71.7199C63.91 71.6799 64.13 71.7699 64.06 71.7299C64.02 71.7099 63.99 71.6899 63.95 71.6699C63.93 71.6599 63.8 71.5899 63.9 71.6399C63.94 71.6699 63.95 71.6699 63.92 71.6499C63.88 71.6099 63.89 71.6299 63.96 71.7099C63.95 71.6799 63.93 71.6599 63.91 71.6299C63.83 71.5099 63.95 71.7799 63.91 71.6299C63.89 71.5599 63.88 71.4899 63.86 71.4199C63.84 71.3299 63.88 71.5899 63.86 71.4499C63.86 71.3999 63.85 71.3599 63.85 71.3099C63.82 70.9299 63.54 70.5599 63.12 70.5799C62.75 70.5999 62.35 70.8999 62.39 71.3099C62.41 71.5599 62.43 71.8199 62.52 72.0599C62.63 72.3899 62.82 72.6399 63.1 72.8399C63.51 73.1399 64.07 73.2899 64.57 73.2599C65.64 73.2099 66.51 72.5199 66.86 71.5199C66.99 71.1599 66.72 70.6999 66.35 70.6199C65.93 70.5399 65.58 70.7599 65.44 71.1499Z" fill="black"/>
<path d="M62.42 71.09C62.41 71.14 62.4 71.18 62.38 71.22C62.34 71.35 62.46 71.09 62.38 71.21C62.36 71.24 62.34 71.28 62.32 71.31C62.26 71.41 62.29 71.33 62.34 71.29C62.31 71.32 62.28 71.36 62.25 71.39C62.23 71.41 62.16 71.46 62.15 71.48C62.17 71.43 62.27 71.39 62.17 71.46C62.14 71.48 62.1 71.5 62.07 71.52C62.03 71.54 61.94 71.62 62.06 71.54C62.02 71.57 61.94 71.58 61.89 71.59C61.84 71.6 61.8 71.61 61.75 71.62C61.66 71.64 61.91 71.61 61.77 71.62C61.69 71.62 61.56 71.6 61.48 71.62C61.54 71.61 61.63 71.65 61.5 71.62C61.45 71.61 61.4 71.6 61.36 71.58C61.32 71.57 61.28 71.55 61.24 71.54C61.09 71.49 61.38 71.62 61.23 71.54C61.15 71.49 61.08 71.45 61 71.4C60.93 71.35 61.11 71.5 61.01 71.41C60.97 71.38 60.94 71.34 60.9 71.31C60.89 71.3 60.88 71.29 60.87 71.27C60.82 71.21 60.83 71.22 60.89 71.3C60.87 71.3 60.83 71.22 60.82 71.2C60.8 71.17 60.78 71.13 60.76 71.09C60.75 71.07 60.74 71.05 60.73 71.02C60.71 70.97 60.72 70.99 60.75 71.08C60.71 71.07 60.68 70.86 60.67 70.82C60.67 70.81 60.65 70.7 60.65 70.7C60.66 70.81 60.67 70.83 60.66 70.77C60.66 70.75 60.66 70.72 60.66 70.7C60.66 70.6 60.66 70.5 60.68 70.41C60.7 70.24 60.58 70.01 60.47 69.89C60.34 69.76 60.13 69.67 59.95 69.68C59.76 69.69 59.56 69.75 59.43 69.89C59.29 70.04 59.24 70.2 59.22 70.41C59.06 71.57 59.89 72.71 61.01 73C62.18 73.3 63.52 72.67 63.82 71.45C63.91 71.08 63.7 70.64 63.31 70.55C62.94 70.49 62.52 70.69 62.42 71.09Z" fill="black"/>
<path d="M60.64 70.58C61.41 67.64 62.27 64.72 63.22 61.83C63.52 60.93 62.1 60.55 61.81 61.44C60.86 64.33 60 67.25 59.23 70.19C58.99 71.1 60.4 71.49 60.64 70.58Z" fill="black"/>
<path d="M83.57 52.9803C81.87 51.5503 79.65 50.7403 77.42 50.9803C75.09 51.2303 73.08 52.3903 71.18 53.7103C70.69 54.0503 70.47 54.6703 70.79 55.2103C71.07 55.6903 71.8 55.9403 72.29 55.6003C73.81 54.5403 75.46 53.4503 77.34 53.1803C78.99 52.9403 80.74 53.4603 82.01 54.5203C82.46 54.9003 83.12 54.9603 83.56 54.5203C83.96 54.1403 84.03 53.3603 83.57 52.9803Z" fill="black"/>
<path d="M64.53 54.3401C63.51 52.7301 62 51.3001 60.05 51.0101C57.94 50.6901 56.24 51.7901 54.68 53.0701C54.22 53.4501 54.29 54.2301 54.68 54.6201C55.13 55.0701 55.77 55.0001 56.23 54.6201C56.76 54.1801 57.32 53.7701 57.94 53.4601C58.45 53.2001 59.08 53.0701 59.6 53.1501C60.94 53.3401 61.94 54.3501 62.64 55.4501C62.96 55.9501 63.62 56.1501 64.14 55.8401C64.63 55.5501 64.85 54.8401 64.53 54.3401Z" fill="black"/>
<path d="M78.78 60.7C80.19 60.7 80.2 58.5 78.78 58.5C77.36 58.5 77.36 60.7 78.78 60.7Z" fill="black"/>
<path d="M60.19 62.16C61.6 62.16 61.61 59.96 60.19 59.96C58.78 59.96 58.78 62.16 60.19 62.16Z" fill="black"/>
<path d="M85.93 74.5303C84.93 74.5603 83.85 74.2403 83.11 73.6103C82.71 73.2703 82.42 72.9503 82.18 72.5503C81.89 72.0803 81.75 71.7303 81.62 71.1703C81.53 70.7803 81.09 70.5603 80.72 70.6603C80.32 70.7703 80.12 71.1703 80.21 71.5603C80.8 74.1903 83.24 76.0703 85.93 76.0003C86.33 75.9903 86.66 75.6703 86.66 75.2703C86.67 74.8803 86.33 74.5203 85.93 74.5303Z" fill="black"/>
<path d="M82.01 73.1899C82.01 73.1899 76.14 78.1899 66.03 78.9199C66.03 78.9199 66.5 86.5199 74.28 86.2099C82.06 85.8899 83.71 75.2399 83.71 75.2399L82.01 73.1899Z" fill="black"/>
<path d="M69.77 78.4403C70.43 81.4003 73.01 81.3003 76.14 79.5503C78.66 78.1403 80 75.4303 80.48 74.2803C78.55 75.5203 74.88 77.4803 69.77 78.4403Z" fill="white"/>
<path d="M73.64 86.21C73.84 86.22 74.06 86.22 74.28 86.21C79.59 85.99 82.04 80.96 83.07 77.79C81.51 78.04 79.1 78.68 77.24 80.35C74.99 82.37 73.99 85.02 73.64 86.21Z" fill="#F27D83"/>
<path d="M67.57 89.7203C69.44 90.8403 71.62 91.3903 73.8 91.2803C74.2 91.2603 74.53 90.9603 74.53 90.5503C74.53 90.1703 74.19 89.8003 73.8 89.8203C71.87 89.9203 69.97 89.4503 68.31 88.4603C67.49 87.9703 66.76 89.2303 67.57 89.7203Z" fill="black"/>
<path d="M102.75 68.4299C103.62 68.6399 104.5 68.1999 104.93 67.4299C105.39 66.6199 105.33 65.6499 105.21 64.7599C104.98 63.1199 104.05 61.4799 102.35 61.0399C101.44 60.7999 101.05 62.2199 101.96 62.4499C102.99 62.7199 103.53 63.7199 103.73 64.7299C103.83 65.2299 103.9 65.8299 103.79 66.3299C103.73 66.5699 103.66 66.7499 103.49 66.8899C103.46 66.9099 103.33 66.9799 103.33 66.9799C103.23 67.0199 103.25 67.0199 103.14 66.9899C102.22 66.7999 101.83 68.2099 102.75 68.4299Z" fill="black"/>
<path d="M104.02 56.5001C103.45 56.6701 103.09 57.1201 102.72 57.5701C102.33 58.0501 101.97 58.5401 101.66 59.0701C101.06 60.0901 100.61 61.2101 100.44 62.3801C100.27 63.5001 100.33 64.6801 100.69 65.7601C101.04 66.8201 101.65 68.0001 102.75 68.4201C103.63 68.7501 104.02 67.3401 103.14 67.0101C102.81 66.8801 102.58 66.4101 102.43 66.1201C102.22 65.7301 102.07 65.3201 101.97 64.8901C101.78 64.0901 101.76 63.2401 101.91 62.4401C102.07 61.5901 102.38 60.7901 102.8 60.0301C103.03 59.6301 103.28 59.2301 103.56 58.8601C103.75 58.6101 104.1 58.0001 104.41 57.9001C105.31 57.6501 104.93 56.2401 104.02 56.5001Z" fill="black"/>
<path d="M97.68 73.2602C98.36 74.5902 99.83 75.2002 101.23 75.4302C101.43 75.4602 101.61 75.4602 101.79 75.3602C101.94 75.2702 102.09 75.1002 102.13 74.9202C102.21 74.5702 102.02 74.0902 101.62 74.0202C101.3 73.9702 100.99 73.9002 100.68 73.8102C100.53 73.7602 100.38 73.7102 100.22 73.6502C100.12 73.6102 100.33 73.7002 100.24 73.6602C100.21 73.6402 100.17 73.6302 100.14 73.6102C100.07 73.5802 100 73.5402 99.93 73.5002C99.81 73.4402 99.7 73.3602 99.6 73.2902C99.49 73.2102 99.68 73.3602 99.61 73.3002C99.58 73.2802 99.56 73.2602 99.53 73.2402C99.48 73.2002 99.43 73.1502 99.38 73.1102C99.33 73.0602 99.28 73.0102 99.23 72.9502C99.21 72.9302 99.19 72.9002 99.17 72.8802C99.11 72.8102 99.18 72.8802 99.19 72.9102C99.17 72.8502 99.1 72.7802 99.07 72.7302C99.03 72.6702 99 72.6002 98.96 72.5402C98.79 72.2002 98.28 72.0702 97.96 72.2802C97.59 72.4802 97.49 72.8902 97.68 73.2602Z" fill="black"/>
<path d="M126.57 158.92C128.73 159.97 130.98 160.93 132.97 162.27C134.9 163.56 136.63 165.29 138.38 166.88C139.21 167.63 140.45 166.4 139.61 165.65C137.78 163.99 135.98 162.22 133.93 160.83C131.91 159.46 129.63 158.48 127.45 157.42C126.44 156.92 125.56 158.43 126.57 158.92Z" fill="black"/>
<path fill-rule="evenodd" clip-rule="evenodd" d="M18.65 139.34C18.65 139.34 14.41 138.37 12.13 136.31C7.61001 132.17 6.69001 128.73 6.21001 125.88C5.33001 120.64 7.39001 117.47 9.30001 117.09C9.30001 117.09 7.91001 112.62 10.91 110.72C11.6 110.34 12.37 110.09 13.15 110.01C13.94 109.93 14.74 110.01 15.49 110.24C15.49 110.24 15.8 106.94 18.58 106.35C21.36 105.76 22.24 107.14 22.24 107.14C22.24 107.14 23.04 102.78 27.94 103.24C32.84 103.7 31.82 110.33 31.82 110.33C33.18 110.23 34.55 110.53 35.74 111.19C36.94 111.85 37.92 112.84 38.57 114.04C42.38 120.61 39.03 132.4 35.81 135.8L37.25 140.79L19.33 144.62L18.65 139.34Z" fill="#F6A6AC"/>
<path d="M20.85 138.28C19.54 138.54 18.18 138.47 16.9 138.1C15.62 137.73 14.44 137.05 13.47 136.13C13.32 135.95 13.1 135.83 12.86 135.81C12.62 135.79 12.38 135.86 12.2 136.01C12.11 136.09 12.03 136.18 11.98 136.28C11.92 136.39 11.89 136.5 11.88 136.62C11.87 136.74 11.88 136.86 11.92 136.97C11.96 137.08 12.01 137.19 12.09 137.28C13.27 138.44 14.71 139.3 16.29 139.79C17.87 140.28 19.55 140.38 21.17 140.08C21.29 140.06 21.4 140.02 21.5 139.95C21.6 139.89 21.69 139.8 21.76 139.7C21.83 139.6 21.88 139.49 21.9 139.37C21.93 139.25 21.93 139.13 21.91 139.01C21.89 138.89 21.85 138.78 21.78 138.68C21.72 138.58 21.63 138.49 21.53 138.42C21.43 138.35 21.32 138.3 21.2 138.28C21.09 138.26 20.97 138.26 20.85 138.28Z" fill="black"/>
<path d="M32.47 119.07C30.77 119.83 28.93 120.21 27.07 120.19C25.57 120.05 23.57 119.55 22.72 118.18C22.43 117.71 22.31 117.16 22.39 116.62C22.47 116.08 22.73 115.58 23.14 115.21C23.77 114.73 24.49 114.37 25.25 114.14C27.3 113.43 29.21 111.63 31.5 112.01C32.64 112.2 32.82 110.39 31.67 110.21C29.62 109.89 27.92 110.9 26.17 111.78C26.17 111.7 26.15 111.62 26.12 111.55C25.63 110.56 25.04 109.62 24.37 108.75C23.65 107.78 22.73 106.97 21.67 106.39C21.56 106.35 21.44 106.33 21.32 106.33C21.2 106.33 21.08 106.36 20.98 106.41C20.87 106.46 20.77 106.53 20.69 106.62C20.61 106.71 20.55 106.81 20.5 106.92C20.42 107.14 20.43 107.38 20.52 107.59C20.61 107.8 20.78 107.97 20.99 108.06L21.16 108.17L21.45 108.37L21.75 108.61L21.89 108.73C22.11 108.91 22.31 109.12 22.49 109.35C22.67 109.56 22.85 109.77 23.02 109.99C23.35 110.41 23.64 110.85 23.93 111.28L23.88 111.2L23.94 111.29C23.97 111.34 24 111.39 24.03 111.44L24.2 111.73C24.31 111.91 24.41 112.1 24.51 112.3C24.55 112.36 24.59 112.42 24.64 112.48C23.64 112.78 22.71 113.28 21.9 113.93C21.82 114 21.76 114.09 21.68 114.16C19.56 112.3 17.14 110.82 14.51 109.8C14.29 109.72 14.04 109.72 13.82 109.82C13.6 109.92 13.43 110.1 13.35 110.32C13.26 110.54 13.27 110.79 13.37 111.01C13.47 111.23 13.65 111.4 13.87 111.48C16.41 112.45 18.74 113.9 20.73 115.76C20.47 116.68 20.51 117.66 20.85 118.55C21.19 119.42 21.81 120.15 22.62 120.62C22.61 120.68 22.55 120.74 22.5 120.79C22.47 120.81 22.44 120.84 22.42 120.86C22.42 120.9 22.27 120.96 22.23 121.01L22.12 121.06L21.96 121.13L21.86 121.17C21.8 121.19 21.74 121.2 21.68 121.21L21.31 121.27L21.2 121.26L21.05 121.25C20.9 121.25 20.75 121.23 20.61 121.21C20.61 121.21 20.38 121.19 20.54 121.2L20.33 121.13L19.91 120.99C19.61 120.87 19.33 120.74 19.04 120.62C18.74 120.49 18.66 120.4 18.47 120.31C17.45 119.7 16.48 119 15.59 118.22C13.46 116.59 10.54 115.49 7.95 116.7C7.76 116.81 7.61 117 7.55 117.21C7.48 117.42 7.5 117.65 7.59 117.86C7.68 118.06 7.85 118.23 8.06 118.31C8.27 118.4 8.5 118.41 8.71 118.33C10.46 117.52 12.49 118.25 13.98 119.28C14.76 119.83 15.47 120.48 16.26 121.03C17.04 121.59 17.99 121.93 18.74 122.55C19.17 122.87 19.47 123.34 19.6 123.86C19.69 124.26 19.65 124.69 19.49 125.07C19.35 125.44 19.1 125.77 18.78 126.01C18.1 126.47 17.28 126.68 16.46 126.6C14.38 126.48 12.42 125.57 10.98 124.06C10.15 123.2 8.8 124.35 9.59 125.22C11.19 126.92 13.33 128.02 15.65 128.34C17.55 128.59 19.74 128.16 20.81 126.42C21.13 125.92 21.33 125.36 21.4 124.77C21.47 124.18 21.41 123.59 21.22 123.03C21.69 123.02 22.16 122.94 22.61 122.79C23.31 122.55 23.89 122.06 24.24 121.41C24.7 121.57 25.16 121.71 25.64 121.82C26.04 121.9 26.44 121.95 26.84 121.98C26.11 123.15 25.64 124.47 25.47 125.85C25.3 127.22 25.44 128.62 25.87 129.93C25.92 130.04 25.99 130.13 26.08 130.22C26.17 130.3 26.27 130.36 26.38 130.4C26.49 130.44 26.61 130.46 26.73 130.45C26.85 130.44 26.97 130.42 27.07 130.37C27.29 130.27 27.45 130.09 27.54 129.86C27.62 129.64 27.61 129.39 27.51 129.17C27.13 127.93 27.08 126.62 27.36 125.35C27.64 124.09 28.24 122.91 29.11 121.95C29.12 121.92 29.12 121.9 29.12 121.87C30.53 121.64 31.91 121.25 33.24 120.73C34.3 120.28 33.54 118.65 32.47 119.07Z" fill="black"/>
<path d="M15.46 146.88C24.82 144.84 34.17 142.78 43.55 140.86C44.65 140.64 44.18 138.95 43.09 139.18C33.71 141.1 24.35 143.16 15 145.2C13.9 145.44 14.36 147.12 15.46 146.88Z" fill="black"/>
<path d="M30.22 194.25C35.26 195.52 40.82 195.6 45.15 192.34C47.3 190.72 49.47 188.19 50.31 185.57C51.12 183.02 51.03 180.1 50.94 177.46C50.78 172.73 50.15 168.01 49.38 163.34C48.07 155.4 46.24 147.55 44.17 139.78C43.88 138.7 42.2 139.16 42.49 140.24C45.52 151.62 48.28 163.32 49.08 175.11C49.27 177.98 49.44 180.99 48.93 183.83C48.54 186 47.26 187.89 45.67 189.55C41.7 193.7 35.98 193.89 30.69 192.55C29.6 192.29 29.13 193.98 30.22 194.25Z" fill="black"/>
<path d="M47.44 125.07C47.13 127.08 46.96 129.1 46.93 131.13C46.93 131.23 46.93 131.35 46.99 131.43C47.05 131.52 53.86 130 53.87 129.92C53.87 129.92 49.05 126.35 47.44 125.07Z" fill="white"/>
<path d="M45.87 124.63C45.58 126.56 45.38 128.5 45.31 130.45C45.29 131.06 45.24 131.7 45.57 132.25C45.88 132.76 46.43 133.08 47.03 133.06C47.34 133.05 47.67 132.98 47.98 132.92C49.65 132.61 51.3 132.23 52.95 131.84C53.76 131.65 54.82 131.53 55.27 130.74C55.47 130.39 55.56 129.88 55.43 129.48C55.29 129.05 55.04 128.77 54.68 128.51C53.03 127.29 51.38 126.06 49.75 124.81C49.61 124.7 49.47 124.6 49.34 124.49C49.27 124.44 49.21 124.39 49.14 124.34C49.11 124.32 49.09 124.3 49.06 124.28C48.91 124.17 49.38 124.53 49.23 124.41C49.01 124.24 48.8 124.07 48.58 123.9C48.23 123.62 47.89 123.42 47.43 123.42C47.03 123.42 46.55 123.6 46.28 123.9C45.74 124.49 45.57 125.64 46.28 126.2C48.28 127.8 50.35 129.31 52.41 130.84C52.62 131 52.83 131.15 53.04 131.31C52.85 130.57 52.65 129.82 52.46 129.08C52.56 128.98 52.65 128.89 52.75 128.79C52.91 128.55 53.13 128.41 53.41 128.34C53.4 128.34 53.4 128.34 53.39 128.35C53.37 128.35 53.36 128.36 53.34 128.37C53.29 128.38 53.24 128.4 53.19 128.41C53.02 128.46 52.85 128.5 52.68 128.54C52.15 128.67 51.61 128.79 51.08 128.91C49.89 129.18 48.7 129.44 47.51 129.68C47.3 129.72 47.09 129.76 46.88 129.8C46.78 129.82 46.47 129.86 46.88 129.81C47.26 129.76 47.1 129.79 47.02 129.79C46.69 129.8 47.5 129.79 47.8 130.01C47.99 130.2 48.19 130.4 48.38 130.59C48.66 131.21 48.54 131.23 48.55 130.84C48.55 130.7 48.56 130.57 48.56 130.43C48.57 130.2 48.58 129.98 48.59 129.75C48.61 129.23 48.65 128.71 48.69 128.2C48.73 127.71 48.78 127.21 48.84 126.72C48.87 126.47 48.89 126.23 48.93 125.98C48.87 126.39 48.94 125.93 48.95 125.88C48.97 125.75 48.99 125.61 49.01 125.48C49.08 125.03 49.08 124.63 48.85 124.22C48.65 123.88 48.26 123.56 47.88 123.47C47.1 123.32 46.01 123.73 45.87 124.63Z" fill="white"/>
<path d="M18.63 100.69C20.21 99.1701 21.72 97.7401 23.85 97.0301C25.55 96.4701 27.34 96.2601 29.12 96.1901C31.5 96.1001 33.98 96.1101 36.31 96.6001C43.26 98.0801 49.39 103.83 51.8 110.48C53.72 115.76 53.88 122.37 49.83 126.72C48.85 127.77 50.43 129.35 51.41 128.3C58.21 120.98 55.36 109.46 49.58 102.47C46.81 99.1301 43.2 96.4501 39.08 95.0501C36.62 94.2201 34.07 93.9801 31.49 93.9401C29.21 93.9001 26.9 94.0001 24.67 94.4901C21.52 95.1901 19.32 96.9301 17.05 99.1101C16.01 100.11 17.59 101.69 18.63 100.69Z" fill="white"/>
<path d="M125.84 138.81C125.73 128.34 125.62 117.86 125.51 107.39C125.49 105.96 123.26 105.95 123.28 107.39C123.39 117.86 123.5 128.34 123.61 138.81C123.63 140.25 125.86 140.25 125.84 138.81Z" fill="white"/>
<path d="M128.42 107.52C127.46 105.73 126.38 104.01 125.19 102.36C125.13 102.27 125.06 102.19 124.96 102.15C124.86 102.12 120.32 107.42 120.36 107.49C120.37 107.5 126.37 107.46 128.42 107.52Z" fill="white"/>
<path d="M129.83 106.7C128.99 105.13 128.05 103.61 127.03 102.15C126.7 101.67 126.38 101.11 125.88 100.8C125.34 100.46 124.67 100.43 124.12 100.76C123.86 100.91 123.66 101.14 123.46 101.35C122.31 102.6 121.21 103.91 120.12 105.21C119.89 105.48 119.66 105.76 119.44 106.04C119.11 106.46 118.7 106.9 118.74 107.49C118.81 108.36 119.43 109.13 120.37 109.12C123.05 109.1 125.74 109.06 128.42 109.15C129.27 109.18 130.09 108.38 130.05 107.52C130.01 106.61 129.33 105.92 128.42 105.89C125.74 105.81 123.05 105.85 120.37 105.86C120.91 106.4 121.46 106.95 122 107.49C122 107.53 121.62 108.6 121.84 108.21C121.96 108.01 121.54 108.59 121.67 108.43C121.7 108.39 121.73 108.35 121.76 108.32C121.92 108.12 122.09 107.92 122.25 107.72C122.75 107.12 123.25 106.53 123.76 105.94C124.26 105.36 124.76 104.77 125.27 104.2C125.45 104 125.63 103.8 125.81 103.6C125.87 103.54 125.93 103.47 125.99 103.41C126.01 103.39 126.03 103.37 126.05 103.35C125.86 103.57 125.32 103.77 124.95 103.79C124.68 103.72 124.4 103.64 124.13 103.57C123.78 103.16 123.67 103.06 123.82 103.25C123.86 103.31 123.91 103.37 123.95 103.43C124.01 103.51 124.06 103.59 124.12 103.67C124.28 103.89 124.43 104.12 124.58 104.34C124.87 104.77 125.16 105.21 125.43 105.65C125.98 106.53 126.5 107.43 127 108.35C127.4 109.1 128.51 109.4 129.23 108.93C130.01 108.44 130.26 107.5 129.83 106.7Z" fill="white"/>
<path d="M135.25 160.73C135.25 160.73 137.49 157.52 141.47 154.78C145.17 152.23 142.65 147.71 139.8 148.84C136.94 149.97 136.14 150.97 136.14 150.97L135.25 160.73Z" fill="#B86C51"/>
<path d="M121.42 170.87C121.42 170.87 134.69 162.6 135.98 159.7C137.27 156.8 137.8 153.46 138.18 152C138.56 150.54 139.76 147.33 138.25 145.89C136.74 144.45 131.32 146.16 131.32 146.16C131.32 146.16 129.98 144.67 128.28 145C126.58 145.33 123.82 147.23 123.82 147.23C123.82 147.23 122.78 145.81 121.18 146.22C117.73 147.09 115.8 148.99 115.8 148.99C115.8 148.99 115.35 146.88 113.32 147.3C111.29 147.73 106.12 154.21 105.57 156.89C105.02 159.57 104.28 164.64 104.28 164.64C104.28 164.64 106.15 170.41 111.63 171.18C117.12 171.97 121.42 170.87 121.42 170.87Z" fill="#F6A6AC"/>
<path d="M130.68 147.34C131.52 149.38 130.63 151.44 129.7 153.28C128.69 155.26 127.55 157.17 126.28 159C125.64 159.93 127.15 160.8 127.79 159.88C129.18 157.87 130.44 155.76 131.51 153.55C132.51 151.49 133.29 149.11 132.36 146.87C132.18 146.43 131.78 146.13 131.29 146.26C130.88 146.38 130.5 146.91 130.68 147.34Z" fill="black"/>
<path d="M123.22 147.37C123.57 149.45 122.59 151.45 121.49 153.15C120.27 155.04 118.91 156.85 117.61 158.69C116.96 159.61 118.47 160.48 119.12 159.57C120.54 157.57 122.07 155.6 123.34 153.5C124.55 151.5 125.31 149.27 124.91 146.92C124.72 145.81 123.04 146.27 123.22 147.37Z" fill="black"/>
<path d="M115.26 148.98C115.3 150.58 114.4 151.99 113.62 153.32C112.74 154.81 111.83 156.28 110.88 157.73C110.26 158.67 111.77 159.55 112.39 158.61C113.4 157.06 114.38 155.49 115.31 153.9C116.19 152.39 117.05 150.79 117.01 148.98C116.98 147.86 115.24 147.85 115.26 148.98Z" fill="black"/>
<path fill-rule="evenodd" clip-rule="evenodd" d="M140.78 61.3003C140.78 61.3003 136.52 52.4303 139.76 42.2603C139.96 41.4603 140.18 40.6503 140.45 39.8203C146.81 19.9303 179.28 13.7003 191.7 36.4503C204.12 59.1803 178.48 87.6103 152.08 73.8603C150.75 73.1703 149.09 72.0503 147.38 70.4903C144.83 71.6203 140.64 72.4903 135.96 69.4403C134.97 68.7903 135.04 67.3203 136.09 66.7803C138.66 65.4403 140.78 61.3003 140.78 61.3003Z" fill="#F6F8F9"/>
<path d="M152.14 39.7703C152.82 42.8003 153.5 45.8303 154.18 48.8603C154.43 49.9603 156.11 49.4903 155.86 48.4003C155.18 45.3703 154.5 42.3403 153.82 39.3103C153.58 38.2103 151.9 38.6703 152.14 39.7703Z" fill="black"/>
<path d="M153.185 52.8571C155.337 51.6144 156.558 49.6998 155.912 48.5806C155.266 47.4615 152.997 47.5616 150.845 48.8042C148.693 50.0468 147.472 51.9615 148.118 53.0806C148.764 54.1998 151.033 54.0997 153.185 52.8571Z" fill="black"/>
<path d="M152.25 39.8601C152.57 40.4101 153.08 40.7501 153.66 40.9801C154.16 41.1701 154.69 41.2201 155.2 41.3701C155.26 41.3901 155.32 41.4101 155.39 41.4301C155.57 41.5001 155.39 41.4401 155.4 41.4301C155.4 41.4301 155.67 41.5701 155.68 41.5801C155.74 41.6101 155.79 41.6501 155.84 41.6801C155.98 41.7701 155.76 41.6101 155.84 41.6801C155.92 41.7501 156 41.8201 156.08 41.9001C156.12 41.9401 156.15 41.9801 156.19 42.0201C156.23 42.0601 156.36 42.1701 156.21 42.0401C156.28 42.1001 156.34 42.2301 156.39 42.3101C156.41 42.3401 156.52 42.6001 156.54 42.6001C156.5 42.5001 156.49 42.4801 156.51 42.5401C156.52 42.5701 156.53 42.6001 156.54 42.6301C156.56 42.6901 156.58 42.7501 156.59 42.8201C156.71 43.2601 157.22 43.5701 157.66 43.4301C158.11 43.2801 158.4 42.8301 158.27 42.3601C157.99 41.3201 157.25 40.3901 156.27 39.9301C155.73 39.6801 155.16 39.5901 154.59 39.4501C154.46 39.4201 154.34 39.3801 154.22 39.3401C154.05 39.2801 154.2 39.3601 154.21 39.3401C154.2 39.3501 154.05 39.2601 154.03 39.2501C153.98 39.2201 153.94 39.1901 153.89 39.1601C153.8 39.1101 154 39.2701 153.89 39.1601C153.88 39.1501 153.75 39.0301 153.76 39.0201C153.78 39.0501 153.8 39.0701 153.82 39.1001C153.8 39.0601 153.77 39.0301 153.75 38.9901C153.52 38.6001 152.95 38.4201 152.56 38.6801C152.17 38.9201 152.01 39.4301 152.25 39.8601Z" fill="black"/>
<path d="M162.83 47.9502C163.01 50.9002 163.3 53.8502 163.68 56.7802C163.74 57.2502 164.04 57.6502 164.55 57.6502C164.97 57.6502 165.48 57.2502 165.42 56.7802C165.03 53.8502 164.75 50.9002 164.57 47.9502C164.5 46.8302 162.76 46.8202 162.83 47.9502Z" fill="black"/>
<path d="M163.72 48.6199C166.32 48.3899 168.93 48.1599 171.53 47.9299C172 47.8899 172.4 47.5599 172.4 47.0599C172.4 46.6199 172 46.1499 171.53 46.1899C168.93 46.4199 166.32 46.6499 163.72 46.8799C163.25 46.9199 162.85 47.2499 162.85 47.7499C162.84 48.1899 163.25 48.6599 163.72 48.6199Z" fill="black"/>
<path d="M170.75 47.3202C171.23 50.1802 171.65 53.0502 171.99 55.9302C172.05 56.4002 172.35 56.8002 172.86 56.8002C173.29 56.8002 173.79 56.4002 173.73 55.9302C173.37 52.9002 172.93 49.8702 172.43 46.8602C172.35 46.4002 171.78 46.1402 171.36 46.2502C170.87 46.3802 170.67 46.8502 170.75 47.3202Z" fill="black"/>
<path d="M162.925 59.8618C164.747 58.8097 165.781 57.1891 165.234 56.2421C164.687 55.2951 162.767 55.3803 160.945 56.4324C159.122 57.4845 158.088 59.1051 158.635 60.0521C159.182 60.9991 161.102 60.9139 162.925 59.8618Z" fill="black"/>
<path d="M171.317 59.4033C173.14 58.3512 174.174 56.7306 173.627 55.7836C173.08 54.8366 171.16 54.9218 169.337 55.9739C167.515 57.026 166.481 58.6466 167.028 59.5936C167.575 60.5406 169.495 60.4554 171.317 59.4033Z" fill="black"/>
<path d="M182.29 41.0202C182.47 43.9702 182.76 46.9202 183.14 49.8502C183.2 50.3202 183.5 50.7202 184.01 50.7202C184.43 50.7202 184.94 50.3202 184.88 49.8502C184.49 46.9202 184.21 43.9702 184.03 41.0202C183.97 39.9002 182.22 39.9002 182.29 41.0202Z" fill="black"/>
<path d="M182.383 52.934C184.206 51.8819 185.24 50.2613 184.693 49.3143C184.146 48.3674 182.226 48.4526 180.403 49.5047C178.581 50.5568 177.547 52.1774 178.094 53.1243C178.641 54.0713 180.561 53.9861 182.383 52.934Z" fill="black"/>
</g>
<defs>
<clipPath id="clip0_266_1568">
<rect width="200" height="200" fill="white"/>
</clipPath>
</defs>
</svg>
