<svg width="200" height="200" viewBox="0 0 200 200" fill="none" xmlns="http://www.w3.org/2000/svg">
<g clip-path="url(#clip0_266_1425)">
<path d="M157.85 143.16C153.76 118.26 143.67 95.5101 108.55 89.3701C89.17 85.9901 63.82 85.3801 34.72 105.25C15.56 118.34 26.44 141.17 23.13 143.94L15.22 146.17C15.22 146.17 15.68 156.77 16.42 164.17C18.74 187.33 23.12 191.31 30.45 193.54V200.41H150.35L147.16 183.63C159.58 170.61 160.57 159.71 157.85 143.16Z" fill="#EF9AC2"/>
<path d="M87.89 111.76C88.01 111 88.92 110.66 89.5 111.17C92.04 113.4 97.71 118.94 99.43 125.39C100.91 130.94 100.54 134.58 100.13 136.4C99.97 137.1 99.15 137.41 98.58 136.97C96.38 135.26 91.51 131.07 89.64 126.13C87.16 119.56 87.48 114.3 87.89 111.76Z" fill="#901E5E"/>
<path d="M104.44 78.6699C104.44 78.6699 107.32 85.0799 113.78 83.3899C118.81 82.0799 117.72 75.1399 117.72 75.1399C117.72 75.1399 123.74 76.0799 125.76 70.1299C127.21 65.8399 123.62 62.8799 123.62 62.8799C123.62 62.8799 129.27 61.0899 129.81 53.7299C130.38 45.9399 124.45 43.7099 124.45 43.7099C124.45 43.7099 127.63 38.1899 124.22 35.1199C120.08 31.3999 115.2 33.8299 115.2 33.8299C115.2 33.8299 114.55 25.1499 110.14 23.7599C102.21 21.2599 98.55 26.8399 98.55 26.8399C98.55 26.8399 99.71 22.1099 93.88 19.0599C89.03 16.5299 84.68 21.2499 84.68 21.2499C84.68 21.2499 83.06 15.0299 75.94 16.1299C70.64 16.9499 70.51 23.5199 70.51 23.5199C70.51 23.5199 65.3 21.0599 60.56 24.6499C53.84 29.7399 56.43 38.2699 56.43 38.2699C56.43 38.2699 50.36 37.1999 48.24 42.7799C45.86 49.0599 51.01 51.8099 51.01 51.8099C51.01 51.8099 47.79 57.3999 53.6 59.8499C56.17 60.9399 104.44 78.6699 104.44 78.6699Z" fill="black"/>
<path d="M117.1 61.07C117.1 61.07 118.54 49.95 112.17 40.69C105.39 30.84 94.67 27.28 79.1 29.98C63.52 32.67 57.49 44.23 55.13 54.46L98 60.03L95.78 78.24L107.69 79.92L117.1 61.07Z" fill="black"/>
<path d="M107.59 66.1001C107.59 66.1001 108.91 59.0501 113.19 58.0701C117.48 57.0901 119.15 59.9301 118.74 64.9001C118.33 69.8701 114.86 74.8401 109.73 73.7001C109.73 73.7001 106.56 84.4201 107.17 90.8101C107.17 90.8101 100.92 92.4401 96.41 96.5201C87.66 104.46 87.32 109.08 87.32 109.08C86.55 104.66 81.81 103.23 81.81 103.23C81.81 103.23 63.22 103.96 56.48 93.8801C47.17 79.9601 56 54.4901 56 54.4901C56 54.4901 56.73 52.1401 58.31 49.5501C58.31 49.5501 61.29 49.6501 63.73 47.9901C67.05 45.7401 67.12 42.7501 67.12 42.7501C67.12 42.7501 68.51 46.5401 74.82 46.2001C78.3 46.0101 80.68 44.8301 82.99 41.1401C82.99 41.1401 83.24 45.4101 88.14 47.5601C92.31 49.3901 96.33 47.0101 96.33 47.0101C92.6 50.6801 96.59 59.7301 102.12 58.6401C102.12 58.6401 100.32 67.1401 103.34 68.5701C105.05 69.3701 107 68.0801 107.59 66.1001Z" fill="#DC7B6A"/>
<path d="M86.29 100.45C81.51 101.62 76.29 101.56 71.48 100.59C66.45 99.58 62.27 97.11 59 93.13C55.3 88.62 53.48 82.82 53.28 77.05C53.08 71.27 54.33 65.47 55.66 59.87C56.78 55.15 58.15 50.17 60.79 46.05C61.73 44.58 59.39 43.21 58.45 44.68C55.86 48.74 54.43 53.61 53.27 58.25C51.81 64.06 50.5 70.15 50.55 76.16C50.65 87.79 57.22 99.7 69.02 102.81C74.79 104.33 81.21 104.49 87.01 103.07C88.71 102.65 87.99 100.03 86.29 100.45Z" fill="black"/>
<path d="M79.67 96.8201C76.67 97.9701 73.28 97.9401 70.34 96.6201C69.93 96.4401 69.45 96.5001 69.21 96.9201C69 97.2701 69.1 97.8701 69.51 98.0501C72.85 99.5501 76.69 99.7301 80.12 98.4201C80.54 98.2601 80.82 97.8601 80.7 97.4001C80.57 96.9901 80.09 96.6501 79.67 96.8201Z" fill="black"/>
<path d="M114.59 62.0701C113.19 62.2001 112.12 63.1601 111.58 64.4301C110.97 65.8801 111.21 67.4802 111.45 68.9902C111.52 69.4302 112.07 69.6801 112.47 69.5701C112.94 69.4401 113.12 69.0001 113.05 68.5501C112.87 67.4401 112.69 66.2401 113.07 65.1601C113.07 65.1501 113.13 65.0002 113.1 65.0602C113.08 65.1202 113.14 64.9802 113.15 64.9702C113.21 64.8602 113.27 64.7401 113.34 64.6401C113.37 64.5901 113.4 64.5501 113.43 64.5001C113.45 64.4701 113.51 64.4002 113.45 64.4702C113.53 64.3702 113.61 64.2801 113.7 64.1901C113.74 64.1501 113.78 64.1202 113.82 64.0802C113.92 63.9902 113.74 64.1402 113.85 64.0602C113.95 63.9902 114.06 63.9301 114.16 63.8701C114.2 63.8501 114.27 63.8201 114.18 63.8501C114.23 63.8301 114.28 63.8101 114.33 63.8001C114.39 63.7801 114.46 63.7601 114.53 63.7501C114.56 63.7401 114.73 63.7202 114.59 63.7402C115.03 63.7002 115.42 63.3901 115.42 62.9101C115.42 62.4801 115.04 62.0201 114.59 62.0701Z" fill="black"/>
<path d="M70.84 72.9001C70.9 71.4101 71.13 69.9101 71.37 68.4401C71.62 66.9701 71.89 65.4801 72.32 64.0501C72.63 63.0101 74.28 63.4001 73.97 64.4501C73.29 66.7201 72.91 69.1201 72.65 71.4701C72.53 72.5001 72.26 73.9801 72.86 74.9001C73.52 75.9001 75.13 75.5001 75.21 74.2901C75.28 73.2201 76.91 73.1301 76.91 74.2401C76.91 74.7501 77.29 75.2901 77.85 75.2701C78.41 75.2601 78.76 74.7001 78.73 74.1901C78.67 73.1001 80.37 73.0501 80.43 74.1401C80.51 75.5701 79.36 76.9201 77.9 76.9701C77.19 77.0001 76.54 76.7001 76.06 76.2201C75.42 76.9201 74.48 77.3101 73.43 77.1301C71.35 76.7601 70.77 74.7301 70.84 72.9001Z" fill="black"/>
<path d="M113.02 75.6199C113.31 75.5999 113.61 75.5099 113.93 75.3599C114.44 75.1199 114.8 74.6599 114.96 74.0699C115.14 73.3699 114.99 72.5799 114.56 72.0099C113.8 70.9899 112.34 71.1699 112.28 71.1799C112.28 71.1799 111.7 71.2199 111.77 71.7899C111.83 72.2499 112.41 72.1599 112.41 72.1599C112.42 72.1599 113.36 72.0499 113.77 72.5999C114.02 72.9399 114.11 73.41 114 73.83C113.96 74.01 113.83 74.3199 113.52 74.4699C113.13 74.6499 112.77 74.6199 112.52 74.4999C112.16 74.3299 112.03 73.9899 111.99 73.8199C111.99 73.8199 111.77 73.8499 111.46 73.8699C111.14 73.8899 110.93 73.8699 110.93 73.8699C110.95 73.9799 111.27 75.0599 112.11 75.4699C112.38 75.5899 112.69 75.6399 113.02 75.6199Z" fill="#FBE574"/>
<path d="M80 54.8201C80.27 54.6401 80.54 54.4801 80.83 54.3401C80.9 54.3001 80.97 54.2701 81.05 54.2401C80.9 54.3001 80.9 54.3001 81.05 54.2401C81.2 54.1901 81.35 54.1301 81.51 54.0901C81.66 54.0501 81.82 54.0101 81.97 53.9701C82.05 53.9501 82.13 53.9401 82.21 53.9301C82.03 53.9501 82.03 53.9501 82.19 53.9301C82.51 53.9101 82.82 53.9101 83.13 53.9301C83.29 53.9501 83.27 53.9401 83.08 53.9201C83.15 53.9301 83.22 53.9401 83.29 53.9601C83.43 53.9901 83.57 54.0201 83.71 54.0701C83.78 54.0901 84.23 54.2401 83.88 54.1101C84.01 54.1601 84.14 54.2301 84.26 54.3001C84.39 54.3701 84.5 54.4501 84.62 54.5301C84.75 54.6201 84.74 54.6101 84.59 54.5001C84.65 54.5401 84.7 54.5901 84.75 54.6401C84.86 54.7301 84.96 54.8401 85.05 54.9401C85.1 54.9901 85.14 55.0501 85.19 55.1001C85.08 54.9601 85.07 54.9501 85.16 55.0701C85.58 55.6801 86.41 56.0101 87.08 55.5701C87.68 55.1801 88.03 54.2901 87.58 53.6501C86.59 52.2001 85.07 51.3501 83.34 51.1401C81.68 50.9401 79.96 51.4801 78.58 52.3901C77.97 52.8001 77.65 53.6501 78.08 54.3101C78.47 54.9301 79.34 55.2601 80 54.8201Z" fill="black"/>
<path d="M61.07 57.1498C61.11 57.1098 61.5 56.7998 61.25 56.9898C61.38 56.8898 61.51 56.7998 61.64 56.7098C61.91 56.5398 62.19 56.3898 62.48 56.2498C62.18 56.3898 62.64 56.1898 62.7 56.1698C62.85 56.1198 63 56.0698 63.16 56.0298C63.31 55.9898 63.47 55.9598 63.63 55.9298C63.28 55.9898 63.77 55.9198 63.84 55.9198C63.99 55.9098 64.14 55.9098 64.29 55.9198C64.38 55.9198 64.84 55.8998 64.48 55.9298C64.75 55.9098 65.1 56.0798 65.36 56.1598C65.51 56.2198 65.5 56.2098 65.34 56.1498C65.41 56.1798 65.48 56.2098 65.54 56.2498C65.67 56.3198 65.8 56.3898 65.93 56.4798C65.99 56.5198 66.05 56.5598 66.11 56.6098C65.97 56.4998 65.97 56.4998 66.09 56.5998C66.2 56.7098 66.31 56.8098 66.41 56.9198C66.91 57.4598 67.9 57.4698 68.4 56.9198C68.93 56.3398 68.94 55.4998 68.4 54.9298C67.25 53.6998 65.51 53.0398 63.83 53.1198C62.03 53.1998 60.4 53.9898 59.06 55.1598C58.5 55.6498 58.53 56.6598 59.06 57.1498C59.67 57.6998 60.48 57.6698 61.07 57.1498Z" fill="black"/>
<path d="M83.06 103.76C84.52 104.51 86.8 106.13 87.32 109.08C87.32 109.08 87.66 104.46 96.41 96.5201C100.92 92.4301 107.17 90.8101 107.17 90.8101C107.06 89.6101 107.08 88.2701 107.18 86.8701C108.85 87.0201 110.43 87.7001 111.39 89.3801C114.85 93.8701 103.68 117.45 87.16 118.44C82.11 118.74 77.58 113.89 74.43 103.81L83.06 103.76Z" fill="#901E5E"/>
<path d="M106.65 93.6901C103.55 99.0701 99.7 103.96 95.21 108.25C94.25 109.17 95.71 110.62 96.67 109.71C101.28 105.31 105.24 100.25 108.43 94.7301C109.09 93.5801 107.31 92.5401 106.65 93.6901Z" fill="#78111B"/>
<path d="M88.24 112.67C88.91 112.28 89.74 112.77 89.72 113.54C89.61 116.92 88.92 124.82 85.02 130.23C81.66 134.89 78.62 136.91 76.95 137.75C76.31 138.07 75.55 137.63 75.53 136.91C75.46 134.12 75.61 127.7 78.25 123.13C81.75 117.04 86.03 113.96 88.24 112.67Z" fill="#901E5E"/>
<path d="M91.3 109.51C90.06 108.19 88.28 107.61 86.51 108.02C84.9 108.38 83.77 109.55 82.95 110.93C82.01 112.52 81.37 114.48 81.54 116.34C81.71 118.19 82.78 120.06 84.46 120.93C86.43 121.95 88.63 121.56 90.3 120.18C90.73 119.83 90.67 119.09 90.3 118.72C89.87 118.29 89.27 118.37 88.84 118.72C86.83 120.37 83.99 119.01 83.61 116.48C83.4 115.09 83.83 113.61 84.48 112.39C84.76 111.86 85.07 111.36 85.45 110.94C85.78 110.57 86.17 110.29 86.55 110.15C87.1 109.94 87.65 109.88 88.15 109.98C88.83 110.12 89.35 110.45 89.83 110.97C90.75 111.94 92.21 110.48 91.3 109.51Z" fill="#78111B"/>
<path d="M84.25 120.17C83.5 121.37 82.78 122.6 82.1 123.85C81.84 124.32 81.97 124.99 82.47 125.26C82.95 125.51 83.6 125.4 83.88 124.89C84.56 123.64 85.28 122.42 86.03 121.21C86.32 120.75 86.14 120.06 85.66 119.8C85.16 119.54 84.56 119.69 84.25 120.17Z" fill="#78111B"/>
<path d="M79.78 109.04C80.45 110.35 81.34 111.55 82.38 112.58C82.76 112.96 83.46 112.99 83.84 112.58C84.21 112.17 84.25 111.53 83.84 111.12C83.42 110.7 83.02 110.26 82.66 109.79C82.71 109.86 82.77 109.93 82.82 110C82.34 109.37 81.92 108.71 81.56 108.01C81.31 107.53 80.6 107.35 80.15 107.64C79.66 107.95 79.51 108.53 79.78 109.04Z" fill="#78111B"/>
<path d="M87.97 62.6898C88.36 62.0798 88.77 61.4798 89.21 60.9098C89.3 60.7898 89.31 60.5698 89.27 60.4298C89.23 60.2798 89.12 60.1298 88.98 60.0498C88.83 59.9698 88.66 59.9298 88.5 59.9898C88.45 60.0098 88.4 60.0298 88.35 60.0498C88.26 60.1098 88.18 60.1798 88.12 60.2798C87.68 60.8598 87.27 61.4498 86.88 62.0598C86.7 62.3398 86.81 62.7598 87.11 62.9198C87.42 63.0798 87.78 62.9898 87.97 62.6898Z" fill="black"/>
<path d="M89.38 63.9298C89.84 63.5998 90.31 63.2998 90.8 63.0298C90.94 62.9498 91.05 62.7998 91.09 62.6498C91.13 62.4998 91.11 62.2998 91.03 62.1698C90.84 61.8798 90.48 61.7698 90.17 61.9398C89.68 62.2098 89.2 62.5198 88.75 62.8398C88.61 62.9398 88.51 63.0498 88.46 63.2198C88.42 63.3698 88.44 63.5698 88.52 63.6998C88.61 63.8298 88.74 63.9498 88.9 63.9898C89.06 64.0298 89.25 64.0298 89.38 63.9298Z" fill="black"/>
<path d="M89.74 64.4101C89.84 62.9701 88.06 61.9801 87.54 61.7601C86.41 61.2701 84.73 60.7701 82.55 60.9201C78.96 61.1601 78.08 62.7401 77.91 63.6001C77.76 64.3201 77.95 65.6501 79.1 66.0101C79.72 66.2001 81.03 66.0501 83.38 66.1201C85.61 66.1801 87.08 66.3801 87.77 66.2101C88.46 66.0301 89.63 65.9601 89.74 64.4101Z" fill="white"/>
<path d="M85.05 65.74C87.48 65.74 87.49 61.96 85.05 61.96C82.62 61.96 82.61 65.74 85.05 65.74Z" fill="black"/>
<path d="M60.67 61.48C60.41 60.75 60.12 60.02 59.8 59.31C59.74 59.18 59.56 59.06 59.42 59.02C59.27 58.98 59.07 59 58.94 59.08C58.81 59.17 58.69 59.3 58.65 59.46C58.61 59.63 58.64 59.78 58.71 59.94C58.78 60.11 58.86 60.27 58.93 60.44C58.91 60.39 58.89 60.34 58.87 60.29C59.08 60.79 59.28 61.3 59.46 61.81C59.51 61.97 59.6 62.1 59.75 62.19C59.88 62.27 60.08 62.3 60.23 62.25C60.54 62.16 60.79 61.81 60.67 61.48Z" fill="black"/>
<path d="M58.68 61.8199C58.31 61.3999 57.92 60.9899 57.5 60.6199C57.38 60.5099 57.23 60.4399 57.06 60.4399C56.91 60.4399 56.72 60.5099 56.62 60.6199C56.51 60.7399 56.43 60.8999 56.44 61.0599C56.45 61.2199 56.5 61.3899 56.62 61.4999C57.04 61.8799 57.43 62.2799 57.8 62.6999C57.9 62.8199 58.09 62.8799 58.24 62.8799C58.39 62.8799 58.58 62.8099 58.68 62.6999C58.79 62.5799 58.87 62.4199 58.86 62.2599C58.86 62.0999 58.8 61.9599 58.68 61.8199Z" fill="black"/>
<path d="M57.32 63.5698C57.67 62.1698 59.16 61.2598 59.69 61.0698C60.85 60.6598 62.12 60.4998 64.29 60.7898C67.85 61.2698 68.47 62.4198 68.73 63.3598C68.92 64.0598 68.63 65.1398 67.46 65.4198C66.83 65.5698 65.44 65.5298 63.24 65.5598C61.01 65.5898 59.16 65.7098 58.48 65.4998C57.8 65.2798 56.99 64.8598 57.32 63.5698Z" fill="white"/>
<path d="M64.33 65.28C66.76 65.28 66.77 61.5 64.33 61.5C61.89 61.5 61.89 65.28 64.33 65.28Z" fill="black"/>
<path d="M77.13 81.38C76.27 81.93 75.53 82.71 75.23 83.71C74.92 84.73 75.13 85.96 75.92 86.71C76.69 87.45 77.96 87.72 78.9 87.12C79.44 86.77 79.79 86.17 79.75 85.52C79.71 84.88 79.35 84.29 78.78 83.97C78.06 83.57 77.26 83.72 76.75 84.36C76.44 84.74 76.25 85.18 76.46 85.67C76.56 85.9 76.72 86.07 76.94 86.2C77.27 86.38 77.6 86.33 77.93 86.18C78.36 85.99 78.49 85.34 78.25 84.96C77.97 84.52 77.48 84.43 77.03 84.64C77.02 84.65 77 84.65 76.99 84.66C77.14 84.62 77.29 84.58 77.44 84.54C77.42 84.54 77.41 84.54 77.39 84.54C77.54 84.58 77.69 84.62 77.84 84.66C77.88 84.81 77.92 84.96 77.96 85.11C77.96 85.55 78 85.69 78.1 85.53C78.14 85.44 78.08 85.59 78.06 85.58L78.19 85.44C78.19 85.45 78.05 85.53 78.14 85.48C78.23 85.43 78.07 85.51 78.07 85.51C78.02 85.53 77.96 85.51 77.91 85.52C77.77 85.53 78.01 85.55 77.88 85.51C77.77 85.48 77.94 85.55 77.97 85.57C78.06 85.62 77.91 85.54 77.91 85.53C77.91 85.53 77.97 85.59 77.98 85.6C78.06 85.67 77.93 85.54 77.94 85.54C77.97 85.54 77.98 85.65 78 85.65C77.98 85.65 77.95 85.49 77.97 85.58C77.97 85.61 78.01 85.75 77.99 85.62C77.96 85.45 77.97 85.81 77.99 85.63C78 85.5 78 85.61 77.98 85.63C77.98 85.64 77.97 85.65 77.97 85.66C77.95 85.71 77.96 85.7 77.98 85.64C78.04 85.58 77.99 85.6 77.97 85.64C77.98 85.63 78.08 85.53 78.01 85.58C78 85.58 77.94 85.64 77.94 85.64C77.94 85.61 78.09 85.55 77.96 85.61C77.81 85.69 78.1 85.57 77.95 85.62C77.91 85.63 77.8 85.64 77.78 85.67C77.78 85.67 77.97 85.66 77.87 85.66C77.84 85.66 77.81 85.66 77.78 85.67C77.74 85.67 77.52 85.65 77.66 85.67C77.8 85.69 77.61 85.66 77.57 85.65C77.51 85.63 77.45 85.61 77.4 85.59C77.31 85.56 77.47 85.62 77.47 85.62C77.46 85.61 77.4 85.59 77.39 85.58C77.35 85.56 77.25 85.47 77.21 85.47C77.23 85.47 77.36 85.61 77.25 85.5C77.23 85.48 77.21 85.46 77.18 85.44C77.16 85.42 77.03 85.27 77.11 85.37C77.19 85.47 77.07 85.3 77.05 85.27C77.03 85.24 77.02 85.21 77 85.18C76.93 85.05 77.02 85.2 77.01 85.21C77.01 85.21 76.91 84.86 76.9 84.83C76.86 84.66 76.9 84.98 76.9 84.8C76.9 84.72 76.89 84.65 76.9 84.57C76.9 84.54 76.92 84.33 76.9 84.46C76.88 84.59 76.92 84.38 76.93 84.35C76.94 84.29 76.96 84.22 76.98 84.16C76.99 84.13 77 84.1 77.01 84.07C77.06 83.93 77 84.1 77 84.1C76.99 84.09 77.22 83.7 77.24 83.67C77.24 83.66 77.29 83.59 77.3 83.59C77.29 83.59 77.19 83.73 77.28 83.61C77.33 83.55 77.38 83.49 77.43 83.44C77.54 83.33 77.65 83.22 77.77 83.12C77.79 83.11 77.83 83.06 77.85 83.06C77.81 83.07 77.73 83.15 77.83 83.08C77.9 83.03 77.98 82.98 78.05 82.93C78.44 82.68 78.64 82.13 78.37 81.71C78.1 81.31 77.55 81.11 77.13 81.38Z" fill="black"/>
<path d="M74.73 90.7199C76.32 91.5099 78.23 91.6598 79.9 90.9998C80.33 90.8298 80.68 90.3999 80.52 89.8999C80.38 89.4799 79.89 89.0898 79.42 89.2798C79.07 89.4198 78.7 89.5298 78.33 89.5898C78.3 89.5998 78.05 89.6198 78.27 89.5998C78.17 89.6098 78.07 89.6198 77.97 89.6298C77.79 89.6398 77.62 89.6398 77.44 89.6398C77.35 89.6398 77.26 89.6299 77.18 89.6199C77.14 89.6199 76.86 89.5798 77.08 89.6098C76.91 89.5798 76.73 89.5499 76.56 89.5099C76.39 89.4699 76.22 89.4198 76.05 89.3598C76.01 89.3498 75.72 89.2298 75.91 89.3098C75.82 89.2698 75.73 89.2298 75.64 89.1798C75.22 88.9698 74.65 89.0498 74.42 89.4998C74.2 89.8998 74.29 90.4899 74.73 90.7199Z" fill="black"/>
<path fill-rule="evenodd" clip-rule="evenodd" d="M18.65 139.47C18.65 139.47 14.41 138.5 12.13 136.44C7.61 132.3 6.69 128.86 6.21 126.01C5.33 120.77 7.39 117.6 9.3 117.22C9.3 117.22 7.91 112.75 10.91 110.85C11.6 110.47 12.37 110.22 13.15 110.14C13.94 110.06 14.74 110.14 15.49 110.37C15.49 110.37 15.8 107.07 18.58 106.48C21.36 105.89 22.24 107.27 22.24 107.27C22.24 107.27 23.04 102.91 27.94 103.37C32.84 103.83 31.82 110.46 31.82 110.46C33.18 110.36 34.55 110.66 35.74 111.32C36.94 111.98 37.92 112.97 38.57 114.17C42.38 120.74 39.03 132.53 35.81 135.93L37.25 140.92L19.33 144.75L18.65 139.47Z" fill="#DC7B6A"/>
<path d="M20.85 138.41C19.54 138.67 18.18 138.6 16.9 138.23C15.62 137.86 14.44 137.18 13.47 136.26C13.32 136.08 13.1 135.96 12.86 135.94C12.62 135.92 12.38 135.99 12.2 136.14C12.11 136.22 12.03 136.31 11.98 136.41C11.92 136.52 11.89 136.63 11.88 136.75C11.87 136.87 11.88 136.99 11.92 137.1C11.96 137.21 12.01 137.32 12.09 137.41C13.27 138.57 14.71 139.43 16.29 139.92C17.87 140.41 19.55 140.51 21.17 140.21C21.29 140.19 21.4 140.15 21.5 140.08C21.6 140.02 21.69 139.93 21.76 139.83C21.83 139.73 21.88 139.62 21.9 139.5C21.93 139.38 21.93 139.26 21.91 139.14C21.89 139.02 21.85 138.91 21.78 138.81C21.72 138.71 21.63 138.62 21.53 138.55C21.43 138.48 21.32 138.43 21.2 138.41C21.09 138.39 20.97 138.39 20.85 138.41Z" fill="black"/>
<path d="M32.47 119.2C30.77 119.96 28.93 120.34 27.07 120.32C25.57 120.18 23.57 119.68 22.72 118.31C22.43 117.84 22.31 117.29 22.39 116.75C22.47 116.21 22.73 115.71 23.14 115.34C23.77 114.86 24.49 114.5 25.25 114.27C27.3 113.56 29.21 111.76 31.5 112.14C32.64 112.33 32.82 110.52 31.67 110.34C29.62 110.02 27.92 111.03 26.17 111.91C26.17 111.83 26.15 111.75 26.12 111.68C25.63 110.69 25.04 109.75 24.37 108.88C23.65 107.91 22.73 107.1 21.67 106.52C21.56 106.48 21.44 106.46 21.32 106.46C21.2 106.46 21.08 106.49 20.98 106.54C20.87 106.59 20.77 106.66 20.69 106.75C20.61 106.84 20.55 106.94 20.5 107.05C20.42 107.27 20.43 107.51 20.52 107.72C20.61 107.93 20.78 108.1 20.99 108.19L21.16 108.3L21.45 108.5L21.75 108.74L21.89 108.86C22.11 109.04 22.31 109.25 22.49 109.48C22.67 109.69 22.85 109.9 23.02 110.12C23.35 110.54 23.64 110.98 23.93 111.41L23.88 111.33L23.94 111.42C23.97 111.47 24 111.52 24.03 111.57L24.2 111.86C24.31 112.04 24.41 112.23 24.51 112.43C24.55 112.49 24.59 112.55 24.64 112.61C23.64 112.91 22.71 113.41 21.9 114.06C21.82 114.13 21.76 114.22 21.68 114.29C19.56 112.43 17.14 110.95 14.51 109.93C14.29 109.85 14.04 109.85 13.82 109.95C13.6 110.05 13.43 110.23 13.35 110.45C13.26 110.67 13.27 110.92 13.37 111.14C13.47 111.36 13.65 111.53 13.87 111.61C16.41 112.58 18.74 114.03 20.73 115.89C20.47 116.81 20.51 117.79 20.85 118.68C21.19 119.55 21.81 120.28 22.62 120.75C22.61 120.81 22.55 120.87 22.5 120.92C22.47 120.94 22.44 120.97 22.42 120.99C22.42 121.03 22.27 121.09 22.23 121.14L22.12 121.19L21.96 121.26L21.86 121.3C21.8 121.32 21.74 121.33 21.68 121.34L21.31 121.4L21.2 121.39L21.05 121.38C20.9 121.38 20.75 121.36 20.61 121.34C20.61 121.34 20.38 121.32 20.54 121.33L20.33 121.26L19.91 121.12C19.61 121 19.33 120.87 19.04 120.75C18.74 120.62 18.66 120.53 18.47 120.44C17.45 119.83 16.48 119.13 15.59 118.35C13.46 116.72 10.54 115.62 7.95 116.83C7.76 116.94 7.61 117.13 7.55 117.34C7.48 117.55 7.5 117.78 7.59 117.99C7.68 118.19 7.85 118.36 8.06 118.44C8.27 118.53 8.5 118.54 8.71 118.46C10.46 117.65 12.49 118.38 13.98 119.41C14.76 119.96 15.47 120.61 16.26 121.16C17.04 121.72 17.99 122.06 18.74 122.68C19.17 123 19.47 123.47 19.6 123.99C19.69 124.39 19.65 124.82 19.49 125.2C19.35 125.57 19.1 125.9 18.78 126.14C18.1 126.6 17.28 126.81 16.46 126.73C14.38 126.61 12.42 125.7 10.98 124.19C10.15 123.33 8.8 124.48 9.59 125.35C11.19 127.05 13.33 128.15 15.65 128.47C17.55 128.72 19.74 128.29 20.81 126.55C21.13 126.05 21.33 125.49 21.4 124.9C21.47 124.31 21.41 123.72 21.22 123.16C21.69 123.15 22.16 123.07 22.61 122.92C23.31 122.68 23.89 122.19 24.24 121.54C24.7 121.7 25.16 121.84 25.64 121.95C26.04 122.03 26.44 122.08 26.84 122.11C26.11 123.28 25.64 124.6 25.47 125.98C25.3 127.35 25.44 128.75 25.87 130.06C25.92 130.17 25.99 130.26 26.08 130.35C26.17 130.43 26.27 130.49 26.38 130.53C26.49 130.57 26.61 130.59 26.73 130.58C26.85 130.57 26.97 130.55 27.07 130.5C27.29 130.4 27.45 130.22 27.54 129.99C27.62 129.77 27.61 129.52 27.51 129.3C27.13 128.06 27.08 126.75 27.36 125.48C27.64 124.22 28.24 123.04 29.11 122.08C29.12 122.05 29.12 122.03 29.12 122C30.53 121.77 31.91 121.38 33.24 120.86C34.3 120.41 33.54 118.78 32.47 119.2Z" fill="black"/>
<path d="M15.54 147.31C24.9 145.27 34.25 143.21 43.63 141.29C45.12 140.99 44.49 138.7 43 139.01C33.62 140.93 24.26 142.99 14.91 145.03C13.42 145.35 14.05 147.64 15.54 147.31Z" fill="#E66FA9"/>
<path d="M30.14 194.68C35.25 195.97 40.92 196.05 45.31 192.74C47.53 191.07 49.75 188.49 50.61 185.79C51.43 183.21 51.34 180.27 51.25 177.6C51.09 172.84 50.45 168.09 49.68 163.39C48.37 155.45 46.54 147.6 44.47 139.83C44.08 138.36 41.79 138.98 42.19 140.46C45.22 151.82 47.97 163.48 48.77 175.25C48.96 178.07 49.12 181.22 48.64 183.89C48.57 184.3 48.48 184.71 48.35 185.11C48.17 185.68 48.28 185.44 47.99 185.93C47.26 187.2 46.46 188.41 45.45 189.47C41.56 193.54 35.95 193.7 30.78 192.39C29.29 192.03 28.66 194.31 30.14 194.68Z" fill="#E66FA9"/>
<path d="M47.63 123.67C47.32 125.68 47.15 127.7 47.12 129.73C47.12 129.83 47.12 129.95 47.18 130.03C47.24 130.12 54.05 128.6 54.06 128.52C54.06 128.52 49.23 124.95 47.63 123.67Z" fill="white"/>
<path d="M46.06 123.24C45.77 125.17 45.57 127.11 45.5 129.06C45.48 129.67 45.43 130.31 45.76 130.86C46.07 131.37 46.62 131.69 47.22 131.67C47.53 131.66 47.86 131.59 48.17 131.53C49.84 131.22 51.49 130.84 53.14 130.45C53.95 130.26 55.01 130.14 55.46 129.35C55.66 129 55.75 128.49 55.62 128.09C55.48 127.66 55.23 127.38 54.87 127.12C53.22 125.9 51.57 124.67 49.94 123.42C49.8 123.31 49.66 123.21 49.53 123.1C49.46 123.05 49.4 123 49.33 122.95C49.3 122.93 49.28 122.91 49.25 122.89C49.1 122.78 49.57 123.14 49.42 123.02C49.2 122.85 48.99 122.68 48.77 122.51C48.42 122.23 48.08 122.03 47.62 122.03C47.22 122.03 46.74 122.21 46.47 122.51C45.93 123.1 45.76 124.25 46.47 124.81C48.47 126.41 50.54 127.92 52.6 129.45C52.81 129.61 53.02 129.76 53.23 129.92C53.04 129.18 52.84 128.43 52.65 127.69C52.75 127.59 52.84 127.5 52.94 127.4C53.1 127.16 53.32 127.02 53.6 126.95C53.59 126.95 53.59 126.95 53.58 126.96C53.56 126.96 53.55 126.97 53.53 126.98C53.48 126.99 53.43 127.01 53.38 127.02C53.21 127.07 53.04 127.11 52.87 127.15C52.34 127.28 51.8 127.4 51.27 127.52C50.08 127.79 48.89 128.05 47.7 128.29C47.49 128.33 47.28 128.37 47.07 128.41C46.97 128.43 46.66 128.47 47.07 128.42C47.45 128.37 47.29 128.4 47.21 128.4C46.88 128.41 47.69 128.4 47.99 128.62C48.18 128.81 48.38 129.01 48.57 129.2C48.85 129.82 48.73 129.84 48.74 129.45C48.74 129.31 48.75 129.18 48.75 129.04C48.76 128.81 48.77 128.59 48.78 128.36C48.8 127.84 48.84 127.32 48.88 126.81C48.92 126.32 48.97 125.82 49.03 125.33C49.06 125.08 49.08 124.84 49.12 124.59C49.06 125 49.13 124.54 49.14 124.49C49.16 124.36 49.18 124.22 49.2 124.09C49.27 123.64 49.27 123.24 49.04 122.83C48.84 122.49 48.45 122.17 48.07 122.08C47.29 121.92 46.2 122.33 46.06 123.24Z" fill="white"/>
<path d="M18.82 99.2897C20.4 97.7697 21.91 96.3397 24.04 95.6297C25.74 95.0697 27.53 94.8597 29.31 94.7897C31.69 94.6997 34.17 94.7097 36.5 95.1997C43.45 96.6797 49.58 102.43 51.99 109.08C53.91 114.36 54.07 120.97 50.02 125.32C49.04 126.37 50.62 127.95 51.6 126.9C58.4 119.58 55.55 108.06 49.77 101.07C47 97.7297 43.39 95.0497 39.27 93.6497C36.81 92.8197 34.26 92.5797 31.68 92.5397C29.4 92.4997 27.09 92.5997 24.86 93.0897C21.71 93.7897 19.51 95.5297 17.24 97.7097C16.2 98.7097 17.78 100.29 18.82 99.2897Z" fill="white"/>
<path d="M104.63 150.879C104.74 161.349 104.85 171.829 104.96 182.299C104.98 183.729 107.21 183.739 107.19 182.299C107.08 171.829 106.97 161.349 106.86 150.879C106.84 149.449 104.61 149.439 104.63 150.879Z" fill="white"/>
<path d="M102.05 182.169C103.01 183.959 104.09 185.679 105.28 187.329C105.34 187.419 105.41 187.499 105.51 187.539C105.61 187.569 110.15 182.269 110.11 182.199C110.1 182.199 104.1 182.229 102.05 182.169Z" fill="white"/>
<path d="M100.64 182.989C101.48 184.559 102.42 186.079 103.44 187.539C103.77 188.019 104.09 188.579 104.59 188.889C105.13 189.229 105.8 189.259 106.35 188.929C106.61 188.779 106.81 188.549 107.01 188.339C108.16 187.089 109.26 185.779 110.35 184.479C110.58 184.209 110.81 183.929 111.03 183.649C111.36 183.229 111.77 182.789 111.73 182.199C111.66 181.329 111.04 180.559 110.1 180.569C107.42 180.589 104.73 180.629 102.05 180.539C101.2 180.509 100.38 181.309 100.42 182.169C100.46 183.079 101.14 183.769 102.05 183.799C104.73 183.879 107.42 183.839 110.1 183.829C109.56 183.289 109.01 182.739 108.47 182.199C108.47 182.159 108.85 181.089 108.63 181.479C108.51 181.679 108.93 181.099 108.8 181.259C108.77 181.299 108.74 181.339 108.71 181.369C108.55 181.569 108.38 181.769 108.22 181.969C107.72 182.569 107.22 183.159 106.71 183.749C106.21 184.329 105.71 184.919 105.2 185.489C105.02 185.689 104.84 185.889 104.66 186.089C104.6 186.149 104.54 186.219 104.48 186.279C104.46 186.299 104.44 186.319 104.42 186.339C104.61 186.119 105.15 185.919 105.52 185.899C105.79 185.969 106.07 186.049 106.34 186.119C106.69 186.529 106.8 186.629 106.65 186.439C106.61 186.379 106.56 186.319 106.52 186.259C106.46 186.179 106.41 186.099 106.35 186.019C106.19 185.799 106.04 185.569 105.89 185.349C105.6 184.919 105.31 184.479 105.04 184.039C104.49 183.159 103.97 182.259 103.47 181.339C103.07 180.589 101.96 180.289 101.24 180.759C100.46 181.259 100.21 182.189 100.64 182.989Z" fill="white"/>
<path fill-rule="evenodd" clip-rule="evenodd" d="M140.78 61.4302C140.78 61.4302 136.52 52.5602 139.76 42.3902C139.96 41.5902 140.18 40.7802 140.45 39.9502C146.81 20.0602 179.28 13.8302 191.7 36.5802C204.12 59.3102 178.48 87.7402 152.08 73.9902C150.75 73.3002 149.09 72.1802 147.38 70.6202C144.83 71.7502 140.64 72.6202 135.96 69.5702C134.97 68.9202 135.04 67.4502 136.09 66.9102C138.66 65.5702 140.78 61.4302 140.78 61.4302Z" fill="#F6F8F9"/>
<path d="M109.97 140.83C110.22 151.74 112.52 162.54 116.77 172.59C118.59 176.9 120.76 181.39 124.83 184C129.09 186.72 134.96 187.4 139.89 186.75C145.17 186.05 150.13 183.34 152.91 178.69C153.69 177.38 151.65 176.19 150.87 177.5C148.6 181.3 144.6 183.57 140.31 184.31C135.76 185.09 130.2 184.52 126.21 182.07C122.38 179.72 120.42 175.24 118.75 171.26C116.87 166.75 115.39 162.07 114.32 157.31C113.1 151.89 112.45 146.38 112.32 140.83C112.3 139.31 109.93 139.31 109.97 140.83Z" fill="#E66FA9"/>
<path d="M125.35 131.25C129.33 136.58 132.83 142.25 135.82 148.2C136.5 149.56 138.55 148.36 137.86 147.01C134.88 141.06 131.37 135.39 127.39 130.06C127 129.54 126.37 129.29 125.77 129.64C125.27 129.92 124.97 130.74 125.35 131.25Z" fill="#E66FA9"/>
<path d="M98.53 125.72C98.53 125.72 95.69 128.41 91.24 130.29C87.1 132.04 88.65 136.97 91.68 136.45C94.71 135.92 95.69 135.1 95.69 135.1L98.53 125.72Z" fill="#B86C51"/>
<path d="M114.13 118.58C114.13 118.58 99.46 123.99 97.61 126.58C95.76 129.16 94.56 132.32 93.9 133.67C93.24 135.02 91.41 137.92 92.59 139.64C93.77 141.36 99.43 140.78 99.43 140.78C99.43 140.78 100.44 142.51 102.18 142.53C103.91 142.55 107 141.25 107 141.25C107 141.25 107.74 142.85 109.38 142.77C112.94 142.61 115.21 141.14 115.21 141.14C115.21 141.14 115.22 143.3 117.3 143.29C119.37 143.28 125.75 137.98 126.83 135.46C127.91 132.95 129.66 128.13 129.66 128.13C129.66 128.13 129 122.1 123.78 120.23C118.56 118.36 114.13 118.58 114.13 118.58Z" fill="#DC7B6A"/>
<path d="M100.27 139.58C99.87 137.51 101.26 135.62 102.48 134.1C103.85 132.39 105.34 130.77 106.93 129.25C107.74 128.47 106.51 127.24 105.7 128.02C103.91 129.72 102.25 131.56 100.75 133.51C99.29 135.41 98.12 137.57 98.6 140.04C98.8 141.15 100.48 140.68 100.27 139.58Z" fill="black"/>
<path d="M107.61 141.29C107.68 139.21 108.96 137.47 110.35 136.04C111.95 134.4 113.68 132.88 115.36 131.32C116.18 130.55 114.95 129.32 114.13 130.09C112.33 131.78 110.42 133.4 108.74 135.21C107.18 136.9 105.94 138.93 105.87 141.29C105.83 142.41 107.57 142.41 107.61 141.29Z" fill="black"/>
<path d="M115.72 141.32C115.99 139.8 117.04 138.65 118.03 137.55C119.24 136.21 120.48 134.9 121.76 133.62C122.55 132.82 121.32 131.59 120.53 132.39C119.18 133.74 117.87 135.13 116.59 136.55C115.47 137.8 114.34 139.16 114.04 140.86C113.96 141.32 114.17 141.8 114.65 141.93C115.07 142.05 115.63 141.79 115.72 141.32Z" fill="black"/>
<path d="M152.38 40.2102C153.06 43.2402 153.74 46.2702 154.42 49.3002C154.67 50.4002 156.35 49.9302 156.1 48.8402C155.42 45.8102 154.74 42.7802 154.06 39.7502C153.82 38.6502 152.14 39.1102 152.38 40.2102Z" fill="black"/>
<path d="M153.425 53.2965C155.577 52.0539 156.798 50.1393 156.152 49.0201C155.506 47.9009 153.237 48.001 151.085 49.2437C148.933 50.4863 147.712 52.4009 148.358 53.5201C149.004 54.6393 151.273 54.5392 153.425 53.2965Z" fill="black"/>
<path d="M152.49 40.3C152.81 40.85 153.32 41.19 153.9 41.42C154.4 41.61 154.93 41.66 155.44 41.81C155.5 41.83 155.56 41.85 155.63 41.87C155.81 41.94 155.63 41.88 155.64 41.87C155.64 41.87 155.91 42.01 155.92 42.02C155.98 42.05 156.03 42.09 156.08 42.12C156.22 42.21 156 42.05 156.08 42.12C156.16 42.19 156.24 42.26 156.32 42.34C156.36 42.38 156.39 42.42 156.43 42.46C156.47 42.5 156.6 42.61 156.45 42.48C156.52 42.54 156.58 42.67 156.63 42.75C156.65 42.78 156.76 43.04 156.78 43.04C156.74 42.94 156.73 42.92 156.75 42.98C156.76 43.01 156.77 43.04 156.78 43.07C156.8 43.13 156.82 43.19 156.83 43.26C156.95 43.7 157.46 44.01 157.9 43.87C158.35 43.72 158.64 43.27 158.51 42.8C158.23 41.76 157.49 40.83 156.51 40.37C155.97 40.12 155.4 40.03 154.83 39.89C154.7 39.86 154.58 39.82 154.46 39.78C154.29 39.72 154.44 39.8 154.45 39.78C154.44 39.79 154.29 39.7 154.27 39.69C154.22 39.66 154.18 39.63 154.13 39.6C154.04 39.55 154.24 39.71 154.13 39.6C154.12 39.59 153.99 39.47 154 39.46C154.02 39.49 154.04 39.51 154.06 39.54C154.04 39.5 154.01 39.47 153.99 39.43C153.76 39.04 153.19 38.86 152.8 39.12C152.4 39.36 152.24 39.87 152.49 40.3Z" fill="black"/>
<path d="M163.07 48.3901C163.25 51.3401 163.54 54.2901 163.92 57.2201C163.98 57.6901 164.28 58.0901 164.79 58.0901C165.21 58.0901 165.72 57.6901 165.66 57.2201C165.27 54.2901 164.99 51.3401 164.81 48.3901C164.74 47.2701 163 47.2601 163.07 48.3901Z" fill="black"/>
<path d="M163.96 49.0598C166.56 48.8298 169.17 48.5998 171.77 48.3698C172.24 48.3298 172.64 47.9998 172.64 47.4998C172.64 47.0598 172.24 46.5898 171.77 46.6298C169.17 46.8598 166.56 47.0898 163.96 47.3198C163.49 47.3598 163.09 47.6898 163.09 48.1898C163.08 48.6298 163.48 49.0998 163.96 49.0598Z" fill="black"/>
<path d="M170.99 47.7602C171.47 50.6202 171.89 53.4902 172.23 56.3702C172.29 56.8402 172.59 57.2402 173.1 57.2402C173.53 57.2402 174.03 56.8402 173.97 56.3702C173.61 53.3402 173.17 50.3102 172.67 47.3002C172.59 46.8402 172.02 46.5802 171.6 46.6902C171.11 46.8202 170.91 47.2902 170.99 47.7602Z" fill="black"/>
<path d="M163.156 60.3061C164.978 59.254 166.012 57.6334 165.465 56.6864C164.919 55.7394 162.998 55.8246 161.176 56.8767C159.354 57.9288 158.32 59.5494 158.866 60.4964C159.413 61.4434 161.334 61.3582 163.156 60.3061Z" fill="black"/>
<path d="M171.557 59.8422C173.38 58.7901 174.414 57.1695 173.867 56.2225C173.32 55.2756 171.4 55.3608 169.577 56.4129C167.755 57.465 166.721 59.0856 167.268 60.0326C167.815 60.9795 169.735 60.8943 171.557 59.8422Z" fill="black"/>
<path d="M182.53 41.4601C182.71 44.4101 183 47.3601 183.38 50.2901C183.44 50.7601 183.74 51.1601 184.25 51.1601C184.67 51.1601 185.18 50.7601 185.12 50.2901C184.73 47.3601 184.45 44.4101 184.27 41.4601C184.21 40.3401 182.46 40.3401 182.53 41.4601Z" fill="black"/>
<path d="M182.623 53.373C184.446 52.3209 185.48 50.7003 184.933 49.7533C184.386 48.8063 182.466 48.8915 180.643 49.9436C178.821 50.9957 177.787 52.6163 178.334 53.5633C178.881 54.5103 180.801 54.4251 182.623 53.373Z" fill="black"/>
</g>
<defs>
<clipPath id="clip0_266_1425">
<rect width="200" height="200" fill="white"/>
</clipPath>
</defs>
</svg>
