<svg width="200" height="200" viewBox="0 0 200 200" fill="none" xmlns="http://www.w3.org/2000/svg">
<g clip-path="url(#clip0_423_10229)">
<path d="M20.19 194C12.7 186.21 14.26 175.78 16.89 158.94C20.94 132.96 37.86 101.39 61.57 93.91C86.95 85.91 106.14 84.64 123.39 90.14C153.32 99.69 181.59 112.35 191.12 145.33C197.47 167.32 200.1 171.19 193.56 185.97C188.1 198.32 158.28 200.23 158.28 200.23H28.66C28.66 200.24 23.92 197.88 20.19 194Z" fill="#E7E6E6"/>
<path d="M127.92 90.4199L120.42 91.0099L104.41 127.28C104.41 127.28 109.2 135.53 119.51 134.01C129.82 132.49 129.58 118.3 129.91 111.87C130.38 102.6 127.92 90.4199 127.92 90.4199Z" fill="#A1A2A2"/>
<path d="M74.9701 115.61C74.8501 121.82 76.1401 131.66 84.2201 133.65C92.3001 135.64 97.6901 130.25 97.6901 130.25L92.4201 113.26L74.9701 115.61Z" fill="#A1A2A2"/>
<path d="M131.92 81.2302C131.92 81.2302 133.77 69.8502 127.54 60.1302C120.91 49.7802 110.02 45.7602 93.92 48.0002C77.82 50.2402 71.23 61.9002 68.46 72.3402L112.32 79.5102L109.42 98.1402L119.79 98.0202L131.92 81.2302Z" fill="black"/>
<path d="M121.97 86.0701C121.97 86.0701 123.56 78.8701 128 78.0101C132.44 77.1501 134.06 80.1201 133.47 85.2201C132.88 90.3201 129.15 95.3101 123.92 93.9501C123.92 93.9501 121.8 101.66 119.16 107.72C115.7 115.63 110.33 124.88 100.13 134.45L91.27 127.7C91.27 127.7 75.02 127.66 67.22 112.31C59.42 96.9601 69.37 72.3901 69.37 72.3901C69.37 72.3901 72.23 64.1101 78.34 61.5701C84.45 59.0201 83.46 63.1301 87.45 64.8201C91.43 66.5101 100.42 63.0701 103.63 60.4901C106.84 57.9101 111.89 58.7601 113.94 61.4701C115.99 64.1801 115.49 68.0201 114.05 70.9101C112.61 73.8001 116.48 76.4801 116.62 78.2201C116.76 79.9601 115.27 86.5201 113.64 92.4601C112.01 98.4001 113.59 98.3501 116.73 97.7001C119.86 97.0501 119.78 93.3101 121.97 86.0701Z" fill="#F4A5AB"/>
<path d="M90.0201 89.9602C90.0001 90.0702 89.9701 90.1802 89.9301 90.2802C89.8701 90.4402 89.9001 90.2902 89.9401 90.2702C89.9301 90.2702 89.8701 90.4202 89.8601 90.4302C89.8301 90.4802 89.8001 90.5402 89.7701 90.5902C89.7601 90.6102 89.6601 90.7602 89.7301 90.6502C89.8001 90.5502 89.7001 90.6802 89.6801 90.7102C89.6401 90.7602 89.6001 90.8002 89.5501 90.8402C89.5101 90.8802 89.4801 90.9102 89.4401 90.9402C89.3101 91.0602 89.4201 90.9302 89.4501 90.9402C89.4301 90.9302 89.2001 91.1002 89.1701 91.1202C89.1301 91.1402 89.0801 91.1902 89.0301 91.1902C89.1301 91.1502 89.1501 91.1402 89.0901 91.1602C89.0601 91.1702 89.0301 91.1802 89.0001 91.1902C88.9501 91.2102 88.9001 91.2202 88.8501 91.2302C88.8301 91.2402 88.6001 91.2802 88.7101 91.2602C88.8201 91.2402 88.6101 91.2602 88.5901 91.2602C88.5701 91.2602 88.4101 91.2402 88.3901 91.2502C88.4301 91.2202 88.5701 91.2802 88.4101 91.2502C88.3601 91.2402 88.3101 91.2302 88.2601 91.2102C88.2201 91.2002 88.1301 91.1502 88.0901 91.1502C88.1701 91.1502 88.2201 91.2102 88.1001 91.1502C88.0601 91.1302 88.0101 91.1002 87.9701 91.0702C87.9301 91.0502 87.7601 90.9602 87.9501 91.0602C87.8701 91.0202 87.7901 90.9202 87.7301 90.8602C87.6901 90.8202 87.6301 90.7702 87.6101 90.7202C87.7001 90.9002 87.6301 90.7402 87.6001 90.6902C87.5601 90.6302 87.4601 90.5002 87.4601 90.4202C87.5001 90.5202 87.5101 90.5402 87.4901 90.4802C87.4801 90.4502 87.4701 90.4202 87.4601 90.3902C87.4401 90.3302 87.4301 90.2702 87.4101 90.2102C87.3101 89.7802 86.7901 89.4802 86.3601 89.6202C85.9101 89.7702 85.6601 90.2002 85.7701 90.6702C86.0801 92.0002 87.3901 93.0702 88.7801 92.9202C90.1601 92.7802 91.3701 91.7502 91.6601 90.3702C91.7501 89.9402 91.5301 89.4302 91.0701 89.3202C90.6401 89.2702 90.1201 89.5002 90.0201 89.9602Z" fill="black"/>
<path d="M85.86 90.0201C85.72 90.2501 85.57 90.4701 85.43 90.6901C85.38 90.7701 85.52 90.5901 85.42 90.7101C85.38 90.7601 85.33 90.8101 85.29 90.8601C85.24 90.9101 85.2 90.9601 85.15 91.0001C85.13 91.0201 84.99 91.1401 85.08 91.0601C85.17 90.9901 85.02 91.1001 85 91.1101C84.94 91.1501 84.87 91.1801 84.8 91.2201C84.94 91.1401 84.73 91.2401 84.71 91.2501C84.63 91.2801 84.56 91.3001 84.48 91.3201C84.35 91.3501 84.22 91.3801 84.09 91.4101C83.89 91.4501 84.18 91.4101 84 91.4201C83.92 91.4201 83.84 91.4201 83.76 91.4201C83.6 91.4201 83.8 91.4401 83.73 91.4201C83.67 91.4001 83.61 91.3801 83.55 91.3701C83.45 91.3501 83.69 91.4501 83.55 91.3701C83.49 91.3401 83.44 91.3101 83.38 91.2801C83.21 91.1801 83.49 91.4001 83.35 91.2601C83.31 91.2201 83.27 91.1901 83.23 91.1501C83.21 91.1301 83.08 90.9701 83.15 91.0701C83.22 91.1701 83.12 91.0201 83.11 91.0001C83.08 90.9401 83.05 90.8901 83.02 90.8301C83.1 90.9801 83.01 90.7901 83 90.7501C82.98 90.6901 82.97 90.6301 82.95 90.5701C82.93 90.4901 82.93 90.4101 82.94 90.5401C82.93 90.3901 82.93 90.2401 82.94 90.0901C82.95 89.9101 82.9 90.2101 82.95 90.0201C82.97 89.9501 82.98 89.8701 83 89.8001C83.12 89.3701 82.85 88.8601 82.41 88.7501C81.96 88.6501 81.49 88.8801 81.36 89.3401C81.14 90.1501 81.18 91.0501 81.6 91.7901C81.96 92.4301 82.63 92.9501 83.36 93.0801C84.17 93.2201 85.21 93.0101 85.9 92.5501C86.53 92.1301 86.94 91.5101 87.33 90.8701C87.56 90.4901 87.43 89.9201 87.03 89.7101C86.61 89.5001 86.1 89.6201 85.86 90.0201Z" fill="black"/>
<path d="M83 89.6004C83.21 86.7104 84.04 83.9104 84.86 81.1404C85.17 80.0904 83.53 79.6404 83.22 80.6904C82.35 83.6104 81.51 86.5504 81.3 89.6004C81.27 90.0604 81.71 90.4504 82.15 90.4504C82.64 90.4504 82.97 90.0604 83 89.6004Z" fill="black"/>
<path d="M104.75 71.9303C103.46 70.2603 101.69 69.2203 99.5701 69.0403C97.5701 68.8703 95.5201 69.7103 94.1201 71.1203C93.5901 71.6603 93.5401 72.6403 94.1201 73.1703C94.7001 73.7003 95.6001 73.7403 96.1701 73.1703C96.2901 73.0403 96.4201 72.9303 96.5601 72.8103C96.6401 72.7403 96.7001 72.7103 96.5801 72.7903C96.6501 72.7403 96.7201 72.6903 96.8001 72.6403C96.9701 72.5303 97.1401 72.4303 97.3101 72.3403C97.3901 72.3003 97.4701 72.2603 97.5501 72.2203C97.7401 72.1203 97.3601 72.2703 97.5701 72.2103C97.9101 72.1103 98.2401 72.0203 98.5901 71.9303C98.8001 71.8803 98.3801 71.9403 98.6001 71.9303C98.6901 71.9303 98.7801 71.9103 98.8601 71.9103C99.0601 71.9003 99.2601 71.9003 99.4501 71.9103C99.5401 71.9203 99.6201 71.9203 99.7101 71.9303C99.5701 71.9203 99.5601 71.9103 99.7101 71.9303C99.8801 71.9703 100.04 72.0003 100.21 72.0503C100.38 72.1003 100.53 72.1603 100.7 72.2103C100.57 72.1603 100.59 72.1603 100.71 72.2203C100.79 72.2603 100.86 72.2903 100.94 72.3303C101.09 72.4103 101.24 72.5003 101.38 72.5903C101.47 72.6503 101.56 72.7103 101.64 72.7703C101.82 72.8903 101.5 72.6303 101.65 72.7803C101.77 72.9003 101.91 73.0103 102.03 73.1303C102.09 73.1903 102.15 73.2503 102.21 73.3203C102.25 73.3603 102.43 73.5903 102.27 73.3703C102.73 73.9703 103.53 74.3503 104.25 73.8903C104.82 73.5303 105.24 72.5703 104.75 71.9303Z" fill="black"/>
<path d="M82.7001 71.6303C81.2901 70.4403 79.5501 69.7303 77.6901 69.7403C75.8301 69.7503 74.0901 70.4703 72.6901 71.6803C72.1101 72.1803 72.1401 73.2203 72.6901 73.7303C73.3001 74.2903 74.1201 74.2603 74.7401 73.7303C74.8101 73.6703 74.8701 73.6203 74.9401 73.5603C74.8201 73.6503 74.8301 73.6503 74.9601 73.5503C75.1101 73.4503 75.2501 73.3603 75.4001 73.2703C75.5301 73.1903 75.6701 73.1203 75.8101 73.0603C75.8701 73.0303 75.9301 73.0003 75.9901 72.9803C75.8501 73.0403 75.8501 73.0403 76.0101 72.9803C76.3501 72.8703 76.6801 72.7803 77.0201 72.7003C77.3301 72.6303 76.8101 72.7003 77.1601 72.6803C77.3401 72.6703 77.5101 72.6503 77.6901 72.6503C77.8701 72.6503 78.0401 72.6603 78.2201 72.6703C78.6401 72.6903 77.9501 72.6103 78.3601 72.6903C78.7101 72.7603 79.0401 72.8403 79.3801 72.9603C79.4501 72.9903 79.7501 73.1203 79.5201 73.0103C79.6801 73.0803 79.8401 73.1603 79.9901 73.2503C80.1401 73.3403 80.2901 73.4303 80.4401 73.5303C80.5101 73.5803 80.5801 73.6303 80.6501 73.6803C80.5301 73.5903 80.5401 73.6003 80.6601 73.7003C81.2401 74.1903 82.1501 74.3103 82.7101 73.7003C83.1901 73.1403 83.3201 72.1603 82.7001 71.6303Z" fill="black"/>
<path d="M99.9001 125.35C94.6501 126.45 88.8901 125.97 83.7801 124.44C78.7301 122.93 74.0401 119.51 70.5501 115.6C66.3001 110.84 65.0101 103.75 65.0301 97.5602C65.0401 93.9502 65.5401 90.3802 66.2201 86.8502C66.7101 84.3102 67.1701 81.7202 67.9301 79.2402C69.4801 74.1502 71.5001 68.9302 74.3701 64.4302C75.3701 62.8602 72.8701 61.4002 71.8701 62.9702C69.0401 67.4102 67.0501 72.5502 65.4301 77.5502C64.6201 80.0302 64.1301 82.5902 63.6201 85.1402C62.8801 88.8402 62.2801 92.6002 62.1601 96.3802C61.9601 103.04 63.1601 110.73 67.2901 116.16C69.2001 118.68 71.6101 120.72 74.1401 122.59C76.4101 124.27 78.6801 125.7 81.3401 126.68C87.3601 128.89 94.3901 129.46 100.67 128.14C102.49 127.76 101.71 124.97 99.9001 125.35Z" fill="black"/>
<path d="M97.9 117.11C94.93 118.58 91.45 118.76 88.32 117.69C87.28 117.34 86.84 118.98 87.87 119.33C91.44 120.55 95.39 120.25 98.76 118.58C99.74 118.1 98.88 116.63 97.9 117.11Z" fill="black"/>
<path d="M129.33 82.7902C127.74 82.8902 126.19 83.8102 125.47 85.2702C124.74 86.7702 124.86 88.6502 125.88 90.0002C126.16 90.3702 126.61 90.5602 127.04 90.3002C127.4 90.0902 127.62 89.5002 127.34 89.1402C127.25 89.0202 127.16 88.8902 127.08 88.7602C127.03 88.6802 126.99 88.6002 126.95 88.5202C126.94 88.5002 126.89 88.3902 126.93 88.4702C126.87 88.3202 126.82 88.1502 126.78 87.9902C126.76 87.9202 126.75 87.8402 126.73 87.7702C126.7 87.6302 126.72 87.7602 126.71 87.6802C126.65 87.1102 126.71 86.5402 126.93 86.1202C127.07 85.8602 127.2 85.6502 127.33 85.5002C127.43 85.3902 127.53 85.2902 127.64 85.1902C127.64 85.1902 127.8 85.0502 127.75 85.0902C127.69 85.1302 127.86 85.0102 127.87 85.0002C127.99 84.9202 128.12 84.8402 128.24 84.7802C128.32 84.7402 128.4 84.7002 128.48 84.6702C128.38 84.7102 128.52 84.6602 128.56 84.6402C128.7 84.5902 128.84 84.5502 128.98 84.5202C129.05 84.5002 129.12 84.4902 129.19 84.4802C129.04 84.5002 129.29 84.4802 129.31 84.4802C129.77 84.4502 130.16 84.1102 130.16 83.6302C130.18 83.2102 129.79 82.7702 129.33 82.7902Z" fill="black"/>
<path d="M95.28 95.7602C94.32 97.8502 94.98 100.36 96.85 101.71C97.21 101.97 97.81 101.78 98.01 101.41C98.24 100.97 98.09 100.52 97.71 100.25C97.58 100.16 97.78 100.31 97.7 100.24C97.66 100.2 97.62 100.17 97.58 100.13C97.51 100.07 97.44 100 97.37 99.9302C97.3 99.8602 97.24 99.7802 97.18 99.7102C97.3 99.8502 97.2 99.7402 97.17 99.7002C97.14 99.6602 97.11 99.6102 97.08 99.5702C96.97 99.4002 96.88 99.2102 96.78 99.0302C96.73 98.9202 96.85 99.2202 96.78 99.0202C96.76 98.9802 96.75 98.9402 96.73 98.9002C96.69 98.8002 96.66 98.6902 96.63 98.5902C96.6 98.5002 96.58 98.4002 96.57 98.3002C96.57 98.2802 96.54 98.1402 96.54 98.1402C96.54 98.1402 96.56 98.3202 96.55 98.1702C96.53 97.9602 96.52 97.7602 96.54 97.5502C96.54 97.5002 96.55 97.4402 96.55 97.3902C96.56 97.2202 96.53 97.5002 96.55 97.3902C96.57 97.2902 96.58 97.2002 96.61 97.1002C96.64 96.9902 96.67 96.8902 96.7 96.7902C96.71 96.7502 96.73 96.7102 96.74 96.6702C96.81 96.4602 96.66 96.8302 96.76 96.6302C96.95 96.2302 96.89 95.7002 96.46 95.4702C96.07 95.2602 95.48 95.3302 95.28 95.7602Z" fill="black"/>
<path d="M92.8801 102.53C92.5801 102.64 92.2801 102.73 91.9701 102.8C91.8401 102.83 91.7101 102.86 91.5701 102.88C91.5301 102.89 91.4801 102.89 91.4401 102.9C91.5501 102.88 91.5601 102.88 91.4601 102.9C91.3901 102.91 91.3301 102.91 91.2601 102.92C90.9701 102.94 90.6701 102.95 90.3801 102.94C90.2201 102.93 90.0701 102.92 89.9101 102.9C89.6801 102.88 90.0901 102.93 89.8701 102.89C89.7801 102.88 89.6901 102.86 89.6001 102.84C89.1601 102.76 88.6601 102.96 88.5501 103.43C88.4501 103.85 88.6801 104.39 89.1401 104.48C90.5301 104.74 91.9801 104.66 93.3201 104.17C93.7401 104.02 94.0601 103.59 93.9101 103.12C93.7901 102.72 93.3301 102.37 92.8801 102.53Z" fill="black"/>
<path d="M98.64 134.27C95.78 150.53 93.6 166.78 93.76 183.32C93.81 188.48 94.02 193.65 94.31 198.8C94.4 200.42 96.93 200.43 96.84 198.8C96.36 190.28 96.1 181.74 96.42 173.21C96.71 165.45 97.5 157.72 98.61 150.04C99.34 144.99 100.19 139.96 101.07 134.94C101.36 133.35 98.92 132.67 98.64 134.27Z" fill="#A1A2A2"/>
<path d="M89.36 155.24C93.3201 155.24 93.33 149.09 89.36 149.09C85.41 149.08 85.4 155.24 89.36 155.24Z" fill="black"/>
<path d="M88.16 192.41C92.12 192.41 92.13 186.26 88.16 186.26C84.2 186.26 84.19 192.41 88.16 192.41Z" fill="black"/>
<path d="M153.79 148.05C157.28 162.44 161.01 177.15 161.05 192.05C161.05 193.18 162.81 193.18 162.81 192.05C162.77 177 159.02 162.12 155.49 147.58C155.22 146.49 153.53 146.95 153.79 148.05Z" fill="black"/>
<path d="M151.64 161.33C153.1 163.05 155.14 164.29 157.34 164.79C157.79 164.89 158.31 164.65 158.42 164.18C158.52 163.73 158.29 163.21 157.81 163.1C157.31 162.99 156.82 162.83 156.34 162.64C156.29 162.62 156.23 162.59 156.31 162.63C156.24 162.6 156.18 162.57 156.11 162.54C155.99 162.49 155.88 162.43 155.76 162.37C155.53 162.25 155.31 162.13 155.09 162C154.88 161.87 154.68 161.74 154.48 161.6C154.42 161.56 154.36 161.52 154.31 161.47C154.27 161.44 154.21 161.39 154.28 161.45C154.18 161.37 154.08 161.29 153.98 161.21C153.58 160.87 153.21 160.49 152.87 160.09C152.57 159.74 151.93 159.76 151.63 160.09C151.29 160.46 151.32 160.95 151.64 161.33Z" fill="black"/>
<path d="M84.09 100.12C85.78 101.23 88.1701 101.46 90.1501 101.39C92.1501 101.32 94.0801 100.75 95.6101 99.4404C96.4401 98.7304 95.2401 97.5304 94.4101 98.2404C93.1901 99.2904 91.5601 99.6704 89.9801 99.7004C88.3301 99.7404 86.3501 99.5804 84.9401 98.6604C84.0301 98.0604 83.18 99.5304 84.09 100.12Z" fill="black"/>
<path d="M103.43 80.2001C103.51 78.8701 101.99 77.9601 101.54 77.7501C100.57 77.3001 99.1301 76.8401 97.2501 76.9701C94.1701 77.1901 93.4201 78.6501 93.2701 79.4401C93.1401 80.1001 93.3101 81.3301 94.2901 81.6601C94.8201 81.8401 95.9501 81.7001 97.9601 81.7601C99.8701 81.8201 101.13 82.0001 101.73 81.8401C102.33 81.6901 103.34 81.6301 103.43 80.2001Z" fill="white"/>
<path d="M98.3301 81.36C100.49 81.36 100.5 78 98.3301 78C96.1701 78 96.1601 81.36 98.3301 81.36Z" fill="black"/>
<path d="M71.5 79.6003C71.8 78.3103 73.08 77.4703 73.54 77.2903C74.54 76.9103 75.62 76.7703 77.49 77.0303C80.55 77.4703 81.08 78.5403 81.3 79.4003C81.47 80.0503 81.21 81.0403 80.21 81.3003C79.67 81.4403 78.48 81.4003 76.59 81.4303C74.67 81.4603 73.09 81.5703 72.51 81.3703C71.92 81.1703 71.22 80.7903 71.5 79.6003Z" fill="white"/>
<path d="M77.0201 81.11C79.1801 81.11 79.1901 77.75 77.0201 77.75C74.8501 77.75 74.8501 81.11 77.0201 81.11Z" fill="black"/>
<path d="M22.1101 155.22C12.8101 157.97 3.36005 166.95 4.67005 178.86C5.98005 190.77 17.3201 204.26 35.8201 199.13C54.3301 194 55.82 177.4 50.87 168.05C45.93 158.7 31.4201 152.47 22.1101 155.22Z" fill="#A1A2A2"/>
<path d="M31.57 191.54C1.98 197.28 7.36 140.27 6.85 136.86C5.94 130.83 4.63 121.66 4.4 117.08C4.04 109.91 2.26 93.0103 3.36 90.2603C4.37 87.7203 5.37 87.3803 5.37 87.3803C5.37 87.3803 5.07 84.6003 5.64 83.2203C6.54 81.0503 8.19 81.0403 8.19 81.0403C8.19 81.0403 7.72 78.8003 9.74 77.5303C11.76 76.2503 13.22 77.4503 14 78.0203C15.18 78.8803 16.07 81.3503 16.07 81.3503C16.07 81.3503 17.35 79.4803 19.66 80.5403C25.99 83.4403 28.8 107.05 28.8 107.05C28.8 107.05 36.37 110.19 36.76 117.47C37.29 127.5 28.86 133.19 28.86 133.19C28.86 133.19 39.99 155.87 42.37 163.1C44.75 170.33 50.64 187.84 31.57 191.54Z" fill="#F6A6AC"/>
<path d="M25.0299 115.89C21.2099 118.85 19.3899 123.91 20.2599 128.63C20.4499 129.7 22.0799 129.24 21.8899 128.18C21.1299 124.02 22.9099 119.66 26.2299 117.08C26.5899 116.8 26.5199 116.18 26.2299 115.89C25.8699 115.53 25.3899 115.61 25.0299 115.89Z" fill="black"/>
<path d="M12.04 104.99C14.07 105.82 14.72 108.66 14.8 110.6C14.9 112.94 14.25 115.22 12.93 117.15C12.32 118.05 13.78 118.9 14.39 118C15.97 115.67 16.73 112.77 16.44 109.96C16.17 107.32 15.12 104.44 12.48 103.36C11.48 102.95 11.05 104.59 12.04 104.99Z" fill="black"/>
<path d="M29.51 106.81C28.29 105.96 26.8 105.22 25.3 105.15C24.08 105.09 22.85 105.51 21.91 106.28C19.66 108.13 20.37 111.76 22.17 113.63C23.36 114.87 24.91 115.86 26.39 116.73C27.33 117.28 28.18 115.83 27.24 115.27C25.88 114.47 24.46 113.57 23.36 112.43C22.44 111.47 21.88 109.92 22.33 108.62C22.52 108.06 22.71 107.76 23.09 107.48C23.52 107.16 24.04 106.94 24.57 106.86C26.02 106.63 27.51 107.47 28.66 108.27C29.56 108.88 30.4 107.42 29.51 106.81Z" fill="black"/>
<path d="M5.72996 88.9903C6.96996 88.6303 8.00996 89.6203 8.48996 90.6703C9.10996 92.0203 9.22996 93.6403 9.47996 95.0903C10.03 98.2403 10.57 101.39 11.12 104.54C11.31 105.61 12.93 105.16 12.75 104.09C12.1 100.33 11.46 96.5603 10.79 92.8003C10.52 91.2703 10.16 89.6603 9.04996 88.5003C8.07996 87.4903 6.64996 86.9703 5.27996 87.3603C4.24996 87.6603 4.68996 89.2903 5.72996 88.9903Z" fill="black"/>
<path d="M8.80006 82.6203C11.9401 83.2403 12.8801 87.6503 13.4801 90.2503C14.2801 93.7503 14.7801 97.3303 15.4001 100.86C15.5801 101.93 17.2101 101.48 17.0301 100.41C16.3401 96.4303 15.8401 92.3503 14.7801 88.4503C13.9901 85.5403 12.6401 81.6503 9.25006 80.9903C8.19006 80.7803 7.73006 82.4103 8.80006 82.6203Z" fill="black"/>
<path d="M16.23 81.3102C18.52 87.5002 19.86 94.0002 20.2 100.6C20.25 101.68 21.94 101.69 21.89 100.6C21.55 93.8502 20.2 87.2002 17.86 80.8602C17.49 79.8502 15.86 80.2802 16.23 81.3102Z" fill="black"/>
<path d="M13.37 104.23C16.36 102.43 19.85 101.72 23.31 102.15C23.76 102.21 24.15 101.72 24.15 101.31C24.15 100.81 23.76 100.52 23.31 100.47C19.58 100 15.74 100.84 12.52 102.78C11.59 103.33 12.44 104.79 13.37 104.23Z" fill="black"/>
<path d="M25.24 135.47C26.63 135.37 27.98 134.97 29.18 134.26C29.56 134.04 29.73 133.49 29.48 133.11C29.23 132.73 28.73 132.57 28.33 132.81C28.06 132.97 27.79 133.11 27.5 133.24C27.46 133.26 27.29 133.36 27.47 133.25C27.4 133.29 27.31 133.31 27.24 133.34C27.1 133.39 26.97 133.44 26.83 133.48C26.55 133.57 26.27 133.64 25.99 133.69C25.85 133.72 25.7 133.75 25.56 133.76C25.81 133.75 25.53 133.76 25.48 133.77C25.4 133.78 25.32 133.78 25.23 133.79C24.79 133.82 24.36 134.16 24.39 134.63C24.42 135.05 24.77 135.5 25.24 135.47Z" fill="black"/>
<path fill-rule="evenodd" clip-rule="evenodd" d="M86.82 172.5C86.82 172.5 79.87 172.55 75.01 171.79C70.15 171.03 68.67 177.9 75.87 179.58C79.9 180.52 80.96 179.62 80.96 179.62C77.97 181.14 79.53 184.24 82.63 185.33C84.17 185.87 86.02 185.42 88.01 185.03C86.98 187.76 88.23 192.59 97.4 188.55C97.4 188.55 96.06 192.55 101.84 192.55C107.62 192.55 129.64 183.25 129.64 183.25L116.86 174.59L87.53 171.21L86.82 172.5Z" fill="#F8A9AF"/>
<path d="M149.54 157.41C143.1 159.76 136.56 167.42 137.47 177.58C138.38 187.75 146.23 199.26 159.04 194.88C171.86 190.5 172.89 176.33 169.46 168.35C166.03 160.37 155.98 155.07 149.54 157.41Z" fill="#A1A2A2"/>
<path fill-rule="evenodd" clip-rule="evenodd" d="M80.43 165.09C81.76 163.32 82.58 162.87 89.51 164.89C96.45 166.92 101.18 164.95 105.37 164.29C109.57 163.64 116.63 162.73 122.95 164.64C122.95 164.64 139.9 160.59 151.14 161.37C156.65 161.75 159.79 164.88 160.81 167.15C163.92 174.06 163.75 182.92 155.88 188.69C148.01 194.46 132.98 181.37 129.64 183.23C125.49 185.55 122.74 184.35 116.67 185.8C116.67 185.8 108.18 182.82 109.26 179.99C110.35 177.15 104.58 176.24 97.86 175.42C91.15 174.6 90.87 175.13 85.83 172.48C80.81 169.86 79.22 167.22 80.43 165.09Z" fill="#F8A9AF"/>
<path fill-rule="evenodd" clip-rule="evenodd" d="M126.75 165.65C125.76 165.01 124.71 164.48 123.6 164.07C123.21 163.93 122.72 164.02 122.54 164.44C122.38 164.8 122.49 165.34 122.91 165.5C124.02 165.91 125.07 166.44 126.06 167.08C126.22 167.18 126.5 167.17 126.67 167.11C126.85 167.04 127.04 166.89 127.11 166.71C127.19 166.52 127.22 166.29 127.14 166.1C127.06 165.89 126.93 165.77 126.75 165.65Z" fill="black"/>
<path d="M81.2501 180.19C87.8601 179.88 94.4301 179.01 100.89 177.58C101.95 177.35 101.5 175.72 100.44 175.96C94.1201 177.36 87.7101 178.21 81.2501 178.51C80.1701 178.56 80.1701 180.24 81.2501 180.19Z" fill="black"/>
<path d="M87.9601 186.1C92.8701 185.26 97.7101 184.12 102.48 182.68C103.52 182.37 103.07 180.74 102.03 181.06C97.2701 182.5 92.4201 183.64 87.5101 184.48C86.4501 184.66 86.9001 186.28 87.9601 186.1Z" fill="black"/>
<path d="M97.95 189.99C101.11 189.09 104.24 188.08 107.33 186.97C107.76 186.82 108.05 186.4 107.92 185.93C107.81 185.52 107.31 185.19 106.88 185.34C103.79 186.45 100.66 187.46 97.5 188.36C96.46 188.67 96.9 190.29 97.95 189.99Z" fill="black"/>
<path d="M103.87 153.05C105.37 154.58 106.98 156 108.68 157.31C108.77 157.38 108.86 157.45 108.97 157.45C109.09 157.45 112.1 150.73 112.03 150.67C112.04 150.67 105.97 152.5 103.87 153.05Z" fill="white"/>
<path d="M102.66 154.26C104.01 155.62 105.43 156.9 106.92 158.1C107.39 158.47 107.84 158.9 108.41 159.09C109.21 159.35 110.04 158.99 110.48 158.31C110.57 158.16 110.65 158 110.73 157.84C111.52 156.23 112.25 154.58 112.96 152.93C113.16 152.46 113.37 151.99 113.56 151.52C113.72 151.12 113.87 150.66 113.7 150.23C113.36 149.38 112.55 148.74 111.58 149.03C108.87 149.85 106.16 150.69 103.42 151.41C102.55 151.64 101.93 152.65 102.22 153.53C102.51 154.43 103.4 154.98 104.34 154.73C107.08 154.01 109.79 153.17 112.5 152.35C111.79 151.95 111.09 151.55 110.38 151.15C110.37 151.13 110.41 150.21 110.38 150.27C110.37 150.28 110.37 150.3 110.37 150.31C110.34 150.36 110.33 150.42 110.31 150.48C110.28 150.55 110.25 150.62 110.22 150.69C110.2 150.73 110.18 150.77 110.17 150.82C110.09 151.01 110.37 150.35 110.25 150.62C110.02 151.15 109.79 151.68 109.56 152.21C109.04 153.38 108.51 154.56 107.96 155.72C107.86 155.92 107.77 156.12 107.67 156.32C107.64 156.38 107.6 156.45 107.57 156.51C107.47 156.75 107.79 156.24 107.78 156.25C108.03 156.1 108.29 155.96 108.54 155.81C108.84 155.81 109.15 155.81 109.45 155.81C109.52 155.83 109.97 156.15 109.67 155.92C109.57 155.84 109.47 155.76 109.37 155.68C109.15 155.51 108.93 155.33 108.72 155.15C108.31 154.81 107.9 154.46 107.5 154.11C106.68 153.38 105.88 152.63 105.11 151.85C104.48 151.21 103.3 151.17 102.68 151.85C102.02 152.52 101.98 153.58 102.66 154.26Z" fill="white"/>
<path d="M34.6999 117.32C37.4599 114.73 41.2599 113 44.7599 111.69C49.9799 109.74 55.4599 108.79 61.0399 108.99C68.8299 109.27 76.4099 111.55 82.9899 115.75C93.2599 122.29 100.85 133.01 104.9 144.4C105.61 146.4 106.24 148.45 106.6 150.54C106.72 151.23 106.79 151.46 106.78 152.31C106.78 152.42 106.77 152.52 106.77 152.63C106.76 152.97 106.77 152.69 106.77 152.68C106.78 152.73 106.73 152.88 106.71 152.92C106.94 152.52 106.6 152.94 106.89 152.62C105.88 153.75 107.54 155.42 108.56 154.29C109.3 153.46 109.18 152.19 109.06 151.17C108.85 149.36 108.39 147.58 107.85 145.83C106.19 140.46 103.71 135.31 100.68 130.58C96.8699 124.64 92.0899 119.32 86.3499 115.19C79.7499 110.44 71.9899 107.6 63.9099 106.83C57.7099 106.24 51.4999 106.93 45.5999 108.91C41.2099 110.38 36.4699 112.44 33.0499 115.65C31.9299 116.69 33.5999 118.35 34.6999 117.32Z" fill="white"/>
<path fill-rule="evenodd" clip-rule="evenodd" d="M142.24 61.3501C142.24 61.3501 137.98 52.4801 141.22 42.3101C141.42 41.5101 141.64 40.7001 141.91 39.8701C148.27 19.9801 180.74 13.7501 193.16 36.5001C205.58 59.2301 179.94 87.6601 153.54 73.9101C152.21 73.2201 150.55 72.1001 148.84 70.5401C146.29 71.6701 142.1 72.5401 137.42 69.4901C136.43 68.8401 136.5 67.3701 137.55 66.8301C140.12 65.4901 142.24 61.3501 142.24 61.3501Z" fill="#F6F8F9"/>
<path d="M153.61 39.8201C154.29 42.8501 154.97 45.8801 155.65 48.9101C155.9 50.0101 157.58 49.5401 157.33 48.4501C156.65 45.4201 155.97 42.3901 155.29 39.3601C155.05 38.2601 153.36 38.7301 153.61 39.8201Z" fill="black"/>
<path d="M154.657 52.9132C156.809 51.6706 158.03 49.756 157.384 48.6368C156.738 47.5176 154.469 47.6177 152.317 48.8604C150.165 50.103 148.944 52.0176 149.59 53.1368C150.236 54.256 152.505 54.1559 154.657 52.9132Z" fill="black"/>
<path d="M153.71 39.9099C154.03 40.4599 154.54 40.7999 155.12 41.0299C155.62 41.2199 156.15 41.2699 156.66 41.4199C156.72 41.4399 156.78 41.4599 156.85 41.4799C157.03 41.5499 156.85 41.4899 156.86 41.4799C156.86 41.4799 157.13 41.6199 157.14 41.6299C157.2 41.6599 157.25 41.6999 157.3 41.7299C157.44 41.8199 157.22 41.6599 157.3 41.7299C157.38 41.7999 157.46 41.8699 157.54 41.9499C157.58 41.9899 157.61 42.0299 157.65 42.0699C157.69 42.1099 157.82 42.2199 157.67 42.0899C157.74 42.1499 157.8 42.2799 157.85 42.3599C157.87 42.3899 157.98 42.6499 158 42.6499C157.96 42.5499 157.95 42.5299 157.97 42.5899C157.98 42.6199 157.99 42.6499 158 42.6799C158.02 42.7399 158.04 42.7999 158.05 42.8699C158.17 43.3099 158.68 43.6199 159.12 43.4799C159.57 43.3299 159.86 42.8799 159.73 42.4099C159.45 41.3699 158.71 40.4399 157.73 39.9799C157.19 39.7299 156.62 39.6399 156.05 39.4999C155.92 39.4699 155.8 39.4299 155.68 39.3899C155.51 39.3299 155.66 39.4099 155.67 39.3899C155.66 39.3999 155.51 39.3099 155.49 39.2999C155.44 39.2699 155.4 39.2399 155.35 39.2099C155.26 39.1599 155.46 39.3199 155.35 39.2099C155.34 39.1999 155.21 39.0799 155.22 39.0699C155.24 39.0999 155.26 39.1199 155.28 39.1499C155.26 39.1099 155.23 39.0799 155.21 39.0399C154.98 38.6499 154.41 38.4699 154.02 38.7299C153.63 38.9699 153.47 39.4899 153.71 39.9099Z" fill="black"/>
<path d="M164.29 47.9998C164.47 50.9498 164.76 53.8998 165.14 56.8298C165.2 57.2998 165.5 57.6998 166.01 57.6998C166.43 57.6998 166.94 57.2998 166.88 56.8298C166.49 53.8998 166.21 50.9498 166.03 47.9998C165.97 46.8898 164.22 46.8798 164.29 47.9998Z" fill="black"/>
<path d="M165.18 48.6697C167.78 48.4397 170.39 48.2097 172.99 47.9797C173.46 47.9397 173.86 47.6097 173.86 47.1097C173.86 46.6697 173.46 46.1997 172.99 46.2397C170.39 46.4697 167.78 46.6997 165.18 46.9297C164.71 46.9697 164.31 47.2997 164.31 47.7997C164.31 48.2397 164.71 48.7097 165.18 48.6697Z" fill="black"/>
<path d="M172.22 47.37C172.7 50.23 173.12 53.1 173.46 55.98C173.52 56.45 173.82 56.85 174.33 56.85C174.76 56.85 175.26 56.45 175.2 55.98C174.84 52.95 174.4 49.92 173.9 46.91C173.82 46.45 173.25 46.19 172.83 46.3C172.33 46.44 172.14 46.91 172.22 47.37Z" fill="black"/>
<path d="M164.388 59.9228C166.21 58.8707 167.244 57.2501 166.697 56.3031C166.151 55.3561 164.23 55.4413 162.408 56.4934C160.586 57.5455 159.552 59.1661 160.098 60.1131C160.645 61.0601 162.566 60.9749 164.388 59.9228Z" fill="black"/>
<path d="M172.776 59.4555C174.598 58.4034 175.632 56.7828 175.085 55.8358C174.539 54.8888 172.618 54.9741 170.796 56.0262C168.974 57.0783 167.94 58.6988 168.486 59.6458C169.033 60.5928 170.954 60.5076 172.776 59.4555Z" fill="black"/>
<path d="M183.75 41.0697C183.93 44.0197 184.22 46.9697 184.6 49.8997C184.66 50.3697 184.96 50.7697 185.47 50.7697C185.89 50.7697 186.4 50.3697 186.34 49.8997C185.95 46.9697 185.67 44.0197 185.49 41.0697C185.43 39.9597 183.69 39.9497 183.75 41.0697Z" fill="black"/>
<path d="M183.847 52.9951C185.669 51.943 186.703 50.3224 186.156 49.3754C185.61 48.4284 183.689 48.5136 181.867 49.5657C180.045 50.6178 179.011 52.2384 179.557 53.1854C180.104 54.1324 182.025 54.0472 183.847 52.9951Z" fill="black"/>
</g>
<defs>
<clipPath id="clip0_423_10229">
<rect width="200" height="200" fill="white"/>
</clipPath>
</defs>
</svg>
