<svg width="200" height="200" viewBox="0 0 200 200" fill="none" xmlns="http://www.w3.org/2000/svg">
<g clip-path="url(#clip0_259_1306)">
<path d="M94.52 69.0699L99.54 66.6299C100.92 68.6799 109.65 84.0299 111.17 87.7099C116.05 99.5099 118.55 104.61 117.16 111.67C114.38 125.85 93.76 123.59 92.71 112.14C92.72 112.13 104.48 93.1099 94.52 69.0699Z" fill="black"/>
<path d="M108.45 158.48C108.45 158.48 111.57 191.44 111.96 200.44H37.6799C37.4699 195.08 40.2699 179.36 40.2699 179.36C38.0599 170.68 38.3499 164.76 38.3499 164.76C38.3499 164.76 37.4799 166.13 34.9899 164.88C31.8599 163.31 33.4999 159.41 33.4999 159.41C33.4999 159.41 31.7599 162.77 28.5299 161.15C25.2999 159.53 27.0399 156.8 27.0399 156.8C27.0399 156.8 25.0399 158.81 22.1899 157.3C20.0799 156.18 20.8199 153.45 20.8199 153.45C20.8199 153.45 16.8399 155.31 14.7299 151.96C12.6199 148.6 17.2599 145.14 17.2599 145.14C17.2599 145.14 15.4099 138.19 20.8099 129.69C27.5399 119.11 49.0899 114.21 49.0899 114.21L73.9899 110.13C73.9899 110.13 77.9499 110.72 88.7899 112.19C95.9199 113.16 105.12 113.35 116.13 121.85C124.09 128 126.64 138.37 126.64 138.37C126.64 138.37 131.27 141.06 129.95 144.67C128.77 147.89 124.89 147.5 124.89 147.5C124.89 147.5 127.01 148.95 123.78 150.36C121.42 151.39 119.95 149.05 119.95 149.05C119.95 149.05 121.46 152.17 118.44 153.58C115.35 155.02 113.1 152.37 113.1 152.37C113.1 152.37 114.91 159.51 108.45 158.48Z" fill="#008DB2"/>
<path d="M99.99 72.9001C99.99 72.9001 102.69 65.0001 94.33 54.8401C85.97 44.6801 68.13 34.7101 48.92 49.5101C31.52 62.9201 20.92 101.19 24.14 118.53C27.28 135.42 55.98 137.85 61.18 119.59C63.21 112.47 57.71 96.8001 57.71 96.8001L99.99 72.9001Z" fill="black"/>
<path d="M59.77 52.5598C63.38 49.5198 67.15 47.5398 70.84 46.4198C70.65 46.2498 70.47 46.0698 70.28 45.8798C67.76 43.2098 67.77 39.4598 67.9 37.9298C67.93 37.5398 68.28 37.2798 68.65 37.3498C69.88 37.5998 72.56 38.3498 74.49 40.2998C75.65 41.4698 76.44 42.5998 76.96 43.6298C77.26 42.7798 77.69 41.8998 78.3 41.0298C80.29 38.1798 83.57 37.4198 85.2 37.2098C85.74 37.1398 86.2 37.5898 86.18 38.1398C86.12 39.5398 85.79 42.1298 84.38 44.2598C84 44.8298 83.62 45.3198 83.24 45.7698C85.81 46.3298 88.13 47.3198 90.05 48.6498C101.69 56.7198 100.1 67.1198 100.1 67.1198C100.1 67.1198 92.97 44.4798 73.53 54.2598C54.09 64.0298 54.9 82.4398 54.9 82.4398C54.9 82.4398 53.89 80.4898 52.05 80.5298C49.73 80.5798 48.33 81.4498 48.33 81.4498C48.33 81.4498 47.36 62.9998 59.77 52.5598Z" fill="#00A94F"/>
<path d="M68.3199 37C69.4999 37.01 70.6499 37.33 71.7399 37.79C72.7899 38.24 73.8599 38.82 74.7099 39.61C75.5499 40.39 76.2699 41.35 76.7499 42.41C77.1999 43.42 77.3999 44.53 77.5199 45.63C79.0999 46.34 80.4999 47.91 80.2399 49.71C80.1199 50.53 78.8799 50.31 78.9999 49.49C79.1099 48.73 78.6199 48.03 78.0999 47.54C77.5599 47.04 76.9099 46.69 76.1999 46.56C74.9499 46.34 73.4799 47.01 73.0899 48.33C72.9899 48.67 72.7199 48.92 72.3599 48.86C72.0499 48.81 71.7499 48.45 71.8499 48.11C72.4099 46.18 74.2899 45.02 76.2099 45.26C76.1099 44.5 75.9499 43.75 75.6499 43.04C75.2699 42.12 74.6399 41.28 73.9199 40.61C73.1899 39.94 72.3099 39.44 71.4099 39.05C70.4899 38.64 69.4699 38.3 68.4499 38.29C68.1099 38.29 67.7999 38.08 67.7599 37.71C67.7199 37.39 67.9799 37 68.3199 37Z" fill="#008043"/>
<path d="M67.9599 57.66C67.9599 57.66 64.7099 60.1 62.6899 62.47C62.0399 63.23 61.0199 64.5 60.1899 65.72C59.6099 66.57 59.0399 67.58 59.0399 67.58C59.0399 67.58 57.2599 63.13 59.8099 59.9C63.1799 55.63 67.9599 57.66 67.9599 57.66Z" fill="#97CA51"/>
<path d="M59.67 54.3698C60.29 55.2698 61.55 55.4498 62.49 54.7698C63.43 54.0898 63.7 52.7998 63.08 51.8998C62.74 51.4098 62.2 51.1298 61.63 51.0898C61.63 51.0898 60.83 51.6598 60.42 51.9998C59.83 52.4898 59.36 52.8898 59.36 52.8898C59.29 53.3798 59.38 53.9498 59.67 54.3698Z" fill="#E24497"/>
<path d="M82.12 38.9502L83.89 40.6102L82.75 41.6002L80.96 40.0302L80.83 42.9902L79.5 42.9102L79.54 40.6902L77.93 42.6202L77.49 42.3702C77.49 42.3702 78.38 40.4902 79.87 39.3502C80.31 39.0002 81.01 38.5002 81.85 38.1302C82.79 37.7202 83.85 37.4502 83.85 37.4502L84.1 38.3002L82.12 38.9502Z" fill="#97CA51"/>
<path d="M49.41 72.8301L51.57 73.4201L51.34 74.7601L49.34 74.0601L50.19 76.1701L49.23 76.5901L48.72 74.7401C48.72 74.7401 48.77 74.1601 48.91 73.2401C49.06 72.3101 49.2 71.8501 49.2 71.8501L50.43 70.5801L50.94 71.5701L49.41 72.8301Z" fill="#FAAE17"/>
<path d="M84.6492 50.3111C85.3777 50.1806 85.8687 49.5196 85.746 48.8346C85.6234 48.1497 84.9334 47.7002 84.205 47.8307C83.4765 47.9611 82.9854 48.6222 83.1081 49.3071C83.2308 49.9921 83.9208 50.4416 84.6492 50.3111Z" fill="white"/>
<path d="M91.12 54.4398L92.85 52.5698L94.16 53.7598L92.59 55.5798C92.59 55.5798 92.53 55.5298 92.43 55.4398C92.32 55.3398 92.01 55.0798 91.76 54.8998C91.28 54.5498 91.12 54.4398 91.12 54.4398Z" fill="#E24497"/>
<path d="M74.81 50.1899L74.99 52.0099L68.42 53.1499L68.23 50.4399L74.81 50.1899Z" fill="#FAAE17"/>
<path d="M52.5099 67.9698C52.5699 68.6898 53.1899 69.2098 53.8899 69.1398C54.5899 69.0698 55.0999 68.4298 55.0399 67.7198C54.9799 66.9998 54.3599 66.4798 53.6599 66.5498C52.9599 66.6198 52.4499 67.2498 52.5099 67.9698Z" fill="white"/>
<path d="M86.83 114.48C86.83 114.48 88.46 123.09 78.02 122.95C69.38 122.84 64.09 118.59 61.83 115.5C61.83 115.5 61.34 109.32 59.85 104.24C58.35 99.1602 57.25 96.7002 57.25 96.7002C57.25 96.7002 50.59 97.9902 47.31 92.5902C44.03 87.2002 45.39 81.6702 49.96 80.5502C54.53 79.4202 54.88 82.1102 56.44 85.1902C58 88.2702 63.23 92.1602 62.3 82.0102C62.3 82.0102 67.5 78.7902 71.27 74.0002C75.04 69.2102 76.57 64.2402 76.57 64.2402C76.57 64.2402 78.94 66.3002 84.72 68.5502C92.25 71.4902 98.24 70.3402 98.83 70.1502C99.42 69.9602 104.11 89.1302 103.91 98.9702C103.65 111.93 93.8 114.85 86.83 114.48Z" fill="#F498A8"/>
<path d="M97.3999 67.8302C99.0199 73.2202 99.9599 78.8202 100.95 84.3602C101.89 89.5902 102.74 94.9802 102.37 100.31C102.17 103.18 101.57 106.14 99.7099 108.42C98.2599 110.19 96.0799 111.23 93.8699 112.02C91.5399 112.85 89.0899 112.95 86.6399 112.82C83.2199 112.63 79.8299 112.01 76.5499 111.06C74.8599 110.57 73.8999 113.14 75.5999 113.63C83.4799 115.92 94.2299 117.48 100.83 111.22C103.13 109.04 104.29 106.11 104.82 103.03C105.69 97.9302 105.04 92.5502 104.26 87.4802C103.23 80.7502 102.07 73.8702 100.11 67.3402C99.5999 65.6602 96.8899 66.1302 97.3999 67.8302Z" fill="black"/>
<path d="M49.8499 87.2299C49.9199 87.2599 49.9999 87.2899 50.0699 87.3199C50.0899 87.3299 50.3199 87.4499 50.1399 87.3499C50.2699 87.4199 50.3899 87.4999 50.5099 87.5799C50.6299 87.6599 50.7399 87.7499 50.8499 87.8399C50.9999 87.9599 50.7599 87.7399 50.9099 87.8899C50.9599 87.9399 50.9999 87.9799 51.0499 88.0299C51.1499 88.1399 51.2399 88.2499 51.3299 88.3599C51.3799 88.4199 51.4199 88.4899 51.4699 88.5499C51.5899 88.6999 51.4099 88.4399 51.5199 88.6199C51.6699 88.8699 51.7999 89.1299 51.8999 89.3999C51.9199 89.4599 51.9499 89.5199 51.9699 89.5899C51.9899 89.6499 51.9899 89.6399 51.9599 89.5499C51.9699 89.5899 51.9799 89.6299 51.9899 89.6599C52.0299 89.7999 52.0599 89.9399 52.0899 90.0799C52.1199 90.2199 52.1299 90.3699 52.1499 90.5099C52.1499 90.5499 52.1599 90.5899 52.1599 90.6299C52.1599 90.5299 52.1599 90.5099 52.1599 90.5799C52.1599 90.6499 52.1599 90.7099 52.1599 90.7799C52.1599 91.0699 52.1299 91.3599 52.0699 91.6399C52.1099 91.4299 52.0599 91.6599 52.0499 91.6999C52.0299 91.7799 51.9999 91.8499 51.9799 91.9199C51.9299 92.0699 51.8599 92.2099 51.7899 92.3599C51.5799 92.7899 51.8899 93.3999 52.3299 93.5399C52.8399 93.6999 53.2799 93.4599 53.5099 92.9999C54.8499 90.2399 53.3199 86.6099 50.4999 85.4999C50.0499 85.3199 49.4699 85.5799 49.3199 86.0399C49.1599 86.5299 49.3699 87.0399 49.8499 87.2299Z" fill="black"/>
<path d="M88.26 91.4398C88.21 90.7998 87.93 90.1698 87.71 89.5698C87.47 88.9198 87.22 88.2698 86.96 87.6198C86.44 86.3198 85.88 85.0398 85.31 83.7598C84.93 82.9198 83.63 83.5298 84.01 84.3698C84.88 86.2998 85.71 88.2598 86.44 90.2498C86.6 90.6798 86.82 91.1498 86.84 91.6198C86.85 91.8898 86.77 92.3298 86.53 92.4998C86.31 92.6498 85.93 92.5998 85.7 92.5098C85.36 92.3798 85.21 92.0998 85.1 91.7798C84.97 91.4098 84.47 91.2898 84.14 91.4398C84.01 91.4998 83.92 91.5998 83.86 91.6998C83.72 91.8198 83.63 91.9798 83.6 92.1898C83.59 92.2498 83.58 92.3198 83.57 92.3798C83.57 92.4098 83.57 92.4098 83.56 92.4198C83.56 92.4298 83.56 92.4198 83.55 92.4398C83.52 92.5498 83.49 92.6498 83.45 92.7598C83.43 92.8098 83.41 92.8598 83.39 92.9098C83.38 92.9298 83.39 92.9198 83.38 92.9298C83.38 92.9298 83.38 92.9298 83.37 92.9398C83.31 93.0398 83.25 93.1198 83.18 93.2098C83.16 93.2298 83.15 93.2398 83.13 93.2598C83.09 93.2898 83.05 93.3198 83.01 93.3598C83.13 93.2598 83.03 93.3498 82.98 93.3698C82.94 93.3898 82.91 93.3998 82.87 93.4198C82.86 93.4198 82.75 93.4398 82.73 93.4498C82.72 93.4498 82.7 93.4498 82.69 93.4498C82.68 93.4498 82.69 93.4498 82.68 93.4498C82.61 93.4398 82.53 93.4398 82.46 93.4298C82.44 93.4298 82.44 93.4298 82.44 93.4298C82.43 93.4298 82.43 93.4198 82.41 93.4198C82.35 93.3998 82.29 93.3798 82.23 93.3598C82.2 93.3498 82.15 93.3198 82.14 93.3098C82.1 93.2798 82.06 93.2598 82.02 93.2298C82.01 93.2198 82 93.2198 82 93.2098C81.87 93.0498 81.73 92.9098 81.62 92.7398C81.6 92.7198 81.59 92.6898 81.57 92.6698C81.54 92.6298 81.51 92.5798 81.49 92.5298C81.43 92.4298 81.37 92.3198 81.31 92.2098C81.21 92.0298 81.12 91.8398 81.05 91.6498C80.91 91.2998 80.42 91.1298 80.09 91.3098C79.73 91.4998 79.6 91.8898 79.75 92.2698C79.97 92.8098 80.27 93.3198 80.61 93.7898C81.02 94.3498 81.59 94.7198 82.28 94.8498C83.05 94.9898 83.78 94.6898 84.29 94.1198C84.44 93.9498 84.55 93.7598 84.65 93.5598C85.18 93.9498 85.86 94.1198 86.55 94.0098C87.76 93.7998 88.35 92.5598 88.26 91.4398Z" fill="black"/>
<path d="M89.67 121.22C88.66 123.64 86.71 125.78 84.33 126.91C82.47 127.8 80.23 127.96 78.2 127.93C73.73 127.85 68.75 126.75 65.26 123.8C64.38 123.06 63.37 124.52 64.23 125.25C68.16 128.57 73.99 129.82 79.02 129.7C81.33 129.64 83.73 129.33 85.76 128.16C88.25 126.73 90.22 124.49 91.33 121.84C91.78 120.77 90.11 120.16 89.67 121.22Z" fill="#006B83"/>
<path d="M95.7399 81.9801C95.1399 82.2501 92.8499 81.8901 90.8199 82.1601C88.6899 82.4501 87.6799 82.9201 87.0899 82.8301C85.9999 82.6601 85.6299 81.3801 85.6499 80.6601C85.6799 79.8001 86.2299 78.1201 89.4299 77.3401C91.3799 76.8701 92.9699 77.1001 94.0699 77.4101C94.5799 77.5501 96.0099 78.3201 96.4599 79.6701C96.8799 80.9101 96.3399 81.7001 95.7399 81.9801Z" fill="white"/>
<path d="M89.9999 81.7099C92.2499 81.8999 92.5599 78.3999 90.2999 78.2099C88.0499 78.0099 87.7499 81.5099 89.9999 81.7099Z" fill="black"/>
<path d="M69.5799 82.8601C69.7099 81.4501 70.9299 80.3701 71.3899 80.1101C72.3899 79.5601 73.8799 78.9701 75.8899 78.9801C79.1799 79.0001 80.1099 80.5201 80.3299 81.3401C80.5199 82.0401 80.4399 83.3701 79.4299 83.7801C78.8799 84.0001 77.7899 83.7801 75.6399 83.9801C73.6099 84.1701 71.4599 85.0501 70.8099 84.9301C70.1599 84.8101 69.4599 84.1601 69.5799 82.8601Z" fill="white"/>
<path d="M74.1 83.7202C76.35 83.9102 76.66 80.4102 74.4 80.2202C72.15 80.0202 71.84 83.5202 74.1 83.7202Z" fill="black"/>
<path d="M57.2599 96.7099C57.2599 96.7099 50.5899 97.9999 47.3099 92.5999C44.0299 87.1999 45.3799 81.6699 49.9599 80.5399C54.5299 79.4099 54.8799 82.0999 56.4499 85.1799C57.1899 86.6399 58.5799 88.4299 59.7499 88.5099L57.2599 96.7099Z" fill="#F498A8"/>
<path d="M49.8499 87.2299C49.9199 87.2599 49.9999 87.2899 50.0699 87.3199C50.0899 87.3299 50.3199 87.4499 50.1399 87.3499C50.2699 87.4199 50.3899 87.4999 50.5099 87.5799C50.6299 87.6599 50.7399 87.7499 50.8499 87.8399C50.9999 87.9599 50.7599 87.7399 50.9099 87.8899C50.9599 87.9399 50.9999 87.9799 51.0499 88.0299C51.1499 88.1399 51.2399 88.2499 51.3299 88.3599C51.3799 88.4199 51.4199 88.4899 51.4699 88.5499C51.5899 88.6999 51.4099 88.4399 51.5199 88.6199C51.6699 88.8699 51.7999 89.1299 51.8999 89.3999C51.9199 89.4599 51.9499 89.5199 51.9699 89.5899C51.9899 89.6499 51.9899 89.6399 51.9599 89.5499C51.9699 89.5899 51.9799 89.6299 51.9899 89.6599C52.0299 89.7999 52.0599 89.9399 52.0899 90.0799C52.1199 90.2199 52.1299 90.3699 52.1499 90.5099C52.1499 90.5499 52.1599 90.5899 52.1599 90.6299C52.1599 90.5299 52.1599 90.5099 52.1599 90.5799C52.1599 90.6499 52.1599 90.7099 52.1599 90.7799C52.1599 91.0699 52.1299 91.3599 52.0699 91.6399C52.1199 91.4299 52.0599 91.6599 52.0499 91.6999C52.0299 91.7799 51.9999 91.8499 51.9799 91.9199C51.9299 92.0699 51.8599 92.2099 51.7899 92.3599C51.5799 92.7899 51.8899 93.3999 52.3299 93.5399C52.8399 93.6999 53.2799 93.4599 53.5099 92.9999C54.8499 90.2299 53.3199 86.6099 50.4999 85.4999C50.0499 85.3199 49.4699 85.5799 49.3199 86.0399C49.1599 86.5299 49.3699 87.0399 49.8499 87.2299Z" fill="black"/>
<path d="M70.1899 77.0702C70.1999 77.0602 70.4099 76.8002 70.2699 76.9602C70.1399 77.1202 70.3399 76.8902 70.3699 76.8602C70.4999 76.7302 70.6299 76.6102 70.7699 76.5002C70.8999 76.4002 71.0299 76.3002 71.1699 76.2002C71.2899 76.1102 71.3499 76.0802 71.1899 76.1802C71.2699 76.1302 71.3499 76.0802 71.4299 76.0402C71.7499 75.8602 72.0699 75.7002 72.4099 75.5702C72.5899 75.5002 72.7699 75.4302 72.9599 75.3702C72.7699 75.4302 72.8699 75.4002 72.9999 75.3602C73.0899 75.3302 73.1899 75.3102 73.2799 75.2802C73.6399 75.1902 74.0099 75.1202 74.3699 75.0702C74.5599 75.0502 74.7599 75.0302 74.9499 75.0102C75.1699 74.9902 74.5999 75.0102 74.9699 75.0102C75.0499 75.0102 75.1199 75.0102 75.1999 75.0102C75.5799 75.0102 75.9499 75.0402 76.3199 75.1002C76.3899 75.1102 76.4599 75.1302 76.5399 75.1402C76.8899 75.1902 76.3499 75.0802 76.5399 75.1402C76.7299 75.1902 76.9199 75.2402 77.0999 75.3002C77.7999 75.5402 78.6799 75.2102 78.9199 74.4602C79.1499 73.7502 78.8399 72.8902 78.0799 72.6402C74.5999 71.4702 70.1999 72.5602 67.8499 75.4302C67.3799 76.0002 67.5799 77.0102 68.1899 77.4102C68.8999 77.8502 69.6799 77.6802 70.1899 77.0702Z" fill="black"/>
<path d="M87.61 73.9602C87.76 73.8302 87.91 73.7102 88.07 73.6002C88.18 73.5102 88.17 73.5302 88.06 73.6002C88.14 73.5502 88.23 73.5002 88.31 73.4502C88.64 73.2602 88.99 73.1302 89.34 72.9902C89.08 73.1002 89.33 72.9902 89.39 72.9802C89.49 72.9502 89.58 72.9302 89.68 72.9002C89.88 72.8502 90.07 72.8102 90.27 72.7802C90.45 72.7502 90.63 72.7302 90.81 72.7202C90.95 72.7102 91.06 72.7102 90.86 72.7102C90.96 72.7102 91.06 72.7102 91.16 72.7102C91.54 72.7102 91.93 72.7502 92.3 72.8102C92.38 72.8202 92.46 72.8402 92.54 72.8502C92.23 72.8002 92.51 72.8402 92.58 72.8602C92.77 72.9102 92.96 72.9702 93.15 73.0402C93.32 73.1002 93.48 73.1702 93.64 73.2402C93.64 73.2402 93.96 73.4102 93.79 73.3102C93.62 73.2102 93.9 73.3802 93.93 73.4002C94.1 73.5002 94.26 73.6102 94.41 73.7302C94.47 73.7802 94.53 73.8302 94.59 73.8802C94.89 74.1202 94.39 73.6802 94.66 73.9502C95.19 74.4702 96.06 74.6702 96.66 74.1202C97.18 73.6402 97.39 72.6802 96.83 72.1202C93.94 69.2502 88.85 69.1202 85.78 71.8002C85.22 72.2902 85.08 73.2302 85.61 73.8002C86.12 74.3402 87.01 74.4802 87.61 73.9602Z" fill="black"/>
<path d="M38.1899 163.99C38.2099 163.97 38.2199 163.97 38.1899 163.99V163.99Z" fill="#006B83"/>
<path d="M39.59 161.58C39.6 161.52 39.6 161.46 39.59 161.58V161.58Z" fill="#006B83"/>
<path d="M48.29 156.16C47.97 155.84 47.35 155.79 47.03 156.16C45.36 158.1 42.94 159.31 40.41 159.43C39.93 159.45 39.52 159.82 39.52 160.32C39.52 160.48 39.58 160.63 39.66 160.77C39.64 160.84 39.61 160.91 39.62 161C39.62 161.18 39.62 161.35 39.6 161.53C39.6 161.57 39.59 161.61 39.59 161.65C39.59 161.62 39.59 161.61 39.59 161.6C39.59 161.61 39.59 161.61 39.59 161.62C39.57 161.71 39.56 161.79 39.54 161.88C39.5 162.05 39.45 162.22 39.39 162.39C39.38 162.43 39.36 162.46 39.35 162.5C39.34 162.53 39.28 162.69 39.33 162.56C39.38 162.44 39.33 162.56 39.32 162.59C39.3 162.63 39.28 162.68 39.26 162.72C39.18 162.87 39.1 163.01 39.01 163.15C38.96 163.22 38.91 163.3 38.86 163.37C38.84 163.39 38.82 163.42 38.8 163.44C38.69 163.57 38.57 163.7 38.44 163.82C38.38 163.88 38.31 163.94 38.24 163.99C38.21 164.01 38.18 164.04 38.15 164.06C38.18 164.03 38.2 164.01 38.21 164C38.19 164.02 38.16 164.04 38.14 164.06C37.76 164.33 37.54 164.85 37.82 165.28C38.06 165.65 38.63 165.89 39.04 165.6C40.49 164.57 41.4 162.91 41.41 161.12C44.06 160.76 46.55 159.46 48.31 157.42C48.61 157.05 48.65 156.51 48.29 156.16Z" fill="#006B83"/>
<path d="M103.17 138.14C105.97 142.9 107.38 148.33 107.26 153.85C107.24 155 109.01 154.99 109.04 153.85C109.17 148.03 107.66 142.26 104.7 137.24C104.12 136.26 102.58 137.15 103.17 138.14Z" fill="#006B83"/>
<path d="M81.58 151.89C88.32 151.87 89.74 150.91 89.69 148.47C89.64 146.03 86.14 146.23 78.96 145.73C72.01 145.24 70.1 145.7 69.99 145.72C70.04 145.58 70.7 143.54 69.99 140.34C69.24 137.03 63.61 136.79 63.93 140.23C64.25 143.67 61.88 145.96 59.34 148.03C56.81 150.1 53.71 153.17 51.9 155.65C50.61 157.41 42.79 162.38 38.34 165.12C36.51 166.25 35.26 167 35.26 167L36.23 165.3C35.87 165.22 35.47 165.1 35 164.87C31.87 163.3 33.51 159.4 33.51 159.4C33.51 159.4 31.77 162.76 28.54 161.14C25.31 159.52 27.05 156.79 27.05 156.79C27.05 156.79 25.05 158.8 22.2 157.29C20.09 156.17 20.83 153.44 20.83 153.44C20.83 153.44 19.2 154.2 17.48 153.87C12.73 163.32 5.14997 181.21 14.35 189.93C20.85 196.08 30.87 190.67 38.33 184.84C44.03 180.38 48.24 175.67 48.24 175.67L51.34 171.63C58.3 174.11 63.57 169.36 63.57 169.36C64.2 170.36 66.8 170.89 66.8 170.89C66.8 170.89 65.98 172.85 69.77 173.87C73.56 174.9 75.44 173.42 76.2 171.55C76.96 169.68 75.13 168.79 75.13 168.79C75.13 168.79 78.41 169.93 79.93 167.4C81.45 164.87 79.75 163.49 79.75 163.49C84.98 164.16 84.12 158.94 82.28 157.94C80.43 156.93 71.04 153.17 71.04 153.17L73.52 151.69C73.52 151.69 74.83 151.91 81.58 151.89Z" fill="#F5A0AC"/>
<path d="M63.83 151.01C64.83 150.18 65.83 149.35 66.83 148.52C67.29 148.14 67.74 147.72 68.23 147.38C68.71 147.05 69.26 146.89 69.82 146.74C70.69 146.5 70.32 145.15 69.45 145.38C68.84 145.54 68.21 145.73 67.67 146.07C67.08 146.44 66.56 146.93 66.03 147.37C64.97 148.25 63.9 149.13 62.84 150.01C62.55 150.25 62.59 150.75 62.84 151.01C63.13 151.3 63.54 151.25 63.83 151.01Z" fill="black"/>
<path d="M78.8199 162.7C76.3199 161.68 73.7999 160.7 71.2699 159.76C70.9099 159.63 70.4999 159.91 70.3999 160.25C70.2899 160.64 70.5299 160.98 70.8899 161.12C73.4199 162.05 75.9399 163.03 78.4399 164.06C78.7899 164.2 79.2099 163.9 79.3099 163.57C79.4199 163.16 79.1699 162.85 78.8199 162.7Z" fill="black"/>
<path d="M74.73 168.07C73.09 167.52 71.46 166.94 69.83 166.33C69.47 166.2 69.06 166.48 68.96 166.82C68.85 167.21 69.09 167.55 69.45 167.69C71.07 168.29 72.7 168.87 74.35 169.43C74.71 169.55 75.12 169.29 75.22 168.94C75.33 168.55 75.1 168.19 74.73 168.07Z" fill="black"/>
<path d="M69.66 171.01C67.31 170.79 65.01 169.85 63.19 168.34C62.9 168.1 62.48 168.05 62.19 168.34C61.94 168.59 61.9 169.09 62.19 169.34C64.32 171.11 66.9 172.17 69.65 172.42C70.03 172.45 70.35 172.07 70.35 171.72C70.37 171.3 70.04 171.04 69.66 171.01Z" fill="black"/>
<path d="M62.5499 168.97C59.5599 172.27 54.6299 172.67 51.1099 169.97C50.3899 169.42 49.6899 170.64 50.3999 171.19C54.3899 174.25 60.1799 173.69 63.5399 169.97C64.1499 169.3 63.1599 168.3 62.5499 168.97Z" fill="black"/>
<path d="M51.35 170.98C50.17 172.24 49.06 173.56 48.02 174.93C47.8 175.22 47.96 175.73 48.27 175.89C48.64 176.09 48.99 175.95 49.23 175.64C49.29 175.56 49.35 175.49 49.41 175.41C49.55 175.23 49.37 175.46 49.45 175.35C49.48 175.31 49.51 175.27 49.54 175.24C49.67 175.08 49.79 174.92 49.92 174.76C50.18 174.44 50.44 174.12 50.7 173.81C51.23 173.18 51.78 172.57 52.34 171.97C52.59 171.7 52.63 171.24 52.34 170.97C52.07 170.73 51.62 170.69 51.35 170.98Z" fill="black"/>
<path d="M128.5 147.41C128.5 147.41 128.35 147.16 127.95 146.9C126.49 147.64 124.88 147.49 124.88 147.49C124.88 147.49 127 148.94 123.77 150.35C121.41 151.38 119.94 149.04 119.94 149.04C119.94 149.04 121.45 152.16 118.43 153.57C115.34 155.01 113.09 152.36 113.09 152.36C113.09 152.36 114.54 158.14 110.11 158.54L117.63 173.51L109.74 173.2L82.5099 172.14L82.4999 172.02L82.3099 172.01C78.6899 170.44 75.2699 171.5 73.8199 172.1C70.7499 173.36 69.4199 175.77 69.4199 175.77C69.4199 175.77 70.0999 174.48 66.9399 173.76C63.4299 172.96 61.7099 173.62 60.8399 175.22C59.9699 176.82 61.5499 177.8 61.5499 177.8C61.5499 177.8 58.6599 176.47 57.0299 178.59C55.3999 180.71 56.8099 182.11 56.8099 182.11C52.0999 181.01 52.3699 185.77 53.9599 186.84C55.5499 187.92 63.7599 192.18 63.7599 192.18L61.3499 193.27C61.3499 193.27 60.1699 192.95 54.0099 192.33C48.7499 191.8 46.9699 192.25 46.4499 193.76C46.3599 194.02 46.2999 194.3 46.2699 194.62C46.0799 196.81 49.2899 196.97 55.7999 198.09C62.0999 199.19 63.8799 198.96 63.9899 198.95C63.9299 199.07 68.2599 197.47 70.7699 195.86C71.4899 195.4 72.9499 194.64 74.5799 193.7C77.4299 192.07 80.8299 189.88 81.8799 187.71C85.1699 187.39 98.5199 190.14 111.16 192.18C114.5 192.72 117.79 193.21 120.83 193.58C134.97 195.3 139.33 189.87 141.6 186.46C148.8 175.64 128.5 147.41 128.5 147.41Z" fill="#F5A0AC"/>
<path d="M57.25 182.72C58.44 182.93 59.63 183.15 60.78 183.51C61.63 183.78 62.68 184.14 63.19 184.93C63.57 185.52 63.63 186.35 62.97 186.71C62.15 187.16 60.92 186.99 60.11 186.63C59.76 186.48 59.35 186.53 59.15 186.88C58.97 187.18 59.05 187.69 59.4 187.84C61.08 188.59 64.27 188.79 64.8 186.45C65.02 185.47 64.7 184.47 64.03 183.73C63.35 182.98 62.38 182.56 61.44 182.24C60.2 181.82 58.91 181.59 57.62 181.36C57.25 181.29 56.86 181.46 56.75 181.85C56.66 182.19 56.87 182.65 57.25 182.72Z" fill="black"/>
<path d="M63.14 179.12C63.21 179.15 63.28 179.18 63.35 179.2C63.26 179.16 63.47 179.25 63.49 179.26C63.64 179.33 63.78 179.4 63.93 179.48C64.22 179.64 64.36 179.73 64.55 179.92C64.74 180.11 64.83 180.25 64.9 180.56C64.95 180.8 64.94 181.21 64.9 181.45C64.88 181.6 64.85 181.75 64.79 181.86C64.76 181.92 64.72 181.98 64.68 182.04C64.6 182.16 64.71 182.02 64.62 182.12C64.56 182.18 64.51 182.24 64.45 182.29C64.43 182.31 64.29 182.42 64.34 182.38C64.39 182.34 64.24 182.44 64.22 182.46C64.16 182.5 64.09 182.54 64.02 182.57C63.99 182.58 63.82 182.65 63.95 182.6C63.89 182.62 63.83 182.64 63.77 182.66C63.65 182.7 63.53 182.72 63.41 182.75C63.24 182.78 63.51 182.75 63.36 182.75C63.3 182.75 63.25 182.76 63.19 182.76C63.13 182.76 63.06 182.76 63 182.75C62.81 182.74 63.09 182.77 62.95 182.74C62.58 182.67 62.19 182.84 62.08 183.23C61.99 183.57 62.2 184.03 62.57 184.1C64.12 184.38 65.98 183.47 66.26 181.81C66.43 180.8 66.34 179.8 65.65 179.01C65.1 178.38 64.28 178.04 63.52 177.74C63.17 177.6 62.75 177.9 62.65 178.23C62.53 178.66 62.78 178.98 63.14 179.12Z" fill="black"/>
<path d="M71.3399 182.29C70.1499 183.23 69.0699 184.29 68.1499 185.49C67.2899 186.61 66.6199 187.94 66.9299 189.39C67.2299 190.78 68.4799 191.66 69.8799 191.58C71.3599 191.5 72.4899 190.58 73.4999 189.59C74.8199 188.3 76.1699 187.06 77.6099 185.9C77.9099 185.66 77.8599 185.16 77.6099 184.9C77.3199 184.6 76.9099 184.66 76.6099 184.9C75.2599 185.99 73.9599 187.15 72.7199 188.37C71.8299 189.25 70.5199 190.61 69.1199 190.07C67.6499 189.51 68.3599 187.61 68.9799 186.7C69.8799 185.39 71.0899 184.25 72.3299 183.27C72.6299 183.03 72.5699 182.52 72.3299 182.27C72.0399 181.99 71.6299 182.06 71.3399 182.29Z" fill="black"/>
<path d="M67.8499 175.47C68.0699 175.62 68.2499 175.81 68.4099 176.07C68.5099 176.25 68.5299 176.3 68.5799 176.44C68.6099 176.52 68.6299 176.61 68.6499 176.69C68.6599 176.73 68.6699 176.76 68.6699 176.8C68.6599 176.74 68.6599 176.75 68.6699 176.83C68.6699 176.9 68.6799 176.98 68.6799 177.05C68.6799 177.08 68.6499 177.35 68.6699 177.23C68.6399 177.4 68.5999 177.56 68.5299 177.72C68.5699 177.62 68.4899 177.81 68.4799 177.82C68.4399 177.89 68.3999 177.97 68.3499 178.04C68.2899 178.13 68.2299 178.22 68.0899 178.35C68.0299 178.41 67.9699 178.47 67.8999 178.52C67.9899 178.45 67.8299 178.57 67.8099 178.58C67.7299 178.63 67.6399 178.68 67.5599 178.72C67.3699 178.82 67.6199 178.71 67.4899 178.75C67.3799 178.79 67.2599 178.81 67.1399 178.83C67.3199 178.8 67.0999 178.83 67.0599 178.83C66.9799 178.83 66.9099 178.84 66.8299 178.84C66.4399 178.84 66.2299 178.81 65.8699 178.73C65.4799 178.64 65.0899 178.51 64.7199 178.34C64.3799 178.18 63.9599 178.24 63.7599 178.59C63.5799 178.9 63.6699 179.39 64.0099 179.55C65.2799 180.15 66.8999 180.58 68.2399 179.95C69.5999 179.32 70.3199 177.72 69.9899 176.28C69.7999 175.44 69.2699 174.72 68.5599 174.24C68.2399 174.03 67.7799 174.18 67.5999 174.49C67.3999 174.85 67.5299 175.26 67.8499 175.47Z" fill="black"/>
<path d="M79.87 176.7C77.87 176.81 75.78 177.18 74.08 178.33C72.53 179.37 71.44 180.92 71.2 182.79C71.15 183.17 71.56 183.49 71.9 183.49C72.32 183.49 72.55 183.16 72.6 182.79C72.79 181.38 73.81 180.15 74.99 179.42C76.44 178.51 78.18 178.21 79.87 178.12C80.77 178.06 80.78 176.65 79.87 176.7Z" fill="black"/>
<path d="M85.74 99.6099C85.76 99.5999 85.05 105.21 80.3 105.74C75.55 106.27 72.05 101.21 72.13 96.1799C72.13 96.1799 72.74 94.6799 74.19 96.4299C75.64 98.1899 80.56 101.61 85.74 99.6099Z" fill="black"/>
<path d="M74.96 96.2798C74.99 99.1198 77.85 102.02 80.64 102.3C82.58 102.5 83.53 100.94 83.98 99.6198C80 100.1 76.46 97.8198 74.96 96.2798Z" fill="white"/>
<path d="M72.75 100.02C73.75 102.88 75.86 105.19 78.55 105.68C78.47 104.61 77.84 102.94 76.37 101.5C75.17 100.33 73.84 99.9098 72.75 100.02Z" fill="#EC145A"/>
<path d="M86.7999 98.5298C84.65 99.5998 82.2099 99.6598 79.9299 98.9598C78.7899 98.6098 77.6999 98.0998 76.6699 97.4998C75.7199 96.9398 74.7099 96.3298 74.1299 95.3598C74.1699 95.2998 74.2199 95.2398 74.2599 95.1798C74.5799 94.6998 74.8199 94.1798 74.9699 93.6298C75.0499 93.3298 74.9499 92.9698 74.6199 92.8698C74.3399 92.7798 73.9499 92.8999 73.8599 93.2199C73.8099 93.3999 73.7499 93.5798 73.6799 93.7598C73.6499 93.8498 73.6099 93.9398 73.5699 94.0198C73.5499 94.0698 73.5299 94.1098 73.4999 94.1598C73.4999 94.1698 73.4899 94.1798 73.4799 94.1898C73.3899 94.3498 73.2899 94.5098 73.1799 94.6698C73.1299 94.7498 73.0699 94.8198 73.0099 94.8898C72.9799 94.9298 72.9499 94.9598 72.9199 94.9998C72.9099 95.0098 72.8899 95.0398 72.8699 95.0498C72.7399 95.1798 72.5999 95.3098 72.4499 95.4198C72.4299 95.4298 72.3299 95.4898 72.4199 95.4498C72.3799 95.4698 72.3399 95.4998 72.2999 95.5198C72.2599 95.5398 72.2199 95.5599 72.1799 95.5799C72.1699 95.5899 72.1599 95.5898 72.1599 95.5898C72.1599 95.5898 72.1599 95.5898 72.1499 95.5898C72.1099 95.5998 72.0599 95.6098 72.0199 95.6198C71.9999 95.6198 71.9899 95.6198 71.9699 95.6298C71.9599 95.6298 71.9599 95.6298 71.9599 95.6298C71.9099 95.6298 71.8499 95.6298 71.7999 95.6198C71.7899 95.6198 71.7099 95.5998 71.6899 95.5998C71.6599 95.5898 71.5899 95.5698 71.5799 95.5698C71.5299 95.5498 71.4799 95.5398 71.4299 95.5198C71.3899 95.4998 71.3399 95.4899 71.2999 95.4699C71.0999 95.2898 70.8599 95.2099 70.5999 95.3299C70.3399 95.4399 70.2099 95.7498 70.2599 96.0198C70.3499 96.4398 70.8099 96.5798 71.1699 96.6898C71.5199 96.7998 71.8699 96.8498 72.2399 96.7998C72.5699 96.7498 72.8599 96.5998 73.1299 96.4198C73.1999 96.3798 73.2599 96.3198 73.3199 96.2798C73.9299 97.1398 74.7599 97.7698 75.6699 98.3198C76.8799 99.0598 78.1699 99.6998 79.5299 100.11C82.0999 100.9 84.8799 100.85 87.3099 99.6298C87.9899 99.2599 87.4799 98.1898 86.7999 98.5298Z" fill="black"/>
<path d="M73.51 106.17C74.78 107.21 76.28 107.9 77.88 108.24C78.2 108.31 78.52 107.98 78.54 107.68C78.57 107.32 78.31 107.08 77.98 107.02C77.35 106.89 76.61 106.63 75.99 106.33C75.38 106.04 74.76 105.63 74.22 105.18C73.96 104.97 73.55 105.07 73.36 105.33C73.16 105.6 73.25 105.95 73.51 106.17Z" fill="black"/>
<path fill-rule="evenodd" clip-rule="evenodd" d="M130.99 89.0598C130.99 89.0598 126.41 79.5298 129.89 68.5898C130.11 67.7298 130.35 66.8598 130.63 65.9598C137.47 44.5798 172.38 37.8698 185.73 62.3398C199.08 86.7798 171.52 117.35 143.13 102.56C141.71 101.82 139.91 100.61 138.08 98.9298C135.34 100.15 130.83 101.08 125.81 97.7998C124.75 97.0998 124.82 95.5198 125.95 94.9398C128.72 93.5098 130.99 89.0598 130.99 89.0598Z" fill="white"/>
<path d="M36.35 151.94C32.35 156.4 29.93 162.38 30.48 168.43C30.99 174.04 33.93 179.24 38.62 182.4C39.7 183.13 40.72 181.38 39.64 180.65C35.48 177.84 32.83 173.04 32.47 168.05C32.09 162.66 34.2 157.36 37.77 153.38C38.65 152.41 37.22 150.97 36.35 151.94Z" fill="white"/>
<path d="M40.27 177.771C40.95 179.371 41.53 181.011 41.99 182.691C42.01 182.781 42.04 182.871 42.01 182.951C41.98 183.041 36.26 183.141 36.24 183.071C36.24 183.081 39.22 179.181 40.27 177.771Z" fill="white"/>
<path d="M38.84 178.61C38.98 178.94 38.71 178.31 38.84 178.61C38.88 178.71 38.92 178.81 38.96 178.91C39.04 179.11 39.12 179.31 39.2 179.52C39.36 179.93 39.51 180.33 39.65 180.74C39.93 181.55 40.21 182.38 40.41 183.21C40.39 183.06 40.37 182.92 40.35 182.77C40.35 182.8 40.36 182.83 40.36 182.86C40.38 182.71 40.4 182.57 40.42 182.42C40.42 182.45 40.41 182.48 40.41 182.51C40.55 182.27 40.7 182.02 40.84 181.78C41.35 181.14 41.85 181.32 41.51 181.37C41.66 181.35 41.8 181.33 41.95 181.31C41.27 181.4 40.56 181.38 39.87 181.4C38.93 181.42 37.99 181.44 37.05 181.44C36.79 181.44 36.52 181.46 36.26 181.42C36.41 181.44 36.55 181.46 36.7 181.48C36.41 181.43 36.65 181.1 37.41 181.9C37.5 182.57 37.58 183.24 37.67 183.92C39.02 182.15 40.37 180.39 41.7 178.61C41.94 178.29 41.97 177.7 41.87 177.33C41.76 176.94 41.47 176.53 41.11 176.34C40.72 176.14 40.26 176.03 39.83 176.17C39.39 176.31 39.11 176.57 38.84 176.93C37.51 178.71 36.15 180.47 34.81 182.24C34.59 182.52 34.57 182.97 34.61 183.3C34.66 183.67 34.81 183.98 35.07 184.26C35.62 184.84 36.46 184.77 37.19 184.77C37.93 184.77 38.68 184.76 39.42 184.74C40.1 184.73 40.78 184.71 41.46 184.68C41.76 184.67 42.11 184.66 42.4 184.59C42.69 184.52 42.99 184.38 43.2 184.15C43.77 183.53 43.76 182.77 43.54 182C43.05 180.27 42.43 178.6 41.72 176.94C41.57 176.58 41.08 176.27 40.73 176.18C40.33 176.07 39.8 176.12 39.45 176.35C39.09 176.58 38.78 176.92 38.69 177.34C38.56 177.8 38.65 178.18 38.84 178.61Z" fill="white"/>
<path d="M98.1899 151.94C101.76 155.93 103.88 161.22 103.49 166.61C103.14 171.61 100.49 176.41 96.3199 179.21C95.2499 179.93 96.2599 181.69 97.3399 180.96C102.03 177.8 104.95 172.6 105.48 166.99C106.04 160.95 103.61 154.96 99.6099 150.5C98.7499 149.54 97.3199 150.98 98.1899 151.94Z" fill="white"/>
<path d="M96.85 154.15C96.54 152.44 96.34 150.71 96.25 148.97C96.25 148.88 96.24 148.78 96.29 148.71C96.34 148.63 101.94 149.79 101.95 149.86C101.96 149.87 98.19 153.02 96.85 154.15Z" fill="white"/>
<path d="M98.4599 153.71C98.3499 153.09 98.25 152.47 98.16 151.85C98.18 152 98.1999 152.14 98.2199 152.29C98.1399 151.7 98.0799 151.11 98.0199 150.53C97.9699 149.98 97.8599 149.35 97.9199 148.8C97.8999 148.95 97.8799 149.09 97.8599 149.24C97.8699 149.21 97.8799 149.19 97.8899 149.16C97.7499 149.4 97.5999 149.65 97.4599 149.89C97.2199 150.03 96.97 150.18 96.73 150.32H96.7399C96.5899 150.34 96.45 150.36 96.3 150.38C96.35 150.38 96.39 150.39 96.44 150.39C96.29 150.37 96.1499 150.35 95.9999 150.33C97.6199 150.55 99.2399 150.94 100.84 151.3C100.99 151.33 101.14 151.37 101.29 151.41C101.34 151.42 101.38 151.44 101.43 151.45C101.45 151.45 101.46 151.46 101.48 151.47C101.17 151.42 100.68 150.99 100.52 150.72C100.61 150.05 100.69 149.38 100.78 148.7C99.4699 149.79 98.1699 150.89 96.8599 151.98C96.4599 152.31 96.0699 152.65 95.6699 152.98C94.9999 153.55 95.0399 154.76 95.6699 155.33C96.3799 155.98 97.3099 155.93 98.0199 155.33C99.5499 154.03 101.09 152.74 102.63 151.46C102.79 151.32 102.96 151.18 103.12 151.05C103.68 150.58 103.73 149.63 103.38 149.03C102.96 148.32 102.2 148.2 101.47 148.04C100.75 147.88 100.04 147.73 99.3199 147.58C98.6599 147.44 97.9899 147.31 97.3299 147.19C97.0199 147.13 96.68 147.06 96.37 147.05C96.19 147.04 96.0699 147.05 95.8499 147.11C94.9599 147.36 94.5499 148.23 94.5899 149.09C94.6699 150.94 94.9099 152.78 95.2399 154.6C95.3099 154.99 95.6699 155.4 95.9999 155.59C96.3599 155.8 96.8799 155.89 97.2799 155.76C98.2099 155.46 98.6199 154.63 98.4599 153.71Z" fill="white"/>
<path fill-rule="evenodd" clip-rule="evenodd" d="M175.03 82.0403H143.88C143.21 82.0403 142.66 81.4903 142.66 80.8203V75.7303C142.66 75.0603 143.21 74.5103 143.88 74.5103H175.03C175.7 74.5103 176.25 75.0603 176.25 75.7303V80.8203C176.25 81.4903 175.7 82.0403 175.03 82.0403Z" fill="black"/>
<path fill-rule="evenodd" clip-rule="evenodd" d="M172.31 90.6703H146.59C144.98 90.6703 143.68 89.3603 143.68 87.7603V73.6903C143.68 72.0803 144.99 70.7803 146.59 70.7803H172.31C173.92 70.7803 175.22 72.0903 175.22 73.6903V87.7603C175.23 89.3703 173.92 90.6703 172.31 90.6703Z" fill="black"/>
<path d="M153.63 87.0604C156.844 87.0604 159.45 84.4547 159.45 81.2404C159.45 78.0261 156.844 75.4204 153.63 75.4204C150.416 75.4204 147.81 78.0261 147.81 81.2404C147.81 84.4547 150.416 87.0604 153.63 87.0604Z" stroke="white" stroke-width="0.7159" stroke-miterlimit="10"/>
<path d="M163.41 77H171.59" stroke="white" stroke-width="0.7159" stroke-miterlimit="10"/>
<path d="M163.41 80.4004H171.59" stroke="white" stroke-width="0.7159" stroke-miterlimit="10"/>
<path d="M163.41 84.2803H171.59" stroke="white" stroke-width="0.683" stroke-miterlimit="10"/>
<path d="M147.7 72.2602L165.66 59.7202" stroke="black" stroke-miterlimit="10"/>
</g>
<defs>
<clipPath id="clip0_259_1306">
<rect width="200" height="200" fill="white"/>
</clipPath>
</defs>
</svg>
