<svg width="183" height="142" viewBox="0 0 183 142" fill="none" xmlns="http://www.w3.org/2000/svg">
<g clip-path="url(#clip0_259_1196)">
<path d="M157 84.9598C152.66 83.5398 139.57 76.5798 129.17 73.8298C123.77 72.4098 117.61 74.3698 116.91 74.0598L91.74 78.8698C89.55 79.1298 82.54 80.0198 79.1 81.2498C74.74 82.8098 65.6 87.3598 62.12 95.6598C57.29 107.18 64.62 142.39 64.62 142.39L182.65 142.21C182.65 142.22 172.87 90.1398 157 84.9598Z" fill="#008DB2"/>
<path d="M91.4799 118.83C93.0899 124 94.5899 129.21 96.1999 134.38C96.4799 135.28 97.8899 134.89 97.6099 133.99C95.9999 128.82 94.4999 123.61 92.8899 118.44C92.6099 117.55 91.1999 117.93 91.4799 118.83Z" fill="black"/>
<path d="M156.49 120.76C157.24 124.92 157.82 129.12 158.15 133.33C158.22 134.26 159.68 134.27 159.61 133.33C159.28 128.99 158.68 124.65 157.9 120.37C157.73 119.44 156.32 119.83 156.49 120.76Z" fill="black"/>
<path d="M92.17 89.6797C92.17 89.6797 78.86 75.9497 76.98 75.3697C75.25 74.8297 73.29 77.0097 74.93 79.4097C76.29 81.3897 81.68 88.4997 81.87 88.5697C82.07 88.6297 92.17 89.6797 92.17 89.6797Z" fill="#F6A6AC"/>
<path d="M125.04 142.39C125.04 142.39 103.47 117.58 101.1 115.9C98.96 114.39 91.56 114.62 89.52 112.13C87.48 109.64 79.88 98.9798 80.35 94.0998C80.82 89.2198 86.96 95.1298 88.66 97.0898C90.36 99.0498 102.57 106.67 103.27 106.69C103.97 106.71 155.95 142.25 155.95 142.25L125.04 142.39Z" fill="#F6A6AC"/>
<path d="M145.68 136.8L107.71 105.23C107.71 105.23 96.89 92.1396 95.86 91.3296C94.83 90.5196 85.26 85.7096 83.95 85.4196C82.65 85.1296 72.79 85.2396 70.38 86.1396C69.69 86.3996 69.31 89.6497 72.45 90.1197C75.59 90.5897 83.18 90.3796 83.18 90.3796C83.18 90.3796 72.34 94.8396 71.39 95.9896C70.45 97.1496 72.47 100.07 75.78 98.7096C79.09 97.3496 84.76 95.5196 86.18 96.4696C86.18 96.4696 83.15 97.3097 81.96 97.9397C80.77 98.5697 78.21 101.65 78.15 103.87C78.1 106.09 80.98 106.03 83.14 103.46C85.3 100.89 90.53 101.15 90.53 101.15C90.53 101.15 92.57 105.21 96.51 108.62C100.11 111.74 106.29 110.16 106.29 110.16L118.49 135.99L145.68 136.8Z" fill="#F6A6AC"/>
<path d="M77.1201 92.8799C78.6401 92.2399 80.2101 91.7599 81.7301 91.1299C82.1901 90.9399 82.6301 90.7899 83.1301 90.7899C83.6201 90.7899 84.1101 90.86 84.6001 90.87C85.3501 90.89 86.0401 90.9399 86.7701 91.1099C87.7801 91.3299 88.2101 89.7799 87.2001 89.5599C86.3901 89.3799 85.6001 89.2899 84.7801 89.2699C83.6801 89.2399 82.6401 89.0699 81.5801 89.4699C79.9501 90.0899 78.2901 90.6499 76.6901 91.3299C76.2901 91.4999 76.0001 91.8599 76.1301 92.3199C76.2301 92.6999 76.7201 93.0499 77.1201 92.8799Z" fill="black"/>
<path d="M87.3 94.7698C84.41 95.7098 81.38 96.7398 79.26 99.0398C77.6 100.85 75.68 103.82 77.66 106.1C78.49 107.06 79.76 107.28 80.92 106.83C82.44 106.25 83.29 104.78 84.6 103.9C85.96 102.99 87.57 102.55 89.15 102.22C89.51 102.15 89.87 102.08 90.24 102.01C90.69 101.93 90.8 101.84 91.07 102.13C91.32 102.4 91.48 103.04 91.66 103.39C91.87 103.8 92.1 104.2 92.34 104.6C94.04 107.35 96.94 110.52 100.52 109.26C101.49 108.92 101.07 107.37 100.09 107.71C98.14 108.4 96.44 107.24 95.19 105.81C93.93 104.36 93.29 102.71 92.34 101.09C91.62 99.8698 90.21 100.38 89.08 100.61C87.47 100.93 85.85 101.35 84.4 102.15C83.71 102.53 83.08 103 82.51 103.55C81.92 104.11 81.41 104.79 80.69 105.18C79.78 105.68 78.89 105.46 78.54 104.46C78.22 103.56 78.63 102.63 79.1 101.86C81.04 98.6798 84.34 97.4098 87.72 96.3198C88.7 95.9998 88.28 94.4498 87.3 94.7698Z" fill="black"/>
<path d="M90.88 94.29C89.06 94.43 87.24 94.56 85.42 94.7C84.88 94.74 84.32 94.72 83.82 94.94C83.57 95.05 83.33 95.16 83.08 95.26C81.77 95.83 80.47 96.4 79.16 96.98C78.76 97.16 78.67 97.73 78.87 98.08C79.1 98.49 79.57 98.54 79.97 98.37C81.23 97.82 82.5 97.26 83.76 96.71C84.02 96.59 84.29 96.48 84.55 96.36C84.6 96.34 84.66 96.3 84.72 96.29C84.3 96.41 84.66 96.35 84.76 96.36C84.97 96.38 85.21 96.33 85.42 96.31C87.24 96.17 89.06 96.04 90.88 95.9C91.91 95.82 91.92 94.21 90.88 94.29Z" fill="black"/>
<path d="M94.18 107.09L84.67 103.37C84.67 103.37 90.23 99.6997 91.77 101.72C93.31 103.74 94.18 107.09 94.18 107.09Z" fill="black"/>
<path d="M148.03 99.9997C148.03 99.9997 148.31 80.1297 148.96 79.6997C152.7 77.2097 153.16 87.0497 153.16 87.0497L148.03 99.9997Z" fill="#F6A6AC"/>
<path d="M100.03 142.39L146.36 104.4C146.36 104.4 153.67 79.6098 154.85 77.7998C156.03 75.9898 161.71 70.7098 163.24 69.9698C164.69 69.2698 167.31 71.3798 164.8 74.1098C161.66 77.5298 159.78 79.4898 159.78 79.4898L159.29 81.9198C159.29 81.9198 164.36 77.9398 165.87 76.6598C167.38 75.3898 171.18 73.4698 172.23 73.4098C173.28 73.3498 174.29 74.6798 173.82 76.3298C173.82 76.3298 174.79 75.7398 175.31 76.1898C175.82 76.6398 177.59 79.2098 175.54 80.9998C173.49 82.7898 170.42 83.5798 170.42 83.5798L169.07 85.2898C169.07 85.2898 173.15 82.4198 174.62 83.0698C176.09 83.7198 176.49 85.0398 175.41 86.5798C174.33 88.1198 168.65 91.8298 167.59 92.5898C166.52 93.3498 165.46 97.8598 164.3 102.29C163.15 106.71 159.66 110.21 155.44 111.33L132.84 142.38H100.03V142.39Z" fill="#F6A6AC"/>
<path d="M159.62 80.1597C158.66 81.0097 157.76 81.8997 156.89 82.8397C156.65 83.0997 156.61 83.5497 156.89 83.8097C157.16 84.0497 157.6 84.0897 157.86 83.8097C158.73 82.8697 159.63 81.9797 160.59 81.1297C160.86 80.8897 160.85 80.3997 160.59 80.1597C160.3 79.8897 159.91 79.8997 159.62 80.1597Z" fill="black"/>
<path d="M163.42 82.66C162.85 83.24 162.23 83.78 161.64 84.34C161.14 84.8 160.7 85.32 160.34 85.9C160.15 86.21 160.26 86.67 160.59 86.84C160.93 87.02 161.33 86.92 161.53 86.59C161.62 86.45 161.71 86.31 161.81 86.17C161.83 86.14 161.86 86.11 161.88 86.08C161.76 86.25 161.83 86.15 161.86 86.11C161.91 86.05 161.96 85.99 162.01 85.93C162.21 85.7 162.43 85.49 162.65 85.29C163.24 84.74 163.84 84.21 164.41 83.64C164.66 83.38 164.69 82.92 164.41 82.67C164.12 82.42 163.69 82.39 163.42 82.66Z" fill="black"/>
<path d="M165.74 89.1496C166.95 88.0296 168.2 86.9696 169.56 86.0296C170.54 85.3496 171.53 84.6996 172.53 84.0496C173.13 83.6596 173.76 83.3696 174.37 82.9996C175.85 82.0896 177.39 80.6296 177.32 78.7496C177.22 76.3496 174.36 75.2996 172.43 76.3596C170.13 77.6196 167.93 79.0796 165.68 80.4196C164.92 80.8696 165.61 82.0596 166.37 81.6096C168.14 80.5596 169.9 79.4796 171.67 78.4196C172.49 77.9296 173.37 77.1696 174.38 77.2996C175.25 77.4096 176 78.1096 175.93 79.0196C175.82 80.4496 174.35 81.4596 173.21 82.0896C171.66 82.9296 170.2 83.9196 168.75 84.9296C167.33 85.9196 166.03 87.0196 164.76 88.1896C164.12 88.7796 165.1 89.7496 165.74 89.1496Z" fill="black"/>
<path d="M159.67 108.53C157.74 110 155.36 110.69 152.95 110.49C152.58 110.46 152.26 110.83 152.26 111.18C152.26 111.58 152.58 111.84 152.95 111.87C155.57 112.09 158.27 111.32 160.37 109.73C160.66 109.51 160.82 109.14 160.62 108.79C160.44 108.49 159.96 108.3 159.67 108.53Z" fill="black"/>
<path d="M173.85 83.2399C173.96 83.2599 174.06 83.2799 174.17 83.3099C174.22 83.3199 174.27 83.3399 174.32 83.3599C174.36 83.3699 174.45 83.4099 174.37 83.3699C174.47 83.4099 174.56 83.4599 174.66 83.5199C174.72 83.5499 174.77 83.5899 174.82 83.6299C174.86 83.6599 174.89 83.6899 174.84 83.6399C174.92 83.7099 175 83.7799 175.08 83.8599C175.12 83.9099 175.17 83.9499 175.21 83.9999C175.24 84.0399 175.26 84.0699 175.22 84.0099C175.28 84.0999 175.34 84.1899 175.39 84.2799C175.42 84.3399 175.45 84.3899 175.48 84.4499C175.44 84.3599 175.48 84.4499 175.49 84.4999C175.53 84.5999 175.55 84.7099 175.57 84.8199C175.58 84.8499 175.59 84.9899 175.58 84.8699C175.59 84.9199 175.59 84.9799 175.59 85.0299C175.59 85.1399 175.59 85.2499 175.58 85.3599C175.57 85.4799 175.61 85.1999 175.58 85.4099C175.57 85.4599 175.56 85.5199 175.55 85.5699C175.52 85.6799 175.49 85.7799 175.46 85.8899C175.44 85.9599 175.49 85.8299 175.44 85.9399C175.42 85.9899 175.39 86.0399 175.37 86.0899C175.32 86.1899 175.26 86.2799 175.19 86.3699C175.15 86.4299 175.24 86.3299 175.15 86.4099C175.1 86.4599 175.06 86.5099 175.01 86.5499C174.75 86.8099 174.75 87.2599 175.01 87.5199C175.27 87.7799 175.72 87.7799 175.98 87.5199C176.84 86.6599 177.21 85.3099 176.81 84.1399C176.42 83.0099 175.42 82.0999 174.22 81.9199C173.87 81.8699 173.46 82.0099 173.37 82.3999C173.29 82.7199 173.47 83.1799 173.85 83.2399Z" fill="black"/>
<path d="M135.99 112.16C128.22 119 119.9 125.17 112.13 132.02C111.5 132.58 112.43 133.5 113.06 132.95C120.83 126.11 129.15 119.94 136.92 113.09C137.54 112.53 136.62 111.6 135.99 112.16Z" fill="black"/>
<path d="M154.57 111.41C151.93 114.62 149.56 118.08 147.12 121.44C143.88 125.9 140.66 130.39 137.42 134.85C136.54 136.07 135.44 137.62 134.64 138.65C134.13 139.3 135.05 140.24 135.57 139.58C137.86 136.67 139.95 133.6 142.11 130.6C145.41 126.03 148.7 121.45 152.05 116.92C153.18 115.38 154.29 113.82 155.51 112.35C156.03 111.69 155.11 110.76 154.57 111.41Z" fill="black"/>
<path d="M151.6 82.4597C151 84.6597 150.11 86.7597 149.58 88.9797C149.37 89.8397 150.7 90.2097 150.91 89.3497C151.44 87.1297 152.33 85.0297 152.93 82.8297C153.15 81.9697 151.83 81.5997 151.6 82.4597Z" fill="black"/>
<path d="M91.73 88.1396C87.73 86.6196 83.51 85.3696 79.3 84.5996C78.29 84.4096 77.86 85.9596 78.87 86.1496C83.08 86.9296 87.3 88.1696 91.3 89.6896C92.27 90.0596 92.69 88.4996 91.73 88.1396Z" fill="black"/>
<path d="M92.97 33.9999L87.77 31.9399C86.54 34.0899 78.98 50.0799 77.74 53.8599C73.75 66.0099 71.65 71.2899 73.56 78.2399C77.4 92.1899 97.83 88.3799 98.01 76.8599C98.01 76.8699 84.83 58.7599 92.97 33.9999Z" fill="black"/>
<path d="M87.8 38.2399C87.8 38.2399 84.51 30.5599 92.09 19.7799C99.67 9.00993 116.74 -2.30007 137.04 11.0299C155.43 23.1099 168.9 60.5299 166.99 78.0899C165.13 95.1899 136.65 99.7799 130.08 81.9399C127.52 74.9799 131.83 58.9199 131.83 58.9199L87.8 38.2399Z" fill="black"/>
<path d="M126.43 14.8899C122.59 12.1299 118.68 10.4299 114.91 9.58991C115.08 9.40991 115.26 9.20991 115.42 9.00991C117.74 6.14991 117.44 2.40991 117.2 0.889908C117.14 0.509908 116.77 0.269908 116.41 0.369908C115.2 0.719908 112.58 1.65991 110.8 3.74991C109.73 5.00991 109.03 6.18991 108.59 7.25991C108.23 6.43991 107.73 5.58991 107.06 4.76991C104.86 2.07991 101.53 1.55991 99.89 1.47991C99.35 1.44991 98.92 1.92991 98.98 2.48991C99.15 3.87991 99.67 6.44991 101.24 8.46991C101.66 9.00991 102.08 9.47991 102.49 9.88991C99.96 10.6399 97.73 11.8099 95.91 13.2799C84.88 22.2199 87.25 32.4899 87.25 32.4899C87.25 32.4899 92.67 9.33991 112.82 17.6399C132.97 25.9299 133.55 44.3899 133.55 44.3899C133.55 44.3899 134.41 42.3599 136.25 42.2599C138.57 42.1299 140.03 42.8999 140.03 42.8999C140.03 42.8999 139.61 24.3799 126.43 14.8899Z" fill="#00A94F"/>
<path d="M116.71 -0.000241673C115.53 0.0997583 114.41 0.509758 113.35 1.04976C112.33 1.56976 111.31 2.23976 110.52 3.08976C109.74 3.92976 109.09 4.94976 108.7 6.03976C108.32 7.07976 108.21 8.20976 108.18 9.31976C106.66 10.1498 105.37 11.8198 105.77 13.5998C105.95 14.4098 107.18 14.0998 106.99 13.2798C106.82 12.5298 107.26 11.7898 107.74 11.2698C108.24 10.7298 108.86 10.3298 109.57 10.1498C110.8 9.83976 112.32 10.3998 112.81 11.6898C112.93 12.0198 113.22 12.2498 113.58 12.1598C113.88 12.0798 114.16 11.6998 114.03 11.3698C113.32 9.47976 111.36 8.46976 109.46 8.84976C109.51 8.07976 109.61 7.31976 109.85 6.58976C110.16 5.63976 110.73 4.74976 111.4 4.02976C112.08 3.29976 112.92 2.73976 113.79 2.27976C114.68 1.79976 115.67 1.37976 116.69 1.29976C117.03 1.26976 117.32 1.03976 117.33 0.669758C117.35 0.339758 117.05 -0.0302417 116.71 -0.000241673Z" fill="#008043"/>
<path d="M118.64 20.6096C118.64 20.6096 122.07 22.7996 124.26 25.0196C124.96 25.7296 126.08 26.9196 127.01 28.0796C127.66 28.8796 128.3 29.8496 128.3 29.8496C128.3 29.8496 129.75 25.2696 126.96 22.2396C123.25 18.2096 118.64 20.6096 118.64 20.6096Z" fill="#97CA51"/>
<path d="M126.66 16.6998C126.11 17.6498 124.86 17.9198 123.87 17.3198C122.88 16.7098 122.51 15.4498 123.06 14.4998C123.36 13.9798 123.88 13.6698 124.44 13.5898C124.44 13.5898 125.28 14.0998 125.72 14.3998C126.35 14.8398 126.85 15.2098 126.85 15.2098C126.97 15.6798 126.92 16.2498 126.66 16.6998Z" fill="#E24497"/>
<path d="M103.08 2.98988L101.43 4.77988L102.64 5.67988L104.31 3.97988L104.66 6.92988L105.99 6.75988L105.78 4.53988L107.53 6.34988L107.95 6.05988C107.95 6.05988 106.92 4.24988 105.35 3.21988C104.88 2.90988 104.14 2.45988 103.27 2.15988C102.3 1.81988 101.22 1.62988 101.22 1.62988L101.04 2.49988L103.08 2.98988Z" fill="#97CA51"/>
<path d="M138.3 34.3597L136.19 35.1197L136.52 36.4397L138.46 35.5897L137.77 37.7597L138.76 38.0997L139.13 36.2097C139.13 36.2097 139.04 35.6297 138.83 34.7297C138.61 33.8197 138.43 33.3597 138.43 33.3597L137.11 32.1797L136.68 33.2097L138.3 34.3597Z" fill="#FAAE17"/>
<path d="M102.866 13.4053C102.937 12.7131 102.397 12.0909 101.661 12.0156C100.925 11.9403 100.271 12.4405 100.2 13.1328C100.129 13.825 100.669 14.4472 101.405 14.5225C102.141 14.5978 102.795 14.0976 102.866 13.4053Z" fill="white"/>
<path d="M95.2601 19.1299L93.4001 17.3999L92.1801 18.6899L93.8901 20.3899C93.8901 20.3899 93.9401 20.3399 94.0401 20.2399C94.1401 20.1399 94.4301 19.8499 94.6701 19.6499C95.1101 19.2599 95.2601 19.1299 95.2601 19.1299Z" fill="#E24497"/>
<path d="M111.23 13.6599L111.19 15.4999L117.84 16.1399L117.82 13.4199L111.23 13.6599Z" fill="#FAAE17"/>
<path d="M134.84 29.7299C134.83 30.4499 134.25 31.0199 133.55 30.9999C132.85 30.9799 132.29 30.3899 132.3 29.6699C132.31 28.9499 132.89 28.3799 133.59 28.3999C134.29 28.4199 134.85 29.0099 134.84 29.7299Z" fill="white"/>
<path d="M104.07 78.7696C104.07 78.7696 103.09 87.4896 113.51 86.5696C122.13 85.8096 127.1 81.1696 129.11 77.9096C129.11 77.9096 129.13 71.6996 130.24 66.5196C131.35 61.3296 132.27 58.7896 132.27 58.7896C132.27 58.7896 139.02 59.5696 141.89 53.9396C144.76 48.3096 142.99 42.8896 138.34 42.1096C133.69 41.3296 133.54 44.0296 132.22 47.2296C130.89 50.4196 125.96 54.6996 126.13 44.4896C126.13 44.4896 120.69 41.6696 116.57 37.1696C112.45 32.6696 110.54 27.8296 110.54 27.8296C110.54 27.8296 108.33 30.0596 102.73 32.7496C95.4299 36.2496 89.3599 35.5596 88.7599 35.4096C88.1599 35.2596 84.9199 54.7596 85.8599 64.5796C87.0799 77.4996 97.1399 79.6696 104.07 78.7696Z" fill="#F498A8"/>
<path d="M90 32.9795C88.79 38.4895 88.27 44.1495 87.7 49.7495C87.16 55.0395 86.71 60.4895 87.49 65.7895C87.91 68.6395 88.73 71.5495 90.75 73.6895C92.33 75.3495 94.59 76.2295 96.85 76.8395C99.24 77.4895 101.69 77.4095 104.13 77.0895C107.53 76.6395 110.87 75.7695 114.08 74.5695C115.73 73.9495 116.89 76.4495 115.23 77.0695C107.53 79.9595 96.92 82.3195 89.85 76.5695C87.38 74.5595 86.01 71.7295 85.25 68.6895C84 63.6595 84.24 58.2395 84.64 53.1195C85.16 46.3195 85.8 39.3595 87.27 32.6995C87.64 30.9795 90.38 31.2495 90 32.9795Z" fill="black"/>
<path d="M138.95 48.7699C138.88 48.7999 138.81 48.8399 138.74 48.8799C138.72 48.8899 138.5 49.0299 138.67 48.9199C138.55 48.9999 138.43 49.0799 138.32 49.1799C138.21 49.2699 138.1 49.3699 138 49.4699C137.86 49.5999 138.08 49.3699 137.95 49.5299C137.91 49.5799 137.87 49.6299 137.82 49.6799C137.73 49.7899 137.65 49.9099 137.57 50.0299C137.53 50.0999 137.49 50.1599 137.44 50.2299C137.34 50.3899 137.49 50.1099 137.4 50.2999C137.27 50.5599 137.16 50.8299 137.07 51.1099C137.05 51.1699 137.03 51.2399 137.02 51.2999C137 51.3599 137.01 51.3499 137.03 51.2599C137.02 51.2999 137.01 51.3399 137.01 51.3799C136.98 51.5199 136.96 51.6699 136.94 51.8099C136.92 51.9499 136.92 52.0999 136.91 52.2399C136.91 52.2799 136.91 52.3199 136.91 52.3599C136.91 52.2599 136.91 52.2399 136.91 52.3099C136.92 52.3799 136.92 52.4399 136.92 52.5099C136.95 52.7999 137 53.0799 137.08 53.3599C137.02 53.1499 137.09 53.3799 137.11 53.4199C137.14 53.4899 137.17 53.5699 137.2 53.6399C137.26 53.7899 137.34 53.9199 137.42 54.0599C137.66 54.4799 137.4 55.0999 136.97 55.2799C136.47 55.4799 136.01 55.2699 135.75 54.8299C134.2 52.1699 135.46 48.4399 138.19 47.1199C138.62 46.9099 139.22 47.1199 139.41 47.5699C139.59 48.0199 139.41 48.5499 138.95 48.7699Z" fill="black"/>
<path d="M100.91 55.8695C100.92 55.2195 101.14 54.5795 101.32 53.9595C101.51 53.2895 101.71 52.6195 101.92 51.9595C102.34 50.6195 102.8 49.2995 103.28 47.9795C103.6 47.1095 104.94 47.6195 104.62 48.4995C103.9 50.4995 103.21 52.5095 102.64 54.5595C102.52 54.9995 102.33 55.4895 102.34 55.9595C102.35 56.2295 102.46 56.6595 102.71 56.8095C102.94 56.9495 103.32 56.8695 103.54 56.7595C103.86 56.5995 103.99 56.3195 104.08 55.9795C104.18 55.5995 104.68 55.4395 105.01 55.5695C105.15 55.6195 105.24 55.7095 105.31 55.8095C105.46 55.9195 105.57 56.0795 105.61 56.2695C105.62 56.3295 105.64 56.3895 105.65 56.4595C105.66 56.4795 105.66 56.4895 105.66 56.4995C105.66 56.5095 105.66 56.4995 105.67 56.5195C105.71 56.6195 105.75 56.7295 105.8 56.8295C105.82 56.8795 105.85 56.9295 105.88 56.9795C105.89 56.9895 105.89 56.9895 105.89 56.9995C105.89 56.9995 105.89 56.9995 105.9 57.0095C105.97 57.0995 106.04 57.1795 106.11 57.2695C106.13 57.2795 106.15 57.2995 106.16 57.3095C106.2 57.3395 106.25 57.3695 106.29 57.3995C106.17 57.3095 106.27 57.3895 106.32 57.4095C106.36 57.4195 106.39 57.4395 106.43 57.4495C106.44 57.4495 106.55 57.4595 106.57 57.4695C106.58 57.4695 106.6 57.4695 106.61 57.4695C106.62 57.4695 106.61 57.4695 106.62 57.4695C106.69 57.4495 106.76 57.4495 106.83 57.4295C106.85 57.4295 106.85 57.4295 106.85 57.4295C106.86 57.4295 106.86 57.4195 106.88 57.4095C106.94 57.3795 107 57.3595 107.05 57.3295C107.08 57.3195 107.13 57.2795 107.14 57.2695C107.18 57.2395 107.22 57.2095 107.26 57.1795C107.27 57.1695 107.28 57.1695 107.28 57.1595C107.4 56.9995 107.52 56.8395 107.63 56.6595C107.64 56.6295 107.66 56.5995 107.67 56.5895C107.69 56.5395 107.72 56.4995 107.74 56.4495C107.79 56.3395 107.84 56.2295 107.89 56.1195C107.97 55.9295 108.05 55.7395 108.11 55.5495C108.23 55.1895 108.7 54.9895 109.04 55.1395C109.41 55.2995 109.58 55.6895 109.45 56.0695C109.27 56.6195 109.01 57.1595 108.7 57.6495C108.33 58.2395 107.79 58.6495 107.11 58.8295C106.36 59.0295 105.6 58.7795 105.04 58.2495C104.88 58.0895 104.75 57.9095 104.63 57.7195C104.13 58.1395 103.47 58.3695 102.77 58.3095C101.58 58.1895 100.9 56.9995 100.91 55.8695Z" fill="black"/>
<path d="M101.75 85.7099C102.94 88.0499 105.05 90.0399 107.51 90.9899C109.44 91.7299 111.68 91.7299 113.71 91.5399C118.16 91.1199 123.06 89.6499 126.32 86.4399C127.14 85.6299 128.27 87.0099 127.45 87.8099C123.78 91.4199 118.05 93.1099 113.01 93.3699C110.7 93.4899 108.28 93.3499 106.16 92.3399C103.57 91.0999 101.42 89.0099 100.13 86.4499C99.61 85.4299 101.23 84.6899 101.75 85.7099Z" fill="#006B83"/>
<path d="M91.83 44.7297C92.18 43.3497 93.56 42.4697 94.05 42.2897C95.12 41.8997 96.69 41.5497 98.68 41.8697C101.94 42.3997 102.61 44.0397 102.71 44.8997C102.79 45.6197 102.51 46.9197 101.44 47.1797C100.86 47.3197 99.82 46.9197 97.66 46.7897C95.62 46.6697 93.36 47.1997 92.74 46.9797C92.1 46.7597 91.51 46.0097 91.83 44.7297Z" fill="white"/>
<path d="M98.43 46.2896C96.2 46.6496 95.63 43.1796 97.86 42.8196C100.1 42.4496 100.67 45.9196 98.43 46.2896Z" fill="black"/>
<path d="M117.84 48.0699C117.2 48.2499 114.99 47.5299 112.95 47.4899C110.79 47.4499 109.72 47.7599 109.15 47.5799C108.1 47.2399 107.93 45.9199 108.06 45.2099C108.22 44.3699 109.03 42.7899 112.31 42.5099C114.31 42.3499 115.85 42.8199 116.89 43.2899C117.37 43.5099 118.67 44.4899 118.91 45.8999C119.13 47.1899 118.48 47.8899 117.84 48.0699Z" fill="white"/>
<path d="M114.47 47.0899C112.24 47.4499 111.67 43.9799 113.9 43.6199C116.14 43.2599 116.71 46.7299 114.47 47.0899Z" fill="black"/>
<path d="M132.26 58.7996C132.26 58.7996 139.02 59.5796 141.89 53.9396C144.76 48.2996 142.99 42.8796 138.34 42.0996C133.69 41.3196 133.54 44.0296 132.21 47.2196C131.58 48.7396 130.33 50.6296 129.17 50.7896L132.26 58.7996Z" fill="#F498A8"/>
<path d="M138.95 48.7696C138.88 48.7996 138.81 48.8396 138.74 48.8796C138.72 48.8896 138.5 49.0296 138.67 48.9196C138.55 48.9996 138.43 49.0796 138.32 49.1796C138.21 49.2696 138.1 49.3696 138 49.4696C137.86 49.5996 138.08 49.3696 137.95 49.5296C137.91 49.5796 137.87 49.6296 137.82 49.6796C137.73 49.7896 137.64 49.9096 137.57 50.0296C137.53 50.0996 137.49 50.1596 137.44 50.2296C137.34 50.3896 137.49 50.1096 137.4 50.2996C137.27 50.5596 137.16 50.8296 137.07 51.1096C137.05 51.1696 137.03 51.2396 137.02 51.2996C137 51.3596 137.01 51.3496 137.03 51.2596C137.02 51.2996 137.01 51.3396 137.01 51.3796C136.98 51.5196 136.96 51.6696 136.94 51.8096C136.92 51.9496 136.92 52.0996 136.91 52.2396C136.91 52.2796 136.91 52.3196 136.91 52.3596C136.91 52.2596 136.91 52.2396 136.91 52.3096C136.92 52.3796 136.92 52.4396 136.92 52.5096C136.95 52.7996 137 53.0796 137.08 53.3596C137.02 53.1496 137.09 53.3796 137.11 53.4196C137.14 53.4896 137.17 53.5696 137.2 53.6396C137.26 53.7896 137.34 53.9296 137.42 54.0596C137.66 54.4796 137.4 55.0996 136.97 55.2796C136.47 55.4796 136.01 55.2696 135.75 54.8296C134.2 52.1696 135.46 48.4296 138.19 47.1096C138.62 46.8996 139.22 47.1096 139.41 47.5596C139.59 48.0196 139.41 48.5496 138.95 48.7696Z" fill="black"/>
<path d="M112.16 35.9699C112.16 35.9799 112.35 36.2599 112.23 36.0799C112.11 35.9099 112.29 36.1499 112.32 36.1899C112.44 36.3299 112.56 36.4599 112.69 36.5899C112.81 36.7099 112.93 36.8199 113.05 36.9299C113.16 37.0299 113.22 37.0599 113.07 36.9499C113.15 37.0099 113.22 37.0599 113.3 37.1199C113.6 37.3299 113.91 37.5199 114.23 37.6899C114.4 37.7799 114.58 37.8699 114.75 37.9499C114.57 37.8699 114.66 37.9099 114.79 37.9599C114.88 37.9999 114.97 38.0299 115.07 38.0599C115.42 38.1899 115.78 38.2899 116.14 38.3799C116.33 38.4199 116.52 38.4599 116.71 38.4899C116.92 38.5299 116.36 38.4499 116.73 38.4899C116.81 38.4999 116.88 38.5099 116.96 38.5099C117.33 38.5399 117.71 38.5599 118.09 38.5399C118.16 38.5399 118.24 38.5299 118.31 38.5299C118.66 38.5099 118.11 38.5699 118.31 38.5299C118.5 38.4999 118.7 38.4699 118.89 38.4199C119.61 38.2599 120.46 38.6699 120.62 39.4299C120.78 40.1599 120.38 40.9899 119.61 41.1599C116.02 41.9799 111.75 40.4499 109.69 37.3599C109.28 36.7399 109.58 35.7599 110.23 35.4299C110.96 35.0699 111.72 35.3099 112.16 35.9699Z" fill="black"/>
<path d="M93.14 34.5899C93.26 34.7399 93.39 34.8899 93.52 35.0299C93.61 35.1299 93.6 35.1199 93.51 35.0299C93.58 35.0999 93.66 35.1599 93.73 35.2299C94.02 35.4799 94.34 35.6699 94.66 35.8799C94.42 35.7199 94.65 35.8699 94.71 35.8999C94.8 35.9399 94.89 35.9899 94.98 36.0299C95.16 36.1099 95.35 36.1899 95.54 36.2599C95.71 36.3199 95.89 36.3799 96.06 36.4299C96.2 36.4699 96.3 36.4899 96.1 36.4399C96.2 36.4599 96.3 36.4799 96.4 36.4999C96.78 36.5699 97.16 36.6099 97.55 36.6199C97.63 36.6199 97.71 36.6199 97.79 36.6199C97.48 36.6099 97.76 36.6199 97.83 36.6099C98.03 36.5899 98.23 36.5699 98.42 36.5399C98.6 36.5099 98.77 36.4799 98.94 36.4299C98.94 36.4299 99.29 36.3299 99.1 36.3899C98.91 36.4499 99.22 36.3399 99.26 36.3299C99.44 36.2599 99.62 36.1799 99.79 36.0899C99.86 36.0499 99.93 36.0199 99.99 35.9799C100.33 35.7999 99.76 36.1399 100.08 35.9199C100.69 35.5099 101.59 35.4699 102.08 36.1199C102.51 36.6899 102.53 37.6699 101.88 38.1199C98.5 40.3999 93.47 39.5799 90.94 36.3699C90.48 35.7899 90.52 34.8399 91.14 34.3699C91.75 33.9399 92.65 33.9699 93.14 34.5899Z" fill="black"/>
<path d="M105.32 64.7798C105.45 64.8498 105.59 64.9298 105.71 65.0198C105.74 65.0398 105.77 65.0598 105.8 65.0898C105.72 65.0298 105.72 65.0298 105.78 65.0798C105.84 65.1298 105.89 65.1798 105.95 65.2298C106 65.2798 106.05 65.3398 106.11 65.3998C106.16 65.4598 106.16 65.4598 106.1 65.3798C106.12 65.4098 106.14 65.4398 106.17 65.4698C106.21 65.5298 106.25 65.5998 106.29 65.6598C106.31 65.6898 106.33 65.7298 106.34 65.7598C106.37 65.8398 106.37 65.8298 106.33 65.7398C106.37 65.7898 106.38 65.8898 106.4 65.9598C106.41 65.9998 106.48 66.2498 106.43 66.0398C106.45 66.1098 106.44 66.1998 106.44 66.2698C106.44 66.3098 106.44 66.3498 106.44 66.3798C106.43 66.4698 106.43 66.4598 106.45 66.3498C106.45 66.4198 106.42 66.5098 106.4 66.5698C106.39 66.6098 106.38 66.6398 106.36 66.6798C106.4 66.5898 106.4 66.5798 106.37 66.6598C106.35 66.6998 106.3 66.8298 106.26 66.8398C106.33 66.7598 106.33 66.7498 106.28 66.8098C106.26 66.8398 106.23 66.8598 106.21 66.8798C106.19 66.8998 106.16 66.9298 106.13 66.9498C106.21 66.8898 106.22 66.8798 106.16 66.9298C106.1 66.9598 106.04 66.9998 105.98 67.0298C105.91 67.0598 105.92 67.0598 106.02 67.0098C105.99 67.0198 105.96 67.0298 105.92 67.0398C105.89 67.0498 105.86 67.0598 105.82 67.0598C105.74 67.0698 105.75 67.0698 105.87 67.0598C105.87 67.0698 105.67 67.0598 105.67 67.0598C105.79 67.0798 105.8 67.0798 105.72 67.0698C105.69 67.0598 105.65 67.0498 105.62 67.0498C105.55 67.0198 105.56 67.0298 105.65 67.0698C105.62 67.0498 105.59 67.0398 105.56 67.0198C105.49 66.9698 105.5 66.9798 105.59 67.0398C105.53 66.9798 105.54 66.9898 105.61 67.0698C105.57 66.9998 105.57 67.0098 105.61 67.1098C105.6 67.0798 105.59 67.0398 105.58 67.0098C105.59 67.1198 105.59 67.1398 105.59 67.0498C105.59 66.9698 105.59 66.9798 105.58 67.0898C105.59 67.0598 105.6 67.0198 105.61 66.9898C105.57 67.0898 105.56 67.0998 105.6 67.0198C105.64 66.9498 105.64 66.9598 105.57 67.0398C105.59 67.0098 105.62 66.9898 105.64 66.9598C105.7 66.9098 105.69 66.9098 105.61 66.9798C105.64 66.9598 105.67 66.9398 105.7 66.9298C105.61 66.9598 105.6 66.9698 105.68 66.9498C105.62 66.9698 105.56 66.9698 105.5 66.9598C105.4 66.9198 105.39 66.9098 105.46 66.9598C105.38 66.8998 105.37 66.8898 105.43 66.9498C105.46 66.9698 105.48 66.9998 105.51 67.0298C105.72 67.2898 105.78 67.0198 105.68 66.2198C105.81 66.1898 105.93 66.1498 106.06 66.1198C106.1 66.1298 106.14 66.1298 106.18 66.1398C105.81 66.0098 105.35 66.2898 105.26 66.6598C105.16 67.0798 105.39 67.4298 105.78 67.5798C106.15 67.7198 106.59 67.5098 106.78 67.1798C107 66.7998 106.88 66.3698 106.61 66.0498C106.27 65.6398 105.73 65.3798 105.2 65.5598C104.16 65.9098 103.7 67.2998 104.53 68.1098C105.18 68.7398 106.27 68.6998 106.98 68.1798C107.77 67.5898 108.05 66.6198 107.85 65.6798C107.64 64.7298 106.9 63.9698 106.07 63.5298C105.73 63.3498 105.24 63.4298 105.05 63.7998C104.87 64.1098 104.96 64.5798 105.32 64.7798Z" fill="black"/>
<path d="M107.81 69.8199C107.67 69.8999 107.52 69.9799 107.38 70.0499C107.3 70.0799 107.31 70.0799 107.39 70.0499C107.36 70.0599 107.33 70.0699 107.3 70.0799C107.23 70.1099 107.17 70.1299 107.1 70.1499C106.95 70.1999 106.79 70.2499 106.63 70.2799C106.57 70.2899 106.51 70.3099 106.45 70.3199C106.41 70.3299 106.37 70.3299 106.33 70.3399C106.43 70.3299 106.43 70.3299 106.35 70.3399C106.04 70.3699 105.74 70.3799 105.43 70.3499C105.36 70.3399 105.25 70.3299 105.38 70.3499C105.3 70.3399 105.22 70.3199 105.14 70.3099C104.98 70.2799 104.82 70.2399 104.67 70.1899C104.3 70.0699 103.84 70.3299 103.75 70.7099C103.66 71.1099 103.87 71.4999 104.27 71.6299C105.69 72.0699 107.28 71.8799 108.56 71.1199C108.89 70.9199 109.05 70.4399 108.83 70.0999C108.61 69.7499 108.16 69.6099 107.81 69.8199Z" fill="black"/>
<path d="M77.41 34.2399C74.01 34.4699 70.63 35.0599 67.37 36.0899C64.75 36.9199 61.38 37.9599 60.17 40.6899C58.99 43.3399 60.35 46.2499 62.42 48.0099C64.76 49.9899 67.78 51.0899 70.66 52.0399C74.33 53.2499 78.11 54.0399 81.94 54.5099C83.5 54.6999 83.49 52.2499 81.94 52.0599C78.33 51.6199 74.76 50.8199 71.31 49.6799C68.44 48.7299 64.66 47.5799 62.89 44.9299C62.17 43.8499 61.85 42.4099 62.63 41.2699C63.53 39.9599 65.38 39.3599 66.8 38.8599C70.22 37.6599 73.79 36.9399 77.41 36.6999C78.97 36.5799 78.99 34.1299 77.41 34.2399Z" fill="white"/>
<path d="M144.93 61.0996C148.58 61.4796 152.28 61.4396 155.94 61.0696C159.23 60.7396 162.61 60.2096 165.68 58.9496C168.43 57.8196 171.12 55.8196 171.68 52.7196C172.43 48.5496 169.28 46.3296 165.75 45.1196C164.26 44.6096 163.62 46.9696 165.1 47.4796C166.66 48.0196 168.63 48.7396 169.24 50.4496C169.61 51.5096 169.28 52.8796 168.69 53.7996C167.36 55.8996 164.7 56.8496 162.41 57.4796C156.81 59.0096 150.69 59.2596 144.93 58.6596C143.37 58.4996 143.38 60.9396 144.93 61.0996Z" fill="white"/>
<path fill-rule="evenodd" clip-rule="evenodd" d="M53.85 59.2698C53.85 59.2698 58.76 50.6098 56.19 40.1298C56.04 39.3098 55.87 38.4698 55.66 37.6198C50.62 17.0998 18.27 8.56979 4.16999 30.6798C-9.93001 52.7698 13.99 83.2298 41.59 71.1698C42.97 70.5698 44.74 69.5498 46.56 68.0898C49.05 69.4098 53.23 70.5798 58.16 67.8098C59.2 67.2298 59.24 65.7298 58.21 65.1098C55.71 63.5898 53.85 59.2698 53.85 59.2698Z" fill="white"/>
<path fill-rule="evenodd" clip-rule="evenodd" d="M41.7201 57.2698L12.8101 56.9998C11.5101 56.9898 10.4701 55.9298 10.4801 54.6298L10.6501 36.5098C10.6601 35.2098 11.7301 34.1698 13.0201 34.1798L41.9301 34.4598C43.2301 34.4698 44.2701 35.5298 44.2601 36.8298L44.1001 54.9498C44.0801 56.2498 43.0201 57.2898 41.7201 57.2698Z" fill="#FFC41E"/>
<path fill-rule="evenodd" clip-rule="evenodd" d="M39.08 54.0298L36.28 53.9998C35.24 53.9898 34.41 53.1398 34.42 52.0998V52.0198C34.43 50.9798 35.28 50.1498 36.32 50.1598L39.11 50.1898C40.15 50.1998 40.98 51.0498 40.97 52.0898V52.1698C40.97 53.2098 40.12 54.0398 39.08 54.0298Z" fill="#EF9A20"/>
<path fill-rule="evenodd" clip-rule="evenodd" d="M28.57 48.4699L14.48 48.3299C13.96 48.3299 13.55 47.8999 13.55 47.3899C13.55 46.8699 13.98 46.4599 14.49 46.4699L28.58 46.6099C29.1 46.6099 29.51 47.0399 29.51 47.5499C29.51 48.0699 29.09 48.4799 28.57 48.4699Z" fill="#EF9A20"/>
<path fill-rule="evenodd" clip-rule="evenodd" d="M10.5801 43.6896L44.2001 44.0096L44.2501 38.4596L10.6301 38.1396L10.5801 43.6896Z" fill="#EE8722"/>
</g>
<defs>
<clipPath id="clip0_259_1196">
<rect width="182.65" height="142.39" fill="white"/>
</clipPath>
</defs>
</svg>
