<svg width="192" height="133" viewBox="0 0 192 133" fill="none" xmlns="http://www.w3.org/2000/svg">
<g clip-path="url(#clip0_259_1030)">
<path fill-rule="evenodd" clip-rule="evenodd" d="M63.29 110.04C63.29 110.04 68.58 88.17 81.1 79.71C92.18 72.22 108.01 64.13 138.6 65.94C166.52 67.59 175.35 84.99 178.2 90.18C191.5 114.4 191.5 132.74 191.5 132.74H60.92L63.29 110.04Z" fill="#4CA447"/>
<path d="M112.91 72.25C112.91 72.25 110.61 82.23 116.66 85.97C122.7 89.71 135.04 86.35 139.74 77.49C143.85 69.76 141.92 64.52 141.92 64.52L112.91 72.25Z" fill="#A95630"/>
<path d="M131.65 24.1101C131.65 24.1101 94.55 28.6001 92.81 22.3101C91.53 17.6701 95.22 -4.74986 130.71 2.94014C142.2 5.43014 151.33 15.0501 151.76 28.4801C152.06 37.8101 149.61 50.1301 144.61 57.5601C138.97 65.9501 135.25 65.0601 135.25 65.0601L131.65 24.1101Z" fill="black"/>
<path d="M142.34 67.77C142.01 63.95 140.84 57.3 140.84 57.3C141.72 57.43 143.58 57.51 146.36 55.32C149.24 53.04 153.37 45.59 149.32 41.5C146.93 39.09 144.28 37.93 141.24 41.47C137.81 45.46 134.68 45.08 134.87 40.06C135.06 35.04 137.97 23.27 133.04 20.59C128.11 17.92 123.15 20.41 113.82 19.32C109.75 18.84 106.89 17.84 103.52 16.74C99.67 15.49 95.21 19.25 94.2 24.16C93.64 26.86 92.45 47.89 92.99 52.63C93.48 56.94 97.59 73.44 114.17 73.38C122.61 73.35 142.34 67.77 142.34 67.77Z" fill="#A95630"/>
<path d="M92.6 18.2199C91.56 28.3999 90.14 38.4799 91.06 48.7399C91.84 57.3699 94.37 65.9699 101.43 71.5599C106.44 75.5199 112.58 76.6499 118.81 75.5899C120.65 75.2799 119.87 72.4699 118.04 72.7799C112.98 73.6399 107.87 72.7399 103.71 69.6599C100.82 67.5199 98.6 64.5399 97.01 61.3399C96.87 61.0599 96.74 60.7699 96.6 60.4899C96.41 60.0799 96.49 60.2599 96.35 59.8999C96.05 59.1499 95.8 58.3899 95.57 57.6199C94.75 54.8399 94.28 51.9699 94 49.0999C93.44 43.2099 93.61 37.2699 94.07 31.3799C94.42 26.9799 95.06 22.6099 95.51 18.2199C95.69 16.3599 92.78 16.3699 92.6 18.2199Z" fill="black"/>
<path d="M108.83 26.4102C107.39 24.5502 105.26 23.3002 102.91 23.0502C100.57 22.8102 98.2 23.8202 96.59 25.4802C96.04 26.0402 96.03 26.9802 96.59 27.5402C97.14 28.0902 98.1 28.1102 98.65 27.5402C99.81 26.3402 101.27 25.7602 102.92 25.9602C102.74 25.9402 103.21 26.0202 103.29 26.0402C103.49 26.0902 103.69 26.1502 103.88 26.2102C103.92 26.2202 104.24 26.3502 104.14 26.3002C104.06 26.2702 104.3 26.3702 104.32 26.3902C104.51 26.4802 104.69 26.5802 104.87 26.6902C105.59 27.1302 106.19 27.7102 106.77 28.4602C107.25 29.0802 108.32 28.9702 108.83 28.4602C109.45 27.8602 109.32 27.0402 108.83 26.4102Z" fill="black"/>
<path d="M115.09 45.9499C115.07 46.0699 115.04 46.1999 115.01 46.3199C114.99 46.3799 114.97 46.4399 114.95 46.4999C114.94 46.5199 114.85 46.7499 114.9 46.6299C114.95 46.5199 114.86 46.6999 114.85 46.7299C114.82 46.7799 114.79 46.8399 114.76 46.8899C114.73 46.9399 114.7 46.9899 114.66 47.0399C114.64 47.0599 114.63 47.0899 114.61 47.1099C114.67 47.0299 114.69 47.0099 114.65 47.0599C114.57 47.1599 114.48 47.2499 114.39 47.3399C114.38 47.3499 114.36 47.3699 114.35 47.3799C114.28 47.4399 114.29 47.4299 114.38 47.3599C114.36 47.3999 114.26 47.4399 114.22 47.4599C114.18 47.4799 114.1 47.5499 114.06 47.5499C114.09 47.5399 114.12 47.5299 114.15 47.5099C114.11 47.5199 114.07 47.5399 114.04 47.5499C113.98 47.5699 113.92 47.5799 113.86 47.5999C113.84 47.5999 113.82 47.6099 113.8 47.6099C113.71 47.6299 113.72 47.6199 113.84 47.5999C113.82 47.5899 113.68 47.6099 113.66 47.6099C113.63 47.6099 113.6 47.6099 113.57 47.6099C113.51 47.5999 113.53 47.6099 113.64 47.6199C113.59 47.5999 113.52 47.5999 113.47 47.5799C113.46 47.5799 113.31 47.5199 113.3 47.5199C113.4 47.5599 113.42 47.5699 113.36 47.5399C113.33 47.5299 113.31 47.5099 113.28 47.4999C113.24 47.4799 113.18 47.4199 113.14 47.4099C113.23 47.4799 113.25 47.4899 113.18 47.4299C113.17 47.4199 113.15 47.3999 113.14 47.3899C113.1 47.3499 113.06 47.3099 113.02 47.2699C112.9 47.1499 113.09 47.3999 113.01 47.2599C112.98 47.2099 112.95 47.1599 112.92 47.1099C112.9 47.0699 112.84 46.9999 112.84 46.9499C112.88 47.0599 112.89 47.0699 112.86 46.9799C112.85 46.9599 112.85 46.9399 112.84 46.9199C112.82 46.8499 112.8 46.7899 112.79 46.7199C112.78 46.6899 112.78 46.6599 112.77 46.6299C112.78 46.7399 112.79 46.7699 112.78 46.6999C112.78 46.5699 112.77 46.4399 112.78 46.3099C112.82 45.8799 112.37 45.4599 111.95 45.4799C111.46 45.4999 111.17 45.8499 111.12 46.3099C110.97 47.8299 112.21 49.3399 113.78 49.2599C115.33 49.1799 116.44 47.8499 116.69 46.3799C116.76 45.9499 116.58 45.4599 116.11 45.3599C115.71 45.2799 115.16 45.4899 115.09 45.9499Z" fill="black"/>
<path d="M111.23 46.1503C111.22 46.2203 111.21 46.3003 111.19 46.3703C111.18 46.4003 111.1 46.5803 111.16 46.4803C111.22 46.3703 111.1 46.5803 111.09 46.6003C111.08 46.6203 111.07 46.6303 111.06 46.6503C111.01 46.7203 111.01 46.7203 111.08 46.6303C111.07 46.6703 110.98 46.7403 110.95 46.7603C110.93 46.7803 110.91 46.8003 110.88 46.8203C110.84 46.8603 110.85 46.8503 110.92 46.7903C110.89 46.8303 110.8 46.8703 110.75 46.8903C110.71 46.9103 110.67 46.9303 110.63 46.9503C110.66 46.9403 110.68 46.9303 110.71 46.9203C110.62 46.9903 110.42 47.0003 110.31 47.0303C110.25 47.0403 110.27 47.0403 110.38 47.0203C110.34 47.0203 110.3 47.0303 110.26 47.0303C110.2 47.0303 110.14 47.0403 110.08 47.0403C110.02 47.0403 109.96 47.0403 109.9 47.0303C109.7 47.0203 110.08 47.0703 109.89 47.0303C109.76 47.0003 109.64 46.9603 109.52 46.9303C109.46 46.9103 109.48 46.9203 109.58 46.9603C109.55 46.9503 109.53 46.9403 109.5 46.9203C109.44 46.8903 109.38 46.8603 109.32 46.8203C109.28 46.7903 109.11 46.7203 109.29 46.8103C109.24 46.7803 109.19 46.7303 109.15 46.6903C109.11 46.6503 109.07 46.6003 109.03 46.5603C108.91 46.4303 109.11 46.6903 109.03 46.5503C109 46.5003 108.97 46.4503 108.94 46.4003C108.93 46.3803 108.83 46.1703 108.88 46.2903C108.93 46.4103 108.86 46.2203 108.85 46.2003C108.83 46.1403 108.81 46.0703 108.8 46.0003C108.8 45.9803 108.79 45.9603 108.79 45.9403C108.77 45.8503 108.78 45.8603 108.79 45.9903C108.8 45.9403 108.78 45.8603 108.78 45.8103C108.78 45.7503 108.78 45.6903 108.78 45.6303C108.78 45.5903 108.79 45.5503 108.79 45.5103C108.79 45.5503 108.78 45.5803 108.78 45.6203C108.74 45.5903 108.88 45.2703 108.9 45.2303C109.07 44.8303 108.72 44.3003 108.32 44.2103C107.84 44.1003 107.47 44.3603 107.3 44.7903C107.01 45.5103 107.11 46.3203 107.41 47.0203C107.73 47.7403 108.36 48.2603 109.09 48.5203C110.58 49.0603 112.6 48.2703 112.85 46.5803C112.88 46.3503 112.89 46.1503 112.77 45.9403C112.67 45.7703 112.47 45.6003 112.27 45.5603C111.85 45.4803 111.29 45.6903 111.23 46.1503Z" fill="black"/>
<path d="M108.82 45.3799C109.56 42.4399 110.88 39.6899 111.74 36.7899C112.05 35.7599 110.44 35.3199 110.14 36.3499C109.27 39.2499 107.96 41.9999 107.22 44.9399C106.96 45.9699 108.56 46.4099 108.82 45.3799Z" fill="black"/>
<path d="M108.23 34.5901C107.92 32.8601 106.45 31.9301 105.94 31.6301C104.83 30.9901 103.58 30.3201 101.44 30.4001C97.32 30.5501 96.86 31.9101 96.64 32.9001C96.46 33.7201 96.69 35.3001 97.81 35.7901C98.42 36.0501 99.56 35.7701 101.87 35.9901C104.06 36.2001 106.42 37.2301 107.1 37.0701C107.77 36.9201 108.51 36.1301 108.23 34.5901Z" fill="white"/>
<path d="M103.97 36.0602C106.31 36.0602 106.31 32.4302 103.97 32.4302C101.63 32.4302 101.63 36.0602 103.97 36.0602Z" fill="black"/>
<path d="M127.87 37.45C127.63 35.89 126.19 34.72 125.65 34.46C124.49 33.88 122.78 33.27 120.53 33.34C116.84 33.46 115.9 35.16 115.71 36.08C115.55 36.86 115.72 38.33 116.89 38.76C117.52 38.99 118.73 38.71 121.15 38.88C123.44 39.04 125.91 39.96 126.63 39.79C127.34 39.63 128.09 38.89 127.87 37.45Z" fill="white"/>
<path d="M122.52 38.72C124.78 38.72 124.78 35.21 122.52 35.21C120.26 35.21 120.26 38.72 122.52 38.72Z" fill="black"/>
<path d="M112.55 5.16011C110.53 4.28011 108.53 3.55011 106.59 2.95011C111.94 0.080106 119.1 -1.17989 128.57 1.38011C158.1 9.33011 151.67 37.3601 151.67 37.3601C151.67 37.3601 146.04 31.4601 138.09 26.5601C133.3 20.2801 124.31 10.2601 112.55 5.16011Z" fill="#016A81"/>
<path d="M106.59 2.95029C108.53 3.55029 110.53 4.28029 112.55 5.16029C124.31 10.2603 133.3 20.2803 138.09 26.5603C133.86 23.9503 128.97 21.6303 123.92 20.6303C106 17.1003 94.25 21.4103 92.31 22.2003C92.24 22.1703 92.16 22.1303 92.08 22.1003C89.43 20.9203 84.89 17.6803 83.31 10.3903C81.22 0.760293 91.33 -1.72971 106.59 2.95029Z" fill="#008BAD"/>
<path d="M146.93 43.9799C145.94 43.6499 144.83 43.8599 143.97 44.4199C143.04 45.0299 142.43 45.9599 142.06 46.9999C141.37 48.9099 141.05 51.9199 143.2 53.0299C143.6 53.2399 144.1 53.1299 144.34 52.7299C144.56 52.3599 144.44 51.7999 144.04 51.5899C142.68 50.8899 143.23 48.6899 143.62 47.5499C144.03 46.3599 145.13 45.1199 146.49 45.5799C146.92 45.7199 147.4 45.4099 147.51 44.9999C147.63 44.5399 147.35 44.1199 146.93 43.9799Z" fill="black"/>
<path d="M116.73 29.3901C119.52 27.1401 123.64 28.2101 125.29 31.2701C125.66 31.9601 126.62 32.1801 127.28 31.7901C127.98 31.3801 128.18 30.4901 127.8 29.8001C126.64 27.6501 124.51 25.9901 122.11 25.4801C119.45 24.9101 116.77 25.6401 114.67 27.3401C114.06 27.8301 114.16 28.8801 114.67 29.4001C115.28 29.9901 116.12 29.8901 116.73 29.3901Z" fill="black"/>
<path d="M120.25 61.4202C119.23 61.3102 118.17 61.4302 117.19 61.7502C116.78 61.8902 116.47 62.3302 116.61 62.7702C116.74 63.1802 117.19 63.5002 117.63 63.3502C118.02 63.2202 118.42 63.1302 118.82 63.0702C118.75 63.0802 118.67 63.0902 118.6 63.1002C119.15 63.0302 119.7 63.0203 120.25 63.0803C120.45 63.1003 120.7 62.9702 120.84 62.8402C120.98 62.7002 121.09 62.4602 121.08 62.2502C121.07 62.0402 121 61.8102 120.84 61.6602C120.66 61.5102 120.48 61.4502 120.25 61.4202Z" fill="black"/>
<path d="M123.61 55.7303C120.89 57.4903 117.54 58.0403 114.41 57.2103C113.17 56.8803 112.65 58.8003 113.88 59.1203C117.5 60.0803 121.46 59.4803 124.61 57.4403C125.68 56.7503 124.68 55.0303 123.61 55.7303Z" fill="black"/>
<path d="M122.96 54.87C123.27 56.47 124.14 57.98 125.35 59.06C125.74 59.4 126.38 59.47 126.75 59.06C127.1 58.68 127.17 58.02 126.75 57.66C126.49 57.43 126.24 57.18 126.02 56.9C125.99 56.86 125.96 56.81 125.93 56.78C125.96 56.8 126.05 56.95 125.98 56.84C125.93 56.77 125.87 56.69 125.82 56.62C125.72 56.47 125.62 56.32 125.53 56.16C125.45 56.01 125.37 55.86 125.29 55.71C125.27 55.66 125.25 55.62 125.23 55.57C125.22 55.54 125.16 55.41 125.22 55.55C125.28 55.69 125.23 55.56 125.21 55.53C125.19 55.48 125.17 55.44 125.16 55.39C125.04 55.05 124.94 54.7 124.87 54.35C124.77 53.84 124.13 53.5 123.65 53.66C123.11 53.82 122.85 54.32 122.96 54.87Z" fill="black"/>
<path d="M159.05 122.46C159.69 125.64 160.23 128.84 160.68 132.05C160.74 132.49 161.3 132.73 161.69 132.63C162.17 132.5 162.33 132.06 162.27 131.62C161.82 128.41 161.27 125.21 160.64 122.03C160.44 120.98 158.85 121.42 159.05 122.46Z" fill="#2D2D2D"/>
<path fill-rule="evenodd" clip-rule="evenodd" d="M7.96001 72.5002C11.67 70.9402 18.81 77.6102 20.2 77.8502C21.59 78.0802 30.65 78.1302 30.65 78.1302C25.76 72.5902 26.91 67.1802 30.52 66.9202C33.45 66.7102 33.48 70.6602 36.06 73.1002C37.78 74.7302 42.2 74.3902 46.84 78.6402C50.7 82.1802 54.47 92.7302 55.85 96.4002L66.26 120.57L71.92 132.73H47.95C44 118.57 40.21 102.08 40.21 102.08L39.27 97.0602C39.27 97.0602 36.96 98.3102 31.13 97.7602C26.25 97.3002 23.77 93.0302 23.77 93.0302C19.82 93.8002 18.04 88.8502 18.04 88.8502C15.72 89.3202 12.31 87.6902 11.3 86.2902C10.29 84.9002 8.35001 82.8602 7.12001 81.2502C5.57001 79.2402 7.20001 77.3002 7.20001 77.3002C7.20001 77.3002 5.02001 73.7402 7.96001 72.5002Z" fill="#A95630"/>
<path d="M30.89 78.66C31.97 81.54 34.59 83.58 37.64 83.94C38.09 83.99 38.48 83.51 38.48 83.1C38.48 82.6 38.09 82.31 37.64 82.26C37.36 82.23 37.79 82.29 37.52 82.24C37.45 82.23 37.38 82.22 37.31 82.2C37.16 82.17 37 82.13 36.85 82.09C36.7 82.05 36.55 82 36.4 81.95C36.33 81.93 36.26 81.9 36.2 81.88C36.2 81.88 35.96 81.78 36.08 81.84C35.8 81.72 35.53 81.58 35.27 81.43C35.13 81.35 35 81.26 34.87 81.18C34.81 81.14 34.75 81.1 34.69 81.06C34.65 81.03 34.62 81.01 34.59 80.98C34.64 81.02 34.64 81.02 34.59 80.98C34.35 80.79 34.13 80.59 33.92 80.38C33.81 80.27 33.7 80.15 33.6 80.03C33.55 79.98 33.51 79.92 33.46 79.87C33.28 79.66 33.54 79.99 33.38 79.77C33.19 79.52 33.02 79.25 32.87 78.97C32.8 78.84 32.74 78.72 32.67 78.59C32.67 78.59 32.56 78.35 32.62 78.48C32.59 78.4 32.56 78.32 32.53 78.24C32.37 77.81 31.96 77.52 31.49 77.65C31.07 77.73 30.73 78.23 30.89 78.66Z" fill="black"/>
<path d="M37.1 86.5399C34.47 86.4699 31.82 87.2599 29.67 88.7799C29.3 89.0399 29.12 89.5199 29.37 89.9399C29.59 90.3099 30.15 90.5099 30.53 90.2399C32.46 88.8799 34.74 88.1699 37.1 88.2299C38.18 88.2599 38.18 86.5699 37.1 86.5399Z" fill="black"/>
<path d="M30.94 91.0901C30.6 89.3501 29.99 87.6801 29.28 86.0701C28.67 84.7001 27.83 83.2801 26.47 82.5401C25.3 81.9001 23.72 81.7801 22.56 82.5201C21.1 83.4501 20.9 85.2601 21.33 86.8101C21.59 87.7601 22 88.6601 22.27 89.6101C22.55 90.6001 22.75 91.6001 22.86 92.6201C22.91 93.0701 23.21 93.4601 23.7 93.4601C24.12 93.4601 24.59 93.0701 24.54 92.6201C24.38 91.0401 24.06 89.4901 23.52 88.0001C23.14 86.9401 22.28 85.2801 23.13 84.2201C23.68 83.5401 24.79 83.5901 25.51 83.9401C26.61 84.4601 27.24 85.6701 27.73 86.7201C28.43 88.2501 28.99 89.8701 29.31 91.5301C29.52 92.6101 31.15 92.1601 30.94 91.0901Z" fill="black"/>
<path d="M41.43 94.8303C41.36 94.8903 41.29 94.9503 41.21 95.0103C41.14 95.0703 41.14 95.0703 41.21 95.0103C41.17 95.0403 41.13 95.0702 41.1 95.0902C40.95 95.2002 40.79 95.3003 40.63 95.4003C40.47 95.5003 40.3 95.5902 40.14 95.6702C40.06 95.7102 39.97 95.7503 39.89 95.7903C39.85 95.8103 39.8 95.8302 39.76 95.8502C39.84 95.8202 39.86 95.8103 39.8 95.8303C39.46 95.9603 39.12 96.0803 38.76 96.1603C38.58 96.2003 38.39 96.2402 38.21 96.2702C38.11 96.2802 38.12 96.2802 38.22 96.2702C38.17 96.2802 38.13 96.2803 38.08 96.2903C37.99 96.3003 37.89 96.3102 37.8 96.3102C37.36 96.3402 36.93 96.6803 36.96 97.1503C36.98 97.5803 37.33 98.0202 37.8 97.9902C39.6 97.8802 41.27 97.1903 42.63 96.0103C42.96 95.7203 42.95 95.1102 42.63 94.8203C42.27 94.5003 41.79 94.5203 41.43 94.8303Z" fill="black"/>
<path d="M83.29 123.52C83.25 126.08 83.21 128.64 83.17 131.2C83.15 132.26 84.8 132.26 84.82 131.2C84.86 128.64 84.9 126.08 84.94 123.52C84.96 122.46 83.31 122.46 83.29 123.52Z" fill="#2D2D2D"/>
<path fill-rule="evenodd" clip-rule="evenodd" d="M35.62 79.9703L14.29 79.7103C14.29 79.7103 13.47 77.1803 9.79 76.8003C6.11 76.4203 6.45 79.6103 6.45 79.6103L2.65 79.5603C1.17 79.5503 -0.0199957 78.3303 4.31502e-06 76.8503L0.260004 56.1803C0.280004 54.7003 1.49 53.5203 2.97 53.5303L35.94 53.9403C37.42 53.9603 38.6 55.1703 38.59 56.6503L38.33 77.3203C38.31 78.8103 37.1 79.9903 35.62 79.9703Z" fill="#FFC41E"/>
<path fill-rule="evenodd" clip-rule="evenodd" d="M32.61 76.2702L29.42 76.2302C28.24 76.2202 27.29 75.2402 27.31 74.0602V73.9702C27.32 72.7902 28.29 71.8402 29.48 71.8502L32.67 71.8902C33.85 71.9002 34.8 72.8802 34.79 74.0602V74.1502C34.77 75.3302 33.79 76.2802 32.61 76.2702Z" fill="#EF9A20"/>
<path fill-rule="evenodd" clip-rule="evenodd" d="M20.65 69.9005L4.58 69.7005C4 69.6905 3.52 69.2105 3.53 68.6205C3.54 68.0305 4.02 67.5605 4.61 67.5705L20.68 67.7705C21.27 67.7805 21.74 68.2605 21.73 68.8505C21.72 69.4405 21.24 69.9105 20.65 69.9005Z" fill="#EF9A20"/>
<path fill-rule="evenodd" clip-rule="evenodd" d="M0.149994 64.3905L38.49 64.8605L38.57 58.5305L0.229994 58.0605L0.149994 64.3905Z" fill="#EE8722"/>
<path d="M15.32 79.6402C14.24 78.2702 13.07 77.0102 11.42 76.3602C9.81 75.7302 7.86 75.7702 6.61 77.0902C5.86 77.8802 7.06 79.0802 7.8 78.2802C8.68 77.3502 10.04 77.5602 11.1 78.0402C12.36 78.6002 13.28 79.7702 14.12 80.8302C14.4 81.1902 15.02 81.1302 15.31 80.8302C15.67 80.4802 15.6 80.0002 15.32 79.6402Z" fill="black"/>
<path d="M23.34 82.5003C22.12 80.2803 19.52 77.9403 16.8 78.3603C15.53 78.5603 14.36 79.4803 14.13 80.7903C13.89 82.1803 14.51 83.4903 15.18 84.6803C15.91 85.9703 16.79 87.2103 17.19 88.6603C17.48 89.7103 19.11 89.2603 18.82 88.2103C18.43 86.8203 17.68 85.6003 16.96 84.3703C16.4 83.4303 15.32 81.8903 15.92 80.7603C16.54 79.5803 18.21 80.0203 19.12 80.5203C20.31 81.1803 21.25 82.1803 21.9 83.3603C22.4 84.3103 23.86 83.4603 23.34 82.5003Z" fill="black"/>
<path fill-rule="evenodd" clip-rule="evenodd" d="M75.82 42.9699C75.82 42.9699 81.63 36.1299 81.12 26.3999C81.13 25.6499 81.12 24.8799 81.07 24.0799C80.05 5.05989 52.82 -7.95011 36.6 9.26989C20.38 26.4699 36.45 57.4999 62.94 51.4499C64.27 51.1499 66 50.5399 67.87 49.5599C69.86 51.1499 73.36 52.8899 78.19 51.2699C79.21 50.9299 79.49 49.6099 78.69 48.8899C76.73 47.1099 75.82 42.9699 75.82 42.9699Z" fill="white"/>
<path d="M64.09 26.8097C64.32 25.7597 64.55 24.7397 64.78 23.6897C58.35 23.6897 51.94 23.6897 45.51 23.6897C45.74 24.7297 45.97 25.7597 46.2 26.8197C45.13 26.8197 44.1 26.8197 43.03 26.8197C43.26 25.7697 43.49 24.7397 43.72 23.6797C42.93 23.6797 42.18 23.6797 41.41 23.6797C41.41 22.7697 41.41 21.8797 41.41 20.9697C50.57 20.9697 59.73 20.9697 68.9 20.9697C68.9 21.8597 68.9 22.7397 68.9 23.6597C68.14 23.6597 67.38 23.6597 66.57 23.6597C66.81 24.7297 67.03 25.7597 67.26 26.8197C66.21 26.8097 65.18 26.8097 64.09 26.8097Z" fill="black"/>
<path d="M53.4 24.4997C53.05 29.0297 52.71 33.5397 52.36 38.0697C49.88 38.0697 47.41 38.0697 44.94 38.0697C44.94 37.9997 44.93 37.9197 44.94 37.8597C45.94 33.5097 46.95 29.1597 47.95 24.8097C48 24.5797 48.08 24.4697 48.35 24.4697C49.92 24.4897 51.49 24.4797 53.07 24.4797C53.16 24.4797 53.26 24.4897 53.4 24.4997Z" fill="black"/>
<path d="M57.94 38.07C57.59 33.55 57.25 29.03 56.9 24.49C57.05 24.48 57.14 24.47 57.24 24.47C58.81 24.47 60.38 24.47 61.96 24.46C62.2 24.46 62.3 24.52 62.35 24.76C63.35 29.12 64.36 33.48 65.36 37.84C65.37 37.9 65.37 37.97 65.38 38.05C62.9 38.07 60.44 38.07 57.94 38.07Z" fill="black"/>
<path d="M53.74 20.1199C52.17 20.1199 50.63 20.1199 49.04 20.1199C49.52 18.0199 50 15.9399 50.48 13.8599C51.73 13.8599 52.95 13.8599 54.22 13.8599C54.06 15.9499 53.9 18.0199 53.74 20.1199Z" fill="black"/>
<path d="M61.24 20.1198C59.68 20.1198 58.13 20.1198 56.56 20.1198C56.4 18.0298 56.24 15.9598 56.08 13.8498C56.4 13.8498 56.68 13.8498 56.96 13.8498C57.8 13.8498 58.64 13.8598 59.48 13.8398C59.72 13.8398 59.83 13.8898 59.89 14.1598C60.32 16.1098 60.78 18.0498 61.23 19.9898C61.24 20.0198 61.23 20.0498 61.24 20.1198Z" fill="black"/>
</g>
<defs>
<clipPath id="clip0_259_1030">
<rect width="191.49" height="132.74" fill="white"/>
</clipPath>
</defs>
</svg>
