<svg width="194" height="144" viewBox="0 0 194 144" fill="none" xmlns="http://www.w3.org/2000/svg">
<g clip-path="url(#clip0_259_1116)">
<path fill-rule="evenodd" clip-rule="evenodd" d="M128.01 120.81C128.01 120.81 122.72 98.2797 110.23 89.5697C99.16 81.8497 83.36 73.5197 52.82 75.3797C24.93 77.0797 16.13 94.9997 13.28 100.35C0 125.3 0 144.19 0 144.19H130.37L128.01 120.81Z" fill="#802A84"/>
<path d="M26.02 132.53C25.33 135.99 24.73 139.47 24.24 142.97C24.17 143.45 24.36 143.93 24.87 144.07C25.29 144.19 25.91 143.93 25.97 143.44C26.46 139.94 27.06 136.46 27.75 133C27.98 131.88 26.25 131.4 26.02 132.53Z" fill="#2D2D2D"/>
<path fill-rule="evenodd" clip-rule="evenodd" d="M192.23 78.6199C188.19 76.9199 180.42 84.1899 178.9 84.4399C177.38 84.6899 167.52 84.7499 167.52 84.7499C172.85 78.7199 171.59 72.8299 167.66 72.5499C164.47 72.3199 164.43 76.6199 161.63 79.2799C159.76 81.0599 154.94 80.6799 149.89 85.3099C145.69 89.1599 141.58 100.65 140.08 104.65L128.75 130.96L122.59 144.19L148.64 144.05C152.94 128.64 157.13 110.82 157.13 110.82L158.15 105.36C158.15 105.36 160.66 106.72 167.01 106.12C172.32 105.61 175.02 100.97 175.02 100.97C179.32 101.81 181.26 96.4099 181.26 96.4099C183.79 96.9199 187.5 95.1399 188.6 93.6299C189.7 92.1099 191.81 89.8999 193.15 88.1499C194.84 85.9599 193.07 83.8499 193.07 83.8499C193.07 83.8499 195.43 79.9699 192.23 78.6199Z" fill="#CF806F"/>
<path d="M165.5 84.8399C165.32 85.3199 164.96 85.9799 164.57 86.5099C164.48 86.6299 164.57 86.5199 164.51 86.5799C164.46 86.6399 164.41 86.6999 164.36 86.7599C164.25 86.8899 164.13 87.0199 164.01 87.1399C163.77 87.3899 163.51 87.6199 163.24 87.8299C163.17 87.8799 163.28 87.7999 163.16 87.8899C163.08 87.9399 163.01 87.9999 162.93 88.0499C162.8 88.1399 162.67 88.2199 162.53 88.2999C162.24 88.4799 161.93 88.6399 161.61 88.7699C161.72 88.7199 161.57 88.7899 161.53 88.7999C161.46 88.8299 161.38 88.8599 161.31 88.8799C161.13 88.9399 160.95 88.9999 160.77 89.0499C160.62 89.0899 160.47 89.1299 160.31 89.1599C160.22 89.1799 160.13 89.1899 160.03 89.2099C159.84 89.2499 160.12 89.1999 159.9 89.2299C159.41 89.2899 158.98 89.6099 158.98 90.1499C158.98 90.5999 159.4 91.1299 159.9 91.0699C163.22 90.6799 166.07 88.4699 167.25 85.3299C167.42 84.8599 167.06 84.3199 166.61 84.1999C166.11 84.0499 165.67 84.3699 165.5 84.8399Z" fill="black"/>
<path d="M160.51 95.74C163.08 95.67 165.57 96.44 167.67 97.93C168.08 98.22 168.69 98 168.93 97.6C169.2 97.14 169.01 96.63 168.6 96.34C166.26 94.68 163.38 93.83 160.52 93.9C159.33 93.93 159.33 95.77 160.51 95.74Z" fill="black"/>
<path d="M168.99 99.3499C169.3 97.7399 169.82 96.1899 170.46 94.6799C170.97 93.4799 171.58 92.1499 172.66 91.3599C173.43 90.7999 174.71 90.5299 175.51 91.1899C176.58 92.0599 175.91 93.7899 175.53 94.8299C174.84 96.6899 174.38 98.5599 174.17 100.53C174.12 101.02 174.63 101.45 175.09 101.45C175.63 101.45 175.96 101.03 176.01 100.53C176.21 98.5599 176.81 96.7499 177.46 94.8899C178.03 93.2699 178.24 91.1699 176.82 89.8999C175.7 88.8999 174.02 88.7499 172.65 89.2899C171.07 89.9199 170.01 91.3399 169.29 92.8199C168.36 94.7199 167.62 96.7699 167.21 98.8499C167.11 99.3399 167.35 99.8399 167.85 99.9799C168.31 100.11 168.89 99.8399 168.99 99.3499Z" fill="black"/>
<path d="M177.08 90.4396C177.77 89.1796 178.77 88.1096 180.03 87.3896C181.02 86.8196 182.89 86.2896 183.59 87.6096C184.23 88.8196 183.09 90.4596 182.5 91.4696C181.7 92.8296 180.86 94.1796 180.43 95.7196C180.11 96.8596 181.89 97.3496 182.2 96.2096C182.58 94.8296 183.36 93.6196 184.09 92.3996C184.82 91.1596 185.62 89.7796 185.6 88.2896C185.58 86.7696 184.57 85.5596 183.14 85.1196C181.66 84.6596 180.08 85.1896 178.82 85.9796C177.44 86.8596 176.29 88.0796 175.51 89.5096C174.92 90.5496 176.51 91.4696 177.08 90.4396Z" fill="black"/>
<path d="M185.52 87.6997C186.44 86.5497 187.43 85.2797 188.81 84.6597C189.96 84.1497 191.44 83.9097 192.4 84.9297C193.21 85.7897 194.51 84.4897 193.7 83.6297C192.33 82.1797 190.22 82.1497 188.46 82.8297C186.66 83.5297 185.39 84.9097 184.21 86.3997C183.9 86.7897 183.83 87.3197 184.21 87.6997C184.54 88.0197 185.21 88.0897 185.52 87.6997Z" fill="black"/>
<path d="M154.49 104.22C155.97 105.5 157.8 106.25 159.75 106.38C160.23 106.41 160.69 105.94 160.67 105.46C160.65 104.94 160.27 104.57 159.75 104.54C159.65 104.53 159.55 104.53 159.44 104.52C159.39 104.51 159.34 104.51 159.29 104.5C159.41 104.52 159.41 104.52 159.31 104.5C159.11 104.47 158.91 104.43 158.71 104.38C158.32 104.29 157.95 104.16 157.58 104.02C157.52 103.99 157.53 104 157.62 104.04C157.57 104.02 157.53 104 157.48 103.98C157.39 103.94 157.29 103.89 157.2 103.85C157.02 103.76 156.84 103.66 156.66 103.55C156.48 103.44 156.31 103.33 156.15 103.21C156.11 103.18 156.07 103.15 156.03 103.12C156.11 103.19 156.12 103.19 156.03 103.12C155.95 103.05 155.87 102.99 155.79 102.92C155.43 102.61 154.84 102.54 154.49 102.92C154.18 103.27 154.11 103.89 154.49 104.22Z" fill="black"/>
<path d="M108.43 134.16C108.47 137 108.52 139.85 108.56 142.69C108.58 143.84 110.37 143.85 110.36 142.69C110.32 139.85 110.27 137 110.23 134.16C110.21 133 108.41 133 108.43 134.16Z" fill="#2D2D2D"/>
<path d="M45.14 26.3296C45.14 26.3296 43.53 21.7296 40.19 19.4196C35.12 15.9196 27.2 14.3896 20.11 21.7696C14.3 27.8396 15.55 41.9996 22.97 61.8996C27.23 73.3096 24.18 83.1896 24.18 83.1896C24.18 83.1896 37.28 78.4296 42.47 64.4896C45.38 56.6496 45.14 26.3296 45.14 26.3296Z" fill="black"/>
<path d="M98.95 27.2697C98.95 27.2697 104.54 55.9297 99.14 67.8397C93.74 79.7397 87.13 85.9997 66.69 83.2197C53.82 81.4697 48.28 78.7497 48.28 78.7497L47.73 67.9997L49.6 31.1297L78.27 18.4297L98.95 27.2697Z" fill="#CF806F"/>
<path d="M48.03 64.1396L46.52 80.6497C46.52 80.6497 47.58 89.7897 59.14 94.9797C60.37 95.5297 61.56 96.0097 62.72 96.4097C70.71 99.2397 79.37 94.3496 79.97 86.6996L81.08 72.5696L48.03 64.1396Z" fill="#CF806F"/>
<path d="M49.5 33.6398C49.5 33.6398 65.81 30.6898 72.53 25.6298C78.42 21.1998 79 19.8598 79 19.8598C79 19.8598 91.43 31.4398 102.36 26.6998C107.38 24.5298 107.9 20.6998 107.9 20.6998C107.9 20.6998 99.85 16.6898 96.72 12.6898C89.89 3.96978 78.2 -2.42022 64.06 0.889784C38.91 6.76978 37.08 26.4798 37.08 26.4798C37.08 26.4798 29.23 29.0698 31.11 43.8498C33.6 63.5098 47.73 67.9998 47.73 67.9998L49.5 33.6398Z" fill="black"/>
<path d="M51.38 48.9697C51.38 48.9697 50.59 46.9097 48.7 45.3997C47.03 44.0697 44.46 43.1897 41.56 44.4097C35.55 46.9497 36.79 53.8797 39.98 58.1597C43.16 62.4497 50.51 60.4797 50.51 60.4797L51.38 48.9697Z" fill="#CF806F"/>
<path d="M58.03 25.6699C58.03 25.6699 61.22 49.8299 57.79 51.4799C54.26 53.1899 51.38 48.9699 51.38 48.9699C51.38 48.9699 50.18 46.1199 47.86 44.8199L47.9 30.0099L58.03 25.6699Z" fill="black"/>
<path d="M95.84 39.8596C96.78 38.6496 96.15 34.5396 90.45 35.6696C86.3 36.4896 84.78 38.3196 85.65 40.8896C86.35 42.9596 89.32 41.8296 91.49 41.3496C93.64 40.8796 94.99 40.9596 95.84 39.8596Z" fill="white"/>
<path d="M65.47 45.62C64.42 44.97 63.68 40.65 69.65 39.7C73.99 39.01 76.88 40.39 76.13 43.5C75.68 45.38 73.34 45.2 71.04 45.51C68.77 45.83 67.1 46.64 65.47 45.62Z" fill="white"/>
<path d="M100.09 23.6599C100.9 29.4599 101.58 35.2799 102.13 41.0999C102.95 49.6599 104.29 58.9699 101.45 67.2799C99.32 73.5299 94.91 80.3899 88.74 83.2899C79.8 87.4999 68.5 85.8099 59.26 83.5799C57.02 83.0399 58.2 79.6499 60.43 80.1899C69 82.2599 81.56 84.3899 89.29 78.8499C95.28 74.5499 98.94 66.3499 99.45 59.1899C100.26 47.7699 98.14 35.6999 96.56 24.3899C96.26 22.1099 99.77 21.3699 100.09 23.6599Z" fill="black"/>
<path d="M68.64 58.0996C68.64 58.2496 68.64 58.4096 68.63 58.5596C68.62 58.6396 68.56 58.7896 68.63 58.5796C68.61 58.6396 68.61 58.7196 68.6 58.7696C68.57 58.9196 68.53 59.0696 68.49 59.2096C68.45 59.3296 68.37 59.4596 68.36 59.5796C68.41 59.4596 68.42 59.4496 68.37 59.5396C68.36 59.5596 68.35 59.5796 68.34 59.5996C68.31 59.6696 68.27 59.7396 68.24 59.7996C68.17 59.9296 68.1 60.0496 68.02 60.1696C67.98 60.2296 67.95 60.2796 67.91 60.3296C67.88 60.3696 67.86 60.3996 67.83 60.4396C67.9 60.3496 67.91 60.3296 67.87 60.3796C67.78 60.4896 67.69 60.5996 67.59 60.6996C67.5 60.7996 67.4 60.8896 67.3 60.9696C67.24 61.0196 67.18 61.0696 67.12 61.1196C67.07 61.1596 67.09 61.1496 67.18 61.0796C67.14 61.1096 67.11 61.1296 67.07 61.1596C66.84 61.3296 66.59 61.4696 66.33 61.5896C66.31 61.5996 66.29 61.6096 66.27 61.6196C66.18 61.6596 66.19 61.6596 66.31 61.5996C66.27 61.5996 66.17 61.6596 66.13 61.6696C65.99 61.7196 65.84 61.7596 65.69 61.7996C65.63 61.8196 65.56 61.8296 65.5 61.8396C65.42 61.8496 65.28 61.9196 65.48 61.8496C65.35 61.8996 65.15 61.8796 65.02 61.8796C64.54 61.8896 64.08 62.2996 64.1 62.7996C64.12 63.2896 64.5 63.7196 65.02 63.7196C67.95 63.6796 70.54 61.0396 70.47 58.0896C70.46 57.6096 70.06 57.1496 69.55 57.1696C69.07 57.2096 68.63 57.5896 68.64 58.0996Z" fill="black"/>
<path d="M73.36 70.7597C75.1 71.9897 77.5 72.0797 79.36 71.0897C79.78 70.8597 79.95 70.2397 79.69 69.8297C79.41 69.3997 78.89 69.2597 78.43 69.4997C78.34 69.5497 78.25 69.5897 78.15 69.6397C78.07 69.6797 78.08 69.6697 78.16 69.6397C78.11 69.6597 78.06 69.6797 78.01 69.6897C77.82 69.7597 77.62 69.8197 77.41 69.8597C77.31 69.8797 77.21 69.8997 77.1 69.9097C77.3 69.8797 77.03 69.9097 76.96 69.9197C76.74 69.9297 76.52 69.9297 76.3 69.9197C76.25 69.9197 76.2 69.9097 76.15 69.9097C76.13 69.9097 75.96 69.8897 76.08 69.8997C76.2 69.9197 76.03 69.8897 76.01 69.8897C75.96 69.8797 75.91 69.8697 75.86 69.8597C75.66 69.8197 75.46 69.7597 75.26 69.6997C75.21 69.6797 75.16 69.6697 75.11 69.6497C75.09 69.6397 74.94 69.5797 75.04 69.6197C75.14 69.6597 74.99 69.5997 74.97 69.5897C74.92 69.5697 74.88 69.5397 74.83 69.5197C74.63 69.4197 74.45 69.2997 74.27 69.1697C73.88 68.8897 73.23 69.0897 73.01 69.4997C72.78 69.9797 72.94 70.4697 73.36 70.7597Z" fill="black"/>
<path d="M68.48 62.8596C72.29 67.2896 78.55 68.5696 83.86 66.2296C84.94 65.7596 84.01 64.1696 82.93 64.6496C78.34 66.6596 73.01 65.3196 69.78 61.5596C69.01 60.6696 67.71 61.9696 68.48 62.8596Z" fill="black"/>
<path d="M74.76 31.3198C70.46 29.9598 65.57 31.8498 63.16 35.6098C62.64 36.4198 62.97 37.6698 63.82 38.1198C64.73 38.5998 65.78 38.3298 66.33 37.4598C66.39 37.3698 66.45 37.2698 66.51 37.1798C66.53 37.1398 66.56 37.1098 66.59 37.0698C66.67 36.9598 66.64 36.9998 66.5 37.1798C66.61 37.1498 66.8 36.8198 66.89 36.7298C67.04 36.5698 67.2 36.4098 67.36 36.2598C67.44 36.1898 67.8 35.9698 67.81 35.8698C67.63 36.0098 67.59 36.0398 67.7 35.9598C67.74 35.9298 67.77 35.9098 67.81 35.8798C67.9 35.8198 67.99 35.7498 68.08 35.6898C68.27 35.5698 68.46 35.4598 68.65 35.3498C68.83 35.2498 69 35.1698 69.18 35.0798C69.42 34.9698 69.32 34.9598 69.17 35.0798C69.24 35.0198 69.39 34.9898 69.48 34.9598C69.88 34.8198 70.28 34.7098 70.7 34.6298C70.79 34.6098 70.87 34.5998 70.96 34.5798C71.39 34.4998 70.68 34.5998 70.93 34.5798C71.15 34.5598 71.37 34.5398 71.59 34.5298C71.96 34.5198 72.49 34.4598 72.84 34.5798C72.65 34.5098 72.55 34.5398 72.81 34.5798C72.92 34.5998 73.03 34.6198 73.13 34.6498C73.35 34.6998 73.56 34.7598 73.77 34.8298C74.69 35.1198 75.81 34.4898 76.03 33.5498C76.27 32.5798 75.74 31.6298 74.76 31.3198Z" fill="black"/>
<path d="M87.39 32.4297C87.67 32.2297 87.96 32.0397 88.27 31.8797C88.36 31.8297 88.45 31.7897 88.54 31.7497C88.77 31.6397 88.52 31.7897 88.44 31.7897C88.6 31.7797 88.8 31.6597 88.96 31.6097C89.29 31.5097 89.64 31.4797 89.97 31.3897C89.88 31.4197 89.59 31.4297 89.85 31.4097C89.95 31.3997 90.05 31.3897 90.15 31.3897C90.33 31.3797 90.52 31.3797 90.7 31.3797C90.86 31.3797 91.03 31.3897 91.19 31.4097C91.26 31.4197 91.62 31.4597 91.31 31.4197C91.02 31.3897 91.31 31.4197 91.37 31.4297C91.71 31.4897 92.05 31.5797 92.37 31.6897C92.47 31.7197 92.56 31.7597 92.66 31.7897C92.89 31.8697 92.34 31.6397 92.56 31.7497C92.72 31.8297 92.89 31.9097 93.05 31.9897C93.19 32.0697 93.33 32.1497 93.47 32.2397C93.55 32.2997 93.64 32.3597 93.72 32.4097C93.92 32.5397 93.37 32.1297 93.69 32.3897C94.43 32.9997 95.57 33.1697 96.28 32.3897C96.9 31.7197 97.07 30.4497 96.28 29.7997C94.72 28.5097 92.86 27.7897 90.83 27.7097C88.99 27.6397 87.04 28.1697 85.55 29.2597C84.78 29.8197 84.32 30.8797 84.89 31.7697C85.37 32.5397 86.56 33.0397 87.39 32.4297Z" fill="black"/>
<path d="M73.82 45.2198C76.18 45.2198 76.19 41.5498 73.82 41.5498C71.46 41.5498 71.45 45.2198 73.82 45.2198Z" fill="black"/>
<path d="M93.59 41.0499C95.95 41.0499 95.96 37.3799 93.59 37.3799C91.22 37.3799 91.22 41.0499 93.59 41.0499Z" fill="black"/>
<path d="M43.52 50.9698C43.59 50.9398 43.66 50.9198 43.73 50.8998C43.78 50.8898 43.83 50.8798 43.88 50.8698C43.77 50.8798 43.76 50.8898 43.83 50.8798C43.91 50.8798 43.99 50.8698 44.06 50.8798C44.29 50.8898 43.99 50.8398 44.17 50.8898C44.25 50.9098 44.33 50.9298 44.4 50.9498C44.44 50.9598 44.66 51.0498 44.48 50.9698C44.63 51.0398 44.76 51.1198 44.9 51.2098C45.07 51.3198 44.83 51.1298 44.96 51.2598C45.01 51.3098 45.07 51.3698 45.12 51.4198C45.26 51.5598 45.08 51.3298 45.17 51.4798C45.22 51.5598 45.27 51.6398 45.32 51.7198C45.33 51.7498 45.44 51.9598 45.4 51.8698C45.36 51.7898 45.46 52.0398 45.47 52.0698C45.52 52.2298 45.56 52.3898 45.58 52.5598C45.55 52.3598 45.58 52.6198 45.58 52.6498C45.58 52.7298 45.59 52.8098 45.58 52.8998C45.58 52.9798 45.57 53.0598 45.57 53.1398C45.56 53.3598 45.61 53.0198 45.56 53.1998C45.53 53.2898 45.52 53.3698 45.49 53.4598C45.48 53.4998 45.46 53.5298 45.45 53.5698C45.49 53.4898 45.49 53.4698 45.46 53.5298C45.36 53.6798 45.29 53.8398 45.18 53.9898C45.27 53.8598 45.14 54.0398 45.11 54.0698C45.05 54.1298 44.99 54.1998 44.93 54.2598C44.87 54.3198 44.8 54.3798 44.74 54.4298C44.54 54.5998 44.87 54.3498 44.66 54.4898C44.52 54.5798 44.38 54.6598 44.23 54.7298C44.42 54.6498 44.16 54.7498 44.12 54.7598C44.03 54.7798 43.95 54.7998 43.86 54.8098C43.38 54.8798 43.08 55.5098 43.22 55.9398C43.39 56.4598 43.84 56.6598 44.35 56.5798C45.34 56.4298 46.2 55.7098 46.77 54.9198C47.38 54.0798 47.52 53.0798 47.36 52.0798C47.2 51.0798 46.67 50.1898 45.84 49.6198C45.06 49.0898 43.94 48.8398 43.04 49.1998C42.6 49.3798 42.23 49.8198 42.4 50.3298C42.53 50.7598 43.04 51.1598 43.52 50.9698Z" fill="black"/>
<path d="M75.27 51.9799C75.83 53.4199 76.7 55.09 78.34 55.45C79.3 55.66 80.29 55.42 80.99 54.7C81.57 54.1 81.91 53.28 82.04 52.47C82.12 52 81.92 51.4599 81.4 51.3399C80.96 51.2399 80.35 51.4699 80.27 51.9799C80.22 52.2899 80.13 52.5699 80.04 52.8699C80.11 52.6599 80.04 52.8699 80.02 52.9099C79.99 52.9699 79.96 53.0299 79.92 53.0999C79.88 53.1699 79.83 53.2299 79.79 53.2999C79.75 53.3499 79.76 53.3399 79.83 53.2499C79.81 53.2799 79.79 53.3 79.76 53.33C79.71 53.39 79.65 53.4399 79.59 53.4999C79.46 53.6299 79.73 53.42 79.56 53.52C79.5 53.56 79.44 53.5899 79.39 53.6199C79.23 53.7199 79.54 53.5899 79.35 53.6399C79.32 53.6499 79.05 53.7099 79.17 53.6899C79.29 53.6699 79.05 53.6899 79.02 53.6899C78.97 53.6899 78.7 53.6399 78.91 53.6899C78.83 53.6699 78.75 53.66 78.68 53.63C78.66 53.62 78.41 53.53 78.6 53.61C78.53 53.58 78.46 53.5399 78.39 53.4999C78.34 53.4699 78.22 53.4199 78.19 53.3699C78.29 53.4499 78.3 53.46 78.23 53.4C78.21 53.38 78.19 53.3599 78.17 53.3499C78.08 53.2699 77.98 53.16 77.91 53.06C78.03 53.26 77.92 53.0699 77.89 53.0299C77.85 52.9699 77.81 52.91 77.77 52.86C77.6 52.6 77.45 52.3299 77.3 52.0499C77.24 51.9299 77.18 51.8099 77.12 51.6899C77.11 51.6699 77.07 51.53 77.05 51.52C77.1 51.65 77.11 51.67 77.08 51.58C77.07 51.55 77.05 51.52 77.04 51.49C76.87 51.04 76.42 50.6899 75.91 50.8499C75.48 50.9899 75.09 51.4999 75.27 51.9799Z" fill="black"/>
<path d="M80.45 52.2697C80.92 53.7197 82.2 54.6597 83.75 54.5397C85.31 54.4197 86.27 52.9897 86.23 51.4797C86.2 50.5997 85.86 49.7397 85.58 48.9197C85.29 48.0897 84.99 47.2597 84.68 46.4397C84.03 44.7197 83.33 43.0097 82.61 41.3197C82.42 40.8697 81.74 40.7597 81.35 40.9897C80.88 41.2697 80.83 41.7897 81.02 42.2497C82.06 44.6997 83.05 47.1797 83.9 49.6997C84.16 50.4497 84.85 51.9697 84 52.6097C83.74 52.8097 83.25 52.7397 82.97 52.6297C82.57 52.4797 82.35 52.1797 82.22 51.7897C81.86 50.6597 80.09 51.1397 80.45 52.2697Z" fill="black"/>
<path fill-rule="evenodd" clip-rule="evenodd" d="M118.36 46.4701C118.36 46.4701 112.03 39.0201 112.59 28.4302C112.58 27.6102 112.59 26.7702 112.64 25.9102C113.75 5.20015 143.39 -8.95985 161.05 9.79015C178.7 28.5101 161.21 62.2901 132.37 55.7101C130.92 55.3801 129.04 54.7201 127.01 53.6502C124.85 55.3801 121.03 57.2701 115.77 55.5101C114.66 55.1401 114.35 53.7001 115.22 52.9201C117.37 50.9801 118.36 46.4701 118.36 46.4701Z" fill="white"/>
<path fill-rule="evenodd" clip-rule="evenodd" d="M185.71 57.2602L185.06 76.5702C185.01 78.1302 183.5 79.2002 182.01 78.7502C178.46 77.6802 174.1 76.6902 167.97 79.6302C159.95 83.6102 152.38 84.3902 146.36 82.5202C145.36 82.2102 144.7 81.2602 144.72 80.2102L145.09 63.2502C145.12 61.7302 146.55 60.6602 148.03 61.0002C150.87 61.6702 155.21 62.2502 158.07 60.6002C162.53 58.0302 169.23 47.5402 184.44 55.0802C185.25 55.4802 185.73 56.3502 185.71 57.2602Z" fill="#1B5229"/>
<path fill-rule="evenodd" clip-rule="evenodd" d="M188.63 60.5903L187.98 79.9003C187.93 81.4603 186.42 82.5303 184.93 82.0803C181.39 81.0103 177.02 80.0203 170.89 82.9603C162.87 86.9403 155.3 87.7203 149.28 85.8503C148.28 85.5403 147.62 84.5903 147.64 83.5403L148.01 66.5803C148.04 65.0603 149.47 63.9903 150.95 64.3303C153.79 65.0003 158.13 65.5803 160.99 63.9303C165.45 61.3603 172.15 50.8703 187.36 58.4103C188.17 58.8103 188.66 59.6803 188.63 60.5903Z" fill="#0AA64B"/>
<path fill-rule="evenodd" clip-rule="evenodd" d="M165.15 85.2902C159.81 84.8602 155.61 80.6802 155.1 74.6202C154.82 71.2102 155.72 67.7802 157.51 64.9402C157.59 64.9302 157.66 64.9202 157.74 64.9102C157.88 64.8902 158.01 64.8802 158.15 64.8602C158.3 64.8402 158.45 64.8102 158.6 64.7902C158.78 64.7502 158.96 64.7102 159.13 64.6702C159.3 64.6302 159.46 64.5802 159.63 64.5202C159.75 64.4802 159.87 64.4402 159.99 64.4002C160.13 64.3502 160.27 64.2902 160.41 64.2302C160.45 64.2102 160.5 64.1902 160.54 64.1702C160.71 64.0902 160.88 64.0202 161.04 63.9302C163.22 62.6702 165.95 59.4602 170 57.4702C175.73 57.5202 180.33 61.8302 180.86 68.2002C181.29 73.0002 179.25 77.8402 175.86 81.1202C175.79 81.1902 175.75 81.2602 175.69 81.3402C174.22 81.6302 172.64 82.1402 170.91 82.9702C168.94 83.9302 167.02 84.7002 165.15 85.2902Z" fill="#0D7B3E"/>
<path fill-rule="evenodd" clip-rule="evenodd" d="M168.47 77.47C171.66 76.67 174 73.32 173.74 69.97C173.46 66.61 170.63 64.55 167.46 65.34C164.29 66.13 161.94 69.49 162.21 72.85C162.49 76.19 165.3 78.26 168.47 77.47Z" fill="#0AA64B"/>
<path d="M150.22 40.7402H130.46C128.6 40.7402 127.09 39.2302 127.09 37.3702V17.6102C127.09 15.7502 128.6 14.2402 130.46 14.2402H150.22C152.08 14.2402 153.59 15.7502 153.59 17.6102V37.3702C153.6 39.2302 152.09 40.7402 150.22 40.7402Z" fill="black"/>
<path d="M136.12 21.9102H141.19C143.82 21.9102 145.48 23.4502 145.48 25.9902C145.48 28.5502 143.85 30.0502 141.15 30.0502H138.73V34.2702H136.12V21.9102ZM141.12 27.6502C142.16 27.6502 142.87 27.0102 142.87 25.9702C142.87 24.8402 142.27 24.2902 141.14 24.2902H138.74V27.6502H141.12Z" fill="#F6F8F9"/>
<path d="M147.84 37.5404H132.85C131.44 37.5404 130.29 36.3904 130.29 34.9804V20.0004C130.29 18.5904 131.44 17.4404 132.85 17.4404H147.84C149.25 17.4404 150.4 18.5904 150.4 20.0004V34.9904C150.4 36.4004 149.25 37.5404 147.84 37.5404Z" stroke="#F6F8F9" stroke-width="1.2008" stroke-miterlimit="10"/>
</g>
<defs>
<clipPath id="clip0_259_1116">
<rect width="193.96" height="144.19" fill="white"/>
</clipPath>
</defs>
</svg>
