<svg width="192" height="150" viewBox="0 0 192 150" fill="none" xmlns="http://www.w3.org/2000/svg">
<g clip-path="url(#clip0_259_633)">
<path d="M15.52 143.48C6.12 140.49 -2.08 127.82 0.480003 111.39C4.43 86.0499 32.76 53.1299 55.89 45.8399C80.65 38.0399 99.37 36.7899 116.2 42.1599C145.39 51.4799 168.58 66.8499 178.52 98.8299C185.72 121.99 185.97 125.81 179.63 136.61C174.42 145.48 150.89 149.45 150.89 149.45L30.47 149.71L31.31 140.98C31.3 140.98 26.87 147.1 15.52 143.48Z" fill="#E7E6E6"/>
<path d="M120.61 42.4399L113.3 43.0099L97.67 78.3899C97.67 78.3899 102.35 86.4399 112.4 84.9499C122.46 83.4599 122.22 69.6299 122.54 63.3499C123.01 54.3199 120.61 42.4399 120.61 42.4399Z" fill="#A1A2A2"/>
<path d="M68.95 67.01C68.84 73.07 70.09 82.67 77.98 84.61C85.87 86.55 91.12 81.3 91.12 81.3L85.98 64.73L68.95 67.01Z" fill="#A1A2A2"/>
<path d="M124.51 33.4699C124.51 33.4699 126.32 22.3699 120.24 12.8799C113.77 2.77991 103.14 -1.14009 87.44 1.03991C71.74 3.21991 65.31 14.6099 62.6 24.7899L105.39 31.7899L102.56 49.9699L112.68 49.8499L124.51 33.4699Z" fill="black"/>
<path d="M114.81 38.1898C114.81 38.1898 116.36 31.1598 120.69 30.3198C125.02 29.4798 126.6 32.3798 126.02 37.3498C125.44 42.3198 121.8 47.1898 116.7 45.8698C116.7 45.8698 114.63 53.3998 112.05 59.2998C108.67 67.0198 103.44 76.0498 93.49 85.3798L84.85 78.7998C84.85 78.7998 69 78.7598 61.39 63.7898C53.78 48.8198 63.49 24.8398 63.49 24.8398C63.49 24.8398 66.28 16.7698 72.24 14.2798C78.2 11.7898 77.24 15.7998 81.13 17.4498C85 19.0998 93.77 15.7498 96.9 13.2298C100.03 10.7098 104.96 11.5398 106.96 14.1898C108.96 16.8398 108.47 20.5798 107.07 23.3998C105.67 26.2198 109.44 28.8298 109.57 30.5298C109.7 32.2298 108.25 38.6298 106.66 44.4198C105.07 50.2098 106.61 50.1698 109.67 49.5298C112.75 48.8998 112.67 45.2598 114.81 38.1898Z" fill="#F4A5AB"/>
<path d="M83.64 41.9897C83.62 42.0997 83.59 42.1997 83.55 42.2997C83.49 42.4597 83.52 42.3097 83.56 42.2897C83.55 42.2897 83.49 42.4397 83.48 42.4497C83.45 42.4997 83.42 42.5497 83.39 42.5997C83.38 42.6197 83.28 42.7597 83.35 42.6597C83.42 42.5597 83.32 42.6897 83.3 42.7097C83.26 42.7497 83.22 42.7997 83.18 42.8397C83.14 42.8697 83.11 42.9097 83.07 42.9397C82.94 43.0497 83.05 42.9297 83.08 42.9397C83.06 42.9297 82.83 43.0997 82.8 43.1097C82.77 43.1297 82.71 43.1697 82.67 43.1797C82.77 43.1397 82.79 43.1297 82.73 43.1497C82.7 43.1597 82.67 43.1697 82.65 43.1797C82.6 43.1997 82.56 43.2097 82.51 43.2197C82.49 43.2297 82.27 43.2697 82.37 43.2497C82.48 43.2297 82.28 43.2497 82.25 43.2497C82.23 43.2497 82.07 43.2297 82.06 43.2397C82.1 43.2097 82.24 43.2697 82.08 43.2397C82.03 43.2297 81.99 43.2197 81.94 43.1997C81.9 43.1897 81.82 43.1397 81.77 43.1397C81.85 43.1397 81.9 43.1997 81.78 43.1397C81.74 43.1197 81.69 43.0897 81.65 43.0697C81.61 43.0497 81.44 42.9597 81.63 43.0597C81.55 43.0197 81.47 42.9297 81.41 42.8597C81.37 42.8197 81.32 42.7697 81.29 42.7297C81.37 42.8997 81.31 42.7497 81.28 42.7097C81.24 42.6497 81.14 42.5297 81.14 42.4497C81.18 42.5497 81.19 42.5697 81.17 42.5097C81.16 42.4797 81.15 42.4497 81.14 42.4297C81.12 42.3697 81.11 42.3197 81.09 42.2597C80.99 41.8397 80.48 41.5497 80.07 41.6797C79.63 41.8197 79.38 42.2497 79.49 42.6997C79.79 43.9997 81.07 45.0397 82.43 44.8997C83.77 44.7597 84.96 43.7597 85.24 42.4097C85.33 41.9897 85.12 41.4897 84.66 41.3897C84.24 41.3197 83.73 41.5397 83.64 41.9897Z" fill="black"/>
<path d="M79.58 42.05C79.45 42.27 79.3 42.49 79.16 42.7C79.11 42.78 79.25 42.6 79.15 42.72C79.11 42.77 79.06 42.82 79.02 42.87C78.97 42.92 78.93 42.97 78.88 43.01C78.86 43.03 78.72 43.14 78.81 43.07C78.9 43 78.75 43.11 78.73 43.12C78.67 43.16 78.6 43.19 78.54 43.23C78.67 43.16 78.47 43.25 78.45 43.26C78.38 43.28 78.3 43.31 78.23 43.33C78.1 43.36 77.98 43.39 77.85 43.41C77.66 43.45 77.94 43.41 77.76 43.42C77.68 43.42 77.61 43.42 77.53 43.42C77.37 43.42 77.57 43.44 77.5 43.42C77.44 43.4 77.38 43.38 77.32 43.37C77.23 43.35 77.45 43.44 77.32 43.37C77.27 43.34 77.21 43.31 77.16 43.28C76.99 43.18 77.27 43.39 77.13 43.26C77.09 43.22 77.05 43.19 77.02 43.15C77 43.13 76.88 42.97 76.94 43.07C77.01 43.17 76.91 43.02 76.9 43C76.87 42.95 76.84 42.89 76.81 42.84C76.89 42.99 76.8 42.8 76.79 42.77C76.77 42.71 76.76 42.65 76.74 42.59C76.72 42.51 76.72 42.44 76.73 42.56C76.72 42.41 76.72 42.27 76.73 42.12C76.74 41.94 76.69 42.24 76.74 42.05C76.76 41.98 76.77 41.91 76.79 41.84C76.9 41.42 76.65 40.92 76.21 40.82C75.77 40.72 75.31 40.95 75.19 41.4C74.97 42.19 75.02 43.07 75.43 43.79C75.78 44.42 76.43 44.92 77.15 45.04C77.95 45.17 78.95 44.97 79.63 44.52C80.24 44.11 80.65 43.51 81.02 42.88C81.24 42.51 81.12 41.95 80.72 41.75C80.31 41.54 79.82 41.65 79.58 42.05Z" fill="black"/>
<path d="M76.79 41.6298C76.99 38.8098 77.81 36.0798 78.61 33.3798C78.91 32.3498 77.31 31.9198 77.01 32.9398C76.17 35.7898 75.35 38.6598 75.13 41.6298C75.1 42.0798 75.53 42.4598 75.96 42.4598C76.44 42.4598 76.76 42.0798 76.79 41.6298Z" fill="black"/>
<path d="M98 24.3998C96.75 22.7698 95.01 21.7598 92.95 21.5798C91 21.4098 89 22.2298 87.64 23.6098C87.12 24.1298 87.08 25.0898 87.64 25.6098C88.2 26.1298 89.08 26.1698 89.64 25.6098C89.76 25.4898 89.89 25.3698 90.02 25.2598C90.1 25.1898 90.16 25.1598 90.04 25.2398C90.11 25.1898 90.18 25.1398 90.25 25.0898C90.41 24.9798 90.58 24.8898 90.75 24.7998C90.83 24.7598 90.9 24.7298 90.98 24.6898C91.17 24.5998 90.8 24.7398 91 24.6798C91.33 24.5798 91.66 24.4898 91.99 24.4098C92.2 24.3598 91.78 24.4198 92 24.4098C92.09 24.4098 92.17 24.3998 92.26 24.3898C92.45 24.3798 92.65 24.3798 92.84 24.3898C92.92 24.3998 93.01 24.3998 93.09 24.4098C92.95 24.3998 92.95 24.3898 93.09 24.4098C93.25 24.4398 93.42 24.4798 93.58 24.5198C93.74 24.5698 93.9 24.6198 94.05 24.6798C93.92 24.6398 93.94 24.6298 94.06 24.6898C94.14 24.7298 94.21 24.7598 94.28 24.7998C94.43 24.8798 94.57 24.9598 94.71 25.0498C94.8 25.1098 94.88 25.1698 94.97 25.2298C95.14 25.3498 94.83 25.0998 94.98 25.2398C95.1 25.3598 95.23 25.4598 95.35 25.5798C95.41 25.6398 95.47 25.6998 95.52 25.7598C95.55 25.7998 95.74 26.0198 95.58 25.8098C96.03 26.3898 96.81 26.7698 97.51 26.3198C98.07 25.9598 98.48 25.0298 98 24.3998Z" fill="black"/>
<path d="M76.49 24.1099C75.12 22.9499 73.41 22.2499 71.6 22.2599C69.79 22.2699 68.09 22.9799 66.73 24.1499C66.17 24.6299 66.2 25.6599 66.73 26.1499C67.33 26.6999 68.13 26.6699 68.73 26.1499C68.79 26.0899 68.86 26.0399 68.93 25.9799C68.81 26.0699 68.82 26.0699 68.95 25.9699C69.09 25.8799 69.23 25.7799 69.38 25.6899C69.51 25.6199 69.64 25.5499 69.78 25.4799C69.84 25.4499 69.9 25.4199 69.95 25.3999C69.81 25.4599 69.82 25.4599 69.97 25.3999C70.3 25.2899 70.62 25.2099 70.96 25.1299C71.26 25.0599 70.76 25.1299 71.09 25.1099C71.26 25.0999 71.43 25.0899 71.6 25.0799C71.77 25.0799 71.94 25.0899 72.11 25.0999C72.52 25.1199 71.84 25.0399 72.24 25.1099C72.58 25.1699 72.91 25.2599 73.23 25.3699C73.3 25.3999 73.59 25.5199 73.37 25.4199C73.53 25.4899 73.68 25.5699 73.83 25.6499C73.98 25.7299 74.12 25.8199 74.27 25.9199C74.34 25.9699 74.41 26.0199 74.48 26.0699C74.36 25.9799 74.37 25.9899 74.49 26.0899C75.05 26.5699 75.94 26.6799 76.49 26.0899C76.97 25.5799 77.1 24.6199 76.49 24.1099Z" fill="black"/>
<path d="M93.27 76.5097C88.21 77.5697 82.69 77.1197 77.75 75.6797C72.77 74.2297 68.19 70.9197 64.73 67.0997C60.57 62.4997 59.27 55.6597 59.25 49.6297C59.24 46.0897 59.72 42.5797 60.38 39.1197C60.85 36.6297 61.3 34.0997 62.03 31.6697C63.54 26.6497 65.54 21.4997 68.36 17.0797C69.34 15.5397 66.9 14.1297 65.92 15.6597C63.13 20.0397 61.18 25.0997 59.59 30.0197C58.81 32.4397 58.33 34.9397 57.84 37.4297C57.13 40.9897 56.56 44.5997 56.45 48.2297C56.25 54.7697 57.44 62.3097 61.51 67.6297C63.35 70.0297 65.65 71.9897 68.07 73.7797C70.25 75.3997 72.43 76.7897 74.98 77.7497C80.89 79.9697 87.84 80.5397 94.02 79.2397C95.8 78.8597 95.05 76.1397 93.27 76.5097Z" fill="black"/>
<path d="M91.33 68.4799C88.43 69.9199 85.04 70.0899 81.99 69.0499C80.98 68.6999 80.54 70.3099 81.55 70.6499C85.03 71.8399 88.88 71.5399 92.17 69.9199C93.12 69.4399 92.28 67.9999 91.33 68.4799Z" fill="black"/>
<path d="M121.99 35C120.43 35.1 118.92 36 118.23 37.42C117.52 38.88 117.63 40.72 118.63 42.03C118.9 42.39 119.35 42.57 119.76 42.33C120.11 42.12 120.33 41.55 120.06 41.2C119.97 41.08 119.89 40.96 119.81 40.83C119.76 40.75 119.73 40.67 119.68 40.6C119.67 40.58 119.62 40.48 119.66 40.55C119.6 40.4 119.55 40.24 119.51 40.09C119.49 40.02 119.48 39.95 119.46 39.87C119.43 39.74 119.45 39.86 119.44 39.78C119.38 39.23 119.44 38.67 119.66 38.26C119.8 38 119.92 37.8 120.05 37.65C120.14 37.54 120.24 37.44 120.35 37.35C120.35 37.35 120.51 37.21 120.46 37.25C120.4 37.29 120.57 37.17 120.58 37.16C120.7 37.08 120.82 37.01 120.94 36.94C121.01 36.9 121.09 36.86 121.17 36.83C121.07 36.87 121.21 36.82 121.25 36.81C121.38 36.76 121.52 36.73 121.66 36.7C121.73 36.69 121.8 36.67 121.87 36.66C121.73 36.68 121.97 36.66 121.99 36.66C122.44 36.63 122.82 36.3 122.82 35.83C122.82 35.4 122.44 34.97 121.99 35Z" fill="black"/>
<path d="M88.77 47.65C87.83 49.69 88.48 52.14 90.3 53.45C90.65 53.7 91.24 53.52 91.43 53.15C91.66 52.72 91.51 52.29 91.13 52.02C91 51.93 91.2 52.08 91.12 52.01C91.08 51.98 91.04 51.94 91 51.91C90.93 51.85 90.86 51.78 90.79 51.71C90.72 51.64 90.66 51.57 90.6 51.5C90.72 51.64 90.62 51.53 90.59 51.49C90.56 51.45 90.53 51.4 90.5 51.36C90.39 51.19 90.3 51.01 90.21 50.83C90.16 50.72 90.28 51.01 90.21 50.82C90.2 50.78 90.18 50.74 90.17 50.7C90.13 50.6 90.1 50.5 90.08 50.39C90.06 50.3 90.03 50.2 90.02 50.11C90.02 50.09 89.99 49.95 89.99 49.95C89.99 49.95 90.01 50.12 90 49.98C89.98 49.78 89.97 49.58 89.99 49.38C89.99 49.33 90 49.27 90 49.22C90.01 49.06 89.98 49.32 90 49.22C90.02 49.13 90.03 49.03 90.06 48.94C90.08 48.84 90.11 48.74 90.15 48.63C90.16 48.59 90.18 48.55 90.19 48.51C90.26 48.31 90.12 48.67 90.21 48.47C90.39 48.08 90.33 47.56 89.91 47.34C89.54 47.16 88.97 47.23 88.77 47.65Z" fill="black"/>
<path d="M86.43 54.2499C86.14 54.3599 85.85 54.4499 85.55 54.5099C85.42 54.5399 85.29 54.5599 85.16 54.5899C85.12 54.5999 85.07 54.5999 85.03 54.6099C85.14 54.5999 85.15 54.5899 85.05 54.6099C84.98 54.6199 84.92 54.6199 84.85 54.6299C84.57 54.6499 84.28 54.6599 83.99 54.6499C83.84 54.6399 83.68 54.6299 83.53 54.6099C83.31 54.5899 83.71 54.6399 83.49 54.5999C83.4 54.5899 83.32 54.5699 83.23 54.5499C82.81 54.4699 82.31 54.6699 82.21 55.1299C82.12 55.5399 82.33 56.0599 82.79 56.1499C84.15 56.4099 85.56 56.3299 86.87 55.8499C87.28 55.6999 87.6 55.2799 87.45 54.8299C87.32 54.4299 86.86 54.0899 86.43 54.2499Z" fill="black"/>
<path d="M92.05 85.2199C89.26 101.04 86.84 116.86 86.87 132.97C86.88 137.99 87.07 143 87.35 148.01C87.44 149.59 89.91 149.6 89.82 148.01C89.35 139.71 89.16 131.39 89.57 123.08C89.94 115.52 90.83 108.01 91.98 100.54C92.73 95.6399 93.57 90.7599 94.43 85.8799C94.7 84.3199 92.32 83.6499 92.05 85.2199Z" fill="#A1A2A2"/>
<path d="M81.9 138.66C85.76 138.66 85.77 132.66 81.9 132.66C78.04 132.66 78.03 138.66 81.9 138.66Z" fill="black"/>
<path d="M77.85 51.9001C79.5 52.9801 81.83 53.2101 83.76 53.1401C85.71 53.0701 87.59 52.5201 89.09 51.2301C89.9 50.5301 88.72 49.3701 87.92 50.0601C86.73 51.0801 85.14 51.4501 83.6 51.4901C81.99 51.5301 80.06 51.3701 78.69 50.4701C77.79 49.8901 76.96 51.3201 77.85 51.9001Z" fill="black"/>
<path d="M88.76 32.6999C90.61 30.8599 93.41 31.6099 95.3 32.9499C95.66 33.2099 96.22 33.0099 96.43 32.6499C96.67 32.2299 96.5 31.7799 96.13 31.5199C94.84 30.5999 93.29 29.9599 91.69 29.9299C90.18 29.8999 88.66 30.4499 87.58 31.5199C86.83 32.2799 88 33.4499 88.76 32.6999Z" fill="black"/>
<path d="M66.76 32.3801C68.61 30.5401 71.41 31.2901 73.3 32.6301C73.66 32.8901 74.22 32.6901 74.43 32.3301C74.67 31.9101 74.5 31.4601 74.13 31.2001C72.84 30.2801 71.29 29.6401 69.69 29.6101C68.18 29.5801 66.66 30.1301 65.58 31.2001C64.83 31.9601 66 33.1301 66.76 32.3801Z" fill="black"/>
<path d="M131.39 93.1898C134.12 99.3998 136.54 105.76 138.74 112.19C141.3 119.68 143.59 127.31 145.01 135.11C145.21 136.23 146.93 135.76 146.72 134.64C145.28 126.71 142.94 118.95 140.32 111.34C138.11 104.9 135.66 98.5298 132.92 92.2998C132.47 91.2498 130.94 92.1598 131.39 93.1898Z" fill="#A1A2A2"/>
<path d="M129.05 99.3496C130.84 100.83 133.02 101.69 135.34 101.8C135.8 101.82 136.25 101.38 136.23 100.91C136.21 100.41 135.84 100.05 135.34 100.02C134.44 99.9796 133.55 99.7896 132.61 99.4396C131.89 99.1696 130.9 98.5896 130.31 98.0996C129.95 97.7996 129.4 97.7196 129.05 98.0996C128.75 98.4196 128.67 99.0296 129.05 99.3496Z" fill="#A1A2A2"/>
<path d="M34.15 103.89C26.8 106.49 23.04 114.43 24.8 123.12C26.56 131.81 34.85 140.81 44.14 135.85C53.43 130.89 52.72 118.56 49.28 112C45.84 105.43 39.19 102.11 34.15 103.89Z" fill="#A1A2A2"/>
<path d="M141.81 114.18C135.64 114.39 128.08 118.88 126.4 127.35C124.72 135.81 128.74 147.19 140.95 147C153.16 146.81 157.51 135.61 156.47 128.26C155.43 120.9 147.99 113.96 141.81 114.18Z" fill="#A1A2A2"/>
<path d="M139.8 120.57C133.96 119.24 126.28 123.61 126.28 123.61C126.28 123.61 121.76 119.69 115.63 118.96C109.5 118.23 104.24 119.04 99.78 118.66C95.62 118.3 87.1 114.76 85.19 117.87C83.39 120.8 85.33 124.51 91.93 125.33C98.66 126.17 101.24 127.12 101.24 127.12C101.24 127.12 91.58 128.54 89.09 128.63C86.6 128.72 83.24 130.56 84.11 132.86C84.11 132.86 84.34 136.24 90.68 135.66C96.9 135.09 102.22 134.73 102.22 134.73C102.22 134.73 98.02 137.24 98.38 139.51C98.89 142.68 101.93 142.96 101.93 142.96C101.93 142.96 100.93 145.41 102.1 147.55C103.27 149.69 106.3 149.58 108.69 148.87C111.08 148.16 114.51 146.09 114.51 146.09C114.51 146.09 121.18 147.56 124.3 145.5C127.42 143.44 128.58 141.22 128.58 141.22C128.58 141.22 141.03 144.27 144.6 141.6C148.17 138.93 150.71 136.22 149.48 129.84C148.23 123.43 145.64 121.9 139.8 120.57Z" fill="#F59BA7"/>
<path d="M102.4 143.44C105.51 143.29 108.59 142.68 111.53 141.62C111.95 141.47 112.23 141.06 112.11 140.61C112 140.21 111.52 139.88 111.1 140.03C108.3 141.05 105.38 141.65 102.41 141.8C101.34 141.84 101.33 143.49 102.4 143.44Z" fill="black"/>
<path d="M125.36 124.13C125.57 124.43 125.75 124.74 125.92 125.06C125.96 125.15 126.01 125.23 126.05 125.32C126.06 125.35 126.18 125.63 126.11 125.46C126.17 125.62 126.23 125.78 126.29 125.94C126.41 126.28 126.5 126.64 126.56 126.99C126.57 127.06 126.59 127.13 126.6 127.2C126.61 127.25 126.61 127.3 126.62 127.34C126.61 127.24 126.61 127.24 126.62 127.34C126.64 127.53 126.66 127.73 126.66 127.92C126.68 128.35 127.03 128.77 127.48 128.74C127.91 128.72 128.32 128.38 128.3 127.92C128.23 126.27 127.72 124.65 126.78 123.29C126.54 122.94 126.05 122.74 125.65 122.99C125.3 123.23 125.1 123.75 125.36 124.13Z" fill="black"/>
<path d="M102.05 135.85C103.12 135.48 104.18 135.11 105.25 134.74C105.66 134.6 105.97 134.17 105.83 133.73C105.7 133.33 105.25 133 104.82 133.15C103.75 133.52 102.69 133.89 101.62 134.26C101.21 134.4 100.9 134.83 101.04 135.27C101.17 135.67 101.62 136 102.05 135.85Z" fill="black"/>
<path d="M36.59 108.77C41.78 108.43 50.45 109.12 50.45 109.12C50.45 109.12 54.12 104.4 60 102.49C65.87 100.58 71.19 100.36 75.49 99.1198C79.5 97.9598 87.17 92.8298 89.65 95.5098C91.98 98.0298 90.8 102.05 84.49 104.14C78.05 106.27 75.7 107.7 75.7 107.7C75.7 107.7 85.46 107.21 87.91 106.82C90.37 106.43 94.02 107.57 93.62 110C93.62 110 94.05 113.36 87.72 114.02C81.51 114.67 76.22 115.35 76.22 115.35C76.22 115.35 80.83 117 80.92 119.29C81.04 122.5 78.11 123.37 78.11 123.37C78.11 123.37 79.57 125.58 78.84 127.9C78.11 130.22 75.11 130.7 72.63 130.47C70.15 130.24 66.38 128.87 66.38 128.87C66.38 128.87 59.61 131.91 55.9 131.49C51.65 131.01 50.01 129.74 50.01 129.74C50.01 129.74 44.96 132.47 40.62 132.95C36.28 133.43 31.27 132.03 29.68 121.23C28.93 116.13 31.4 109.11 36.59 108.77Z" fill="#F59BA7"/>
<path d="M49.95 108.77C49.26 110.38 49.04 112.08 49.3 113.81C49.37 114.24 49.92 114.51 50.31 114.39C50.78 114.24 50.96 113.83 50.89 113.38C50.88 113.28 50.87 113.28 50.89 113.36C50.88 113.31 50.88 113.26 50.87 113.2C50.86 113.12 50.85 113.04 50.85 112.96C50.84 112.78 50.83 112.59 50.83 112.41C50.83 112.07 50.85 111.73 50.89 111.39C50.87 111.56 50.9 111.31 50.91 111.3C50.92 111.21 50.94 111.12 50.96 111.03C50.99 110.86 51.03 110.7 51.08 110.53C51.13 110.35 51.18 110.18 51.24 110C51.27 109.93 51.29 109.85 51.32 109.78C51.33 109.75 51.45 109.47 51.39 109.61C51.56 109.21 51.52 108.71 51.09 108.48C50.72 108.29 50.13 108.35 49.95 108.77Z" fill="black"/>
<path d="M71.88 123.45C73.8 123.62 75.71 123.78 77.63 123.95C78.07 123.99 78.45 123.54 78.45 123.13C78.45 122.65 78.07 122.34 77.63 122.31C75.71 122.14 73.8 121.98 71.88 121.81C71.44 121.77 71.06 122.22 71.06 122.63C71.05 123.1 71.43 123.41 71.88 123.45Z" fill="black"/>
<path d="M73.58 116.02C76.14 115.65 78.69 115.28 81.25 114.92C81.69 114.86 81.93 114.3 81.83 113.91C81.7 113.44 81.26 113.27 80.82 113.33C78.26 113.7 75.71 114.07 73.15 114.43C72.71 114.49 72.47 115.05 72.57 115.44C72.7 115.91 73.14 116.08 73.58 116.02Z" fill="black"/>
<path d="M42.19 134.12C40.05 135.6 37.74 136.7 35.37 137.75C33.34 138.65 31.37 139.6 29.64 141.02C28.76 141.74 30.02 142.99 30.9 142.28C32.54 140.93 34.51 140.07 36.44 139.21C38.75 138.18 41 137.09 43.08 135.65C44.02 135.01 43.13 133.47 42.19 134.12Z" fill="#A1A2A2"/>
<path d="M38.5 95.0502C37.89 96.1702 37.3 97.2902 36.73 98.4302C35.8 100.26 34.86 102.11 34.18 104.05C34.02 104.5 34.36 105.02 34.8 105.14C35.29 105.27 35.73 104.97 35.89 104.52C36.51 102.76 37.42 100.98 38.31 99.2302C38.87 98.1302 39.44 97.0302 40.03 95.9502C40.59 94.9402 39.05 94.0402 38.5 95.0502Z" fill="#A1A2A2"/>
<path fill-rule="evenodd" clip-rule="evenodd" d="M141.25 46.2699C141.25 46.2699 134.81 38.6799 135.37 27.8999C135.36 27.0599 135.37 26.2099 135.42 25.3299C136.55 4.23991 166.74 -10.1801 184.72 8.90991C202.7 27.9799 184.89 62.3699 155.52 55.6699C154.05 55.3399 152.13 54.6599 150.06 53.5699C147.86 55.3299 143.97 57.2599 138.62 55.4599C137.49 55.0799 137.18 53.6199 138.06 52.8199C140.24 50.8699 141.25 46.2699 141.25 46.2699Z" fill="white"/>
<path fill-rule="evenodd" clip-rule="evenodd" d="M180.83 17.8202L180.28 34.1602C180.23 35.4802 178.96 36.3902 177.7 36.0102C174.7 35.1002 171.01 34.2702 165.82 36.7502C159.03 40.1202 152.63 40.7702 147.53 39.1902C146.69 38.9302 146.12 38.1202 146.14 37.2302L146.45 22.8702C146.48 21.5902 147.68 20.6802 148.93 20.9702C151.34 21.5402 155.01 22.0302 157.43 20.6302C161.2 18.4602 166.87 9.57016 179.75 15.9502C180.44 16.3102 180.85 17.0502 180.83 17.8202Z" fill="#1B5229"/>
<path fill-rule="evenodd" clip-rule="evenodd" d="M183.3 20.64L182.75 36.98C182.7 38.3 181.43 39.21 180.17 38.83C177.17 37.92 173.48 37.09 168.29 39.57C161.5 42.94 155.1 43.59 150 42.01C149.16 41.74 148.59 40.94 148.61 40.05L148.92 25.69C148.95 24.41 150.15 23.5 151.4 23.79C153.81 24.36 157.48 24.85 159.9 23.45C163.67 21.28 169.34 12.39 182.22 18.77C182.91 19.13 183.32 19.87 183.3 20.64Z" fill="#0AA64B"/>
<path fill-rule="evenodd" clip-rule="evenodd" d="M163.43 41.55C158.91 41.19 155.36 37.65 154.93 32.52C154.69 29.64 155.45 26.74 156.97 24.32C157.04 24.31 157.1 24.3 157.16 24.29C157.28 24.28 157.39 24.26 157.5 24.24C157.63 24.22 157.75 24.2 157.88 24.18C158.03 24.15 158.18 24.11 158.33 24.08C158.47 24.04 158.61 24 158.75 23.96C158.85 23.93 158.95 23.89 159.05 23.86C159.17 23.81 159.29 23.77 159.41 23.72C159.45 23.7 159.48 23.69 159.52 23.67C159.66 23.61 159.81 23.55 159.94 23.47C161.79 22.4 164.1 19.69 167.52 18C172.37 18.04 176.26 21.69 176.71 27.08C177.07 31.14 175.35 35.24 172.48 38.02C172.42 38.08 172.39 38.14 172.33 38.2C171.09 38.45 169.75 38.88 168.28 39.58C166.64 40.39 165.02 41.04 163.43 41.55Z" fill="#0D7B3E"/>
<path fill-rule="evenodd" clip-rule="evenodd" d="M166.24 34.9202C168.94 34.2502 170.92 31.4102 170.7 28.5702C170.46 25.7302 168.07 23.9802 165.38 24.6502C162.69 25.3202 160.71 28.1602 160.94 31.0102C161.18 33.8402 163.56 35.5902 166.24 34.9202Z" fill="#0AA64B"/>
</g>
<defs>
<clipPath id="clip0_259_633">
<rect width="191.94" height="149.71" fill="white"/>
</clipPath>
</defs>
</svg>
