<svg width="186" height="155" viewBox="0 0 186 155" fill="none" xmlns="http://www.w3.org/2000/svg">
<g clip-path="url(#clip0_243_1531)">
<path d="M5.11 125.17C2.41 139.78 0 154.67 0 154.67H155.84C154.79 149.59 152.12 142.19 150.75 135.68C139.11 79.88 95.09 57.1501 47.67 71.0001C17.26 79.9001 10.21 103.85 5.11 125.17Z" fill="#EC6723"/>
<path d="M58.39 68.5002C69.53 78.5002 82.54 95.9402 87.48 124.9C89.37 135.95 90.66 145.88 91.52 154.68H117.67C115.32 134.85 109.44 100.85 97.33 80.4202C94.62 75.8302 92 71.8802 89.5 68.5002C79.67 66.5802 69.18 66.5602 58.39 68.5002Z" fill="#B2E1EE"/>
<path d="M111.86 89.51C114.94 92.59 117.83 95.87 120.45 99.35C121.72 101.03 122.93 102.74 124.08 104.5C124.32 104.86 124.93 105.49 124.91 105.95C124.89 106.34 124.4 106.73 124.14 106.98C123.29 107.77 122.3 108.39 121.28 108.93C119.97 109.62 121.13 111.6 122.44 110.91C124.2 109.99 127.03 108.36 127.19 106.11C127.27 104.92 126.49 103.96 125.86 103.02C125.12 101.91 124.36 100.81 123.58 99.73C120.53 95.53 117.16 91.57 113.49 87.89C112.44 86.84 110.82 88.46 111.86 89.51Z" fill="#FFC11E"/>
<path d="M87.5999 148.79C82.4699 145.15 78.04 140.55 74.57 135.32C73.76 134.1 71.7699 135.24 72.5899 136.48C76.2899 142.06 80.9899 146.9 86.4499 150.78C87.6499 151.63 88.7999 149.64 87.5999 148.79Z" fill="#FFC11E"/>
<path d="M119.69 39.4902C119.69 39.4902 125.47 45.1802 127.45 57.5002C129.43 69.8202 127.91 82.7702 112.67 80.2102C112.67 80.2202 126.86 70.1402 119.69 39.4902Z" fill="black"/>
<path d="M101.37 82.9403C101.37 82.9403 97.73 87.1003 85.49 83.9303C73.25 80.7603 68.49 72.3103 68.49 72.3103C68.49 72.3103 75.15 64.0803 70.72 55.1603C70.72 55.1603 65.3 58.5203 61.52 49.9003C57.74 41.2703 61.72 32.9203 66.79 31.9303C71.86 30.9403 77.03 36.9103 75.14 42.0303C75.14 42.0303 79.22 38.7903 78.72 30.9403C78.22 23.0803 78.22 23.0803 78.22 23.0803L86.87 19.3003L103.62 16.3203L118.34 27.4603L118.53 35.7703C118.53 35.7703 124.35 52.0303 121.17 65.1103C117.99 78.1903 108.2 84.1203 101.37 82.9403Z" fill="#F6A6AC"/>
<path d="M124.88 28.4401C125.04 36.1701 119.69 39.5001 119.69 39.5001L118.36 36.4501C117.96 38.3601 117.28 37.4701 113.55 37.0501C109.81 36.6301 106.51 36.1701 106.51 36.1701C106.51 36.1701 106.93 34.5401 106.9 28.3101C106.87 23.0801 104.74 19.1301 104.06 18.0101C106.18 21.7301 105.42 29.7501 104.35 32.9801C103.24 36.3101 100.78 34.8201 95.78 34.5401C92.63 34.3601 88.8 34.2501 86.4 34.2001C85.35 34.1801 84.66 33.1201 85.03 32.1301C86.24 28.8601 86.61 24.8701 86.72 22.7801C86.15 29.9501 80.38 32.7601 80.38 32.7601C80.08 37.0101 76.58 40.6801 75.49 41.7301C75.42 41.8001 75.36 41.8501 75.32 41.8901C75.29 41.9201 75.27 41.9401 75.25 41.9601C75.23 41.9801 75.22 41.9901 75.21 41.9901C75.18 42.0201 75.17 42.0201 75.17 42.0201C77.06 36.9001 71.88 30.9301 66.81 31.9201C61.73 32.9101 57.76 41.2701 61.54 49.9001C65.01 57.8201 69.88 55.6201 70.63 55.2101C70.72 55.3201 70.83 55.4601 70.95 55.6401C70.95 55.6401 70.95 55.6401 70.96 55.6501C74.91 64.3701 68.5 72.3001 68.5 72.3001C58.6 80.6001 41.28 72.7101 40.07 57.7801C38.87 42.8501 42.48 31.7701 52.54 17.8801C62.59 4.00014 76.55 -2.71986 97.34 1.03014C118.13 4.78014 124.71 20.7201 124.88 28.4401Z" fill="black"/>
<path d="M61.2 37.1401C60.87 37.9001 60.6 38.7201 60.39 39.5901C58.05 40.7801 60.08 42.5401 57.49 43.3901C54.62 44.3201 55 39.0701 61.2 37.1401Z" fill="#B3202D"/>
<path d="M85.6801 39.9704C85.6801 39.9704 82.2101 39.2704 77.4301 38.8204C76.7901 38.7604 76.1401 38.7004 75.4601 38.6504C75.3601 38.0404 75.1801 37.4404 74.9301 36.8604C76.0801 36.9404 77.13 37.0204 78.09 37.1104C82.53 37.5004 84.9501 37.9203 84.9501 37.9203L85.6801 39.9704Z" fill="#B3202D"/>
<path d="M92.49 39.6004C89.12 40.1504 90.49 43.0704 92.61 43.1904C94.73 43.3104 96.31 43.8204 97.11 44.2204C97.91 44.6204 99.51 44.9604 100.19 43.5004C101 41.7604 96.78 38.9004 92.49 39.6004Z" fill="white"/>
<path d="M111.89 43.2699C109.69 44.0099 109.75 46.6399 112.24 46.6599C114.72 46.6899 116.02 47.2199 116.96 47.6199C117.9 48.0199 118.79 47.4599 118.92 46.0799C119.07 44.3199 115.11 42.1799 111.89 43.2699Z" fill="white"/>
<path d="M97.0301 83.1401C102.64 85.4601 109.5 83.8501 114.04 80.0801C122.68 72.8901 124.04 60.3701 122.81 49.9101C122.18 44.5601 120.95 39.2901 119.24 34.1801C118.77 32.7901 116.56 33.3801 117.03 34.7901C119.99 43.6301 121.9 53.4101 120.47 62.7301C119.12 71.5401 113.55 81.4701 103.61 81.8501C101.62 81.9301 99.4901 81.7001 97.6301 80.9301C96.2801 80.3701 95.6901 82.5901 97.0301 83.1401Z" fill="black"/>
<path d="M122.07 38.0502C115.78 38.6002 110.4 43.4902 110.4 43.4902C108.5 41.5402 105.5 42.8402 105.5 42.8402C100.01 37.4602 89.77 34.4102 85.85 34.3602C81.94 34.3002 83.73 41.4302 90.21 46.8802C96.69 52.3202 102.02 48.2902 102.02 48.2902C103.87 49.6602 104.91 45.7302 104.91 45.7302C107.95 43.9402 110.24 46.2702 110.24 46.2702C110.24 46.2702 110.24 46.9202 111 48.5502C111.76 50.1902 115.03 53.2402 118.84 50.1302C122.65 47.0302 128.36 37.5102 122.07 38.0502ZM101.97 46.6302C99.71 48.1202 95.06 48.0102 91.95 45.7202C88.85 43.4402 83.87 35.8402 91.57 37.5002C99.27 39.1602 103.54 43.8702 103.54 43.8702C103.54 43.8702 104.22 45.1402 101.97 46.6302ZM122.11 42.7502C121.6 46.4402 116.31 51.9502 113.27 49.1102C113.27 49.1102 111.58 48.0502 111.31 46.3202C111.04 44.5902 112.49 43.5302 115.75 41.8402C119.01 40.1602 122.63 39.0702 122.11 42.7502Z" fill="#B3202D"/>
<path d="M104.66 55.7003C104.91 56.7303 105.79 57.5203 106.84 57.6603C107.38 57.7303 107.98 57.6503 108.46 57.3603C108.96 57.0503 109.18 56.5403 109.28 55.9903C109.35 55.6003 109.17 55.1503 108.75 55.0503C108.37 54.9603 107.89 55.1603 107.81 55.5803C107.8 55.6603 107.78 55.7303 107.76 55.8103C107.75 55.8503 107.68 56.0103 107.69 56.0403C107.74 55.9403 107.75 55.9103 107.72 55.9603C107.71 55.9803 107.7 56.0003 107.69 56.0203C107.68 56.0503 107.65 56.0703 107.64 56.1003C107.71 56.0103 107.73 55.9903 107.69 56.0303C107.67 56.0503 107.66 56.0603 107.64 56.0803C107.65 56.0403 107.76 56.0103 107.66 56.0503C107.64 56.0603 107.61 56.0803 107.59 56.0903C107.54 56.1103 107.56 56.1103 107.65 56.0703C107.62 56.0703 107.58 56.1003 107.55 56.1003C107.47 56.1203 107.37 56.1303 107.3 56.1603C107.41 56.1503 107.43 56.1403 107.37 56.1503C107.34 56.1503 107.32 56.1503 107.29 56.1603C107.26 56.1603 107.22 56.1603 107.19 56.1603C107.14 56.1603 107.09 56.1603 107.03 56.1503C106.89 56.1403 107.15 56.1803 107.05 56.1503C106.97 56.1303 106.88 56.1103 106.8 56.0903C106.78 56.0803 106.77 56.0803 106.75 56.0703C106.7 56.0503 106.72 56.0603 106.81 56.1003C106.78 56.1003 106.72 56.0603 106.7 56.0403C106.63 56.0003 106.57 55.9603 106.5 55.9203C106.42 55.8703 106.64 56.0503 106.52 55.9403C106.49 55.9103 106.46 55.8903 106.43 55.8603C106.4 55.8303 106.37 55.8003 106.35 55.7703C106.33 55.7503 106.25 55.6403 106.32 55.7403C106.39 55.8403 106.31 55.7303 106.3 55.7003C106.28 55.6703 106.26 55.6303 106.24 55.6003C106.22 55.5703 106.2 55.5303 106.18 55.5003C106.11 55.3803 106.22 55.6203 106.19 55.5303C106.16 55.4503 106.13 55.3703 106.11 55.2803C106.02 54.8903 105.55 54.6203 105.17 54.7503C104.79 54.8903 104.56 55.2803 104.66 55.7003Z" fill="black"/>
<path d="M107.8 55.96C107.88 56.56 108.28 57.08 108.77 57.41C109.32 57.79 110 57.87 110.64 57.77C111.84 57.57 112.71 56.41 112.68 55.21C112.67 54.81 112.34 54.43 111.92 54.45C111.52 54.47 111.14 54.79 111.16 55.21C111.16 55.26 111.16 55.31 111.16 55.36C111.16 55.38 111.16 55.39 111.16 55.41C111.15 55.48 111.15 55.48 111.16 55.41C111.17 55.34 111.17 55.34 111.16 55.41C111.16 55.43 111.15 55.44 111.15 55.46C111.14 55.51 111.13 55.56 111.11 55.61C111.1 55.63 111.1 55.64 111.09 55.66C111.06 55.74 111.07 55.72 111.11 55.62C111.12 55.64 111.06 55.72 111.05 55.74C111.03 55.78 111.01 55.81 110.99 55.85C110.98 55.87 110.96 55.89 110.95 55.91C110.92 55.96 110.93 55.94 110.99 55.86C110.97 55.92 110.86 56.01 110.82 56.05C110.8 56.07 110.78 56.08 110.76 56.1C110.72 56.14 110.73 56.12 110.81 56.06C110.8 56.09 110.72 56.12 110.7 56.13C110.66 56.15 110.62 56.17 110.58 56.19C110.43 56.28 110.73 56.14 110.57 56.2C110.48 56.23 110.39 56.26 110.29 56.28C110.15 56.31 110.26 56.26 110.31 56.28C110.28 56.27 110.18 56.29 110.15 56.29C110.11 56.29 110.06 56.29 110.02 56.29C109.88 56.28 110 56.26 110.04 56.3C110.02 56.28 109.91 56.27 109.89 56.27C109.84 56.26 109.8 56.24 109.75 56.23C109.67 56.21 109.86 56.29 109.74 56.22C109.69 56.19 109.64 56.16 109.59 56.13C109.47 56.06 109.67 56.21 109.6 56.14C109.57 56.11 109.54 56.08 109.51 56.06C109.5 56.05 109.4 55.96 109.41 55.95C109.47 56.03 109.49 56.05 109.45 56C109.44 55.98 109.42 55.96 109.41 55.94C109.39 55.9 109.37 55.87 109.35 55.83C109.29 55.71 109.36 55.8 109.36 55.85C109.36 55.82 109.32 55.73 109.32 55.71C109.31 55.66 109.3 55.61 109.29 55.56C109.27 55.38 109.08 55.19 108.94 55.1C108.78 55 108.53 54.96 108.35 55.02C108.17 55.08 107.99 55.19 107.89 55.37C107.77 55.56 107.77 55.74 107.8 55.96Z" fill="black"/>
<path d="M112.68 54.9601C112.19 51.8201 111.61 48.7001 110.93 45.6001C110.72 44.6401 109.25 45.0501 109.46 46.0101C110.14 49.1101 110.72 52.2301 111.21 55.3701C111.27 55.7801 111.79 56.0001 112.15 55.9001C112.59 55.7801 112.75 55.3701 112.68 54.9601Z" fill="black"/>
<path d="M90.58 36.4601C92.09 35.4301 93.94 35.0201 95.73 35.4701C97.59 35.9401 99.14 37.1701 100.57 38.3901C101.04 38.7901 101.73 38.8501 102.19 38.3901C102.6 37.9801 102.66 37.1701 102.19 36.7701C100.42 35.2501 98.48 33.7401 96.15 33.2201C93.85 32.7001 91.37 33.1501 89.42 34.4801C88.91 34.8301 88.68 35.4901 89.01 36.0501C89.3 36.5501 90.06 36.8101 90.58 36.4601Z" fill="black"/>
<path d="M110.62 39.5102C111.49 38.4102 112.65 37.3502 114.11 37.3202C115.52 37.2902 116.57 38.3102 117.54 39.2902C118.58 40.3402 120.2 38.7202 119.16 37.6702C117.79 36.2902 116.16 34.9802 114.1 35.0302C112.02 35.0802 110.24 36.3102 108.98 37.8902C108.6 38.3802 108.51 39.0402 108.98 39.5102C109.4 39.9102 110.24 40.0002 110.62 39.5102Z" fill="black"/>
<path d="M92.12 43.4399C93.6 43.4399 93.6 41.1499 92.12 41.1499C90.64 41.1499 90.64 43.4399 92.12 43.4399Z" fill="black"/>
<path d="M112.42 46.77C113.9 46.77 113.9 44.48 112.42 44.48C110.94 44.48 110.94 46.77 112.42 46.77Z" fill="black"/>
<path d="M84.45 58.2201C87.26 58.5801 89.92 56.8001 90.81 54.1501C90.94 53.7601 90.66 53.3101 90.28 53.2101C89.86 53.1001 89.47 53.3501 89.34 53.7401C89.04 54.6401 88.4 55.4901 87.59 56.0101C86.64 56.6301 85.58 56.8301 84.45 56.6901C84.04 56.6401 83.69 57.0801 83.69 57.4501C83.68 57.9101 84.04 58.1701 84.45 58.2201Z" fill="black"/>
<path d="M88.74 55.7202C88.74 55.7202 94.3 61.5302 104.71 63.3702C104.71 63.3702 103.41 71.2102 95.37 70.0502C87.33 68.8902 86.75 57.6602 86.75 57.6602L88.74 55.7202Z" fill="black"/>
<path d="M100.88 62.47C99.88 65.48 97.21 65.09 94.15 62.95C91.69 61.22 90.58 58.26 90.21 57.02C92.08 58.51 95.68 60.93 100.88 62.47Z" fill="white"/>
<path d="M96.04 70.1204C95.83 70.1104 95.61 70.0904 95.38 70.0504C89.89 69.2604 87.88 63.7704 87.16 60.3804C88.75 60.8004 91.18 61.7304 92.93 63.6604C95.05 65.9904 95.8 68.8504 96.04 70.1204Z" fill="#F27D83"/>
<path d="M101.27 73.0501C99.53 73.8601 97.52 74.1601 95.63 73.8701C95.22 73.8101 94.81 73.9701 94.69 74.4001C94.59 74.7601 94.81 75.2801 95.22 75.3401C97.56 75.7001 99.9 75.3701 102.04 74.3701C102.41 74.2001 102.51 73.6601 102.31 73.3201C102.09 72.9401 101.64 72.8801 101.27 73.0501Z" fill="black"/>
<path d="M67.4001 47.0802C67.5301 47.0602 67.3201 47.0502 67.3001 47.0402C67.2301 47.0102 67.1701 46.9602 67.1101 46.8902C66.9801 46.7502 66.9001 46.5402 66.8801 46.3202C66.8101 45.7202 66.9701 45.0702 67.1501 44.5102C67.4901 43.4602 68.1801 42.6102 69.2701 42.4502C69.6801 42.3902 69.9001 41.8702 69.8001 41.5102C69.6801 41.0702 69.2701 40.9102 68.8601 40.9802C67.0901 41.2502 65.9701 42.8902 65.5601 44.5102C65.3501 45.3702 65.2001 46.3502 65.5301 47.2002C65.9101 48.1502 66.7901 48.7002 67.8101 48.5702C68.2201 48.5102 68.4401 47.9902 68.3401 47.6302C68.2101 47.1702 67.8101 47.0202 67.4001 47.0802Z" fill="black"/>
<path d="M67.1999 37.51C67.3199 37.56 67.4999 37.93 67.5699 38.04C67.7099 38.25 67.8399 38.46 67.9699 38.68C68.1899 39.06 68.3999 39.45 68.5699 39.85C68.9399 40.71 69.1999 41.65 69.2399 42.59C69.2799 43.46 69.1599 44.33 68.8599 45.15C68.6199 45.78 68.1099 46.89 67.3899 47.08C66.4399 47.33 66.8399 48.81 67.7999 48.55C68.8999 48.26 69.6499 47.12 70.0899 46.14C70.5899 45.03 70.8299 43.8 70.7699 42.59C70.7099 41.33 70.3699 40.13 69.8499 38.99C69.3799 37.96 68.6999 36.49 67.5999 36.04C67.2199 35.88 66.7599 36.21 66.6599 36.57C66.5399 37.01 66.8199 37.35 67.1999 37.51Z" fill="black"/>
<path d="M71.1999 53.2899C71.1799 53.3299 71.05 53.5399 71.16 53.3599C71.12 53.4199 71.0699 53.4699 71.0199 53.5199C70.9299 53.6199 70.8199 53.7499 70.6999 53.8099C70.8799 53.7199 70.6799 53.8199 70.6399 53.8499C70.5799 53.8899 70.5199 53.9299 70.4499 53.9699C70.3299 54.0399 70.2099 54.0999 70.0899 54.1599C70.0399 54.1799 70.0599 54.1699 70.1499 54.1399C70.1099 54.1599 70.0699 54.1699 70.0299 54.1899C69.9499 54.2199 69.8699 54.2499 69.7899 54.2699C69.6299 54.3199 69.47 54.3599 69.3 54.3899C69.22 54.4099 69.13 54.4199 69.05 54.4299C69.01 54.4399 68.9699 54.4399 68.9199 54.4499C69.0199 54.4399 69.0199 54.4399 68.9299 54.4499C68.7599 54.4699 68.5899 54.4799 68.4299 54.4899C68.0299 54.5199 67.6499 54.8199 67.6699 55.2499C67.6899 55.6399 68.0099 56.0399 68.4299 56.0099C69.2699 55.9599 70.0799 55.8199 70.8499 55.4699C71.5299 55.1699 72.1099 54.6799 72.5099 54.0599C72.7299 53.7199 72.5899 53.1999 72.2399 53.0099C71.8699 52.8099 71.4299 52.9299 71.1999 53.2899Z" fill="black"/>
<path d="M23.07 87.5503C25.16 92.5703 26.19 96.9003 26.19 96.9003C26.19 96.9003 22.9 101.75 23.94 105.21C24.99 108.66 26.71 108.85 26.71 108.85C26.71 108.85 24.98 111.27 25.85 114.56C26.71 117.85 28.44 118.2 28.44 118.2C28.44 118.2 26.54 120.1 29.49 125.82C32.43 131.53 31.51 131.92 42.7 133.92L35.48 154.81L75 154.67L76.31 130.78C76.31 130.78 80.13 125.97 80.6 114.55C81.06 103.12 80.98 94.8603 82.34 90.5303C83.69 86.2003 83.03 82.0203 78.94 81.4903C74.84 80.9703 71.21 87.5503 70.51 92.7403L35.02 91.7403C35.02 91.7403 31.39 83.3903 27.58 79.9303C23.76 76.4703 20.99 82.5203 23.07 87.5503Z" fill="#F6A6AC"/>
<path d="M36.74 121.41C35.3 109.64 32.0299 81.99 31.19 66.96C31.01 63.74 33.5399 61.01 36.7699 60.94L65.1699 60.29C68.3299 60.22 70.9499 62.71 71.0199 65.87C71.2699 77 71.8399 101.92 72.3099 118.14C72.3999 121.14 70.15 123.69 67.16 123.99L42.99 126.4C39.89 126.7 37.12 124.49 36.74 121.41Z" fill="#024758"/>
<path d="M35.48 69.6003C36.29 78.6203 38.65 104.31 40.1 115.79C40.34 117.67 42.03 119.02 43.92 118.82L64.96 116.62C66.77 116.43 68.13 114.89 68.08 113.07C67.86 104.21 67.26 79.4303 67.2 68.8803C67.19 67.0303 65.74 65.5103 63.88 65.4303C58.22 65.1703 46.54 64.8103 38.53 65.8403C36.66 66.0603 35.31 67.7203 35.48 69.6003Z" fill="#B2E1EE"/>
<path d="M28 109.17C29.48 108.84 30.9 108.24 32.15 107.39C33.33 106.59 34.6 105.54 35.22 104.21C36.63 101.16 35.26 97.6203 33.98 94.7803C33.58 93.8803 32.26 94.6603 32.66 95.5503C33.7 97.8803 35.06 101.12 33.8 103.63C33.27 104.69 32.16 105.55 31.19 106.19C30.08 106.91 28.87 107.41 27.58 107.7C26.64 107.91 27.04 109.39 28 109.17Z" fill="black"/>
<path d="M34.02 106.01C35.14 107.63 35.38 109.66 35.05 111.58C34.89 112.52 34.65 113.65 34.1 114.44C33.6 115.15 32.71 115.49 31.93 115.79C31.02 116.14 31.42 117.62 32.34 117.26C33.36 116.86 34.44 116.43 35.15 115.57C35.91 114.65 36.26 113.33 36.49 112.17C36.94 109.82 36.74 107.25 35.34 105.23C34.78 104.43 33.46 105.19 34.02 106.01Z" fill="black"/>
<path d="M33.89 116.57C34.57 116.86 35.28 117.17 35.69 117.82C36.08 118.45 36.27 119.21 36.29 119.95C36.34 121.43 35.79 122.87 34.74 123.91C34.04 124.6 35.12 125.68 35.82 124.99C37.2 123.62 37.96 121.64 37.81 119.69C37.73 118.71 37.47 117.69 36.9 116.88C36.25 115.96 35.3 115.51 34.3 115.09C33.92 114.93 33.46 115.26 33.36 115.62C33.24 116.07 33.51 116.41 33.89 116.57Z" fill="black"/>
<path d="M51.74 133.02C49.02 133.07 46.31 133.11 43.59 133.16C42.61 133.18 42.6 134.71 43.59 134.69C46.31 134.64 49.02 134.6 51.74 134.55C52.73 134.53 52.73 133 51.74 133.02Z" fill="black"/>
<path d="M120.78 110.55C124.89 116.3 128.7 122.82 128.57 130.08C128.46 136.59 126.7 143.08 122.82 148.38C121.95 149.57 123.94 150.72 124.8 149.54C128.9 143.93 130.74 136.97 130.86 130.08C130.99 122.4 127.11 115.48 122.75 109.39C121.91 108.21 119.92 109.35 120.78 110.55Z" fill="#FFC11E"/>
<path d="M62.4401 112.88C73.6293 112.88 82.7001 103.81 82.7001 92.6204C82.7001 81.4311 73.6293 72.3604 62.4401 72.3604C51.2508 72.3604 42.1801 81.4311 42.1801 92.6204C42.1801 103.81 51.2508 112.88 62.4401 112.88Z" fill="white"/>
<path d="M171.76 111.22C171.76 111.22 172.74 122.6 173.07 132.35C173.53 145.7 174.06 152.89 173.51 154.68H141.42C141.34 141.53 149.86 113.97 149.86 113.97C149.86 113.97 146.13 111.14 145.19 109.63C143.3 106.61 142.24 102.13 142.59 100.27C143.15 97.2703 145.09 96.9703 146.47 96.7403C149.56 96.2303 152.35 102.92 152.35 102.92C154.82 101.41 157.8 102.01 157.8 102.01C162.27 96.4203 156.43 89.6603 153.1 89.8703C147.72 90.2103 149.89 95.9003 146.16 96.8303C142.43 97.7503 141.72 93.4503 141.51 91.6403C141.28 89.6503 142.52 82.6503 149.11 80.5603C155.7 78.4703 159.79 83.5403 159.79 83.5403C159.79 83.5403 159.73 76.5203 158.3 71.3703C156.88 66.2103 157.57 63.8203 160.35 62.7803C164.49 61.2403 167.53 74.0003 168.2 85.0803C168.2 85.0803 169.48 78.1103 169.47 73.2203C169.46 68.9103 168.55 66.0103 172.1 65.3703C174.48 64.9403 176.07 67.9503 176.58 74.2003C176.96 78.8803 175.95 85.2503 174.5 91.8603C174.5 91.8603 176.04 86.6603 177.53 82.4403C178.31 80.2403 180.25 77.4303 182.26 78.1103C185.34 79.1603 187.36 83.1203 181.89 96.0903C176.56 108.69 175.27 107.52 171.76 111.22Z" fill="#F6A6AC"/>
<path d="M164.11 86.7602C167.88 87.9002 171.25 90.2902 173.53 93.5102C173.82 93.9202 174.34 94.1102 174.8 93.8402C175.2 93.6002 175.43 92.9802 175.13 92.5702C172.55 88.9502 168.85 86.2602 164.6 84.9702C163.46 84.6202 162.97 86.4202 164.11 86.7602Z" fill="black"/>
<path d="M145.1 98.0201C146.72 97.4401 148.09 98.5501 149.05 99.7601C150.09 101.07 150.93 102.55 151.67 104.05C151.88 104.48 152.55 104.65 152.94 104.38C155.66 102.53 159.46 103.1 161.54 105.63C162.3 106.55 163.61 105.23 162.85 104.32C160.27 101.19 155.35 100.5 152 102.78C152.42 102.89 152.85 103 153.27 103.11C151.78 100.06 148.84 94.7101 144.6 96.2301C143.49 96.6301 143.97 98.4201 145.1 98.0201Z" fill="black"/>
<path fill-rule="evenodd" clip-rule="evenodd" d="M75.71 90.43C75.3 87.69 72.88 85.8 70.08 86.12L56.41 87.23C55.91 87.27 55.48 86.9 55.44 86.4C55.4 85.9 55.77 85.47 56.27 85.43L70.12 84.31C69.89 82.54 68.38 80.72 66.64 80.59C62.52 80.21 58.45 80.54 54.44 81.58C52.22 82.12 50.68 84.49 50.5 86.74C50.21 91.06 50.55 95.34 51.54 99.55C52.09 101.84 54.5 103.89 56.86 103.97C61.97 104.18 67.02 103.77 71.94 102.75C74.17 102.31 75.48 100.13 75.76 97.87C76.01 95.33 75.99 92.82 75.71 90.43ZM71.46 93.82L71.52 94.62C71.56 95.12 71.19 95.55 70.69 95.59C70.19 95.63 69.76 95.26 69.72 94.76L69.66 93.96C69.36 93.74 69.16 93.39 69.13 93C69.07 92.25 69.62 91.6 70.37 91.54C71.12 91.48 71.77 92.03 71.83 92.78C71.87 93.18 71.72 93.56 71.46 93.82Z" fill="#4AA8D3"/>
</g>
<defs>
<clipPath id="clip0_243_1531">
<rect width="185.31" height="154.81" fill="white"/>
</clipPath>
</defs>
</svg>
