<svg width="226" height="229" viewBox="0 0 226 229" fill="none" xmlns="http://www.w3.org/2000/svg">
<g clip-path="url(#clip0_54_5)">
<path d="M12.2394 217.853C2.75389 207.564 -2.63144 190.782 1.28516 157.403C5.32416 122.983 24.54 93.1556 54.5876 83.2337C86.716 72.6994 139.162 76.1904 161.009 83.4787C198.89 96.0955 218.412 125.187 223.858 157.403C229.305 189.619 222.879 205.359 218.35 212.341C210.64 224.039 195.279 225.876 195.279 225.876L31.6388 226.305C31.6388 226.305 17.0128 222.998 12.2394 217.853Z" fill="#E7E7E7"/>
<path d="M164.803 177.124C164.803 177.124 164.314 170.755 164.069 168.427C163.824 166.284 162.539 162.486 159.418 162.425C156.236 162.364 155.685 164.324 155.256 166.774C154.828 169.224 155.44 173.695 156.174 175.471C156.909 177.247 162.784 180.738 162.784 180.738L164.803 177.124Z" fill="#F47D86"/>
<path d="M143.017 80.7839L133.899 81.5188L114.438 125.677C114.438 125.677 120.252 135.722 132.797 133.884C145.343 132.047 145.037 114.776 145.465 106.936C146.016 95.6055 143.017 80.7839 143.017 80.7839Z" fill="#A3A4A4"/>
<path d="M78.5768 111.468C78.4544 119.002 79.9843 131.006 89.837 133.456C99.6897 135.906 106.238 129.291 106.238 129.291L99.8121 108.59L78.5768 111.468Z" fill="#A3A4A4"/>
<path d="M147.852 69.5758C147.852 69.5758 150.116 55.7341 142.528 43.8524C134.45 31.2356 121.17 26.3359 101.587 29.092C82.0038 31.8481 73.987 45.996 70.6212 58.7352L123.985 67.4934L120.435 90.2158L133.042 90.0933L147.852 69.5758Z" fill="black"/>
<path d="M135.735 75.4555C135.735 75.4555 137.693 66.6972 143.078 65.6561C148.464 64.6149 150.422 68.2284 149.749 74.4143C149.076 80.6002 144.486 86.7248 138.121 85.0711C138.121 85.0711 135.551 94.4418 132.308 101.853C128.085 111.468 121.537 122.738 109.175 134.436L98.4046 126.229C98.4046 126.229 78.638 126.167 69.1525 107.487C59.667 88.8072 71.7839 58.8577 71.7839 58.8577C71.7839 58.8577 75.2722 48.7521 82.677 45.6898C90.0818 42.6274 88.919 47.5884 93.7536 49.6708C98.5882 51.7531 109.542 47.5271 113.459 44.4036C117.376 41.28 123.495 42.3212 126.004 45.6285C128.513 48.9358 127.901 53.5905 126.127 57.1428C124.352 60.6951 129.064 63.9412 129.248 66.0235C129.431 68.1059 127.595 76.1292 125.637 83.3562C123.679 90.5833 125.576 90.5221 129.37 89.7259C133.164 88.8072 133.103 84.2749 135.735 75.4555Z" fill="#F5A6AC"/>
<path d="M96.8747 80.2327C96.8747 80.3552 96.8135 80.4777 96.7523 80.6002C96.6911 80.7839 96.6911 80.6002 96.7523 80.6002C96.7523 80.6002 96.6911 80.7839 96.6299 80.7839C96.5687 80.8451 96.5687 80.9064 96.5075 80.9676C96.5075 80.9676 96.3851 81.1514 96.4463 81.0289C96.5075 80.9064 96.3851 81.0901 96.3851 81.0901C96.3239 81.1514 96.2627 81.2126 96.2015 81.2739C96.1403 81.3351 96.1403 81.3351 96.0791 81.3964C95.8955 81.5189 96.0791 81.3964 96.0791 81.3964C96.0791 81.3964 95.7731 81.5801 95.7119 81.6413C95.6507 81.6413 95.5895 81.7026 95.5283 81.7026C95.6507 81.6413 95.6507 81.6413 95.5895 81.6413C95.5283 81.6413 95.5283 81.6413 95.4671 81.7026C95.4059 81.7026 95.3447 81.7638 95.2835 81.7638C95.2835 81.7638 94.9776 81.8251 95.0999 81.8251C95.2223 81.8251 94.9776 81.8251 94.9776 81.8251H94.7328C94.794 81.7638 94.9776 81.8863 94.7328 81.8251C94.6716 81.8251 94.6104 81.8251 94.5492 81.7638C94.488 81.7638 94.3656 81.7026 94.3656 81.7026C94.488 81.7026 94.5492 81.7638 94.3656 81.7026C94.3044 81.7026 94.2432 81.6413 94.182 81.6413C94.1208 81.6413 93.9372 81.5189 94.182 81.6413C94.0596 81.5801 93.9984 81.4576 93.9372 81.3964C93.876 81.3351 93.8148 81.2739 93.8148 81.2126C93.9372 81.4576 93.8148 81.2126 93.8148 81.1514C93.7536 81.0901 93.6312 80.9064 93.6312 80.8451C93.6924 80.9676 93.6924 80.9676 93.6924 80.9064C93.6924 80.8451 93.6924 80.8451 93.6312 80.7839C93.6312 80.7227 93.57 80.6614 93.57 80.6002C93.4476 80.0489 92.8357 79.6815 92.2849 79.8652C91.7341 80.0489 91.4281 80.6002 91.5505 81.1514C91.9177 82.7438 93.5088 84.0912 95.2223 83.9075C96.8747 83.7237 98.4046 82.4988 98.7106 80.7839C98.833 80.2327 98.527 79.6202 97.9762 79.4977C97.609 79.3752 96.9971 79.6202 96.8747 80.2327Z" fill="black"/>
<path d="M91.7953 80.2939C91.6117 80.6002 91.4282 80.8451 91.2446 81.0901C91.1834 81.2126 91.367 80.9676 91.2446 81.0901C91.1834 81.1514 91.1222 81.2126 91.061 81.2739C90.9998 81.3351 90.9386 81.3964 90.8774 81.4576C90.8774 81.4576 90.6938 81.6413 90.8162 81.5189C90.9386 81.4576 90.755 81.5801 90.6938 81.5801C90.6326 81.6413 90.5102 81.6413 90.449 81.7026C90.6326 81.5801 90.3878 81.7026 90.3266 81.7638C90.2042 81.8251 90.143 81.8251 90.0206 81.8251C89.837 81.8863 89.7146 81.8863 89.5311 81.9476C89.2863 82.0088 89.6534 81.9476 89.4087 81.9476C89.2863 81.9476 89.2251 81.9476 89.1027 81.9476C88.9191 81.9476 89.1639 81.9476 89.0415 81.9476C88.9803 81.9476 88.9191 81.8863 88.7967 81.8863C88.6743 81.8863 88.9803 82.0088 88.7967 81.8863C88.7355 81.8251 88.6743 81.8251 88.6131 81.7638C88.4295 81.6413 88.7355 81.8863 88.5519 81.7638C88.4907 81.7026 88.4295 81.7026 88.4295 81.6413C88.4295 81.6413 88.2459 81.3964 88.3071 81.5189C88.3683 81.6413 88.2459 81.4576 88.2459 81.4576C88.1847 81.3964 88.1847 81.3351 88.1235 81.2739C88.2459 81.4576 88.1235 81.2126 88.1235 81.1514C88.1235 81.0901 88.0623 81.0289 88.0623 80.9064C88.0623 80.7839 88.0623 80.7226 88.0623 80.8451C88.0623 80.6614 88.0623 80.4777 88.0623 80.2939C88.0623 80.0489 88.0011 80.4164 88.0623 80.2327C88.0623 80.1714 88.1235 80.0489 88.1235 79.9877C88.2459 79.4365 87.9399 78.824 87.3892 78.7015C86.8384 78.579 86.2876 78.8853 86.104 79.4365C85.8592 80.4164 85.9204 81.5189 86.41 82.4375C86.8384 83.2337 87.6339 83.8462 88.5519 84.03C89.5311 84.2137 90.8162 83.9687 91.6729 83.3562C92.4073 82.8663 92.9581 82.0701 93.3865 81.3351C93.6924 80.8451 93.5088 80.1714 93.0193 79.9264C92.7133 79.6202 92.1013 79.804 91.7953 80.2939Z" fill="black"/>
<path d="M88.3071 79.7427C88.5519 76.1904 89.5922 72.8219 90.5714 69.4533C90.9386 68.1671 88.9803 67.6159 88.5519 68.9021C87.5115 72.4544 86.4712 76.0679 86.2264 79.7427C86.1652 80.2939 86.716 80.7839 87.2668 80.7839C87.8787 80.7839 88.3071 80.2939 88.3071 79.7427Z" fill="black"/>
<path d="M114.805 58.2453C113.214 56.2241 111.072 54.9379 108.502 54.693C106.054 54.5092 103.545 55.4892 101.893 57.2041C101.22 57.8778 101.22 59.0415 101.893 59.7152C102.566 60.3889 103.668 60.3889 104.402 59.7152C104.524 59.5927 104.708 59.4089 104.891 59.2864C105.014 59.2252 105.075 59.1639 104.891 59.2864C104.953 59.2252 105.075 59.1639 105.136 59.1027C105.32 58.9802 105.565 58.8577 105.748 58.7352C105.871 58.674 105.932 58.6127 106.054 58.6127C106.299 58.4902 105.809 58.674 106.054 58.6127C106.483 58.4902 106.85 58.3677 107.278 58.3065C107.523 58.2453 107.033 58.3065 107.278 58.3065C107.401 58.3065 107.462 58.3065 107.584 58.3065C107.829 58.3065 108.074 58.3065 108.318 58.3065C108.441 58.3065 108.502 58.3065 108.624 58.3065C108.441 58.3065 108.441 58.3065 108.624 58.3065C108.808 58.3677 109.053 58.3677 109.236 58.429C109.42 58.4902 109.604 58.5515 109.848 58.6127C109.665 58.5515 109.726 58.5515 109.848 58.6127C109.971 58.674 110.032 58.674 110.154 58.7352C110.338 58.8577 110.522 58.919 110.705 59.0415C110.828 59.1027 110.889 59.1639 111.011 59.2864C111.256 59.4089 110.828 59.1027 111.011 59.2864C111.134 59.4089 111.317 59.5314 111.44 59.7152C111.501 59.7764 111.562 59.8377 111.623 59.9601C111.684 60.0214 111.868 60.2664 111.684 60.0214C112.235 60.7563 113.214 61.1851 114.071 60.6339C114.867 60.2051 115.417 59.0415 114.805 58.2453Z" fill="black"/>
<path d="M87.9399 57.8778C86.2264 56.4079 84.0845 55.5504 81.8202 55.5504C79.5559 55.5504 77.414 56.4691 75.7617 57.939C75.0885 58.5515 75.0885 59.8377 75.7617 60.4501C76.4961 61.1238 77.4752 61.1238 78.2708 60.4501C78.332 60.3889 78.4544 60.3276 78.5156 60.2664C78.3932 60.3889 78.3932 60.3889 78.5156 60.2664C78.6992 60.1439 78.8827 60.0214 79.0663 59.8989C79.2499 59.7764 79.3723 59.7152 79.5559 59.6539C79.6171 59.5927 79.6783 59.5927 79.8007 59.5314C79.6171 59.5927 79.6171 59.5927 79.8007 59.5314C80.2291 59.4089 80.5963 59.2864 81.0246 59.1639C81.3918 59.1027 80.7799 59.1639 81.2082 59.1639C81.3918 59.1639 81.6366 59.1027 81.8202 59.1027C82.0038 59.1027 82.2486 59.1027 82.4322 59.1027C82.9217 59.1027 82.1262 59.0415 82.6158 59.1027C83.0441 59.1639 83.4725 59.2864 83.8397 59.4089C83.9009 59.4702 84.2681 59.5927 84.0233 59.4702C84.2069 59.5314 84.3905 59.6539 84.5741 59.7764C84.7576 59.8989 84.9412 60.0214 85.1248 60.1439C85.186 60.2051 85.3084 60.2664 85.3696 60.3276C85.2472 60.2051 85.2472 60.2051 85.3696 60.3276C86.0428 60.9401 87.2055 61.0626 87.8787 60.3276C88.5519 59.7152 88.7354 58.4902 87.9399 57.8778Z" fill="black"/>
<path d="M108.869 123.289C91.3057 126.78 71.6615 117.47 67.439 99.219C65.1135 89.1746 66.9494 78.3953 69.5196 68.5346C71.2332 61.7975 74.1094 54.9379 77.7812 49.0583C79.0052 47.1597 75.9453 45.3835 74.7214 47.2821C70.56 53.8968 67.3778 61.8588 65.6642 69.5146C63.1552 80.9064 61.3193 92.6657 65.0523 103.996C71.0496 122.003 92.1625 130.21 109.726 126.719C112.051 126.29 111.134 122.86 108.869 123.289Z" fill="black"/>
<path d="M106.483 113.306C102.872 115.082 98.6494 115.327 94.8552 114.041C93.5701 113.612 93.0805 115.633 94.3044 116.062C98.6494 117.532 103.484 117.164 107.584 115.143C108.686 114.469 107.645 112.693 106.483 113.306Z" fill="black"/>
<path d="M144.731 71.4745C142.772 71.5969 140.875 72.6994 140.018 74.4755C139.1 76.3129 139.284 78.579 140.508 80.2327C140.875 80.6614 141.426 80.9064 141.916 80.6002C142.344 80.3552 142.65 79.6202 142.283 79.1915C142.16 79.069 142.038 78.8853 141.977 78.7628C141.916 78.6403 141.854 78.579 141.793 78.4565C141.793 78.4565 141.732 78.2728 141.793 78.3953C141.732 78.2116 141.671 78.0278 141.61 77.8441C141.61 77.7828 141.548 77.6603 141.548 77.5991C141.487 77.4153 141.548 77.5991 141.548 77.4766C141.487 76.8029 141.548 76.0679 141.793 75.578C141.977 75.2717 142.099 75.0267 142.283 74.843C142.405 74.7205 142.527 74.598 142.65 74.4755C142.65 74.4755 142.833 74.2918 142.772 74.353C142.711 74.4143 142.895 74.2305 142.895 74.2305C143.017 74.108 143.201 74.0468 143.323 73.9856C143.445 73.9243 143.507 73.8631 143.629 73.8631C143.507 73.9243 143.69 73.8631 143.751 73.8631C143.935 73.8018 144.119 73.7406 144.241 73.7406C144.302 73.7406 144.425 73.6793 144.486 73.6793C144.302 73.6793 144.608 73.6793 144.608 73.6793C145.159 73.6181 145.649 73.2506 145.649 72.6381C145.771 71.9644 145.281 71.4745 144.731 71.4745Z" fill="black"/>
<path d="M103.3 87.276C102.138 89.8484 102.933 92.9107 105.197 94.5031C105.626 94.8093 106.36 94.5643 106.605 94.1356C106.911 93.5844 106.727 93.0332 106.238 92.7269C106.054 92.6044 106.299 92.7882 106.238 92.7269C106.177 92.6657 106.115 92.6657 106.115 92.6044C106.054 92.5432 105.932 92.4207 105.871 92.3595C105.809 92.2982 105.687 92.1757 105.626 92.1145C105.748 92.2982 105.626 92.1757 105.626 92.1145C105.565 92.0532 105.565 91.992 105.503 91.9307C105.381 91.747 105.259 91.502 105.136 91.257C105.075 91.1345 105.197 91.502 105.136 91.257C105.136 91.1958 105.075 91.1345 105.075 91.1345C105.014 91.012 105.014 90.8895 104.953 90.7671C104.953 90.6446 104.891 90.5221 104.891 90.3996L104.83 90.2158C104.83 90.2158 104.83 90.4608 104.83 90.2771C104.83 90.0321 104.769 89.7871 104.83 89.5421C104.83 89.4809 104.83 89.4196 104.83 89.3584C104.83 89.1747 104.83 89.4809 104.83 89.3584C104.83 89.2359 104.891 89.1134 104.891 88.9909C104.953 88.8684 104.953 88.7459 105.014 88.6234C105.014 88.5622 105.075 88.5009 105.075 88.5009C105.136 88.256 105.014 88.6847 105.075 88.4397C105.32 87.9497 105.259 87.276 104.708 87.031C104.218 86.6636 103.545 86.7248 103.3 87.276Z" fill="black"/>
<path d="M100.363 95.5443C99.9957 95.6667 99.6285 95.7892 99.2614 95.8505C99.0778 95.9117 98.9554 95.9117 98.7718 95.973C98.7106 95.973 98.6494 95.973 98.5882 95.973C98.7106 95.973 98.7106 95.973 98.5882 95.973C98.527 95.973 98.4046 95.973 98.3434 95.973C97.9762 95.973 97.609 96.0342 97.3031 95.973C97.1195 95.973 96.9359 95.973 96.7523 95.9117C96.4463 95.9117 96.9971 95.973 96.6911 95.9117C96.5687 95.9117 96.4463 95.8505 96.3851 95.8505C95.8343 95.728 95.2224 95.973 95.1 96.5854C94.9776 97.0754 95.2836 97.7491 95.8343 97.8716C97.5478 98.1778 99.3226 98.1166 100.914 97.5041C101.403 97.3204 101.832 96.7692 101.648 96.218C101.464 95.728 100.914 95.2993 100.363 95.5443Z" fill="black"/>
<path d="M153.482 182.882C154.4 185.944 156.297 187.169 157.827 187.659C158.377 183.8 158.806 179.88 159.173 176.144C156.97 176.696 152.074 178.411 153.482 182.882Z" fill="#EF7600"/>
<path d="M52.0785 134.864C52.0785 134.864 51.5278 130.087 51.3442 126.964C51.2218 124.024 50.671 118.879 56.7907 119.063C62.6656 119.185 63.4 128.25 63.4 130.271C63.4 132.415 63.2776 136.028 63.2776 136.028L51.4054 139.335L52.0785 134.864Z" fill="#F47D86"/>
<path d="M107.829 134.313C102.688 164.079 101.464 194.09 103.117 224.223C103.178 225.57 105.32 225.631 105.259 224.223C103.606 194.273 104.769 164.446 109.848 134.926C110.093 133.517 108.074 132.966 107.829 134.313Z" fill="#A3A4A4"/>
<path d="M96.0791 159.73C100.914 159.73 100.914 152.258 96.0791 152.258C91.2445 152.197 91.2445 159.73 96.0791 159.73Z" fill="black"/>
<path d="M94.7328 200.888C99.5673 200.888 99.5673 193.416 94.7328 193.416C89.8982 193.416 89.8982 200.888 94.7328 200.888Z" fill="black"/>
<path d="M23.01 173.756C34.9434 168.427 55.5668 170.755 60.9521 196.968C65.3583 218.282 48.5291 229.735 32.7403 228.939C26.4983 228.633 4.4062 225.019 4.83457 198.499C5.14056 180.309 23.01 173.756 23.01 173.756Z" fill="#A3A4A4"/>
<path d="M18.971 186.128L48.0395 158.75L68.5405 174.43C68.5405 174.43 57.4027 204.869 53.4249 210.932C49.6919 216.628 39.166 227.163 24.0504 219.201C11.6886 212.647 8.75115 198.132 18.971 186.128Z" fill="#F5A6AC"/>
<path d="M49.6919 136.579C53.9145 132.353 67.8062 130.822 70.9884 132.537C74.1707 134.252 76.7409 138.723 74.1707 143.5C74.1707 143.5 77.5977 144.786 78.2096 148.4C78.8216 152.013 77.7813 155.566 75.211 156.484C75.211 156.484 78.0261 156.852 77.7813 162.364C77.6589 165.671 75.4558 166.651 75.4558 166.651C75.4558 166.651 77.4141 168.979 76.1902 172.531C74.7826 176.696 67.2554 178.594 59.2386 177.553C51.0994 176.573 44.3066 166.161 44.6738 153.116C44.9186 142.153 47.55 138.723 49.6919 136.579Z" fill="#F5A6AC"/>
<path d="M174.105 139.703C176.981 151.646 178.572 163.773 178.94 176.022C179.001 177.369 181.143 177.431 181.082 176.022C180.714 163.589 179.062 151.217 176.186 139.152C175.819 137.804 173.799 138.355 174.105 139.703Z" fill="black"/>
<path d="M174.166 178.717C174.166 178.717 175.941 171.612 190.934 171.612C205.927 171.612 212.047 179.145 214.862 183.31C219.268 189.864 223.246 213.872 208.498 222.753C193.749 231.634 171.596 226.856 171.841 211.055C172.147 195.253 174.166 178.717 174.166 178.717Z" fill="#A3A4A4"/>
<path d="M166.027 177.614C166.027 177.614 190.812 176.757 194.239 177.308C197.666 177.859 210.211 183.31 208.192 200.704C206.172 218.098 193.382 220.977 188.242 220.119C183.101 219.262 161.743 211.3 161.743 211.3L166.027 177.614Z" fill="#F5A6AC"/>
<path d="M161.56 160.894C161.927 150.788 159.785 147.604 147.178 146.072L148.77 136.579C148.77 136.579 155.868 137.62 157.337 132.415C158.806 127.209 153.971 124.269 147.913 124.085C147.913 124.085 148.402 120.288 143.813 120.41C139.223 120.533 139.529 123.473 138.183 133.088C136.836 142.704 136.408 144.603 136.408 144.603C136.408 144.603 122.394 140.07 117.376 147.114C113.704 152.197 105.197 200.704 109.175 205.481C113.275 210.442 144.425 214.423 149.259 211.422C154.094 208.421 161.193 171 161.56 160.894Z" fill="#FFC31C"/>
<path d="M148.647 129.413C150.116 129.413 150.116 127.086 148.647 127.086C147.178 127.086 147.178 129.413 148.647 129.413Z" fill="black"/>
<path d="M154.461 153.79C156.113 156.729 159.724 157.097 161.56 157.036C161.254 151.707 159.418 148.89 153.971 147.297C153.482 148.584 152.809 150.972 154.461 153.79Z" fill="#EF7600"/>
<path d="M129.493 143.255C129.554 144.786 132.002 145.644 134.082 147.42C136.653 149.563 141.059 148.339 140.936 143.806C140.875 140.622 138.672 138.845 137.387 138.049C136.591 143.316 136.347 144.541 136.347 144.541C136.347 144.541 133.287 143.561 129.493 143.255Z" fill="#EF7600"/>
<path d="M136.591 159.975C136.591 159.975 140.569 160.833 141.487 164.569C142.405 168.305 140.692 172.041 136.285 170.081C131.696 168.06 129.921 168.856 128.758 166.712C127.534 164.569 129.064 161.017 132.063 160.037C135.061 159.118 136.591 159.975 136.591 159.975Z" fill="#EF7600"/>
<path d="M143.139 188.945C146.75 190.047 147.423 194.028 146.016 195.805C144.608 197.642 142.527 197.274 141.059 198.867C139.957 200.092 136.469 201.99 133.838 199.112C131.206 196.233 132.675 192.497 135.429 190.66C138.182 188.822 140.936 188.271 143.139 188.945Z" fill="#EF7600"/>
<path d="M111.256 183.8C114.867 185.27 117.988 182.208 118.294 179.084C118.538 176.328 115.172 171.183 111.378 170.204C110.644 174.307 109.971 178.533 109.42 182.637C109.848 183.004 110.338 183.433 111.256 183.8Z" fill="#EF7600"/>
<path d="M118.722 207.625C121.476 204.808 119.762 200.765 116.947 199.357C114.989 198.377 110.95 198.928 108.135 200.643C108.257 203.032 108.563 204.746 109.114 205.42C110.154 206.706 112.969 207.87 116.641 208.911C117.253 208.789 117.926 208.421 118.722 207.625Z" fill="#EF7600"/>
<path d="M147.79 182.024C147.79 182.024 142.405 179.207 145.159 174.552C147.974 169.897 160.764 173.572 163.273 174.675C165.782 175.777 170.556 180.125 170.25 187.842C169.944 195.498 167.435 213.137 158.683 214.362C149.932 215.587 144.057 212.525 142.772 209.891C141.854 207.993 142.16 203.889 146.628 204.134C146.628 204.134 141.181 202.174 141.548 198.744C141.854 195.682 143.507 193.538 146.75 193.845C146.75 193.845 140.508 191.762 141.977 186.066C142.956 182.024 147.79 182.024 147.79 182.024Z" fill="#F5A6AC"/>
<path d="M61.9924 158.567C64.1343 157.893 66.3374 157.464 68.5405 157.281C70.3152 157.158 72.3959 156.913 74.1094 157.587C75.7617 158.199 76.0677 160.037 75.8841 161.629C75.6393 163.283 74.7214 164.753 73.4362 165.794C73.0079 166.161 73.0691 166.957 73.4362 167.325C73.8646 167.754 74.4766 167.692 74.9662 167.325C76.6797 165.978 77.72 163.956 78.026 161.874C78.332 159.73 77.7812 157.342 75.8841 156.117C74.0482 154.892 71.5391 155.014 69.3972 155.076C66.7046 155.198 64.0119 155.688 61.3805 156.484C60.1565 156.913 60.7073 158.995 61.9924 158.567Z" fill="black"/>
<path d="M44.2454 150.115C43.5722 158.322 45.2245 168.182 51.4666 174.062C54.2817 176.696 57.8311 178.227 61.6253 178.717C65.4807 179.207 70.0093 178.962 73.3751 176.879C76.8021 174.736 78.5768 169.959 75.5782 166.651C74.6602 165.61 73.1303 167.141 74.0483 168.182C75.517 169.836 75.0274 172.347 73.6199 173.878C72.09 175.532 69.7033 176.206 67.5614 176.512C63.4 177.124 58.9938 176.512 55.3832 174.246C47.55 169.469 45.7141 158.444 46.4485 150.054C46.5097 148.706 44.3678 148.706 44.2454 150.115Z" fill="black"/>
<path d="M62.4208 168.917C66.5822 169.285 70.8048 168.795 74.7826 167.509C76.0677 167.08 75.5169 164.998 74.2318 165.426C70.4376 166.651 66.4598 167.08 62.482 166.712C61.9312 166.651 61.4416 167.264 61.4416 167.754C61.3805 168.489 61.87 168.856 62.4208 168.917Z" fill="black"/>
<path d="M67.8061 131.435C61.8088 130.761 55.628 132.292 50.5486 135.599C49.3859 136.334 50.4874 138.233 51.6502 137.498C56.4235 134.313 62.1148 133.027 67.8061 133.639C69.2137 133.762 69.2137 131.618 67.8061 131.435Z" fill="black"/>
<path d="M61.4417 146.746C63.3388 145.95 65.3583 145.399 67.439 145.215C69.4585 145.031 71.6616 144.909 73.6199 145.521C75.517 146.072 76.4349 147.726 76.6185 149.625C76.7409 151.34 76.6185 153.912 75.3334 155.259C74.3542 156.239 75.8841 157.771 76.8633 156.791C78.5156 155.076 78.8828 152.381 78.8216 150.115C78.7604 147.787 77.8424 145.338 75.7617 144.113C73.681 142.888 70.866 142.888 68.5405 143.01C65.909 143.194 63.4 143.745 60.9521 144.725C60.4013 144.97 60.0341 145.46 60.2177 146.072C60.2789 146.501 60.9521 146.991 61.4417 146.746Z" fill="black"/>
<path d="M148.586 180.86C144.914 180.86 141.548 183.678 141.487 187.475C141.487 189.251 142.222 191.027 143.568 192.191C145.037 193.477 146.934 194.028 148.77 194.518C151.217 195.192 153.665 195.682 156.113 196.111C157.46 196.356 158.072 194.273 156.664 194.028C154.277 193.6 151.891 193.11 149.565 192.497C147.79 192.007 145.587 191.578 144.425 190.047C143.445 188.761 143.384 186.863 144.119 185.515C144.975 183.923 146.75 183.065 148.525 183.065C149.994 183.065 149.994 180.86 148.586 180.86Z" fill="black"/>
<path d="M146.995 191.823C143.629 192.007 141.61 195.56 141.61 198.622C141.61 200.398 142.466 201.929 143.874 202.97C145.22 203.95 146.872 204.44 148.402 204.869C150.544 205.481 152.686 205.91 154.889 206.155C155.501 206.216 155.991 205.604 155.991 205.053C155.991 204.44 155.501 204.012 154.889 203.95C152.87 203.705 150.911 203.338 148.953 202.725C147.484 202.297 145.71 201.868 144.608 200.765C143.445 199.663 143.568 197.887 144.119 196.478C144.547 195.253 145.587 193.967 146.934 193.906C148.402 193.906 148.402 191.762 146.995 191.823Z" fill="black"/>
<path d="M147.117 202.358C145.281 202.419 143.507 203.644 142.65 205.236C141.732 206.951 141.977 208.972 143.017 210.565C145.343 214.117 150.361 214.668 154.216 215.403C154.767 215.526 155.379 215.22 155.562 214.668C155.685 214.117 155.379 213.443 154.828 213.321C153.053 213.015 151.279 212.708 149.504 212.219C148.035 211.79 146.505 211.239 145.404 210.136C144.547 209.279 143.874 207.87 144.363 206.645C144.792 205.604 145.955 204.563 147.117 204.563C148.525 204.44 148.525 202.297 147.117 202.358Z" fill="black"/>
<path d="M162.722 173.388C160.336 172.776 158.01 172.102 155.562 171.673C153.053 171.183 150.116 170.816 147.668 171.918C145.343 172.96 143.996 175.287 144.608 177.798C145.281 180.37 147.484 181.963 149.81 182.943C152.931 184.229 156.297 185.025 159.54 185.699C160.887 186.005 161.499 183.923 160.091 183.616C156.97 182.943 153.727 182.208 150.728 180.983C148.647 180.187 145.465 177.921 146.873 175.287C148.158 172.776 152.074 173.266 154.339 173.633C156.97 174.062 159.54 174.797 162.111 175.409C163.457 175.838 164.069 173.756 162.722 173.388Z" fill="black"/>
<path d="M167.741 183.371C169.393 192.558 167.741 202.174 163.273 210.381C162.6 211.606 164.497 212.708 165.17 211.484C169.944 202.725 171.596 192.62 169.883 182.82C169.577 181.412 167.496 181.963 167.741 183.371Z" fill="black"/>
<path d="M123.556 153.116C126.739 153.116 126.8 148.094 123.556 148.094C120.374 148.094 120.313 153.116 123.556 153.116Z" fill="black"/>
<path d="M170.005 146.991C171.78 149.074 174.289 150.605 176.92 151.217C177.471 151.34 178.083 151.033 178.266 150.482C178.389 149.931 178.083 149.319 177.532 149.135C176.92 149.012 176.308 148.829 175.757 148.584C175.696 148.584 175.635 148.522 175.696 148.584C175.635 148.522 175.513 148.522 175.451 148.461C175.329 148.4 175.145 148.339 175.023 148.277C174.717 148.155 174.472 147.971 174.227 147.849C173.983 147.665 173.738 147.542 173.493 147.359C173.432 147.297 173.371 147.236 173.31 147.175C173.248 147.114 173.187 147.052 173.248 147.175C173.126 147.052 173.004 146.991 172.881 146.869C172.392 146.44 171.963 146.011 171.535 145.521C171.168 145.093 170.372 145.093 170.005 145.521C169.577 145.95 169.638 146.501 170.005 146.991Z" fill="black"/>
<path d="M89.6534 92.6044C91.7341 93.9518 94.6104 94.2581 96.997 94.1356C99.4449 94.0743 101.77 93.3394 103.667 91.747C104.708 90.8895 103.239 89.4196 102.199 90.2771C100.73 91.5632 98.7105 91.992 96.8134 92.0532C94.7939 92.1145 92.4073 91.9307 90.6938 90.767C89.5922 90.0933 88.5519 91.8695 89.6534 92.6044Z" fill="black"/>
<path d="M103.239 68.5959C105.565 66.3298 109.053 67.2485 111.378 68.9021C111.807 69.2083 112.541 68.9634 112.786 68.5346C113.092 68.0447 112.847 67.4322 112.419 67.126C110.828 65.9623 108.869 65.1661 106.85 65.1661C104.953 65.1048 103.056 65.8398 101.709 67.126C100.852 68.1059 102.321 69.5758 103.239 68.5959Z" fill="black"/>
<path d="M75.8229 68.2284C78.1484 65.9623 81.6366 66.881 83.9621 68.5346C84.3905 68.8408 85.1248 68.5959 85.3696 68.1671C85.6756 67.6772 85.4308 67.0647 85.0024 66.7585C83.4113 65.5948 81.453 64.7986 79.4335 64.7986C77.5364 64.7373 75.6393 65.4723 74.293 66.7585C73.4362 67.6772 74.905 69.1471 75.8229 68.2284Z" fill="black"/>
<path d="M210.946 73.1894C203.357 74.7818 200.787 77.5379 199.073 85.7449C198.767 87.1535 196.932 87.1535 196.626 85.6836C195.157 77.4766 192.648 74.6593 185.121 72.8219C183.835 72.5157 183.835 70.4333 185.182 70.1883C192.77 68.5959 195.34 65.8398 197.054 57.6328C197.36 56.2241 199.196 56.2241 199.502 57.694C200.97 65.9011 203.48 68.7184 211.007 70.5558C212.292 70.862 212.292 72.8831 210.946 73.1894Z" fill="#FFD101"/>
<path d="M37.4525 61.1851C34.4538 61.7975 33.4135 62.9 32.7403 66.2073C32.6179 66.7585 31.8836 66.7585 31.7612 66.2073C31.1492 62.9 30.1701 61.7975 27.1714 61.0626C26.6206 60.9401 26.6818 60.1439 27.1714 60.0214C30.1701 59.4089 31.2104 58.3065 31.8836 54.9992C32.006 54.448 32.7403 54.448 32.8627 54.9992C33.4747 58.3065 34.4538 59.4089 37.4525 60.1439C38.0033 60.2664 38.0033 61.0626 37.4525 61.1851Z" fill="#FFD101"/>
<path d="M191.301 10.3506C186.589 11.3306 184.937 13.1067 183.897 18.1901C183.713 19.1088 182.55 19.0476 182.367 18.1901C181.449 13.0455 179.858 11.2693 175.207 10.1669C174.411 9.98314 174.411 8.69697 175.207 8.51323C179.919 7.53329 181.571 5.75714 182.611 0.673698C182.795 -0.244997 183.958 -0.183751 184.141 0.673698C185.059 5.81839 186.65 7.59453 191.301 8.69697C192.158 8.94195 192.097 10.1669 191.301 10.3506Z" fill="#FFDA00"/>
</g>
<defs>
<clipPath id="clip0_54_5">
<rect width="226" height="229" fill="white"/>
</clipPath>
</defs>
</svg>
