<svg width="24" height="24" viewBox="0 0 24 24" fill="none" xmlns="http://www.w3.org/2000/svg">
<g clip-path="url(#clip0_690_10727)">
<path fill-rule="evenodd" clip-rule="evenodd" d="M12.9998 13.0003H7.99975C7.44775 13.0003 6.99975 12.5533 6.99975 12.0003C6.99975 11.4473 7.44775 11.0003 7.99975 11.0003H12.9998C13.5518 11.0003 13.9998 11.4473 13.9998 12.0003C13.9998 12.5533 13.5518 13.0003 12.9998 13.0003M15.9998 9.00026H7.99975C7.44775 9.00026 6.99975 8.55326 6.99975 8.00026C6.99975 7.44726 7.44775 7.00026 7.99975 7.00026H15.9998C16.5518 7.00026 16.9998 7.44726 16.9998 8.00026C16.9998 8.55326 16.5518 9.00026 15.9998 9.00026M21.6858 5.74926C21.4078 3.94126 19.9438 2.57326 18.1878 2.36526C14.0878 1.88026 9.98675 1.87826 5.88675 2.35926C4.02775 2.57826 2.59775 4.09126 2.31975 6.00626C1.89575 8.93926 1.88675 11.8723 2.33275 14.8063C2.61175 16.6393 4.09775 18.0283 5.87875 18.2373C6.85375 18.3523 7.82775 18.4393 8.80275 18.4993C8.88875 18.5053 8.96775 18.5483 9.01875 18.6183L11.1488 21.5573C11.5778 22.1463 12.4488 22.1473 12.8778 21.5593L15.0208 18.6173C15.0718 18.5473 15.1498 18.5043 15.2358 18.4983C16.2068 18.4383 17.1768 18.3523 18.1468 18.2373C19.9288 18.0283 21.3388 16.6393 21.6178 14.8063C22.0768 11.7863 22.1498 8.76826 21.6858 5.74926" fill="#00880D"/>
</g>
<defs>
<clipPath id="clip0_690_10727">
<rect width="24" height="24" fill="white"/>
</clipPath>
</defs>
</svg>
