<svg width="24" height="24" viewBox="0 0 24 24" fill="none" xmlns="http://www.w3.org/2000/svg">
<g clip-path="url(#clip0_690_10720)">
<path fill-rule="evenodd" clip-rule="evenodd" d="M13.283 12.849C13.807 12.205 16.25 11.52 16.25 9.74C16.25 7.808 14.184 7 12.086 7C10.086 7 8.25 8.191 8.25 9.535C8.25 10.082 8.743 10.37 9.317 10.37C10.906 10.37 10.086 8.562 12.185 8.562C13.169 8.562 13.758 9 13.758 9.74C13.758 11.082 10.889 11.452 10.889 13.083C10.889 13.521 11.234 14 11.939 14C13.021 14 12.889 13.328 13.283 12.849ZM12 1.5C17.799 1.5 22.5 6.202 22.5 12C22.5 17.799 17.799 22.5 12 22.5C6.201 22.5 1.5 17.799 1.5 12C1.5 6.202 6.201 1.5 12 1.5ZM12.4426 16.9779C12.7246 16.9489 12.9486 16.7249 12.9776 16.4429C13.0076 16.1479 13.0076 15.8529 12.9776 15.5579C12.9486 15.2759 12.7246 15.0519 12.4426 15.0229C12.1476 14.9929 11.8526 14.9929 11.5576 15.0229C11.2756 15.0519 11.0516 15.2759 11.0236 15.5579C10.9926 15.8529 10.9926 16.1479 11.0236 16.4429C11.0516 16.7249 11.2756 16.9489 11.5576 16.9779C11.8526 17.0079 12.1476 17.0079 12.4426 16.9779Z" fill="#494A4A"/>
</g>
<defs>
<clipPath id="clip0_690_10720">
<rect width="24" height="24" fill="white"/>
</clipPath>
</defs>
</svg>
