<svg width="25" height="24" viewBox="0 0 25 24" fill="none" xmlns="http://www.w3.org/2000/svg">
<path fill-rule="evenodd" clip-rule="evenodd" d="M16.1026 9.17159C13.1161 6.58184 10.6685 9.88934 10.6685 9.88934C10.6685 9.88934 8.22083 6.58184 5.23433 9.17159C2.59583 11.4595 5.61046 17.4853 10.1431 19.3562C10.4798 19.4953 10.8575 19.4953 11.1938 19.3562C15.7268 17.4853 18.7411 11.4595 16.1026 9.17159" fill="#ED2737"/>
<path fill-rule="evenodd" clip-rule="evenodd" d="M20.2158 6.59496C18.5955 5.18984 17.2672 6.98459 17.2672 6.98459C17.2672 6.98459 15.939 5.18984 14.3178 6.59496C12.8861 7.83659 14.5218 11.1066 16.9818 12.1217C17.1645 12.1971 17.3692 12.1971 17.5518 12.1217C20.0118 11.1066 21.6476 7.83659 20.2158 6.59496" fill="#00A813"/>
<path fill-rule="evenodd" clip-rule="evenodd" d="M15.8429 18.7391L16.2603 18.6176C16.5618 18.5287 16.7973 18.2936 16.8858 17.9913L17.0073 17.5747C17.0444 17.4491 17.2225 17.4491 17.2593 17.5747L17.3811 17.9913C17.4696 18.2936 17.7051 18.5287 18.007 18.6176L18.424 18.7391C18.5496 18.7758 18.5496 18.9536 18.424 18.9903L18.007 19.1126C17.7051 19.2003 17.4696 19.4366 17.3811 19.7381L17.2593 20.1554C17.2225 20.2811 17.0444 20.2811 17.0073 20.1554L16.8858 19.7381C16.7973 19.4366 16.5618 19.2003 16.2603 19.1126L15.8429 18.9903C15.7173 18.9536 15.7173 18.7758 15.8429 18.7391" fill="#FFD51C"/>
<path fill-rule="evenodd" clip-rule="evenodd" d="M15.8429 18.9903L16.2603 19.1126C16.5618 19.2007 16.7973 19.4366 16.8858 19.7381L17.0073 20.1554C17.0444 20.2811 17.2225 20.2811 17.2593 20.1554L17.3811 19.7381C17.4696 19.4366 17.7051 19.2007 18.007 19.1126L18.424 18.9903C18.5496 18.9536 18.5496 18.7758 18.424 18.7391L18.007 18.6176C17.7051 18.5291 17.4696 18.2936 17.3811 17.9913L17.2593 17.5747C17.2225 17.4491 17.0444 17.4491 17.0073 17.5747L16.8858 17.9913C16.7973 18.2936 16.5618 18.5291 16.2603 18.6176L15.8429 18.7391C15.7173 18.7758 15.7173 18.9536 15.8429 18.9903" fill="#FFD51C"/>
<path fill-rule="evenodd" clip-rule="evenodd" d="M8.2766 5.13263L8.73447 4.99837C9.0656 4.90163 9.32472 4.64212 9.42147 4.31212L9.55497 3.8535C9.59622 3.7155 9.7916 3.7155 9.83135 3.8535L9.96597 4.31212C10.062 4.64212 10.3218 4.90163 10.6522 4.99837L11.1108 5.13263C11.2488 5.17238 11.2488 5.36812 11.1108 5.40825L10.6522 5.54212C10.3218 5.63962 10.062 5.89875 9.96597 6.22913L9.83135 6.68738C9.7916 6.82575 9.59622 6.82575 9.55497 6.68738L9.42147 6.22913C9.32472 5.89875 9.0656 5.63962 8.73447 5.54212L8.2766 5.40825C8.1386 5.36812 8.1386 5.17238 8.2766 5.13263" fill="#FFD51C"/>
<path fill-rule="evenodd" clip-rule="evenodd" d="M8.2766 5.40853L8.73447 5.54203C9.0656 5.63953 9.32472 5.89903 9.42147 6.22903L9.55497 6.68766C9.59622 6.82566 9.7916 6.82566 9.83135 6.68766L9.96597 6.22903C10.062 5.89903 10.3218 5.63953 10.6522 5.54203L11.1108 5.40853C11.2488 5.36841 11.2488 5.17266 11.1108 5.13291L10.6522 4.99828C10.3218 4.90153 10.062 4.64241 9.96597 4.31203L9.83135 3.85378C9.7916 3.71541 9.59622 3.71541 9.55497 3.85378L9.42147 4.31203C9.32472 4.64241 9.0656 4.90153 8.73447 4.99828L8.2766 5.13291C8.1386 5.17266 8.1386 5.36841 8.2766 5.40853" fill="#FFD51C"/>
</svg>
