<svg width="24" height="24" viewBox="0 0 24 24" fill="none" xmlns="http://www.w3.org/2000/svg">
<g clip-path="url(#clip0_690_10775)">
<path fill-rule="evenodd" clip-rule="evenodd" d="M6.63896 6.73684C6.63896 7.61053 7.34422 8.31579 8.2179 8.31579C9.09159 8.31579 9.79685 7.61053 9.79685 6.73684C9.79685 6.53789 9.75475 6.34737 9.68106 6.16842C9.46001 5.57895 8.89159 5.15789 8.2179 5.15789C7.54422 5.15789 6.9758 5.57895 6.75475 6.16842C6.68106 6.34737 6.63896 6.53789 6.63896 6.73684ZM4.86001 3.42105C5.71264 2.55789 6.89159 2 8.2179 2C10.8811 2.01053 12.9337 4.2 12.9547 6.73684C12.9653 8.16842 12.1758 9.74737 10.6284 11.4737C10.06 12.1053 9.38632 12.7579 8.6179 13.4316C8.50211 13.5263 8.36527 13.5789 8.2179 13.5789C8.07053 13.5789 7.93369 13.5263 7.8179 13.4316C7.04948 12.7579 6.3758 12.1053 5.80738 11.4737C4.26001 9.74737 3.47053 8.16842 3.48106 6.73684C3.49159 5.47368 4.00738 4.29474 4.86001 3.42105ZM20.8818 16.2105H14.167C13.9912 16.2105 13.8933 16.0084 14.0018 15.8705L17.4607 11.4736H18.0491C19.2386 11.4736 20.2702 12.3052 20.5333 13.4631L21.087 15.9547C21.1165 16.0863 21.0165 16.2105 20.8818 16.2105ZM7.91242 21.9202L15.8556 11.8139C15.964 11.676 15.8651 11.4739 15.6903 11.4739H12.2629C12.2008 11.4739 12.1451 11.4991 12.1051 11.5476C11.3882 12.4402 10.4819 13.3528 9.3861 14.316C9.07031 14.5897 8.64926 14.7476 8.21768 14.7476C7.7861 14.7476 7.36505 14.5897 7.04926 14.316C6.11452 13.5002 5.31031 12.7034 4.64821 11.9244C4.58084 11.8455 4.46505 11.8255 4.37768 11.8812C3.83452 12.2307 3.424 12.7991 3.27031 13.4623L2.05979 18.9055C1.71242 20.4949 2.92294 22.0002 4.544 22.0002H7.74716C7.81137 22.0002 7.87347 21.9697 7.91242 21.9202ZM9.62031 22H19.2603C20.8814 22 22.0919 20.4948 21.7445 18.9063L21.4129 17.4274C21.3908 17.3306 21.3056 17.2632 21.2077 17.2632H13.015C12.9498 17.2632 12.8898 17.2927 12.8498 17.3432L9.45505 21.66C9.34557 21.7979 9.44452 22 9.62031 22Z" fill="#00880D"/>
</g>
<defs>
<clipPath id="clip0_690_10775">
<rect width="24" height="24" fill="white"/>
</clipPath>
</defs>
</svg>
