<svg width="24" height="24" viewBox="0 0 24 24" fill="none" xmlns="http://www.w3.org/2000/svg">
<g clip-path="url(#clip0_690_10758)">
<path fill-rule="evenodd" clip-rule="evenodd" d="M16.0002 17.0002H8.00025C7.44825 17.0002 7.00025 16.5522 7.00025 16.0002C7.00025 15.4482 7.44825 15.0002 8.00025 15.0002H16.0002C16.5522 15.0002 17.0002 15.4482 17.0002 16.0002C17.0002 16.5522 16.5522 17.0002 16.0002 17.0002M16.0002 13.0002H8.00025C7.44825 13.0002 7.00025 12.5522 7.00025 12.0002C7.00025 11.4482 7.44825 11.0002 8.00025 11.0002H16.0002C16.5522 11.0002 17.0002 11.4482 17.0002 12.0002C17.0002 12.5522 16.5522 13.0002 16.0002 13.0002M16.0002 9.00025H8.00025C7.44825 9.00025 7.00025 8.55225 7.00025 8.00025C7.00025 7.44825 7.44825 7.00025 8.00025 7.00025H16.0002C16.5522 7.00025 17.0002 7.44825 17.0002 8.00025C17.0002 8.55225 16.5522 9.00025 16.0002 9.00025M21.7733 7.57725C21.4843 4.75825 19.2423 2.51625 16.4233 2.22725C13.4753 1.92425 10.5262 1.92425 7.57725 2.22725C4.75825 2.51625 2.51625 4.75825 2.22725 7.57725C1.92425 10.5262 1.92425 13.4743 2.22725 16.4233C2.51625 19.2423 4.75825 21.4843 7.57725 21.7733C10.5262 22.0763 13.4753 22.0763 16.4233 21.7733C19.2423 21.4843 21.4843 19.2423 21.7733 16.4233C22.0763 13.4743 22.0763 10.5262 21.7733 7.57725" fill="#BBBBBB"/>
</g>
<defs>
<clipPath id="clip0_690_10758">
<rect width="24" height="24" fill="white"/>
</clipPath>
</defs>
</svg>
