<svg width="24" height="24" viewBox="0 0 24 24" fill="none" xmlns="http://www.w3.org/2000/svg">
<g clip-path="url(#clip0_690_10754)">
<path fill-rule="evenodd" clip-rule="evenodd" d="M17.498 11.1201C17.739 11.3361 18.028 11.4551 18.316 11.4551C18.629 11.4551 18.966 11.3361 19.183 11.0721L22.237 8.38014C22.587 8.01114 22.588 7.43414 22.239 7.06414L19.207 4.37414C18.749 3.89514 17.979 3.87214 17.498 4.32614C17.017 4.78114 16.993 5.54714 17.45 6.02514L17.931 6.52714C16.319 6.59914 14.803 7.31614 13.72 8.48914L11.723 10.7141L9.725 8.51314C8.57 7.24514 6.957 6.52714 5.249 6.52714L3.4 6.50014C2.726 6.50014 2 7.05414 2 7.72414C2 8.39314 2.529 8.92014 3.203 8.92014H5.249C6.26 8.92014 7.246 9.34914 7.92 10.1151L10.086 12.5081L7.92 14.9001C7.246 15.6651 6.26 16.0961 5.249 16.0961H3.203C2.529 16.0961 2 16.6221 2 17.2921C2 17.9621 2.529 18.4881 3.203 18.4881H5.249C6.957 18.4881 8.57 17.7701 9.725 16.5031L11.723 14.3021L13.72 16.5031C14.803 17.6991 16.319 18.4161 17.931 18.4641L17.45 18.9671C17.03 19.4051 16.979 20.1111 17.39 20.5581C17.649 20.8411 17.983 21.0001 18.316 21.0001C18.629 21.0001 18.966 20.8811 19.183 20.6171L22.234 17.9271C22.585 17.5571 22.585 16.9791 22.235 16.6091L19.207 13.9431C18.749 13.4651 17.979 13.4401 17.498 13.8951C17.017 14.3491 16.993 15.1151 17.45 15.5941L17.907 16.0721C16.993 16.0001 16.126 15.5941 15.501 14.9001L13.335 12.5081L15.501 10.1151C16.126 9.42214 16.993 9.01614 17.907 8.94314L17.45 9.42214C17.017 9.90014 17.017 10.6661 17.498 11.1201" fill="#BBBBBB"/>
</g>
<defs>
<clipPath id="clip0_690_10754">
<rect width="24" height="24" fill="white"/>
</clipPath>
</defs>
</svg>
