<svg width="167" height="127" viewBox="0 0 167 127" fill="none" xmlns="http://www.w3.org/2000/svg">
<g clip-path="url(#clip0_81_1616)">
<path d="M19.8575 60.5112C28.6474 51.558 42.8732 42.7023 61.0403 42.2418C104.341 41.1437 119.376 43.3399 145.497 74.3438L151.876 118.932C152.472 123.121 149.207 126.867 144.954 126.867L7.28642 126.982C3.10497 126.982 -0.240192 123.892 0.0089154 119.729C0.791825 106.685 1.16549 79.5599 19.8575 60.5112Z" fill="#E8E7E7"/>
<path d="M55.2751 81.0742C52.7485 74.6006 50.5065 73.2014 42.108 75.6545L40.5155 69.2341C40.5155 69.2341 45.293 67.9323 44.7948 64.2926C44.2966 60.6529 40.4265 60.0684 36.5387 61.6004C36.5387 61.6004 35.8091 59.0765 32.9355 60.3961C30.0619 61.7156 31.0494 63.4956 32.8287 69.9071C34.6081 76.3187 34.8572 77.6559 34.8572 77.6559C34.8572 77.6559 24.7416 78.6477 23.4694 84.4394C22.5442 88.6635 30.4266 121.527 34.27 123.475C38.2112 125.468 59.0562 119.499 61.2804 116.285C63.4868 113.061 57.8018 87.5477 55.2751 81.0742Z" fill="#FFC320"/>
<path d="M38.1668 64.8062C39.1989 64.8062 39.1989 63.2122 38.1668 63.2122C37.1348 63.2122 37.1348 64.8062 38.1668 64.8062Z" fill="#010101"/>
<path d="M48.8248 78.5591C50.6931 79.976 53.0597 79.2144 54.2162 78.6742C52.5614 75.3799 50.6398 74.1313 46.7163 74.6183C46.7786 75.5482 47.0277 77.2131 48.8248 78.5591Z" fill="#EE7823"/>
<path d="M30.1331 78.7008C30.5779 79.6395 32.3839 79.5421 34.1988 80.0823C36.4141 80.7465 38.8874 78.7451 37.5618 75.9467C36.6454 73.9807 34.7771 73.4405 33.7451 73.29C34.6971 76.8146 34.8572 77.6559 34.8572 77.6559C34.8572 77.6559 32.633 77.8684 30.1331 78.7008Z" fill="#EE7823"/>
<path d="M39.866 86.733C39.866 86.733 42.6418 86.1928 44.2343 88.3093C45.8268 90.4258 45.7912 93.2331 42.455 93.2065C39.0031 93.18 38.1045 94.1807 36.7522 93.1445C35.3999 92.1084 35.3732 89.4606 37.0369 88.0348C38.6917 86.5913 39.866 86.733 39.866 86.733Z" fill="#EE7823"/>
<path d="M52.7305 104.285C55.3461 104.276 56.5917 106.774 56.0312 108.217C55.4529 109.705 54.0472 109.9 53.3888 111.237C52.8906 112.255 50.9956 114.203 48.6736 112.857C46.3516 111.511 46.5562 108.775 47.9797 106.977C49.4031 105.179 51.1291 104.285 52.7305 104.285Z" fill="#EE7823"/>
<path d="M56.1205 97.6698C57.4017 99.441 58.9052 99.8395 60.0351 99.8218C59.528 97.2005 58.9497 94.5349 58.3625 92.0376C57.028 92.8789 54.2344 95.0574 56.1205 97.6698Z" fill="#EE7823"/>
<path d="M37.3751 118.109C35.9872 117.994 33.7541 119.18 32.3662 120.828C33.0513 122.236 33.7007 123.183 34.2612 123.467C35.311 123.998 37.5619 123.962 40.3288 123.564C40.4444 123.378 40.5512 123.183 40.6579 122.926C41.6811 120.438 39.537 118.286 37.3751 118.109Z" fill="#EE7823"/>
<path d="M49.8302 39.9216C49.8302 39.9216 48.2733 45.8107 48.1843 53.0547C48.0686 62.2381 51.7341 74.4413 58.718 76.7615C68.6111 80.0469 72.6413 71.9262 72.6413 71.9262L53.4067 39.6471L49.8302 39.9216Z" fill="#A3A3A3"/>
<path d="M98.2993 45.2085C98.2993 45.2085 77.9614 40.0987 77.9614 40.6478C77.9614 41.1968 78.3262 70.5624 78.3262 70.5624C78.3262 70.5624 84.6251 77.6382 90.9684 75.8493C99.3936 73.476 98.2993 45.2085 98.2993 45.2085Z" fill="#A3A3A3"/>
<path d="M44.0297 30.4194C44.0297 30.4194 41.9835 20.6604 47.019 12.0172C52.3748 2.81609 61.6808 -1.07157 75.7376 0.247933C89.7944 1.56744 95.9687 11.3973 98.7711 20.315L60.969 28.1878L64.1986 44.1812L55.1862 44.4734L44.0297 30.4194Z" fill="#010101"/>
<path d="M52.8462 34.2185C52.8462 34.2185 51.1915 28.0549 47.3036 27.4793C43.4157 26.9037 42.1257 29.5338 42.8375 33.9174C43.5492 38.301 46.9744 42.472 51.4673 41.0994C51.4673 41.0994 53.6025 47.6881 56.1291 52.8155C59.4387 59.5193 68.0507 70.651 77.2054 77.1245L81.1022 69.0215C81.1022 69.0215 94.1003 68.9064 100.283 55.3483C106.467 41.7902 97.997 20.3947 97.997 20.3947C97.997 20.3947 95.1945 13.3544 89.7943 11.3796C84.394 9.41362 85.4082 12.9205 82.0096 14.5322C78.62 16.144 70.6841 13.5138 67.8016 11.4062C64.9191 9.29849 60.5597 10.2283 58.8871 12.646C57.2056 15.0724 57.7928 18.3668 59.154 20.8109C60.5152 23.2551 57.259 25.717 57.2056 27.2225C57.1522 28.728 58.7003 34.3425 60.3373 39.408C61.9743 44.4734 60.6131 44.5 57.8551 44.0572C55.0971 43.6233 55.0259 40.391 52.8462 34.2185Z" fill="#F5A6AC"/>
<path d="M79.3139 36.7867C79.6164 37.9645 80.6751 38.8235 81.8851 38.9121C83.0861 39.0006 84.216 38.0354 84.4384 36.8841C84.5096 36.5033 84.3317 36.0694 83.9224 35.9808C83.5576 35.9011 83.0861 36.0871 83.0149 36.4945C82.9971 36.5919 82.9705 36.6804 82.9438 36.769C82.8904 36.9107 82.9171 36.769 82.9527 36.7601C82.9438 36.7601 82.8815 36.893 82.8815 36.9018C82.8548 36.9461 82.8281 36.9904 82.7925 37.0347C82.7213 37.1498 82.8548 36.9727 82.7925 37.0347C82.7213 37.1055 82.6591 37.1763 82.5879 37.2383C82.49 37.3269 82.668 37.1941 82.5968 37.2383C82.5612 37.2649 82.5256 37.2915 82.49 37.3092C82.4456 37.3357 82.4011 37.3623 82.3566 37.38C82.232 37.442 82.4545 37.3535 82.3655 37.38C82.3032 37.3977 82.1431 37.4155 82.0897 37.4509C82.1431 37.4155 82.232 37.442 82.0986 37.442C82.0274 37.442 81.9651 37.4332 81.894 37.442C81.8139 37.442 81.9918 37.4686 81.8584 37.4332C81.805 37.4243 81.7516 37.4066 81.7071 37.3977C81.6626 37.3889 81.6271 37.3712 81.5826 37.3535C81.4402 37.3003 81.5826 37.3269 81.5915 37.3623C81.5826 37.3357 81.369 37.2472 81.3335 37.2206C81.3068 37.2029 81.2445 37.1763 81.2267 37.1498C81.2979 37.2029 81.3157 37.2206 81.2712 37.1852C81.2534 37.1675 81.2267 37.1498 81.2089 37.1321C81.1466 37.0701 81.0844 37.0081 81.0221 36.9461C80.9954 36.9195 80.9776 36.893 80.9509 36.8664C80.9687 36.8841 80.9865 36.9107 81.0043 36.9284C81.0043 36.9284 80.9242 36.8044 80.9153 36.7955C80.8797 36.7336 80.7997 36.6361 80.7908 36.5653C80.8264 36.6539 80.8352 36.6716 80.8175 36.6184C80.8086 36.5919 80.7997 36.5653 80.7908 36.5476C80.773 36.4945 80.7641 36.4502 80.7463 36.397C80.6484 36.0251 80.2125 35.7594 79.8388 35.8834C79.4474 36.0074 79.2161 36.3882 79.3139 36.7867Z" fill="#010101"/>
<path d="M83.0863 37.0346C83.4422 37.566 83.8248 38.0973 84.3764 38.4427C84.6789 38.6287 85.0347 38.7349 85.3817 38.7969C85.7909 38.8678 86.1913 38.912 86.6005 38.8323C87.2322 38.7084 87.8105 38.239 88.0952 37.6722C88.4333 37.0081 88.46 36.2465 88.2375 35.5469C88.1219 35.1838 87.7215 34.9093 87.3301 35.0332C86.9653 35.1484 86.6895 35.5469 86.8141 35.9365C86.8586 36.0605 86.8852 36.1845 86.9119 36.3173C86.8941 36.211 86.903 36.2819 86.9119 36.3439C86.9119 36.4059 86.9119 36.4767 86.9119 36.5387C86.9119 36.5918 86.903 36.645 86.903 36.6981C86.9297 36.5299 86.8852 36.7335 86.8852 36.7601C86.8675 36.8221 86.8497 36.8841 86.823 36.9461C86.8497 36.8575 86.8497 36.8841 86.8141 36.9549C86.7963 36.9992 86.7696 37.0346 86.7429 37.0789C86.7251 37.1143 86.6984 37.1409 86.6806 37.1675C86.6984 37.1498 86.7073 37.1232 86.7251 37.1055C86.7251 37.1143 86.6183 37.2206 86.6094 37.2295C86.5916 37.2383 86.5828 37.256 86.565 37.2649C86.5027 37.318 86.5116 37.3092 86.5828 37.256C86.5561 37.3003 86.3959 37.3889 86.3425 37.3977C86.4315 37.3623 86.4404 37.3534 86.3692 37.38C86.3514 37.3889 86.3336 37.3889 86.3158 37.3977C86.2803 37.4066 86.129 37.4243 86.2714 37.4154C86.1468 37.4243 86.0223 37.4154 85.8888 37.4066C85.8354 37.3977 85.8443 37.3977 85.9155 37.4066C85.8888 37.4066 85.871 37.3977 85.8443 37.3977C85.7732 37.3889 85.7109 37.3711 85.6397 37.3623C85.5152 37.3357 85.3995 37.2914 85.2749 37.256C85.2216 37.2383 85.2305 37.2383 85.2927 37.2649C85.266 37.2472 85.2305 37.2383 85.2038 37.2206C85.1593 37.194 85.1148 37.1675 85.0792 37.1409C84.9191 37.0435 85.1771 37.2383 85.0436 37.1143C84.9991 37.0789 84.9547 37.0346 84.9102 36.9992C84.839 36.9284 84.7767 36.8575 84.7055 36.7778C84.67 36.7335 84.5988 36.6361 84.67 36.7424C84.6344 36.6893 84.5988 36.645 84.5632 36.5918C84.492 36.4944 84.4298 36.397 84.3586 36.2907C84.1451 35.9719 83.7002 35.8037 83.3444 36.0251C83.033 36.2288 82.855 36.6893 83.0863 37.0346Z" fill="#010101"/>
<path d="M88.2819 35.7506C87.9795 33.1204 87.1432 30.6142 86.2802 28.1258C86.1467 27.7538 85.7731 27.5059 85.3727 27.6122C85.008 27.7096 84.7233 28.1435 84.8567 28.5154C85.6752 30.8711 86.5204 33.2621 86.8051 35.7506C86.8496 36.1491 87.1076 36.4856 87.5435 36.4856C87.9083 36.4856 88.3264 36.1491 88.2819 35.7506Z" fill="#010101"/>
<path d="M69.4565 22.5644C69.5187 22.4758 69.5365 22.4493 69.4565 22.5467C69.501 22.4847 69.5543 22.4315 69.5988 22.3784C69.6967 22.2633 69.8034 22.157 69.9102 22.0596C69.9636 22.0065 70.017 21.9622 70.0792 21.9091C70.3372 21.6788 69.9725 21.971 70.1326 21.8648C70.2572 21.7851 70.3728 21.6965 70.5063 21.6168C70.6308 21.5371 70.7643 21.4751 70.8977 21.4043C70.9244 21.3954 71.129 21.3069 71.0045 21.3511C70.871 21.4043 71.0935 21.3246 71.1113 21.3157C71.2536 21.2714 71.396 21.2272 71.5383 21.1917C71.6095 21.174 71.6806 21.1563 71.7518 21.1475C71.8141 21.1386 72.0632 21.112 71.8052 21.1297C72.1166 21.112 72.4102 21.1032 72.7216 21.1209C72.8372 21.1297 72.855 21.1475 72.7305 21.1209C72.8016 21.1386 72.8817 21.1475 72.9529 21.1652C73.1041 21.2006 73.2465 21.236 73.3977 21.2803C73.4689 21.3069 73.5401 21.3246 73.6112 21.3511C73.7091 21.3866 73.7447 21.4043 73.629 21.3511C73.7892 21.422 73.9404 21.5017 74.0916 21.5814C74.2251 21.6611 74.3497 21.7496 74.4742 21.8294C74.6343 21.9268 74.3586 21.7142 74.492 21.8471C74.5632 21.9091 74.6343 21.971 74.7055 22.033C75.1859 22.4758 76.0133 22.5467 76.4849 22.033C76.9297 21.546 77.0009 20.7401 76.4849 20.2619C75.2126 19.0929 73.4333 18.4199 71.6895 18.6324C69.8746 18.8538 68.3266 19.7925 67.2768 21.2803C66.8942 21.8205 67.1611 22.6972 67.7305 22.9894C68.38 23.3525 69.0472 23.14 69.4565 22.5644Z" fill="#010101"/>
<path d="M88.2017 21.9799C88.3085 21.8825 88.4241 21.7851 88.5398 21.6876C88.3263 21.8471 88.6999 21.5902 88.7355 21.5637C88.9579 21.422 89.1803 21.3069 89.4206 21.2006C89.1626 21.3157 89.5896 21.1475 89.6341 21.1297C89.7764 21.0855 89.9188 21.0412 90.0611 21.0146C90.2035 20.9792 90.3547 20.9526 90.4971 20.9349C90.2035 20.9792 90.6038 20.9349 90.6572 20.9349C90.9419 20.9172 91.2266 20.9261 91.5113 20.9615C91.2266 20.9261 91.6892 21.0058 91.7426 21.0146C91.876 21.0412 92.0006 21.0766 92.1252 21.1209C92.2497 21.1563 92.3743 21.2006 92.4988 21.2537C92.2497 21.1563 92.6767 21.3423 92.7212 21.36C92.8547 21.4308 92.9881 21.5017 93.1127 21.5902C93.1483 21.6168 93.5219 21.8825 93.3262 21.7231C93.8422 22.1304 94.6073 22.2633 95.1055 21.7231C95.5237 21.2714 95.6571 20.3859 95.1055 19.9519C93.8333 18.9601 92.2942 18.349 90.6572 18.4287C89.0647 18.5084 87.5878 19.1461 86.4135 20.2176C85.933 20.6604 85.9241 21.546 86.4135 21.9887C86.9384 22.4581 87.6857 22.4581 88.2017 21.9799Z" fill="#010101"/>
<path d="M73.5047 25.0883C73.5047 25.0883 69.4656 24.8934 68.3713 25.9473C67.2859 27.01 67.357 29.7641 70.284 29.8172C73.2111 29.8792 76.9655 29.7641 77.5616 28.48C78.1576 27.2048 78.3445 25.1325 73.5047 25.0883Z" fill="white"/>
<path d="M92.8194 24.2204C92.8194 24.2204 88.9316 24.0256 87.8906 25.0351C86.8497 26.0447 86.9209 28.666 89.7323 28.728C92.5525 28.79 96.1557 28.6925 96.7251 27.4616C97.2945 26.2307 97.4813 24.2735 92.8194 24.2204Z" fill="white"/>
<path d="M71.8232 29.4364C74.1008 29.4364 74.1097 25.903 71.8232 25.903C69.5368 25.9118 69.5368 29.4364 71.8232 29.4364Z" fill="#010101"/>
<path d="M90.8531 28.5243C93.1307 28.5243 93.1396 24.9908 90.8531 24.9908C88.5756 24.9997 88.5667 28.5243 90.8531 28.5243Z" fill="#010101"/>
<path d="M72.8994 69.7477C77.7925 70.5536 82.9971 70.0045 87.7124 68.4813C92.6322 66.8873 96.5379 63.7878 99.4026 59.5016C102.677 54.6044 104.145 48.6622 104.109 42.8174C104.073 36.9372 102.552 31.1102 100.942 25.4956C99.6162 20.8641 98.0236 15.9226 95.2301 11.9375C94.3137 10.6269 92.134 11.8755 93.0593 13.2039C95.4703 16.6488 96.8849 20.7932 98.1037 24.7783C99.5361 29.4364 100.844 34.2717 101.378 39.1157C102.463 49.0961 98.9222 61.2285 88.8333 65.4261C84.1715 67.3655 78.5666 68.1625 73.5666 67.3478C71.983 67.0733 71.298 69.4909 72.8994 69.7477Z" fill="#010101"/>
<path d="M79.4918 60.9717C82.6323 61.9015 86.0575 61.5207 88.9223 59.9621C89.7586 59.5105 89.0113 58.2353 88.175 58.6958C85.6483 60.0684 82.6412 60.3783 79.8832 59.5548C78.9669 59.2802 78.5843 60.706 79.4918 60.9717Z" fill="#010101"/>
<path d="M46.3874 32.5979C46.4497 32.5979 46.5031 32.5979 46.5654 32.6068C46.681 32.6156 46.4675 32.5802 46.5831 32.6156C46.6899 32.6422 46.7878 32.6688 46.8856 32.7042C46.7878 32.6688 46.8945 32.713 46.939 32.7308C46.9835 32.7485 47.0191 32.775 47.0636 32.8016C47.1169 32.8282 47.1614 32.8636 47.2148 32.899C47.2504 32.9256 47.2949 32.961 47.2415 32.9167C47.3216 32.9876 47.4016 33.0584 47.4817 33.1381C47.5262 33.1824 47.5618 33.2267 47.6063 33.271C47.633 33.2975 47.6774 33.3595 47.6241 33.2975C47.6952 33.3949 47.7664 33.5012 47.8287 33.6075C47.8554 33.6518 47.8732 33.696 47.8999 33.7403C47.9088 33.758 47.9888 33.9174 47.9532 33.8554C48.1223 34.2362 48.2023 34.7764 48.2201 35.2369C48.2379 35.8037 48.1934 36.3616 48.149 36.9195C48.1134 37.318 48.5137 37.6545 48.8874 37.6545C49.3144 37.6545 49.5902 37.318 49.6258 36.9195C49.7326 35.6089 49.7949 34.2451 49.1899 33.0318C48.665 31.978 47.6063 31.1633 46.3963 31.1456C45.996 31.1367 45.6579 31.491 45.6579 31.8806C45.649 32.2614 45.9871 32.5891 46.3874 32.5979Z" fill="#010101"/>
<path d="M76.5381 76.6463C82.2764 92.3386 85.3102 108.934 85.4703 125.636C85.4792 126.584 86.9561 126.584 86.9472 125.636C86.7871 108.81 83.7444 92.073 77.9615 76.2566C77.6412 75.3711 76.2089 75.7519 76.5381 76.6463Z" fill="#A3A3A3"/>
<path d="M117.161 78.8248C121.609 86.7153 124.972 95.1636 127.169 103.94C127.401 104.861 128.824 104.471 128.593 103.55C126.369 94.65 122.944 86.0777 118.442 78.0809C117.979 77.2574 116.698 78.0012 117.161 78.8248Z" fill="#010101"/>
<path d="M121.013 79.1082C121.102 81.3664 121.102 83.6246 121.013 85.874C120.977 86.8215 122.454 86.8215 122.49 85.874C122.579 83.6158 122.579 81.3576 122.49 79.1082C122.454 78.1695 120.977 78.1606 121.013 79.1082Z" fill="#010101"/>
<path d="M77.3569 89.9388C77.3124 89.8945 77.2679 89.8502 77.2234 89.8059C76.9921 89.558 76.7163 89.3808 76.3871 89.2746C76.0757 89.1152 75.7466 89.0355 75.3907 89.0532C75.0348 89.0355 74.7057 89.1152 74.3943 89.2746C74.074 89.3808 73.7982 89.558 73.558 89.8059C73.4245 89.983 73.2911 90.1513 73.1576 90.3284C72.9263 90.7269 72.8018 91.1608 72.8018 91.6302C72.8284 91.8604 72.864 92.0818 72.8907 92.3121C73.0153 92.746 73.2377 93.1268 73.558 93.4456C73.6025 93.4899 73.6469 93.5342 73.6914 93.5785C73.9227 93.8264 74.1985 94.0035 74.5277 94.1098C74.8391 94.2692 75.1683 94.3489 75.5241 94.3312C75.88 94.3489 76.2092 94.2692 76.5206 94.1098C76.8409 94.0035 77.1167 93.8264 77.3569 93.5785C77.4903 93.4013 77.6238 93.2331 77.7572 93.056C77.9885 92.6575 78.1131 92.2235 78.1131 91.7542C78.0864 91.5239 78.0508 91.3025 78.0241 91.0723C77.8996 90.6384 77.6771 90.2576 77.3569 89.9388Z" fill="#010101"/>
<path d="M24.0389 91.3645C25.5781 91.3025 26.9837 89.5137 26.2186 87.282C25.6225 85.5286 24.5193 84.6962 23.4695 84.3773C23.4606 84.3951 23.4606 84.4128 23.4517 84.4393C23.0069 86.5381 23.5852 89.2214 24.0389 91.3645Z" fill="#EE7823"/>
<path d="M78.6913 120.73C82.0187 120.73 82.0276 115.585 78.6913 115.585C75.364 115.585 75.364 120.73 78.6913 120.73Z" fill="#010101"/>
<path d="M36.9389 120.96C41.8855 120.278 44.2253 119.048 43.8072 116.311C43.3802 113.46 39.5457 113.982 39.5457 113.982C45.3196 112.884 48.478 112.477 47.7929 108.509C47.3125 105.764 41.2005 106.596 41.2005 106.596C47.4282 105.321 49.3498 103.134 49.0829 100.76C48.7894 98.2189 45.4175 98.024 45.4175 98.024C45.4175 98.024 47.9798 94.3755 43.9496 92.9143C39.9193 91.4531 28.1935 94.0124 28.1935 94.0124C28.1935 94.0124 28.7451 85.9891 25.996 82.7036C24.3056 80.6845 21.779 81.0653 21.0494 83.4298C20.2398 86.0422 22.8822 92.3652 13.5406 102.399C8.34495 107.969 4.38591 122.076 3.36279 125.99C4.48378 126.628 5.80939 127 7.23286 127L22.9978 126.982L27.7398 126.973C27.7398 126.973 29.181 122.032 36.9389 120.96Z" fill="#F5A6AC"/>
<path d="M24.7417 95.1725C23.4161 89.0798 23.1314 85.9448 23.4606 84.4305C23.6919 83.3944 24.199 82.5177 24.8841 81.7649C25.2755 81.9775 25.6492 82.2874 25.9961 82.6948C28.7452 85.9802 28.1936 94.0035 28.1936 94.0035L24.7417 95.1725Z" fill="#FFC320"/>
<path d="M156.288 111.742C156.288 111.742 158.948 113.105 157.658 118.764C157.4 119.889 157.098 120.96 156.778 121.943C155.826 124.892 153.068 126.885 149.954 126.885H128.522C128.522 126.885 123.024 123.874 122.748 118.676C122.472 113.477 122.659 107.004 124.856 104.816C125.63 104.046 130.23 102.842 135.301 103.718C153.077 106.818 156.288 111.742 156.288 111.742Z" fill="#A3A3A3"/>
<path d="M156.164 113.238C156.003 107.783 155.336 87.716 154.607 80.3303C154.446 78.7185 154.749 77.1068 155.496 75.6633C156.742 73.2546 158.619 69.42 159.491 66.4622C160.861 61.813 165.123 47.8563 162.373 46.3509C160.977 45.5804 159.66 46.0143 158.939 47.1744C157.151 50.0437 155.639 55.7911 155.639 55.7911C155.639 55.7911 156.884 50.2297 157.703 45.5361C158.388 41.5688 158.477 38.7792 156.19 38.2833C153.032 37.6014 152.32 40.7452 151.377 44.3052C150.158 48.919 148.904 54.7018 148.904 54.7018C148.904 54.7018 151.511 38.6995 150.416 35.5557C149.705 33.5101 145.852 32.0931 144.509 35.9631C143.993 37.4597 143.246 40.4087 142.899 43.5613C142.311 48.8216 141.351 54.2944 141.351 54.2944C141.351 54.2944 141.377 48.7508 141.217 43.6233C141.084 39.4257 140.932 35.5114 139.571 35.1395C136.546 34.3159 135.452 35.6886 135.034 37.8759C134.669 39.7976 133.886 55.1889 133.699 58.9437C133.682 59.3156 133.237 59.537 132.943 59.2891C132.338 58.7843 132.045 57.943 131.182 56.0656C130.292 54.135 129.393 48.8127 125.408 50.1854C122.054 51.3366 123.762 59.4839 124.58 62.2203C125.408 64.9567 127.739 73.2988 130.906 75.9024C130.906 75.9024 130.817 79.6307 130.497 80.8262C128.575 87.9374 125.826 105.171 125.826 105.171C125.826 105.171 125.612 117.489 141.769 120.084C149.829 121.377 153.583 118.436 155.167 116.382C155.861 115.479 156.19 114.363 156.164 113.238Z" fill="#F5A6AC"/>
<path d="M133.62 61.4499C138.255 62.486 142.196 65.9663 143.726 70.465C144.029 71.3595 145.452 70.9787 145.15 70.0754C143.468 65.1073 139.162 61.1931 134.011 60.033C133.095 59.8204 132.694 61.2374 133.62 61.4499Z" fill="#010101"/>
<path d="M140.337 63.5221C141.627 62.4329 143.895 62.5391 145.443 62.8314C147.187 63.1591 148.824 63.9118 150.176 65.0542C150.897 65.6652 151.947 64.6291 151.217 64.0181C149.589 62.6366 147.605 61.689 145.488 61.3525C143.424 61.0337 140.959 61.0691 139.287 62.486C138.566 63.0971 139.616 64.1332 140.337 63.5221Z" fill="#010101"/>
<path d="M143.584 35.7329C141.902 41.4891 141.048 47.4667 141.048 53.462C141.048 54.4096 142.525 54.4096 142.525 53.462C142.525 47.5907 143.361 41.7636 145.007 36.1225C145.274 35.2104 143.851 34.8207 143.584 35.7329Z" fill="#010101"/>
<path d="M151.911 39.4523C150.363 44.1192 149.465 48.9722 149.242 53.8782C149.198 54.8258 150.675 54.8258 150.719 53.8782C150.933 49.0962 151.822 44.3849 153.335 39.8419C153.637 38.9386 152.205 38.549 151.911 39.4523Z" fill="#010101"/>
<path d="M159.26 46.0055C158.592 46.3243 158.156 46.9353 157.836 47.5818C157.445 48.37 157.115 49.1936 156.804 50.0083C156.155 51.6909 155.621 53.4266 155.22 55.18C155.007 56.101 156.43 56.4907 156.644 55.5697C157.018 53.9668 157.48 52.3905 158.059 50.8584C158.343 50.0968 158.646 49.3441 158.984 48.6091C159.224 48.0866 159.464 47.5375 160.007 47.2807C160.861 46.8645 160.114 45.5981 159.26 46.0055Z" fill="#010101"/>
<path d="M117.605 46.6608C115.23 49.3795 114.26 53.0901 115.025 56.6147C115.221 57.5357 116.653 57.146 116.449 56.225C115.808 53.2406 116.636 50.0083 118.655 47.7058C119.269 46.9885 118.228 45.9435 117.605 46.6608Z" fill="#010101"/>
<path d="M121.725 46.5811C119.616 48.3346 118.709 51.3278 119.42 53.958C119.67 54.8701 121.093 54.4804 120.844 53.5683C120.257 51.4075 121.049 49.0519 122.766 47.6172C123.068 47.3604 123.032 46.8379 122.766 46.5811C122.472 46.28 122.036 46.3243 121.725 46.5811Z" fill="#010101"/>
<path d="M161.68 68.3131C161.173 70.6598 160.096 72.8649 158.522 74.6892C158.264 74.9903 158.228 75.4331 158.522 75.7253C158.788 75.991 159.304 76.0264 159.562 75.7253C161.297 73.7151 162.534 71.2975 163.094 68.7027C163.175 68.3131 162.979 67.9057 162.578 67.7994C162.223 67.702 161.769 67.9234 161.68 68.3131Z" fill="#010101"/>
<path d="M165.568 68.4548C165.238 70.6687 164.251 72.7232 162.685 74.3261C162.027 75.008 163.068 76.0441 163.726 75.3622C165.452 73.5911 166.626 71.2886 166.991 68.8444C167.053 68.4548 166.893 68.0562 166.475 67.9411C166.128 67.8526 165.621 68.0651 165.568 68.4548Z" fill="#010101"/>
<path d="M25.4266 103.506C29.2077 101.991 33.1223 100.858 37.1347 100.167C38.9407 99.8572 40.7467 99.6801 42.5706 99.503C43.5136 99.4144 44.4567 99.2816 45.3997 99.3259C46.3161 99.3701 47.3659 99.5738 47.7574 100.504C48.2111 101.584 47.7396 102.576 46.9122 103.293C45.5332 104.48 43.6382 105.073 41.8944 105.507C40.9514 105.746 41.3517 107.207 42.2948 106.96C45.3286 106.189 50.3997 104.338 49.2787 100.309C48.7449 98.4049 46.8588 97.8115 45.0705 97.8027C42.5083 97.785 39.8482 98.1923 37.3304 98.5997C33.1045 99.2816 28.9853 100.451 25.0174 102.036C24.1277 102.408 24.5192 103.869 25.4266 103.506Z" fill="#010101"/>
<path d="M29.6705 109.528C32.1971 108.677 34.7772 107.969 37.4195 107.571C39.8394 107.207 42.6775 106.658 45.0974 107.181C46.165 107.411 47.1703 107.765 47.2059 108.979C47.2415 110.094 46.6098 110.75 45.6756 111.237C43.7717 112.229 41.5476 112.574 39.5102 113.212C38.6028 113.495 38.9942 114.912 39.9017 114.629C42.2682 113.885 45.0796 113.548 47.1258 112.069C48.834 110.838 49.4212 107.907 47.4995 106.561C45.1418 104.914 41.7255 105.605 39.0832 105.888C35.7202 106.242 32.4729 107.03 29.2701 108.102C28.3805 108.412 28.7719 109.838 29.6705 109.528Z" fill="#010101"/>
<path d="M30.5157 117.223C33.5673 116.32 36.6188 115.222 39.7772 114.753C40.8359 114.602 42.5885 114.505 42.9889 115.797C43.2113 116.533 42.8287 117.418 42.3661 117.976C41.8679 118.578 40.9515 118.888 40.2398 119.198C39.0832 119.694 37.8199 119.977 36.6188 120.349C35.2221 120.783 33.7986 121.12 32.4374 121.678C30.4001 122.51 28.2471 123.715 27.2417 125.769C26.8236 126.619 28.1047 127.363 28.514 126.513C29.457 124.574 31.6189 123.52 33.5584 122.811C35.3733 122.156 37.2861 121.669 39.1366 121.111C40.9782 120.562 43.1668 119.871 44.0654 118.02C44.5013 117.117 44.6971 116.063 44.3056 115.116C43.8252 113.956 42.633 113.327 41.4231 113.212C39.6615 113.043 37.7576 113.601 36.0673 114.035C34.0655 114.558 32.0993 115.204 30.1154 115.797C29.2168 116.072 29.5993 117.498 30.5157 117.223Z" fill="#010101"/>
<path d="M23.3537 96.74C27.5263 94.7651 32.0814 93.6227 36.6988 93.4456C38.5938 93.3748 40.7646 93.1977 42.6151 93.6759C43.4158 93.8796 44.3233 94.2692 44.8927 94.8891C45.7111 95.7747 45.2752 97.0233 44.5546 97.8204C43.9229 98.5111 44.8749 99.4321 45.5688 98.8299C45.6756 98.7414 45.7734 98.6528 45.8802 98.5642C46.583 97.9621 45.5599 96.9525 44.866 97.5547C44.7592 97.6432 44.6613 97.7318 44.5546 97.8204C44.8927 98.1569 45.2307 98.4934 45.5688 98.8299C46.9567 97.2979 47.3126 95.0308 45.6133 93.5962C43.8606 92.1173 41.5297 91.9844 39.3411 91.9844C33.496 91.9844 27.9355 92.994 22.6242 95.5002C21.7879 95.8987 22.5174 97.1296 23.3537 96.74Z" fill="#010101"/>
<path d="M29.626 85.6791C31.8413 85.6791 31.8502 82.252 29.626 82.252C27.4107 82.2431 27.4018 85.6791 29.626 85.6791Z" fill="#010101"/>
<path d="M74.9103 43.5259C74.9815 43.6764 74.8747 43.4373 74.9103 43.5259C74.937 43.5879 74.9548 43.6322 74.9726 43.6853C75.0082 43.7827 75.0349 43.8713 75.0527 43.9687C75.0793 44.0661 75.0971 44.1635 75.1149 44.2609C75.1505 44.4734 75.106 44.1369 75.1149 44.2609C75.1149 44.314 75.1238 44.3672 75.1327 44.4203C75.1416 44.624 75.1416 44.8365 75.1238 45.0402C75.1238 45.0579 75.1238 45.0845 75.1149 45.1022C75.106 45.1642 75.1149 45.1465 75.1238 45.0402C75.1327 45.0402 75.106 45.1553 75.106 45.1731C75.0882 45.2793 75.0615 45.3856 75.0349 45.4919C75.0082 45.5893 74.9815 45.6778 74.9459 45.7752C74.9192 45.8461 74.8124 46.0852 74.9014 45.9081C74.8124 46.094 74.7146 46.28 74.6078 46.4571C74.5811 46.5014 74.5455 46.5457 74.5189 46.59C74.5011 46.6077 74.3854 46.7582 74.4655 46.6608C74.5455 46.5634 74.4121 46.7228 74.4032 46.7228C74.3765 46.7582 74.3409 46.7848 74.3142 46.8202C74.2431 46.8999 74.163 46.9796 74.0829 47.0505C74.0473 47.077 74.0206 47.1036 73.9851 47.139C73.816 47.2807 74.1274 47.0328 73.9495 47.1656C73.5847 47.4224 73.3712 47.9183 73.6381 48.3345C73.8694 48.6976 74.421 48.919 74.8124 48.6445C76.7074 47.2896 77.3747 44.7657 76.3961 42.658C76.2092 42.2507 75.5865 42.1178 75.2217 42.3481C74.7947 42.6315 74.7057 43.092 74.9103 43.5259Z" fill="#010101"/>
<path d="M78.9317 51.6554C80.284 52.1514 81.752 52.2399 83.1576 51.9742C83.6025 51.8945 83.8961 51.3366 83.7537 50.9204C83.6025 50.4511 83.1665 50.2297 82.695 50.3271C82.606 50.3448 82.5171 50.3625 82.4281 50.3714C82.2413 50.4068 82.5882 50.3625 82.3836 50.3802C82.2235 50.3979 82.0633 50.4068 81.9032 50.4156C81.6096 50.4245 81.3071 50.4245 81.0135 50.3979C80.9424 50.3891 80.8801 50.3891 80.8089 50.3802C80.711 50.3714 80.7199 50.3714 80.8356 50.3891C80.8 50.3802 80.7644 50.3802 80.7377 50.3714C80.5954 50.3448 80.4441 50.3182 80.3018 50.2917C79.9904 50.2208 79.6879 50.1323 79.3854 50.0171C78.9673 49.8577 78.4246 50.1943 78.3267 50.6105C78.22 51.0887 78.478 51.4872 78.9317 51.6554Z" fill="#010101"/>
<path d="M87.8104 45.2527C84.1183 46.652 79.9457 46.342 76.5205 44.3583C75.5596 43.8004 74.6967 45.2793 75.6486 45.8372C79.4386 48.0334 84.1539 48.4585 88.2641 46.8999C89.2962 46.5191 88.8513 44.8631 87.8104 45.2527Z" fill="#010101"/>
</g>
<defs>
<clipPath id="clip0_81_1616">
<rect width="167" height="127" fill="white"/>
</clipPath>
</defs>
</svg>
