<svg width="82" height="25" viewBox="0 0 82 25" fill="none" xmlns="http://www.w3.org/2000/svg">
<path fill-rule="evenodd" clip-rule="evenodd" d="M18.1686 11.9784C18.1686 6.91365 14.0686 2.89404 9.08431 2.89404C4.1 2.89404 0 6.99404 0 11.9784C0 15.7568 2.25098 18.9725 5.54706 20.3391C5.5974 20.3559 5.64423 20.3727 5.68902 20.3887C5.85885 20.4496 5.99936 20.4999 6.1902 20.4999C7.1549 20.4999 7.87843 19.7764 7.87843 18.8117C7.87843 18.0882 7.47647 17.5254 6.83333 17.2038C4.82353 16.3195 3.37647 14.3097 3.37647 11.9784C3.37647 8.84306 5.94902 6.27051 9.08431 6.27051C12.2196 6.27051 14.7922 8.84306 14.7922 11.9784C14.7922 14.3097 13.3451 16.3195 11.3353 17.2038C10.451 17.6058 10.049 18.5705 10.451 19.4548C10.6922 20.098 11.3353 20.4999 11.9784 20.4999C12.2196 20.4999 12.4608 20.4195 12.6216 20.3391C15.9176 18.9725 18.1686 15.7568 18.1686 11.9784ZM9.08432 8.52155C7.2353 8.52155 5.70785 10.049 5.70785 11.898C5.70785 13.8274 7.15491 15.3549 9.08432 15.2745C10.9333 15.2745 12.4608 13.747 12.4608 11.898C12.4608 10.049 10.9333 8.52155 9.08432 8.52155Z" fill="#00AA13"/>
<path fill-rule="evenodd" clip-rule="evenodd" d="M70.5843 2.41211H67.6098V16.1592H70.5843V13.3454L72.5941 11.6572L76.1314 16.1592H79.749L74.5235 9.80819L79.5882 5.46701H75.4079L70.5843 9.80819V2.41211ZM60.2941 5.22574C56.9176 5.22574 54.5059 7.6375 54.5059 10.9336C54.5059 14.3101 56.7568 16.561 60.4549 16.561C62.7862 16.561 64.3941 15.7571 65.6 14.3904L63.7509 12.5414C62.7059 13.5865 61.8215 14.1493 60.4549 14.1493C58.6059 14.1493 57.4804 13.265 57.4 11.8983H66.0823V11.014C66.0823 7.79829 63.9117 5.22574 60.2941 5.22574ZM36.3372 10.9336C36.3372 7.71787 38.8294 5.30611 42.3667 5.30611C45.9039 5.30611 48.3961 7.79827 48.3961 10.9336C48.3961 14.0689 45.9039 16.561 42.3667 16.561C38.8294 16.561 36.3372 14.0689 36.3372 10.9336ZM25.4843 16.8022L23.3137 18.5708C24.5196 20.1786 26.5294 21.1433 29.0216 21.2237C32.398 21.2237 34.8098 19.1335 34.8098 16.0786V5.62766H31.9157V6.67276C31.1922 5.86883 29.9059 5.38648 28.3784 5.38648C25.1627 5.38648 22.751 7.79825 22.751 10.9335C22.751 14.1492 25.2431 16.561 28.5392 16.561C29.9863 16.561 31.2725 16.0786 31.9961 15.2747V16.0786C31.9961 17.5257 30.7902 18.5708 29.102 18.5708C27.4941 18.5708 26.6098 18.0884 25.4843 16.8022ZM31.8353 10.2907V11.5769C31.8353 12.8632 30.4686 13.9083 28.8608 13.8279C26.9314 13.8279 25.7255 12.7024 25.7255 10.8534C25.7255 9.16517 27.0118 7.95929 28.9412 7.95929C30.4686 7.95929 31.8353 9.08478 31.8353 10.2907ZM42.3667 7.87891C44.2157 7.87891 45.4216 9.16519 45.4216 10.9338C45.4216 12.6221 44.2157 13.9083 42.3667 13.9887C40.5176 13.9887 39.3118 12.7024 39.3118 10.9338C39.3118 9.16519 40.5176 7.87891 42.3667 7.87891ZM47.1902 17.6867H48.798C49.6823 17.6867 50.0039 17.3652 50.0039 16.5612V5.54752H52.9784V16.6416C52.9784 19.2946 51.9333 20.4201 49.0392 20.4201H47.1902V17.6867ZM63.1882 9.7277C63.0274 8.44142 61.9019 7.6375 60.3745 7.6375C58.7666 7.6375 57.6412 8.44142 57.4804 9.7277H63.1882Z" fill="#1C1D1D"/>
</svg>
