<svg width="136" height="40" viewBox="0 0 136 40" fill="none" xmlns="http://www.w3.org/2000/svg">
<path fill-rule="evenodd" clip-rule="evenodd" d="M30.1333 19.8667C30.1333 11.4667 23.3333 4.79999 15.0667 4.79999C6.8 4.79999 0 11.6 0 19.8667C0 26.1333 3.73333 31.4667 9.2 33.7333C9.28349 33.7611 9.36117 33.789 9.43546 33.8156C9.71712 33.9165 9.95015 34 10.2667 34C11.8667 34 13.0667 32.8 13.0667 31.2C13.0667 30 12.4 29.0667 11.3333 28.5333C8 27.0667 5.6 23.7333 5.6 19.8667C5.6 14.6667 9.86667 10.4 15.0667 10.4C20.2667 10.4 24.5333 14.6667 24.5333 19.8667C24.5333 23.7333 22.1333 27.0667 18.8 28.5333C17.3333 29.2 16.6667 30.8 17.3333 32.2667C17.7333 33.3333 18.8 34 19.8667 34C20.2667 34 20.6667 33.8667 20.9333 33.7333C26.4 31.4667 30.1333 26.1333 30.1333 19.8667ZM15.0667 14.1333C12 14.1333 9.46667 16.6667 9.46667 19.7333C9.46667 22.9333 11.8667 25.4667 15.0667 25.3333C18.1333 25.3333 20.6667 22.8 20.6667 19.7333C20.6667 16.6667 18.1333 14.1333 15.0667 14.1333Z" fill="white"/>
<path fill-rule="evenodd" clip-rule="evenodd" d="M117.067 4H112.133V26.8H117.067V22.1333L120.4 19.3333L126.267 26.8H132.267L123.6 16.2667L132 9.06667H125.067L117.067 16.2667V4ZM100 8.66667C94.4 8.66667 90.4 12.6667 90.4 18.1333C90.4 23.7333 94.1333 27.4667 100.267 27.4667C104.133 27.4667 106.8 26.1333 108.8 23.8667L105.733 20.8C104 22.5333 102.533 23.4667 100.267 23.4667C97.2 23.4667 95.3333 22 95.2 19.7333H109.6V18.2667C109.6 12.9333 106 8.66667 100 8.66667ZM60.2667 18.1333C60.2667 12.8 64.4 8.8 70.2667 8.8C76.1333 8.8 80.2667 12.9333 80.2667 18.1333C80.2667 23.3333 76.1333 27.4667 70.2667 27.4667C64.4 27.4667 60.2667 23.3333 60.2667 18.1333ZM42.2667 27.8667L38.6667 30.8C40.6667 33.4667 44 35.0667 48.1333 35.2C53.7333 35.2 57.7333 31.7333 57.7333 26.6667V9.33333H52.9333V11.0667C51.7333 9.73333 49.6 8.93333 47.0667 8.93333C41.7333 8.93333 37.7333 12.9333 37.7333 18.1333C37.7333 23.4667 41.8667 27.4667 47.3333 27.4667C49.7333 27.4667 51.8667 26.6667 53.0667 25.3333V26.6667C53.0667 29.0667 51.0667 30.8 48.2667 30.8C45.6 30.8 44.1333 30 42.2667 27.8667ZM48 13.2C50.5333 13.2 52.8 15.0667 52.8 17.0667V19.2C52.8 21.3333 50.5333 23.0667 47.8667 22.9333C44.6667 22.9333 42.6667 21.0667 42.6667 18C42.6667 15.2 44.8 13.2 48 13.2ZM70.2667 13.0667C73.3333 13.0667 75.3333 15.2 75.3333 18.1333C75.3333 20.9333 73.3333 23.0667 70.2667 23.2C67.2 23.2 65.2 21.0667 65.2 18.1333C65.2 15.2 67.2 13.0667 70.2667 13.0667ZM78.2667 29.3333H80.9333C82.4 29.3333 82.9333 28.8 82.9333 27.4667V9.2H87.8667V27.6C87.8667 32 86.1333 33.8667 81.3333 33.8667H78.2667V29.3333ZM104.8 16.1333C104.533 14 102.667 12.6667 100.133 12.6667C97.4667 12.6667 95.6 14 95.3333 16.1333H104.8Z" fill="white"/>
</svg>
