<svg width="200" height="200" viewBox="0 0 200 200" fill="none" xmlns="http://www.w3.org/2000/svg">
<g clip-path="url(#clip0_259_1196)">
<path d="M166 142.96C161.66 141.54 148.57 134.58 138.17 131.83C132.77 130.41 126.61 132.37 125.91 132.06L100.74 136.87C98.55 137.13 91.54 138.02 88.1 139.25C83.74 140.81 74.6 145.36 71.12 153.66C66.29 165.18 73.62 200.39 73.62 200.39L191.65 200.21C191.65 200.22 181.87 148.14 166 142.96Z" fill="#008DB2"/>
<path d="M100.48 176.83C102.09 182 103.59 187.21 105.2 192.38C105.48 193.28 106.89 192.89 106.61 191.99C105 186.82 103.5 181.61 101.89 176.44C101.61 175.55 100.2 175.93 100.48 176.83Z" fill="black"/>
<path d="M165.49 178.76C166.24 182.92 166.82 187.12 167.15 191.33C167.22 192.26 168.68 192.27 168.61 191.33C168.28 186.99 167.68 182.65 166.9 178.37C166.73 177.44 165.32 177.83 165.49 178.76Z" fill="black"/>
<path d="M101.17 147.68C101.17 147.68 87.86 133.95 85.98 133.37C84.25 132.83 82.29 135.01 83.93 137.41C85.29 139.39 90.68 146.5 90.87 146.57C91.07 146.63 101.17 147.68 101.17 147.68Z" fill="#F6A6AC"/>
<path d="M134.04 200.39C134.04 200.39 112.47 175.58 110.1 173.9C107.96 172.39 100.56 172.62 98.52 170.13C96.48 167.64 88.88 156.98 89.35 152.1C89.82 147.22 95.96 153.13 97.66 155.09C99.36 157.05 111.57 164.67 112.27 164.69C112.97 164.71 164.95 200.25 164.95 200.25L134.04 200.39Z" fill="#F6A6AC"/>
<path d="M154.68 194.8L116.71 163.23C116.71 163.23 105.89 150.14 104.86 149.33C103.83 148.52 94.26 143.71 92.95 143.42C91.65 143.13 81.79 143.24 79.38 144.14C78.69 144.4 78.31 147.65 81.45 148.12C84.59 148.59 92.18 148.38 92.18 148.38C92.18 148.38 81.34 152.84 80.39 153.99C79.45 155.15 81.47 158.07 84.78 156.71C88.09 155.35 93.76 153.52 95.18 154.47C95.18 154.47 92.15 155.31 90.96 155.94C89.77 156.57 87.21 159.65 87.15 161.87C87.1 164.09 89.98 164.03 92.14 161.46C94.3 158.89 99.53 159.15 99.53 159.15C99.53 159.15 101.57 163.21 105.51 166.62C109.11 169.74 115.29 168.16 115.29 168.16L127.49 193.99L154.68 194.8Z" fill="#F6A6AC"/>
<path d="M86.1201 150.88C87.6401 150.24 89.2101 149.76 90.7301 149.13C91.1901 148.94 91.6301 148.79 92.1301 148.79C92.6201 148.79 93.1101 148.86 93.6001 148.87C94.3501 148.89 95.0401 148.94 95.7701 149.11C96.7801 149.33 97.2101 147.78 96.2001 147.56C95.3901 147.38 94.6001 147.29 93.7801 147.27C92.6801 147.24 91.6401 147.07 90.5801 147.47C88.9501 148.09 87.2901 148.65 85.6901 149.33C85.2901 149.5 85.0001 149.86 85.1301 150.32C85.2301 150.7 85.7201 151.05 86.1201 150.88Z" fill="black"/>
<path d="M96.3 152.77C93.41 153.71 90.38 154.74 88.26 157.04C86.6 158.85 84.68 161.82 86.66 164.1C87.49 165.06 88.76 165.28 89.92 164.83C91.44 164.25 92.29 162.78 93.6 161.9C94.96 160.99 96.57 160.55 98.15 160.22C98.51 160.15 98.87 160.08 99.24 160.01C99.69 159.93 99.8 159.84 100.07 160.13C100.32 160.4 100.48 161.04 100.66 161.39C100.87 161.8 101.1 162.2 101.34 162.6C103.04 165.35 105.94 168.52 109.52 167.26C110.49 166.92 110.07 165.37 109.09 165.71C107.14 166.4 105.44 165.24 104.19 163.81C102.93 162.36 102.29 160.71 101.34 159.09C100.62 157.87 99.21 158.38 98.08 158.61C96.47 158.93 94.85 159.35 93.4 160.15C92.71 160.53 92.08 161 91.51 161.55C90.92 162.11 90.41 162.79 89.69 163.18C88.78 163.68 87.89 163.46 87.54 162.46C87.22 161.56 87.63 160.63 88.1 159.86C90.04 156.68 93.34 155.41 96.72 154.32C97.7 154 97.28 152.45 96.3 152.77Z" fill="black"/>
<path d="M99.88 152.29C98.06 152.43 96.24 152.56 94.42 152.7C93.88 152.74 93.32 152.72 92.82 152.94C92.57 153.05 92.33 153.16 92.08 153.26C90.77 153.83 89.47 154.4 88.16 154.98C87.76 155.16 87.67 155.73 87.87 156.08C88.1 156.49 88.57 156.54 88.97 156.37C90.23 155.82 91.5 155.26 92.76 154.71C93.02 154.59 93.29 154.48 93.55 154.36C93.6 154.34 93.66 154.3 93.72 154.29C93.3 154.41 93.66 154.35 93.76 154.36C93.97 154.38 94.21 154.33 94.42 154.31C96.24 154.17 98.06 154.04 99.88 153.9C100.91 153.82 100.92 152.21 99.88 152.29Z" fill="black"/>
<path d="M103.18 165.09L93.67 161.37C93.67 161.37 99.23 157.7 100.77 159.72C102.31 161.74 103.18 165.09 103.18 165.09Z" fill="black"/>
<path d="M157.03 158C157.03 158 157.31 138.13 157.96 137.7C161.7 135.21 162.16 145.05 162.16 145.05L157.03 158Z" fill="#F6A6AC"/>
<path d="M109.03 200.39L155.36 162.4C155.36 162.4 162.67 137.61 163.85 135.8C165.03 133.99 170.71 128.71 172.24 127.97C173.69 127.27 176.31 129.38 173.8 132.11C170.66 135.53 168.78 137.49 168.78 137.49L168.29 139.92C168.29 139.92 173.36 135.94 174.87 134.66C176.38 133.39 180.18 131.47 181.23 131.41C182.28 131.35 183.29 132.68 182.82 134.33C182.82 134.33 183.79 133.74 184.31 134.19C184.82 134.64 186.59 137.21 184.54 139C182.49 140.79 179.42 141.58 179.42 141.58L178.07 143.29C178.07 143.29 182.15 140.42 183.62 141.07C185.09 141.72 185.49 143.04 184.41 144.58C183.33 146.12 177.65 149.83 176.59 150.59C175.52 151.35 174.46 155.86 173.3 160.29C172.15 164.71 168.66 168.21 164.44 169.33L141.84 200.38H109.03V200.39Z" fill="#F6A6AC"/>
<path d="M168.62 138.16C167.66 139.01 166.76 139.9 165.89 140.84C165.65 141.1 165.61 141.55 165.89 141.81C166.16 142.05 166.6 142.09 166.86 141.81C167.73 140.87 168.63 139.98 169.59 139.13C169.86 138.89 169.85 138.4 169.59 138.16C169.3 137.89 168.91 137.9 168.62 138.16Z" fill="black"/>
<path d="M172.42 140.66C171.85 141.24 171.23 141.78 170.64 142.34C170.14 142.8 169.7 143.32 169.34 143.9C169.15 144.21 169.26 144.67 169.59 144.84C169.93 145.02 170.33 144.92 170.53 144.59C170.62 144.45 170.71 144.31 170.81 144.17C170.83 144.14 170.86 144.11 170.88 144.08C170.76 144.25 170.83 144.15 170.86 144.11C170.91 144.05 170.96 143.99 171.01 143.93C171.21 143.7 171.43 143.49 171.65 143.29C172.24 142.74 172.84 142.21 173.41 141.64C173.66 141.38 173.69 140.92 173.41 140.67C173.12 140.42 172.69 140.39 172.42 140.66Z" fill="black"/>
<path d="M174.74 147.15C175.95 146.03 177.2 144.97 178.56 144.03C179.54 143.35 180.53 142.7 181.53 142.05C182.13 141.66 182.76 141.37 183.37 141C184.85 140.09 186.39 138.63 186.32 136.75C186.22 134.35 183.36 133.3 181.43 134.36C179.13 135.62 176.93 137.08 174.68 138.42C173.92 138.87 174.61 140.06 175.37 139.61C177.14 138.56 178.9 137.48 180.67 136.42C181.49 135.93 182.37 135.17 183.38 135.3C184.25 135.41 185 136.11 184.93 137.02C184.82 138.45 183.35 139.46 182.21 140.09C180.66 140.93 179.2 141.92 177.75 142.93C176.33 143.92 175.03 145.02 173.76 146.19C173.12 146.78 174.1 147.75 174.74 147.15Z" fill="black"/>
<path d="M168.67 166.53C166.74 168 164.36 168.69 161.95 168.49C161.58 168.46 161.26 168.83 161.26 169.18C161.26 169.58 161.58 169.84 161.95 169.87C164.57 170.09 167.27 169.32 169.37 167.73C169.66 167.51 169.82 167.14 169.62 166.79C169.44 166.49 168.96 166.3 168.67 166.53Z" fill="black"/>
<path d="M182.85 141.24C182.96 141.26 183.06 141.28 183.17 141.31C183.22 141.32 183.27 141.34 183.32 141.36C183.36 141.37 183.45 141.41 183.37 141.37C183.47 141.41 183.56 141.46 183.66 141.52C183.72 141.55 183.77 141.59 183.82 141.63C183.86 141.66 183.89 141.69 183.84 141.64C183.92 141.71 184 141.78 184.08 141.86C184.12 141.91 184.17 141.95 184.21 142C184.24 142.04 184.26 142.07 184.22 142.01C184.28 142.1 184.34 142.19 184.39 142.28C184.42 142.34 184.45 142.39 184.48 142.45C184.44 142.36 184.48 142.45 184.49 142.5C184.53 142.6 184.55 142.71 184.57 142.82C184.58 142.85 184.59 142.99 184.58 142.87C184.59 142.92 184.59 142.98 184.59 143.03C184.59 143.14 184.59 143.25 184.58 143.36C184.57 143.48 184.61 143.2 184.58 143.41C184.57 143.46 184.56 143.52 184.55 143.57C184.52 143.68 184.49 143.78 184.46 143.89C184.44 143.96 184.49 143.83 184.44 143.94C184.42 143.99 184.39 144.04 184.37 144.09C184.32 144.19 184.26 144.28 184.19 144.37C184.15 144.43 184.24 144.33 184.15 144.41C184.1 144.46 184.06 144.51 184.01 144.55C183.75 144.81 183.75 145.26 184.01 145.52C184.27 145.78 184.72 145.78 184.98 145.52C185.84 144.66 186.21 143.31 185.81 142.14C185.42 141.01 184.42 140.1 183.22 139.92C182.87 139.87 182.46 140.01 182.37 140.4C182.29 140.72 182.47 141.18 182.85 141.24Z" fill="black"/>
<path d="M144.99 170.16C137.22 177 128.9 183.17 121.13 190.02C120.5 190.58 121.43 191.5 122.06 190.95C129.83 184.11 138.15 177.94 145.92 171.09C146.54 170.53 145.62 169.6 144.99 170.16Z" fill="black"/>
<path d="M163.57 169.41C160.93 172.62 158.56 176.08 156.12 179.44C152.88 183.9 149.66 188.39 146.42 192.85C145.54 194.07 144.44 195.62 143.64 196.65C143.13 197.3 144.05 198.24 144.57 197.58C146.86 194.67 148.95 191.6 151.11 188.6C154.41 184.03 157.7 179.45 161.05 174.92C162.18 173.38 163.29 171.82 164.51 170.35C165.03 169.69 164.11 168.76 163.57 169.41Z" fill="black"/>
<path d="M160.6 140.46C160 142.66 159.11 144.76 158.58 146.98C158.37 147.84 159.7 148.21 159.91 147.35C160.44 145.13 161.33 143.03 161.93 140.83C162.15 139.97 160.83 139.6 160.6 140.46Z" fill="black"/>
<path d="M100.73 146.14C96.73 144.62 92.51 143.37 88.3 142.6C87.29 142.41 86.86 143.96 87.87 144.15C92.08 144.93 96.3 146.17 100.3 147.69C101.27 148.06 101.69 146.5 100.73 146.14Z" fill="black"/>
<path d="M101.97 91.9999L96.77 89.9399C95.54 92.0899 87.98 108.08 86.74 111.86C82.75 124.01 80.65 129.29 82.56 136.24C86.4 150.19 106.83 146.38 107.01 134.86C107.01 134.87 93.83 116.76 101.97 91.9999Z" fill="black"/>
<path d="M96.8 96.2399C96.8 96.2399 93.51 88.5599 101.09 77.7799C108.67 67.0099 125.74 55.6999 146.04 69.0299C164.43 81.1099 177.9 118.53 175.99 136.09C174.13 153.19 145.65 157.78 139.08 139.94C136.52 132.98 140.83 116.92 140.83 116.92L96.8 96.2399Z" fill="black"/>
<path d="M135.43 72.8899C131.59 70.1299 127.68 68.4299 123.91 67.5899C124.08 67.4099 124.26 67.2099 124.42 67.0099C126.74 64.1499 126.44 60.4099 126.2 58.8899C126.14 58.5099 125.77 58.2699 125.41 58.3699C124.2 58.7199 121.58 59.6599 119.8 61.7499C118.73 63.0099 118.03 64.1899 117.59 65.2599C117.23 64.4399 116.73 63.5899 116.06 62.7699C113.86 60.0799 110.53 59.5599 108.89 59.4799C108.35 59.4499 107.92 59.9299 107.98 60.4899C108.15 61.8799 108.67 64.4499 110.24 66.4699C110.66 67.0099 111.08 67.4799 111.49 67.8899C108.96 68.6399 106.73 69.8099 104.91 71.2799C93.88 80.2199 96.25 90.4899 96.25 90.4899C96.25 90.4899 101.67 67.3399 121.82 75.6399C141.97 83.9299 142.55 102.39 142.55 102.39C142.55 102.39 143.41 100.36 145.25 100.26C147.57 100.13 149.03 100.9 149.03 100.9C149.03 100.9 148.61 82.3799 135.43 72.8899Z" fill="#00A94F"/>
<path d="M125.71 57.9998C124.53 58.0998 123.41 58.5098 122.35 59.0498C121.33 59.5698 120.31 60.2398 119.52 61.0898C118.74 61.9298 118.09 62.9498 117.7 64.0398C117.32 65.0798 117.21 66.2098 117.18 67.3198C115.66 68.1498 114.37 69.8198 114.77 71.5998C114.95 72.4098 116.18 72.0998 115.99 71.2798C115.82 70.5298 116.26 69.7898 116.74 69.2698C117.24 68.7298 117.86 68.3298 118.57 68.1498C119.8 67.8398 121.32 68.3998 121.81 69.6898C121.93 70.0198 122.22 70.2498 122.58 70.1598C122.88 70.0798 123.16 69.6998 123.03 69.3698C122.32 67.4798 120.36 66.4698 118.46 66.8498C118.51 66.0798 118.61 65.3198 118.85 64.5898C119.16 63.6398 119.73 62.7498 120.4 62.0298C121.08 61.2998 121.92 60.7398 122.79 60.2798C123.68 59.7998 124.67 59.3798 125.69 59.2998C126.03 59.2698 126.32 59.0398 126.33 58.6698C126.35 58.3398 126.05 57.9698 125.71 57.9998Z" fill="#008043"/>
<path d="M127.64 78.6096C127.64 78.6096 131.07 80.7996 133.26 83.0196C133.96 83.7296 135.08 84.9196 136.01 86.0796C136.66 86.8796 137.3 87.8496 137.3 87.8496C137.3 87.8496 138.75 83.2696 135.96 80.2396C132.25 76.2096 127.64 78.6096 127.64 78.6096Z" fill="#97CA51"/>
<path d="M135.66 74.6998C135.11 75.6498 133.86 75.9198 132.87 75.3198C131.88 74.7098 131.51 73.4498 132.06 72.4998C132.36 71.9798 132.88 71.6698 133.44 71.5898C133.44 71.5898 134.28 72.0998 134.72 72.3998C135.35 72.8398 135.85 73.2098 135.85 73.2098C135.97 73.6798 135.92 74.2498 135.66 74.6998Z" fill="#E24497"/>
<path d="M112.08 60.9899L110.43 62.7799L111.64 63.6799L113.31 61.9799L113.66 64.9299L114.99 64.7599L114.78 62.5399L116.53 64.3499L116.95 64.0599C116.95 64.0599 115.92 62.2499 114.35 61.2199C113.88 60.9099 113.14 60.4599 112.27 60.1599C111.3 59.8199 110.22 59.6299 110.22 59.6299L110.04 60.4999L112.08 60.9899Z" fill="#97CA51"/>
<path d="M147.3 92.3597L145.19 93.1197L145.52 94.4397L147.46 93.5897L146.77 95.7597L147.76 96.0997L148.13 94.2097C148.13 94.2097 148.04 93.6297 147.83 92.7297C147.61 91.8197 147.43 91.3597 147.43 91.3597L146.11 90.1797L145.68 91.2097L147.3 92.3597Z" fill="#FAAE17"/>
<path d="M111.866 71.4053C111.937 70.7131 111.397 70.0909 110.661 70.0156C109.925 69.9403 109.271 70.4405 109.2 71.1328C109.129 71.825 109.669 72.4472 110.405 72.5225C111.141 72.5978 111.795 72.0976 111.866 71.4053Z" fill="white"/>
<path d="M104.26 77.1299L102.4 75.3999L101.18 76.6899L102.89 78.3899C102.89 78.3899 102.94 78.3399 103.04 78.2399C103.14 78.1399 103.43 77.8499 103.67 77.6499C104.11 77.2599 104.26 77.1299 104.26 77.1299Z" fill="#E24497"/>
<path d="M120.23 71.6599L120.19 73.4999L126.84 74.1399L126.82 71.4199L120.23 71.6599Z" fill="#FAAE17"/>
<path d="M143.84 87.7299C143.83 88.4499 143.25 89.0199 142.55 88.9999C141.85 88.9799 141.29 88.3899 141.3 87.6699C141.31 86.9499 141.89 86.3799 142.59 86.3999C143.29 86.4199 143.85 87.0099 143.84 87.7299Z" fill="white"/>
<path d="M113.07 136.77C113.07 136.77 112.09 145.49 122.51 144.57C131.13 143.81 136.1 139.17 138.11 135.91C138.11 135.91 138.13 129.7 139.24 124.52C140.35 119.33 141.27 116.79 141.27 116.79C141.27 116.79 148.02 117.57 150.89 111.94C153.76 106.31 151.99 100.89 147.34 100.11C142.69 99.3296 142.54 102.03 141.22 105.23C139.89 108.42 134.96 112.7 135.13 102.49C135.13 102.49 129.69 99.6696 125.57 95.1696C121.45 90.6696 119.54 85.8296 119.54 85.8296C119.54 85.8296 117.33 88.0596 111.73 90.7496C104.43 94.2496 98.3599 93.5596 97.7599 93.4096C97.1599 93.2596 93.9199 112.76 94.8599 122.58C96.0799 135.5 106.14 137.67 113.07 136.77Z" fill="#F498A8"/>
<path d="M99 90.9795C97.79 96.4895 97.27 102.15 96.7 107.75C96.16 113.04 95.71 118.49 96.49 123.79C96.91 126.64 97.73 129.55 99.75 131.69C101.33 133.35 103.59 134.23 105.85 134.84C108.24 135.49 110.69 135.41 113.13 135.09C116.53 134.64 119.87 133.77 123.08 132.57C124.73 131.95 125.89 134.45 124.23 135.07C116.53 137.96 105.92 140.32 98.85 134.57C96.38 132.56 95.01 129.73 94.25 126.69C93 121.66 93.24 116.24 93.64 111.12C94.16 104.32 94.8 97.3595 96.27 90.6995C96.64 88.9795 99.38 89.2495 99 90.9795Z" fill="black"/>
<path d="M147.95 106.77C147.88 106.8 147.81 106.84 147.74 106.88C147.72 106.89 147.5 107.03 147.67 106.92C147.55 107 147.43 107.08 147.32 107.18C147.21 107.27 147.1 107.37 147 107.47C146.86 107.6 147.08 107.37 146.95 107.53C146.91 107.58 146.87 107.63 146.82 107.68C146.73 107.79 146.65 107.91 146.57 108.03C146.53 108.1 146.49 108.16 146.44 108.23C146.34 108.39 146.49 108.11 146.4 108.3C146.27 108.56 146.16 108.83 146.07 109.11C146.05 109.17 146.03 109.24 146.02 109.3C146 109.36 146.01 109.35 146.03 109.26C146.02 109.3 146.01 109.34 146.01 109.38C145.98 109.52 145.96 109.67 145.94 109.81C145.92 109.95 145.92 110.1 145.91 110.24C145.91 110.28 145.91 110.32 145.91 110.36C145.91 110.26 145.91 110.24 145.91 110.31C145.92 110.38 145.92 110.44 145.92 110.51C145.95 110.8 146 111.08 146.08 111.36C146.02 111.15 146.09 111.38 146.11 111.42C146.14 111.49 146.17 111.57 146.2 111.64C146.26 111.79 146.34 111.92 146.42 112.06C146.66 112.48 146.4 113.1 145.97 113.28C145.47 113.48 145.01 113.27 144.75 112.83C143.2 110.17 144.46 106.44 147.19 105.12C147.62 104.91 148.22 105.12 148.41 105.57C148.59 106.02 148.41 106.55 147.95 106.77Z" fill="black"/>
<path d="M109.91 113.87C109.92 113.22 110.14 112.58 110.32 111.96C110.51 111.29 110.71 110.62 110.92 109.96C111.34 108.62 111.8 107.3 112.28 105.98C112.6 105.11 113.94 105.62 113.62 106.5C112.9 108.5 112.21 110.51 111.64 112.56C111.52 113 111.33 113.49 111.34 113.96C111.35 114.23 111.46 114.66 111.71 114.81C111.94 114.95 112.32 114.87 112.54 114.76C112.86 114.6 112.99 114.32 113.08 113.98C113.18 113.6 113.68 113.44 114.01 113.57C114.15 113.62 114.24 113.71 114.31 113.81C114.46 113.92 114.57 114.08 114.61 114.27C114.62 114.33 114.64 114.39 114.65 114.46C114.66 114.48 114.66 114.49 114.66 114.5C114.66 114.51 114.66 114.5 114.67 114.52C114.71 114.62 114.75 114.73 114.8 114.83C114.82 114.88 114.85 114.93 114.88 114.98C114.89 114.99 114.89 114.99 114.89 115C114.89 115 114.89 115 114.9 115.01C114.97 115.1 115.04 115.18 115.11 115.27C115.13 115.28 115.15 115.3 115.16 115.31C115.2 115.34 115.25 115.37 115.29 115.4C115.17 115.31 115.27 115.39 115.32 115.41C115.36 115.42 115.39 115.44 115.43 115.45C115.44 115.45 115.55 115.46 115.57 115.47C115.58 115.47 115.6 115.47 115.61 115.47C115.62 115.47 115.61 115.47 115.62 115.47C115.69 115.45 115.76 115.45 115.83 115.43C115.85 115.43 115.85 115.43 115.85 115.43C115.86 115.43 115.86 115.42 115.88 115.41C115.94 115.38 116 115.36 116.05 115.33C116.08 115.32 116.13 115.28 116.14 115.27C116.18 115.24 116.22 115.21 116.26 115.18C116.27 115.17 116.28 115.17 116.28 115.16C116.4 115 116.52 114.84 116.63 114.66C116.64 114.63 116.66 114.6 116.67 114.59C116.69 114.54 116.72 114.5 116.74 114.45C116.79 114.34 116.84 114.23 116.89 114.12C116.97 113.93 117.05 113.74 117.11 113.55C117.23 113.19 117.7 112.99 118.04 113.14C118.41 113.3 118.58 113.69 118.45 114.07C118.27 114.62 118.01 115.16 117.7 115.65C117.33 116.24 116.79 116.65 116.11 116.83C115.36 117.03 114.6 116.78 114.04 116.25C113.88 116.09 113.75 115.91 113.63 115.72C113.13 116.14 112.47 116.37 111.77 116.31C110.58 116.19 109.9 115 109.91 113.87Z" fill="black"/>
<path d="M110.75 143.71C111.94 146.05 114.05 148.04 116.51 148.99C118.44 149.73 120.68 149.73 122.71 149.54C127.16 149.12 132.06 147.65 135.32 144.44C136.14 143.63 137.27 145.01 136.45 145.81C132.78 149.42 127.05 151.11 122.01 151.37C119.7 151.49 117.28 151.35 115.16 150.34C112.57 149.1 110.42 147.01 109.13 144.45C108.61 143.43 110.23 142.69 110.75 143.71Z" fill="#006B83"/>
<path d="M100.83 102.73C101.18 101.35 102.56 100.47 103.05 100.29C104.12 99.8997 105.69 99.5497 107.68 99.8697C110.94 100.4 111.61 102.04 111.71 102.9C111.79 103.62 111.51 104.92 110.44 105.18C109.86 105.32 108.82 104.92 106.66 104.79C104.62 104.67 102.36 105.2 101.74 104.98C101.1 104.76 100.51 104.01 100.83 102.73Z" fill="white"/>
<path d="M107.43 104.29C105.2 104.65 104.63 101.18 106.86 100.82C109.1 100.45 109.67 103.92 107.43 104.29Z" fill="black"/>
<path d="M126.84 106.07C126.2 106.25 123.99 105.53 121.95 105.49C119.79 105.45 118.72 105.76 118.15 105.58C117.1 105.24 116.93 103.92 117.06 103.21C117.22 102.37 118.03 100.79 121.31 100.51C123.31 100.35 124.85 100.82 125.89 101.29C126.37 101.51 127.67 102.49 127.91 103.9C128.13 105.19 127.48 105.89 126.84 106.07Z" fill="white"/>
<path d="M123.47 105.09C121.24 105.45 120.67 101.98 122.9 101.62C125.14 101.26 125.71 104.73 123.47 105.09Z" fill="black"/>
<path d="M141.26 116.8C141.26 116.8 148.02 117.58 150.89 111.94C153.76 106.3 151.99 100.88 147.34 100.1C142.69 99.3196 142.54 102.03 141.21 105.22C140.58 106.74 139.33 108.63 138.17 108.79L141.26 116.8Z" fill="#F498A8"/>
<path d="M147.95 106.77C147.88 106.8 147.81 106.84 147.74 106.88C147.72 106.89 147.5 107.03 147.67 106.92C147.55 107 147.43 107.08 147.32 107.18C147.21 107.27 147.1 107.37 147 107.47C146.86 107.6 147.08 107.37 146.95 107.53C146.91 107.58 146.87 107.63 146.82 107.68C146.73 107.79 146.64 107.91 146.57 108.03C146.53 108.1 146.49 108.16 146.44 108.23C146.34 108.39 146.49 108.11 146.4 108.3C146.27 108.56 146.16 108.83 146.07 109.11C146.05 109.17 146.03 109.24 146.02 109.3C146 109.36 146.01 109.35 146.03 109.26C146.02 109.3 146.01 109.34 146.01 109.38C145.98 109.52 145.96 109.67 145.94 109.81C145.92 109.95 145.92 110.1 145.91 110.24C145.91 110.28 145.91 110.32 145.91 110.36C145.91 110.26 145.91 110.24 145.91 110.31C145.92 110.38 145.92 110.44 145.92 110.51C145.95 110.8 146 111.08 146.08 111.36C146.02 111.15 146.09 111.38 146.11 111.42C146.14 111.49 146.17 111.57 146.2 111.64C146.26 111.79 146.34 111.93 146.42 112.06C146.66 112.48 146.4 113.1 145.97 113.28C145.47 113.48 145.01 113.27 144.75 112.83C143.2 110.17 144.46 106.43 147.19 105.11C147.62 104.9 148.22 105.11 148.41 105.56C148.59 106.02 148.41 106.55 147.95 106.77Z" fill="black"/>
<path d="M121.16 93.9699C121.16 93.9799 121.35 94.2599 121.23 94.0799C121.11 93.9099 121.29 94.1499 121.32 94.1899C121.44 94.3299 121.56 94.4599 121.69 94.5899C121.81 94.7099 121.93 94.8199 122.05 94.9299C122.16 95.0299 122.22 95.0599 122.07 94.9499C122.15 95.0099 122.22 95.0599 122.3 95.1199C122.6 95.3299 122.91 95.5199 123.23 95.6899C123.4 95.7799 123.58 95.8699 123.75 95.9499C123.57 95.8699 123.66 95.9099 123.79 95.9599C123.88 95.9999 123.97 96.0299 124.07 96.0599C124.42 96.1899 124.78 96.2899 125.14 96.3799C125.33 96.4199 125.52 96.4599 125.71 96.4899C125.92 96.5299 125.36 96.4499 125.73 96.4899C125.81 96.4999 125.88 96.5099 125.96 96.5099C126.33 96.5399 126.71 96.5599 127.09 96.5399C127.16 96.5399 127.24 96.5299 127.31 96.5299C127.66 96.5099 127.11 96.5699 127.31 96.5299C127.5 96.4999 127.7 96.4699 127.89 96.4199C128.61 96.2599 129.46 96.6699 129.62 97.4299C129.78 98.1599 129.38 98.9899 128.61 99.1599C125.02 99.9799 120.75 98.4499 118.69 95.3599C118.28 94.7399 118.58 93.7599 119.23 93.4299C119.96 93.0699 120.72 93.3099 121.16 93.9699Z" fill="black"/>
<path d="M102.14 92.5899C102.26 92.7399 102.39 92.8899 102.52 93.0299C102.61 93.1299 102.6 93.1199 102.51 93.0299C102.58 93.0999 102.66 93.1599 102.73 93.2299C103.02 93.4799 103.34 93.6699 103.66 93.8799C103.42 93.7199 103.65 93.8699 103.71 93.8999C103.8 93.9399 103.89 93.9899 103.98 94.0299C104.16 94.1099 104.35 94.1899 104.54 94.2599C104.71 94.3199 104.89 94.3799 105.06 94.4299C105.2 94.4699 105.3 94.4899 105.1 94.4399C105.2 94.4599 105.3 94.4799 105.4 94.4999C105.78 94.5699 106.16 94.6099 106.55 94.6199C106.63 94.6199 106.71 94.6199 106.79 94.6199C106.48 94.6099 106.76 94.6199 106.83 94.6099C107.03 94.5899 107.23 94.5699 107.42 94.5399C107.6 94.5099 107.77 94.4799 107.94 94.4299C107.94 94.4299 108.29 94.3299 108.1 94.3899C107.91 94.4499 108.22 94.3399 108.26 94.3299C108.44 94.2599 108.62 94.1799 108.79 94.0899C108.86 94.0499 108.93 94.0199 108.99 93.9799C109.33 93.7999 108.76 94.1399 109.08 93.9199C109.69 93.5099 110.59 93.4699 111.08 94.1199C111.51 94.6899 111.53 95.6699 110.88 96.1199C107.5 98.3999 102.47 97.5799 99.94 94.3699C99.48 93.7899 99.52 92.8399 100.14 92.3699C100.75 91.9399 101.65 91.9699 102.14 92.5899Z" fill="black"/>
<path d="M114.32 122.78C114.45 122.85 114.59 122.93 114.71 123.02C114.74 123.04 114.77 123.06 114.8 123.09C114.72 123.03 114.72 123.03 114.78 123.08C114.84 123.13 114.89 123.18 114.95 123.23C115 123.28 115.05 123.34 115.11 123.4C115.16 123.46 115.16 123.46 115.1 123.38C115.12 123.41 115.14 123.44 115.17 123.47C115.21 123.53 115.25 123.6 115.29 123.66C115.31 123.69 115.33 123.73 115.34 123.76C115.37 123.84 115.37 123.83 115.33 123.74C115.37 123.79 115.38 123.89 115.4 123.96C115.41 124 115.48 124.25 115.43 124.04C115.45 124.11 115.44 124.2 115.44 124.27C115.44 124.31 115.44 124.35 115.44 124.38C115.43 124.47 115.43 124.46 115.45 124.35C115.45 124.42 115.42 124.51 115.4 124.57C115.39 124.61 115.38 124.64 115.36 124.68C115.4 124.59 115.4 124.58 115.37 124.66C115.35 124.7 115.3 124.83 115.26 124.84C115.33 124.76 115.33 124.75 115.28 124.81C115.26 124.84 115.23 124.86 115.21 124.88C115.19 124.9 115.16 124.93 115.13 124.95C115.21 124.89 115.22 124.88 115.16 124.93C115.1 124.96 115.04 125 114.98 125.03C114.91 125.06 114.92 125.06 115.02 125.01C114.99 125.02 114.96 125.03 114.92 125.04C114.89 125.05 114.86 125.06 114.82 125.06C114.74 125.07 114.75 125.07 114.87 125.06C114.87 125.07 114.67 125.06 114.67 125.06C114.79 125.08 114.8 125.08 114.72 125.07C114.69 125.06 114.65 125.05 114.62 125.05C114.55 125.02 114.56 125.03 114.65 125.07C114.62 125.05 114.59 125.04 114.56 125.02C114.49 124.97 114.5 124.98 114.59 125.04C114.53 124.98 114.54 124.99 114.61 125.07C114.57 125 114.57 125.01 114.61 125.11C114.6 125.08 114.59 125.04 114.58 125.01C114.59 125.12 114.59 125.14 114.59 125.05C114.59 124.97 114.59 124.98 114.58 125.09C114.59 125.06 114.6 125.02 114.61 124.99C114.57 125.09 114.56 125.1 114.6 125.02C114.64 124.95 114.64 124.96 114.57 125.04C114.59 125.01 114.62 124.99 114.64 124.96C114.7 124.91 114.69 124.91 114.61 124.98C114.64 124.96 114.67 124.94 114.7 124.93C114.61 124.96 114.6 124.97 114.68 124.95C114.62 124.97 114.56 124.97 114.5 124.96C114.4 124.92 114.39 124.91 114.46 124.96C114.38 124.9 114.37 124.89 114.43 124.95C114.46 124.97 114.48 125 114.51 125.03C114.72 125.29 114.78 125.02 114.68 124.22C114.81 124.19 114.93 124.15 115.06 124.12C115.1 124.13 115.14 124.13 115.18 124.14C114.81 124.01 114.35 124.29 114.26 124.66C114.16 125.08 114.39 125.43 114.78 125.58C115.15 125.72 115.59 125.51 115.78 125.18C116 124.8 115.88 124.37 115.61 124.05C115.27 123.64 114.73 123.38 114.2 123.56C113.16 123.91 112.7 125.3 113.53 126.11C114.18 126.74 115.27 126.7 115.98 126.18C116.77 125.59 117.05 124.62 116.85 123.68C116.64 122.73 115.9 121.97 115.07 121.53C114.73 121.35 114.24 121.43 114.05 121.8C113.87 122.11 113.96 122.58 114.32 122.78Z" fill="black"/>
<path d="M116.81 127.82C116.67 127.9 116.52 127.98 116.38 128.05C116.3 128.08 116.31 128.08 116.39 128.05C116.36 128.06 116.33 128.07 116.3 128.08C116.23 128.11 116.17 128.13 116.1 128.15C115.95 128.2 115.79 128.25 115.63 128.28C115.57 128.29 115.51 128.31 115.45 128.32C115.41 128.33 115.37 128.33 115.33 128.34C115.43 128.33 115.43 128.33 115.35 128.34C115.04 128.37 114.74 128.38 114.43 128.35C114.36 128.34 114.25 128.33 114.38 128.35C114.3 128.34 114.22 128.32 114.14 128.31C113.98 128.28 113.82 128.24 113.67 128.19C113.3 128.07 112.84 128.33 112.75 128.71C112.66 129.11 112.87 129.5 113.27 129.63C114.69 130.07 116.28 129.88 117.56 129.12C117.89 128.92 118.05 128.44 117.83 128.1C117.61 127.75 117.16 127.61 116.81 127.82Z" fill="black"/>
<path d="M86.41 92.2399C83.01 92.4699 79.63 93.0599 76.37 94.0899C73.75 94.9199 70.38 95.9599 69.17 98.6899C67.99 101.34 69.35 104.25 71.42 106.01C73.76 107.99 76.78 109.09 79.66 110.04C83.33 111.25 87.11 112.04 90.94 112.51C92.5 112.7 92.49 110.25 90.94 110.06C87.33 109.62 83.76 108.82 80.31 107.68C77.44 106.73 73.66 105.58 71.89 102.93C71.17 101.85 70.85 100.41 71.63 99.2699C72.53 97.9599 74.38 97.3599 75.8 96.8599C79.22 95.6599 82.79 94.9399 86.41 94.6999C87.97 94.5799 87.99 92.1299 86.41 92.2399Z" fill="white"/>
<path d="M153.93 119.1C157.58 119.48 161.28 119.44 164.94 119.07C168.23 118.74 171.61 118.21 174.68 116.95C177.43 115.82 180.12 113.82 180.68 110.72C181.43 106.55 178.28 104.33 174.75 103.12C173.26 102.61 172.62 104.97 174.1 105.48C175.66 106.02 177.63 106.74 178.24 108.45C178.61 109.51 178.28 110.88 177.69 111.8C176.36 113.9 173.7 114.85 171.41 115.48C165.81 117.01 159.69 117.26 153.93 116.66C152.37 116.5 152.38 118.94 153.93 119.1Z" fill="white"/>
<path fill-rule="evenodd" clip-rule="evenodd" d="M62.85 117.27C62.85 117.27 67.76 108.61 65.19 98.1298C65.04 97.3098 64.87 96.4698 64.66 95.6198C59.62 75.0998 27.27 66.5698 13.17 88.6798C-0.930008 110.77 22.99 141.23 50.59 129.17C51.97 128.57 53.74 127.55 55.56 126.09C58.05 127.41 62.23 128.58 67.16 125.81C68.2 125.23 68.24 123.73 67.21 123.11C64.71 121.59 62.85 117.27 62.85 117.27Z" fill="white"/>
<path fill-rule="evenodd" clip-rule="evenodd" d="M50.7201 115.27L21.8101 115C20.5101 114.99 19.4701 113.93 19.4801 112.63L19.6501 94.5098C19.6601 93.2098 20.7301 92.1698 22.0201 92.1798L50.9301 92.4598C52.2301 92.4698 53.2701 93.5298 53.2601 94.8298L53.1001 112.95C53.0801 114.25 52.0201 115.29 50.7201 115.27Z" fill="#FFC41E"/>
<path fill-rule="evenodd" clip-rule="evenodd" d="M48.08 112.03L45.28 112C44.24 111.99 43.41 111.14 43.42 110.1V110.02C43.43 108.98 44.28 108.15 45.32 108.16L48.11 108.19C49.15 108.2 49.98 109.05 49.97 110.09V110.17C49.97 111.21 49.12 112.04 48.08 112.03Z" fill="#EF9A20"/>
<path fill-rule="evenodd" clip-rule="evenodd" d="M37.57 106.47L23.48 106.33C22.96 106.33 22.55 105.9 22.55 105.39C22.55 104.87 22.98 104.46 23.49 104.47L37.58 104.61C38.1 104.61 38.51 105.04 38.51 105.55C38.51 106.07 38.09 106.48 37.57 106.47Z" fill="#EF9A20"/>
<path fill-rule="evenodd" clip-rule="evenodd" d="M19.5801 101.69L53.2001 102.01L53.2501 96.4596L19.6301 96.1396L19.5801 101.69Z" fill="#EE8722"/>
</g>
<defs>
<clipPath id="clip0_259_1196">
<rect width="200" height="200" fill="white"/>
</clipPath>
</defs>
</svg>
