<svg width="200" height="200" viewBox="0 0 200 200" fill="none" xmlns="http://www.w3.org/2000/svg">
<path fill-rule="evenodd" clip-rule="evenodd" d="M67.29 177.04C67.29 177.04 72.58 155.17 85.1 146.71C96.18 139.22 112.01 131.13 142.6 132.94C170.52 134.59 179.35 151.99 182.2 157.18C195.5 181.4 195.5 199.74 195.5 199.74H64.92L67.29 177.04Z" fill="#4CA447"/>
<path d="M116.91 139.25C116.91 139.25 114.61 149.23 120.66 152.97C126.7 156.71 139.04 153.35 143.74 144.49C147.85 136.76 145.92 131.52 145.92 131.52L116.91 139.25Z" fill="#A95630"/>
<path d="M135.65 91.1101C135.65 91.1101 98.55 95.6001 96.81 89.3101C95.53 84.6701 99.22 62.2501 134.71 69.9401C146.2 72.4301 155.33 82.0501 155.76 95.4801C156.06 104.81 153.61 117.13 148.61 124.56C142.97 132.95 139.25 132.06 139.25 132.06L135.65 91.1101Z" fill="black"/>
<path d="M146.34 134.77C146.01 130.95 144.84 124.3 144.84 124.3C145.72 124.43 147.58 124.51 150.36 122.32C153.24 120.04 157.37 112.59 153.32 108.5C150.93 106.09 148.28 104.93 145.24 108.47C141.81 112.46 138.68 112.08 138.87 107.06C139.06 102.04 141.97 90.27 137.04 87.59C132.11 84.92 127.15 87.41 117.82 86.32C113.75 85.84 110.89 84.84 107.52 83.74C103.67 82.49 99.21 86.25 98.2 91.16C97.64 93.86 96.45 114.89 96.99 119.63C97.48 123.94 101.59 140.44 118.17 140.38C126.61 140.35 146.34 134.77 146.34 134.77Z" fill="#A95630"/>
<path d="M96.6 85.2204C95.56 95.4004 94.14 105.48 95.06 115.74C95.84 124.37 98.37 132.97 105.43 138.56C110.44 142.52 116.58 143.65 122.81 142.59C124.65 142.28 123.87 139.47 122.04 139.78C116.98 140.64 111.87 139.74 107.71 136.66C104.82 134.52 102.6 131.54 101.01 128.34C100.87 128.06 100.74 127.77 100.6 127.49C100.41 127.08 100.49 127.26 100.35 126.9C100.05 126.15 99.8 125.39 99.57 124.62C98.75 121.84 98.28 118.97 98 116.1C97.44 110.21 97.61 104.27 98.07 98.3804C98.42 93.9804 99.06 89.6104 99.51 85.2204C99.69 83.3604 96.78 83.3704 96.6 85.2204Z" fill="black"/>
<path d="M112.83 93.4102C111.39 91.5502 109.26 90.3002 106.91 90.0502C104.57 89.8102 102.2 90.8202 100.59 92.4802C100.04 93.0402 100.03 93.9802 100.59 94.5402C101.14 95.0902 102.1 95.1102 102.65 94.5402C103.81 93.3402 105.27 92.7602 106.92 92.9602C106.74 92.9402 107.21 93.0202 107.29 93.0402C107.49 93.0902 107.69 93.1502 107.88 93.2102C107.92 93.2202 108.24 93.3502 108.14 93.3002C108.06 93.2702 108.3 93.3702 108.32 93.3902C108.51 93.4802 108.69 93.5802 108.87 93.6902C109.59 94.1302 110.19 94.7102 110.77 95.4602C111.25 96.0802 112.32 95.9702 112.83 95.4602C113.45 94.8602 113.32 94.0402 112.83 93.4102Z" fill="black"/>
<path d="M119.09 112.95C119.07 113.07 119.04 113.2 119.01 113.32C118.99 113.38 118.97 113.44 118.95 113.5C118.94 113.52 118.85 113.75 118.9 113.63C118.95 113.52 118.86 113.7 118.85 113.73C118.82 113.78 118.79 113.84 118.76 113.89C118.73 113.94 118.7 113.99 118.66 114.04C118.64 114.06 118.63 114.09 118.61 114.11C118.67 114.03 118.69 114.01 118.65 114.06C118.57 114.16 118.48 114.25 118.39 114.34C118.38 114.35 118.36 114.37 118.35 114.38C118.28 114.44 118.29 114.43 118.38 114.36C118.36 114.4 118.26 114.44 118.22 114.46C118.18 114.48 118.1 114.55 118.06 114.55C118.09 114.54 118.12 114.53 118.15 114.51C118.11 114.52 118.07 114.54 118.04 114.55C117.98 114.57 117.92 114.58 117.86 114.6C117.84 114.6 117.82 114.61 117.8 114.61C117.71 114.63 117.72 114.62 117.84 114.6C117.82 114.59 117.68 114.61 117.66 114.61C117.63 114.61 117.6 114.61 117.57 114.61C117.51 114.6 117.53 114.61 117.64 114.62C117.59 114.6 117.52 114.6 117.47 114.58C117.46 114.58 117.31 114.52 117.3 114.52C117.4 114.56 117.42 114.57 117.36 114.54C117.33 114.53 117.31 114.51 117.28 114.5C117.24 114.48 117.18 114.42 117.14 114.41C117.23 114.48 117.25 114.49 117.18 114.43C117.17 114.42 117.15 114.4 117.14 114.39C117.1 114.35 117.06 114.31 117.02 114.27C116.9 114.15 117.09 114.4 117.01 114.26C116.98 114.21 116.95 114.16 116.92 114.11C116.9 114.07 116.84 114 116.84 113.95C116.88 114.06 116.89 114.07 116.86 113.98C116.85 113.96 116.85 113.94 116.84 113.92C116.82 113.85 116.8 113.79 116.79 113.72C116.78 113.69 116.78 113.66 116.77 113.63C116.78 113.74 116.79 113.77 116.78 113.7C116.78 113.57 116.77 113.44 116.78 113.31C116.82 112.88 116.37 112.46 115.95 112.48C115.46 112.5 115.17 112.85 115.12 113.31C114.97 114.83 116.21 116.34 117.78 116.26C119.33 116.18 120.44 114.85 120.69 113.38C120.76 112.95 120.58 112.46 120.11 112.36C119.71 112.28 119.16 112.49 119.09 112.95Z" fill="black"/>
<path d="M115.23 113.15C115.22 113.22 115.21 113.3 115.19 113.37C115.18 113.4 115.1 113.58 115.16 113.48C115.22 113.37 115.1 113.58 115.09 113.6C115.08 113.62 115.07 113.63 115.06 113.65C115.01 113.72 115.01 113.72 115.08 113.63C115.07 113.67 114.98 113.74 114.95 113.76C114.93 113.78 114.91 113.8 114.88 113.82C114.84 113.86 114.85 113.85 114.92 113.79C114.89 113.83 114.8 113.87 114.75 113.89C114.71 113.91 114.67 113.93 114.63 113.95C114.66 113.94 114.68 113.93 114.71 113.92C114.62 113.99 114.42 114 114.31 114.03C114.25 114.04 114.27 114.04 114.38 114.02C114.34 114.02 114.3 114.03 114.26 114.03C114.2 114.03 114.14 114.04 114.08 114.04C114.02 114.04 113.96 114.04 113.9 114.03C113.7 114.02 114.08 114.07 113.89 114.03C113.76 114 113.64 113.96 113.52 113.93C113.46 113.91 113.48 113.92 113.58 113.96C113.55 113.95 113.53 113.94 113.5 113.92C113.44 113.89 113.38 113.86 113.32 113.82C113.28 113.79 113.11 113.72 113.29 113.81C113.24 113.78 113.19 113.73 113.15 113.69C113.11 113.65 113.07 113.6 113.03 113.56C112.91 113.43 113.11 113.69 113.03 113.55C113 113.5 112.97 113.45 112.94 113.4C112.93 113.38 112.83 113.17 112.88 113.29C112.93 113.41 112.86 113.22 112.85 113.2C112.83 113.14 112.81 113.07 112.8 113C112.8 112.98 112.79 112.96 112.79 112.94C112.77 112.85 112.78 112.86 112.79 112.99C112.8 112.94 112.78 112.86 112.78 112.81C112.78 112.75 112.78 112.69 112.78 112.63C112.78 112.59 112.79 112.55 112.79 112.51C112.79 112.55 112.78 112.58 112.78 112.62C112.74 112.59 112.88 112.27 112.9 112.23C113.07 111.83 112.72 111.3 112.32 111.21C111.84 111.1 111.47 111.36 111.3 111.79C111.01 112.51 111.11 113.32 111.41 114.02C111.73 114.74 112.36 115.26 113.09 115.52C114.58 116.06 116.6 115.27 116.85 113.58C116.88 113.35 116.89 113.15 116.77 112.94C116.67 112.77 116.47 112.6 116.27 112.56C115.85 112.48 115.29 112.69 115.23 113.15Z" fill="black"/>
<path d="M112.82 112.38C113.56 109.44 114.88 106.69 115.74 103.79C116.05 102.76 114.44 102.32 114.14 103.35C113.27 106.25 111.96 109 111.22 111.94C110.96 112.97 112.56 113.41 112.82 112.38Z" fill="black"/>
<path d="M112.23 101.59C111.92 99.8601 110.45 98.9301 109.94 98.6301C108.83 97.9901 107.58 97.3201 105.44 97.4001C101.32 97.5501 100.86 98.9101 100.64 99.9001C100.46 100.72 100.69 102.3 101.81 102.79C102.42 103.05 103.56 102.77 105.87 102.99C108.06 103.2 110.42 104.23 111.1 104.07C111.77 103.92 112.51 103.13 112.23 101.59Z" fill="white"/>
<path d="M107.97 103.06C110.31 103.06 110.31 99.4302 107.97 99.4302C105.63 99.4302 105.63 103.06 107.97 103.06Z" fill="black"/>
<path d="M131.87 104.45C131.63 102.89 130.19 101.72 129.65 101.46C128.49 100.88 126.78 100.27 124.53 100.34C120.84 100.46 119.9 102.16 119.71 103.08C119.55 103.86 119.72 105.33 120.89 105.76C121.52 105.99 122.73 105.71 125.15 105.88C127.44 106.04 129.91 106.96 130.63 106.79C131.34 106.63 132.09 105.89 131.87 104.45Z" fill="white"/>
<path d="M126.52 105.72C128.78 105.72 128.78 102.21 126.52 102.21C124.26 102.21 124.26 105.72 126.52 105.72Z" fill="black"/>
<path d="M116.55 72.1601C114.53 71.2801 112.53 70.5501 110.59 69.9501C115.94 67.0801 123.1 65.8201 132.57 68.3801C162.1 76.3301 155.67 104.36 155.67 104.36C155.67 104.36 150.04 98.4601 142.09 93.5601C137.3 87.2801 128.31 77.2601 116.55 72.1601Z" fill="#016A81"/>
<path d="M110.59 69.9503C112.53 70.5503 114.53 71.2803 116.55 72.1603C128.31 77.2603 137.3 87.2803 142.09 93.5603C137.86 90.9503 132.97 88.6303 127.92 87.6303C110 84.1003 98.25 88.4103 96.31 89.2003C96.24 89.1703 96.16 89.1303 96.08 89.1003C93.43 87.9203 88.89 84.6803 87.31 77.3903C85.22 67.7603 95.33 65.2703 110.59 69.9503Z" fill="#008BAD"/>
<path d="M150.93 110.98C149.94 110.65 148.83 110.86 147.97 111.42C147.04 112.03 146.43 112.96 146.06 114C145.37 115.91 145.05 118.92 147.2 120.03C147.6 120.24 148.1 120.13 148.34 119.73C148.56 119.36 148.44 118.8 148.04 118.59C146.68 117.89 147.23 115.69 147.62 114.55C148.03 113.36 149.13 112.12 150.49 112.58C150.92 112.72 151.4 112.41 151.51 112C151.63 111.54 151.35 111.12 150.93 110.98Z" fill="black"/>
<path d="M120.73 96.3901C123.52 94.1401 127.64 95.2101 129.29 98.2701C129.66 98.9601 130.62 99.1801 131.28 98.7901C131.98 98.3801 132.18 97.4901 131.8 96.8001C130.64 94.6501 128.51 92.9901 126.11 92.4801C123.45 91.9101 120.77 92.6401 118.67 94.3401C118.06 94.8301 118.16 95.8801 118.67 96.4001C119.28 96.9901 120.12 96.8901 120.73 96.3901Z" fill="black"/>
<path d="M124.25 128.42C123.23 128.31 122.17 128.43 121.19 128.75C120.78 128.89 120.47 129.33 120.61 129.77C120.74 130.18 121.19 130.5 121.63 130.35C122.02 130.22 122.42 130.13 122.82 130.07C122.75 130.08 122.67 130.09 122.6 130.1C123.15 130.03 123.7 130.02 124.25 130.08C124.45 130.1 124.7 129.97 124.84 129.84C124.98 129.7 125.09 129.46 125.08 129.25C125.07 129.04 125 128.81 124.84 128.66C124.66 128.51 124.48 128.45 124.25 128.42Z" fill="black"/>
<path d="M127.61 122.73C124.89 124.49 121.54 125.04 118.41 124.21C117.17 123.88 116.65 125.8 117.88 126.12C121.5 127.08 125.46 126.48 128.61 124.44C129.68 123.75 128.68 122.03 127.61 122.73Z" fill="black"/>
<path d="M126.96 121.87C127.27 123.47 128.14 124.98 129.35 126.06C129.74 126.4 130.38 126.47 130.75 126.06C131.1 125.68 131.17 125.02 130.75 124.66C130.49 124.43 130.24 124.18 130.02 123.9C129.99 123.86 129.96 123.81 129.93 123.78C129.96 123.8 130.05 123.95 129.98 123.84C129.93 123.77 129.87 123.69 129.82 123.62C129.72 123.47 129.62 123.32 129.53 123.16C129.45 123.01 129.37 122.86 129.29 122.71C129.27 122.66 129.25 122.62 129.23 122.57C129.22 122.54 129.16 122.41 129.22 122.55C129.28 122.69 129.23 122.56 129.21 122.53C129.19 122.48 129.17 122.44 129.16 122.39C129.04 122.05 128.94 121.7 128.87 121.35C128.77 120.84 128.13 120.5 127.65 120.66C127.11 120.82 126.85 121.32 126.96 121.87Z" fill="black"/>
<path d="M163.05 189.46C163.69 192.64 164.23 195.84 164.68 199.05C164.74 199.49 165.3 199.73 165.69 199.63C166.17 199.5 166.33 199.06 166.27 198.62C165.82 195.41 165.27 192.21 164.64 189.03C164.44 187.98 162.85 188.42 163.05 189.46Z" fill="#2D2D2D"/>
<path fill-rule="evenodd" clip-rule="evenodd" d="M11.96 139.5C15.67 137.94 22.81 144.61 24.2 144.85C25.59 145.08 34.65 145.13 34.65 145.13C29.76 139.59 30.91 134.18 34.52 133.92C37.45 133.71 37.48 137.66 40.06 140.1C41.78 141.73 46.2 141.39 50.84 145.64C54.7 149.18 58.47 159.73 59.85 163.4L70.26 187.57L75.92 199.73H51.95C48 185.57 44.21 169.08 44.21 169.08L43.27 164.06C43.27 164.06 40.96 165.31 35.13 164.76C30.25 164.3 27.77 160.03 27.77 160.03C23.82 160.8 22.04 155.85 22.04 155.85C19.72 156.32 16.31 154.69 15.3 153.29C14.29 151.9 12.35 149.86 11.12 148.25C9.57001 146.24 11.2 144.3 11.2 144.3C11.2 144.3 9.02001 140.74 11.96 139.5Z" fill="#A95630"/>
<path d="M34.89 145.66C35.97 148.54 38.59 150.58 41.64 150.94C42.09 150.99 42.48 150.51 42.48 150.1C42.48 149.6 42.09 149.31 41.64 149.26C41.36 149.23 41.79 149.29 41.52 149.24C41.45 149.23 41.38 149.22 41.31 149.2C41.16 149.17 41 149.13 40.85 149.09C40.7 149.05 40.55 149 40.4 148.95C40.33 148.93 40.26 148.9 40.2 148.88C40.2 148.88 39.96 148.78 40.08 148.84C39.8 148.72 39.53 148.58 39.27 148.43C39.13 148.35 39 148.26 38.87 148.18C38.81 148.14 38.75 148.1 38.69 148.06C38.65 148.03 38.62 148.01 38.59 147.98C38.64 148.02 38.64 148.02 38.59 147.98C38.35 147.79 38.13 147.59 37.92 147.38C37.81 147.27 37.7 147.15 37.6 147.03C37.55 146.98 37.51 146.92 37.46 146.87C37.28 146.66 37.54 146.99 37.38 146.77C37.19 146.52 37.02 146.25 36.87 145.97C36.8 145.84 36.74 145.72 36.67 145.59C36.67 145.59 36.56 145.35 36.62 145.48C36.59 145.4 36.56 145.32 36.53 145.24C36.37 144.81 35.96 144.52 35.49 144.65C35.07 144.73 34.73 145.23 34.89 145.66Z" fill="black"/>
<path d="M41.1 153.54C38.47 153.47 35.82 154.26 33.67 155.78C33.3 156.04 33.12 156.52 33.37 156.94C33.59 157.31 34.15 157.51 34.53 157.24C36.46 155.88 38.74 155.17 41.1 155.23C42.18 155.26 42.18 153.57 41.1 153.54Z" fill="black"/>
<path d="M34.94 158.09C34.6 156.35 33.99 154.68 33.28 153.07C32.67 151.7 31.83 150.28 30.47 149.54C29.3 148.9 27.72 148.78 26.56 149.52C25.1 150.45 24.9 152.26 25.33 153.81C25.59 154.76 26 155.66 26.27 156.61C26.55 157.6 26.75 158.6 26.86 159.62C26.91 160.07 27.21 160.46 27.7 160.46C28.12 160.46 28.59 160.07 28.54 159.62C28.38 158.04 28.06 156.49 27.52 155C27.14 153.94 26.28 152.28 27.13 151.22C27.68 150.54 28.79 150.59 29.51 150.94C30.61 151.46 31.24 152.67 31.73 153.72C32.43 155.25 32.99 156.87 33.31 158.53C33.52 159.61 35.15 159.16 34.94 158.09Z" fill="black"/>
<path d="M45.43 161.83C45.36 161.89 45.29 161.95 45.21 162.01C45.14 162.07 45.14 162.07 45.21 162.01C45.17 162.04 45.13 162.07 45.1 162.09C44.95 162.2 44.79 162.3 44.63 162.4C44.47 162.5 44.3 162.59 44.14 162.67C44.06 162.71 43.97 162.75 43.89 162.79C43.85 162.81 43.8 162.83 43.76 162.85C43.84 162.82 43.86 162.81 43.8 162.83C43.46 162.96 43.12 163.08 42.76 163.16C42.58 163.2 42.39 163.24 42.21 163.27C42.11 163.28 42.12 163.28 42.22 163.27C42.17 163.28 42.13 163.28 42.08 163.29C41.99 163.3 41.89 163.31 41.8 163.31C41.36 163.34 40.93 163.68 40.96 164.15C40.98 164.58 41.33 165.02 41.8 164.99C43.6 164.88 45.27 164.19 46.63 163.01C46.96 162.72 46.95 162.11 46.63 161.82C46.27 161.5 45.79 161.52 45.43 161.83Z" fill="black"/>
<path d="M87.29 190.52C87.25 193.08 87.21 195.64 87.17 198.2C87.15 199.26 88.8 199.26 88.82 198.2C88.86 195.64 88.9 193.08 88.94 190.52C88.96 189.46 87.31 189.46 87.29 190.52Z" fill="#2D2D2D"/>
<path fill-rule="evenodd" clip-rule="evenodd" d="M39.62 146.97L18.29 146.71C18.29 146.71 17.47 144.18 13.79 143.8C10.11 143.42 10.45 146.61 10.45 146.61L6.65 146.56C5.17 146.55 3.98 145.33 4 143.85L4.26 123.18C4.28 121.7 5.49 120.52 6.97 120.53L39.94 120.94C41.42 120.96 42.6 122.17 42.59 123.65L42.33 144.32C42.31 145.81 41.1 146.99 39.62 146.97Z" fill="#FFC41E"/>
<path fill-rule="evenodd" clip-rule="evenodd" d="M36.61 143.27L33.42 143.23C32.24 143.22 31.29 142.24 31.31 141.06V140.97C31.32 139.79 32.29 138.84 33.48 138.85L36.67 138.89C37.85 138.9 38.8 139.88 38.79 141.06V141.15C38.77 142.33 37.79 143.28 36.61 143.27Z" fill="#EF9A20"/>
<path fill-rule="evenodd" clip-rule="evenodd" d="M24.65 136.9L8.58 136.7C8 136.69 7.52 136.21 7.53 135.62C7.54 135.03 8.02 134.56 8.61 134.57L24.68 134.77C25.27 134.78 25.74 135.26 25.73 135.85C25.72 136.44 25.24 136.91 24.65 136.9Z" fill="#EF9A20"/>
<path fill-rule="evenodd" clip-rule="evenodd" d="M4.14999 131.391L42.49 131.861L42.57 125.531L4.22999 125.061L4.14999 131.391Z" fill="#EE8722"/>
<path d="M19.32 146.64C18.24 145.27 17.07 144.01 15.42 143.36C13.81 142.73 11.86 142.77 10.61 144.09C9.86 144.88 11.06 146.08 11.8 145.28C12.68 144.35 14.04 144.56 15.1 145.04C16.36 145.6 17.28 146.77 18.12 147.83C18.4 148.19 19.02 148.13 19.31 147.83C19.67 147.48 19.6 147 19.32 146.64Z" fill="black"/>
<path d="M27.34 149.5C26.12 147.28 23.52 144.94 20.8 145.36C19.53 145.56 18.36 146.48 18.13 147.79C17.89 149.18 18.51 150.49 19.18 151.68C19.91 152.97 20.79 154.21 21.19 155.66C21.48 156.71 23.11 156.26 22.82 155.21C22.43 153.82 21.68 152.6 20.96 151.37C20.4 150.43 19.32 148.89 19.92 147.76C20.54 146.58 22.21 147.02 23.12 147.52C24.31 148.18 25.25 149.18 25.9 150.36C26.4 151.31 27.86 150.46 27.34 149.5Z" fill="black"/>
<path fill-rule="evenodd" clip-rule="evenodd" d="M79.82 109.97C79.82 109.97 85.63 103.13 85.12 93.3999C85.13 92.6499 85.12 91.8799 85.07 91.0799C84.05 72.0599 56.82 59.0499 40.6 76.2699C24.38 93.4699 40.45 124.5 66.94 118.45C68.27 118.15 70 117.54 71.87 116.56C73.86 118.15 77.36 119.89 82.19 118.27C83.21 117.93 83.49 116.61 82.69 115.89C80.73 114.11 79.82 109.97 79.82 109.97Z" fill="white"/>
<path d="M68.09 93.8097C68.32 92.7597 68.55 91.7397 68.78 90.6897C62.35 90.6897 55.94 90.6897 49.51 90.6897C49.74 91.7297 49.97 92.7597 50.2 93.8197C49.13 93.8197 48.1 93.8197 47.03 93.8197C47.26 92.7697 47.49 91.7397 47.72 90.6797C46.93 90.6797 46.18 90.6797 45.41 90.6797C45.41 89.7697 45.41 88.8797 45.41 87.9697C54.57 87.9697 63.73 87.9697 72.9 87.9697C72.9 88.8597 72.9 89.7397 72.9 90.6597C72.14 90.6597 71.38 90.6597 70.57 90.6597C70.81 91.7297 71.03 92.7597 71.26 93.8197C70.21 93.8097 69.18 93.8097 68.09 93.8097Z" fill="black"/>
<path d="M57.4 91.4997C57.05 96.0297 56.71 100.54 56.36 105.07C53.88 105.07 51.41 105.07 48.94 105.07C48.94 105 48.93 104.92 48.94 104.86C49.94 100.51 50.95 96.1597 51.95 91.8097C52 91.5797 52.08 91.4697 52.35 91.4697C53.92 91.4897 55.49 91.4797 57.07 91.4797C57.16 91.4797 57.26 91.4897 57.4 91.4997Z" fill="black"/>
<path d="M61.94 105.07C61.59 100.55 61.25 96.03 60.9 91.49C61.05 91.48 61.14 91.47 61.24 91.47C62.81 91.47 64.38 91.47 65.96 91.46C66.2 91.46 66.3 91.52 66.35 91.76C67.35 96.12 68.36 100.48 69.36 104.84C69.37 104.9 69.37 104.97 69.38 105.05C66.9 105.07 64.44 105.07 61.94 105.07Z" fill="black"/>
<path d="M57.74 87.1199C56.17 87.1199 54.63 87.1199 53.04 87.1199C53.52 85.0199 54 82.9399 54.48 80.8599C55.73 80.8599 56.95 80.8599 58.22 80.8599C58.06 82.9499 57.9 85.0199 57.74 87.1199Z" fill="black"/>
<path d="M65.24 87.1198C63.68 87.1198 62.13 87.1198 60.56 87.1198C60.4 85.0298 60.24 82.9598 60.08 80.8498C60.4 80.8498 60.68 80.8498 60.96 80.8498C61.8 80.8498 62.64 80.8598 63.48 80.8398C63.72 80.8398 63.83 80.8898 63.89 81.1598C64.32 83.1098 64.78 85.0498 65.23 86.9898C65.24 87.0198 65.23 87.0498 65.24 87.1198Z" fill="black"/>
</svg>
