<svg width="200" height="200" viewBox="0 0 200 200" fill="none" xmlns="http://www.w3.org/2000/svg">
<g clip-path="url(#clip0_259_1116)">
<path fill-rule="evenodd" clip-rule="evenodd" d="M131.01 176.81C131.01 176.81 125.72 154.28 113.23 145.57C102.16 137.85 86.36 129.52 55.82 131.38C27.93 133.08 19.13 151 16.28 156.35C3 181.3 3 200.19 3 200.19H133.37L131.01 176.81Z" fill="#802A84"/>
<path d="M29.02 188.53C28.33 191.99 27.73 195.47 27.24 198.97C27.17 199.45 27.36 199.93 27.87 200.07C28.29 200.19 28.91 199.93 28.97 199.44C29.46 195.94 30.06 192.46 30.75 189C30.98 187.88 29.25 187.4 29.02 188.53Z" fill="#2D2D2D"/>
<path fill-rule="evenodd" clip-rule="evenodd" d="M195.23 134.62C191.19 132.92 183.42 140.19 181.9 140.44C180.38 140.69 170.52 140.75 170.52 140.75C175.85 134.72 174.59 128.83 170.66 128.55C167.47 128.32 167.43 132.62 164.63 135.28C162.76 137.06 157.94 136.68 152.89 141.31C148.69 145.16 144.58 156.65 143.08 160.65L131.75 186.96L125.59 200.19L151.64 200.05C155.94 184.64 160.13 166.82 160.13 166.82L161.15 161.36C161.15 161.36 163.66 162.72 170.01 162.12C175.32 161.61 178.02 156.97 178.02 156.97C182.32 157.81 184.26 152.41 184.26 152.41C186.79 152.92 190.5 151.14 191.6 149.63C192.7 148.11 194.81 145.9 196.15 144.15C197.84 141.96 196.07 139.85 196.07 139.85C196.07 139.85 198.43 135.97 195.23 134.62Z" fill="#CF806F"/>
<path d="M168.5 140.84C168.32 141.32 167.96 141.98 167.57 142.51C167.48 142.63 167.57 142.52 167.51 142.58C167.46 142.64 167.41 142.7 167.36 142.76C167.25 142.89 167.13 143.02 167.01 143.14C166.77 143.39 166.51 143.62 166.24 143.83C166.17 143.88 166.28 143.8 166.16 143.89C166.08 143.94 166.01 144 165.93 144.05C165.8 144.14 165.67 144.22 165.53 144.3C165.24 144.48 164.93 144.64 164.61 144.77C164.72 144.72 164.57 144.79 164.53 144.8C164.46 144.83 164.38 144.86 164.31 144.88C164.13 144.94 163.95 145 163.77 145.05C163.62 145.09 163.47 145.13 163.31 145.16C163.22 145.18 163.13 145.19 163.03 145.21C162.84 145.25 163.12 145.2 162.9 145.23C162.41 145.29 161.98 145.61 161.98 146.15C161.98 146.6 162.4 147.13 162.9 147.07C166.22 146.68 169.07 144.47 170.25 141.33C170.42 140.86 170.06 140.32 169.61 140.2C169.11 140.05 168.67 140.37 168.5 140.84Z" fill="black"/>
<path d="M163.51 151.74C166.08 151.67 168.57 152.44 170.67 153.93C171.08 154.22 171.69 154 171.93 153.6C172.2 153.14 172.01 152.63 171.6 152.34C169.26 150.68 166.38 149.83 163.52 149.9C162.33 149.93 162.33 151.77 163.51 151.74Z" fill="black"/>
<path d="M171.99 155.35C172.3 153.74 172.82 152.19 173.46 150.68C173.97 149.48 174.58 148.15 175.66 147.36C176.43 146.8 177.71 146.53 178.51 147.19C179.58 148.06 178.91 149.79 178.53 150.83C177.84 152.69 177.38 154.56 177.17 156.53C177.12 157.02 177.63 157.45 178.09 157.45C178.63 157.45 178.96 157.03 179.01 156.53C179.21 154.56 179.81 152.75 180.46 150.89C181.03 149.27 181.24 147.17 179.82 145.9C178.7 144.9 177.02 144.75 175.65 145.29C174.07 145.92 173.01 147.34 172.29 148.82C171.36 150.72 170.62 152.77 170.21 154.85C170.11 155.34 170.35 155.84 170.85 155.98C171.31 156.11 171.89 155.84 171.99 155.35Z" fill="black"/>
<path d="M180.08 146.44C180.77 145.18 181.77 144.11 183.03 143.39C184.02 142.82 185.89 142.29 186.59 143.61C187.23 144.82 186.09 146.46 185.5 147.47C184.7 148.83 183.86 150.18 183.43 151.72C183.11 152.86 184.89 153.35 185.2 152.21C185.58 150.83 186.36 149.62 187.09 148.4C187.82 147.16 188.62 145.78 188.6 144.29C188.58 142.77 187.57 141.56 186.14 141.12C184.66 140.66 183.08 141.19 181.82 141.98C180.44 142.86 179.29 144.08 178.51 145.51C177.92 146.55 179.51 147.47 180.08 146.44Z" fill="black"/>
<path d="M188.52 143.7C189.44 142.55 190.43 141.28 191.81 140.66C192.96 140.15 194.44 139.91 195.4 140.93C196.21 141.79 197.51 140.49 196.7 139.63C195.33 138.18 193.22 138.15 191.46 138.83C189.66 139.53 188.39 140.91 187.21 142.4C186.9 142.79 186.83 143.32 187.21 143.7C187.54 144.02 188.21 144.09 188.52 143.7Z" fill="black"/>
<path d="M157.49 160.22C158.97 161.5 160.8 162.25 162.75 162.38C163.23 162.41 163.69 161.94 163.67 161.46C163.65 160.94 163.27 160.57 162.75 160.54C162.65 160.53 162.55 160.53 162.44 160.52C162.39 160.51 162.34 160.51 162.29 160.5C162.41 160.52 162.41 160.52 162.31 160.5C162.11 160.47 161.91 160.43 161.71 160.38C161.32 160.29 160.95 160.16 160.58 160.02C160.52 159.99 160.53 160 160.62 160.04C160.57 160.02 160.53 160 160.48 159.98C160.39 159.94 160.29 159.89 160.2 159.85C160.02 159.76 159.84 159.66 159.66 159.55C159.48 159.44 159.31 159.33 159.15 159.21C159.11 159.18 159.07 159.15 159.03 159.12C159.11 159.19 159.12 159.19 159.03 159.12C158.95 159.05 158.87 158.99 158.79 158.92C158.43 158.61 157.84 158.54 157.49 158.92C157.18 159.27 157.11 159.89 157.49 160.22Z" fill="black"/>
<path d="M111.43 190.16C111.47 193 111.52 195.85 111.56 198.69C111.58 199.84 113.37 199.85 113.36 198.69C113.32 195.85 113.27 193 113.23 190.16C113.21 189 111.41 189 111.43 190.16Z" fill="#2D2D2D"/>
<path d="M48.14 82.3296C48.14 82.3296 46.53 77.7296 43.19 75.4196C38.12 71.9196 30.2 70.3896 23.11 77.7696C17.3 83.8396 18.55 97.9996 25.97 117.9C30.23 129.31 27.18 139.19 27.18 139.19C27.18 139.19 40.28 134.43 45.47 120.49C48.38 112.65 48.14 82.3296 48.14 82.3296Z" fill="black"/>
<path d="M101.95 83.2697C101.95 83.2697 107.54 111.93 102.14 123.84C96.74 135.74 90.13 142 69.69 139.22C56.82 137.47 51.28 134.75 51.28 134.75L50.73 124L52.6 87.1297L81.27 74.4297L101.95 83.2697Z" fill="#CF806F"/>
<path d="M51.03 120.14L49.52 136.65C49.52 136.65 50.58 145.79 62.14 150.98C63.37 151.53 64.56 152.01 65.72 152.41C73.71 155.24 82.37 150.35 82.97 142.7L84.08 128.57L51.03 120.14Z" fill="#CF806F"/>
<path d="M52.5 89.6398C52.5 89.6398 68.81 86.6898 75.53 81.6298C81.42 77.1998 82 75.8598 82 75.8598C82 75.8598 94.43 87.4398 105.36 82.6998C110.38 80.5298 110.9 76.6998 110.9 76.6998C110.9 76.6998 102.85 72.6898 99.72 68.6898C92.89 59.9698 81.2 53.5798 67.06 56.8898C41.91 62.7698 40.08 82.4798 40.08 82.4798C40.08 82.4798 32.23 85.0698 34.11 99.8498C36.6 119.51 50.73 124 50.73 124L52.5 89.6398Z" fill="black"/>
<path d="M54.38 104.97C54.38 104.97 53.59 102.91 51.7 101.4C50.03 100.07 47.46 99.1897 44.56 100.41C38.55 102.95 39.79 109.88 42.98 114.16C46.16 118.45 53.51 116.48 53.51 116.48L54.38 104.97Z" fill="#CF806F"/>
<path d="M61.03 81.6699C61.03 81.6699 64.22 105.83 60.79 107.48C57.26 109.19 54.38 104.97 54.38 104.97C54.38 104.97 53.18 102.12 50.86 100.82L50.9 86.0099L61.03 81.6699Z" fill="black"/>
<path d="M98.84 95.8596C99.78 94.6496 99.15 90.5396 93.45 91.6696C89.3 92.4896 87.78 94.3196 88.65 96.8896C89.35 98.9596 92.32 97.8296 94.49 97.3496C96.64 96.8796 97.99 96.9596 98.84 95.8596Z" fill="white"/>
<path d="M68.47 101.62C67.42 100.97 66.68 96.65 72.65 95.7C76.99 95.01 79.88 96.39 79.13 99.5C78.68 101.38 76.34 101.2 74.04 101.51C71.77 101.83 70.1 102.64 68.47 101.62Z" fill="white"/>
<path d="M103.09 79.6599C103.9 85.4599 104.58 91.2799 105.13 97.0999C105.95 105.66 107.29 114.97 104.45 123.28C102.32 129.53 97.91 136.39 91.74 139.29C82.8 143.5 71.5 141.81 62.26 139.58C60.02 139.04 61.2 135.65 63.43 136.19C72 138.26 84.56 140.39 92.29 134.85C98.28 130.55 101.94 122.35 102.45 115.19C103.26 103.77 101.14 91.6999 99.56 80.3899C99.26 78.1099 102.77 77.3699 103.09 79.6599Z" fill="black"/>
<path d="M71.64 114.1C71.64 114.25 71.64 114.41 71.63 114.56C71.62 114.64 71.56 114.79 71.63 114.58C71.61 114.64 71.61 114.72 71.6 114.77C71.57 114.92 71.53 115.07 71.49 115.21C71.45 115.33 71.37 115.46 71.36 115.58C71.41 115.46 71.42 115.45 71.37 115.54C71.36 115.56 71.35 115.58 71.34 115.6C71.31 115.67 71.27 115.74 71.24 115.8C71.17 115.93 71.1 116.05 71.02 116.17C70.98 116.23 70.95 116.28 70.91 116.33C70.88 116.37 70.86 116.4 70.83 116.44C70.9 116.35 70.91 116.33 70.87 116.38C70.78 116.49 70.69 116.6 70.59 116.7C70.5 116.8 70.4 116.89 70.3 116.97C70.24 117.02 70.18 117.07 70.12 117.12C70.07 117.16 70.09 117.15 70.18 117.08C70.14 117.11 70.11 117.13 70.07 117.16C69.84 117.33 69.59 117.47 69.33 117.59C69.31 117.6 69.29 117.61 69.27 117.62C69.18 117.66 69.19 117.66 69.31 117.6C69.27 117.6 69.17 117.66 69.13 117.67C68.99 117.72 68.84 117.76 68.69 117.8C68.63 117.82 68.56 117.83 68.5 117.84C68.42 117.85 68.28 117.92 68.48 117.85C68.35 117.9 68.15 117.88 68.02 117.88C67.54 117.89 67.08 118.3 67.1 118.8C67.12 119.29 67.5 119.72 68.02 119.72C70.95 119.68 73.54 117.04 73.47 114.09C73.46 113.61 73.06 113.15 72.55 113.17C72.07 113.21 71.63 113.59 71.64 114.1Z" fill="black"/>
<path d="M76.36 126.76C78.1 127.99 80.5 128.08 82.36 127.09C82.78 126.86 82.95 126.24 82.69 125.83C82.41 125.4 81.89 125.26 81.43 125.5C81.34 125.55 81.25 125.59 81.15 125.64C81.07 125.68 81.08 125.67 81.16 125.64C81.11 125.66 81.06 125.68 81.01 125.69C80.82 125.76 80.62 125.82 80.41 125.86C80.31 125.88 80.21 125.9 80.1 125.91C80.3 125.88 80.03 125.91 79.96 125.92C79.74 125.93 79.52 125.93 79.3 125.92C79.25 125.92 79.2 125.91 79.15 125.91C79.13 125.91 78.96 125.89 79.08 125.9C79.2 125.92 79.03 125.89 79.01 125.89C78.96 125.88 78.91 125.87 78.86 125.86C78.66 125.82 78.46 125.76 78.26 125.7C78.21 125.68 78.16 125.67 78.11 125.65C78.09 125.64 77.94 125.58 78.04 125.62C78.14 125.66 77.99 125.6 77.97 125.59C77.92 125.57 77.88 125.54 77.83 125.52C77.63 125.42 77.45 125.3 77.27 125.17C76.88 124.89 76.23 125.09 76.01 125.5C75.78 125.98 75.94 126.47 76.36 126.76Z" fill="black"/>
<path d="M71.48 118.86C75.29 123.29 81.55 124.57 86.86 122.23C87.94 121.76 87.01 120.17 85.93 120.65C81.34 122.66 76.01 121.32 72.78 117.56C72.01 116.67 70.71 117.97 71.48 118.86Z" fill="black"/>
<path d="M77.76 87.3198C73.46 85.9598 68.57 87.8498 66.16 91.6098C65.64 92.4198 65.97 93.6698 66.82 94.1198C67.73 94.5998 68.78 94.3298 69.33 93.4598C69.39 93.3698 69.45 93.2698 69.51 93.1798C69.53 93.1398 69.56 93.1098 69.59 93.0698C69.67 92.9598 69.64 92.9998 69.5 93.1798C69.61 93.1498 69.8 92.8198 69.89 92.7298C70.04 92.5698 70.2 92.4098 70.36 92.2598C70.44 92.1898 70.8 91.9698 70.81 91.8698C70.63 92.0098 70.59 92.0398 70.7 91.9598C70.74 91.9298 70.77 91.9098 70.81 91.8798C70.9 91.8198 70.99 91.7498 71.08 91.6898C71.27 91.5698 71.46 91.4598 71.65 91.3498C71.83 91.2498 72 91.1698 72.18 91.0798C72.42 90.9698 72.32 90.9598 72.17 91.0798C72.24 91.0198 72.39 90.9898 72.48 90.9598C72.88 90.8198 73.28 90.7098 73.7 90.6298C73.79 90.6098 73.87 90.5998 73.96 90.5798C74.39 90.4998 73.68 90.5998 73.93 90.5798C74.15 90.5598 74.37 90.5398 74.59 90.5298C74.96 90.5198 75.49 90.4598 75.84 90.5798C75.65 90.5098 75.55 90.5398 75.81 90.5798C75.92 90.5998 76.03 90.6198 76.13 90.6498C76.35 90.6998 76.56 90.7598 76.77 90.8298C77.69 91.1198 78.81 90.4898 79.03 89.5498C79.27 88.5798 78.74 87.6298 77.76 87.3198Z" fill="black"/>
<path d="M90.39 88.4297C90.67 88.2297 90.96 88.0397 91.27 87.8797C91.36 87.8297 91.45 87.7897 91.54 87.7497C91.77 87.6397 91.52 87.7897 91.44 87.7897C91.6 87.7797 91.8 87.6597 91.96 87.6097C92.29 87.5097 92.64 87.4797 92.97 87.3897C92.88 87.4197 92.59 87.4297 92.85 87.4097C92.95 87.3997 93.05 87.3897 93.15 87.3897C93.33 87.3797 93.52 87.3797 93.7 87.3797C93.86 87.3797 94.03 87.3897 94.19 87.4097C94.26 87.4197 94.62 87.4597 94.31 87.4197C94.02 87.3897 94.31 87.4197 94.37 87.4297C94.71 87.4897 95.05 87.5797 95.37 87.6897C95.47 87.7197 95.56 87.7597 95.66 87.7897C95.89 87.8697 95.34 87.6397 95.56 87.7497C95.72 87.8297 95.89 87.9097 96.05 87.9897C96.19 88.0697 96.33 88.1497 96.47 88.2397C96.55 88.2997 96.64 88.3597 96.72 88.4097C96.92 88.5397 96.37 88.1297 96.69 88.3897C97.43 88.9997 98.57 89.1697 99.28 88.3897C99.9 87.7197 100.07 86.4497 99.28 85.7997C97.72 84.5097 95.86 83.7897 93.83 83.7097C91.99 83.6397 90.04 84.1697 88.55 85.2597C87.78 85.8197 87.32 86.8797 87.89 87.7697C88.37 88.5397 89.56 89.0397 90.39 88.4297Z" fill="black"/>
<path d="M76.82 101.22C79.18 101.22 79.19 97.5498 76.82 97.5498C74.46 97.5498 74.45 101.22 76.82 101.22Z" fill="black"/>
<path d="M96.59 97.0499C98.95 97.0499 98.96 93.3799 96.59 93.3799C94.22 93.3799 94.22 97.0499 96.59 97.0499Z" fill="black"/>
<path d="M46.52 106.97C46.59 106.94 46.66 106.92 46.73 106.9C46.78 106.89 46.83 106.88 46.88 106.87C46.77 106.88 46.76 106.89 46.83 106.88C46.91 106.88 46.99 106.87 47.06 106.88C47.29 106.89 46.99 106.84 47.17 106.89C47.25 106.91 47.33 106.93 47.4 106.95C47.44 106.96 47.66 107.05 47.48 106.97C47.63 107.04 47.76 107.12 47.9 107.21C48.07 107.32 47.83 107.13 47.96 107.26C48.01 107.31 48.07 107.37 48.12 107.42C48.26 107.56 48.08 107.33 48.17 107.48C48.22 107.56 48.27 107.64 48.32 107.72C48.33 107.75 48.44 107.96 48.4 107.87C48.36 107.79 48.46 108.04 48.47 108.07C48.52 108.23 48.56 108.39 48.58 108.56C48.55 108.36 48.58 108.62 48.58 108.65C48.58 108.73 48.59 108.81 48.58 108.9C48.58 108.98 48.57 109.06 48.57 109.14C48.56 109.36 48.61 109.02 48.56 109.2C48.53 109.29 48.52 109.37 48.49 109.46C48.48 109.5 48.46 109.53 48.45 109.57C48.49 109.49 48.49 109.47 48.46 109.53C48.36 109.68 48.29 109.84 48.18 109.99C48.27 109.86 48.14 110.04 48.11 110.07C48.05 110.13 47.99 110.2 47.93 110.26C47.87 110.32 47.8 110.38 47.74 110.43C47.54 110.6 47.87 110.35 47.66 110.49C47.52 110.58 47.38 110.66 47.23 110.73C47.42 110.65 47.16 110.75 47.12 110.76C47.03 110.78 46.95 110.8 46.86 110.81C46.38 110.88 46.08 111.51 46.22 111.94C46.39 112.46 46.84 112.66 47.35 112.58C48.34 112.43 49.2 111.71 49.77 110.92C50.38 110.08 50.52 109.08 50.36 108.08C50.2 107.08 49.67 106.19 48.84 105.62C48.06 105.09 46.94 104.84 46.04 105.2C45.6 105.38 45.23 105.82 45.4 106.33C45.53 106.76 46.04 107.16 46.52 106.97Z" fill="black"/>
<path d="M78.27 107.98C78.83 109.42 79.7 111.09 81.34 111.45C82.3 111.66 83.29 111.42 83.99 110.7C84.57 110.1 84.91 109.28 85.04 108.47C85.12 108 84.92 107.46 84.4 107.34C83.96 107.24 83.35 107.47 83.27 107.98C83.22 108.29 83.13 108.57 83.04 108.87C83.11 108.66 83.04 108.87 83.02 108.91C82.99 108.97 82.96 109.03 82.92 109.1C82.88 109.17 82.83 109.23 82.79 109.3C82.75 109.35 82.76 109.34 82.83 109.25C82.81 109.28 82.79 109.3 82.76 109.33C82.71 109.39 82.65 109.44 82.59 109.5C82.46 109.63 82.73 109.42 82.56 109.52C82.5 109.56 82.44 109.59 82.39 109.62C82.23 109.72 82.54 109.59 82.35 109.64C82.32 109.65 82.05 109.71 82.17 109.69C82.29 109.67 82.05 109.69 82.02 109.69C81.97 109.69 81.7 109.64 81.91 109.69C81.83 109.67 81.75 109.66 81.68 109.63C81.66 109.62 81.41 109.53 81.6 109.61C81.53 109.58 81.46 109.54 81.39 109.5C81.34 109.47 81.22 109.42 81.19 109.37C81.29 109.45 81.3 109.46 81.23 109.4C81.21 109.38 81.19 109.36 81.17 109.35C81.08 109.27 80.98 109.16 80.91 109.06C81.03 109.26 80.92 109.07 80.89 109.03C80.85 108.97 80.81 108.91 80.77 108.86C80.6 108.6 80.45 108.33 80.3 108.05C80.24 107.93 80.18 107.81 80.12 107.69C80.11 107.67 80.07 107.53 80.05 107.52C80.1 107.65 80.11 107.67 80.08 107.58C80.07 107.55 80.05 107.52 80.04 107.49C79.87 107.04 79.42 106.69 78.91 106.85C78.48 106.99 78.09 107.5 78.27 107.98Z" fill="black"/>
<path d="M83.45 108.27C83.92 109.72 85.2 110.66 86.75 110.54C88.31 110.42 89.27 108.99 89.23 107.48C89.2 106.6 88.86 105.74 88.58 104.92C88.29 104.09 87.99 103.26 87.68 102.44C87.03 100.72 86.33 99.0097 85.61 97.3197C85.42 96.8697 84.74 96.7597 84.35 96.9897C83.88 97.2697 83.83 97.7897 84.02 98.2497C85.06 100.7 86.05 103.18 86.9 105.7C87.16 106.45 87.85 107.97 87 108.61C86.74 108.81 86.25 108.74 85.97 108.63C85.57 108.48 85.35 108.18 85.22 107.79C84.86 106.66 83.09 107.14 83.45 108.27Z" fill="black"/>
<path fill-rule="evenodd" clip-rule="evenodd" d="M121.36 102.47C121.36 102.47 115.03 95.0201 115.59 84.4302C115.58 83.6102 115.59 82.7702 115.64 81.9102C116.75 61.2002 146.39 47.0401 164.05 65.7901C181.7 84.5101 164.21 118.29 135.37 111.71C133.92 111.38 132.04 110.72 130.01 109.65C127.85 111.38 124.03 113.27 118.77 111.51C117.66 111.14 117.35 109.7 118.22 108.92C120.37 106.98 121.36 102.47 121.36 102.47Z" fill="white"/>
<path fill-rule="evenodd" clip-rule="evenodd" d="M188.71 113.26L188.06 132.57C188.01 134.13 186.5 135.2 185.01 134.75C181.46 133.68 177.1 132.69 170.97 135.63C162.95 139.61 155.38 140.39 149.36 138.52C148.36 138.21 147.7 137.26 147.72 136.21L148.09 119.25C148.12 117.73 149.55 116.66 151.03 117C153.87 117.67 158.21 118.25 161.07 116.6C165.53 114.03 172.23 103.54 187.44 111.08C188.25 111.48 188.73 112.35 188.71 113.26Z" fill="#1B5229"/>
<path fill-rule="evenodd" clip-rule="evenodd" d="M191.63 116.59L190.98 135.9C190.93 137.46 189.42 138.53 187.93 138.08C184.39 137.01 180.02 136.02 173.89 138.96C165.87 142.94 158.3 143.72 152.28 141.85C151.28 141.54 150.62 140.59 150.64 139.54L151.01 122.58C151.04 121.06 152.47 119.99 153.95 120.33C156.79 121 161.13 121.58 163.99 119.93C168.45 117.36 175.15 106.87 190.36 114.41C191.17 114.81 191.66 115.68 191.63 116.59Z" fill="#0AA64B"/>
<path fill-rule="evenodd" clip-rule="evenodd" d="M168.15 141.29C162.81 140.86 158.61 136.68 158.1 130.62C157.82 127.21 158.72 123.78 160.51 120.94C160.59 120.93 160.66 120.92 160.74 120.91C160.88 120.89 161.01 120.88 161.15 120.86C161.3 120.84 161.45 120.81 161.6 120.79C161.78 120.75 161.96 120.71 162.13 120.67C162.3 120.63 162.46 120.58 162.63 120.52C162.75 120.48 162.87 120.44 162.99 120.4C163.13 120.35 163.27 120.29 163.41 120.23C163.45 120.21 163.5 120.19 163.54 120.17C163.71 120.09 163.88 120.02 164.04 119.93C166.22 118.67 168.95 115.46 173 113.47C178.73 113.52 183.33 117.83 183.86 124.2C184.29 129 182.25 133.84 178.86 137.12C178.79 137.19 178.75 137.26 178.69 137.34C177.22 137.63 175.64 138.14 173.91 138.97C171.94 139.93 170.02 140.7 168.15 141.29Z" fill="#0D7B3E"/>
<path fill-rule="evenodd" clip-rule="evenodd" d="M171.47 133.47C174.66 132.67 177 129.32 176.74 125.97C176.46 122.61 173.63 120.55 170.46 121.34C167.29 122.13 164.94 125.49 165.21 128.85C165.49 132.19 168.3 134.26 171.47 133.47Z" fill="#0AA64B"/>
<path d="M153.22 96.7402H133.46C131.6 96.7402 130.09 95.2302 130.09 93.3702V73.6102C130.09 71.7502 131.6 70.2402 133.46 70.2402H153.22C155.08 70.2402 156.59 71.7502 156.59 73.6102V93.3702C156.6 95.2302 155.09 96.7402 153.22 96.7402Z" fill="black"/>
<path d="M139.12 77.9102H144.19C146.82 77.9102 148.48 79.4502 148.48 81.9902C148.48 84.5502 146.85 86.0502 144.15 86.0502H141.73V90.2702H139.12V77.9102ZM144.12 83.6502C145.16 83.6502 145.87 83.0102 145.87 81.9702C145.87 80.8402 145.27 80.2902 144.14 80.2902H141.74V83.6502H144.12Z" fill="#F6F8F9"/>
<path d="M150.84 93.5404H135.85C134.44 93.5404 133.29 92.3904 133.29 90.9804V76.0004C133.29 74.5904 134.44 73.4404 135.85 73.4404H150.84C152.25 73.4404 153.4 74.5904 153.4 76.0004V90.9904C153.4 92.4004 152.25 93.5404 150.84 93.5404Z" stroke="#F6F8F9" stroke-width="1.2008" stroke-miterlimit="10"/>
</g>
<defs>
<clipPath id="clip0_259_1116">
<rect width="200" height="200" fill="white"/>
</clipPath>
</defs>
</svg>
