<svg width="200" height="200" viewBox="0 0 200 200" fill="none" xmlns="http://www.w3.org/2000/svg">
<path d="M19.52 193.48C10.12 190.49 1.92 177.82 4.48 161.39C8.43 136.05 36.76 103.13 59.89 95.8399C84.65 88.0399 103.37 86.7899 120.2 92.1599C149.39 101.48 172.58 116.85 182.52 148.83C189.72 171.99 189.97 175.81 183.63 186.61C178.42 195.48 154.89 199.45 154.89 199.45L34.47 199.71L35.31 190.98C35.3 190.98 30.87 197.1 19.52 193.48Z" fill="#E7E6E6"/>
<path d="M124.61 92.4399L117.3 93.0099L101.67 128.39C101.67 128.39 106.35 136.44 116.4 134.95C126.46 133.46 126.22 119.63 126.54 113.35C127.01 104.32 124.61 92.4399 124.61 92.4399Z" fill="#A1A2A2"/>
<path d="M72.95 117.01C72.84 123.07 74.09 132.67 81.98 134.61C89.87 136.55 95.12 131.3 95.12 131.3L89.98 114.73L72.95 117.01Z" fill="#A1A2A2"/>
<path d="M128.51 83.4699C128.51 83.4699 130.32 72.3699 124.24 62.8799C117.77 52.7799 107.14 48.8599 91.44 51.0399C75.74 53.2199 69.31 64.6099 66.6 74.7899L109.39 81.7899L106.56 99.9699L116.68 99.8499L128.51 83.4699Z" fill="black"/>
<path d="M118.81 88.1898C118.81 88.1898 120.36 81.1598 124.69 80.3198C129.02 79.4798 130.6 82.3798 130.02 87.3498C129.44 92.3198 125.8 97.1898 120.7 95.8698C120.7 95.8698 118.63 103.4 116.05 109.3C112.67 117.02 107.44 126.05 97.49 135.38L88.85 128.8C88.85 128.8 73 128.76 65.39 113.79C57.78 98.8198 67.49 74.8398 67.49 74.8398C67.49 74.8398 70.28 66.7698 76.24 64.2798C82.2 61.7898 81.24 65.7998 85.13 67.4498C89 69.0998 97.77 65.7498 100.9 63.2298C104.03 60.7098 108.96 61.5398 110.96 64.1898C112.96 66.8398 112.47 70.5798 111.07 73.3998C109.67 76.2198 113.44 78.8298 113.57 80.5298C113.7 82.2298 112.25 88.6298 110.66 94.4198C109.07 100.21 110.61 100.17 113.67 99.5298C116.75 98.8998 116.67 95.2598 118.81 88.1898Z" fill="#F4A5AB"/>
<path d="M87.64 91.9897C87.62 92.0997 87.59 92.1997 87.55 92.2997C87.49 92.4597 87.52 92.3097 87.56 92.2897C87.55 92.2897 87.49 92.4397 87.48 92.4497C87.45 92.4997 87.42 92.5497 87.39 92.5997C87.38 92.6197 87.28 92.7597 87.35 92.6597C87.42 92.5597 87.32 92.6897 87.3 92.7097C87.26 92.7497 87.22 92.7997 87.18 92.8397C87.14 92.8697 87.11 92.9097 87.07 92.9397C86.94 93.0497 87.05 92.9297 87.08 92.9397C87.06 92.9297 86.83 93.0997 86.8 93.1097C86.77 93.1297 86.71 93.1697 86.67 93.1797C86.77 93.1397 86.79 93.1297 86.73 93.1497C86.7 93.1597 86.67 93.1697 86.65 93.1797C86.6 93.1997 86.56 93.2097 86.51 93.2197C86.49 93.2297 86.27 93.2697 86.37 93.2497C86.48 93.2297 86.28 93.2497 86.25 93.2497C86.23 93.2497 86.07 93.2297 86.06 93.2397C86.1 93.2097 86.24 93.2697 86.08 93.2397C86.03 93.2297 85.99 93.2197 85.94 93.1997C85.9 93.1897 85.82 93.1397 85.77 93.1397C85.85 93.1397 85.9 93.1997 85.78 93.1397C85.74 93.1197 85.69 93.0897 85.65 93.0697C85.61 93.0497 85.44 92.9597 85.63 93.0597C85.55 93.0197 85.47 92.9297 85.41 92.8597C85.37 92.8197 85.32 92.7697 85.29 92.7297C85.37 92.8997 85.31 92.7497 85.28 92.7097C85.24 92.6497 85.14 92.5297 85.14 92.4497C85.18 92.5497 85.19 92.5697 85.17 92.5097C85.16 92.4797 85.15 92.4497 85.14 92.4297C85.12 92.3697 85.11 92.3197 85.09 92.2597C84.99 91.8397 84.48 91.5497 84.07 91.6797C83.63 91.8197 83.38 92.2497 83.49 92.6997C83.79 93.9997 85.07 95.0397 86.43 94.8997C87.77 94.7597 88.96 93.7597 89.24 92.4097C89.33 91.9897 89.12 91.4897 88.66 91.3897C88.24 91.3197 87.73 91.5397 87.64 91.9897Z" fill="black"/>
<path d="M83.58 92.05C83.45 92.27 83.3 92.49 83.16 92.7C83.11 92.78 83.25 92.6 83.15 92.72C83.11 92.77 83.06 92.82 83.02 92.87C82.97 92.92 82.93 92.97 82.88 93.01C82.86 93.03 82.72 93.14 82.81 93.07C82.9 93 82.75 93.11 82.73 93.12C82.67 93.16 82.6 93.19 82.54 93.23C82.67 93.16 82.47 93.25 82.45 93.26C82.38 93.28 82.3 93.31 82.23 93.33C82.1 93.36 81.98 93.39 81.85 93.41C81.66 93.45 81.94 93.41 81.76 93.42C81.68 93.42 81.61 93.42 81.53 93.42C81.37 93.42 81.57 93.44 81.5 93.42C81.44 93.4 81.38 93.38 81.32 93.37C81.23 93.35 81.45 93.44 81.32 93.37C81.27 93.34 81.21 93.31 81.16 93.28C80.99 93.18 81.27 93.39 81.13 93.26C81.09 93.22 81.05 93.19 81.02 93.15C81 93.13 80.88 92.97 80.94 93.07C81.01 93.17 80.91 93.02 80.9 93C80.87 92.95 80.84 92.89 80.81 92.84C80.89 92.99 80.8 92.8 80.79 92.77C80.77 92.71 80.76 92.65 80.74 92.59C80.72 92.51 80.72 92.44 80.73 92.56C80.72 92.41 80.72 92.27 80.73 92.12C80.74 91.94 80.69 92.24 80.74 92.05C80.76 91.98 80.77 91.91 80.79 91.84C80.9 91.42 80.65 90.92 80.21 90.82C79.77 90.72 79.31 90.95 79.19 91.4C78.97 92.19 79.02 93.07 79.43 93.79C79.78 94.42 80.43 94.92 81.15 95.04C81.95 95.17 82.95 94.97 83.63 94.52C84.24 94.11 84.65 93.51 85.02 92.88C85.24 92.51 85.12 91.95 84.72 91.75C84.31 91.54 83.82 91.65 83.58 92.05Z" fill="black"/>
<path d="M80.79 91.6298C80.99 88.8098 81.81 86.0798 82.61 83.3798C82.91 82.3498 81.31 81.9198 81.01 82.9398C80.17 85.7898 79.35 88.6598 79.13 91.6298C79.1 92.0798 79.53 92.4598 79.96 92.4598C80.44 92.4598 80.76 92.0798 80.79 91.6298Z" fill="black"/>
<path d="M102 74.3998C100.75 72.7698 99.01 71.7598 96.95 71.5798C95 71.4098 93 72.2298 91.64 73.6098C91.12 74.1298 91.08 75.0898 91.64 75.6098C92.2 76.1298 93.08 76.1698 93.64 75.6098C93.76 75.4898 93.89 75.3698 94.02 75.2598C94.1 75.1898 94.16 75.1598 94.04 75.2398C94.11 75.1898 94.18 75.1398 94.25 75.0898C94.41 74.9798 94.58 74.8898 94.75 74.7998C94.83 74.7598 94.9 74.7298 94.98 74.6898C95.17 74.5998 94.8 74.7398 95 74.6798C95.33 74.5798 95.66 74.4898 95.99 74.4098C96.2 74.3598 95.78 74.4198 96 74.4098C96.09 74.4098 96.17 74.3998 96.26 74.3898C96.45 74.3798 96.65 74.3798 96.84 74.3898C96.92 74.3998 97.01 74.3998 97.09 74.4098C96.95 74.3998 96.95 74.3898 97.09 74.4098C97.25 74.4398 97.42 74.4798 97.58 74.5198C97.74 74.5698 97.9 74.6198 98.05 74.6798C97.92 74.6398 97.94 74.6298 98.06 74.6898C98.14 74.7298 98.21 74.7598 98.28 74.7998C98.43 74.8798 98.57 74.9598 98.71 75.0498C98.8 75.1098 98.88 75.1698 98.97 75.2298C99.14 75.3498 98.83 75.0998 98.98 75.2398C99.1 75.3598 99.23 75.4598 99.35 75.5798C99.41 75.6398 99.47 75.6998 99.52 75.7598C99.55 75.7998 99.74 76.0198 99.58 75.8098C100.03 76.3898 100.81 76.7698 101.51 76.3198C102.07 75.9598 102.48 75.0298 102 74.3998Z" fill="black"/>
<path d="M80.49 74.1099C79.12 72.9499 77.41 72.2499 75.6 72.2599C73.79 72.2699 72.09 72.9799 70.73 74.1499C70.17 74.6299 70.2 75.6599 70.73 76.1499C71.33 76.6999 72.13 76.6699 72.73 76.1499C72.79 76.0899 72.86 76.0399 72.93 75.9799C72.81 76.0699 72.82 76.0699 72.95 75.9699C73.09 75.8799 73.23 75.7799 73.38 75.6899C73.51 75.6199 73.64 75.5499 73.78 75.4799C73.84 75.4499 73.9 75.4199 73.95 75.3999C73.81 75.4599 73.82 75.4599 73.97 75.3999C74.3 75.2899 74.62 75.2099 74.96 75.1299C75.26 75.0599 74.76 75.1299 75.09 75.1099C75.26 75.0999 75.43 75.0899 75.6 75.0799C75.77 75.0799 75.94 75.0899 76.11 75.0999C76.52 75.1199 75.84 75.0399 76.24 75.1099C76.58 75.1699 76.91 75.2599 77.23 75.3699C77.3 75.3999 77.59 75.5199 77.37 75.4199C77.53 75.4899 77.68 75.5699 77.83 75.6499C77.98 75.7299 78.12 75.8199 78.27 75.9199C78.34 75.9699 78.41 76.0199 78.48 76.0699C78.36 75.9799 78.37 75.9899 78.49 76.0899C79.05 76.5699 79.94 76.6799 80.49 76.0899C80.97 75.5799 81.1 74.6199 80.49 74.1099Z" fill="black"/>
<path d="M97.27 126.51C92.21 127.57 86.69 127.12 81.75 125.68C76.77 124.23 72.19 120.92 68.73 117.1C64.57 112.5 63.27 105.66 63.25 99.6297C63.24 96.0897 63.72 92.5797 64.38 89.1197C64.85 86.6297 65.3 84.0997 66.03 81.6697C67.54 76.6497 69.54 71.4997 72.36 67.0797C73.34 65.5397 70.9 64.1297 69.92 65.6597C67.13 70.0397 65.18 75.0997 63.59 80.0197C62.81 82.4397 62.33 84.9397 61.84 87.4297C61.13 90.9897 60.56 94.5997 60.45 98.2297C60.25 104.77 61.44 112.31 65.51 117.63C67.35 120.03 69.65 121.99 72.07 123.78C74.25 125.4 76.43 126.79 78.98 127.75C84.89 129.97 91.84 130.54 98.02 129.24C99.8 128.86 99.05 126.14 97.27 126.51Z" fill="black"/>
<path d="M95.33 118.48C92.43 119.92 89.04 120.09 85.99 119.05C84.98 118.7 84.54 120.31 85.55 120.65C89.03 121.84 92.88 121.54 96.17 119.92C97.12 119.44 96.28 118 95.33 118.48Z" fill="black"/>
<path d="M125.99 85C124.43 85.1 122.92 86 122.23 87.42C121.52 88.88 121.63 90.72 122.63 92.03C122.9 92.39 123.35 92.57 123.76 92.33C124.11 92.12 124.33 91.55 124.06 91.2C123.97 91.08 123.89 90.96 123.81 90.83C123.76 90.75 123.73 90.67 123.68 90.6C123.67 90.58 123.62 90.48 123.66 90.55C123.6 90.4 123.55 90.24 123.51 90.09C123.49 90.02 123.48 89.95 123.46 89.87C123.43 89.74 123.45 89.86 123.44 89.78C123.38 89.23 123.44 88.67 123.66 88.26C123.8 88 123.92 87.8 124.05 87.65C124.14 87.54 124.24 87.44 124.35 87.35C124.35 87.35 124.51 87.21 124.46 87.25C124.4 87.29 124.57 87.17 124.58 87.16C124.7 87.08 124.82 87.01 124.94 86.94C125.01 86.9 125.09 86.86 125.17 86.83C125.07 86.87 125.21 86.82 125.25 86.81C125.38 86.76 125.52 86.73 125.66 86.7C125.73 86.69 125.8 86.67 125.87 86.66C125.73 86.68 125.97 86.66 125.99 86.66C126.44 86.63 126.82 86.3 126.82 85.83C126.82 85.4 126.44 84.97 125.99 85Z" fill="black"/>
<path d="M92.77 97.65C91.83 99.69 92.48 102.14 94.3 103.45C94.65 103.7 95.24 103.52 95.43 103.15C95.66 102.72 95.51 102.29 95.13 102.02C95 101.93 95.2 102.08 95.12 102.01C95.08 101.98 95.04 101.94 95 101.91C94.93 101.85 94.86 101.78 94.79 101.71C94.72 101.64 94.66 101.57 94.6 101.5C94.72 101.64 94.62 101.53 94.59 101.49C94.56 101.45 94.53 101.4 94.5 101.36C94.39 101.19 94.3 101.01 94.21 100.83C94.16 100.72 94.28 101.01 94.21 100.82C94.2 100.78 94.18 100.74 94.17 100.7C94.13 100.6 94.1 100.5 94.08 100.39C94.06 100.3 94.03 100.2 94.02 100.11C94.02 100.09 93.99 99.95 93.99 99.95C93.99 99.95 94.01 100.12 94 99.98C93.98 99.78 93.97 99.58 93.99 99.38C93.99 99.33 94 99.27 94 99.22C94.01 99.06 93.98 99.32 94 99.22C94.02 99.13 94.03 99.03 94.06 98.94C94.08 98.84 94.11 98.74 94.15 98.63C94.16 98.59 94.18 98.55 94.19 98.51C94.26 98.31 94.12 98.67 94.21 98.47C94.39 98.08 94.33 97.56 93.91 97.34C93.54 97.16 92.97 97.23 92.77 97.65Z" fill="black"/>
<path d="M90.43 104.25C90.14 104.36 89.85 104.45 89.55 104.51C89.42 104.54 89.29 104.56 89.16 104.59C89.12 104.6 89.07 104.6 89.03 104.61C89.14 104.6 89.15 104.59 89.05 104.61C88.98 104.62 88.92 104.62 88.85 104.63C88.57 104.65 88.28 104.66 87.99 104.65C87.84 104.64 87.68 104.63 87.53 104.61C87.31 104.59 87.71 104.64 87.49 104.6C87.4 104.59 87.32 104.57 87.23 104.55C86.81 104.47 86.31 104.67 86.21 105.13C86.12 105.54 86.33 106.06 86.79 106.15C88.15 106.41 89.56 106.33 90.87 105.85C91.28 105.7 91.6 105.28 91.45 104.83C91.32 104.43 90.86 104.09 90.43 104.25Z" fill="black"/>
<path d="M96.05 135.22C93.26 151.04 90.84 166.86 90.87 182.97C90.88 187.99 91.07 193 91.35 198.01C91.44 199.59 93.91 199.6 93.82 198.01C93.35 189.71 93.16 181.39 93.57 173.08C93.94 165.52 94.83 158.01 95.98 150.54C96.73 145.64 97.57 140.76 98.43 135.88C98.7 134.32 96.32 133.65 96.05 135.22Z" fill="#A1A2A2"/>
<path d="M85.9 188.66C89.76 188.66 89.77 182.66 85.9 182.66C82.04 182.66 82.03 188.66 85.9 188.66Z" fill="black"/>
<path d="M81.85 101.9C83.5 102.98 85.83 103.21 87.76 103.14C89.71 103.07 91.59 102.52 93.09 101.23C93.9 100.53 92.72 99.3701 91.92 100.06C90.73 101.08 89.14 101.45 87.6 101.49C85.99 101.53 84.06 101.37 82.69 100.47C81.79 99.8901 80.96 101.32 81.85 101.9Z" fill="black"/>
<path d="M92.76 82.6999C94.61 80.8599 97.41 81.6099 99.3 82.9499C99.66 83.2099 100.22 83.0099 100.43 82.6499C100.67 82.2299 100.5 81.7799 100.13 81.5199C98.84 80.5999 97.29 79.9599 95.69 79.9299C94.18 79.8999 92.66 80.4499 91.58 81.5199C90.83 82.2799 92 83.4499 92.76 82.6999Z" fill="black"/>
<path d="M70.76 82.3801C72.61 80.5401 75.41 81.2901 77.3 82.6301C77.66 82.8901 78.22 82.6901 78.43 82.3301C78.67 81.9101 78.5 81.4601 78.13 81.2001C76.84 80.2801 75.29 79.6401 73.69 79.6101C72.18 79.5801 70.66 80.1301 69.58 81.2001C68.83 81.9601 70 83.1301 70.76 82.3801Z" fill="black"/>
<path d="M135.39 143.19C138.12 149.4 140.54 155.76 142.74 162.19C145.3 169.68 147.59 177.31 149.01 185.11C149.21 186.23 150.93 185.76 150.72 184.64C149.28 176.71 146.94 168.95 144.32 161.34C142.11 154.9 139.66 148.53 136.92 142.3C136.47 141.25 134.94 142.16 135.39 143.19Z" fill="#A1A2A2"/>
<path d="M133.05 149.35C134.84 150.83 137.02 151.69 139.34 151.8C139.8 151.82 140.25 151.38 140.23 150.91C140.21 150.41 139.84 150.05 139.34 150.02C138.44 149.98 137.55 149.79 136.61 149.44C135.89 149.17 134.9 148.59 134.31 148.1C133.95 147.8 133.4 147.72 133.05 148.1C132.75 148.42 132.67 149.03 133.05 149.35Z" fill="#A1A2A2"/>
<path d="M38.15 153.89C30.8 156.49 27.04 164.43 28.8 173.12C30.56 181.81 38.85 190.81 48.14 185.85C57.43 180.89 56.72 168.56 53.28 162C49.84 155.43 43.19 152.11 38.15 153.89Z" fill="#A1A2A2"/>
<path d="M145.81 164.18C139.64 164.39 132.08 168.88 130.4 177.35C128.72 185.81 132.74 197.19 144.95 197C157.16 196.81 161.51 185.61 160.47 178.26C159.43 170.9 151.99 163.96 145.81 164.18Z" fill="#A1A2A2"/>
<path d="M143.8 170.57C137.96 169.24 130.28 173.61 130.28 173.61C130.28 173.61 125.76 169.69 119.63 168.96C113.5 168.23 108.24 169.04 103.78 168.66C99.62 168.3 91.1 164.76 89.19 167.87C87.39 170.8 89.33 174.51 95.93 175.33C102.66 176.17 105.24 177.12 105.24 177.12C105.24 177.12 95.58 178.54 93.09 178.63C90.6 178.72 87.24 180.56 88.11 182.86C88.11 182.86 88.34 186.24 94.68 185.66C100.9 185.09 106.22 184.73 106.22 184.73C106.22 184.73 102.02 187.24 102.38 189.51C102.89 192.68 105.93 192.96 105.93 192.96C105.93 192.96 104.93 195.41 106.1 197.55C107.27 199.69 110.3 199.58 112.69 198.87C115.08 198.16 118.51 196.09 118.51 196.09C118.51 196.09 125.18 197.56 128.3 195.5C131.42 193.44 132.58 191.22 132.58 191.22C132.58 191.22 145.03 194.27 148.6 191.6C152.17 188.93 154.71 186.22 153.48 179.84C152.23 173.43 149.64 171.9 143.8 170.57Z" fill="#F59BA7"/>
<path d="M106.4 193.44C109.51 193.29 112.59 192.68 115.53 191.62C115.95 191.47 116.23 191.06 116.11 190.61C116 190.21 115.52 189.88 115.1 190.03C112.3 191.05 109.38 191.65 106.41 191.8C105.34 191.84 105.33 193.49 106.4 193.44Z" fill="black"/>
<path d="M129.36 174.13C129.57 174.43 129.75 174.74 129.92 175.06C129.96 175.15 130.01 175.23 130.05 175.32C130.06 175.35 130.18 175.63 130.11 175.46C130.17 175.62 130.23 175.78 130.29 175.94C130.41 176.28 130.5 176.64 130.56 176.99C130.57 177.06 130.59 177.13 130.6 177.2C130.61 177.25 130.61 177.3 130.62 177.34C130.61 177.24 130.61 177.24 130.62 177.34C130.64 177.53 130.66 177.73 130.66 177.92C130.68 178.35 131.03 178.77 131.48 178.74C131.91 178.72 132.32 178.38 132.3 177.92C132.23 176.27 131.72 174.65 130.78 173.29C130.54 172.94 130.05 172.74 129.65 172.99C129.3 173.23 129.1 173.75 129.36 174.13Z" fill="black"/>
<path d="M106.05 185.85C107.12 185.48 108.18 185.11 109.25 184.74C109.66 184.6 109.97 184.17 109.83 183.73C109.7 183.33 109.25 183 108.82 183.15C107.75 183.52 106.69 183.89 105.62 184.26C105.21 184.4 104.9 184.83 105.04 185.27C105.17 185.67 105.62 186 106.05 185.85Z" fill="black"/>
<path d="M40.59 158.77C45.78 158.43 54.45 159.12 54.45 159.12C54.45 159.12 58.12 154.4 64 152.49C69.87 150.58 75.19 150.36 79.49 149.12C83.5 147.96 91.17 142.83 93.65 145.51C95.98 148.03 94.8 152.05 88.49 154.14C82.05 156.27 79.7 157.7 79.7 157.7C79.7 157.7 89.46 157.21 91.91 156.82C94.37 156.43 98.02 157.57 97.62 160C97.62 160 98.05 163.36 91.72 164.02C85.51 164.67 80.22 165.35 80.22 165.35C80.22 165.35 84.83 167 84.92 169.29C85.04 172.5 82.11 173.37 82.11 173.37C82.11 173.37 83.57 175.58 82.84 177.9C82.11 180.22 79.11 180.7 76.63 180.47C74.15 180.24 70.38 178.87 70.38 178.87C70.38 178.87 63.61 181.91 59.9 181.49C55.65 181.01 54.01 179.74 54.01 179.74C54.01 179.74 48.96 182.47 44.62 182.95C40.28 183.43 35.27 182.03 33.68 171.23C32.93 166.13 35.4 159.11 40.59 158.77Z" fill="#F59BA7"/>
<path d="M53.95 158.77C53.26 160.38 53.04 162.08 53.3 163.81C53.37 164.24 53.92 164.51 54.31 164.39C54.78 164.24 54.96 163.83 54.89 163.38C54.88 163.28 54.87 163.28 54.89 163.36C54.88 163.31 54.88 163.26 54.87 163.2C54.86 163.12 54.85 163.04 54.85 162.96C54.84 162.78 54.83 162.59 54.83 162.41C54.83 162.07 54.85 161.73 54.89 161.39C54.87 161.56 54.9 161.31 54.91 161.3C54.92 161.21 54.94 161.12 54.96 161.03C54.99 160.86 55.03 160.7 55.08 160.53C55.13 160.35 55.18 160.18 55.24 160C55.27 159.93 55.29 159.85 55.32 159.78C55.33 159.75 55.45 159.47 55.39 159.61C55.56 159.21 55.52 158.71 55.09 158.48C54.72 158.29 54.13 158.35 53.95 158.77Z" fill="black"/>
<path d="M75.88 173.45C77.8 173.62 79.71 173.78 81.63 173.95C82.07 173.99 82.45 173.54 82.45 173.13C82.45 172.65 82.07 172.34 81.63 172.31C79.71 172.14 77.8 171.98 75.88 171.81C75.44 171.77 75.06 172.22 75.06 172.63C75.05 173.1 75.43 173.41 75.88 173.45Z" fill="black"/>
<path d="M77.58 166.02C80.14 165.65 82.69 165.28 85.25 164.92C85.69 164.86 85.93 164.3 85.83 163.91C85.7 163.44 85.26 163.27 84.82 163.33C82.26 163.7 79.71 164.07 77.15 164.43C76.71 164.49 76.47 165.05 76.57 165.44C76.7 165.91 77.14 166.08 77.58 166.02Z" fill="black"/>
<path d="M46.19 184.12C44.05 185.6 41.74 186.7 39.37 187.75C37.34 188.65 35.37 189.6 33.64 191.02C32.76 191.74 34.02 192.99 34.9 192.28C36.54 190.93 38.51 190.07 40.44 189.21C42.75 188.18 45 187.09 47.08 185.65C48.02 185.01 47.13 183.47 46.19 184.12Z" fill="#A1A2A2"/>
<path d="M42.5 145.05C41.89 146.17 41.3 147.29 40.73 148.43C39.8 150.26 38.86 152.11 38.18 154.05C38.02 154.5 38.36 155.02 38.8 155.14C39.29 155.27 39.73 154.97 39.89 154.52C40.51 152.76 41.42 150.98 42.31 149.23C42.87 148.13 43.44 147.03 44.03 145.95C44.59 144.94 43.05 144.04 42.5 145.05Z" fill="#A1A2A2"/>
<path fill-rule="evenodd" clip-rule="evenodd" d="M145.25 96.2699C145.25 96.2699 138.81 88.6799 139.37 77.8999C139.36 77.0599 139.37 76.2099 139.42 75.3299C140.55 54.2399 170.74 39.8199 188.72 58.9099C206.7 77.9799 188.89 112.37 159.52 105.67C158.05 105.34 156.13 104.66 154.06 103.57C151.86 105.33 147.97 107.26 142.62 105.46C141.49 105.08 141.18 103.62 142.06 102.82C144.24 100.87 145.25 96.2699 145.25 96.2699Z" fill="white"/>
<path fill-rule="evenodd" clip-rule="evenodd" d="M184.83 67.8202L184.28 84.1602C184.23 85.4802 182.96 86.3902 181.7 86.0102C178.7 85.1002 175.01 84.2702 169.82 86.7502C163.03 90.1202 156.63 90.7702 151.53 89.1902C150.69 88.9302 150.12 88.1202 150.14 87.2302L150.45 72.8702C150.48 71.5902 151.68 70.6802 152.93 70.9702C155.34 71.5402 159.01 72.0302 161.43 70.6302C165.2 68.4602 170.87 59.5702 183.75 65.9502C184.44 66.3102 184.85 67.0502 184.83 67.8202Z" fill="#1B5229"/>
<path fill-rule="evenodd" clip-rule="evenodd" d="M187.3 70.64L186.75 86.98C186.7 88.3 185.43 89.21 184.17 88.83C181.17 87.92 177.48 87.09 172.29 89.57C165.5 92.94 159.1 93.59 154 92.01C153.16 91.74 152.59 90.94 152.61 90.05L152.92 75.69C152.95 74.41 154.15 73.5 155.4 73.79C157.81 74.36 161.48 74.85 163.9 73.45C167.67 71.28 173.34 62.39 186.22 68.77C186.91 69.13 187.32 69.87 187.3 70.64Z" fill="#0AA64B"/>
<path fill-rule="evenodd" clip-rule="evenodd" d="M167.43 91.55C162.91 91.19 159.36 87.65 158.93 82.52C158.69 79.64 159.45 76.74 160.97 74.32C161.04 74.31 161.1 74.3 161.16 74.29C161.28 74.28 161.39 74.26 161.5 74.24C161.63 74.22 161.75 74.2 161.88 74.18C162.03 74.15 162.18 74.11 162.33 74.08C162.47 74.04 162.61 74 162.75 73.96C162.85 73.93 162.95 73.89 163.05 73.86C163.17 73.81 163.29 73.77 163.41 73.72C163.45 73.7 163.48 73.69 163.52 73.67C163.66 73.61 163.81 73.55 163.94 73.47C165.79 72.4 168.1 69.69 171.52 68C176.37 68.04 180.26 71.69 180.71 77.08C181.07 81.14 179.35 85.24 176.48 88.02C176.42 88.08 176.39 88.14 176.33 88.2C175.09 88.45 173.75 88.88 172.28 89.58C170.64 90.39 169.02 91.04 167.43 91.55Z" fill="#0D7B3E"/>
<path fill-rule="evenodd" clip-rule="evenodd" d="M170.24 84.9202C172.94 84.2502 174.92 81.4102 174.7 78.5702C174.46 75.7302 172.07 73.9802 169.38 74.6502C166.69 75.3202 164.71 78.1602 164.94 81.0102C165.18 83.8402 167.56 85.5902 170.24 84.9202Z" fill="#0AA64B"/>
</svg>
