<svg width="200" height="200" viewBox="0 0 200 200" fill="none" xmlns="http://www.w3.org/2000/svg">
<path d="M12.11 170.17C9.41 184.78 7 199.67 7 199.67H162.84C161.79 194.59 159.12 187.19 157.75 180.68C146.11 124.88 102.09 102.15 54.67 116C24.26 124.9 17.21 148.85 12.11 170.17Z" fill="#EC6723"/>
<path d="M65.39 113.5C76.53 123.5 89.54 140.94 94.48 169.9C96.37 180.95 97.66 190.88 98.52 199.68H124.67C122.32 179.85 116.44 145.85 104.33 125.42C101.62 120.83 99 116.88 96.5 113.5C86.67 111.58 76.18 111.56 65.39 113.5Z" fill="#B2E1EE"/>
<path d="M118.86 134.51C121.94 137.59 124.83 140.87 127.45 144.35C128.72 146.03 129.93 147.74 131.08 149.5C131.32 149.86 131.93 150.49 131.91 150.95C131.89 151.34 131.4 151.73 131.14 151.98C130.29 152.77 129.3 153.39 128.28 153.93C126.97 154.62 128.13 156.6 129.44 155.91C131.2 154.99 134.03 153.36 134.19 151.11C134.27 149.92 133.49 148.96 132.86 148.02C132.12 146.91 131.36 145.81 130.58 144.73C127.53 140.53 124.16 136.57 120.49 132.89C119.44 131.84 117.82 133.46 118.86 134.51Z" fill="#FFC11E"/>
<path d="M94.5999 193.79C89.4699 190.15 85.04 185.55 81.57 180.32C80.76 179.1 78.7699 180.24 79.5899 181.48C83.2899 187.06 87.9899 191.9 93.4499 195.78C94.6499 196.63 95.7999 194.64 94.5999 193.79Z" fill="#FFC11E"/>
<path d="M126.69 84.4902C126.69 84.4902 132.47 90.1802 134.45 102.5C136.43 114.82 134.91 127.77 119.67 125.21C119.67 125.22 133.86 115.14 126.69 84.4902Z" fill="black"/>
<path d="M108.37 127.94C108.37 127.94 104.73 132.1 92.49 128.93C80.25 125.76 75.49 117.31 75.49 117.31C75.49 117.31 82.15 109.08 77.72 100.16C77.72 100.16 72.3 103.52 68.52 94.9003C64.74 86.2703 68.72 77.9203 73.79 76.9303C78.86 75.9403 84.03 81.9103 82.14 87.0303C82.14 87.0303 86.22 83.7903 85.72 75.9403C85.22 68.0803 85.22 68.0803 85.22 68.0803L93.87 64.3003L110.62 61.3203L125.34 72.4603L125.53 80.7703C125.53 80.7703 131.35 97.0303 128.17 110.11C124.99 123.19 115.2 129.12 108.37 127.94Z" fill="#F6A6AC"/>
<path d="M131.88 73.4401C132.04 81.1701 126.69 84.5001 126.69 84.5001L125.36 81.4501C124.96 83.3601 124.28 82.4701 120.55 82.0501C116.81 81.6301 113.51 81.1701 113.51 81.1701C113.51 81.1701 113.93 79.5401 113.9 73.3101C113.87 68.0801 111.74 64.1301 111.06 63.0101C113.18 66.7301 112.42 74.7501 111.35 77.9801C110.24 81.3101 107.78 79.8201 102.78 79.5401C99.63 79.3601 95.8 79.2501 93.4 79.2001C92.35 79.1801 91.66 78.1201 92.03 77.1301C93.24 73.8601 93.61 69.8701 93.72 67.7801C93.15 74.9501 87.38 77.7601 87.38 77.7601C87.08 82.0101 83.58 85.6801 82.49 86.7301C82.42 86.8001 82.36 86.8501 82.32 86.8901C82.29 86.9201 82.27 86.9401 82.25 86.9601C82.23 86.9801 82.22 86.9901 82.21 86.9901C82.18 87.0201 82.17 87.0201 82.17 87.0201C84.06 81.9001 78.88 75.9301 73.81 76.9201C68.73 77.9101 64.76 86.2701 68.54 94.9001C72.01 102.82 76.88 100.62 77.63 100.21C77.72 100.32 77.83 100.46 77.95 100.64C77.95 100.64 77.95 100.64 77.96 100.65C81.91 109.37 75.5 117.3 75.5 117.3C65.6 125.6 48.28 117.71 47.07 102.78C45.87 87.8501 49.48 76.7701 59.54 62.8801C69.59 49.0001 83.55 42.2801 104.34 46.0301C125.13 49.7801 131.71 65.7201 131.88 73.4401Z" fill="black"/>
<path d="M68.2 82.1401C67.87 82.9001 67.6 83.7201 67.39 84.5901C65.05 85.7801 67.08 87.5401 64.49 88.3901C61.62 89.3201 62 84.0701 68.2 82.1401Z" fill="#B3202D"/>
<path d="M92.6801 84.9704C92.6801 84.9704 89.2101 84.2704 84.4301 83.8204C83.7901 83.7604 83.1401 83.7004 82.4601 83.6504C82.3601 83.0404 82.1801 82.4404 81.9301 81.8604C83.0801 81.9404 84.13 82.0204 85.09 82.1104C89.53 82.5004 91.9501 82.9203 91.9501 82.9203L92.6801 84.9704Z" fill="#B3202D"/>
<path d="M99.49 84.6004C96.12 85.1504 97.49 88.0704 99.61 88.1904C101.73 88.3104 103.31 88.8204 104.11 89.2204C104.91 89.6204 106.51 89.9604 107.19 88.5004C108 86.7604 103.78 83.9004 99.49 84.6004Z" fill="white"/>
<path d="M118.89 88.2699C116.69 89.0099 116.75 91.6399 119.24 91.6599C121.72 91.6899 123.02 92.2199 123.96 92.6199C124.9 93.0199 125.79 92.4599 125.92 91.0799C126.07 89.3199 122.11 87.1799 118.89 88.2699Z" fill="white"/>
<path d="M104.03 128.14C109.64 130.46 116.5 128.85 121.04 125.08C129.68 117.89 131.04 105.37 129.81 94.9101C129.18 89.5601 127.95 84.2901 126.24 79.1801C125.77 77.7901 123.56 78.3801 124.03 79.7901C126.99 88.6301 128.9 98.4101 127.47 107.73C126.12 116.54 120.55 126.47 110.61 126.85C108.62 126.93 106.49 126.7 104.63 125.93C103.28 125.37 102.69 127.59 104.03 128.14Z" fill="black"/>
<path d="M129.07 83.0502C122.78 83.6002 117.4 88.4902 117.4 88.4902C115.5 86.5402 112.5 87.8402 112.5 87.8402C107.01 82.4602 96.77 79.4102 92.85 79.3602C88.94 79.3002 90.73 86.4302 97.21 91.8802C103.69 97.3202 109.02 93.2902 109.02 93.2902C110.87 94.6602 111.91 90.7302 111.91 90.7302C114.95 88.9402 117.24 91.2702 117.24 91.2702C117.24 91.2702 117.24 91.9202 118 93.5502C118.76 95.1902 122.03 98.2402 125.84 95.1302C129.65 92.0302 135.36 82.5102 129.07 83.0502ZM108.97 91.6302C106.71 93.1202 102.06 93.0102 98.95 90.7202C95.85 88.4402 90.87 80.8402 98.57 82.5002C106.27 84.1602 110.54 88.8702 110.54 88.8702C110.54 88.8702 111.22 90.1402 108.97 91.6302ZM129.11 87.7502C128.6 91.4402 123.31 96.9502 120.27 94.1102C120.27 94.1102 118.58 93.0502 118.31 91.3202C118.04 89.5902 119.49 88.5302 122.75 86.8402C126.01 85.1602 129.63 84.0702 129.11 87.7502Z" fill="#B3202D"/>
<path d="M111.66 100.7C111.91 101.73 112.79 102.52 113.84 102.66C114.38 102.73 114.98 102.65 115.46 102.36C115.96 102.05 116.18 101.54 116.28 100.99C116.35 100.6 116.17 100.15 115.75 100.05C115.37 99.9603 114.89 100.16 114.81 100.58C114.8 100.66 114.78 100.73 114.76 100.81C114.75 100.85 114.68 101.01 114.69 101.04C114.74 100.94 114.75 100.91 114.72 100.96C114.71 100.98 114.7 101 114.69 101.02C114.68 101.05 114.65 101.07 114.64 101.1C114.71 101.01 114.73 100.99 114.69 101.03C114.67 101.05 114.66 101.06 114.64 101.08C114.65 101.04 114.76 101.01 114.66 101.05C114.64 101.06 114.61 101.08 114.59 101.09C114.54 101.11 114.56 101.11 114.65 101.07C114.62 101.07 114.58 101.1 114.55 101.1C114.47 101.12 114.37 101.13 114.3 101.16C114.41 101.15 114.43 101.14 114.37 101.15C114.34 101.15 114.32 101.15 114.29 101.16C114.26 101.16 114.22 101.16 114.19 101.16C114.14 101.16 114.09 101.16 114.03 101.15C113.89 101.14 114.15 101.18 114.05 101.15C113.97 101.13 113.88 101.11 113.8 101.09C113.78 101.08 113.77 101.08 113.75 101.07C113.7 101.05 113.72 101.06 113.81 101.1C113.78 101.1 113.72 101.06 113.7 101.04C113.63 101 113.57 100.96 113.5 100.92C113.42 100.87 113.64 101.05 113.52 100.94C113.49 100.91 113.46 100.89 113.43 100.86C113.4 100.83 113.37 100.8 113.35 100.77C113.33 100.75 113.25 100.64 113.32 100.74C113.39 100.84 113.31 100.73 113.3 100.7C113.28 100.67 113.26 100.63 113.24 100.6C113.22 100.57 113.2 100.53 113.18 100.5C113.11 100.38 113.22 100.62 113.19 100.53C113.16 100.45 113.13 100.37 113.11 100.28C113.02 99.8903 112.55 99.6203 112.17 99.7503C111.79 99.8903 111.56 100.28 111.66 100.7Z" fill="black"/>
<path d="M114.8 100.96C114.88 101.56 115.28 102.08 115.77 102.41C116.32 102.79 117 102.87 117.64 102.77C118.84 102.57 119.71 101.41 119.68 100.21C119.67 99.81 119.34 99.43 118.92 99.45C118.52 99.47 118.14 99.79 118.16 100.21C118.16 100.26 118.16 100.31 118.16 100.36C118.16 100.38 118.16 100.39 118.16 100.41C118.15 100.48 118.15 100.48 118.16 100.41C118.17 100.34 118.17 100.34 118.16 100.41C118.16 100.43 118.15 100.44 118.15 100.46C118.14 100.51 118.13 100.56 118.11 100.61C118.1 100.63 118.1 100.64 118.09 100.66C118.06 100.74 118.07 100.72 118.11 100.62C118.12 100.64 118.06 100.72 118.05 100.74C118.03 100.78 118.01 100.81 117.99 100.85C117.98 100.87 117.96 100.89 117.95 100.91C117.92 100.96 117.93 100.94 117.99 100.86C117.97 100.92 117.86 101.01 117.82 101.05C117.8 101.07 117.78 101.08 117.76 101.1C117.72 101.14 117.73 101.12 117.81 101.06C117.8 101.09 117.72 101.12 117.7 101.13C117.66 101.15 117.62 101.17 117.58 101.19C117.43 101.28 117.73 101.14 117.57 101.2C117.48 101.23 117.39 101.26 117.29 101.28C117.15 101.31 117.26 101.26 117.31 101.28C117.28 101.27 117.18 101.29 117.15 101.29C117.11 101.29 117.06 101.29 117.02 101.29C116.88 101.28 117 101.26 117.04 101.3C117.02 101.28 116.91 101.27 116.89 101.27C116.84 101.26 116.8 101.24 116.75 101.23C116.67 101.21 116.86 101.29 116.74 101.22C116.69 101.19 116.64 101.16 116.59 101.13C116.47 101.06 116.67 101.21 116.6 101.14C116.57 101.11 116.54 101.08 116.51 101.06C116.5 101.05 116.4 100.96 116.41 100.95C116.47 101.03 116.49 101.05 116.45 101C116.44 100.98 116.42 100.96 116.41 100.94C116.39 100.9 116.37 100.87 116.35 100.83C116.29 100.71 116.36 100.8 116.36 100.85C116.36 100.82 116.32 100.73 116.32 100.71C116.31 100.66 116.3 100.61 116.29 100.56C116.27 100.38 116.08 100.19 115.94 100.1C115.78 100 115.53 99.96 115.35 100.02C115.17 100.08 114.99 100.19 114.89 100.37C114.77 100.56 114.77 100.74 114.8 100.96Z" fill="black"/>
<path d="M119.68 99.9601C119.19 96.8201 118.61 93.7001 117.93 90.6001C117.72 89.6401 116.25 90.0501 116.46 91.0101C117.14 94.1101 117.72 97.2301 118.21 100.37C118.27 100.78 118.79 101 119.15 100.9C119.59 100.78 119.75 100.37 119.68 99.9601Z" fill="black"/>
<path d="M97.58 81.4601C99.09 80.4301 100.94 80.0201 102.73 80.4701C104.59 80.9401 106.14 82.1701 107.57 83.3901C108.04 83.7901 108.73 83.8501 109.19 83.3901C109.6 82.9801 109.66 82.1701 109.19 81.7701C107.42 80.2501 105.48 78.7401 103.15 78.2201C100.85 77.7001 98.37 78.1501 96.42 79.4801C95.91 79.8301 95.68 80.4901 96.01 81.0501C96.3 81.5501 97.06 81.8101 97.58 81.4601Z" fill="black"/>
<path d="M117.62 84.5102C118.49 83.4102 119.65 82.3502 121.11 82.3202C122.52 82.2902 123.57 83.3102 124.54 84.2902C125.58 85.3402 127.2 83.7202 126.16 82.6702C124.79 81.2902 123.16 79.9802 121.1 80.0302C119.02 80.0802 117.24 81.3102 115.98 82.8902C115.6 83.3802 115.51 84.0402 115.98 84.5102C116.4 84.9102 117.24 85.0002 117.62 84.5102Z" fill="black"/>
<path d="M99.12 88.4399C100.6 88.4399 100.6 86.1499 99.12 86.1499C97.64 86.1499 97.64 88.4399 99.12 88.4399Z" fill="black"/>
<path d="M119.42 91.77C120.9 91.77 120.9 89.48 119.42 89.48C117.94 89.48 117.94 91.77 119.42 91.77Z" fill="black"/>
<path d="M91.45 103.22C94.26 103.58 96.92 101.8 97.81 99.1501C97.94 98.7601 97.66 98.3101 97.28 98.2101C96.86 98.1001 96.47 98.3501 96.34 98.7401C96.04 99.6401 95.4 100.49 94.59 101.01C93.64 101.63 92.58 101.83 91.45 101.69C91.04 101.64 90.69 102.08 90.69 102.45C90.68 102.91 91.04 103.17 91.45 103.22Z" fill="black"/>
<path d="M95.74 100.72C95.74 100.72 101.3 106.53 111.71 108.37C111.71 108.37 110.41 116.21 102.37 115.05C94.33 113.89 93.75 102.66 93.75 102.66L95.74 100.72Z" fill="black"/>
<path d="M107.88 107.47C106.88 110.48 104.21 110.09 101.15 107.95C98.69 106.22 97.58 103.26 97.21 102.02C99.08 103.51 102.68 105.93 107.88 107.47Z" fill="white"/>
<path d="M103.04 115.12C102.83 115.11 102.61 115.09 102.38 115.05C96.89 114.26 94.88 108.77 94.16 105.38C95.75 105.8 98.18 106.73 99.93 108.66C102.05 110.99 102.8 113.85 103.04 115.12Z" fill="#F27D83"/>
<path d="M108.27 118.05C106.53 118.86 104.52 119.16 102.63 118.87C102.22 118.81 101.81 118.97 101.69 119.4C101.59 119.76 101.81 120.28 102.22 120.34C104.56 120.7 106.9 120.37 109.04 119.37C109.41 119.2 109.51 118.66 109.31 118.32C109.09 117.94 108.64 117.88 108.27 118.05Z" fill="black"/>
<path d="M74.4001 92.0802C74.5301 92.0602 74.3201 92.0502 74.3001 92.0402C74.2301 92.0102 74.1701 91.9602 74.1101 91.8902C73.9801 91.7502 73.9001 91.5402 73.8801 91.3202C73.8101 90.7202 73.9701 90.0702 74.1501 89.5102C74.4901 88.4602 75.1801 87.6102 76.2701 87.4502C76.6801 87.3902 76.9001 86.8702 76.8001 86.5102C76.6801 86.0702 76.2701 85.9102 75.8601 85.9802C74.0901 86.2502 72.9701 87.8902 72.5601 89.5102C72.3501 90.3702 72.2001 91.3502 72.5301 92.2002C72.9101 93.1502 73.7901 93.7002 74.8101 93.5702C75.2201 93.5102 75.4401 92.9902 75.3401 92.6302C75.2101 92.1702 74.8101 92.0202 74.4001 92.0802Z" fill="black"/>
<path d="M74.1999 82.51C74.3199 82.56 74.4999 82.93 74.5699 83.04C74.7099 83.25 74.8399 83.46 74.9699 83.68C75.1899 84.06 75.3999 84.45 75.5699 84.85C75.9399 85.71 76.1999 86.65 76.2399 87.59C76.2799 88.46 76.1599 89.33 75.8599 90.15C75.6199 90.78 75.1099 91.89 74.3899 92.08C73.4399 92.33 73.8399 93.81 74.7999 93.55C75.8999 93.26 76.6499 92.12 77.0899 91.14C77.5899 90.03 77.8299 88.8 77.7699 87.59C77.7099 86.33 77.3699 85.13 76.8499 83.99C76.3799 82.96 75.6999 81.49 74.5999 81.04C74.2199 80.88 73.7599 81.21 73.6599 81.57C73.5399 82.01 73.8199 82.35 74.1999 82.51Z" fill="black"/>
<path d="M78.1999 98.2899C78.1799 98.3299 78.05 98.5399 78.16 98.3599C78.12 98.4199 78.0699 98.4699 78.0199 98.5199C77.9299 98.6199 77.8199 98.7499 77.6999 98.8099C77.8799 98.7199 77.6799 98.8199 77.6399 98.8499C77.5799 98.8899 77.5199 98.9299 77.4499 98.9699C77.3299 99.0399 77.2099 99.0999 77.0899 99.1599C77.0399 99.1799 77.0599 99.1699 77.1499 99.1399C77.1099 99.1599 77.0699 99.1699 77.0299 99.1899C76.9499 99.2199 76.8699 99.2499 76.7899 99.2699C76.6299 99.3199 76.47 99.3599 76.3 99.3899C76.22 99.4099 76.13 99.4199 76.05 99.4299C76.01 99.4399 75.9699 99.4399 75.9199 99.4499C76.0199 99.4399 76.0199 99.4399 75.9299 99.4499C75.7599 99.4699 75.5899 99.4799 75.4299 99.4899C75.0299 99.5199 74.6499 99.8199 74.6699 100.25C74.6899 100.64 75.0099 101.04 75.4299 101.01C76.2699 100.96 77.0799 100.82 77.8499 100.47C78.5299 100.17 79.1099 99.6799 79.5099 99.0599C79.7299 98.7199 79.5899 98.1999 79.2399 98.0099C78.8699 97.8099 78.4299 97.9299 78.1999 98.2899Z" fill="black"/>
<path d="M30.07 132.55C32.16 137.57 33.19 141.9 33.19 141.9C33.19 141.9 29.9 146.75 30.94 150.21C31.99 153.66 33.71 153.85 33.71 153.85C33.71 153.85 31.98 156.27 32.85 159.56C33.71 162.85 35.44 163.2 35.44 163.2C35.44 163.2 33.54 165.1 36.49 170.82C39.43 176.53 38.51 176.92 49.7 178.92L42.48 199.81L82 199.67L83.31 175.78C83.31 175.78 87.13 170.97 87.6 159.55C88.06 148.12 87.98 139.86 89.34 135.53C90.69 131.2 90.03 127.02 85.94 126.49C81.84 125.97 78.21 132.55 77.51 137.74L42.02 136.74C42.02 136.74 38.39 128.39 34.58 124.93C30.76 121.47 27.99 127.52 30.07 132.55Z" fill="#F6A6AC"/>
<path d="M43.74 166.41C42.3 154.64 39.0299 126.99 38.19 111.96C38.01 108.74 40.5399 106.01 43.7699 105.94L72.1699 105.29C75.3299 105.22 77.9499 107.71 78.0199 110.87C78.2699 122 78.8399 146.92 79.3099 163.14C79.3999 166.14 77.15 168.69 74.16 168.99L49.99 171.4C46.89 171.7 44.12 169.49 43.74 166.41Z" fill="#024758"/>
<path d="M42.48 114.6C43.29 123.62 45.65 149.31 47.1 160.79C47.34 162.67 49.03 164.02 50.92 163.82L71.96 161.62C73.77 161.43 75.13 159.89 75.08 158.07C74.86 149.21 74.26 124.43 74.2 113.88C74.19 112.03 72.74 110.51 70.88 110.43C65.22 110.17 53.54 109.81 45.53 110.84C43.66 111.06 42.31 112.72 42.48 114.6Z" fill="#B2E1EE"/>
<path d="M35 154.17C36.48 153.84 37.9 153.24 39.15 152.39C40.33 151.59 41.6 150.54 42.22 149.21C43.63 146.16 42.26 142.62 40.98 139.78C40.58 138.88 39.26 139.66 39.66 140.55C40.7 142.88 42.06 146.12 40.8 148.63C40.27 149.69 39.16 150.55 38.19 151.19C37.08 151.91 35.87 152.41 34.58 152.7C33.64 152.91 34.04 154.39 35 154.17Z" fill="black"/>
<path d="M41.02 151.01C42.14 152.63 42.38 154.66 42.05 156.58C41.89 157.52 41.65 158.65 41.1 159.44C40.6 160.15 39.71 160.49 38.93 160.79C38.02 161.14 38.42 162.62 39.34 162.26C40.36 161.86 41.44 161.43 42.15 160.57C42.91 159.65 43.26 158.33 43.49 157.17C43.94 154.82 43.74 152.25 42.34 150.23C41.78 149.43 40.46 150.19 41.02 151.01Z" fill="black"/>
<path d="M40.89 161.57C41.57 161.86 42.28 162.17 42.69 162.82C43.08 163.45 43.27 164.21 43.29 164.95C43.34 166.43 42.79 167.87 41.74 168.91C41.04 169.6 42.12 170.68 42.82 169.99C44.2 168.62 44.96 166.64 44.81 164.69C44.73 163.71 44.47 162.69 43.9 161.88C43.25 160.96 42.3 160.51 41.3 160.09C40.92 159.93 40.46 160.26 40.36 160.62C40.24 161.07 40.51 161.41 40.89 161.57Z" fill="black"/>
<path d="M58.74 178.02C56.02 178.07 53.31 178.11 50.59 178.16C49.61 178.18 49.6 179.71 50.59 179.69C53.31 179.64 56.02 179.6 58.74 179.55C59.73 179.53 59.73 178 58.74 178.02Z" fill="black"/>
<path d="M127.78 155.55C131.89 161.3 135.7 167.82 135.57 175.08C135.46 181.59 133.7 188.08 129.82 193.38C128.95 194.57 130.94 195.72 131.8 194.54C135.9 188.93 137.74 181.97 137.86 175.08C137.99 167.4 134.11 160.48 129.75 154.39C128.91 153.21 126.92 154.35 127.78 155.55Z" fill="#FFC11E"/>
<path d="M69.4401 157.88C80.6293 157.88 89.7001 148.81 89.7001 137.62C89.7001 126.431 80.6293 117.36 69.4401 117.36C58.2508 117.36 49.1801 126.431 49.1801 137.62C49.1801 148.81 58.2508 157.88 69.4401 157.88Z" fill="white"/>
<path d="M178.76 156.22C178.76 156.22 179.74 167.6 180.07 177.35C180.53 190.7 181.06 197.89 180.51 199.68H148.42C148.34 186.53 156.86 158.97 156.86 158.97C156.86 158.97 153.13 156.14 152.19 154.63C150.3 151.61 149.24 147.13 149.59 145.27C150.15 142.27 152.09 141.97 153.47 141.74C156.56 141.23 159.35 147.92 159.35 147.92C161.82 146.41 164.8 147.01 164.8 147.01C169.27 141.42 163.43 134.66 160.1 134.87C154.72 135.21 156.89 140.9 153.16 141.83C149.43 142.75 148.72 138.45 148.51 136.64C148.28 134.65 149.52 127.65 156.11 125.56C162.7 123.47 166.79 128.54 166.79 128.54C166.79 128.54 166.73 121.52 165.3 116.37C163.88 111.21 164.57 108.82 167.35 107.78C171.49 106.24 174.53 119 175.2 130.08C175.2 130.08 176.48 123.11 176.47 118.22C176.46 113.91 175.55 111.01 179.1 110.37C181.48 109.94 183.07 112.95 183.58 119.2C183.96 123.88 182.95 130.25 181.5 136.86C181.5 136.86 183.04 131.66 184.53 127.44C185.31 125.24 187.25 122.43 189.26 123.11C192.34 124.16 194.36 128.12 188.89 141.09C183.56 153.69 182.27 152.52 178.76 156.22Z" fill="#F6A6AC"/>
<path d="M171.11 131.76C174.88 132.9 178.25 135.29 180.53 138.51C180.82 138.92 181.34 139.11 181.8 138.84C182.2 138.6 182.43 137.98 182.13 137.57C179.55 133.95 175.85 131.26 171.6 129.97C170.46 129.62 169.97 131.42 171.11 131.76Z" fill="black"/>
<path d="M152.1 143.02C153.72 142.44 155.09 143.55 156.05 144.76C157.09 146.07 157.93 147.55 158.67 149.05C158.88 149.48 159.55 149.65 159.94 149.38C162.66 147.53 166.46 148.1 168.54 150.63C169.3 151.55 170.61 150.23 169.85 149.32C167.27 146.19 162.35 145.5 159 147.78C159.42 147.89 159.85 148 160.27 148.11C158.78 145.06 155.84 139.71 151.6 141.23C150.49 141.63 150.97 143.42 152.1 143.02Z" fill="black"/>
<path fill-rule="evenodd" clip-rule="evenodd" d="M82.71 135.43C82.3 132.69 79.88 130.8 77.08 131.12L63.41 132.23C62.91 132.27 62.48 131.9 62.44 131.4C62.4 130.9 62.77 130.47 63.27 130.43L77.12 129.31C76.89 127.54 75.38 125.72 73.64 125.59C69.52 125.21 65.45 125.54 61.44 126.58C59.22 127.12 57.68 129.49 57.5 131.74C57.21 136.06 57.55 140.34 58.54 144.55C59.09 146.84 61.5 148.89 63.86 148.97C68.97 149.18 74.02 148.77 78.94 147.75C81.17 147.31 82.48 145.13 82.76 142.87C83.01 140.33 82.99 137.82 82.71 135.43ZM78.46 138.82L78.52 139.62C78.56 140.12 78.19 140.55 77.69 140.59C77.19 140.63 76.76 140.26 76.72 139.76L76.66 138.96C76.36 138.74 76.16 138.39 76.13 138C76.07 137.25 76.62 136.6 77.37 136.54C78.12 136.48 78.77 137.03 78.83 137.78C78.87 138.18 78.72 138.56 78.46 138.82Z" fill="#4AA8D3"/>
</svg>
