<svg width="189" height="180" viewBox="0 0 189 180" fill="none" xmlns="http://www.w3.org/2000/svg">
<g clip-path="url(#clip0_266_1568)">
<path d="M151.85 123.03C147.76 98.1302 137.67 75.3802 102.55 69.2402C83.17 65.8602 57.82 65.2502 28.72 85.1202C9.56 98.2102 20.44 121.04 17.13 123.81L9.22 126.04C9.22 126.04 9.68 136.64 10.42 144.04C12.74 167.2 17.12 171.18 24.45 173.41V180.28H144.35L141.16 163.5C153.58 150.48 154.57 139.58 151.85 123.03Z" fill="#EC6723"/>
<path d="M102.62 141.91C99.91 147.89 98.11 154.95 100.7 161.29C102.68 166.12 106.83 169.48 111.58 171.41C115.99 173.2 121.07 174.05 125.74 172.86C131.37 171.42 136.59 168.19 140.93 164.4C146.4 159.63 150.88 153.27 152.05 145.99C152.23 144.89 150.55 144.42 150.37 145.53C148.53 156.99 138.27 166.61 127.67 170.44C125.69 171.15 123.6 171.72 121.48 171.71C119.17 171.7 116.81 171.26 114.6 170.61C110.12 169.31 105.8 166.75 103.34 162.68C99.62 156.52 101.33 148.96 104.13 142.79C104.59 141.77 103.09 140.88 102.62 141.91Z" fill="black"/>
<path d="M56.51 72.5999C54.02 74.3299 51.61 76.1699 49.28 78.1099C48.09 79.0999 46.93 80.1199 45.79 81.1699C44.91 81.9699 43.71 82.8399 43.78 84.1599C43.84 85.3699 45.09 86.4099 45.82 87.2699C46.76 88.3799 47.69 89.4899 48.63 90.5899C50.38 92.6499 52.14 94.6999 54 96.6699C54.07 96.1199 54.14 95.5599 54.21 95.0099C50.79 96.5599 47.36 98.0999 43.95 99.6699C42.71 100.24 41.89 101.03 42.37 102.48C42.94 104.16 43.83 105.79 44.56 107.4C47.65 114.32 50.74 121.23 53.83 128.15C54.38 129.39 56.21 128.32 55.66 127.08C52.91 120.92 50.15 114.75 47.4 108.59C46.73 107.09 46.06 105.58 45.39 104.08C45.16 103.57 44.29 102.29 44.36 101.76C44.34 101.93 44.6 101.7 44.81 101.61C45.18 101.44 45.55 101.27 45.93 101.1C49.05 99.6799 52.18 98.2599 55.3 96.8399C55.95 96.5499 55.94 95.6299 55.51 95.1799C54 93.5799 52.56 91.9199 51.13 90.2499C49.56 88.4199 47.75 86.6199 46.37 84.6499C45.91 83.9899 46.07 83.8299 46.62 83.3099C47.07 82.8799 47.53 82.4699 47.99 82.0499C48.97 81.1699 49.96 80.3099 50.97 79.4599C53.1 77.6799 55.32 76.0099 57.59 74.4299C58.69 73.6599 57.63 71.8199 56.51 72.5999Z" fill="#FFC11E"/>
<path d="M90.26 72.2402C94.3 76.4702 98.34 80.7002 102.38 84.9302C103.05 85.6302 105.28 87.2702 104.77 88.2402C104.5 88.7502 103.78 89.2502 103.36 89.6602C102.85 90.1602 102.35 90.6502 101.83 91.1402C99.78 93.1002 97.66 94.9902 95.48 96.8202C95 97.2202 95.16 97.9002 95.48 98.3202C97.26 100.62 99.03 102.92 100.81 105.22C101.7 106.37 102.59 107.52 103.48 108.67C103.85 109.15 104.01 109.23 103.95 109.8C103.9 110.28 103.66 110.56 103.39 110.96C102.99 111.58 102.58 112.21 102.18 112.83C98.9 117.88 95.63 122.93 92.35 127.98C91.61 129.13 93.44 130.19 94.18 129.05C97.9 123.31 101.67 117.59 105.35 111.83C106.02 110.78 106.49 109.71 105.9 108.51C105.26 107.2 104.08 106.04 103.19 104.89C101.12 102.21 99.04 99.5302 96.97 96.8402C96.97 97.3402 96.97 97.8402 96.97 98.3402C99.5 96.2102 101.96 93.9902 104.34 91.6702C105.22 90.8102 106.48 89.8902 106.94 88.7202C107.44 87.4602 106.76 86.4802 105.92 85.5902C101.23 80.6202 96.47 75.7002 91.75 70.7602C90.81 69.7602 89.32 71.2602 90.26 72.2402Z" fill="#FFC11E"/>
<path d="M69.12 73.1803C63.45 101.06 60.56 104.26 57.58 138.22C54.7 171.07 54.58 180.28 54.58 180.28H84.84C84.84 180.28 82.62 127.14 89.63 70.5703C91.66 54.1503 74.79 45.3003 69.12 73.1803Z" fill="#B9E2EE"/>
<path d="M48.08 34.6899C48.08 34.6899 42.01 39.5499 38.91 51.0999C35.81 62.6499 36 75.1599 50.79 74.2099C50.79 74.2099 38.24 63.2099 48.08 34.6899Z" fill="black"/>
<path d="M61.3 77.9101C61.3 77.9101 64.37 82.2401 76.34 80.4101C88.31 78.5801 93.7 70.9901 93.7 70.9901C93.7 70.9901 88.16 62.4901 93.25 54.4201C93.25 54.4201 98.09 58.1601 102.53 50.3001C106.98 42.4401 104 34.0901 99.26 32.6401C94.52 31.1901 89 36.3901 90.3 41.4501C90.3 41.4501 86.73 37.9601 87.97 30.5201C89.21 23.0801 89.21 23.0801 89.21 23.0801L81.33 18.6301L65.65 14.1401L50.52 23.3201L49.52 31.2201C49.52 31.2201 42.38 46.1601 44.13 58.9401C45.89 71.7401 54.67 78.3701 61.3 77.9101Z" fill="#F6A6AC"/>
<path d="M44.22 23.6401C43.31 30.9901 48.09 34.6901 48.09 34.6901L49.66 31.9101C49.85 33.7701 50.59 32.9901 54.19 32.9601C57.79 32.9301 60.99 32.8101 60.99 32.8101C60.99 32.8101 60.74 31.2101 61.39 25.2701C61.93 20.2801 64.35 16.7301 65.11 15.7301C62.72 19.0701 62.66 26.8001 63.37 29.9801C64.1 33.2601 66.59 32.0901 71.39 32.3101C74.42 32.4401 78.08 32.7201 80.37 32.9001C81.38 32.9801 82.14 32.0401 81.88 31.0601C81.04 27.8301 81.08 23.9801 81.18 21.9801C81.02 28.8701 86.25 32.1201 86.25 32.1201C86.12 36.2001 89.1 40.0501 90.04 41.1501C90.1 41.2201 90.15 41.2801 90.19 41.3201C90.21 41.3501 90.23 41.3701 90.25 41.3901C90.26 41.4101 90.28 41.4201 90.29 41.4301C90.32 41.4601 90.33 41.4701 90.33 41.4701C89.03 36.4001 94.55 31.2201 99.29 32.6601C104.04 34.1001 107.01 42.4601 102.56 50.3201C98.47 57.5401 94.05 54.9601 93.37 54.4901C93.27 54.5901 93.15 54.7101 93.02 54.8701C93.02 54.8701 93.02 54.8701 93.01 54.8801C88.39 62.8101 93.73 71.0001 93.73 71.0001C102.36 79.8901 119.65 74.0501 122.26 59.9401C124.86 45.8201 122.51 34.9001 114.27 20.6701C106.04 6.45008 93.39 -1.32992 73.2 0.210082C52.97 1.74008 45.13 16.2901 44.22 23.6401Z" fill="black"/>
<path d="M104.09 38.1699C104.33 38.9299 104.51 39.7399 104.62 40.5799C106.74 41.9399 104.62 43.4199 107.02 44.4799C109.66 45.6599 109.82 40.6199 104.09 38.1699Z" fill="#B3202D"/>
<path d="M80.47 38.4703C80.47 38.4703 83.85 38.1503 88.45 38.1803C89.06 38.1903 89.69 38.1903 90.35 38.2103C90.51 37.6403 90.74 37.0803 91.04 36.5503C89.94 36.5103 88.93 36.4903 88 36.4803C83.73 36.4203 81.38 36.5803 81.38 36.5803L80.47 38.4703Z" fill="#B3202D"/>
<path d="M74.01 37.45C77.17 38.3 75.58 40.95 73.55 40.86C71.52 40.77 69.96 41.1 69.15 41.4C68.35 41.7 66.79 41.87 66.28 40.41C65.68 38.67 69.99 36.37 74.01 37.45Z" fill="white"/>
<path d="M55.16 39.0499C57.19 39.9699 56.87 42.4699 54.5 42.2499C52.13 42.0299 50.84 42.4099 49.91 42.6999C48.98 42.9899 48.18 42.3699 48.19 41.0399C48.2 39.3499 52.19 37.6999 55.16 39.0499Z" fill="white"/>
<path d="M64.94 76.3902C60.59 77.6902 55.29 76.2802 51.89 73.2202C44.18 66.2802 44.13 54.4902 46.14 45.1302C47.21 40.1402 48.89 35.2702 50.99 30.6302C51.57 29.3502 49.68 28.2302 49.09 29.5202C44.95 38.6702 41.85 49.1402 43.06 59.2702C44.14 68.2902 49.51 77.6202 59.24 78.8702C61.28 79.1302 63.53 79.1102 65.52 78.5102C66.88 78.1002 66.3 75.9802 64.94 76.3902Z" fill="black"/>
<path d="M47.86 44.9198C51.18 48.2598 54.6 45.6698 55.49 44.1798C56.37 42.6998 56.43 42.0798 56.43 42.0798C56.43 42.0798 58.84 40.0798 61.57 42.0798C61.57 42.0798 62.17 45.9198 64.07 44.7998C64.07 44.7998 68.76 49.1698 75.47 44.6098C82.18 40.0498 84.59 33.4298 80.85 33.0998C77.1 32.7598 67.05 34.6698 61.28 39.2698C61.28 39.2698 58.55 37.7398 56.54 39.4098C56.54 39.4098 51.89 34.2198 45.95 33.0798C40.01 31.9398 44.52 41.5898 47.86 44.9198ZM63.05 40.4498C63.05 40.4498 67.59 36.3698 75.09 35.5498C82.59 34.7198 77.1 41.4798 73.92 43.3498C70.73 45.2198 66.28 44.8698 64.28 43.2398C62.28 41.5898 63.05 40.4498 63.05 40.4498ZM51.61 37.3198C54.55 39.2498 55.83 40.3998 55.41 42.0298C54.98 43.6498 53.27 44.4898 53.27 44.4898C50.09 46.9098 45.59 41.1198 45.46 37.5598C45.32 33.9898 48.66 35.3798 51.61 37.3198Z" fill="#B3202D"/>
<path d="M59.44 51.1499C59.44 51.1599 59.38 51.3099 59.43 51.1899C59.47 51.0799 59.42 51.1999 59.41 51.2299C59.37 51.2999 59.33 51.3599 59.29 51.4199C59.22 51.5299 59.37 51.3299 59.31 51.3999C59.28 51.4299 59.26 51.4599 59.23 51.4799C59.18 51.5299 59.11 51.5799 59.06 51.6299C59.08 51.5999 59.18 51.5399 59.1 51.5999C59.07 51.6199 59.04 51.6399 59.01 51.6599C58.98 51.6799 58.94 51.6999 58.91 51.7199C58.89 51.7299 58.76 51.7799 58.87 51.7399C58.99 51.6899 58.85 51.7499 58.82 51.7499C58.78 51.7599 58.74 51.7699 58.7 51.7799C58.67 51.7899 58.6 51.7899 58.58 51.8099C58.63 51.7799 58.73 51.7999 58.6 51.7999C58.53 51.8099 58.45 51.8099 58.38 51.7999C58.37 51.7999 58.2 51.7799 58.33 51.7999C58.45 51.8199 58.31 51.7899 58.28 51.7899C58.2 51.7699 58.12 51.7499 58.04 51.7199C57.91 51.6799 58.13 51.7699 58.06 51.7299C58.02 51.7099 57.99 51.6899 57.95 51.6699C57.93 51.6599 57.8 51.5899 57.9 51.6399C57.94 51.6699 57.95 51.6699 57.92 51.6499C57.88 51.6099 57.89 51.6299 57.96 51.7099C57.95 51.6799 57.93 51.6599 57.91 51.6299C57.83 51.5099 57.95 51.7799 57.91 51.6299C57.89 51.5599 57.88 51.4899 57.86 51.4199C57.84 51.3299 57.88 51.5899 57.86 51.4499C57.86 51.3999 57.85 51.3599 57.85 51.3099C57.82 50.9299 57.54 50.5599 57.12 50.5799C56.75 50.5999 56.35 50.8999 56.39 51.3099C56.41 51.5599 56.43 51.8199 56.52 52.0599C56.63 52.3899 56.82 52.6399 57.1 52.8399C57.51 53.1399 58.07 53.2899 58.57 53.2599C59.64 53.2099 60.51 52.5199 60.86 51.5199C60.99 51.1599 60.72 50.6999 60.35 50.6199C59.93 50.5399 59.58 50.7599 59.44 51.1499Z" fill="black"/>
<path d="M56.42 51.09C56.41 51.14 56.4 51.18 56.38 51.22C56.34 51.35 56.46 51.09 56.38 51.21C56.36 51.24 56.34 51.28 56.32 51.31C56.26 51.41 56.29 51.33 56.34 51.29C56.31 51.32 56.28 51.36 56.25 51.39C56.23 51.41 56.16 51.46 56.15 51.48C56.17 51.43 56.27 51.39 56.17 51.46C56.14 51.48 56.1 51.5 56.07 51.52C56.03 51.54 55.94 51.62 56.06 51.54C56.02 51.57 55.94 51.58 55.89 51.59C55.84 51.6 55.8 51.61 55.75 51.62C55.66 51.64 55.91 51.61 55.77 51.62C55.69 51.62 55.56 51.6 55.48 51.62C55.54 51.61 55.63 51.65 55.5 51.62C55.45 51.61 55.4 51.6 55.36 51.58C55.32 51.57 55.28 51.55 55.24 51.54C55.09 51.49 55.38 51.62 55.23 51.54C55.15 51.49 55.08 51.45 55 51.4C54.93 51.35 55.11 51.5 55.01 51.41C54.97 51.38 54.94 51.34 54.9 51.31C54.89 51.3 54.88 51.29 54.87 51.27C54.82 51.21 54.83 51.22 54.89 51.3C54.87 51.3 54.83 51.22 54.82 51.2C54.8 51.17 54.78 51.13 54.76 51.09C54.75 51.07 54.74 51.05 54.73 51.02C54.71 50.97 54.72 50.99 54.75 51.08C54.71 51.07 54.68 50.86 54.67 50.82C54.67 50.81 54.65 50.7 54.65 50.7C54.66 50.81 54.67 50.83 54.66 50.77C54.66 50.75 54.66 50.72 54.66 50.7C54.66 50.6 54.66 50.5 54.68 50.41C54.7 50.24 54.58 50.01 54.47 49.89C54.34 49.76 54.13 49.67 53.95 49.68C53.76 49.69 53.56 49.75 53.43 49.89C53.29 50.04 53.24 50.2 53.22 50.41C53.06 51.57 53.89 52.71 55.01 53C56.18 53.3 57.52 52.67 57.82 51.45C57.91 51.08 57.7 50.64 57.31 50.55C56.94 50.49 56.52 50.69 56.42 51.09Z" fill="black"/>
<path d="M54.64 50.58C55.41 47.64 56.27 44.72 57.22 41.83C57.52 40.93 56.1 40.55 55.81 41.44C54.86 44.33 54 47.25 53.23 50.19C52.99 51.1 54.4 51.49 54.64 50.58Z" fill="black"/>
<path d="M77.57 32.9803C75.87 31.5503 73.65 30.7403 71.42 30.9803C69.09 31.2303 67.08 32.3903 65.18 33.7103C64.69 34.0503 64.47 34.6703 64.79 35.2103C65.07 35.6903 65.8 35.9403 66.29 35.6003C67.81 34.5403 69.46 33.4503 71.34 33.1803C72.99 32.9403 74.74 33.4603 76.01 34.5203C76.46 34.9003 77.12 34.9603 77.56 34.5203C77.96 34.1403 78.03 33.3603 77.57 32.9803Z" fill="black"/>
<path d="M58.53 34.3401C57.51 32.7301 56 31.3001 54.05 31.0101C51.94 30.6901 50.24 31.7901 48.68 33.0701C48.22 33.4501 48.29 34.2301 48.68 34.6201C49.13 35.0701 49.77 35.0001 50.23 34.6201C50.76 34.1801 51.32 33.7701 51.94 33.4601C52.45 33.2001 53.08 33.0701 53.6 33.1501C54.94 33.3401 55.94 34.3501 56.64 35.4501C56.96 35.9501 57.62 36.1501 58.14 35.8401C58.63 35.5501 58.85 34.8401 58.53 34.3401Z" fill="black"/>
<path d="M72.78 40.7C74.19 40.7 74.2 38.5 72.78 38.5C71.36 38.5 71.36 40.7 72.78 40.7Z" fill="black"/>
<path d="M54.19 42.16C55.6 42.16 55.61 39.96 54.19 39.96C52.78 39.96 52.78 42.16 54.19 42.16Z" fill="black"/>
<path d="M79.93 54.5303C78.93 54.5603 77.85 54.2403 77.11 53.6103C76.71 53.2703 76.42 52.9503 76.18 52.5503C75.89 52.0803 75.75 51.7303 75.62 51.1703C75.53 50.7803 75.09 50.5603 74.72 50.6603C74.32 50.7703 74.12 51.1703 74.21 51.5603C74.8 54.1903 77.24 56.0703 79.93 56.0003C80.33 55.9903 80.66 55.6703 80.66 55.2703C80.67 54.8803 80.33 54.5203 79.93 54.5303Z" fill="black"/>
<path d="M76.01 53.1899C76.01 53.1899 70.14 58.1899 60.03 58.9199C60.03 58.9199 60.5 66.5199 68.28 66.2099C76.06 65.8899 77.71 55.2399 77.71 55.2399L76.01 53.1899Z" fill="black"/>
<path d="M63.77 58.4403C64.43 61.4003 67.01 61.3003 70.14 59.5503C72.66 58.1403 74 55.4303 74.48 54.2803C72.55 55.5203 68.88 57.4803 63.77 58.4403Z" fill="white"/>
<path d="M67.64 66.21C67.84 66.22 68.06 66.22 68.28 66.21C73.59 65.99 76.04 60.96 77.07 57.79C75.51 58.04 73.1 58.68 71.24 60.35C68.99 62.37 67.99 65.02 67.64 66.21Z" fill="#F27D83"/>
<path d="M61.57 69.7203C63.44 70.8403 65.62 71.3903 67.8 71.2803C68.2 71.2603 68.53 70.9603 68.53 70.5503C68.53 70.1703 68.19 69.8003 67.8 69.8203C65.87 69.9203 63.97 69.4503 62.31 68.4603C61.49 67.9703 60.76 69.2303 61.57 69.7203Z" fill="black"/>
<path d="M96.75 48.4299C97.62 48.6399 98.5 48.1999 98.93 47.4299C99.39 46.6199 99.33 45.6499 99.21 44.7599C98.98 43.1199 98.05 41.4799 96.35 41.0399C95.44 40.7999 95.05 42.2199 95.96 42.4499C96.99 42.7199 97.53 43.7199 97.73 44.7299C97.83 45.2299 97.9 45.8299 97.79 46.3299C97.73 46.5699 97.66 46.7499 97.49 46.8899C97.46 46.9099 97.33 46.9799 97.33 46.9799C97.23 47.0199 97.25 47.0199 97.14 46.9899C96.22 46.7999 95.83 48.2099 96.75 48.4299Z" fill="black"/>
<path d="M98.02 36.5001C97.45 36.6701 97.09 37.1201 96.72 37.5701C96.33 38.0501 95.97 38.5401 95.66 39.0701C95.06 40.0901 94.61 41.2101 94.44 42.3801C94.27 43.5001 94.33 44.6801 94.69 45.7601C95.04 46.8201 95.65 48.0001 96.75 48.4201C97.63 48.7501 98.02 47.3401 97.14 47.0101C96.81 46.8801 96.58 46.4101 96.43 46.1201C96.22 45.7301 96.07 45.3201 95.97 44.8901C95.78 44.0901 95.76 43.2401 95.91 42.4401C96.07 41.5901 96.38 40.7901 96.8 40.0301C97.03 39.6301 97.28 39.2301 97.56 38.8601C97.75 38.6101 98.1 38.0001 98.41 37.9001C99.31 37.6501 98.93 36.2401 98.02 36.5001Z" fill="black"/>
<path d="M91.68 53.2602C92.36 54.5902 93.83 55.2002 95.23 55.4302C95.43 55.4602 95.61 55.4602 95.79 55.3602C95.94 55.2702 96.09 55.1002 96.13 54.9202C96.21 54.5702 96.02 54.0902 95.62 54.0202C95.3 53.9702 94.99 53.9002 94.68 53.8102C94.53 53.7602 94.38 53.7102 94.22 53.6502C94.12 53.6102 94.33 53.7002 94.24 53.6602C94.21 53.6402 94.17 53.6302 94.14 53.6102C94.07 53.5802 94 53.5402 93.93 53.5002C93.81 53.4402 93.7 53.3602 93.6 53.2902C93.49 53.2102 93.68 53.3602 93.61 53.3002C93.58 53.2802 93.56 53.2602 93.53 53.2402C93.48 53.2002 93.43 53.1502 93.38 53.1102C93.33 53.0602 93.28 53.0102 93.23 52.9502C93.21 52.9302 93.19 52.9002 93.17 52.8802C93.11 52.8102 93.18 52.8802 93.19 52.9102C93.17 52.8502 93.1 52.7802 93.07 52.7302C93.03 52.6702 93 52.6002 92.96 52.5402C92.79 52.2002 92.28 52.0702 91.96 52.2802C91.59 52.4802 91.49 52.8902 91.68 53.2602Z" fill="black"/>
<path d="M120.57 138.92C122.73 139.97 124.98 140.93 126.97 142.27C128.9 143.56 130.63 145.29 132.38 146.88C133.21 147.63 134.45 146.4 133.61 145.65C131.78 143.99 129.98 142.22 127.93 140.83C125.91 139.46 123.63 138.48 121.45 137.42C120.44 136.92 119.56 138.43 120.57 138.92Z" fill="black"/>
<path fill-rule="evenodd" clip-rule="evenodd" d="M12.65 119.34C12.65 119.34 8.41001 118.37 6.13001 116.31C1.61001 112.17 0.690008 108.73 0.210008 105.88C-0.669992 100.64 1.39001 97.4701 3.30001 97.0901C3.30001 97.0901 1.91001 92.6201 4.91001 90.7201C5.60001 90.3401 6.37001 90.0901 7.15001 90.0101C7.94001 89.9301 8.74001 90.0101 9.49001 90.2401C9.49001 90.2401 9.80001 86.9401 12.58 86.3501C15.36 85.7601 16.24 87.1401 16.24 87.1401C16.24 87.1401 17.04 82.7801 21.94 83.2401C26.84 83.7001 25.82 90.3301 25.82 90.3301C27.18 90.2301 28.55 90.5301 29.74 91.1901C30.94 91.8501 31.92 92.8401 32.57 94.0401C36.38 100.61 33.03 112.4 29.81 115.8L31.25 120.79L13.33 124.62L12.65 119.34Z" fill="#F6A6AC"/>
<path d="M14.85 118.28C13.54 118.54 12.18 118.47 10.9 118.1C9.62001 117.73 8.44001 117.05 7.47001 116.13C7.32001 115.95 7.10001 115.83 6.86001 115.81C6.62001 115.79 6.38001 115.86 6.20001 116.01C6.11001 116.09 6.03001 116.18 5.98001 116.28C5.92001 116.39 5.89001 116.5 5.88001 116.62C5.87001 116.74 5.88001 116.86 5.92001 116.97C5.96001 117.08 6.01001 117.19 6.09001 117.28C7.27001 118.44 8.71001 119.3 10.29 119.79C11.87 120.28 13.55 120.38 15.17 120.08C15.29 120.06 15.4 120.02 15.5 119.95C15.6 119.89 15.69 119.8 15.76 119.7C15.83 119.6 15.88 119.49 15.9 119.37C15.93 119.25 15.93 119.13 15.91 119.01C15.89 118.89 15.85 118.78 15.78 118.68C15.72 118.58 15.63 118.49 15.53 118.42C15.43 118.35 15.32 118.3 15.2 118.28C15.09 118.26 14.97 118.26 14.85 118.28Z" fill="black"/>
<path d="M26.47 99.0701C24.77 99.8301 22.93 100.21 21.07 100.19C19.57 100.05 17.57 99.5501 16.72 98.1801C16.43 97.7101 16.31 97.1601 16.39 96.6201C16.47 96.0801 16.73 95.5801 17.14 95.2101C17.77 94.7301 18.49 94.3701 19.25 94.1401C21.3 93.4301 23.21 91.6301 25.5 92.0101C26.64 92.2001 26.82 90.3901 25.67 90.2101C23.62 89.8901 21.92 90.9001 20.17 91.7801C20.17 91.7001 20.15 91.6201 20.12 91.5501C19.63 90.5601 19.04 89.6201 18.37 88.7501C17.65 87.7801 16.73 86.9701 15.67 86.3901C15.56 86.3501 15.44 86.3301 15.32 86.3301C15.2 86.3301 15.08 86.3601 14.98 86.4101C14.87 86.4601 14.77 86.5301 14.69 86.6201C14.61 86.7101 14.55 86.8101 14.5 86.9201C14.42 87.1401 14.43 87.3801 14.52 87.5901C14.61 87.8001 14.78 87.9701 14.99 88.0601L15.16 88.1701L15.45 88.3701L15.75 88.6101L15.89 88.7301C16.11 88.9101 16.31 89.1201 16.49 89.3501C16.67 89.5601 16.85 89.7701 17.02 89.9901C17.35 90.4101 17.64 90.8501 17.93 91.2801L17.88 91.2001L17.94 91.2901C17.97 91.3401 18 91.3901 18.03 91.4401L18.2 91.7301C18.31 91.9101 18.41 92.1001 18.51 92.3001C18.55 92.3601 18.59 92.4201 18.64 92.4801C17.64 92.7801 16.71 93.2801 15.9 93.9301C15.82 94.0001 15.76 94.0901 15.68 94.1601C13.56 92.3001 11.14 90.8201 8.51 89.8001C8.29 89.7201 8.04 89.7201 7.82 89.8201C7.6 89.9201 7.43 90.1001 7.35 90.3201C7.26 90.5401 7.27 90.7901 7.37 91.0101C7.47 91.2301 7.65 91.4001 7.87 91.4801C10.41 92.4501 12.74 93.9001 14.73 95.7601C14.47 96.6801 14.51 97.6601 14.85 98.5501C15.19 99.4201 15.81 100.15 16.62 100.62C16.61 100.68 16.55 100.74 16.5 100.79C16.47 100.81 16.44 100.84 16.42 100.86C16.42 100.9 16.27 100.96 16.23 101.01L16.12 101.06L15.96 101.13L15.86 101.17C15.8 101.19 15.74 101.2 15.68 101.21L15.31 101.27L15.2 101.26L15.05 101.25C14.9 101.25 14.75 101.23 14.61 101.21C14.61 101.21 14.38 101.19 14.54 101.2L14.33 101.13L13.91 100.99C13.61 100.87 13.33 100.74 13.04 100.62C12.74 100.49 12.66 100.4 12.47 100.31C11.45 99.7001 10.48 99.0001 9.59 98.2201C7.46 96.5901 4.54 95.4901 1.95 96.7001C1.76 96.8101 1.61 97.0001 1.55 97.2101C1.48 97.4201 1.5 97.6501 1.59 97.8601C1.68 98.0601 1.85 98.2301 2.06 98.3101C2.27 98.4001 2.5 98.4101 2.71 98.3301C4.46 97.5201 6.49 98.2501 7.98 99.2801C8.76 99.8301 9.47 100.48 10.26 101.03C11.04 101.59 11.99 101.93 12.74 102.55C13.17 102.87 13.47 103.34 13.6 103.86C13.69 104.26 13.65 104.69 13.49 105.07C13.35 105.44 13.1 105.77 12.78 106.01C12.1 106.47 11.28 106.68 10.46 106.6C8.38 106.48 6.42 105.57 4.98 104.06C4.15 103.2 2.8 104.35 3.59 105.22C5.19 106.92 7.33 108.02 9.65 108.34C11.55 108.59 13.74 108.16 14.81 106.42C15.13 105.92 15.33 105.36 15.4 104.77C15.47 104.18 15.41 103.59 15.22 103.03C15.69 103.02 16.16 102.94 16.61 102.79C17.31 102.55 17.89 102.06 18.24 101.41C18.7 101.57 19.16 101.71 19.64 101.82C20.04 101.9 20.44 101.95 20.84 101.98C20.11 103.15 19.64 104.47 19.47 105.85C19.3 107.22 19.44 108.62 19.87 109.93C19.92 110.04 19.99 110.13 20.08 110.22C20.17 110.3 20.27 110.36 20.38 110.4C20.49 110.44 20.61 110.46 20.73 110.45C20.85 110.44 20.97 110.42 21.07 110.37C21.29 110.27 21.45 110.09 21.54 109.86C21.62 109.64 21.61 109.39 21.51 109.17C21.13 107.93 21.08 106.62 21.36 105.35C21.64 104.09 22.24 102.91 23.11 101.95C23.12 101.92 23.12 101.9 23.12 101.87C24.53 101.64 25.91 101.25 27.24 100.73C28.3 100.28 27.54 98.6501 26.47 99.0701Z" fill="black"/>
<path d="M9.46001 126.88C18.82 124.84 28.17 122.78 37.55 120.86C38.65 120.64 38.18 118.95 37.09 119.18C27.71 121.1 18.35 123.16 9.00001 125.2C7.90001 125.44 8.36001 127.12 9.46001 126.88Z" fill="black"/>
<path d="M24.22 174.25C29.26 175.52 34.82 175.6 39.15 172.34C41.3 170.72 43.47 168.19 44.31 165.57C45.12 163.02 45.03 160.1 44.94 157.46C44.78 152.73 44.15 148.01 43.38 143.34C42.07 135.4 40.24 127.55 38.17 119.78C37.88 118.7 36.2 119.16 36.49 120.24C39.52 131.62 42.28 143.32 43.08 155.11C43.27 157.98 43.44 160.99 42.93 163.83C42.54 166 41.26 167.89 39.67 169.55C35.7 173.7 29.98 173.89 24.69 172.55C23.6 172.29 23.13 173.98 24.22 174.25Z" fill="black"/>
<path d="M41.44 105.07C41.13 107.08 40.96 109.1 40.93 111.13C40.93 111.23 40.93 111.35 40.99 111.43C41.05 111.52 47.86 110 47.87 109.92C47.87 109.92 43.05 106.35 41.44 105.07Z" fill="white"/>
<path d="M39.87 104.63C39.58 106.56 39.38 108.5 39.31 110.45C39.29 111.06 39.24 111.7 39.57 112.25C39.88 112.76 40.43 113.08 41.03 113.06C41.34 113.05 41.67 112.98 41.98 112.92C43.65 112.61 45.3 112.23 46.95 111.84C47.76 111.65 48.82 111.53 49.27 110.74C49.47 110.39 49.56 109.88 49.43 109.48C49.29 109.05 49.04 108.77 48.68 108.51C47.03 107.29 45.38 106.06 43.75 104.81C43.61 104.7 43.47 104.6 43.34 104.49C43.27 104.44 43.21 104.39 43.14 104.34C43.11 104.32 43.09 104.3 43.06 104.28C42.91 104.17 43.38 104.53 43.23 104.41C43.01 104.24 42.8 104.07 42.58 103.9C42.23 103.62 41.89 103.42 41.43 103.42C41.03 103.42 40.55 103.6 40.28 103.9C39.74 104.49 39.57 105.64 40.28 106.2C42.28 107.8 44.35 109.31 46.41 110.84C46.62 111 46.83 111.15 47.04 111.31C46.85 110.57 46.65 109.82 46.46 109.08C46.56 108.98 46.65 108.89 46.75 108.79C46.91 108.55 47.13 108.41 47.41 108.34C47.4 108.34 47.4 108.34 47.39 108.35C47.37 108.35 47.36 108.36 47.34 108.37C47.29 108.38 47.24 108.4 47.19 108.41C47.02 108.46 46.85 108.5 46.68 108.54C46.15 108.67 45.61 108.79 45.08 108.91C43.89 109.18 42.7 109.44 41.51 109.68C41.3 109.72 41.09 109.76 40.88 109.8C40.78 109.82 40.47 109.86 40.88 109.81C41.26 109.76 41.1 109.79 41.02 109.79C40.69 109.8 41.5 109.79 41.8 110.01C41.99 110.2 42.19 110.4 42.38 110.59C42.66 111.21 42.54 111.23 42.55 110.84C42.55 110.7 42.56 110.57 42.56 110.43C42.57 110.2 42.58 109.98 42.59 109.75C42.61 109.23 42.65 108.71 42.69 108.2C42.73 107.71 42.78 107.21 42.84 106.72C42.87 106.47 42.89 106.23 42.93 105.98C42.87 106.39 42.94 105.93 42.95 105.88C42.97 105.75 42.99 105.61 43.01 105.48C43.08 105.03 43.08 104.63 42.85 104.22C42.65 103.88 42.26 103.56 41.88 103.47C41.1 103.32 40.01 103.73 39.87 104.63Z" fill="white"/>
<path d="M12.63 80.6901C14.21 79.1701 15.72 77.7401 17.85 77.0301C19.55 76.4701 21.34 76.2601 23.12 76.1901C25.5 76.1001 27.98 76.1101 30.31 76.6001C37.26 78.0801 43.39 83.8301 45.8 90.4801C47.72 95.7601 47.88 102.37 43.83 106.72C42.85 107.77 44.43 109.35 45.41 108.3C52.21 100.98 49.36 89.4601 43.58 82.4701C40.81 79.1301 37.2 76.4501 33.08 75.0501C30.62 74.2201 28.07 73.9801 25.49 73.9401C23.21 73.9001 20.9 74.0001 18.67 74.4901C15.52 75.1901 13.32 76.9301 11.05 79.1101C10.01 80.1101 11.59 81.6901 12.63 80.6901Z" fill="white"/>
<path d="M119.84 118.81C119.73 108.34 119.62 97.8602 119.51 87.3902C119.49 85.9602 117.26 85.9502 117.28 87.3902C117.39 97.8602 117.5 108.34 117.61 118.81C117.63 120.25 119.86 120.25 119.84 118.81Z" fill="white"/>
<path d="M122.42 87.52C121.46 85.73 120.38 84.01 119.19 82.36C119.13 82.27 119.06 82.19 118.96 82.15C118.86 82.12 114.32 87.42 114.36 87.49C114.37 87.5 120.37 87.46 122.42 87.52Z" fill="white"/>
<path d="M123.83 86.7002C122.99 85.1302 122.05 83.6103 121.03 82.1503C120.7 81.6703 120.38 81.1103 119.88 80.8003C119.34 80.4603 118.67 80.4303 118.12 80.7603C117.86 80.9103 117.66 81.1403 117.46 81.3503C116.31 82.6003 115.21 83.9103 114.12 85.2103C113.89 85.4803 113.66 85.7603 113.44 86.0403C113.11 86.4603 112.7 86.9003 112.74 87.4903C112.81 88.3603 113.43 89.1303 114.37 89.1203C117.05 89.1003 119.74 89.0603 122.42 89.1503C123.27 89.1803 124.09 88.3802 124.05 87.5202C124.01 86.6102 123.33 85.9203 122.42 85.8903C119.74 85.8103 117.05 85.8503 114.37 85.8603C114.91 86.4003 115.46 86.9503 116 87.4903C116 87.5303 115.62 88.6003 115.84 88.2103C115.96 88.0103 115.54 88.5903 115.67 88.4303C115.7 88.3903 115.73 88.3503 115.76 88.3203C115.92 88.1203 116.09 87.9203 116.25 87.7203C116.75 87.1203 117.25 86.5303 117.76 85.9403C118.26 85.3603 118.76 84.7702 119.27 84.2002C119.45 84.0002 119.63 83.8003 119.81 83.6003C119.87 83.5403 119.93 83.4703 119.99 83.4103C120.01 83.3903 120.03 83.3703 120.05 83.3503C119.86 83.5703 119.32 83.7703 118.95 83.7903C118.68 83.7203 118.4 83.6403 118.13 83.5703C117.78 83.1603 117.67 83.0603 117.82 83.2503C117.86 83.3103 117.91 83.3703 117.95 83.4303C118.01 83.5103 118.06 83.5903 118.12 83.6703C118.28 83.8903 118.43 84.1202 118.58 84.3402C118.87 84.7702 119.16 85.2103 119.43 85.6503C119.98 86.5303 120.5 87.4303 121 88.3503C121.4 89.1003 122.51 89.4003 123.23 88.9303C124.01 88.4403 124.26 87.5002 123.83 86.7002Z" fill="white"/>
<path d="M129.25 140.73C129.25 140.73 131.49 137.52 135.47 134.78C139.17 132.23 136.65 127.71 133.8 128.84C130.94 129.97 130.14 130.97 130.14 130.97L129.25 140.73Z" fill="#B86C51"/>
<path d="M115.42 150.87C115.42 150.87 128.69 142.6 129.98 139.7C131.27 136.8 131.8 133.46 132.18 132C132.56 130.54 133.76 127.33 132.25 125.89C130.74 124.45 125.32 126.16 125.32 126.16C125.32 126.16 123.98 124.67 122.28 125C120.58 125.33 117.82 127.23 117.82 127.23C117.82 127.23 116.78 125.81 115.18 126.22C111.73 127.09 109.8 128.99 109.8 128.99C109.8 128.99 109.35 126.88 107.32 127.3C105.29 127.73 100.12 134.21 99.57 136.89C99.02 139.57 98.28 144.64 98.28 144.64C98.28 144.64 100.15 150.41 105.63 151.18C111.12 151.97 115.42 150.87 115.42 150.87Z" fill="#F6A6AC"/>
<path d="M124.68 127.34C125.52 129.38 124.63 131.44 123.7 133.28C122.69 135.26 121.55 137.17 120.28 139C119.64 139.93 121.15 140.8 121.79 139.88C123.18 137.87 124.44 135.76 125.51 133.55C126.51 131.49 127.29 129.11 126.36 126.87C126.18 126.43 125.78 126.13 125.29 126.26C124.88 126.38 124.5 126.91 124.68 127.34Z" fill="black"/>
<path d="M117.22 127.37C117.57 129.45 116.59 131.45 115.49 133.15C114.27 135.04 112.91 136.85 111.61 138.69C110.96 139.61 112.47 140.48 113.12 139.57C114.54 137.57 116.07 135.6 117.34 133.5C118.55 131.5 119.31 129.27 118.91 126.92C118.72 125.81 117.04 126.27 117.22 127.37Z" fill="black"/>
<path d="M109.26 128.98C109.3 130.58 108.4 131.99 107.62 133.32C106.74 134.81 105.83 136.28 104.88 137.73C104.26 138.67 105.77 139.55 106.39 138.61C107.4 137.06 108.38 135.49 109.31 133.9C110.19 132.39 111.05 130.79 111.01 128.98C110.98 127.86 109.24 127.85 109.26 128.98Z" fill="black"/>
<path fill-rule="evenodd" clip-rule="evenodd" d="M134.78 41.3003C134.78 41.3003 130.52 32.4303 133.76 22.2603C133.96 21.4603 134.18 20.6503 134.45 19.8203C140.81 -0.0697136 173.28 -6.29971 185.7 16.4503C198.12 39.1803 172.48 67.6103 146.08 53.8603C144.75 53.1703 143.09 52.0503 141.38 50.4903C138.83 51.6203 134.64 52.4903 129.96 49.4403C128.97 48.7903 129.04 47.3203 130.09 46.7803C132.66 45.4403 134.78 41.3003 134.78 41.3003Z" fill="#F6F8F9"/>
<path d="M146.14 19.7703C146.82 22.8003 147.5 25.8303 148.18 28.8603C148.43 29.9603 150.11 29.4903 149.86 28.4003C149.18 25.3703 148.5 22.3403 147.82 19.3103C147.58 18.2103 145.9 18.6703 146.14 19.7703Z" fill="black"/>
<path d="M147.185 32.8571C149.337 31.6144 150.558 29.6998 149.912 28.5806C149.266 27.4615 146.997 27.5616 144.845 28.8042C142.693 30.0468 141.472 31.9615 142.118 33.0806C142.764 34.1998 145.033 34.0997 147.185 32.8571Z" fill="black"/>
<path d="M146.25 19.8601C146.57 20.4101 147.08 20.7501 147.66 20.9801C148.16 21.1701 148.69 21.2201 149.2 21.3701C149.26 21.3901 149.32 21.4101 149.39 21.4301C149.57 21.5001 149.39 21.4401 149.4 21.4301C149.4 21.4301 149.67 21.5701 149.68 21.5801C149.74 21.6101 149.79 21.6501 149.84 21.6801C149.98 21.7701 149.76 21.6101 149.84 21.6801C149.92 21.7501 150 21.8201 150.08 21.9001C150.12 21.9401 150.15 21.9801 150.19 22.0201C150.23 22.0601 150.36 22.1701 150.21 22.0401C150.28 22.1001 150.34 22.2301 150.39 22.3101C150.41 22.3401 150.52 22.6001 150.54 22.6001C150.5 22.5001 150.49 22.4801 150.51 22.5401C150.52 22.5701 150.53 22.6001 150.54 22.6301C150.56 22.6901 150.58 22.7501 150.59 22.8201C150.71 23.2601 151.22 23.5701 151.66 23.4301C152.11 23.2801 152.4 22.8301 152.27 22.3601C151.99 21.3201 151.25 20.3901 150.27 19.9301C149.73 19.6801 149.16 19.5901 148.59 19.4501C148.46 19.4201 148.34 19.3801 148.22 19.3401C148.05 19.2801 148.2 19.3601 148.21 19.3401C148.2 19.3501 148.05 19.2601 148.03 19.2501C147.98 19.2201 147.94 19.1901 147.89 19.1601C147.8 19.1101 148 19.2701 147.89 19.1601C147.88 19.1501 147.75 19.0301 147.76 19.0201C147.78 19.0501 147.8 19.0701 147.82 19.1001C147.8 19.0601 147.77 19.0301 147.75 18.9901C147.52 18.6001 146.95 18.4201 146.56 18.6801C146.17 18.9201 146.01 19.4301 146.25 19.8601Z" fill="black"/>
<path d="M156.83 27.9502C157.01 30.9002 157.3 33.8502 157.68 36.7802C157.74 37.2502 158.04 37.6502 158.55 37.6502C158.97 37.6502 159.48 37.2502 159.42 36.7802C159.03 33.8502 158.75 30.9002 158.57 27.9502C158.5 26.8302 156.76 26.8202 156.83 27.9502Z" fill="black"/>
<path d="M157.72 28.6199C160.32 28.3899 162.93 28.1599 165.53 27.9299C166 27.8899 166.4 27.5599 166.4 27.0599C166.4 26.6199 166 26.1499 165.53 26.1899C162.93 26.4199 160.32 26.6499 157.72 26.8799C157.25 26.9199 156.85 27.2499 156.85 27.7499C156.84 28.1899 157.25 28.6599 157.72 28.6199Z" fill="black"/>
<path d="M164.75 27.3202C165.23 30.1802 165.65 33.0502 165.99 35.9302C166.05 36.4002 166.35 36.8002 166.86 36.8002C167.29 36.8002 167.79 36.4002 167.73 35.9302C167.37 32.9002 166.93 29.8702 166.43 26.8602C166.35 26.4002 165.78 26.1402 165.36 26.2502C164.87 26.3802 164.67 26.8502 164.75 27.3202Z" fill="black"/>
<path d="M156.925 39.8618C158.747 38.8097 159.781 37.1891 159.234 36.2421C158.687 35.2951 156.767 35.3803 154.945 36.4324C153.122 37.4845 152.088 39.1051 152.635 40.0521C153.182 40.9991 155.102 40.9139 156.925 39.8618Z" fill="black"/>
<path d="M165.317 39.4033C167.14 38.3512 168.174 36.7306 167.627 35.7836C167.08 34.8366 165.16 34.9218 163.337 35.9739C161.515 37.026 160.481 38.6466 161.028 39.5936C161.575 40.5406 163.495 40.4554 165.317 39.4033Z" fill="black"/>
<path d="M176.29 21.0202C176.47 23.9702 176.76 26.9202 177.14 29.8502C177.2 30.3202 177.5 30.7202 178.01 30.7202C178.43 30.7202 178.94 30.3202 178.88 29.8502C178.49 26.9202 178.21 23.9702 178.03 21.0202C177.97 19.9002 176.22 19.9002 176.29 21.0202Z" fill="black"/>
<path d="M176.383 32.934C178.206 31.8819 179.24 30.2613 178.693 29.3143C178.146 28.3674 176.226 28.4526 174.403 29.5047C172.581 30.5568 171.547 32.1774 172.094 33.1243C172.641 34.0713 174.561 33.9861 176.383 32.934Z" fill="black"/>
</g>
<defs>
<clipPath id="clip0_266_1568">
<rect width="188.91" height="180.28" fill="white"/>
</clipPath>
</defs>
</svg>
