<svg width="189" height="184" viewBox="0 0 189 184" fill="none" xmlns="http://www.w3.org/2000/svg">
<g clip-path="url(#clip0_266_1425)">
<path d="M151.85 127.16C147.76 102.26 137.67 79.5101 102.55 73.3701C83.17 69.9901 57.82 69.3801 28.72 89.2501C9.56 102.34 20.44 125.17 17.13 127.94L9.22 130.17C9.22 130.17 9.68 140.77 10.42 148.17C12.74 171.33 17.12 175.31 24.45 177.54V184.41H144.35L141.16 167.63C153.58 154.61 154.57 143.71 151.85 127.16Z" fill="#EF9AC2"/>
<path d="M81.89 95.7599C82.01 94.9999 82.92 94.6599 83.5 95.1699C86.04 97.3999 91.71 102.94 93.43 109.39C94.91 114.94 94.54 118.58 94.13 120.4C93.97 121.1 93.15 121.41 92.58 120.97C90.38 119.26 85.51 115.07 83.64 110.13C81.16 103.56 81.48 98.2999 81.89 95.7599Z" fill="#901E5E"/>
<path d="M98.44 62.6699C98.44 62.6699 101.32 69.0799 107.78 67.3899C112.81 66.0799 111.72 59.1399 111.72 59.1399C111.72 59.1399 117.74 60.0799 119.76 54.1299C121.21 49.8399 117.62 46.8799 117.62 46.8799C117.62 46.8799 123.27 45.0899 123.81 37.7299C124.38 29.9399 118.45 27.7099 118.45 27.7099C118.45 27.7099 121.63 22.1899 118.22 19.1199C114.08 15.3999 109.2 17.8299 109.2 17.8299C109.2 17.8299 108.55 9.14993 104.14 7.75993C96.21 5.25993 92.55 10.8399 92.55 10.8399C92.55 10.8399 93.71 6.10993 87.88 3.05993C83.03 0.529929 78.68 5.24993 78.68 5.24993C78.68 5.24993 77.06 -0.970071 69.94 0.129929C64.64 0.949929 64.51 7.51993 64.51 7.51993C64.51 7.51993 59.3 5.05993 54.56 8.64993C47.84 13.7399 50.43 22.2699 50.43 22.2699C50.43 22.2699 44.36 21.1999 42.24 26.7799C39.86 33.0599 45.01 35.8099 45.01 35.8099C45.01 35.8099 41.79 41.3999 47.6 43.8499C50.17 44.9399 98.44 62.6699 98.44 62.6699Z" fill="black"/>
<path d="M111.1 45.07C111.1 45.07 112.54 33.95 106.17 24.69C99.39 14.84 88.67 11.28 73.1 13.98C57.52 16.67 51.49 28.23 49.13 38.46L92 44.03L89.78 62.24L101.69 63.92L111.1 45.07Z" fill="black"/>
<path d="M101.59 50.1001C101.59 50.1001 102.91 43.0501 107.19 42.0701C111.48 41.0901 113.15 43.9301 112.74 48.9001C112.33 53.8701 108.86 58.8401 103.73 57.7001C103.73 57.7001 100.56 68.4201 101.17 74.8101C101.17 74.8101 94.92 76.4401 90.41 80.5201C81.66 88.4601 81.32 93.0801 81.32 93.0801C80.55 88.6601 75.81 87.2301 75.81 87.2301C75.81 87.2301 57.22 87.9601 50.48 77.8801C41.17 63.9601 50 38.4901 50 38.4901C50 38.4901 50.73 36.1401 52.31 33.5501C52.31 33.5501 55.29 33.6501 57.73 31.9901C61.05 29.7401 61.12 26.7501 61.12 26.7501C61.12 26.7501 62.51 30.5401 68.82 30.2001C72.3 30.0101 74.68 28.8301 76.99 25.1401C76.99 25.1401 77.24 29.4101 82.14 31.5601C86.31 33.3901 90.33 31.0101 90.33 31.0101C86.6 34.6801 90.59 43.7301 96.12 42.6401C96.12 42.6401 94.32 51.1401 97.34 52.5701C99.05 53.3701 101 52.0801 101.59 50.1001Z" fill="#DC7B6A"/>
<path d="M80.29 84.45C75.51 85.62 70.29 85.56 65.48 84.59C60.45 83.58 56.27 81.11 53 77.13C49.3 72.62 47.48 66.82 47.28 61.05C47.08 55.27 48.33 49.47 49.66 43.87C50.78 39.15 52.15 34.17 54.79 30.05C55.73 28.58 53.39 27.21 52.45 28.68C49.86 32.74 48.43 37.61 47.27 42.25C45.81 48.06 44.5 54.15 44.55 60.16C44.65 71.79 51.22 83.7 63.02 86.81C68.79 88.33 75.21 88.49 81.01 87.07C82.71 86.65 81.99 84.03 80.29 84.45Z" fill="black"/>
<path d="M73.67 80.8201C70.67 81.9701 67.28 81.9401 64.34 80.6201C63.93 80.4401 63.45 80.5001 63.21 80.9201C63 81.2701 63.1 81.8701 63.51 82.0501C66.85 83.5501 70.69 83.7301 74.12 82.4201C74.54 82.2601 74.82 81.8601 74.7 81.4001C74.57 80.9901 74.09 80.6501 73.67 80.8201Z" fill="black"/>
<path d="M108.59 46.0701C107.19 46.2001 106.12 47.1601 105.58 48.4301C104.97 49.8801 105.21 51.4802 105.45 52.9902C105.52 53.4302 106.07 53.6801 106.47 53.5701C106.94 53.4401 107.12 53.0001 107.05 52.5501C106.87 51.4401 106.69 50.2401 107.07 49.1601C107.07 49.1501 107.13 49.0002 107.1 49.0602C107.08 49.1202 107.14 48.9802 107.15 48.9702C107.21 48.8602 107.27 48.7401 107.34 48.6401C107.37 48.5901 107.4 48.5501 107.43 48.5001C107.45 48.4701 107.51 48.4002 107.45 48.4702C107.53 48.3702 107.61 48.2801 107.7 48.1901C107.74 48.1501 107.78 48.1202 107.82 48.0802C107.92 47.9902 107.74 48.1402 107.85 48.0602C107.95 47.9902 108.06 47.9301 108.16 47.8701C108.2 47.8501 108.27 47.8201 108.18 47.8501C108.23 47.8301 108.28 47.8101 108.33 47.8001C108.39 47.7801 108.46 47.7601 108.53 47.7501C108.56 47.7401 108.73 47.7202 108.59 47.7402C109.03 47.7002 109.42 47.3901 109.42 46.9101C109.42 46.4801 109.04 46.0201 108.59 46.0701Z" fill="black"/>
<path d="M64.84 56.9001C64.9 55.4101 65.13 53.9101 65.37 52.4401C65.62 50.9701 65.89 49.4801 66.32 48.0501C66.63 47.0101 68.28 47.4001 67.97 48.4501C67.29 50.7201 66.91 53.1201 66.65 55.4701C66.53 56.5001 66.26 57.9801 66.86 58.9001C67.52 59.9001 69.13 59.5001 69.21 58.2901C69.28 57.2201 70.91 57.1301 70.91 58.2401C70.91 58.7501 71.29 59.2901 71.85 59.2701C72.41 59.2601 72.76 58.7001 72.73 58.1901C72.67 57.1001 74.37 57.0501 74.43 58.1401C74.51 59.5701 73.36 60.9201 71.9 60.9701C71.19 61.0001 70.54 60.7001 70.06 60.2201C69.42 60.9201 68.48 61.3101 67.43 61.1301C65.35 60.7601 64.77 58.7301 64.84 56.9001Z" fill="black"/>
<path d="M107.02 59.6199C107.31 59.5999 107.61 59.5099 107.93 59.3599C108.44 59.1199 108.8 58.6599 108.96 58.0699C109.14 57.3699 108.99 56.5799 108.56 56.0099C107.8 54.9899 106.34 55.1699 106.28 55.1799C106.28 55.1799 105.7 55.2199 105.77 55.7899C105.83 56.2499 106.41 56.1599 106.41 56.1599C106.42 56.1599 107.36 56.0499 107.77 56.5999C108.02 56.9399 108.11 57.41 108 57.83C107.96 58.01 107.83 58.3199 107.52 58.4699C107.13 58.6499 106.77 58.6199 106.52 58.4999C106.16 58.3299 106.03 57.9899 105.99 57.8199C105.99 57.8199 105.77 57.8499 105.46 57.8699C105.14 57.8899 104.93 57.8699 104.93 57.8699C104.95 57.9799 105.27 59.0599 106.11 59.4699C106.38 59.5899 106.69 59.6399 107.02 59.6199Z" fill="#FBE574"/>
<path d="M74 38.8201C74.27 38.6401 74.54 38.4801 74.83 38.3401C74.9 38.3001 74.97 38.2701 75.05 38.2401C74.9 38.3001 74.9 38.3001 75.05 38.2401C75.2 38.1901 75.35 38.1301 75.51 38.0901C75.66 38.0501 75.82 38.0101 75.97 37.9701C76.05 37.9501 76.13 37.9401 76.21 37.9301C76.03 37.9501 76.03 37.9501 76.19 37.9301C76.51 37.9101 76.82 37.9101 77.13 37.9301C77.29 37.9501 77.27 37.9401 77.08 37.9201C77.15 37.9301 77.22 37.9401 77.29 37.9601C77.43 37.9901 77.57 38.0201 77.71 38.0701C77.78 38.0901 78.23 38.2401 77.88 38.1101C78.01 38.1601 78.14 38.2301 78.26 38.3001C78.39 38.3701 78.5 38.4501 78.62 38.5301C78.75 38.6201 78.74 38.6101 78.59 38.5001C78.65 38.5401 78.7 38.5901 78.75 38.6401C78.86 38.7301 78.96 38.8401 79.05 38.9401C79.1 38.9901 79.14 39.0501 79.19 39.1001C79.08 38.9601 79.07 38.9501 79.16 39.0701C79.58 39.6801 80.41 40.0101 81.08 39.5701C81.68 39.1801 82.03 38.2901 81.58 37.6501C80.59 36.2001 79.07 35.3501 77.34 35.1401C75.68 34.9401 73.96 35.4801 72.58 36.3901C71.97 36.8001 71.65 37.6501 72.08 38.3101C72.47 38.9301 73.34 39.2601 74 38.8201Z" fill="black"/>
<path d="M55.07 41.1498C55.11 41.1098 55.5 40.7998 55.25 40.9898C55.38 40.8898 55.51 40.7998 55.64 40.7098C55.91 40.5398 56.19 40.3898 56.48 40.2498C56.18 40.3898 56.64 40.1898 56.7 40.1698C56.85 40.1198 57 40.0698 57.16 40.0298C57.31 39.9898 57.47 39.9598 57.63 39.9298C57.28 39.9898 57.77 39.9198 57.84 39.9198C57.99 39.9098 58.14 39.9098 58.29 39.9198C58.38 39.9198 58.84 39.8998 58.48 39.9298C58.75 39.9098 59.1 40.0798 59.36 40.1598C59.51 40.2198 59.5 40.2098 59.34 40.1498C59.41 40.1798 59.48 40.2098 59.54 40.2498C59.67 40.3198 59.8 40.3898 59.93 40.4798C59.99 40.5198 60.05 40.5598 60.11 40.6098C59.97 40.4998 59.97 40.4998 60.09 40.5998C60.2 40.7098 60.31 40.8098 60.41 40.9198C60.91 41.4598 61.9 41.4698 62.4 40.9198C62.93 40.3398 62.94 39.4998 62.4 38.9298C61.25 37.6998 59.51 37.0398 57.83 37.1198C56.03 37.1998 54.4 37.9898 53.06 39.1598C52.5 39.6498 52.53 40.6598 53.06 41.1498C53.67 41.6998 54.48 41.6698 55.07 41.1498Z" fill="black"/>
<path d="M77.06 87.7601C78.52 88.5101 80.8 90.1301 81.32 93.0801C81.32 93.0801 81.66 88.4601 90.41 80.5201C94.92 76.4301 101.17 74.8101 101.17 74.8101C101.06 73.6101 101.08 72.2701 101.18 70.8701C102.85 71.0201 104.43 71.7001 105.39 73.3801C108.85 77.8701 97.68 101.45 81.16 102.44C76.11 102.74 71.58 97.8901 68.43 87.8101L77.06 87.7601Z" fill="#901E5E"/>
<path d="M100.65 77.6901C97.55 83.0701 93.7 87.9601 89.21 92.2501C88.25 93.1701 89.71 94.6201 90.67 93.7101C95.28 89.3101 99.24 84.2501 102.43 78.7301C103.09 77.5801 101.31 76.5401 100.65 77.6901Z" fill="#78111B"/>
<path d="M82.24 96.6697C82.91 96.2797 83.74 96.7698 83.72 97.5398C83.61 100.92 82.92 108.82 79.02 114.23C75.66 118.89 72.62 120.91 70.95 121.75C70.31 122.07 69.55 121.63 69.53 120.91C69.46 118.12 69.61 111.7 72.25 107.13C75.75 101.04 80.03 97.9597 82.24 96.6697Z" fill="#901E5E"/>
<path d="M85.3 93.5098C84.06 92.1898 82.28 91.6098 80.51 92.0198C78.9 92.3798 77.77 93.5498 76.95 94.9298C76.01 96.5198 75.37 98.4798 75.54 100.34C75.71 102.19 76.78 104.06 78.46 104.93C80.43 105.95 82.63 105.56 84.3 104.18C84.73 103.83 84.67 103.09 84.3 102.72C83.87 102.29 83.27 102.37 82.84 102.72C80.83 104.37 77.99 103.01 77.61 100.48C77.4 99.0898 77.83 97.6098 78.48 96.3898C78.76 95.8598 79.07 95.3598 79.45 94.9398C79.78 94.5698 80.17 94.2898 80.55 94.1498C81.1 93.9398 81.65 93.8798 82.15 93.9798C82.83 94.1198 83.35 94.4498 83.83 94.9698C84.75 95.9398 86.21 94.4798 85.3 93.5098Z" fill="#78111B"/>
<path d="M78.25 104.17C77.5 105.37 76.78 106.6 76.1 107.85C75.84 108.32 75.97 108.99 76.47 109.26C76.95 109.51 77.6 109.4 77.88 108.89C78.56 107.64 79.28 106.42 80.03 105.21C80.32 104.75 80.14 104.06 79.66 103.8C79.16 103.54 78.56 103.69 78.25 104.17Z" fill="#78111B"/>
<path d="M73.78 93.0402C74.45 94.3502 75.34 95.5502 76.38 96.5802C76.76 96.9602 77.46 96.9902 77.84 96.5802C78.21 96.1702 78.25 95.5302 77.84 95.1202C77.42 94.7002 77.02 94.2602 76.66 93.7902C76.71 93.8602 76.77 93.9302 76.82 94.0002C76.34 93.3702 75.92 92.7102 75.56 92.0102C75.31 91.5302 74.6 91.3502 74.15 91.6402C73.66 91.9502 73.51 92.5302 73.78 93.0402Z" fill="#78111B"/>
<path d="M81.97 46.6898C82.36 46.0798 82.77 45.4798 83.21 44.9098C83.3 44.7898 83.31 44.5698 83.27 44.4298C83.23 44.2798 83.12 44.1298 82.98 44.0498C82.83 43.9698 82.66 43.9298 82.5 43.9898C82.45 44.0098 82.4 44.0298 82.35 44.0498C82.26 44.1098 82.18 44.1798 82.12 44.2798C81.68 44.8598 81.27 45.4498 80.88 46.0598C80.7 46.3398 80.81 46.7598 81.11 46.9198C81.42 47.0798 81.78 46.9898 81.97 46.6898Z" fill="black"/>
<path d="M83.38 47.9298C83.84 47.5998 84.31 47.2998 84.8 47.0298C84.94 46.9498 85.05 46.7998 85.09 46.6498C85.13 46.4998 85.11 46.2998 85.03 46.1698C84.84 45.8798 84.48 45.7698 84.17 45.9398C83.68 46.2098 83.2 46.5198 82.75 46.8398C82.61 46.9398 82.51 47.0498 82.46 47.2198C82.42 47.3698 82.44 47.5698 82.52 47.6998C82.61 47.8298 82.74 47.9498 82.9 47.9898C83.06 48.0298 83.25 48.0298 83.38 47.9298Z" fill="black"/>
<path d="M83.74 48.4101C83.84 46.9701 82.06 45.9801 81.54 45.7601C80.41 45.2701 78.73 44.7701 76.55 44.9201C72.96 45.1601 72.08 46.7401 71.91 47.6001C71.76 48.3201 71.95 49.6501 73.1 50.0101C73.72 50.2001 75.03 50.0501 77.38 50.1201C79.61 50.1801 81.08 50.3801 81.77 50.2101C82.46 50.0301 83.63 49.9601 83.74 48.4101Z" fill="white"/>
<path d="M79.05 49.74C81.48 49.74 81.49 45.96 79.05 45.96C76.62 45.96 76.61 49.74 79.05 49.74Z" fill="black"/>
<path d="M54.67 45.48C54.41 44.75 54.12 44.02 53.8 43.31C53.74 43.18 53.56 43.06 53.42 43.02C53.27 42.98 53.07 43 52.94 43.08C52.81 43.17 52.69 43.3 52.65 43.46C52.61 43.63 52.64 43.78 52.71 43.94C52.78 44.11 52.86 44.27 52.93 44.44C52.91 44.39 52.89 44.34 52.87 44.29C53.08 44.79 53.28 45.3 53.46 45.81C53.51 45.97 53.6 46.1 53.75 46.19C53.88 46.27 54.08 46.3 54.23 46.25C54.54 46.16 54.79 45.81 54.67 45.48Z" fill="black"/>
<path d="M52.68 45.8199C52.31 45.3999 51.92 44.9899 51.5 44.6199C51.38 44.5099 51.23 44.4399 51.06 44.4399C50.91 44.4399 50.72 44.5099 50.62 44.6199C50.51 44.7399 50.43 44.8999 50.44 45.0599C50.45 45.2199 50.5 45.3899 50.62 45.4999C51.04 45.8799 51.43 46.2799 51.8 46.6999C51.9 46.8199 52.09 46.8799 52.24 46.8799C52.39 46.8799 52.58 46.8099 52.68 46.6999C52.79 46.5799 52.87 46.4199 52.86 46.2599C52.86 46.0999 52.8 45.9599 52.68 45.8199Z" fill="black"/>
<path d="M51.32 47.5698C51.67 46.1698 53.16 45.2598 53.69 45.0698C54.85 44.6598 56.12 44.4998 58.29 44.7898C61.85 45.2698 62.47 46.4198 62.73 47.3598C62.92 48.0598 62.63 49.1398 61.46 49.4198C60.83 49.5698 59.44 49.5298 57.24 49.5598C55.01 49.5898 53.16 49.7098 52.48 49.4998C51.8 49.2798 50.99 48.8598 51.32 47.5698Z" fill="white"/>
<path d="M58.33 49.28C60.76 49.28 60.77 45.5 58.33 45.5C55.89 45.5 55.89 49.28 58.33 49.28Z" fill="black"/>
<path d="M71.13 65.38C70.27 65.93 69.53 66.71 69.23 67.71C68.92 68.73 69.13 69.96 69.92 70.71C70.69 71.45 71.96 71.72 72.9 71.12C73.44 70.77 73.79 70.17 73.75 69.52C73.71 68.88 73.35 68.29 72.78 67.97C72.06 67.57 71.26 67.72 70.75 68.36C70.44 68.74 70.25 69.18 70.46 69.67C70.56 69.9 70.72 70.07 70.94 70.2C71.27 70.38 71.6 70.33 71.93 70.18C72.36 69.99 72.49 69.34 72.25 68.96C71.97 68.52 71.48 68.43 71.03 68.64C71.02 68.65 71 68.65 70.99 68.66C71.14 68.62 71.29 68.58 71.44 68.54C71.42 68.54 71.41 68.54 71.39 68.54C71.54 68.58 71.69 68.62 71.84 68.66C71.88 68.81 71.92 68.96 71.96 69.11C71.96 69.55 72 69.69 72.1 69.53C72.14 69.44 72.08 69.59 72.06 69.58L72.19 69.44C72.19 69.45 72.05 69.53 72.14 69.48C72.23 69.43 72.07 69.51 72.07 69.51C72.02 69.53 71.96 69.51 71.91 69.52C71.77 69.53 72.01 69.55 71.88 69.51C71.77 69.48 71.94 69.55 71.97 69.57C72.06 69.62 71.91 69.54 71.91 69.53C71.91 69.53 71.97 69.59 71.98 69.6C72.06 69.67 71.93 69.54 71.94 69.54C71.97 69.54 71.98 69.65 72 69.65C71.98 69.65 71.95 69.49 71.97 69.58C71.97 69.61 72.01 69.75 71.99 69.62C71.96 69.45 71.97 69.81 71.99 69.63C72 69.5 72 69.61 71.98 69.63C71.98 69.64 71.97 69.65 71.97 69.66C71.95 69.71 71.96 69.7 71.98 69.64C72.04 69.58 71.99 69.6 71.97 69.64C71.98 69.63 72.08 69.53 72.01 69.58C72 69.58 71.94 69.64 71.94 69.64C71.94 69.61 72.09 69.55 71.96 69.61C71.81 69.69 72.1 69.57 71.95 69.62C71.91 69.63 71.8 69.64 71.78 69.67C71.78 69.67 71.97 69.66 71.87 69.66C71.84 69.66 71.81 69.66 71.78 69.67C71.74 69.67 71.52 69.65 71.66 69.67C71.8 69.69 71.61 69.66 71.57 69.65C71.51 69.63 71.45 69.61 71.4 69.59C71.31 69.56 71.47 69.62 71.47 69.62C71.46 69.61 71.4 69.59 71.39 69.58C71.35 69.56 71.25 69.47 71.21 69.47C71.23 69.47 71.36 69.61 71.25 69.5C71.23 69.48 71.21 69.46 71.18 69.44C71.16 69.42 71.03 69.27 71.11 69.37C71.19 69.47 71.07 69.3 71.05 69.27C71.03 69.24 71.02 69.21 71 69.18C70.93 69.05 71.02 69.2 71.01 69.21C71.01 69.21 70.91 68.86 70.9 68.83C70.86 68.66 70.9 68.98 70.9 68.8C70.9 68.72 70.89 68.65 70.9 68.57C70.9 68.54 70.92 68.33 70.9 68.46C70.88 68.59 70.92 68.38 70.93 68.35C70.94 68.29 70.96 68.22 70.98 68.16C70.99 68.13 71 68.1 71.01 68.07C71.06 67.93 71 68.1 71 68.1C70.99 68.09 71.22 67.7 71.24 67.67C71.24 67.66 71.29 67.59 71.3 67.59C71.29 67.59 71.19 67.73 71.28 67.61C71.33 67.55 71.38 67.49 71.43 67.44C71.54 67.33 71.65 67.22 71.77 67.12C71.79 67.11 71.83 67.06 71.85 67.06C71.81 67.07 71.73 67.15 71.83 67.08C71.9 67.03 71.98 66.98 72.05 66.93C72.44 66.68 72.64 66.13 72.37 65.71C72.1 65.31 71.55 65.11 71.13 65.38Z" fill="black"/>
<path d="M68.73 74.7199C70.32 75.5099 72.23 75.6598 73.9 74.9998C74.33 74.8298 74.68 74.3999 74.52 73.8999C74.38 73.4799 73.89 73.0898 73.42 73.2798C73.07 73.4198 72.7 73.5298 72.33 73.5898C72.3 73.5998 72.05 73.6198 72.27 73.5998C72.17 73.6098 72.07 73.6198 71.97 73.6298C71.79 73.6398 71.62 73.6398 71.44 73.6398C71.35 73.6398 71.26 73.6299 71.18 73.6199C71.14 73.6199 70.86 73.5798 71.08 73.6098C70.91 73.5798 70.73 73.5499 70.56 73.5099C70.39 73.4699 70.22 73.4198 70.05 73.3598C70.01 73.3498 69.72 73.2298 69.91 73.3098C69.82 73.2698 69.73 73.2298 69.64 73.1798C69.22 72.9698 68.65 73.0498 68.42 73.4998C68.2 73.8998 68.29 74.4899 68.73 74.7199Z" fill="black"/>
<path fill-rule="evenodd" clip-rule="evenodd" d="M12.65 123.47C12.65 123.47 8.41 122.5 6.13 120.44C1.61 116.3 0.690001 112.86 0.210001 110.01C-0.669999 104.77 1.39 101.6 3.3 101.22C3.3 101.22 1.91 96.7499 4.91 94.8499C5.6 94.4699 6.37 94.2199 7.15 94.1399C7.94 94.0599 8.74 94.1399 9.49 94.3699C9.49 94.3699 9.8 91.0699 12.58 90.4799C15.36 89.8899 16.24 91.2699 16.24 91.2699C16.24 91.2699 17.04 86.9099 21.94 87.3699C26.84 87.8299 25.82 94.4599 25.82 94.4599C27.18 94.3599 28.55 94.6599 29.74 95.3199C30.94 95.9799 31.92 96.9699 32.57 98.1699C36.38 104.74 33.03 116.53 29.81 119.93L31.25 124.92L13.33 128.75L12.65 123.47Z" fill="#DC7B6A"/>
<path d="M14.85 122.41C13.54 122.67 12.18 122.6 10.9 122.23C9.62 121.86 8.44 121.18 7.47 120.26C7.32 120.08 7.1 119.96 6.86 119.94C6.62 119.92 6.38 119.99 6.2 120.14C6.11 120.22 6.03 120.31 5.98 120.41C5.92 120.52 5.89 120.63 5.88 120.75C5.87 120.87 5.88 120.99 5.92 121.1C5.96 121.21 6.01 121.32 6.09 121.41C7.27 122.57 8.71 123.43 10.29 123.92C11.87 124.41 13.55 124.51 15.17 124.21C15.29 124.19 15.4 124.15 15.5 124.08C15.6 124.02 15.69 123.93 15.76 123.83C15.83 123.73 15.88 123.62 15.9 123.5C15.93 123.38 15.93 123.26 15.91 123.14C15.89 123.02 15.85 122.91 15.78 122.81C15.72 122.71 15.63 122.62 15.53 122.55C15.43 122.48 15.32 122.43 15.2 122.41C15.09 122.39 14.97 122.39 14.85 122.41Z" fill="black"/>
<path d="M26.47 103.2C24.77 103.96 22.93 104.34 21.07 104.32C19.57 104.18 17.57 103.68 16.72 102.31C16.43 101.84 16.31 101.29 16.39 100.75C16.47 100.21 16.73 99.71 17.14 99.34C17.77 98.86 18.49 98.5 19.25 98.27C21.3 97.56 23.21 95.76 25.5 96.14C26.64 96.33 26.82 94.52 25.67 94.34C23.62 94.02 21.92 95.03 20.17 95.91C20.17 95.83 20.15 95.75 20.12 95.68C19.63 94.69 19.04 93.75 18.37 92.88C17.65 91.91 16.73 91.1 15.67 90.52C15.56 90.48 15.44 90.46 15.32 90.46C15.2 90.46 15.08 90.49 14.98 90.54C14.87 90.59 14.77 90.66 14.69 90.75C14.61 90.84 14.55 90.94 14.5 91.05C14.42 91.27 14.43 91.51 14.52 91.72C14.61 91.93 14.78 92.1 14.99 92.19L15.16 92.3L15.45 92.5L15.75 92.74L15.89 92.86C16.11 93.04 16.31 93.25 16.49 93.48C16.67 93.69 16.85 93.9 17.02 94.12C17.35 94.54 17.64 94.98 17.93 95.41L17.88 95.33L17.94 95.42C17.97 95.47 18 95.52 18.03 95.57L18.2 95.86C18.31 96.04 18.41 96.23 18.51 96.43C18.55 96.49 18.59 96.55 18.64 96.61C17.64 96.91 16.71 97.41 15.9 98.06C15.82 98.13 15.76 98.22 15.68 98.29C13.56 96.43 11.14 94.95 8.51 93.93C8.29 93.85 8.04 93.85 7.82 93.95C7.6 94.05 7.43 94.23 7.35 94.45C7.26 94.67 7.27 94.92 7.37 95.14C7.47 95.36 7.65 95.53 7.87 95.61C10.41 96.58 12.74 98.03 14.73 99.89C14.47 100.81 14.51 101.79 14.85 102.68C15.19 103.55 15.81 104.28 16.62 104.75C16.61 104.81 16.55 104.87 16.5 104.92C16.47 104.94 16.44 104.97 16.42 104.99C16.42 105.03 16.27 105.09 16.23 105.14L16.12 105.19L15.96 105.26L15.86 105.3C15.8 105.32 15.74 105.33 15.68 105.34L15.31 105.4L15.2 105.39L15.05 105.38C14.9 105.38 14.75 105.36 14.61 105.34C14.61 105.34 14.38 105.32 14.54 105.33L14.33 105.26L13.91 105.12C13.61 105 13.33 104.87 13.04 104.75C12.74 104.62 12.66 104.53 12.47 104.44C11.45 103.83 10.48 103.13 9.59 102.35C7.46 100.72 4.54 99.62 1.95 100.83C1.76 100.94 1.61 101.13 1.55 101.34C1.48 101.55 1.5 101.78 1.59 101.99C1.68 102.19 1.85 102.36 2.06 102.44C2.27 102.53 2.5 102.54 2.71 102.46C4.46 101.65 6.49 102.38 7.98 103.41C8.76 103.96 9.47 104.61 10.26 105.16C11.04 105.72 11.99 106.06 12.74 106.68C13.17 107 13.47 107.47 13.6 107.99C13.69 108.39 13.65 108.82 13.49 109.2C13.35 109.57 13.1 109.9 12.78 110.14C12.1 110.6 11.28 110.81 10.46 110.73C8.38 110.61 6.42 109.7 4.98 108.19C4.15 107.33 2.8 108.48 3.59 109.35C5.19 111.05 7.33 112.15 9.65 112.47C11.55 112.72 13.74 112.29 14.81 110.55C15.13 110.05 15.33 109.49 15.4 108.9C15.47 108.31 15.41 107.72 15.22 107.16C15.69 107.15 16.16 107.07 16.61 106.92C17.31 106.68 17.89 106.19 18.24 105.54C18.7 105.7 19.16 105.84 19.64 105.95C20.04 106.03 20.44 106.08 20.84 106.11C20.11 107.28 19.64 108.6 19.47 109.98C19.3 111.35 19.44 112.75 19.87 114.06C19.92 114.17 19.99 114.26 20.08 114.35C20.17 114.43 20.27 114.49 20.38 114.53C20.49 114.57 20.61 114.59 20.73 114.58C20.85 114.57 20.97 114.55 21.07 114.5C21.29 114.4 21.45 114.22 21.54 113.99C21.62 113.77 21.61 113.52 21.51 113.3C21.13 112.06 21.08 110.75 21.36 109.48C21.64 108.22 22.24 107.04 23.11 106.08C23.12 106.05 23.12 106.03 23.12 106C24.53 105.77 25.91 105.38 27.24 104.86C28.3 104.41 27.54 102.78 26.47 103.2Z" fill="black"/>
<path d="M9.54 131.31C18.9 129.27 28.25 127.21 37.63 125.29C39.12 124.99 38.49 122.7 37 123.01C27.62 124.93 18.26 126.99 8.91 129.03C7.42 129.35 8.05 131.64 9.54 131.31Z" fill="#E66FA9"/>
<path d="M24.14 178.68C29.25 179.97 34.92 180.05 39.31 176.74C41.53 175.07 43.75 172.49 44.61 169.79C45.43 167.21 45.34 164.27 45.25 161.6C45.09 156.84 44.45 152.09 43.68 147.39C42.37 139.45 40.54 131.6 38.47 123.83C38.08 122.36 35.79 122.98 36.19 124.46C39.22 135.82 41.97 147.48 42.77 159.25C42.96 162.07 43.12 165.22 42.64 167.89C42.57 168.3 42.48 168.71 42.35 169.11C42.17 169.68 42.28 169.44 41.99 169.93C41.26 171.2 40.46 172.41 39.45 173.47C35.56 177.54 29.95 177.7 24.78 176.39C23.29 176.03 22.66 178.31 24.14 178.68Z" fill="#E66FA9"/>
<path d="M41.63 107.67C41.32 109.68 41.15 111.7 41.12 113.73C41.12 113.83 41.12 113.95 41.18 114.03C41.24 114.12 48.05 112.6 48.06 112.52C48.06 112.52 43.23 108.95 41.63 107.67Z" fill="white"/>
<path d="M40.06 107.24C39.77 109.17 39.57 111.11 39.5 113.06C39.48 113.67 39.43 114.31 39.76 114.86C40.07 115.37 40.62 115.69 41.22 115.67C41.53 115.66 41.86 115.59 42.17 115.53C43.84 115.22 45.49 114.84 47.14 114.45C47.95 114.26 49.01 114.14 49.46 113.35C49.66 113 49.75 112.49 49.62 112.09C49.48 111.66 49.23 111.38 48.87 111.12C47.22 109.9 45.57 108.67 43.94 107.42C43.8 107.31 43.66 107.21 43.53 107.1C43.46 107.05 43.4 107 43.33 106.95C43.3 106.93 43.28 106.91 43.25 106.89C43.1 106.78 43.57 107.14 43.42 107.02C43.2 106.85 42.99 106.68 42.77 106.51C42.42 106.23 42.08 106.03 41.62 106.03C41.22 106.03 40.74 106.21 40.47 106.51C39.93 107.1 39.76 108.25 40.47 108.81C42.47 110.41 44.54 111.92 46.6 113.45C46.81 113.61 47.02 113.76 47.23 113.92C47.04 113.18 46.84 112.43 46.65 111.69C46.75 111.59 46.84 111.5 46.94 111.4C47.1 111.16 47.32 111.02 47.6 110.95C47.59 110.95 47.59 110.95 47.58 110.96C47.56 110.96 47.55 110.97 47.53 110.98C47.48 110.99 47.43 111.01 47.38 111.02C47.21 111.07 47.04 111.11 46.87 111.15C46.34 111.28 45.8 111.4 45.27 111.52C44.08 111.79 42.89 112.05 41.7 112.29C41.49 112.33 41.28 112.37 41.07 112.41C40.97 112.43 40.66 112.47 41.07 112.42C41.45 112.37 41.29 112.4 41.21 112.4C40.88 112.41 41.69 112.4 41.99 112.62C42.18 112.81 42.38 113.01 42.57 113.2C42.85 113.82 42.73 113.84 42.74 113.45C42.74 113.31 42.75 113.18 42.75 113.04C42.76 112.81 42.77 112.59 42.78 112.36C42.8 111.84 42.84 111.32 42.88 110.81C42.92 110.32 42.97 109.82 43.03 109.33C43.06 109.08 43.08 108.84 43.12 108.59C43.06 109 43.13 108.54 43.14 108.49C43.16 108.36 43.18 108.22 43.2 108.09C43.27 107.64 43.27 107.24 43.04 106.83C42.84 106.49 42.45 106.17 42.07 106.08C41.29 105.92 40.2 106.33 40.06 107.24Z" fill="white"/>
<path d="M12.82 83.2897C14.4 81.7697 15.91 80.3397 18.04 79.6297C19.74 79.0697 21.53 78.8597 23.31 78.7897C25.69 78.6997 28.17 78.7097 30.5 79.1997C37.45 80.6797 43.58 86.4297 45.99 93.0797C47.91 98.3597 48.07 104.97 44.02 109.32C43.04 110.37 44.62 111.95 45.6 110.9C52.4 103.58 49.55 92.0597 43.77 85.0697C41 81.7297 37.39 79.0497 33.27 77.6497C30.81 76.8197 28.26 76.5797 25.68 76.5397C23.4 76.4997 21.09 76.5997 18.86 77.0897C15.71 77.7897 13.51 79.5297 11.24 81.7097C10.2 82.7097 11.78 84.2897 12.82 83.2897Z" fill="white"/>
<path d="M98.63 134.879C98.74 145.349 98.85 155.829 98.96 166.299C98.98 167.729 101.21 167.739 101.19 166.299C101.08 155.829 100.97 145.349 100.86 134.879C100.84 133.449 98.61 133.439 98.63 134.879Z" fill="white"/>
<path d="M96.05 166.169C97.01 167.959 98.09 169.679 99.28 171.329C99.34 171.419 99.41 171.499 99.51 171.539C99.61 171.569 104.15 166.269 104.11 166.199C104.1 166.199 98.1 166.229 96.05 166.169Z" fill="white"/>
<path d="M94.64 166.989C95.48 168.559 96.42 170.079 97.44 171.539C97.77 172.019 98.09 172.579 98.59 172.889C99.13 173.229 99.8 173.259 100.35 172.929C100.61 172.779 100.81 172.549 101.01 172.339C102.16 171.089 103.26 169.779 104.35 168.479C104.58 168.209 104.81 167.929 105.03 167.649C105.36 167.229 105.77 166.789 105.73 166.199C105.66 165.329 105.04 164.559 104.1 164.569C101.42 164.589 98.73 164.629 96.05 164.539C95.2 164.509 94.38 165.309 94.42 166.169C94.46 167.079 95.14 167.769 96.05 167.799C98.73 167.879 101.42 167.839 104.1 167.829C103.56 167.289 103.01 166.739 102.47 166.199C102.47 166.159 102.85 165.089 102.63 165.479C102.51 165.679 102.93 165.099 102.8 165.259C102.77 165.299 102.74 165.339 102.71 165.369C102.55 165.569 102.38 165.769 102.22 165.969C101.72 166.569 101.22 167.159 100.71 167.749C100.21 168.329 99.71 168.919 99.2 169.489C99.02 169.689 98.84 169.889 98.66 170.089C98.6 170.149 98.54 170.219 98.48 170.279C98.46 170.299 98.44 170.319 98.42 170.339C98.61 170.119 99.15 169.919 99.52 169.899C99.79 169.969 100.07 170.049 100.34 170.119C100.69 170.529 100.8 170.629 100.65 170.439C100.61 170.379 100.56 170.319 100.52 170.259C100.46 170.179 100.41 170.099 100.35 170.019C100.19 169.799 100.04 169.569 99.89 169.349C99.6 168.919 99.31 168.479 99.04 168.039C98.49 167.159 97.97 166.259 97.47 165.339C97.07 164.589 95.96 164.289 95.24 164.759C94.46 165.259 94.21 166.189 94.64 166.989Z" fill="white"/>
<path fill-rule="evenodd" clip-rule="evenodd" d="M134.78 45.4302C134.78 45.4302 130.52 36.5602 133.76 26.3902C133.96 25.5902 134.18 24.7802 134.45 23.9502C140.81 4.06017 173.28 -2.16983 185.7 20.5802C198.12 43.3102 172.48 71.7402 146.08 57.9902C144.75 57.3002 143.09 56.1802 141.38 54.6202C138.83 55.7502 134.64 56.6202 129.96 53.5702C128.97 52.9202 129.04 51.4502 130.09 50.9102C132.66 49.5702 134.78 45.4302 134.78 45.4302Z" fill="#F6F8F9"/>
<path d="M103.97 124.83C104.22 135.74 106.52 146.54 110.77 156.59C112.59 160.9 114.76 165.39 118.83 168C123.09 170.72 128.96 171.4 133.89 170.75C139.17 170.05 144.13 167.34 146.91 162.69C147.69 161.38 145.65 160.19 144.87 161.5C142.6 165.3 138.6 167.57 134.31 168.31C129.76 169.09 124.2 168.52 120.21 166.07C116.38 163.72 114.42 159.24 112.75 155.26C110.87 150.75 109.39 146.07 108.32 141.31C107.1 135.89 106.45 130.38 106.32 124.83C106.3 123.31 103.93 123.31 103.97 124.83Z" fill="#E66FA9"/>
<path d="M119.35 115.25C123.33 120.58 126.83 126.25 129.82 132.2C130.5 133.56 132.55 132.36 131.86 131.01C128.88 125.06 125.37 119.39 121.39 114.06C121 113.54 120.37 113.29 119.77 113.64C119.27 113.92 118.97 114.74 119.35 115.25Z" fill="#E66FA9"/>
<path d="M92.53 109.72C92.53 109.72 89.69 112.41 85.24 114.29C81.1 116.04 82.65 120.97 85.68 120.45C88.71 119.92 89.69 119.1 89.69 119.1L92.53 109.72Z" fill="#B86C51"/>
<path d="M108.13 102.58C108.13 102.58 93.46 107.99 91.61 110.58C89.76 113.16 88.56 116.32 87.9 117.67C87.24 119.02 85.41 121.92 86.59 123.64C87.77 125.36 93.43 124.78 93.43 124.78C93.43 124.78 94.44 126.51 96.18 126.53C97.91 126.55 101 125.25 101 125.25C101 125.25 101.74 126.85 103.38 126.77C106.94 126.61 109.21 125.14 109.21 125.14C109.21 125.14 109.22 127.3 111.3 127.29C113.37 127.28 119.75 121.98 120.83 119.46C121.91 116.95 123.66 112.13 123.66 112.13C123.66 112.13 123 106.1 117.78 104.23C112.56 102.36 108.13 102.58 108.13 102.58Z" fill="#DC7B6A"/>
<path d="M94.27 123.58C93.87 121.51 95.26 119.62 96.48 118.1C97.85 116.39 99.34 114.77 100.93 113.25C101.74 112.47 100.51 111.24 99.7 112.02C97.91 113.72 96.25 115.56 94.75 117.51C93.29 119.41 92.12 121.57 92.6 124.04C92.8 125.15 94.48 124.68 94.27 123.58Z" fill="black"/>
<path d="M101.61 125.29C101.68 123.21 102.96 121.47 104.35 120.04C105.95 118.4 107.68 116.88 109.36 115.32C110.18 114.55 108.95 113.32 108.13 114.09C106.33 115.78 104.42 117.4 102.74 119.21C101.18 120.9 99.94 122.93 99.87 125.29C99.83 126.41 101.57 126.41 101.61 125.29Z" fill="black"/>
<path d="M109.72 125.32C109.99 123.8 111.04 122.65 112.03 121.55C113.24 120.21 114.48 118.9 115.76 117.62C116.55 116.82 115.32 115.59 114.53 116.39C113.18 117.74 111.87 119.13 110.59 120.55C109.47 121.8 108.34 123.16 108.04 124.86C107.96 125.32 108.17 125.8 108.65 125.93C109.07 126.05 109.63 125.79 109.72 125.32Z" fill="black"/>
<path d="M146.38 24.2102C147.06 27.2402 147.74 30.2702 148.42 33.3002C148.67 34.4002 150.35 33.9302 150.1 32.8402C149.42 29.8102 148.74 26.7802 148.06 23.7502C147.82 22.6502 146.14 23.1102 146.38 24.2102Z" fill="black"/>
<path d="M147.425 37.2965C149.577 36.0539 150.798 34.1393 150.152 33.0201C149.506 31.9009 147.237 32.001 145.085 33.2437C142.933 34.4863 141.712 36.4009 142.358 37.5201C143.004 38.6393 145.273 38.5392 147.425 37.2965Z" fill="black"/>
<path d="M146.49 24.3C146.81 24.85 147.32 25.19 147.9 25.42C148.4 25.61 148.93 25.66 149.44 25.81C149.5 25.83 149.56 25.85 149.63 25.87C149.81 25.94 149.63 25.88 149.64 25.87C149.64 25.87 149.91 26.01 149.92 26.02C149.98 26.05 150.03 26.09 150.08 26.12C150.22 26.21 150 26.05 150.08 26.12C150.16 26.19 150.24 26.26 150.32 26.34C150.36 26.38 150.39 26.42 150.43 26.46C150.47 26.5 150.6 26.61 150.45 26.48C150.52 26.54 150.58 26.67 150.63 26.75C150.65 26.78 150.76 27.04 150.78 27.04C150.74 26.94 150.73 26.92 150.75 26.98C150.76 27.01 150.77 27.04 150.78 27.07C150.8 27.13 150.82 27.19 150.83 27.26C150.95 27.7 151.46 28.01 151.9 27.87C152.35 27.72 152.64 27.27 152.51 26.8C152.23 25.76 151.49 24.83 150.51 24.37C149.97 24.12 149.4 24.03 148.83 23.89C148.7 23.86 148.58 23.82 148.46 23.78C148.29 23.72 148.44 23.8 148.45 23.78C148.44 23.79 148.29 23.7 148.27 23.69C148.22 23.66 148.18 23.63 148.13 23.6C148.04 23.55 148.24 23.71 148.13 23.6C148.12 23.59 147.99 23.47 148 23.46C148.02 23.49 148.04 23.51 148.06 23.54C148.04 23.5 148.01 23.47 147.99 23.43C147.76 23.04 147.19 22.86 146.8 23.12C146.4 23.36 146.24 23.87 146.49 24.3Z" fill="black"/>
<path d="M157.07 32.3901C157.25 35.3401 157.54 38.2901 157.92 41.2201C157.98 41.6901 158.28 42.0901 158.79 42.0901C159.21 42.0901 159.72 41.6901 159.66 41.2201C159.27 38.2901 158.99 35.3401 158.81 32.3901C158.74 31.2701 157 31.2601 157.07 32.3901Z" fill="black"/>
<path d="M157.96 33.0598C160.56 32.8298 163.17 32.5998 165.77 32.3698C166.24 32.3298 166.64 31.9998 166.64 31.4998C166.64 31.0598 166.24 30.5898 165.77 30.6298C163.17 30.8598 160.56 31.0898 157.96 31.3198C157.49 31.3598 157.09 31.6898 157.09 32.1898C157.08 32.6298 157.48 33.0998 157.96 33.0598Z" fill="black"/>
<path d="M164.99 31.7602C165.47 34.6202 165.89 37.4902 166.23 40.3702C166.29 40.8402 166.59 41.2402 167.1 41.2402C167.53 41.2402 168.03 40.8402 167.97 40.3702C167.61 37.3402 167.17 34.3102 166.67 31.3002C166.59 30.8402 166.02 30.5802 165.6 30.6902C165.11 30.8202 164.91 31.2902 164.99 31.7602Z" fill="black"/>
<path d="M157.156 44.3061C158.978 43.254 160.012 41.6334 159.465 40.6864C158.919 39.7394 156.998 39.8246 155.176 40.8767C153.354 41.9288 152.32 43.5494 152.866 44.4964C153.413 45.4434 155.334 45.3582 157.156 44.3061Z" fill="black"/>
<path d="M165.557 43.8422C167.38 42.7901 168.414 41.1695 167.867 40.2225C167.32 39.2756 165.4 39.3608 163.577 40.4129C161.755 41.465 160.721 43.0856 161.268 44.0326C161.815 44.9795 163.735 44.8943 165.557 43.8422Z" fill="black"/>
<path d="M176.53 25.4601C176.71 28.4101 177 31.3601 177.38 34.2901C177.44 34.7601 177.74 35.1601 178.25 35.1601C178.67 35.1601 179.18 34.7601 179.12 34.2901C178.73 31.3601 178.45 28.4101 178.27 25.4601C178.21 24.3401 176.46 24.3401 176.53 25.4601Z" fill="black"/>
<path d="M176.623 37.373C178.446 36.3209 179.48 34.7003 178.933 33.7533C178.386 32.8063 176.466 32.8915 174.643 33.9436C172.821 34.9957 171.787 36.6163 172.334 37.5633C172.881 38.5103 174.801 38.4251 176.623 37.373Z" fill="black"/>
</g>
<defs>
<clipPath id="clip0_266_1425">
<rect width="188.91" height="184.41" fill="white"/>
</clipPath>
</defs>
</svg>
