<svg width="194" height="178" viewBox="0 0 194 178" fill="none" xmlns="http://www.w3.org/2000/svg">
<g clip-path="url(#clip0_266_1700)">
<path d="M17.19 172C9.70002 164.21 11.26 153.78 13.89 136.94C17.94 110.96 34.86 79.39 58.57 71.91C83.95 63.91 103.14 62.64 120.39 68.14C150.32 77.69 178.59 90.35 188.12 123.33C194.47 145.32 194.77 151.14 190.56 163.97C186.35 176.8 155.28 178.23 155.28 178.23H25.66C25.66 178.24 20.92 175.88 17.19 172Z" fill="#E7E6E6"/>
<path d="M124.92 68.4199L117.42 69.0099L101.41 105.28C101.41 105.28 106.2 113.53 116.51 112.01C126.82 110.49 126.58 96.2999 126.91 89.8699C127.38 80.5999 124.92 68.4199 124.92 68.4199Z" fill="#A1A2A2"/>
<path d="M71.9701 93.6098C71.8501 99.8198 73.1401 109.66 81.2201 111.65C89.3001 113.64 94.6901 108.25 94.6901 108.25L89.4201 91.2598L71.9701 93.6098Z" fill="#A1A2A2"/>
<path d="M128.92 59.2302C128.92 59.2302 130.77 47.8502 124.54 38.1302C117.91 27.7802 107.02 23.7602 90.92 26.0002C74.82 28.2402 68.23 39.9002 65.46 50.3402L109.32 57.5102L106.42 76.1402L116.79 76.0202L128.92 59.2302Z" fill="black"/>
<path d="M118.97 64.0701C118.97 64.0701 120.56 56.8701 125 56.0101C129.44 55.1501 131.06 58.1201 130.47 63.2201C129.88 68.3201 126.15 73.3101 120.92 71.9501C120.92 71.9501 118.8 79.6601 116.16 85.7201C112.7 93.6301 107.33 102.88 97.13 112.45L88.27 105.7C88.27 105.7 72.02 105.66 64.22 90.3101C56.42 74.9601 66.37 50.3901 66.37 50.3901C66.37 50.3901 69.23 42.1101 75.34 39.5701C81.45 37.0201 80.46 41.1301 84.45 42.8201C88.43 44.5101 97.42 41.0701 100.63 38.4901C103.84 35.9101 108.89 36.7601 110.94 39.4701C112.99 42.1801 112.49 46.0201 111.05 48.9101C109.61 51.8001 113.48 54.4801 113.62 56.2201C113.76 57.9601 112.27 64.5201 110.64 70.4601C109.01 76.4001 110.59 76.3501 113.73 75.7001C116.86 75.0501 116.78 71.3101 118.97 64.0701Z" fill="#F4A5AB"/>
<path d="M87.0201 67.9602C87.0001 68.0702 86.9701 68.1802 86.9301 68.2802C86.8701 68.4402 86.9001 68.2902 86.9401 68.2702C86.9301 68.2702 86.8701 68.4202 86.8601 68.4302C86.8301 68.4802 86.8001 68.5402 86.7701 68.5902C86.7601 68.6102 86.6601 68.7602 86.7301 68.6502C86.8001 68.5502 86.7001 68.6802 86.6801 68.7102C86.6401 68.7602 86.6001 68.8002 86.5501 68.8402C86.5101 68.8802 86.4801 68.9102 86.4401 68.9402C86.3101 69.0602 86.4201 68.9302 86.4501 68.9402C86.4301 68.9302 86.2001 69.1002 86.1701 69.1202C86.1301 69.1402 86.0801 69.1902 86.0301 69.1902C86.1301 69.1502 86.1501 69.1402 86.0901 69.1602C86.0601 69.1702 86.0301 69.1802 86.0001 69.1902C85.9501 69.2102 85.9001 69.2202 85.8501 69.2302C85.8301 69.2402 85.6001 69.2802 85.7101 69.2602C85.8201 69.2402 85.6101 69.2602 85.5901 69.2602C85.5701 69.2602 85.4101 69.2402 85.3901 69.2502C85.4301 69.2202 85.5701 69.2802 85.4101 69.2502C85.3601 69.2402 85.3101 69.2302 85.2601 69.2102C85.2201 69.2002 85.1301 69.1502 85.0901 69.1502C85.1701 69.1502 85.2201 69.2102 85.1001 69.1502C85.0601 69.1302 85.0101 69.1002 84.9701 69.0702C84.9301 69.0502 84.7601 68.9602 84.9501 69.0602C84.8701 69.0202 84.7901 68.9202 84.7301 68.8602C84.6901 68.8202 84.6301 68.7702 84.6101 68.7202C84.7001 68.9002 84.6301 68.7402 84.6001 68.6902C84.5601 68.6302 84.4601 68.5002 84.4601 68.4202C84.5001 68.5202 84.5101 68.5402 84.4901 68.4802C84.4801 68.4502 84.4701 68.4202 84.4601 68.3902C84.4401 68.3302 84.4301 68.2702 84.4101 68.2102C84.3101 67.7802 83.7901 67.4802 83.3601 67.6202C82.9101 67.7702 82.6601 68.2002 82.7701 68.6702C83.0801 70.0002 84.3901 71.0702 85.7801 70.9202C87.1601 70.7802 88.3701 69.7502 88.6601 68.3702C88.7501 67.9402 88.5301 67.4302 88.0701 67.3202C87.6401 67.2702 87.1201 67.5002 87.0201 67.9602Z" fill="black"/>
<path d="M82.86 68.0201C82.72 68.2501 82.57 68.4701 82.43 68.6901C82.38 68.7701 82.52 68.5901 82.42 68.7101C82.38 68.7601 82.33 68.8101 82.29 68.8601C82.24 68.9101 82.2 68.9601 82.15 69.0001C82.13 69.0201 81.99 69.1401 82.08 69.0601C82.17 68.9901 82.02 69.1001 82 69.1101C81.94 69.1501 81.87 69.1801 81.8 69.2201C81.94 69.1401 81.73 69.2401 81.71 69.2501C81.63 69.2801 81.56 69.3001 81.48 69.3201C81.35 69.3501 81.22 69.3801 81.09 69.4101C80.89 69.4501 81.18 69.4101 81 69.4201C80.92 69.4201 80.84 69.4201 80.76 69.4201C80.6 69.4201 80.8 69.4401 80.73 69.4201C80.67 69.4001 80.61 69.3801 80.55 69.3701C80.45 69.3501 80.69 69.4501 80.55 69.3701C80.49 69.3401 80.44 69.3101 80.38 69.2801C80.21 69.1801 80.49 69.4001 80.35 69.2601C80.31 69.2201 80.27 69.1901 80.23 69.1501C80.21 69.1301 80.08 68.9701 80.15 69.0701C80.22 69.1701 80.12 69.0201 80.11 69.0001C80.08 68.9401 80.05 68.8901 80.02 68.8301C80.1 68.9801 80.01 68.7901 80 68.7501C79.98 68.6901 79.97 68.6301 79.95 68.5701C79.93 68.4901 79.93 68.4101 79.94 68.5401C79.93 68.3901 79.93 68.2401 79.94 68.0901C79.95 67.9101 79.9 68.2101 79.95 68.0201C79.97 67.9501 79.98 67.8701 80 67.8001C80.12 67.3701 79.85 66.8601 79.41 66.7501C78.96 66.6501 78.49 66.8801 78.36 67.3401C78.14 68.1501 78.18 69.0501 78.6 69.7901C78.96 70.4301 79.63 70.9501 80.36 71.0801C81.17 71.2201 82.21 71.0101 82.9 70.5501C83.53 70.1301 83.94 69.5101 84.33 68.8701C84.56 68.4901 84.43 67.9201 84.03 67.7101C83.61 67.5001 83.1 67.6201 82.86 68.0201Z" fill="black"/>
<path d="M80 67.6004C80.21 64.7104 81.04 61.9104 81.86 59.1404C82.17 58.0904 80.53 57.6404 80.22 58.6904C79.35 61.6104 78.51 64.5504 78.3 67.6004C78.27 68.0604 78.71 68.4504 79.15 68.4504C79.64 68.4504 79.97 68.0604 80 67.6004Z" fill="black"/>
<path d="M101.75 49.9303C100.46 48.2603 98.6901 47.2203 96.5701 47.0403C94.5701 46.8703 92.5201 47.7103 91.1201 49.1203C90.5901 49.6603 90.5401 50.6403 91.1201 51.1703C91.7001 51.7003 92.6001 51.7403 93.1701 51.1703C93.2901 51.0403 93.4201 50.9303 93.5601 50.8103C93.6401 50.7403 93.7001 50.7103 93.5801 50.7903C93.6501 50.7403 93.7201 50.6903 93.8001 50.6403C93.9701 50.5303 94.1401 50.4303 94.3101 50.3403C94.3901 50.3003 94.4701 50.2603 94.5501 50.2203C94.7401 50.1203 94.3601 50.2703 94.5701 50.2103C94.9101 50.1103 95.2401 50.0203 95.5901 49.9303C95.8001 49.8803 95.3801 49.9403 95.6001 49.9303C95.6901 49.9303 95.7801 49.9103 95.8601 49.9103C96.0601 49.9003 96.2601 49.9003 96.4501 49.9103C96.5401 49.9203 96.6201 49.9203 96.7101 49.9303C96.5701 49.9203 96.5601 49.9103 96.7101 49.9303C96.8801 49.9703 97.0401 50.0003 97.2101 50.0503C97.3801 50.1003 97.5301 50.1603 97.7001 50.2103C97.5701 50.1603 97.5901 50.1603 97.7101 50.2203C97.7901 50.2603 97.8601 50.2903 97.9401 50.3303C98.0901 50.4103 98.2401 50.5003 98.3801 50.5903C98.4701 50.6503 98.5601 50.7103 98.6401 50.7703C98.8201 50.8903 98.5001 50.6303 98.6501 50.7803C98.7701 50.9003 98.9101 51.0103 99.0301 51.1303C99.0901 51.1903 99.1501 51.2503 99.2101 51.3203C99.2501 51.3603 99.4301 51.5903 99.2701 51.3703C99.7301 51.9703 100.53 52.3503 101.25 51.8903C101.82 51.5303 102.24 50.5703 101.75 49.9303Z" fill="black"/>
<path d="M79.7001 49.6303C78.2901 48.4403 76.5501 47.7303 74.6901 47.7403C72.8301 47.7503 71.0901 48.4703 69.6901 49.6803C69.1101 50.1803 69.1401 51.2203 69.6901 51.7303C70.3001 52.2903 71.1201 52.2603 71.7401 51.7303C71.8101 51.6703 71.8701 51.6203 71.9401 51.5603C71.8201 51.6503 71.8301 51.6503 71.9601 51.5503C72.1101 51.4503 72.2501 51.3603 72.4001 51.2703C72.5301 51.1903 72.6701 51.1203 72.8101 51.0603C72.8701 51.0303 72.9301 51.0003 72.9901 50.9803C72.8501 51.0403 72.8501 51.0403 73.0101 50.9803C73.3501 50.8703 73.6801 50.7803 74.0201 50.7003C74.3301 50.6303 73.8101 50.7003 74.1601 50.6803C74.3401 50.6703 74.5101 50.6503 74.6901 50.6503C74.8701 50.6503 75.0401 50.6603 75.2201 50.6703C75.6401 50.6903 74.9501 50.6103 75.3601 50.6903C75.7101 50.7603 76.0401 50.8403 76.3801 50.9603C76.4501 50.9903 76.7501 51.1203 76.5201 51.0103C76.6801 51.0803 76.8401 51.1603 76.9901 51.2503C77.1401 51.3403 77.2901 51.4303 77.4401 51.5303C77.5101 51.5803 77.5801 51.6303 77.6501 51.6803C77.5301 51.5903 77.5401 51.6003 77.6601 51.7003C78.2401 52.1903 79.1501 52.3103 79.7101 51.7003C80.1901 51.1403 80.3201 50.1603 79.7001 49.6303Z" fill="black"/>
<path d="M96.9001 103.35C91.6501 104.45 85.8901 103.97 80.7801 102.44C75.7301 100.93 71.0401 97.5102 67.5501 93.6002C63.3001 88.8402 62.0101 81.7502 62.0301 75.5602C62.0401 71.9502 62.5401 68.3802 63.2201 64.8502C63.7101 62.3102 64.1701 59.7202 64.9301 57.2402C66.4801 52.1502 68.5001 46.9302 71.3701 42.4302C72.3701 40.8602 69.8701 39.4002 68.8701 40.9702C66.0401 45.4102 64.0501 50.5502 62.4301 55.5502C61.6201 58.0302 61.1301 60.5902 60.6201 63.1402C59.8801 66.8402 59.2801 70.6002 59.1601 74.3802C58.9601 81.0402 60.1601 88.7302 64.2901 94.1602C66.2001 96.6802 68.6101 98.7202 71.1401 100.59C73.4101 102.27 75.6801 103.7 78.3401 104.68C84.3601 106.89 91.3901 107.46 97.6701 106.14C99.4901 105.76 98.7101 102.97 96.9001 103.35Z" fill="black"/>
<path d="M94.9 95.1102C91.93 96.5802 88.45 96.7602 85.32 95.6902C84.28 95.3402 83.84 96.9802 84.87 97.3302C88.44 98.5502 92.39 98.2502 95.76 96.5802C96.74 96.1002 95.88 94.6302 94.9 95.1102Z" fill="black"/>
<path d="M126.33 60.7902C124.74 60.8902 123.19 61.8102 122.47 63.2702C121.74 64.7702 121.86 66.6502 122.88 68.0002C123.16 68.3702 123.61 68.5602 124.04 68.3002C124.4 68.0902 124.62 67.5002 124.34 67.1402C124.25 67.0202 124.16 66.8902 124.08 66.7602C124.03 66.6802 123.99 66.6002 123.95 66.5202C123.94 66.5002 123.89 66.3902 123.93 66.4702C123.87 66.3202 123.82 66.1502 123.78 65.9902C123.76 65.9202 123.75 65.8402 123.73 65.7702C123.7 65.6302 123.72 65.7602 123.71 65.6802C123.65 65.1102 123.71 64.5402 123.93 64.1202C124.07 63.8602 124.2 63.6502 124.33 63.5002C124.43 63.3902 124.53 63.2902 124.64 63.1902C124.64 63.1902 124.8 63.0502 124.75 63.0902C124.69 63.1302 124.86 63.0102 124.87 63.0002C124.99 62.9202 125.12 62.8402 125.24 62.7802C125.32 62.7402 125.4 62.7002 125.48 62.6702C125.38 62.7102 125.52 62.6602 125.56 62.6402C125.7 62.5902 125.84 62.5502 125.98 62.5202C126.05 62.5002 126.12 62.4902 126.19 62.4802C126.04 62.5002 126.29 62.4802 126.31 62.4802C126.77 62.4502 127.16 62.1102 127.16 61.6302C127.18 61.2102 126.79 60.7702 126.33 60.7902Z" fill="black"/>
<path d="M92.28 73.7602C91.32 75.8502 91.98 78.3602 93.85 79.7102C94.21 79.9702 94.81 79.7802 95.01 79.4102C95.24 78.9702 95.09 78.5202 94.71 78.2502C94.58 78.1602 94.78 78.3102 94.7 78.2402C94.66 78.2002 94.62 78.1702 94.58 78.1302C94.51 78.0702 94.44 78.0002 94.37 77.9302C94.3 77.8602 94.24 77.7802 94.18 77.7102C94.3 77.8502 94.2 77.7402 94.17 77.7002C94.14 77.6602 94.11 77.6102 94.08 77.5702C93.97 77.4002 93.88 77.2102 93.78 77.0302C93.73 76.9202 93.85 77.2202 93.78 77.0202C93.76 76.9802 93.75 76.9402 93.73 76.9002C93.69 76.8002 93.66 76.6902 93.63 76.5902C93.6 76.5002 93.58 76.4002 93.57 76.3002C93.57 76.2802 93.54 76.1402 93.54 76.1402C93.54 76.1402 93.56 76.3202 93.55 76.1702C93.53 75.9602 93.52 75.7602 93.54 75.5502C93.54 75.5002 93.55 75.4402 93.55 75.3902C93.56 75.2202 93.53 75.5002 93.55 75.3902C93.57 75.2902 93.58 75.2002 93.61 75.1002C93.64 74.9902 93.67 74.8902 93.7 74.7902C93.71 74.7502 93.73 74.7102 93.74 74.6702C93.81 74.4602 93.66 74.8302 93.76 74.6302C93.95 74.2302 93.89 73.7002 93.46 73.4702C93.07 73.2602 92.48 73.3302 92.28 73.7602Z" fill="black"/>
<path d="M89.8801 80.5304C89.5801 80.6404 89.2801 80.7304 88.9701 80.8004C88.8401 80.8304 88.7101 80.8604 88.5701 80.8804C88.5301 80.8904 88.4801 80.8904 88.4401 80.9004C88.5501 80.8804 88.5601 80.8804 88.4601 80.9004C88.3901 80.9104 88.3301 80.9104 88.2601 80.9204C87.9701 80.9404 87.6701 80.9504 87.3801 80.9404C87.2201 80.9304 87.0701 80.9204 86.9101 80.9004C86.6801 80.8804 87.0901 80.9304 86.8701 80.8904C86.7801 80.8804 86.6901 80.8604 86.6001 80.8404C86.1601 80.7604 85.6601 80.9604 85.5501 81.4304C85.4501 81.8504 85.6801 82.3904 86.1401 82.4804C87.5301 82.7404 88.9801 82.6604 90.3201 82.1704C90.7401 82.0204 91.0601 81.5904 90.9101 81.1204C90.7901 80.7204 90.3301 80.3704 89.8801 80.5304Z" fill="black"/>
<path d="M95.64 112.27C92.78 128.53 90.6 144.78 90.76 161.32C90.81 166.48 91.02 171.65 91.31 176.8C91.4 178.42 93.93 178.43 93.84 176.8C93.36 168.28 93.1 159.74 93.42 151.21C93.71 143.45 94.5 135.72 95.61 128.04C96.34 122.99 97.19 117.96 98.07 112.94C98.36 111.35 95.92 110.67 95.64 112.27Z" fill="#A1A2A2"/>
<path d="M86.36 133.24C90.3201 133.24 90.33 127.09 86.36 127.09C82.41 127.08 82.4 133.24 86.36 133.24Z" fill="black"/>
<path d="M85.16 170.41C89.12 170.41 89.13 164.26 85.16 164.26C81.2 164.26 81.19 170.41 85.16 170.41Z" fill="black"/>
<path d="M150.79 126.05C154.28 140.44 158.01 155.15 158.05 170.05C158.05 171.18 159.81 171.18 159.81 170.05C159.77 155 156.02 140.12 152.49 125.58C152.22 124.49 150.53 124.95 150.79 126.05Z" fill="black"/>
<path d="M148.64 139.33C150.1 141.05 152.14 142.29 154.34 142.79C154.79 142.89 155.31 142.65 155.42 142.18C155.52 141.73 155.29 141.21 154.81 141.1C154.31 140.99 153.82 140.83 153.34 140.64C153.29 140.62 153.23 140.59 153.31 140.63C153.24 140.6 153.18 140.57 153.11 140.54C152.99 140.49 152.88 140.43 152.76 140.37C152.53 140.25 152.31 140.13 152.09 140C151.88 139.87 151.68 139.74 151.48 139.6C151.42 139.56 151.36 139.52 151.31 139.47C151.27 139.44 151.21 139.39 151.28 139.45C151.18 139.37 151.08 139.29 150.98 139.21C150.58 138.87 150.21 138.49 149.87 138.09C149.57 137.74 148.93 137.76 148.63 138.09C148.29 138.46 148.32 138.95 148.64 139.33Z" fill="black"/>
<path d="M81.09 78.1204C82.78 79.2304 85.1701 79.4604 87.1501 79.3904C89.1501 79.3204 91.0801 78.7504 92.6101 77.4404C93.4401 76.7304 92.2401 75.5304 91.4101 76.2404C90.1901 77.2904 88.5601 77.6704 86.9801 77.7004C85.3301 77.7404 83.3501 77.5804 81.9401 76.6604C81.0301 76.0604 80.18 77.5304 81.09 78.1204Z" fill="black"/>
<path d="M100.43 58.2001C100.51 56.8701 98.9901 55.9601 98.5401 55.7501C97.5701 55.3001 96.1301 54.8401 94.2501 54.9701C91.1701 55.1901 90.4201 56.6501 90.2701 57.4401C90.1401 58.1001 90.3101 59.3301 91.2901 59.6601C91.8201 59.8401 92.9501 59.7001 94.9601 59.7601C96.8701 59.8201 98.1301 60.0001 98.7301 59.8401C99.3301 59.6901 100.34 59.6301 100.43 58.2001Z" fill="white"/>
<path d="M95.3301 59.36C97.4901 59.36 97.5001 56 95.3301 56C93.1701 56 93.1601 59.36 95.3301 59.36Z" fill="black"/>
<path d="M68.5 57.6003C68.8 56.3103 70.08 55.4703 70.54 55.2903C71.54 54.9103 72.62 54.7703 74.49 55.0303C77.55 55.4703 78.08 56.5403 78.3 57.4003C78.47 58.0503 78.21 59.0403 77.21 59.3003C76.67 59.4403 75.48 59.4003 73.59 59.4303C71.67 59.4603 70.09 59.5703 69.51 59.3703C68.92 59.1703 68.22 58.7903 68.5 57.6003Z" fill="white"/>
<path d="M74.0201 59.11C76.1801 59.11 76.1901 55.75 74.0201 55.75C71.8501 55.75 71.8501 59.11 74.0201 59.11Z" fill="black"/>
<path d="M19.1101 133.22C9.81005 135.97 0.360051 144.95 1.67005 156.86C2.98005 168.77 14.3201 182.26 32.8201 177.13C51.3301 172 52.82 155.4 47.87 146.05C42.93 136.7 28.4201 130.47 19.1101 133.22Z" fill="#A1A2A2"/>
<path d="M28.57 169.54C-1.02 175.28 4.36 118.27 3.85 114.86C2.94 108.83 1.63 99.6603 1.4 95.0803C1.04 87.9103 -0.739998 71.0103 0.360002 68.2603C1.37 65.7203 2.37 65.3803 2.37 65.3803C2.37 65.3803 2.07 62.6003 2.64 61.2203C3.54 59.0503 5.19 59.0403 5.19 59.0403C5.19 59.0403 4.72 56.8003 6.74 55.5303C8.76 54.2503 10.22 55.4503 11 56.0203C12.18 56.8803 13.07 59.3503 13.07 59.3503C13.07 59.3503 14.35 57.4803 16.66 58.5403C22.99 61.4403 25.8 85.0503 25.8 85.0503C25.8 85.0503 33.37 88.1903 33.76 95.4703C34.29 105.5 25.86 111.19 25.86 111.19C25.86 111.19 36.99 133.87 39.37 141.1C41.75 148.33 47.64 165.84 28.57 169.54Z" fill="#F6A6AC"/>
<path d="M22.0299 93.8903C18.2099 96.8503 16.3899 101.91 17.2599 106.63C17.4499 107.7 19.0799 107.24 18.8899 106.18C18.1299 102.02 19.9099 97.6603 23.2299 95.0803C23.5899 94.8003 23.5199 94.1803 23.2299 93.8903C22.8699 93.5303 22.3899 93.6103 22.0299 93.8903Z" fill="black"/>
<path d="M9.04 82.9902C11.07 83.8202 11.72 86.6602 11.8 88.6002C11.9 90.9402 11.25 93.2202 9.93 95.1502C9.32 96.0502 10.78 96.9002 11.39 96.0002C12.97 93.6702 13.73 90.7702 13.44 87.9602C13.17 85.3202 12.12 82.4402 9.48 81.3602C8.48 80.9502 8.05 82.5902 9.04 82.9902Z" fill="black"/>
<path d="M26.51 84.8102C25.29 83.9602 23.8 83.2202 22.3 83.1502C21.08 83.0902 19.85 83.5102 18.91 84.2802C16.66 86.1302 17.37 89.7602 19.17 91.6302C20.36 92.8702 21.91 93.8602 23.39 94.7302C24.33 95.2802 25.18 93.8302 24.24 93.2702C22.88 92.4702 21.46 91.5702 20.36 90.4302C19.44 89.4702 18.88 87.9202 19.33 86.6202C19.52 86.0602 19.71 85.7602 20.09 85.4802C20.52 85.1602 21.04 84.9402 21.57 84.8602C23.02 84.6302 24.51 85.4702 25.66 86.2702C26.56 86.8802 27.4 85.4202 26.51 84.8102Z" fill="black"/>
<path d="M2.72996 66.9903C3.96996 66.6303 5.00996 67.6203 5.48996 68.6703C6.10996 70.0203 6.22996 71.6403 6.47996 73.0903C7.02996 76.2403 7.56996 79.3903 8.11996 82.5403C8.30996 83.6103 9.92996 83.1603 9.74996 82.0903C9.09996 78.3303 8.45996 74.5603 7.78996 70.8003C7.51996 69.2703 7.15996 67.6603 6.04996 66.5003C5.07996 65.4903 3.64996 64.9703 2.27996 65.3603C1.24996 65.6603 1.68996 67.2903 2.72996 66.9903Z" fill="black"/>
<path d="M5.80006 60.6203C8.94006 61.2403 9.88005 65.6503 10.4801 68.2503C11.2801 71.7503 11.7801 75.3303 12.4001 78.8603C12.5801 79.9303 14.2101 79.4803 14.0301 78.4103C13.3401 74.4303 12.8401 70.3503 11.7801 66.4503C10.9901 63.5403 9.64006 59.6503 6.25006 58.9903C5.19006 58.7803 4.73006 60.4103 5.80006 60.6203Z" fill="black"/>
<path d="M13.23 59.3102C15.52 65.5002 16.86 72.0002 17.2 78.6002C17.25 79.6802 18.94 79.6902 18.89 78.6002C18.55 71.8502 17.2 65.2002 14.86 58.8602C14.49 57.8502 12.86 58.2802 13.23 59.3102Z" fill="black"/>
<path d="M10.37 82.2305C13.36 80.4305 16.85 79.7205 20.31 80.1505C20.76 80.2105 21.15 79.7205 21.15 79.3105C21.15 78.8105 20.76 78.5205 20.31 78.4705C16.58 78.0005 12.74 78.8405 9.51999 80.7805C8.58999 81.3305 9.43999 82.7905 10.37 82.2305Z" fill="black"/>
<path d="M22.24 113.47C23.63 113.37 24.98 112.97 26.18 112.26C26.56 112.04 26.73 111.49 26.48 111.11C26.23 110.73 25.73 110.57 25.33 110.81C25.06 110.97 24.79 111.11 24.5 111.24C24.46 111.26 24.29 111.36 24.47 111.25C24.4 111.29 24.31 111.31 24.24 111.34C24.1 111.39 23.97 111.44 23.83 111.48C23.55 111.57 23.27 111.64 22.99 111.69C22.85 111.72 22.7 111.75 22.56 111.76C22.81 111.75 22.53 111.76 22.48 111.77C22.4 111.78 22.32 111.78 22.23 111.79C21.79 111.82 21.36 112.16 21.39 112.63C21.42 113.05 21.77 113.5 22.24 113.47Z" fill="black"/>
<path fill-rule="evenodd" clip-rule="evenodd" d="M88.81 149.16C88.81 149.16 82.28 149.21 77.71 148.49C73.14 147.77 71.75 154.23 78.52 155.81C82.31 156.7 83.79 156.7 83.79 156.7C79.59 158.84 84.28 162.03 89.93 160.94C88.96 163.5 95.45 165.6 104.07 161.81L104.2 165.65L114.12 161.62L117.04 151.13L89.48 147.95L88.81 149.16Z" fill="#F8A9AF"/>
<path d="M147.75 135.02C141.7 137.39 135.55 145.15 136.4 155.44C137.25 165.73 144.63 177.38 156.67 172.95C168.71 168.52 169.68 154.17 166.46 146.1C163.25 138.03 153.81 132.65 147.75 135.02Z" fill="#A1A2A2"/>
<path fill-rule="evenodd" clip-rule="evenodd" d="M78.49 140.45C80.26 138.54 83.8 139.84 90.32 141.74C96.84 143.64 102.3 142.07 106.25 141.45C110.19 140.84 116.83 139.99 122.77 141.78C122.77 141.78 138.7 137.97 149.26 138.71C154.44 139.07 157.38 142.01 158.35 144.14C161.27 150.63 161.12 158.96 153.72 164.38C146.32 169.8 132.2 157.5 129.06 159.25C125.16 161.43 122.58 160.3 116.87 161.67C116.87 161.67 109.73 167.82 107.14 168.17C104.55 168.52 101.06 167.62 102.9 163.41C104.73 159.19 108.89 158.88 109.92 156.21C110.94 153.54 105.52 152.69 99.21 151.92C92.91 151.15 87.26 149.98 82.53 147.5C77.79 145.02 76.72 142.36 78.49 140.45Z" fill="#F8A9AF"/>
<path fill-rule="evenodd" clip-rule="evenodd" d="M126.33 142.73C125.4 142.13 124.41 141.63 123.37 141.25C123.01 141.12 122.55 141.2 122.38 141.6C122.23 141.94 122.34 142.45 122.73 142.59C123.77 142.97 124.76 143.47 125.69 144.07C125.84 144.17 126.11 144.16 126.27 144.1C126.44 144.04 126.61 143.89 126.69 143.72C126.77 143.54 126.8 143.33 126.72 143.14C126.63 142.95 126.51 142.84 126.33 142.73Z" fill="black"/>
<path fill-rule="evenodd" clip-rule="evenodd" d="M86.07 150.19C89.71 151.14 93.45 151.3 97.19 151.45C99.05 151.53 100.9 151.63 102.75 151.86C104.25 152.05 105.82 152.26 107.22 152.88C107.7 153.09 108.33 153.36 108.61 153.82C109.12 154.65 108.24 155.61 107.74 156.22C106.55 157.66 105.34 159.07 104.16 160.52C102.41 162.68 100.57 166.15 102.94 168.6C104.04 169.74 105.75 170.02 107.25 169.67C109.03 169.26 110.43 168.03 111.7 166.8C112.39 166.13 111.25 165.17 110.57 165.83C109.44 166.92 108.14 168.1 106.51 168.3C104.84 168.5 103.4 167.57 103.31 165.82C103.22 164.03 104.41 162.54 105.48 161.24C106.63 159.85 107.8 158.48 108.94 157.08C109.76 156.08 110.55 154.82 110.08 153.47C109.72 152.45 108.58 151.85 107.63 151.46C104.77 150.29 101.45 150.18 98.4 150.04C94.33 149.85 90.27 149.77 86.3 148.73C85.41 148.48 85.15 149.95 86.07 150.19Z" fill="black"/>
<path d="M89.6 161.17C92.95 160.88 96.29 160.26 99.62 159.75C100.04 159.68 100.28 159.15 100.17 158.78C100.05 158.33 99.62 158.16 99.2 158.23C96.01 158.72 92.82 159.31 89.61 159.6C89.18 159.64 88.82 159.94 88.82 160.39C88.81 160.78 89.18 161.21 89.6 161.17Z" fill="black"/>
<path d="M100.87 131.05C102.37 132.58 103.98 134 105.68 135.31C105.77 135.38 105.86 135.45 105.97 135.45C106.09 135.45 109.1 128.73 109.03 128.67C109.04 128.67 102.97 130.5 100.87 131.05Z" fill="white"/>
<path d="M99.66 132.26C101.01 133.62 102.43 134.9 103.92 136.1C104.39 136.47 104.84 136.9 105.41 137.09C106.21 137.35 107.04 136.99 107.48 136.31C107.57 136.16 107.65 136 107.73 135.84C108.52 134.23 109.25 132.58 109.96 130.93C110.16 130.46 110.37 129.99 110.56 129.52C110.72 129.12 110.87 128.66 110.7 128.23C110.36 127.38 109.55 126.74 108.58 127.03C105.87 127.85 103.16 128.69 100.42 129.41C99.5499 129.64 98.93 130.65 99.22 131.53C99.51 132.43 100.4 132.98 101.34 132.73C104.08 132.01 106.79 131.17 109.5 130.35C108.79 129.95 108.09 129.55 107.38 129.15C107.37 129.13 107.41 128.21 107.38 128.27C107.37 128.28 107.37 128.3 107.37 128.31C107.34 128.36 107.33 128.42 107.31 128.48C107.28 128.55 107.25 128.62 107.22 128.69C107.2 128.73 107.18 128.77 107.17 128.82C107.09 129.01 107.37 128.35 107.25 128.62C107.02 129.15 106.79 129.68 106.56 130.21C106.04 131.38 105.51 132.56 104.96 133.72C104.86 133.92 104.77 134.12 104.67 134.32C104.64 134.38 104.6 134.45 104.57 134.51C104.47 134.75 104.79 134.24 104.78 134.25C105.03 134.1 105.29 133.96 105.54 133.81C105.84 133.81 106.15 133.81 106.45 133.81C106.52 133.83 106.97 134.15 106.67 133.92C106.57 133.84 106.47 133.76 106.37 133.68C106.15 133.51 105.93 133.33 105.72 133.15C105.31 132.81 104.9 132.46 104.5 132.11C103.68 131.38 102.88 130.63 102.11 129.85C101.48 129.21 100.3 129.17 99.68 129.85C99.02 130.52 98.98 131.58 99.66 132.26Z" fill="white"/>
<path d="M31.6999 95.3198C34.4599 92.7298 38.2599 90.9998 41.7599 89.6898C46.9799 87.7398 52.4599 86.7898 58.0399 86.9898C65.8299 87.2698 73.4099 89.5498 79.9899 93.7498C90.2599 100.29 97.8499 111.01 101.9 122.4C102.61 124.4 103.24 126.45 103.6 128.54C103.72 129.23 103.79 129.46 103.78 130.31C103.78 130.42 103.77 130.52 103.77 130.63C103.76 130.97 103.77 130.69 103.77 130.68C103.78 130.73 103.73 130.88 103.71 130.92C103.94 130.52 103.6 130.94 103.89 130.62C102.88 131.75 104.54 133.42 105.56 132.29C106.3 131.46 106.18 130.19 106.06 129.17C105.85 127.36 105.39 125.58 104.85 123.83C103.19 118.46 100.71 113.31 97.6799 108.58C93.8699 102.64 89.0899 97.3198 83.3499 93.1898C76.7499 88.4398 68.9899 85.5998 60.9099 84.8298C54.7099 84.2398 48.4999 84.9298 42.5999 86.9098C38.2099 88.3798 33.4699 90.4398 30.0499 93.6498C28.9299 94.6898 30.5999 96.3498 31.6999 95.3198Z" fill="white"/>
<path d="M83.82 157.18C86.26 156.98 88.72 156.96 91.17 156.86C93.61 156.76 96.12 156.77 98.54 156.41C99.54 156.26 99.12 154.74 98.12 154.88C98.02 154.9 98.22 154.87 97.99 154.9C97.91 154.91 97.82 154.92 97.74 154.93C97.5 154.95 97.27 154.97 97.03 154.99C96.47 155.03 95.9 155.06 95.34 155.09C93.89 155.17 92.44 155.23 90.99 155.28C88.6 155.37 86.2 155.4 83.81 155.59C82.81 155.68 82.8 157.27 83.82 157.18Z" fill="black"/>
<path fill-rule="evenodd" clip-rule="evenodd" d="M139.24 39.3501C139.24 39.3501 134.98 30.4801 138.22 20.3101C138.42 19.5101 138.64 18.7001 138.91 17.8701C145.27 -2.01991 177.74 -8.24991 190.16 14.5001C202.58 37.2301 176.94 65.6601 150.54 51.9101C149.21 51.2201 147.55 50.1001 145.84 48.5401C143.29 49.6701 139.1 50.5401 134.42 47.4901C133.43 46.8401 133.5 45.3701 134.55 44.8301C137.12 43.4901 139.24 39.3501 139.24 39.3501Z" fill="#F6F8F9"/>
<path d="M150.61 17.8201C151.29 20.8501 151.97 23.8801 152.65 26.9101C152.9 28.0101 154.58 27.5401 154.33 26.4501C153.65 23.4201 152.97 20.3901 152.29 17.3601C152.05 16.2601 150.36 16.7301 150.61 17.8201Z" fill="black"/>
<path d="M151.657 30.9132C153.809 29.6706 155.03 27.756 154.384 26.6368C153.738 25.5176 151.469 25.6177 149.317 26.8604C147.165 28.103 145.944 30.0176 146.59 31.1368C147.236 32.256 149.505 32.1559 151.657 30.9132Z" fill="black"/>
<path d="M150.71 17.9099C151.03 18.4599 151.54 18.7999 152.12 19.0299C152.62 19.2199 153.15 19.2699 153.66 19.4199C153.72 19.4399 153.78 19.4599 153.85 19.4799C154.03 19.5499 153.85 19.4899 153.86 19.4799C153.86 19.4799 154.13 19.6199 154.14 19.6299C154.2 19.6599 154.25 19.6999 154.3 19.7299C154.44 19.8199 154.22 19.6599 154.3 19.7299C154.38 19.7999 154.46 19.8699 154.54 19.9499C154.58 19.9899 154.61 20.0299 154.65 20.0699C154.69 20.1099 154.82 20.2199 154.67 20.0899C154.74 20.1499 154.8 20.2799 154.85 20.3599C154.87 20.3899 154.98 20.6499 155 20.6499C154.96 20.5499 154.95 20.5299 154.97 20.5899C154.98 20.6199 154.99 20.6499 155 20.6799C155.02 20.7399 155.04 20.7999 155.05 20.8699C155.17 21.3099 155.68 21.6199 156.12 21.4799C156.57 21.3299 156.86 20.8799 156.73 20.4099C156.45 19.3699 155.71 18.4399 154.73 17.9799C154.19 17.7299 153.62 17.6399 153.05 17.4999C152.92 17.4699 152.8 17.4299 152.68 17.3899C152.51 17.3299 152.66 17.4099 152.67 17.3899C152.66 17.3999 152.51 17.3099 152.49 17.2999C152.44 17.2699 152.4 17.2399 152.35 17.2099C152.26 17.1599 152.46 17.3199 152.35 17.2099C152.34 17.1999 152.21 17.0799 152.22 17.0699C152.24 17.0999 152.26 17.1199 152.28 17.1499C152.26 17.1099 152.23 17.0799 152.21 17.0399C151.98 16.6499 151.41 16.4699 151.02 16.7299C150.63 16.9699 150.47 17.4899 150.71 17.9099Z" fill="black"/>
<path d="M161.29 25.9998C161.47 28.9498 161.76 31.8998 162.14 34.8298C162.2 35.2998 162.5 35.6998 163.01 35.6998C163.43 35.6998 163.94 35.2998 163.88 34.8298C163.49 31.8998 163.21 28.9498 163.03 25.9998C162.97 24.8898 161.22 24.8798 161.29 25.9998Z" fill="black"/>
<path d="M162.18 26.6697C164.78 26.4397 167.39 26.2097 169.99 25.9797C170.46 25.9397 170.86 25.6097 170.86 25.1097C170.86 24.6697 170.46 24.1997 169.99 24.2397C167.39 24.4697 164.78 24.6997 162.18 24.9297C161.71 24.9697 161.31 25.2997 161.31 25.7997C161.31 26.2397 161.71 26.7097 162.18 26.6697Z" fill="black"/>
<path d="M169.22 25.37C169.7 28.23 170.12 31.1 170.46 33.98C170.52 34.45 170.82 34.85 171.33 34.85C171.76 34.85 172.26 34.45 172.2 33.98C171.84 30.95 171.4 27.92 170.9 24.91C170.82 24.45 170.25 24.19 169.83 24.3C169.33 24.44 169.14 24.91 169.22 25.37Z" fill="black"/>
<path d="M161.388 37.9228C163.21 36.8707 164.244 35.2501 163.697 34.3031C163.151 33.3561 161.23 33.4413 159.408 34.4934C157.586 35.5455 156.552 37.1661 157.098 38.1131C157.645 39.0601 159.566 38.9749 161.388 37.9228Z" fill="black"/>
<path d="M169.776 37.4555C171.598 36.4034 172.632 34.7828 172.085 33.8358C171.539 32.8888 169.618 32.9741 167.796 34.0262C165.974 35.0783 164.94 36.6988 165.486 37.6458C166.033 38.5928 167.954 38.5076 169.776 37.4555Z" fill="black"/>
<path d="M180.75 19.0697C180.93 22.0197 181.22 24.9697 181.6 27.8997C181.66 28.3697 181.96 28.7697 182.47 28.7697C182.89 28.7697 183.4 28.3697 183.34 27.8997C182.95 24.9697 182.67 22.0197 182.49 19.0697C182.43 17.9597 180.69 17.9497 180.75 19.0697Z" fill="black"/>
<path d="M180.847 30.9951C182.669 29.943 183.703 28.3224 183.156 27.3754C182.61 26.4284 180.689 26.5136 178.867 27.5657C177.045 28.6178 176.011 30.2384 176.557 31.1854C177.104 32.1324 179.025 32.0472 180.847 30.9951Z" fill="black"/>
</g>
<defs>
<clipPath id="clip0_266_1700">
<rect width="193.38" height="178.24" fill="white"/>
</clipPath>
</defs>
</svg>
