<svg width="180" height="163" viewBox="0 0 180 163" fill="none" xmlns="http://www.w3.org/2000/svg">
<g clip-path="url(#clip0_259_1306)">
<path d="M84.52 32.0699L89.54 29.6299C90.92 31.6799 99.65 47.0299 101.17 50.7099C106.05 62.5099 108.55 67.6099 107.16 74.6699C104.38 88.8499 83.76 86.5899 82.71 75.1399C82.72 75.1299 94.48 56.1099 84.52 32.0699Z" fill="black"/>
<path d="M98.4499 121.48C98.4499 121.48 101.57 154.44 101.96 163.44H27.6799C27.4699 158.08 30.2699 142.36 30.2699 142.36C28.0599 133.68 28.3499 127.76 28.3499 127.76C28.3499 127.76 27.4799 129.13 24.9899 127.88C21.8599 126.31 23.4999 122.41 23.4999 122.41C23.4999 122.41 21.7599 125.77 18.5299 124.15C15.2999 122.53 17.0399 119.8 17.0399 119.8C17.0399 119.8 15.0399 121.81 12.1899 120.3C10.0799 119.18 10.8199 116.45 10.8199 116.45C10.8199 116.45 6.83992 118.31 4.72992 114.96C2.61992 111.6 7.25992 108.14 7.25992 108.14C7.25992 108.14 5.40992 101.19 10.8099 92.6899C17.5399 82.1099 39.0899 77.2099 39.0899 77.2099L63.9899 73.1299C63.9899 73.1299 67.9499 73.7199 78.7899 75.1899C85.9199 76.1599 95.1199 76.3499 106.13 84.8499C114.09 90.9999 116.64 101.37 116.64 101.37C116.64 101.37 121.27 104.06 119.95 107.67C118.77 110.89 114.89 110.5 114.89 110.5C114.89 110.5 117.01 111.95 113.78 113.36C111.42 114.39 109.95 112.05 109.95 112.05C109.95 112.05 111.46 115.17 108.44 116.58C105.35 118.02 103.1 115.37 103.1 115.37C103.1 115.37 104.91 122.51 98.4499 121.48Z" fill="#008DB2"/>
<path d="M89.99 35.9001C89.99 35.9001 92.69 28.0001 84.33 17.8401C75.97 7.6801 58.13 -2.2899 38.92 12.5101C21.52 25.9201 10.92 64.1901 14.14 81.5301C17.28 98.4201 45.98 100.85 51.18 82.5901C53.21 75.4701 47.71 59.8001 47.71 59.8001L89.99 35.9001Z" fill="black"/>
<path d="M49.77 15.5598C53.38 12.5198 57.15 10.5398 60.84 9.41984C60.65 9.24984 60.47 9.06984 60.28 8.87984C57.76 6.20984 57.77 2.45984 57.9 0.929838C57.93 0.539838 58.28 0.279838 58.65 0.349838C59.88 0.599838 62.56 1.34984 64.49 3.29984C65.65 4.46984 66.44 5.59984 66.96 6.62984C67.26 5.77984 67.69 4.89984 68.3 4.02984C70.29 1.17984 73.57 0.419838 75.2 0.209838C75.74 0.139838 76.2 0.589838 76.18 1.13984C76.12 2.53984 75.79 5.12984 74.38 7.25984C74 7.82984 73.62 8.31984 73.24 8.76984C75.81 9.32984 78.13 10.3198 80.05 11.6498C91.69 19.7198 90.1 30.1198 90.1 30.1198C90.1 30.1198 82.97 7.47984 63.53 17.2598C44.09 27.0298 44.9 45.4398 44.9 45.4398C44.9 45.4398 43.89 43.4898 42.05 43.5298C39.73 43.5798 38.33 44.4498 38.33 44.4498C38.33 44.4498 37.36 25.9998 49.77 15.5598Z" fill="#00A94F"/>
<path d="M58.3199 0C59.4999 0.01 60.6499 0.33 61.7399 0.79C62.7899 1.24 63.8599 1.82 64.7099 2.61C65.5499 3.39 66.2699 4.35 66.7499 5.41C67.1999 6.42 67.3999 7.53 67.5199 8.63C69.0999 9.34 70.4999 10.91 70.2399 12.71C70.1199 13.53 68.8799 13.31 68.9999 12.49C69.1099 11.73 68.6199 11.03 68.0999 10.54C67.5599 10.04 66.9099 9.69 66.1999 9.56C64.9499 9.34 63.4799 10.01 63.0899 11.33C62.9899 11.67 62.7199 11.92 62.3599 11.86C62.0499 11.81 61.7499 11.45 61.8499 11.11C62.4099 9.18 64.2899 8.02 66.2099 8.26C66.1099 7.5 65.9499 6.75 65.6499 6.04C65.2699 5.12 64.6399 4.28 63.9199 3.61C63.1899 2.94 62.3099 2.44 61.4099 2.05C60.4899 1.64 59.4699 1.3 58.4499 1.29C58.1099 1.29 57.7999 1.08 57.7599 0.71C57.7199 0.39 57.9799 0 58.3199 0Z" fill="#008043"/>
<path d="M57.9599 20.66C57.9599 20.66 54.7099 23.1 52.6899 25.47C52.0399 26.23 51.0199 27.5 50.1899 28.72C49.6099 29.57 49.0399 30.58 49.0399 30.58C49.0399 30.58 47.2599 26.13 49.8099 22.9C53.1799 18.63 57.9599 20.66 57.9599 20.66Z" fill="#97CA51"/>
<path d="M49.67 17.3698C50.29 18.2698 51.55 18.4498 52.49 17.7698C53.43 17.0898 53.7 15.7998 53.08 14.8998C52.74 14.4098 52.2 14.1298 51.63 14.0898C51.63 14.0898 50.83 14.6598 50.42 14.9998C49.83 15.4898 49.36 15.8898 49.36 15.8898C49.29 16.3798 49.38 16.9498 49.67 17.3698Z" fill="#E24497"/>
<path d="M72.12 1.9502L73.89 3.6102L72.75 4.6002L70.96 3.0302L70.83 5.9902L69.5 5.9102L69.54 3.6902L67.93 5.6202L67.49 5.3702C67.49 5.3702 68.38 3.4902 69.87 2.3502C70.31 2.0002 71.01 1.5002 71.85 1.1302C72.79 0.720195 73.85 0.450195 73.85 0.450195L74.1 1.3002L72.12 1.9502Z" fill="#97CA51"/>
<path d="M39.41 35.8301L41.57 36.4201L41.34 37.7601L39.34 37.0601L40.19 39.1701L39.23 39.5901L38.72 37.7401C38.72 37.7401 38.77 37.1601 38.91 36.2401C39.06 35.3101 39.2 34.8501 39.2 34.8501L40.43 33.5801L40.94 34.5701L39.41 35.8301Z" fill="#FAAE17"/>
<path d="M74.6492 13.3111C75.3777 13.1806 75.8687 12.5196 75.746 11.8346C75.6234 11.1497 74.9334 10.7002 74.205 10.8307C73.4765 10.9611 72.9854 11.6222 73.1081 12.3071C73.2308 12.9921 73.9208 13.4416 74.6492 13.3111Z" fill="white"/>
<path d="M81.12 17.4398L82.85 15.5698L84.16 16.7598L82.59 18.5798C82.59 18.5798 82.53 18.5298 82.43 18.4398C82.32 18.3398 82.01 18.0798 81.76 17.8998C81.28 17.5498 81.12 17.4398 81.12 17.4398Z" fill="#E24497"/>
<path d="M64.81 13.1899L64.99 15.0099L58.42 16.1499L58.23 13.4399L64.81 13.1899Z" fill="#FAAE17"/>
<path d="M42.5099 30.9698C42.5699 31.6898 43.1899 32.2098 43.8899 32.1398C44.5899 32.0698 45.0999 31.4298 45.0399 30.7198C44.9799 29.9998 44.3599 29.4798 43.6599 29.5498C42.9599 29.6198 42.4499 30.2498 42.5099 30.9698Z" fill="white"/>
<path d="M76.83 77.4802C76.83 77.4802 78.46 86.0902 68.02 85.9502C59.38 85.8402 54.09 81.5902 51.83 78.5002C51.83 78.5002 51.34 72.3202 49.85 67.2402C48.35 62.1602 47.25 59.7002 47.25 59.7002C47.25 59.7002 40.59 60.9902 37.31 55.5902C34.03 50.2002 35.39 44.6702 39.96 43.5502C44.53 42.4202 44.88 45.1102 46.44 48.1902C48 51.2702 53.23 55.1602 52.3 45.0102C52.3 45.0102 57.5 41.7902 61.27 37.0002C65.04 32.2102 66.57 27.2402 66.57 27.2402C66.57 27.2402 68.94 29.3002 74.72 31.5502C82.25 34.4902 88.24 33.3402 88.83 33.1502C89.42 32.9602 94.11 52.1302 93.91 61.9702C93.65 74.9302 83.8 77.8502 76.83 77.4802Z" fill="#F498A8"/>
<path d="M87.3999 30.8302C89.0199 36.2202 89.9599 41.8202 90.9499 47.3602C91.8899 52.5902 92.74 57.9802 92.3699 63.3102C92.1699 66.1802 91.5699 69.1402 89.7099 71.4202C88.2599 73.1902 86.0799 74.2302 83.8699 75.0202C81.5399 75.8502 79.0899 75.9502 76.6399 75.8202C73.2199 75.6302 69.8299 75.0102 66.5499 74.0602C64.8599 73.5702 63.8999 76.1402 65.5999 76.6302C73.4799 78.9202 84.2299 80.4802 90.8299 74.2202C93.1299 72.0402 94.2899 69.1102 94.8199 66.0302C95.6899 60.9302 95.0399 55.5502 94.2599 50.4802C93.2299 43.7502 92.0699 36.8702 90.1099 30.3402C89.5999 28.6602 86.8899 29.1302 87.3999 30.8302Z" fill="black"/>
<path d="M39.8499 50.2299C39.9199 50.2599 39.9999 50.2899 40.0699 50.3199C40.0899 50.3299 40.3199 50.4499 40.1399 50.3499C40.2699 50.4199 40.3899 50.4999 40.5099 50.5799C40.6299 50.6599 40.7399 50.7499 40.8499 50.8399C40.9999 50.9599 40.7599 50.7399 40.9099 50.8899C40.9599 50.9399 40.9999 50.9799 41.0499 51.0299C41.1499 51.1399 41.2399 51.2499 41.3299 51.3599C41.3799 51.4199 41.4199 51.4899 41.4699 51.5499C41.5899 51.6999 41.4099 51.4399 41.5199 51.6199C41.6699 51.8699 41.7999 52.1299 41.8999 52.3999C41.9199 52.4599 41.9499 52.5199 41.9699 52.5899C41.9899 52.6499 41.9899 52.6399 41.9599 52.5499C41.9699 52.5899 41.9799 52.6299 41.9899 52.6599C42.0299 52.7999 42.0599 52.9399 42.0899 53.0799C42.1199 53.2199 42.1299 53.3699 42.1499 53.5099C42.1499 53.5499 42.1599 53.5899 42.1599 53.6299C42.1599 53.5299 42.1599 53.5099 42.1599 53.5799C42.1599 53.6499 42.1599 53.7099 42.1599 53.7799C42.1599 54.0699 42.1299 54.3599 42.0699 54.6399C42.1099 54.4299 42.0599 54.6599 42.0499 54.6999C42.0299 54.7799 41.9999 54.8499 41.9799 54.9199C41.9299 55.0699 41.8599 55.2099 41.7899 55.3599C41.5799 55.7899 41.8899 56.3999 42.3299 56.5399C42.8399 56.6999 43.2799 56.4599 43.5099 55.9999C44.8499 53.2399 43.3199 49.6099 40.4999 48.4999C40.0499 48.3199 39.4699 48.5799 39.3199 49.0399C39.1599 49.5299 39.3699 50.0399 39.8499 50.2299Z" fill="black"/>
<path d="M78.26 54.4398C78.21 53.7998 77.93 53.1698 77.71 52.5698C77.47 51.9198 77.22 51.2698 76.96 50.6198C76.44 49.3198 75.88 48.0398 75.31 46.7598C74.93 45.9198 73.63 46.5298 74.01 47.3698C74.88 49.2998 75.71 51.2598 76.44 53.2498C76.6 53.6798 76.82 54.1498 76.84 54.6198C76.85 54.8898 76.77 55.3298 76.53 55.4998C76.31 55.6498 75.93 55.5998 75.7 55.5098C75.36 55.3798 75.21 55.0998 75.1 54.7798C74.97 54.4098 74.47 54.2898 74.14 54.4398C74.01 54.4998 73.92 54.5998 73.86 54.6998C73.72 54.8198 73.63 54.9798 73.6 55.1898C73.59 55.2498 73.58 55.3198 73.57 55.3798C73.57 55.4098 73.57 55.4098 73.56 55.4198C73.56 55.4298 73.56 55.4198 73.55 55.4398C73.52 55.5498 73.49 55.6498 73.45 55.7598C73.43 55.8098 73.41 55.8598 73.39 55.9098C73.38 55.9298 73.39 55.9198 73.38 55.9298C73.38 55.9298 73.38 55.9298 73.37 55.9398C73.31 56.0398 73.25 56.1198 73.18 56.2098C73.16 56.2298 73.15 56.2398 73.13 56.2598C73.09 56.2898 73.05 56.3198 73.01 56.3598C73.13 56.2598 73.03 56.3498 72.98 56.3698C72.94 56.3898 72.91 56.3998 72.87 56.4198C72.86 56.4198 72.75 56.4398 72.73 56.4498C72.72 56.4498 72.7 56.4498 72.69 56.4498C72.68 56.4498 72.69 56.4498 72.68 56.4498C72.61 56.4398 72.53 56.4398 72.46 56.4298C72.44 56.4298 72.44 56.4298 72.44 56.4298C72.43 56.4298 72.43 56.4198 72.41 56.4198C72.35 56.3998 72.29 56.3798 72.23 56.3598C72.2 56.3498 72.15 56.3198 72.14 56.3098C72.1 56.2798 72.06 56.2598 72.02 56.2298C72.01 56.2198 72 56.2198 72 56.2098C71.87 56.0498 71.73 55.9098 71.62 55.7398C71.6 55.7198 71.59 55.6898 71.57 55.6698C71.54 55.6298 71.51 55.5798 71.49 55.5298C71.43 55.4298 71.37 55.3198 71.31 55.2098C71.21 55.0298 71.12 54.8398 71.05 54.6498C70.91 54.2998 70.42 54.1298 70.09 54.3098C69.73 54.4998 69.6 54.8898 69.75 55.2698C69.97 55.8098 70.27 56.3198 70.61 56.7898C71.02 57.3498 71.59 57.7198 72.28 57.8498C73.05 57.9898 73.78 57.6898 74.29 57.1198C74.44 56.9498 74.55 56.7598 74.65 56.5598C75.18 56.9498 75.86 57.1198 76.55 57.0098C77.76 56.7998 78.35 55.5598 78.26 54.4398Z" fill="black"/>
<path d="M79.67 84.2201C78.66 86.6401 76.71 88.7801 74.33 89.9101C72.47 90.8001 70.23 90.9601 68.2 90.9301C63.73 90.8501 58.75 89.7501 55.26 86.8001C54.38 86.0601 53.37 87.5201 54.23 88.2501C58.16 91.5701 63.99 92.8201 69.02 92.7001C71.33 92.64 73.73 92.3301 75.76 91.1601C78.25 89.7301 80.22 87.49 81.33 84.84C81.78 83.77 80.11 83.1601 79.67 84.2201Z" fill="#006B83"/>
<path d="M85.7399 44.9801C85.1399 45.2501 82.8499 44.8901 80.8199 45.1601C78.6899 45.4501 77.6799 45.9201 77.0899 45.8301C75.9999 45.6601 75.6299 44.3801 75.6499 43.6601C75.6799 42.8001 76.2299 41.1201 79.4299 40.3401C81.3799 39.8701 82.9699 40.1001 84.0699 40.4101C84.5799 40.5501 86.0099 41.3201 86.4599 42.6701C86.8799 43.9101 86.3399 44.7001 85.7399 44.9801Z" fill="white"/>
<path d="M79.9999 44.7099C82.2499 44.8999 82.5599 41.3999 80.2999 41.2099C78.0499 41.0099 77.7499 44.5099 79.9999 44.7099Z" fill="black"/>
<path d="M59.5799 45.8601C59.7099 44.4501 60.9299 43.3701 61.3899 43.1101C62.3899 42.5601 63.8799 41.9701 65.8899 41.9801C69.1799 42.0001 70.1099 43.5201 70.3299 44.3401C70.5199 45.0401 70.4399 46.3701 69.4299 46.7801C68.8799 47.0001 67.7899 46.7801 65.6399 46.9801C63.6099 47.1701 61.4599 48.0501 60.8099 47.9301C60.1599 47.8101 59.4599 47.1601 59.5799 45.8601Z" fill="white"/>
<path d="M64.1 46.7202C66.35 46.9102 66.66 43.4102 64.4 43.2202C62.15 43.0202 61.84 46.5202 64.1 46.7202Z" fill="black"/>
<path d="M47.2599 59.7099C47.2599 59.7099 40.5899 60.9999 37.3099 55.5999C34.0299 50.1999 35.3799 44.6699 39.9599 43.5399C44.5299 42.4099 44.8799 45.0999 46.4499 48.1799C47.1899 49.6399 48.5799 51.4299 49.7499 51.5099L47.2599 59.7099Z" fill="#F498A8"/>
<path d="M39.8499 50.2299C39.9199 50.2599 39.9999 50.2899 40.0699 50.3199C40.0899 50.3299 40.3199 50.4499 40.1399 50.3499C40.2699 50.4199 40.3899 50.4999 40.5099 50.5799C40.6299 50.6599 40.7399 50.7499 40.8499 50.8399C40.9999 50.9599 40.7599 50.7399 40.9099 50.8899C40.9599 50.9399 40.9999 50.9799 41.0499 51.0299C41.1499 51.1399 41.2399 51.2499 41.3299 51.3599C41.3799 51.4199 41.4199 51.4899 41.4699 51.5499C41.5899 51.6999 41.4099 51.4399 41.5199 51.6199C41.6699 51.8699 41.7999 52.1299 41.8999 52.3999C41.9199 52.4599 41.9499 52.5199 41.9699 52.5899C41.9899 52.6499 41.9899 52.6399 41.9599 52.5499C41.9699 52.5899 41.9799 52.6299 41.9899 52.6599C42.0299 52.7999 42.0599 52.9399 42.0899 53.0799C42.1199 53.2199 42.1299 53.3699 42.1499 53.5099C42.1499 53.5499 42.1599 53.5899 42.1599 53.6299C42.1599 53.5299 42.1599 53.5099 42.1599 53.5799C42.1599 53.6499 42.1599 53.7099 42.1599 53.7799C42.1599 54.0699 42.1299 54.3599 42.0699 54.6399C42.1199 54.4299 42.0599 54.6599 42.0499 54.6999C42.0299 54.7799 41.9999 54.8499 41.9799 54.9199C41.9299 55.0699 41.8599 55.2099 41.7899 55.3599C41.5799 55.7899 41.8899 56.3999 42.3299 56.5399C42.8399 56.6999 43.2799 56.4599 43.5099 55.9999C44.8499 53.2299 43.3199 49.6099 40.4999 48.4999C40.0499 48.3199 39.4699 48.5799 39.3199 49.0399C39.1599 49.5299 39.3699 50.0399 39.8499 50.2299Z" fill="black"/>
<path d="M60.1899 40.0702C60.1999 40.0602 60.4099 39.8002 60.2699 39.9602C60.1399 40.1202 60.3399 39.8902 60.3699 39.8602C60.4999 39.7302 60.6299 39.6102 60.7699 39.5002C60.8999 39.4002 61.0299 39.3002 61.1699 39.2002C61.2899 39.1102 61.3499 39.0802 61.1899 39.1802C61.2699 39.1302 61.3499 39.0802 61.4299 39.0402C61.7499 38.8602 62.0699 38.7002 62.4099 38.5702C62.5899 38.5002 62.7699 38.4302 62.9599 38.3702C62.7699 38.4302 62.8699 38.4002 62.9999 38.3602C63.0899 38.3302 63.1899 38.3102 63.2799 38.2802C63.6399 38.1902 64.0099 38.1202 64.3699 38.0702C64.5599 38.0502 64.7599 38.0302 64.9499 38.0102C65.1699 37.9902 64.5999 38.0102 64.9699 38.0102C65.0499 38.0102 65.1199 38.0102 65.1999 38.0102C65.5799 38.0102 65.9499 38.0402 66.3199 38.1002C66.3899 38.1102 66.4599 38.1302 66.5399 38.1402C66.8899 38.1902 66.3499 38.0802 66.5399 38.1402C66.7299 38.1902 66.9199 38.2402 67.0999 38.3002C67.7999 38.5402 68.6799 38.2102 68.9199 37.4602C69.1499 36.7502 68.8399 35.8902 68.0799 35.6402C64.5999 34.4702 60.1999 35.5602 57.8499 38.4302C57.3799 39.0002 57.5799 40.0102 58.1899 40.4102C58.8999 40.8502 59.6799 40.6802 60.1899 40.0702Z" fill="black"/>
<path d="M77.61 36.9602C77.76 36.8302 77.91 36.7102 78.07 36.6002C78.18 36.5102 78.17 36.5302 78.06 36.6002C78.14 36.5502 78.23 36.5002 78.31 36.4502C78.64 36.2602 78.99 36.1302 79.34 35.9902C79.08 36.1002 79.33 35.9902 79.39 35.9802C79.49 35.9502 79.58 35.9302 79.68 35.9002C79.88 35.8502 80.07 35.8102 80.27 35.7802C80.45 35.7502 80.63 35.7302 80.81 35.7202C80.95 35.7102 81.06 35.7102 80.86 35.7102C80.96 35.7102 81.06 35.7102 81.16 35.7102C81.54 35.7102 81.93 35.7502 82.3 35.8102C82.38 35.8202 82.46 35.8402 82.54 35.8502C82.23 35.8002 82.51 35.8402 82.58 35.8602C82.77 35.9102 82.96 35.9702 83.15 36.0402C83.32 36.1002 83.48 36.1702 83.64 36.2402C83.64 36.2402 83.96 36.4102 83.79 36.3102C83.62 36.2102 83.9 36.3802 83.93 36.4002C84.1 36.5002 84.26 36.6102 84.41 36.7302C84.47 36.7802 84.53 36.8302 84.59 36.8802C84.89 37.1202 84.39 36.6802 84.66 36.9502C85.19 37.4702 86.06 37.6702 86.66 37.1202C87.18 36.6402 87.39 35.6802 86.83 35.1202C83.94 32.2502 78.85 32.1202 75.78 34.8002C75.22 35.2902 75.08 36.2302 75.61 36.8002C76.12 37.3402 77.01 37.4802 77.61 36.9602Z" fill="black"/>
<path d="M28.1899 126.99C28.2099 126.97 28.2199 126.97 28.1899 126.99V126.99Z" fill="#006B83"/>
<path d="M29.59 124.58C29.6 124.52 29.6 124.46 29.59 124.58V124.58Z" fill="#006B83"/>
<path d="M38.29 119.16C37.97 118.84 37.35 118.79 37.03 119.16C35.36 121.1 32.94 122.31 30.41 122.43C29.93 122.45 29.52 122.82 29.52 123.32C29.52 123.48 29.58 123.63 29.66 123.77C29.64 123.84 29.61 123.91 29.62 124C29.62 124.18 29.62 124.35 29.6 124.53C29.6 124.57 29.59 124.61 29.59 124.65C29.59 124.62 29.59 124.61 29.59 124.6C29.59 124.61 29.59 124.61 29.59 124.62C29.57 124.71 29.56 124.79 29.54 124.88C29.5 125.05 29.45 125.22 29.39 125.39C29.38 125.43 29.36 125.46 29.35 125.5C29.34 125.53 29.28 125.69 29.33 125.56C29.38 125.44 29.33 125.56 29.32 125.59C29.3 125.63 29.28 125.68 29.26 125.72C29.18 125.87 29.1 126.01 29.01 126.15C28.96 126.22 28.91 126.3 28.86 126.37C28.84 126.39 28.82 126.42 28.8 126.44C28.69 126.57 28.57 126.7 28.44 126.82C28.38 126.88 28.31 126.94 28.24 126.99C28.21 127.01 28.18 127.04 28.15 127.06C28.18 127.03 28.2 127.01 28.21 127C28.19 127.02 28.16 127.04 28.14 127.06C27.76 127.33 27.54 127.85 27.82 128.28C28.06 128.65 28.63 128.89 29.04 128.6C30.49 127.57 31.4 125.91 31.41 124.12C34.06 123.76 36.55 122.46 38.31 120.42C38.61 120.05 38.65 119.51 38.29 119.16Z" fill="#006B83"/>
<path d="M93.1699 101.14C95.9699 105.9 97.3799 111.33 97.2599 116.85C97.2399 118 99.0099 117.99 99.0399 116.85C99.1699 111.03 97.6599 105.26 94.6999 100.24C94.1199 99.26 92.5799 100.15 93.1699 101.14Z" fill="#006B83"/>
<path d="M71.58 114.89C78.32 114.87 79.74 113.91 79.69 111.47C79.64 109.03 76.14 109.23 68.96 108.73C62.01 108.24 60.1 108.7 59.99 108.72C60.04 108.58 60.7 106.54 59.99 103.34C59.24 100.03 53.61 99.7899 53.93 103.23C54.25 106.67 51.88 108.96 49.34 111.03C46.81 113.1 43.71 116.17 41.9 118.65C40.61 120.41 32.79 125.38 28.34 128.12C26.51 129.25 25.26 130 25.26 130L26.23 128.3C25.87 128.22 25.47 128.1 25 127.87C21.87 126.3 23.51 122.4 23.51 122.4C23.51 122.4 21.77 125.76 18.54 124.14C15.31 122.52 17.05 119.79 17.05 119.79C17.05 119.79 15.05 121.8 12.2 120.29C10.09 119.17 10.83 116.44 10.83 116.44C10.83 116.44 9.19997 117.2 7.47997 116.87C2.72997 126.32 -4.85003 144.21 4.34997 152.93C10.85 159.08 20.87 153.67 28.33 147.84C34.03 143.38 38.24 138.67 38.24 138.67L41.34 134.63C48.3 137.11 53.57 132.36 53.57 132.36C54.2 133.36 56.8 133.89 56.8 133.89C56.8 133.89 55.98 135.85 59.77 136.87C63.56 137.9 65.44 136.42 66.2 134.55C66.96 132.68 65.13 131.79 65.13 131.79C65.13 131.79 68.41 132.93 69.93 130.4C71.45 127.87 69.75 126.49 69.75 126.49C74.98 127.16 74.12 121.94 72.28 120.94C70.43 119.93 61.04 116.17 61.04 116.17L63.52 114.69C63.52 114.69 64.83 114.91 71.58 114.89Z" fill="#F5A0AC"/>
<path d="M53.83 114.01C54.83 113.18 55.83 112.35 56.83 111.52C57.29 111.14 57.74 110.72 58.23 110.38C58.71 110.05 59.26 109.89 59.82 109.74C60.69 109.5 60.32 108.15 59.45 108.38C58.84 108.54 58.21 108.73 57.67 109.07C57.08 109.44 56.56 109.93 56.03 110.37C54.97 111.25 53.9 112.13 52.84 113.01C52.55 113.25 52.59 113.75 52.84 114.01C53.13 114.3 53.54 114.25 53.83 114.01Z" fill="black"/>
<path d="M68.8199 125.7C66.3199 124.68 63.7999 123.7 61.2699 122.76C60.9099 122.63 60.4999 122.91 60.3999 123.25C60.2899 123.64 60.5299 123.98 60.8899 124.12C63.4199 125.05 65.9399 126.03 68.4399 127.06C68.7899 127.2 69.2099 126.9 69.3099 126.57C69.4199 126.16 69.1699 125.85 68.8199 125.7Z" fill="black"/>
<path d="M64.73 131.07C63.09 130.52 61.46 129.94 59.83 129.33C59.47 129.2 59.06 129.48 58.96 129.82C58.85 130.21 59.09 130.55 59.45 130.69C61.07 131.29 62.7 131.87 64.35 132.43C64.71 132.55 65.12 132.29 65.22 131.94C65.33 131.55 65.1 131.19 64.73 131.07Z" fill="black"/>
<path d="M59.66 134.01C57.31 133.79 55.01 132.85 53.19 131.34C52.9 131.1 52.48 131.05 52.19 131.34C51.94 131.59 51.9 132.09 52.19 132.34C54.32 134.11 56.9 135.17 59.65 135.42C60.03 135.45 60.35 135.07 60.35 134.72C60.37 134.3 60.04 134.04 59.66 134.01Z" fill="black"/>
<path d="M52.5499 131.97C49.5599 135.27 44.6299 135.67 41.1099 132.97C40.3899 132.42 39.6899 133.64 40.3999 134.19C44.3899 137.25 50.1799 136.69 53.5399 132.97C54.1499 132.3 53.1599 131.3 52.5499 131.97Z" fill="black"/>
<path d="M41.35 133.98C40.17 135.24 39.06 136.56 38.02 137.93C37.8 138.22 37.96 138.73 38.27 138.89C38.64 139.09 38.99 138.95 39.23 138.64C39.29 138.56 39.35 138.49 39.41 138.41C39.55 138.23 39.37 138.46 39.45 138.35C39.48 138.31 39.51 138.27 39.54 138.24C39.67 138.08 39.79 137.92 39.92 137.76C40.18 137.44 40.44 137.12 40.7 136.81C41.23 136.18 41.78 135.57 42.34 134.97C42.59 134.7 42.63 134.24 42.34 133.97C42.07 133.73 41.62 133.69 41.35 133.98Z" fill="black"/>
<path d="M118.5 110.41C118.5 110.41 118.35 110.16 117.95 109.9C116.49 110.64 114.88 110.49 114.88 110.49C114.88 110.49 117 111.94 113.77 113.35C111.41 114.38 109.94 112.04 109.94 112.04C109.94 112.04 111.45 115.16 108.43 116.57C105.34 118.01 103.09 115.36 103.09 115.36C103.09 115.36 104.54 121.14 100.11 121.54L107.63 136.51L99.7399 136.2L72.5099 135.14L72.4999 135.02L72.3099 135.01C68.6899 133.44 65.2699 134.5 63.8199 135.1C60.7499 136.36 59.4199 138.77 59.4199 138.77C59.4199 138.77 60.0999 137.48 56.9399 136.76C53.4299 135.96 51.7099 136.62 50.8399 138.22C49.9699 139.82 51.5499 140.8 51.5499 140.8C51.5499 140.8 48.6599 139.47 47.0299 141.59C45.3999 143.71 46.8099 145.11 46.8099 145.11C42.0999 144.01 42.3699 148.77 43.9599 149.84C45.5499 150.92 53.7599 155.18 53.7599 155.18L51.3499 156.27C51.3499 156.27 50.1699 155.95 44.0099 155.33C38.7499 154.8 36.9699 155.25 36.4499 156.76C36.3599 157.02 36.2999 157.3 36.2699 157.62C36.0799 159.81 39.2899 159.97 45.7999 161.09C52.0999 162.19 53.8799 161.96 53.9899 161.95C53.9299 162.07 58.2599 160.47 60.7699 158.86C61.4899 158.4 62.9499 157.64 64.5799 156.7C67.4299 155.07 70.8299 152.88 71.8799 150.71C75.1699 150.39 88.5199 153.14 101.16 155.18C104.5 155.72 107.79 156.21 110.83 156.58C124.97 158.3 129.33 152.87 131.6 149.46C138.8 138.64 118.5 110.41 118.5 110.41Z" fill="#F5A0AC"/>
<path d="M47.25 145.72C48.44 145.93 49.63 146.15 50.78 146.51C51.63 146.78 52.68 147.14 53.19 147.93C53.57 148.52 53.63 149.35 52.97 149.71C52.15 150.16 50.92 149.99 50.11 149.63C49.76 149.48 49.35 149.53 49.15 149.88C48.97 150.18 49.05 150.69 49.4 150.84C51.08 151.59 54.27 151.79 54.8 149.45C55.02 148.47 54.7 147.47 54.03 146.73C53.35 145.98 52.38 145.56 51.44 145.24C50.2 144.82 48.91 144.59 47.62 144.36C47.25 144.29 46.86 144.46 46.75 144.85C46.66 145.19 46.87 145.65 47.25 145.72Z" fill="black"/>
<path d="M53.14 142.12C53.21 142.15 53.28 142.18 53.35 142.2C53.26 142.16 53.47 142.25 53.49 142.26C53.64 142.33 53.78 142.4 53.93 142.48C54.22 142.64 54.36 142.73 54.55 142.92C54.74 143.11 54.83 143.25 54.9 143.56C54.95 143.8 54.94 144.21 54.9 144.45C54.88 144.6 54.85 144.75 54.79 144.86C54.76 144.92 54.72 144.98 54.68 145.04C54.6 145.16 54.71 145.02 54.62 145.12C54.56 145.18 54.51 145.24 54.45 145.29C54.43 145.31 54.29 145.42 54.34 145.38C54.39 145.34 54.24 145.44 54.22 145.46C54.16 145.5 54.09 145.54 54.02 145.57C53.99 145.58 53.82 145.65 53.95 145.6C53.89 145.62 53.83 145.64 53.77 145.66C53.65 145.7 53.53 145.72 53.41 145.75C53.24 145.78 53.51 145.75 53.36 145.75C53.3 145.75 53.25 145.76 53.19 145.76C53.13 145.76 53.06 145.76 53 145.75C52.81 145.74 53.09 145.77 52.95 145.74C52.58 145.67 52.19 145.84 52.08 146.23C51.99 146.57 52.2 147.03 52.57 147.1C54.12 147.38 55.98 146.47 56.26 144.81C56.43 143.8 56.34 142.8 55.65 142.01C55.1 141.38 54.28 141.04 53.52 140.74C53.17 140.6 52.75 140.9 52.65 141.23C52.53 141.66 52.78 141.98 53.14 142.12Z" fill="black"/>
<path d="M61.3399 145.29C60.1499 146.23 59.0699 147.29 58.1499 148.49C57.2899 149.61 56.6199 150.94 56.9299 152.39C57.2299 153.78 58.4799 154.66 59.8799 154.58C61.3599 154.5 62.4899 153.58 63.4999 152.59C64.8199 151.3 66.1699 150.06 67.6099 148.9C67.9099 148.66 67.8599 148.16 67.6099 147.9C67.3199 147.6 66.9099 147.66 66.6099 147.9C65.2599 148.99 63.9599 150.15 62.7199 151.37C61.8299 152.25 60.5199 153.61 59.1199 153.07C57.6499 152.51 58.3599 150.61 58.9799 149.7C59.8799 148.39 61.0899 147.25 62.3299 146.27C62.6299 146.03 62.5699 145.52 62.3299 145.27C62.0399 144.99 61.6299 145.06 61.3399 145.29Z" fill="black"/>
<path d="M57.8499 138.47C58.0699 138.62 58.2499 138.81 58.4099 139.07C58.5099 139.25 58.5299 139.3 58.5799 139.44C58.6099 139.52 58.6299 139.61 58.6499 139.69C58.6599 139.73 58.6699 139.76 58.6699 139.8C58.6599 139.74 58.6599 139.75 58.6699 139.83C58.6699 139.9 58.6799 139.98 58.6799 140.05C58.6799 140.08 58.6499 140.35 58.6699 140.23C58.6399 140.4 58.5999 140.56 58.5299 140.72C58.5699 140.62 58.4899 140.81 58.4799 140.82C58.4399 140.89 58.3999 140.97 58.3499 141.04C58.2899 141.13 58.2299 141.22 58.0899 141.35C58.0299 141.41 57.9699 141.47 57.8999 141.52C57.9899 141.45 57.8299 141.57 57.8099 141.58C57.7299 141.63 57.6399 141.68 57.5599 141.72C57.3699 141.82 57.6199 141.71 57.4899 141.75C57.3799 141.79 57.2599 141.81 57.1399 141.83C57.3199 141.8 57.0999 141.83 57.0599 141.83C56.9799 141.83 56.9099 141.84 56.8299 141.84C56.4399 141.84 56.2299 141.81 55.8699 141.73C55.4799 141.64 55.0899 141.51 54.7199 141.34C54.3799 141.18 53.9599 141.24 53.7599 141.59C53.5799 141.9 53.6699 142.39 54.0099 142.55C55.2799 143.15 56.8999 143.58 58.2399 142.95C59.5999 142.32 60.3199 140.72 59.9899 139.28C59.7999 138.44 59.2699 137.72 58.5599 137.24C58.2399 137.03 57.7799 137.18 57.5999 137.49C57.3999 137.85 57.5299 138.26 57.8499 138.47Z" fill="black"/>
<path d="M69.87 139.7C67.87 139.81 65.78 140.18 64.08 141.33C62.53 142.37 61.44 143.92 61.2 145.79C61.15 146.17 61.56 146.49 61.9 146.49C62.32 146.49 62.55 146.16 62.6 145.79C62.79 144.38 63.81 143.15 64.99 142.42C66.44 141.51 68.18 141.21 69.87 141.12C70.77 141.06 70.78 139.65 69.87 139.7Z" fill="black"/>
<path d="M75.74 62.6099C75.76 62.5999 75.05 68.2099 70.3 68.7399C65.55 69.2699 62.05 64.2099 62.13 59.1799C62.13 59.1799 62.74 57.6799 64.19 59.4299C65.64 61.1899 70.56 64.6099 75.74 62.6099Z" fill="black"/>
<path d="M64.96 59.2798C64.99 62.1198 67.85 65.0198 70.64 65.2998C72.58 65.4998 73.53 63.9398 73.98 62.6198C70 63.0998 66.46 60.8198 64.96 59.2798Z" fill="white"/>
<path d="M62.75 63.0198C63.75 65.8798 65.86 68.1898 68.55 68.6798C68.47 67.6098 67.84 65.9398 66.37 64.4998C65.17 63.3298 63.84 62.9098 62.75 63.0198Z" fill="#EC145A"/>
<path d="M76.7999 61.5298C74.65 62.5998 72.2099 62.6598 69.9299 61.9598C68.7899 61.6098 67.6999 61.0998 66.6699 60.4998C65.7199 59.9398 64.7099 59.3298 64.1299 58.3598C64.1699 58.2998 64.2199 58.2398 64.2599 58.1798C64.5799 57.6998 64.8199 57.1798 64.9699 56.6298C65.0499 56.3298 64.9499 55.9698 64.6199 55.8698C64.3399 55.7798 63.9499 55.8999 63.8599 56.2199C63.8099 56.3999 63.7499 56.5798 63.6799 56.7598C63.6499 56.8498 63.6099 56.9398 63.5699 57.0198C63.5499 57.0698 63.5299 57.1098 63.4999 57.1598C63.4999 57.1698 63.4899 57.1798 63.4799 57.1898C63.3899 57.3498 63.2899 57.5098 63.1799 57.6698C63.1299 57.7498 63.0699 57.8198 63.0099 57.8898C62.9799 57.9298 62.9499 57.9598 62.9199 57.9998C62.9099 58.0098 62.8899 58.0398 62.8699 58.0498C62.7399 58.1798 62.5999 58.3098 62.4499 58.4198C62.4299 58.4298 62.3299 58.4898 62.4199 58.4498C62.3799 58.4698 62.3399 58.4998 62.2999 58.5198C62.2599 58.5398 62.2199 58.5599 62.1799 58.5799C62.1699 58.5899 62.1599 58.5898 62.1599 58.5898C62.1599 58.5898 62.1599 58.5898 62.1499 58.5898C62.1099 58.5998 62.0599 58.6098 62.0199 58.6198C61.9999 58.6198 61.9899 58.6198 61.9699 58.6298C61.9599 58.6298 61.9599 58.6298 61.9599 58.6298C61.9099 58.6298 61.8499 58.6298 61.7999 58.6198C61.7899 58.6198 61.7099 58.5998 61.6899 58.5998C61.6599 58.5898 61.5899 58.5698 61.5799 58.5698C61.5299 58.5498 61.4799 58.5398 61.4299 58.5198C61.3899 58.4998 61.3399 58.4899 61.2999 58.4699C61.0999 58.2898 60.8599 58.2099 60.5999 58.3299C60.3399 58.4399 60.2099 58.7498 60.2599 59.0198C60.3499 59.4398 60.8099 59.5798 61.1699 59.6898C61.5199 59.7998 61.8699 59.8498 62.2399 59.7998C62.5699 59.7498 62.8599 59.5998 63.1299 59.4198C63.1999 59.3798 63.2599 59.3198 63.3199 59.2798C63.9299 60.1398 64.7599 60.7698 65.6699 61.3198C66.8799 62.0598 68.1699 62.6998 69.5299 63.1098C72.0999 63.8998 74.8799 63.8498 77.3099 62.6298C77.9899 62.2599 77.4799 61.1898 76.7999 61.5298Z" fill="black"/>
<path d="M63.51 69.1698C64.78 70.2098 66.28 70.8998 67.88 71.2398C68.2 71.3098 68.52 70.9798 68.54 70.6798C68.57 70.3198 68.31 70.0798 67.98 70.0198C67.35 69.8898 66.61 69.6298 65.99 69.3298C65.38 69.0398 64.76 68.6298 64.22 68.1798C63.96 67.9698 63.55 68.0698 63.36 68.3298C63.16 68.5998 63.25 68.9498 63.51 69.1698Z" fill="black"/>
<path fill-rule="evenodd" clip-rule="evenodd" d="M120.99 52.0598C120.99 52.0598 116.41 42.5298 119.89 31.5898C120.11 30.7298 120.35 29.8598 120.63 28.9598C127.47 7.5798 162.38 0.869798 175.73 25.3398C189.08 49.7798 161.52 80.3498 133.13 65.5598C131.71 64.8198 129.91 63.6098 128.08 61.9298C125.34 63.1498 120.83 64.0798 115.81 60.7998C114.75 60.0998 114.82 58.5198 115.95 57.9398C118.72 56.5098 120.99 52.0598 120.99 52.0598Z" fill="white"/>
<path d="M26.35 114.94C22.35 119.4 19.93 125.38 20.48 131.43C20.99 137.04 23.93 142.24 28.62 145.4C29.7 146.13 30.72 144.38 29.64 143.65C25.48 140.84 22.83 136.04 22.47 131.05C22.09 125.66 24.2 120.36 27.77 116.38C28.65 115.41 27.22 113.97 26.35 114.94Z" fill="white"/>
<path d="M30.27 140.771C30.95 142.371 31.53 144.011 31.99 145.691C32.01 145.781 32.04 145.871 32.01 145.951C31.98 146.041 26.26 146.141 26.24 146.071C26.24 146.081 29.22 142.181 30.27 140.771Z" fill="white"/>
<path d="M28.84 141.61C28.98 141.94 28.71 141.31 28.84 141.61C28.88 141.71 28.92 141.81 28.96 141.91C29.04 142.11 29.12 142.31 29.2 142.52C29.36 142.93 29.51 143.33 29.65 143.74C29.93 144.55 30.21 145.38 30.41 146.21C30.39 146.06 30.37 145.92 30.35 145.77C30.35 145.8 30.36 145.83 30.36 145.86C30.38 145.71 30.4 145.57 30.42 145.42C30.42 145.45 30.41 145.48 30.41 145.51C30.55 145.27 30.7 145.02 30.84 144.78C31.35 144.14 31.85 144.32 31.51 144.37C31.66 144.35 31.8 144.33 31.95 144.31C31.27 144.4 30.56 144.38 29.87 144.4C28.93 144.42 27.99 144.44 27.05 144.44C26.79 144.44 26.52 144.46 26.26 144.42C26.41 144.44 26.55 144.46 26.7 144.48C26.41 144.43 26.65 144.1 27.41 144.9C27.5 145.57 27.58 146.24 27.67 146.92C29.02 145.15 30.37 143.39 31.7 141.61C31.94 141.29 31.97 140.7 31.87 140.33C31.76 139.94 31.47 139.53 31.11 139.34C30.72 139.14 30.26 139.03 29.83 139.17C29.39 139.31 29.11 139.57 28.84 139.93C27.51 141.71 26.15 143.47 24.81 145.24C24.59 145.52 24.57 145.97 24.61 146.3C24.66 146.67 24.81 146.98 25.07 147.26C25.62 147.84 26.46 147.77 27.19 147.77C27.93 147.77 28.68 147.76 29.42 147.74C30.1 147.73 30.78 147.71 31.46 147.68C31.76 147.67 32.11 147.66 32.4 147.59C32.69 147.52 32.99 147.38 33.2 147.15C33.77 146.53 33.76 145.77 33.54 145C33.05 143.27 32.43 141.6 31.72 139.94C31.57 139.58 31.08 139.27 30.73 139.18C30.33 139.07 29.8 139.12 29.45 139.35C29.09 139.58 28.78 139.92 28.69 140.34C28.56 140.8 28.65 141.18 28.84 141.61Z" fill="white"/>
<path d="M88.1899 114.94C91.7599 118.93 93.8799 124.22 93.4899 129.61C93.1399 134.61 90.4899 139.41 86.3199 142.21C85.2499 142.93 86.2599 144.69 87.3399 143.96C92.0299 140.8 94.9499 135.6 95.4799 129.99C96.0399 123.95 93.6099 117.96 89.6099 113.5C88.7499 112.54 87.3199 113.98 88.1899 114.94Z" fill="white"/>
<path d="M86.85 117.15C86.54 115.44 86.34 113.71 86.25 111.97C86.25 111.88 86.24 111.78 86.29 111.71C86.34 111.63 91.94 112.79 91.95 112.86C91.96 112.87 88.19 116.02 86.85 117.15Z" fill="white"/>
<path d="M88.4599 116.71C88.3499 116.09 88.25 115.47 88.16 114.85C88.18 115 88.1999 115.14 88.2199 115.29C88.1399 114.7 88.0799 114.11 88.0199 113.53C87.9699 112.98 87.8599 112.35 87.9199 111.8C87.8999 111.95 87.8799 112.09 87.8599 112.24C87.8699 112.21 87.8799 112.19 87.8899 112.16C87.7499 112.4 87.5999 112.65 87.4599 112.89C87.2199 113.03 86.97 113.18 86.73 113.32H86.7399C86.5899 113.34 86.45 113.36 86.3 113.38C86.35 113.38 86.39 113.39 86.44 113.39C86.29 113.37 86.1499 113.35 85.9999 113.33C87.6199 113.55 89.2399 113.94 90.8399 114.3C90.9899 114.33 91.1399 114.37 91.2899 114.41C91.3399 114.42 91.3799 114.44 91.4299 114.45C91.4499 114.45 91.46 114.46 91.48 114.47C91.17 114.42 90.6799 113.99 90.5199 113.72C90.6099 113.05 90.6899 112.38 90.7799 111.7C89.4699 112.79 88.1699 113.89 86.8599 114.98C86.4599 115.31 86.0699 115.65 85.6699 115.98C84.9999 116.55 85.0399 117.76 85.6699 118.33C86.3799 118.98 87.3099 118.93 88.0199 118.33C89.5499 117.03 91.0899 115.74 92.6299 114.46C92.7899 114.32 92.96 114.18 93.12 114.05C93.68 113.58 93.7299 112.63 93.3799 112.03C92.9599 111.32 92.1999 111.2 91.4699 111.04C90.7499 110.88 90.0399 110.73 89.3199 110.58C88.6599 110.44 87.9899 110.31 87.3299 110.19C87.0199 110.13 86.68 110.06 86.37 110.05C86.19 110.04 86.0699 110.05 85.8499 110.11C84.9599 110.36 84.5499 111.23 84.5899 112.09C84.6699 113.94 84.9099 115.78 85.2399 117.6C85.3099 117.99 85.6699 118.4 85.9999 118.59C86.3599 118.8 86.8799 118.89 87.2799 118.76C88.2099 118.46 88.6199 117.63 88.4599 116.71Z" fill="white"/>
<path fill-rule="evenodd" clip-rule="evenodd" d="M165.03 45.0403H133.88C133.21 45.0403 132.66 44.4903 132.66 43.8203V38.7303C132.66 38.0603 133.21 37.5103 133.88 37.5103H165.03C165.7 37.5103 166.25 38.0603 166.25 38.7303V43.8203C166.25 44.4903 165.7 45.0403 165.03 45.0403Z" fill="black"/>
<path fill-rule="evenodd" clip-rule="evenodd" d="M162.31 53.6703H136.59C134.98 53.6703 133.68 52.3603 133.68 50.7603V36.6903C133.68 35.0803 134.99 33.7803 136.59 33.7803H162.31C163.92 33.7803 165.22 35.0903 165.22 36.6903V50.7603C165.23 52.3703 163.92 53.6703 162.31 53.6703Z" fill="black"/>
<path d="M143.63 50.0604C146.844 50.0604 149.45 47.4547 149.45 44.2404C149.45 41.0261 146.844 38.4204 143.63 38.4204C140.416 38.4204 137.81 41.0261 137.81 44.2404C137.81 47.4547 140.416 50.0604 143.63 50.0604Z" stroke="white" stroke-width="0.7159" stroke-miterlimit="10"/>
<path d="M153.41 40H161.59" stroke="white" stroke-width="0.7159" stroke-miterlimit="10"/>
<path d="M153.41 43.4004H161.59" stroke="white" stroke-width="0.7159" stroke-miterlimit="10"/>
<path d="M153.41 47.2803H161.59" stroke="white" stroke-width="0.683" stroke-miterlimit="10"/>
<path d="M137.7 35.2602L155.66 22.7202" stroke="black" stroke-miterlimit="10"/>
</g>
<defs>
<clipPath id="clip0_259_1306">
<rect width="179.2" height="163.44" fill="white"/>
</clipPath>
</defs>
</svg>
