<svg width="200" height="200" viewBox="0 0 200 200" fill="none" xmlns="http://www.w3.org/2000/svg">
<g clip-path="url(#clip0_298_150)">
<path d="M157.68 131.79C144.35 112.18 116.14 109.32 95.09 109.31C65.66 109.29 49.48 116.82 35.41 134.95C28.03 144.45 19.26 178.28 15 200.45H178.51C175.76 185.16 166.34 144.53 157.68 131.79Z" fill="#EF9AC2"/>
<path d="M138.58 169.17C139.44 173.67 140.44 178.14 141.22 182.65C142.13 187.87 142.65 193.15 143.09 198.43C143.24 200.27 146.13 200.28 145.98 198.43C145.53 192.98 144.98 187.53 144.05 182.14C143.26 177.54 142.24 172.98 141.36 168.4C141.01 166.59 138.23 167.36 138.58 169.17Z" fill="#E66FA9"/>
<path d="M97.5 130.93C97.62 130.16 98.54 129.81 99.13 130.33C101.71 132.59 107.45 138.19 109.18 144.72C110.68 150.34 110.31 154.02 109.89 155.86C109.73 156.57 108.89 156.88 108.32 156.44C106.09 154.71 101.16 150.47 99.28 145.47C96.76 138.83 97.09 133.5 97.5 130.93Z" fill="#901E5E"/>
<path d="M114.25 97.44C114.25 97.44 117.16 103.92 123.71 102.21C128.8 100.88 127.7 93.86 127.7 93.86C127.7 93.86 133.8 94.81 135.84 88.79C137.31 84.45 133.67 81.45 133.67 81.45C133.67 81.45 139.39 79.63 139.93 72.19C140.51 64.3 134.5 62.04 134.5 62.04C134.5 62.04 137.72 56.45 134.26 53.34C130.07 49.57 125.13 52.03 125.13 52.03C125.13 52.03 124.48 43.24 120.01 41.83C111.98 39.3 108.27 44.95 108.27 44.95C108.27 44.95 109.45 40.16 103.54 37.08C98.63 34.52 94.23 39.29 94.23 39.29C94.23 39.29 92.59 32.99 85.38 34.11C80.02 34.94 79.88 41.59 79.88 41.59C79.88 41.59 74.61 39.1 69.81 42.73C63 47.88 65.63 56.51 65.63 56.51C65.63 56.51 59.48 55.43 57.34 61.08C54.93 67.43 60.14 70.22 60.14 70.22C60.14 70.22 56.88 75.88 62.76 78.36C65.4 79.49 114.25 97.44 114.25 97.44Z" fill="black"/>
<path d="M127.07 79.62C127.07 79.62 128.52 68.37 122.08 59C115.22 49.03 104.37 45.43 88.6 48.16C72.83 50.89 66.73 62.58 64.34 72.94L107.74 78.57L105.49 97L117.54 98.7L127.07 79.62Z" fill="black"/>
<path d="M117.44 84.7099C117.44 84.7099 118.77 77.57 123.11 76.58C127.45 75.59 129.14 78.4599 128.72 83.5C128.3 88.54 124.79 93.57 119.6 92.41C119.6 92.41 116.39 103.26 117.01 109.73C117.01 109.73 110.68 111.38 106.12 115.51C97.26 123.54 96.92 128.22 96.92 128.22C96.14 123.75 91.35 122.3 91.35 122.3C91.35 122.3 72.53 123.04 65.71 112.83C56.29 98.74 65.23 72.9599 65.23 72.9599C65.23 72.9599 65.97 70.5799 67.57 67.9599C67.57 67.9599 70.59 68.0599 73.06 66.3899C76.42 64.11 76.5 61.08 76.5 61.08C76.5 61.08 77.91 64.92 84.29 64.57C87.81 64.38 90.22 63.18 92.56 59.45C92.56 59.45 92.81 63.77 97.77 65.95C101.99 67.8 106.06 65.3899 106.06 65.3899C102.29 69.0999 106.33 78.27 111.92 77.16C111.92 77.16 110.1 85.7699 113.16 87.2099C114.87 88.0299 116.84 86.7199 117.44 84.7099Z" fill="#DC7B6A"/>
<path d="M95.89 119.48C91.07 120.66 85.81 120.61 80.96 119.64C75.85 118.62 71.6301 116.14 68.2901 112.1C60.2901 102.44 62.2101 89.5901 64.9001 78.3301C66.0401 73.5801 67.42 68.5701 70.07 64.4201C71.02 62.9301 68.6501 61.5501 67.7001 63.0301C65.0701 67.1501 63.62 72.1001 62.44 76.8101C61 82.6101 59.7 88.6701 59.71 94.6601C59.73 106.55 66.4101 118.75 78.4901 121.89C84.3001 123.4 90.7801 123.57 96.6201 122.13C98.3301 121.71 97.6 119.06 95.89 119.48Z" fill="black"/>
<path d="M124.53 80.6299C123.12 80.7699 122.03 81.7299 121.49 83.0099C120.87 84.4799 121.11 86.0999 121.35 87.6299C121.42 88.0799 121.98 88.3199 122.38 88.2099C122.86 88.0799 123.04 87.6299 122.96 87.1799C122.78 86.0599 122.59 84.8399 122.98 83.7499C122.98 83.7399 123.04 83.5899 123.02 83.6499C123 83.7099 123.06 83.5699 123.07 83.5599C123.13 83.4399 123.19 83.3299 123.26 83.2199C123.29 83.1699 123.32 83.1199 123.35 83.0799C123.37 83.0499 123.43 82.9799 123.37 83.0499C123.45 82.9499 123.54 82.8599 123.63 82.7699C123.67 82.7299 123.71 82.6899 123.75 82.6599C123.85 82.5699 123.67 82.7199 123.78 82.6399C123.88 82.5699 123.99 82.5099 124.09 82.4499C124.13 82.4299 124.2 82.3999 124.11 82.4299C124.16 82.4099 124.21 82.3899 124.26 82.3799C124.33 82.3599 124.39 82.3399 124.46 82.3299C124.49 82.3199 124.67 82.2999 124.53 82.3199C124.98 82.2799 125.37 81.9699 125.37 81.4799C125.37 81.0499 124.98 80.5899 124.53 80.6299Z" fill="black"/>
<path d="M122.93 94.3499C123.22 94.3299 123.53 94.2399 123.85 94.0899C124.37 93.8499 124.73 93.3799 124.89 92.7799C125.07 92.0699 124.92 91.2799 124.49 90.6999C123.72 89.6599 122.24 89.8499 122.18 89.8599C122.18 89.8599 121.59 89.8999 121.67 90.4799C121.73 90.9499 122.31 90.8499 122.31 90.8499C122.32 90.8499 123.27 90.7399 123.69 91.2999C123.94 91.6399 124.03 92.1199 123.93 92.5399C123.88 92.7199 123.76 93.0399 123.44 93.1899C123.04 93.3799 122.68 93.3399 122.43 93.2199C122.07 93.0499 121.94 92.6999 121.89 92.5299C121.89 92.5299 121.67 92.5599 121.35 92.5799C121.03 92.5999 120.82 92.5799 120.82 92.5799C120.85 92.6899 121.17 93.7799 122.02 94.1999C122.3 94.3199 122.61 94.3699 122.93 94.3499Z" fill="#FBE574"/>
<path d="M92.61 122.83C94.09 123.59 96.4 125.22 96.92 128.21C96.92 128.21 97.26 123.53 106.12 115.5C110.68 111.36 117.01 109.72 117.01 109.72C116.9 108.51 116.91 107.15 117.02 105.73C118.71 105.88 120.31 106.57 121.28 108.27C124.78 112.82 113.48 136.69 96.75 137.68C91.64 137.98 87.05 133.08 83.87 122.87L92.61 122.83Z" fill="#901E5E"/>
<path d="M116.49 112.64C113.35 118.08 109.46 123.04 104.91 127.38C103.94 128.31 105.41 129.78 106.38 128.85C111.04 124.39 115.06 119.28 118.28 113.69C118.96 112.53 117.16 111.48 116.49 112.64Z" fill="#78111B"/>
<path d="M97.86 131.85C98.54 131.46 99.38 131.95 99.36 132.73C99.25 136.15 98.55 144.15 94.6 149.62C91.2 154.34 88.12 156.39 86.43 157.23C85.78 157.55 85.01 157.11 84.99 156.38C84.92 153.56 85.07 147.06 87.74 142.43C91.28 136.28 95.61 133.15 97.86 131.85Z" fill="#901E5E"/>
<path d="M100.95 128.66C99.7 127.32 97.89 126.74 96.1 127.15C94.47 127.52 93.33 128.7 92.5 130.09C91.54 131.7 90.9 133.68 91.08 135.57C91.25 137.44 92.33 139.33 94.04 140.21C96.03 141.24 98.26 140.85 99.95 139.45C100.39 139.09 100.32 138.35 99.95 137.98C99.52 137.55 98.91 137.62 98.48 137.98C96.44 139.65 93.57 138.27 93.19 135.72C92.98 134.31 93.42 132.81 94.07 131.58C94.35 131.04 94.67 130.54 95.05 130.11C95.38 129.74 95.78 129.45 96.16 129.31C96.72 129.1 97.28 129.03 97.78 129.14C98.46 129.28 98.99 129.61 99.48 130.14C100.4 131.11 101.87 129.64 100.95 128.66Z" fill="#78111B"/>
<path d="M93.82 139.45C93.06 140.67 92.33 141.91 91.64 143.17C91.38 143.65 91.51 144.33 92.01 144.6C92.5 144.86 93.16 144.74 93.44 144.23C94.13 142.97 94.86 141.73 95.62 140.51C95.91 140.05 95.73 139.34 95.25 139.08C94.73 138.8 94.13 138.95 93.82 139.45Z" fill="#78111B"/>
<path d="M89.29 128.18C89.96 129.5 90.87 130.72 91.92 131.76C92.31 132.14 93.01 132.18 93.39 131.76C93.77 131.35 93.81 130.69 93.39 130.29C92.96 129.87 92.56 129.42 92.19 128.94C92.24 129.01 92.3 129.08 92.35 129.15C91.87 128.52 91.44 127.84 91.08 127.13C90.83 126.64 90.11 126.46 89.65 126.76C89.17 127.07 89.02 127.66 89.29 128.18Z" fill="#78111B"/>
<path d="M88.63 73.7999C91.2 76.5199 95.68 76.0399 98.4 73.8599C98.96 73.4099 98.91 72.3799 98.4 71.9199C97.8 71.3699 97.06 71.4399 96.46 71.9199C96.69 71.7399 96.29 72.0399 96.24 72.0699C96.1 72.1599 95.96 72.2499 95.81 72.3199C95.66 72.3999 95.51 72.4699 95.36 72.5399C95.61 72.4299 95.14 72.6199 95.09 72.6299C94.76 72.7399 94.43 72.8099 94.09 72.8799C93.93 72.9099 93.92 72.9099 94.07 72.8899C93.99 72.8999 93.9 72.9099 93.81 72.9099C93.66 72.9199 93.51 72.9299 93.36 72.9299C93.21 72.9299 93.0601 72.9299 92.91 72.9099C92.82 72.8999 92.74 72.8999 92.65 72.8899C92.8 72.9099 92.8 72.9099 92.64 72.8799C92.31 72.8099 92 72.7199 91.68 72.6199C91.53 72.5599 91.53 72.5599 91.67 72.6199C91.6 72.5899 91.53 72.5499 91.46 72.5199C91.32 72.4499 91.19 72.3699 91.06 72.2899C91 72.2499 90.93 72.2099 90.87 72.1599C91 72.2599 91 72.2599 90.88 72.1699C90.77 72.0699 90.66 71.9699 90.56 71.8599C90.06 71.3399 89.11 71.3199 88.62 71.8599C88.11 72.4199 88.1 73.2399 88.63 73.7999Z" fill="black"/>
<path d="M70.14 77.71C73.3 78.43 76.7501 77.23 78.8101 74.73C79.2701 74.18 79.39 73.32 78.8101 72.79C78.3101 72.33 77.36 72.2 76.87 72.79C76.66 73.04 76.44 73.28 76.2 73.51C76.08 73.62 75.96 73.72 75.84 73.82C75.82 73.84 75.6201 73.99 75.7401 73.9C75.8601 73.81 75.66 73.96 75.64 73.97C75.36 74.17 75.07 74.35 74.76 74.51C74.62 74.59 74.4701 74.66 74.3301 74.73C74.2201 74.78 74.2001 74.78 74.3301 74.74C74.2401 74.77 74.1501 74.81 74.0601 74.84C73.7701 74.94 73.47 75.02 73.17 75.08C73.09 75.09 73.01 75.1 72.94 75.12C72.73 75.16 73.16 75.1 72.95 75.12C72.77 75.14 72.6 75.16 72.42 75.16C72.12 75.18 71.81 75.18 71.51 75.16C71.42 75.15 71.3301 75.15 71.2401 75.14C71.2001 75.14 70.97 75.09 71.17 75.13C71.37 75.17 71.14 75.12 71.11 75.12C71.03 75.11 70.96 75.09 70.88 75.07C70.18 74.91 69.36 75.28 69.19 76.03C69.02 76.71 69.39 77.53 70.14 77.71Z" fill="black"/>
<path d="M97.6501 78.54C97.9601 77.92 98.29 77.31 98.64 76.72C98.8 76.45 98.71 76.05 98.42 75.9C98.13 75.75 97.77 75.83 97.6 76.12C97.24 76.71 96.91 77.32 96.61 77.94C96.54 78.09 96.5101 78.24 96.5501 78.4C96.5901 78.54 96.7001 78.69 96.8301 78.76C97.1001 78.9 97.5001 78.84 97.6501 78.54Z" fill="black"/>
<path d="M99.22 79.4598C99.48 79.2298 99.75 78.9998 100.02 78.7898C99.98 78.8198 99.94 78.8498 99.9 78.8798C100.05 78.7598 100.2 78.6498 100.36 78.5398C100.49 78.4498 100.59 78.3398 100.64 78.1798C100.68 78.0398 100.66 77.8498 100.58 77.7198C100.5 77.5898 100.37 77.4798 100.22 77.4398C100.07 77.4098 99.89 77.4098 99.76 77.4998C99.28 77.8398 98.82 78.2098 98.38 78.5998C98.27 78.6998 98.2 78.8798 98.2 79.0198C98.2 79.1698 98.27 79.3398 98.38 79.4398C98.49 79.5398 98.64 79.6198 98.8 79.6198C98.96 79.6198 99.1 79.5698 99.22 79.4598Z" fill="black"/>
<path d="M88.02 81.2999C88.56 82.5699 90.1 83.2099 90.63 83.3099C91.79 83.5299 93.46 83.6399 95.47 83.0399C98.77 82.0599 99.25 80.3899 99.24 79.5599C99.23 78.8599 98.9 77.8799 97.14 77.7599C96.52 77.7199 95.98 78.0499 93.77 78.4799C91.68 78.8899 89.27 78.6999 88.65 79.0099C88.03 79.3199 87.52 80.1299 88.02 81.2999Z" fill="white"/>
<path d="M70.66 81.4399C70.37 80.7499 70.06 80.0799 69.72 79.4199C69.57 79.1399 69.16 79.0399 68.9 79.1999C68.62 79.3799 68.53 79.7199 68.68 80.0199C68.99 80.6199 69.28 81.2399 69.55 81.8699C69.53 81.8199 69.51 81.7699 69.49 81.7299C69.49 81.7399 69.5 81.7499 69.5 81.7599C69.56 81.9099 69.63 82.0299 69.78 82.1199C69.91 82.1999 70.1 82.2299 70.24 82.1799C70.39 82.1299 70.53 82.0399 70.6 81.8999C70.67 81.7699 70.72 81.5899 70.66 81.4399Z" fill="black"/>
<path d="M68.8 81.8699C68.42 81.4899 68.02 81.1299 67.6 80.7899C67.55 80.7299 67.48 80.6899 67.41 80.6699C67.34 80.6299 67.26 80.6199 67.18 80.6199C67.03 80.6199 66.86 80.6899 66.76 80.7999C66.66 80.9099 66.58 81.0599 66.58 81.2199C66.59 81.3699 66.63 81.5499 66.76 81.6399C67.18 81.9799 67.58 82.3399 67.96 82.7199C68.07 82.8299 68.23 82.8999 68.38 82.8999C68.53 82.8999 68.7 82.8299 68.8 82.7199C68.9 82.6099 68.98 82.4599 68.98 82.2999C68.96 82.1399 68.91 81.9899 68.8 81.8699Z" fill="black"/>
<path d="M79.23 82C79.08 83.37 77.79 84.43 77.31 84.68C76.26 85.22 74.7 85.81 72.6 85.82C69.16 85.84 68.21 84.38 67.99 83.58C67.8 82.91 68.02 81.62 69.09 81.2C69.67 80.98 70.67 81.19 72.91 80.97C75.03 80.76 77.29 79.88 77.96 80C78.64 80.11 79.36 80.73 79.23 82Z" fill="white"/>
<path d="M80.77 93.14C80.74 91.68 80.87 90.21 81.02 88.76C81.17 87.31 81.35 85.85 81.67 84.42C81.91 83.39 83.54 83.67 83.3 84.71C82.78 86.96 82.56 89.33 82.44 91.63C82.39 92.64 82.21 94.1 82.85 94.96C83.55 95.89 85.1 95.41 85.1 94.22C85.1 93.17 86.68 92.98 86.75 94.07C86.78 94.56 87.18 95.07 87.73 95.02C88.27 94.97 88.58 94.41 88.53 93.91C88.41 92.85 90.06 92.7 90.18 93.76C90.34 95.15 89.31 96.53 87.89 96.67C87.2 96.74 86.55 96.49 86.05 96.05C85.47 96.77 84.58 97.21 83.55 97.09C81.5 96.87 80.81 94.93 80.77 93.14Z" fill="black"/>
<path d="M99.67 89.96C97.57 92.21 96.42 95.32 96.73 98.4C97.03 101.33 98.51 104.06 100.83 105.88C101.55 106.44 102.56 105.44 101.84 104.87C97.49 101.46 96.88 95.05 100.69 90.97C101.31 90.3 100.3 89.29 99.67 89.96Z" fill="black"/>
<path d="M70.9 94.1099C75.35 97.0799 76.9 102.97 74.51 107.75C74.1 108.57 75.33 109.29 75.74 108.47C78.49 102.96 76.74 96.2899 71.62 92.8699C70.85 92.3599 70.14 93.5999 70.9 94.1099Z" fill="black"/>
<path d="M88.95 99.8499C88.8 99.8399 89.05 99.8799 88.89 99.8399C88.8 99.8199 88.71 99.7899 88.62 99.7699C88.42 99.7099 88.23 99.6499 88.03 99.5899C87.58 99.4599 87.12 99.3599 86.65 99.3599C85.57 99.3599 84.49 99.9599 84.02 100.95C83.56 101.92 83.69 103.08 84.3 103.96C84.91 104.84 85.92 105.16 86.93 105.36C86.93 104.89 86.93 104.42 86.93 103.95C85.92 104.36 85.04 105.15 84.88 106.28C84.75 107.21 85.09 108.29 85.78 108.94C86.55 109.66 87.69 109.89 88.69 109.61C89.11 109.49 89.51 109.3 89.88 109.07C90.01 108.99 90.14 108.91 90.27 108.82C90.34 108.78 90.7 108.61 90.48 108.69C90.85 108.56 91.1 108.19 90.99 107.79C90.89 107.43 90.46 107.14 90.09 107.28C89.1 107.64 88.29 108.65 87.14 108.11C86.62 107.86 86.35 107.32 86.31 106.76C86.28 106.17 86.73 105.61 87.31 105.37C87.61 105.25 87.85 105.01 87.85 104.66C87.85 104.36 87.62 104.02 87.31 103.95C86.7 103.83 85.92 103.72 85.53 103.17C85.16 102.66 85.07 101.93 85.45 101.4C86.34 100.16 87.83 101.27 88.96 101.31C89.89 101.35 89.89 99.8799 88.95 99.8499Z" fill="black"/>
<path d="M94.4301 114.71C91.6501 116.2 88.3701 116.5 85.3601 115.58C84.3601 115.28 83.9401 116.83 84.9301 117.14C88.3501 118.19 92.1001 117.8 95.2401 116.11C96.1601 115.61 95.3501 114.22 94.4301 114.71Z" fill="black"/>
<path d="M72.19 86.17C75.17 86.17 75.17 81.54 72.19 81.54C69.21 81.54 69.2 86.17 72.19 86.17Z" fill="black"/>
<path d="M71.5301 83.7099C72.5101 83.7099 72.5101 82.1899 71.5301 82.1899C70.5601 82.1899 70.5501 83.7099 71.5301 83.7099Z" fill="white"/>
<path d="M73.0601 85.08C73.4501 85.08 73.4501 84.47 73.0601 84.47C72.6601 84.47 72.6601 85.08 73.0601 85.08Z" fill="white"/>
<path d="M92.2 84.0099C95.18 84.0099 95.18 79.3799 92.2 79.3799C89.22 79.3799 89.22 84.0099 92.2 84.0099Z" fill="black"/>
<path d="M91.48 81.6098C92.46 81.6098 92.46 80.0898 91.48 80.0898C90.5 80.0898 90.5 81.6098 91.48 81.6098Z" fill="white"/>
<path d="M93.15 82.7699C93.54 82.7699 93.54 82.1599 93.15 82.1599C92.76 82.1599 92.76 82.7699 93.15 82.7699Z" fill="white"/>
<path d="M52.61 168.41C51.73 172.99 50.71 177.55 49.92 182.15C48.99 187.54 48.45 192.99 47.99 198.44C47.84 200.29 50.72 200.28 50.88 198.44C51.32 193.16 51.84 187.88 52.75 182.66C53.54 178.15 54.53 173.68 55.39 169.18C55.74 167.36 52.96 166.58 52.61 168.41Z" fill="#E66FA9"/>
<path d="M57.16 111.4C57.16 111.4 57.3 112.82 58.2 114.85C58.96 116.57 60.38 118.2 60.38 118.2L53.25 122.56C53.25 122.56 56.81 127.7 52.12 131.6C49.28 133.97 46.24 131.07 46.24 131.07C46.24 131.07 44.76 133.44 42.25 132.36C39.74 131.28 40 126.83 40 126.83C40 126.83 33.3 127.49 34.1 122.52C34.9 117.55 37.89 117.74 37.89 117.74C37.89 117.74 34.21 114.23 36.83 112.02C41.47 108.09 46.15 114.83 46.15 114.83L57.16 111.4Z" fill="white"/>
<path d="M56.67 110C53.34 111.33 49.79 112.25 46.28 112.94C45.12 113.17 45.61 114.93 46.77 114.71C50.28 114.02 53.84 113.1 57.16 111.77C57.62 111.59 57.94 111.16 57.8 110.64C57.68 110.2 57.13 109.81 56.67 110Z" fill="#A3A3A3"/>
<path d="M55.91 115.03C53.32 116.51 50.57 117.65 47.69 118.45C46.56 118.77 47.04 120.53 48.18 120.22C51.2 119.38 54.11 118.17 56.84 116.62C57.85 116.03 56.93 114.44 55.91 115.03Z" fill="#A3A3A3"/>
<path d="M59.92 117.42C57.65 119.03 55.31 120.56 53.04 122.17C52.64 122.46 52.45 122.97 52.71 123.42C52.94 123.82 53.56 124.04 53.96 123.75C56.23 122.14 58.57 120.61 60.84 119C61.24 118.71 61.43 118.2 61.17 117.75C60.94 117.35 60.32 117.13 59.92 117.42Z" fill="#A3A3A3"/>
<path d="M44.46 111.36C42.36 109.56 38.81 109.5 36.73 111.39C34.54 113.38 34.82 117.05 37.42 118.52C37.49 117.96 37.57 117.4 37.64 116.85C34.56 117.4 32.32 120.74 33.14 123.8C33.94 126.78 37.32 128.55 40.24 127.71C39.9 127.26 39.55 126.81 39.21 126.36C37.65 128.84 38.84 132.18 41.64 133.11C43.62 133.77 46.79 133.36 47.75 131.25C47.22 131.25 46.7 131.25 46.17 131.25C47.57 133.25 50.1 133.66 52.22 132.56C54.65 131.31 55.85 128.48 55.34 125.86C55.11 124.7 53.35 125.19 53.57 126.35C53.91 128.09 53.07 129.94 51.53 130.85C50.31 131.57 48.62 131.57 47.75 130.32C47.4 129.82 46.48 129.64 46.17 130.32C45.61 131.56 43.73 131.71 42.55 131.46C40.63 131.04 39.76 128.93 40.79 127.29C41.22 126.61 40.51 125.73 39.76 125.94C37.79 126.5 35.47 125.34 34.92 123.31C34.34 121.15 36.05 118.99 38.14 118.61C38.93 118.47 39.01 117.3 38.36 116.94C36.66 115.98 36.73 113.63 38.25 112.52C39.59 111.55 41.9 111.57 43.17 112.66C44.05 113.42 45.36 112.13 44.46 111.36Z" fill="#A3A3A3"/>
<path d="M127.26 125.83C126.55 125.93 126.22 126.73 126.7 127.17C127.63 128.02 128.88 129.31 129.74 130.77C131.24 133.35 132.91 135.14 136.25 134.47C140.66 133.59 140.9 127.51 135.73 126.13C132.69 125.31 129.28 125.55 127.26 125.83Z" fill="#A8DEEC"/>
<path d="M45.62 59.6701C46.07 60.1901 45.78 60.8801 45.15 60.8301C43.93 60.7301 42.18 60.6801 40.61 60.9901C37.84 61.5401 34.87 60.8201 33.5 58.9501C30.99 55.5201 35.52 52.1501 40.15 54.6801C42.88 56.1701 44.35 58.2001 45.62 59.6701Z" fill="#A8DEEC"/>
<path d="M47.51 92.25C47.97 92.15 48.04 91.72 47.63 91.44C46.72 90.82 45.26 90.08 43.27 89.75C40.67 89.32 37.15 89.82 35.75 92.22C33.69 95.75 38.31 98.28 40.8 97.04C43.08 95.9 43.17 94.29 44.88 93.22C45.92 92.57 46.8 92.4 47.51 92.25Z" fill="#A8DEEC"/>
<path d="M129.75 62.8301C129.11 63.0801 128.64 62.6401 128.87 62.0101C129.39 60.6201 130.43 58.6701 132.49 56.7801C135.18 54.3201 139.82 52.1801 143.67 53.7901C149.35 56.1601 146.53 62.0201 142.45 62.5401C138.7 63.0101 137.07 62.1401 134.07 62.2401C132.23 62.3101 130.73 62.4501 129.75 62.8301Z" fill="#A8DEEC"/>
<path d="M135.74 128.88C135.81 128.9 135.88 128.93 135.96 128.95C136.04 128.98 135.82 128.88 135.93 128.94C135.97 128.96 136 128.98 136.04 129C136.11 129.04 136.17 129.07 136.24 129.11C136.27 129.13 136.3 129.15 136.33 129.17C136.35 129.18 136.36 129.19 136.38 129.21C136.42 129.24 136.4 129.23 136.32 129.17C136.34 129.22 136.44 129.27 136.48 129.31C136.54 129.36 136.59 129.42 136.64 129.47C136.66 129.5 136.69 129.52 136.71 129.55C136.72 129.57 136.74 129.58 136.75 129.6C136.78 129.64 136.77 129.62 136.71 129.54C136.72 129.59 136.81 129.68 136.84 129.73C136.88 129.79 136.92 129.86 136.95 129.93C136.97 129.96 136.98 129.99 137 130.02C137.05 130.12 137.01 130.04 136.99 129.99C137.04 130.14 137.09 130.27 137.13 130.42C137.14 130.49 137.15 130.56 137.17 130.62C137.12 130.44 137.16 130.54 137.16 130.6C137.16 130.64 137.17 130.68 137.17 130.72C137.17 130.79 137.17 130.86 137.17 130.93C137.17 130.97 137.16 131.01 137.16 131.05C137.16 131.02 137.17 130.98 137.17 130.95C137.17 130.98 137.16 131 137.16 131.03C137.1 131.38 137.25 131.79 137.64 131.88C137.97 131.96 138.42 131.78 138.49 131.4C138.63 130.58 138.48 129.74 138.04 129.03C137.61 128.33 136.94 127.79 136.15 127.56C135.81 127.46 135.39 127.68 135.31 128.04C135.18 128.4 135.37 128.77 135.74 128.88Z" fill="#80C8DE"/>
<path d="M34.34 55.67C33.62 56.64 33.94 58.06 34.74 58.88C34.99 59.14 35.46 59.15 35.71 58.88C35.96 58.6 35.98 58.18 35.71 57.91C35.67 57.87 35.63 57.83 35.6 57.79C35.54 57.72 35.64 57.84 35.64 57.85C35.62 57.83 35.61 57.8 35.59 57.78C35.53 57.69 35.48 57.6 35.43 57.5C35.42 57.48 35.41 57.46 35.4 57.44C35.49 57.62 35.44 57.54 35.42 57.49C35.4 57.44 35.39 57.39 35.37 57.35C35.34 57.24 35.32 57.13 35.3 57.02C35.31 57.08 35.32 57.14 35.32 57.2C35.3 57.05 35.3 56.89 35.32 56.74C35.31 56.8 35.3 56.86 35.3 56.92C35.32 56.79 35.35 56.68 35.39 56.56C35.42 56.48 35.32 56.72 35.37 56.62C35.38 56.59 35.4 56.56 35.41 56.53C35.44 56.47 35.48 56.42 35.52 56.36C35.62 56.23 35.63 55.98 35.59 55.83C35.55 55.67 35.42 55.5 35.27 55.42C35.11 55.34 34.92 55.29 34.74 55.35C34.57 55.41 34.46 55.52 34.34 55.67Z" fill="#80C8DE"/>
<path d="M143.8 57.4801C143.81 57.6301 143.81 57.7801 143.79 57.9201C143.8 57.8601 143.81 57.8001 143.81 57.7401C143.78 57.9101 143.74 58.0701 143.68 58.2201C143.7 58.1701 143.73 58.1101 143.75 58.0601C143.7 58.1901 143.63 58.3101 143.56 58.4201C143.54 58.4501 143.52 58.5001 143.49 58.5201C143.51 58.4901 143.54 58.4601 143.56 58.4301C143.55 58.4501 143.53 58.4601 143.52 58.4801C143.48 58.5301 143.43 58.5801 143.38 58.6301C143.33 58.6801 143.28 58.7301 143.23 58.7701C143.19 58.8101 143.1 58.8501 143.27 58.7401C143.24 58.7601 143.21 58.7801 143.18 58.8001C143.06 58.8801 142.94 58.9501 142.8 59.0001C142.85 58.9801 142.91 58.9501 142.96 58.9301C142.8 58.9901 142.64 59.0401 142.47 59.0601C142.53 59.0501 142.59 59.0401 142.65 59.0401C142.51 59.0601 142.38 59.0601 142.24 59.0501C142.07 59.0401 141.87 59.1401 141.75 59.2501C141.63 59.3701 141.54 59.5601 141.55 59.7401C141.57 60.1401 141.85 60.3901 142.24 60.4301C143.81 60.5701 145.33 59.0401 145.18 57.4701C145.16 57.2801 145.12 57.1201 144.98 56.9801C144.86 56.8601 144.67 56.7701 144.49 56.7801C144.15 56.8001 143.76 57.0901 143.8 57.4801Z" fill="#80C8DE"/>
<path d="M37.71 91.68C37.23 91.92 36.91 92.35 36.72 92.83C36.55 93.26 36.53 93.79 36.69 94.22C36.75 94.39 36.84 94.54 37.01 94.63C37.16 94.72 37.37 94.75 37.54 94.7C37.71 94.65 37.87 94.54 37.95 94.38C38.03 94.22 38.08 94.02 38.02 93.85C37.99 93.76 37.97 93.67 37.95 93.57C37.96 93.63 37.97 93.69 37.97 93.75C37.95 93.62 37.96 93.5 37.97 93.37C37.96 93.43 37.95 93.49 37.95 93.55C37.97 93.42 38.01 93.28 38.06 93.16C38.04 93.21 38.01 93.27 37.99 93.32C38.04 93.2 38.11 93.09 38.18 92.99C38.14 93.04 38.11 93.08 38.07 93.13C38.14 93.04 38.23 92.95 38.32 92.88C38.27 92.92 38.23 92.95 38.18 92.99C38.25 92.94 38.32 92.89 38.4 92.85C38.55 92.78 38.67 92.59 38.72 92.44C38.77 92.28 38.74 92.06 38.65 91.91C38.44 91.6 38.05 91.51 37.71 91.68Z" fill="#80C8DE"/>
<path fill-rule="evenodd" clip-rule="evenodd" d="M134.08 98.4802C134.08 98.4802 130.01 90.0102 133.1 80.3102C133.29 79.5502 133.51 78.7702 133.76 77.9802C139.83 58.9902 170.83 53.0402 182.69 74.7702C194.55 96.4702 170.07 123.62 144.86 110.48C143.59 109.82 142 108.75 140.38 107.26C137.95 108.34 133.94 109.17 129.48 106.25C128.54 105.63 128.6 104.22 129.6 103.71C132.06 102.43 134.08 98.4802 134.08 98.4802Z" fill="white"/>
<path d="M156.84 105.44C160.861 105.44 164.12 102.181 164.12 98.1599C164.12 94.1393 160.861 90.8799 156.84 90.8799C152.819 90.8799 149.56 94.1393 149.56 98.1599C149.56 102.181 152.819 105.44 156.84 105.44Z" fill="#E8E8E8"/>
<path d="M164.963 73.9666L157.238 72.6331L153.193 96.0659L160.918 97.3995L164.963 73.9666Z" fill="#E8E8E8"/>
<path d="M161.1 77.2299C163.265 77.2299 165.02 75.4749 165.02 73.3099C165.02 71.1449 163.265 69.3899 161.1 69.3899C158.935 69.3899 157.18 71.1449 157.18 73.3099C157.18 75.4749 158.935 77.2299 161.1 77.2299Z" fill="#E8E8E8"/>
<path d="M156.81 102.55C159.24 102.55 161.21 100.58 161.21 98.15C161.21 95.7199 159.24 93.75 156.81 93.75C154.38 93.75 152.41 95.7199 152.41 98.15C152.41 100.58 154.38 102.55 156.81 102.55Z" fill="#EE2737"/>
<path d="M157.05 96.94C156.04 96.77 155.37 95.81 155.54 94.8L158.22 79.25C158.39 78.24 159.35 77.57 160.36 77.74C161.37 77.91 162.04 78.87 161.87 79.88L159.19 95.43C159.01 96.44 158.05 97.11 157.05 96.94Z" fill="#EE2737"/>
<path d="M156.99 88.9099L154.51 88.4799L154.73 87.1799L157.21 87.6099C157.57 87.6699 157.81 88.0099 157.75 88.3699C157.68 88.7299 157.34 88.9699 156.99 88.9099Z" fill="black"/>
<path d="M157.72 84.6599L155.24 84.2299L155.46 82.9299L157.94 83.3599C158.3 83.4199 158.54 83.7599 158.48 84.1199C158.42 84.4899 158.08 84.7299 157.72 84.6599Z" fill="black"/>
<path d="M158.45 80.4199L155.97 79.9899L156.19 78.6899L158.67 79.1199C159.03 79.1799 159.27 79.5199 159.21 79.8799C159.15 80.2399 158.81 80.4799 158.45 80.4199Z" fill="black"/>
<path d="M159.18 76.18L156.7 75.75L156.92 74.45L159.4 74.88C159.76 74.94 160 75.2799 159.94 75.6399C159.88 75.9999 159.54 76.24 159.18 76.18Z" fill="black"/>
</g>
<defs>
<clipPath id="clip0_298_150">
<rect width="200" height="200" fill="white"/>
</clipPath>
</defs>
</svg>
