<svg width="200" height="200" viewBox="0 0 200 200" fill="none" xmlns="http://www.w3.org/2000/svg">
<g clip-path="url(#clip0_296_20)">
<path d="M176.6 200.12L21.87 199.38C21.87 199.38 18.63 114.98 51.87 100.47C80.05 88.1699 165.2 118.43 172.3 143.11C179.4 167.79 176.6 200.12 176.6 200.12Z" fill="#E7E6E6"/>
<path d="M175.89 153.83C170.24 124.02 165.56 87.2999 97.67 88.0099C29.78 88.7199 36.91 133.85 37.1 143.11C37.45 160.46 48.18 181.64 57.89 186.29C66.99 190.64 84.48 195.16 103.84 195.2C129.43 195.27 181.76 184.8 175.89 153.83Z" fill="#E7E6E6"/>
<path d="M97.67 88.0099C82.92 88.1699 81.9 88.1999 71.95 91.7399C71.95 91.7399 62.98 96.4999 64.33 104.78C66.02 115.16 75.53 131.3 86.91 136.85C92.46 139.55 102.64 127.56 102.64 127.56C107.2 131.99 115.9 138.38 119.97 133.61C126.03 126.51 129.23 101.23 128.61 91.2399C119.81 89.2799 108.81 87.8899 97.67 88.0099Z" fill="#A3A3A3"/>
<path d="M72.79 86.8398C72.79 86.8398 68.7 90.1298 68.97 91.9098C70.53 102.13 84.24 128.3 102.65 127.56C120.51 126.84 119.98 113.53 119.98 113.53L72.79 86.8398Z" fill="#F5A1AC"/>
<path d="M66.19 79.58C66.19 79.58 64.5 68.91 70.38 59.82C76.64 50.15 86.87 46.43 101.94 48.6C117.02 50.77 123.14 61.73 125.7 71.52L84.56 78.06L87.2 95.54L77.48 95.38L66.19 79.58Z" fill="black"/>
<path d="M75.49 84.16C75.49 84.16 74.03 77.4 69.87 76.58C65.72 75.76 64.18 78.53 64.72 83.31C65.25 88.09 68.73 92.78 73.64 91.54C73.64 91.54 75.5 98.33 77.95 104.01C81.16 111.44 84.78 118.57 96.12 122.85C97.99 123.56 104.1 123.31 104.1 123.31C104.1 123.31 118.11 123.86 125.48 109.51C132.85 95.16 124.85 71.56 124.85 71.56C124.85 71.56 122.2 63.79 116.49 61.38C110.78 58.97 111.68 62.82 107.94 64.38C104.2 65.94 95.79 62.68 92.8 60.26C89.8 57.83 85.06 58.6 83.13 61.14C81.19 63.68 81.65 67.27 82.98 69.99C84.32 72.71 80.68 75.2 80.54 76.83C80.41 78.46 81.77 84.62 83.27 90.19C84.77 95.76 83.29 95.71 80.35 95.09C77.42 94.46 77.52 90.96 75.49 84.16Z" fill="#F5A1AC"/>
<path d="M99.37 69.3499C99.35 69.4099 99.32 69.4799 99.31 69.5399C99.37 69.2699 99.35 69.4499 99.3 69.5399C99.23 69.6799 99.14 69.8099 99.06 69.9399C98.97 70.0699 99 69.9899 99.08 69.9199C99.03 69.9699 98.99 70.0299 98.94 70.0799C98.83 70.1999 98.71 70.3099 98.59 70.4199C98.52 70.4799 98.45 70.5399 98.38 70.5999C98.47 70.5199 98.51 70.5099 98.39 70.5899C98.26 70.6799 98.12 70.7799 97.98 70.8599C97.71 71.0299 97.44 71.1699 97.15 71.3099C97.11 71.3299 96.91 71.3999 97.09 71.3399C97.27 71.2699 97.07 71.3499 97.03 71.3599C96.85 71.4199 96.67 71.4899 96.49 71.5399C96.3 71.5899 96.11 71.6399 95.92 71.6799C95.83 71.6999 95.75 71.7099 95.66 71.7299C95.51 71.7599 95.82 71.7199 95.57 71.7399C95.37 71.7499 95.18 71.7599 94.98 71.7599C94.89 71.7599 94.81 71.7599 94.72 71.7499C94.7 71.7499 94.43 71.7299 94.58 71.7399C94.75 71.7599 94.41 71.7099 94.38 71.6999C94.3 71.6799 94.21 71.6599 94.13 71.6399C94.03 71.6099 93.92 71.5799 93.82 71.5499C93.78 71.5399 93.51 71.4299 93.72 71.5199C93.07 71.2299 92.23 71.3099 91.87 72.0099C91.56 72.5999 91.66 73.5599 92.36 73.8599C94.35 74.7399 96.48 74.5699 98.44 73.6899C100 72.9899 101.48 71.7499 101.99 70.0699C102.2 69.3899 101.74 68.5599 101.04 68.3999C100.31 68.2399 99.59 68.6299 99.37 69.3499Z" fill="black"/>
<path d="M119.16 69.62C119.02 69.71 118.88 69.79 118.74 69.87C118.69 69.89 118.24 70.1 118.51 69.99C118.21 70.12 117.89 70.21 117.57 70.28C117.51 70.29 117.01 70.36 117.32 70.33C117.16 70.35 116.99 70.36 116.83 70.36C116.67 70.36 116.5 70.36 116.34 70.35C116.26 70.34 116.18 70.34 116.09 70.33C116.23 70.35 116.25 70.35 116.16 70.34C115.88 70.28 115.59 70.22 115.32 70.13C115.26 70.11 114.82 69.92 115.1 70.05C114.96 69.98 114.82 69.92 114.68 69.84C114.54 69.77 114.41 69.68 114.28 69.6C114.23 69.57 113.86 69.27 114.09 69.47C113.85 69.27 113.63 69.06 113.42 68.82C112.95 68.29 111.98 68.3 111.5 68.82C110.98 69.39 110.99 70.17 111.5 70.74C113.77 73.28 117.68 73.79 120.54 71.96C121.14 71.58 121.43 70.74 121.03 70.11C120.63 69.51 119.8 69.21 119.16 69.62Z" fill="black"/>
<path d="M104.33 115.23C107.72 116.23 111.41 115.81 114.5 114.12C115.4 113.63 114.6 112.25 113.7 112.74C110.97 114.24 107.74 114.57 104.76 113.69C103.76 113.4 103.34 114.94 104.33 115.23Z" fill="black"/>
<path d="M68.66 82.07C68.71 82.07 68.77 82.08 68.68 82.07C68.74 82.08 68.81 82.09 68.87 82.11C68.92 82.12 68.97 82.14 69.02 82.16C69.14 82.2 68.93 82.11 69.05 82.17C69.16 82.22 69.26 82.28 69.36 82.34C69.4 82.37 69.45 82.4 69.49 82.43C69.4 82.36 69.53 82.47 69.54 82.48C69.73 82.65 69.82 82.76 69.91 82.9C69.98 83 70.04 83.11 70.1 83.22C70.13 83.27 70.15 83.32 70.17 83.37C70.23 83.5 70.12 83.21 70.2 83.44C70.59 84.54 70.43 85.73 70.28 86.88C70.22 87.31 70.69 87.68 71.08 87.68C71.56 87.68 71.82 87.31 71.88 86.88C72.07 85.44 72.19 83.96 71.57 82.6C71.04 81.44 69.95 80.58 68.66 80.49C68.23 80.46 67.86 80.88 67.86 81.29C67.86 81.73 68.23 82.04 68.66 82.07Z" fill="black"/>
<path d="M103.88 88.37C104.14 89.66 105.28 90.63 106.57 90.77C107.87 90.91 109.1 89.91 109.4 88.67C109.5 88.27 109.27 87.79 108.84 87.69C108.43 87.6 107.96 87.81 107.86 88.25C107.85 88.31 107.83 88.36 107.82 88.41C107.81 88.43 107.75 88.59 107.8 88.47C107.85 88.36 107.78 88.51 107.77 88.53C107.74 88.58 107.71 88.63 107.68 88.68C107.67 88.7 107.66 88.71 107.65 88.73C107.6 88.8 107.61 88.79 107.67 88.71C107.65 88.75 107.6 88.79 107.58 88.82C107.55 88.85 107.51 88.89 107.48 88.92C107.45 88.95 107.33 89.09 107.47 88.94C107.41 89 107.31 89.05 107.23 89.09C107.21 89.1 107.18 89.12 107.15 89.13C107.1 89.16 107.12 89.15 107.21 89.11C107.18 89.14 107.11 89.15 107.08 89.16C107.04 89.17 106.99 89.19 106.94 89.2C106.91 89.21 106.89 89.21 106.86 89.22C106.8 89.23 106.82 89.23 106.93 89.21C106.92 89.23 106.8 89.22 106.78 89.22C106.75 89.22 106.54 89.2 106.63 89.21C106.73 89.23 106.54 89.19 106.52 89.18C106.46 89.17 106.41 89.15 106.36 89.13C106.33 89.12 106.19 89.06 106.3 89.11C106.41 89.16 106.26 89.09 106.24 89.08C106.15 89.03 106.06 88.97 105.97 88.92C105.89 88.87 106.08 89.02 105.97 88.92C105.93 88.88 105.88 88.84 105.84 88.8C105.78 88.74 105.69 88.67 105.65 88.59C105.74 88.76 105.67 88.61 105.64 88.57C105.61 88.52 105.58 88.47 105.55 88.42C105.53 88.38 105.51 88.33 105.49 88.29C105.44 88.2 105.54 88.44 105.49 88.3C105.45 88.19 105.42 88.08 105.4 87.97C105.32 87.56 104.81 87.29 104.42 87.41C104.01 87.53 103.79 87.93 103.88 88.37Z" fill="black"/>
<path d="M113.59 87.6399C113.4 84.7799 112.62 82.0199 111.83 79.28C111.54 78.3 110.01 78.72 110.29 79.7C111.05 82.3 111.82 84.9199 112 87.6399C112.03 88.0699 112.35 88.4399 112.8 88.4399C113.2 88.4299 113.62 88.0699 113.59 87.6399Z" fill="black"/>
<path d="M107.94 88.82C108.3 89.43 108.67 90 109.26 90.42C109.56 90.63 109.91 90.82 110.27 90.9C110.71 91 111.18 90.95 111.61 90.86C112.29 90.72 112.95 90.2 113.27 89.58C113.6 88.93 113.6 88.25 113.58 87.54C113.57 87.12 113.22 86.72 112.78 86.74C112.36 86.76 111.97 87.09 111.98 87.54C111.99 87.81 112 88.08 111.98 88.35C111.98 88.41 111.98 88.48 111.96 88.53C111.99 88.44 111.98 88.41 111.96 88.52C111.94 88.62 111.92 88.74 111.87 88.83C111.96 88.66 111.87 88.82 111.84 88.86C111.81 88.91 111.77 88.96 111.74 89.01C111.85 88.86 111.73 89.01 111.7 89.04C111.66 89.09 111.61 89.12 111.56 89.17C111.66 89.08 111.58 89.15 111.52 89.19C111.48 89.22 111.43 89.24 111.38 89.27C111.35 89.28 111.32 89.3 111.3 89.31C111.39 89.27 111.4 89.27 111.35 89.29C111.29 89.3 111.23 89.33 111.17 89.34C111.11 89.35 111.04 89.36 111.14 89.35C111.06 89.36 110.99 89.37 110.91 89.37C110.83 89.37 110.76 89.38 110.68 89.37C110.48 89.37 110.77 89.41 110.6 89.35C110.57 89.34 110.37 89.27 110.53 89.33C110.46 89.3 110.4 89.27 110.34 89.23C110.23 89.17 110.12 89.09 110.01 89.02C109.93 88.97 110.09 89.1 109.99 89C109.94 88.95 109.9 88.91 109.85 88.87C109.81 88.82 109.77 88.77 109.73 88.73C109.85 88.86 109.73 88.72 109.7 88.69C109.55 88.48 109.42 88.25 109.29 88.02C109.08 87.66 108.56 87.5 108.2 87.73C107.87 87.97 107.71 88.44 107.94 88.82Z" fill="black"/>
<path d="M122.97 89.0701C122.17 90.1201 121.38 91.1801 120.58 92.2301C119.93 93.0901 119.02 93.99 118.88 95.1C118.73 96.27 119.3 97.58 119.61 98.69C119.97 99.99 120.32 101.29 120.68 102.58C120.94 103.52 122.4 103.12 122.14 102.18C121.83 101.04 121.52 99.9101 121.21 98.7701C121.05 98.2001 120.9 97.6301 120.74 97.0701C120.6 96.5501 120.3 95.8801 120.37 95.3401C120.43 94.8201 120.84 94.3801 121.14 93.9801C121.49 93.5201 121.84 93.06 122.19 92.6C122.89 91.68 123.58 90.7601 124.28 89.8301C124.86 89.0601 123.55 88.3001 122.97 89.0701Z" fill="black"/>
<path d="M90.37 91.0799C91.33 91.9099 92.35 92.6599 93.37 93.4099C93.89 93.7999 94.41 94.1799 94.93 94.5799C95.31 94.8799 96.04 95.2999 96.26 95.7399C96.5 96.2199 96.15 97.1299 96.06 97.6199C95.94 98.2799 95.81 98.9499 95.69 99.6099C95.43 101 95.17 102.39 94.92 103.78C94.75 104.73 96.21 105.14 96.38 104.18C96.65 102.67 96.94 101.17 97.22 99.6599C97.36 98.9299 97.49 98.1899 97.63 97.4599C97.76 96.7699 97.97 96.0099 97.74 95.3199C97.54 94.7399 97.04 94.3499 96.58 93.9699C96.06 93.5399 95.52 93.1199 94.97 92.7199C93.79 91.8299 92.57 90.9799 91.45 90.0099C90.71 89.3799 89.63 90.4399 90.37 91.0799Z" fill="black"/>
<path d="M106.02 105.16C106.99 105.42 108.04 105.49 109.04 105.42C110.09 105.35 111.14 105.15 112.07 104.65C112.45 104.45 112.57 103.92 112.36 103.56C112.13 103.17 111.65 103.07 111.27 103.27C111.23 103.29 111.19 103.31 111.15 103.33C111.13 103.34 110.96 103.42 111.06 103.38C111.14 103.34 111 103.4 110.99 103.41C110.94 103.43 110.9 103.44 110.85 103.46C110.65 103.53 110.44 103.59 110.23 103.64C110.01 103.69 109.79 103.73 109.56 103.77C109.48 103.78 109.63 103.76 109.49 103.78C109.44 103.79 109.38 103.79 109.33 103.8C109.21 103.81 109.08 103.82 108.96 103.83C108.5 103.86 108.03 103.86 107.57 103.82C107.47 103.81 107.36 103.8 107.26 103.79C107.2 103.78 107.09 103.77 107.21 103.78C107.16 103.77 107.11 103.76 107.06 103.76C106.85 103.72 106.64 103.68 106.44 103.62C106.02 103.51 105.57 103.76 105.46 104.18C105.35 104.59 105.6 105.04 106.02 105.16Z" fill="black"/>
<path d="M103.3 95.6501C103.47 95.9501 103.63 96.2601 103.76 96.5701C103.74 96.5301 103.73 96.4901 103.71 96.4501C103.81 96.6801 103.89 96.9101 103.96 97.1401C104.04 97.3901 104.31 97.5801 104.58 97.4901C104.83 97.4101 105.02 97.1401 104.93 96.8701C104.74 96.2701 104.48 95.6801 104.16 95.1301C104.03 94.9001 103.7 94.8001 103.47 94.9501C103.25 95.1001 103.16 95.4001 103.3 95.6501Z" fill="black"/>
<path d="M111.25 95.05C111.26 95.22 111.25 95.39 111.23 95.55C111.24 95.51 111.24 95.46 111.25 95.42C111.22 95.66 111.15 95.89 111.06 96.11C111.08 96.07 111.09 96.03 111.11 95.99C111.09 96.03 111.07 96.08 111.05 96.12C110.99 96.24 110.96 96.37 111 96.51C111.03 96.63 111.12 96.75 111.23 96.81C111.35 96.87 111.49 96.9 111.62 96.86C111.74 96.82 111.86 96.75 111.92 96.63C112.16 96.14 112.29 95.6 112.26 95.05C112.25 94.92 112.21 94.79 112.11 94.69C112.02 94.6 111.88 94.54 111.75 94.54C111.5 94.55 111.24 94.76 111.25 95.05Z" fill="black"/>
<path d="M107.36 94.8999C107.38 94.9799 107.39 95.0599 107.4 95.1399C107.39 95.0999 107.39 95.0499 107.38 95.0099C107.43 95.4199 107.45 95.8299 107.53 96.2399C107.55 96.3599 107.66 96.4799 107.76 96.5399C107.87 96.5999 108.03 96.6299 108.15 96.5899C108.27 96.5499 108.39 96.4699 108.45 96.3599C108.52 96.2299 108.53 96.1099 108.5 95.9699C108.48 95.8899 108.47 95.8099 108.46 95.7299C108.47 95.7699 108.47 95.8199 108.48 95.8599C108.43 95.4499 108.41 95.0399 108.33 94.6299C108.31 94.5099 108.2 94.3899 108.1 94.3299C107.99 94.2699 107.83 94.2399 107.71 94.2799C107.59 94.3199 107.47 94.3999 107.41 94.5099C107.35 94.6299 107.34 94.7599 107.36 94.8999Z" fill="black"/>
<path d="M102.16 99.3201C102.38 102.4 114.9 102.43 114.39 98.3401C113.97 95.0001 101.85 95.1401 102.16 99.3201Z" fill="black"/>
<path d="M111.96 100.95C111.85 99.7101 110.4 97.4701 107.46 97.0801C105.3 97.6101 103.26 98.6601 102.47 100.01C103.75 101.59 108.85 101.99 111.96 100.95Z" fill="#EE445C"/>
<path d="M102.62 100.24C103.67 98.48 106.26 97.62 108.19 97.55C109.28 97.51 110.36 97.61 111.41 97.92C112.16 98.14 113.19 98.58 113.44 99.38C113.84 100.68 115.88 100.12 115.48 98.82C114.62 96.01 110.91 95.39 108.41 95.43C105.66 95.48 102.3 96.68 100.81 99.17C100.1 100.35 101.92 101.41 102.62 100.24Z" fill="black"/>
<path d="M95.33 123.52C100.56 124.64 106.24 124.29 111.38 122.86C116.62 121.4 120.85 118.3 124.1 113.95C127.88 108.89 129.76 102.63 130.08 96.3599C130.41 89.9099 129.03 83.4199 127.57 77.1699C126.39 72.0999 124.92 66.7299 122.14 62.2899C121.34 61.0099 119.3 62.1899 120.1 63.4799C122.5 67.3099 123.79 71.8599 124.9 76.2099C126.25 81.4899 127.43 86.9599 127.71 92.4099C128.27 103.3 123.6 116.18 112.44 120.06C107.28 121.85 101.31 122.4 95.95 121.25C94.48 120.93 93.85 123.2 95.33 123.52Z" fill="black"/>
<path d="M97.93 75.6999C97.93 75.6999 93.3 75.4699 92.06 76.6899C90.82 77.9099 90.9 81.0799 94.25 81.1499C97.6 81.2199 101.89 81.0899 102.58 79.6099C103.27 78.1299 103.48 75.7499 97.93 75.6999Z" fill="white"/>
<path d="M118.29 75.2C118.29 75.2 113.84 74.98 112.64 76.14C111.44 77.3 111.53 80.32 114.75 80.39C117.97 80.46 122.1 80.34 122.76 78.94C123.43 77.53 123.63 75.26 118.29 75.2Z" fill="white"/>
<path d="M97.38 79.2199C98.85 79.2199 98.86 76.9299 97.38 76.9299C95.91 76.9299 95.91 79.2199 97.38 79.2199Z" fill="black"/>
<path d="M117.95 78.9399C119.42 78.9399 119.43 76.6499 117.95 76.6499C116.48 76.6499 116.47 78.9399 117.95 78.9399Z" fill="black"/>
<path d="M101.54 127.86C106.56 144.37 107.32 161.98 107.28 179.12C107.27 183.86 107.17 188.6 107.04 193.33C107 194.81 109.29 194.8 109.33 193.33C109.81 175.96 109.88 158.39 106.98 141.2C106.18 136.49 105.14 131.82 103.75 127.24C103.32 125.84 101.11 126.44 101.54 127.86Z" fill="#A3A3A3"/>
<path d="M42.33 95.8599C42.46 94.8399 42.89 93.7899 43.83 93.2699C44.94 92.6599 46.31 92.8099 47.52 92.8799C48.81 92.9599 50.21 93.0799 51.15 92.0099C52.02 91.0299 52.53 89.7099 52.73 88.4299C52.81 87.9499 52.61 87.4599 52.1 87.3199C51.67 87.1999 51.06 87.4699 50.99 87.9499C50.89 88.5899 50.72 89.2299 50.44 89.8099C50.22 90.2499 49.93 90.8899 49.43 91.0599C48.87 91.2499 48.1 91.0999 47.52 91.0699C46.79 91.0199 46.06 90.9699 45.34 91.0299C44.1 91.1399 42.83 91.5199 41.95 92.4399C41.06 93.3699 40.69 94.5999 40.53 95.8499C40.47 96.3299 40.99 96.7499 41.43 96.7499C41.96 96.7599 42.26 96.3499 42.33 95.8599Z" fill="black"/>
<path d="M38.33 89.93C38.48 89.18 38.96 88.74 39.66 88.56C40.39 88.37 41.25 88.43 42.06 88.37C43.02 88.3 43.96 88.09 44.72 87.46C45.5 86.83 45.92 85.85 45.93 84.85C45.94 83.69 44.13 83.69 44.12 84.85C44.11 85.49 43.7 86.1 43.13 86.33C42.4 86.62 41.63 86.57 40.82 86.6C39.94 86.64 39.05 86.73 38.26 87.16C37.4 87.62 36.76 88.48 36.57 89.44C36.47 89.92 36.71 90.42 37.2 90.55C37.67 90.68 38.24 90.41 38.33 89.93Z" fill="black"/>
<path d="M15.5 155.47C15.13 154.61 15.53 153.57 15.75 152.72C16.02 151.66 16.22 150.59 15.96 149.51C15.68 148.36 15.03 147.35 14.88 146.15C14.75 145.06 15.02 144.01 15.9 143.31C16.81 142.58 15.52 141.31 14.62 142.03C13.65 142.81 13.16 144.01 13.06 145.23C12.94 146.68 13.49 147.99 14 149.32C14.47 150.56 14.17 151.6 13.86 152.84C13.55 154.06 13.44 155.2 13.95 156.39C14.4 157.44 15.96 156.52 15.5 155.47Z" fill="black"/>
<path d="M8.49001 149.9C7.82001 152.01 7.84001 154.34 8.55001 156.44C8.71001 156.9 9.17001 157.21 9.66001 157.07C10.11 156.95 10.45 156.42 10.29 155.96C9.67001 154.12 9.64001 152.23 10.23 150.38C10.38 149.91 10.06 149.39 9.60001 149.27C9.11001 149.14 8.63001 149.44 8.49001 149.9Z" fill="black"/>
<path d="M187.08 145.92C185.32 147.77 184.49 150.01 185.43 152.48C185.89 153.67 186.42 154.8 186.56 156.08C186.68 157.18 186.73 158.89 185.97 159.8C185.22 160.68 186.49 161.97 187.25 161.08C188.85 159.19 188.64 155.96 187.88 153.76C187.5 152.65 186.78 151.53 186.79 150.33C186.8 149.11 187.55 148.05 188.36 147.2C189.17 146.36 187.89 145.08 187.08 145.92Z" fill="black"/>
<path d="M190.29 153.8C191.06 155.64 191.08 157.53 190.34 159.38C190.16 159.82 190.53 160.39 190.97 160.49C191.49 160.61 191.89 160.33 192.08 159.86C192.91 157.8 192.89 155.37 192.03 153.32C191.84 152.87 191.43 152.55 190.92 152.69C190.5 152.81 190.1 153.35 190.29 153.8Z" fill="black"/>
<path d="M109.13 163.63C112.51 166.8 99.46 164.16 96.86 163.51C92.35 162.35 89.36 160.65 87.59 162.37C83.09 167.79 94.49 172.25 101.6 172.97C101.6 172.97 99.12 173.34 93.11 173.69C88.71 173.95 85.19 172.2 84.23 175.18C82.79 179.63 87.9 180.63 87.9 180.63C83.88 183.69 90.18 187.4 93.94 187.63C93.94 187.63 91.34 188 91.47 190.11C92.43 195.74 109.99 194.04 115.56 191.13C122.38 187.57 137.6 186.69 142.88 186.51L146.63 158.64C146.63 158.64 132.95 164.32 128.33 164.44C122.87 164.58 121.54 161.84 118.46 159.5C115.86 157.53 113.18 156.31 110.27 154.7C107.36 153.09 105.76 150.95 103.85 151.64C98 155.04 106.42 161.76 109.13 163.63Z" fill="#F5A1AC"/>
<path d="M103.29 179.47C98.38 181.09 93.11 181.3 88.09 180.05C86.99 179.78 86.51 181.48 87.62 181.75C92.93 183.07 98.55 182.88 103.76 181.17C104.83 180.82 104.37 179.11 103.29 179.47Z" fill="black"/>
<path d="M104.77 186.04C101.23 187.47 97.2 187.82 93.47 186.93C92.36 186.67 91.89 188.37 93 188.63C97.01 189.59 101.41 189.28 105.24 187.74C105.68 187.56 106 187.15 105.86 186.65C105.74 186.24 105.22 185.86 104.77 186.04Z" fill="black"/>
<path d="M173.26 140.41C173.26 140.41 183.47 161.95 166.91 179.64C158.41 188.72 129.07 190.35 129.07 190.35L124.97 161.79L173.26 140.41Z" fill="#E7E6E6"/>
<path d="M135.9 189.8L131.13 158.72L124.99 161.79L129.09 190.35C129.08 190.35 131.84 190.23 135.9 189.8Z" fill="#A3A3A3"/>
<path d="M125.16 162.57C133.46 158.21 142.13 154.58 150.68 150.74C151.72 150.27 150.82 148.75 149.79 149.21C141.24 153.05 132.57 156.68 124.27 161.04C123.26 161.58 124.15 163.1 125.16 162.57Z" fill="black"/>
<path d="M169.52 128.53C173.9 139.51 177 151.84 174.72 163.68C174.21 166.31 173.39 168.81 172.43 171.31C171.39 174.02 170.17 176.43 168.01 178.42C164.48 181.68 160.09 183.64 155.39 184.52C153.69 184.84 151.98 184.99 150.27 185.18C149.15 185.3 147.94 185.36 147.03 186.1C145.88 187.02 147.51 188.63 148.65 187.72C148.51 187.83 148.47 187.78 148.7 187.74C148.9 187.7 149.1 187.64 149.3 187.6C149.88 187.49 150.47 187.45 151.05 187.39C152.8 187.21 154.56 187.02 156.29 186.68C160.99 185.76 165.38 183.74 169.01 180.61C173.27 176.93 175.34 171.22 176.6 165.86C177.9 160.35 178.01 154.62 177.35 149.02C176.49 141.76 174.43 134.71 171.73 127.94C171.19 126.56 168.97 127.15 169.52 128.53Z" fill="#A3A3A3"/>
<path d="M128.43 166.82C126.56 169.12 130.16 168.14 132.19 167.8C135.22 167.3 136.24 167.27 140.65 165.78C145.06 164.29 147.92 162.37 149.81 163.95C151.7 165.53 151.27 167.57 150 169.06C148.73 170.55 142.59 174.91 136.61 175.57C136.61 175.57 139.11 175.75 145.13 175.66C149.53 175.59 152.92 173.58 154.09 176.49C155.84 180.83 150.82 182.2 150.82 182.2C150.82 182.2 152.96 183.43 152 185.66C151.19 187.54 147.69 189.08 145.3 189.63C145.3 189.63 147.91 189.8 147.94 191.92C147.97 194.1 143.97 196.5 137.05 196.53C133.76 196.55 128.85 196.21 125.19 195.06C121.06 193.76 118.1 192.4 114.33 192.11C110.89 191.85 96.43 192.16 96.43 192.16L90.69 164.64C90.69 164.64 104.73 169.29 109.36 169.06C114.81 168.79 115.94 165.96 118.85 163.4C121.3 161.25 123.88 159.83 126.67 158.01C129.46 156.19 130.89 153.93 132.85 154.48C135.77 155.3 135.41 159.72 133.27 162.21C131.25 164.53 129.55 165.44 128.43 166.82Z" fill="#F59DA9"/>
<path d="M135 183.9C140.31 185.22 145.93 185.03 151.13 183.31C152.21 182.96 151.74 181.25 150.66 181.61C145.75 183.23 140.49 183.44 135.47 182.2C134.36 181.93 133.89 183.63 135 183.9Z" fill="black"/>
<path d="M133.98 190.57C137.9 191.82 142.32 191.84 146.24 190.59C147.32 190.25 146.86 188.54 145.77 188.89C142.12 190.05 138.09 190.04 134.45 188.87C133.37 188.52 132.9 190.22 133.98 190.57Z" fill="black"/>
<path d="M61.76 148.95C61.76 148.95 53.61 178.04 64.47 187.9C74.12 196.66 108.69 194.73 108.69 194.73L112.06 165.78L61.76 148.95Z" fill="#E7E6E6"/>
<path d="M74.62 154.22C87.54 155.43 99.38 161.18 110.88 166.8C111.9 167.3 112.8 165.77 111.77 165.27C99.97 159.5 87.87 153.69 74.62 152.44C73.49 152.34 73.5 154.11 74.62 154.22Z" fill="black"/>
<path d="M77.22 143.78C79.29 147.24 80.95 150.91 82.16 154.75C82.5 155.83 84.21 155.37 83.86 154.28C82.61 150.3 80.89 146.47 78.74 142.88C78.17 141.91 76.64 142.8 77.22 143.78Z" fill="black"/>
<path d="M106.49 161.31L112.69 163.63C113.58 163.96 114.12 164.88 113.97 165.82L109.22 195.93C109.05 197 108.06 197.74 106.99 197.61L100.29 196.78C99.16 196.64 98.37 195.58 98.56 194.46L103.81 162.86C104.02 161.62 105.31 160.87 106.49 161.31Z" fill="#A3A3A3"/>
<path d="M36.64 149.05C38.21 159.64 42.47 169.95 49.58 178.03C57.46 186.99 68.75 191.82 80.08 194.83C87.07 196.69 94.35 197.63 101.56 196.77C103.01 196.6 103.02 194.3 101.56 194.48C95.32 195.22 89.05 194.62 82.95 193.19C77.19 191.84 71.46 189.94 66.12 187.41C61.05 185.01 56.4 181.9 52.51 177.84C48.99 174.17 46.14 169.9 43.93 165.33C41.36 160.01 39.71 154.28 38.85 148.45C38.63 146.99 36.42 147.6 36.64 149.05Z" fill="#A3A3A3"/>
<path fill-rule="evenodd" clip-rule="evenodd" d="M139.17 89.5C139.17 89.5 134.18 82.27 135.63 72.86C135.7 72.13 135.78 71.38 135.9 70.61C138.76 52.2 166.52 42.2 180.62 60.55C194.72 78.87 176.05 107.49 150.86 99.02C149.6 98.6 147.97 97.84 146.25 96.69C144.16 98.04 140.58 99.39 136.04 97.34C135.08 96.91 134.93 95.6 135.78 94.97C137.88 93.44 139.17 89.5 139.17 89.5Z" fill="white"/>
<path d="M159.33 93.7099C163.351 93.7099 166.61 90.4505 166.61 86.4299C166.61 82.4093 163.351 79.1499 159.33 79.1499C155.309 79.1499 152.05 82.4093 152.05 86.4299C152.05 90.4505 155.309 93.7099 159.33 93.7099Z" fill="#E8E8E8"/>
<path d="M167.463 62.2376L159.737 60.9041L155.692 84.3369L163.418 85.6704L167.463 62.2376Z" fill="#E8E8E8"/>
<path d="M163.6 65.4999C165.765 65.4999 167.52 63.7449 167.52 61.5799C167.52 59.415 165.765 57.6599 163.6 57.6599C161.435 57.6599 159.68 59.415 159.68 61.5799C159.68 63.7449 161.435 65.4999 163.6 65.4999Z" fill="#E8E8E8"/>
<path d="M159.31 90.83C161.74 90.83 163.71 88.8601 163.71 86.43C163.71 84 161.74 82.03 159.31 82.03C156.88 82.03 154.91 84 154.91 86.43C154.91 88.8601 156.88 90.83 159.31 90.83Z" fill="#008DB2"/>
<path d="M158.86 89.7099L158.69 89.6799C157.73 89.5099 157.09 88.5999 157.25 87.6499L158.74 79.0399C158.91 78.0799 159.82 77.4399 160.77 77.5999L160.94 77.6299C161.9 77.7999 162.54 78.7099 162.38 79.6599L160.89 88.2699C160.73 89.2299 159.81 89.8799 158.86 89.7099Z" fill="#008DB2"/>
<path d="M159.48 77.18L157 76.75L157.22 75.45L159.7 75.8799C160.06 75.9399 160.3 76.2799 160.24 76.6399C160.18 76.9999 159.84 77.24 159.48 77.18Z" fill="black"/>
<path d="M160.22 72.94L157.74 72.51L157.96 71.21L160.44 71.64C160.8 71.7 161.04 72.04 160.98 72.4C160.92 72.76 160.57 73 160.22 72.94Z" fill="black"/>
<path d="M160.95 68.69L158.47 68.26L158.69 66.96L161.17 67.39C161.53 67.45 161.77 67.79 161.71 68.15C161.65 68.52 161.31 68.76 160.95 68.69Z" fill="black"/>
<path d="M161.68 64.45L159.2 64.02L159.42 62.72L161.9 63.15C162.26 63.21 162.5 63.55 162.44 63.91C162.38 64.27 162.04 64.51 161.68 64.45Z" fill="black"/>
</g>
<defs>
<clipPath id="clip0_296_20">
<rect width="200" height="200" fill="white"/>
</clipPath>
</defs>
</svg>
