<svg width="200" height="200" viewBox="0 0 200 200" fill="none" xmlns="http://www.w3.org/2000/svg">
<g clip-path="url(#clip0_520_5397)">
<path d="M100 200C155.228 200 200 155.228 200 100C200 44.7715 155.228 0 100 0C44.7715 0 0 44.7715 0 100C0 155.228 44.7715 200 100 200Z" fill="#FFE974"/>
<path d="M176.05 51.61C169.64 48.43 159.58 48.18 152.3 47.56C147.02 47.11 139.24 47.07 132.48 47.54C118.36 49.82 114.74 51.61 111.02 58.04C108.45 62.47 108.38 68.09 111.02 72.04C114.51 77.26 118.4 78.71 124.42 79.2C124.26 80.07 123.99 80.97 123.59 81.83C122.61 83.97 120.62 86.32 119.02 88.01C118.18 88.9 118.89 90.35 120.08 90.18C123.21 89.73 127.8 88.38 131.04 84.41C132.81 82.24 133.54 80.73 133.93 79.54C141.2 79.67 147.7 79.62 155.11 79.86C155.51 79.87 155.9 79.88 156.29 79.89C156.29 79.89 160.63 79.95 166.25 79.95C177.16 79.95 181.88 75.06 183.32 68.62C185.22 60.09 183.03 55.07 176.05 51.61Z" fill="#A4CF61"/>
<path d="M109.72 159.82C109.72 159.82 116.13 158.07 118.08 156.13L124.3 160.79L117.5 175.95L113.22 175.56L109.72 159.82Z" fill="#BA6D51"/>
<path d="M30.1396 171.54C35.4796 176.75 41.3997 181.38 47.7896 185.3L46.1596 169.93L30.1396 171.54Z" fill="#CF806F"/>
<path d="M115.19 158.01C118.57 156.79 120.88 155.43 120.88 155.43C122.03 154.49 122.91 153.39 122.41 152.02C120.75 147.52 116.65 137.56 109.72 128.04C100.39 115.21 91.0598 113.17 91.0598 113.17C84.0598 111.13 53.6498 113.02 42.2298 119C34.5998 123 25.5098 129.22 21.9698 137.07C19.9698 141.5 18.7798 149.91 18.3198 157.68C22.5798 163.7 27.4898 169.23 32.9498 174.17C36.8198 174.11 41.3998 173.75 46.6598 172.83L47.5798 185.16C62.8298 194.57 80.7798 200 99.9998 200C106.84 200 113.51 199.31 119.96 198.01C116.75 186.29 109.72 159.83 109.72 159.83C109.72 159.83 112.47 158.99 115.19 158.01Z" fill="#802A84"/>
<path d="M45.1697 70.3199C45.1697 70.3199 43.5497 66.4899 40.5797 64.6999C36.0697 61.9999 29.2297 61.1199 23.5997 67.7999C18.9697 73.2899 20.7997 85.2899 28.2097 101.84C32.4597 111.34 30.3997 119.92 30.3997 119.92C30.3997 119.92 41.3097 115.15 44.9697 102.99C47.0197 96.1499 45.1697 70.3199 45.1697 70.3199Z" fill="black"/>
<path d="M91.0797 68.1999C91.0797 68.1999 97.3997 92.3299 93.4497 102.77C89.4997 113.21 84.1997 118.9 66.6297 117.64C55.5697 116.85 50.6997 114.83 50.6997 114.83L49.6497 105.7L49.2397 74.1799L72.9897 61.7999L91.0797 68.1999Z" fill="#CF806F"/>
<path d="M49.68 102.4L49.29 116.55C49.29 116.55 50.69 124.28 60.82 128.08C61.9 128.48 62.94 128.82 63.95 129.11C70.92 131.08 78.03 126.45 78.12 119.89L78.3 107.79L49.68 102.4Z" fill="#CF806F"/>
<path d="M49.2797 76.32C49.2797 76.32 63.0197 72.92 68.4697 68.24C73.2497 64.14 73.6697 62.97 73.6697 62.97C73.6697 62.97 84.8997 72.16 93.9497 67.53C98.1097 65.4 98.3497 62.12 98.3497 62.12C98.3497 62.12 91.2697 59.14 88.3897 55.9C82.0897 48.84 71.7897 44.02 59.9097 47.61C38.7997 53.99 38.2997 70.89 38.2997 70.89C38.2997 70.89 31.7497 73.52 34.1497 86.02C37.3397 102.64 49.6397 105.7 49.6397 105.7L49.2797 76.32Z" fill="black"/>
<path d="M51.7197 89.28C51.7197 89.28 50.9297 87.56 49.2397 86.39C47.7497 85.35 45.5097 84.74 43.0997 85.94C38.1097 88.43 39.5497 94.27 42.4997 97.75C45.4497 101.23 51.5997 99.15 51.5997 99.15L51.7197 89.28Z" fill="#CF806F"/>
<path d="M56.1197 69.0599C56.1197 69.0599 60.1497 89.4699 57.3197 91.0699C54.3997 92.7199 51.7197 89.2799 51.7197 89.2799C51.7197 89.2799 50.5497 86.9099 48.4897 85.9299L47.7197 73.3099L56.1197 69.0599Z" fill="black"/>
<path d="M89.1099 79.0999C89.8399 78.0199 89.0899 74.5499 84.2899 75.8199C80.7999 76.7499 79.5999 78.3899 80.4799 80.5299C81.1899 82.2599 83.6499 81.1299 85.4799 80.5999C87.2899 80.0899 88.4399 80.0899 89.1099 79.0999Z" fill="white"/>
<path d="M63.5401 85.66C62.6101 85.16 61.7501 81.52 66.7801 80.39C70.4401 79.57 72.9801 80.59 72.5101 83.28C72.2301 84.91 70.2201 84.88 68.2801 85.27C66.3701 85.66 64.9901 86.44 63.5401 85.66Z" fill="white"/>
<path d="M91.85 65.0599C92.86 69.9599 93.75 74.8799 94.54 79.8099C95.7 87.0599 97.35 94.92 95.39 102.16C93.91 107.61 90.53 113.69 85.43 116.5C78.04 120.58 68.32 119.75 60.33 118.35C58.39 118.01 59.21 115.06 61.14 115.4C68.55 116.7 79.38 117.83 85.66 112.69C90.54 108.7 93.21 101.52 93.25 95.3899C93.32 85.6099 90.86 75.4399 88.9 65.8899C88.5 63.9499 91.46 63.1299 91.85 65.0599Z" fill="black"/>
<path d="M66.9201 96.0799C66.9401 96.2799 66.9901 96.5999 66.9101 96.7999C66.9801 96.6199 66.9101 96.7699 66.9001 96.8299C66.8901 96.8899 66.8801 96.9499 66.8601 97.0099C66.8301 97.1299 66.8001 97.2399 66.7601 97.3499C66.7401 97.4099 66.7201 97.4599 66.7001 97.5199C66.6401 97.6899 66.7601 97.4099 66.6901 97.5499C66.6401 97.6599 66.5901 97.7699 66.5301 97.8699C66.4701 97.9699 66.4101 98.0799 66.3401 98.1799C66.3101 98.2299 66.2701 98.2799 66.2401 98.3299C66.3501 98.1699 66.2201 98.3499 66.1901 98.3799C66.0301 98.5599 65.8601 98.7299 65.6801 98.8899C65.6601 98.9099 65.6301 98.9299 65.6101 98.9499C65.6801 98.8999 65.7001 98.8899 65.6501 98.9199C65.6001 98.9499 65.5501 98.9899 65.5001 99.0199C65.4001 99.0899 65.3001 99.1499 65.1901 99.2099C65.0901 99.2699 64.9801 99.3199 64.8701 99.3699C64.8201 99.3899 64.8301 99.3899 64.9201 99.3499C64.8901 99.3599 64.8601 99.3699 64.8401 99.3799C64.7801 99.3999 64.7301 99.4199 64.6701 99.4399C64.5601 99.4799 64.4401 99.5099 64.3201 99.5299C64.3001 99.5299 64.1001 99.5699 64.2201 99.5499C64.3401 99.5299 64.1101 99.5599 64.0801 99.5599C63.6701 99.5899 63.2801 99.8999 63.3001 100.34C63.3201 100.74 63.6501 101.16 64.0801 101.12C65.3201 101.02 66.4801 100.43 67.2901 99.4799C68.0901 98.5399 68.5801 97.3199 68.4701 96.0799C68.4301 95.6699 68.1401 95.2799 67.6901 95.2999C67.3101 95.3099 66.8801 95.6399 66.9201 96.0799Z" fill="black"/>
<path d="M71.5898 106.64C73.1298 107.59 75.1798 107.59 76.7198 106.64C77.0698 106.43 77.2298 105.93 76.9998 105.57C76.7698 105.22 76.2998 105.06 75.9298 105.29C75.7698 105.39 75.6098 105.47 75.4498 105.55C75.6098 105.48 75.3498 105.59 75.3198 105.6C75.2298 105.63 75.1498 105.66 75.0598 105.68C74.9698 105.7 74.8798 105.72 74.7898 105.74C74.7598 105.75 74.4698 105.79 74.6598 105.77C74.4898 105.79 74.3198 105.8 74.1498 105.8C73.9798 105.8 73.8098 105.79 73.6398 105.77C73.8298 105.79 73.5498 105.75 73.5098 105.74C73.4198 105.72 73.3298 105.7 73.2398 105.68C73.1498 105.66 73.0698 105.63 72.9798 105.6C72.9498 105.59 72.6898 105.48 72.8498 105.55C72.6798 105.47 72.5198 105.39 72.3698 105.29C72.0198 105.07 71.4898 105.2 71.2998 105.57C71.0998 105.95 71.2098 106.41 71.5898 106.64Z" fill="black"/>
<path d="M67.0099 100.16C70.4899 103.72 75.8799 104.54 80.2899 102.26C81.1899 101.8 80.3899 100.44 79.4999 100.91C75.7099 102.87 71.0899 102.1 68.1199 99.05C67.4099 98.32 66.2999 99.43 67.0099 100.16Z" fill="black"/>
<path d="M70.7799 72.9899C67.0699 72.0699 62.9399 73.8099 61.0799 77.1699C60.6799 77.8899 60.8799 78.9099 61.6399 79.3099C62.3799 79.6999 63.3599 79.5099 63.7799 78.7499C63.8699 78.5899 63.9599 78.4299 64.0699 78.2799C64.1199 78.1999 64.1799 78.1299 64.2299 78.0499C64.3399 77.8799 63.9899 78.3399 64.2199 78.0599C64.4599 77.7799 64.7099 77.5099 64.9799 77.2699C65.0399 77.2199 65.0899 77.1699 65.1499 77.1299C65.4199 76.8899 64.9599 77.2599 65.1399 77.1399C65.2899 77.0299 65.4399 76.9299 65.5999 76.8299C65.9099 76.6299 66.2399 76.4699 66.5799 76.3099C66.7699 76.2199 66.2199 76.4399 66.5599 76.3199C66.6299 76.2899 66.6999 76.2699 66.7699 76.2399C66.9399 76.1799 67.1199 76.1199 67.2999 76.0799C67.4799 76.0299 67.6599 75.9899 67.8399 75.9599C67.9299 75.9399 68.0199 75.9299 68.1099 75.9099C68.3199 75.8699 67.7099 75.9399 68.0799 75.9199C68.4499 75.8999 68.8099 75.8799 69.1799 75.8999C69.2499 75.8999 69.3299 75.9099 69.3999 75.9199C69.7699 75.9499 69.1599 75.8699 69.3699 75.9099C69.5699 75.9499 69.7699 75.9799 69.9699 76.0299C70.7599 76.2299 71.7099 75.7799 71.8999 74.9399C72.0599 74.1099 71.6299 73.1999 70.7799 72.9899Z" fill="black"/>
<path d="M81.7399 73.0399C81.8999 72.9099 81.7399 73.0499 81.6699 73.0899C81.7399 73.0499 81.8099 72.9899 81.8799 72.9399C81.9899 72.8599 82.1099 72.7899 82.2299 72.7199C82.3699 72.6399 82.4999 72.5699 82.6399 72.4999C82.8299 72.4099 82.6299 72.5199 82.5499 72.5299C82.6299 72.5199 82.7199 72.4699 82.7899 72.4399C83.0699 72.3399 83.3499 72.2599 83.6399 72.2099C83.7099 72.1999 83.7799 72.1899 83.8499 72.1699C84.1999 72.1099 83.5899 72.1899 83.7999 72.1799C83.9599 72.1699 84.1099 72.1499 84.2699 72.1499C84.5699 72.1399 84.8599 72.1599 85.1499 72.1899C85.3599 72.2099 84.8399 72.1299 85.0399 72.1799C85.1199 72.1999 85.2099 72.2099 85.2999 72.2299C85.4399 72.2599 85.5699 72.2899 85.6999 72.3299C85.8499 72.3699 85.9999 72.4199 86.1399 72.4799C86.1799 72.4999 86.4099 72.5799 86.1899 72.4999C85.9599 72.4099 86.2399 72.5299 86.2899 72.5499C86.5699 72.6899 86.8399 72.8499 87.0899 73.0399C87.7599 73.5199 88.8599 73.1799 89.2299 72.4799C89.6599 71.6699 89.3799 70.8499 88.6699 70.3399C87.3899 69.4199 85.7299 68.9699 84.1599 69.0399C82.4299 69.1099 80.8399 69.7299 79.5199 70.8399C78.8899 71.3699 78.9399 72.5199 79.5199 73.0599C80.1899 73.6499 81.0599 73.5999 81.7399 73.0399Z" fill="black"/>
<path d="M71 83.97C73.02 83.97 73.02 80.84 71 80.84C68.99 80.84 68.98 83.97 71 83.97Z" fill="black"/>
<path d="M87.89 79.5299C89.91 79.5299 89.91 76.3999 87.89 76.3999C85.87 76.3999 85.87 79.5299 87.89 79.5299Z" fill="black"/>
<path d="M45.2697 91.3499C45.1097 91.4299 45.2797 91.3499 45.3197 91.3399C45.3597 91.3299 45.3997 91.3199 45.4497 91.3099C45.3597 91.3199 45.3497 91.3199 45.3997 91.3199C45.4697 91.3199 45.5297 91.3099 45.5997 91.3099C45.6397 91.3099 45.8697 91.3499 45.6997 91.3099C45.8397 91.3399 45.9597 91.3799 46.0997 91.4199C45.9497 91.3699 46.1397 91.4399 46.1597 91.4499C46.2197 91.4799 46.2797 91.5199 46.3397 91.5499C46.3897 91.5799 46.4997 91.6699 46.3997 91.5799C46.4497 91.6199 46.4997 91.6699 46.5397 91.7099C46.5697 91.7399 46.6697 91.8699 46.5897 91.7599C46.6397 91.8199 46.6797 91.8899 46.7197 91.9599C46.7597 92.0199 46.7797 92.0899 46.8197 92.1499C46.8397 92.1999 46.8397 92.1899 46.8097 92.1299C46.8297 92.1699 46.8397 92.2199 46.8597 92.2599C46.9097 92.3999 46.9397 92.5299 46.9697 92.6699C47.0197 92.8899 46.9597 92.5199 46.9797 92.7399C46.9897 92.8299 46.9997 92.8999 46.9997 92.9699C46.9997 93.0399 46.9997 93.1099 46.9997 93.1699C46.9997 93.2499 46.9697 93.3599 46.9997 93.2199C46.9797 93.2899 46.9697 93.3699 46.9497 93.4399C46.9397 93.4599 46.8697 93.6499 46.9097 93.5699C46.9497 93.4799 46.8597 93.6699 46.8497 93.6899C46.8097 93.7599 46.7697 93.8299 46.7197 93.8999C46.6997 93.9299 46.5797 94.0899 46.6697 93.9699C46.6297 94.0299 46.5797 94.0799 46.5297 94.1299C46.4297 94.2299 46.3297 94.3299 46.2197 94.4199C46.3397 94.3199 46.1797 94.4399 46.1497 94.4599C46.0897 94.4999 46.0297 94.5299 45.9697 94.5599C45.8397 94.6399 46.0697 94.5299 45.8897 94.5999C45.8197 94.6199 45.7497 94.6399 45.6797 94.6599C45.2797 94.7499 45.0097 95.2399 45.1297 95.6199C45.2697 96.0399 45.6597 96.2599 46.0897 96.1699C46.9297 95.9899 47.6497 95.3499 48.0997 94.6299C48.5597 93.8899 48.6597 93.0399 48.4697 92.1999C48.2897 91.3699 47.7997 90.5999 47.0697 90.1599C46.2797 89.6899 45.3097 89.5999 44.4797 89.9899C44.1097 90.1699 43.9797 90.7299 44.1997 91.0599C44.4397 91.4499 44.8697 91.5399 45.2697 91.3499Z" fill="black"/>
<path d="M72.3097 90.69C72.8497 91.85 73.6997 93.14 75.0697 93.34C75.8897 93.46 76.7297 93.21 77.2697 92.55C77.7697 91.94 77.9797 91.21 78.0597 90.44C78.0997 90.03 77.6697 89.64 77.2797 89.66C76.8197 89.68 76.5397 90.01 76.4997 90.44C76.4997 90.48 76.4897 90.52 76.4897 90.56C76.4997 90.46 76.5097 90.44 76.4997 90.5C76.4897 90.57 76.4797 90.64 76.4597 90.71C76.4297 90.83 76.3997 90.95 76.3597 91.06C76.3497 91.09 76.2697 91.28 76.3497 91.1C76.3297 91.15 76.2997 91.21 76.2697 91.26C76.2397 91.32 76.1997 91.38 76.1697 91.44C76.1497 91.46 76.1397 91.49 76.1197 91.51C76.1797 91.44 76.1897 91.42 76.1497 91.47C76.0997 91.52 76.0597 91.57 76.0097 91.62C75.9697 91.66 75.8297 91.74 75.9897 91.64C75.9397 91.67 75.8897 91.7 75.8397 91.73C75.7797 91.76 75.6797 91.79 75.7997 91.75C75.7197 91.77 75.6497 91.79 75.5697 91.81C75.5097 91.82 75.5297 91.82 75.6097 91.8C75.5797 91.8 75.5397 91.8 75.5097 91.8C75.4697 91.8 75.2297 91.78 75.4197 91.81C75.3497 91.8 75.2897 91.79 75.2197 91.77C75.1497 91.75 75.0897 91.73 75.0197 91.71C75.1797 91.76 74.9897 91.7 74.9597 91.68C74.8997 91.65 74.8397 91.61 74.7797 91.58C74.6597 91.52 74.9097 91.71 74.7797 91.58C74.6997 91.5 74.6197 91.42 74.5397 91.34C74.4997 91.3 74.4697 91.25 74.4297 91.21C74.5497 91.35 74.4297 91.21 74.4097 91.18C74.1197 90.79 73.8697 90.36 73.6597 89.92C73.4897 89.55 72.9197 89.42 72.5897 89.64C72.2097 89.86 72.1197 90.29 72.3097 90.69Z" fill="black"/>
<path d="M76.6598 90.47C77.1598 91.75 78.3198 92.47 79.6998 92.25C81.0098 92.04 81.6798 90.71 81.5398 89.47C81.4598 88.73 81.1298 88.04 80.8398 87.36C80.5398 86.65 80.2398 85.94 79.9198 85.24C79.2898 83.85 78.6298 82.47 77.9398 81.11C77.4898 80.21 76.1298 81 76.5898 81.9C77.6098 83.93 78.5998 85.99 79.4698 88.09C79.7398 88.74 80.3898 89.92 79.7598 90.57C79.2898 91.06 78.3898 90.59 78.1798 90.06C78.0298 89.67 77.6498 89.39 77.2198 89.51C76.8298 89.61 76.4998 90.07 76.6598 90.47Z" fill="black"/>
<path d="M74.2197 163.61C75.1897 163.37 76.1097 162.74 76.1097 162.74C76.1097 162.74 73.1697 165.27 74.7297 166.82C76.2797 168.37 80.5597 167.6 83.2797 165.27C85.9997 162.94 84.6397 160.78 84.6397 160.78C84.6397 160.78 86.2397 160.92 87.0497 158.89C87.9997 156.48 87.4897 154.15 87.4897 154.15C87.4897 154.15 90.4097 149.99 87.6597 146.38C86.5497 144.93 83.9497 144.14 83.9497 144.14C83.9497 144.14 99.1397 139.37 98.0897 133.68C97.6897 131.52 95.7197 130.83 93.9697 131.56C92.2197 132.29 85.8097 135.79 82.1597 136.66C78.5197 137.53 71.5197 138.41 66.8497 144.09C62.9097 148.89 50.4697 176.2 46.6797 184.62C52.6197 188.37 58.9897 191.52 65.6897 193.97C67.4897 185.65 72.0997 163.92 72.0997 163.92C72.0997 163.92 72.9497 163.93 74.2197 163.61Z" fill="#CF806F"/>
<path d="M43.8497 154.65C44.1997 158.84 44.8397 163.01 45.3797 167.17C46.0397 172.2 46.6897 177.24 47.3497 182.27C47.4797 183.26 49.0497 183.27 48.9197 182.27C48.2597 177.24 47.6097 172.2 46.9497 167.17C46.4097 163 45.7697 158.83 45.4197 154.65C45.3297 153.65 43.7697 153.64 43.8497 154.65Z" fill="black"/>
<path d="M48.0898 155.53C47.6898 156.38 47.2498 157.21 46.7598 158.01C46.2998 158.77 45.7298 159.59 45.2298 160.23C44.9798 160.55 44.8898 161.03 45.2298 161.34C45.5098 161.6 46.0698 161.68 46.3398 161.34C47.5598 159.79 48.6098 158.12 49.4398 156.33C49.6098 155.96 49.5598 155.47 49.1598 155.26C48.8098 155.06 48.2698 155.13 48.0898 155.53Z" fill="black"/>
<path d="M48.47 183.7C49.61 181.27 50.68 178.81 51.83 176.39C52.01 176.01 51.94 175.54 51.55 175.32C51.21 175.12 50.66 175.22 50.48 175.6C49.33 178.02 48.26 180.48 47.12 182.91C46.94 183.29 47.01 183.75 47.4 183.98C47.74 184.18 48.29 184.09 48.47 183.7Z" fill="black"/>
<path d="M68.9399 162.58C71.4599 164.82 75.0099 164.38 77.7599 162.85C78.6399 162.36 77.8499 161.01 76.9699 161.5C74.8699 162.67 72.0099 163.23 70.0499 161.48C69.2899 160.8 68.1799 161.9 68.9399 162.58Z" fill="black"/>
<path d="M80.1297 152.15C81.6797 152.02 83.2597 152.29 84.5797 153.16C85.8997 154.03 86.5697 155.53 86.2397 157.14C86.1597 157.55 86.3597 157.99 86.7897 158.1C87.1797 158.21 87.6697 157.97 87.7497 157.55C87.9797 156.42 87.9297 155.28 87.4697 154.21C87.0797 153.29 86.4097 152.55 85.6097 151.96C84.0697 150.83 82.0097 150.42 80.1397 150.57C79.7197 150.6 79.3597 150.91 79.3597 151.35C79.3397 151.76 79.6997 152.18 80.1297 152.15Z" fill="black"/>
<path d="M81.7297 145.33C83.2397 145.17 84.7497 145.54 85.9797 146.45C87.0797 147.27 87.8297 148.49 88.1497 149.82C88.3897 150.8 89.8997 150.39 89.6597 149.4C88.8097 145.85 85.3697 143.38 81.7297 143.76C81.3097 143.8 80.9497 144.09 80.9497 144.54C80.9497 144.94 81.3097 145.38 81.7297 145.33Z" fill="black"/>
<path d="M74.9197 162.5C74.1097 163.13 73.7197 164.22 73.8997 165.23C74.0797 166.22 74.7997 167.06 75.5997 167.63C77.1197 168.71 79.4797 168.45 81.1297 167.79C82.8997 167.08 84.4797 165.66 84.9097 163.73C85.3397 161.74 84.5097 159.62 83.0497 158.26C81.2197 156.55 78.6197 156.03 76.1897 156.11C75.1797 156.15 75.1797 157.71 76.1897 157.68C79.1897 157.58 83.1697 158.75 83.4597 162.32C83.7097 165.47 80.1697 166.99 77.5197 166.73C76.0997 166.59 74.6097 164.73 76.0397 163.61C76.3797 163.35 76.3097 162.78 76.0397 162.5C75.7097 162.17 75.2597 162.24 74.9197 162.5Z" fill="black"/>
<path d="M69.29 162.84L71.24 168.28L72.11 163.91L69.29 162.84Z" fill="black"/>
<path d="M104.56 145.83C104.63 149.06 105.98 152 106.88 155.05C107.9 158.51 108.86 161.99 109.86 165.46C111.84 172.4 113.83 179.35 115.81 186.29C116.09 187.26 117.6 186.85 117.32 185.87C115.38 179.08 113.44 172.3 111.5 165.51C110.55 162.2 109.61 158.88 108.66 155.57C107.75 152.38 106.21 149.18 106.13 145.82C106.11 144.82 104.54 144.82 104.56 145.83Z" fill="black"/>
<path d="M143.32 105.85C143.68 105.77 173.07 101.58 175.62 101.19C178.85 100.69 181.72 106.05 172.14 107.96C163.56 109.67 159.01 111.34 159.01 111.34C159.01 111.34 165.26 111.99 164.93 116.09C164.93 116.09 164.97 117.43 164 118.72C164 118.72 165.64 121.22 164.28 122.69C162.91 124.17 162.02 124.19 162.02 124.19C162.02 124.19 161.37 129.72 157.3 129.21L154.14 128.97C154.14 128.97 151.94 133.24 143.67 132.22C143.67 132.22 140.52 159.75 138.42 170.99C136.32 182.23 129.79 184.19 124.28 184.82C118.77 185.45 110.81 179.34 116.03 162.46C121.25 145.58 128.72 127.23 130.12 123.11C132.86 115.04 138.44 106.87 143.32 105.85Z" fill="#CF806F"/>
<path d="M144.15 113.14C146.34 113.47 148.52 113.79 150.71 114.12C152.28 114.35 154.47 114.39 155.66 115.6C156.9 116.85 156.05 118.78 154.49 119.19C153.48 119.45 152.39 119.45 151.35 119.54C150.18 119.64 149.01 119.74 147.84 119.84C147.41 119.88 146.98 120.19 147.01 120.67C147.13 122.86 146.42 125.26 144.54 126.58C142.96 127.69 140.76 127.59 139.5 126.06C138.82 125.23 137.65 126.41 138.32 127.24C139.96 129.25 143.01 129.49 145.15 128.17C147.67 126.61 148.81 123.55 148.66 120.69C148.38 120.97 148.11 121.24 147.83 121.52C149.29 121.39 150.75 121.27 152.21 121.14C153.38 121.04 154.61 121.02 155.7 120.52C157.44 119.73 158.33 117.59 157.69 115.79C157 113.84 154.87 113.13 153.01 112.81C150.21 112.33 147.38 111.97 144.57 111.55C143.54 111.38 143.09 112.98 144.15 113.14Z" fill="black"/>
<path d="M157.9 113.32C157.3 113.54 156.68 113.72 156.05 113.86C155.85 113.9 155.65 114.07 155.55 114.24C155.45 114.42 155.4 114.68 155.47 114.88C155.61 115.33 156.04 115.56 156.49 115.46C157.12 115.32 157.74 115.14 158.34 114.92C158.55 114.84 158.72 114.73 158.84 114.54C158.94 114.36 158.99 114.1 158.92 113.9C158.85 113.7 158.73 113.5 158.54 113.4C158.35 113.3 158.11 113.24 157.9 113.32Z" fill="black"/>
<path d="M155.73 120.44C156.58 120.4 157.43 120.39 158.28 120.3C159.18 120.2 160.06 120.01 160.94 119.79C161.36 119.68 161.66 119.19 161.52 118.77C161.38 118.33 160.95 118.08 160.5 118.19C160.04 118.31 159.57 118.42 159.11 118.51C158.93 118.55 158.75 118.58 158.56 118.61C158.52 118.62 158.48 118.62 158.45 118.63C158.29 118.65 158.58 118.62 158.47 118.63C158.39 118.64 158.3 118.65 158.22 118.66C157.39 118.75 156.56 118.76 155.73 118.79C155.3 118.81 154.88 119.16 154.9 119.62C154.92 120.04 155.26 120.46 155.73 120.44Z" fill="black"/>
<path d="M150.55 120.04C149.68 121.12 149.75 122.54 150.54 123.67C151.41 124.91 152.87 125.4 154.32 125.54C155.92 125.69 157.58 125.46 159.16 125.24C160.8 125.02 162.52 124.8 163.99 123.98C164.93 123.46 164.09 122.02 163.15 122.54C162.09 123.13 160.84 123.31 159.66 123.49C158.36 123.69 157.05 123.84 155.74 123.89C154.67 123.93 153.52 123.9 152.58 123.34C151.98 122.98 151.17 121.92 151.73 121.22C152.39 120.39 151.22 119.2 150.55 120.04Z" fill="black"/>
<path d="M152.42 124.31C151.25 125.19 150.07 126.54 151.01 128.05C151.61 129.02 152.68 129.43 153.74 129.61C155.73 129.96 157.88 130.01 159.89 129.79C160.34 129.74 160.72 129.44 160.72 128.96C160.72 128.55 160.34 128.08 159.89 128.13C158.22 128.31 156.49 128.28 154.83 128.1C154.47 128.06 154.15 128.01 153.75 127.92C153.57 127.88 153.39 127.83 153.22 127.77C153.15 127.75 153.02 127.69 153.16 127.75C153.09 127.72 153.01 127.68 152.94 127.64C152.66 127.47 152.28 127.17 152.34 126.8C152.41 126.36 152.94 125.99 153.26 125.74C153.62 125.47 153.8 125.02 153.56 124.6C153.35 124.26 152.78 124.04 152.42 124.31Z" fill="black"/>
<path d="M130.42 64.8799C141.77 64.8199 153.12 64.7499 164.47 64.6899C166.2 64.6799 166.2 61.9899 164.47 61.9999C153.12 62.0599 141.77 62.1299 130.42 62.1899C128.69 62.1999 128.69 64.8899 130.42 64.8799Z" fill="black"/>
<path d="M153.89 58.81C155.86 59.61 157.82 60.41 159.79 61.22C160.75 61.61 161.72 62.01 162.68 62.4C163.16 62.6 163.64 62.79 164.12 62.99C164.38 63.09 165.13 63.33 165.23 63.44C165.11 63.24 165 63.04 164.88 62.85C165.07 62.36 165.04 62.24 164.81 62.5C164.71 62.58 164.61 62.66 164.51 62.74C164.31 62.9 164.11 63.05 163.92 63.21C163.51 63.53 163.11 63.84 162.7 64.16C161.86 64.8 161.02 65.42 160.16 66.03C158.42 67.28 156.64 68.48 154.83 69.63C153.38 70.56 154.72 72.88 156.19 71.95C158.25 70.64 160.26 69.27 162.23 67.83C163.27 67.07 164.3 66.29 165.32 65.5C166.2 64.82 167.5 64.08 167.57 62.83C167.65 61.39 166.27 61 165.19 60.55C163.99 60.06 162.78 59.57 161.58 59.08C159.25 58.13 156.93 57.18 154.6 56.23C153.93 55.96 153.12 56.53 152.95 57.17C152.74 57.92 153.21 58.53 153.89 58.81Z" fill="black"/>
</g>
<defs>
<clipPath id="clip0_520_5397">
<rect width="200" height="200" fill="white"/>
</clipPath>
</defs>
</svg>
