<svg width="200" height="200" viewBox="0 0 200 200" fill="none" xmlns="http://www.w3.org/2000/svg">
<g clip-path="url(#clip0_527_6454)">
<path d="M100 200C155.228 200 200 155.228 200 100C200 44.7715 155.228 0 100 0C44.7715 0 0 44.7715 0 100C0 155.228 44.7715 200 100 200Z" fill="#FFE974"/>
<path d="M21.8402 60.52C28.7802 57.08 39.6602 56.8 47.5502 56.14C53.2602 55.66 61.6902 55.61 69.0102 56.12C84.3002 58.58 88.2102 60.53 92.2402 67.48C95.0202 72.28 95.0902 78.36 92.2402 82.63C88.4602 88.28 84.2602 89.85 77.7302 90.38C77.9002 91.32 78.2002 92.3 78.6202 93.23C79.6902 95.54 81.8302 98.09 83.5702 99.92C84.4802 100.88 83.7102 102.45 82.4302 102.27C79.0502 101.79 74.0702 100.32 70.5702 96.02C68.6502 93.67 67.8602 92.04 67.4402 90.74C59.5702 90.88 52.5402 90.83 44.5102 91.08C44.0702 91.09 43.6602 91.1 43.2302 91.11C43.2302 91.11 38.5302 91.18 32.4502 91.18C20.6402 91.18 15.5302 85.88 13.9802 78.92C11.9202 69.7 14.2902 64.26 21.8502 60.52H21.8402Z" fill="#A4CF61"/>
<path d="M183.73 154.68C178.45 138.58 167.77 123.13 146.26 122.4C122.37 121.6 108.98 123.97 102.99 126.37C98.4002 128.21 92.2302 132.05 87.8902 137.92C83.2102 144.25 77.0902 159.35 75.3502 165.08C73.3002 171.85 79.5902 176.14 83.1602 184.1L81.8102 198.35C87.7102 199.43 93.7902 200 100 200C135.05 200 165.88 181.97 183.73 154.68V154.68Z" fill="#E7E6E6"/>
<path d="M124.34 141.28C121.98 159.74 117.03 177.82 117.03 196.54C117.03 198.41 119.93 198.41 119.93 196.54C119.93 177.84 124.88 159.73 127.24 141.28C127.48 139.43 124.57 139.45 124.34 141.28Z" fill="#B4E2EE"/>
<path d="M154.07 60.6899C154.07 60.6899 159.22 63.4499 162.08 74.7999C164.94 86.1499 162.44 83.3199 166.43 90.7199C170.42 98.1199 171.45 103.28 171.39 108.15C171.33 113.01 170.59 116.38 170.59 116.38C170.59 116.38 169.44 114.79 168.64 114.08C167.84 113.37 166.57 112.63 166.57 112.63C166.57 112.63 167.39 116.31 167.31 119.43C167.23 122.55 165.87 125.17 165.87 125.17C165.87 125.17 165.39 123.69 164.45 122.12C163.73 120.92 162.57 119.95 162.57 119.95C162.57 119.95 162.78 122.76 162.57 124.4C162.33 126.28 162.12 126.28 162.12 126.28C162.12 126.28 159.48 125.08 155.67 123.87C150.81 122.33 145.22 122.77 145.22 122.77L141.65 69.3099L154.08 60.6999L154.07 60.6899Z" fill="#2D2D2D"/>
<path d="M129.87 139.63C129.87 139.63 136.87 140.17 139.15 140.65C142.44 141.35 146.81 143.16 149.28 144.26C150.18 144.66 151.21 144.02 151.22 143.04C151.26 136.98 150.18 119.28 145.45 115.17L129.88 139.62L129.87 139.63Z" fill="#B4E2EE"/>
<path d="M101.85 98.77C101.85 98.77 97.5004 105.97 96.7704 113.69C95.8804 123.02 96.8504 129.6 96.8504 129.6C96.8504 129.6 99.4604 127.83 102.63 126.52C107.03 124.7 111.09 123.88 111.09 123.88L111.28 113.47L101.86 98.77H101.85Z" fill="#2D2D2D"/>
<path d="M120.6 138.93C120.6 138.93 114.3 139.81 112.27 140.44C109.1 141.41 105.74 142.86 103.88 143.7C103.24 143.99 102.54 143.47 102.63 142.77C103.3 137.72 105.57 123.48 109.85 118.95L112.49 121.09L116.75 130.03L120.6 138.93Z" fill="#B4E2EE"/>
<path d="M147.04 76.31C147.04 76.31 158.04 73.44 161.9 66.7C165.76 59.97 165.4 53.85 165.4 53.85C165.4 53.85 161.25 56.71 158.97 57.62C156.69 58.53 153.86 59.2 153.86 59.2C153.86 59.2 154.18 58.48 155.33 55.5C156.48 52.53 156.8 50.21 156.8 50.21C156.8 50.21 153.77 54.07 150.33 55.04C146.89 56.01 143.65 55.82 143.65 55.82C143.65 55.82 146.85 53.63 147.84 51.99C148.83 50.35 150.27 46.92 150.27 46.92C150.27 46.92 146.06 48.63 142.39 48.73C138.72 48.83 136.64 48.4 135.24 49.09C133.84 49.78 132.58 51.85 132.58 51.85C132.58 51.85 132.94 49.92 129.98 48.83C127.02 47.74 125.59 47.43 123.73 46.49C121.94 45.59 119.36 43.26 119.36 43.26C119.36 43.26 118.53 44.77 118.54 46.48C118.55 48.91 120.58 51.23 120.58 51.23C120.58 51.23 119.56 51.89 116.96 51.27C113.79 50.51 111.71 47.74 111.71 47.74C111.71 47.74 110.93 49.2 111.31 50.77C111.69 52.34 112.69 53.11 112.69 53.11C112.69 53.11 110.73 52.99 108.84 51.52C106.96 50.05 106.27 48.67 106.27 48.67C106.27 48.67 101.5 51.71 100.65 58.46C99.8005 65.21 100.31 67.84 101.86 71.89C103.41 75.94 105.79 80.02 105.79 80.02L147.03 76.31H147.04Z" fill="black"/>
<path d="M112.49 121.03C112.49 121.03 114.14 128.23 118.13 135.23C118.82 136.43 122.14 141.6 123.98 144.45C124.63 145.45 126.02 145.62 126.88 144.79C129.24 142.53 133.39 138.45 134.56 136.72C136.21 134.26 144.23 126.17 145.22 119.57C145.82 115.57 145.54 99.2899 145.54 99.2899C145.54 99.2899 150.21 104.12 155.24 98.9399C158.61 95.4799 158.4 86.3399 152.22 85.5299C148.06 84.9899 145.24 88.7999 145.24 88.7999C145.24 88.7999 144.39 89.5699 144.3 87.4099C144.16 83.9299 144.3 75.9099 144.61 72.3699C144.73 70.9999 144.42 69.6299 143.67 68.4799C141.75 65.5199 136.87 60.5999 125.67 60.6899C109.67 60.8199 107.01 64.7099 105.67 70.1999C104.33 75.6999 104.39 80.4499 101.6 86.3599C98.8202 92.2599 98.3802 94.5299 100.82 102.74C104.78 116.08 112.48 121.03 112.48 121.03H112.49Z" fill="#F6A7AD"/>
<path d="M122.991 92.6802C123.031 92.8602 122.991 92.4802 122.991 92.6702C122.991 92.7002 122.991 92.7302 122.991 92.7502C122.991 92.8202 122.991 92.7902 123.011 92.6602C123.001 92.6602 122.981 92.7802 122.981 92.8002C122.981 92.8302 122.961 92.8502 122.951 92.8802C123.001 92.7702 123.011 92.7402 122.981 92.8002C122.961 92.8402 122.931 92.8802 122.911 92.9202C122.831 93.0802 123.031 92.8002 122.911 92.9202C122.871 92.9602 122.821 93.0002 122.781 93.0502C122.671 93.1602 122.881 92.9902 122.791 93.0502C122.701 93.1102 122.601 93.1602 122.511 93.2202C122.331 93.3202 122.691 93.1602 122.501 93.2202C122.441 93.2402 122.391 93.2602 122.331 93.2802C122.221 93.3102 122.111 93.3402 122.001 93.3602C121.811 93.4102 122.141 93.3602 121.961 93.3602C121.891 93.3602 121.831 93.3602 121.771 93.3602C121.731 93.3602 121.571 93.3602 121.721 93.3602C121.871 93.3602 121.691 93.3502 121.641 93.3402C121.591 93.3302 121.551 93.3102 121.501 93.3002C121.321 93.2502 121.661 93.3902 121.501 93.3002C121.451 93.2702 121.401 93.2502 121.351 93.2202C121.321 93.2002 121.181 93.1202 121.301 93.1902C121.421 93.2602 121.261 93.1502 121.241 93.1302C121.211 93.1002 121.181 93.0602 121.141 93.0302C121.011 92.9002 121.231 93.1802 121.141 93.0302C121.111 92.9802 121.081 92.9302 121.051 92.8802C120.971 92.7402 121.091 93.0002 121.051 92.9002C121.041 92.8502 121.021 92.8102 121.011 92.7602L120.971 92.5902C120.991 92.7202 120.991 92.7402 120.981 92.6802C120.981 92.6502 120.981 92.6202 120.981 92.5902C120.981 92.5702 120.981 92.4202 120.981 92.4202C120.981 92.4202 120.941 92.6402 120.981 92.4202C121.071 91.9802 120.851 91.4602 120.371 91.3502C119.931 91.2502 119.401 91.4802 119.301 91.9602C119.131 92.7802 119.321 93.5902 119.851 94.2302C120.311 94.7802 121.031 95.0902 121.741 95.1202C123.281 95.1802 125.051 93.9102 124.641 92.2202C124.531 91.7802 124.011 91.4702 123.571 91.6102C123.111 91.7602 122.851 92.2102 122.961 92.6802H122.991Z" fill="black"/>
<path d="M119.221 91.9301C119.221 91.9301 119.201 92.0101 119.191 92.0401C119.161 92.1301 119.171 92.1101 119.211 91.9901C119.211 92.0001 119.111 92.1901 119.091 92.1901C119.171 92.0901 119.171 92.0801 119.111 92.1501C119.091 92.1701 119.071 92.1901 119.051 92.2101C119.031 92.2301 119.011 92.2501 118.981 92.2701C118.911 92.3301 118.921 92.3201 119.021 92.2501C119.001 92.2901 118.851 92.3601 118.811 92.3801C118.771 92.4001 118.731 92.4201 118.691 92.4401C118.791 92.4001 118.801 92.4001 118.711 92.4401C118.551 92.4901 118.401 92.5301 118.241 92.5701C118.141 92.5901 118.151 92.5901 118.261 92.5701C118.211 92.5701 118.171 92.5801 118.121 92.5801C118.091 92.5801 118.061 92.5801 118.041 92.5801C118.001 92.5801 117.961 92.5801 117.921 92.5801C117.721 92.5801 118.131 92.6201 117.991 92.5901C117.911 92.5701 117.831 92.5601 117.751 92.5301C117.701 92.5201 117.651 92.4901 117.611 92.4801C117.831 92.5201 117.751 92.5401 117.661 92.4901C117.571 92.4401 117.491 92.3801 117.401 92.3301C117.621 92.4601 117.491 92.4001 117.431 92.3401C117.391 92.3001 117.351 92.2701 117.321 92.2301C117.301 92.2101 117.281 92.1801 117.261 92.1601C117.201 92.0901 117.221 92.1101 117.311 92.2301C117.291 92.1701 117.231 92.1201 117.201 92.0701C117.171 92.0301 117.151 91.9801 117.131 91.9401C117.091 91.8601 117.101 91.8801 117.151 92.0001C117.141 91.9701 117.121 91.9301 117.111 91.9001C117.091 91.8301 117.061 91.7601 117.051 91.6801C117.051 91.6501 117.001 91.5201 117.011 91.4901C117.021 91.6001 117.021 91.6101 117.011 91.5101C117.011 91.4601 117.011 91.4201 117.011 91.3701C117.011 91.2801 117.011 91.1801 117.011 91.0901C117.011 91.0301 117.011 90.9401 117.031 90.8801C116.961 91.0901 117.051 90.8101 117.061 90.7601C117.101 90.5701 117.161 90.3901 117.221 90.2101C117.381 89.7801 117.041 89.2401 116.611 89.1401C116.121 89.0301 115.711 89.2901 115.541 89.7501C115.081 90.9901 115.161 92.5901 116.171 93.5501C116.981 94.3201 118.111 94.5001 119.151 94.1401C119.971 93.8501 120.701 93.2701 120.911 92.4001C121.021 91.9601 120.771 91.4401 120.301 91.3301C119.831 91.2201 119.341 91.4601 119.231 91.9401L119.221 91.9301Z" fill="black"/>
<path d="M118.521 82.8701C117.621 85.0401 116.671 87.2001 115.661 89.3601C115.461 89.7801 115.541 90.3001 115.971 90.5501C116.351 90.7701 116.961 90.6701 117.161 90.2401C118.231 87.9601 119.241 85.6601 120.201 83.3401C120.381 82.9101 120.011 82.3801 119.591 82.2701C119.091 82.1301 118.701 82.4401 118.521 82.8801V82.8701Z" fill="black"/>
<path d="M135.62 75.7699C133.6 74.1299 131.21 73.0899 128.58 73.0299C126.59 72.9899 124.63 73.5299 123.05 74.7599C122.37 75.2899 122.5 76.4499 123.05 76.9999C123.72 77.6699 124.62 77.5299 125.29 76.9999C124.96 77.2499 125.27 77.0299 125.42 76.9299C125.55 76.8499 125.68 76.7799 125.81 76.7199C125.89 76.6799 125.97 76.6499 126.05 76.6099C125.97 76.6499 125.77 76.7199 125.97 76.6499C126.15 76.5899 126.32 76.5199 126.5 76.4699C126.67 76.4199 126.84 76.3799 127.02 76.3399C127.12 76.3199 127.22 76.2999 127.32 76.2799C127.37 76.2799 127.72 76.2199 127.48 76.2499C127.24 76.2799 127.64 76.2399 127.65 76.2399C127.74 76.2399 127.82 76.2299 127.91 76.2199C128.13 76.2099 128.36 76.1999 128.58 76.2099C128.79 76.2099 128.99 76.2299 129.2 76.2399C129.27 76.2399 129.6 76.2899 129.27 76.2399C129.37 76.2499 129.46 76.2699 129.56 76.2899C130.03 76.3699 130.49 76.4899 130.94 76.6499C131.06 76.6899 131.19 76.7399 131.31 76.7799C131.56 76.8699 131.31 76.7799 131.45 76.8399C131.67 76.9499 131.9 77.0499 132.11 77.1699C132.56 77.4199 133.08 77.7699 133.38 78.0099C134.04 78.5499 134.97 78.6599 135.62 78.0099C136.18 77.4499 136.29 76.3099 135.62 75.7699V75.7699Z" fill="black"/>
<path d="M118.35 74.6501C116.9 73.3301 114.85 72.8601 112.93 72.9101C111.68 72.9401 110.42 73.1801 109.25 73.6101C108.2 74.0001 107.13 74.4801 106.33 75.2901C105.74 75.8801 105.7 76.9501 106.33 77.5301C106.96 78.1101 107.95 78.1601 108.57 77.5301C108.63 77.4701 108.7 77.4201 108.75 77.3601C108.87 77.2301 108.44 77.5601 108.73 77.3701C108.89 77.2701 109.05 77.1701 109.21 77.0701C109.39 76.9701 109.58 76.8801 109.77 76.7901C110.03 76.6701 109.71 76.8101 109.87 76.7501C109.97 76.7101 110.06 76.6801 110.16 76.6401C110.64 76.4701 111.13 76.3301 111.63 76.2201C111.76 76.1901 111.9 76.1701 112.03 76.1401C112.06 76.1401 112.36 76.1001 112.22 76.1101C112.05 76.1301 112.45 76.0901 112.48 76.0901C112.63 76.0801 112.78 76.0701 112.93 76.0701C113.18 76.0701 113.43 76.0701 113.68 76.0801C113.78 76.0801 113.89 76.1001 113.99 76.1001C114.46 76.1301 113.83 76.0601 114.08 76.1001C114.48 76.1801 114.87 76.2601 115.25 76.3901C115.29 76.4001 115.44 76.4301 115.46 76.4701C115.39 76.3601 115.2 76.3501 115.41 76.4501C115.54 76.5101 115.66 76.5701 115.78 76.6501C115.9 76.7301 116 76.8001 116.12 76.8701C116.3 76.9801 115.98 76.7601 115.97 76.7501C116.02 76.7801 116.07 76.8301 116.11 76.8701C116.72 77.4301 117.76 77.5201 118.35 76.8701C118.91 76.2601 119 75.2201 118.35 74.6301V74.6501Z" fill="black"/>
<path d="M122.8 93.3599C122.8 93.3599 126.38 94.1499 127.16 96.1599C127.52 97.0999 126.98 97.8499 125.91 97.8599C124.84 97.8599 123.3 96.9399 123.3 96.9399C123.3 96.9399 123.63 98.6899 122.24 98.7899C120.85 98.8899 119.92 97.3699 119.92 97.3699C119.92 97.3699 119.73 99.1399 118.22 99.2599C116.71 99.3899 116.46 97.4599 116.46 97.4599C116.46 97.4599 114.3 99.5999 112.86 98.0199C111.42 96.4399 113.47 93.8999 115.25 93.2699C117.03 92.6399 117.19 92.9199 117.19 92.9199C117.19 92.9199 117.76 94.2999 119.49 92.9399C119.49 92.9399 119.92 93.8999 121.15 93.9799C122.38 94.0599 122.8 93.3599 122.8 93.3599Z" fill="black"/>
<path d="M102.46 71.57C102.72 77.06 99.7802 81.9801 98.5402 87.1901C97.3002 92.4001 97.9102 98.1401 99.4402 103.29C100.97 108.44 103.52 113.33 106.96 117.42C110.4 121.51 115.66 123.09 120.96 123.19C126.26 123.29 131.9 121.79 135.81 117.99C137.28 116.56 135.03 114.32 133.57 115.75C130.5 118.73 126.13 119.94 121.94 120.02C117.13 120.12 112.4 118.98 109.21 115.18C103.14 107.94 99.3102 96.78 101.77 87.42C103.16 82.14 105.91 77.17 105.64 71.57C105.54 69.54 102.37 69.52 102.47 71.57H102.46Z" fill="black"/>
<path d="M152.77 89.1201C151.59 88.9201 150.48 89.2501 149.56 90.0001C148.64 90.7501 148.15 91.8801 148 93.0301C147.85 94.1801 147.92 95.4101 148.53 96.3701C149.2 97.4101 150.34 97.7701 151.51 97.9401C151.97 98.0101 152.44 97.8301 152.58 97.3301C152.69 96.9201 152.44 96.3301 151.97 96.2601C151.32 96.1701 150.47 96.0701 150.06 95.5301C149.62 94.9501 149.61 94.0301 149.7 93.3101C149.79 92.5901 150.08 91.8801 150.59 91.4001C151.06 90.9601 151.75 90.6901 152.31 90.7901C152.77 90.8701 153.25 90.6701 153.38 90.1801C153.49 89.7601 153.24 89.1901 152.77 89.1101V89.1201Z" fill="black"/>
<path d="M112.35 104.56C114.08 106.27 116.91 106.95 119.25 107.17C123.09 107.52 126.76 106.19 129.64 103.67C130.63 102.8 129.18 101.35 128.19 102.22C125.7 104.41 122.55 105.43 119.25 105.13C118.07 105.02 116.88 104.73 115.78 104.28C115.04 103.98 114.23 103.53 113.81 103.12C112.87 102.19 111.42 103.64 112.36 104.57L112.35 104.56Z" fill="black"/>
<path d="M126.98 99.95C126.98 101.27 127.56 102.63 128.59 103.47C129.92 104.56 131.64 104.73 133.26 104.27C133.78 104.13 134.15 103.54 133.98 103.01C133.81 102.48 133.27 102.14 132.72 102.29C132.54 102.34 132.35 102.39 132.17 102.42C132.12 102.42 132.07 102.44 132.02 102.45C132.17 102.43 132.18 102.43 132.07 102.45C132 102.45 131.92 102.46 131.85 102.47C131.69 102.48 131.52 102.48 131.36 102.47C131.28 102.47 131.2 102.45 131.13 102.45C131.05 102.45 131.09 102.45 131.24 102.47C131.2 102.47 131.16 102.46 131.11 102.45C130.97 102.42 130.83 102.39 130.69 102.34C130.63 102.32 130.58 102.3 130.52 102.28C130.35 102.22 130.75 102.39 130.49 102.27C130.38 102.22 130.27 102.16 130.16 102.09C130.1 102.05 130.05 102.02 130 101.98C129.84 101.87 130.19 102.15 130 101.98C129.91 101.9 129.82 101.82 129.74 101.74C129.69 101.69 129.64 101.63 129.59 101.58C129.53 101.51 129.48 101.38 129.61 101.62C129.48 101.4 129.34 101.2 129.22 100.97C129.13 100.79 129.3 101.19 129.24 101.02C129.22 100.95 129.19 100.89 129.17 100.82C129.13 100.7 129.1 100.58 129.07 100.46C129.06 100.41 129.05 100.36 129.04 100.3C128.99 100.03 129.05 100.49 129.04 100.31C129.04 100.19 129.02 100.07 129.02 99.95C129.02 99.41 128.55 98.9 128 98.93C127.45 98.96 126.97 99.38 126.98 99.95V99.95Z" fill="black"/>
<path d="M117.261 110.64C118.671 111.19 120.291 111.26 121.791 111.1C122.911 110.98 124.321 110.8 125.261 110.12C125.711 109.79 125.931 109.23 125.631 108.72C125.371 108.28 124.681 108.02 124.231 108.35C124.091 108.45 123.931 108.53 123.781 108.6C124.031 108.48 123.751 108.6 123.651 108.64C123.531 108.68 123.411 108.72 123.291 108.75C123.031 108.82 122.761 108.89 122.491 108.94C122.341 108.97 122.181 109 122.021 109.02C121.981 109.02 121.761 109.05 121.951 109.03C121.871 109.03 121.781 109.05 121.701 109.06C121.021 109.13 120.341 109.14 119.661 109.09C119.571 109.09 119.481 109.07 119.401 109.06C119.371 109.06 119.141 109.02 119.311 109.05C119.141 109.02 118.971 108.99 118.801 108.95C118.471 108.88 118.151 108.78 117.831 108.65C117.311 108.45 116.711 108.87 116.571 109.37C116.411 109.95 116.771 110.43 117.291 110.63L117.261 110.64Z" fill="black"/>
<path d="M125.67 83.4599C125.67 83.4599 125.8 83.2799 125.74 83.3599C125.68 83.4399 125.83 83.2599 125.83 83.2699C125.91 83.1799 126 83.0999 126.1 83.0199C126.21 82.9299 125.94 83.1199 126.16 82.9799C126.21 82.9499 126.25 82.9199 126.3 82.8899C126.42 82.8199 126.55 82.7499 126.67 82.6899L126.75 82.6499C126.69 82.6799 126.68 82.6799 126.75 82.6499C126.8 82.6299 126.86 82.6099 126.91 82.5899C127.05 82.5399 127.19 82.4999 127.33 82.4699C127.46 82.4399 127.58 82.4099 127.71 82.3999C127.58 82.4199 127.72 82.3999 127.78 82.3999C127.85 82.3999 127.92 82.3999 127.99 82.3899C128.12 82.3899 128.24 82.3899 128.37 82.3899C128.4 82.3899 128.59 82.4199 128.42 82.3899C128.47 82.3899 128.53 82.4099 128.58 82.4199C128.72 82.4499 128.85 82.4799 128.99 82.5199C129.04 82.5399 129.1 82.5499 129.15 82.5699C129.15 82.5699 129.36 82.6499 129.28 82.6199C129.2 82.5799 129.39 82.6799 129.41 82.6899C129.47 82.7199 129.54 82.7599 129.6 82.7999C129.66 82.8399 129.72 82.8799 129.78 82.9199C129.71 82.8699 129.78 82.9199 129.81 82.9499C130.07 83.1799 130.15 83.2799 130.32 83.5699C130.56 83.9799 131.1 84.1199 131.51 83.8799C131.92 83.6399 132.06 83.0999 131.82 82.6899C130.24 79.9799 125.88 80.0099 124.17 82.5799C123.91 82.9699 124.09 83.5399 124.48 83.7699C124.91 84.0199 125.41 83.8499 125.67 83.4599V83.4599Z" fill="black"/>
<path d="M109.621 83.04C109.621 83.04 109.751 82.86 109.691 82.94C109.631 83.02 109.781 82.84 109.781 82.85C109.861 82.76 109.951 82.68 110.051 82.6C110.161 82.51 109.891 82.7 110.111 82.56C110.161 82.53 110.201 82.5 110.251 82.47C110.371 82.4 110.501 82.33 110.621 82.27L110.701 82.23C110.641 82.26 110.631 82.26 110.701 82.23C110.751 82.21 110.811 82.19 110.861 82.17C111.001 82.12 111.141 82.08 111.281 82.05C111.411 82.02 111.531 81.99 111.661 81.98C111.531 82 111.671 81.98 111.731 81.98C111.801 81.98 111.871 81.98 111.941 81.97C112.071 81.97 112.191 81.97 112.321 81.97C112.351 81.97 112.541 82 112.371 81.97C112.421 81.97 112.481 81.99 112.531 82C112.671 82.03 112.801 82.06 112.941 82.1C112.991 82.12 113.051 82.13 113.101 82.15C113.101 82.15 113.311 82.23 113.231 82.2C113.151 82.16 113.341 82.26 113.361 82.27C113.421 82.3 113.491 82.34 113.551 82.38C113.611 82.42 113.671 82.46 113.731 82.5C113.661 82.45 113.731 82.5 113.761 82.53C114.021 82.76 114.101 82.86 114.271 83.15C114.511 83.56 115.051 83.7 115.461 83.46C115.871 83.22 116.011 82.68 115.771 82.27C114.191 79.56 109.831 79.59 108.121 82.16C107.861 82.55 108.041 83.12 108.431 83.35C108.861 83.6 109.361 83.43 109.621 83.04V83.04Z" fill="black"/>
<path d="M86.6199 171.3C86.6199 171.3 79.6798 169.41 77.5698 167.3L70.8398 172.35L78.1998 188.76L82.8298 188.34L86.6199 171.3V171.3Z" fill="#E08F8B"/>
<path d="M119.42 145.4C115.48 144.45 108.53 140.67 106.64 139.88C104.75 139.09 102.61 139.85 102.18 142.18C101.05 148.34 117.49 153.5 117.49 153.5C117.49 153.5 114.68 154.36 113.48 155.93C110.5 159.83 113.67 164.34 113.67 164.34C113.67 164.34 113.12 166.86 114.14 169.47C115.01 171.67 116.74 171.52 116.74 171.52C116.74 171.52 115.27 173.86 118.21 176.39C121.16 178.91 125.78 179.76 127.47 178.07C129.16 176.38 125.97 173.65 125.97 173.65C125.97 173.65 126.97 174.33 128.02 174.6C129.39 174.94 130.31 174.92 130.31 174.92C130.31 174.92 132.76 186.54 134.35 193.95C140.66 191.64 146.66 188.72 152.3 185.25C146.64 173.04 139 157.14 135.98 153.46C130.93 147.31 123.36 146.36 119.41 145.41L119.42 145.4Z" fill="#F6A7AD"/>
<path d="M159.2 164.89C158.79 169.96 157.99 175.01 157.33 180.05C157.19 181.13 158.89 181.12 159.03 180.05C159.69 175.01 160.48 169.96 160.9 164.89C160.99 163.8 159.29 163.81 159.2 164.89Z" fill="black"/>
<path d="M154.85 166.7C155.75 168.64 156.89 170.44 158.21 172.13C158.49 172.48 159.12 172.44 159.41 172.13C159.75 171.76 159.7 171.3 159.41 170.93C158.87 170.24 158.25 169.35 157.75 168.53C157.22 167.66 156.74 166.77 156.32 165.85C156.13 165.45 155.52 165.31 155.16 165.55C154.74 165.82 154.65 166.28 154.86 166.71L154.85 166.7Z" fill="black"/>
<path d="M132.54 172.27C130.41 174.16 127.31 173.55 125.05 172.29C124.1 171.76 123.24 173.22 124.19 173.75C127.17 175.41 131.01 175.89 133.74 173.46C134.56 172.73 133.35 171.54 132.54 172.26V172.27Z" fill="black"/>
<path d="M121.63 160.49C119.6 160.33 117.37 160.77 115.71 161.99C114.86 162.61 114.14 163.4 113.72 164.37C113.21 165.54 113.14 166.79 113.39 168.04C113.48 168.49 114.01 168.75 114.43 168.63C114.9 168.5 115.11 168.04 115.02 167.59C114.66 165.85 115.39 164.22 116.82 163.28C118.25 162.34 119.95 162.05 121.63 162.19C122.09 162.23 122.48 161.77 122.48 161.34C122.48 160.85 122.09 160.53 121.63 160.49V160.49Z" fill="black"/>
<path d="M119.89 153.11C115.94 152.69 112.23 155.37 111.3 159.22C111.04 160.28 112.68 160.73 112.94 159.67C113.29 158.23 114.1 156.91 115.29 156.02C116.62 155.03 118.26 154.63 119.89 154.81C120.35 154.86 120.74 154.39 120.74 153.96C120.74 153.46 120.35 153.16 119.89 153.11V153.11Z" fill="black"/>
<path d="M126.06 174.59C127.43 175.66 126.31 177.39 124.97 177.86C124.28 178.1 123.39 178.04 122.68 177.94C121.97 177.84 121.21 177.62 120.55 177.28C119.25 176.6 118.13 175.37 118.02 173.85C117.9 172.25 118.77 170.66 120.02 169.69C121.68 168.41 123.86 168.1 125.9 168.17C126.99 168.21 126.99 166.51 125.9 166.47C123.53 166.39 121.03 166.83 119.09 168.28C117.37 169.57 116.15 171.73 116.33 173.93C116.51 176.13 117.94 177.88 119.83 178.81C121.56 179.66 124.09 180.16 125.9 179.3C126.94 178.81 127.87 177.86 128.25 176.76C128.66 175.58 128.23 174.16 127.25 173.39C126.89 173.11 126.41 173.04 126.05 173.39C125.75 173.68 125.69 174.31 126.05 174.59H126.06Z" fill="black"/>
<path d="M133.36 173.75L131.25 179.65L130.31 174.91L133.36 173.75Z" fill="black"/>
<path d="M53.22 112.06C52.83 111.98 21.01 107.43 18.26 107.01C14.76 106.47 11.65 112.27 22.03 114.34C31.31 116.2 36.24 118 36.24 118C36.24 118 29.48 118.71 29.83 123.14C29.83 123.14 29.79 124.59 30.83 125.99C30.83 125.99 29.05 128.69 30.53 130.29C32.01 131.89 32.98 131.91 32.98 131.91C32.98 131.91 33.69 137.9 38.08 137.34L41.5 137.08C41.5 137.08 43.88 141.7 52.83 140.6C52.83 140.6 55.94 170.46 58.51 182.57C60.49 191.88 67.43 193.9 73.43 193.94C80.24 193.98 87.41 187.56 82.75 173.34C76.79 155.17 69.01 135.21 67.5 130.75C64.54 122.02 58.5 113.17 53.21 112.06H53.22Z" fill="#F6A7AD"/>
<path d="M51.8501 118.22C48.8501 118.67 45.8401 119.07 42.8501 119.56C40.8001 119.89 38.4201 120.64 37.6501 122.8C36.9701 124.71 37.8801 126.98 39.7001 127.88C40.8301 128.44 42.1601 128.47 43.3901 128.58C45.0301 128.72 46.6801 128.86 48.3201 129.01L47.4201 128.11C47.2601 131.21 48.4901 134.52 51.2201 136.21C53.5401 137.65 56.8401 137.39 58.6201 135.21C59.3501 134.32 58.0801 133.04 57.3501 133.94C55.9901 135.61 53.6101 135.71 51.9001 134.51C49.8701 133.08 49.1001 130.49 49.2301 128.12C49.2601 127.6 48.7901 127.26 48.3301 127.22C47.1301 127.12 45.9301 127.01 44.7201 126.91C43.5901 126.81 42.4001 126.81 41.2901 126.55C39.5501 126.14 38.4401 124.06 39.8701 122.62C41.1201 121.36 43.4001 121.3 45.0501 121.05C47.4801 120.69 49.9101 120.33 52.3301 119.97C53.4701 119.8 52.9901 118.07 51.8501 118.23V118.22Z" fill="black"/>
<path d="M36.9601 121.89C37.6101 122.13 38.2801 122.32 38.9601 122.47C39.2001 122.52 39.4401 122.5 39.6501 122.38C39.8401 122.27 40.0101 122.06 40.0601 121.84C40.1101 121.61 40.1001 121.35 39.9701 121.15C39.8501 120.96 39.6601 120.79 39.4301 120.74C38.7501 120.59 38.0801 120.4 37.4301 120.16C37.2201 120.08 36.9201 120.14 36.7401 120.25C36.5601 120.36 36.3801 120.57 36.3301 120.79C36.2801 121.02 36.2901 121.28 36.4201 121.48C36.5501 121.68 36.7301 121.81 36.9601 121.89Z" fill="black"/>
<path d="M39.7898 126.06C38.8898 126.02 37.9898 126.01 37.0898 125.91C37.0098 125.91 36.9298 125.89 36.8498 125.88C36.6398 125.86 36.9998 125.9 36.8798 125.88C36.8398 125.88 36.7998 125.87 36.7598 125.86C36.5598 125.83 36.3698 125.8 36.1698 125.76C35.6498 125.66 35.1398 125.53 34.6298 125.41C34.1698 125.3 33.6298 125.56 33.5198 126.04C33.4098 126.52 33.6598 127.02 34.1498 127.15C35.0998 127.39 36.0598 127.6 37.0298 127.71C37.9498 127.81 38.8698 127.82 39.7898 127.86C40.2598 127.88 40.7098 127.43 40.6898 126.96C40.6698 126.45 40.2898 126.08 39.7898 126.06Z" fill="black"/>
<path d="M44.1202 128.7C44.7002 129.42 43.9102 130.55 43.3002 130.95C42.2702 131.61 40.9702 131.65 39.7902 131.61C38.4102 131.56 37.0302 131.41 35.6702 131.2C34.3102 130.99 32.9402 130.81 31.7602 130.15C30.7502 129.59 29.8402 131.14 30.8502 131.7C32.4002 132.56 34.2202 132.8 35.9502 133.04C37.6802 133.28 39.5402 133.54 41.3202 133.38C42.8502 133.24 44.4202 132.73 45.3602 131.44C46.3002 130.15 46.3602 128.64 45.4002 127.44C44.6802 126.54 43.4102 127.82 44.1302 128.71L44.1202 128.7Z" fill="black"/>
<path d="M42.4601 133.6C42.8101 133.87 43.3801 134.27 43.4601 134.75C43.5201 135.15 43.1201 135.48 42.8101 135.66C42.7401 135.7 42.6701 135.73 42.6101 135.77C42.5501 135.8 42.5701 135.79 42.6601 135.75C42.6101 135.77 42.5601 135.79 42.5201 135.8C42.3401 135.85 42.1701 135.91 41.9901 135.95C41.5501 136.05 41.1601 136.11 40.7701 136.15C38.9701 136.34 37.0901 136.38 35.2901 136.18C34.8101 136.13 34.3901 136.63 34.3901 137.08C34.3901 137.61 34.8001 137.93 35.2901 137.98C37.4701 138.22 39.7901 138.17 41.9501 137.79C43.1101 137.59 44.2601 137.15 44.9101 136.1C45.9301 134.47 44.6501 133.01 43.3801 132.05C42.9901 131.76 42.3701 131.99 42.1501 132.37C41.8801 132.83 42.0801 133.31 42.4701 133.6H42.4601Z" fill="black"/>
<path d="M71.24 71.97C58.95 71.9 46.67 71.83 34.38 71.76C32.51 71.75 32.51 74.66 34.38 74.67C46.67 74.74 58.95 74.81 71.24 74.88C73.11 74.89 73.11 71.98 71.24 71.97Z" fill="black"/>
<path d="M45.0602 65.5099C42.5402 66.5399 40.0202 67.5699 37.5002 68.5899L33.5902 70.1899C32.4102 70.6699 30.9202 71.0899 31.0102 72.6599C31.0802 74.0199 32.4902 74.7999 33.4402 75.5499C34.5402 76.4099 35.6602 77.2499 36.7902 78.0799C38.9202 79.6399 41.1102 81.1199 43.3302 82.5399C44.9102 83.5499 46.3702 81.0299 44.8002 80.0299C42.8402 78.7799 40.9202 77.4799 39.0302 76.1299C38.1102 75.4699 37.1902 74.7899 36.2802 74.0999C35.8702 73.7899 35.4702 73.4799 35.0602 73.1599C34.8502 72.9899 34.6302 72.8199 34.4202 72.6499C34.2802 72.5399 34.1402 72.4199 33.9902 72.3099C33.7402 72.0299 33.7102 72.1499 33.9202 72.6899L33.5502 73.3299C33.6402 73.2299 34.3402 73.0099 34.6202 72.8999L36.1802 72.2599L39.4402 70.9299C41.5702 70.0599 43.7002 69.1899 45.8202 68.3199C46.5502 68.0199 47.0602 67.3499 46.8402 66.5299C46.6502 65.8399 45.7802 65.2199 45.0502 65.5099H45.0602Z" fill="black"/>
</g>
<defs>
<clipPath id="clip0_527_6454">
<rect width="200" height="200" fill="white"/>
</clipPath>
</defs>
</svg>
