<svg width="200" height="200" viewBox="0 0 200 200" fill="none" xmlns="http://www.w3.org/2000/svg">
<g clip-path="url(#clip0_520_5401)">
<path d="M100 200C155.228 200 200 155.228 200 100C200 44.7715 155.228 0 100 0C44.7715 0 0 44.7715 0 100C0 155.228 44.7715 200 100 200Z" fill="#FFE974"/>
<path d="M100 200C130.83 200 158.39 186.05 176.74 164.12C176.57 160.96 176.16 157.48 175.53 153.64C171.71 130.39 161.18 104.3 128.4 98.57C106.73 94.79 68.8901 92.38 37.4301 124.49C27.7201 134.4 20.1601 146.54 18.8701 158.44C37.0101 183.61 66.5901 200 100 200Z" fill="#EF9AC2"/>
<path d="M122.18 165.23C124.3 169.2 127.28 172.82 130.28 176.15C134.45 180.77 139.2 185.03 144.67 188.05C145.92 188.74 147.03 186.83 145.79 186.14C140.48 183.2 135.9 179.07 131.85 174.58C128.97 171.38 126.14 167.92 124.1 164.11C123.41 162.86 121.51 163.97 122.18 165.23Z" fill="#E66FA9"/>
<path d="M100.43 117.32C100.54 116.61 101.39 116.29 101.93 116.77C104.31 118.85 109.6 124.02 111.2 130.04C112.58 135.23 112.24 138.62 111.85 140.32C111.7 140.98 110.93 141.26 110.4 140.85C108.34 139.25 103.8 135.34 102.06 130.73C99.7403 124.6 100.05 119.69 100.43 117.32Z" fill="#901E5E"/>
<path d="M115.87 86.43C115.87 86.43 118.56 92.41 124.59 90.83C129.29 89.6 128.27 83.13 128.27 83.13C128.27 83.13 133.89 84.01 135.77 78.46C137.13 74.45 133.77 71.69 133.77 71.69C133.77 71.69 139.04 70.02 139.55 63.15C140.08 55.87 134.54 53.79 134.54 53.79C134.54 53.79 137.51 48.64 134.32 45.77C130.46 42.29 125.9 44.56 125.9 44.56C125.9 44.56 125.3 36.46 121.18 35.16C113.77 32.82 110.36 38.03 110.36 38.03C110.36 38.03 111.45 33.61 106 30.77C101.48 28.41 97.4102 32.81 97.4102 32.81C97.4102 32.81 95.9002 27 89.2502 28.03C84.3002 28.8 84.1802 34.93 84.1802 34.93C84.1802 34.93 79.3202 32.64 74.8902 35.99C68.6102 40.74 71.0302 48.7 71.0302 48.7C71.0302 48.7 65.3602 47.7 63.3802 52.91C61.1602 58.77 65.9602 61.34 65.9602 61.34C65.9602 61.34 62.9502 66.56 68.3802 68.85C70.8102 69.88 115.87 86.43 115.87 86.43Z" fill="black"/>
<path d="M127.7 69.9999C127.7 69.9999 129.04 59.6199 123.09 50.9799C116.76 41.7899 106.75 38.4599 92.2101 40.9799C77.6701 43.4899 72.0401 54.2799 69.8301 63.8399L109.86 69.0299L107.79 86.0299L118.91 87.5999L127.7 69.9999Z" fill="black"/>
<path d="M118.82 74.69C118.82 74.69 120.05 68.1 124.05 67.19C128.05 66.28 129.61 68.93 129.23 73.57C128.85 78.21 125.61 82.85 120.82 81.78C120.82 81.78 117.86 91.78 118.43 97.76C118.43 97.76 112.6 99.28 108.39 103.09C100.22 110.5 99.9001 114.82 99.9001 114.82C99.1801 110.69 94.7601 109.36 94.7601 109.36C94.7601 109.36 77.4001 110.04 71.1101 100.63C62.4201 87.63 70.6701 63.86 70.6701 63.86C70.6701 63.86 71.3501 61.66 72.8301 59.25C72.8301 59.25 75.6101 59.35 77.8901 57.8C80.9901 55.7 81.0601 52.91 81.0601 52.91C81.0601 52.91 82.3601 56.45 88.2501 56.13C91.5001 55.95 93.7201 54.85 95.8701 51.4C95.8701 51.4 96.1001 55.39 100.68 57.4C104.57 59.11 108.33 56.89 108.33 56.89C104.85 60.31 108.58 68.77 113.73 67.75C113.73 67.75 112.05 75.69 114.87 77.02C116.44 77.75 118.26 76.54 118.82 74.69Z" fill="#DC7B6A"/>
<path d="M98.9303 106.76C94.4503 107.86 89.5603 107.8 85.0503 106.88C80.3603 105.92 76.4403 103.6 73.4003 99.86C66.1103 90.92 67.8703 79.16 70.3503 68.79C71.4003 64.41 72.6703 59.8 75.1203 55.97C76.0003 54.59 73.8103 53.32 72.9303 54.69C70.5203 58.47 69.1903 63.01 68.1003 67.33C66.7303 72.76 65.5003 78.46 65.5503 84.07C65.6503 94.86 71.7003 105.96 82.6303 108.91C88.0503 110.37 94.1303 110.53 99.5903 109.19C101.19 108.82 100.52 106.37 98.9303 106.76Z" fill="black"/>
<path d="M92.7504 103.37C89.9504 104.44 86.7804 104.42 84.0404 103.18C83.6604 103.01 83.2104 103.07 82.9804 103.46C82.7904 103.79 82.8704 104.34 83.2604 104.52C86.3804 105.92 89.9604 106.09 93.1604 104.86C93.5504 104.71 93.8204 104.34 93.7004 103.91C93.5904 103.54 93.1404 103.22 92.7504 103.37Z" fill="black"/>
<path d="M125.36 70.93C124.06 71.06 123.05 71.94 122.55 73.13C121.98 74.49 122.2 75.98 122.42 77.39C122.49 77.8 123 78.03 123.37 77.93C123.81 77.81 123.97 77.39 123.91 76.98C123.75 75.94 123.57 74.82 123.93 73.82C123.93 73.81 123.99 73.68 123.96 73.73C123.94 73.78 124 73.65 124 73.64C124.05 73.53 124.11 73.43 124.17 73.33C124.2 73.29 124.23 73.24 124.26 73.2C124.28 73.17 124.33 73.11 124.28 73.17C124.35 73.08 124.43 72.99 124.52 72.91C124.56 72.87 124.6 72.84 124.63 72.81C124.72 72.73 124.55 72.86 124.65 72.79C124.74 72.72 124.84 72.67 124.94 72.61C124.98 72.59 125.04 72.56 124.96 72.59C125.01 72.57 125.05 72.55 125.1 72.54C125.16 72.52 125.22 72.51 125.28 72.49C125.31 72.48 125.47 72.47 125.34 72.48C125.75 72.44 126.11 72.15 126.11 71.71C126.13 71.31 125.77 70.89 125.36 70.93Z" fill="black"/>
<path d="M84.5 81.0399C84.55 79.6499 84.77 78.2499 85 76.8799C85.23 75.4999 85.49 74.1199 85.88 72.7799C86.17 71.8099 87.71 72.1699 87.42 73.1499C86.79 75.2699 86.43 77.5099 86.19 79.7099C86.08 80.6699 85.82 82.0599 86.38 82.9099C86.99 83.8399 88.5 83.4699 88.57 82.3399C88.64 81.3399 90.15 81.2499 90.15 82.2899C90.15 82.7599 90.51 83.2699 91.03 83.2499C91.55 83.2399 91.88 82.7199 91.86 82.2399C91.8 81.2199 93.39 81.1699 93.44 82.1899C93.51 83.5299 92.44 84.7799 91.08 84.8299C90.42 84.8499 89.81 84.5699 89.36 84.1299C88.76 84.7799 87.89 85.1499 86.91 84.9799C84.98 84.6499 84.44 82.7499 84.5 81.0399Z" fill="black"/>
<path d="M123.88 83.58C124.15 83.56 124.43 83.48 124.73 83.34C125.21 83.12 125.55 82.69 125.69 82.13C125.86 81.48 125.71 80.74 125.32 80.21C124.61 79.25 123.25 79.43 123.19 79.43C123.19 79.43 122.65 79.47 122.72 80C122.78 80.43 123.31 80.34 123.31 80.34C123.32 80.34 124.2 80.24 124.58 80.75C124.81 81.07 124.9 81.5 124.8 81.89C124.76 82.05 124.64 82.35 124.35 82.49C123.98 82.66 123.65 82.63 123.42 82.52C123.09 82.36 122.96 82.04 122.93 81.88C122.93 81.88 122.73 81.91 122.43 81.92C122.13 81.93 121.94 81.92 121.94 81.92C121.96 82.02 122.26 83.03 123.05 83.41C123.29 83.55 123.58 83.6 123.88 83.58Z" fill="#FBE574"/>
<path d="M93.06 64.1599C93.31 63.9899 93.57 63.8399 93.84 63.7099C93.91 63.6799 93.98 63.6499 94.04 63.6199C93.9 63.6799 93.9 63.6799 94.04 63.6199C94.18 63.5699 94.32 63.5199 94.47 63.4799C94.61 63.4399 94.76 63.3999 94.9 63.3699C94.97 63.3499 95.05 63.3399 95.12 63.3299C94.95 63.3499 94.95 63.3499 95.1 63.3299C95.4 63.3099 95.68 63.3099 95.98 63.3299C96.13 63.3499 96.11 63.3399 95.93 63.3199C96 63.3299 96.06 63.3399 96.13 63.3599C96.26 63.3899 96.39 63.4199 96.52 63.4599C96.58 63.4799 97.01 63.6199 96.68 63.4999C96.8 63.5399 96.92 63.6099 97.04 63.6799C97.16 63.7399 97.27 63.8199 97.38 63.8899C97.5 63.9799 97.49 63.9699 97.35 63.8599C97.4 63.8999 97.45 63.9399 97.5 63.9899C97.6 64.0799 97.69 64.1699 97.78 64.2699C97.82 64.3199 97.87 64.3699 97.91 64.4199C97.81 64.2899 97.8 64.2799 97.88 64.3999C98.27 64.9699 99.05 65.2699 99.68 64.8699C100.24 64.5099 100.57 63.6799 100.15 63.0699C99.22 61.7199 97.81 60.9199 96.19 60.7299C94.64 60.5399 93.03 61.0499 91.74 61.8999C91.17 62.2799 90.87 63.0799 91.27 63.6999C91.63 64.2599 92.44 64.5699 93.06 64.1599Z" fill="black"/>
<path d="M75.39 66.34C75.43 66.31 75.8 66.01 75.56 66.19C75.68 66.1 75.8 66.01 75.93 65.93C76.18 65.77 76.45 65.63 76.72 65.5C76.44 65.63 76.87 65.44 76.93 65.43C77.07 65.38 77.21 65.34 77.36 65.3C77.5 65.26 77.65 65.24 77.8 65.21C77.48 65.27 77.93 65.2 78 65.2C78.14 65.19 78.28 65.19 78.42 65.2C78.5 65.2 78.93 65.18 78.6 65.21C78.85 65.19 79.18 65.35 79.42 65.43C79.56 65.48 79.55 65.48 79.4 65.42C79.46 65.45 79.53 65.48 79.59 65.51C79.71 65.57 79.84 65.64 79.95 65.72C80.01 65.76 80.07 65.8 80.12 65.84C79.99 65.74 79.99 65.74 80.1 65.83C80.2 65.93 80.3 66.02 80.4 66.12C80.87 66.62 81.79 66.63 82.26 66.12C82.75 65.58 82.76 64.8 82.26 64.26C81.18 63.11 79.56 62.5 78 62.57C76.32 62.64 74.8 63.38 73.55 64.48C73.03 64.93 73.05 65.88 73.55 66.34C74.08 66.85 74.83 66.82 75.39 66.34Z" fill="black"/>
<path d="M95.9201 109.85C97.2801 110.55 99.4201 112.06 99.9001 114.82C99.9001 114.82 100.21 110.5 108.39 103.09C112.6 99.28 118.43 97.76 118.43 97.76C118.32 96.64 118.34 95.39 118.44 94.08C120 94.22 121.47 94.86 122.37 96.42C125.6 100.61 115.17 122.63 99.7501 123.55C95.0401 123.83 90.8101 119.3 87.8701 109.89L95.9201 109.85Z" fill="#901E5E"/>
<path d="M117.94 100.45C115.04 105.47 111.45 110.04 107.26 114.04C106.36 114.9 107.72 116.26 108.62 115.4C112.92 111.29 116.63 106.57 119.6 101.42C120.22 100.35 118.56 99.38 117.94 100.45Z" fill="#78111B"/>
<path d="M100.75 118.17C101.37 117.81 102.15 118.26 102.13 118.98C102.03 122.14 101.38 129.51 97.7403 134.56C94.6003 138.91 91.7703 140.8 90.2003 141.58C89.6003 141.88 88.8903 141.47 88.8703 140.8C88.8003 138.2 88.9503 132.2 91.4103 127.93C94.6903 122.25 98.6803 119.37 100.75 118.17Z" fill="#901E5E"/>
<path d="M103.61 115.22C102.46 113.99 100.79 113.45 99.1403 113.82C97.6403 114.16 96.5803 115.25 95.8203 116.53C94.9403 118.01 94.3403 119.84 94.5103 121.58C94.6703 123.3 95.6603 125.05 97.2403 125.86C99.0803 126.81 101.13 126.45 102.69 125.16C103.09 124.83 103.03 124.14 102.69 123.8C102.29 123.4 101.73 123.47 101.33 123.8C99.4503 125.34 96.8003 124.07 96.4503 121.71C96.2503 120.41 96.6603 119.03 97.2603 117.89C97.5203 117.39 97.8103 116.93 98.1703 116.54C98.4803 116.2 98.8403 115.94 99.2003 115.8C99.7103 115.61 100.23 115.55 100.7 115.64C101.33 115.77 101.82 116.08 102.27 116.56C103.1 117.49 104.45 116.13 103.61 115.22Z" fill="#78111B"/>
<path d="M97.0302 125.18C96.3302 126.3 95.6602 127.45 95.0202 128.61C94.7802 129.05 94.9002 129.68 95.3602 129.93C95.8102 130.17 96.4202 130.06 96.6802 129.59C97.3202 128.43 97.9902 127.28 98.6902 126.16C98.9602 125.73 98.7902 125.08 98.3502 124.84C97.8702 124.58 97.3102 124.72 97.0302 125.18Z" fill="#78111B"/>
<path d="M92.8505 114.78C93.4705 116 94.3005 117.12 95.2805 118.08C95.6405 118.43 96.2905 118.47 96.6405 118.08C96.9905 117.7 97.0205 117.1 96.6405 116.72C96.2405 116.33 95.8705 115.92 95.5305 115.48C95.5805 115.54 95.6305 115.61 95.6805 115.67C95.2305 115.09 94.8405 114.46 94.5105 113.81C94.2805 113.36 93.6105 113.19 93.1905 113.47C92.7405 113.76 92.6105 114.3 92.8505 114.78Z" fill="#78111B"/>
<path d="M100.5 71.51C100.86 70.94 101.25 70.38 101.66 69.84C101.75 69.73 101.75 69.52 101.72 69.39C101.68 69.25 101.58 69.11 101.45 69.04C101.31 68.97 101.15 68.93 101 68.98C100.95 69 100.91 69.02 100.86 69.04C100.77 69.09 100.7 69.16 100.65 69.25C100.24 69.79 99.8603 70.35 99.4903 70.92C99.3303 71.18 99.4303 71.58 99.7003 71.72C99.9903 71.87 100.32 71.79 100.5 71.51Z" fill="black"/>
<path d="M101.82 72.67C102.25 72.36 102.69 72.08 103.15 71.83C103.28 71.76 103.38 71.62 103.42 71.48C103.46 71.34 103.44 71.15 103.36 71.03C103.19 70.76 102.85 70.66 102.56 70.82C102.1 71.08 101.66 71.36 101.23 71.66C101.1 71.75 101 71.85 100.96 72.01C100.92 72.15 100.94 72.34 101.02 72.46C101.1 72.59 101.22 72.7 101.37 72.73C101.51 72.76 101.69 72.76 101.82 72.67Z" fill="black"/>
<path d="M102.15 73.12C102.24 71.78 100.58 70.85 100.1 70.64C99.0403 70.18 97.4803 69.72 95.4403 69.85C92.0903 70.07 91.2703 71.55 91.1003 72.35C90.9603 73.02 91.1403 74.27 92.2103 74.6C92.7903 74.78 94.0103 74.64 96.2103 74.7C98.2903 74.76 99.6603 74.95 100.31 74.79C100.96 74.63 102.05 74.57 102.15 73.12Z" fill="white"/>
<path d="M97.7704 74.36C100.04 74.36 100.05 70.83 97.7704 70.83C95.5004 70.82 95.5004 74.36 97.7704 74.36Z" fill="black"/>
<path d="M75.0102 70.3799C74.7702 69.6899 74.5002 69.0199 74.2002 68.3599C74.1402 68.2299 73.9802 68.1299 73.8502 68.0899C73.7102 68.0499 73.5202 68.07 73.4002 68.15C73.2702 68.23 73.1602 68.3499 73.1302 68.4999C73.0902 68.6599 73.1202 68.7999 73.1902 68.9499C73.2602 69.0999 73.3302 69.2599 73.3902 69.4199C73.3702 69.3699 73.3502 69.3299 73.3302 69.2799C73.5302 69.7499 73.7102 70.2199 73.8802 70.6999C73.9302 70.8499 74.0102 70.97 74.1502 71.05C74.2802 71.12 74.4602 71.1499 74.6002 71.1099C74.8902 71.0099 75.1202 70.6899 75.0102 70.3799Z" fill="black"/>
<path d="M73.1602 70.6999C72.8202 70.2999 72.4502 69.9299 72.0602 69.5799C71.9502 69.4799 71.8002 69.4099 71.6502 69.4099C71.5102 69.4099 71.3302 69.4699 71.2402 69.5799C71.1402 69.6899 71.0602 69.8399 71.0702 69.9899C71.0802 70.1399 71.1302 70.2999 71.2402 70.3999C71.6302 70.7499 72.0002 71.1299 72.3402 71.5199C72.4302 71.6299 72.6102 71.6899 72.7502 71.6899C72.8902 71.6899 73.0702 71.6299 73.1602 71.5199C73.2602 71.4099 73.3402 71.2599 73.3302 71.1099C73.3202 70.9499 73.2602 70.8199 73.1602 70.6999Z" fill="black"/>
<path d="M71.88 72.3299C72.21 71.0199 73.6 70.1699 74.1 69.9999C75.19 69.6099 76.37 69.4699 78.39 69.7399C81.72 70.1899 82.3 71.2699 82.53 72.1399C82.71 72.7999 82.43 73.7999 81.35 74.0599C80.76 74.1999 79.46 74.1599 77.41 74.1899C75.33 74.2199 73.6 74.3299 72.97 74.1299C72.34 73.9299 71.58 73.5399 71.88 72.3299Z" fill="white"/>
<path d="M78.4304 73.93C80.7004 73.93 80.7104 70.4 78.4304 70.4C76.1604 70.4 76.1504 73.93 78.4304 73.93Z" fill="black"/>
<path d="M90.3801 88.9599C89.5701 89.4799 88.8901 90.2099 88.6101 91.1399C88.3201 92.0899 88.5201 93.2399 89.2501 93.9399C89.9701 94.6299 91.1601 94.8799 92.0301 94.3199C92.5401 93.9999 92.8601 93.4299 92.8201 92.8199C92.7801 92.2199 92.4501 91.6699 91.9201 91.3799C91.2501 91.0099 90.5001 91.1499 90.0201 91.7399C89.7301 92.0999 89.5501 92.5099 89.7501 92.9599C89.8401 93.1799 90.0001 93.3399 90.2001 93.4499C90.5101 93.6199 90.8201 93.5699 91.1301 93.4299C91.5301 93.2499 91.6601 92.6399 91.4301 92.2899C91.1701 91.8799 90.7201 91.7999 90.2901 91.9899C90.2801 91.9999 90.2601 91.9999 90.2501 92.0099C90.3901 91.9699 90.5301 91.9299 90.6701 91.8999C90.6601 91.8999 90.6401 91.8999 90.6301 91.8999C90.7701 91.9399 90.9101 91.9799 91.0501 92.0099C91.0901 92.1499 91.1201 92.2899 91.1601 92.4299C91.1601 92.8399 91.2001 92.9699 91.2901 92.8199C91.3201 92.7299 91.2701 92.8799 91.2501 92.8699L91.3701 92.7399C91.3701 92.7499 91.2401 92.8299 91.3201 92.7799C91.4001 92.7299 91.2601 92.7999 91.2501 92.7999C91.2001 92.8099 91.1501 92.7999 91.1001 92.8099C90.9701 92.8199 91.1901 92.8399 91.0701 92.7999C90.9701 92.7699 91.1201 92.8399 91.1501 92.8599C91.2301 92.9099 91.0901 92.8299 91.1001 92.8199L91.1601 92.8799C91.2401 92.9399 91.1101 92.8199 91.1201 92.8299C91.1501 92.8299 91.1601 92.9299 91.1801 92.9299C91.1601 92.9299 91.1401 92.7799 91.1501 92.8699C91.1501 92.8899 91.1901 93.0299 91.1601 92.8999C91.1301 92.7399 91.1401 93.0799 91.1601 92.9099C91.1701 92.7899 91.1701 92.8899 91.1501 92.9099C91.1501 92.9199 91.1401 92.9299 91.1401 92.9399C91.1301 92.9799 91.1301 92.9799 91.1501 92.9199C91.2101 92.8699 91.1601 92.8899 91.1401 92.9199C91.1501 92.9099 91.2401 92.8199 91.1801 92.8699C91.1701 92.8699 91.1101 92.9299 91.1201 92.9299C91.1201 92.8999 91.2601 92.8399 91.1401 92.8999C91.0001 92.9699 91.2701 92.8699 91.1301 92.9099C91.0901 92.9199 90.9901 92.9299 90.9701 92.9499C90.9701 92.9499 91.1401 92.9399 91.0501 92.9399C91.0201 92.9399 90.9901 92.9399 90.9701 92.9499C90.9301 92.9499 90.7301 92.9299 90.8601 92.9499C90.9901 92.9699 90.8101 92.9399 90.7801 92.9299C90.7201 92.9199 90.6701 92.8999 90.6201 92.8799C90.5301 92.8499 90.6901 92.8999 90.6901 92.9099C90.6801 92.8999 90.6301 92.8799 90.6101 92.8699C90.5701 92.8499 90.4801 92.7599 90.4401 92.7599C90.4601 92.7599 90.5801 92.8899 90.4801 92.7799C90.4601 92.7599 90.4401 92.7399 90.4201 92.7199C90.4001 92.6999 90.2801 92.5599 90.3501 92.6599C90.4201 92.7599 90.3101 92.5999 90.3001 92.5699C90.2801 92.5399 90.2701 92.5199 90.2601 92.4899C90.1901 92.3699 90.2801 92.5099 90.2701 92.5199C90.2701 92.5199 90.1801 92.1999 90.1701 92.1699C90.1401 92.0099 90.1701 92.3099 90.1701 92.1499C90.1701 92.0799 90.1601 92.0099 90.1701 91.9299C90.1701 91.8999 90.1901 91.7099 90.1701 91.8199C90.1501 91.9399 90.1901 91.7499 90.1901 91.7199C90.2001 91.6599 90.2201 91.5999 90.2401 91.5399C90.2501 91.5099 90.2601 91.4799 90.2701 91.4499C90.3101 91.3199 90.2601 91.4799 90.2601 91.4799C90.2501 91.4699 90.4701 91.0999 90.4901 91.0799C90.4901 91.0699 90.5401 90.9999 90.5401 90.9999C90.5401 90.9999 90.4301 91.1299 90.5201 91.0199C90.5701 90.9699 90.6101 90.9099 90.6601 90.8599C90.7601 90.7499 90.8701 90.6599 90.9801 90.5599C90.9901 90.5499 91.0301 90.4999 91.0501 90.4999C91.0101 90.5099 90.9401 90.5799 91.0301 90.5199C91.1001 90.4699 91.1701 90.4299 91.2401 90.3799C91.6101 90.1499 91.7901 89.6299 91.5401 89.2399C91.2801 88.8899 90.7701 88.7099 90.3801 88.9599Z" fill="black"/>
<path d="M88.1404 97.67C89.6304 98.41 91.4104 98.55 92.9704 97.93C93.3704 97.77 93.7004 97.37 93.5504 96.91C93.4204 96.52 92.9604 96.16 92.5304 96.33C92.2004 96.46 91.8604 96.56 91.5104 96.62C91.4804 96.63 91.2504 96.65 91.4504 96.63C91.3604 96.64 91.2604 96.65 91.1704 96.65C91.0104 96.66 90.8404 96.66 90.6704 96.66C90.5904 96.66 90.5104 96.65 90.4204 96.65C90.3804 96.65 90.1204 96.61 90.3304 96.64C90.1704 96.62 90.0004 96.58 89.8404 96.55C89.6804 96.51 89.5204 96.46 89.3704 96.41C89.3404 96.4 89.0604 96.29 89.2404 96.36C89.1504 96.32 89.0704 96.28 88.9804 96.24C88.5904 96.05 88.0604 96.12 87.8404 96.54C87.6404 96.91 87.7204 97.47 88.1404 97.67Z" fill="black"/>
<path d="M114.01 152.54C114.01 152.54 107.14 146.94 100.35 152.48C95.84 156.16 95.29 159.92 93.94 162.74C93.72 163.19 92.46 165.58 90.39 167.75C87.26 171.03 84.06 174.11 85.38 176.48C86.95 179.3 89.02 179.65 92.87 176.03C95.43 173.63 96.85 172.1 97.62 171.44C97.83 171.25 98.15 171.49 98.03 171.75C97.5 172.91 96.36 175.37 95.26 177.39C92.45 182.54 90.22 187.01 92.84 189.2C96.54 192.29 99.71 185.87 101.29 183.35C102.56 181.32 104.34 178.6 104.99 177.65C105.03 177.6 105.11 177.64 105.09 177.7C104.53 179.22 102.48 184.81 101.82 187.34C101.05 190.28 99.83 193.11 101.76 194.79C103.69 196.47 106.34 196.06 107.39 193.85C108.08 192.41 111.86 182.78 112.79 180.39C112.81 180.33 112.9 180.36 112.89 180.42C112.68 181.5 112.22 183.98 111.85 186.47C111.36 189.79 111.3 193.32 112.03 195.08C113.32 198.18 117.07 197.95 118.46 194.68C119.43 192.41 122.18 177.84 122.18 177.84C122.18 177.84 122.06 182.67 124.68 186.05C127.3 189.42 131.1 190.19 132.81 187.5C134.53 184.81 130.86 178.21 130.76 175.13C130.66 172.05 131.15 169.58 130.65 165.03C130.06 159.64 127.17 156.07 122.89 153.73C118.28 151.19 114.01 152.54 114.01 152.54Z" fill="#B86C51"/>
<path d="M114.37 167.9C114.68 170.37 115.52 172.58 117.18 174.47C118.71 176.21 121.07 177.57 123.4 177.75C124.38 177.82 124.38 176.29 123.4 176.22C121.47 176.08 119.51 174.81 118.26 173.39C116.89 171.84 116.16 169.94 115.9 167.91C115.85 167.5 115.59 167.14 115.13 167.14C114.76 167.13 114.32 167.48 114.37 167.9Z" fill="black"/>
<path d="M96.4898 168.73C100.59 175.16 108.61 180.37 116.45 179.45C117.42 179.34 117.43 177.8 116.45 177.92C109.13 178.78 101.64 173.98 97.8098 167.96C97.2798 167.13 95.9598 167.9 96.4898 168.73Z" fill="black"/>
<path d="M87.1203 141.85C86.1503 144.65 89.1903 142.5 90.9803 141.49C93.6503 139.99 94.6003 139.62 98.2303 136.71C101.86 133.81 103.89 131.04 106.2 131.88C108.51 132.72 108.8 134.78 108.12 136.61C107.44 138.44 103.16 144.62 97.7703 147.27C97.7703 147.27 100.18 146.59 105.79 144.45C109.9 142.89 112.39 139.85 114.48 142.18C117.6 145.65 113.36 148.65 113.36 148.65C113.36 148.65 115.78 149.08 115.65 151.5C115.54 153.54 112.77 156.17 110.71 157.5C110.71 157.5 113.22 156.77 113.97 158.75C114.74 160.79 111.8 164.39 105.32 166.78C102.24 167.91 97.5203 169.27 93.7003 169.44C89.3803 169.63 86.1403 169.36 82.5103 170.37C79.2003 171.29 75.9103 173.84 75.9103 173.84L64.0703 153.23C64.0703 153.23 68.6103 151.03 69.9903 150.44C75.0003 148.3 75.1103 145.29 76.9703 141.9C78.5303 139.05 80.4803 136.84 82.4703 134.18C84.4703 131.52 85.0403 128.91 87.0703 128.77C90.0903 128.55 91.2603 132.81 90.0903 135.88C88.9903 138.75 87.7003 140.18 87.1203 141.85Z" fill="#DA7B6A"/>
<path d="M99.0205 155.65C104.551 155.08 109.771 152.95 114.141 149.51C115.031 148.81 113.781 147.57 112.891 148.26C108.921 151.38 104.041 153.36 99.0205 153.88C97.9005 154 97.8905 155.77 99.0205 155.65Z" fill="black"/>
<path d="M100.341 162.25C104.441 162.09 108.601 160.64 111.851 158.13C112.231 157.84 112.431 157.37 112.171 156.92C111.951 156.55 111.341 156.31 110.961 156.6C107.941 158.93 104.141 160.33 100.341 160.48C99.2105 160.52 99.2005 162.29 100.341 162.25Z" fill="black"/>
<path d="M137.18 143.95C143.44 147 149.24 150.9 154.41 155.57C155.46 156.52 157.03 154.96 155.97 154.01C150.67 149.22 144.72 145.18 138.3 142.05C137.02 141.42 135.9 143.33 137.18 143.95Z" fill="#E66FA9"/>
<path d="M61.9803 152.77C66.6603 160.39 71.3603 167.99 75.9403 175.67C76.6703 176.89 78.5803 175.78 77.8503 174.55C73.2703 166.87 68.5703 159.26 63.8903 151.65C63.1503 150.45 61.2303 151.55 61.9803 152.77Z" fill="#E66FA9"/>
<path d="M62.3003 150.85C57.7403 152.56 53.3003 154.6 49.0503 156.97C47.8103 157.66 48.9203 159.57 50.1703 158.88C54.2603 156.6 58.5103 154.62 62.8903 152.98C63.4503 152.77 63.8303 152.23 63.6603 151.62C63.5103 151.09 62.8603 150.64 62.3003 150.85Z" fill="#E66FA9"/>
<path d="M54.1802 188.46C62.4902 185.49 70.1902 181 77.4602 176.06C78.6302 175.27 77.5302 173.35 76.3402 174.15C69.2302 178.97 61.7102 183.42 53.5902 186.32C52.2602 186.81 52.8302 188.94 54.1802 188.46Z" fill="#E66FA9"/>
</g>
<defs>
<clipPath id="clip0_520_5401">
<rect width="200" height="200" fill="white"/>
</clipPath>
</defs>
</svg>
