<svg width="200" height="200" viewBox="0 0 200 200" fill="none" xmlns="http://www.w3.org/2000/svg">
<g clip-path="url(#clip0_520_5402)">
<path d="M100 200C155.228 200 200 155.228 200 100C200 44.7715 155.228 0 100 0C44.7715 0 0 44.7715 0 100C0 155.228 44.7715 200 100 200Z" fill="#FFE974"/>
<path d="M184.95 152.77C184.84 152.15 184.73 151.56 184.61 150.99C180.29 134.88 174.3 116.79 148.52 110.07C108.31 99.6 70.9802 116.78 61.1102 158.93C60.5202 161.44 57.8802 175.93 55.4302 189.53C68.8502 196.23 83.9802 200 100 200C135.86 200 167.3 181.12 184.95 152.77Z" fill="#EC6723"/>
<path d="M139.43 108.17C130.28 106.72 121.39 106.73 113.06 108.17C110.94 110.72 108.71 113.69 106.41 117.13C97.9002 129.85 83.8602 163.21 77.1602 197.38C84.4902 199.09 92.1402 200 100 200C102.77 200 105.5 199.88 108.21 199.66C110.21 180.16 113.64 156.33 114.75 150.56C118.95 128.79 129.98 115.69 139.43 108.17Z" fill="#B2E1EE"/>
<path d="M91.5698 117.49C88.4598 120.61 85.5998 123.96 83.0198 127.53C82.3898 128.4 81.7698 129.29 81.1698 130.19C80.6598 130.96 79.9098 131.83 79.9398 132.82C79.9998 134.79 82.4598 136.22 83.9798 137.02C85.0898 137.6 86.0698 135.92 84.9598 135.34C84.1398 134.91 83.3498 134.41 82.6498 133.79C82.3998 133.57 82.0098 133.27 81.9298 132.94C81.8298 132.52 82.2598 132.07 82.4898 131.72C83.4898 130.18 84.5498 128.68 85.6598 127.22C87.8898 124.27 90.3398 121.49 92.9498 118.88C93.8298 117.98 92.4498 116.6 91.5698 117.49Z" fill="#FFC11E"/>
<path d="M87.4497 83.71C87.4497 83.71 82.5497 88.53 80.8697 98.98C79.1897 109.43 80.4798 120.41 93.4098 118.24C93.3998 118.25 81.3697 109.7 87.4497 83.71Z" fill="black"/>
<path d="M102.98 120.55C102.98 120.55 106.07 124.08 116.44 121.39C126.81 118.7 130.86 111.53 130.86 111.53C130.86 111.53 125.22 104.55 128.97 96.9899C128.97 96.9899 133.56 99.8399 136.77 92.5299C139.97 85.2199 136.6 78.1299 132.3 77.2899C128 76.4499 123.61 81.5199 125.22 85.8499C125.22 85.8499 121.76 83.0999 122.18 76.4399C122.6 69.7799 122.6 69.7799 122.6 69.7799L115.26 66.5799L101.06 64.0499L88.58 73.4999L88.42 80.5399C88.42 80.5399 83.49 94.3299 86.18 105.42C88.86 116.52 97.19 121.55 102.98 120.55Z" fill="#F6A6AC"/>
<path d="M83.05 74.34C82.91 80.89 87.45 83.71 87.45 83.71L88.58 81.13C88.92 82.75 89.49 81.99 92.66 81.64C95.83 81.29 98.63 80.89 98.63 80.89C98.63 80.89 98.27 79.51 98.3 74.22C98.32 69.78 100.13 66.44 100.71 65.49C98.91 68.64 99.56 75.45 100.47 78.18C101.41 81 103.49 79.74 107.74 79.5C110.41 79.35 113.66 79.26 115.69 79.21C116.58 79.19 117.17 78.29 116.85 77.46C115.82 74.69 115.51 71.31 115.41 69.53C115.89 75.61 120.79 77.99 120.79 77.99C121.04 81.59 124.02 84.71 124.94 85.59C125 85.65 125.05 85.69 125.08 85.73C125.1 85.75 125.12 85.77 125.14 85.79C125.15 85.8 125.17 85.81 125.18 85.82C125.21 85.84 125.22 85.85 125.22 85.85C123.62 81.51 128.01 76.45 132.31 77.29C136.62 78.13 139.99 85.22 136.78 92.53C133.84 99.25 129.71 97.38 129.07 97.03C128.99 97.12 128.9 97.25 128.8 97.4C128.8 97.4 128.8 97.4 128.79 97.41C125.44 104.8 130.88 111.53 130.88 111.53C139.28 118.57 153.96 111.88 154.99 99.22C156.01 86.56 152.95 77.17 144.41 65.39C135.88 53.62 124.05 47.91 106.42 51.1C88.77 54.28 83.19 67.79 83.05 74.34Z" fill="black"/>
<path d="M137.04 81.72C137.32 82.37 137.55 83.06 137.72 83.79C139.71 84.8 137.98 86.29 140.18 87.01C142.62 87.8 142.31 83.35 137.04 81.72Z" fill="#B3202D"/>
<path d="M116.29 84.12C116.29 84.12 119.23 83.53 123.28 83.14C123.82 83.09 124.37 83.04 124.95 83C125.04 82.48 125.19 81.97 125.4 81.48C124.43 81.54 123.54 81.62 122.72 81.7C118.95 82.03 116.9 82.38 116.9 82.38L116.29 84.12Z" fill="#B3202D"/>
<path d="M110.51 83.8099C113.37 84.2699 112.21 86.7499 110.41 86.8499C108.61 86.9499 107.27 87.3799 106.59 87.7199C105.91 88.0599 104.56 88.3499 103.98 87.1099C103.3 85.6299 106.88 83.2199 110.51 83.8099Z" fill="white"/>
<path d="M94.0701 86.92C95.9401 87.55 95.8801 89.77 93.7801 89.8C91.6701 89.82 90.5701 90.28 89.7801 90.61C88.9801 90.95 88.2301 90.47 88.1201 89.31C87.9701 87.81 91.3301 86 94.0701 86.92Z" fill="white"/>
<path d="M106.14 118.85C101.89 120.61 96.68 119.47 93.29 116.48C86.56 110.55 85.75 100.66 86.76 92.31C87.28 88.03 88.32 83.81 89.69 79.72C90.09 78.53 88.2099 78.02 87.8099 79.2C85.0999 87.29 83.4799 96.25 85.0299 104.74C86.4999 112.79 91.9499 121.05 100.81 121.56C102.72 121.67 104.86 121.46 106.65 120.72C107.8 120.26 107.3 118.38 106.14 118.85Z" fill="black"/>
<path d="M88.1797 92.7399C91.4097 95.3799 94.1797 92.7899 94.8297 91.3999C95.4697 90.0199 95.4697 89.4599 95.4697 89.4599C95.4697 89.4599 97.4097 87.4799 99.9897 88.9999C99.9897 88.9999 100.87 92.3299 102.44 91.1699C102.44 91.1699 106.96 94.5899 112.46 89.9699C117.95 85.3499 119.47 79.3099 116.15 79.3599C112.82 79.3999 104.15 81.9899 99.4897 86.5499C99.4897 86.5499 96.9497 85.4499 95.3397 87.0999C95.3397 87.0999 90.7797 82.9499 85.4497 82.4799C80.0997 82.0299 84.9397 90.1099 88.1797 92.7399ZM101.14 87.4299C101.14 87.4299 104.77 83.4299 111.29 82.0299C117.81 80.6299 113.59 87.0699 110.97 88.9999C108.33 90.9399 104.39 91.0299 102.47 89.7699C100.57 88.4999 101.14 87.4299 101.14 87.4299ZM90.7897 85.7099C93.5497 87.1399 94.7897 88.0399 94.5597 89.5099C94.3297 90.9699 92.8997 91.8699 92.8997 91.8699C90.3197 94.2799 85.8397 89.5999 85.3997 86.4799C84.9597 83.3499 88.0197 84.2799 90.7897 85.7099Z" fill="#B3202D"/>
<path d="M98.95 97.1099C98.93 97.1799 98.91 97.2399 98.89 97.2999C98.85 97.4299 98.94 97.2099 98.9 97.2699C98.88 97.2999 98.87 97.3299 98.85 97.3599C98.82 97.4199 98.77 97.4699 98.74 97.5299C98.81 97.3999 98.78 97.4799 98.74 97.5199C98.72 97.5399 98.7 97.5599 98.68 97.5799C98.65 97.6099 98.62 97.6299 98.59 97.6599C98.53 97.7199 98.6 97.6499 98.63 97.6299C98.57 97.6599 98.52 97.7099 98.46 97.7399C98.43 97.7599 98.37 97.7699 98.35 97.7999C98.38 97.7799 98.46 97.7599 98.38 97.7799C98.3 97.7999 98.22 97.8199 98.15 97.8399C98.07 97.8599 98.31 97.8299 98.17 97.8399C98.13 97.8399 98.1 97.8399 98.06 97.8399C98.02 97.8399 97.99 97.8399 97.95 97.8399C97.93 97.8399 97.8 97.8299 97.91 97.8399C98.02 97.8499 97.88 97.8299 97.87 97.8299C97.83 97.8199 97.8 97.8099 97.76 97.7999C97.74 97.7899 97.68 97.7599 97.66 97.7599C97.71 97.7499 97.77 97.8099 97.67 97.7599C97.66 97.7499 97.64 97.7499 97.63 97.7399C97.59 97.7099 97.6 97.7299 97.67 97.7799C97.65 97.7999 97.59 97.6399 97.64 97.7599C97.68 97.8499 97.64 97.7499 97.63 97.7299C97.62 97.7099 97.56 97.6099 97.61 97.6999C97.66 97.7899 97.61 97.6899 97.6 97.6699C97.59 97.6399 97.58 97.6099 97.57 97.5699C97.55 97.4999 97.54 97.4299 97.52 97.3499C97.46 97.0199 97.04 96.7999 96.72 96.8999C96.36 97.0199 96.2 97.3399 96.27 97.6999C96.36 98.1599 96.54 98.5899 96.95 98.8499C97.36 99.1099 97.87 99.1799 98.34 99.1099C99.23 98.9899 99.98 98.3199 100.19 97.4399C100.27 97.1099 100.09 96.7199 99.74 96.6399C99.41 96.5799 99.03 96.7599 98.95 97.1099Z" fill="black"/>
<path d="M96.2798 97.33C96.2698 97.41 96.2498 97.48 96.2298 97.56C96.2098 97.64 96.2898 97.44 96.2398 97.54C96.2198 97.58 96.1998 97.62 96.1798 97.65C96.1698 97.66 96.1598 97.67 96.1598 97.69C96.1198 97.75 96.1298 97.74 96.1798 97.66C96.1798 97.67 96.1198 97.73 96.1098 97.74C96.0798 97.77 96.0598 97.79 96.0298 97.81C95.9298 97.91 96.1498 97.74 96.0298 97.81C95.9998 97.83 95.9598 97.85 95.9298 97.87C95.9098 97.88 95.8798 97.89 95.8598 97.9C95.8798 97.89 95.8998 97.88 95.9198 97.88C95.8698 97.93 95.7298 97.93 95.6698 97.95C95.5898 97.97 95.8098 97.94 95.6898 97.95C95.6498 97.95 95.5998 97.96 95.5598 97.96C95.5198 97.96 95.4898 97.96 95.4498 97.96C95.3998 97.96 95.4198 97.96 95.5098 97.97C95.4898 97.97 95.4698 97.96 95.4398 97.96C95.3598 97.94 95.2798 97.92 95.1998 97.89C95.0898 97.85 95.2798 97.93 95.2098 97.89C95.1798 97.87 95.1398 97.86 95.1098 97.84C95.0898 97.83 95.0198 97.77 94.9998 97.77C95.0398 97.77 95.0998 97.85 95.0098 97.77C94.9498 97.72 94.9098 97.64 94.8498 97.6C94.8998 97.64 94.9098 97.69 94.8598 97.61C94.8398 97.58 94.8198 97.55 94.7998 97.52C94.7898 97.5 94.7398 97.43 94.7398 97.4C94.7698 97.48 94.7798 97.5 94.7598 97.45C94.7498 97.43 94.7498 97.41 94.7398 97.39C94.7298 97.37 94.6798 97.18 94.6898 97.18C94.6998 97.27 94.6998 97.3 94.6998 97.24C94.6998 97.22 94.6998 97.2 94.6998 97.18C94.6998 97.14 94.6998 97.09 94.6998 97.05C94.7098 96.71 94.3898 96.39 94.0498 96.4C93.6898 96.42 93.4098 96.68 93.3998 97.05C93.3698 98.06 94.1098 99.05 95.1298 99.22C95.6698 99.31 96.2398 99.24 96.6998 98.93C97.1198 98.64 97.4698 98.2 97.5398 97.69C97.5698 97.51 97.5698 97.35 97.4698 97.19C97.3898 97.06 97.2398 96.93 97.0798 96.89C96.7698 96.81 96.3298 96.97 96.2798 97.33Z" fill="black"/>
<path d="M94.6402 97.17C95.0502 94.51 95.5502 91.86 96.1202 89.23C96.3002 88.42 95.0502 88.07 94.8702 88.89C94.2902 91.52 93.8002 94.17 93.3902 96.83C93.3402 97.18 93.4802 97.53 93.8402 97.63C94.1502 97.71 94.5902 97.52 94.6402 97.17Z" fill="black"/>
<path d="M108.9 86.72C110.24 86.72 110.24 84.63 108.9 84.63C107.56 84.63 107.56 86.72 108.9 86.72Z" fill="black"/>
<path d="M92.7 89.66C93.95 89.66 93.95 87.72 92.7 87.72C91.45 87.72 91.44 89.66 92.7 89.66Z" fill="black"/>
<path d="M102.42 113.29C104.24 114.14 106.22 114.42 108.2 114.11C108.55 114.06 108.74 113.62 108.65 113.31C108.55 112.94 108.2 112.8 107.85 112.86C106.24 113.11 104.54 112.86 103.06 112.17C102.74 112.02 102.36 112.08 102.17 112.4C102.02 112.69 102.1 113.14 102.42 113.29Z" fill="black"/>
<path d="M131.45 91.4C132.27 91.51 133.02 91.09 133.35 90.32C133.67 89.58 133.55 88.72 133.36 87.96C133.02 86.59 132.07 85.19 130.57 84.97C130.22 84.92 129.87 85.06 129.77 85.42C129.69 85.73 129.87 86.16 130.22 86.22C131.14 86.36 131.73 87.08 132.01 87.97C132.16 88.44 132.29 88.97 132.24 89.46C132.22 89.65 132.16 89.85 132.06 89.96C131.99 90.04 131.96 90.07 131.86 90.12C131.89 90.11 131.66 90.14 131.78 90.15C131.43 90.1 131.08 90.23 130.98 90.6C130.91 90.9 131.1 91.35 131.45 91.4Z" fill="black"/>
<path d="M131.62 80.78C130.71 81.16 130.15 82.35 129.75 83.21C129.29 84.2 128.99 85.24 128.94 86.34C128.89 87.35 129.08 88.36 129.49 89.29C129.86 90.14 130.51 91.15 131.46 91.4C132.27 91.61 132.61 90.36 131.8 90.15C131.21 89.99 130.79 89.1 130.58 88.58C130.3 87.87 130.19 87.1 130.23 86.34C130.27 85.57 130.47 84.8 130.77 84.08C130.92 83.71 131.11 83.36 131.31 83.02C131.42 82.84 131.53 82.66 131.65 82.48C131.71 82.39 131.86 82.07 131.96 82.03C132.29 81.9 132.51 81.6 132.41 81.23C132.34 80.93 131.94 80.65 131.62 80.78Z" fill="black"/>
<path d="M127.45 96.0599C127.79 96.5899 128.28 97.0099 128.86 97.2599C129.52 97.5499 130.2 97.6699 130.91 97.7099C131.25 97.7299 131.57 97.3999 131.56 97.0599C131.54 96.6899 131.28 96.4399 130.91 96.4099C130.77 96.3999 130.63 96.3899 130.48 96.3699C130.4 96.3599 130.41 96.3599 130.49 96.3699C130.45 96.3699 130.42 96.3599 130.38 96.3499C130.31 96.3399 130.24 96.3299 130.17 96.3099C130.03 96.2799 129.89 96.2499 129.76 96.2099C129.69 96.1899 129.62 96.1699 129.56 96.1399C129.53 96.1299 129.49 96.1099 129.46 96.0999C129.54 96.1299 129.55 96.1399 129.51 96.1199C129.41 96.0699 129.3 96.0199 129.2 95.9599C129.15 95.9299 129.09 95.8999 129.04 95.8599C129.01 95.8399 128.83 95.7499 128.98 95.8299C128.88 95.7799 128.79 95.6599 128.71 95.5799C128.67 95.5399 128.62 95.4899 128.59 95.4399C128.68 95.5899 128.58 95.4099 128.56 95.3799C128.38 95.0999 127.98 94.9499 127.67 95.1499C127.4 95.3599 127.25 95.7599 127.45 96.0599Z" fill="black"/>
<path d="M83.6998 135.73C80.0098 140.9 76.7098 146.77 76.8298 153.28C76.9298 159.12 78.4998 165.02 81.9698 169.78C82.6998 170.78 84.3898 169.81 83.6498 168.8C80.3698 164.3 78.8798 158.81 78.7798 153.28C78.6698 147.12 81.9098 141.59 85.3898 136.72C86.1098 135.69 84.4198 134.72 83.6998 135.73Z" fill="#FFC11E"/>
<path d="M133.01 119.91C133.91 123.56 134.58 127.26 134.97 131C135.16 132.85 135.3 134.71 135.35 136.57C135.36 136.83 135.45 137.32 135.28 137.56C135.09 137.83 134.56 137.9 134.27 137.96C133.31 138.16 132.32 138.18 131.35 138.12C130.1 138.05 130.1 139.99 131.35 140.06C133 140.15 135.54 140.2 136.74 138.83C137.36 138.13 137.32 137.26 137.29 136.38C137.25 135.2 137.18 134.03 137.08 132.85C136.71 128.31 135.97 123.81 134.88 119.39C134.59 118.18 132.71 118.7 133.01 119.91Z" fill="#FFC11E"/>
<path d="M130.29 139.09C130.53 142.19 130.53 145.3 130.21 148.39C129.88 151.56 128.92 154.34 127.2 157.02C124.35 161.46 120.36 165.31 115.45 167.38C114.31 167.86 114.81 169.74 115.97 169.26C121.26 167.03 125.52 163.11 128.66 158.34C130.46 155.61 131.58 152.77 132.02 149.52C132.48 146.07 132.51 142.56 132.24 139.09C132.14 137.85 130.2 137.84 130.29 139.09Z" fill="#FFC11E"/>
<path d="M155.46 149.95C156.57 158.51 157.67 167.07 158.78 175.62C158.9 176.58 160.43 176.59 160.3 175.62C159.19 167.06 158.09 158.5 156.98 149.95C156.86 148.99 155.34 148.98 155.46 149.95Z" fill="black"/>
<path d="M104.02 81.93C104.44 81.62 104.87 81.33 105.33 81.09C105.57 80.96 105.82 80.84 106.07 80.72C106.18 80.67 106.2 80.66 106.12 80.7C106.18 80.67 106.25 80.65 106.31 80.62C106.42 80.58 106.54 80.53 106.65 80.49C107.14 80.32 107.64 80.18 108.15 80.08C108.27 80.06 108.39 80.04 108.51 80.02C108.63 80 108.65 80 108.56 80.01C108.63 80 108.7 79.99 108.77 79.99C109.05 79.96 109.32 79.94 109.6 79.94C110.11 79.92 110.6 79.5 110.57 78.97C110.55 78.46 110.14 77.98 109.6 78C107.25 78.07 104.92 78.84 103.04 80.26C102.63 80.56 102.38 81.11 102.69 81.59C102.95 81.98 103.59 82.25 104.02 81.93Z" fill="black"/>
<path d="M95.5398 80.92C93.3098 79.8 90.6998 79.79 88.4698 80.9C88.0098 81.13 87.8498 81.81 88.1198 82.23C88.4198 82.7 88.9598 82.82 89.4498 82.58C90.1898 82.21 91.1298 82 91.9998 82C92.5598 82 92.8098 82.03 93.2798 82.14C93.7998 82.26 94.1598 82.4 94.5498 82.59C94.9998 82.82 95.6198 82.73 95.8798 82.24C96.1198 81.8 96.0198 81.16 95.5398 80.92Z" fill="black"/>
<path d="M102.9 104.22C107.22 104.26 111.45 102.47 114.43 99.33C115 98.73 114.09 97.81 113.51 98.41C110.76 101.3 106.89 102.95 102.89 102.92C102.06 102.92 102.06 104.21 102.9 104.22Z" fill="black"/>
<path d="M113.08 97.2899C113.35 97.9499 113.71 98.5399 114.19 99.0699C114.63 99.5599 115.16 99.9799 115.74 100.3C116.04 100.46 116.46 100.38 116.63 100.07C116.79 99.7699 116.71 99.3599 116.4 99.1799C116.27 99.1099 116.14 99.0299 116.02 98.9499C115.96 98.9099 115.91 98.8699 115.85 98.8299C115.82 98.8099 115.8 98.7899 115.77 98.7699C115.71 98.7199 115.88 98.8599 115.79 98.7799C115.56 98.5999 115.35 98.3999 115.15 98.1799C115.1 98.1299 115.06 98.0799 115.02 98.0299C115 97.9999 114.98 97.9799 114.96 97.9499C114.95 97.9299 114.93 97.9199 114.92 97.8999C114.89 97.8599 114.9 97.8799 114.96 97.9499C114.96 97.9199 114.86 97.8099 114.84 97.7899C114.8 97.7299 114.76 97.6699 114.72 97.5999C114.64 97.4799 114.57 97.3599 114.5 97.2299C114.47 97.1699 114.44 97.1099 114.41 97.0499C114.39 97.0099 114.38 96.9799 114.36 96.9399C114.34 96.8999 114.29 96.7799 114.36 96.9399C114.29 96.7799 114.22 96.6499 114.06 96.5499C113.92 96.4699 113.72 96.4299 113.56 96.4799C113.4 96.5299 113.25 96.6299 113.17 96.7799C113.07 96.9399 113.01 97.1399 113.08 97.2899Z" fill="black"/>
<path d="M108.86 107.18C109.37 107.25 109.82 107.17 110.29 106.98C110.68 106.83 111.06 106.66 111.42 106.46C112.14 106.06 112.76 105.54 113.24 104.87C113.44 104.59 113.3 104.14 113.01 103.98C112.67 103.8 112.34 103.92 112.12 104.21C112.1 104.24 112.08 104.27 112.05 104.3C112.09 104.25 112.08 104.26 112.04 104.3C111.98 104.37 111.93 104.43 111.87 104.49C111.76 104.6 111.65 104.71 111.54 104.81C111.51 104.83 111.48 104.86 111.45 104.88C111.41 104.91 111.35 104.96 111.42 104.9C111.36 104.95 111.3 104.99 111.23 105.03C111.09 105.12 110.95 105.21 110.81 105.29C110.67 105.37 110.54 105.44 110.4 105.51C110.33 105.54 110.26 105.58 110.19 105.61C110.15 105.63 110.07 105.66 110.16 105.63C110.12 105.64 110.09 105.66 110.05 105.67C109.89 105.73 109.73 105.79 109.57 105.84C109.52 105.86 109.46 105.87 109.41 105.88C109.4 105.88 109.28 105.9 109.33 105.9C109.39 105.89 109.26 105.9 109.25 105.9C109.23 105.9 109.09 105.89 109.19 105.91C108.86 105.86 108.48 105.99 108.39 106.36C108.34 106.68 108.51 107.13 108.86 107.18Z" fill="black"/>
<path d="M102.23 156.86C95.4899 156.84 94.0699 155.88 94.1199 153.44C94.1699 151 97.6699 151.2 104.84 150.7C111.78 150.21 113.69 150.67 113.8 150.69C113.75 150.55 113.09 148.51 113.8 145.31C114.55 142 120.18 141.76 119.86 145.2C119.54 148.64 121.91 150.93 124.45 153C126.98 155.07 130.08 158.13 131.89 160.62C133.17 162.38 147.56 170.27 147.56 170.27C147.92 170.19 138.61 184.18 138.61 184.18L135.56 180.62L132.46 176.58C125.5 179.06 120.23 174.31 120.23 174.31C119.6 175.31 117 175.84 117 175.84C117 175.84 117.82 177.79 114.04 178.82C110.25 179.85 108.37 178.37 107.61 176.5C106.85 174.64 108.68 173.74 108.68 173.74C108.68 173.74 105.4 174.88 103.88 172.35C102.36 169.82 104.06 168.44 104.06 168.44C98.8299 169.11 99.6899 163.89 101.53 162.89C103.38 161.88 112.77 158.13 112.77 158.13L110.29 156.65C110.29 156.66 108.97 156.88 102.23 156.86Z" fill="#F5A0AC"/>
<path d="M120.97 154.98C119.91 154.1 118.84 153.22 117.78 152.34C117.26 151.91 116.76 151.44 116.19 151.07C115.64 150.71 114.99 150.52 114.36 150.35C113.48 150.11 113.11 151.47 113.99 151.71C114.55 151.86 115.1 152.02 115.58 152.35C116.07 152.69 116.52 153.11 116.98 153.49C117.98 154.32 118.98 155.15 119.98 155.98C120.27 156.22 120.69 156.27 120.98 155.98C121.22 155.73 121.26 155.23 120.97 154.98Z" fill="black"/>
<path d="M105.36 169.03C107.86 168.01 110.38 167.03 112.91 166.1C113.27 165.97 113.51 165.62 113.4 165.23C113.31 164.89 112.89 164.61 112.53 164.74C110 165.67 107.48 166.65 104.98 167.67C104.63 167.81 104.38 168.14 104.49 168.54C104.59 168.87 105.01 169.17 105.36 169.03Z" fill="black"/>
<path d="M109.44 174.39C111.08 173.84 112.71 173.26 114.33 172.65C114.69 172.52 114.93 172.17 114.82 171.78C114.73 171.44 114.31 171.15 113.95 171.29C112.33 171.89 110.7 172.47 109.06 173.03C108.7 173.15 108.46 173.51 108.57 173.9C108.67 174.25 109.08 174.51 109.44 174.39Z" fill="black"/>
<path d="M114.14 177.38C116.89 177.13 119.47 176.06 121.6 174.3C121.89 174.06 121.85 173.56 121.6 173.3C121.31 173.01 120.9 173.06 120.6 173.3C118.78 174.81 116.49 175.75 114.14 175.97C113.76 176 113.44 176.27 113.44 176.67C113.44 177.03 113.76 177.41 114.14 177.38Z" fill="black"/>
<path d="M120.26 174.93C123.63 178.65 129.41 179.21 133.4 176.15C134.11 175.61 133.41 174.38 132.69 174.93C129.17 177.63 124.24 177.23 121.26 173.93C120.64 173.26 119.65 174.26 120.26 174.93Z" fill="black"/>
<path d="M131.45 176.94C132.01 177.54 132.56 178.15 133.09 178.78C133.35 179.08 133.6 179.39 133.85 179.7C133.98 179.86 134.11 180.02 134.23 180.18C134.26 180.22 134.29 180.26 134.32 180.29C134.33 180.31 134.35 180.33 134.36 180.35C134.33 180.31 134.33 180.31 134.36 180.35C134.43 180.44 134.49 180.52 134.56 180.61C134.78 180.9 135.18 181.09 135.52 180.86C135.81 180.67 136.01 180.21 135.77 179.9C134.73 178.53 133.62 177.2 132.44 175.95C132.19 175.68 131.7 175.68 131.44 175.95C131.19 176.23 131.18 176.65 131.45 176.94Z" fill="black"/>
<path d="M63.96 152.75L65.32 141.55C69.36 140.4 71.74 138.66 72.53 137.18C74.21 134.07 74.62 132.92 74.62 132.92C74.62 132.92 74.94 134.44 78.03 132.9C81.47 131.18 82.43 129.48 82.06 127.57C81.7 125.66 79.74 125.92 79.74 125.92C79.74 125.92 83.02 125.07 82.93 122.21C82.84 119.36 80.73 119.16 80.73 119.16C85.36 116.88 81.91 113.14 79.88 113.33C77.84 113.52 68.19 115.56 68.19 115.56L69.44 113.03C69.44 113.03 70.63 112.5 76.13 108.84C80.82 105.72 81.98 104.15 81.4 102.55C81.3 102.28 81.16 102 80.96 101.72C79.64 99.78 76.88 101.83 70.76 105.3C64.83 108.65 63.51 110.05 63.43 110.13C63.39 109.99 60.92 114.24 59.93 117.27C59.65 118.14 54.89 128.42 54.18 130.3C53.91 131.02 48.09 145 47.78 147.28C47.62 148.6 63.96 152.75 63.96 152.75Z" fill="#F5A0AC"/>
<path d="M72.1102 121.01C75.1302 120.35 78.1702 119.76 81.2302 119.25C81.6302 119.18 81.8502 118.69 81.7502 118.33C81.6302 117.91 81.2302 117.74 80.8302 117.81C77.7802 118.33 74.7402 118.91 71.7102 119.57C70.7602 119.77 71.1602 121.21 72.1102 121.01Z" fill="black"/>
<path d="M73.2002 127.67C75.6702 127.09 78.1602 126.59 80.6602 126.17C81.0602 126.1 81.2802 125.61 81.1802 125.25C81.0602 124.83 80.6602 124.66 80.2602 124.73C77.7602 125.15 75.2702 125.66 72.8002 126.23C71.8602 126.44 72.2602 127.89 73.2002 127.67Z" fill="black"/>
<path d="M149.39 171.72C151.49 172.57 153.59 173.41 155.6 174.44C157.63 175.49 159.55 176.72 161.48 177.94C162.31 178.47 163.07 177.15 162.25 176.63C160.29 175.39 158.32 174.13 156.25 173.07C154.16 172 151.97 171.13 149.8 170.26C148.89 169.89 148.49 171.36 149.39 171.72Z" fill="black"/>
<path d="M96.46 143.84C97.66 144.73 98.92 145.53 100.23 146.25C100.3 146.29 100.37 146.33 100.45 146.32C100.53 146.31 101.87 141.35 101.81 141.32C101.81 141.31 97.84 143.24 96.46 143.84Z" fill="white"/>
<path d="M95.8501 144.88C96.9101 145.66 98.0101 146.37 99.1401 147.02C99.5201 147.24 99.9101 147.51 100.37 147.51C100.82 147.52 101.27 147.32 101.49 146.9C101.6 146.7 101.66 146.48 101.73 146.26C102.1 145.07 102.41 143.86 102.72 142.65C102.87 142.06 103.19 141.27 102.84 140.71C102.48 140.13 101.8 139.99 101.2 140.28C99.4201 141.14 97.6501 142.01 95.8401 142.81C95.2601 143.06 95.0901 143.95 95.4101 144.45C95.7901 145.05 96.4301 145.15 97.0501 144.88C98.8601 144.09 100.63 143.21 102.41 142.35C101.86 142.21 101.32 142.06 100.77 141.92C100.78 141.94 100.6 141.27 100.61 141.34C100.58 140.86 100.67 140.96 100.65 141.07C100.64 141.11 100.63 141.15 100.62 141.19C100.59 141.32 100.56 141.45 100.53 141.57C100.43 141.96 100.33 142.35 100.23 142.74C100 143.6 99.7701 144.46 99.5201 145.31C99.4801 145.46 99.4301 145.62 99.3801 145.77C99.3601 145.82 99.3501 145.87 99.3301 145.91C99.3001 146.02 99.1901 146.1 99.4301 145.68C99.3101 145.89 100.12 145.14 99.8401 145.28C100.04 145.23 100.24 145.17 100.44 145.12C100.83 145.25 100.95 145.28 100.78 145.19C100.74 145.17 100.69 145.14 100.65 145.12C100.56 145.07 100.48 145.02 100.39 144.97C100.23 144.88 100.07 144.79 99.9201 144.7C99.5901 144.51 99.2701 144.31 98.9401 144.1C98.3001 143.69 97.6701 143.26 97.0501 142.81C96.5401 142.44 95.6901 142.71 95.4101 143.24C95.0901 143.86 95.3101 144.48 95.8501 144.88Z" fill="white"/>
<path d="M82.2902 110.55C90.5302 121.16 96.4102 133.48 99.5202 146.55C99.7602 147.58 101.35 147.14 101.1 146.11C97.9202 132.76 91.8702 120.23 83.4502 109.39C82.8002 108.55 81.6502 109.72 82.2902 110.55Z" fill="white"/>
<path d="M45.0501 145.61L34.8701 175.88C42.3201 182.28 50.7301 187.6 59.8501 191.6L66.6401 151.88L45.0501 145.61Z" fill="#EC6723"/>
<path d="M66.0203 152.76C64.7603 161.12 63.4303 169.49 62.4903 177.89C62.4003 178.72 63.7003 178.71 63.7903 177.89C64.7103 169.61 66.0303 161.34 67.2703 153.1C67.3903 152.29 66.1403 151.94 66.0203 152.76Z" fill="black"/>
<path fill-rule="evenodd" clip-rule="evenodd" d="M68.75 81.9C68.75 81.9 72.49 74.12 69.65 65.2C69.47 64.5 69.28 63.79 69.04 63.06C63.46 45.62 34.98 40.15 24.09 60.11C13.2 80.05 35.68 104.98 58.84 92.92C60 92.32 61.47 91.33 62.96 89.96C65.2 90.95 68.88 91.72 72.97 89.04C73.84 88.47 73.78 87.18 72.86 86.7C70.61 85.53 68.75 81.9 68.75 81.9Z" fill="white"/>
<path fill-rule="evenodd" clip-rule="evenodd" d="M46.4199 80.35L53.1799 84.53V63.36L46.4199 59.65V80.35Z" fill="#03A74B"/>
<path fill-rule="evenodd" clip-rule="evenodd" d="M39.6602 63.36L46.4202 59.65V80.36L39.6602 84.54V63.36Z" fill="#0D7B3E"/>
<path fill-rule="evenodd" clip-rule="evenodd" d="M42.0798 75.3301C41.8998 75.3101 41.7297 75.3801 41.5997 75.4901L40.6098 76.3601C40.4798 76.4801 40.3998 76.6401 40.3898 76.8101C40.3798 76.9801 40.4398 77.1501 40.5498 77.2901C40.6798 77.4301 40.8498 77.5101 41.0398 77.5101C41.1998 77.5101 41.3598 77.4501 41.4798 77.3501L42.4698 76.4801C42.5998 76.3601 42.6797 76.2001 42.6897 76.0301C42.6997 75.8501 42.6398 75.6901 42.5298 75.5501C42.4098 75.4201 42.2498 75.3401 42.0798 75.3301Z" fill="#126634"/>
<path fill-rule="evenodd" clip-rule="evenodd" d="M45.0397 72.7201C44.8697 72.7101 44.6997 72.7701 44.5597 72.8801L43.5697 73.7501C43.4397 73.8701 43.3597 74.0301 43.3497 74.2001C43.3397 74.3801 43.3997 74.5401 43.5097 74.6801C43.6397 74.8201 43.8097 74.9001 43.9997 74.9001C44.1597 74.9001 44.3197 74.8401 44.4397 74.7401L45.4297 73.8701C45.6997 73.6301 45.7297 73.2101 45.4897 72.9401C45.3797 72.8101 45.2097 72.7301 45.0397 72.7201Z" fill="#126634"/>
<path fill-rule="evenodd" clip-rule="evenodd" d="M53.1802 63.36L59.9802 59.51C60.3902 59.28 60.9002 59.57 60.9002 60.05V78.9C60.9002 79.17 60.7702 79.41 60.5502 79.56L53.1802 84.53V63.36Z" fill="#0D7B3E"/>
<path fill-rule="evenodd" clip-rule="evenodd" d="M39.6599 63.36L32.8499 59.51C32.4399 59.28 31.9399 59.57 31.9399 60.04V78.9C31.9399 79.17 32.0699 79.42 32.2899 79.57L39.6599 84.54V63.36V63.36Z" fill="#03A74B"/>
<path fill-rule="evenodd" clip-rule="evenodd" d="M39.3599 77.1301L38.2499 76.4101C37.9399 76.2101 37.5399 76.3001 37.3399 76.6001C37.1399 76.9001 37.2299 77.3101 37.5299 77.5101L38.6399 78.2301C38.7499 78.3001 38.8699 78.3301 38.9999 78.3301C39.2299 78.3301 39.4299 78.2201 39.5499 78.0301C39.7499 77.7401 39.6599 77.3301 39.3599 77.1301Z" fill="#126634"/>
<path fill-rule="evenodd" clip-rule="evenodd" d="M54.0901 75.01C53.7601 74.86 53.3701 75.01 53.2201 75.35L52.6901 76.55C52.6201 76.71 52.6101 76.89 52.6801 77.05C52.7401 77.21 52.8701 77.34 53.0301 77.41C53.1101 77.45 53.2101 77.47 53.3001 77.47C53.5601 77.47 53.8001 77.32 53.9001 77.08L54.4301 75.88C54.5001 75.72 54.5101 75.54 54.4401 75.38C54.3701 75.21 54.2501 75.08 54.0901 75.01Z" fill="#126634"/>
<path fill-rule="evenodd" clip-rule="evenodd" d="M50.5899 74.3501C50.4499 74.2501 50.2699 74.2101 50.0999 74.2301C49.9299 74.2601 49.7699 74.3501 49.6699 74.4901C49.4599 74.7801 49.5199 75.2001 49.8099 75.4101L50.8699 76.1901C50.9799 76.2701 51.1199 76.3201 51.2599 76.3201C51.4699 76.3201 51.6699 76.2201 51.7899 76.0501C51.9999 75.7601 51.9399 75.3401 51.6499 75.1301L50.5899 74.3501Z" fill="#126634"/>
<path fill-rule="evenodd" clip-rule="evenodd" d="M47.3997 72.02C47.2597 71.92 47.0797 71.87 46.9097 71.9C46.7397 71.93 46.5797 72.02 46.4797 72.16C46.3797 72.3 46.3297 72.47 46.3597 72.65C46.3897 72.82 46.4797 72.98 46.6197 73.08L47.6797 73.86C47.7897 73.94 47.9297 73.99 48.0697 73.99C48.2797 73.99 48.4797 73.89 48.5997 73.72C48.6997 73.58 48.7497 73.4 48.7197 73.23C48.6897 73.06 48.5997 72.9 48.4597 72.8L47.3997 72.02Z" fill="#126634"/>
<path fill-rule="evenodd" clip-rule="evenodd" d="M56.0397 71.76C55.9797 71.6 55.8497 71.47 55.6897 71.4C55.3597 71.26 54.9697 71.4 54.8197 71.74L54.2897 72.94C54.2197 73.1 54.2097 73.28 54.2797 73.44C54.3397 73.6 54.4697 73.73 54.6297 73.81C54.7097 73.85 54.7997 73.87 54.8997 73.87C55.1597 73.87 55.3997 73.72 55.4997 73.48L56.0297 72.28C56.0897 72.11 56.0997 71.93 56.0397 71.76Z" fill="#126634"/>
<path fill-rule="evenodd" clip-rule="evenodd" d="M42.6998 68.95C42.6698 66.17 40.3698 63.92 37.5198 63.92C34.6798 63.92 32.3698 66.17 32.3398 68.95C32.3398 68.96 32.3398 68.96 32.3398 68.97C32.3398 68.98 32.3398 68.99 32.3398 69C32.3398 69.41 32.3898 69.8 32.4898 70.18C32.4898 70.19 32.4998 70.2 32.4998 70.21C32.5398 70.36 32.5798 70.5 32.6298 70.65C33.4698 73.19 35.9698 74.97 37.0398 75.63C37.1798 75.72 37.3498 75.77 37.5198 75.77C37.6898 75.77 37.8598 75.72 38.0098 75.63C39.0698 74.97 41.5898 73.19 42.4298 70.65C42.4798 70.51 42.5198 70.36 42.5598 70.21C42.5598 70.2 42.5698 70.19 42.5698 70.18C42.6598 69.8 42.7198 69.4 42.7198 69C42.7198 68.99 42.7198 68.98 42.7198 68.97C42.7098 68.96 42.7098 68.96 42.6998 68.95Z" fill="#ED2838"/>
<path fill-rule="evenodd" clip-rule="evenodd" d="M37.5198 70.45C36.6898 70.45 36.0098 69.79 36.0098 68.97C36.0098 68.15 36.6898 67.49 37.5198 67.49C38.3598 67.49 39.0398 68.15 39.0298 68.97C39.0398 69.79 38.3598 70.45 37.5198 70.45Z" fill="white"/>
<path fill-rule="evenodd" clip-rule="evenodd" d="M60.63 63.3301C60.6 60.5501 58.3 58.3 55.45 58.3C52.61 58.3 50.3 60.5501 50.27 63.3301C50.27 63.3401 50.27 63.34 50.27 63.35C50.27 63.36 50.27 63.3701 50.27 63.3801C50.27 63.7901 50.32 64.18 50.42 64.56C50.42 64.57 50.43 64.58 50.43 64.59C50.47 64.74 50.51 64.88 50.56 65.03C51.4 67.57 53.9 69.3501 54.97 70.0101C55.12 70.1001 55.28 70.1501 55.45 70.1501C55.62 70.1501 55.79 70.1001 55.94 70.0101C57 69.3501 59.52 67.57 60.36 65.03C60.41 64.89 60.45 64.74 60.49 64.59C60.49 64.58 60.5 64.57 60.5 64.56C60.59 64.18 60.65 63.7801 60.65 63.3801C60.65 63.3701 60.65 63.36 60.65 63.35C60.63 63.35 60.63 63.3401 60.63 63.3301Z" fill="#F26E21"/>
<path fill-rule="evenodd" clip-rule="evenodd" d="M55.4402 64.84C54.6102 64.84 53.9302 64.18 53.9302 63.36C53.9302 62.54 54.6102 61.88 55.4402 61.88C56.2802 61.88 56.9602 62.54 56.9502 63.36C56.9602 64.18 56.2802 64.84 55.4402 64.84Z" fill="white"/>
</g>
<defs>
<clipPath id="clip0_520_5402">
<rect width="200" height="200" fill="white"/>
</clipPath>
</defs>
</svg>
