<svg width="200" height="200" viewBox="0 0 200 200" fill="none" xmlns="http://www.w3.org/2000/svg">
<g clip-path="url(#clip0_520_5399)">
<path d="M100 200C155.228 200 200 155.228 200 100C200 44.7715 155.228 0 100 0C44.7715 0 0 44.7715 0 100C0 155.228 44.7715 200 100 200Z" fill="#FFE974"/>
<path d="M100 200C138 200 171.05 178.8 187.97 147.59C187.91 147.42 187.86 147.24 187.8 147.07C177.71 117.09 154.17 102.69 124.52 93.95C107.43 88.92 88.42 90.08 63.28 97.4C39.79 104.23 23.03 133.11 19.01 156.86C18.93 157.35 18.85 157.84 18.77 158.33C36.93 183.57 66.54 200 100 200Z" fill="#E7E6E6"/>
<path d="M51.06 159.49C50.66 162.9 50.32 166.31 50.04 169.73C49.95 170.85 51.69 170.84 51.78 169.73C52.06 166.31 52.4 162.9 52.8 159.49C52.86 159.02 52.36 158.62 51.93 158.62C51.42 158.62 51.12 159.02 51.06 159.49Z" fill="black"/>
<path d="M128.68 95.23L119.04 92.15L105.71 122.34C105.71 122.34 107.86 130.97 118.09 129.61C125.28 128.65 128.8 115.89 129.12 109.51C129.59 100.34 128.68 95.23 128.68 95.23Z" fill="#A1A2A2"/>
<path d="M76.5498 110.78C76.4298 116.93 77.7098 126.68 85.7198 128.65C93.7298 130.62 99.0698 125.28 99.0698 125.28L93.8498 108.45L76.5498 110.78Z" fill="#A1A2A2"/>
<path d="M132.96 76.72C132.96 76.72 134.8 65.45 128.62 55.81C122.05 45.56 111.26 41.57 95.3101 43.79C79.3801 46.01 72.8401 57.57 70.1001 67.91L113.55 75.02L110.68 93.48L120.96 93.36L132.96 76.72Z" fill="black"/>
<path d="M123.11 81.52C123.11 81.52 124.69 74.38 129.08 73.53C133.47 72.68 135.08 75.62 134.49 80.67C133.9 85.72 130.21 90.66 125.03 89.32C125.03 89.32 122.93 96.96 120.31 102.96C116.88 110.8 111.57 119.96 101.46 129.44L92.6801 122.76C92.6801 122.76 76.5901 122.72 68.8601 107.52C61.1301 92.32 70.9901 67.97 70.9901 67.97C70.9901 67.97 73.8201 59.77 79.8701 57.25C85.9201 54.73 84.9501 58.79 88.8901 60.47C92.8401 62.14 101.74 58.74 104.92 56.18C108.1 53.63 113.1 54.46 115.14 57.16C117.17 59.85 116.68 63.65 115.25 66.51C113.83 69.37 117.66 72.02 117.79 73.75C117.92 75.48 116.45 81.97 114.84 87.85C113.23 93.73 114.79 93.69 117.9 93.04C121.01 92.39 120.94 88.69 123.11 81.52Z" fill="#F4A5AB"/>
<path d="M91.4602 85.3701C91.4402 85.4801 91.4102 85.5801 91.3702 85.6901C91.3102 85.8501 91.3402 85.7 91.3802 85.68C91.3702 85.68 91.3102 85.83 91.3002 85.84C91.2702 85.89 91.2402 85.94 91.2102 85.99C91.2002 86.01 91.1002 86.1501 91.1702 86.0501C91.2402 85.9501 91.1402 86.08 91.1202 86.1C91.0802 86.15 91.0402 86.1901 91.0002 86.2301C90.9602 86.2701 90.9302 86.3001 90.8902 86.3301C90.7602 86.4501 90.8702 86.3201 90.9002 86.3301C90.8802 86.3201 90.6502 86.4901 90.6202 86.5101C90.5902 86.5301 90.5302 86.5701 90.4902 86.5801C90.5902 86.5401 90.6102 86.5301 90.5502 86.5501C90.5202 86.5601 90.4902 86.5701 90.4602 86.5801C90.4102 86.6001 90.3602 86.6101 90.3202 86.6201C90.3002 86.6301 90.0702 86.6701 90.1802 86.6501C90.2902 86.6301 90.0802 86.6501 90.0602 86.6501C90.0402 86.6501 89.8802 86.63 89.8602 86.64C89.9002 86.61 90.0402 86.67 89.8802 86.64C89.8302 86.63 89.7802 86.62 89.7402 86.6C89.7002 86.59 89.6102 86.54 89.5702 86.54C89.6502 86.54 89.7002 86.6 89.5802 86.54C89.5402 86.52 89.4902 86.4901 89.4502 86.4701C89.4102 86.4501 89.2402 86.36 89.4302 86.46C89.3502 86.42 89.2702 86.3201 89.2102 86.2601C89.1702 86.2201 89.1102 86.1701 89.0902 86.1201C89.1802 86.3001 89.1102 86.14 89.0802 86.1C89.0402 86.04 88.9402 85.91 88.9402 85.84C88.9802 85.94 88.9902 85.9601 88.9702 85.9001C88.9602 85.8701 88.9502 85.84 88.9402 85.81C88.9202 85.75 88.9102 85.69 88.8902 85.64C88.7902 85.21 88.2802 84.9201 87.8502 85.0501C87.4002 85.1901 87.1502 85.63 87.2602 86.09C87.5702 87.41 88.8702 88.47 90.2402 88.32C91.6102 88.18 92.8102 87.16 93.0902 85.79C93.1802 85.36 92.9602 84.86 92.5002 84.75C92.0702 84.69 91.5502 84.9101 91.4602 85.3701Z" fill="black"/>
<path d="M87.3299 85.43C87.1899 85.66 87.0499 85.87 86.8999 86.09C86.8499 86.17 86.9899 85.99 86.8899 86.11C86.8499 86.16 86.7999 86.21 86.7599 86.26C86.7099 86.31 86.6699 86.36 86.6199 86.4C86.5999 86.42 86.4599 86.53 86.5499 86.46C86.6399 86.39 86.4899 86.5 86.4699 86.51C86.4099 86.55 86.3399 86.58 86.2699 86.62C86.4099 86.54 86.1999 86.64 86.1799 86.65C86.1099 86.68 86.0299 86.7 85.9499 86.72C85.8199 86.75 85.6899 86.7801 85.5599 86.8001C85.3699 86.8401 85.6499 86.8 85.4699 86.81C85.3899 86.81 85.3099 86.81 85.2299 86.81C85.0699 86.81 85.2699 86.83 85.1999 86.81C85.1399 86.79 85.0799 86.77 85.0199 86.76C84.9199 86.74 85.1499 86.84 85.0199 86.76C84.9599 86.73 84.9099 86.7 84.8599 86.67C84.6899 86.57 84.9699 86.78 84.8299 86.65C84.7899 86.61 84.7499 86.58 84.7199 86.54C84.6999 86.52 84.5799 86.36 84.6399 86.46C84.7099 86.56 84.6099 86.41 84.5999 86.39C84.5699 86.34 84.5399 86.28 84.5099 86.22C84.5899 86.37 84.4999 86.18 84.4899 86.15C84.4699 86.09 84.4599 86.03 84.4399 85.97C84.4199 85.89 84.4199 85.82 84.4299 85.94C84.4199 85.79 84.4199 85.64 84.4299 85.49C84.4399 85.31 84.3899 85.61 84.4399 85.42C84.4599 85.35 84.4699 85.28 84.4899 85.2C84.6099 84.78 84.3499 84.2701 83.8999 84.1601C83.4599 84.0601 82.9899 84.29 82.8599 84.75C82.6399 85.56 82.6899 86.44 83.0999 87.18C83.4599 87.82 84.1199 88.33 84.8399 88.45C85.6499 88.59 86.6699 88.38 87.3599 87.92C87.9799 87.5 88.3899 86.89 88.7699 86.26C88.9999 85.88 88.8699 85.32 88.4699 85.11C88.0799 84.91 87.5799 85.03 87.3299 85.43Z" fill="black"/>
<path d="M84.5101 85.01C84.7101 82.14 85.5401 79.37 86.3501 76.63C86.6601 75.59 85.0301 75.14 84.7301 76.18C83.8701 79.07 83.0401 81.98 82.8301 85.01C82.8001 85.46 83.2401 85.85 83.6701 85.85C84.1501 85.85 84.4801 85.46 84.5101 85.01Z" fill="black"/>
<path d="M106.05 67.51C104.78 65.86 103.02 64.83 100.92 64.64C98.9401 64.47 96.9101 65.3 95.5201 66.7C94.9901 67.23 94.9501 68.2 95.5201 68.73C96.0901 69.25 96.9801 69.3 97.5501 68.73C97.6701 68.61 97.8001 68.49 97.9301 68.37C98.0101 68.3 98.0701 68.27 97.9501 68.35C98.0201 68.3 98.0901 68.25 98.1701 68.2C98.3301 68.09 98.5001 67.99 98.6801 67.9C98.7601 67.86 98.8401 67.82 98.9201 67.79C99.1101 67.69 98.7301 67.84 98.9401 67.78C99.2801 67.68 99.6101 67.59 99.9501 67.51C100.16 67.46 99.7401 67.52 99.9601 67.51C100.05 67.51 100.13 67.49 100.22 67.49C100.42 67.48 100.61 67.48 100.81 67.49C100.89 67.5 100.98 67.5 101.06 67.51C100.92 67.5 100.92 67.49 101.06 67.51C101.23 67.54 101.39 67.58 101.56 67.63C101.72 67.68 101.88 67.74 102.04 67.79C101.91 67.74 101.93 67.74 102.05 67.8C102.13 67.84 102.2 67.87 102.28 67.91C102.43 67.99 102.58 68.07 102.72 68.17C102.81 68.23 102.89 68.29 102.98 68.35C103.15 68.47 102.84 68.21 102.99 68.36C103.11 68.48 103.24 68.58 103.36 68.71C103.42 68.77 103.48 68.83 103.53 68.9C103.57 68.94 103.75 69.17 103.59 68.95C104.05 69.54 104.84 69.92 105.55 69.46C106.12 69.09 106.54 68.15 106.05 67.51Z" fill="black"/>
<path d="M84.1999 67.2099C82.8099 66.0299 81.0799 65.3199 79.2399 65.3299C77.3999 65.3399 75.6699 66.0599 74.2899 67.2499C73.7199 67.7399 73.7499 68.7799 74.2899 69.2799C74.8999 69.8399 75.7099 69.7999 76.3199 69.2799C76.3899 69.2199 76.4499 69.1699 76.5199 69.1099C76.3999 69.1999 76.4099 69.1999 76.5399 69.0999C76.6899 69.0099 76.8299 68.9099 76.9799 68.8199C77.1099 68.7399 77.2499 68.6699 77.3799 68.6099C77.4399 68.5799 77.4999 68.5499 77.5599 68.5299C77.4199 68.5899 77.4199 68.5899 77.5799 68.5299C77.9099 68.4199 78.2399 68.3299 78.5799 68.2499C78.8799 68.1799 78.3799 68.2499 78.7199 68.2299C78.8899 68.2199 79.0699 68.1999 79.2399 68.1999C79.4099 68.1999 79.5899 68.2099 79.7599 68.2199C80.1699 68.2399 79.4899 68.1599 79.8999 68.2399C80.2399 68.2999 80.5799 68.3899 80.9099 68.4999C80.9799 68.5299 81.2799 68.6599 81.0499 68.5499C81.2099 68.6199 81.3599 68.6999 81.5099 68.7899C81.6599 68.8799 81.8099 68.9699 81.9499 69.0699C82.0199 69.1199 82.0899 69.1699 82.1599 69.2199C82.0399 69.1299 82.0499 69.1399 82.1699 69.2399C82.7399 69.7199 83.6399 69.8399 84.1999 69.2399C84.6899 68.7099 84.8199 67.7299 84.1999 67.2099Z" fill="black"/>
<path d="M101.24 120.43C96.0702 121.52 90.4102 121.05 85.3702 119.56C80.3602 118.08 75.7402 114.73 72.2502 110.88C67.9702 106.15 66.6702 99.1 66.6902 92.91C66.7002 89.39 67.1802 85.91 67.8402 82.46C68.3302 79.87 68.8002 77.24 69.5702 74.72C71.1102 69.69 73.1102 64.53 75.9402 60.08C76.9302 58.52 74.4602 57.08 73.4702 58.63C70.6702 63.02 68.7202 68.09 67.1002 73.02C66.2802 75.54 65.7702 78.15 65.2602 80.74C64.5402 84.35 63.9602 88.02 63.8502 91.7C63.6402 98.34 64.8602 106 68.9902 111.4C70.9402 113.94 73.4002 116 75.9802 117.88C78.1702 119.48 80.3702 120.84 82.9302 121.77C88.8802 123.93 95.8102 124.5 102.01 123.19C103.81 122.82 103.04 120.05 101.24 120.43Z" fill="black"/>
<path d="M99.2699 112.27C96.3199 113.73 92.8799 113.91 89.7799 112.85C88.7499 112.5 88.3099 114.12 89.3299 114.47C92.8699 115.68 96.7799 115.38 100.12 113.72C101.09 113.24 100.23 111.79 99.2699 112.27Z" fill="black"/>
<path d="M130.4 78.27C128.82 78.37 127.28 79.28 126.58 80.73C125.86 82.21 125.97 84.08 126.98 85.41C127.25 85.77 127.71 85.96 128.13 85.71C128.49 85.5 128.71 84.92 128.43 84.56C128.34 84.44 128.25 84.32 128.18 84.19C128.13 84.11 128.09 84.03 128.05 83.95C128.04 83.93 127.99 83.82 128.03 83.9C127.97 83.75 127.92 83.59 127.88 83.43C127.86 83.36 127.85 83.28 127.83 83.21C127.8 83.08 127.82 83.2 127.81 83.12C127.75 82.56 127.81 81.99 128.03 81.57C128.17 81.31 128.3 81.1 128.43 80.96C128.53 80.85 128.63 80.75 128.73 80.65C128.73 80.65 128.89 80.51 128.84 80.55C128.78 80.59 128.95 80.47 128.96 80.46C129.08 80.38 129.2 80.31 129.33 80.24C129.41 80.2 129.48 80.16 129.56 80.13C129.46 80.17 129.6 80.12 129.64 80.11C129.78 80.06 129.91 80.02 130.05 79.99C130.12 79.97 130.19 79.96 130.26 79.95C130.12 79.97 130.36 79.95 130.38 79.95C130.83 79.92 131.22 79.58 131.22 79.11C131.25 78.68 130.86 78.24 130.4 78.27Z" fill="black"/>
<path d="M99.8702 96.39C99.6202 96.56 99.3602 96.72 99.1002 96.86C98.9602 96.93 98.8102 97.03 98.6602 97.07C98.6902 97.06 98.7202 97.04 98.7502 97.03C98.7102 97.05 98.6802 97.06 98.6402 97.08C98.5602 97.11 98.4902 97.14 98.4102 97.16C98.1202 97.26 97.8302 97.34 97.5402 97.4C97.4102 97.43 97.2502 97.48 97.1202 97.47C97.2402 97.45 97.2602 97.45 97.1602 97.46C97.1202 97.46 97.0802 97.47 97.0402 97.47C96.9602 97.48 96.8802 97.48 96.8002 97.49C96.3602 97.52 95.9402 97.86 95.9602 98.33C95.9802 98.76 96.3302 99.2 96.8002 99.17C98.2002 99.08 99.5702 98.63 100.72 97.82C101.08 97.57 101.28 97.07 101.02 96.67C100.79 96.34 100.25 96.12 99.8702 96.39Z" fill="black"/>
<path d="M100 129.27C96.9 146.88 94.91 164.61 95.03 182.51C95.07 187.8 95.26 193.1 95.56 198.38C95.65 199.98 98.16 199.99 98.07 198.38C97.08 180.74 97.58 163.14 99.95 145.63C100.66 140.38 101.51 135.15 102.42 129.94C102.69 128.36 100.28 127.68 100 129.27Z" fill="#A1A2A2"/>
<path d="M90.81 150.04C94.73 150.04 94.74 143.94 90.81 143.94C86.89 143.94 86.88 150.04 90.81 150.04Z" fill="black"/>
<path d="M89.6898 183.54C93.6098 183.54 93.6198 177.44 89.6898 177.44C85.7698 177.44 85.7598 183.54 89.6898 183.54Z" fill="black"/>
<path d="M155.83 150.16C157.99 159.17 159.39 168.42 159.63 177.69C159.66 178.81 161.4 178.81 161.37 177.69C161.13 168.27 159.71 158.85 157.51 149.7C157.25 148.61 155.57 149.07 155.83 150.16Z" fill="black"/>
<path d="M152.5 156.07C153.95 157.78 155.97 159 158.15 159.5C158.59 159.6 159.11 159.36 159.22 158.89C159.32 158.45 159.09 157.93 158.61 157.82C158.11 157.71 157.63 157.55 157.15 157.37C157.1 157.35 157.04 157.32 157.12 157.36C157.06 157.33 156.99 157.3 156.93 157.27C156.81 157.22 156.7 157.16 156.59 157.1C156.36 156.99 156.14 156.86 155.92 156.73C155.71 156.61 155.51 156.47 155.32 156.33C155.26 156.29 155.21 156.25 155.15 156.21C155.11 156.18 155.05 156.13 155.12 156.19C155.02 156.11 154.92 156.03 154.83 155.95C154.43 155.61 154.06 155.24 153.73 154.84C153.43 154.49 152.8 154.51 152.5 154.84C152.16 155.21 152.18 155.7 152.5 156.07Z" fill="black"/>
<path d="M90.8499 96.28C91.9299 96.64 93.0699 96.62 94.1899 96.51C95.1699 96.41 96.1399 96.24 97.0799 95.95C98.9399 95.38 100.6 94.36 101.72 92.74C102.34 91.85 100.88 91 100.27 91.89C99.3799 93.17 97.9599 93.93 96.4999 94.36C94.8999 94.83 92.9099 95.19 91.2999 94.65C90.2699 94.31 89.8199 95.94 90.8499 96.28Z" fill="black"/>
<path d="M82.18 75.86C81.59 74.38 80.11 73.82 79.61 73.65C78.5 73.28 77.27 72.92 75.38 73.38C71.75 74.27 71.58 75.56 71.57 76.48C71.56 77.24 72.05 78.61 73.14 78.83C73.73 78.95 74.69 78.49 76.78 78.27C78.76 78.06 81.05 78.54 81.62 78.27C82.19 78.01 82.7 77.18 82.18 75.86Z" fill="white"/>
<path d="M76.9801 77.9799C79.1001 77.9799 79.1001 74.6899 76.9801 74.6899C74.8601 74.6899 74.8601 77.9799 76.9801 77.9799Z" fill="black"/>
<path d="M102.85 76.76C102.49 75.37 101.08 74.46 100.57 74.26C99.4698 73.84 97.8698 73.45 95.8498 73.72C92.5298 74.17 91.8398 75.79 91.7498 76.64C91.6698 77.36 91.9598 78.67 93.0598 78.95C93.6498 79.1 94.7198 78.73 96.9098 78.66C98.9898 78.59 101.31 79.19 101.94 78.98C102.58 78.78 103.19 78.04 102.85 76.76Z" fill="white"/>
<path d="M97.99 78.41C100.04 78.41 100.04 75.22 97.99 75.22C95.94 75.22 95.93 78.41 97.99 78.41Z" fill="black"/>
<path d="M68.9297 138.86C68.9297 138.86 71.4497 135.69 72.9897 130.95C74.4297 126.53 79.6397 127.69 79.3697 130.85C79.0997 134.01 78.3297 135.1 78.3297 135.1L68.9297 138.86Z" fill="#E08F8B"/>
<path d="M54.9399 165.01L62.9699 155.55C62.9699 155.55 67.2399 139.97 69.7399 137.83C72.2299 135.69 75.3799 134.18 76.7099 133.38C78.0499 132.58 80.8699 130.44 82.7399 131.51C84.6099 132.58 84.5199 138.46 84.5199 138.46C84.5199 138.46 86.3899 139.35 86.5699 141.13C86.7499 142.91 85.6799 146.21 85.6799 146.21C85.6799 146.21 87.3899 146.83 87.4599 148.53C87.6099 152.21 86.2999 154.67 86.2999 154.67C86.2999 154.67 88.5299 154.49 88.6999 156.63C88.8699 158.77 83.9799 165.8 81.4899 167.14C78.9999 168.48 74.1899 170.7 74.1899 170.7L70.3599 180.5C70.3599 180.5 63.5599 184.26 60.3899 181.21C51.3899 172.56 54.9399 165.01 54.9399 165.01Z" fill="#F4A5AB"/>
<path d="M83.5197 137.63C81.0097 137.37 78.8597 138.86 77.0997 140.48C75.2597 142.17 73.5497 144.02 71.9897 145.98C71.6897 146.36 71.6197 146.88 71.9897 147.26C72.3097 147.58 72.9597 147.64 73.2697 147.26C74.7197 145.46 76.2797 143.75 77.9497 142.17C79.4897 140.71 81.2697 139.21 83.5197 139.45C83.9997 139.5 84.4197 139 84.4197 138.55C84.4297 138 84.0097 137.68 83.5197 137.63Z" fill="black"/>
<path d="M85.6901 145.03C83.2601 145.32 81.2601 146.71 79.6501 148.49C77.9401 150.37 76.4401 152.48 74.8701 154.48C74.5701 154.86 74.5001 155.38 74.8701 155.76C75.1801 156.07 75.8401 156.15 76.1501 155.76C77.6101 153.9 79.0201 151.98 80.5701 150.18C81.9001 148.64 83.5901 147.09 85.7001 146.84C86.1801 146.78 86.6001 146.47 86.6001 145.94C86.5901 145.49 86.1801 144.97 85.6901 145.03Z" fill="black"/>
<path d="M85.9699 153.46C84.2399 153.92 82.9299 155.17 81.7399 156.43C80.3799 157.87 79.0699 159.35 77.7999 160.86C77.4899 161.23 77.4399 161.77 77.7999 162.14C78.1199 162.46 78.7599 162.51 79.0799 162.14C80.2899 160.71 81.5299 159.3 82.8199 157.93C83.8499 156.83 84.9399 155.6 86.4599 155.2C87.5699 154.9 87.0999 153.16 85.9699 153.46Z" fill="black"/>
<path d="M49.0301 168.01C47.3001 171.31 47.1301 176.25 50.6001 181.62C54.0701 186.99 59.1101 189.56 64.8401 189.56C70.5701 189.56 70.3501 180.48 70.3501 180.48C70.3501 180.48 63.7801 182.6 58.7101 176.12C54.3501 170.55 55.8001 164 55.8001 164C55.8001 164 50.7701 164.69 49.0301 168.01Z" fill="#A1A2A2"/>
<path d="M41.3898 178.58C44.3298 174.84 47.7398 171.45 51.5398 168.59C52.0798 168.18 52.3598 167.51 51.9898 166.87C51.6798 166.34 50.8198 166.01 50.2698 166.42C46.2898 169.42 42.6998 172.88 39.6098 176.8C39.1898 177.33 39.0898 178.05 39.6098 178.57C40.0498 179.01 40.9698 179.11 41.3898 178.58Z" fill="#A1A2A2"/>
<path d="M67.2099 184.53C66.8299 185.8 66.3999 187.06 65.9299 188.3C65.4499 189.55 65.0199 190.56 64.4399 191.79C64.1599 192.38 64.2599 193.17 64.8899 193.51C65.4499 193.8 66.3099 193.69 66.6099 193.06C67.8099 190.52 68.8199 187.9 69.6299 185.2C69.8199 184.57 69.3999 183.81 68.7499 183.66C68.0799 183.5 67.4099 183.86 67.2099 184.53Z" fill="#A1A2A2"/>
</g>
<defs>
<clipPath id="clip0_520_5399">
<rect width="200" height="200" fill="white"/>
</clipPath>
</defs>
</svg>
