<svg width="200" height="200" viewBox="0 0 200 200" fill="none" xmlns="http://www.w3.org/2000/svg">
<g clip-path="url(#clip0_520_5403)">
<path d="M100 200C155.228 200 200 155.228 200 100C200 44.7715 155.228 0 100 0C44.7715 0 0 44.7715 0 100C0 155.228 44.7715 200 100 200Z" fill="#FFE974"/>
<path d="M100.29 69.22L104.9 66.98C106.17 68.86 114.19 82.96 115.59 86.34C120.08 97.17 122.36 101.86 121.09 108.35C118.54 121.38 99.6001 119.29 98.6401 108.78C98.6401 108.77 109.44 91.3 100.29 69.22Z" fill="black"/>
<path d="M117.36 145.72C117.36 145.72 119.43 148.15 122.26 146.83C125.04 145.53 123.65 142.67 123.65 142.67C123.65 142.67 125 144.82 127.17 143.87C130.13 142.57 128.19 141.25 128.19 141.25C128.19 141.25 131.75 141.61 132.84 138.65C134.06 135.33 129.8 132.86 129.8 132.86C129.8 132.86 127.45 123.33 120.14 117.68C110.03 109.87 101.58 109.7 95.0298 108.81C85.0698 107.46 81.4298 106.92 81.4298 106.92L58.5598 110.66C58.5598 110.66 38.7698 115.16 32.5898 124.88C27.6198 132.68 29.3298 139.07 29.3298 139.07C29.3298 139.07 25.0698 142.25 27.0098 145.33C28.9498 148.41 32.6098 146.7 32.6098 146.7C32.6098 146.7 31.9198 149.21 33.8698 150.24C36.4898 151.63 38.3198 149.78 38.3198 149.78C38.3198 149.78 36.7198 152.29 39.6898 153.78C42.6598 155.26 44.2598 152.18 44.2598 152.18C44.2598 152.18 42.7498 155.77 45.6298 157.2C47.9098 158.34 48.7098 157.09 48.7098 157.09C48.7098 157.09 48.4398 162.53 50.4698 170.5C50.4698 170.5 48.8898 179.39 48.2998 185.6C63.3898 194.74 81.0798 200 99.9998 200C105.82 200 111.53 199.5 117.08 198.54C116.05 184.25 113.08 151.34 113.08 151.34C119.02 152.29 117.36 145.72 117.36 145.72Z" fill="#008DB2"/>
<path d="M105.31 72.74C105.31 72.74 107.79 65.49 100.12 56.16C92.4502 46.83 76.0602 37.67 58.4102 51.26C42.4302 63.58 32.6902 98.72 35.6502 114.65C38.5302 130.16 64.8902 132.39 69.6702 115.63C71.5302 109.09 66.4802 94.7 66.4802 94.7L105.31 72.74Z" fill="black"/>
<path d="M68.3802 54.0499C71.7002 51.2599 75.1602 49.4399 78.5402 48.4099C78.3702 48.2499 78.2002 48.0899 78.0302 47.9099C75.7102 45.4599 75.7202 42.0199 75.8402 40.6099C75.8702 40.2599 76.1902 40.0099 76.5302 40.0799C77.6602 40.3099 80.1202 40.9999 81.8902 42.7899C82.9602 43.8699 83.6802 44.8999 84.1502 45.8499C84.4302 45.0699 84.8202 44.2599 85.3802 43.4599C87.2102 40.8499 90.2202 40.1399 91.7102 39.9499C92.2102 39.8899 92.6302 40.2999 92.6102 40.8099C92.5502 42.0899 92.2602 44.4799 90.9502 46.4399C90.6002 46.9599 90.2502 47.4199 89.9102 47.8199C92.2702 48.3299 94.4002 49.2399 96.1602 50.4699C106.87 57.8799 105.41 67.4299 105.41 67.4299C105.41 67.4299 98.8602 46.6399 81.0102 55.6099C63.1702 64.5899 63.9102 81.4999 63.9102 81.4999C63.9102 81.4999 62.9902 79.7099 61.2902 79.7399C59.1602 79.7799 57.8702 80.5799 57.8702 80.5799C57.8702 80.5799 56.9802 63.6399 68.3802 54.0499Z" fill="#00A94F"/>
<path d="M76.2302 39.77C77.3202 39.78 78.3702 40.08 79.3702 40.5C80.3402 40.91 81.3202 41.45 82.1002 42.17C82.8802 42.89 83.5302 43.77 83.9702 44.74C84.3902 45.67 84.5702 46.69 84.6802 47.7C86.1302 48.35 87.4202 49.79 87.1802 51.45C87.0702 52.21 85.9302 52 86.0402 51.25C86.1402 50.55 85.6902 49.91 85.2102 49.46C84.7202 49 84.1202 48.67 83.4602 48.56C82.3202 48.36 80.9602 48.98 80.6102 50.19C80.5202 50.5 80.2702 50.73 79.9402 50.67C79.6602 50.62 79.3802 50.29 79.4702 49.98C79.9902 48.21 81.7202 47.15 83.4702 47.36C83.3802 46.66 83.2302 45.97 82.9602 45.32C82.6102 44.47 82.0302 43.7 81.3702 43.09C80.7002 42.47 79.8902 42.02 79.0702 41.65C78.2202 41.27 77.2902 40.96 76.3502 40.95C76.0302 40.95 75.7502 40.76 75.7202 40.42C75.6802 40.12 75.9202 39.76 76.2302 39.77Z" fill="#008043"/>
<path d="M75.9002 58.74C75.9002 58.74 72.9202 60.98 71.0602 63.16C70.4602 63.86 69.5302 65.03 68.7602 66.14C68.2202 66.92 67.7002 67.85 67.7002 67.85C67.7002 67.85 66.0602 63.76 68.4002 60.8C71.5102 56.87 75.9002 58.74 75.9002 58.74Z" fill="#97CA51"/>
<path d="M68.2903 55.72C68.8603 56.55 70.0203 56.72 70.8803 56.09C71.7503 55.46 71.9903 54.28 71.4303 53.45C71.1203 53 70.6203 52.75 70.1003 52.71C70.1003 52.71 69.3703 53.23 68.9903 53.54C68.4503 53.99 68.0103 54.36 68.0103 54.36C67.9403 54.82 68.0203 55.33 68.2903 55.72Z" fill="#E24497"/>
<path d="M88.9104 41.5599L90.5404 43.0799L89.4904 43.9899L87.8504 42.5499L87.7304 45.2699L86.5004 45.1999L86.5404 43.1599L85.0604 44.9299L84.6504 44.6999C84.6504 44.6999 85.4704 42.9799 86.8304 41.9199C87.2404 41.5999 87.8904 41.1499 88.6604 40.8099C89.5304 40.4299 90.5004 40.1799 90.5004 40.1799L90.7304 40.9599L88.9104 41.5599Z" fill="#97CA51"/>
<path d="M58.8702 72.67L60.8502 73.22L60.6402 74.45L58.8102 73.8L59.5902 75.73L58.7102 76.11L58.2402 74.41C58.2402 74.41 58.2802 73.88 58.4202 73.03C58.5502 72.18 58.6902 71.75 58.6902 71.75L59.8202 70.58L60.2902 71.49L58.8702 72.67Z" fill="#FAAE17"/>
<path d="M91.2305 51.9908C91.8992 51.871 92.3497 51.2628 92.2367 50.6322C92.1238 50.0016 91.4902 49.5875 90.8215 49.7072C90.1529 49.827 89.7024 50.4353 89.8153 51.0659C89.9283 51.6965 90.5619 52.1106 91.2305 51.9908Z" fill="white"/>
<path d="M97.1802 55.7799L98.7702 54.0699L99.9802 55.1599L98.5302 56.8299C98.5302 56.8299 98.4802 56.7899 98.3802 56.7099C98.2802 56.6199 98.0002 56.3799 97.7702 56.2099C97.3202 55.8799 97.1802 55.7799 97.1802 55.7799Z" fill="#E24497"/>
<path d="M82.1904 51.88L82.3604 53.55L76.3204 54.6L76.1504 52.11L82.1904 51.88Z" fill="#FAAE17"/>
<path d="M61.7102 68.21C61.7702 68.87 62.3402 69.35 62.9802 69.29C63.6202 69.23 64.0902 68.64 64.0302 67.98C63.9702 67.32 63.4002 66.84 62.7602 66.9C62.1202 66.96 61.6502 67.55 61.7102 68.21Z" fill="white"/>
<path d="M93.2401 110.93C93.2401 110.93 94.7401 118.83 85.1501 118.71C77.2101 118.61 72.3501 114.71 70.2801 111.87C70.2801 111.87 69.8301 106.19 68.4601 101.53C67.0901 96.8699 66.0701 94.5999 66.0701 94.5999C66.0701 94.5999 59.9501 95.7799 56.9401 90.8299C53.9301 85.8799 55.1701 80.7999 59.3701 79.7699C63.5701 78.7299 63.8901 81.1999 65.3201 84.0299C66.7601 86.8599 71.5601 90.4299 70.7001 81.1099C70.7001 81.1099 75.4801 78.1499 78.9401 73.7599C82.4001 69.3599 83.8101 64.7999 83.8101 64.7999C83.8101 64.7999 85.9801 66.6899 91.2901 68.7599C98.2001 71.4599 103.71 70.4099 104.25 70.2299C104.79 70.0499 109.1 87.6599 108.92 96.6999C108.68 108.59 99.6301 111.26 93.2401 110.93Z" fill="#F498A8"/>
<path d="M102.94 68.0799C104.43 73.0299 105.29 78.1699 106.2 83.2599C107.06 88.0599 107.84 93.0099 107.5 97.9099C107.32 100.54 106.77 103.27 105.06 105.36C103.73 106.99 101.73 107.94 99.6998 108.66C97.5598 109.42 95.3098 109.52 93.0598 109.39C89.9198 109.22 86.8098 108.65 83.7898 107.77C82.2398 107.32 81.3498 109.68 82.9098 110.13C90.1498 112.24 100.02 113.66 106.08 107.92C108.2 105.91 109.26 103.23 109.74 100.4C110.54 95.7199 109.94 90.7699 109.23 86.1199C108.28 79.9399 107.22 73.6199 105.41 67.6299C104.96 66.0899 102.47 66.5199 102.94 68.0799Z" fill="black"/>
<path d="M59.2698 85.8999C59.3398 85.9299 59.4098 85.9499 59.4698 85.9799C59.4898 85.9899 59.6998 86.0999 59.5398 86.0099C59.6598 86.0699 59.7698 86.1399 59.8798 86.2199C59.9898 86.2999 60.0898 86.3799 60.1898 86.4599C60.3298 86.5699 60.1098 86.3699 60.2398 86.5099C60.2798 86.5499 60.3198 86.5999 60.3698 86.6399C60.4598 86.7399 60.5498 86.8399 60.6298 86.9399C60.6698 86.9999 60.7098 87.0599 60.7598 87.1199C60.8698 87.2599 60.7098 87.0199 60.7998 87.1799C60.9298 87.4099 61.0598 87.6499 61.1498 87.8999C61.1698 87.9599 61.1898 88.0099 61.2098 88.0699C61.2298 88.1299 61.2298 88.1199 61.1998 88.0399C61.2098 88.0699 61.2198 88.1099 61.2298 88.1399C61.2598 88.2699 61.2998 88.3999 61.3198 88.5299C61.3398 88.6599 61.3598 88.7899 61.3798 88.9199C61.3798 88.9599 61.3898 88.9899 61.3898 89.0299C61.3898 88.9399 61.3898 88.9199 61.3898 88.9899C61.3898 89.0499 61.3898 89.1099 61.3898 89.1699C61.3898 89.4299 61.3598 89.6999 61.2998 89.9599C61.3398 89.7699 61.2898 89.9799 61.2798 90.0199C61.2598 90.0899 61.2398 90.1599 61.2098 90.2299C61.1598 90.3699 61.0998 90.4999 61.0398 90.6299C60.8498 91.0299 61.1298 91.5799 61.5398 91.7099C62.0098 91.8599 62.4098 91.6399 62.6198 91.2099C63.8498 88.6699 62.4498 85.3399 59.8598 84.3299C59.4498 84.1699 58.9198 84.3999 58.7798 84.8299C58.6298 85.2599 58.8298 85.7199 59.2698 85.8999Z" fill="black"/>
<path d="M94.5399 89.76C94.4899 89.17 94.2399 88.6 94.0399 88.04C93.8199 87.44 93.5899 86.84 93.3499 86.25C92.8699 85.06 92.3599 83.88 91.8299 82.71C91.4799 81.94 90.2899 82.5 90.6399 83.27C91.4399 85.05 92.1999 86.84 92.8699 88.67C93.0099 89.07 93.2199 89.5 93.2399 89.93C93.2499 90.17 93.1799 90.58 92.9599 90.74C92.7599 90.88 92.4099 90.84 92.1999 90.75C91.8899 90.63 91.7499 90.38 91.6499 90.08C91.5299 89.74 91.0699 89.63 90.7699 89.77C90.6499 89.83 90.5699 89.91 90.5099 90.01C90.3799 90.12 90.2999 90.27 90.2699 90.46C90.2599 90.52 90.2499 90.58 90.2399 90.63C90.2399 90.65 90.2399 90.65 90.2299 90.66C90.2299 90.67 90.2299 90.66 90.2199 90.68C90.1899 90.78 90.1599 90.88 90.1299 90.97C90.1099 91.02 90.0899 91.06 90.0699 91.11C90.0599 91.12 90.0699 91.12 90.0599 91.13C90.0599 91.13 90.0599 91.13 90.0499 91.14C89.9899 91.23 89.9399 91.31 89.8699 91.39C89.8499 91.4 89.8399 91.42 89.8199 91.43C89.7799 91.46 89.7399 91.49 89.7099 91.52C89.8199 91.43 89.7299 91.51 89.6799 91.53C89.6499 91.55 89.6099 91.56 89.5799 91.57C89.5699 91.57 89.4699 91.59 89.4499 91.59C89.4399 91.59 89.4199 91.59 89.4099 91.59C89.4099 91.59 89.4099 91.59 89.3999 91.59C89.3399 91.58 89.2699 91.58 89.1999 91.57C89.1799 91.57 89.1899 91.57 89.1799 91.57C89.1699 91.57 89.1699 91.56 89.1499 91.56C89.0999 91.54 89.0399 91.52 88.9899 91.5C88.9599 91.49 88.9099 91.46 88.8999 91.46C88.8599 91.44 88.8199 91.41 88.7899 91.39C88.7799 91.38 88.7699 91.38 88.7699 91.37C88.6499 91.23 88.5299 91.09 88.4199 90.94C88.4099 90.92 88.3899 90.89 88.3799 90.88C88.3499 90.84 88.3299 90.8 88.2999 90.76C88.2399 90.66 88.1899 90.57 88.1399 90.47C88.0499 90.3 87.9699 90.13 87.8999 89.96C87.7699 89.64 87.3299 89.49 87.0199 89.65C86.6899 89.82 86.5699 90.19 86.7099 90.53C86.9099 91.02 87.1899 91.5 87.4999 91.93C87.8799 92.45 88.3999 92.79 89.0399 92.9C89.7399 93.03 90.4199 92.75 90.8899 92.23C91.0299 92.08 91.1299 91.9 91.2199 91.72C91.7099 92.07 92.3299 92.24 92.9599 92.13C94.0899 91.93 94.6299 90.8 94.5399 89.76Z" fill="black"/>
<path d="M95.8398 117.11C94.9098 119.34 93.1198 121.29 90.9298 122.33C89.2198 123.14 87.1698 123.3 85.2998 123.26C81.1998 123.19 76.6198 122.17 73.4198 119.47C72.6198 118.79 71.6798 120.13 72.4798 120.8C76.0898 123.85 81.4498 124.99 86.0698 124.88C88.1898 124.83 90.3898 124.54 92.2598 123.47C94.5398 122.16 96.3598 120.1 97.3698 117.67C97.7698 116.71 96.2398 116.14 95.8398 117.11Z" fill="#006B83"/>
<path d="M101.42 81.07C100.87 81.32 98.7602 80.98 96.9002 81.24C94.9402 81.51 94.0102 81.94 93.4702 81.86C92.4702 81.7 92.1302 80.53 92.1502 79.87C92.1702 79.08 92.6802 77.54 95.6202 76.82C97.4102 76.39 98.8702 76.6 99.8802 76.88C100.34 77.01 101.66 77.72 102.08 78.95C102.46 80.1 101.97 80.82 101.42 81.07Z" fill="white"/>
<path d="M96.1403 80.8301C98.2103 81.0101 98.4903 77.7901 96.4203 77.6201C94.3503 77.4401 94.0703 80.6501 96.1403 80.8301Z" fill="black"/>
<path d="M77.3899 81.88C77.5099 80.58 78.6299 79.59 79.0499 79.36C79.9699 78.85 81.3399 78.31 83.1799 78.33C86.2099 78.35 87.0499 79.74 87.2599 80.5C87.4299 81.14 87.3599 82.36 86.4299 82.74C85.9299 82.95 84.9199 82.74 82.9499 82.92C81.0799 83.1 79.1099 83.91 78.5199 83.79C77.9199 83.68 77.2799 83.08 77.3899 81.88Z" fill="white"/>
<path d="M81.5398 82.68C83.6098 82.86 83.8898 79.64 81.8198 79.47C79.7398 79.28 79.4598 82.5 81.5398 82.68Z" fill="black"/>
<path d="M66.0699 94.6C66.0699 94.6 59.9399 95.78 56.9299 90.82C53.9199 85.86 55.1599 80.78 59.3599 79.75C63.5599 78.71 63.8799 81.18 65.3199 84.01C65.9999 85.35 67.2799 86.99 68.3499 87.07L66.0699 94.6Z" fill="#F498A8"/>
<path d="M59.2698 85.8999C59.3398 85.9299 59.4098 85.9499 59.4698 85.9799C59.4898 85.9899 59.6998 86.0999 59.5398 86.0099C59.6598 86.0699 59.7698 86.1399 59.8798 86.2199C59.9898 86.2999 60.0898 86.3799 60.1898 86.4599C60.3298 86.5699 60.1098 86.3699 60.2398 86.5099C60.2798 86.5499 60.3198 86.5999 60.3698 86.6399C60.4598 86.7399 60.5498 86.8399 60.6298 86.9399C60.6698 86.9999 60.7198 87.0599 60.7598 87.1199C60.8698 87.2599 60.7098 87.0199 60.7998 87.1799C60.9298 87.4099 61.0598 87.6499 61.1498 87.8999C61.1698 87.9599 61.1898 88.0099 61.2098 88.0699C61.2298 88.1299 61.2298 88.1199 61.1998 88.0399C61.2098 88.0699 61.2198 88.1099 61.2298 88.1399C61.2598 88.2699 61.2998 88.3999 61.3198 88.5299C61.3398 88.6599 61.3598 88.7899 61.3798 88.9299C61.3798 88.9699 61.3898 88.9999 61.3898 89.0399C61.3898 88.9499 61.3898 88.9299 61.3898 88.9999C61.3898 89.0599 61.3898 89.1199 61.3898 89.1799C61.3898 89.4399 61.3598 89.7099 61.2998 89.9699C61.3398 89.7799 61.2898 89.9899 61.2798 90.0299C61.2598 90.0999 61.2398 90.1699 61.2098 90.2399C61.1598 90.3799 61.0998 90.5099 61.0398 90.6399C60.8498 91.0399 61.1298 91.5899 61.5398 91.7199C62.0098 91.8699 62.4198 91.6499 62.6198 91.2199C63.8498 88.6799 62.4498 85.3499 59.8598 84.3299C59.4498 84.1699 58.9198 84.3999 58.7798 84.8299C58.6298 85.2599 58.8298 85.7299 59.2698 85.8999Z" fill="black"/>
<path d="M77.9499 76.57C77.9599 76.56 78.1499 76.32 78.0299 76.47C77.9099 76.61 78.0899 76.41 78.1199 76.38C78.2399 76.26 78.3599 76.15 78.4899 76.05C78.6099 75.95 78.7299 75.86 78.8499 75.78C78.9599 75.7 79.0199 75.67 78.8699 75.76C78.9399 75.72 79.0199 75.67 79.0899 75.63C79.3799 75.46 79.6799 75.32 79.9899 75.19C80.1599 75.12 80.3199 75.06 80.4899 75.01C80.3199 75.07 80.4099 75.04 80.5299 75C80.6199 74.98 80.6999 74.95 80.7899 74.93C81.1199 74.85 81.4599 74.78 81.7999 74.74C81.9799 74.72 82.1499 74.7 82.3299 74.69C82.5299 74.67 82.0099 74.69 82.3499 74.69C82.4199 74.69 82.4899 74.69 82.5599 74.69C82.8999 74.69 83.2499 74.72 83.5899 74.77C83.6599 74.78 83.7199 74.79 83.7899 74.8C84.1099 74.85 83.6099 74.75 83.7899 74.8C83.9599 74.85 84.1399 74.89 84.3099 74.95C84.9499 75.17 85.7599 74.87 85.9799 74.18C86.1899 73.53 85.8999 72.74 85.2099 72.51C82.0099 71.44 77.9699 72.44 75.8099 75.07C75.3799 75.6 75.5599 76.52 76.1199 76.88C76.7599 77.28 77.4799 77.13 77.9499 76.57Z" fill="black"/>
<path d="M93.9499 73.7099C94.0899 73.5899 94.2299 73.4799 94.3699 73.3699C94.4699 73.2899 94.4599 73.3099 94.3599 73.3699C94.4399 73.3199 94.5099 73.2799 94.5899 73.2299C94.8899 73.0599 95.2099 72.9399 95.5299 72.7999C95.2899 72.8999 95.5199 72.7999 95.5799 72.7899C95.6699 72.7699 95.7599 72.7399 95.8499 72.7199C96.0299 72.6799 96.2099 72.6399 96.3999 72.6099C96.5699 72.5799 96.7299 72.5599 96.8999 72.5499C97.0299 72.5399 97.1299 72.5399 96.9399 72.5399C97.0299 72.5399 97.1299 72.5399 97.2199 72.5399C97.5699 72.5399 97.9199 72.5699 98.2699 72.6299C98.3399 72.6399 98.4099 72.6599 98.4899 72.6699C98.2099 72.6199 98.4599 72.6599 98.5199 72.6799C98.6999 72.7299 98.8699 72.7799 99.0399 72.8399C99.1899 72.8999 99.3399 72.9599 99.4899 73.0199C99.4899 73.0199 99.7899 73.1699 99.6299 73.0899C99.4699 72.9999 99.7299 73.1499 99.7599 73.1699C99.9099 73.2599 100.06 73.3599 100.2 73.4699C100.26 73.5099 100.31 73.5599 100.37 73.5999C100.64 73.8199 100.19 73.4199 100.44 73.6599C100.92 74.1399 101.72 74.3199 102.27 73.8199C102.75 73.3799 102.94 72.4999 102.43 71.9899C99.7699 69.3499 95.0999 69.2299 92.2799 71.6899C91.7699 72.1399 91.6399 72.9999 92.1199 73.5199C92.5799 74.0599 93.3999 74.1899 93.9499 73.7099Z" fill="black"/>
<path d="M48.5601 156.4C48.5801 156.38 48.5801 156.38 48.5601 156.4V156.4Z" fill="#006B83"/>
<path d="M49.8398 154.19C49.8498 154.13 49.8498 154.07 49.8398 154.19V154.19Z" fill="#006B83"/>
<path d="M57.84 149.2C57.55 148.91 56.97 148.86 56.68 149.2C55.14 150.98 52.93 152.09 50.6 152.21C50.16 152.23 49.78 152.57 49.78 153.03C49.78 153.18 49.84 153.31 49.91 153.44C49.89 153.51 49.87 153.57 49.87 153.65C49.87 153.81 49.87 153.97 49.85 154.13C49.85 154.17 49.84 154.2 49.84 154.24C49.84 154.21 49.84 154.21 49.84 154.19C49.84 154.2 49.84 154.2 49.84 154.21C49.83 154.29 49.81 154.37 49.79 154.45C49.75 154.61 49.71 154.76 49.65 154.92C49.64 154.95 49.63 154.99 49.61 155.02C49.6 155.05 49.54 155.2 49.59 155.07C49.63 154.96 49.59 155.07 49.58 155.1C49.56 155.14 49.54 155.18 49.52 155.22C49.45 155.36 49.37 155.49 49.29 155.62C49.25 155.69 49.2 155.75 49.15 155.82C49.13 155.84 49.12 155.86 49.1 155.88C49 156 48.88 156.12 48.77 156.23C48.71 156.29 48.65 156.34 48.59 156.39C48.56 156.41 48.53 156.43 48.51 156.46C48.54 156.43 48.55 156.42 48.57 156.41C48.55 156.43 48.53 156.45 48.51 156.46C48.16 156.71 47.96 157.18 48.22 157.58C48.44 157.92 48.97 158.14 49.34 157.87C50.67 156.92 51.5 155.4 51.51 153.76C53.94 153.43 56.23 152.23 57.85 150.36C58.12 150.03 58.16 149.53 57.84 149.2Z" fill="#006B83"/>
<path d="M108.23 132.66C110.8 137.03 112.1 142.02 111.99 147.09C111.97 148.14 113.6 148.14 113.62 147.09C113.74 141.75 112.35 136.44 109.64 131.84C109.11 130.93 107.7 131.75 108.23 132.66Z" fill="#006B83"/>
<path d="M57.78 167.12L60.63 163.41C67.02 165.69 71.86 161.33 71.86 161.33C72.44 162.25 74.83 162.74 74.83 162.74C74.83 162.74 74.07 164.54 77.55 165.48C81.03 166.42 82.76 165.07 83.45 163.35C84.15 161.64 82.47 160.81 82.47 160.81C82.47 160.81 85.49 161.86 86.88 159.53C88.27 157.2 86.72 155.94 86.72 155.94C91.52 156.56 90.74 151.76 89.04 150.84C87.34 149.92 78.72 146.46 78.72 146.46L81 145.1C81 145.1 82.2 145.3 88.4 145.28C94.59 145.26 95.9 144.38 95.85 142.14C95.81 139.9 92.59 140.08 86 139.62C79.62 139.17 77.87 139.59 77.76 139.61C77.8 139.48 78.41 137.61 77.76 134.67C77.07 131.63 71.9 131.41 72.2 134.57C72.5 137.73 70.32 139.84 67.98 141.73C65.65 143.63 62.81 146.45 61.15 148.73C59.97 150.35 52.78 154.91 48.7 157.43C47.02 158.46 45.87 159.16 45.87 159.16L46.76 157.6C46.43 157.53 46.06 157.42 45.63 157.2C42.75 155.76 44.26 152.18 44.26 152.18C44.26 152.18 42.66 155.26 39.69 153.78C36.72 152.3 38.32 149.78 38.32 149.78C38.32 149.78 36.48 151.62 33.87 150.24C31.93 149.21 32.61 146.7 32.61 146.7C32.61 146.7 31.11 147.39 29.53 147.09C27.33 151.48 24.46 157.84 23.25 164.09C28.42 170.27 34.32 175.82 40.82 180.6C43.57 179.26 46.27 177.42 48.68 175.53C53.91 171.44 57.78 167.12 57.78 167.12Z" fill="#F5A0AC"/>
<path d="M72.1102 144.48C73.0302 143.72 73.9502 142.96 74.8602 142.2C75.2802 141.85 75.6902 141.46 76.1502 141.15C76.5902 140.84 77.1002 140.7 77.6102 140.56C78.4102 140.34 78.0702 139.1 77.2702 139.31C76.7102 139.46 76.1302 139.63 75.6302 139.94C75.0902 140.28 74.6102 140.73 74.1202 141.14C73.1402 141.95 72.1702 142.76 71.1902 143.57C70.9202 143.79 70.9602 144.25 71.1902 144.48C71.4602 144.74 71.8402 144.7 72.1102 144.48Z" fill="black"/>
<path d="M85.8698 155.22C83.5698 154.28 81.2598 153.38 78.9298 152.52C78.5998 152.4 78.2198 152.66 78.1298 152.97C78.0298 153.33 78.2498 153.64 78.5798 153.77C80.9098 154.63 83.2198 155.53 85.5198 156.47C85.8398 156.6 86.2298 156.33 86.3198 156.02C86.4298 155.64 86.1998 155.35 85.8698 155.22Z" fill="black"/>
<path d="M82.1202 160.15C80.6102 159.64 79.1102 159.11 77.6202 158.55C77.2902 158.43 76.9102 158.69 76.8202 159C76.7202 159.36 76.9402 159.67 77.2702 159.8C78.7602 160.35 80.2602 160.89 81.7702 161.4C82.1002 161.51 82.4802 161.27 82.5702 160.95C82.6702 160.59 82.4502 160.26 82.1202 160.15Z" fill="black"/>
<path d="M77.4602 162.84C75.3002 162.64 73.1902 161.77 71.5202 160.39C71.2502 160.17 70.8702 160.13 70.6102 160.39C70.3802 160.62 70.3402 161.08 70.6102 161.3C72.5702 162.92 74.9302 163.9 77.4602 164.13C77.8102 164.16 78.1102 163.81 78.1102 163.48C78.1102 163.11 77.8102 162.88 77.4602 162.84Z" fill="black"/>
<path d="M70.9299 160.98C68.1899 164.01 63.6599 164.38 60.4299 161.9C59.7699 161.39 59.1199 162.52 59.7799 163.02C63.4499 165.83 68.7599 165.32 71.8499 161.9C72.3999 161.27 71.4899 160.36 70.9299 160.98Z" fill="black"/>
<path d="M60.6498 162.82C59.5698 163.98 58.5498 165.19 57.5898 166.45C57.3798 166.72 57.5398 167.19 57.8198 167.34C58.1598 167.52 58.4898 167.4 58.7098 167.11C58.7598 167.04 58.8198 166.97 58.8698 166.9C58.9998 166.73 58.8398 166.94 58.9098 166.85C58.9398 166.82 58.9598 166.78 58.9898 166.75C59.1098 166.6 59.2198 166.45 59.3398 166.31C59.5798 166.02 59.8098 165.73 60.0598 165.44C60.5498 164.87 61.0498 164.3 61.5598 163.75C61.7898 163.5 61.8198 163.08 61.5598 162.84C61.3098 162.59 60.8898 162.56 60.6498 162.82Z" fill="black"/>
<path d="M131.5 141.17C131.5 141.17 131.36 140.94 131 140.7C129.66 141.38 128.18 141.24 128.18 141.24C128.18 141.24 130.12 142.57 127.16 143.86C124.99 144.81 123.64 142.66 123.64 142.66C123.64 142.66 125.03 145.53 122.25 146.82C119.41 148.14 117.35 145.71 117.35 145.71C117.35 145.71 118.68 151.02 114.62 151.39L121.52 165.14L114.27 164.86L89.2601 163.88L89.2501 163.77L89.0801 163.76C85.7601 162.32 82.6201 163.3 81.2801 163.84C78.4601 164.99 77.2401 167.21 77.2401 167.21C77.2401 167.21 77.8601 166.02 74.9601 165.36C71.7301 164.62 70.1601 165.23 69.3601 166.71C68.5601 168.18 70.0101 169.08 70.0101 169.08C70.0101 169.08 67.3601 167.85 65.8601 169.81C64.3601 171.76 65.6601 173.04 65.6601 173.04C61.3301 172.03 61.5901 176.4 63.0401 177.39C64.5001 178.38 72.0401 182.29 72.0401 182.29L69.8201 183.29C69.8201 183.29 68.7401 183 63.0801 182.42C58.2501 181.93 56.6201 182.35 56.1301 183.73C56.0501 183.97 55.9901 184.23 55.9701 184.52C55.7901 186.53 58.7501 186.67 64.7201 187.71C70.5001 188.72 72.1501 188.51 72.2401 188.5C72.1901 188.61 76.1601 187.14 78.4701 185.66C79.1301 185.24 80.4701 184.54 81.9701 183.68C84.5901 182.18 87.7101 180.17 88.6701 178.18C91.6901 177.88 103.95 180.41 115.56 182.28C118.63 182.78 121.65 183.23 124.44 183.57C137.42 185.15 141.44 180.17 143.52 177.03C150.15 167.1 131.5 141.17 131.5 141.17Z" fill="#F5A0AC"/>
<path d="M66.0601 173.6C67.1501 173.79 68.2401 173.99 69.3001 174.32C70.0801 174.57 71.0401 174.9 71.5101 175.62C71.8601 176.16 71.9101 176.92 71.3101 177.26C70.5601 177.67 69.4301 177.52 68.6801 177.19C68.3601 177.05 67.9801 177.1 67.7901 177.42C67.6301 177.7 67.7001 178.16 68.0201 178.31C69.5701 179 72.4901 179.18 72.9801 177.03C73.1901 176.13 72.8801 175.21 72.2701 174.53C71.6401 173.84 70.7501 173.46 69.8901 173.16C68.7501 172.77 67.5701 172.56 66.3901 172.35C66.0501 172.29 65.6901 172.44 65.5901 172.8C65.5201 173.11 65.7201 173.54 66.0601 173.6Z" fill="black"/>
<path d="M71.4701 170.3C71.5301 170.33 71.6001 170.35 71.6601 170.38C71.5801 170.35 71.7701 170.43 71.7901 170.44C71.9301 170.5 72.0601 170.57 72.1901 170.64C72.4501 170.78 72.5801 170.87 72.7601 171.05C72.9301 171.23 73.0201 171.36 73.0801 171.64C73.1301 171.86 73.1101 172.23 73.0801 172.46C73.0601 172.6 73.0301 172.73 72.9801 172.84C72.9501 172.9 72.9101 172.95 72.8701 173.01C72.8001 173.12 72.9001 172.99 72.8101 173.08C72.7601 173.13 72.7101 173.19 72.6601 173.24C72.6401 173.26 72.5201 173.36 72.5601 173.33C72.6001 173.3 72.4701 173.39 72.4501 173.4C72.3901 173.44 72.3301 173.47 72.2701 173.5C72.2401 173.51 72.0901 173.58 72.2101 173.53C72.1601 173.55 72.1001 173.57 72.0501 173.59C71.9401 173.62 71.8301 173.65 71.7201 173.67C71.5701 173.7 71.8101 173.67 71.6801 173.67C71.6301 173.67 71.5701 173.68 71.5201 173.68C71.4601 173.68 71.4001 173.68 71.3401 173.67C71.1701 173.67 71.4201 173.69 71.3001 173.67C70.9601 173.61 70.6001 173.76 70.5001 174.12C70.4101 174.43 70.6101 174.85 70.9501 174.92C72.3801 175.17 74.0801 174.34 74.3401 172.81C74.5001 171.89 74.4101 170.97 73.7801 170.24C73.2701 169.66 72.5201 169.35 71.8301 169.07C71.5101 168.94 71.1201 169.21 71.0301 169.52C70.9201 169.87 71.1401 170.16 71.4701 170.3Z" fill="black"/>
<path d="M79.0001 173.21C77.9101 174.07 76.9201 175.05 76.0701 176.15C75.2801 177.17 74.6601 178.4 74.9501 179.73C75.2301 181 76.3701 181.81 77.6601 181.75C79.0101 181.68 80.0601 180.83 80.9901 179.92C82.2001 178.74 83.4501 177.6 84.7601 176.53C85.0301 176.31 84.9901 175.85 84.7601 175.62C84.4901 175.35 84.1201 175.4 83.8501 175.62C82.6101 176.62 81.4201 177.69 80.2801 178.81C79.4601 179.61 78.2601 180.86 76.9701 180.37C75.6201 179.86 76.2701 178.11 76.8401 177.28C77.6701 176.08 78.7801 175.03 79.9201 174.13C80.2001 173.91 80.1401 173.44 79.9201 173.22C79.6501 172.93 79.2701 172.99 79.0001 173.21Z" fill="black"/>
<path d="M75.8002 166.94C76.0002 167.08 76.1702 167.25 76.3102 167.49C76.4002 167.65 76.4202 167.7 76.4702 167.83C76.4902 167.91 76.5102 167.98 76.5302 168.06C76.5402 168.09 76.5402 168.13 76.5502 168.16C76.5402 168.1 76.5402 168.11 76.5502 168.19C76.5502 168.26 76.5602 168.33 76.5602 168.39C76.5602 168.42 76.5302 168.66 76.5502 168.55C76.5202 168.7 76.4802 168.85 76.4302 169C76.4702 168.9 76.3902 169.08 76.3902 169.09C76.3502 169.16 76.3102 169.23 76.2702 169.29C76.2102 169.38 76.1602 169.45 76.0302 169.57C75.9702 169.62 75.9202 169.68 75.8602 169.73C75.9402 169.67 75.7902 169.77 75.7802 169.78C75.7102 169.83 75.6302 169.87 75.5502 169.91C75.3802 170 75.6102 169.9 75.4802 169.94C75.3702 169.97 75.2702 170 75.1602 170.02C75.3202 169.99 75.1202 170.02 75.0902 170.02C75.0202 170.02 74.9502 170.03 74.8802 170.03C74.5302 170.03 74.3302 170 74.0002 169.92C73.6402 169.84 73.2802 169.72 72.9502 169.56C72.6302 169.41 72.2502 169.47 72.0602 169.79C71.9002 170.07 71.9702 170.53 72.2902 170.68C73.4502 171.23 74.9502 171.62 76.1802 171.05C77.4302 170.47 78.0902 169.01 77.7902 167.68C77.6202 166.91 77.1202 166.25 76.4702 165.81C76.1802 165.62 75.7502 165.75 75.5802 166.04C75.3802 166.37 75.5102 166.75 75.8002 166.94Z" fill="black"/>
<path d="M86.8402 168.08C85.0002 168.18 83.0802 168.52 81.5202 169.57C80.1002 170.53 79.1002 171.95 78.8702 173.66C78.8202 174.01 79.2002 174.31 79.5202 174.31C79.9102 174.31 80.1202 174.01 80.1702 173.66C80.3402 172.36 81.2802 171.24 82.3602 170.56C83.7002 169.73 85.2902 169.45 86.8402 169.36C87.6702 169.32 87.6702 168.03 86.8402 168.08Z" fill="black"/>
<path d="M92.23 97.2699C92.25 97.2599 91.59 102.41 87.23 102.9C82.87 103.39 79.65 98.7399 79.73 94.1199C79.73 94.1199 80.29 92.7399 81.62 94.3499C82.95 95.9599 87.48 99.1099 92.23 97.2699Z" fill="black"/>
<path d="M82.3301 94.21C82.3601 96.82 84.9901 99.48 87.5501 99.74C89.3301 99.92 90.2001 98.49 90.6201 97.28C86.9601 97.72 83.7101 95.62 82.3301 94.21Z" fill="white"/>
<path d="M80.2998 97.6499C81.2198 100.27 83.1598 102.4 85.6298 102.85C85.5498 101.87 84.9798 100.33 83.6298 99.0099C82.5198 97.9299 81.2998 97.5499 80.2998 97.6499Z" fill="#EC145A"/>
<path d="M93.21 96.2799C91.24 97.2699 88.99 97.3199 86.9 96.6799C85.85 96.3599 84.85 95.8899 83.9 95.3399C83.03 94.8299 82.1 94.2699 81.57 93.3799C81.61 93.3199 81.65 93.2699 81.69 93.2099C81.98 92.7699 82.2 92.2899 82.34 91.7799C82.41 91.5099 82.32 91.1799 82.02 91.0799C81.76 90.9999 81.4 91.1099 81.32 91.3999C81.28 91.5699 81.22 91.7299 81.16 91.8999C81.13 91.9799 81.09 92.0599 81.06 92.1399C81.04 92.1799 81.02 92.2299 81 92.2699C81 92.2799 80.99 92.2899 80.99 92.2999C80.9 92.4499 80.81 92.5999 80.71 92.7399C80.66 92.8099 80.61 92.8799 80.55 92.9399C80.52 92.9699 80.49 93.0099 80.46 93.0399C80.45 93.0499 80.43 93.0699 80.42 93.0899C80.3 93.2099 80.17 93.3299 80.03 93.4299C80.01 93.4399 79.92 93.4999 80 93.4499C79.96 93.4699 79.93 93.4899 79.89 93.5099C79.85 93.5299 79.81 93.5399 79.78 93.5599C79.77 93.5699 79.76 93.5699 79.76 93.5699C79.76 93.5699 79.76 93.5699 79.75 93.5699C79.71 93.5799 79.67 93.5899 79.63 93.5899C79.61 93.5899 79.6 93.5899 79.58 93.5999C79.58 93.5999 79.58 93.5999 79.57 93.5999C79.52 93.5999 79.47 93.5999 79.42 93.5899C79.41 93.5899 79.34 93.5799 79.32 93.5699C79.3 93.5599 79.23 93.5399 79.22 93.5399C79.17 93.5299 79.13 93.5099 79.08 93.4899C79.04 93.4799 79 93.4599 78.96 93.4499C78.78 93.2799 78.55 93.2199 78.31 93.3199C78.07 93.4199 77.95 93.6999 78 93.9499C78.08 94.3299 78.51 94.4599 78.84 94.5599C79.16 94.6599 79.49 94.7099 79.82 94.6599C80.12 94.6099 80.39 94.4799 80.64 94.3099C80.7 94.2699 80.76 94.2199 80.81 94.1799C81.37 94.9699 82.13 95.5499 82.97 96.0599C84.08 96.7399 85.26 97.3199 86.51 97.7099C88.87 98.4299 91.42 98.3899 93.66 97.2699C94.29 96.9499 93.83 95.9699 93.21 96.2799Z" fill="black"/>
<path d="M80.9998 103.29C82.1598 104.25 83.5398 104.88 85.0198 105.19C85.3198 105.25 85.6098 104.95 85.6298 104.68C85.6598 104.35 85.4198 104.13 85.1198 104.07C84.5498 103.95 83.8598 103.71 83.2898 103.43C82.7298 103.16 82.1598 102.78 81.6598 102.37C81.4198 102.18 81.0398 102.27 80.8698 102.51C80.6798 102.77 80.7598 103.1 80.9998 103.29Z" fill="black"/>
<path fill-rule="evenodd" clip-rule="evenodd" d="M126.9 78.4199C126.9 78.4199 122.69 69.6599 125.89 59.6199C126.09 58.8299 126.31 58.0299 126.57 57.2099C132.85 37.5699 164.92 31.4199 177.17 53.8899C189.43 76.3399 164.12 104.41 138.04 90.8299C136.73 90.1499 135.08 89.0399 133.4 87.4999C130.88 88.6199 126.74 89.4799 122.13 86.4599C121.16 85.8199 121.22 84.3599 122.26 83.8299C124.81 82.5099 126.9 78.4199 126.9 78.4199Z" fill="white"/>
<path fill-rule="evenodd" clip-rule="evenodd" d="M164.24 60.24C163.97 53.36 158.65 47.9 152.29 48.03C145.94 48.16 140.96 53.82 141.1 60.71C141.1 60.73 141.1 60.75 141.11 60.77C141.11 60.79 141.1 60.81 141.1 60.83C141.13 61.84 141.28 62.82 141.52 63.75C141.53 63.77 141.54 63.8 141.54 63.82C141.64 64.19 141.74 64.55 141.87 64.9C143.94 71.14 149.67 75.44 152.1 77.03C152.43 77.25 152.81 77.36 153.18 77.35C153.56 77.34 153.93 77.22 154.25 76.99C156.58 75.31 162.05 70.79 163.74 64.47C163.83 64.11 163.92 63.75 163.99 63.38C163.99 63.35 164.01 63.33 164.01 63.31C164.19 62.36 164.28 61.38 164.25 60.37C164.25 60.35 164.24 60.33 164.25 60.31C164.25 60.29 164.25 60.27 164.26 60.26L164.24 60.24Z" fill="#E92A37"/>
<path fill-rule="evenodd" clip-rule="evenodd" d="M152.78 64.19C150.92 64.23 149.35 62.62 149.3 60.59C149.23 58.56 150.7 56.89 152.56 56.86C154.43 56.82 156 58.44 156.05 60.46C156.12 62.48 154.66 64.15 152.78 64.19Z" fill="white"/>
<path d="M153.31 83.64C155.585 83.64 157.43 82.6774 157.43 81.49C157.43 80.3026 155.585 79.34 153.31 79.34C151.035 79.34 149.19 80.3026 149.19 81.49C149.19 82.6774 151.035 83.64 153.31 83.64Z" fill="#E92A37"/>
<path d="M46.8701 145.33C43.1901 149.44 40.9601 154.96 41.4901 160.53C41.9801 165.67 44.6701 170.41 48.9601 173.31C49.9501 173.98 50.8901 172.37 49.9001 171.7C46.0901 169.12 43.6501 164.73 43.3201 160.15C42.9601 155.19 44.9001 150.32 48.1901 146.65C48.9801 145.76 47.6701 144.44 46.8701 145.33Z" fill="white"/>
<path d="M50.4705 169.06C51.1005 170.53 51.6305 172.04 52.0505 173.58C52.0705 173.66 52.0905 173.75 52.0705 173.82C52.0405 173.9 46.7905 173.99 46.7705 173.93C46.7705 173.93 49.5005 170.35 50.4705 169.06Z" fill="white"/>
<path d="M49.1503 169.83C49.2803 170.13 49.0403 169.55 49.1503 169.83C49.1903 169.93 49.2303 170.02 49.2603 170.11C49.3303 170.3 49.4103 170.48 49.4803 170.67C49.6203 171.04 49.7603 171.42 49.8903 171.79C50.1503 172.54 50.4003 173.29 50.5903 174.06C50.5703 173.92 50.5503 173.79 50.5403 173.65C50.5403 173.68 50.5503 173.7 50.5503 173.73C50.5703 173.59 50.5903 173.46 50.6003 173.32C50.6003 173.35 50.5903 173.37 50.5903 173.4C50.7203 173.18 50.8503 172.95 50.9803 172.73C51.4503 172.14 51.9003 172.31 51.5903 172.35C51.7303 172.33 51.8603 172.31 52.0003 172.3C51.3703 172.38 50.7203 172.36 50.0903 172.38C49.2303 172.4 48.3703 172.42 47.5003 172.42C47.2603 172.42 47.0103 172.44 46.7703 172.41C46.9103 172.43 47.0403 172.45 47.1803 172.46C46.9203 172.42 47.1303 172.11 47.8303 172.85C47.9103 173.47 47.9903 174.08 48.0703 174.7C49.3103 173.08 50.5503 171.46 51.7803 169.83C52.0003 169.53 52.0303 168.99 51.9303 168.65C51.8303 168.3 51.5603 167.91 51.2303 167.74C50.8803 167.55 50.4503 167.46 50.0503 167.59C49.6503 167.72 49.3903 167.96 49.1403 168.29C47.9103 169.92 46.6703 171.54 45.4303 173.16C45.2303 173.42 45.2103 173.83 45.2503 174.13C45.3003 174.47 45.4303 174.76 45.6703 175.01C46.1703 175.54 46.9503 175.48 47.6103 175.48C48.2903 175.48 48.9803 175.47 49.6603 175.45C50.2803 175.44 50.9103 175.42 51.5303 175.39C51.8103 175.38 52.1203 175.37 52.3903 175.3C52.6603 175.23 52.9303 175.1 53.1203 174.89C53.6503 174.32 53.6303 173.62 53.4303 172.92C52.9803 171.33 52.4103 169.79 51.7603 168.28C51.6203 167.95 51.1703 167.67 50.8503 167.58C50.4803 167.48 50.0003 167.52 49.6703 167.73C49.3403 167.94 49.0603 168.25 48.9703 168.64C48.9003 169.08 48.9803 169.43 49.1503 169.83Z" fill="white"/>
<path d="M103.66 145.34C106.95 149.01 108.89 153.88 108.53 158.84C108.2 163.42 105.76 167.81 101.95 170.39C100.96 171.06 101.89 172.67 102.89 172C107.18 169.1 109.86 164.36 110.36 159.22C110.9 153.66 108.65 148.13 104.98 144.02C104.18 143.13 102.87 144.45 103.66 145.34Z" fill="white"/>
<path d="M102.43 147.36C102.14 145.79 101.96 144.2 101.88 142.6C101.88 142.52 101.87 142.43 101.92 142.36C101.97 142.29 107.11 143.35 107.12 143.42C107.12 143.43 103.66 146.32 102.43 147.36Z" fill="white"/>
<path d="M103.91 146.96C103.81 146.39 103.72 145.82 103.64 145.25C103.66 145.39 103.68 145.52 103.69 145.66C103.62 145.12 103.56 144.58 103.51 144.04C103.47 143.53 103.36 142.96 103.42 142.45C103.4 142.59 103.38 142.72 103.37 142.86C103.38 142.84 103.39 142.81 103.4 142.79C103.27 143.01 103.14 143.24 103.01 143.46C102.79 143.59 102.56 143.72 102.34 143.85C102.34 143.85 102.34 143.85 102.35 143.85C102.21 143.87 102.08 143.89 101.94 143.9C101.98 143.9 102.03 143.91 102.07 143.91C101.93 143.89 101.8 143.87 101.66 143.86C103.15 144.06 104.64 144.42 106.1 144.75C106.24 144.78 106.38 144.81 106.51 144.85C106.55 144.86 106.59 144.87 106.63 144.88C106.65 144.88 106.66 144.89 106.68 144.89C106.4 144.84 105.95 144.45 105.8 144.2C105.88 143.58 105.96 142.97 106.04 142.35C104.84 143.35 103.64 144.36 102.44 145.36C102.08 145.67 101.71 145.97 101.35 146.28C100.74 146.8 100.78 147.91 101.35 148.44C102 149.04 102.86 148.99 103.51 148.44C104.91 147.25 106.33 146.06 107.75 144.88C107.9 144.75 108.05 144.63 108.2 144.5C108.71 144.07 108.76 143.19 108.44 142.65C108.06 142 107.35 141.89 106.69 141.74C106.03 141.59 105.37 141.46 104.71 141.32C104.1 141.2 103.49 141.07 102.88 140.96C102.59 140.91 102.29 140.84 102 140.83C101.83 140.82 101.72 140.83 101.52 140.88C100.7 141.11 100.33 141.91 100.36 142.7C100.43 144.4 100.65 146.09 100.96 147.76C101.03 148.12 101.36 148.5 101.66 148.67C101.99 148.86 102.47 148.94 102.84 148.82C103.69 148.57 104.06 147.8 103.91 146.96Z" fill="white"/>
</g>
<defs>
<clipPath id="clip0_520_5403">
<rect width="200" height="200" fill="white"/>
</clipPath>
</defs>
</svg>
