<svg width="200" height="200" viewBox="0 0 200 200" fill="none" xmlns="http://www.w3.org/2000/svg">
<g clip-path="url(#clip0_520_5400)">
<path d="M100 200C155.228 200 200 155.228 200 100C200 44.7715 155.228 0 100 0C44.7715 0 0 44.7715 0 100C0 155.228 44.7715 200 100 200Z" fill="#FFE974"/>
<path d="M118.79 108.17C112.63 106.94 96.0801 106.97 94.0201 107.18C80.2101 108.56 68.7501 113.68 60.6201 123.69C52.4901 133.71 45.0101 176.27 44.6401 178.58C44.6401 178.58 45.5301 181.31 47.7401 185.27C62.9401 194.61 80.8401 200 100 200C124.93 200 147.73 190.87 165.24 175.78C163.07 163.34 155.89 133.31 149.24 125.69C142.03 117.42 132.52 110.89 118.79 108.17Z" fill="#11A906"/>
<path d="M70.8402 157.22C72.7102 153.86 78.4202 152.56 82.0302 152.74C85.6502 152.91 87.4002 147.41 84.5602 145.79C81.0402 143.78 78.6602 144.65 76.1502 145.36C73.6302 146.07 71.7702 144.29 72.2402 141.63C72.7102 138.97 75.2002 127.29 76.1302 122.86C77.0602 118.43 75.9802 116.21 73.3202 115.76C70.6602 115.31 69.7802 119.98 68.2302 126.34C66.6802 132.71 66.4502 136 65.7002 135.78C64.9402 135.56 65.8402 131.68 67.4102 123.97C68.9702 116.26 69.8802 111.5 67.5202 110.35C65.1602 109.2 62.6102 110.02 61.3402 117.03C60.0702 124.04 58.9402 132.21 57.7902 132.77C56.6502 133.33 57.1502 125.87 58.1202 120.44C59.0902 115.02 58.5902 113.53 56.8702 112.91C55.1502 112.29 52.2302 114.11 51.0302 121.26C51.0302 121.26 50.7402 119.38 48.6502 118.88C46.5602 118.38 44.7402 121.98 43.7602 129.97C42.7902 137.96 44.4802 139.14 43.6802 143.49C42.8802 147.84 42.3902 153.65 47.6402 157.33L42.1602 181.58C48.5002 186.08 55.3902 189.86 62.7002 192.8L64.0702 162.27C64.0802 162.28 68.9602 160.58 70.8402 157.22Z" fill="#A95630"/>
<path fill-rule="evenodd" clip-rule="evenodd" d="M59.26 162.56C61.46 163.19 63.86 163.13 66.01 162.33C66.48 162.16 66.8 161.7 66.66 161.19C66.54 160.74 65.99 160.37 65.52 160.54C63.63 161.24 61.68 161.31 59.76 160.77C59.28 160.63 58.75 160.94 58.62 161.42C58.48 161.91 58.78 162.42 59.26 162.56Z" fill="black"/>
<path fill-rule="evenodd" clip-rule="evenodd" d="M59.6002 151.74C60.2802 150.07 61.7002 148.76 63.2202 147.86C64.9202 146.86 66.9002 146.41 68.8302 146.99C69.9802 147.33 70.4702 145.54 69.3202 145.2C64.7402 143.83 59.5502 146.98 57.8102 151.25C57.6202 151.71 58.0202 152.27 58.4602 152.39C59.0002 152.53 59.4102 152.2 59.6002 151.74Z" fill="black"/>
<path fill-rule="evenodd" clip-rule="evenodd" d="M53.4901 142.24C56.6901 141.88 59.8801 142.22 62.9401 143.22C64.0801 143.59 64.5601 141.8 63.4301 141.43C60.2401 140.38 56.8301 140.01 53.4901 140.38C52.9901 140.44 52.5601 140.77 52.5601 141.31C52.5701 141.77 52.9901 142.3 53.4901 142.24Z" fill="black"/>
<path fill-rule="evenodd" clip-rule="evenodd" d="M49.9301 121.74C49.1801 125.25 48.7401 128.9 49.6801 132.41C49.9901 133.56 51.7801 133.07 51.4701 131.92C50.6101 128.73 51.0301 125.41 51.7201 122.23C51.9701 121.07 50.1801 120.58 49.9301 121.74Z" fill="black"/>
<path d="M144.3 156.65C145.06 152.25 147.01 151.83 148.86 143.94C150.71 136.06 150.28 131.95 148.2 131.6C146.12 131.24 145.21 132.89 145.21 132.89C146.57 125.72 144.53 122.85 142.74 122.74C140.95 122.64 139.98 123.84 139.01 129.3C138.04 134.77 135.93 141.96 135.08 140.99C134.23 140.01 136 131.9 137.24 124.82C138.48 117.74 136.44 115.96 133.88 116.1C131.32 116.23 130.52 121.07 129.31 128.91C128.1 136.76 127.59 140.75 126.82 140.66C126.05 140.57 126.97 137.39 127.74 130.81C128.51 124.22 129.3 119.5 126.72 118.86C124.14 118.22 122.38 119.88 121.71 124.4C121.04 128.92 119.31 140.87 118.83 143.55C118.35 146.23 116.03 147.16 113.97 145.49C111.91 143.82 110.03 142.06 106.12 142.55C102.96 142.94 102.68 148.8 106.05 150.07C109.42 151.35 114.19 154.82 114.75 158.72C115.31 162.62 119.19 166.15 119.19 166.15L113.44 199.1C121.35 198.04 128.97 196.05 136.18 193.25L135.93 168.05C142 166.69 143.54 161.05 144.3 156.65Z" fill="#A95630"/>
<path fill-rule="evenodd" clip-rule="evenodd" d="M123.591 166.46C123.741 166.48 123.441 166.44 123.381 166.43C123.261 166.41 123.141 166.39 123.021 166.36C122.771 166.31 122.511 166.24 122.271 166.17C122.031 166.1 121.801 166.02 121.571 165.94C121.511 165.92 121.461 165.89 121.401 165.87C121.261 165.81 121.511 165.92 121.371 165.86C121.241 165.81 121.121 165.75 120.991 165.69C120.551 165.48 120.121 165.23 119.711 164.95C119.611 164.88 119.511 164.81 119.411 164.74C119.391 164.73 119.211 164.59 119.281 164.65C119.341 164.69 119.201 164.59 119.191 164.58C118.981 164.41 118.791 164.24 118.601 164.06C118.251 163.73 117.641 163.68 117.291 164.06C116.961 164.42 116.911 165.02 117.291 165.37C119.031 167.02 121.221 168.04 123.591 168.34C124.071 168.4 124.541 167.87 124.521 167.41C124.491 166.84 124.111 166.53 123.591 166.46Z" fill="black"/>
<path fill-rule="evenodd" clip-rule="evenodd" d="M128.74 158.17C128.68 155.71 127.62 153.41 126.11 151.51C124.63 149.64 122.57 148.32 120.18 148.05C119.68 147.99 119.25 148.52 119.25 148.98C119.25 149.53 119.68 149.85 120.18 149.91C122.05 150.12 123.67 151.37 124.8 152.83C125.98 154.35 126.84 156.23 126.89 158.18C126.91 159.36 128.77 159.36 128.74 158.17Z" fill="black"/>
<path fill-rule="evenodd" clip-rule="evenodd" d="M136.54 149.9C133.56 148.2 130.27 147.17 126.86 146.88C126.36 146.84 125.93 147.34 125.93 147.81C125.93 148.35 126.36 148.69 126.86 148.74C129.94 149.01 132.93 149.98 135.61 151.51C136.65 152.09 137.58 150.49 136.54 149.9Z" fill="black"/>
<path fill-rule="evenodd" clip-rule="evenodd" d="M144.25 133.39C143.78 136.69 143.04 140.05 141.07 142.81C140.78 143.22 141 143.84 141.4 144.08C141.87 144.35 142.38 144.16 142.67 143.75C144.72 140.86 145.54 137.33 146.03 133.89C146.1 133.4 145.91 132.89 145.38 132.75C144.96 132.63 144.32 132.9 144.25 133.39Z" fill="black"/>
<path d="M92.9199 109.76C92.9199 109.76 89.4899 119.26 94.9699 123.64C100.45 128.02 112.93 126.18 118.59 118.06C123.53 110.97 122.26 105.61 122.26 105.61L92.9199 109.76Z" fill="#A95630"/>
<path d="M116.97 64.81C116.97 64.81 80.1 64.82 79.14 58.45C78.43 53.75 84.71 32.22 118.56 43.96C129.52 47.76 137.32 58.27 136.16 71.47C135.35 80.65 131.49 92.43 125.72 99.11C119.2 106.66 115.66 105.35 115.66 105.35L116.97 64.81Z" fill="black"/>
<path d="M122.28 108.84C122.41 105.06 122.05 98.4101 122.05 98.4101C122.9 98.6401 124.71 98.9401 127.69 97.1201C130.79 95.2301 135.71 88.4201 132.23 83.9301C130.18 81.2901 127.71 79.8401 124.31 82.9401C120.48 86.4401 117.46 85.7001 118.24 80.8001C119.02 75.9001 123.26 64.7201 118.75 61.5101C114.23 58.3101 109.08 60.1701 100.07 57.9901C96.1398 57.0401 93.4598 55.7201 90.2798 54.2501C86.6598 52.5701 81.8498 55.7201 80.2698 60.4201C79.3998 63.0001 75.7398 83.4601 75.7098 88.1701C75.6798 92.4501 77.7598 109.1 93.9998 111C102.29 111.97 122.28 108.84 122.28 108.84Z" fill="#A95630"/>
<path d="M79.4498 54.2101C77.1798 64.2801 74.5398 74.2101 74.2698 84.6001C74.0498 93.0601 75.6598 101.62 81.8398 107.83C86.1598 112.16 92.0298 114.04 98.0798 113.74C99.9198 113.65 99.9298 110.78 98.0798 110.87C93.0998 111.11 88.2298 109.83 84.4998 106.4C81.9298 104.04 80.0098 100.96 78.8098 97.7101C77.3898 93.8701 77.0798 89.7401 77.1198 85.6701C77.1798 79.7601 78.0298 73.8801 79.1698 68.0901C80.0398 63.6801 81.2198 59.3501 82.2098 54.9701C82.6198 53.1701 79.8498 52.4001 79.4498 54.2101Z" fill="black"/>
<path d="M98.1299 84.3401C98.1099 84.4001 98.1 84.4601 98.08 84.5101C98.07 84.5301 97.9799 84.7501 98.0299 84.6401C98.0899 84.5301 97.99 84.7101 97.98 84.7301C97.95 84.7801 97.9199 84.8401 97.8899 84.8901C97.8599 84.9501 97.8199 85.0101 97.7799 85.0701C97.7499 85.1101 97.6699 85.2701 97.7699 85.0901C97.7199 85.1801 97.6099 85.2701 97.5399 85.3501C97.4999 85.3901 97.46 85.4301 97.41 85.4601C97.27 85.5901 97.56 85.3701 97.4 85.4701C97.37 85.4901 97.1099 85.6601 97.0999 85.6401C97.1999 85.6001 97.2099 85.6001 97.1299 85.6301C97.1099 85.6401 97.0899 85.6401 97.0699 85.6501C97.0099 85.6701 96.95 85.6901 96.9 85.7001C96.86 85.7101 96.8199 85.7201 96.7799 85.7201C96.8099 85.7201 96.8499 85.7101 96.8799 85.7101C96.8499 85.7401 96.7099 85.7201 96.6699 85.7201C96.6399 85.7201 96.4399 85.7001 96.5699 85.7201C96.6999 85.7401 96.5 85.7001 96.48 85.7001C96.42 85.6901 96.3699 85.6601 96.3099 85.6501C96.2499 85.6301 96.27 85.6401 96.37 85.6701C96.33 85.6501 96.2999 85.6301 96.2699 85.6101C96.2499 85.6001 96.24 85.5901 96.22 85.5801C96.14 85.5301 96.1499 85.5401 96.2499 85.6101C96.2099 85.6001 96.1599 85.5301 96.1299 85.5001C96.1099 85.4801 96.0199 85.4001 96.0199 85.3801C96.0899 85.4701 96.0999 85.4901 96.0699 85.4401C96.0499 85.4201 96.0399 85.4001 96.0199 85.3701C95.9899 85.3201 95.96 85.2801 95.94 85.2301C95.93 85.2101 95.91 85.1801 95.9 85.1501C95.87 85.0901 95.8799 85.1201 95.9299 85.2201C95.8699 85.1701 95.85 84.9601 95.83 84.8901C95.82 84.8501 95.8199 84.8101 95.8099 84.7801C95.8199 84.8101 95.82 84.8501 95.83 84.8801C95.81 84.8701 95.8199 84.7401 95.8199 84.7101C95.8199 84.6401 95.83 84.5701 95.83 84.5101C95.84 84.4501 95.8299 84.4701 95.8199 84.5801C95.8299 84.5401 95.8299 84.5001 95.8399 84.4701C95.9299 84.0501 95.7099 83.5601 95.2699 83.4601C94.8499 83.3701 94.36 83.5901 94.26 84.0301C94.1 84.7601 94.1999 85.5601 94.6099 86.2001C95.0499 86.8901 95.7499 87.2901 96.5599 87.3601C98.1099 87.4901 99.3099 86.1601 99.7099 84.7901C99.8299 84.3801 99.5599 83.8801 99.1399 83.7801C98.6899 83.6701 98.2599 83.9001 98.1299 84.3401Z" fill="black"/>
<path d="M94.3198 84.07C94.3098 84.09 94.2398 84.31 94.2898 84.19C94.3398 84.07 94.2398 84.27 94.2298 84.29C94.2198 84.31 94.1998 84.34 94.1798 84.36C94.1498 84.41 94.1598 84.39 94.2198 84.31C94.2098 84.35 94.1398 84.4 94.1098 84.43C94.0798 84.46 94.0598 84.48 94.0298 84.51C93.9598 84.57 93.9798 84.56 94.0698 84.48C94.0698 84.5 93.9298 84.57 93.9298 84.57C93.8998 84.58 93.7098 84.7 93.8898 84.6C93.8398 84.63 93.7698 84.64 93.7098 84.66C93.6398 84.68 93.5398 84.72 93.4598 84.71C93.4898 84.71 93.5198 84.7 93.5498 84.7C93.5098 84.7 93.4698 84.71 93.4298 84.71C93.3098 84.72 93.1998 84.71 93.0798 84.7C92.9898 84.69 93.0098 84.69 93.1298 84.71C93.0898 84.7 93.0598 84.7 93.0198 84.69C92.9698 84.68 92.9098 84.67 92.8598 84.65C92.8098 84.63 92.7498 84.62 92.6998 84.6C92.5398 84.55 92.8598 84.68 92.6698 84.58C92.5898 84.54 92.4098 84.47 92.3598 84.39C92.4398 84.46 92.4598 84.47 92.4198 84.43C92.3998 84.41 92.3798 84.39 92.3598 84.37C92.3098 84.32 92.2698 84.28 92.2198 84.23C92.0898 84.08 92.2598 84.32 92.1898 84.19C92.1598 84.14 92.1298 84.1 92.1098 84.05C92.0898 84 92.0698 83.95 92.0398 83.9C92.1498 84.07 92.0598 83.93 92.0398 83.86C92.0198 83.8 91.9998 83.73 91.9898 83.67C91.9898 83.65 91.9798 83.63 91.9798 83.62C91.9698 83.53 91.9698 83.55 91.9798 83.67C91.9398 83.65 91.9698 83.34 91.9698 83.3C91.9798 83.08 91.9298 83.43 91.9698 83.27C91.9798 83.22 91.9898 83.16 92.0098 83.11C92.0198 83.09 92.0398 82.96 92.0598 82.95C92.0098 83.06 92.0098 83.07 92.0398 82.99C92.0598 82.96 92.0698 82.92 92.0898 82.89C92.2998 82.52 92.1898 81.98 91.7998 81.77C91.4098 81.57 90.8998 81.66 90.6798 82.06C90.0798 83.14 90.2698 84.55 91.1198 85.44C91.9998 86.36 93.4398 86.57 94.5798 86.06C95.2198 85.77 95.7098 85.16 95.8998 84.49C96.0098 84.08 95.7598 83.58 95.3298 83.48C94.8998 83.4 94.4398 83.63 94.3198 84.07Z" fill="black"/>
<path d="M92.1202 82.8501C93.1702 80.1301 94.7502 77.6501 95.9202 74.9701C96.1002 74.5601 96.0402 74.0901 95.6302 73.8501C95.2802 73.6501 94.6902 73.7401 94.5102 74.1401C93.2902 76.9501 91.6502 79.5501 90.5502 82.4101C90.3902 82.8201 90.7302 83.3101 91.1202 83.4201C91.5802 83.5501 91.9602 83.2601 92.1202 82.8501Z" fill="black"/>
<path d="M92.8901 71.7301C92.6201 70.0201 91.1901 69.0701 90.6901 68.7701C89.6101 68.1101 88.3801 67.4301 86.2701 67.4701C82.2101 67.5401 81.7201 68.8701 81.4801 69.8401C81.2901 70.6401 81.4801 72.2101 82.5801 72.7101C83.1701 72.9801 84.3101 72.7201 86.5801 72.9901C88.7301 73.2401 91.0401 74.3001 91.7201 74.1601C92.3901 74.0201 93.1401 73.2601 92.8901 71.7301Z" fill="white"/>
<path d="M88.6902 73.1C91.0002 73.1 91.0002 69.52 88.6902 69.52C86.3902 69.52 86.3802 73.1 88.6902 73.1Z" fill="black"/>
<path d="M111.69 77.43C111.64 75.87 110.36 74.56 109.87 74.23C108.81 73.52 107.2 72.72 104.99 72.52C101.36 72.2 100.24 73.76 99.9401 74.64C99.6901 75.38 99.6801 76.84 100.78 77.41C101.37 77.71 102.59 77.58 104.94 78.03C107.17 78.46 109.48 79.65 110.2 79.57C110.92 79.5 111.73 78.87 111.69 77.43Z" fill="white"/>
<path d="M106.51 78.0501C108.74 78.0501 108.74 74.5801 106.51 74.5801C104.28 74.5901 104.28 78.0501 106.51 78.0501Z" fill="black"/>
<path d="M100.5 43.9801C98.6199 42.8801 96.7499 41.9301 94.9199 41.1101C100.5 38.9301 107.66 38.55 116.64 42.17C144.63 53.45 135.02 80.1501 135.02 80.1501C135.02 80.1501 130.2 73.7001 122.99 67.9701C119.04 61.2501 111.42 50.37 100.5 43.9801Z" fill="#016A81"/>
<path d="M94.92 41.1201C96.75 41.9401 98.62 42.8901 100.5 43.9901C111.42 50.3801 119.04 61.2601 122.99 67.9801C119.15 64.9301 114.64 62.0701 109.8 60.5001C92.67 54.9101 80.65 57.7501 78.65 58.3001C78.58 58.2601 78.51 58.2201 78.44 58.1701C75.98 56.7001 71.92 52.9901 71.23 45.6601C70.33 35.9701 80.53 34.7201 94.92 41.1201Z" fill="#008BAD"/>
<path d="M129.69 86.1301C127.6 85.1201 125.43 86.4901 124.48 88.4001C123.55 90.2901 122.88 93.1601 124.94 94.5601C125.31 94.8101 125.85 94.6301 126.06 94.2701C126.3 93.8701 126.13 93.4001 125.77 93.1501C125.25 92.8001 125.16 92.0401 125.23 91.4301C125.31 90.6901 125.57 89.9101 125.89 89.2401C126.2 88.6201 126.61 88.0501 127.22 87.7101C127.73 87.4301 128.36 87.3201 128.85 87.5601C129.25 87.7501 129.74 87.6701 129.97 87.2701C130.19 86.8901 130.09 86.3201 129.69 86.1301Z" fill="black"/>
<path d="M96.3601 92.9001C96.4301 92.8901 96.6701 92.8401 96.7301 92.8901C96.7301 92.8901 96.6101 92.8701 96.6901 92.8801C96.7201 92.8901 96.7401 92.8901 96.7701 92.9001C96.8401 92.9201 96.9101 92.9401 96.9701 92.9601C97.0001 92.9701 97.0701 93.0101 96.9601 92.9601C96.9801 92.9701 97.0101 92.9801 97.0301 93.0001C97.0801 93.0301 97.1301 93.0701 97.1901 93.1001C97.1801 93.1001 97.1101 93.0301 97.1701 93.0801C97.1901 93.1001 97.2101 93.1101 97.2301 93.1301C97.2801 93.1801 97.3301 93.2301 97.3801 93.2801C97.4001 93.3101 97.4301 93.3301 97.4501 93.3601C97.4401 93.3501 97.3901 93.2801 97.4301 93.3401C97.4601 93.3901 97.5001 93.4401 97.5301 93.5001C97.6001 93.6101 97.6601 93.7301 97.7101 93.8501C97.6601 93.7401 97.7301 93.9101 97.7401 93.9401C97.7601 94.0001 97.7801 94.0701 97.8001 94.1401C97.8201 94.2001 97.8301 94.2501 97.8401 94.3101C97.8501 94.3701 97.9001 94.4801 97.8901 94.5401C97.8901 94.5301 97.8801 94.4001 97.8901 94.5201C97.8901 94.5401 97.8901 94.5701 97.9001 94.5901C97.9001 94.6501 97.9001 94.7001 97.9001 94.7601C97.9001 94.8801 97.9301 94.6601 97.9001 94.7801L97.8801 94.8701C97.8901 94.8501 97.9001 94.8301 97.9101 94.8001C97.9001 94.8101 97.9001 94.8301 97.8901 94.8401C97.8901 94.8501 97.8801 94.8501 97.8801 94.8601C97.8601 94.9001 97.8701 94.8901 97.9101 94.8301L97.8601 94.8801C97.8101 94.9301 97.8901 94.8601 97.8901 94.8501C97.8101 94.9201 97.9101 94.8101 97.9101 94.8501C97.9101 94.8701 97.7701 94.8801 97.7701 94.8901C97.7801 94.8701 97.9001 94.8801 97.8001 94.8801C97.6901 94.8801 97.8301 94.8901 97.8401 94.8901C97.8401 94.8901 97.6401 94.8501 97.7401 94.8701C97.8101 94.8901 97.7601 94.8801 97.7301 94.8701C97.7001 94.8501 97.6801 94.8401 97.6501 94.8201C97.5501 94.7601 97.7101 94.8901 97.6401 94.8101C97.6401 94.8001 97.5801 94.7601 97.5801 94.7401C97.5801 94.7601 97.6401 94.8401 97.6001 94.7601C97.5901 94.7501 97.5601 94.6801 97.5601 94.6801C97.5701 94.6801 97.6001 94.8001 97.5801 94.7301C97.5801 94.7101 97.5701 94.6901 97.5601 94.6601C97.5301 94.5701 97.5901 94.6701 97.5601 94.7001C97.5601 94.7001 97.5601 94.6401 97.5601 94.6301C97.5501 94.5601 97.5501 94.6801 97.5501 94.6901C97.5601 94.6801 97.6001 94.5301 97.6001 94.5201C97.6101 94.5401 97.5301 94.6501 97.5901 94.5501C97.5901 94.5401 97.6401 94.4801 97.6401 94.4701C97.6501 94.4801 97.5301 94.5801 97.6201 94.4901C97.6301 94.4801 97.6901 94.4301 97.6801 94.4301C97.6801 94.4401 97.5801 94.5001 97.6401 94.4601C97.6501 94.4501 97.7201 94.4001 97.7401 94.4001C97.7401 94.4001 97.6301 94.4501 97.6901 94.4201C97.7401 94.4001 97.8301 94.4101 97.6501 94.4201C97.6701 94.4201 97.7401 94.4301 97.6401 94.4101C97.5901 94.4001 97.5801 94.4001 97.6101 94.4101C97.6601 94.4201 97.6401 94.4101 97.5401 94.3801C97.5001 94.3601 97.4601 94.3201 97.4401 94.2801C97.3901 94.2301 97.3701 94.1601 97.3901 94.0801C97.3501 94.0101 97.3501 93.9501 97.3801 93.8901C97.3801 93.8801 97.3901 93.8701 97.3901 93.8601C97.3801 93.8801 97.3701 93.9101 97.3501 93.9301C97.3201 94.0001 97.4101 93.8801 97.3601 93.9201C97.3401 93.9301 97.3201 93.9601 97.3001 93.9701C97.3801 93.8801 97.3001 93.9601 97.2601 93.9901C96.9701 94.1501 96.8501 94.5801 97.0301 94.8701C97.2201 95.1701 97.5901 95.2701 97.9101 95.1001C98.4101 94.8301 98.8201 94.1901 98.5301 93.6201C98.3001 93.1801 97.7401 93.0401 97.2901 93.1901C96.4001 93.4901 95.9601 94.6301 96.4901 95.4301C96.7501 95.8101 97.1301 96.0701 97.5901 96.1301C98.1001 96.2001 98.6101 95.9901 98.9101 95.5601C99.1801 95.1701 99.1801 94.6901 99.1101 94.2401C99.0501 93.8201 98.9001 93.4101 98.7101 93.0301C98.2601 92.1501 97.3501 91.4901 96.3201 91.6101C95.9901 91.6501 95.6601 91.8801 95.6801 92.2501C95.7301 92.5701 96.0001 92.9401 96.3601 92.9001Z" fill="black"/>
<path d="M97.0901 99.69C98.6801 99.96 100.46 99.92 101.81 98.92C102.09 98.71 102.23 98.36 102.04 98.04C101.88 97.77 101.44 97.6 101.16 97.81C100.61 98.22 100.03 98.43 99.3901 98.51C99.3201 98.52 99.0801 98.54 98.9401 98.55C98.7601 98.56 98.5801 98.56 98.4001 98.55C98.2201 98.54 98.0401 98.53 97.8601 98.51C97.8401 98.51 97.5901 98.48 97.7001 98.49C97.6101 98.48 97.5201 98.46 97.4401 98.45C97.1101 98.39 96.7301 98.54 96.6501 98.9C96.5701 99.21 96.7301 99.63 97.0901 99.69Z" fill="black"/>
<path d="M103.58 67.05C105.67 69.36 108.42 71.06 111.42 71.92C112.14 72.13 113.02 71.67 113.19 70.92C113.36 70.15 112.96 69.38 112.19 69.15C111.85 69.05 111.51 68.94 111.18 68.82C111.03 68.77 110.89 68.71 110.74 68.65C110.74 68.65 110.4 68.51 110.58 68.59C110.74 68.66 110.51 68.56 110.48 68.54C109.83 68.25 109.21 67.92 108.61 67.54C108.33 67.36 108.05 67.18 107.78 66.98C107.7 66.92 107.62 66.86 107.54 66.81C107.52 66.79 107.32 66.64 107.45 66.74C107.58 66.85 107.39 66.69 107.36 66.67C107.28 66.61 107.21 66.55 107.13 66.48C106.59 66.02 106.08 65.53 105.61 65C105.1 64.44 104.09 64.45 103.58 65C103.03 65.61 103.04 66.45 103.58 67.05Z" fill="black"/>
<path d="M92.1402 61.8C92.2102 61.74 91.8902 61.95 91.8302 61.98C91.7702 62.01 91.4102 62.19 91.5202 62.14C91.2202 62.27 90.9102 62.36 90.5902 62.45C89.7902 62.68 88.9702 62.86 88.1502 63C86.6202 63.26 85.0002 63.33 83.4102 63.26C82.6302 63.23 81.9702 63.94 81.9702 64.7C81.9702 65.51 82.6302 66.1 83.4102 66.14C85.3202 66.22 87.2202 66.08 89.1002 65.74C90.8902 65.42 92.7202 64.99 94.1702 63.83C94.7802 63.35 94.6802 62.31 94.1702 61.8C93.5702 61.2 92.7502 61.31 92.1402 61.8Z" fill="black"/>
</g>
<defs>
<clipPath id="clip0_520_5400">
<rect width="200" height="200" fill="white"/>
</clipPath>
</defs>
</svg>
