<svg width="200" height="200" viewBox="0 0 200 200" fill="none" xmlns="http://www.w3.org/2000/svg">
<g clip-path="url(#clip0_520_5404)">
<path d="M100 200C155.228 200 200 155.228 200 100C200 44.7715 155.228 0 100 0C44.7715 0 0 44.7715 0 100C0 155.228 44.7715 200 100 200Z" fill="#FFE974"/>
<path d="M136.2 151.28L138.96 192.13C146.4 188.98 153.38 184.95 159.77 180.18L153.58 142.2L136.2 151.28Z" fill="#A85630"/>
<path d="M77.31 49.08L75.85 48.92C74.42 48.76 74.35 47.75 73.74 49.05C71.06 54.75 68.64 64.49 65.64 85.52C61.73 112.92 66.99 114.32 71.63 114.81C77.25 115.41 86.84 111.1 89.92 97.07C92.43 85.61 77.31 49.08 77.31 49.08Z" fill="black"/>
<path d="M163.31 155.13C163.31 155.13 146.62 111.13 129.59 106.33C120.74 103.83 91.3298 101.85 72.0898 105.71C54.3098 109.28 29.2798 142.21 29.2798 142.21C39.0298 159.05 55.8498 162.61 55.8498 162.61L62.3998 150.02C61.2798 164.36 59.2098 178.93 60.1998 191.76C72.3998 197.06 85.8598 200.01 100.01 200.01C113.83 200.01 127 197.2 138.98 192.13L137.15 160.79C150.52 159.71 163.31 155.13 163.31 155.13Z" fill="#545554"/>
<path d="M73.9597 56.8099C73.9597 56.8099 71.1397 79.7499 73.1997 89.9899C75.2597 100.23 82.5897 101.16 85.7797 101.41C85.7797 101.41 85.7997 107.98 87.9197 109.65C93.8697 114.33 105.46 110.73 108.96 105.75C112.46 100.77 111.44 54.8299 111.44 54.8299C111.44 54.8299 80.2497 50.4999 73.9597 56.8099Z" fill="#A65630"/>
<path d="M71.6299 62.3799L76.0899 60.8699L77.6099 55.99L78.1299 60.0099L85.5799 59.7099L88.0399 55.4799L87.9499 59.7999L98.1299 61.4099L100.78 57.33L100.24 62.2099L107.44 64.0399C107.44 64.0399 103.49 90.8399 112.09 118.08C115.44 128.67 126.36 126.32 129.84 124.77C137.28 121.44 138.58 115.3 139.02 109.86C139.81 100.05 133.94 86.9599 124.55 61.3199C120.94 51.4399 116.7 44.1099 111.01 40.9299C104.23 37.1299 96.4699 37.39 88.9499 39.33C86.1499 40.05 83.0699 41.0999 80.2599 42.6899C76.4899 44.8299 73.1899 48.7299 72.2999 52.9699C71.6799 55.8499 71.1499 59.5899 71.6299 62.3799Z" fill="black"/>
<path d="M93.5097 102.49C93.7197 101.52 93.1697 100.96 92.4197 100.69C92.5297 100.11 92.4897 99.5099 92.2597 98.9699C91.8497 98.0099 90.9497 97.3799 89.8997 97.3299C89.1797 97.2999 88.5597 97.5999 88.1097 98.0999C87.8997 97.9399 87.6397 97.8199 87.3497 97.7499C86.8497 97.6399 86.2697 97.7599 85.8497 98.0399C85.6197 98.1899 85.4197 98.4099 85.2797 98.6499C84.9697 98.5999 84.6497 98.6499 84.3597 98.7699C83.7197 99.0299 83.2497 99.5899 83.0097 100.23C82.7797 100.87 82.8797 101.53 83.3297 102.05C83.3597 102.08 83.3897 102.11 83.4197 102.13C82.9197 102.66 82.6597 103.41 82.8597 104.14C83.0297 104.73 83.4597 105.22 83.9897 105.49C84.2897 105.64 84.6197 105.72 84.9497 105.73C85.0597 105.73 85.1597 105.71 85.2697 105.69V105.7C85.3897 105.98 85.5397 106.22 85.7397 106.45C86.0697 106.82 86.5297 107.08 87.0297 107.15C87.6097 107.23 88.1797 107.07 88.6197 106.68C88.8097 106.51 88.9797 106.3 89.0897 106.06C89.1097 106.03 89.1097 105.99 89.1297 105.95C89.3097 106.09 89.4897 106.22 89.6997 106.3C90.2297 106.51 90.7897 106.44 91.2697 106.15C92.0197 105.69 92.2497 104.91 92.1997 104.11C92.8497 103.8 93.3497 103.2 93.5097 102.49Z" fill="black"/>
<path d="M84.3198 71.55C83.6998 72.96 83.1198 74.3899 82.5798 75.8399C82.3098 76.5799 82.0398 77.3199 81.7898 78.0699C81.6098 78.5999 81.4298 79.16 81.4298 79.73C81.4198 81.03 82.4298 81.99 83.7298 82.01C85.1298 82.02 86.1498 80.9699 86.3398 79.6399C86.3998 79.2499 85.9898 78.8899 85.6298 78.8899C85.1998 78.8799 84.9298 79.2099 84.8798 79.5999C84.7698 80.3599 83.8298 80.8199 83.1798 80.3799C82.5598 79.9599 83.0698 78.8499 83.2498 78.3199C83.9798 76.1699 84.7998 74.06 85.7098 71.98C85.8698 71.62 85.5698 71.1699 85.2298 71.0599C84.8298 70.9399 84.4798 71.19 84.3198 71.55Z" fill="black"/>
<path d="M85.1896 79.4699C84.9096 80.0699 85.0396 80.8499 85.3996 81.3899C85.8196 82.0299 86.4596 82.4499 87.2196 82.5499C87.8496 82.6399 88.4996 82.4499 88.9996 82.0499C89.5296 81.6299 89.7396 80.9599 89.8896 80.3299C89.9796 79.9599 89.8096 79.52 89.4096 79.41C89.0496 79.32 88.5896 79.4899 88.4896 79.8899C88.4296 80.1299 88.3596 80.3599 88.2796 80.5999C88.2296 80.7499 88.3496 80.4799 88.2696 80.6299C88.2396 80.6799 88.2196 80.7299 88.1896 80.7699C88.1796 80.7899 88.1596 80.8199 88.1396 80.8399C88.1096 80.8799 88.1196 80.8699 88.1796 80.7999C88.1496 80.8099 88.0996 80.8799 88.0796 80.8999C88.0696 80.9099 87.9796 80.9999 87.9696 80.9899C88.0596 80.9299 88.0696 80.9199 87.9996 80.9599C87.9896 80.9699 87.9696 80.9799 87.9596 80.9799C87.9196 80.9999 87.8696 81.0199 87.8296 81.0399C87.6996 81.0999 87.9796 80.9999 87.7996 81.0499C87.7496 81.0599 87.7096 81.0699 87.6596 81.0799C87.6396 81.0799 87.6096 81.0899 87.5896 81.0899C87.5096 81.0999 87.5296 81.0999 87.6396 81.0899C87.6396 81.1099 87.3796 81.0799 87.3496 81.0799C87.1896 81.0699 87.5096 81.1199 87.3496 81.0799C87.2996 81.0699 87.2596 81.0599 87.2096 81.0399C87.1696 81.0299 87.0896 81.0099 87.0496 80.9799C87.1396 81.0199 87.1496 81.0299 87.0796 80.9899C87.0596 80.9799 87.0496 80.9699 87.0296 80.9599C86.9696 80.9299 86.9196 80.8899 86.8696 80.8499C86.8496 80.8299 86.8296 80.8199 86.7996 80.7999C86.8696 80.8599 86.8796 80.8699 86.8396 80.8299C86.7996 80.7899 86.7596 80.7499 86.7196 80.7099C86.6896 80.6799 86.5496 80.5299 86.6696 80.6699C86.6296 80.6299 86.5096 80.4499 86.5196 80.3999C86.5496 80.4899 86.5596 80.4999 86.5396 80.4499C86.5296 80.4299 86.5196 80.3999 86.5196 80.3799C86.5096 80.3299 86.4996 80.2799 86.4896 80.2299C86.4596 80.0799 86.4796 80.3599 86.4896 80.2099C86.4896 80.1599 86.4896 80.1099 86.4996 80.0599C86.4996 79.9099 86.4596 80.2099 86.5096 80.0299C86.5296 79.9699 86.5496 79.9199 86.5696 79.8599C86.6396 79.6999 86.5896 79.4499 86.5196 79.2999C86.4396 79.1399 86.2696 78.9899 86.0896 78.9399C85.9096 78.8899 85.6996 78.8899 85.5296 78.9899C85.3696 79.1499 85.2696 79.2899 85.1896 79.4699Z" fill="black"/>
<path d="M79.4999 83.11C78.9199 83.43 78.3799 83.79 77.8599 84.2C77.7799 84.25 77.7099 84.31 77.6599 84.4C77.5999 84.48 77.5599 84.56 77.5399 84.66C77.4999 84.84 77.5299 85.06 77.6399 85.21C77.7499 85.37 77.9099 85.5 78.0999 85.53C78.2799 85.56 78.4999 85.55 78.6499 85.43C79.1699 85.02 79.7099 84.66 80.2899 84.34C80.4499 84.25 80.5699 84.05 80.6099 83.88C80.6499 83.7 80.6199 83.48 80.5099 83.33C80.3999 83.17 80.2399 83.04 80.0499 83.01C79.8499 82.97 79.6799 83.01 79.4999 83.11Z" fill="black"/>
<path d="M83.3198 83.86C83.0898 84.2 82.8698 84.55 82.6398 84.89C82.5898 84.98 82.5598 85.07 82.5598 85.17C82.5398 85.27 82.5498 85.36 82.5898 85.45C82.6398 85.62 82.7798 85.8 82.9398 85.87C83.1098 85.95 83.3198 85.99 83.5098 85.92C83.5698 85.89 83.6198 85.87 83.6798 85.84C83.7898 85.77 83.8698 85.68 83.9298 85.57C84.1598 85.23 84.3798 84.88 84.6098 84.54C84.6598 84.45 84.6898 84.36 84.6898 84.26C84.7098 84.16 84.6998 84.07 84.6598 83.98C84.6098 83.81 84.4698 83.63 84.3098 83.56C84.1398 83.48 83.9298 83.44 83.7398 83.51C83.6798 83.54 83.6298 83.56 83.5698 83.59C83.4598 83.66 83.3798 83.75 83.3198 83.86Z" fill="black"/>
<path d="M87.9896 84.4699C87.9996 84.4999 88.0196 84.5199 88.0296 84.5499C87.9996 84.4899 87.9796 84.4399 87.9496 84.3799C88.1396 84.7799 88.2796 85.1999 88.3696 85.6399C88.4096 85.8099 88.5796 85.9899 88.7196 86.0599C88.8796 86.1499 89.1096 86.1699 89.2896 86.1099C89.4596 86.0499 89.6296 85.9299 89.7096 85.7599C89.7296 85.6999 89.7596 85.6399 89.7796 85.5799C89.8096 85.4499 89.7996 85.3199 89.7596 85.1999C89.6496 84.6699 89.4496 84.1799 89.2196 83.6899C89.1696 83.6099 89.1096 83.5399 89.0196 83.4899C88.9396 83.4299 88.8596 83.3899 88.7596 83.3699C88.5796 83.3299 88.3596 83.3599 88.2096 83.4699C88.0496 83.5799 87.9196 83.7399 87.8896 83.9299C87.8796 83.9999 87.8796 84.0599 87.8696 84.1299C87.8796 84.2399 87.9196 84.3599 87.9896 84.4699Z" fill="black"/>
<path d="M92.1996 82.7899C92.4296 83.0299 92.6596 83.2699 92.8896 83.5099C92.9596 83.5799 93.0396 83.6299 93.1396 83.6499C93.2296 83.6899 93.3296 83.7099 93.4296 83.6999C93.5296 83.6999 93.6196 83.6699 93.6996 83.6299C93.7896 83.5999 93.8696 83.5399 93.9296 83.4699C94.0496 83.3199 94.1396 83.1299 94.1196 82.9399C94.1096 82.8799 94.0996 82.8199 94.0896 82.7499C94.0496 82.6299 93.9796 82.5199 93.8896 82.4399C93.6596 82.1999 93.4296 81.9599 93.1996 81.7199C93.1296 81.6499 93.0496 81.5999 92.9496 81.5799C92.8596 81.5399 92.7596 81.5199 92.6596 81.5299C92.5596 81.5299 92.4696 81.5599 92.3896 81.5999C92.2996 81.6299 92.2196 81.6899 92.1596 81.7599C92.0396 81.9099 91.9496 82.0999 91.9696 82.2899C91.9796 82.3499 91.9896 82.4099 91.9996 82.4799C92.0396 82.5999 92.0996 82.7099 92.1996 82.7899Z" fill="black"/>
<path d="M95.3796 83.58C95.4396 84.63 96.0696 85.46 96.8696 86.1C97.6396 86.72 98.7496 87.06 99.7096 86.72C100.04 86.61 100.32 86.31 100.22 85.93C100.14 85.62 99.7796 85.3 99.4296 85.42C99.3396 85.45 99.2496 85.48 99.1596 85.5C99.1096 85.51 99.0596 85.52 99.0096 85.53C99.0796 85.52 99.0596 85.53 98.9996 85.53C98.9096 85.53 98.8096 85.53 98.7196 85.52C98.6696 85.51 98.6196 85.51 98.5596 85.5C98.6296 85.51 98.5996 85.51 98.5496 85.49C98.4596 85.46 98.3696 85.44 98.2796 85.4C98.2296 85.38 98.1896 85.36 98.1396 85.34C98.0896 85.32 98.0696 85.3 98.1296 85.34C97.9596 85.25 97.7996 85.15 97.6496 85.03C97.6196 85.01 97.5896 84.98 97.5596 84.95C97.4696 84.88 97.6696 85.05 97.5296 84.92C97.4596 84.86 97.3996 84.79 97.3396 84.73C97.2196 84.6 97.1096 84.46 96.9996 84.32C96.9396 84.24 97.0496 84.4 96.9996 84.31C96.9796 84.27 96.9496 84.23 96.9196 84.18C96.8796 84.1 96.8396 84.03 96.7996 83.94C96.7896 83.93 96.7496 83.81 96.7796 83.89C96.8096 83.97 96.7596 83.82 96.7596 83.81C96.7496 83.77 96.7396 83.73 96.7396 83.7C96.7396 83.68 96.7196 83.49 96.7296 83.65C96.7096 83.3 96.4896 82.95 96.1096 82.95C95.7596 82.95 95.3596 83.21 95.3796 83.58Z" fill="black"/>
<path d="M82.0897 90.48C84.7197 90.72 87.4097 90.46 89.9297 89.69C92.4197 88.93 94.9797 87.73 96.8897 85.92C97.7197 85.14 96.5397 83.81 95.7097 84.6C93.9697 86.25 91.6097 87.36 89.3297 88.03C86.9997 88.71 84.5997 88.94 82.1897 88.72C81.0597 88.6 80.9597 90.37 82.0897 90.48Z" fill="black"/>
<path d="M96.6999 84.6499C95.6499 84.6599 94.7699 85.8699 93.8999 86.3899C92.9099 86.9799 91.8899 87.4499 90.8299 87.8999C89.2799 88.5499 87.6099 88.5699 85.9399 88.7399C85.0199 88.8299 84.1999 89.0399 83.2999 89.2699C83.1499 89.3099 83.0399 89.3699 82.9399 89.4499C82.6799 89.6199 82.5199 89.9199 82.6199 90.3199C83.3999 93.5199 86.1299 96.1099 89.5999 95.3499C92.5299 94.6999 95.0399 92.5899 96.6399 90.1199C97.0199 89.5399 97.3499 88.9199 97.6399 88.2899C97.9299 87.6799 98.3999 86.8199 98.4199 86.1399C98.4599 85.2499 97.5099 84.6399 96.6999 84.6499Z" fill="black"/>
<path d="M91.8097 90.08C90.2097 92.07 90.3797 94.03 90.6397 95.06C93.1197 94.19 95.2297 92.3 96.6397 90.12C97.0097 89.55 97.3297 88.94 97.6297 88.33C96.1197 88.11 93.4297 88.07 91.8097 90.08Z" fill="#EA525F"/>
<path d="M76.87 64.47C78.2 63 80.83 62.3 81.94 64.36C82.82 66 85.39 64.67 84.51 63.02C82.55 59.37 77.57 59.41 74.92 62.33C73.67 63.71 75.61 65.86 76.87 64.47Z" fill="black"/>
<path d="M102.61 66.01C101.93 64.14 100.21 62.77 98.3197 62.23C95.9697 61.56 93.7197 62.32 91.8997 63.84C90.4697 65.03 92.4197 67.17 93.8497 65.98C95.9197 64.26 99.0597 64.66 100.04 67.35C100.68 69.09 103.24 67.74 102.61 66.01Z" fill="black"/>
<path d="M70.0799 67.0599C69.4899 73.5499 69.3099 80.1499 69.8099 86.6499C69.9699 88.7499 70.2999 90.6299 71.0399 92.5899C73.0699 97.9699 77.3799 102.08 83.1599 103.02C88.7799 103.93 94.5399 101.89 99.5199 99.4799C101.2 98.6699 99.8599 96.0999 98.1799 96.9099C91.8299 99.9799 82.9199 102.69 77.1699 96.9799C74.3899 94.2199 73.0699 90.8199 72.7199 87.0799C72.0999 80.5199 72.3699 73.7699 72.9599 67.2199C73.1399 65.3599 70.2499 65.2099 70.0799 67.0599Z" fill="black"/>
<path d="M76.3397 67.5299C76.3397 67.5299 73.8397 68.6299 74.3697 70.7799C74.7697 72.4199 75.7997 72.2499 77.2397 71.7299C78.6497 71.2199 79.4397 71.2599 80.3997 71.8299C81.3597 72.4099 82.8797 72.4499 83.2197 70.8599C83.5697 69.2699 80.8497 65.4099 76.3397 67.5299Z" fill="white"/>
<path d="M93 68.9099C93 68.9099 90.6 69.6399 90.91 71.8199C91.22 73.9999 93.72 72.7299 94.9 72.8899C96.09 73.0499 97.25 74.8399 98.86 74.5499C100.47 74.2599 101.44 73.1599 100.17 70.9199C98.91 68.6799 96.47 67.7999 93 68.9099Z" fill="white"/>
<path d="M80.6298 71.24C78.4898 72.13 77.0998 68.75 79.2398 67.86C81.3798 66.97 82.7698 70.35 80.6298 71.24Z" fill="black"/>
<path d="M97.3198 72.73C95.1798 73.62 93.7898 70.24 95.9298 69.35C98.0698 68.45 99.4598 71.84 97.3198 72.73Z" fill="black"/>
<path d="M63.5896 127.8C62.1796 134.5 61.6596 141.33 61.5696 148.16C61.5396 150.44 61.5596 152.72 61.5996 155C61.6096 155.43 61.8996 155.82 62.3596 155.85C62.7696 155.87 63.2196 155.53 63.2096 155.09C63.0796 147.87 63.1996 140.6 64.2196 133.44C64.4696 131.72 64.7696 130 65.1296 128.29C65.2196 127.87 65.0596 127.42 64.6196 127.28C64.2296 127.16 63.6796 127.37 63.5896 127.8Z" fill="#3A3A3A"/>
<path d="M71.3802 162.72L82.5502 148.77C82.5002 151.37 82.4102 153.3 83.2402 154.57C85.0002 157.27 85.7402 158.1 85.7402 158.1C85.7402 158.1 84.3802 157.69 84.2702 160.84C84.1502 164.34 85.1002 165.86 86.7902 166.39C88.4802 166.93 89.1202 165.24 89.1202 165.24C89.1202 165.24 88.3802 168.24 90.7002 169.41C93.0302 170.58 94.1002 168.97 94.1002 168.97C93.9202 173.67 98.4102 172.53 99.1402 170.82C99.8802 169.11 102.44 160.48 102.44 160.48L103.92 162.58C103.92 162.58 103.83 163.76 104.37 169.76C104.83 174.88 105.59 176.49 107.12 176.72C107.38 176.76 107.67 176.76 107.98 176.73C110.11 176.51 109.67 173.41 109.55 166.99C109.44 160.77 108.9 159.11 108.87 159.01C108.99 159.04 106.67 155.21 104.67 153.1C104.1 152.5 97.9202 144.21 96.7202 142.82C96.2602 142.29 91.3602 132.61 81.6202 133.2C73.5402 133.69 46.4302 157.93 46.4302 157.93C46.4302 157.93 45.1402 157.49 40.6102 153.93C36.0802 150.37 32.6802 147.09 32.6802 147.09C32.6802 147.09 26.4202 156.69 24.9502 166.08C31.2202 173.19 38.4802 179.4 46.5202 184.5C48.0102 184.1 49.3502 183.53 50.4002 182.79C58.4002 177.29 71.3802 162.72 71.3802 162.72Z" fill="#A85630"/>
<path d="M96.4104 161.24C95.6204 163.95 94.7704 166.64 93.8604 169.32C93.5704 170.16 94.9004 170.52 95.1804 169.68C96.0904 167.01 96.9504 164.31 97.7304 161.6C97.9804 160.76 96.6604 160.39 96.4104 161.24Z" fill="black"/>
<path d="M90.6 159.22C89.99 161.45 89.31 163.67 88.56 165.86C88.44 166.21 88.7 166.61 89.04 166.7C89.42 166.8 89.76 166.57 89.88 166.22C90.63 164.03 91.31 161.82 91.92 159.58C92.15 158.73 90.83 158.37 90.6 159.22Z" fill="black"/>
<path d="M78.3098 175.41C77.1298 174.12 75.8598 172.91 74.5198 171.79C74.4498 171.73 74.3698 171.67 74.2798 171.66C74.1898 171.65 71.5298 177.05 71.5798 177.1C71.5798 177.1 76.5898 175.79 78.3098 175.41Z" fill="white"/>
<path d="M79.31 174.41C78.27 173.27 77.16 172.2 75.99 171.19C75.62 170.87 75.23 170.46 74.74 170.32C74.06 170.13 73.44 170.38 73.05 170.96C72.97 171.08 72.9 171.2 72.84 171.33C72.14 172.62 71.51 173.94 70.87 175.27C70.74 175.55 70.6 175.83 70.47 176.11C70.28 176.54 70.05 176.98 70.22 177.47C70.47 178.19 71.17 178.65 71.95 178.45C74.19 177.86 76.42 177.26 78.68 176.76C79.4 176.6 79.89 175.73 79.66 175.03C79.42 174.28 78.7 173.88 77.93 174.05C75.67 174.55 73.44 175.16 71.2 175.74C71.78 176.07 72.35 176.39 72.93 176.72C72.9 176.64 72.89 177.7 72.95 177.4C72.99 177.19 72.77 177.81 72.87 177.59C72.93 177.45 72.99 177.31 73.06 177.18C73.26 176.76 73.46 176.34 73.66 175.92C74.12 174.98 74.59 174.03 75.07 173.1C75.16 172.93 75.24 172.77 75.33 172.61C75.36 172.56 75.39 172.51 75.42 172.46C75.43 172.44 75.44 172.43 75.45 172.41C75.37 172.61 74.87 172.95 74.65 173.01C74.4 173.01 74.15 173.01 73.9 173.01C73.51 172.75 73.4 172.68 73.56 172.81C73.61 172.85 73.66 172.89 73.7 172.93C73.78 173 73.86 173.06 73.94 173.13C74.11 173.28 74.29 173.43 74.46 173.58C74.79 173.87 75.11 174.17 75.43 174.47C76.08 175.09 76.7 175.73 77.31 176.39C77.81 176.93 78.8 176.93 79.3 176.39C79.84 175.82 79.84 174.99 79.31 174.41Z" fill="white"/>
<path d="M110.24 169.12C110.59 173.5 110.02 178.02 107.21 181.56C104.74 184.68 101.08 186.68 97.1901 187.4C89.2801 188.86 77.2201 185.07 75.8701 175.96C75.6901 174.74 73.8401 175.26 74.0201 176.47C75.1701 184.24 83.4901 188.43 90.5501 189.39C97.7301 190.37 105.34 187.86 109.49 181.68C111.97 177.99 112.51 173.46 112.17 169.12C112.07 167.9 110.15 167.89 110.24 169.12Z" fill="white"/>
</g>
<defs>
<clipPath id="clip0_520_5404">
<rect width="200" height="200" fill="white"/>
</clipPath>
</defs>
</svg>
