<svg width="200" height="200" viewBox="0 0 200 200" fill="none" xmlns="http://www.w3.org/2000/svg">
<g clip-path="url(#clip0_520_7021)">
<path d="M100 200C155.228 200 200 155.228 200 100C200 44.7715 155.228 0 100 0C44.7715 0 0 44.7715 0 100C0 155.228 44.7715 200 100 200Z" fill="#A4E8F4"/>
<path d="M175.27 165.83C169.72 147.13 161.75 126.47 153.1 123.64C148.66 122.19 135.25 115.06 124.59 112.24C119.06 110.78 112.75 112.8 112.04 112.48L86.26 117.41C84.01 117.67 76.84 118.59 73.32 119.85C68.86 121.45 59.49 126.11 55.93 134.61C52.58 142.59 52.99 171.01 53.6 188.6C67.47 195.88 83.25 200 100 200C130.01 200 156.94 186.77 175.27 165.83Z" fill="#008DB2"/>
<path d="M85.9898 158.33C87.6398 163.63 89.1698 168.96 90.8198 174.26C91.1098 175.18 92.5498 174.79 92.2598 173.86C90.6098 168.56 89.0798 163.23 87.4298 157.93C87.1498 157.02 85.6998 157.41 85.9898 158.33Z" fill="black"/>
<path d="M152.57 160.31C153.34 164.57 153.94 168.87 154.27 173.19C154.34 174.14 155.84 174.15 155.77 173.19C155.43 168.74 154.81 164.3 154.02 159.92C153.84 158.96 152.4 159.36 152.57 160.31Z" fill="black"/>
<path d="M86.7003 128.48C86.7003 128.48 73.0603 114.42 71.1503 113.82C69.3803 113.27 67.3703 115.5 69.0503 117.96C70.4403 119.99 75.9603 127.27 76.1603 127.34C76.3603 127.41 86.7003 128.48 86.7003 128.48Z" fill="#F6A6AC"/>
<path d="M83.1001 136.08C81.3601 134.07 75.0701 128.02 74.5901 133.02C74.1101 138.02 81.9001 148.93 83.9801 151.48C86.0601 154.03 93.6401 153.8 95.8301 155.34C97.5801 156.57 119.14 181.27 131.13 195.05C140.39 192.02 149.06 187.67 156.91 182.23C142.39 173.17 98.6501 145.93 98.0601 145.92C97.3501 145.89 84.8401 138.09 83.1001 136.08Z" fill="#F6A6AC"/>
<path d="M141.5 176.74L102.62 144.41C102.62 144.41 91.5402 131 90.4902 130.17C89.4402 129.34 79.6302 124.41 78.3002 124.11C76.9702 123.81 66.8702 123.93 64.4002 124.85C63.7002 125.11 63.3102 128.44 66.5202 128.92C69.7302 129.4 77.5102 129.18 77.5102 129.18C77.5102 129.18 66.4102 133.74 65.4402 134.93C64.4702 136.11 66.5502 139.11 69.9302 137.72C73.3202 136.33 79.1302 134.45 80.5802 135.43C80.5802 135.43 77.4802 136.29 76.2502 136.94C75.0202 137.59 72.4002 140.74 72.3502 143.02C72.3002 145.3 75.2502 145.23 77.4602 142.61C79.6702 139.98 85.0302 140.24 85.0302 140.24C85.0302 140.24 87.1202 144.4 91.1502 147.9C94.8402 151.1 101.17 149.48 101.17 149.48L113.66 175.93L141.5 176.74Z" fill="#F6A6AC"/>
<path d="M71.2804 131.76C72.8304 131.11 74.4504 130.62 76.0004 129.97C76.4704 129.78 76.9204 129.62 77.4404 129.62C77.9404 129.63 78.4404 129.69 78.9404 129.7C79.7104 129.72 80.4104 129.78 81.1604 129.94C82.1904 130.17 82.6304 128.58 81.6004 128.35C80.7704 128.17 79.9604 128.07 79.1204 128.05C78.0004 128.02 76.9204 127.85 75.8404 128.25C74.1804 128.88 72.4804 129.46 70.8304 130.15C70.4204 130.32 70.1304 130.69 70.2604 131.16C70.3804 131.57 70.8704 131.93 71.2804 131.76Z" fill="black"/>
<path d="M81.7104 133.69C78.7504 134.65 75.6504 135.71 73.4804 138.07C71.7804 139.92 69.8204 142.97 71.8504 145.3C72.7004 146.28 74.0004 146.51 75.1904 146.05C76.7504 145.45 77.6104 143.95 78.9604 143.05C80.3504 142.12 82.0004 141.67 83.6204 141.33C83.9904 141.25 84.3604 141.18 84.7304 141.12C85.1904 141.04 85.3004 140.94 85.5804 141.24C85.8404 141.52 86.0004 142.17 86.1804 142.53C86.4004 142.95 86.6304 143.36 86.8804 143.77C88.6204 146.58 91.5904 149.83 95.2604 148.54C96.2504 148.19 95.8304 146.6 94.8204 146.95C92.8204 147.65 91.0804 146.47 89.8004 145C88.5104 143.52 87.8604 141.82 86.8804 140.16C86.1504 138.91 84.7004 139.44 83.5404 139.67C81.8904 140 80.2304 140.43 78.7404 141.25C78.0304 141.64 77.3804 142.13 76.8004 142.68C76.2004 143.25 75.6704 143.95 74.9304 144.35C74.0004 144.86 73.0804 144.64 72.7204 143.62C72.4004 142.7 72.8104 141.75 73.2904 140.96C75.2804 137.71 78.6604 136.41 82.1204 135.28C83.1504 134.95 82.7204 133.36 81.7104 133.69Z" fill="black"/>
<path d="M85.3803 133.2C83.5203 133.34 81.6503 133.48 79.7903 133.62C79.2403 133.66 78.6603 133.64 78.1503 133.86C77.9003 133.97 77.6403 134.08 77.3903 134.19C76.0503 134.78 74.7103 135.36 73.3803 135.95C72.9703 136.13 72.8803 136.72 73.0803 137.08C73.3203 137.5 73.8003 137.55 74.2103 137.38C75.5103 136.81 76.8003 136.25 78.1003 135.68C78.3703 135.56 78.6403 135.44 78.9103 135.33C78.9703 135.31 79.0203 135.27 79.0803 135.26C78.6503 135.38 79.0203 135.32 79.1203 135.33C79.3303 135.35 79.5803 135.3 79.7903 135.28C81.6503 135.14 83.5203 135 85.3803 134.86C86.4303 134.77 86.4403 133.12 85.3803 133.2Z" fill="black"/>
<path d="M88.76 146.31L79.02 142.5C79.02 142.5 84.72 138.74 86.29 140.81C87.86 142.88 88.76 146.31 88.76 146.31Z" fill="black"/>
<path d="M143.91 139.05C143.91 139.05 144.2 118.7 144.86 118.26C148.69 115.71 149.17 125.79 149.17 125.79L143.91 139.05Z" fill="#F6A6AC"/>
<path d="M160.57 141.41C161.75 136.88 162.84 132.26 163.94 131.48C165.04 130.7 170.84 126.91 171.95 125.32C173.06 123.74 172.65 122.39 171.14 121.72C169.64 121.06 165.45 124 165.45 124L166.83 122.24C166.83 122.24 169.98 121.42 172.08 119.59C174.18 117.76 172.36 115.13 171.84 114.67C171.32 114.21 170.32 114.81 170.32 114.81C170.81 113.12 169.77 111.76 168.69 111.82C167.62 111.88 163.72 113.85 162.17 115.15C160.62 116.45 155.43 120.53 155.43 120.53L155.94 118.04C155.94 118.04 157.87 116.03 161.08 112.53C163.64 109.74 160.96 107.58 159.48 108.29C157.91 109.05 152.09 114.46 150.89 116.31C149.68 118.16 142.2 143.55 142.2 143.55L76.7002 197.25C84.1802 199.04 91.9802 199.99 100 199.99C104.73 199.99 109.37 199.65 113.92 199.02L151.5 150.66C155.82 149.52 159.39 145.94 160.57 141.41Z" fill="#F6A6AC"/>
<path d="M155.77 118.73C154.79 119.6 153.87 120.51 152.97 121.47C152.72 121.74 152.68 122.2 152.97 122.47C153.24 122.72 153.7 122.76 153.97 122.47C154.86 121.51 155.79 120.6 156.77 119.73C157.05 119.48 157.04 118.98 156.77 118.73C156.47 118.46 156.07 118.47 155.77 118.73Z" fill="black"/>
<path d="M159.67 121.3C159.08 121.9 158.46 122.45 157.84 123.02C157.33 123.5 156.87 124.02 156.51 124.62C156.32 124.93 156.43 125.41 156.76 125.58C157.1 125.76 157.52 125.66 157.72 125.33C157.81 125.18 157.91 125.04 158.01 124.9C158.03 124.87 158.06 124.84 158.08 124.81C157.96 124.98 158.03 124.88 158.06 124.84C158.11 124.78 158.16 124.72 158.21 124.66C158.41 124.43 158.64 124.21 158.86 124C159.46 123.44 160.08 122.9 160.66 122.31C160.92 122.05 160.94 121.57 160.66 121.31C160.39 121.04 159.94 121.01 159.67 121.3Z" fill="black"/>
<path d="M162.05 127.94C163.29 126.79 164.57 125.71 165.96 124.74C166.96 124.05 167.98 123.38 169 122.72C169.61 122.32 170.26 122.03 170.88 121.64C172.4 120.71 173.97 119.22 173.9 117.29C173.8 114.83 170.87 113.76 168.89 114.84C166.54 116.13 164.29 117.63 161.98 119C161.2 119.46 161.91 120.68 162.69 120.22C164.5 119.14 166.31 118.04 168.12 116.95C168.96 116.44 169.86 115.67 170.9 115.8C171.79 115.92 172.56 116.63 172.49 117.56C172.38 119.02 170.88 120.06 169.7 120.7C168.12 121.56 166.62 122.57 165.14 123.6C163.69 124.61 162.35 125.74 161.06 126.94C160.39 127.56 161.39 128.55 162.05 127.94Z" fill="black"/>
<path d="M155.82 147.78C153.84 149.28 151.41 150 148.93 149.78C148.55 149.75 148.23 150.13 148.23 150.48C148.23 150.89 148.55 151.15 148.93 151.18C151.62 151.41 154.38 150.62 156.53 148.98C156.83 148.75 156.99 148.37 156.78 148.02C156.61 147.74 156.13 147.55 155.82 147.78Z" fill="black"/>
<path d="M170.35 121.89C170.46 121.91 170.57 121.93 170.67 121.96C170.72 121.97 170.78 121.99 170.83 122.01C170.87 122.03 170.97 122.06 170.88 122.02C170.98 122.06 171.08 122.12 171.17 122.17C171.23 122.2 171.28 122.24 171.34 122.28C171.38 122.31 171.41 122.34 171.36 122.29C171.45 122.36 171.53 122.43 171.6 122.51C171.65 122.56 171.69 122.61 171.73 122.66C171.76 122.7 171.78 122.73 171.74 122.67C171.8 122.76 171.86 122.85 171.92 122.95C171.95 123.01 171.98 123.07 172.01 123.13C171.97 123.04 172.01 123.13 172.02 123.18C172.06 123.29 172.09 123.4 172.11 123.51C172.12 123.54 172.13 123.69 172.12 123.56C172.13 123.62 172.13 123.67 172.13 123.73C172.13 123.84 172.13 123.95 172.12 124.07C172.11 124.19 172.15 123.91 172.12 124.12C172.11 124.18 172.1 124.23 172.09 124.29C172.06 124.4 172.03 124.51 171.99 124.61C171.97 124.68 172.02 124.55 171.97 124.66C171.95 124.71 171.92 124.76 171.89 124.81C171.84 124.91 171.78 125 171.71 125.1C171.67 125.16 171.76 125.06 171.67 125.14C171.62 125.19 171.58 125.24 171.53 125.29C171.26 125.56 171.26 126.02 171.53 126.29C171.8 126.56 172.25 126.56 172.53 126.29C173.41 125.41 173.79 124.02 173.38 122.83C172.99 121.68 171.95 120.74 170.73 120.56C170.37 120.5 169.96 120.65 169.86 121.05C169.78 121.36 169.96 121.83 170.35 121.89Z" fill="black"/>
<path d="M131.57 151.5C123.62 158.51 115.09 164.83 107.14 171.84C106.49 172.41 107.44 173.36 108.09 172.79C116.04 165.78 124.57 159.46 132.52 152.45C133.17 151.88 132.22 150.93 131.57 151.5Z" fill="black"/>
<path d="M150.61 150.74C147.91 154.02 145.48 157.56 142.98 161C139.66 165.57 136.36 170.16 133.05 174.73C132.15 175.98 131.01 177.59 130.19 178.64C129.66 179.31 130.6 180.27 131.14 179.59C133.48 176.61 135.62 173.47 137.83 170.4C141.21 165.72 144.58 161.04 148 156.39C149.16 154.81 150.31 153.2 151.55 151.69C152.1 151.02 151.16 150.07 150.61 150.74Z" fill="black"/>
<path d="M147.56 121.08C146.95 123.33 146.03 125.49 145.49 127.76C145.28 128.64 146.64 129.02 146.85 128.13C147.4 125.86 148.31 123.7 148.92 121.45C149.15 120.58 147.8 120.21 147.56 121.08Z" fill="black"/>
<path d="M86.24 126.9C82.14 125.34 77.83 124.07 73.51 123.27C72.47 123.08 72.03 124.67 73.07 124.86C77.39 125.66 81.7 126.93 85.8 128.49C86.8 128.86 87.23 127.27 86.24 126.9Z" fill="black"/>
<path d="M87.5201 71.45L82.2001 69.34C80.9401 71.54 73.2001 87.92 71.9301 91.79C67.8501 104.23 65.6901 109.64 67.6501 116.76C71.5801 131.05 92.5001 127.14 92.6901 115.35C92.6801 115.36 79.1801 96.82 87.5201 71.45Z" fill="black"/>
<path d="M82.2203 75.8001C82.2203 75.8001 78.8503 67.9301 86.6103 56.9001C94.3703 45.8601 111.85 34.2801 132.64 47.9401C151.47 60.3101 165.27 98.6401 163.31 116.62C161.4 134.14 132.24 138.84 125.51 120.57C122.88 113.44 127.3 96.9901 127.3 96.9901L82.2203 75.8001Z" fill="black"/>
<path d="M121.79 51.8801C117.86 49.0501 113.85 47.3101 110 46.4501C110.18 46.2601 110.35 46.0601 110.53 45.8501C112.91 42.9201 112.6 39.0901 112.35 37.5401C112.29 37.1501 111.91 36.9001 111.54 37.0101C110.3 37.3601 107.62 38.3301 105.8 40.4701C104.7 41.7601 103.99 42.9701 103.54 44.0701C103.17 43.2301 102.66 42.3601 101.97 41.5201C99.7202 38.7601 96.3102 38.2301 94.6202 38.1501C94.0602 38.1201 93.6202 38.6101 93.6902 39.1801C93.8602 40.6101 94.3902 43.2301 96.0102 45.3101C96.4402 45.8601 96.8702 46.3401 97.2902 46.7601C94.7002 47.5301 92.4102 48.7201 90.5502 50.2301C79.2502 59.3901 81.6802 69.9001 81.6802 69.9001C81.6802 69.9001 87.2302 46.1901 107.86 54.6901C128.5 63.1801 129.09 82.0801 129.09 82.0801C129.09 82.0801 129.97 80.0001 131.86 79.9001C134.24 79.7701 135.74 80.5501 135.74 80.5501C135.74 80.5501 135.29 61.6101 121.79 51.8801Z" fill="#00A94F"/>
<path d="M111.84 36.64C110.63 36.74 109.48 37.16 108.4 37.71C107.36 38.25 106.31 38.93 105.5 39.8C104.7 40.67 104.04 41.7 103.63 42.82C103.24 43.89 103.13 45.04 103.09 46.18C101.53 47.03 100.21 48.74 100.62 50.56C100.81 51.39 102.06 51.07 101.87 50.24C101.7 49.47 102.14 48.71 102.64 48.18C103.15 47.63 103.79 47.21 104.51 47.03C105.77 46.71 107.33 47.28 107.83 48.6C107.96 48.94 108.25 49.18 108.62 49.08C108.93 49 109.21 48.61 109.08 48.27C108.35 46.34 106.34 45.3 104.4 45.69C104.45 44.9 104.55 44.12 104.8 43.37C105.12 42.4 105.7 41.49 106.39 40.75C107.08 40 107.95 39.43 108.83 38.96C109.74 38.47 110.76 38.04 111.8 37.95C112.15 37.92 112.45 37.69 112.46 37.3C112.48 36.98 112.18 36.61 111.84 36.64Z" fill="#008043"/>
<path d="M113.8 57.74C113.8 57.74 117.31 59.98 119.56 62.25C120.28 62.98 121.42 64.2 122.37 65.38C123.03 66.2 123.69 67.19 123.69 67.19C123.69 67.19 125.17 62.5 122.31 59.4C118.53 55.29 113.8 57.74 113.8 57.74Z" fill="#97CA51"/>
<path d="M122.02 53.74C121.46 54.71 120.18 54.99 119.16 54.37C118.14 53.75 117.77 52.45 118.33 51.48C118.64 50.95 119.17 50.63 119.75 50.54C119.75 50.54 120.61 51.06 121.06 51.37C121.7 51.82 122.22 52.2 122.22 52.2C122.34 52.7 122.29 53.28 122.02 53.74Z" fill="#E24497"/>
<path d="M97.87 39.69L96.18 41.52L97.42 42.44L99.13 40.69L99.49 43.71L100.85 43.53L100.64 41.26L102.44 43.11L102.87 42.82C102.87 42.82 101.82 40.97 100.21 39.91C99.73 39.59 98.97 39.14 98.08 38.82C97.08 38.47 95.98 38.28 95.98 38.28L95.79 39.17L97.87 39.69Z" fill="#97CA51"/>
<path d="M133.94 71.82L131.78 72.6L132.12 73.96L134.11 73.09L133.4 75.31L134.41 75.66L134.79 73.73C134.79 73.73 134.7 73.14 134.48 72.21C134.26 71.27 134.07 70.81 134.07 70.81L132.72 69.6L132.28 70.65L133.94 71.82Z" fill="#FAAE17"/>
<path d="M97.6548 50.3655C97.7273 49.6567 97.1758 49.0198 96.4231 48.9429C95.6704 48.8659 95.0015 49.3781 94.929 50.0868C94.8566 50.7956 95.408 51.4325 96.1607 51.5094C96.9134 51.5864 97.5823 51.0742 97.6548 50.3655Z" fill="white"/>
<path d="M89.8602 56.2301L87.9502 54.4501L86.7002 55.7701L88.4502 57.5101C88.4502 57.5101 88.5102 57.4601 88.6002 57.3601C88.7102 57.2501 89.0002 56.9601 89.2402 56.7501C89.7102 56.3601 89.8602 56.2301 89.8602 56.2301Z" fill="#E24497"/>
<path d="M106.22 50.63L106.18 52.5L112.98 53.16L112.96 50.38L106.22 50.63Z" fill="#FAAE17"/>
<path d="M130.4 67.09C130.39 67.83 129.8 68.41 129.08 68.39C128.36 68.37 127.79 67.76 127.8 67.02C127.81 66.28 128.4 65.7 129.12 65.72C129.83 65.74 130.41 66.35 130.4 67.09Z" fill="white"/>
<path d="M98.8801 117.31C98.8801 117.31 97.8701 126.24 108.54 125.3C117.37 124.52 122.45 119.77 124.52 116.43C124.52 116.43 124.54 110.07 125.68 104.76C126.82 99.45 127.76 96.84 127.76 96.84C127.76 96.84 134.68 97.64 137.61 91.87C140.55 86.1 138.73 80.56 133.97 79.76C129.21 78.96 129.06 81.73 127.7 85C126.34 88.27 121.29 92.65 121.46 82.2C121.46 82.2 115.89 79.31 111.67 74.7C107.45 70.09 105.49 65.13 105.49 65.13C105.49 65.13 103.23 67.42 97.4901 70.17C90.0201 73.76 83.8001 73.05 83.1801 72.9C82.5601 72.75 79.2501 92.72 80.2101 102.77C81.4901 116 91.7901 118.22 98.8801 117.31Z" fill="#F498A8"/>
<path d="M84.4703 70.4101C83.2303 76.0501 82.7003 81.8501 82.1203 87.5901C81.5703 93.0101 81.1103 98.5901 81.9003 104.01C82.3303 106.93 83.1603 109.91 85.2403 112.1C86.8603 113.8 89.1703 114.7 91.4903 115.33C93.9403 116 96.4503 115.92 98.9503 115.59C102.43 115.13 105.85 114.24 109.14 113.01C110.83 112.38 112.01 114.93 110.32 115.57C102.44 118.52 91.5703 120.94 84.3303 115.05C81.8003 112.99 80.4003 110.09 79.6203 106.98C78.3403 101.83 78.5903 96.2701 78.9903 91.0301C79.5203 84.0701 80.1803 76.9401 81.6803 70.1101C82.0603 68.3601 84.8603 68.6401 84.4703 70.4101Z" fill="black"/>
<path d="M134.61 86.5801C134.54 86.6201 134.46 86.6501 134.39 86.6901C134.37 86.7001 134.14 86.8401 134.32 86.7301C134.2 86.8101 134.08 86.9001 133.96 86.9901C133.85 87.0801 133.74 87.1801 133.63 87.2901C133.49 87.4201 133.71 87.1801 133.57 87.3501C133.53 87.4001 133.48 87.4501 133.44 87.5001C133.35 87.6201 133.26 87.7401 133.18 87.8601C133.14 87.9301 133.1 88.0001 133.05 88.0701C132.94 88.2401 133.1 87.9501 133.01 88.1401C132.88 88.4101 132.76 88.6801 132.68 88.9701C132.66 89.0301 132.64 89.1001 132.62 89.1701C132.6 89.2401 132.61 89.2201 132.63 89.1301C132.62 89.1701 132.61 89.2101 132.61 89.2501C132.58 89.4001 132.56 89.5401 132.54 89.6901C132.52 89.8401 132.52 89.9901 132.51 90.1301C132.51 90.1701 132.51 90.2101 132.51 90.2501C132.51 90.1501 132.5 90.1301 132.51 90.2001C132.52 90.2701 132.52 90.3301 132.52 90.4001C132.55 90.6901 132.6 90.9901 132.68 91.2701C132.62 91.0601 132.69 91.2901 132.71 91.3301C132.74 91.4101 132.77 91.4801 132.8 91.5501C132.87 91.7001 132.94 91.8401 133.02 91.9801C133.27 92.4101 133 93.0501 132.56 93.2201C132.05 93.4301 131.58 93.2101 131.32 92.7601C129.74 90.0401 131.02 86.2101 133.82 84.8601C134.26 84.6501 134.88 84.8601 135.06 85.3201C135.26 85.8201 135.08 86.3501 134.61 86.5801Z" fill="black"/>
<path d="M95.65 93.85C95.66 93.19 95.89 92.53 96.07 91.9C96.26 91.21 96.47 90.53 96.69 89.85C97.12 88.48 97.59 87.12 98.08 85.77C98.4 84.88 99.78 85.41 99.45 86.3C98.71 88.34 98.01 90.41 97.42 92.5C97.29 92.95 97.1 93.45 97.11 93.93C97.12 94.2 97.24 94.65 97.49 94.8C97.73 94.94 98.11 94.86 98.34 94.75C98.67 94.59 98.81 94.3 98.9 93.95C99 93.57 99.51 93.4 99.85 93.53C99.99 93.58 100.08 93.67 100.16 93.78C100.31 93.89 100.42 94.05 100.47 94.26C100.48 94.32 100.5 94.39 100.52 94.45C100.53 94.48 100.53 94.48 100.53 94.49C100.53 94.5 100.53 94.49 100.54 94.51C100.58 94.62 100.62 94.72 100.67 94.83C100.69 94.88 100.72 94.93 100.75 94.98C100.76 95 100.76 94.99 100.76 95C100.76 95 100.76 95 100.77 95.01C100.84 95.1 100.91 95.19 100.99 95.27C101.01 95.29 101.03 95.3 101.05 95.32C101.09 95.35 101.14 95.38 101.18 95.41C101.05 95.31 101.16 95.4 101.21 95.42C101.25 95.44 101.29 95.45 101.33 95.46C101.34 95.46 101.45 95.48 101.47 95.48C101.48 95.48 101.5 95.48 101.51 95.48C101.52 95.48 101.51 95.48 101.52 95.48C101.59 95.46 101.67 95.46 101.74 95.44C101.76 95.44 101.76 95.44 101.76 95.44C101.77 95.44 101.77 95.43 101.79 95.42C101.85 95.39 101.91 95.37 101.97 95.34C102 95.33 102.05 95.29 102.06 95.28C102.1 95.25 102.14 95.22 102.18 95.19C102.19 95.18 102.2 95.18 102.2 95.17C102.32 95 102.45 94.84 102.55 94.66C102.56 94.63 102.58 94.6 102.59 94.59C102.61 94.54 102.64 94.49 102.66 94.45C102.71 94.34 102.77 94.23 102.82 94.11C102.9 93.92 102.98 93.72 103.05 93.52C103.17 93.15 103.65 92.94 104 93.1C104.38 93.27 104.55 93.66 104.42 94.05C104.23 94.61 103.97 95.17 103.66 95.67C103.28 96.28 102.73 96.7 102.03 96.88C101.26 97.08 100.48 96.83 99.91 96.29C99.74 96.13 99.61 95.94 99.49 95.75C98.98 96.18 98.3 96.42 97.59 96.36C96.34 96.23 95.64 95.01 95.65 93.85Z" fill="black"/>
<path d="M96.5103 124.42C97.7303 126.82 99.8903 128.85 102.41 129.83C104.39 130.59 106.68 130.59 108.76 130.4C113.32 129.97 118.34 128.46 121.67 125.18C122.51 124.35 123.66 125.77 122.83 126.59C119.07 130.29 113.2 132.01 108.04 132.28C105.67 132.4 103.19 132.26 101.03 131.23C98.3803 129.96 96.1803 127.82 94.8503 125.2C94.3103 124.13 95.9703 123.37 96.5103 124.42Z" fill="#006B83"/>
<path d="M86.3504 82.45C86.7104 81.04 88.1204 80.14 88.6204 79.96C89.7204 79.56 91.3204 79.2 93.3604 79.53C96.6904 80.08 97.3904 81.76 97.4804 82.63C97.5604 83.37 97.2704 84.7 96.1804 84.96C95.5904 85.1 94.5204 84.69 92.3104 84.56C90.2204 84.43 87.9004 84.98 87.2704 84.75C86.6304 84.52 86.0204 83.75 86.3504 82.45Z" fill="white"/>
<path d="M93.1104 84.04C90.8204 84.41 90.2404 80.86 92.5304 80.48C94.8204 80.11 95.4004 83.66 93.1104 84.04Z" fill="black"/>
<path d="M112.99 85.86C112.34 86.04 110.07 85.31 107.98 85.26C105.77 85.22 104.67 85.54 104.09 85.35C103.02 85 102.84 83.65 102.98 82.92C103.14 82.06 103.97 80.44 107.34 80.16C109.39 79.99 110.96 80.48 112.03 80.96C112.52 81.18 113.85 82.19 114.1 83.63C114.31 84.96 113.64 85.68 112.99 85.86Z" fill="white"/>
<path d="M109.54 84.8701C107.25 85.2401 106.67 81.6901 108.96 81.3101C111.25 80.9401 111.83 84.4901 109.54 84.8701Z" fill="black"/>
<path d="M127.76 96.8501C127.76 96.8501 134.68 97.6501 137.62 91.8701C140.56 86.0901 138.75 80.5401 133.98 79.7401C129.21 78.9401 129.06 81.7101 127.7 84.9901C127.05 86.5401 125.77 88.4801 124.59 88.6501L127.76 96.8501Z" fill="#F498A8"/>
<path d="M134.61 86.58C134.54 86.62 134.46 86.65 134.39 86.69C134.37 86.7 134.14 86.84 134.32 86.73C134.2 86.81 134.08 86.9 133.96 86.99C133.85 87.08 133.74 87.19 133.63 87.29C133.49 87.42 133.71 87.18 133.57 87.35C133.53 87.4 133.48 87.45 133.44 87.51C133.35 87.63 133.26 87.75 133.18 87.87C133.14 87.94 133.1 88.01 133.05 88.08C132.94 88.25 133.1 87.96 133.01 88.15C132.88 88.42 132.76 88.69 132.68 88.98C132.66 89.04 132.64 89.11 132.62 89.18C132.6 89.25 132.61 89.23 132.63 89.14C132.62 89.18 132.61 89.22 132.6 89.26C132.57 89.41 132.55 89.55 132.53 89.7C132.51 89.85 132.51 90 132.5 90.14C132.5 90.18 132.5 90.22 132.5 90.26C132.5 90.16 132.49 90.14 132.5 90.21C132.51 90.28 132.51 90.34 132.51 90.41C132.54 90.7 132.59 91 132.67 91.28C132.61 91.07 132.68 91.3 132.7 91.34C132.73 91.42 132.76 91.49 132.79 91.56C132.86 91.71 132.93 91.85 133.01 91.99C133.26 92.42 132.99 93.06 132.55 93.24C132.04 93.45 131.57 93.23 131.3 92.78C129.72 90.05 131 86.23 133.8 84.87C134.24 84.66 134.86 84.87 135.05 85.33C135.26 85.82 135.08 86.35 134.61 86.58Z" fill="black"/>
<path d="M107.17 73.4801C107.18 73.4901 107.37 73.7801 107.25 73.6001C107.13 73.4301 107.31 73.6801 107.34 73.7101C107.46 73.8501 107.58 73.9901 107.72 74.1201C107.84 74.2401 107.97 74.3501 108.09 74.4601C108.2 74.5601 108.27 74.6001 108.11 74.4801C108.19 74.5401 108.26 74.6001 108.34 74.6501C108.64 74.8701 108.96 75.0601 109.29 75.2301C109.47 75.3201 109.65 75.4101 109.83 75.4901C109.64 75.4101 109.74 75.4501 109.87 75.5001C109.96 75.5401 110.06 75.5701 110.15 75.6101C110.51 75.7401 110.88 75.8501 111.25 75.9301C111.44 75.9801 111.64 76.0101 111.84 76.0501C112.06 76.0901 111.49 76.0101 111.87 76.0501C111.95 76.0601 112.03 76.0701 112.1 76.0701C112.48 76.1101 112.87 76.1201 113.25 76.1001C113.33 76.1001 113.4 76.0901 113.48 76.0901C113.84 76.0701 113.28 76.1301 113.48 76.0901C113.68 76.0501 113.87 76.0301 114.07 75.9801C114.81 75.8101 115.68 76.2301 115.84 77.0201C116 77.7701 115.59 78.6101 114.8 78.7901C111.13 79.6301 106.75 78.0601 104.64 74.9001C104.22 74.2701 104.52 73.2601 105.19 72.9201C105.94 72.5501 106.72 72.8001 107.17 73.4801Z" fill="black"/>
<path d="M87.6903 72.06C87.8103 72.22 87.9503 72.37 88.0803 72.52C88.1803 72.63 88.1603 72.61 88.0703 72.52C88.1403 72.59 88.2203 72.66 88.3003 72.72C88.6003 72.97 88.9203 73.17 89.2503 73.39C89.0003 73.23 89.2403 73.38 89.3003 73.41C89.3903 73.46 89.4803 73.5 89.5803 73.54C89.7703 73.63 89.9603 73.7 90.1603 73.77C90.3403 73.83 90.5103 73.89 90.6903 73.94C90.8303 73.98 90.9403 74 90.7303 73.95C90.8303 73.97 90.9303 73.99 91.0403 74.01C91.4303 74.08 91.8203 74.12 92.2103 74.13C92.2903 74.13 92.3703 74.13 92.4603 74.13C92.1403 74.12 92.4303 74.13 92.5003 74.12C92.7003 74.1 92.9003 74.08 93.1103 74.05C93.2903 74.02 93.4703 73.99 93.6403 73.94C93.6403 73.94 94.0003 73.83 93.8103 73.9C93.6203 73.96 93.9303 73.85 93.9703 73.84C94.1603 73.77 94.3403 73.69 94.5203 73.6C94.5903 73.56 94.6603 73.53 94.7303 73.49C95.0703 73.31 94.4903 73.65 94.8203 73.43C95.4503 73.01 96.3703 72.97 96.8603 73.64C97.3003 74.22 97.3203 75.23 96.6503 75.68C93.1903 78.02 88.0403 77.18 85.4503 73.89C84.9803 73.29 85.0203 72.32 85.6603 71.85C86.2703 71.39 87.1903 71.42 87.6903 72.06Z" fill="black"/>
<path d="M100.17 102.97C100.31 103.04 100.44 103.12 100.57 103.21C100.6 103.23 100.63 103.26 100.66 103.28C100.58 103.22 100.58 103.22 100.64 103.27C100.7 103.32 100.76 103.37 100.81 103.43C100.87 103.48 100.92 103.54 100.97 103.6C101.02 103.67 101.02 103.66 100.96 103.58C100.98 103.61 101.01 103.64 101.03 103.67C101.07 103.73 101.11 103.8 101.15 103.87C101.17 103.9 101.19 103.94 101.2 103.97C101.24 104.05 101.23 104.04 101.19 103.95C101.23 104 101.24 104.11 101.26 104.17C101.27 104.21 101.34 104.46 101.29 104.26C101.31 104.33 101.3 104.42 101.3 104.49C101.3 104.53 101.3 104.57 101.3 104.61C101.29 104.7 101.29 104.69 101.31 104.58C101.31 104.65 101.28 104.74 101.26 104.81C101.25 104.85 101.24 104.88 101.22 104.92C101.26 104.83 101.26 104.82 101.23 104.9C101.21 104.94 101.16 105.07 101.12 105.09C101.19 105.01 101.19 104.99 101.14 105.06C101.12 105.09 101.09 105.11 101.07 105.13C101.04 105.15 101.02 105.18 100.99 105.2C101.08 105.14 101.09 105.13 101.02 105.17C100.96 105.2 100.9 105.24 100.84 105.27C100.76 105.3 100.78 105.3 100.88 105.25C100.85 105.26 100.81 105.27 100.78 105.28C100.75 105.29 100.71 105.3 100.68 105.3C100.6 105.31 100.61 105.31 100.73 105.3C100.73 105.31 100.53 105.3 100.53 105.3C100.65 105.32 100.66 105.32 100.58 105.31C100.55 105.3 100.51 105.29 100.48 105.28C100.4 105.25 100.41 105.26 100.51 105.3C100.48 105.28 100.45 105.27 100.41 105.25C100.34 105.2 100.35 105.21 100.44 105.27C100.38 105.21 100.39 105.22 100.46 105.3C100.42 105.23 100.42 105.24 100.46 105.34C100.45 105.31 100.44 105.27 100.43 105.24C100.44 105.35 100.44 105.37 100.44 105.28C100.44 105.19 100.44 105.21 100.43 105.32C100.44 105.28 100.45 105.25 100.46 105.22C100.41 105.32 100.41 105.33 100.45 105.26C100.5 105.19 100.49 105.2 100.42 105.28C100.44 105.25 100.47 105.23 100.49 105.2C100.55 105.15 100.54 105.15 100.46 105.22C100.49 105.2 100.52 105.18 100.55 105.17C100.46 105.21 100.45 105.21 100.53 105.19C100.47 105.21 100.41 105.21 100.35 105.2C100.25 105.16 100.24 105.15 100.31 105.2C100.23 105.14 100.22 105.13 100.28 105.19C100.31 105.22 100.33 105.24 100.36 105.27C100.58 105.53 100.64 105.26 100.54 104.44C100.67 104.41 100.8 104.37 100.92 104.34C100.96 104.35 101 104.35 101.04 104.36C100.67 104.22 100.19 104.51 100.1 104.89C100 105.32 100.23 105.68 100.63 105.83C101.01 105.97 101.45 105.76 101.65 105.42C101.88 105.03 101.75 104.59 101.48 104.26C101.13 103.84 100.58 103.58 100.03 103.76C98.9601 104.12 98.4901 105.55 99.3501 106.37C100.02 107.02 101.14 106.97 101.86 106.44C102.67 105.84 102.96 104.84 102.75 103.87C102.54 102.9 101.77 102.12 100.92 101.66C100.57 101.47 100.07 101.56 99.8801 101.93C99.7101 102.29 99.7901 102.77 100.17 102.97Z" fill="black"/>
<path d="M102.71 108.14C102.57 108.23 102.42 108.3 102.27 108.37C102.19 108.41 102.19 108.4 102.28 108.37C102.25 108.38 102.22 108.39 102.19 108.4C102.12 108.43 102.05 108.45 101.98 108.47C101.82 108.52 101.66 108.57 101.5 108.6C101.44 108.61 101.38 108.63 101.32 108.64C101.28 108.65 101.24 108.65 101.2 108.66C101.3 108.65 101.3 108.65 101.22 108.66C100.91 108.69 100.6 108.7 100.28 108.67C100.21 108.66 100.1 108.65 100.23 108.67C100.15 108.66 100.06 108.64 99.9799 108.63C99.8199 108.6 99.6499 108.55 99.4899 108.5C99.1099 108.38 98.6399 108.64 98.5499 109.03C98.4599 109.44 98.6699 109.84 99.0799 109.97C100.53 110.42 102.16 110.22 103.47 109.44C103.81 109.24 103.97 108.75 103.74 108.4C103.53 108.07 103.08 107.92 102.71 108.14Z" fill="black"/>
<path d="M71.8498 67.39C68.3598 67.63 64.8998 68.23 61.5698 69.28C58.8898 70.13 55.4398 71.2 54.1998 73.99C52.9898 76.7 54.3798 79.68 56.5098 81.48C58.9098 83.51 61.9998 84.63 64.9398 85.61C68.6998 86.85 72.5698 87.66 76.4898 88.14C78.0898 88.33 78.0698 85.83 76.4898 85.64C72.7898 85.19 69.1398 84.37 65.5998 83.2C62.6698 82.23 58.7898 81.05 56.9798 78.33C56.2398 77.23 55.9098 75.75 56.7098 74.58C57.6298 73.24 59.5298 72.62 60.9798 72.11C64.4898 70.88 68.1398 70.15 71.8498 69.89C73.4498 69.79 73.4598 67.28 71.8498 67.39Z" fill="white"/>
<path d="M147.02 95.04C150.77 95.43 154.58 95.38 158.33 95C161.61 94.67 164.99 94.15 168.07 92.92C170.86 91.81 173.68 89.86 174.36 86.75C174.75 84.98 174.55 83.27 173.44 81.8C172.19 80.14 170.25 79.33 168.34 78.67C166.81 78.14 166.16 80.56 167.67 81.09C169.26 81.64 171.3 82.38 171.91 84.13C172.3 85.27 171.93 86.72 171.27 87.69C169.84 89.8 167.11 90.74 164.76 91.37C159.06 92.89 152.87 93.14 147.02 92.54C145.42 92.37 145.43 94.87 147.02 95.04Z" fill="white"/>
<path fill-rule="evenodd" clip-rule="evenodd" d="M62.8601 103.42C62.8601 103.42 61.2201 94.4299 53.2301 88.5499C52.6401 88.0599 52.0301 87.5699 51.3801 87.0899C35.7401 75.6099 7.92009 88.6599 11.0201 112.55C14.1001 136.42 48.9001 143.8 61.2401 119.03C61.8601 117.79 62.5001 116.03 62.9301 113.93C65.4701 113.39 69.0901 111.75 70.9401 106.9C71.3301 105.87 70.4701 104.8 69.3901 104.97C66.7101 105.37 62.8601 103.42 62.8601 103.42Z" fill="white"/>
<path fill-rule="evenodd" clip-rule="evenodd" d="M49.1801 119.41L22.6201 119.15C21.4301 119.14 20.4701 118.16 20.4801 116.97L20.6401 100.32C20.6501 99.13 21.6301 98.17 22.8201 98.18L49.3801 98.44C50.5701 98.45 51.5301 99.43 51.5201 100.62L51.3601 117.27C51.3501 118.47 50.3701 119.43 49.1801 119.41Z" fill="#FFC41E"/>
<path fill-rule="evenodd" clip-rule="evenodd" d="M46.7498 116.44L44.1798 116.42C43.2298 116.41 42.4598 115.63 42.4698 114.68V114.6C42.4798 113.65 43.2598 112.88 44.2098 112.89L46.7798 112.91C47.7298 112.92 48.4998 113.7 48.4898 114.65V114.73C48.4798 115.68 47.6998 116.44 46.7498 116.44Z" fill="#EF9A20"/>
<path fill-rule="evenodd" clip-rule="evenodd" d="M37.1001 111.33L24.1601 111.21C23.6901 111.21 23.3101 110.82 23.3101 110.34C23.3101 109.87 23.7001 109.49 24.1801 109.49L37.1201 109.61C37.5901 109.61 37.9701 110 37.9701 110.48C37.9601 110.96 37.5701 111.34 37.1001 111.33Z" fill="#EF9A20"/>
<path fill-rule="evenodd" clip-rule="evenodd" d="M20.5801 106.94L51.4601 107.24L51.5101 102.14L20.6301 101.84L20.5801 106.94Z" fill="#EE8722"/>
</g>
<defs>
<clipPath id="clip0_520_7021">
<rect width="200" height="200" fill="white"/>
</clipPath>
</defs>
</svg>
