<svg width="200" height="200" viewBox="0 0 200 200" fill="none" xmlns="http://www.w3.org/2000/svg">
<g clip-path="url(#clip0_520_7019)">
<path d="M100 200C155.228 200 200 155.228 200 100C200 44.7715 155.228 0 100 0C44.7715 0 0 44.7715 0 100C0 155.228 44.7715 200 100 200Z" fill="#A4E8F4"/>
<path d="M133.63 174.77C133.63 174.77 132.39 160.5 131.46 153.29C130.53 146.08 126.6 132.6 115.13 124.6C104.97 117.51 90.4502 109.86 62.4002 111.57C36.7902 113.13 28.7002 129.59 26.0902 134.51C21.8002 142.58 19.0202 149.95 17.2202 156.12C35.2102 182.6 65.5702 200 100 200C111.83 200 123.17 197.94 133.7 194.17C135.19 184.56 133.63 174.77 133.63 174.77Z" fill="#802A84"/>
<path d="M37.77 164.06C37.13 167.24 36.59 170.44 36.14 173.65C36.08 174.1 36.25 174.56 36.73 174.69C37.13 174.8 37.7 174.55 37.77 174.1C38.22 170.89 38.77 167.69 39.4 164.51C39.61 163.44 37.99 162.99 37.77 164.06Z" fill="black"/>
<path d="M115.29 179.24L116.43 198.25L132.79 188.74V175.63L115.29 179.24Z" fill="#B86C51"/>
<path d="M159.14 139.11C159.14 139.11 161.45 140.36 167.27 139.81C172.15 139.35 174.63 135.08 174.63 135.08C178.58 135.85 180.36 130.9 180.36 130.9C182.68 131.37 186.09 129.74 187.1 128.34C188.11 126.95 190.05 124.91 191.28 123.3C192.83 121.29 191.2 119.35 191.2 119.35C191.2 119.35 193.37 115.79 190.43 114.55C186.72 112.99 179.58 119.66 178.19 119.9C176.8 120.13 167.74 120.18 167.74 120.18C172.63 114.64 171.47 109.23 167.87 108.98C164.94 108.77 164.91 112.71 162.33 115.16C160.61 116.79 156.19 116.45 151.55 120.7C147.69 124.23 143.92 134.79 142.54 138.46L132.13 162.62L115.27 198.84C126.93 197.05 137.92 193.25 147.89 187.8C152.19 170.69 158.19 144.13 158.19 144.13L159.14 139.11Z" fill="#CF806F"/>
<path d="M165.9 120.26C165.73 120.7 165.4 121.3 165.04 121.79C164.96 121.9 165.04 121.8 164.99 121.86C164.94 121.92 164.9 121.97 164.85 122.03C164.75 122.15 164.64 122.27 164.53 122.38C164.31 122.61 164.07 122.82 163.83 123.02C163.77 123.07 163.87 122.99 163.76 123.07C163.69 123.12 163.62 123.17 163.55 123.22C163.43 123.3 163.31 123.38 163.19 123.45C162.92 123.61 162.64 123.76 162.35 123.88C162.45 123.84 162.31 123.89 162.27 123.91C162.2 123.94 162.14 123.96 162.07 123.98C161.91 124.04 161.74 124.09 161.58 124.13C161.44 124.17 161.3 124.2 161.16 124.23C161.08 124.25 160.99 124.26 160.91 124.28C160.73 124.31 160.99 124.27 160.79 124.3C160.34 124.35 159.95 124.65 159.95 125.14C159.95 125.55 160.34 126.04 160.79 125.98C163.84 125.62 166.46 123.59 167.54 120.7C167.7 120.27 167.36 119.77 166.95 119.66C166.46 119.54 166.06 119.83 165.9 120.26Z" fill="black"/>
<path d="M161.32 130.27C163.68 130.21 165.97 130.91 167.89 132.28C168.26 132.54 168.83 132.35 169.05 131.98C169.3 131.56 169.12 131.09 168.75 130.82C166.6 129.3 163.96 128.51 161.33 128.58C160.23 128.61 160.23 130.3 161.32 130.27Z" fill="black"/>
<path d="M169.1 133.59C169.39 132.12 169.87 130.69 170.45 129.3C170.92 128.2 171.47 126.98 172.47 126.25C173.18 125.74 174.36 125.49 175.09 126.09C176.07 126.89 175.46 128.48 175.11 129.43C174.48 131.14 174.05 132.86 173.86 134.67C173.81 135.12 174.28 135.51 174.7 135.51C175.2 135.51 175.5 135.12 175.54 134.67C175.73 132.86 176.27 131.2 176.87 129.49C177.39 128 177.58 126.08 176.28 124.91C175.25 123.99 173.71 123.85 172.45 124.35C171 124.93 170.03 126.23 169.36 127.6C168.51 129.35 167.83 131.23 167.45 133.14C167.36 133.59 167.58 134.05 168.04 134.18C168.48 134.29 169.01 134.03 169.1 133.59Z" fill="black"/>
<path d="M176.53 125.4C177.17 124.24 178.08 123.26 179.24 122.6C180.15 122.08 181.87 121.59 182.51 122.8C183.1 123.92 182.05 125.42 181.51 126.35C180.77 127.6 180 128.84 179.61 130.25C179.32 131.3 180.95 131.75 181.24 130.7C181.59 129.43 182.31 128.33 182.97 127.2C183.64 126.06 184.38 124.79 184.36 123.43C184.34 122.03 183.42 120.92 182.1 120.51C180.74 120.09 179.29 120.57 178.13 121.3C176.86 122.1 175.81 123.23 175.09 124.55C174.55 125.5 176.01 126.35 176.53 125.4Z" fill="black"/>
<path d="M184.28 122.88C185.12 121.82 186.04 120.65 187.3 120.09C188.36 119.62 189.72 119.4 190.6 120.33C191.35 121.12 192.54 119.93 191.79 119.14C190.53 117.81 188.59 117.78 186.98 118.41C185.32 119.05 184.16 120.32 183.08 121.69C182.8 122.05 182.73 122.54 183.08 122.88C183.38 123.18 184 123.24 184.28 122.88Z" fill="black"/>
<path d="M155.79 138.06C157.15 139.24 158.83 139.93 160.62 140.04C161.06 140.07 161.48 139.63 161.46 139.2C161.44 138.72 161.09 138.39 160.62 138.36C160.53 138.35 160.43 138.35 160.34 138.34C160.29 138.34 160.25 138.33 160.2 138.32C160.31 138.34 160.31 138.34 160.21 138.32C160.02 138.29 159.84 138.26 159.66 138.21C159.3 138.13 158.96 138.01 158.62 137.88C158.56 137.86 158.58 137.86 158.66 137.9C158.62 137.88 158.57 137.86 158.53 137.84C158.44 137.8 158.36 137.76 158.28 137.72C158.11 137.64 157.95 137.54 157.79 137.45C157.63 137.35 157.47 137.25 157.32 137.14C157.28 137.11 157.24 137.08 157.21 137.06C157.29 137.12 157.29 137.12 157.21 137.06C157.14 137 157.06 136.94 156.99 136.88C156.66 136.59 156.12 136.53 155.8 136.88C155.5 137.19 155.43 137.75 155.79 138.06Z" fill="black"/>
<path d="M113.46 165.56C113.5 168.17 113.54 170.78 113.58 173.39C113.6 174.48 115.29 174.48 115.27 173.39C115.23 170.78 115.19 168.17 115.15 165.56C115.14 164.47 113.45 164.47 113.46 165.56Z" fill="black"/>
<path d="M55.3601 66.52C55.3601 66.52 53.8801 62.29 50.8201 60.18C46.1601 56.96 38.8901 55.56 32.3801 62.34C27.0401 67.91 28.1801 80.92 35.0001 99.19C38.9101 109.67 36.1101 118.75 36.1101 118.75C36.1101 118.75 48.1501 114.38 52.9101 101.57C55.5701 94.37 55.3601 66.52 55.3601 66.52Z" fill="black"/>
<path d="M104.78 67.38C104.78 67.38 109.92 93.71 104.96 104.64C100 115.57 93.9302 121.32 75.1502 118.77C63.3302 117.16 58.2502 114.66 58.2502 114.66L57.7402 104.79L59.4602 70.93L85.7902 59.27L104.78 67.38Z" fill="#CF806F"/>
<path d="M58.0101 101.25L56.6201 116.41C56.6201 116.41 57.6001 124.81 68.2101 129.57C69.3401 130.08 70.4401 130.51 71.4901 130.89C78.8301 133.48 86.7801 129 87.3301 121.97L88.3501 109L58.0101 101.25Z" fill="#CF806F"/>
<path d="M59.3602 73.23C59.3602 73.23 74.3402 70.52 80.5102 65.87C85.9202 61.8 86.4502 60.57 86.4502 60.57C86.4502 60.57 97.8702 71.2 107.9 66.86C112.51 64.86 112.99 61.35 112.99 61.35C112.99 61.35 105.6 57.66 102.72 53.99C96.4402 45.98 85.7102 40.11 72.7202 43.14C49.6202 48.54 47.9402 66.64 47.9402 66.64C47.9402 66.64 40.7302 69.02 42.4502 82.6C44.7402 100.66 57.7302 104.78 57.7302 104.78L59.3602 73.23Z" fill="black"/>
<path d="M61.0901 87.32C61.0901 87.32 60.3601 85.43 58.6301 84.04C57.1001 82.82 54.7401 82.01 52.0701 83.13C46.5501 85.46 47.6901 91.82 50.6201 95.76C53.5501 99.7 60.2901 97.89 60.2901 97.89L61.0901 87.32Z" fill="#CF806F"/>
<path d="M67.1901 65.9099C67.1901 65.9099 70.1201 88.0999 66.9701 89.6199C63.7201 91.1899 61.0801 87.3199 61.0801 87.3199C61.0801 87.3199 59.9801 84.6999 57.8501 83.5099L57.8801 69.9099L67.1901 65.9099Z" fill="black"/>
<path d="M101.92 78.9499C102.78 77.8399 102.21 74.0599 96.9702 75.0999C93.1602 75.8599 91.7602 77.5299 92.5602 79.8999C93.2002 81.7999 95.9302 80.7599 97.9302 80.3199C99.9002 79.8799 101.13 79.9599 101.92 78.9499Z" fill="white"/>
<path d="M74.0203 84.24C73.0603 83.64 72.3803 79.68 77.8603 78.81C81.8403 78.18 84.5003 79.44 83.8103 82.3C83.3903 84.03 81.2403 83.86 79.1403 84.15C77.0603 84.43 75.5303 85.18 74.0203 84.24Z" fill="white"/>
<path d="M105.82 64.07C106.57 69.39 107.19 74.74 107.7 80.09C108.45 87.95 109.68 96.5 107.08 104.13C105.12 109.87 101.08 116.17 95.4099 118.84C87.1999 122.71 76.8199 121.16 68.3399 119.11C66.2799 118.61 67.3699 115.5 69.4199 115.99C77.2899 117.89 88.8299 119.84 95.9199 114.76C101.43 110.82 104.79 103.28 105.25 96.71C105.99 86.22 104.05 75.13 102.6 64.75C102.3 62.65 105.53 61.96 105.82 64.07Z" fill="black"/>
<path d="M76.9402 95.7C76.9402 95.84 76.9402 95.98 76.9302 96.12C76.9202 96.19 76.8602 96.33 76.9302 96.14C76.9102 96.19 76.9102 96.26 76.9002 96.32C76.8702 96.46 76.8402 96.59 76.8002 96.73C76.7702 96.84 76.6902 96.96 76.6802 97.07C76.7302 96.96 76.7302 96.95 76.6902 97.03C76.6802 97.05 76.6702 97.07 76.6602 97.08C76.6302 97.14 76.6002 97.21 76.5602 97.27C76.5002 97.39 76.4302 97.5 76.3602 97.61C76.3302 97.66 76.2902 97.71 76.2602 97.76C76.2402 97.79 76.2102 97.83 76.1902 97.86C76.2502 97.78 76.2702 97.76 76.2302 97.81C76.1402 97.91 76.0602 98.01 75.9702 98.11C75.8902 98.2 75.8002 98.28 75.7102 98.36C75.6602 98.41 75.6002 98.45 75.5502 98.5C75.5002 98.54 75.5202 98.53 75.6002 98.46C75.5702 98.48 75.5402 98.51 75.5002 98.53C75.2902 98.68 75.0602 98.82 74.8202 98.93C74.8002 98.94 74.7802 98.95 74.7702 98.96C74.6902 99 74.7002 98.99 74.8102 98.95C74.7702 98.95 74.6802 99 74.6402 99.01C74.5102 99.06 74.3702 99.1 74.2402 99.13C74.1802 99.14 74.1202 99.16 74.0602 99.17C73.9902 99.18 73.8602 99.25 74.0502 99.18C73.9302 99.22 73.7502 99.21 73.6302 99.21C73.1902 99.22 72.7702 99.59 72.7902 100.05C72.8102 100.5 73.1602 100.9 73.6302 100.89C76.3202 100.85 78.7002 98.43 78.6402 95.72C78.6302 95.28 78.2602 94.86 77.8002 94.88C77.3302 94.88 76.9302 95.23 76.9402 95.7Z" fill="black"/>
<path d="M81.2702 107.33C82.8702 108.46 85.0702 108.54 86.7802 107.63C87.1702 107.42 87.3202 106.85 87.0802 106.48C86.8202 106.08 86.3402 105.96 85.9302 106.18C85.8502 106.22 85.7602 106.27 85.6702 106.31C85.5902 106.35 85.6002 106.33 85.6702 106.31C85.6302 106.33 85.5802 106.34 85.5402 106.36C85.3602 106.42 85.1802 106.48 84.9902 106.51C84.9002 106.53 84.8002 106.55 84.7102 106.56C84.8902 106.53 84.6402 106.56 84.5802 106.57C84.3802 106.58 84.1802 106.58 83.9702 106.57C83.9202 106.57 83.8802 106.56 83.8302 106.56C83.8102 106.56 83.6602 106.54 83.7602 106.55C83.8702 106.56 83.7102 106.54 83.7002 106.54C83.6502 106.53 83.6102 106.52 83.5602 106.51C83.3702 106.47 83.1902 106.42 83.0102 106.36C82.9702 106.34 82.9202 106.33 82.8802 106.31C82.8602 106.3 82.7202 106.24 82.8202 106.29C82.9102 106.33 82.7702 106.27 82.7602 106.26C82.7202 106.24 82.6702 106.22 82.6302 106.2C82.4502 106.11 82.2802 106 82.1102 105.88C81.7502 105.62 81.1602 105.8 80.9602 106.18C80.7402 106.61 80.8802 107.06 81.2702 107.33Z" fill="black"/>
<path d="M76.7903 100.07C80.2903 104.14 86.0303 105.31 90.9103 103.17C91.9003 102.74 91.0403 101.28 90.0603 101.71C85.8503 103.56 80.9503 102.33 77.9803 98.8699C77.2703 98.0599 76.0903 99.2499 76.7903 100.07Z" fill="black"/>
<path d="M82.5601 71.1099C78.6101 69.8599 74.1201 71.5999 71.9001 75.0499C71.4201 75.7899 71.7201 76.9399 72.5001 77.3599C73.3401 77.7999 74.3001 77.5499 74.8101 76.7599C74.8601 76.6699 74.9201 76.5899 74.9801 76.5099C75.0001 76.4799 75.0301 76.4399 75.0501 76.4099C75.1201 76.3099 75.1001 76.3399 74.9701 76.5099C75.0701 76.4899 75.2501 76.1799 75.3301 76.0899C75.4701 75.9399 75.6101 75.7999 75.7601 75.6599C75.8301 75.5899 76.1701 75.3899 76.1801 75.3099C76.0101 75.4399 75.9801 75.4599 76.0801 75.3899C76.1101 75.3699 76.1501 75.3399 76.1801 75.3199C76.2601 75.2599 76.3501 75.1999 76.4301 75.1499C76.6001 75.0399 76.7801 74.9399 76.9501 74.8399C77.1101 74.7499 77.2701 74.6699 77.4401 74.5899C77.6601 74.4899 77.5701 74.4799 77.4301 74.5899C77.5001 74.5299 77.6301 74.5099 77.7201 74.4799C78.0801 74.3499 78.4601 74.2499 78.8401 74.1699C78.9201 74.1499 79.0001 74.1399 79.0801 74.1299C79.4801 74.0599 78.8201 74.1499 79.0501 74.1299C79.2501 74.1099 79.4501 74.0899 79.6601 74.0899C80.0001 74.0799 80.4901 74.0299 80.8101 74.1399C80.6401 74.0799 80.5401 74.0999 80.7801 74.1399C80.8801 74.1599 80.9801 74.1799 81.0801 74.1999C81.2801 74.2499 81.4701 74.2999 81.6701 74.3599C82.5101 74.6299 83.5501 74.0499 83.7401 73.1799C83.9401 72.2599 83.4601 71.3899 82.5601 71.1099Z" fill="black"/>
<path d="M94.16 72.1199C94.42 71.9299 94.68 71.7599 94.97 71.6199C95.05 71.5799 95.14 71.5399 95.22 71.4999C95.43 71.3999 95.2 71.5299 95.13 71.5399C95.28 71.5299 95.46 71.4199 95.61 71.3799C95.91 71.2899 96.23 71.2599 96.54 71.1699C96.46 71.1899 96.19 71.2099 96.43 71.1899C96.52 71.1799 96.62 71.1699 96.71 71.1699C96.88 71.1599 97.05 71.1599 97.21 71.1599C97.36 71.1599 97.51 71.1699 97.66 71.1799C97.72 71.1899 98.05 71.2199 97.77 71.1899C97.51 71.1599 97.77 71.1899 97.82 71.1999C98.13 71.2599 98.44 71.3399 98.74 71.4399C98.83 71.4699 98.91 71.5099 99 71.5399C99.21 71.6099 98.71 71.3999 98.91 71.4999C99.06 71.5699 99.21 71.6399 99.36 71.7199C99.49 71.7899 99.62 71.8699 99.74 71.9499C99.82 71.9999 99.89 72.0599 99.97 72.1099C100.15 72.2299 99.65 71.8499 99.94 72.0899C100.62 72.6499 101.67 72.7999 102.32 72.0899C102.89 71.4699 103.05 70.3099 102.32 69.7099C100.89 68.5299 99.18 67.8599 97.32 67.7899C95.63 67.7299 93.84 68.2099 92.47 69.2099C91.76 69.7299 91.34 70.6999 91.87 71.5199C92.3 72.2199 93.4 72.6799 94.16 72.1199Z" fill="black"/>
<path d="M81.6902 83.87C83.8602 83.87 83.8602 80.5 81.6902 80.5C79.5302 80.5 79.5202 83.87 81.6902 83.87Z" fill="black"/>
<path d="M99.8502 80.0399C102.02 80.0399 102.02 76.6699 99.8502 76.6699C97.6802 76.6699 97.6802 80.0399 99.8502 80.0399Z" fill="black"/>
<path d="M53.8703 89.15C53.9303 89.12 54.0003 89.1 54.0703 89.08C54.1103 89.07 54.1603 89.06 54.2103 89.05C54.1103 89.06 54.1003 89.07 54.1603 89.06C54.2303 89.06 54.3003 89.06 54.3703 89.06C54.5903 89.07 54.3103 89.03 54.4703 89.07C54.5403 89.09 54.6103 89.1 54.6803 89.13C54.7203 89.14 54.9203 89.22 54.7603 89.15C54.9003 89.21 55.0203 89.29 55.1503 89.37C55.3103 89.47 55.0903 89.29 55.2103 89.42C55.2603 89.47 55.3103 89.52 55.3603 89.57C55.4903 89.69 55.3203 89.49 55.4103 89.63C55.4603 89.7 55.5003 89.78 55.5503 89.85C55.5603 89.87 55.6603 90.07 55.6203 89.99C55.5903 89.91 55.6703 90.15 55.6803 90.18C55.7203 90.33 55.7603 90.48 55.7803 90.63C55.7503 90.44 55.7803 90.69 55.7803 90.71C55.7803 90.79 55.7903 90.86 55.7803 90.94C55.7803 91.01 55.7703 91.09 55.7703 91.16C55.7603 91.36 55.8103 91.05 55.7603 91.22C55.7403 91.3 55.7203 91.38 55.6903 91.46C55.6803 91.49 55.6703 91.53 55.6503 91.56C55.6803 91.48 55.6903 91.47 55.6603 91.53C55.5703 91.67 55.5003 91.82 55.4003 91.95C55.4803 91.83 55.3603 92 55.3403 92.02C55.2903 92.08 55.2303 92.14 55.1803 92.19C55.1203 92.24 55.0703 92.3 55.0103 92.35C54.8303 92.51 55.1303 92.28 54.9303 92.41C54.8003 92.49 54.6803 92.57 54.5403 92.63C54.7103 92.55 54.4703 92.64 54.4403 92.66C54.3603 92.68 54.2803 92.7 54.2003 92.71C53.7603 92.78 53.4803 93.35 53.6103 93.75C53.7603 94.23 54.1803 94.41 54.6503 94.34C55.5603 94.2 56.3503 93.54 56.8703 92.81C57.4303 92.04 57.5603 91.12 57.4103 90.2C57.2603 89.28 56.7803 88.47 56.0103 87.94C55.3003 87.45 54.2603 87.22 53.4403 87.55C53.0303 87.71 52.7003 88.12 52.8503 88.59C52.9603 88.96 53.4303 89.33 53.8703 89.15Z" fill="black"/>
<path d="M83.0299 90.0799C83.5399 91.3999 84.3399 92.9299 85.8499 93.2699C86.7299 93.4599 87.6499 93.2399 88.2799 92.5799C88.8099 92.0299 89.1199 91.2799 89.2399 90.5299C89.3099 90.0999 89.1299 89.5999 88.6499 89.4899C88.2499 89.3999 87.6899 89.6099 87.6099 90.0799C87.5599 90.3599 87.4799 90.6199 87.3999 90.8899C87.4599 90.6999 87.3999 90.8899 87.3799 90.9299C87.3499 90.9899 87.3199 91.0399 87.2899 91.0999C87.2499 91.1599 87.2099 91.2199 87.1699 91.2899C87.1299 91.3399 87.1499 91.3299 87.2099 91.2499C87.1899 91.2699 87.1699 91.2999 87.1499 91.3199C87.0999 91.3699 87.0499 91.4199 86.9999 91.4699C86.8899 91.5899 87.13 91.3999 86.98 91.4899C86.93 91.5199 86.8699 91.5499 86.8199 91.5899C86.6699 91.6799 86.9499 91.5599 86.7799 91.6099C86.7599 91.6199 86.4999 91.6699 86.6099 91.6599C86.7199 91.6399 86.4999 91.6599 86.4699 91.6599C86.4199 91.6599 86.18 91.6199 86.37 91.6599C86.3 91.6399 86.23 91.6299 86.16 91.6099C86.14 91.5999 85.9199 91.5199 86.0899 91.5899C86.0199 91.5599 85.9599 91.5299 85.8899 91.4899C85.8399 91.4599 85.7399 91.4199 85.6999 91.3699C85.7899 91.4399 85.7999 91.4499 85.7399 91.3999C85.7199 91.3799 85.6999 91.3699 85.6899 91.3499C85.6099 91.2699 85.5099 91.1799 85.4499 91.0799C85.5599 91.2599 85.4599 91.0899 85.4399 91.0499C85.3999 90.9999 85.3699 90.9399 85.3299 90.8899C85.1699 90.6499 85.0299 90.3999 84.8999 90.1399C84.8399 90.0299 84.7899 89.9199 84.7399 89.8099C84.7299 89.7899 84.6899 89.6599 84.6699 89.6599C84.7199 89.7799 84.7299 89.7999 84.6999 89.7199C84.6899 89.6899 84.6799 89.6599 84.6699 89.6299C84.5099 89.2199 84.0999 88.8899 83.6299 89.0399C83.2199 89.1699 82.8599 89.6399 83.0299 90.0799Z" fill="black"/>
<path d="M87.79 90.35C88.22 91.68 89.4 92.54 90.82 92.43C92.25 92.32 93.14 91.01 93.09 89.62C93.07 88.81 92.75 88.03 92.49 87.27C92.23 86.51 91.95 85.75 91.67 84.99C91.07 83.41 90.43 81.84 89.77 80.29C89.59 79.87 88.97 79.78 88.62 79.99C88.19 80.25 88.14 80.72 88.32 81.14C89.28 83.39 90.18 85.66 90.97 87.98C91.2 88.67 91.85 90.06 91.06 90.66C90.82 90.84 90.37 90.78 90.11 90.68C89.75 90.54 89.54 90.27 89.42 89.91C89.08 88.87 87.45 89.31 87.79 90.35Z" fill="black"/>
<path fill-rule="evenodd" clip-rule="evenodd" d="M122.61 85.0199C122.61 85.0199 116.8 78.1799 117.31 68.4499C117.3 67.6999 117.31 66.9299 117.36 66.1299C118.38 47.1099 145.6 34.0999 161.82 51.3199C178.03 68.5199 161.97 99.5399 135.48 93.4899C134.15 93.1899 132.42 92.5799 130.55 91.5999C128.56 93.1899 125.06 94.9299 120.23 93.3099C119.21 92.9699 118.93 91.6499 119.73 90.9299C121.69 89.1599 122.61 85.0199 122.61 85.0199Z" fill="white"/>
<path fill-rule="evenodd" clip-rule="evenodd" d="M184.46 94.92L183.86 112.66C183.81 114.09 182.43 115.08 181.06 114.66C177.8 113.67 173.8 112.77 168.16 115.47C160.79 119.13 153.84 119.84 148.31 118.12C147.4 117.83 146.78 116.96 146.81 116L147.15 100.42C147.18 99.03 148.49 98.04 149.85 98.36C152.46 98.97 156.44 99.51 159.07 97.99C163.16 95.63 169.32 85.99 183.29 92.92C184.03 93.29 184.48 94.09 184.46 94.92Z" fill="#1B5229"/>
<path fill-rule="evenodd" clip-rule="evenodd" d="M187.14 97.99L186.54 115.73C186.49 117.16 185.11 118.15 183.74 117.73C180.48 116.74 176.48 115.84 170.84 118.54C163.47 122.2 156.52 122.91 150.99 121.19C150.08 120.9 149.46 120.03 149.49 119.07L149.83 103.49C149.86 102.1 151.17 101.11 152.53 101.43C155.14 102.04 159.12 102.58 161.75 101.06C165.84 98.7 172 89.06 185.97 95.99C186.72 96.35 187.16 97.15 187.14 97.99Z" fill="#0AA64B"/>
<path fill-rule="evenodd" clip-rule="evenodd" d="M165.58 120.68C160.67 120.29 156.82 116.45 156.35 110.88C156.09 107.75 156.92 104.6 158.56 101.99C158.63 101.98 158.7 101.97 158.77 101.96C158.9 101.94 159.02 101.93 159.14 101.91C159.28 101.89 159.41 101.87 159.55 101.84C159.72 101.81 159.88 101.77 160.04 101.73C160.19 101.69 160.35 101.64 160.5 101.6C160.61 101.57 160.72 101.53 160.83 101.49C160.96 101.44 161.09 101.39 161.22 101.33C161.26 101.31 161.3 101.29 161.34 101.27C161.49 101.2 161.65 101.13 161.8 101.05C163.81 99.89 166.31 96.95 170.03 95.11C175.29 95.16 179.52 99.11 180.01 104.97C180.4 109.38 178.53 113.82 175.42 116.84C175.36 116.91 175.32 116.97 175.26 117.04C173.91 117.31 172.46 117.77 170.87 118.54C169.06 119.42 167.3 120.13 165.58 120.68Z" fill="#0D7B3E"/>
<path fill-rule="evenodd" clip-rule="evenodd" d="M168.63 113.49C171.56 112.76 173.71 109.68 173.47 106.6C173.21 103.52 170.61 101.62 167.7 102.35C164.78 103.08 162.63 106.16 162.88 109.25C163.13 112.32 165.71 114.22 168.63 113.49Z" fill="#0AA64B"/>
<path d="M151.87 79.76H133.72C132.01 79.76 130.62 78.37 130.62 76.66V58.52C130.62 56.81 132.01 55.42 133.72 55.42H151.87C153.58 55.42 154.97 56.81 154.97 58.52V76.67C154.97 78.37 153.58 79.76 151.87 79.76Z" fill="black"/>
<path d="M138.91 62.4601H143.57C145.99 62.4601 147.51 63.8701 147.51 66.2101C147.51 68.5601 146.02 69.9401 143.54 69.9401H141.32V73.8201H138.92V62.4601H138.91ZM143.51 67.7401C144.47 67.7401 145.12 67.1601 145.12 66.2001C145.12 65.1601 144.57 64.6601 143.53 64.6601H141.32V67.7401H143.51V67.7401Z" fill="#F6F8F9"/>
<path d="M149.68 76.8201H135.92C134.62 76.8201 133.57 75.7701 133.57 74.4701V60.7101C133.57 59.4101 134.62 58.3601 135.92 58.3601H149.68C150.98 58.3601 152.03 59.4101 152.03 60.7101V74.4701C152.03 75.7701 150.98 76.8201 149.68 76.8201Z" stroke="#F6F8F9" stroke-width="1.1028" stroke-miterlimit="10"/>
</g>
<defs>
<clipPath id="clip0_520_7019">
<rect width="200" height="200" fill="white"/>
</clipPath>
</defs>
</svg>
