<svg width="200" height="200" viewBox="0 0 200 200" fill="none" xmlns="http://www.w3.org/2000/svg">
<g clip-path="url(#clip0_520_7018)">
<path d="M100 200C155.228 200 200 155.228 200 100C200 44.7715 155.228 0 100 0C44.7715 0 0 44.7715 0 100C0 155.228 44.7715 200 100 200Z" fill="#A4E8F4"/>
<path d="M187.73 148.02C185.99 142.54 182.96 137.18 179.66 131.16C176.92 126.17 168.45 109.48 141.65 107.89C112.29 106.15 97.0901 113.92 86.4601 121.11C74.4501 129.23 69.3601 150.22 69.3601 150.22L64.8301 193.63C75.7701 197.74 87.6201 200 100 200C137.82 200 170.74 179 187.73 148.02Z" fill="#4CA447"/>
<path d="M78.3999 181.39L88.9399 182.8L86.8999 198.29L78.3999 181.39Z" fill="#8C4520"/>
<path d="M116.99 113.95C116.99 113.95 114.79 123.53 120.59 127.12C126.39 130.71 138.23 127.48 142.75 118.98C146.69 111.56 144.84 106.53 144.84 106.53L116.99 113.95Z" fill="#A95630"/>
<path d="M134.99 67.74C134.99 67.74 99.3802 72.05 97.7102 66.01C96.4802 61.55 100.03 40.03 134.09 47.42C145.12 49.81 153.88 59.05 154.29 71.94C154.58 80.9 152.22 92.73 147.43 99.85C142.01 107.9 138.44 107.05 138.44 107.05L134.99 67.74Z" fill="black"/>
<path d="M145.25 109.64C144.93 105.97 143.81 99.59 143.81 99.59C144.65 99.71 146.44 99.79 149.11 97.69C151.88 95.5 155.84 88.35 151.95 84.42C149.66 82.11 147.11 80.99 144.19 84.39C140.9 88.22 137.89 87.86 138.07 83.03C138.25 78.21 141.05 66.91 136.31 64.34C131.57 61.77 126.81 64.17 117.86 63.12C113.95 62.66 111.21 61.7 107.97 60.65C104.27 59.45 99.9999 63.06 99.0199 67.78C98.4899 70.37 97.3399 90.56 97.8599 95.11C98.3299 99.25 102.28 115.09 118.19 115.03C126.31 115 145.25 109.64 145.25 109.64Z" fill="#A95630"/>
<path d="M97.4901 62.08C96.4901 71.86 95.1201 81.55 96.0101 91.42C96.7601 99.73 99.2101 107.98 106.02 113.33C110.81 117.1 116.69 118.16 122.64 117.15C124.41 116.85 123.66 114.16 121.9 114.46C116.99 115.3 112.03 114.41 108.02 111.37C105.3 109.31 103.21 106.49 101.7 103.45C101.1 102.23 100.75 101.32 100.32 99.84C99.5501 97.21 99.1001 94.5 98.8401 91.77C98.3001 86.15 98.4601 80.48 98.8901 74.86C99.2201 70.58 99.8401 66.34 100.28 62.08C100.47 60.29 97.6701 60.3 97.4901 62.08Z" fill="black"/>
<path d="M113.08 69.94C111.7 68.15 109.65 66.95 107.4 66.72C105.15 66.49 102.88 67.45 101.33 69.06C100.81 69.6 100.79 70.5 101.33 71.03C101.86 71.56 102.78 71.57 103.3 71.03C104.41 69.88 105.81 69.32 107.4 69.51C107.23 69.49 107.68 69.57 107.76 69.59C107.95 69.64 108.14 69.69 108.33 69.76C108.36 69.77 108.67 69.89 108.58 69.85C108.51 69.82 108.73 69.92 108.75 69.93C108.93 70.02 109.11 70.12 109.28 70.22C109.97 70.64 110.55 71.19 111.11 71.92C111.57 72.52 112.6 72.41 113.08 71.92C113.67 71.33 113.54 70.54 113.08 69.94Z" fill="black"/>
<path d="M119.08 88.7001C119.06 88.8201 119.04 88.9401 119 89.0501C118.98 89.1101 118.97 89.1601 118.95 89.2201C118.94 89.2401 118.85 89.4601 118.9 89.3501C118.95 89.2401 118.86 89.4201 118.85 89.4401C118.82 89.4901 118.8 89.5401 118.77 89.5901C118.74 89.6401 118.71 89.6901 118.68 89.7401C118.66 89.7601 118.65 89.7901 118.63 89.8101C118.69 89.7301 118.7 89.7201 118.67 89.7601C118.59 89.8501 118.51 89.9401 118.42 90.0301C118.41 90.0401 118.39 90.0501 118.38 90.0701C118.31 90.1201 118.32 90.1201 118.41 90.0501C118.39 90.0901 118.3 90.1301 118.26 90.1501C118.22 90.1701 118.15 90.2301 118.1 90.2301C118.13 90.2201 118.16 90.2101 118.18 90.2001C118.14 90.2101 118.11 90.2301 118.07 90.2401C118.01 90.2601 117.96 90.2701 117.9 90.2901C117.88 90.2901 117.86 90.3001 117.84 90.3001C117.75 90.3101 117.76 90.3101 117.88 90.2901C117.86 90.2801 117.73 90.3001 117.71 90.3001C117.68 90.3001 117.65 90.3001 117.62 90.3001C117.56 90.3001 117.58 90.3001 117.69 90.3101C117.64 90.2901 117.57 90.2901 117.52 90.2801C117.51 90.2801 117.37 90.2201 117.36 90.2301C117.45 90.2701 117.47 90.2801 117.42 90.2501C117.39 90.2401 117.37 90.2201 117.34 90.2101C117.3 90.1901 117.25 90.1401 117.21 90.1201C117.3 90.1901 117.31 90.2001 117.25 90.1401C117.24 90.1301 117.22 90.1201 117.21 90.1001C117.17 90.0601 117.14 90.0201 117.1 89.9801C116.98 89.8601 117.17 90.1001 117.09 89.9701C117.06 89.9201 117.03 89.8801 117 89.8301C116.98 89.7901 116.93 89.7201 116.92 89.6801C116.96 89.7801 116.97 89.7901 116.94 89.7101C116.93 89.6901 116.93 89.6701 116.92 89.6601C116.9 89.6001 116.88 89.5301 116.87 89.4701C116.86 89.4401 116.86 89.4101 116.85 89.3901C116.86 89.5001 116.87 89.5201 116.86 89.4601C116.86 89.3301 116.85 89.2101 116.86 89.0801C116.9 88.6601 116.46 88.2601 116.06 88.2801C115.59 88.3001 115.31 88.6301 115.26 89.0801C115.11 90.5301 116.31 91.9901 117.81 91.9101C119.3 91.8301 120.36 90.5501 120.6 89.1501C120.67 88.7401 120.49 88.2701 120.04 88.1701C119.68 88.0601 119.16 88.2601 119.08 88.7001Z" fill="black"/>
<path d="M115.37 88.89C115.36 88.96 115.35 89.03 115.33 89.1C115.32 89.13 115.24 89.3 115.3 89.2C115.36 89.1 115.24 89.3 115.23 89.32C115.22 89.34 115.21 89.35 115.2 89.37C115.15 89.44 115.15 89.43 115.22 89.35C115.21 89.39 115.12 89.45 115.1 89.48C115.08 89.5 115.06 89.52 115.04 89.54C115 89.58 115.01 89.56 115.08 89.51C115.05 89.55 114.96 89.58 114.92 89.61C114.88 89.63 114.85 89.65 114.81 89.67C114.84 89.66 114.86 89.65 114.89 89.64C114.8 89.71 114.62 89.72 114.51 89.75C114.45 89.76 114.47 89.76 114.57 89.74C114.53 89.74 114.49 89.75 114.46 89.75C114.4 89.75 114.35 89.76 114.29 89.76C114.23 89.76 114.18 89.76 114.12 89.75C113.93 89.74 114.29 89.79 114.11 89.75C113.99 89.72 113.87 89.69 113.75 89.65C113.69 89.63 113.71 89.64 113.81 89.68C113.78 89.67 113.76 89.66 113.73 89.64C113.67 89.61 113.61 89.58 113.55 89.54C113.51 89.51 113.35 89.44 113.52 89.53C113.47 89.5 113.43 89.45 113.39 89.41C113.35 89.37 113.31 89.33 113.27 89.28C113.16 89.16 113.34 89.41 113.27 89.27C113.24 89.22 113.21 89.18 113.19 89.13C113.18 89.11 113.09 88.91 113.13 89.03C113.18 89.15 113.11 88.97 113.1 88.94C113.08 88.88 113.06 88.81 113.05 88.75C113.05 88.73 113.04 88.71 113.04 88.69C113.03 88.6 113.03 88.62 113.04 88.74C113.05 88.69 113.03 88.62 113.03 88.57C113.03 88.51 113.03 88.46 113.03 88.4C113.03 88.36 113.04 88.33 113.04 88.29C113.04 88.32 113.03 88.36 113.03 88.39C112.99 88.36 113.13 88.05 113.14 88.02C113.3 87.63 112.97 87.13 112.58 87.04C112.12 86.93 111.77 87.18 111.6 87.6C111.32 88.29 111.42 89.07 111.71 89.74C112.01 90.44 112.62 90.93 113.32 91.18C114.75 91.7 116.69 90.94 116.93 89.32C116.96 89.1 116.97 88.91 116.85 88.71C116.75 88.54 116.56 88.39 116.37 88.34C115.98 88.24 115.44 88.45 115.37 88.89Z" fill="black"/>
<path d="M113.07 88.15C113.78 85.33 115.04 82.69 115.88 79.9C116.17 78.91 114.63 78.49 114.34 79.48C113.51 82.26 112.25 84.91 111.53 87.73C111.28 88.72 112.82 89.14 113.07 88.15Z" fill="black"/>
<path d="M112.5 77.8C112.2 76.14 110.79 75.24 110.3 74.96C109.23 74.34 108.03 73.7 105.98 73.78C102.03 73.93 101.58 75.23 101.37 76.18C101.2 76.96 101.42 78.49 102.49 78.95C103.07 79.2 104.17 78.93 106.38 79.14C108.48 79.34 110.75 80.33 111.4 80.17C112.06 80.03 112.77 79.27 112.5 77.8Z" fill="white"/>
<path d="M108.41 79.21C110.65 79.21 110.66 75.72 108.41 75.72C106.16 75.72 106.16 79.21 108.41 79.21Z" fill="black"/>
<path d="M131.35 80.54C131.12 79.04 129.73 77.92 129.22 77.67C128.11 77.11 126.47 76.52 124.3 76.59C120.75 76.7 119.86 78.34 119.67 79.22C119.51 79.97 119.68 81.38 120.8 81.8C121.41 82.02 122.57 81.75 124.89 81.91C127.09 82.06 129.46 82.94 130.15 82.79C130.85 82.63 131.56 81.92 131.35 80.54Z" fill="white"/>
<path d="M126.22 81.76C128.39 81.76 128.39 78.39 126.22 78.39C124.05 78.38 124.05 81.76 126.22 81.76Z" fill="black"/>
<path d="M116.65 49.54C114.71 48.7 112.79 47.99 110.93 47.42C116.07 44.66 122.94 43.46 132.03 45.91C160.37 53.54 154.21 80.45 154.21 80.45C154.21 80.45 148.81 74.79 141.17 70.09C136.57 64.06 127.94 54.44 116.65 49.54Z" fill="#016A81"/>
<path d="M110.93 47.42C112.8 47.99 114.71 48.7 116.65 49.54C127.94 54.44 136.57 64.05 141.17 70.08C137.11 67.58 132.41 65.35 127.56 64.39C110.36 60.99 99.0804 65.13 97.2204 65.89C97.1504 65.86 97.0704 65.83 97.0004 65.79C94.4604 64.66 90.1004 61.55 88.5804 54.55C86.5704 45.32 96.2804 42.92 110.93 47.42Z" fill="#008BAD"/>
<path d="M149.65 86.8C148.7 86.48 147.63 86.69 146.81 87.22C145.91 87.8 145.34 88.7 144.98 89.69C144.32 91.52 144.01 94.42 146.08 95.48C146.46 95.68 146.95 95.58 147.17 95.19C147.38 94.83 147.27 94.3 146.88 94.1C145.58 93.43 146.1 91.31 146.48 90.22C146.87 89.08 147.93 87.89 149.23 88.33C149.64 88.47 150.1 88.1699 150.21 87.7699C150.32 87.3499 150.06 86.94 149.65 86.8Z" fill="black"/>
<path d="M120.66 72.8001C123.34 70.6401 127.29 71.6601 128.88 74.6001C129.24 75.2601 130.16 75.4701 130.79 75.1001C131.46 74.7101 131.65 73.8601 131.29 73.1901C130.18 71.1301 128.13 69.5301 125.82 69.0401C123.26 68.5001 120.7 69.2001 118.68 70.8301C118.09 71.3001 118.19 72.3101 118.68 72.8001C119.27 73.3801 120.07 73.2801 120.66 72.8001Z" fill="black"/>
<path d="M124.04 103.55C123.06 103.45 122.04 103.56 121.11 103.87C120.71 104 120.42 104.43 120.55 104.85C120.68 105.25 121.11 105.55 121.53 105.41C121.9 105.29 122.28 105.2 122.67 105.14C122.6 105.15 122.53 105.16 122.46 105.17C122.98 105.1 123.51 105.09 124.04 105.15C124.23 105.17 124.47 105.05 124.6 104.92C124.74 104.78 124.84 104.55 124.83 104.36C124.82 104.15 124.75 103.94 124.6 103.8C124.43 103.63 124.26 103.57 124.04 103.55Z" fill="black"/>
<path d="M127.26 98.08C124.65 99.77 121.43 100.3 118.42 99.5C117.23 99.18 116.73 101.02 117.91 101.34C121.39 102.26 125.19 101.68 128.21 99.73C129.25 99.07 128.3 97.41 127.26 98.08Z" fill="black"/>
<path d="M126.64 97.26C126.94 98.79 127.77 100.24 128.94 101.28C129.31 101.61 129.93 101.68 130.29 101.28C130.62 100.92 130.69 100.28 130.29 99.93C130.04 99.71 129.8 99.47 129.59 99.2C129.56 99.17 129.53 99.11 129.5 99.09C129.53 99.11 129.62 99.25 129.54 99.15C129.49 99.08 129.44 99.01 129.39 98.94C129.29 98.8 129.2 98.65 129.11 98.5C129.03 98.36 128.95 98.21 128.88 98.06C128.86 98.02 128.84 97.97 128.82 97.93C128.81 97.9 128.75 97.77 128.81 97.91C128.87 98.05 128.81 97.92 128.8 97.89C128.78 97.85 128.77 97.8 128.75 97.76C128.63 97.43 128.54 97.1 128.47 96.76C128.38 96.27 127.76 95.94 127.3 96.09C126.78 96.26 126.54 96.73 126.64 97.26Z" fill="black"/>
<path d="M161.41 162.11C162.29 166.51 163.04 170.95 163.67 175.39C163.79 176.24 165.08 175.88 164.96 175.03C164.33 170.59 163.58 166.15 162.7 161.75C162.53 160.91 161.24 161.27 161.41 162.11Z" fill="black"/>
<path d="M62.2302 137.14C60.9002 133.61 57.2802 123.48 53.5802 120.09C49.1302 116.01 44.8802 116.34 43.2302 114.77C40.7602 112.42 40.7302 108.63 37.9102 108.83C34.4502 109.08 33.3302 114.27 38.0302 119.59C38.0302 119.59 29.3402 119.54 28.0002 119.32C26.6602 119.1 19.8102 112.69 16.2502 114.19C13.4202 115.38 15.5102 118.8 15.5102 118.8C15.5102 118.8 13.9502 120.66 15.4402 122.59C16.6302 124.13 18.4902 126.09 19.4602 127.43C20.4302 128.77 23.7002 130.33 25.9302 129.88C25.9302 129.88 27.6402 134.64 31.4302 133.9C31.4302 133.9 33.8102 137.99 38.5002 138.44C44.0902 138.97 46.3102 137.77 46.3102 137.77L47.2102 142.59C47.2102 142.59 51.1702 173.93 54.7802 189.21C64.9802 194.39 76.1802 197.87 88.0202 199.29L72.2302 160.35L62.2302 137.14Z" fill="#A95630"/>
<path d="M38.2502 120.1C39.2802 122.87 41.8002 124.82 44.7302 125.17C45.1702 125.22 45.5402 124.76 45.5402 124.36C45.5402 123.88 45.1702 123.6 44.7302 123.55C44.4702 123.52 44.8802 123.58 44.6202 123.53C44.5502 123.52 44.4802 123.51 44.4202 123.49C44.2702 123.46 44.1202 123.43 43.9802 123.39C43.8302 123.35 43.6902 123.31 43.5502 123.26C43.4802 123.24 43.4202 123.21 43.3602 123.19C43.3602 123.19 43.1302 123.1 43.2502 123.15C42.9802 123.04 42.7302 122.9 42.4802 122.76C42.3502 122.68 42.2202 122.6 42.1002 122.52C42.0402 122.48 41.9902 122.44 41.9302 122.4C41.9002 122.38 41.8602 122.35 41.8302 122.33C41.8702 122.36 41.8702 122.36 41.8302 122.33C41.6002 122.15 41.3902 121.96 41.1802 121.75C41.0702 121.64 40.9702 121.53 40.8702 121.42C40.8202 121.37 40.7802 121.31 40.7402 121.26C40.5702 121.06 40.8202 121.37 40.6602 121.16C40.4802 120.92 40.3202 120.66 40.1702 120.4C40.1002 120.28 40.0402 120.16 39.9802 120.03C39.9802 120.03 39.8802 119.8 39.9302 119.92C39.9002 119.84 39.8702 119.77 39.8402 119.69C39.6902 119.28 39.2902 119 38.8402 119.12C38.4302 119.21 38.1002 119.69 38.2502 120.1Z" fill="black"/>
<path d="M44.2104 127.66C41.6804 127.59 39.1504 128.35 37.0804 129.81C36.7204 130.06 36.5504 130.52 36.7904 130.92C37.0004 131.27 37.5404 131.46 37.9004 131.21C39.7504 129.9 41.9404 129.22 44.2104 129.28C45.2604 129.31 45.2604 127.69 44.2104 127.66Z" fill="black"/>
<path d="M38.3002 132.03C37.9702 130.36 37.3902 128.76 36.7002 127.21C36.1202 125.9 35.3102 124.54 34.0102 123.82C32.8902 123.21 31.3702 123.09 30.2602 123.8C28.8602 124.69 28.6702 126.43 29.0802 127.92C29.3302 128.83 29.7202 129.7 29.9802 130.61C30.2502 131.56 30.4402 132.52 30.5402 133.5C30.5802 133.94 30.8802 134.31 31.3502 134.31C31.7502 134.31 32.2102 133.94 32.1602 133.5C32.0002 131.99 31.7002 130.5 31.1802 129.07C30.8202 128.05 29.9902 126.46 30.8002 125.45C31.3302 124.8 32.3902 124.85 33.0802 125.18C34.1302 125.68 34.7402 126.84 35.2102 127.85C35.8902 129.32 36.4202 130.88 36.7302 132.47C36.9402 133.49 38.5002 133.05 38.3002 132.03Z" fill="black"/>
<path d="M48.3703 135.62C48.3003 135.68 48.2303 135.74 48.1603 135.79C48.0903 135.85 48.0903 135.85 48.1603 135.79C48.1203 135.82 48.0903 135.84 48.0503 135.87C47.9003 135.98 47.7503 136.08 47.6003 136.17C47.4503 136.26 47.2903 136.35 47.1303 136.43C47.0503 136.47 46.9703 136.51 46.8903 136.55C46.8503 136.57 46.8103 136.59 46.7703 136.61C46.8503 136.58 46.8603 136.57 46.8103 136.59C46.4803 136.71 46.1503 136.83 45.8103 136.91C45.6303 136.95 45.4603 136.98 45.2803 137.01C45.1903 137.02 45.1903 137.02 45.2903 137.01C45.2503 137.02 45.2003 137.02 45.1603 137.02C45.0703 137.03 44.9803 137.04 44.8903 137.04C44.4703 137.07 44.0603 137.39 44.0803 137.85C44.1003 138.27 44.4403 138.69 44.8903 138.66C46.6103 138.55 48.2303 137.89 49.5303 136.76C49.8503 136.48 49.8403 135.9 49.5303 135.61C49.1803 135.3 48.7203 135.32 48.3703 135.62Z" fill="black"/>
<path d="M90.0402 163.16C89.9102 169.73 88.4002 176.23 88.2702 182.79C88.2502 183.65 89.6002 183.65 89.6102 182.79C89.7402 176.22 91.2502 169.72 91.3802 163.16C91.4002 162.3 90.0602 162.3 90.0402 163.16Z" fill="black"/>
<path fill-rule="evenodd" clip-rule="evenodd" d="M42.8001 121.36L22.3201 121.11C22.3201 121.11 21.5301 118.68 18.0001 118.32C14.4701 117.96 14.8001 121.02 14.8001 121.02L11.1501 120.97C9.73012 120.95 8.59012 119.79 8.61012 118.37L8.86012 98.53C8.88012 97.11 10.0501 95.97 11.4701 95.99L43.1201 96.38C44.5401 96.4 45.6801 97.56 45.6601 98.98L45.4101 118.82C45.3801 120.24 44.2201 121.38 42.8001 121.36Z" fill="#FFC41E"/>
<path fill-rule="evenodd" clip-rule="evenodd" d="M39.9099 117.8L36.8499 117.76C35.7099 117.75 34.8099 116.81 34.8199 115.68V115.59C34.8299 114.45 35.7699 113.54 36.8999 113.56L39.9599 113.6C41.0999 113.61 42.0099 114.55 41.9899 115.68V115.77C41.9799 116.91 41.0399 117.81 39.9099 117.8Z" fill="#EF9A20"/>
<path fill-rule="evenodd" clip-rule="evenodd" d="M28.4299 111.69L12.9999 111.5C12.4399 111.49 11.9799 111.03 11.9899 110.46C11.9999 109.9 12.4599 109.44 13.0299 109.45L28.4499 109.64C29.0099 109.65 29.4699 110.11 29.4599 110.67C29.4499 111.24 28.9899 111.69 28.4299 111.69Z" fill="#EF9A20"/>
<path fill-rule="evenodd" clip-rule="evenodd" d="M8.75 106.4L45.55 106.86L45.63 100.78L8.83 100.32L8.75 106.4Z" fill="#EE8722"/>
<path d="M23.3101 121.04C22.2701 119.73 21.1501 118.51 19.5601 117.89C18.0201 117.29 16.1501 117.32 14.9401 118.6C14.2201 119.36 15.3701 120.51 16.0901 119.75C16.9401 118.85 18.2401 119.06 19.2601 119.52C20.4701 120.06 21.3501 121.18 22.1601 122.2C22.4301 122.54 23.0201 122.48 23.3101 122.2C23.6501 121.85 23.5801 121.39 23.3101 121.04Z" fill="black"/>
<path d="M31.0103 123.79C29.8403 121.66 27.3403 119.41 24.7303 119.81C23.5103 120 22.3903 120.89 22.1703 122.14C21.9403 123.48 22.5303 124.74 23.1803 125.87C23.8803 127.11 24.7203 128.3 25.1103 129.69C25.3903 130.69 26.9503 130.27 26.6703 129.26C26.3003 127.93 25.5803 126.76 24.8803 125.58C24.3503 124.68 23.3103 123.2 23.8803 122.11C24.4803 120.98 26.0803 121.4 26.9503 121.88C28.0903 122.52 28.9903 123.47 29.6203 124.61C30.1103 125.52 31.5103 124.7 31.0103 123.79Z" fill="black"/>
<path fill-rule="evenodd" clip-rule="evenodd" d="M81.3799 85.84C81.3799 85.84 86.9599 79.27 86.4699 69.93C86.4799 69.21 86.4699 68.47 86.4299 67.71C85.4499 49.45 59.3099 36.96 43.7399 53.49C28.1699 70 43.5999 99.78 69.0299 93.98C70.3099 93.69 71.9699 93.11 73.7599 92.16C75.6699 93.69 79.0299 95.35 83.6699 93.8C84.6499 93.47 84.9199 92.21 84.1499 91.51C82.2599 89.81 81.3799 85.84 81.3799 85.84Z" fill="white"/>
<path d="M70.1298 70.33C70.3498 69.32 70.5698 68.34 70.7898 67.34C64.6198 67.34 58.4598 67.34 52.2898 67.34C52.5098 68.34 52.7298 69.33 52.9498 70.34C51.9298 70.34 50.9298 70.34 49.8998 70.34C50.1198 69.33 50.3398 68.34 50.5598 67.32C49.8098 67.32 49.0798 67.32 48.3398 67.32C48.3398 66.45 48.3398 65.59 48.3398 64.72C57.1298 64.72 65.9198 64.72 74.7298 64.72C74.7298 65.58 74.7298 66.42 74.7298 67.3C73.9998 67.3 73.2798 67.3 72.4998 67.3C72.7298 68.33 72.9398 69.31 73.1698 70.33C72.1598 70.33 71.1698 70.33 70.1298 70.33Z" fill="black"/>
<path d="M59.87 68.11C59.54 72.46 59.2 76.79 58.87 81.14C56.49 81.14 54.12 81.14 51.75 81.14C51.75 81.07 51.74 81 51.75 80.94C52.71 76.76 53.68 72.59 54.64 68.41C54.69 68.19 54.76 68.08 55.03 68.09C56.54 68.11 58.0501 68.1 59.5601 68.1C59.6401 68.09 59.73 68.1 59.87 68.11Z" fill="black"/>
<path d="M64.2197 81.14C63.8897 76.8 63.5497 72.46 63.2197 68.11C63.3597 68.1 63.4497 68.09 63.5397 68.09C65.0497 68.09 66.5597 68.09 68.0697 68.09C68.2997 68.09 68.3997 68.15 68.4497 68.38C69.4097 72.57 70.3797 76.75 71.3397 80.94C71.3497 81 71.3497 81.06 71.3597 81.15C68.9797 81.14 66.6197 81.14 64.2197 81.14Z" fill="black"/>
<path d="M60.1897 63.91C58.6797 63.91 57.1997 63.91 55.6797 63.91C56.1497 61.89 56.6097 59.9 57.0697 57.9C58.2697 57.9 59.4397 57.9 60.6597 57.9C60.4997 59.9 60.3497 61.89 60.1897 63.91Z" fill="black"/>
<path d="M67.3899 63.9C65.8899 63.9 64.3999 63.9 62.8999 63.9C62.7499 61.9 62.5899 59.91 62.4399 57.88C62.7399 57.88 63.0099 57.88 63.2799 57.88C64.0899 57.88 64.8899 57.89 65.6999 57.88C65.9299 57.88 66.0399 57.92 66.0999 58.18C66.5199 60.05 66.9599 61.91 67.3899 63.77C67.3899 63.8 67.3799 63.83 67.3899 63.9Z" fill="black"/>
</g>
<defs>
<clipPath id="clip0_520_7018">
<rect width="200" height="200" fill="white"/>
</clipPath>
</defs>
</svg>
