<svg width="200" height="200" viewBox="0 0 200 200" fill="none" xmlns="http://www.w3.org/2000/svg">
<g clip-path="url(#clip0_520_7017)">
<path d="M100 200C155.228 200 200 155.228 200 100C200 44.7715 155.228 0 100 0C44.7715 0 0 44.7715 0 100C0 155.228 44.7715 200 100 200Z" fill="#A4E8F4"/>
<path d="M99.9998 200C133.72 200 163.55 183.31 181.66 157.73C181.05 153.13 179.35 147.16 176.52 138.06C167.03 107.51 144.88 92.82 116.99 83.92C100.92 78.79 83.0298 79.98 59.3698 87.43C39.9398 93.55 16.6798 118.6 8.77979 141.02C24.4398 175.79 59.3898 200 99.9998 200Z" fill="#E7E6E6"/>
<path d="M121.2 84.1901L114.21 84.7401L99.29 118.54C99.29 118.54 103.76 126.23 113.37 124.81C122.98 123.39 122.76 110.17 123.06 104.17C123.49 95.5401 121.2 84.1901 121.2 84.1901Z" fill="#A1A2A2"/>
<path d="M71.8499 107.66C71.7399 113.45 72.9399 122.62 80.4699 124.47C87.9999 126.33 93.0299 121.3 93.0299 121.3L88.1199 105.47L71.8499 107.66Z" fill="#A1A2A2"/>
<path d="M124.93 75.62C124.93 75.62 126.66 65.02 120.85 55.95C114.67 46.3 104.52 42.56 89.5195 44.64C74.5195 46.73 68.3696 57.6 65.7896 67.33L106.67 74.02L103.97 91.39L113.64 91.28L124.93 75.62Z" fill="black"/>
<path d="M115.66 80.13C115.66 80.13 117.14 73.42 121.28 72.61C125.41 71.81 126.93 74.58 126.37 79.33C125.82 84.08 122.34 88.73 117.47 87.47C117.47 87.47 115.5 94.66 113.03 100.3C109.8 107.68 104.8 116.3 95.2897 125.21L87.0297 118.92C87.0297 118.92 71.8897 118.88 64.6197 104.58C57.3497 90.28 66.6197 67.37 66.6197 67.37C66.6197 67.37 69.2897 59.66 74.9797 57.28C80.6697 54.9 79.7597 58.73 83.4697 60.31C87.1797 61.88 95.5597 58.68 98.5497 56.28C101.54 53.88 106.25 54.67 108.16 57.2C110.07 59.73 109.6 63.31 108.26 66C106.92 68.7 110.53 71.19 110.65 72.81C110.78 74.43 109.39 80.55 107.87 86.08C106.35 91.61 107.82 91.57 110.75 90.96C113.68 90.35 113.61 86.88 115.66 80.13Z" fill="#F4A5AB"/>
<path d="M85.88 83.76C85.86 83.86 85.83 83.96 85.8 84.06C85.75 84.21 85.77 84.06 85.81 84.05C85.8 84.05 85.74 84.19 85.73 84.2C85.7 84.25 85.67 84.3 85.64 84.35C85.63 84.37 85.53 84.51 85.6 84.41C85.67 84.31 85.57 84.44 85.55 84.46C85.51 84.5 85.47 84.54 85.43 84.58C85.4 84.61 85.36 84.64 85.33 84.68C85.2 84.79 85.31 84.67 85.33 84.68C85.31 84.67 85.1 84.83 85.07 84.84C85.04 84.86 84.98 84.9 84.94 84.9C85.03 84.86 85.05 84.85 85 84.87C84.97 84.88 84.95 84.89 84.92 84.9C84.88 84.91 84.83 84.93 84.78 84.94C84.76 84.95 84.55 84.99 84.65 84.97C84.75 84.96 84.56 84.97 84.54 84.97C84.52 84.97 84.37 84.95 84.36 84.96C84.4 84.94 84.53 84.99 84.38 84.96C84.33 84.95 84.29 84.94 84.24 84.93C84.2 84.92 84.12 84.88 84.08 84.87C84.15 84.87 84.2 84.93 84.09 84.87C84.05 84.85 84.01 84.82 83.97 84.8C83.93 84.78 83.77 84.7 83.95 84.79C83.87 84.75 83.8 84.66 83.74 84.6C83.71 84.56 83.65 84.52 83.63 84.47C83.71 84.64 83.65 84.49 83.62 84.45C83.58 84.39 83.49 84.27 83.49 84.2C83.53 84.29 83.54 84.31 83.52 84.26C83.51 84.23 83.5 84.21 83.49 84.18C83.47 84.13 83.46 84.07 83.45 84.02C83.36 83.62 82.87 83.34 82.48 83.47C82.06 83.61 81.83 84.01 81.93 84.44C82.22 85.68 83.44 86.68 84.74 86.54C86.02 86.41 87.15 85.45 87.42 84.16C87.5 83.76 87.3 83.28 86.87 83.19C86.46 83.12 85.97 83.33 85.88 83.76Z" fill="black"/>
<path d="M81.9996 83.82C81.8696 84.03 81.7296 84.24 81.5996 84.44C81.5496 84.52 81.6796 84.34 81.5896 84.46C81.5496 84.51 81.5096 84.56 81.4596 84.6C81.4196 84.65 81.3696 84.69 81.3296 84.73C81.3096 84.74 81.1796 84.86 81.2596 84.79C81.3496 84.72 81.1996 84.83 81.1796 84.84C81.1196 84.88 81.0596 84.91 80.9896 84.94C81.1196 84.87 80.9296 84.96 80.8996 84.97C80.8296 84.99 80.7596 85.01 80.6896 85.03C80.5696 85.06 80.4496 85.08 80.3296 85.11C80.1496 85.15 80.4196 85.11 80.2396 85.12C80.1696 85.12 80.0896 85.12 80.0196 85.12C79.8696 85.12 80.0596 85.14 79.9996 85.12C79.9496 85.1 79.8796 85.09 79.8296 85.07C79.7396 85.05 79.9596 85.14 79.8296 85.07C79.7796 85.04 79.7296 85.01 79.6796 84.98C79.5196 84.89 79.7896 85.09 79.6496 84.96C79.6096 84.93 79.5796 84.89 79.5396 84.86C79.5196 84.84 79.3996 84.69 79.4696 84.78C79.5296 84.88 79.4396 84.73 79.4296 84.71C79.3996 84.66 79.3696 84.61 79.3496 84.55C79.4296 84.69 79.3396 84.51 79.3296 84.48C79.3096 84.42 79.2996 84.37 79.2896 84.31C79.2696 84.24 79.2696 84.17 79.2796 84.28C79.2696 84.14 79.2696 84 79.2796 83.86C79.2896 83.69 79.2396 83.97 79.2896 83.79C79.3096 83.72 79.3196 83.65 79.3396 83.59C79.4496 83.19 79.1996 82.71 78.7896 82.62C78.3696 82.52 77.9296 82.75 77.8196 83.17C77.6096 83.93 77.6596 84.76 78.0496 85.46C78.3896 86.06 79.0096 86.54 79.6896 86.66C80.4496 86.79 81.4096 86.6 82.0596 86.16C82.6396 85.77 83.0296 85.19 83.3896 84.6C83.5996 84.24 83.4796 83.71 83.1096 83.52C82.6996 83.33 82.2296 83.44 81.9996 83.82Z" fill="black"/>
<path d="M79.3398 83.42C79.5298 80.72 80.3098 78.12 81.0798 75.54C81.3698 74.56 79.8398 74.14 79.5498 75.12C78.7398 77.84 77.9598 80.58 77.7598 83.43C77.7298 83.86 78.1498 84.22 78.5498 84.22C78.9998 84.21 79.3098 83.85 79.3398 83.42Z" fill="black"/>
<path d="M99.5999 66.9601C98.3999 65.4101 96.7499 64.4401 94.7699 64.2601C92.9099 64.1001 90.9999 64.8801 89.6899 66.2001C89.1899 66.7001 89.1499 67.6101 89.6899 68.1101C90.2299 68.6001 91.0699 68.6401 91.5999 68.1101C91.7199 67.9901 91.8399 67.8801 91.9599 67.7701C92.0399 67.7001 92.0899 67.6801 91.9799 67.7501C92.0499 67.7001 92.1099 67.6601 92.1799 67.6101C92.3299 67.5101 92.49 67.4201 92.66 67.3301C92.73 67.2901 92.8099 67.2601 92.8799 67.2201C93.0599 67.1301 92.6999 67.2701 92.8999 67.2101C93.2199 67.1201 93.5299 67.0301 93.8499 66.9501C94.0499 66.9001 93.6499 66.9601 93.8599 66.9501C93.9399 66.9501 94.0199 66.9401 94.1099 66.9301C94.2899 66.9201 94.48 66.9201 94.66 66.9301C94.74 66.9301 94.8199 66.9401 94.8999 66.9501C94.7699 66.9401 94.7599 66.9301 94.8999 66.9501C95.0599 66.9801 95.2099 67.0201 95.3699 67.0601C95.5199 67.1001 95.6699 67.1601 95.8199 67.2101C95.6999 67.1701 95.7199 67.1601 95.8299 67.2201C95.8999 67.2501 95.9699 67.2901 96.0399 67.3301C96.1799 67.4001 96.3199 67.4801 96.4499 67.5701C96.5299 67.6201 96.6099 67.6801 96.6999 67.7401C96.8599 67.8501 96.5699 67.6101 96.7099 67.7501C96.8199 67.8601 96.9499 67.9601 97.0599 68.0701C97.1199 68.1301 97.1699 68.1801 97.2199 68.2401C97.2499 68.2801 97.4299 68.4901 97.2799 68.2901C97.7099 68.8501 98.4599 69.2001 99.1199 68.7701C99.6699 68.4501 100.07 67.5501 99.5999 66.9601Z" fill="black"/>
<path d="M79.0598 66.68C77.7498 65.57 76.1198 64.91 74.3898 64.92C72.6598 64.93 71.0398 65.6 69.7298 66.72C69.1898 67.18 69.2198 68.16 69.7298 68.63C70.2998 69.15 71.0598 69.12 71.6398 68.63C71.6998 68.58 71.7598 68.52 71.8298 68.47C71.7198 68.56 71.7298 68.55 71.8498 68.46C71.9898 68.37 72.1198 68.28 72.2598 68.2C72.3798 68.13 72.5098 68.06 72.6398 68C72.6998 67.97 72.7498 67.95 72.8098 67.92C72.6798 67.98 72.6798 67.98 72.8298 67.92C73.1398 67.82 73.4498 67.73 73.7698 67.66C74.0598 67.59 73.5798 67.66 73.8998 67.64C74.0598 67.63 74.2298 67.62 74.3898 67.62C74.5498 67.62 74.7198 67.63 74.8798 67.64C75.2698 67.66 74.6298 67.58 75.0098 67.65C75.3298 67.71 75.6498 67.79 75.9598 67.9C76.0298 67.92 76.3098 68.05 76.0898 67.95C76.2398 68.02 76.3798 68.09 76.5298 68.17C76.6698 68.25 76.8098 68.34 76.9498 68.43C77.0198 68.48 77.0798 68.52 77.1498 68.57C77.0398 68.48 77.0398 68.49 77.1598 68.59C77.6998 69.04 78.5498 69.16 79.0698 68.59C79.5198 68.08 79.6298 67.16 79.0598 66.68Z" fill="black"/>
<path d="M95.0799 116.74C90.2399 117.76 84.9499 117.32 80.2199 115.94C75.4499 114.55 71.0299 111.35 67.7299 107.67C63.7199 103.18 62.5199 96.4701 62.5699 90.6301C62.5999 87.3501 63.0499 84.1101 63.6699 80.8901C64.1399 78.4601 64.5799 75.9901 65.3099 73.6301C66.7599 68.9301 68.6299 64.1201 71.2799 59.9601C72.2099 58.4901 69.8799 57.1401 68.9499 58.6001C66.2999 62.7501 64.4499 67.5501 62.9299 72.2201C62.1899 74.5101 61.7299 76.8701 61.2599 79.2201C60.5699 82.6601 60.0099 86.1501 59.8999 89.6601C59.6999 95.9101 60.8299 103.14 64.7199 108.23C66.5299 110.59 68.7999 112.5 71.1899 114.26C73.2799 115.8 75.3699 117.1 77.8199 117.99C83.4199 120.03 89.9599 120.56 95.7999 119.34C97.4999 118.99 96.7799 116.39 95.0799 116.74Z" fill="black"/>
<path d="M93.2298 109.07C90.4598 110.44 87.2198 110.61 84.2998 109.61C83.3298 109.28 82.9198 110.81 83.8798 111.14C87.2098 112.28 90.8898 111.99 94.0298 110.44C94.9398 109.98 94.1398 108.61 93.2298 109.07Z" fill="black"/>
<path d="M122.52 77.08C121.03 77.17 119.59 78.03 118.93 79.39C118.25 80.79 118.36 82.54 119.31 83.8C119.57 84.14 119.99 84.32 120.39 84.08C120.73 83.88 120.93 83.34 120.67 83C120.58 82.89 120.5 82.77 120.43 82.65C120.39 82.58 120.35 82.5 120.31 82.43C120.3 82.41 120.26 82.31 120.29 82.39C120.23 82.25 120.18 82.1 120.15 81.95C120.13 81.88 120.12 81.81 120.1 81.74C120.07 81.61 120.09 81.73 120.09 81.66C120.03 81.13 120.09 80.6 120.3 80.21C120.43 79.96 120.55 79.77 120.67 79.63C120.76 79.53 120.86 79.43 120.96 79.34C120.96 79.34 121.11 79.21 121.07 79.25C121.02 79.29 121.17 79.18 121.19 79.17C121.3 79.09 121.42 79.02 121.54 78.96C121.61 78.92 121.69 78.89 121.76 78.85C121.66 78.89 121.8 78.84 121.84 78.83C121.97 78.79 122.1 78.75 122.23 78.72C122.3 78.71 122.36 78.69 122.43 78.68C122.29 78.7 122.52 78.68 122.54 78.68C122.97 78.65 123.33 78.33 123.33 77.89C123.31 77.46 122.95 77.05 122.52 77.08Z" fill="black"/>
<path d="M90.7896 89.1601C89.8896 91.1101 90.5096 93.4501 92.2496 94.7101C92.5896 94.9501 93.1496 94.7801 93.3296 94.4301C93.5496 94.0201 93.4096 93.6101 93.0496 93.3501C92.9296 93.2601 93.1096 93.4101 93.0396 93.3501C92.9996 93.3201 92.9596 93.2901 92.9196 93.2501C92.8496 93.1901 92.7896 93.1301 92.7196 93.0601C92.6596 92.9901 92.5996 92.9201 92.5396 92.8601C92.6596 92.9901 92.5596 92.8901 92.5396 92.8501C92.5096 92.8101 92.4796 92.7701 92.4496 92.7201C92.3396 92.5601 92.2596 92.3901 92.1696 92.2101C92.1196 92.1101 92.2396 92.3901 92.1696 92.2001C92.1596 92.1601 92.1396 92.1201 92.1296 92.0901C92.0996 91.9901 92.0696 91.9001 92.0396 91.8001C92.0196 91.7101 91.9996 91.6201 91.9796 91.5301C91.9796 91.5101 91.9496 91.3801 91.9496 91.3801C91.9496 91.3801 91.9696 91.5501 91.9596 91.4101C91.9396 91.2201 91.9396 91.0301 91.9496 90.8301C91.9496 90.7801 91.9596 90.7301 91.9596 90.6801C91.9696 90.5301 91.9396 90.7801 91.9596 90.6801C91.9796 90.5901 91.9896 90.5001 92.0096 90.4101C92.0296 90.3101 92.0596 90.2101 92.0896 90.1201C92.0996 90.0801 92.1196 90.0401 92.1296 90.0101C92.1996 89.8201 92.0596 90.1601 92.1496 89.9701C92.3196 89.5901 92.2696 89.1001 91.8696 88.8901C91.5196 88.7001 90.9696 88.7601 90.7896 89.1601Z" fill="black"/>
<path d="M88.5496 95.4801C88.2696 95.5801 87.9896 95.6701 87.6996 95.7301C87.5796 95.7601 87.4496 95.7801 87.3296 95.8001C87.2896 95.8101 87.2496 95.8101 87.2096 95.8201C87.3196 95.8101 87.3196 95.8001 87.2296 95.8201C87.1696 95.8301 87.0996 95.8301 87.0396 95.8401C86.7696 95.8601 86.4896 95.8701 86.2196 95.8601C86.0696 95.8501 85.9296 95.8401 85.7796 95.8301C85.5696 95.8101 85.9496 95.8601 85.7396 95.8301C85.6596 95.8201 85.5696 95.8001 85.4896 95.7901C85.0796 95.7101 84.6196 95.9001 84.5196 96.3401C84.4296 96.7301 84.6396 97.2301 85.0696 97.3101C86.3696 97.5601 87.7196 97.4801 88.9596 97.0201C89.3496 96.8801 89.6496 96.4801 89.5096 96.0501C89.3996 95.6501 88.9596 95.3201 88.5496 95.4801Z" fill="black"/>
<path d="M93.9099 125.06C90.6399 143.69 88.8899 162.62 88.8999 181.54C88.8999 186.86 89.0499 192.19 89.3499 197.5C89.4299 199.01 91.7899 199.02 91.7099 197.5C90.6599 178.79 91.4799 159.99 93.8099 141.4C94.4699 136.14 95.2699 130.9 96.1799 125.68C96.4499 124.2 94.1799 123.56 93.9099 125.06Z" fill="#A1A2A2"/>
<path d="M84.22 176.11C87.91 176.11 87.92 170.38 84.22 170.38C80.53 170.38 80.52 176.11 84.22 176.11Z" fill="black"/>
<path d="M80.3497 93.23C81.9297 94.26 84.1497 94.48 85.9997 94.41C87.8597 94.34 89.6597 93.81 91.0897 92.59C91.8697 91.93 90.7397 90.81 89.9697 91.47C88.8297 92.45 87.3197 92.8 85.8497 92.83C84.3097 92.86 82.4697 92.72 81.1597 91.86C80.2997 91.3 79.4997 92.67 80.3497 93.23Z" fill="black"/>
<path d="M90.7797 74.89C92.5497 73.14 95.2197 73.85 97.0297 75.13C97.3797 75.38 97.9097 75.19 98.1097 74.85C98.3397 74.45 98.1797 74.02 97.8297 73.77C96.5897 72.89 95.1197 72.28 93.5897 72.26C92.1397 72.23 90.6997 72.76 89.6597 73.78C88.9297 74.49 90.0497 75.61 90.7797 74.89Z" fill="black"/>
<path d="M69.7598 74.5801C71.5298 72.8301 74.1998 73.5401 76.0098 74.8201C76.3598 75.0701 76.8898 74.8801 77.0898 74.5401C77.3198 74.1401 77.1598 73.7101 76.8098 73.4601C75.5698 72.5801 74.0998 71.9701 72.5698 71.9501C71.1198 71.9201 69.6798 72.4501 68.6398 73.4701C67.9198 74.1801 69.0398 75.3001 69.7598 74.5801Z" fill="black"/>
<path d="M131.51 132.68C134.12 138.62 136.43 144.7 138.53 150.84C140.98 157.99 143.16 165.28 144.52 172.73C144.71 173.8 146.35 173.35 146.16 172.28C144.78 164.7 142.55 157.29 140.04 150.01C137.93 143.86 135.59 137.78 132.98 131.83C132.53 130.83 131.07 131.69 131.51 132.68Z" fill="#A1A2A2"/>
<path d="M129.27 138.56C130.98 139.97 133.06 140.79 135.28 140.9C135.72 140.92 136.15 140.49 136.13 140.05C136.11 139.57 135.76 139.22 135.28 139.2C134.42 139.16 133.57 138.98 132.67 138.64C131.99 138.38 131.04 137.83 130.47 137.36C130.13 137.08 129.6 137 129.27 137.36C128.98 137.67 128.9 138.26 129.27 138.56Z" fill="#A1A2A2"/>
<path d="M38.5999 142.9C31.5699 145.38 27.9899 152.97 29.6699 161.27C31.3499 169.57 39.2799 178.17 48.1499 173.43C57.0199 168.69 56.3499 156.91 53.0599 150.64C49.7699 144.37 43.4199 141.2 38.5999 142.9Z" fill="#A1A2A2"/>
<path d="M141.46 152.73C135.56 152.93 128.34 157.22 126.73 165.31C125.12 173.4 128.96 184.26 140.63 184.08C152.3 183.9 156.45 173.2 155.46 166.18C154.47 159.16 147.36 152.52 141.46 152.73Z" fill="#A1A2A2"/>
<path d="M139.54 158.83C133.96 157.56 126.62 161.73 126.62 161.73C126.62 161.73 122.3 157.99 116.44 157.29C110.59 156.59 105.56 157.37 101.3 157C97.3298 156.66 89.1898 153.28 87.3598 156.24C85.6398 159.04 87.4998 162.58 93.7898 163.37C100.22 164.18 102.69 165.08 102.69 165.08C102.69 165.08 93.4598 166.43 91.0798 166.52C88.6998 166.61 85.4898 168.36 86.3198 170.56C86.3198 170.56 86.5398 173.79 92.5898 173.23C98.5298 172.69 103.61 172.34 103.61 172.34C103.61 172.34 99.5898 174.74 99.9398 176.9C100.42 179.93 103.33 180.2 103.33 180.2C103.33 180.2 102.37 182.54 103.49 184.58C104.61 186.62 107.5 186.52 109.78 185.84C112.06 185.16 115.34 183.18 115.34 183.18C115.34 183.18 121.71 184.58 124.69 182.62C127.67 180.65 128.78 178.53 128.78 178.53C128.78 178.53 140.68 181.45 144.08 178.89C147.49 176.34 149.92 173.75 148.75 167.65C147.58 161.55 145.12 160.1 139.54 158.83Z" fill="#F59BA7"/>
<path d="M103.8 180.68C106.78 180.53 109.72 179.95 112.52 178.94C112.92 178.79 113.19 178.4 113.07 177.97C112.96 177.58 112.5 177.27 112.1 177.42C109.43 178.39 106.64 178.97 103.8 179.11C102.79 179.16 102.79 180.73 103.8 180.68Z" fill="black"/>
<path d="M125.74 162.23C125.94 162.52 126.12 162.81 126.27 163.12C126.31 163.2 126.35 163.29 126.39 163.37C126.4 163.4 126.51 163.66 126.45 163.5C126.51 163.65 126.57 163.8 126.62 163.96C126.73 164.29 126.82 164.63 126.88 164.97C126.89 165.04 126.9 165.11 126.92 165.17C126.93 165.22 126.93 165.26 126.94 165.31C126.93 165.22 126.93 165.21 126.94 165.31C126.96 165.49 126.97 165.68 126.98 165.86C127 166.27 127.33 166.67 127.77 166.65C128.18 166.63 128.58 166.3 128.56 165.86C128.49 164.29 128 162.74 127.11 161.44C126.88 161.1 126.41 160.92 126.03 161.16C125.69 161.37 125.49 161.87 125.74 162.23Z" fill="black"/>
<path d="M103.48 173.43C104.5 173.08 105.52 172.72 106.54 172.37C106.93 172.23 107.23 171.82 107.09 171.4C106.97 171.02 106.54 170.7 106.12 170.85C105.1 171.2 104.08 171.56 103.06 171.91C102.67 172.05 102.37 172.46 102.51 172.88C102.63 173.26 103.06 173.57 103.48 173.43Z" fill="black"/>
<path d="M40.9299 147.56C45.8899 147.24 54.1699 147.9 54.1699 147.9C54.1699 147.9 57.6799 143.39 63.2899 141.57C68.8999 139.75 73.9799 139.53 78.0799 138.35C81.9099 137.24 89.2399 132.35 91.6099 134.9C93.8399 137.31 92.7099 141.15 86.6799 143.14C80.5299 145.18 78.2799 146.54 78.2799 146.54C78.2799 146.54 87.5999 146.07 89.9499 145.7C92.2999 145.32 95.7899 146.42 95.4099 148.74C95.4099 148.74 95.8199 151.95 89.7799 152.58C83.8499 153.2 78.7999 153.85 78.7999 153.85C78.7999 153.85 83.2099 155.43 83.2899 157.61C83.4099 160.68 80.5999 161.5 80.5999 161.5C80.5999 161.5 81.9899 163.61 81.2899 165.83C80.5899 168.05 77.7299 168.51 75.3599 168.29C72.9899 168.07 69.3899 166.76 69.3899 166.76C69.3899 166.76 62.9199 169.66 59.3699 169.26C55.3099 168.8 53.7399 167.59 53.7399 167.59C53.7399 167.59 48.9199 170.2 44.7699 170.66C40.6199 171.12 35.8399 169.78 34.3199 159.46C33.6199 154.59 35.9699 147.88 40.9299 147.56Z" fill="#F59BA7"/>
<path d="M53.7001 147.56C53.0401 149.1 52.8301 150.72 53.0801 152.37C53.1401 152.78 53.6801 153.04 54.0501 152.92C54.4901 152.78 54.6701 152.39 54.6001 151.95C54.5901 151.86 54.5801 151.85 54.6001 151.94C54.5901 151.89 54.5901 151.84 54.5801 151.79C54.5701 151.72 54.5701 151.64 54.5601 151.56C54.5501 151.38 54.5401 151.21 54.5401 151.03C54.5401 150.7 54.5601 150.38 54.6001 150.05C54.5801 150.21 54.6101 149.97 54.6101 149.96C54.6201 149.87 54.6401 149.79 54.6601 149.7C54.6901 149.54 54.7301 149.38 54.7701 149.22C54.8201 149.05 54.8701 148.88 54.9201 148.72C54.9401 148.65 54.9701 148.58 55.0001 148.51C55.0101 148.48 55.1201 148.21 55.0601 148.35C55.2201 147.97 55.1801 147.49 54.7801 147.27C54.4401 147.1 53.8701 147.16 53.7001 147.56Z" fill="black"/>
<path d="M74.6401 161.58C76.4701 161.74 78.3001 161.9 80.1301 162.06C80.5501 162.1 80.9201 161.67 80.9201 161.27C80.9201 160.81 80.5601 160.52 80.1301 160.48C78.3001 160.32 76.4701 160.16 74.6401 160C74.2201 159.96 73.8501 160.39 73.8501 160.79C73.8601 161.25 74.2201 161.54 74.6401 161.58Z" fill="black"/>
<path d="M76.2701 154.48C78.7101 154.13 81.1501 153.78 83.5901 153.43C84.0101 153.37 84.2401 152.83 84.1401 152.46C84.0201 152.01 83.5901 151.85 83.1701 151.91C80.7301 152.26 78.2901 152.61 75.8501 152.96C75.4301 153.02 75.2001 153.56 75.3001 153.93C75.4301 154.38 75.8501 154.54 76.2701 154.48Z" fill="black"/>
<path d="M46.2797 171.78C44.4497 173.05 42.5097 174.14 40.4597 175.02C39.9597 175.23 39.2897 175.49 38.7197 175.73C38.2997 175.9 37.8397 176.06 37.4797 176.33C37.1097 176.6 36.9297 177.06 37.1797 177.49C37.3897 177.85 37.9697 178.07 38.3397 177.79C38.4697 177.69 38.6197 177.61 38.7697 177.54C38.8697 177.49 38.9697 177.45 39.0597 177.41C38.8497 177.5 39.1997 177.35 39.2697 177.33C39.9597 177.05 40.6497 176.78 41.3297 176.49C43.3797 175.61 45.3197 174.52 47.1497 173.25C47.5297 172.99 47.6997 172.51 47.4497 172.09C47.2297 171.71 46.6597 171.51 46.2797 171.78Z" fill="#A1A2A2"/>
<path d="M150.04 183.77C147 183.43 143.96 183.05 140.93 182.63C140.48 182.57 140.02 182.74 139.89 183.22C139.78 183.62 140.03 184.2 140.48 184.26C143.66 184.7 146.85 185.1 150.04 185.46C150.5 185.51 150.89 185.03 150.89 184.61C150.89 184.12 150.5 183.82 150.04 183.77Z" fill="#A1A2A2"/>
<path d="M42.7599 134.45C42.1799 135.52 41.6199 136.59 41.0699 137.68C40.1799 139.43 39.2799 141.2 38.6299 143.05C38.4799 143.48 38.7999 143.98 39.2199 144.09C39.6899 144.22 40.1099 143.93 40.2599 143.5C40.8499 141.82 41.7199 140.12 42.5699 138.45C43.1099 137.4 43.6499 136.35 44.2199 135.32C44.7499 134.35 43.2899 133.49 42.7599 134.45Z" fill="#A1A2A2"/>
<path fill-rule="evenodd" clip-rule="evenodd" d="M135.52 87.85C135.52 87.85 129.36 80.6 129.91 70.3C129.9 69.5 129.91 68.69 129.96 67.85C131.04 47.7 159.88 33.92 177.06 52.16C194.24 70.38 177.22 103.24 149.16 96.83C147.75 96.51 145.92 95.87 143.94 94.82C141.83 96.5 138.12 98.34 133.01 96.63C131.93 96.27 131.63 94.87 132.48 94.11C134.55 92.24 135.52 87.85 135.52 87.85Z" fill="white"/>
<path fill-rule="evenodd" clip-rule="evenodd" d="M173.32 60.67L172.79 76.2801C172.75 77.5401 171.53 78.4101 170.33 78.0401C167.46 77.1701 163.94 76.3701 158.98 78.7501C152.49 81.9701 146.38 82.6001 141.51 81.0801C140.7 80.8301 140.17 80.0601 140.19 79.2101L140.49 65.49C140.52 64.26 141.67 63.39 142.86 63.67C145.16 64.21 148.67 64.6801 150.98 63.3401C154.58 61.2601 160 52.78 172.3 58.87C172.95 59.23 173.35 59.93 173.32 60.67Z" fill="#1B5229"/>
<path fill-rule="evenodd" clip-rule="evenodd" d="M175.69 63.36L175.16 78.98C175.12 80.24 173.9 81.11 172.7 80.74C169.83 79.87 166.31 79.07 161.35 81.45C154.86 84.67 148.75 85.3 143.88 83.78C143.07 83.53 142.54 82.76 142.56 81.91L142.86 68.19C142.89 66.96 144.04 66.09 145.23 66.37C147.53 66.91 151.04 67.38 153.35 66.04C156.95 63.96 162.37 55.48 174.67 61.57C175.32 61.92 175.71 62.63 175.69 63.36Z" fill="#0AA64B"/>
<path fill-rule="evenodd" clip-rule="evenodd" d="M156.7 83.3401C152.38 82.9901 148.99 79.6101 148.57 74.7101C148.34 71.9601 149.07 69.1801 150.52 66.8801C150.58 66.8701 150.64 66.8601 150.71 66.8601C150.82 66.8501 150.93 66.8301 151.04 66.8201C151.16 66.8001 151.28 66.7801 151.4 66.7601C151.55 66.7301 151.69 66.7001 151.83 66.6601C151.97 66.6201 152.1 66.5801 152.23 66.5401C152.33 66.5101 152.42 66.4801 152.52 66.4401C152.63 66.4001 152.75 66.3501 152.86 66.3001C152.9 66.2801 152.93 66.2701 152.96 66.2501C153.1 66.1901 153.23 66.1301 153.36 66.0601C155.13 65.0401 157.33 62.4501 160.6 60.8301C165.23 60.8701 168.95 64.3501 169.38 69.5101C169.72 73.3901 168.08 77.3101 165.34 79.9601C165.29 80.0201 165.25 80.0801 165.2 80.1401C164.01 80.3701 162.73 80.7901 161.33 81.4601C159.77 82.2301 158.22 82.8601 156.7 83.3401Z" fill="#0D7B3E"/>
<path fill-rule="evenodd" clip-rule="evenodd" d="M159.39 77.0101C161.97 76.3701 163.86 73.6501 163.65 70.9501C163.42 68.2401 161.14 66.5701 158.57 67.2101C156 67.8501 154.11 70.5601 154.33 73.2801C154.55 75.9801 156.82 77.6501 159.39 77.0101Z" fill="#0AA64B"/>
</g>
<defs>
<clipPath id="clip0_520_7017">
<rect width="200" height="200" fill="white"/>
</clipPath>
</defs>
</svg>
