<svg width="200" height="200" viewBox="0 0 200 200" fill="none" xmlns="http://www.w3.org/2000/svg">
<g clip-path="url(#clip0_520_7020)">
<path d="M100 200C155.228 200 200 155.228 200 100C200 44.7715 155.228 0 100 0C44.7715 0 0 44.7715 0 100C0 155.228 44.7715 200 100 200Z" fill="#A4E8F4"/>
<path d="M63.4501 102.05C35.5201 110.21 29.0501 132.21 24.3601 151.8C23.6501 155.62 22.9701 159.47 22.3501 163.01C40.6901 185.58 68.6601 200.01 100 200.01C123.69 200.01 145.45 191.77 162.58 178C161.51 173.39 159.29 167.07 158.12 161.46C147.43 110.2 107 89.3199 63.4501 102.05Z" fill="#EC6723"/>
<path d="M101.86 99.7399C92.8303 97.9799 83.2003 97.9699 73.3003 99.7399C83.5403 108.93 95.4803 124.94 100.02 151.54C101.58 160.69 105.27 182.07 106.32 199.8C115.61 199.22 124.56 197.37 132.99 194.43C129.32 172.01 118.97 127.4 109.06 110.69C106.57 106.48 104.16 102.85 101.86 99.7399Z" fill="#B2E1EE"/>
<path d="M122.4 119.04C125.23 121.87 127.88 124.88 130.29 128.08C131.45 129.62 132.56 131.2 133.62 132.81C133.84 133.14 134.4 133.72 134.38 134.15C134.36 134.51 133.91 134.87 133.68 135.09C132.9 135.82 131.99 136.39 131.05 136.88C129.85 137.51 130.91 139.33 132.11 138.7C133.72 137.85 136.33 136.36 136.47 134.29C136.54 133.2 135.82 132.32 135.25 131.45C134.57 130.43 133.87 129.42 133.15 128.42C130.35 124.56 127.25 120.92 123.89 117.55C122.93 116.59 121.44 118.07 122.4 119.04Z" fill="#FFC11E"/>
<path d="M100.12 173.48C95.41 170.13 91.34 165.92 88.15 161.1C87.4 159.98 85.58 161.03 86.33 162.16C89.73 167.29 94.04 171.73 99.06 175.29C100.17 176.09 101.22 174.26 100.12 173.48Z" fill="#FFC11E"/>
<path d="M129.59 73.1C129.59 73.1 134.9 78.33 136.72 89.64C138.54 100.95 137.14 112.85 123.14 110.5C123.15 110.5 136.18 101.24 129.59 73.1Z" fill="black"/>
<path d="M112.77 113C112.77 113 109.43 116.82 98.1899 113.91C86.9499 111 82.5699 103.23 82.5699 103.23C82.5699 103.23 88.6799 95.6699 84.6199 87.4799C84.6199 87.4799 79.6499 90.5699 76.1699 82.6499C72.6899 74.7299 76.3499 67.0499 81.0099 66.1399C85.6699 65.2299 90.4199 70.7199 88.6799 75.4199C88.6799 75.4199 92.4299 72.4499 91.9699 65.2299C91.5099 58.0099 91.5099 58.0099 91.5099 58.0099L99.4599 54.5399L114.84 51.7999L128.36 62.0299L128.54 69.6599C128.54 69.6599 133.88 84.5999 130.96 96.6099C128.04 108.62 119.04 114.08 112.77 113Z" fill="#F6A6AC"/>
<path d="M134.36 62.9499C134.51 70.0499 129.6 73.0999 129.6 73.0999L128.38 70.2999C128.01 72.0499 127.39 71.2399 123.96 70.8499C120.53 70.4699 117.49 70.0399 117.49 70.0399C117.49 70.0399 117.88 68.5399 117.85 62.8199C117.83 58.0199 115.87 54.3899 115.24 53.3599C117.19 56.7799 116.49 64.1499 115.51 67.1099C114.49 70.1699 112.23 68.7999 107.64 68.5399C104.74 68.3699 101.23 68.2799 99.0303 68.2299C98.0603 68.2099 97.4302 67.2399 97.7702 66.3299C98.8802 63.3299 99.2203 59.6599 99.3203 57.7499C98.8003 64.3299 93.4902 66.91 93.4902 66.91C93.2202 70.81 90.0003 74.1899 89.0003 75.1499C88.9403 75.2099 88.8802 75.2599 88.8402 75.2999C88.8202 75.3199 88.7903 75.3499 88.7803 75.3599C88.7603 75.3799 88.7502 75.3799 88.7402 75.3899C88.7102 75.4099 88.7002 75.4199 88.7002 75.4199C90.4302 70.7199 85.6802 65.2299 81.0302 66.1499C76.3702 67.0599 72.7203 74.74 76.1903 82.66C79.3803 89.94 83.8503 87.9199 84.5403 87.5299C84.6303 87.6299 84.7302 87.7599 84.8402 87.9299C84.8402 87.9299 84.8402 87.9299 84.8502 87.9399C88.4802 95.9499 82.5902 103.23 82.5902 103.23C73.5002 110.86 57.5903 103.6 56.4803 89.8899C55.3803 76.1799 58.6903 65.9999 67.9403 53.2399C77.1703 40.4899 89.9902 34.3099 109.09 37.7599C128.16 41.2199 134.2 55.8599 134.36 62.9499Z" fill="black"/>
<path d="M75.8802 70.9399C75.5802 71.6399 75.3302 72.3899 75.1402 73.1899C72.9902 74.2799 74.8602 75.8999 72.4702 76.6799C69.8302 77.5299 70.1802 72.7099 75.8802 70.9399Z" fill="#B3202D"/>
<path d="M98.35 73.5399C98.35 73.5399 95.16 72.8999 90.78 72.4799C90.2 72.4299 89.59 72.3699 88.97 72.3199C88.88 71.7599 88.71 71.1999 88.48 70.6699C89.53 70.7399 90.5 70.8199 91.38 70.8999C95.46 71.2599 97.68 71.6399 97.68 71.6399L98.35 73.5399Z" fill="#B3202D"/>
<path d="M104.61 73.1999C101.51 73.6999 102.77 76.3799 104.72 76.4899C106.67 76.5999 108.12 77.0699 108.86 77.4299C109.59 77.7999 111.06 78.1099 111.69 76.7699C112.43 75.1799 108.55 72.5599 104.61 73.1999Z" fill="white"/>
<path d="M122.42 76.57C120.4 77.25 120.46 79.66 122.74 79.69C125.02 79.72 126.21 80.2 127.07 80.57C127.93 80.93 128.75 80.42 128.87 79.16C129.03 77.53 125.39 75.57 122.42 76.57Z" fill="white"/>
<path d="M108.78 113.19C113.91 115.31 120.18 113.86 124.34 110.43C132.27 103.89 133.56 92.45 132.48 82.88C131.92 77.89 130.77 72.98 129.18 68.22C128.75 66.94 126.72 67.49 127.15 68.78C129.87 76.91 131.63 85.9 130.31 94.47C129.06 102.57 123.92 111.67 114.79 112C112.98 112.07 111.03 111.85 109.35 111.15C108.09 110.64 107.55 112.68 108.78 113.19Z" fill="black"/>
<path d="M131.78 71.7699C126 72.2799 121.06 76.7699 121.06 76.7699C119.31 74.9799 116.56 76.1699 116.56 76.1699C111.51 71.2299 102.12 68.4299 98.5103 68.3799C94.9103 68.3299 96.5603 74.8799 102.51 79.8799C108.46 84.8799 113.36 81.1699 113.36 81.1699C115.06 82.4299 116.01 78.8199 116.01 78.8199C118.8 77.1699 120.91 79.3199 120.91 79.3199C120.91 79.3199 120.91 79.9199 121.6 81.4199C122.3 82.9299 125.3 85.7199 128.8 82.8699C132.31 80.0199 137.56 71.2699 131.78 71.7699ZM113.32 79.6599C111.25 81.0199 106.97 80.9199 104.12 78.8299C101.27 76.7399 96.7003 69.7599 103.77 71.2799C110.84 72.7999 114.77 77.1299 114.77 77.1299C114.77 77.1299 115.39 78.2899 113.32 79.6599ZM131.82 76.0899C131.35 79.4699 126.49 84.5399 123.7 81.9299C123.7 81.9299 122.15 80.9599 121.9 79.3699C121.65 77.7799 122.98 76.7999 125.98 75.2499C128.97 73.7099 132.29 72.7099 131.82 76.0899Z" fill="#B3202D"/>
<path d="M115.79 87.9799C116.02 88.9299 116.83 89.6499 117.79 89.7799C118.29 89.8499 118.84 89.7699 119.28 89.5099C119.74 89.2299 119.94 88.7599 120.03 88.2499C120.1 87.8899 119.93 87.4799 119.54 87.3899C119.19 87.3099 118.75 87.4899 118.68 87.8799C118.67 87.9499 118.65 88.0199 118.64 88.0899C118.63 88.1299 118.57 88.2699 118.58 88.2999C118.62 88.2099 118.63 88.1799 118.61 88.2299C118.6 88.2499 118.59 88.2699 118.58 88.2899C118.57 88.3099 118.55 88.3399 118.54 88.3599C118.6 88.2799 118.62 88.2599 118.58 88.2999C118.57 88.3199 118.55 88.3299 118.53 88.3399C118.54 88.2999 118.64 88.2699 118.55 88.3099C118.53 88.3199 118.51 88.3299 118.49 88.3399C118.44 88.3599 118.46 88.3599 118.55 88.3199C118.53 88.3199 118.48 88.3399 118.46 88.3499C118.39 88.3699 118.29 88.3699 118.23 88.4099C118.33 88.3999 118.35 88.3899 118.3 88.3999C118.28 88.3999 118.25 88.3999 118.23 88.4099C118.2 88.4099 118.17 88.4099 118.13 88.4099C118.08 88.4099 118.04 88.4099 117.99 88.3999C117.86 88.3899 118.1 88.4199 118.01 88.3999C117.93 88.3799 117.86 88.3699 117.78 88.3399C117.76 88.3399 117.75 88.3299 117.73 88.3199C117.68 88.2999 117.7 88.3099 117.79 88.3499C117.76 88.3499 117.71 88.3099 117.68 88.2999C117.62 88.2699 117.56 88.2199 117.5 88.1899C117.43 88.1499 117.63 88.3099 117.52 88.2099C117.49 88.1899 117.47 88.1599 117.44 88.1399C117.41 88.1099 117.39 88.0899 117.36 88.0599C117.34 88.0399 117.27 87.9399 117.33 88.0299C117.4 88.1199 117.32 88.0199 117.31 87.9999C117.29 87.9699 117.27 87.9399 117.25 87.9099C117.23 87.8799 117.22 87.8499 117.2 87.8099C117.14 87.6999 117.24 87.9199 117.21 87.8399C117.18 87.7599 117.16 87.6899 117.14 87.6099C117.05 87.2499 116.63 87.0099 116.28 87.1199C115.91 87.2399 115.69 87.5999 115.79 87.9799Z" fill="black"/>
<path d="M118.67 88.2199C118.75 88.7699 119.11 89.2499 119.56 89.5499C120.06 89.8999 120.69 89.9799 121.28 89.8799C122.38 89.6999 123.18 88.6299 123.15 87.5299C123.14 87.1599 122.84 86.8099 122.45 86.8299C122.08 86.8499 121.74 87.1399 121.75 87.5299C121.75 87.5799 121.75 87.6199 121.75 87.6699C121.75 87.6899 121.75 87.6999 121.75 87.7199C121.74 87.7799 121.74 87.7799 121.75 87.7199C121.76 87.6599 121.76 87.6599 121.75 87.7199C121.75 87.7399 121.74 87.7499 121.74 87.7699C121.73 87.8199 121.72 87.8599 121.7 87.9099C121.7 87.9199 121.69 87.9399 121.69 87.9499C121.66 88.0199 121.67 88.0099 121.71 87.9099C121.72 87.9299 121.67 87.9999 121.66 88.0199C121.64 88.0499 121.62 88.0899 121.6 88.1199C121.59 88.1399 121.57 88.1599 121.56 88.1799C121.53 88.2199 121.54 88.2099 121.6 88.1299C121.58 88.1899 121.48 88.2599 121.44 88.2999C121.42 88.3199 121.41 88.3299 121.39 88.3499C121.35 88.3799 121.37 88.3699 121.44 88.3099C121.43 88.3399 121.36 88.3599 121.34 88.3799C121.31 88.3999 121.27 88.4199 121.23 88.4399C121.09 88.5199 121.37 88.3999 121.22 88.4499C121.13 88.4799 121.05 88.4999 120.96 88.5199C120.83 88.5399 120.93 88.4999 120.98 88.5199C120.96 88.5099 120.86 88.5299 120.83 88.5299C120.79 88.5299 120.75 88.5299 120.71 88.5299C120.58 88.5199 120.69 88.4999 120.73 88.5299C120.71 88.5099 120.61 88.5099 120.59 88.4999C120.55 88.4899 120.51 88.4699 120.46 88.4599C120.38 88.4399 120.56 88.5199 120.45 88.4499C120.4 88.4199 120.36 88.3999 120.31 88.3699C120.2 88.3099 120.38 88.4399 120.32 88.3799C120.29 88.3499 120.26 88.3299 120.23 88.2999C120.22 88.2899 120.13 88.2099 120.14 88.1999C120.2 88.2799 120.21 88.2899 120.18 88.2499C120.17 88.2299 120.15 88.2099 120.14 88.1899C120.12 88.1599 120.1 88.1199 120.08 88.0899C120.02 87.9799 120.09 88.0699 120.09 88.1099C120.09 88.0899 120.06 87.9999 120.05 87.9799C120.04 87.9399 120.03 87.8899 120.03 87.8399C120.01 87.6799 119.84 87.4999 119.71 87.4199C119.56 87.3299 119.34 87.2899 119.17 87.3499C119 87.3999 118.84 87.5099 118.75 87.6699C118.65 87.8599 118.64 88.0199 118.67 88.2199Z" fill="black"/>
<path d="M123.16 87.2999C122.71 84.4199 122.18 81.5499 121.55 78.6999C121.36 77.8199 120 78.1899 120.2 79.0699C120.82 81.9199 121.36 84.7799 121.81 87.6699C121.87 88.0499 122.34 88.2499 122.67 88.1599C123.07 88.0599 123.22 87.6799 123.16 87.2999Z" fill="black"/>
<path d="M102.85 70.3099C104.23 69.3699 105.94 68.9899 107.58 69.3999C109.29 69.8299 110.71 70.9599 112.02 72.0799C112.45 72.4499 113.09 72.4999 113.51 72.0799C113.89 71.6999 113.94 70.9599 113.51 70.5899C111.88 69.1999 110.1 67.8099 107.97 67.3299C105.86 66.8499 103.58 67.2699 101.79 68.4899C101.32 68.8099 101.11 69.4199 101.41 69.9299C101.69 70.3999 102.38 70.6299 102.85 70.3099Z" fill="black"/>
<path d="M121.26 73.11C122.06 72.1 123.13 71.13 124.47 71.1C125.76 71.07 126.73 72.01 127.62 72.91C128.58 73.87 130.07 72.38 129.11 71.42C127.85 70.15 126.36 68.95 124.47 68.99C122.56 69.04 120.92 70.17 119.77 71.62C119.42 72.07 119.34 72.67 119.77 73.11C120.14 73.48 120.91 73.56 121.26 73.11Z" fill="black"/>
<path d="M104.27 76.72C105.63 76.72 105.63 74.61 104.27 74.61C102.91 74.62 102.91 76.72 104.27 76.72Z" fill="black"/>
<path d="M122.91 79.7799C124.27 79.7799 124.27 77.6699 122.91 77.6699C121.56 77.6799 121.56 79.7799 122.91 79.7799Z" fill="black"/>
<path d="M97.22 90.3C99.8 90.63 102.24 88.99 103.06 86.56C103.18 86.2 102.92 85.79 102.57 85.7C102.19 85.59 101.83 85.83 101.71 86.19C101.43 87.02 100.84 87.8 100.11 88.28C99.24 88.85 98.26 89.04 97.23 88.9C96.85 88.85 96.53 89.26 96.53 89.6C96.52 90.02 96.85 90.25 97.22 90.3Z" fill="black"/>
<path d="M101.17 88.01C101.17 88.01 106.28 93.35 115.83 95.04C115.83 95.04 114.64 102.24 107.26 101.18C99.8801 100.12 99.3501 89.8 99.3501 89.8L101.17 88.01Z" fill="black"/>
<path d="M112.32 94.2C111.4 96.96 108.95 96.61 106.14 94.64C103.88 93.05 102.86 90.34 102.52 89.2C104.23 90.56 107.54 92.78 112.32 94.2Z" fill="white"/>
<path d="M107.87 101.23C107.68 101.22 107.47 101.2 107.26 101.17C102.22 100.44 100.37 95.4099 99.71 92.2899C101.17 92.6799 103.41 93.5299 105.01 95.2999C106.96 97.4399 107.65 100.06 107.87 101.23Z" fill="#F27D83"/>
<path d="M112.67 103.92C111.07 104.67 109.23 104.94 107.49 104.67C107.12 104.61 106.74 104.76 106.63 105.16C106.54 105.49 106.74 105.97 107.12 106.02C109.27 106.35 111.41 106.05 113.39 105.13C113.73 104.97 113.82 104.48 113.64 104.17C113.43 103.82 113.02 103.76 112.67 103.92Z" fill="black"/>
<path d="M81.56 80.07C81.68 80.05 81.48 80.04 81.47 80.03C81.4 80 81.35 79.95 81.29 79.9C81.18 79.78 81.1 79.58 81.07 79.37C81 78.82 81.16 78.22 81.32 77.7C81.63 76.73 82.26 75.95 83.26 75.8C83.64 75.74 83.84 75.27 83.75 74.94C83.64 74.54 83.26 74.39 82.89 74.45C81.27 74.69 80.23 76.2 79.86 77.69C79.66 78.48 79.53 79.38 79.83 80.16C80.18 81.04 80.99 81.54 81.92 81.42C82.3 81.37 82.5 80.89 82.41 80.56C82.32 80.15 81.94 80.02 81.56 80.07Z" fill="black"/>
<path d="M81.38 71.2799C81.49 71.3199 81.65 71.6699 81.72 71.7699C81.85 71.9599 81.97 72.1599 82.09 72.3499C82.29 72.6999 82.48 73.0499 82.64 73.4199C82.98 74.2099 83.22 75.08 83.26 75.94C83.3 76.74 83.19 77.5399 82.91 78.2899C82.69 78.8699 82.22 79.8899 81.56 80.0599C80.69 80.2899 81.06 81.65 81.93 81.41C82.94 81.14 83.63 80.0899 84.04 79.1899C84.5 78.17 84.72 77.0499 84.66 75.9299C84.6 74.7799 84.29 73.67 83.81 72.62C83.38 71.67 82.76 70.32 81.75 69.91C81.4 69.76 80.98 70.0699 80.89 70.3999C80.77 70.8099 81.03 71.1299 81.38 71.2799Z" fill="black"/>
<path d="M85.0599 85.77C85.0399 85.8 84.9299 86 85.0299 85.83C84.9999 85.88 84.9399 85.93 84.8999 85.98C84.8199 86.07 84.7199 86.19 84.6099 86.25C84.7799 86.16 84.5899 86.26 84.5499 86.29C84.4899 86.33 84.4399 86.36 84.3799 86.4C84.2699 86.46 84.1599 86.52 84.0499 86.57C83.9999 86.59 84.0199 86.58 84.0999 86.55C84.0599 86.56 84.0299 86.58 83.9899 86.59C83.9199 86.62 83.8399 86.64 83.7699 86.66C83.6199 86.7 83.4699 86.74 83.3199 86.77C83.2399 86.79 83.1699 86.8 83.0899 86.81C83.0499 86.82 83.0099 86.82 82.9799 86.83C83.0699 86.82 83.0799 86.82 82.9899 86.83C82.8399 86.85 82.6799 86.86 82.5299 86.87C82.1599 86.89 81.8099 87.18 81.8299 87.57C81.8499 87.93 82.1399 88.3 82.5299 88.27C83.2999 88.22 84.0499 88.09 84.7599 87.78C85.3799 87.51 85.9199 87.05 86.2799 86.48C86.4799 86.17 86.3499 85.69 86.0299 85.52C85.6699 85.33 85.2699 85.44 85.0599 85.77Z" fill="black"/>
<path d="M93.6902 142.04C94.1102 131.54 94.0402 123.96 95.2802 119.98C96.5202 116.01 95.9102 112.16 92.1602 111.68C88.4002 111.2 85.0602 117.25 84.4202 122.01L51.8302 121.09C51.8302 121.09 48.5002 113.42 44.9902 110.24C41.4902 107.06 38.9502 112.62 40.8602 117.24C42.7802 121.85 43.7202 125.83 43.7202 125.83C43.7202 125.83 40.7002 130.28 41.6502 133.46C42.6102 136.63 44.2002 136.8 44.2002 136.8C44.2002 136.8 42.6102 139.03 43.4102 142.04C44.2002 145.07 45.7902 145.38 45.7902 145.38C45.7902 145.38 44.0502 147.13 46.7502 152.38C49.4502 157.62 48.6002 157.98 58.8802 159.82L50.4602 186.88C60.8602 192.82 72.4302 196.96 84.7402 198.84L89.7702 156.94C89.7502 156.94 93.2602 152.53 93.6902 142.04Z" fill="#F6A6AC"/>
<path d="M53.41 148.33C52.09 137.52 49.08 112.13 48.31 98.3199C48.14 95.3599 50.47 92.8599 53.44 92.7899L79.53 92.1899C82.43 92.1199 84.84 94.4199 84.9 97.3199C85.13 107.54 85.65 130.43 86.08 145.33C86.16 148.09 84.09 150.43 81.35 150.7L59.15 152.91C56.3 153.2 53.76 151.16 53.41 148.33Z" fill="#024758"/>
<path d="M52.2502 100.75C53.0002 109.04 55.1602 132.63 56.4902 143.17C56.7102 144.9 58.2702 146.13 60.0002 145.95L79.3202 143.93C80.9802 143.76 82.2302 142.34 82.1902 140.67C81.9902 132.54 81.4302 109.78 81.3802 100.08C81.3702 98.38 80.0402 96.99 78.3302 96.91C73.1302 96.67 62.4002 96.34 55.0402 97.29C53.3302 97.5 52.0902 99.02 52.2502 100.75Z" fill="#B2E1EE"/>
<path d="M45.3803 137.09C46.7403 136.78 48.0403 136.23 49.2003 135.45C50.2903 134.71 51.4503 133.75 52.0203 132.53C53.3203 129.73 52.0503 126.47 50.8903 123.87C50.5203 123.05 49.3103 123.76 49.6803 124.58C50.6403 126.72 51.8903 129.7 50.7303 132C50.2403 132.97 49.2303 133.77 48.3403 134.35C47.3203 135.01 46.2103 135.47 45.0303 135.73C44.1303 135.94 44.5003 137.29 45.3803 137.09Z" fill="black"/>
<path d="M50.9103 134.19C51.9403 135.68 52.1603 137.55 51.8503 139.3C51.7003 140.16 51.4903 141.2 50.9803 141.93C50.5203 142.58 49.7103 142.89 48.9903 143.17C48.1603 143.49 48.5203 144.85 49.3603 144.52C50.3003 144.16 51.2903 143.76 51.9403 142.96C52.6403 142.11 52.9603 140.9 53.1703 139.84C53.5803 137.68 53.4003 135.32 52.1203 133.47C51.6103 132.74 50.3903 133.44 50.9103 134.19Z" fill="black"/>
<path d="M50.7901 143.89C51.4201 144.15 52.0701 144.44 52.4501 145.04C52.8101 145.62 52.9801 146.32 53.0101 146.99C53.0601 148.35 52.5502 149.67 51.5802 150.63C50.9402 151.27 51.9301 152.26 52.5701 151.62C53.8401 150.36 54.5401 148.54 54.3901 146.75C54.3201 145.85 54.0801 144.92 53.5501 144.17C52.9601 143.32 52.0801 142.91 51.1601 142.53C50.8101 142.38 50.3901 142.69 50.3001 143.02C50.1901 143.43 50.4401 143.74 50.7901 143.89Z" fill="black"/>
<path d="M67.19 158.99C64.7 159.03 62.2 159.07 59.71 159.12C58.81 159.14 58.8 160.54 59.71 160.52C62.2 160.48 64.7 160.44 67.19 160.39C68.09 160.38 68.09 158.98 67.19 158.99Z" fill="black"/>
<path d="M130.59 138.36C134.3 143.56 137.83 149.52 137.75 156.08C137.68 162.14 136.07 168.18 132.47 173.11C131.67 174.21 133.5 175.26 134.29 174.17C138.1 168.96 139.78 162.48 139.86 156.08C139.94 149.13 136.35 142.81 132.41 137.3C131.63 136.21 129.8 137.26 130.59 138.36Z" fill="#FFC11E"/>
<path d="M77.0099 140.5C87.2879 140.5 95.6199 132.168 95.6199 121.89C95.6199 111.612 87.2879 103.28 77.0099 103.28C66.7319 103.28 58.3999 111.612 58.3999 121.89C58.3999 132.168 66.7319 140.5 77.0099 140.5Z" fill="white"/>
<path d="M178.74 161.65C178.7 160.6 178.66 159.53 178.62 158.39C178.31 149.43 177.42 138.98 177.42 138.98C180.64 135.59 181.82 136.66 186.71 125.06C191.74 113.14 189.88 109.51 187.05 108.54C185.21 107.92 183.42 110.5 182.71 112.52C181.34 116.4 179.93 121.18 179.93 121.18C181.26 115.11 182.19 109.26 181.84 104.96C181.37 99.2299 179.91 96.4599 177.73 96.8499C174.47 97.4399 175.31 100.11 175.32 104.06C175.33 108.55 174.15 114.95 174.15 114.95C173.54 104.78 170.75 93.0599 166.94 94.4699C164.39 95.4199 163.75 97.6199 165.05 102.36C166.36 107.1 166.41 113.54 166.41 113.54C166.41 113.54 162.65 108.88 156.6 110.81C150.55 112.73 149.41 119.16 149.62 120.99C149.8 122.54 150.39 126.11 153.27 125.86C153.53 125.8 153.78 125.75 154.01 125.71C157.24 124.75 155.39 119.68 160.26 119.37C163.31 119.18 168.68 125.39 164.57 130.52C164.57 130.52 161.83 129.97 159.56 131.36C159.56 131.36 157 125.22 154.16 125.69C154.11 125.7 154.06 125.71 154.01 125.72C153.96 125.73 153.93 125.75 153.88 125.77C153.66 125.82 153.46 125.86 153.27 125.87C152.17 126.15 151 126.79 150.61 128.94C150.29 130.65 151.27 134.76 153 137.54C153.86 138.93 157.29 141.52 157.29 141.52C157.29 141.52 150.97 170.53 148.87 187.28C160.45 180.75 170.6 172.03 178.74 161.65Z" fill="#F6A6AC"/>
<path d="M154.03 125.69C153.79 125.73 153.54 125.78 153.29 125.84C153.48 125.82 153.69 125.79 153.9 125.74C153.95 125.73 153.98 125.71 154.03 125.69Z" fill="#A4E8F4"/>
<path d="M170.39 116.51C173.85 117.56 176.95 119.75 179.05 122.71C179.32 123.08 179.79 123.26 180.22 123.02C180.59 122.8 180.79 122.23 180.53 121.85C178.16 118.52 174.77 116.05 170.85 114.87C169.79 114.55 169.34 116.2 170.39 116.51Z" fill="black"/>
<path d="M152.93 126.85C154.42 126.32 155.68 127.34 156.56 128.45C157.52 129.65 158.29 131.01 158.96 132.39C159.15 132.78 159.77 132.94 160.13 132.7C162.63 131 166.12 131.52 168.03 133.85C168.73 134.7 169.93 133.49 169.24 132.64C166.87 129.76 162.35 129.13 159.27 131.23C159.66 131.33 160.05 131.43 160.44 131.54C159.07 128.74 156.37 123.82 152.48 125.22C151.45 125.57 151.89 127.22 152.93 126.85Z" fill="black"/>
<path fill-rule="evenodd" clip-rule="evenodd" d="M89.2001 119.88C88.8201 117.36 86.6001 115.63 84.0301 115.92L71.4801 116.93C71.0201 116.97 70.6201 116.62 70.5901 116.17C70.5501 115.71 70.9001 115.31 71.3501 115.27L84.0701 114.24C83.8601 112.62 82.4701 110.94 80.8801 110.82C77.0901 110.47 73.3601 110.77 69.6801 111.73C67.6401 112.23 66.2301 114.4 66.0601 116.47C65.7901 120.44 66.1101 124.37 67.0101 128.23C67.5101 130.33 69.7201 132.22 71.9001 132.29C76.5901 132.49 81.2401 132.11 85.7501 131.17C87.8001 130.76 89.0101 128.76 89.2501 126.69C89.4701 124.38 89.4601 122.08 89.2001 119.88ZM85.3001 123L85.3601 123.74C85.4001 124.2 85.0501 124.6 84.6001 124.64C84.1401 124.68 83.7401 124.33 83.7101 123.88L83.6501 123.14C83.3701 122.94 83.1901 122.62 83.1601 122.25C83.1001 121.56 83.6101 120.96 84.3001 120.91C84.9901 120.85 85.5901 121.36 85.6401 122.05C85.6701 122.41 85.5401 122.75 85.3001 123Z" fill="#4AA8D3"/>
</g>
<defs>
<clipPath id="clip0_520_7020">
<rect width="200" height="200" fill="white"/>
</clipPath>
</defs>
</svg>
