<svg width="200" height="145" viewBox="0 0 200 145" fill="none" xmlns="http://www.w3.org/2000/svg">
<g clip-path="url(#clip0_240_387)">
<path d="M35.7839 138.858C28.6939 131.478 30.1739 121.608 32.6639 105.648C36.5039 81.0381 52.5339 51.1281 74.9839 44.0581C99.0239 36.4781 117.204 35.2781 133.544 40.4881C161.894 49.5381 185.024 64.2681 194.044 95.5081C200.064 116.338 200.004 144.768 200.004 144.768H43.8039C43.8039 144.768 39.3139 142.538 35.7839 138.858Z" fill="#E7E6E6"/>
<path d="M137.814 40.7481L130.714 41.2981L115.554 75.6481C115.554 75.6481 120.094 83.4581 129.854 82.0181C139.614 80.5781 139.394 67.1381 139.704 61.0481C140.144 52.2881 137.814 40.7481 137.814 40.7481Z" fill="#A1A2A2"/>
<path d="M87.6639 64.6081C87.5539 70.4881 88.7739 79.8081 96.4339 81.6981C104.094 83.5881 109.194 78.4781 109.194 78.4781L104.204 62.3881L87.6639 64.6081Z" fill="#A1A2A2"/>
<path d="M141.604 32.0481C141.604 32.0481 143.364 21.2781 137.454 12.0581C131.174 2.25809 120.854 -1.55191 105.614 0.568089C90.3739 2.68809 84.1239 13.7381 81.5039 23.6281L123.054 30.4281L120.304 48.0781L130.134 47.9681L141.604 32.0481Z" fill="black"/>
<path d="M132.184 36.6281C132.184 36.6281 133.694 29.8081 137.894 28.9881C142.094 28.1781 143.634 30.9881 143.074 35.8181C142.514 40.6481 138.984 45.3681 134.024 44.0881C134.024 44.0881 132.014 51.3981 129.514 57.1281C126.234 64.6281 121.154 73.3881 111.494 82.4481L103.104 76.0581C103.104 76.0581 87.7139 76.0181 80.3239 61.4781C72.9339 46.9381 82.3639 23.6681 82.3639 23.6681C82.3639 23.6681 85.0739 15.8281 90.8539 13.4181C96.6339 11.0081 95.7039 14.8981 99.4839 16.4881C103.264 18.0781 111.764 14.8281 114.804 12.3881C117.844 9.94809 122.634 10.7481 124.574 13.3181C126.514 15.8881 126.044 19.5181 124.684 22.2581C123.324 24.9981 126.984 27.5281 127.114 29.1781C127.244 30.8281 125.834 37.0381 124.294 42.6681C122.754 48.2881 124.244 48.2481 127.224 47.6281C130.184 47.0281 130.104 43.4881 132.184 36.6281Z" fill="#F4A5AB"/>
<path d="M101.924 40.3181C101.904 40.4181 101.874 40.5281 101.844 40.6281C101.794 40.7781 101.814 40.6381 101.854 40.6181C101.844 40.6181 101.784 40.7581 101.774 40.7681C101.744 40.8181 101.714 40.8681 101.684 40.9181C101.674 40.9381 101.574 41.0781 101.644 40.9781C101.714 40.8781 101.614 41.0081 101.594 41.0281C101.554 41.0681 101.514 41.1081 101.474 41.1581C101.444 41.1881 101.404 41.2281 101.364 41.2581C101.234 41.3681 101.344 41.2481 101.374 41.2581C101.354 41.2481 101.134 41.4081 101.104 41.4281C101.074 41.4481 101.014 41.4881 100.974 41.4881C101.074 41.4481 101.094 41.4381 101.034 41.4581C101.004 41.4681 100.984 41.4781 100.954 41.4881C100.904 41.5081 100.864 41.5181 100.814 41.5281C100.794 41.5381 100.574 41.5781 100.674 41.5581C100.784 41.5481 100.584 41.5581 100.564 41.5581C100.544 41.5581 100.394 41.5381 100.374 41.5481C100.414 41.5181 100.544 41.5781 100.394 41.5481C100.344 41.5381 100.304 41.5281 100.254 41.5181C100.214 41.5081 100.134 41.4581 100.094 41.4581C100.164 41.4581 100.214 41.5181 100.104 41.4581C100.064 41.4381 100.024 41.4081 99.9839 41.3881C99.9439 41.3681 99.7839 41.2881 99.9639 41.3781C99.8839 41.3381 99.8139 41.2481 99.7539 41.1881C99.7239 41.1481 99.6639 41.1081 99.6439 41.0581C99.7239 41.2281 99.6639 41.0781 99.6339 41.0381C99.5939 40.9781 99.5039 40.8581 99.4939 40.7881C99.5339 40.8881 99.5439 40.9081 99.5239 40.8481C99.5139 40.8181 99.5039 40.7981 99.4939 40.7681C99.4739 40.7181 99.4639 40.6581 99.4539 40.5981C99.3539 40.1881 98.8639 39.9081 98.4639 40.0381C98.0339 40.1781 97.7939 40.5881 97.9039 41.0281C98.1939 42.2881 99.4439 43.2981 100.754 43.1681C102.064 43.0281 103.204 42.0581 103.484 40.7581C103.574 40.3481 103.364 39.8681 102.924 39.7681C102.504 39.6681 102.014 39.8781 101.924 40.3181Z" fill="black"/>
<path d="M97.984 40.3781C97.854 40.5981 97.7139 40.7981 97.5739 41.0081C97.5239 41.0881 97.6539 40.9081 97.5639 41.0281C97.5239 41.0781 97.4839 41.1281 97.4339 41.1781C97.3939 41.2281 97.3439 41.2681 97.2939 41.3181C97.2739 41.3281 97.1439 41.4481 97.2239 41.3781C97.3139 41.3081 97.1639 41.4181 97.1439 41.4281C97.0839 41.4681 97.0139 41.4981 96.9539 41.5281C97.0839 41.4581 96.8939 41.5481 96.8639 41.5581C96.7939 41.5781 96.7239 41.5981 96.6439 41.6181C96.5239 41.6481 96.3939 41.6681 96.2739 41.6981C96.0839 41.7381 96.3639 41.6981 96.1839 41.7081C96.1039 41.7081 96.0339 41.7081 95.9539 41.7081C95.8039 41.7081 95.9939 41.7281 95.9239 41.7081C95.8639 41.6881 95.8039 41.6681 95.7539 41.6581C95.6639 41.6381 95.8839 41.7281 95.7539 41.6581C95.7039 41.6281 95.6539 41.5981 95.5939 41.5681C95.4339 41.4681 95.7039 41.6781 95.5639 41.5481C95.5239 41.5181 95.4939 41.4781 95.4539 41.4481C95.4339 41.4281 95.3139 41.2781 95.3839 41.3681C95.4539 41.4681 95.3539 41.3181 95.3439 41.2981C95.3139 41.2481 95.2839 41.1881 95.2539 41.1381C95.3339 41.2781 95.2439 41.0981 95.2339 41.0681C95.2139 41.0081 95.2039 40.9581 95.1939 40.8981C95.1739 40.8281 95.1739 40.7481 95.1839 40.8681C95.1739 40.7281 95.1739 40.5881 95.1839 40.4381C95.1939 40.2681 95.1439 40.5481 95.1939 40.3681C95.2139 40.2981 95.2239 40.2281 95.2439 40.1581C95.3539 39.7481 95.1039 39.2681 94.6839 39.1681C94.2639 39.0681 93.8139 39.2981 93.6939 39.7281C93.4839 40.4981 93.5239 41.3481 93.9239 42.0481C94.2639 42.6581 94.8939 43.1481 95.5939 43.2681C96.3639 43.3981 97.3439 43.2081 98.0039 42.7581C98.5939 42.3581 98.9939 41.7781 99.3539 41.1681C99.5739 40.8081 99.4439 40.2681 99.0639 40.0681C98.6939 39.8781 98.214 39.9881 97.984 40.3781Z" fill="black"/>
<path d="M95.2739 39.9681C95.4639 37.2281 96.2639 34.5781 97.0339 31.9581C97.3339 30.9581 95.7739 30.5381 95.4839 31.5281C94.6639 34.2981 93.8639 37.0781 93.6639 39.9681C93.6339 40.3981 94.0539 40.7781 94.4739 40.7781C94.9339 40.7781 95.2439 40.4081 95.2739 39.9681Z" fill="black"/>
<path d="M115.874 23.2381C114.654 21.6581 112.974 20.6681 110.974 20.4981C109.084 20.3381 107.144 21.1281 105.814 22.4681C105.304 22.9781 105.264 23.9081 105.814 24.4081C106.364 24.9081 107.214 24.9481 107.754 24.4081C107.874 24.2881 107.994 24.1781 108.124 24.0681C108.204 23.9981 108.254 23.9681 108.144 24.0481C108.214 23.9981 108.284 23.9481 108.354 23.9081C108.514 23.8081 108.674 23.7081 108.844 23.6281C108.914 23.5881 108.994 23.5581 109.074 23.5181C109.254 23.4281 108.894 23.5681 109.094 23.5081C109.414 23.4181 109.734 23.3281 110.054 23.2481C110.254 23.1981 109.854 23.2581 110.064 23.2481C110.144 23.2481 110.234 23.2381 110.314 23.2281C110.504 23.2181 110.694 23.2181 110.874 23.2281C110.954 23.2381 111.034 23.2381 111.114 23.2481C110.984 23.2381 110.974 23.2281 111.114 23.2481C111.274 23.2781 111.434 23.3181 111.584 23.3581C111.744 23.3981 111.894 23.4581 112.044 23.5081C111.914 23.4681 111.944 23.4581 112.054 23.5181C112.124 23.5581 112.204 23.5881 112.274 23.6281C112.414 23.7081 112.554 23.7881 112.694 23.8781C112.784 23.9281 112.864 23.9981 112.944 24.0481C113.114 24.1581 112.814 23.9181 112.954 24.0581C113.074 24.1681 113.194 24.2681 113.314 24.3881C113.374 24.4481 113.424 24.5081 113.484 24.5681C113.514 24.6081 113.694 24.8181 113.544 24.6181C113.984 25.1881 114.744 25.5481 115.414 25.1081C115.934 24.7581 116.334 23.8481 115.874 23.2381Z" fill="black"/>
<path d="M94.9839 22.9581C93.6539 21.8381 91.9939 21.1581 90.2339 21.1681C88.4739 21.1781 86.8239 21.8681 85.5039 22.9981C84.9639 23.4681 84.9839 24.4581 85.5039 24.9381C86.0839 25.4681 86.8639 25.4381 87.4439 24.9381C87.5039 24.8881 87.5739 24.8281 87.6339 24.7781C87.5239 24.8681 87.5239 24.8581 87.6539 24.7681C87.7939 24.6781 87.9339 24.5881 88.0739 24.4981C88.2039 24.4281 88.3239 24.3581 88.4639 24.2981C88.5239 24.2681 88.5739 24.2481 88.6339 24.2181C88.4939 24.2781 88.5039 24.2781 88.6539 24.2181C88.9739 24.1181 89.2839 24.0281 89.6139 23.9581C89.9039 23.8881 89.4139 23.9581 89.7439 23.9381C89.9139 23.9281 90.0739 23.9181 90.2439 23.9081C90.4139 23.9081 90.5739 23.9181 90.7439 23.9281C91.1339 23.9481 90.4839 23.8681 90.8739 23.9381C91.2039 23.9981 91.5239 24.0781 91.8339 24.1881C91.9039 24.2081 92.1839 24.3381 91.9639 24.2381C92.1139 24.3081 92.2639 24.3781 92.4039 24.4681C92.5439 24.5481 92.6939 24.6381 92.8239 24.7281C92.8939 24.7781 92.9639 24.8281 93.0239 24.8781C92.9139 24.7881 92.9139 24.7981 93.0339 24.8981C93.5839 25.3581 94.4439 25.4781 94.9739 24.8981C95.4539 24.3881 95.5739 23.4481 94.9839 22.9581Z" fill="black"/>
<path d="M111.274 73.8381C106.314 74.8781 100.904 74.4281 96.0739 72.9981C91.2339 71.5681 86.7239 68.2781 83.3939 64.5181C79.3839 59.9781 78.1939 53.1881 78.2439 47.2981C78.2739 43.9081 78.7539 40.5581 79.3939 37.2281C79.8539 34.8281 80.2939 32.3881 81.0139 30.0581C82.4839 25.2681 84.3839 20.3681 87.0839 16.1281C88.0339 14.6381 85.6639 13.2581 84.7139 14.7481C82.0139 18.9881 80.1239 23.8781 78.5839 28.6481C77.8539 30.9081 77.4039 33.2481 76.9339 35.5681C76.2139 39.1181 75.6339 42.7181 75.5139 46.3481C75.3139 52.5981 76.4239 59.8481 80.2539 64.9781C82.0539 67.3881 84.3339 69.3381 86.7339 71.1281C88.9039 72.7481 91.0939 74.1481 93.6539 75.0781C99.3639 77.1781 106.034 77.7281 112.004 76.4781C113.734 76.1181 113.004 73.4781 111.274 73.8381Z" fill="black"/>
<path d="M109.384 66.0381C106.564 67.4281 103.274 67.5981 100.314 66.5881C99.3339 66.2481 98.9139 67.8081 99.8839 68.1381C103.264 69.2981 107.004 69.0081 110.194 67.4281C111.134 66.9681 110.314 65.5781 109.384 66.0381Z" fill="black"/>
<path d="M139.154 33.5281C137.644 33.6181 136.174 34.4981 135.504 35.8781C134.814 37.2981 134.924 39.0881 135.884 40.3581C136.144 40.7081 136.574 40.8881 136.984 40.6481C137.324 40.4481 137.534 39.8981 137.274 39.5481C137.184 39.4381 137.104 39.3181 137.034 39.1881C136.994 39.1181 136.954 39.0381 136.914 38.9581C136.904 38.9381 136.854 38.8381 136.894 38.9181C136.834 38.7681 136.784 38.6181 136.744 38.4681C136.724 38.3981 136.714 38.3281 136.694 38.2581C136.664 38.1281 136.684 38.2481 136.684 38.1781C136.624 37.6381 136.684 37.0981 136.894 36.6981C137.024 36.4481 137.144 36.2481 137.274 36.1081C137.364 36.0081 137.464 35.9081 137.564 35.8181C137.564 35.8181 137.714 35.6881 137.674 35.7181C137.624 35.7581 137.774 35.6481 137.794 35.6381C137.904 35.5581 138.024 35.4881 138.144 35.4281C138.214 35.3881 138.294 35.3481 138.364 35.3181C138.264 35.3581 138.404 35.3081 138.444 35.2981C138.574 35.2581 138.704 35.2181 138.844 35.1881C138.914 35.1781 138.974 35.1581 139.044 35.1481C138.904 35.1681 139.134 35.1481 139.154 35.1481C139.584 35.1181 139.964 34.7981 139.964 34.3381C139.964 33.9181 139.594 33.4981 139.154 33.5281Z" fill="black"/>
<path d="M106.904 45.8081C105.994 47.7881 106.614 50.1681 108.394 51.4481C108.734 51.6981 109.304 51.5181 109.494 51.1581C109.714 50.7381 109.574 50.3181 109.204 50.0581C109.084 49.9681 109.264 50.1181 109.194 50.0481C109.154 50.0181 109.114 49.9781 109.074 49.9481C109.004 49.8881 108.934 49.8181 108.874 49.7581C108.814 49.6881 108.754 49.6181 108.694 49.5481C108.814 49.6781 108.714 49.5781 108.694 49.5381C108.664 49.4981 108.634 49.4581 108.604 49.4081C108.494 49.2381 108.414 49.0681 108.324 48.8981C108.274 48.7981 108.394 49.0781 108.324 48.8881C108.314 48.8481 108.294 48.8081 108.284 48.7681C108.254 48.6681 108.224 48.5681 108.194 48.4681C108.174 48.3781 108.154 48.2881 108.134 48.1981C108.134 48.1781 108.104 48.0481 108.104 48.0481C108.104 48.0481 108.124 48.2181 108.114 48.0781C108.094 47.8781 108.094 47.6881 108.104 47.4881C108.104 47.4381 108.114 47.3881 108.114 47.3381C108.124 47.1781 108.094 47.4381 108.114 47.3381C108.134 47.2481 108.144 47.1581 108.164 47.0681C108.184 46.9681 108.214 46.8681 108.254 46.7681C108.264 46.7281 108.284 46.6881 108.294 46.6481C108.364 46.4481 108.224 46.7981 108.314 46.6081C108.494 46.2281 108.434 45.7281 108.024 45.5081C107.654 45.3381 107.094 45.3981 106.904 45.8081Z" fill="black"/>
<path d="M104.634 52.2281C104.354 52.3281 104.064 52.4181 103.774 52.4881C103.644 52.5181 103.524 52.5381 103.394 52.5581C103.354 52.5681 103.314 52.5681 103.264 52.5781C103.374 52.5681 103.384 52.5581 103.284 52.5781C103.224 52.5881 103.154 52.5881 103.094 52.5981C102.814 52.6181 102.544 52.6281 102.264 52.6181C102.114 52.6081 101.964 52.5981 101.814 52.5881C101.594 52.5681 101.984 52.6181 101.774 52.5781C101.694 52.5681 101.604 52.5481 101.524 52.5381C101.114 52.4581 100.634 52.6481 100.534 53.0981C100.444 53.4981 100.654 54.0081 101.094 54.0881C102.414 54.3381 103.784 54.2581 105.054 53.7881C105.444 53.6381 105.754 53.2381 105.614 52.7981C105.494 52.3981 105.054 52.0681 104.634 52.2281Z" fill="black"/>
<path d="M110.084 82.2881C107.384 97.6481 105.324 113.008 105.464 128.628C105.504 133.558 105.714 138.488 105.984 143.408C106.074 144.938 108.464 144.948 108.384 143.408C107.924 135.328 107.684 127.228 107.984 119.138C108.264 111.838 109.004 104.568 110.044 97.3281C110.744 92.5081 111.544 87.7181 112.394 82.9181C112.664 81.4181 110.354 80.7681 110.084 82.2881Z" fill="#A1A2A2"/>
<path d="M101.304 102.148C105.054 102.148 105.064 96.3181 101.304 96.3181C97.5539 96.3181 97.5439 102.148 101.304 102.148Z" fill="black"/>
<path d="M100.234 134.178C103.984 134.178 103.994 128.348 100.234 128.348C96.4839 128.348 96.4739 134.178 100.234 134.178Z" fill="black"/>
<path d="M163.464 102.268C166.724 115.788 169.164 129.888 169.194 143.828C169.194 144.898 170.864 144.898 170.864 143.828C170.834 129.748 168.364 115.488 165.074 101.828C164.824 100.778 163.214 101.218 163.464 102.268Z" fill="black"/>
<path d="M160.284 107.918C161.664 109.548 163.604 110.718 165.684 111.198C166.104 111.298 166.604 111.068 166.704 110.618C166.804 110.198 166.574 109.698 166.124 109.598C165.644 109.488 165.184 109.348 164.734 109.168C164.684 109.148 164.624 109.128 164.704 109.158C164.644 109.128 164.584 109.108 164.514 109.078C164.404 109.028 164.294 108.978 164.184 108.918C163.964 108.808 163.754 108.688 163.544 108.568C163.344 108.448 163.154 108.318 162.974 108.188C162.924 108.148 162.864 108.108 162.814 108.068C162.774 108.038 162.724 107.998 162.794 108.048C162.694 107.968 162.604 107.898 162.514 107.818C162.134 107.488 161.784 107.138 161.464 106.758C161.184 106.428 160.574 106.448 160.284 106.758C159.964 107.098 159.984 107.558 160.284 107.918Z" fill="black"/>
<path d="M96.3039 49.9481C97.9039 50.9981 100.164 51.2181 102.044 51.1481C103.944 51.0781 105.764 50.5481 107.224 49.2981C108.014 48.6281 106.874 47.4881 106.084 48.1581C104.924 49.1481 103.384 49.5081 101.894 49.5381C100.334 49.5681 98.4639 49.4281 97.1239 48.5481C96.2439 47.9881 95.4439 49.3781 96.3039 49.9481Z" fill="black"/>
<path d="M106.894 31.2981C108.694 29.5181 111.414 30.2381 113.244 31.5481C113.594 31.7981 114.144 31.6081 114.344 31.2581C114.584 30.8581 114.414 30.4081 114.054 30.1581C112.794 29.2581 111.304 28.6481 109.744 28.6181C108.274 28.5881 106.804 29.1281 105.754 30.1581C105.024 30.8881 106.164 32.0281 106.894 31.2981Z" fill="black"/>
<path d="M85.5439 30.9881C87.3439 29.2081 90.0639 29.9281 91.8939 31.2381C92.2439 31.4881 92.7939 31.2981 92.9939 30.9481C93.2339 30.5481 93.0639 30.0981 92.7039 29.8481C91.4439 28.9481 89.9539 28.3381 88.3939 28.3081C86.9239 28.2781 85.4539 28.8181 84.4039 29.8481C83.6639 30.5781 84.8039 31.7181 85.5439 30.9881Z" fill="black"/>
<path d="M37.6039 102.128C28.7939 104.728 19.8439 113.238 21.0939 124.518C22.3439 135.798 33.0739 148.578 50.6039 143.718C68.1339 138.858 69.5439 123.128 64.8639 114.278C60.1639 105.428 46.4139 99.5281 37.6039 102.128Z" fill="#A1A2A2"/>
<path d="M39.2239 132.878C11.4439 126.258 38.3839 79.1881 39.2739 76.0381C40.8439 70.4781 43.3039 62.0581 44.8939 58.0181C47.3839 51.6881 52.4539 36.4181 54.4739 34.4681C56.3339 32.6781 57.3339 32.7681 57.3339 32.7681C57.3339 32.7681 58.1639 30.2481 59.1939 29.2781C60.8239 27.7581 62.2439 28.3981 62.2439 28.3981C62.2439 28.3981 62.7139 26.2781 64.9539 25.9681C67.1939 25.6581 67.9839 27.2581 68.4439 28.0581C69.1239 29.2681 68.9239 31.7381 68.9239 31.7381C68.9239 31.7381 70.7639 30.6281 72.3339 32.4381C76.6639 37.4181 69.8539 58.8881 69.8539 58.8881C69.8539 58.8881 75.1539 64.5581 72.6439 70.9881C69.1839 79.8581 59.6839 81.4581 59.6839 81.4581C59.6839 81.4581 60.4139 105.378 59.6539 112.548C58.8939 119.728 57.1239 137.138 39.2239 132.878Z" fill="#E08F8B"/>
<path d="M63.2239 65.0281C58.8139 66.0681 55.1639 69.6881 54.0739 74.0881C53.8239 75.0881 55.3639 75.5081 55.6139 74.5081C56.5739 70.6181 59.7539 67.4881 63.6439 66.5681C64.6539 66.3381 64.2339 64.7881 63.2239 65.0281Z" fill="black"/>
<path d="M56.1539 50.5281C57.6339 52.0881 57.0939 54.7581 56.3839 56.5481C55.5839 58.5481 54.1239 60.2681 52.2839 61.3881C51.4039 61.9181 52.2139 63.3081 53.0939 62.7681C55.3539 61.3881 57.0639 59.2781 57.9939 56.8081C58.8739 54.4581 59.1439 51.3681 57.2839 49.4081C56.5739 48.6481 55.4439 49.7781 56.1539 50.5281Z" fill="black"/>
<path d="M70.6139 59.0281C69.8839 57.8181 68.8839 56.5181 67.5839 55.8881C66.5539 55.3781 65.3239 55.2081 64.2139 55.5381C61.7639 56.2481 60.8039 59.2681 61.4339 61.5281C61.8939 63.2181 62.9639 64.8281 63.9639 66.2481C64.2139 66.5981 64.6639 66.7681 65.0539 66.5381C65.4039 66.3381 65.5939 65.7981 65.3439 65.4481C64.8539 64.7481 64.3939 64.0181 63.9639 63.2681C63.5639 62.5581 63.1539 61.8281 62.9439 61.0281C62.6739 59.9581 62.8639 58.5681 63.6539 57.7381C64.3139 57.0381 65.0539 56.8181 66.0439 57.0281C67.4839 57.3281 68.5039 58.6381 69.2239 59.8381C69.7639 60.7181 71.1439 59.9181 70.6139 59.0281Z" fill="black"/>
<path d="M56.9339 34.2781C60.0139 34.7281 58.3239 39.2781 57.8539 41.0781C57.1039 43.9581 56.3539 46.8481 55.6039 49.7281C55.3439 50.7281 56.8839 51.1481 57.1439 50.1481C58.0539 46.6381 58.9739 43.1281 59.8739 39.6181C60.2439 38.1581 60.5939 36.5581 60.0439 35.0881C59.5939 33.9181 58.6339 32.9181 57.3539 32.7281C56.3539 32.5881 55.9239 34.1281 56.9339 34.2781Z" fill="black"/>
<path d="M62.2739 30.0781C64.6239 31.7581 63.7139 36.0081 63.2439 38.3281C62.5639 41.6581 61.6039 44.9481 60.7439 48.2381C60.4839 49.2381 62.0239 49.6581 62.2839 48.6581C63.2839 44.8081 64.5139 40.9381 65.0939 36.9981C65.5039 34.1381 65.7239 30.5881 63.0839 28.6981C62.2339 28.0981 61.4439 29.4881 62.2739 30.0781Z" fill="black"/>
<path d="M69.0739 31.8981C68.6239 38.1381 67.2139 44.2581 64.9239 50.0881C64.5439 51.0481 66.0939 51.4581 66.4639 50.5081C68.8039 44.5481 70.2139 38.2781 70.6739 31.8981C70.7539 30.8781 69.1539 30.8781 69.0739 31.8981Z" fill="black"/>
<path d="M57.5739 50.4381C60.8539 50.0581 64.1539 50.7581 66.9639 52.4881C67.8439 53.0281 68.6439 51.6481 67.7739 51.1081C64.7439 49.2481 61.1139 48.4281 57.5739 48.8381C57.1439 48.8881 56.7739 49.1681 56.7739 49.6381C56.7739 50.0381 57.1439 50.4881 57.5739 50.4381Z" fill="black"/>
<path d="M55.8039 82.0681C56.9639 82.4981 58.2439 82.6581 59.4839 82.5281C59.7039 82.5081 59.8839 82.4581 60.0539 82.2981C60.1939 82.1581 60.2939 81.9281 60.2839 81.7281C60.2639 81.3381 59.9339 80.8781 59.4839 80.9281C58.9039 80.9881 58.3339 80.9881 57.7539 80.9181C57.5339 80.8981 57.9239 80.9481 57.7139 80.9081C57.6439 80.8981 57.5639 80.8881 57.4939 80.8681C57.3539 80.8381 57.2239 80.8181 57.0839 80.7781C56.7939 80.7081 56.5039 80.6181 56.2239 80.5181C55.8339 80.3781 55.3339 80.6781 55.2439 81.0781C55.1439 81.5381 55.3839 81.9181 55.8039 82.0681Z" fill="black"/>
<path d="M47.5339 137.368C21.4239 148.938 14.3239 95.1681 13.1239 92.1281C11.0039 86.7481 7.85394 78.5681 6.67394 74.3881C4.82394 67.8481 -0.396055 52.6181 0.0239446 49.8481C0.423945 47.2881 1.27394 46.7681 1.27394 46.7681C1.27394 46.7681 0.403945 44.2581 0.643945 42.8681C1.01394 40.6681 2.54394 40.3181 2.54394 40.3181C2.54394 40.3181 1.63394 38.3481 3.23394 36.7481C4.83394 35.1381 6.42394 35.9381 7.27394 36.2981C8.54394 36.8381 9.88394 38.9381 9.88394 38.9381C9.88394 38.9381 10.6739 36.9481 13.0239 37.4281C19.4839 38.7581 27.0839 59.9681 27.0839 59.9681C27.0839 59.9681 34.7439 61.2581 36.6439 67.8981C39.2639 77.0481 32.6839 84.0781 32.6839 84.0781C32.6839 84.0781 47.7639 102.658 51.4939 108.828C55.2139 114.988 64.3639 129.918 47.5339 137.368Z" fill="#F6A6AC"/>
<path d="M25.5839 68.7781C22.6239 72.3981 21.9339 77.4181 23.7739 81.7181C23.9439 82.1181 24.5239 82.1981 24.8639 82.0081C25.2739 81.7781 25.3239 81.3081 25.1539 80.9181C23.6239 77.3481 24.2539 72.9281 26.7139 69.9181C27.3639 69.1181 26.2339 67.9781 25.5839 68.7781Z" fill="black"/>
<path d="M10.9939 61.5881C13.1239 61.9281 14.3239 64.2081 14.8739 66.0981C15.5139 68.2781 15.3839 70.5781 14.5639 72.6881C14.1939 73.6481 15.7339 74.0581 16.1039 73.1081C17.0639 70.6381 17.1339 67.8181 16.2939 65.2881C15.5439 63.0281 13.9639 60.4581 11.4139 60.0481C10.4139 59.8781 9.98394 61.4181 10.9939 61.5881Z" fill="black"/>
<path d="M27.6639 59.5781C25.3539 58.6581 22.4139 58.4181 20.6839 60.5481C18.9139 62.7281 20.1539 65.9181 22.2539 67.3681C23.6339 68.3181 25.3439 68.9081 26.9339 69.4181C27.9139 69.7281 28.3339 68.1881 27.3539 67.8781C25.8939 67.4181 24.3239 66.8681 23.0539 65.9881C22.0139 65.2681 21.1939 63.8281 21.4739 62.5381C21.5139 62.3581 21.5639 62.1981 21.6239 62.0181C21.7339 61.6781 21.5539 62.0681 21.7039 61.8481C21.8439 61.6381 21.8139 61.6481 21.9639 61.4881C22.2739 61.1481 22.6439 60.8781 23.0739 60.6981C24.3839 60.1481 25.9739 60.6181 27.2239 61.1181C27.6239 61.2781 28.1039 60.9481 28.2039 60.5581C28.3439 60.1081 28.0639 59.7381 27.6639 59.5781Z" fill="black"/>
<path d="M1.98394 48.1581C2.99394 47.5881 4.14394 48.2481 4.79394 49.0481C5.63394 50.0881 6.07394 51.4681 6.58394 52.6881C7.77394 55.5281 8.97394 58.3781 10.1639 61.2181C10.3339 61.6181 10.6939 61.8981 11.1439 61.7781C11.5239 61.6781 11.8639 61.1881 11.7039 60.7981C10.2739 57.3981 8.86394 53.9981 7.42394 50.6081C6.86394 49.2881 6.22394 47.9481 5.02394 47.0881C3.89394 46.2881 2.39394 46.0881 1.17394 46.7781C0.283943 47.2881 1.08394 48.6681 1.98394 48.1581Z" fill="black"/>
<path d="M3.47395 41.6381C6.44395 41.5381 8.23395 45.3481 9.33395 47.5881C10.8139 50.6281 12.0239 53.8081 13.3339 56.9181C13.7239 57.8481 15.2739 57.4381 14.8739 56.4981C13.4039 52.9981 12.0839 49.3981 10.3339 46.0281C8.97395 43.4081 6.86395 39.9381 3.48395 40.0481C2.45395 40.0781 2.44395 41.6781 3.47395 41.6381Z" fill="black"/>
<path d="M10.0339 38.8781C13.4639 44.1181 16.0739 49.8281 17.7739 55.8581C18.0539 56.8481 19.5939 56.4281 19.3139 55.4381C17.5739 49.2881 14.9039 43.4281 11.4139 38.0781C10.8539 37.2181 9.47395 38.0181 10.0339 38.8781Z" fill="black"/>
<path d="M12.2539 60.6081C14.5539 58.3781 17.5939 56.9481 20.7939 56.6281C21.2239 56.5881 21.5939 56.2881 21.5939 55.8281C21.5939 55.4281 21.2239 54.9881 20.7939 55.0281C17.1639 55.3881 13.7539 56.9381 11.1239 59.4781C10.3839 60.1981 11.5139 61.3281 12.2539 60.6081Z" fill="black"/>
<path d="M29.8539 86.9381C31.1139 86.5481 32.2639 85.8781 33.2239 84.9681C33.5239 84.6781 33.5339 84.1281 33.2239 83.8381C32.8939 83.5381 32.4139 83.5281 32.0939 83.8381C31.9939 83.9381 31.8839 84.0381 31.7739 84.1281C31.7239 84.1681 31.6739 84.2181 31.6139 84.2581C31.5939 84.2781 31.5039 84.3481 31.5939 84.2781C31.6939 84.2081 31.5939 84.2781 31.5739 84.2981C31.3439 84.4681 31.1039 84.6281 30.8539 84.7781C30.6139 84.9181 30.3639 85.0481 30.1039 85.1581C30.0739 85.1681 30.0439 85.1881 30.0139 85.1981C30.0539 85.1781 30.1639 85.1381 30.0639 85.1781C30.0039 85.1981 29.9339 85.2281 29.8739 85.2481C29.7339 85.2981 29.5839 85.3481 29.4339 85.3981C29.0339 85.5181 28.7439 85.9581 28.8739 86.3781C29.0039 86.7881 29.4239 87.0681 29.8539 86.9381Z" fill="black"/>
<path d="M28.7739 39.5281L31.0239 42.9581C31.4539 43.6181 30.9139 44.5181 30.0539 44.5481L26.0339 44.6981C24.5739 44.7981 24.7339 43.9881 25.0739 43.2981L26.8439 39.7181C27.2239 38.9581 28.3339 38.8481 28.7739 39.5281Z" fill="white"/>
<path d="M29.8439 42.3281C34.2239 39.5281 39.6039 38.5481 44.6839 39.6781C45.9539 39.9581 46.4939 38.0081 45.2239 37.7181C39.6239 36.4681 33.6639 37.4781 28.8239 40.5681C27.7239 41.2781 28.7439 43.0281 29.8439 42.3281Z" fill="white"/>
</g>
<defs>
<clipPath id="clip0_240_387">
<rect width="200" height="144.77" fill="white"/>
</clipPath>
</defs>
</svg>
