<svg width="157" height="161" viewBox="0 0 157 161" fill="none" xmlns="http://www.w3.org/2000/svg">
<g clip-path="url(#clip0_243_787)">
<path d="M4.24 120.99C1.49 134.24 0 160.84 0 160.84H156.21C156.21 160.84 153.91 136.43 152.53 130.52C140.67 79.92 95.85 59.29 47.57 71.86C16.61 79.92 9.43 101.65 4.24 120.99Z" fill="#EC6723"/>
<path d="M58.49 69.57C69.84 78.6 83.07 94.33 88.11 120.47C90.03 130.45 91.08 152.9 91.95 160.83H121.63C119.23 142.93 110.47 98.75 98.14 80.32C95.38 76.19 92.7 72.62 90.16 69.56C80.15 67.84 69.47 67.83 58.49 69.57Z" fill="#B2E1EE"/>
<path d="M114.3 82.42C117.43 85.56 120.37 88.9 123.05 92.44C124.34 94.15 125.57 95.89 126.75 97.68C126.99 98.05 127.62 98.69 127.59 99.16C127.57 99.56 127.07 99.96 126.81 100.2C125.94 101.01 124.94 101.64 123.89 102.19C122.56 102.89 123.74 104.9 125.07 104.21C126.86 103.27 129.75 101.61 129.9 99.33C129.98 98.12 129.18 97.14 128.55 96.18C127.8 95.05 127.02 93.93 126.22 92.83C123.12 88.55 119.68 84.52 115.95 80.78C114.89 79.7 113.24 81.35 114.3 82.42Z" fill="#FFC11E"/>
<path d="M120.9 40.21C120.9 40.21 126.79 46 128.81 58.55C130.83 71.09 129.28 84.28 113.76 81.68C113.75 81.67 128.2 71.41 120.9 40.21Z" fill="black"/>
<path d="M102.25 84.44C102.25 84.44 98.5401 88.68 86.0901 85.45C73.6301 82.22 68.7701 73.61 68.7701 73.61C68.7701 73.61 75.5501 65.23 71.0401 56.15C71.0401 56.15 65.5201 59.58 61.6801 50.79C57.8401 42 61.8801 33.5 67.0501 32.49C72.2101 31.48 77.4801 37.56 75.5601 42.77C75.5601 42.77 79.7101 39.47 79.2101 31.47C78.7101 23.47 78.7001 23.47 78.7001 23.47L87.5101 19.62L104.56 16.58L119.55 27.92L119.75 36.38C119.75 36.38 125.67 52.94 122.44 66.25C119.2 79.59 109.2 85.64 102.25 84.44Z" fill="#F6A6AC"/>
<path d="M126.18 28.95C126.34 36.82 120.9 40.21 120.9 40.21L119.54 37.11C119.13 39.06 118.44 38.15 114.64 37.72C110.84 37.3 107.47 36.82 107.47 36.82C107.47 36.82 107.9 35.16 107.87 28.81C107.84 23.48 105.67 19.46 104.97 18.32C107.13 22.11 106.35 30.28 105.26 33.56C104.13 36.95 101.63 35.44 96.54 35.15C93.33 34.96 89.43 34.86 86.99 34.8C85.92 34.78 85.22 33.7 85.59 32.7C86.83 29.37 87.2 25.31 87.31 23.18C86.73 30.48 80.85 33.34 80.85 33.34C80.55 37.66 76.98 41.41 75.87 42.47C75.8 42.54 75.74 42.59 75.7 42.63C75.67 42.66 75.65 42.68 75.63 42.7C75.61 42.72 75.6 42.73 75.59 42.73C75.56 42.76 75.55 42.76 75.55 42.76C77.47 37.55 72.2 31.47 67.04 32.48C61.87 33.49 57.82 42 61.67 50.78C65.21 58.85 70.16 56.61 70.93 56.18C71.03 56.29 71.14 56.44 71.26 56.62C71.26 56.62 71.26 56.62 71.27 56.63C75.29 65.51 68.76 73.58 68.76 73.58C58.68 82.04 41.04 74 39.81 58.8C38.59 43.6 42.27 32.32 52.51 18.17C62.76 4.07 76.97 -2.77 98.14 1.05C119.31 4.87 126.01 21.1 126.18 28.95Z" fill="black"/>
<path d="M61.35 37.82C61.01 38.6 60.74 39.43 60.53 40.31C58.14 41.52 60.22 43.31 57.57 44.17C54.65 45.12 55.03 39.78 61.35 37.82Z" fill="#B3202D"/>
<path d="M86.27 40.69C86.27 40.69 82.73 39.98 77.88 39.51C77.23 39.45 76.57 39.39 75.87 39.34C75.77 38.72 75.58 38.1 75.33 37.52C76.5 37.6 77.57 37.68 78.55 37.78C83.07 38.18 85.54 38.6 85.54 38.6L86.27 40.69Z" fill="#B3202D"/>
<path d="M93.2101 40.32C89.7701 40.88 91.1701 43.85 93.3301 43.97C95.4901 44.09 97.1001 44.61 97.9201 45.02C98.7401 45.43 100.36 45.77 101.05 44.28C101.87 42.51 97.5801 39.61 93.2101 40.32Z" fill="white"/>
<path d="M112.95 44.06C110.71 44.82 110.78 47.49 113.3 47.52C115.83 47.55 117.15 48.09 118.1 48.49C119.06 48.89 119.96 48.33 120.09 46.93C120.27 45.12 116.24 42.95 112.95 44.06Z" fill="white"/>
<path d="M97.83 84.65C103.52 87.01 110.48 85.39 115.1 81.57C123.92 74.28 125.33 61.52 124.09 50.88C123.45 45.41 122.2 40.02 120.45 34.8C119.98 33.38 117.72 33.99 118.2 35.42C121.23 44.48 123.21 54.54 121.67 64.08C120.24 72.98 114.59 82.94 104.55 83.33C102.53 83.41 100.34 83.18 98.45 82.39C97.07 81.83 96.46 84.09 97.83 84.65Z" fill="black"/>
<path d="M123.32 38.74C116.91 39.3 111.44 44.28 111.44 44.28C109.5 42.29 106.45 43.61 106.45 43.61C100.86 38.13 90.4399 35.03 86.4399 34.97C82.4499 34.91 84.2799 42.17 90.8799 47.71C97.4799 53.25 102.91 49.15 102.91 49.15C104.79 50.54 105.85 46.55 105.85 46.55C108.95 44.73 111.28 47.1 111.28 47.1C111.28 47.1 111.28 47.77 112.05 49.43C112.83 51.1 116.16 54.2 120.03 51.04C123.91 47.89 129.73 38.19 123.32 38.74ZM102.86 47.48C100.56 48.99 95.8199 48.88 92.6599 46.55C89.4999 44.23 84.4399 36.5 92.2699 38.18C100.1 39.87 104.46 44.66 104.46 44.66C104.46 44.66 105.15 45.96 102.86 47.48ZM123.37 43.53C122.85 47.28 117.47 52.9 114.37 50.01C114.37 50.01 112.65 48.93 112.37 47.17C112.09 45.41 113.57 44.33 116.89 42.61C120.21 40.89 123.89 39.78 123.37 43.53Z" fill="#B3202D"/>
<path d="M105.59 56.71C105.84 57.76 106.74 58.57 107.81 58.71C108.36 58.78 108.97 58.7 109.46 58.41C109.97 58.1 110.19 57.57 110.3 57.01C110.38 56.61 110.19 56.15 109.76 56.05C109.38 55.96 108.88 56.17 108.8 56.59C108.79 56.67 108.77 56.75 108.75 56.83C108.74 56.87 108.67 57.03 108.68 57.06C108.73 56.95 108.74 56.93 108.71 56.98C108.7 57 108.69 57.02 108.68 57.04C108.67 57.07 108.64 57.09 108.63 57.12C108.7 57.03 108.72 57.01 108.68 57.05C108.66 57.07 108.65 57.08 108.63 57.1C108.64 57.06 108.75 57.02 108.65 57.07C108.63 57.08 108.6 57.1 108.58 57.11C108.53 57.14 108.55 57.13 108.64 57.08C108.61 57.08 108.57 57.11 108.54 57.11C108.46 57.13 108.36 57.14 108.28 57.17C108.39 57.16 108.42 57.15 108.36 57.16C108.33 57.16 108.31 57.16 108.28 57.17C108.24 57.17 108.21 57.17 108.17 57.17C108.12 57.17 108.06 57.17 108.01 57.16C107.86 57.15 108.13 57.19 108.03 57.16C107.94 57.14 107.86 57.12 107.77 57.1C107.75 57.09 107.74 57.09 107.72 57.08C107.67 57.06 107.69 57.07 107.78 57.11C107.75 57.11 107.69 57.07 107.66 57.05C107.59 57.01 107.52 56.97 107.46 56.92C107.38 56.87 107.6 57.05 107.49 56.94C107.46 56.91 107.43 56.89 107.4 56.86C107.37 56.83 107.34 56.8 107.32 56.77C107.3 56.75 107.22 56.64 107.29 56.74C107.36 56.84 107.28 56.72 107.27 56.7C107.25 56.67 107.23 56.63 107.21 56.6C107.19 56.57 107.17 56.53 107.15 56.49C107.08 56.37 107.19 56.61 107.16 56.52C107.13 56.44 107.1 56.35 107.08 56.27C106.98 55.87 106.51 55.6 106.12 55.73C105.73 55.88 105.49 56.28 105.59 56.71Z" fill="black"/>
<path d="M108.79 56.97C108.87 57.58 109.28 58.11 109.78 58.45C110.34 58.84 111.03 58.92 111.68 58.81C112.9 58.61 113.79 57.42 113.75 56.21C113.74 55.8 113.4 55.41 112.97 55.43C112.56 55.45 112.18 55.77 112.19 56.21C112.19 56.26 112.19 56.31 112.19 56.37C112.19 56.39 112.19 56.4 112.19 56.42C112.18 56.49 112.18 56.49 112.19 56.42C112.2 56.35 112.2 56.35 112.19 56.42C112.19 56.44 112.18 56.45 112.18 56.47C112.17 56.52 112.15 56.57 112.14 56.62C112.13 56.64 112.13 56.65 112.12 56.67C112.09 56.75 112.1 56.74 112.14 56.63C112.15 56.65 112.09 56.73 112.08 56.75C112.06 56.79 112.04 56.83 112.01 56.86C112 56.88 111.98 56.9 111.97 56.93C111.94 56.98 111.95 56.96 112.01 56.88C111.99 56.94 111.88 57.03 111.83 57.07C111.81 57.09 111.79 57.11 111.77 57.12C111.73 57.16 111.74 57.14 111.82 57.08C111.81 57.11 111.73 57.14 111.71 57.15C111.67 57.17 111.63 57.19 111.59 57.22C111.44 57.31 111.75 57.17 111.58 57.23C111.49 57.26 111.39 57.29 111.3 57.31C111.16 57.34 111.27 57.29 111.32 57.31C111.29 57.3 111.19 57.32 111.16 57.32C111.12 57.32 111.07 57.32 111.03 57.32C110.89 57.31 111 57.29 111.05 57.33C111.03 57.31 110.92 57.3 110.89 57.29C110.84 57.28 110.8 57.26 110.75 57.25C110.66 57.23 110.86 57.31 110.74 57.24C110.69 57.21 110.64 57.18 110.59 57.15C110.47 57.08 110.67 57.23 110.6 57.16C110.57 57.13 110.54 57.1 110.5 57.07C110.49 57.06 110.39 56.97 110.4 56.96C110.46 57.04 110.48 57.06 110.44 57.02C110.43 57 110.41 56.98 110.4 56.96C110.38 56.92 110.36 56.89 110.34 56.85C110.28 56.73 110.35 56.82 110.35 56.87C110.35 56.84 110.31 56.75 110.31 56.72C110.3 56.67 110.29 56.62 110.28 56.57C110.26 56.39 110.07 56.19 109.92 56.1C109.75 56 109.51 55.96 109.32 56.02C109.13 56.08 108.95 56.2 108.85 56.38C108.77 56.57 108.76 56.75 108.79 56.97Z" fill="black"/>
<path d="M113.77 55.96C113.28 52.77 112.68 49.59 111.99 46.43C111.78 45.45 110.27 45.87 110.49 46.84C111.18 50 111.78 53.18 112.27 56.37C112.33 56.79 112.86 57.02 113.23 56.91C113.67 56.79 113.83 56.37 113.77 55.96Z" fill="black"/>
<path d="M95.83 44.38C97.33 44.38 97.33 42.05 95.83 42.05C94.33 42.05 94.33 44.38 95.83 44.38Z" fill="black"/>
<path d="M116 47.8C117.5 47.8 117.5 45.47 116 45.47C114.49 45.46 114.49 47.8 116 47.8Z" fill="black"/>
<path d="M102.14 74.38C100.37 75.21 98.33 75.51 96.39 75.21C95.98 75.15 95.55 75.32 95.43 75.75C95.33 76.12 95.56 76.64 95.97 76.71C98.35 77.08 100.73 76.74 102.92 75.72C103.3 75.54 103.4 74.99 103.2 74.66C102.98 74.27 102.52 74.2 102.14 74.38Z" fill="black"/>
<path d="M67.65 47.93C67.78 47.91 67.57 47.9 67.55 47.89C67.48 47.86 67.41 47.8 67.35 47.74C67.22 47.6 67.14 47.39 67.11 47.16C67.04 46.55 67.2 45.89 67.39 45.31C67.73 44.24 68.44 43.37 69.54 43.21C69.96 43.15 70.19 42.62 70.08 42.25C69.96 41.8 69.54 41.64 69.12 41.71C67.32 41.98 66.17 43.65 65.76 45.31C65.54 46.19 65.39 47.18 65.73 48.05C66.11 49.02 67.01 49.58 68.05 49.44C68.47 49.38 68.69 48.85 68.59 48.48C68.49 48.03 68.07 47.88 67.65 47.93Z" fill="black"/>
<path d="M67.45 38.19C67.57 38.24 67.75 38.62 67.83 38.73C67.97 38.94 68.11 39.16 68.24 39.38C68.47 39.76 68.68 40.16 68.85 40.57C69.23 41.45 69.49 42.4 69.54 43.36C69.58 44.25 69.46 45.13 69.15 45.97C68.91 46.62 68.39 47.74 67.66 47.94C66.69 48.2 67.1 49.7 68.07 49.44C69.19 49.14 69.95 47.98 70.4 46.98C70.91 45.85 71.15 44.6 71.09 43.36C71.03 42.08 70.68 40.86 70.15 39.69C69.67 38.64 68.98 37.14 67.86 36.68C67.47 36.52 67.01 36.85 66.9 37.22C66.78 37.68 67.07 38.03 67.45 38.19Z" fill="black"/>
<path d="M71.53 54.25C71.51 54.29 71.38 54.5 71.49 54.32C71.45 54.38 71.39 54.44 71.35 54.49C71.26 54.59 71.15 54.73 71.03 54.79C71.21 54.69 71 54.8 70.96 54.83C70.9 54.87 70.84 54.91 70.77 54.95C70.65 55.02 70.52 55.08 70.4 55.14C70.35 55.16 70.37 55.16 70.46 55.12C70.42 55.14 70.38 55.15 70.34 55.17C70.26 55.2 70.18 55.23 70.1 55.25C69.94 55.3 69.77 55.34 69.6 55.37C69.52 55.39 69.43 55.4 69.35 55.42C69.31 55.43 69.27 55.43 69.22 55.44C69.32 55.43 69.33 55.43 69.24 55.44C69.07 55.46 68.9 55.47 68.73 55.48C68.32 55.51 67.93 55.82 67.95 56.26C67.97 56.66 68.29 57.07 68.73 57.04C69.59 56.98 70.41 56.84 71.2 56.49C71.89 56.19 72.48 55.68 72.89 55.05C73.11 54.71 72.97 54.18 72.61 53.99C72.21 53.77 71.76 53.89 71.53 54.25Z" fill="black"/>
<path d="M123.38 103.84C127.51 109.61 131.41 116.22 131.32 123.51C131.24 130.22 129.46 136.91 125.47 142.36C124.58 143.57 126.61 144.74 127.49 143.54C131.71 137.77 133.57 130.59 133.66 123.51C133.76 115.8 129.78 108.78 125.4 102.66C124.53 101.45 122.51 102.62 123.38 103.84Z" fill="#FFC11E"/>
<path d="M139.76 130.64C141.73 140.49 143.12 150.39 143.94 160.4C144.02 161.39 145.58 161.4 145.5 160.4C144.67 150.25 143.27 140.21 141.27 130.23C141.07 129.24 139.57 129.66 139.76 130.64Z" fill="black"/>
<path d="M63.94 83.05C62.63 88.36 61.74 93.76 61.3 99.21C61.19 100.55 61.11 101.88 61.06 103.22C61.02 104.29 60.92 105.37 61.62 106.26C63.01 108.03 66.18 107.97 68.19 107.85C69.68 107.77 69.69 105.43 68.19 105.52C67.02 105.59 65.83 105.57 64.68 105.33C64.34 105.26 63.86 105.2 63.6 104.94C63.26 104.61 63.37 104.11 63.39 103.66C63.46 101.43 63.62 99.2 63.85 96.98C64.31 92.49 65.12 88.04 66.2 83.66C66.55 82.22 64.3 81.59 63.94 83.05Z" fill="#FFC11E"/>
<path d="M67.12 106.7C66.79 110.89 66.83 115.12 67.39 119.29C67.91 123.18 69.27 126.58 71.43 129.84C75.2 135.54 80.31 140.26 86.65 142.92C88.03 143.5 88.64 141.24 87.27 140.67C81.41 138.21 76.65 133.62 73.23 128.33C71.23 125.24 70.04 122.05 69.61 118.4C69.15 114.52 69.15 110.59 69.45 106.7C69.58 105.21 67.24 105.21 67.12 106.7Z" fill="#FFC11E"/>
<path d="M68.41 133.3L76.01 126.85C76.01 126.85 75.5 126.39 76.04 120.64C76.3 117.9 77.72 116.08 81.66 110.43C84.37 106.54 86.01 104.91 88.5 107.16C88.5 107.16 93.29 103.13 95.68 100.85C98.07 98.58 105.4 100.11 102.12 106C102.12 106 104.8 103.94 106.97 106.27C109.14 108.6 108.01 111.95 108.01 111.95C108.01 111.95 111.38 111.01 112.81 113.05C114.24 115.08 112.53 118.48 112.53 118.48C112.53 118.48 113.67 117.63 115.13 119.64C116.59 121.65 115.15 123.39 109.74 128.65C104.33 133.91 97.13 140.56 90.51 139.65L82.88 148.34L68.41 133.3Z" fill="#F5A0AC"/>
<path d="M101.18 105.87C99.2501 107.91 97.3501 110 95.4901 112.11C95.1701 112.48 95.1301 113.04 95.4901 113.4C95.8201 113.73 96.4501 113.77 96.7801 113.4C98.6401 111.28 100.53 109.2 102.47 107.16C102.81 106.8 102.83 106.22 102.47 105.87C102.13 105.53 101.52 105.51 101.18 105.87Z" fill="black"/>
<path d="M107.28 111.82C105.3 113.65 103.31 115.48 101.33 117.31C100.97 117.64 100.99 118.26 101.33 118.6C101.69 118.96 102.26 118.94 102.62 118.6C104.6 116.77 106.59 114.94 108.57 113.11C108.93 112.78 108.91 112.16 108.57 111.82C108.21 111.46 107.64 111.49 107.28 111.82Z" fill="black"/>
<path d="M111.68 118.01C110.08 119.59 108.49 121.18 106.89 122.76C106.55 123.1 106.53 123.72 106.89 124.05C107.26 124.39 107.82 124.41 108.18 124.05C109.78 122.47 111.37 120.88 112.97 119.3C113.31 118.96 113.33 118.34 112.97 118.01C112.61 117.68 112.04 117.65 111.68 118.01Z" fill="black"/>
<path d="M87.8301 107.16C87.0001 108.14 86.1701 109.12 85.3501 110.1C85.1901 110.29 85.0801 110.49 85.0801 110.75C85.0801 110.97 85.1801 111.24 85.3501 111.4C85.6901 111.71 86.3101 111.79 86.6401 111.4C87.4701 110.42 88.3001 109.44 89.1201 108.46C89.2801 108.27 89.3901 108.07 89.3901 107.81C89.3901 107.59 89.2901 107.32 89.1201 107.16C88.7801 106.85 88.1601 106.78 87.8301 107.16Z" fill="black"/>
<path d="M91.42 64.08C95.59 63.43 99.87 63.83 103.87 65.17C104.82 65.49 105.23 63.99 104.28 63.67C100 62.24 95.46 61.89 91 62.58C90.02 62.73 90.44 64.23 91.42 64.08Z" fill="black"/>
<path d="M89.64 62.22C89.73 62.38 89.82 62.55 89.9 62.72C89.95 62.82 89.99 62.91 90.03 63.01C89.98 62.9 90.06 63.1 90.07 63.12C90.21 63.48 90.32 63.86 90.41 64.24C90.45 64.42 90.49 64.61 90.52 64.79C90.53 64.83 90.53 64.87 90.54 64.91C90.53 64.84 90.53 64.85 90.54 64.94C90.55 65.03 90.56 65.13 90.57 65.22C90.6 65.61 90.6 66 90.57 66.39C90.54 66.8 90.95 67.19 91.35 67.17C91.79 67.15 92.1 66.83 92.13 66.39C92.24 64.67 91.83 62.93 90.98 61.42C90.78 61.06 90.26 60.92 89.92 61.14C89.56 61.39 89.43 61.84 89.64 62.22Z" fill="black"/>
<path d="M92.38 36.91C94.15 37.49 95.91 38.23 97.77 38.48C99.72 38.75 101.84 38.73 103.75 38.21C105.2 37.81 104.58 35.56 103.13 35.96C101.53 36.4 99.57 36.44 98.02 36.18C96.3 35.89 94.66 35.21 93.01 34.66C91.57 34.18 90.95 36.44 92.38 36.91Z" fill="black"/>
<path d="M109.73 38.4C111.97 39.58 114.38 40.4 116.88 40.79C117.48 40.88 118.16 40.64 118.32 39.97C118.45 39.41 118.15 38.63 117.5 38.53C116.32 38.35 115.16 38.08 114.03 37.71C112.86 37.33 112 36.96 110.91 36.38C110.37 36.1 109.62 36.22 109.31 36.8C109.02 37.34 109.15 38.09 109.73 38.4Z" fill="black"/>
<path d="M42.82 148.43C47.51 144.86 52.12 141.2 56.8 137.62C59.06 135.89 61.33 134.19 63.64 132.53C64.06 132.23 64.48 131.93 64.89 131.63C65.09 131.48 65.5 131.29 65.65 131.09C65.68 131.07 65.72 131.04 65.75 131.02C66.05 130.84 65.85 130.78 65.14 130.85C65.07 130.9 65.05 130.68 65.2 130.91C65.3 131.06 65.51 131.2 65.64 131.32C71.03 136.49 75.99 142.13 81.17 147.51C81.9 148.27 82.74 148.99 83.4 149.81C83.44 149.86 83.71 150.06 83.73 150.15C83.91 150.71 83.3 151.1 82.95 151.51C82.54 151.99 82.13 152.46 81.72 152.94C79.92 155.02 78.06 157.04 76.14 159.01C75.32 159.85 76.61 161.15 77.43 160.3C79.27 158.41 81.06 156.48 82.79 154.48C83.66 153.48 84.72 152.48 85.44 151.37C86.12 150.31 85.55 149.41 84.77 148.6C81.59 145.3 78.43 142 75.27 138.68C72.63 135.91 70.03 133.09 67.31 130.4C66.81 129.9 66.12 128.98 65.31 129.16C64.5 129.35 63.59 130.32 62.91 130.81C61.65 131.71 60.4 132.63 59.16 133.56C53.34 137.91 47.66 142.46 41.88 146.87C40.97 147.55 41.88 149.14 42.82 148.43Z" fill="black"/>
<path d="M44.3299 119.74C42.8899 130.91 41.4399 142.09 39.9999 153.26C39.8499 154.42 41.6799 154.41 41.8299 153.26C43.2699 142.09 44.7199 130.91 46.1599 119.74C46.3099 118.58 44.4799 118.59 44.3299 119.74Z" fill="black"/>
<path d="M120.12 134.6C118.35 134.86 116.56 135.01 114.76 135.03C114.67 135.03 114.57 135.03 114.49 134.98C114.41 134.92 115.78 128.92 115.86 128.91C115.87 128.91 119 133.18 120.12 134.6Z" fill="white"/>
<path d="M119.74 133.22C119.62 133.24 119.5 133.25 119.39 133.27C118.99 133.33 119.7 133.23 119.3 133.28C119.1 133.3 118.9 133.33 118.71 133.35C118.25 133.4 117.8 133.44 117.34 133.48C116.9 133.51 116.47 133.54 116.03 133.56C115.81 133.57 115.59 133.58 115.37 133.58C115.25 133.58 115.13 133.59 115.01 133.59C114.97 133.59 114.93 133.59 114.89 133.59C114.61 133.58 114.73 133.63 115.23 133.74C115.4 133.91 115.57 134.08 115.75 134.26C115.71 134.21 115.95 135.22 115.95 134.92C115.95 134.92 115.87 135.43 115.92 135.15C115.95 135 115.98 134.85 116.01 134.69C116.11 134.21 116.21 133.74 116.31 133.27C116.54 132.22 116.78 131.17 117.04 130.13C117.08 129.95 117.13 129.77 117.18 129.58C117.2 129.52 117.21 129.46 117.23 129.4C117.23 129.38 117.24 129.36 117.25 129.34C117.21 129.56 116.85 130.02 116.61 130.16C115.95 129.99 115.3 129.82 114.64 129.64C115.73 131.13 116.83 132.62 117.94 134.09C118.33 134.6 118.72 135.12 119.12 135.62C119.33 135.89 119.81 136.04 120.14 136.04C120.49 136.04 120.91 135.88 121.16 135.62C121.41 135.35 121.6 134.99 121.58 134.6C121.56 134.19 121.41 133.9 121.16 133.58C121.1 133.51 121.05 133.44 120.99 133.37C120.96 133.33 120.93 133.29 120.9 133.25C120.87 133.22 121.13 133.55 121.04 133.44C121.02 133.41 120.99 133.38 120.97 133.35C120.81 133.15 120.66 132.94 120.5 132.74C120.14 132.27 119.79 131.79 119.43 131.32C118.79 130.46 118.15 129.59 117.51 128.73C117.38 128.55 117.24 128.37 117.11 128.19C116.65 127.56 115.88 127.26 115.14 127.67C114.5 128.04 114.38 128.83 114.22 129.49C114.04 130.25 113.86 131 113.69 131.76C113.53 132.48 113.37 133.2 113.22 133.92C113.18 134.11 113.14 134.31 113.11 134.5C113.09 134.61 113.05 134.83 113.05 134.98C113.07 135.92 113.89 136.45 114.76 136.48C116.67 136.53 118.62 136.28 120.5 136C120.83 135.95 121.2 135.61 121.36 135.34C121.54 135.03 121.62 134.58 121.51 134.23C121.4 133.88 121.18 133.55 120.85 133.37C120.49 133.17 120.15 133.16 119.74 133.22Z" fill="white"/>
<path d="M88.17 99.93C95.72 92.31 108.01 93.84 115.6 100.55C119.17 103.7 121.38 108.41 122.58 112.97C123.25 115.53 123.38 118.11 122.8 120.7C121.92 124.66 120.84 128.42 117.7 131.23C116.75 132.08 118.15 133.47 119.09 132.62C122.34 129.71 123.56 125.93 124.55 121.83C125.24 118.99 125.32 116.18 124.69 113.32C124.18 111.02 123.31 108.8 122.31 106.67C121.12 104.14 119.75 101.8 117.73 99.83C113.79 95.99 108.54 93.48 103.07 92.9C97.13 92.27 91 94.26 86.78 98.52C85.89 99.44 87.28 100.83 88.17 99.93Z" fill="white"/>
</g>
<defs>
<clipPath id="clip0_243_787">
<rect width="156.21" height="161.14" fill="white"/>
</clipPath>
</defs>
</svg>
