<svg width="200" height="154" viewBox="0 0 200 154" fill="none" xmlns="http://www.w3.org/2000/svg">
<g clip-path="url(#clip0_240_510)">
<path d="M128.49 116.56L153.32 105.24L165.4 124.34C165.4 124.34 151.91 139.5 150.76 149.44C140.12 151.92 128.49 116.56 128.49 116.56Z" fill="#E08F8B"/>
<path d="M67.75 119.39L47.03 106.1L34.6 124.34C34.6 124.34 47.2 138.4 48.34 148.34C61.58 149.82 67.75 119.39 67.75 119.39Z" fill="#E08F8B"/>
<path d="M120.96 31.43L125.88 29.04C127.24 31.05 135.79 46.1 137.29 49.7C142.08 61.26 144.52 66.26 143.16 73.19C140.44 87.09 120.22 84.87 119.19 73.65C119.19 73.65 130.72 55.01 120.96 31.43Z" fill="black"/>
<path d="M134.61 119.09C134.61 119.09 137 144.86 137.38 153.68H64.28C64.08 148.42 67.78 139.56 67.78 139.56C65.61 131.05 65.9 125.24 65.9 125.24C65.9 125.24 65.05 126.58 62.61 125.36C59.54 123.82 61.15 120 61.15 120C61.15 120 59.44 123.29 56.27 121.71C53.1 120.13 54.81 117.44 54.81 117.44C54.81 117.44 52.85 119.41 50.06 117.93C47.99 116.83 48.72 114.15 48.72 114.15C48.72 114.15 44.82 115.98 42.75 112.69C40.68 109.4 45.23 106 45.23 106C45.23 106 43.41 99.18 48.71 90.85C55.31 80.48 76.43 75.68 76.43 75.68L100.84 71.68C100.84 71.68 104.72 72.25 115.35 73.7C122.34 74.65 131.36 74.84 142.15 83.17C149.95 89.19 152.46 99.37 152.46 99.37C152.46 99.37 157 102 155.7 105.55C154.54 108.7 150.74 108.32 150.74 108.32C150.74 108.32 152.82 109.74 149.66 111.12C147.35 112.13 145.91 109.84 145.91 109.84C145.91 109.84 147.39 112.9 144.43 114.28C141.4 115.69 139.2 113.09 139.2 113.09C139.2 113.09 140.95 120.1 134.61 119.09Z" fill="#008DB2"/>
<path d="M126.31 35.19C126.31 35.19 128.96 27.45 120.77 17.49C112.58 7.53001 95.08 -2.24999 76.25 12.26C59.2 25.41 48.8 62.93 51.96 79.92C55.04 96.48 83.17 98.86 88.27 80.96C90.26 73.98 84.87 58.62 84.87 58.62L126.31 35.19Z" fill="black"/>
<path d="M86.89 15.25C90.43 12.27 94.13 10.33 97.74 9.22999C97.56 9.05999 97.37 8.88999 97.2 8.69999C94.73 6.07999 94.74 2.40999 94.87 0.909993C94.9 0.529993 95.25 0.269993 95.61 0.339993C96.82 0.589993 99.44 1.31999 101.33 3.22999C102.47 4.37999 103.24 5.47999 103.75 6.49999C104.04 5.66999 104.46 4.80999 105.06 3.94999C107.01 1.15999 110.22 0.409993 111.82 0.209993C112.35 0.139993 112.8 0.579993 112.78 1.12999C112.72 2.49999 112.4 5.03999 111.01 7.12999C110.64 7.68999 110.27 8.16999 109.9 8.60999C112.42 9.15999 114.69 10.13 116.57 11.43C128 19.34 126.44 29.54 126.44 29.54C126.44 29.54 119.45 7.34999 100.39 16.93C81.33 26.5 82.12 44.55 82.12 44.55C82.12 44.55 81.13 42.64 79.33 42.67C77.05 42.72 75.68 43.57 75.68 43.57C75.68 43.57 74.72 25.49 86.89 15.25Z" fill="#00A94F"/>
<path d="M95.28 0C96.44 0.01 97.57 0.33 98.63 0.78C99.66 1.22 100.71 1.79 101.54 2.56C102.37 3.33 103.07 4.27 103.54 5.31C103.98 6.3 104.18 7.39 104.29 8.47C105.84 9.16 107.22 10.7 106.96 12.47C106.84 13.28 105.62 13.06 105.74 12.25C105.85 11.51 105.37 10.82 104.86 10.34C104.33 9.85 103.7 9.5 102.99 9.38C101.77 9.16 100.32 9.82 99.94 11.12C99.84 11.45 99.58 11.7 99.22 11.64C98.92 11.59 98.62 11.24 98.72 10.91C99.27 9.02 101.12 7.88 102.99 8.11C102.89 7.36 102.73 6.63 102.44 5.93C102.06 5.03 101.45 4.2 100.74 3.55C100.03 2.89 99.16 2.41 98.28 2.02C97.38 1.62 96.38 1.28 95.38 1.27C95.04 1.27 94.74 1.07 94.71 0.7C94.69 0.38 94.94 0 95.28 0Z" fill="#008043"/>
<path d="M94.92 20.25C94.92 20.25 91.74 22.64 89.76 24.97C89.12 25.72 88.13 26.96 87.3 28.16C86.73 28.99 86.17 29.98 86.17 29.98C86.17 29.98 84.42 25.62 86.92 22.45C90.24 18.26 94.92 20.25 94.92 20.25Z" fill="#97CA51"/>
<path d="M86.8 17.03C87.4 17.92 88.64 18.09 89.57 17.43C90.5 16.76 90.76 15.5 90.15 14.62C89.82 14.14 89.28 13.87 88.73 13.83C88.73 13.83 87.95 14.39 87.55 14.72C86.97 15.2 86.51 15.59 86.51 15.59C86.42 16.06 86.51 16.61 86.8 17.03Z" fill="#E24497"/>
<path d="M108.8 1.91L110.54 3.53L109.42 4.5L107.66 2.96L107.54 5.87L106.23 5.8L106.27 3.62L104.69 5.51L104.25 5.26C104.25 5.26 105.12 3.42 106.58 2.3C107.02 1.96 107.71 1.47 108.53 1.11C109.45 0.700002 110.49 0.440002 110.49 0.440002L110.73 1.27L108.8 1.91Z" fill="#97CA51"/>
<path d="M76.74 35.12L78.86 35.7L78.64 37.02L76.68 36.33L77.51 38.39L76.57 38.8L76.07 36.99C76.07 36.99 76.12 36.42 76.26 35.52C76.4 34.61 76.55 34.16 76.55 34.16L77.75 32.91L78.25 33.88L76.74 35.12Z" fill="#FAAE17"/>
<path d="M111.284 13.051C111.996 12.9234 112.475 12.2736 112.355 11.5995C112.234 10.9254 111.559 10.4823 110.847 10.6099C110.135 10.7375 109.655 11.3873 109.776 12.0614C109.897 12.7355 110.572 13.1785 111.284 13.051Z" fill="white"/>
<path d="M117.63 17.09L119.32 15.26L120.61 16.43L119.07 18.22C119.07 18.22 119.01 18.17 118.91 18.09C118.8 18 118.5 17.74 118.25 17.56C117.78 17.2 117.63 17.09 117.63 17.09Z" fill="#E24497"/>
<path d="M101.63 12.93L101.81 14.72L95.37 15.83L95.19 13.18L101.63 12.93Z" fill="#FAAE17"/>
<path d="M79.78 30.36C79.84 31.06 80.45 31.58 81.13 31.51C81.81 31.44 82.32 30.82 82.25 30.12C82.19 29.42 81.58 28.9 80.9 28.97C80.22 29.03 79.71 29.65 79.78 30.36Z" fill="white"/>
<path d="M113.42 75.95C113.42 75.95 115.02 84.39 104.78 84.26C96.31 84.15 91.12 79.99 88.91 76.96C88.91 76.96 88.43 70.9 86.96 65.92C85.49 60.94 84.41 58.52 84.41 58.52C84.41 58.52 77.88 59.78 74.66 54.49C71.45 49.2 72.77 43.79 77.25 42.68C81.73 41.57 82.07 44.2 83.6 47.22C85.13 50.24 90.26 54.05 89.34 44.1C89.34 44.1 94.44 40.94 98.13 36.25C101.82 31.56 103.33 26.69 103.33 26.69C103.33 26.69 105.65 28.71 111.32 30.92C118.7 33.8 124.58 32.68 125.15 32.49C125.73 32.3 130.32 51.1 130.13 60.74C129.91 73.46 120.25 76.31 113.42 75.95Z" fill="#F498A8"/>
<path d="M123.78 30.22C125.37 35.51 126.29 40.99 127.26 46.42C128.18 51.55 129.01 56.83 128.65 62.06C128.45 64.87 127.87 67.78 126.05 70.01C124.63 71.75 122.49 72.77 120.33 73.54C118.04 74.35 115.65 74.45 113.24 74.32C109.89 74.13 106.57 73.53 103.35 72.59C101.69 72.11 100.75 74.63 102.41 75.11C110.14 77.36 120.67 78.88 127.14 72.75C129.4 70.61 130.53 67.74 131.05 64.72C131.9 59.72 131.26 54.44 130.5 49.48C129.49 42.88 128.35 36.14 126.43 29.74C125.94 28.09 123.28 28.56 123.78 30.22Z" fill="black"/>
<path d="M77.17 49.24C77.24 49.27 77.31 49.3 77.39 49.33C77.41 49.34 77.64 49.46 77.46 49.36C77.58 49.43 77.7 49.5 77.82 49.58C77.94 49.66 78.04 49.75 78.15 49.84C78.3 49.96 78.07 49.74 78.21 49.89C78.25 49.94 78.3 49.98 78.34 50.03C78.44 50.13 78.53 50.24 78.61 50.35C78.66 50.41 78.7 50.48 78.75 50.54C78.86 50.69 78.69 50.43 78.79 50.61C78.93 50.86 79.06 51.11 79.17 51.38C79.19 51.44 79.22 51.5 79.24 51.56C79.26 51.62 79.26 51.61 79.23 51.52C79.24 51.56 79.25 51.59 79.26 51.63C79.3 51.77 79.33 51.91 79.36 52.05C79.39 52.19 79.4 52.33 79.42 52.47C79.42 52.51 79.43 52.55 79.43 52.59C79.43 52.49 79.43 52.48 79.43 52.54C79.43 52.6 79.43 52.67 79.43 52.73C79.43 53.01 79.4 53.29 79.34 53.57C79.38 53.36 79.33 53.59 79.32 53.63C79.3 53.7 79.27 53.78 79.25 53.85C79.2 54 79.14 54.14 79.07 54.28C78.86 54.7 79.17 55.3 79.6 55.43C80.1 55.59 80.53 55.35 80.75 54.9C82.06 52.19 80.56 48.64 77.8 47.55C77.36 47.38 76.79 47.62 76.65 48.08C76.49 48.56 76.7 49.05 77.17 49.24Z" fill="black"/>
<path d="M114.82 53.37C114.77 52.74 114.5 52.13 114.28 51.54C114.05 50.9 113.8 50.26 113.54 49.63C113.03 48.36 112.48 47.1 111.92 45.85C111.55 45.02 110.28 45.63 110.65 46.45C111.5 48.35 112.32 50.26 113.03 52.21C113.18 52.63 113.4 53.1 113.42 53.55C113.43 53.81 113.35 54.25 113.12 54.41C112.91 54.56 112.53 54.51 112.3 54.42C111.97 54.29 111.82 54.02 111.71 53.7C111.59 53.34 111.09 53.22 110.77 53.37C110.64 53.43 110.56 53.52 110.5 53.63C110.36 53.74 110.27 53.91 110.24 54.11C110.23 54.17 110.22 54.23 110.21 54.3C110.21 54.32 110.21 54.33 110.2 54.34C110.2 54.35 110.2 54.34 110.19 54.36C110.16 54.46 110.13 54.57 110.09 54.67C110.07 54.72 110.05 54.77 110.03 54.82C110.02 54.84 110.03 54.83 110.02 54.84C110.02 54.84 110.02 54.84 110.01 54.85C109.95 54.94 109.89 55.03 109.82 55.12C109.8 55.14 109.79 55.15 109.77 55.17C109.73 55.2 109.69 55.23 109.65 55.27C109.76 55.17 109.67 55.26 109.62 55.28C109.59 55.3 109.55 55.31 109.51 55.33C109.5 55.33 109.4 55.35 109.37 55.36C109.36 55.36 109.34 55.36 109.33 55.36C109.32 55.36 109.33 55.36 109.32 55.36C109.25 55.35 109.18 55.35 109.11 55.34C109.09 55.34 109.1 55.34 109.09 55.34C109.08 55.34 109.08 55.33 109.06 55.33C109 55.31 108.94 55.29 108.89 55.27C108.86 55.26 108.81 55.23 108.8 55.22C108.76 55.2 108.72 55.17 108.68 55.14C108.67 55.13 108.66 55.13 108.66 55.12C108.53 54.97 108.4 54.82 108.29 54.66C108.27 54.64 108.26 54.61 108.25 54.59C108.22 54.55 108.2 54.5 108.17 54.46C108.11 54.36 108.05 54.25 108 54.15C107.91 53.97 107.82 53.79 107.74 53.61C107.6 53.27 107.13 53.1 106.8 53.28C106.45 53.47 106.31 53.85 106.47 54.22C106.69 54.74 106.98 55.25 107.31 55.71C107.71 56.26 108.27 56.62 108.95 56.75C109.7 56.89 110.42 56.59 110.92 56.03C111.07 55.87 111.18 55.68 111.28 55.48C111.8 55.86 112.46 56.03 113.14 55.92C114.33 55.68 114.91 54.47 114.82 53.37Z" fill="black"/>
<path d="M116.2 82.56C115.21 84.94 113.3 87.03 110.96 88.14C109.13 89.01 106.95 89.17 104.95 89.14C100.57 89.06 95.68 87.98 92.27 85.09C91.41 84.36 90.41 85.79 91.26 86.51C95.11 89.77 100.83 90.99 105.76 90.87C108.02 90.82 110.38 90.51 112.37 89.36C114.81 87.96 116.75 85.76 117.83 83.17C118.27 82.12 116.63 81.52 116.2 82.56Z" fill="#006B83"/>
<path d="M122.15 44.09C121.56 44.36 119.31 44 117.33 44.27C115.24 44.56 114.25 45.02 113.67 44.93C112.6 44.76 112.24 43.51 112.26 42.8C112.29 41.96 112.83 40.31 115.97 39.55C117.88 39.09 119.44 39.31 120.52 39.61C121.02 39.75 122.42 40.5 122.87 41.82C123.27 43.05 122.74 43.82 122.15 44.09Z" fill="white"/>
<path d="M116.51 44.2C118.72 44.39 119.02 40.96 116.81 40.77C114.6 40.57 114.3 44.01 116.51 44.2Z" fill="black"/>
<path d="M96.51 44.95C96.64 43.56 97.84 42.51 98.29 42.26C99.27 41.72 100.73 41.14 102.7 41.16C105.93 41.18 106.83 42.66 107.05 43.48C107.23 44.16 107.16 45.47 106.16 45.87C105.62 46.09 104.55 45.87 102.45 46.07C100.46 46.26 98.35 47.12 97.72 47C97.08 46.87 96.39 46.24 96.51 44.95Z" fill="white"/>
<path d="M100.86 45.92C103.07 46.11 103.37 42.68 101.16 42.49C98.94 42.29 98.64 45.73 100.86 45.92Z" fill="black"/>
<path d="M84.43 58.53C84.43 58.53 77.89 59.79 74.67 54.5C71.45 49.21 72.78 43.79 77.27 42.68C81.75 41.57 82.1 44.21 83.63 47.23C84.36 48.67 85.72 50.42 86.86 50.49L84.43 58.53Z" fill="#F498A8"/>
<path d="M77.17 49.24C77.24 49.27 77.31 49.3 77.39 49.33C77.41 49.34 77.64 49.46 77.46 49.36C77.58 49.43 77.7 49.5 77.82 49.58C77.94 49.66 78.04 49.75 78.15 49.84C78.3 49.96 78.07 49.74 78.21 49.89C78.25 49.94 78.3 49.98 78.34 50.03C78.44 50.13 78.53 50.24 78.61 50.35C78.66 50.41 78.7 50.48 78.75 50.54C78.86 50.69 78.69 50.43 78.79 50.61C78.93 50.86 79.06 51.11 79.17 51.38C79.19 51.44 79.22 51.5 79.24 51.56C79.26 51.62 79.26 51.61 79.23 51.52C79.24 51.56 79.25 51.59 79.26 51.63C79.3 51.77 79.33 51.91 79.36 52.05C79.39 52.19 79.4 52.33 79.42 52.47C79.42 52.51 79.43 52.55 79.43 52.59C79.43 52.49 79.43 52.47 79.43 52.54C79.43 52.6 79.43 52.67 79.43 52.73C79.43 53.01 79.4 53.29 79.34 53.57C79.38 53.36 79.33 53.59 79.32 53.63C79.3 53.7 79.27 53.78 79.25 53.85C79.2 54 79.14 54.14 79.07 54.28C78.86 54.7 79.17 55.3 79.6 55.43C80.1 55.59 80.53 55.35 80.75 54.9C82.06 52.19 80.56 48.63 77.8 47.54C77.36 47.37 76.79 47.61 76.65 48.07C76.49 48.56 76.7 49.05 77.17 49.24Z" fill="black"/>
<path d="M97.1 39.28C97.11 39.27 97.32 39.02 97.18 39.18C97.05 39.33 97.25 39.11 97.28 39.08C97.41 38.96 97.54 38.84 97.68 38.73C97.81 38.63 97.94 38.53 98.07 38.44C98.19 38.36 98.25 38.33 98.09 38.42C98.17 38.37 98.25 38.32 98.33 38.28C98.64 38.1 98.96 37.95 99.29 37.82C99.47 37.75 99.65 37.68 99.83 37.62C99.65 37.68 99.74 37.65 99.87 37.61C99.96 37.58 100.05 37.56 100.15 37.54C100.5 37.45 100.86 37.38 101.22 37.34C101.41 37.32 101.6 37.3 101.79 37.28C102 37.26 101.45 37.28 101.81 37.28C101.89 37.28 101.96 37.28 102.04 37.28C102.41 37.28 102.78 37.31 103.14 37.36C103.21 37.37 103.28 37.38 103.35 37.4C103.69 37.45 103.16 37.34 103.35 37.4C103.53 37.45 103.72 37.5 103.9 37.56C104.59 37.79 105.45 37.47 105.69 36.74C105.91 36.04 105.61 35.2 104.87 34.95C101.46 33.81 97.14 34.88 94.84 37.68C94.38 38.24 94.57 39.23 95.17 39.62C95.84 40.05 96.61 39.88 97.1 39.28Z" fill="black"/>
<path d="M114.18 36.23C114.32 36.1 114.48 35.99 114.63 35.87C114.74 35.79 114.72 35.8 114.62 35.87C114.7 35.82 114.78 35.77 114.87 35.72C115.2 35.54 115.53 35.41 115.88 35.26C115.62 35.37 115.87 35.26 115.93 35.25C116.02 35.22 116.12 35.2 116.22 35.17C116.41 35.12 116.61 35.09 116.8 35.05C116.98 35.02 117.15 35 117.33 34.99C117.47 34.98 117.57 34.98 117.37 34.98C117.47 34.98 117.57 34.98 117.67 34.98C118.05 34.98 118.42 35.02 118.79 35.08C118.87 35.09 118.94 35.11 119.02 35.12C118.72 35.07 118.99 35.11 119.06 35.13C119.25 35.18 119.43 35.24 119.62 35.3C119.78 35.36 119.94 35.42 120.1 35.5C120.1 35.5 120.42 35.66 120.25 35.57C120.08 35.48 120.36 35.64 120.39 35.66C120.55 35.76 120.71 35.87 120.86 35.98C120.92 36.03 120.98 36.08 121.04 36.12C121.33 36.35 120.85 35.93 121.11 36.19C121.62 36.7 122.48 36.9 123.07 36.36C123.58 35.89 123.79 34.95 123.24 34.4C120.41 31.59 115.42 31.45 112.4 34.08C111.85 34.56 111.72 35.48 112.23 36.04C112.72 36.61 113.6 36.74 114.18 36.23Z" fill="black"/>
<path d="M48.5 128.53C46.97 127.02 42.45 122.33 42.45 122.33C42.45 122.33 44.4 119.86 44.72 116.38C44.91 114.27 44.46 110.71 45.05 109.07C46.38 105.36 48.72 104.14 49.34 101.13C49.8 98.9 47.68 96.96 44.54 97.22C41.47 97.48 39.78 101.11 39.32 103.12C38.69 105.88 36.72 109.42 35.31 108.74C33.69 107.97 33.09 104.26 32.17 99.64C30.58 91.64 31.25 83.3 26 83.67C21.91 83.95 21.48 88.39 23.1 94.19C24.06 97.61 25.91 102.97 24.97 103.26C24.46 103.41 21.58 99.18 18.51 94.43C15.98 90.52 13.78 86.59 10.48 86.47C6.48998 86.33 4.51999 90.36 8.46999 95.06C13.2 100.68 19.06 105.62 18.16 106.45C17.61 106.95 12.43 103.93 9.35998 102.7C5.92998 101.32 1.45999 100.2 0.209985 103.52C-1.04001 106.84 3.32998 108.33 6.48998 109.44C9.75998 110.59 16.1 112.4 15.81 113.01C15.49 113.7 1.03999 108.92 2.12999 115.39C3.00998 120.61 11.02 118.03 15.04 119.94C16.83 120.79 17.29 124.86 21.59 127.46C24.84 129.43 28.19 130.06 28.19 130.06C28.19 130.06 30.94 137.19 41.23 146.22C42.91 147.72 50.45 152.3 55.69 146.88C60.94 141.45 54.99 134.93 48.5 128.53Z" fill="#F498A8"/>
<path d="M19.22 115.01C19.98 111.48 23.01 108.78 26.13 107.24C26.94 106.84 26.38 105.55 25.56 105.95C21.95 107.73 18.69 110.79 17.82 114.85C17.74 115.22 18.09 115.59 18.44 115.63C18.85 115.68 19.14 115.38 19.22 115.01Z" fill="black"/>
<path d="M37.29 107.38C34.67 108.6 32.83 111.28 32.72 114.18C32.7 114.56 32.94 114.91 33.34 114.96C33.7 115 34.1 114.72 34.12 114.34C34.22 111.93 35.67 109.69 37.86 108.67C38.68 108.29 38.12 107 37.29 107.38Z" fill="black"/>
<path d="M65.74 124.49C65.76 124.47 65.76 124.47 65.74 124.49V124.49Z" fill="#006B83"/>
<path d="M67.11 122.13C67.11 122.07 67.12 122.01 67.11 122.13V122.13Z" fill="#006B83"/>
<path d="M75.64 116.81C75.33 116.5 74.72 116.45 74.41 116.81C72.77 118.71 70.4 119.9 67.92 120.02C67.45 120.04 67.05 120.4 67.05 120.89C67.05 121.05 67.11 121.19 67.19 121.33C67.17 121.4 67.14 121.47 67.15 121.55C67.15 121.72 67.15 121.9 67.13 122.07C67.13 122.11 67.12 122.15 67.12 122.18C67.12 122.15 67.12 122.15 67.12 122.13C67.12 122.14 67.12 122.14 67.12 122.15C67.11 122.23 67.09 122.32 67.07 122.4C67.03 122.57 66.98 122.73 66.92 122.9C66.91 122.94 66.89 122.97 66.88 123.01C66.87 123.04 66.81 123.2 66.86 123.07C66.91 122.95 66.86 123.07 66.85 123.1C66.83 123.14 66.81 123.19 66.79 123.23C66.72 123.38 66.64 123.52 66.55 123.65C66.5 123.72 66.45 123.79 66.4 123.86C66.38 123.88 66.36 123.91 66.34 123.93C66.23 124.06 66.11 124.19 65.98 124.31C65.92 124.37 65.85 124.43 65.79 124.48C65.76 124.5 65.73 124.53 65.7 124.55C65.73 124.52 65.75 124.5 65.76 124.49C65.74 124.51 65.71 124.53 65.69 124.55C65.32 124.81 65.11 125.32 65.38 125.74C65.62 126.11 66.18 126.34 66.57 126.05C67.99 125.04 68.88 123.41 68.89 121.66C71.49 121.3 73.93 120.03 75.65 118.03C75.95 117.69 75.99 117.16 75.64 116.81Z" fill="#006B83"/>
<path d="M129.43 99.15C132.17 103.81 133.56 109.14 133.44 114.55C133.42 115.67 135.16 115.67 135.18 114.55C135.3 108.84 133.82 103.19 130.93 98.27C130.37 97.3 128.86 98.18 129.43 99.15Z" fill="#006B83"/>
<path d="M151.5 128.53C153.03 127.02 157.55 122.33 157.55 122.33C157.55 122.33 155.6 119.86 155.28 116.38C155.09 114.27 155.54 110.71 154.95 109.07C153.62 105.36 151.28 104.14 150.66 101.13C150.2 98.9 152.32 96.96 155.46 97.22C158.53 97.48 160.22 101.11 160.68 103.12C161.31 105.88 163.28 109.42 164.69 108.74C166.31 107.97 166.91 104.26 167.83 99.64C169.42 91.64 168.75 83.3 174 83.67C178.09 83.95 178.52 88.39 176.9 94.19C175.94 97.61 174.09 102.97 175.03 103.26C175.54 103.41 178.42 99.18 181.49 94.43C184.02 90.52 186.22 86.59 189.52 86.47C193.51 86.33 195.48 90.36 191.53 95.06C186.8 100.68 180.94 105.62 181.84 106.45C182.39 106.95 187.57 103.93 190.64 102.7C194.07 101.32 198.54 100.2 199.79 103.52C201.04 106.84 196.67 108.33 193.51 109.44C190.24 110.59 183.9 112.4 184.19 113.01C184.51 113.7 198.96 108.92 197.87 115.39C196.99 120.61 188.98 118.03 184.96 119.94C183.17 120.79 182.71 124.86 178.41 127.46C175.16 129.43 171.81 130.06 171.81 130.06C171.81 130.06 169.06 137.19 158.77 146.22C157.09 147.72 149.55 152.3 144.31 146.88C139.06 141.45 145.01 134.93 151.5 128.53Z" fill="#F498A8"/>
<path d="M180.78 115.01C180.02 111.48 176.99 108.78 173.87 107.24C173.06 106.84 173.62 105.55 174.44 105.95C178.05 107.73 181.31 110.79 182.18 114.85C182.26 115.22 181.91 115.59 181.56 115.63C181.15 115.68 180.86 115.38 180.78 115.01Z" fill="black"/>
<path d="M162.71 107.38C165.33 108.6 167.17 111.28 167.28 114.18C167.3 114.56 167.06 114.91 166.66 114.96C166.3 115 165.9 114.72 165.88 114.34C165.78 111.93 164.33 109.69 162.14 108.67C161.32 108.29 161.88 107 162.71 107.38Z" fill="black"/>
<path d="M97.92 54.67C97.92 54.81 97.92 54.96 97.91 55.1C97.9 55.17 97.85 55.32 97.91 55.12C97.89 55.17 97.89 55.25 97.88 55.3C97.83 55.55 97.78 55.84 97.65 56.06C97.76 55.87 97.66 56.04 97.64 56.08C97.61 56.14 97.59 56.19 97.56 56.25C97.49 56.38 97.42 56.5 97.34 56.62C97.31 56.67 97.27 56.72 97.23 56.77C97.2 56.82 97.13 56.97 97.21 56.79C97.16 56.9 97.03 57.01 96.94 57.09C96.85 57.19 96.75 57.28 96.65 57.37C96.6 57.41 96.56 57.45 96.51 57.49C96.35 57.63 96.66 57.39 96.49 57.51C96.27 57.66 96.05 57.8 95.8 57.92C95.76 57.94 95.58 58.04 95.78 57.93C95.73 57.96 95.67 57.98 95.61 58C95.48 58.05 95.34 58.09 95.2 58.12C95.08 58.15 94.95 58.16 94.84 58.19C95.05 58.13 94.89 58.18 94.82 58.19C94.74 58.2 94.66 58.2 94.57 58.2C94.12 58.21 93.7 58.59 93.72 59.05C93.74 59.51 94.09 59.91 94.57 59.9C97.3 59.85 99.7 57.39 99.62 54.65C99.61 54.2 99.24 53.78 98.77 53.8C98.32 53.84 97.91 54.19 97.92 54.67Z" fill="black"/>
<path d="M102.35 66.42C103.97 67.56 106.2 67.63 107.93 66.7C108.32 66.49 108.48 65.91 108.24 65.53C107.98 65.13 107.49 65 107.07 65.22C106.99 65.27 106.9 65.31 106.81 65.35C106.73 65.39 106.74 65.38 106.82 65.35C106.77 65.37 106.73 65.38 106.69 65.4C106.51 65.47 106.32 65.52 106.14 65.56C106.05 65.58 105.95 65.6 105.86 65.61C106.04 65.58 105.79 65.61 105.73 65.62C105.53 65.63 105.32 65.64 105.12 65.62C105.07 65.62 105.02 65.61 104.98 65.61C104.96 65.61 104.8 65.59 104.91 65.6C105.02 65.61 104.86 65.59 104.84 65.59C104.79 65.58 104.75 65.57 104.7 65.56C104.51 65.52 104.33 65.47 104.14 65.41C104.09 65.39 104.05 65.38 104 65.36C103.98 65.35 103.84 65.3 103.93 65.34C104.02 65.38 103.88 65.32 103.87 65.31C103.83 65.29 103.78 65.27 103.74 65.25C103.56 65.16 103.38 65.05 103.22 64.93C102.85 64.67 102.26 64.85 102.05 65.24C101.81 65.69 101.96 66.15 102.35 66.42Z" fill="black"/>
<path d="M97.79 59.09C101.35 63.19 107.17 64.36 112.1 62.17C113.1 61.73 112.23 60.26 111.24 60.7C106.98 62.59 102.02 61.37 99 57.88C98.27 57.06 97.07 58.27 97.79 59.09Z" fill="black"/>
</g>
<defs>
<clipPath id="clip0_240_510">
<rect width="200" height="153.68" fill="white"/>
</clipPath>
</defs>
</svg>
