<svg width="149" height="162" viewBox="0 0 149 162" fill="none" xmlns="http://www.w3.org/2000/svg">
<g clip-path="url(#clip0_243_686)">
<path d="M116.54 126.17L119.82 162.28H145.89L136.29 118.5L116.54 126.17Z" fill="#A85630"/>
<path fill-rule="evenodd" clip-rule="evenodd" d="M9.90002 110.43C9.90002 110.43 -2.73998 129.1 0.55002 138.83C3.84002 148.55 24.35 161.81 30.93 162.28C37.51 162.75 36.87 141.91 36.87 141.91L23.05 130.5L29.2 122.29L9.90002 110.43Z" fill="#8C4520"/>
<path d="M50.86 12.65L49.2 12.46C47.58 12.28 47.49 11.13 46.8 12.61C43.75 19.09 41.01 30.16 37.59 54.06C33.15 85.2 39.12 86.79 44.4 87.35C50.79 88.03 61.69 83.13 65.2 67.19C68.05 54.17 50.86 12.65 50.86 12.65Z" fill="black"/>
<path d="M0.830078 110.71C3.86008 129.52 28.2701 138.36 28.2701 138.36L33.9001 127.38C32.5501 144.64 29.2801 147.09 30.9201 162.27L120.05 162.28L118.86 139.62C134.07 138.4 148.61 133.19 148.61 133.19C148.61 133.19 129.64 83.18 110.28 77.72C100.22 74.88 66.7801 72.63 44.9101 77.02C24.7101 81.07 0.830078 110.71 0.830078 110.71Z" fill="#545554"/>
<path d="M47.05 21.43C47.05 21.43 43.84 47.51 46.19 59.14C48.54 70.77 56.86 71.84 60.49 72.13C60.49 72.13 60.51 79.6 62.92 81.5C69.68 86.82 82.86 82.73 86.83 77.07C90.8 71.41 89.65 19.19 89.65 19.19C89.65 19.19 54.2 14.26 47.05 21.43Z" fill="#A65630"/>
<path d="M44.4101 27.76L49.4801 26.05L51.2101 20.51L51.8001 25.09L60.2701 24.75L63.0701 19.94L62.9601 24.85L74.5301 26.68L77.5401 22.04L76.9201 27.58L85.1001 29.66C85.1001 29.66 80.6101 60.13 90.3901 91.09C94.1901 103.12 106.61 100.46 110.56 98.69C119.02 94.91 120.5 87.92 120.99 81.74C121.89 70.58 115.21 55.71 104.54 26.57C100.43 15.34 95.6201 7.01 89.1501 3.39001C81.4501 -0.919995 72.6201 -0.639995 64.0701 1.57C60.8901 2.39 57.3801 3.58 54.2001 5.39C49.9201 7.82 46.1601 12.26 45.1501 17.08C44.4701 20.34 43.8501 24.59 44.4101 27.76Z" fill="black"/>
<path d="M69.27 73.35C69.51 72.25 68.88 71.61 68.03 71.3C68.15 70.64 68.11 69.96 67.85 69.35C67.39 68.26 66.36 67.54 65.17 67.49C64.35 67.46 63.64 67.8 63.13 68.36C62.89 68.18 62.6 68.04 62.27 67.96C61.71 67.83 61.04 67.97 60.57 68.3C60.31 68.48 60.08 68.72 59.93 69C59.57 68.95 59.21 69 58.88 69.13C58.15 69.43 57.61 70.06 57.35 70.79C57.09 71.52 57.2 72.27 57.71 72.86C57.74 72.9 57.78 72.92 57.81 72.96C57.24 73.56 56.94 74.41 57.18 75.25C57.37 75.92 57.86 76.47 58.47 76.79C58.81 76.96 59.19 77.05 59.57 77.06C59.69 77.06 59.81 77.04 59.93 77.01V77.02C60.06 77.34 60.23 77.61 60.46 77.87C60.84 78.3 61.36 78.59 61.93 78.66C62.59 78.75 63.24 78.57 63.73 78.13C63.95 77.93 64.13 77.69 64.26 77.43C64.28 77.39 64.29 77.35 64.3 77.31C64.5 77.47 64.71 77.61 64.95 77.71C65.55 77.94 66.19 77.87 66.74 77.54C67.59 77.02 67.85 76.13 67.8 75.22C68.53 74.85 69.09 74.17 69.27 73.35Z" fill="black"/>
<path d="M58.8301 38.19C58.1301 39.8 57.4601 41.42 56.8601 43.07C56.5501 43.91 56.2501 44.75 55.9701 45.6C55.7701 46.21 55.5601 46.84 55.5601 47.49C55.5501 48.96 56.6901 50.06 58.1701 50.08C59.7601 50.1 60.9201 48.9 61.1401 47.39C61.2101 46.95 60.7501 46.54 60.3301 46.53C59.8401 46.52 59.5401 46.89 59.4701 47.34C59.3401 48.2 58.2801 48.73 57.5401 48.23C56.8301 47.75 57.4201 46.49 57.6201 45.89C58.4501 43.45 59.3801 41.05 60.4201 38.68C60.6001 38.27 60.2701 37.76 59.8701 37.64C59.4001 37.49 59.0101 37.78 58.8301 38.19Z" fill="black"/>
<path d="M59.82 47.19C59.5 47.88 59.65 48.76 60.06 49.38C60.54 50.11 61.27 50.58 62.13 50.7C62.85 50.8 63.59 50.58 64.16 50.13C64.76 49.66 65 48.89 65.18 48.18C65.28 47.76 65.09 47.26 64.63 47.14C64.22 47.03 63.7 47.24 63.59 47.69C63.52 47.96 63.45 48.23 63.36 48.49C63.3 48.66 63.44 48.36 63.35 48.52C63.32 48.57 63.29 48.63 63.26 48.68C63.24 48.71 63.23 48.73 63.21 48.76C63.17 48.81 63.19 48.8 63.25 48.72C63.22 48.73 63.16 48.81 63.14 48.84C63.13 48.85 63.03 48.95 63.02 48.94C63.12 48.87 63.13 48.86 63.06 48.91C63.04 48.92 63.03 48.93 63.01 48.94C62.96 48.97 62.91 48.99 62.86 49.01C62.71 49.08 63.03 48.96 62.83 49.02C62.78 49.03 62.72 49.05 62.67 49.06C62.64 49.07 62.62 49.07 62.59 49.07C62.5 49.08 62.52 49.08 62.64 49.07C62.64 49.09 62.34 49.06 62.31 49.06C62.12 49.05 62.49 49.11 62.31 49.06C62.26 49.05 62.2 49.03 62.15 49.02C62.11 49.01 62.01 48.99 61.97 48.95C62.08 49 62.09 49.01 62 48.96C61.98 48.95 61.96 48.94 61.94 48.93C61.88 48.89 61.81 48.85 61.75 48.81C61.72 48.79 61.7 48.77 61.67 48.75C61.75 48.82 61.76 48.83 61.72 48.79C61.68 48.74 61.63 48.7 61.59 48.66C61.56 48.63 61.4 48.46 61.54 48.61C61.5 48.57 61.36 48.36 61.37 48.3C61.4 48.4 61.41 48.42 61.39 48.36C61.38 48.33 61.37 48.3 61.36 48.28C61.34 48.22 61.33 48.17 61.32 48.11C61.28 47.94 61.31 48.26 61.32 48.09C61.32 48.03 61.32 47.97 61.33 47.92C61.33 47.75 61.28 48.09 61.34 47.89C61.36 47.82 61.39 47.76 61.41 47.7C61.49 47.52 61.44 47.23 61.35 47.07C61.25 46.89 61.06 46.72 60.86 46.66C60.65 46.61 60.42 46.61 60.23 46.72C60.02 46.82 59.91 46.98 59.82 47.19Z" fill="black"/>
<path d="M53.3501 51.32C52.7001 51.68 52.0701 52.1 51.4901 52.56C51.3901 52.62 51.3201 52.69 51.2601 52.78C51.1901 52.87 51.1401 52.96 51.1201 53.08C51.0801 53.28 51.1101 53.54 51.2301 53.71C51.3501 53.89 51.5301 54.04 51.7501 54.08C51.9501 54.12 52.2101 54.1 52.3801 53.97C52.9701 53.51 53.5901 53.09 54.2401 52.73C54.4201 52.63 54.5601 52.4 54.6101 52.21C54.6501 52.01 54.6201 51.75 54.5001 51.58C54.3801 51.4 54.2001 51.25 53.9801 51.21C53.7501 51.17 53.5501 51.21 53.3501 51.32Z" fill="black"/>
<path d="M57.6901 52.18C57.4301 52.57 57.1801 52.96 56.9201 53.35C56.8601 53.45 56.8301 53.56 56.8301 53.67C56.8101 53.78 56.8201 53.89 56.8601 53.99C56.9201 54.18 57.0801 54.38 57.2601 54.47C57.4601 54.56 57.6901 54.61 57.9001 54.53C57.9601 54.5 58.0301 54.47 58.0901 54.44C58.2101 54.36 58.3101 54.26 58.3801 54.13C58.6401 53.74 58.8901 53.35 59.1501 52.96C59.2101 52.86 59.2401 52.75 59.2401 52.64C59.2601 52.53 59.2501 52.42 59.2101 52.32C59.1501 52.13 58.9901 51.93 58.8101 51.84C58.6101 51.75 58.3801 51.7 58.1701 51.78C58.1101 51.81 58.0401 51.84 57.9801 51.87C57.8501 51.95 57.7601 52.05 57.6901 52.18Z" fill="black"/>
<path d="M63.0001 52.87C63.0101 52.9 63.0301 52.93 63.0401 52.96C63.0101 52.9 62.9801 52.83 62.9501 52.77C63.1601 53.23 63.3201 53.71 63.4301 54.2C63.4701 54.39 63.6701 54.59 63.8301 54.68C64.0101 54.78 64.2801 54.81 64.4701 54.74C64.6701 54.67 64.8601 54.53 64.9501 54.34C64.9801 54.27 65.0001 54.2 65.0301 54.13C65.0601 53.98 65.0601 53.84 65.0101 53.7C64.8801 53.1 64.6601 52.54 64.4001 51.99C64.3401 51.89 64.2701 51.82 64.1801 51.76C64.0901 51.69 64.0001 51.64 63.8801 51.62C63.6801 51.58 63.4201 51.61 63.2501 51.73C63.0701 51.85 62.9201 52.03 62.8801 52.25C62.8701 52.32 62.8701 52.4 62.8601 52.47C62.8801 52.61 62.9201 52.75 63.0001 52.87Z" fill="black"/>
<path d="M67.7801 50.97C68.0401 51.24 68.3101 51.52 68.5701 51.79C68.6501 51.87 68.7401 51.92 68.8501 51.95C68.9501 52 69.0601 52.02 69.1801 52.01C69.2901 52.01 69.3901 51.98 69.4901 51.93C69.5901 51.89 69.6801 51.83 69.7501 51.75C69.8901 51.58 69.9901 51.37 69.9701 51.14C69.9601 51.07 69.9401 51 69.9301 50.93C69.8801 50.79 69.8101 50.67 69.7001 50.57C69.4401 50.3 69.1701 50.02 68.9101 49.75C68.8301 49.67 68.7401 49.62 68.6301 49.59C68.5301 49.54 68.4201 49.52 68.3001 49.53C68.1901 49.53 68.0901 49.56 67.9901 49.61C67.8901 49.65 67.8001 49.71 67.7301 49.79C67.5901 49.96 67.4901 50.17 67.5101 50.4C67.5201 50.47 67.5401 50.54 67.5501 50.61C67.6001 50.75 67.6801 50.87 67.7801 50.97Z" fill="black"/>
<path d="M71.4001 51.86C71.4701 53.05 72.1901 54 73.0901 54.73C73.9701 55.44 75.2201 55.83 76.3201 55.44C76.6901 55.31 77.0101 54.97 76.9001 54.54C76.8101 54.18 76.4001 53.82 76.0001 53.96C75.9001 54 75.8001 54.03 75.6901 54.05C75.6301 54.06 75.5701 54.07 75.5101 54.08C75.5901 54.07 75.5701 54.08 75.5001 54.08C75.3901 54.08 75.2901 54.08 75.1801 54.07C75.1201 54.06 75.0601 54.06 75.0001 54.05C75.0801 54.06 75.0501 54.06 74.9901 54.04C74.8901 54.01 74.7801 53.98 74.6801 53.94C74.6301 53.92 74.5701 53.9 74.5201 53.87C74.4601 53.85 74.4501 53.83 74.5101 53.87C74.3201 53.76 74.1401 53.65 73.9601 53.52C73.9201 53.49 73.8901 53.46 73.8501 53.43C73.7501 53.35 73.9701 53.55 73.8101 53.4C73.7301 53.33 73.6601 53.26 73.5901 53.18C73.4501 53.03 73.3301 52.88 73.2001 52.72C73.1301 52.63 73.2501 52.81 73.2001 52.71C73.1701 52.66 73.1401 52.62 73.1101 52.57C73.0601 52.48 73.0201 52.39 72.9801 52.3C72.9701 52.29 72.9301 52.16 72.9501 52.24C72.9801 52.33 72.9301 52.16 72.9201 52.14C72.9101 52.1 72.9001 52.05 72.8901 52.01C72.8901 51.99 72.8701 51.77 72.8801 51.95C72.8601 51.56 72.6101 51.16 72.1701 51.15C71.8301 51.14 71.3801 51.44 71.4001 51.86Z" fill="black"/>
<path d="M56.3001 59.7C59.2901 59.97 62.3401 59.68 65.2201 58.8C68.0501 57.93 70.9501 56.57 73.1301 54.51C74.0701 53.62 72.7301 52.11 71.7901 53.01C69.8101 54.88 67.1301 56.15 64.5401 56.91C61.9001 57.68 59.1601 57.94 56.4201 57.69C55.1201 57.57 55.0101 59.58 56.3001 59.7Z" fill="black"/>
<path d="M72.91 53.08C71.72 53.1 70.71 54.47 69.73 55.06C68.61 55.73 67.44 56.26 66.24 56.77C64.48 57.51 62.58 57.53 60.68 57.73C59.64 57.84 58.7 58.07 57.68 58.33C57.52 58.37 57.38 58.45 57.27 58.54C56.98 58.74 56.79 59.08 56.9 59.53C57.79 63.17 60.89 66.11 64.83 65.24C68.16 64.5 71.01 62.1 72.83 59.29C73.26 58.63 73.63 57.93 73.97 57.21C74.3 56.52 74.84 55.54 74.86 54.76C74.9 53.75 73.82 53.07 72.91 53.08Z" fill="black"/>
<path d="M67.3401 59.25C65.5201 61.51 65.7101 63.73 66.0101 64.91C68.8301 63.93 71.2301 61.77 72.8301 59.3C73.2501 58.65 73.6201 57.96 73.9501 57.26C72.2401 57.01 69.1801 56.97 67.3401 59.25Z" fill="#EA525F"/>
<path d="M50.36 30.14C51.87 28.47 54.86 27.67 56.12 30.02C57.12 31.88 60.04 30.37 59.04 28.5C56.81 24.36 51.15 24.39 48.14 27.72C46.73 29.27 48.93 31.71 50.36 30.14Z" fill="black"/>
<path d="M79.6201 31.89C78.8401 29.76 76.8901 28.21 74.7501 27.59C72.0801 26.82 69.5201 27.7 67.4501 29.42C65.8201 30.77 68.0401 33.2 69.6701 31.85C72.0201 29.9 75.5901 30.36 76.7101 33.41C77.4201 35.4 80.3401 33.86 79.6201 31.89Z" fill="black"/>
<path d="M42.6501 33.08C41.9801 40.46 41.7701 47.96 42.3401 55.35C42.5201 57.73 42.9001 59.88 43.7401 62.11C46.0501 68.23 50.9401 72.9 57.5201 73.97C63.9101 75 70.4501 72.68 76.1201 69.94C78.0201 69.02 76.5101 66.1 74.6001 67.02C67.3801 70.51 57.2601 73.59 50.7201 67.1C47.5601 63.97 46.0601 60.1 45.6601 55.84C44.9501 48.38 45.2601 40.71 45.9401 33.26C46.1201 31.16 42.8401 30.98 42.6501 33.08Z" fill="black"/>
<path d="M49.76 33.61C49.76 33.61 46.92 34.86 47.52 37.3C47.98 39.16 49.15 38.98 50.78 38.38C52.38 37.8 53.28 37.84 54.37 38.5C55.46 39.16 57.19 39.2 57.58 37.39C57.97 35.58 54.89 31.2 49.76 33.61Z" fill="white"/>
<path d="M68.7001 35.18C68.7001 35.18 65.9701 36.01 66.3201 38.48C66.6801 40.96 69.5101 39.52 70.8601 39.7C72.2101 39.89 73.5401 41.92 75.3701 41.58C77.2001 41.24 78.3001 40 76.8601 37.46C75.4201 34.93 72.6401 33.92 68.7001 35.18Z" fill="white"/>
<path d="M54.6301 37.84C52.2001 38.85 50.6201 35.01 53.0601 33.99C55.4901 32.98 57.0701 36.82 54.6301 37.84Z" fill="black"/>
<path d="M73.6001 39.52C71.1701 40.53 69.5901 36.69 72.0301 35.67C74.4601 34.67 76.0401 38.51 73.6001 39.52Z" fill="black"/>
<path d="M35.2701 102.13C33.6601 109.74 33.0801 117.51 32.9701 125.28C32.9401 127.87 32.9501 130.47 33.0001 133.06C33.0101 133.55 33.3401 134 33.8601 134.02C34.3201 134.05 34.8301 133.66 34.8201 133.16C34.6701 124.95 34.8101 116.69 35.9701 108.55C36.2501 106.59 36.5901 104.64 37.0001 102.7C37.1001 102.22 36.9201 101.71 36.4201 101.55C35.9901 101.4 35.3701 101.64 35.2701 102.13Z" fill="#3A3A3A"/>
<path d="M33.2701 157.27L46.7901 129.5C50.0701 128.82 52.4901 126.87 53.4401 123.87C54.3901 120.87 59.4901 118.61 62.4001 118.07C65.3101 117.53 67.0301 113.26 63.9401 112.22C60.8501 111.18 57.6401 112.49 55.7501 113.52C53.8601 114.55 52.0801 113.49 52.0301 111.31C51.9701 109.13 52.0701 99.44 52.0901 95.77C52.1201 92.1 50.8901 90.55 48.7001 90.7C46.5101 90.84 46.5601 94.69 46.3601 100C46.1601 105.31 46.5101 107.95 45.8701 107.92C45.2301 107.89 45.3201 104.66 45.3201 98.29C45.3201 91.92 45.2701 87.99 43.2001 87.52C41.1301 87.06 39.2401 88.18 39.3601 93.95C39.4801 99.72 39.9001 106.38 39.0801 107.03C38.2601 107.68 37.4501 101.7 37.3401 97.24C37.2301 92.78 36.5901 91.7 35.1201 91.53C33.6401 91.36 31.6201 93.35 31.8201 99.21C31.8201 99.21 31.2901 97.78 29.5401 97.78C27.7901 97.77 26.9201 100.95 27.4401 107.44C27.9601 113.93 29.5001 114.54 29.5601 118.12C29.6301 121.7 29.8301 124.83 32.1001 126.7L18.4401 142.3L33.2701 157.27Z" fill="#8C4520"/>
<path d="M43.5001 121.79C43.7901 120.24 44.6801 118.91 45.8201 117.84C47.0201 116.72 48.5601 115.98 50.2301 116.08C51.1001 116.13 51.1001 114.77 50.2301 114.72C48.2501 114.6 46.3901 115.48 44.9501 116.79C43.6101 118 42.5201 119.62 42.1901 121.42C42.1201 121.78 42.2901 122.15 42.6601 122.25C43.0001 122.35 43.4301 122.15 43.5001 121.79Z" fill="black"/>
<path d="M37.22 115.21C39.7 114.33 42.31 114 44.93 114.23C45.8 114.3 45.79 112.95 44.93 112.87C42.2 112.64 39.44 112.99 36.86 113.9C36.04 114.19 36.39 115.5 37.22 115.21Z" fill="black"/>
<path d="M45.1301 130.16C46.9901 130.24 48.8601 129.74 50.4201 128.72C50.7301 128.52 50.8501 128.12 50.6601 127.79C50.4801 127.48 50.0401 127.35 49.7301 127.55C48.3501 128.45 46.7601 128.88 45.1201 128.8C44.7501 128.78 44.4401 129.12 44.4401 129.48C44.4501 129.87 44.7601 130.15 45.1301 130.16Z" fill="black"/>
<path d="M31.1001 99.81C31.0701 102.69 31.3201 105.63 32.6501 108.23C33.0501 109.01 34.2201 108.32 33.8201 107.55C32.6001 105.17 32.4301 102.44 32.4601 99.81C32.4701 98.93 31.1101 98.93 31.1001 99.81Z" fill="black"/>
<path fill-rule="evenodd" clip-rule="evenodd" d="M27.93 143.52C27.93 143.52 25.1 143.69 21.94 143.38C18.78 143.07 15.1 140.26 11.87 141.51C8.63998 142.76 8.09998 146.72 14.06 148.34C20.02 149.95 20.63 151.33 22.07 155.45C23.51 159.57 24.21 162.53 28.89 160.64C28.89 160.64 30.9 162.98 33.67 162.07C36.43 161.16 36.89 160.09 36.89 160.09C36.89 160.09 41.23 161.66 44.19 157.98C47.15 154.3 48.6 149.59 50.28 144.73C51.96 139.86 46.17 137.72 44.4 141.4C44.4 141.4 44.76 138.5 41.94 137.52C39.11 136.54 37.85 138.64 36.79 141.27C35.73 143.9 34.6 146.56 34.6 146.56C34.6 146.56 34.67 144.23 35.08 142.23C35.49 140.23 32.22 137.5 30.24 139.49C28.26 141.48 27.93 143.52 27.93 143.52Z" fill="#A85630"/>
<path fill-rule="evenodd" clip-rule="evenodd" d="M25.5699 151.15C27.2099 148.62 27.8899 145.25 29.1099 142.49C29.4499 141.72 29.9799 140.37 30.7399 139.93C32.2799 139.05 33.5699 139.77 34.0499 141.07C34.6199 142.63 33.7499 144.89 33.3199 146.4C33.0699 147.28 34.4699 147.5 34.7199 146.63C35.4799 143.95 36.7299 138.39 32.3099 138.09C30.4399 137.96 29.1299 139.26 28.3099 140.8C26.7599 143.75 26.2499 147.48 24.4599 150.26C23.9699 151.02 25.0699 151.91 25.5699 151.15Z" fill="black"/>
<path fill-rule="evenodd" clip-rule="evenodd" d="M29.99 158.52C31.58 154.63 33.21 150.75 34.67 146.8C34.98 145.95 33.69 145.37 33.37 146.23C31.92 150.18 30.29 154.05 28.69 157.95C28.35 158.79 29.65 159.37 29.99 158.52Z" fill="black"/>
<path fill-rule="evenodd" clip-rule="evenodd" d="M19.93 153.53C20.94 156.2 22.28 159.66 25.07 160.96C27.62 162.14 29.54 159.63 30.45 157.56C30.82 156.72 29.52 156.15 29.15 156.99C28.82 157.75 28.38 158.56 27.77 159.14C26.35 160.49 24.85 159.33 23.84 158.1C22.62 156.62 21.92 154.8 21.25 153.03C20.93 152.17 19.61 152.68 19.93 153.53Z" fill="black"/>
<path fill-rule="evenodd" clip-rule="evenodd" d="M30.06 157.93C30.91 157.6 30.4 156.28 29.55 156.61C28.7 156.94 29.21 158.26 30.06 157.93Z" fill="black"/>
<path fill-rule="evenodd" clip-rule="evenodd" d="M19.29 143.51C22.12 143.78 24.95 144.08 27.78 144.4C28.69 144.5 28.91 143.1 28.01 143C25.18 142.68 22.35 142.38 19.52 142.11C18.61 142.02 18.38 143.42 19.29 143.51Z" fill="black"/>
<path fill-rule="evenodd" clip-rule="evenodd" d="M48.65 146.37C48.65 146.37 50.49 141.57 53.57 144.76C56.64 147.95 52.1 157.44 50.6 158.93C49.11 160.43 44.8 160.23 44.19 157.97C43.58 155.71 48.65 146.37 48.65 146.37Z" fill="#A85630"/>
<path d="M43.66 159.66C47.64 156.49 48.91 150.94 50.78 146.46C50.95 146.05 50.59 145.56 50.21 145.45C49.74 145.31 49.37 145.62 49.2 146.02C48.27 148.24 47.53 150.53 46.53 152.72C45.56 154.86 44.36 157.01 42.5 158.49C41.67 159.15 42.84 160.31 43.66 159.66Z" fill="black"/>
<path d="M42.87 143.04C41.92 146.09 40.53 149.02 39.23 151.93C38.63 153.28 38.02 154.63 37.43 155.98C36.67 157.74 35.9 159.91 33.91 160.57C32.91 160.9 33.34 162.49 34.35 162.16C36.46 161.47 37.63 159.66 38.47 157.71C39.12 156.21 39.78 154.71 40.44 153.22C41.86 150.03 43.41 146.82 44.45 143.48C44.78 142.46 43.19 142.03 42.87 143.04Z" fill="black"/>
<path d="M14.85 132.77L18.4 131.56C19.08 131.33 19.75 132.01 19.59 132.77L18.81 136.36C18.57 137.68 17.88 137.35 17.35 136.9L14.58 134.52C13.99 134.02 14.15 133.01 14.85 132.77Z" fill="white"/>
<path d="M17.16 132.58C16.01 129.03 16.18 125.09 17.79 121.7C19.1 118.95 21.2 116.3 24.08 115.1C24.66 114.86 24.41 113.89 23.81 114.14C16.85 117.04 13.98 126.02 16.2 132.84C16.39 133.45 17.35 133.19 17.16 132.58Z" fill="white"/>
</g>
<defs>
<clipPath id="clip0_243_686">
<rect width="148.62" height="162.28" fill="white"/>
</clipPath>
</defs>
</svg>
