<svg width="173" height="162" viewBox="0 0 173 162" fill="none" xmlns="http://www.w3.org/2000/svg">
<g clip-path="url(#clip0_243_885)">
<path d="M2.34004 83.23C1.66004 77.33 0.700038 68.36 0.630038 63.9C0.520038 56.91 -0.649962 40.41 0.510038 37.77C1.58004 35.34 2.56004 35.04 2.56004 35.04C2.56004 35.04 2.36004 32.32 2.96004 31C3.91004 28.91 5.52004 28.97 5.52004 28.97C5.52004 28.97 5.13004 26.78 7.15004 25.6C9.17004 24.42 10.54 25.64 11.28 26.22C12.4 27.1 13.18 29.53 13.18 29.53C13.18 29.53 14.49 27.76 16.7 28.86C22.77 31.89 24.71 54.96 24.71 54.96C24.71 54.96 31.97 58.27 32.11 65.36C32.29 75.14 23.9 80.39 23.9 80.39C23.9 80.39 2.73004 86.57 2.34004 83.23Z" fill="#B86C51"/>
<path d="M21.6201 62.92C17.7201 65.73 15.7101 70.55 16.4101 75.29C16.4801 75.73 17.0301 75.97 17.4201 75.86C17.8901 75.74 18.0601 75.29 17.9901 74.85C17.4101 70.9 19.2101 66.67 22.4501 64.33C23.3001 63.73 22.4801 62.3 21.6201 62.92Z" fill="black"/>
<path d="M8.30003 52.33C10.34 53.24 10.93 55.85 10.97 57.88C11.01 60.19 10.28 62.43 8.92003 64.29C8.30003 65.14 9.72003 65.97 10.34 65.12C11.94 62.93 12.75 60.17 12.6 57.46C12.46 55 11.57 52 9.13003 50.91C8.17003 50.48 7.34003 51.89 8.30003 52.33Z" fill="black"/>
<path d="M25.39 54.74C24.22 53.87 22.79 53.11 21.31 52.99C20.15 52.9 18.94 53.27 18.03 53.98C15.78 55.74 16.34 59.25 18.06 61.16C19.18 62.41 20.66 63.42 22.06 64.31C22.95 64.88 23.78 63.46 22.89 62.89C21.59 62.06 20.25 61.14 19.22 59.99C18.38 59.05 17.9 57.54 18.34 56.31C18.7 55.31 19.52 54.75 20.58 54.62C22.02 54.45 23.45 55.32 24.56 56.14C24.92 56.41 25.48 56.2 25.68 55.85C25.93 55.44 25.74 55 25.39 54.74Z" fill="black"/>
<path d="M2.9001 36.61C4.2501 36.27 5.2401 37.54 5.6201 38.67C6.0601 39.97 6.1401 41.4 6.3301 42.75C6.7501 45.82 7.1801 48.89 7.6001 51.96C7.7401 53 9.3301 52.56 9.1801 51.52C8.6701 47.83 8.1701 44.15 7.6501 40.46C7.4401 38.99 7.1501 37.44 6.1501 36.29C5.2301 35.23 3.8401 34.68 2.4601 35.02C1.4401 35.28 1.8701 36.87 2.9001 36.61Z" fill="black"/>
<path d="M6.09005 30.53C9.07005 31.23 9.84005 35.45 10.3401 37.97C11.0301 41.45 11.4001 45.01 11.8801 48.53C12.0201 49.57 13.6101 49.13 13.4601 48.09C12.9201 44.14 12.5701 40.09 11.6301 36.21C10.9501 33.38 9.74005 29.7 6.52005 28.95C5.50005 28.7 5.06005 30.29 6.09005 30.53Z" fill="black"/>
<path d="M13.35 29.52C15.37 35.63 16.45 41.99 16.55 48.42C16.57 49.48 18.21 49.48 18.19 48.42C18.08 41.85 16.99 35.32 14.93 29.08C14.6 28.09 13.02 28.51 13.35 29.52Z" fill="black"/>
<path d="M9.81014 51.69C12.6901 50.09 16.0801 49.46 19.3301 49.99C19.7701 50.06 20.2101 49.88 20.3401 49.42C20.4501 49.03 20.2101 48.48 19.7701 48.41C16.0601 47.81 12.2701 48.45 8.98014 50.28C8.06014 50.79 8.89014 52.21 9.81014 51.69Z" fill="black"/>
<path d="M20.33 82.5C21.69 82.45 23.01 82.09 24.21 81.44C24.59 81.23 24.74 80.68 24.5 80.32C24.25 79.94 23.78 79.81 23.38 80.03C23.25 80.1 23.13 80.16 23 80.23C22.93 80.27 22.85 80.3 22.78 80.33C22.61 80.41 22.91 80.28 22.75 80.34C22.47 80.45 22.19 80.55 21.91 80.62C21.63 80.7 21.35 80.76 21.07 80.8C21 80.8 20.79 80.86 21 80.8C20.93 80.82 20.85 80.82 20.79 80.82C20.64 80.83 20.48 80.84 20.33 80.85C19.9 80.87 19.49 81.22 19.51 81.67C19.52 82.11 19.87 82.52 20.33 82.5Z" fill="black"/>
<path d="M154.84 104.94C140.85 82.36 111.24 79.1 89.13 79.1C58.22 79.11 41.22 87.81 26.42 108.7C18.66 119.66 22.98 143.81 26.11 162.3H172.23C169.34 144.68 163.92 119.6 154.84 104.94Z" fill="#EF9AC2"/>
<path d="M134.8 130.15C135.7 134.87 136.75 139.57 137.58 144.31C138.54 149.79 139.08 155.34 139.54 160.88C139.7 162.81 142.73 162.83 142.57 160.88C142.09 155.15 141.52 149.43 140.54 143.77C139.71 138.94 138.64 134.16 137.72 129.35C137.36 127.43 134.44 128.24 134.8 130.15Z" fill="#E66FA9"/>
<path d="M91.6598 101.81C91.7898 101 92.7498 100.64 93.3698 101.18C96.0798 103.55 102.1 109.44 103.93 116.29C105.5 122.2 105.11 126.06 104.67 127.99C104.5 128.74 103.62 129.06 103.02 128.59C100.68 126.77 95.4998 122.31 93.5198 117.07C90.8798 110.11 91.2298 104.51 91.6598 101.81Z" fill="#901E5E"/>
<path d="M109.25 66.63C109.25 66.63 112.31 73.44 119.18 71.65C124.53 70.25 123.37 62.88 123.37 62.88C123.37 62.88 129.77 63.88 131.91 57.56C133.46 53 129.63 49.86 129.63 49.86C129.63 49.86 135.64 47.95 136.21 40.13C136.82 31.84 130.51 29.47 130.51 29.47C130.51 29.47 133.89 23.6 130.26 20.34C125.86 16.38 120.67 18.97 120.67 18.97C120.67 18.97 119.98 9.74 115.29 8.26C106.86 5.6 102.96 11.53 102.96 11.53C102.96 11.53 104.2 6.5 97.9899 3.25999C92.8399 0.569995 88.2099 5.58999 88.2099 5.58999C88.2099 5.58999 86.4899 -1.02 78.9199 0.149995C73.2899 1.01999 73.1499 7.99999 73.1499 7.99999C73.1499 7.99999 67.6099 5.39 62.5699 9.2C55.4199 14.61 58.1799 23.68 58.1799 23.68C58.1799 23.68 51.7199 22.54 49.4699 28.48C46.9399 35.15 52.4099 38.08 52.4099 38.08C52.4099 38.08 48.9799 44.03 55.1599 46.63C57.9399 47.78 109.25 66.63 109.25 66.63Z" fill="black"/>
<path d="M122.72 47.92C122.72 47.92 124.25 36.1 117.47 26.26C110.27 15.78 98.8698 12 82.3098 14.87C65.7498 17.73 59.3298 30.01 56.8198 40.9L102.4 46.81L100.04 66.17L112.7 67.95L122.72 47.92Z" fill="black"/>
<path d="M112.6 53.26C112.6 53.26 114 45.76 118.56 44.72C123.12 43.68 124.89 46.7 124.46 51.99C124.02 57.28 120.34 62.56 114.88 61.34C114.88 61.34 111.51 72.73 112.16 79.53C112.16 79.53 105.52 81.26 100.72 85.6C91.4098 94.04 91.0498 98.95 91.0498 98.95C90.2298 94.25 85.1998 92.73 85.1998 92.73C85.1998 92.73 65.4298 93.5 58.2698 82.79C48.3798 67.99 57.7598 40.92 57.7598 40.92C57.7598 40.92 58.5298 38.42 60.2198 35.66C60.2198 35.66 63.3898 35.77 65.9798 34.01C69.5098 31.61 69.5898 28.44 69.5898 28.44C69.5898 28.44 71.0698 32.47 77.7698 32.1C81.4698 31.9 83.9998 30.64 86.4498 26.72C86.4498 26.72 86.7098 31.26 91.9298 33.55C96.3598 35.5 100.64 32.96 100.64 32.96C96.6798 36.86 100.92 46.49 106.79 45.32C106.79 45.32 104.88 54.36 108.09 55.88C109.9 56.75 111.97 55.37 112.6 53.26Z" fill="#DC7B6A"/>
<path d="M89.9599 89.79C84.8399 91.05 79.2399 90.98 74.0999 89.92C68.7799 88.83 64.3499 86.18 60.8999 81.95C56.9799 77.16 55.0699 70.99 54.8699 64.85C54.6699 58.69 55.9999 52.5 57.4299 46.55C58.6199 41.57 60.0699 36.31 62.8599 31.96C63.8599 30.39 61.3699 28.95 60.3699 30.51C57.6199 34.81 56.1099 39.98 54.8699 44.89C53.3099 51.08 51.9099 57.57 51.9699 63.97C52.0699 76.25 58.9799 88.9 71.4199 92.25C77.5899 93.92 84.5099 94.1 90.7299 92.57C92.5299 92.12 91.7699 89.34 89.9599 89.79Z" fill="black"/>
<path d="M82.9199 85.92C79.7299 87.14 76.1199 87.11 72.9999 85.7C72.5699 85.51 72.0499 85.58 71.7999 86.02C71.5799 86.4 71.6799 87.03 72.1199 87.22C75.6699 88.82 79.7499 89.01 83.3999 87.61C83.8399 87.44 84.1499 87.02 84.0099 86.53C83.8799 86.11 83.3599 85.75 82.9199 85.92Z" fill="black"/>
<path d="M120.05 48.98C118.56 49.12 117.42 50.13 116.85 51.48C116.2 53.03 116.45 54.73 116.71 56.33C116.78 56.8 117.37 57.06 117.79 56.94C118.29 56.8 118.48 56.33 118.4 55.86C118.21 54.68 118.01 53.41 118.42 52.26C118.43 52.25 118.48 52.1 118.46 52.16C118.43 52.22 118.5 52.07 118.51 52.06C118.57 51.94 118.63 51.82 118.71 51.71C118.74 51.66 118.78 51.61 118.81 51.56C118.83 51.53 118.89 51.45 118.83 51.52C118.91 51.42 119 51.32 119.1 51.23C119.14 51.19 119.19 51.15 119.23 51.11C119.34 51.01 119.14 51.17 119.26 51.09C119.37 51.01 119.48 50.95 119.59 50.89C119.63 50.86 119.7 50.83 119.61 50.87C119.66 50.85 119.72 50.83 119.77 50.81C119.84 50.79 119.91 50.77 119.98 50.76C120.01 50.75 120.2 50.73 120.05 50.75C120.52 50.7 120.93 50.38 120.93 49.87C120.93 49.42 120.53 48.93 120.05 48.98Z" fill="black"/>
<path d="M73.5299 60.49C73.5899 58.9 73.8299 57.31 74.0899 55.75C74.3499 54.18 74.6399 52.6 75.0999 51.08C75.4299 49.97 77.1899 50.39 76.8499 51.51C76.1299 53.92 75.7299 56.48 75.4499 58.98C75.3299 60.08 75.0299 61.65 75.6699 62.62C76.3699 63.68 78.0799 63.26 78.1699 61.97C78.2499 60.83 79.9699 60.73 79.9699 61.92C79.9699 62.46 80.3699 63.03 80.9699 63.02C81.5599 63.01 81.9399 62.41 81.9099 61.87C81.8499 60.71 83.6499 60.66 83.7099 61.82C83.7899 63.35 82.5699 64.77 81.0199 64.83C80.2699 64.86 79.5799 64.54 79.0599 64.04C78.3799 64.78 77.3799 65.2 76.2699 65C74.0699 64.6 73.4499 62.44 73.5299 60.49Z" fill="black"/>
<path d="M118.37 63.39C118.68 63.37 119 63.28 119.34 63.12C119.88 62.87 120.27 62.38 120.43 61.75C120.62 61.01 120.46 60.17 120.01 59.56C119.2 58.47 117.65 58.67 117.58 58.67C117.58 58.67 116.96 58.72 117.04 59.32C117.11 59.81 117.72 59.71 117.72 59.71C117.73 59.71 118.73 59.59 119.16 60.18C119.43 60.54 119.52 61.04 119.41 61.48C119.36 61.67 119.23 62 118.89 62.16C118.47 62.35 118.09 62.31 117.83 62.19C117.45 62.01 117.31 61.65 117.27 61.46C117.27 61.46 117.04 61.49 116.7 61.51C116.36 61.53 116.14 61.51 116.14 61.51C116.17 61.63 116.51 62.77 117.4 63.21C117.7 63.35 118.03 63.41 118.37 63.39Z" fill="#FBE574"/>
<path d="M86.1198 44.17C86.3998 43.98 86.6998 43.81 87.0098 43.66C87.0898 43.62 87.1598 43.59 87.2398 43.55C87.0798 43.62 87.0798 43.62 87.2398 43.55C87.3998 43.5 87.5598 43.44 87.7198 43.39C87.8798 43.34 88.0498 43.3 88.2098 43.27C88.2898 43.25 88.3798 43.24 88.4598 43.22C88.2698 43.24 88.2698 43.24 88.4398 43.22C88.7798 43.2 89.0998 43.2 89.4398 43.22C89.6098 43.24 89.5898 43.24 89.3798 43.21C89.4598 43.22 89.5298 43.24 89.5998 43.25C89.7498 43.28 89.8998 43.32 90.0398 43.36C90.1098 43.38 90.5998 43.54 90.2198 43.41C90.3598 43.46 90.4998 43.54 90.6298 43.61C90.7598 43.68 90.8898 43.77 91.0198 43.85C91.1498 43.95 91.1398 43.94 90.9898 43.82C91.0498 43.87 91.1098 43.92 91.1598 43.97C91.2698 44.07 91.3798 44.18 91.4798 44.29C91.5298 44.35 91.5798 44.4 91.6298 44.46C91.5098 44.31 91.4998 44.3 91.5998 44.43C92.0398 45.07 92.9298 45.43 93.6498 44.97C94.2898 44.56 94.6598 43.61 94.1898 42.92C93.1298 41.38 91.5198 40.48 89.6798 40.25C87.9198 40.03 86.0798 40.61 84.6198 41.58C83.9698 42.01 83.6298 42.92 84.0798 43.63C84.4898 44.28 85.4198 44.63 86.1198 44.17Z" fill="black"/>
<path d="M63.14 43.75C63.19 43.71 63.6 43.38 63.33 43.58C63.47 43.48 63.61 43.38 63.75 43.29C64.04 43.1 64.34 42.95 64.64 42.8C64.33 42.95 64.81 42.74 64.87 42.72C65.03 42.67 65.19 42.62 65.36 42.58C65.52 42.54 65.69 42.51 65.86 42.48C65.49 42.55 66.01 42.47 66.09 42.47C66.25 42.46 66.41 42.46 66.57 42.47C66.66 42.47 67.15 42.45 66.77 42.48C67.06 42.46 67.43 42.64 67.7 42.73C67.86 42.79 67.85 42.79 67.68 42.72C67.75 42.75 67.82 42.79 67.9 42.82C68.04 42.89 68.18 42.97 68.31 43.06C68.38 43.1 68.44 43.15 68.51 43.2C68.37 43.09 68.36 43.08 68.49 43.19C68.6 43.3 68.72 43.41 68.83 43.53C69.37 44.1 70.41 44.11 70.95 43.53C71.51 42.92 71.52 42.02 70.95 41.41C69.73 40.1 67.88 39.4 66.09 39.48C64.18 39.56 62.45 40.41 61.02 41.65C60.43 42.17 60.45 43.24 61.02 43.77C61.66 44.33 62.51 44.31 63.14 43.75Z" fill="black"/>
<path d="M86.5199 93.31C88.0699 94.11 90.4999 95.83 91.0499 98.97C91.0499 98.97 91.4099 94.05 100.72 85.62C105.51 81.28 112.16 79.55 112.16 79.55C112.04 78.28 112.06 76.85 112.17 75.36C113.94 75.52 115.62 76.25 116.65 78.03C120.33 82.8 108.45 107.88 90.8899 108.92C85.5299 109.24 80.6999 104.08 77.3599 93.37L86.5199 93.31Z" fill="#901E5E"/>
<path d="M111.61 82.6C108.31 88.32 104.22 93.52 99.4499 98.08C98.4299 99.06 99.9799 100.6 101 99.63C105.9 94.95 110.12 89.58 113.5 83.71C114.2 82.49 112.31 81.38 111.61 82.6Z" fill="#78111B"/>
<path d="M92.03 102.77C92.74 102.36 93.63 102.87 93.6 103.69C93.48 107.28 92.75 115.68 88.6 121.44C85.03 126.4 81.8 128.55 80.02 129.43C79.33 129.77 78.53 129.3 78.51 128.54C78.43 125.58 78.6 118.75 81.4 113.89C85.13 107.43 89.68 104.15 92.03 102.77Z" fill="#901E5E"/>
<path d="M95.2798 99.42C93.9698 98.02 92.0698 97.4 90.1898 97.83C88.4798 98.22 87.2798 99.46 86.4098 100.92C85.4098 102.61 84.7298 104.69 84.9198 106.67C85.0998 108.63 86.2298 110.62 88.0298 111.55C90.1198 112.63 92.4598 112.22 94.2398 110.75C94.6998 110.37 94.6298 109.59 94.2398 109.2C93.7898 108.75 93.1498 108.82 92.6898 109.2C90.5498 110.96 87.5298 109.5 87.1298 106.82C86.9098 105.34 87.3698 103.77 88.0498 102.47C88.3498 101.91 88.6798 101.38 89.0798 100.93C89.4298 100.54 89.8398 100.24 90.2498 100.09C90.8298 99.87 91.4198 99.8 91.9498 99.91C92.6698 100.06 93.2298 100.41 93.7398 100.96C94.6998 102 96.2498 100.45 95.2798 99.42Z" fill="#78111B"/>
<path d="M87.79 110.76C86.99 112.04 86.23 113.34 85.5 114.67C85.23 115.17 85.36 115.89 85.89 116.17C86.4 116.44 87.09 116.31 87.39 115.78C88.11 114.45 88.88 113.15 89.68 111.87C89.98 111.38 89.8 110.64 89.29 110.37C88.75 110.08 88.12 110.24 87.79 110.76Z" fill="#78111B"/>
<path d="M83.03 98.92C83.74 100.31 84.68 101.59 85.8 102.68C86.21 103.08 86.95 103.12 87.35 102.68C87.75 102.25 87.79 101.56 87.35 101.13C86.9 100.69 86.48 100.21 86.09 99.71C86.15 99.78 86.2 99.86 86.26 99.93C85.75 99.27 85.3 98.56 84.92 97.81C84.66 97.3 83.9 97.11 83.42 97.42C82.9 97.76 82.75 98.37 83.03 98.92Z" fill="#78111B"/>
<path d="M91.0199 50.81C91.4199 50.16 91.8399 49.53 92.2899 48.92C92.3799 48.79 92.3999 48.56 92.3599 48.41C92.3199 48.26 92.1999 48.09 92.0599 48.02C91.9099 47.94 91.7199 47.9 91.5499 47.95C91.3799 48.01 91.2599 48.11 91.1599 48.25C90.7099 48.86 90.2899 49.5 89.8899 50.14C89.7099 50.43 89.8199 50.88 90.1299 51.04C90.4399 51.22 90.8299 51.13 91.0199 50.81Z" fill="black"/>
<path d="M92.5199 52.08C92.9899 51.73 93.4799 51.4 93.9899 51.11C94.1299 51.03 94.2499 50.88 94.2899 50.72C94.3299 50.56 94.3099 50.35 94.2199 50.21C94.0299 49.91 93.6399 49.79 93.3199 49.97C92.8099 50.27 92.3199 50.59 91.8499 50.94C91.7099 51.05 91.5999 51.15 91.5499 51.33C91.5099 51.49 91.5299 51.7 91.6199 51.84C91.7099 51.98 91.8499 52.1 92.0099 52.14C92.1799 52.19 92.3799 52.19 92.5199 52.08Z" fill="black"/>
<path d="M63.78 49.72C63.29 49.07 62.77 48.44 62.23 47.83C62 47.57 61.53 47.58 61.3 47.83C61.05 48.1 61.05 48.49 61.3 48.76C61.74 49.25 62.1601 49.76 62.5601 50.28C62.5301 50.24 62.49 50.19 62.46 50.15C62.52 50.23 62.58 50.31 62.64 50.39C62.75 50.53 62.85 50.64 63.03 50.69C63.19 50.73 63.4001 50.71 63.5401 50.62C63.6801 50.53 63.8 50.39 63.84 50.23C63.88 50.06 63.88 49.86 63.78 49.72Z" fill="black"/>
<path d="M61.92 50.68C61.42 50.37 60.89 50.1 60.36 49.86C60.19 49.78 60.03 49.74 59.85 49.79C59.7 49.83 59.53 49.95 59.46 50.09C59.38 50.24 59.34 50.43 59.39 50.6C59.44 50.75 59.54 50.92 59.69 50.99C60.23 51.23 60.75 51.51 61.25 51.81C61.54 51.99 61.99 51.88 62.15 51.57C62.32 51.26 62.23 50.87 61.92 50.68Z" fill="black"/>
<path d="M93 51.77C91.7 50.38 89.89 49.54 88 49.43C86.05 49.32 84.13 50.08 82.69 51.37C81.82 52.15 83.11 53.43 83.97 52.65C86.23 50.62 89.67 50.85 91.71 53.04C92.51 53.91 93.79 52.63 93 51.77Z" fill="black"/>
<path d="M70.81 50.32C69.42 49.11 67.59 48.4 65.73 48.53C63.92 48.65 62.21 49.46 60.98 50.79C60.19 51.65 61.47 52.94 62.26 52.07C64.16 50.01 67.38 49.73 69.53 51.6C69.9 51.92 70.45 51.96 70.81 51.6C71.14 51.27 71.18 50.64 70.81 50.32Z" fill="black"/>
<path d="M82.92 73.08C85.35 73.43 87.83 73.34 90.06 72.19C92.26 71.06 93.92 69.04 94.74 66.72C95.13 65.61 93.37 65.14 92.99 66.24C92.33 68.13 90.92 69.71 89.15 70.62C87.4 71.52 85.33 71.6 83.41 71.32C82.93 71.25 82.43 71.44 82.29 71.95C82.17 72.39 82.43 73.01 82.92 73.08Z" fill="black"/>
<path d="M91.5099 63.47C91.6599 64.8 92.4299 65.94 93.5999 66.6C94.8699 67.32 96.3799 67.35 97.7699 67.05C98.2299 66.95 98.5499 66.38 98.3999 65.93C98.2399 65.44 97.7799 65.19 97.2799 65.3C97.1499 65.33 97.0199 65.35 96.8899 65.38C96.8299 65.39 96.6899 65.4 96.8199 65.39C96.7599 65.4 96.6999 65.4 96.6399 65.41C96.3599 65.43 96.0799 65.44 95.7999 65.42C95.7299 65.41 95.6499 65.41 95.5799 65.4C95.6799 65.41 95.6299 65.41 95.5599 65.39C95.4299 65.37 95.2999 65.34 95.1699 65.3C95.0399 65.27 94.9199 65.22 94.7899 65.18C94.5299 65.09 94.8499 65.21 94.7299 65.15C94.6699 65.12 94.6199 65.1 94.5599 65.07C94.4599 65.02 94.3599 64.96 94.2699 64.9C94.2299 64.87 94.1899 64.84 94.1499 64.81C94.0599 64.75 94.2499 64.9 94.1299 64.79C93.9599 64.64 93.7999 64.49 93.6599 64.31C93.7799 64.46 93.6699 64.32 93.6499 64.28C93.6199 64.23 93.5799 64.18 93.5499 64.12C93.5299 64.08 93.4999 64.03 93.4799 63.99C93.4699 63.97 93.3799 63.78 93.4299 63.9C93.4799 64 93.4199 63.86 93.4099 63.84C93.3899 63.78 93.3699 63.72 93.3499 63.66C93.3399 63.61 93.3199 63.57 93.3099 63.52C93.2999 63.48 93.2699 63.24 93.2999 63.47C93.2499 63 92.9199 62.54 92.3899 62.56C91.9699 62.58 91.4499 62.97 91.5099 63.47Z" fill="black"/>
<path d="M87.6599 77.03C89.7899 77.2 91.9999 76.3 93.4099 74.69C93.7199 74.33 93.7899 73.75 93.4099 73.41C93.0699 73.1 92.4599 73.03 92.1299 73.41C91.9799 73.58 91.8299 73.74 91.6599 73.89C91.5699 73.97 91.4799 74.05 91.3899 74.12C91.3299 74.17 91.3099 74.18 91.3899 74.12C91.3499 74.15 91.2999 74.18 91.2599 74.21C91.0799 74.34 90.8899 74.46 90.6899 74.57C90.5899 74.63 90.4799 74.68 90.3699 74.73C90.3199 74.75 90.2699 74.77 90.2299 74.8C90.0699 74.87 90.2899 74.78 90.1899 74.82C89.7599 74.97 89.3399 75.11 88.8899 75.18C88.8699 75.18 88.6999 75.21 88.8099 75.19C88.9199 75.18 88.7499 75.19 88.7299 75.2C88.6099 75.21 88.4899 75.22 88.3699 75.22C88.1299 75.23 87.8899 75.22 87.6599 75.2C87.1899 75.16 86.7299 75.64 86.7499 76.11C86.7699 76.65 87.1499 76.99 87.6599 77.03Z" fill="black"/>
<path d="M39.7 162.3C38.58 146.96 23.93 99.04 23.93 99.04C23.93 99.04 25.39 98.6 28.53 95.23C31.39 92.16 33.55 84.26 33.55 84.26C33.55 84.26 39.09 82.41 35.35 74.77C33.2 70.37 32.72 67.85 30.29 66.75C27.86 65.65 19.73 64.58 17.77 66.49C15.81 68.4 16.16 69.03 14.7 69.24C13.24 69.46 10.31 70.34 9.52003 71.87C8.72003 73.41 8.15003 74.08 6.62003 75.01C5.09003 75.94 1.62003 79.16 1.49003 84.04C1.36003 88.92 1.07003 94.83 4.11003 98.35L3.00003 115.66C3.00003 115.66 3.38003 144.57 6.69003 162.31L39.7 162.3Z" fill="#DA7B6A"/>
<path d="M6.23001 87.06C6.89001 87.52 7.68001 87.83 8.47001 87.95C8.70001 87.98 8.91001 87.99 9.12001 87.87C9.29001 87.77 9.46001 87.57 9.51001 87.37C9.56001 87.15 9.55001 86.91 9.43001 86.72C9.32001 86.55 9.14001 86.37 8.93001 86.33C8.53001 86.27 8.14001 86.16 7.76001 86.01C7.83001 86.04 7.89001 86.07 7.96001 86.09C7.65001 85.96 7.36001 85.8 7.08001 85.61C6.91001 85.49 6.63001 85.47 6.43001 85.53C6.24001 85.58 6.02001 85.73 5.93001 85.92C5.83001 86.11 5.78001 86.35 5.85001 86.57C5.91001 86.78 6.04001 86.93 6.23001 87.06Z" fill="black"/>
<path d="M8.9301 85.57C8.6001 86.42 8.3101 87.3 8.1901 88.21C8.1001 88.91 8.1101 89.61 8.2501 90.3C8.3801 90.94 8.6301 91.56 8.8201 92.18C8.9501 92.61 9.4101 92.89 9.8501 92.77C10.2801 92.65 10.5701 92.17 10.4401 91.74C10.2601 91.15 10.0301 90.57 9.9001 89.97C9.8801 89.89 9.8701 89.81 9.8501 89.73C9.8401 89.67 9.8301 89.62 9.8401 89.71C9.8201 89.56 9.8101 89.42 9.8101 89.27C9.8001 89.1 9.8101 88.93 9.8201 88.76C9.8301 88.66 9.8301 88.56 9.8401 88.46C9.8501 88.3 9.8201 88.53 9.8501 88.43C10.0101 87.61 10.2601 86.8 10.5601 86.02C10.7201 85.6 10.3801 85.1 9.9701 84.99C9.4901 84.85 9.0901 85.15 8.9301 85.57Z" fill="black"/>
<path d="M9.03992 88.56C6.34992 87.84 4.10992 90.56 5.13992 93.08C5.65992 94.36 6.75992 95.04 8.03992 95.41C9.56992 95.85 11.2299 96.23 12.8299 96.01C15.7199 95.61 17.3099 92.89 17.4699 90.17C17.5699 88.44 17.0899 86.7 16.3799 85.14C15.1899 82.53 13.1099 80.48 10.8099 78.84C9.92992 78.21 9.08992 79.67 9.95992 80.29C12.5199 82.12 14.6699 84.55 15.4999 87.64C15.9699 89.38 15.9699 91.42 14.8899 92.95C13.4599 94.97 10.8999 94.43 8.85992 93.9C7.75992 93.62 6.63992 93.14 6.54992 91.85C6.46992 90.74 7.54992 89.91 8.59992 90.2C9.63992 90.46 10.0899 88.84 9.03992 88.56Z" fill="black"/>
<path d="M15.62 93.65C16.84 94.22 18.13 94.43 19.45 94.14C20.57 93.9 21.29 93.3 21.96 92.4C23.66 90.13 23.61 87.15 23.3 84.44C22.9 80.92 21.55 77.41 18.85 75.01C18.12 74.36 17.32 73.78 16.41 73.42C15.41 73.02 14.97 74.64 15.96 75.04C15.78 74.97 16.04 75.08 16.18 75.16C16.34 75.25 16.49 75.34 16.65 75.44C17.08 75.71 17.47 76.03 17.84 76.38C19 77.46 19.89 78.8 20.52 80.25C21.49 82.5 21.8 84.98 21.74 87.41C21.7 89.12 21.42 90.54 20.25 91.86C19.34 92.89 17.6 92.74 16.46 92.21C15.5 91.75 14.64 93.19 15.62 93.65Z" fill="black"/>
<path d="M22.2901 90.64C24.3501 90.8 26.4001 89.72 27.7901 88.25C29.1801 86.78 29.7901 84.52 29.8701 82.54C30.0401 78.3 27.8201 73.84 24.5101 71.24C23.6701 70.58 22.4701 71.76 23.3201 72.43C26.1101 74.62 28.0701 78.18 28.2001 81.75C28.3201 85.15 26.2601 89.27 22.3001 88.95C21.2101 88.88 21.2201 90.56 22.2901 90.64Z" fill="black"/>
<path d="M30.9401 78.69C30.5101 78.44 30.1001 78.16 29.7001 77.85C29.7601 77.89 29.8101 77.94 29.8701 77.98C29.6301 77.79 29.3901 77.59 29.1601 77.39C28.9901 77.24 28.7901 77.14 28.5701 77.14C28.3601 77.14 28.1201 77.23 27.9801 77.39C27.8301 77.55 27.7201 77.76 27.7301 77.98C27.7401 78.2 27.8101 78.42 27.9801 78.57C28.6301 79.16 29.3401 79.68 30.1001 80.13C30.2901 80.24 30.5401 80.27 30.7501 80.21C30.9401 80.16 31.1601 80.01 31.2501 79.82C31.4501 79.43 31.3401 78.93 30.9401 78.69Z" fill="black"/>
<path d="M28.3401 85.77C30.3401 86.19 32.7701 86.5 34.5401 85.22C35.0701 84.84 35.4901 84.37 35.9001 83.86C36.1901 83.49 36.5001 83.13 36.7201 82.71C37.0201 82.13 37.2101 81.51 37.3001 80.86C37.4501 79.76 37.3801 78.61 37.0801 77.53C36.7901 76.49 35.1701 76.93 35.4601 77.98C35.4901 78.11 35.5301 78.23 35.5501 78.36C35.5701 78.45 35.5901 78.54 35.6001 78.64C35.6101 78.68 35.6501 78.96 35.6301 78.81C35.6901 79.28 35.7101 79.76 35.6801 80.23C35.6301 81.07 35.3301 81.88 34.7801 82.58C34.4501 83 34.1101 83.39 33.7101 83.75C33.5701 83.88 33.8001 83.7 33.6801 83.78C33.6201 83.82 33.5701 83.86 33.5101 83.9C33.3801 83.98 33.2501 84.06 33.1101 84.13C33.0701 84.15 33.0301 84.17 32.9901 84.18C33.0201 84.17 33.1501 84.12 33.0101 84.17C32.9301 84.2 32.8601 84.23 32.7801 84.25C32.6001 84.31 32.4201 84.35 32.2401 84.39C32.1901 84.4 32.1301 84.41 32.0801 84.42C31.9301 84.44 32.1101 84.42 32.0101 84.43C31.8901 84.44 31.7701 84.45 31.6501 84.46C31.3701 84.48 31.0801 84.47 30.8001 84.46C30.1101 84.43 29.4401 84.31 28.7701 84.17C28.3301 84.08 27.8601 84.3 27.7401 84.76C27.6401 85.16 27.9001 85.68 28.3401 85.77Z" fill="black"/>
<path d="M1.67993 112.99L26.4099 108.71C26.4099 108.71 40.2599 142.23 42.3599 162.31H6.12993C2.93993 144.14 1.67993 112.99 1.67993 112.99Z" fill="#EF9AC2"/>
<path d="M27.1701 106.92C18.9501 108.22 10.7201 109.51 2.50014 110.84C0.650138 111.14 1.44014 113.95 3.28014 113.65C11.5001 112.32 19.7201 111.03 27.9501 109.73C29.7901 109.44 29.0101 106.63 27.1701 106.92Z" fill="#E66FA9"/>
<path d="M45.13 160.27C44.96 157.79 44.18 155.32 43.5 152.95C42.39 149.07 41.16 145.24 39.9 141.41C37.18 133.13 34.3 124.9 31.45 116.66C30.52 113.96 29.54 111.27 28.72 108.53C28.16 106.67 25.24 107.46 25.8 109.33C27.65 115.49 29.95 121.53 32.04 127.6C34.85 135.76 37.68 143.92 40.13 152.19C40.63 153.88 41.11 155.57 41.53 157.28C41.68 157.89 41.82 158.51 41.94 159.13C41.99 159.4 42.04 159.67 42.08 159.93C42.01 159.46 42.1 160.14 42.11 160.27C42.23 162.2 45.26 162.22 45.13 160.27Z" fill="#E66FA9"/>
<path d="M35.6 36.9C38.13 38.97 40.5 40.89 41.95 43.91C43.1 46.3 43.69 48.95 44.14 51.54C44.66 54.6 44.91 57.59 44.61 60.69C44.3 63.88 43.71 67.35 42.14 70.19C41.51 71.32 43.25 72.34 43.88 71.21C45.33 68.59 45.99 65.54 46.4 62.6C46.84 59.46 46.85 56.43 46.43 53.3C45.76 48.34 44.66 43.07 41.25 39.21C40 37.8 38.49 36.67 37.03 35.49C36.02 34.66 34.59 36.08 35.6 36.9Z" fill="white"/>
<path d="M35.12 38.84C34.6 37.51 34.17 36.14 33.84 34.74C33.82 34.67 33.81 34.59 33.83 34.52C33.86 34.45 38.78 34.45 38.8 34.51C38.8 34.52 36.02 37.72 35.12 38.84Z" fill="white"/>
<path d="M36.4401 38.48C36.1801 37.8 35.9301 37.11 35.7201 36.41C35.6201 36.08 35.5201 35.74 35.4201 35.4C35.3701 35.22 35.3201 35.03 35.2701 34.85C35.2501 34.76 35.2201 34.67 35.2001 34.57C35.1901 34.54 35.1801 34.51 35.1801 34.48C35.1301 34.22 35.1201 34.36 35.1501 34.9C35.0301 35.1 34.9201 35.3 34.8001 35.5C34.8101 35.49 34.1501 35.86 34.2201 35.84C34.2901 35.82 33.7601 35.89 33.9001 35.88C33.9401 35.88 33.9801 35.87 34.0201 35.87C34.1501 35.86 34.2701 35.86 34.4001 35.86C34.7801 35.85 35.1601 35.85 35.5401 35.84C36.4001 35.83 37.2601 35.83 38.1301 35.85C38.2801 35.85 38.4301 35.86 38.5801 35.86C38.6301 35.86 38.6701 35.87 38.7201 35.87C38.7401 35.87 38.7501 35.87 38.7701 35.87C38.4601 35.88 38.0601 35.72 37.8401 35.48C37.8401 34.83 37.8401 34.19 37.8401 33.54C36.6001 34.97 35.3401 36.39 34.1601 37.86C33.9201 38.15 33.7601 38.44 33.7601 38.83C33.7601 39.17 33.9101 39.57 34.1601 39.8C34.6601 40.26 35.6201 40.4 36.1001 39.8C37.2901 38.33 38.5401 36.9 39.7801 35.48C40.2801 34.9 40.3101 34.12 39.7801 33.54C39.3401 33.06 38.6201 33.12 38.0201 33.11C37.4001 33.1 36.7801 33.1 36.1501 33.1C35.5701 33.1 34.9801 33.1 34.4001 33.12C34.2401 33.12 34.0801 33.13 33.9201 33.14C33.7701 33.15 33.6201 33.16 33.4801 33.2C32.6601 33.43 32.3701 34.26 32.5101 35.03C32.6401 35.74 32.8701 36.44 33.0801 37.13C33.3001 37.83 33.5401 38.52 33.8001 39.2C33.9301 39.54 34.1001 39.83 34.4301 40.02C34.7201 40.19 35.1601 40.26 35.4901 40.16C36.1301 39.95 36.7201 39.2 36.4401 38.48Z" fill="white"/>
<path d="M46.1901 70.5C45.1001 71.42 43.9401 72.27 42.7301 73.04C42.6701 73.08 42.6001 73.12 42.5301 73.12C42.4501 73.12 40.9901 68.64 41.0401 68.61C41.0401 68.6 44.8301 70.01 46.1901 70.5Z" fill="white"/>
<path d="M45.22 69.53C44.94 69.77 44.66 70 44.37 70.22C44.34 70.25 44.07 70.45 44.25 70.32C44.42 70.19 44.2 70.36 44.16 70.39C44.01 70.51 43.85 70.62 43.7 70.73C43.42 70.94 43.13 71.14 42.84 71.33C42.55 71.53 42.24 71.78 41.91 71.92C42.14 71.86 42.37 71.8 42.6 71.73C42.7 71.75 42.79 71.77 42.89 71.79C43.09 71.91 43.29 72.02 43.49 72.14C43.45 72.1 43.77 72.52 43.68 72.37C43.63 72.28 43.85 72.81 43.77 72.57C43.73 72.46 43.68 72.34 43.64 72.23C43.51 71.88 43.4 71.52 43.28 71.17C43.02 70.4 42.77 69.62 42.53 68.84C42.49 68.7 42.45 68.56 42.41 68.43C42.4 68.39 42.39 68.35 42.38 68.31C42.32 68.11 42.41 68.64 42.42 68.6C42.36 68.83 42.3 69.06 42.23 69.29C41.71 69.5 41.2 69.71 40.68 69.92C42.4 70.56 44.11 71.19 45.83 71.81C46.51 72.05 47.36 71.54 47.52 70.85C47.7 70.08 47.29 69.43 46.56 69.16C44.84 68.54 43.13 67.9 41.41 67.27C40.87 67.07 40.13 67.4 39.86 67.9C39.53 68.52 39.75 69.1 39.94 69.71C40.12 70.3 40.31 70.88 40.5 71.47C40.67 72 40.85 72.53 41.04 73.05C41.13 73.29 41.21 73.54 41.33 73.76C41.48 74.04 41.72 74.24 42.01 74.36C42.58 74.6 43.14 74.41 43.64 74.09C44.87 73.29 46.05 72.41 47.17 71.46C47.72 71 47.68 69.99 47.17 69.52C46.57 68.99 45.81 69.03 45.22 69.53Z" fill="white"/>
</g>
<defs>
<clipPath id="clip0_243_885">
<rect width="172.22" height="162.34" fill="white"/>
</clipPath>
</defs>
</svg>
