<svg width="157" height="151" viewBox="0 0 157 151" fill="none" xmlns="http://www.w3.org/2000/svg">
<g clip-path="url(#clip0_243_582)">
<path d="M72.35 117.25C72.35 117.25 59.77 141.07 45.42 131C30 120.17 19.91 93.71 19.91 93.71C22.12 90.66 34.61 89.61 34.61 89.61L48.54 102.2L56.51 101.26C56.51 101.26 59.4 105.41 63.82 109.79C67.97 113.89 72.35 117.25 72.35 117.25Z" fill="#CF806F"/>
<path d="M155.78 151.43H135.32V122L154.19 119.7L155.78 151.43Z" fill="#CF806F"/>
<path d="M48.54 102.2C48.54 102.2 53.99 94.79 60.4 86.76C65.72 80.09 71.15 73.04 79.61 70.5C98.27 64.92 96.85 84.01 96.85 84.01L66.36 120.88C66.36 120.88 59.58 116.02 55.92 111.6C54.1 109.6 52.56 107.77 51.41 106.27C49.48 103.79 48.54 102.2 48.54 102.2Z" fill="#802A84"/>
<path d="M112.94 66.32C112.94 66.32 120.7 65.41 132.13 73.05C143.56 80.69 154.26 88 156.39 122.1C156.39 122.1 150.66 123.33 146.43 123.93C141.82 124.58 136.84 124.52 136.84 124.52L137.92 151.42H67.82C67.82 151.42 69.7 141.55 65.29 122.54C64.82 120.5 65.36 116.01 65.18 113.78C63.91 97.75 63.84 79.27 70.07 75.03C85.33 64.67 112.94 66.32 112.94 66.32Z" fill="#802A84"/>
<path d="M27.64 51.07L30.88 56.02C31.51 56.98 30.72 58.27 29.49 58.31L23.7 58.52C21.59 58.66 21.82 57.49 22.31 56.5L24.86 51.34C25.4 50.25 27 50.09 27.64 51.07Z" fill="white"/>
<path d="M117.51 23.02C117.51 23.02 118.93 19.02 121.84 17.02C126.27 13.99 133.17 12.68 139.31 19.14C144.35 24.44 143.22 36.77 136.68 54.06C132.93 63.98 135.55 72.59 135.55 72.59C135.55 72.59 124.16 68.4 119.69 56.24C117.2 49.41 117.51 23.02 117.51 23.02Z" fill="black"/>
<path d="M70.66 23.64C70.66 23.64 65.69 48.58 70.35 58.96C75.01 69.34 80.75 74.82 98.55 72.47C109.76 70.99 114.59 68.64 114.59 68.64L115.11 59.28L113.61 27.17L88.69 16.02L70.66 23.64Z" fill="#CF806F"/>
<path d="M114.86 55.93L116.12 70.31C116.12 70.31 115.16 78.27 105.08 82.74C104.01 83.22 102.97 83.63 101.96 83.98C94.99 86.41 87.47 82.13 86.98 75.46L86.06 63.16L114.86 55.93Z" fill="#CF806F"/>
<path d="M113.69 29.37C113.69 29.37 99.5 26.74 93.67 22.31C88.56 18.43 88.06 17.27 88.06 17.27C88.06 17.27 77.19 27.3 67.7 23.14C63.34 21.23 62.89 17.9 62.89 17.9C62.89 17.9 69.91 14.43 72.65 10.97C78.63 3.39999 88.83 -2.13001 101.13 0.799993C123 6.00999 124.53 23.18 124.53 23.18C124.53 23.18 131.36 25.46 129.67 38.33C127.43 55.44 115.1 59.3 115.1 59.3L113.69 29.37Z" fill="black"/>
<path d="M112 42.71C112 42.71 112.7 40.92 114.34 39.61C115.8 38.46 118.04 37.7 120.56 38.78C125.79 41.01 124.68 47.04 121.89 50.76C119.1 54.48 112.71 52.74 112.71 52.74L112 42.71Z" fill="#CF806F"/>
<path d="M106.29 22.4C106.29 22.4 103.43 43.42 106.4 44.88C109.47 46.38 111.99 42.72 111.99 42.72C111.99 42.72 113.04 40.24 115.07 39.12L115.09 26.23L106.29 22.4Z" fill="black"/>
<path d="M73.32 34.62C72.51 33.57 73.07 29.99 78.03 30.99C81.64 31.72 82.96 33.32 82.19 35.55C81.58 37.35 79 36.35 77.1 35.93C75.23 35.51 74.06 35.58 73.32 34.62Z" fill="white"/>
<path d="M99.75 39.74C100.66 39.17 101.32 35.42 96.13 34.57C92.36 33.96 89.83 35.15 90.47 37.86C90.86 39.5 92.9 39.35 94.89 39.63C96.87 39.91 98.32 40.63 99.75 39.74Z" fill="white"/>
<path d="M69.68 20.5C68.95 25.54 68.34 30.61 67.84 35.68C67.1 43.13 65.9 51.23 68.34 58.48C70.18 63.93 73.99 69.91 79.35 72.47C87.12 76.17 96.96 74.74 105.01 72.83C106.96 72.37 105.95 69.41 104 69.87C96.53 71.64 85.59 73.45 78.88 68.6C73.68 64.84 70.52 57.69 70.1 51.45C69.43 41.5 71.32 31 72.74 21.16C73.02 19.16 69.96 18.5 69.68 20.5Z" fill="black"/>
<path d="M92.55 30.34C92.73 30.28 92.92 30.23 93.11 30.19C93.19 30.17 93.26 30.16 93.34 30.14C93.36 30.14 93.73 30.07 93.47 30.11C93.21 30.15 93.55 30.1 93.6 30.1C93.7 30.09 93.79 30.09 93.89 30.08C94.06 30.07 94.24 30.07 94.41 30.08C94.6 30.09 94.79 30.1 94.99 30.12C95.3 30.15 94.77 30.08 94.97 30.12C95.06 30.14 95.16 30.15 95.25 30.17C95.61 30.24 95.96 30.34 96.31 30.47C96.38 30.5 96.45 30.53 96.53 30.55C96.72 30.61 96.25 30.41 96.52 30.55C96.69 30.63 96.87 30.72 97.04 30.81C97.19 30.89 97.34 30.98 97.49 31.08C97.57 31.13 97.65 31.19 97.73 31.24C97.77 31.27 98.04 31.47 97.85 31.32C97.66 31.17 97.95 31.4 97.96 31.41C98.02 31.46 98.08 31.51 98.13 31.56C98.27 31.69 98.41 31.82 98.54 31.96C98.61 32.03 98.67 32.1 98.73 32.18C98.76 32.21 98.78 32.24 98.8 32.27C98.87 32.36 98.85 32.33 98.73 32.17C98.72 32.25 99.01 32.57 99.06 32.65C99.51 33.35 100.5 33.7 101.25 33.22C101.96 32.77 102.3 31.79 101.82 31.03C99.73 27.75 95.47 26.09 91.73 27.26C90.93 27.51 90.34 28.39 90.61 29.23C90.84 30.03 91.7 30.61 92.55 30.34Z" fill="black"/>
<path d="M82.32 25.43C81.02 24.48 79.33 24.01 77.73 24.07C75.96 24.13 74.35 24.76 72.98 25.87C72.33 26.4 72.39 27.59 72.98 28.13C73.67 28.76 74.55 28.7 75.24 28.13C75.41 27.99 75.24 28.16 75.17 28.18C75.24 28.16 75.32 28.07 75.39 28.03C75.51 27.95 75.63 27.88 75.75 27.81C75.89 27.73 76.03 27.66 76.17 27.59C76.37 27.5 76.16 27.62 76.08 27.63C76.15 27.62 76.26 27.56 76.33 27.54C76.61 27.44 76.91 27.37 77.2 27.31C77.27 27.3 77.34 27.29 77.41 27.27C77.04 27.38 77.22 27.29 77.35 27.28C77.51 27.27 77.67 27.26 77.83 27.25C77.97 27.25 78.11 27.25 78.26 27.26C78.35 27.26 78.44 27.27 78.53 27.28C78.58 27.28 78.83 27.32 78.58 27.28C78.33 27.25 78.58 27.28 78.63 27.29C78.72 27.31 78.8 27.32 78.89 27.34C79.03 27.37 79.17 27.41 79.3 27.45C79.45 27.5 79.6 27.55 79.75 27.6C79.95 27.67 79.47 27.47 79.66 27.56C79.74 27.6 79.82 27.63 79.9 27.67C80.18 27.81 80.45 27.98 80.71 28.17C81.39 28.67 82.52 28.3 82.9 27.6C83.34 26.78 83.04 25.96 82.32 25.43Z" fill="black"/>
<path d="M96.09 38.7C98.15 38.7 98.15 35.5 96.09 35.5C94.04 35.5 94.03 38.7 96.09 38.7Z" fill="black"/>
<path d="M78.43 35.38C80.49 35.38 80.49 32.18 78.43 32.18C76.37 32.19 76.37 35.38 78.43 35.38Z" fill="black"/>
<path d="M119.26 42.94C118.48 42.62 117.5 42.84 116.82 43.3C116.09 43.8 115.63 44.57 115.49 45.44C115.35 46.32 115.47 47.18 116 47.92C116.49 48.61 117.24 49.24 118.1 49.37C118.51 49.43 118.98 49.27 119.08 48.81C119.17 48.43 118.96 47.89 118.52 47.83C118.45 47.82 118.39 47.81 118.33 47.79C118.31 47.78 118.08 47.71 118.17 47.74C118.26 47.78 118.07 47.69 118.04 47.67C117.97 47.63 117.9 47.58 117.83 47.54C117.69 47.46 117.89 47.61 117.76 47.49C117.7 47.44 117.65 47.39 117.6 47.34C117.55 47.29 117.5 47.23 117.45 47.18C117.44 47.17 117.3 46.99 117.39 47.11C117.3 46.99 117.24 46.87 117.16 46.74C117.07 46.58 117.18 46.83 117.13 46.68C117.11 46.61 117.08 46.53 117.06 46.45C117.05 46.42 117.05 46.39 117.04 46.35C117.05 46.44 117.05 46.45 117.05 46.39C117.05 46.31 117.04 46.23 117.04 46.15C117.04 46.08 117.04 46.01 117.05 45.94C117.05 45.9 117.08 45.69 117.05 45.86C117.07 45.72 117.11 45.57 117.15 45.43C117.17 45.36 117.2 45.29 117.22 45.22C117.16 45.37 117.24 45.18 117.26 45.15C117.3 45.08 117.34 45.01 117.39 44.94C117.41 44.91 117.43 44.88 117.45 44.85C117.4 44.91 117.4 44.92 117.43 44.88C117.48 44.84 117.52 44.78 117.57 44.74C117.59 44.72 117.62 44.69 117.65 44.67C117.58 44.72 117.58 44.73 117.65 44.67C117.77 44.6 117.89 44.52 118.02 44.47C117.86 44.54 118.07 44.46 118.09 44.45C118.16 44.43 118.22 44.41 118.29 44.4C118.47 44.36 118.18 44.39 118.35 44.39C118.42 44.39 118.49 44.39 118.55 44.39C118.71 44.38 118.43 44.36 118.63 44.4C118.7 44.42 118.78 44.44 118.85 44.47C119.24 44.63 119.74 44.3 119.83 43.91C119.93 43.46 119.68 43.11 119.26 42.94Z" fill="black"/>
<path d="M89.64 44.82C89.63 44.85 89.62 44.88 89.61 44.9C89.66 44.79 89.67 44.76 89.64 44.82C89.61 44.88 89.59 44.94 89.56 44.99C89.51 45.1 89.46 45.2 89.41 45.3C89.29 45.53 89.16 45.76 89.02 45.98C88.98 46.04 88.94 46.1 88.9 46.16C88.87 46.2 88.8 46.36 88.89 46.19C88.85 46.28 88.75 46.36 88.68 46.43C88.65 46.45 88.52 46.54 88.61 46.49C88.72 46.43 88.52 46.54 88.5 46.55C88.43 46.59 88.36 46.63 88.28 46.66C88.41 46.61 88.26 46.66 88.21 46.67C88.14 46.69 88.08 46.7 88.01 46.72C88.19 46.68 87.99 46.72 87.95 46.72C87.88 46.72 87.81 46.72 87.75 46.71C87.94 46.73 87.7 46.69 87.66 46.68C87.63 46.67 87.59 46.66 87.56 46.65C87.66 46.69 87.67 46.69 87.59 46.66C87.54 46.63 87.49 46.6 87.44 46.57C87.29 46.47 87.54 46.68 87.42 46.55C87.38 46.51 87.34 46.47 87.3 46.43C87.24 46.37 87.21 46.3 87.28 46.41C87.24 46.35 87.2 46.29 87.17 46.23C87.13 46.17 87.1 46.1 87.07 46.04C86.99 45.89 87.12 46.18 87.05 46.01C86.96 45.76 86.89 45.5 86.85 45.24C86.79 44.83 86.25 44.56 85.87 44.68C85.42 44.83 85.24 45.22 85.31 45.66C85.42 46.37 85.71 47.08 86.22 47.6C86.82 48.22 87.69 48.44 88.53 48.26C89.96 47.95 90.72 46.5 91.21 45.25C91.36 44.86 91.04 44.36 90.65 44.27C90.17 44.16 89.81 44.4 89.64 44.82Z" fill="black"/>
<path d="M85.14 45.05C85.03 45.38 84.84 45.64 84.51 45.77C84.26 45.87 83.82 45.93 83.59 45.75C82.85 45.19 83.46 43.86 83.69 43.21C84.44 41.02 85.31 38.86 86.23 36.74C86.4 36.34 86.35 35.89 85.94 35.65C85.6 35.45 85.02 35.54 84.85 35.94C84.23 37.38 83.63 38.84 83.06 40.3C82.78 41.02 82.52 41.73 82.27 42.46C82.01 43.2 81.68 43.98 81.66 44.77C81.63 46.05 82.41 47.3 83.74 47.43C85.11 47.57 86.27 46.76 86.69 45.47C86.99 44.5 85.45 44.08 85.14 45.05Z" fill="black"/>
<path d="M51.75 73.85C51.75 73.85 50.81 68.73 48.35 68.98C45.4 69.27 45.59 71.16 45.85 74.55C46.08 77.54 45.61 79.83 44.79 80.94C43.97 82.03 51.75 73.85 51.75 73.85Z" fill="#B86C51"/>
<path d="M36.69 90.84C36.69 90.84 39.36 87.63 39.96 86.93C43.19 83.16 58.73 61.58 62.28 62.56C64.97 63.3 63.41 65.67 63.41 65.67C63.41 65.67 65.93 62.21 68.3 63.51C70.67 64.82 69.11 66.92 69.11 66.92C69.11 66.92 70.56 66.03 71.71 67.35C72.69 68.48 71.25 71.19 71.25 71.19C71.25 71.19 73.02 71.33 72.18 74.25C71.39 77.02 65.23 84.33 65.23 84.33C65.23 84.33 60.99 92.7 51.12 97.14L48.55 102.18L41.66 95.95L36.69 90.84Z" fill="#B86C51"/>
<path d="M63.82 64.27C60.61 67.13 57.62 70.22 54.85 73.51C54.53 73.88 54.73 74.52 55.11 74.77C55.56 75.07 56.05 74.89 56.37 74.51C59.04 71.34 61.94 68.38 65.04 65.62C65.9 64.85 64.69 63.5 63.82 64.27Z" fill="black"/>
<path d="M68.19 66.1C64.5 69.35 61.14 72.95 58.16 76.85C57.45 77.78 58.97 78.77 59.67 77.85C62.56 74.07 65.82 70.6 69.39 67.45C70.27 66.69 69.06 65.33 68.19 66.1Z" fill="black"/>
<path d="M69.7 70.87C66.75 73.73 63.98 76.77 61.39 79.97C61.08 80.35 61.27 80.97 61.65 81.23C62.09 81.52 62.6 81.36 62.91 80.97C65.4 77.9 68.07 74.98 70.91 72.23C71.74 71.41 70.54 70.06 69.7 70.87Z" fill="black"/>
<path d="M51.21 97.53C53.44 97.54 55.67 96.42 57 94.63C57.28 94.26 57.3 93.69 56.9 93.38C56.54 93.1 55.94 93.08 55.65 93.48C55.51 93.67 55.36 93.85 55.2 94.03C55.11 94.12 55.03 94.21 54.94 94.3C54.9 94.34 54.85 94.38 54.92 94.32C54.88 94.36 54.84 94.39 54.79 94.43C54.61 94.58 54.42 94.72 54.22 94.85C54.12 94.92 54.01 94.99 53.9 95.05C53.85 95.08 53.8 95.1 53.75 95.13C53.61 95.21 53.78 95.12 53.7 95.16C53.27 95.37 52.83 95.53 52.37 95.64C52.35 95.64 52.19 95.68 52.28 95.66C52.38 95.64 52.21 95.67 52.19 95.67C52.07 95.69 51.94 95.71 51.82 95.72C51.57 95.75 51.32 95.76 51.07 95.76C50.6 95.76 50.2 96.27 50.25 96.72C50.31 97.23 50.71 97.53 51.21 97.53Z" fill="black"/>
<path d="M34.73 88.77C34.73 88.77 35.47 86.71 34.82 82.82C34.17 78.92 33.44 74.44 35.6 72.01C38.91 68.28 38.3 66.95 36.85 65.78C35.01 64.29 30.79 65.53 29.2 70.17C28.19 73.11 27.31 74.69 26.71 75.53C25.11 72.72 18.29 60.94 14.51 59.42C11.68 58.28 10.91 60.86 10.91 60.86C10.91 60.86 8.19 58.01 6.26 58.07C3.71 58.15 3.25 60.31 3.25 60.31C3.25 60.31 1.63 60.14 0.460003 61.77C-0.819997 63.55 0.980003 66.39 0.980003 66.39C0.980003 66.39 -0.209997 70.14 2.08 74.58C4.37 79.02 5.98 80.24 6.6 81.27C7.22 82.3 8.04 86.35 13.95 91.51C18.23 95.24 21.31 95.62 21.31 95.62L26.26 104.22L41.65 95.96L34.73 88.77Z" fill="#CF806F"/>
<path d="M21.74 71.37C17.12 71.41 12.63 73.07 9.08999 76.03C8.20999 76.76 9.43999 78.05 10.31 77.32C13.49 74.66 17.57 73.18 21.72 73.15C22.86 73.14 22.89 71.36 21.74 71.37Z" fill="black"/>
<path d="M12.96 80.95C18.15 80.77 21.33 85.51 23.36 89.65C23.87 90.68 25.42 89.82 24.92 88.8C22.61 84.09 18.84 78.98 12.99 79.18C11.85 79.22 11.81 80.99 12.96 80.95Z" fill="black"/>
<path d="M1.57001 66.93C2.40001 66.44 3.33001 66.73 3.98001 67.39C4.68001 68.1 4.89001 69.11 5.25001 70.01C6.17001 72.35 7.71001 74.6 9.47001 76.38C10.27 77.19 11.57 75.97 10.76 75.16C8.79001 73.17 7.46001 70.77 6.46001 68.18C6.01001 67.02 5.32001 65.95 4.19001 65.35C3.09001 64.76 1.80001 64.72 0.710011 65.36C-0.269989 65.95 0.580011 67.51 1.57001 66.93Z" fill="black"/>
<path d="M3.42002 60.98C5.79002 62.34 7.17002 64.68 8.47002 66.99C9.81002 69.36 11.34 71.62 12.77 73.94C13.37 74.91 14.93 74.06 14.33 73.09C12.8 70.62 11.2 68.21 9.77002 65.68C8.40002 63.26 6.80002 60.88 4.33002 59.46C3.35002 58.89 2.42002 60.41 3.42002 60.98Z" fill="black"/>
<path d="M10.49 61.79C12.98 65.01 15.07 68.49 16.97 72.08C17.51 73.09 19.07 72.24 18.53 71.23C16.56 67.5 14.36 63.91 11.78 60.56C11.49 60.18 10.85 60.22 10.52 60.53C10.15 60.89 10.2 61.41 10.49 61.79Z" fill="black"/>
<path d="M36.34 105.36C37.21 104.38 38.18 103.54 39.2 102.89C39.74 102.55 40.3 102.24 40.88 101.98C41.48 101.71 41.96 101.53 42.64 101.33C43.2 101.17 43.58 100.6 43.44 100.01C43.3 99.46 42.69 99.05 42.12 99.21C39.33 100.02 36.77 101.59 34.84 103.77C34.46 104.19 34.35 104.88 34.8 105.31C35.19 105.7 35.93 105.81 36.34 105.36Z" fill="white"/>
<path d="M33.63 88.19C33.62 88.23 33.49 88.53 33.58 88.32C33.54 88.41 33.5 88.5 33.45 88.59C33.37 88.75 33.28 88.9 33.19 89.05C33.1 89.2 33 89.34 32.89 89.49C32.86 89.53 32.83 89.57 32.8 89.61C32.87 89.52 32.87 89.52 32.81 89.6C32.75 89.67 32.7 89.73 32.64 89.8C32.39 90.07 32.12 90.31 31.83 90.54C31.75 90.6 31.75 90.6 31.83 90.54C31.79 90.57 31.75 90.6 31.71 90.63C31.65 90.67 31.58 90.71 31.52 90.75C31.35 90.86 31.17 90.95 30.99 91.04C30.57 91.25 30.39 91.85 30.63 92.25C30.89 92.68 31.39 92.83 31.84 92.61C33.47 91.8 34.69 90.38 35.34 88.69C35.51 88.25 35.16 87.7 34.72 87.59C34.22 87.45 33.81 87.72 33.63 88.19Z" fill="black"/>
<path d="M31.46 102.92C35.25 98.49 40.52 95.61 46.3 94.82C46.89 94.74 47.22 94.03 47.1 93.5C46.95 92.88 46.36 92.63 45.78 92.7C39.69 93.53 33.96 96.66 29.97 101.34C29.06 102.4 30.55 103.99 31.46 102.92Z" fill="white"/>
<path d="M134.71 113.32C135.51 121.88 136.19 130.47 136.73 139.05C136.83 140.56 139.19 140.57 139.09 139.05C138.55 130.47 137.88 121.88 137.07 113.32C136.94 111.82 134.57 111.81 134.71 113.32Z" fill="black"/>
<path d="M28.84 54.52C33.72 51.42 39.7 50.14 45.42 51.19C50.23 52.07 55.25 54.29 58.25 58.29C58.85 59.09 60.22 58.31 59.61 57.5C56.35 53.15 51.1 50.64 45.84 49.67C39.71 48.55 33.3 49.82 28.05 53.16C27.19 53.7 27.98 55.06 28.84 54.52Z" fill="white"/>
<path d="M64.79 110.87C63.71 116.2 62.88 121.46 64.6 126.75C65.28 128.85 66.08 130.85 66.38 133.04C66.66 135.02 66.79 137.04 66.83 139.05C66.85 140.31 68.81 140.31 68.79 139.05C68.72 135.09 68.24 131.3 66.94 127.55C66.06 125.01 65.45 122.53 65.5 119.82C65.55 116.97 66.12 114.18 66.68 111.39C66.93 110.16 65.04 109.64 64.79 110.87Z" fill="black"/>
<path d="M85.6 55.13C85.58 55.12 86.35 61.22 91.52 61.79C96.68 62.37 100.49 56.87 100.4 51.4C100.4 51.4 99.74 49.77 98.16 51.67C96.58 53.59 91.23 57.31 85.6 55.13Z" fill="black"/>
<path d="M97.32 51.52C97.29 54.61 94.18 57.76 91.14 58.06C89.03 58.27 88 56.58 87.51 55.15C91.84 55.67 95.69 53.19 97.32 51.52Z" fill="white"/>
<path d="M99.72 55.58C98.63 58.69 96.34 61.2 93.41 61.73C93.5 60.57 94.18 58.75 95.78 57.19C97.09 55.91 98.54 55.46 99.72 55.58Z" fill="#EC145A"/>
<path d="M84.45 53.96C86.78 55.13 89.44 55.19 91.91 54.43C93.15 54.05 94.34 53.5 95.46 52.85C96.49 52.25 97.59 51.58 98.22 50.53C98.17 50.46 98.12 50.4 98.08 50.33C97.74 49.81 97.47 49.24 97.31 48.64C97.22 48.32 97.34 47.93 97.69 47.82C98 47.72 98.42 47.85 98.51 48.2C98.56 48.4 98.63 48.6 98.7 48.79C98.74 48.89 98.78 48.98 98.82 49.07C98.84 49.12 98.87 49.17 98.89 49.22C98.89 49.23 98.9 49.24 98.91 49.25C99.01 49.43 99.12 49.6 99.24 49.77C99.3 49.85 99.36 49.93 99.43 50.01C99.46 50.05 99.5 50.09 99.53 50.13C99.54 50.14 99.57 50.17 99.58 50.18C99.72 50.33 99.87 50.46 100.04 50.58C100.06 50.59 100.17 50.66 100.08 50.61C100.12 50.63 100.17 50.66 100.21 50.68C100.25 50.7 100.3 50.72 100.34 50.74C100.36 50.75 100.36 50.75 100.37 50.75C100.37 50.75 100.37 50.75 100.38 50.75C100.43 50.76 100.47 50.77 100.52 50.78C100.54 50.78 100.56 50.78 100.57 50.79C100.58 50.79 100.58 50.79 100.59 50.79C100.65 50.79 100.7 50.78 100.76 50.78C100.77 50.78 100.86 50.76 100.88 50.76C100.91 50.75 100.99 50.73 101 50.73C101.06 50.71 101.11 50.69 101.17 50.67C101.22 50.65 101.26 50.64 101.31 50.62C101.53 50.42 101.79 50.34 102.08 50.46C102.36 50.58 102.5 50.91 102.44 51.2C102.35 51.65 101.84 51.8 101.45 51.93C101.07 52.05 100.68 52.11 100.29 52.05C99.93 52 99.61 51.83 99.32 51.64C99.25 51.59 99.18 51.54 99.11 51.48C98.45 52.42 97.54 53.1 96.55 53.7C95.23 54.5 93.84 55.2 92.36 55.65C89.56 56.51 86.55 56.46 83.9 55.13C83.16 54.76 83.71 53.59 84.45 53.96Z" fill="black"/>
<path d="M98.9 62.26C97.52 63.4 95.89 64.14 94.15 64.51C93.8 64.58 93.46 64.23 93.43 63.9C93.4 63.5 93.68 63.25 94.04 63.18C94.72 63.04 95.53 62.75 96.21 62.43C96.87 62.11 97.54 61.66 98.14 61.18C98.42 60.95 98.87 61.06 99.07 61.34C99.28 61.64 99.18 62.03 98.9 62.26Z" fill="black"/>
</g>
<defs>
<clipPath id="clip0_243_582">
<rect width="156.39" height="151.43" fill="white"/>
</clipPath>
</defs>
</svg>
