<svg width="150" height="156" viewBox="0 0 150 156" fill="none" xmlns="http://www.w3.org/2000/svg">
<g clip-path="url(#clip0_243_1145)">
<path d="M27.65 79.06C25.65 73.22 21.63 62.58 21.63 62.58C21.63 62.58 23.28 60.79 25.15 57.2C27.06 53.54 31.33 53.41 32.91 50.92C34.49 48.42 33.1 48.78 33.1 48.78C33.1 48.78 37.42 50.12 38.4 45.62C39.38 41.12 21.5 41.39 18.98 39.56C18.98 39.56 25.47 35.44 29.82 32.75C30.91 32.08 33.7 29.58 31.14 26.98C28.9 24.69 25.3 28.31 20 30.39C14.8 32.43 11.94 34.05 10.64 36.35C9.34 38.66 9.72 39.05 8.56 39.77C7.4 40.49 5.15 42.29 4.74 43.86C4.33 45.43 3.97 46.2 2.87 47.54C1.77 48.88 -0.550001 52.83 0.0999987 56.93C0.759999 61.03 1.45 66.06 4.48 67.88C4.48 67.88 5.53 73.05 6.28 82.68C7.97 104.33 4.58 122.29 16.82 125.94C21.71 127.4 36.73 121.61 35.78 109.1C34.61 93.57 29.65 84.9 27.65 79.06Z" fill="#8C4520"/>
<path d="M4.15988 57.44C4.48988 57.48 4.81988 57.46 5.15988 57.42C5.50988 57.37 5.84988 57.29 6.17988 57.17C6.36988 57.1 6.51988 57.01 6.61988 56.83C6.70988 56.67 6.74988 56.44 6.69988 56.26C6.63988 56.08 6.52988 55.91 6.35988 55.82C6.18988 55.73 5.96988 55.67 5.78988 55.74C5.48988 55.85 5.18988 55.93 4.86988 55.98C4.93988 55.97 4.99988 55.96 5.06988 55.95C4.76988 55.99 4.46988 55.99 4.16988 55.96C3.98988 55.94 3.75988 56.06 3.63988 56.18C3.50988 56.31 3.40988 56.52 3.41988 56.71C3.42988 56.9 3.48988 57.1 3.63988 57.24C3.68988 57.28 3.73988 57.32 3.78988 57.36C3.89988 57.4 4.01988 57.44 4.15988 57.44Z" fill="black"/>
<path d="M5.36003 56.17C5.41003 57.05 5.84003 57.86 6.21003 58.65C6.56003 59.41 6.95003 60.17 7.35003 60.9C7.54003 61.24 8.04003 61.38 8.37003 61.17C8.72003 60.95 8.84003 60.52 8.64003 60.15C8.26003 59.46 7.90003 58.76 7.57003 58.05C7.40003 57.7 7.25003 57.34 7.09003 56.98C7.07003 56.93 7.07003 56.93 7.09003 56.98C7.07003 56.93 7.05003 56.89 7.03003 56.84C7.00003 56.76 6.97003 56.68 6.94003 56.6C6.91003 56.52 6.89003 56.43 6.87003 56.35C6.86003 56.3 6.85003 56.25 6.84003 56.2C6.85003 56.27 6.85003 56.26 6.84003 56.17C6.82003 55.78 6.51003 55.41 6.10003 55.43C5.72003 55.44 5.33003 55.75 5.36003 56.17Z" fill="black"/>
<path d="M6.73008 57.95C4.72008 58.28 3.36008 60.8 4.28008 62.64C4.74008 63.55 5.64008 64.03 6.64008 64.02C7.78008 64.01 9.07008 63.7 10.1401 63.3C12.1301 62.55 14.0501 60.81 14.0101 58.52C13.9901 57.32 13.4901 56.21 12.9601 55.16C12.4601 54.18 12.2401 53.09 11.7301 52.11C11.2601 51.21 10.5401 50.37 9.62008 49.9C8.70008 49.43 7.68008 49.29 6.67008 49.17C5.72008 49.05 5.73008 50.54 6.67008 50.66C8.39008 50.87 9.76008 51.36 10.5301 53.04C10.9701 54.02 11.2401 55.04 11.7301 56C12.2001 56.93 12.7001 58 12.4801 59.07C12.0301 61.32 9.46008 62.07 7.53008 62.41C6.65008 62.57 5.61008 62.61 5.48008 61.49C5.37008 60.51 6.21008 59.53 7.14008 59.37C8.07008 59.23 7.67008 57.8 6.73008 57.95Z" fill="black"/>
<path d="M12.8801 60.75C15.3401 61.53 17.2201 59.29 18.0701 57.27C18.5201 56.21 18.8001 55.03 18.6001 53.88C18.3801 52.61 17.5801 51.44 17.1001 50.25C16.2601 48.18 15.9601 45.66 14.2301 44.09C13.2501 43.2 11.9001 42.58 10.5601 42.62C9.60009 42.65 9.60009 44.14 10.5601 44.11C11.4501 44.08 12.3601 44.46 13.0401 45.02C14.4701 46.19 14.7201 48.14 15.3301 49.78C15.6701 50.7 16.0501 51.61 16.4801 52.5C16.9401 53.46 17.3001 54.27 17.1101 55.35C16.8201 57 15.4001 59.98 13.2701 59.31C12.3601 59.02 11.9701 60.46 12.8801 60.75Z" fill="black"/>
<path d="M21.2001 52.65C22.4601 50.79 24.3701 49.5 26.4201 48.66C26.5101 48.62 26.6101 48.59 26.7001 48.57C26.4401 48.62 26.5001 48.59 26.6201 48.6C26.8701 48.63 27.1301 48.66 27.3801 48.69C28.2501 48.8 29.1201 48.93 29.9901 49.09C30.6901 49.22 31.4901 49.34 32.1101 49.7C32.2201 49.77 32.3101 49.81 32.3401 49.92C32.5301 50.54 31.8701 51.25 31.4701 51.65C30.3901 52.71 28.9601 53.28 27.7001 54.08C26.4601 54.86 25.4801 55.87 24.7201 57.12C23.9001 58.48 23.3201 60.01 22.3001 61.24C21.2401 62.52 19.8001 63.44 18.1701 63.8C17.2401 64.01 17.6301 65.45 18.5701 65.24C20.1301 64.89 21.5601 64.08 22.7201 62.98C23.9601 61.79 24.7001 60.28 25.5001 58.78C26.3801 57.13 27.4201 55.94 29.0601 55C30.5201 54.17 32.0701 53.41 33.1101 52.03C33.8101 51.1 34.2901 49.7 33.3201 48.77C33.2501 48.7 32.9401 48.47 33.1501 48.62C33.0001 48.5 32.8701 48.41 32.7001 48.32C32.2901 48.1 31.8201 47.98 31.3801 47.87C30.3401 47.61 29.2701 47.45 28.2101 47.3C27.6301 47.22 26.9201 47.02 26.3301 47.12C24.9801 47.35 23.5501 48.34 22.5201 49.16C21.5501 49.94 20.6301 50.85 19.9301 51.89C19.3701 52.69 20.6601 53.44 21.2001 52.65Z" fill="black"/>
<path d="M18.79 40.28C23.83 41.61 29.12 42.22 34.29 42.8C35.98 42.99 38.52 43.86 37.49 46.1C36.69 47.85 34.19 48.61 32.43 48.21C31.5 48 31.0999 49.43 32.03 49.65C34.27 50.16 36.9 49.36 38.33 47.52C39.68 45.78 39.32 43.14 37.3 42.07C36.23 41.5 34.99 41.37 33.8 41.26C32.51 41.14 31.26 40.98 29.99 40.77C26.37 40.19 22.72 39.78 19.18 38.84C18.26 38.6 17.86 40.04 18.79 40.28Z" fill="black"/>
<path d="M20.3601 47.45C20.4001 47.45 20.4601 47.47 20.5001 47.46C20.3301 47.49 20.3201 47.43 20.4301 47.45C20.4701 47.46 20.5101 47.46 20.5501 47.47C20.7501 47.5 20.9501 47.54 21.1401 47.57C21.7101 47.67 22.2901 47.79 22.8601 47.9C23.9001 48.11 24.9501 48.32 25.9901 48.56C26.3801 48.65 26.8001 48.44 26.9101 48.04C27.0101 47.66 26.7801 47.21 26.3901 47.12C25.3301 46.88 24.2601 46.66 23.2001 46.45C22.2701 46.27 21.3101 46 20.3601 45.95C19.9601 45.93 19.6201 46.31 19.6201 46.69C19.6201 47.13 19.9601 47.43 20.3601 47.45Z" fill="black"/>
<path d="M13.9201 145.88C17.0201 133.17 21.9001 107.23 28.3901 98.98C28.3901 98.98 46.0801 69.99 76.8101 72.12C107.54 74.25 118.82 81.56 130.07 91.98C142.52 103.51 149.37 156.25 149.37 156.25H115H25.2701C22.3101 156.24 13.1301 149.13 13.9201 145.88Z" fill="#11A906"/>
<path d="M95.11 78.33C95.11 78.33 97.6 89.15 91.05 93.2C84.5 97.26 71.13 93.61 66.03 84.01C61.58 75.63 63.67 69.95 63.67 69.95L95.11 78.33Z" fill="#A95630"/>
<path d="M74.79 26.14C74.79 26.14 115 31.01 116.89 24.19C118.28 19.16 114.27 -5.15001 75.8 3.18999C63.35 5.88999 53.45 16.32 52.98 30.88C52.66 40.99 55.31 54.35 60.73 62.4C66.85 71.49 70.88 70.53 70.88 70.53L74.79 26.14Z" fill="black"/>
<path d="M63.2101 73.46C63.5701 69.32 64.8301 62.11 64.8301 62.11C63.8801 62.25 61.8601 62.34 58.8501 59.96C55.7201 57.49 51.2501 49.41 55.6401 44.98C58.2301 42.37 61.1101 41.11 64.4001 44.94C68.1201 49.26 71.5101 48.85 71.3101 43.41C71.1101 37.96 67.9501 25.21 73.3001 22.31C78.6501 19.41 84.0301 22.12 94.1401 20.93C98.5501 20.41 101.65 19.33 105.31 18.14C109.48 16.78 114.31 20.86 115.41 26.19C116.01 29.12 117.31 51.91 116.72 57.05C116.18 61.72 111.73 79.61 93.7601 79.55C84.5901 79.51 63.2101 73.46 63.2101 73.46Z" fill="#A95630"/>
<path d="M113.98 19.75C115.04 30.14 116.48 40.41 115.8 50.89C115.59 54.07 115.21 57.24 114.47 60.35C114.16 61.67 113.79 62.98 113.33 64.25C113.25 64.47 113.16 64.69 113.08 64.92C112.96 65.23 113.04 65.03 113.02 65.08C112.95 65.25 112.87 65.43 112.79 65.6C111.26 68.97 109.11 72.07 106.33 74.52C101.69 78.61 95.6001 79.93 89.5701 78.9C87.5901 78.56 86.7301 81.6 88.7301 81.94C94.7001 82.96 100.82 82.2 105.93 78.77C109.63 76.29 112.58 72.79 114.68 68.88C116.9 64.74 117.92 60.15 118.52 55.52C119.39 48.78 119.27 41.93 118.79 35.16C118.42 30 117.67 24.89 117.15 19.75C116.93 17.75 113.78 17.73 113.98 19.75Z" fill="black"/>
<path d="M101.76 30.86C102.07 30.46 102.4 30.09 102.77 29.74C103.15 29.39 103.3 29.27 103.75 28.98C103.94 28.86 104.14 28.75 104.34 28.65C104.44 28.6 104.54 28.55 104.65 28.5C104.47 28.58 104.79 28.45 104.82 28.44C105.03 28.37 105.24 28.3 105.46 28.25C105.57 28.22 105.68 28.2 105.79 28.18C105.83 28.17 106.18 28.12 105.95 28.15C107.74 27.94 109.32 28.56 110.58 29.87C111.17 30.48 112.21 30.47 112.81 29.87C113.42 29.26 113.4 28.25 112.81 27.64C111.06 25.83 108.49 24.74 105.95 25C103.4 25.27 101.1 26.62 99.53 28.64C99.01 29.31 98.87 30.21 99.53 30.87C100.07 31.41 101.24 31.54 101.76 30.86Z" fill="black"/>
<path d="M91.02 50.3C91.29 51.88 92.49 53.33 94.17 53.42C95.87 53.51 97.22 51.87 97.05 50.23C97 49.76 96.67 49.31 96.15 49.33C95.7 49.35 95.2 49.73 95.25 50.23C95.26 50.36 95.26 50.49 95.26 50.62C95.26 50.82 95.3 50.46 95.26 50.64C95.24 50.71 95.23 50.79 95.2 50.86C95.19 50.89 95.12 51.1 95.17 50.96C95.22 50.83 95.13 51.03 95.12 51.05C95.09 51.11 95.06 51.16 95.02 51.21C95 51.24 94.99 51.26 94.97 51.29C95.04 51.2 95.06 51.18 95.01 51.23C94.97 51.27 94.93 51.32 94.88 51.37C94.86 51.39 94.84 51.41 94.81 51.43C94.74 51.49 94.75 51.48 94.85 51.4C94.85 51.43 94.72 51.49 94.7 51.5C94.68 51.51 94.66 51.52 94.64 51.53C94.55 51.57 94.56 51.57 94.68 51.52C94.63 51.56 94.38 51.63 94.31 51.62C94.35 51.61 94.38 51.61 94.42 51.6C94.38 51.6 94.33 51.61 94.29 51.61C94.25 51.61 94.12 51.63 94.1 51.6C94.22 51.62 94.25 51.62 94.18 51.61C94.15 51.6 94.12 51.6 94.08 51.59C94.02 51.58 93.95 51.56 93.89 51.54C93.86 51.53 93.83 51.52 93.8 51.51C93.74 51.49 93.76 51.5 93.86 51.54C93.86 51.54 93.69 51.45 93.68 51.45C93.67 51.44 93.51 51.34 93.51 51.34C93.6 51.41 93.62 51.43 93.57 51.38C93.55 51.36 93.52 51.34 93.5 51.32C93.4 51.23 93.32 51.14 93.24 51.04C93.11 50.89 93.32 51.17 93.22 51.02C93.19 50.96 93.15 50.91 93.11 50.86C93.05 50.76 92.94 50.62 92.93 50.51C92.98 50.62 92.98 50.63 92.94 50.54C92.93 50.51 92.92 50.48 92.91 50.45C92.89 50.39 92.87 50.32 92.85 50.26C92.81 50.12 92.78 49.98 92.75 49.83C92.67 49.36 92.07 49.06 91.64 49.2C91.14 49.35 90.93 49.8 91.02 50.3Z" fill="black"/>
<path d="M95.2 50.51C95.47 52.35 97.67 53.19 99.28 52.61C100.06 52.33 100.74 51.78 101.09 51.01C101.43 50.25 101.55 49.35 101.22 48.57C101.13 48.34 101.03 48.16 100.81 48.03C100.62 47.92 100.33 47.87 100.12 47.94C99.7 48.08 99.3 48.58 99.49 49.05C99.54 49.18 99.57 49.31 99.61 49.44C99.62 49.51 99.62 49.48 99.6 49.36C99.6 49.4 99.61 49.44 99.61 49.49C99.61 49.55 99.61 49.62 99.61 49.68C99.61 49.73 99.62 49.84 99.6 49.87C99.62 49.75 99.62 49.72 99.61 49.79C99.6 49.82 99.6 49.85 99.59 49.88C99.57 49.96 99.54 50.19 99.48 50.24C99.53 50.12 99.54 50.11 99.5 50.2C99.49 50.23 99.47 50.26 99.46 50.28C99.43 50.33 99.4 50.39 99.37 50.44C99.25 50.63 99.47 50.35 99.35 50.48C99.31 50.53 99.26 50.58 99.22 50.62C99.21 50.63 99.08 50.76 99.07 50.75C99.16 50.68 99.17 50.67 99.12 50.71C99.09 50.73 99.07 50.75 99.04 50.76C98.98 50.79 98.93 50.83 98.87 50.86C98.83 50.88 98.79 50.9 98.75 50.92C98.86 50.88 98.88 50.87 98.82 50.89C98.68 50.93 98.55 50.97 98.42 51C98.24 51.04 98.6 51 98.4 51C98.34 51 98.27 51.01 98.21 51.01C98.15 51.01 98.08 51.01 98.02 51C97.98 51 97.93 50.99 97.89 50.99C97.92 50.99 97.96 51 97.99 51C97.88 51.03 97.66 50.92 97.56 50.89C97.5 50.87 97.52 50.88 97.61 50.92C97.58 50.91 97.55 50.89 97.52 50.87C97.47 50.84 97.34 50.8 97.31 50.74C97.33 50.76 97.36 50.78 97.38 50.8C97.35 50.77 97.31 50.74 97.28 50.71C97.27 50.7 97.14 50.57 97.14 50.57C97.2 50.66 97.22 50.67 97.18 50.62C97.16 50.59 97.14 50.56 97.12 50.54C97.1 50.51 97.02 50.41 97.02 50.36C97.06 50.47 97.07 50.48 97.03 50.39C97.01 50.34 97 50.32 97 50.3C96.97 50.21 96.96 50.12 96.94 50.03C96.87 49.56 96.26 49.26 95.83 49.4C95.32 49.56 95.13 50 95.2 50.51Z" fill="black"/>
<path d="M101.28 48.71C100.48 45.52 99.05 42.54 98.11 39.39C97.78 38.28 96.04 38.75 96.37 39.87C97.31 43.01 98.73 46 99.54 49.19C99.83 50.31 101.57 49.84 101.28 48.71Z" fill="black"/>
<path d="M100.18 37.5C100.52 35.63 102.11 34.61 102.66 34.29C103.87 33.59 105.22 32.87 107.54 32.96C112 33.13 112.51 34.6 112.75 35.67C112.95 36.55 112.7 38.28 111.48 38.8C110.82 39.08 109.58 38.78 107.08 39.02C104.71 39.25 102.15 40.36 101.41 40.19C100.68 40.02 99.8802 39.17 100.18 37.5Z" fill="white"/>
<path d="M104.81 39.1C107.34 39.1 107.35 35.16 104.81 35.16C102.27 35.16 102.27 39.1 104.81 39.1Z" fill="black"/>
<path d="M78.9001 40.6C79.1601 38.9 80.7301 37.64 81.3001 37.35C82.5501 36.72 84.4101 36.06 86.8501 36.13C90.8501 36.26 91.8701 38.1 92.0801 39.11C92.2601 39.95 92.0701 41.55 90.8001 42.02C90.1201 42.27 88.8001 41.96 86.1801 42.15C83.6901 42.32 81.0201 43.32 80.2401 43.14C79.4701 42.96 78.6601 42.16 78.9001 40.6Z" fill="white"/>
<path d="M84.69 41.97C87.14 41.97 87.14 38.16 84.69 38.16C82.24 38.17 82.24 41.97 84.69 41.97Z" fill="black"/>
<path d="M95.5 5.59999C97.69 4.64999 99.86 3.84999 101.96 3.20999C96.16 0.0899932 88.4 -1.27001 78.14 1.49999C46.13 10.12 53.1 40.5 53.1 40.5C53.1 40.5 59.2 34.1 67.82 28.8C73.01 21.99 82.76 11.13 95.5 5.59999Z" fill="#016A81"/>
<path d="M101.96 3.19999C99.8601 3.84999 97.7001 4.63999 95.5001 5.59999C82.7501 11.13 73.0101 21.99 67.8101 28.8C72.4001 25.98 77.7001 23.46 83.1801 22.38C102.6 18.54 115.34 23.22 117.44 24.08C117.52 24.05 117.6 24.01 117.69 23.97C120.56 22.69 125.49 19.18 127.2 11.27C129.47 0.829988 118.5 -1.88001 101.96 3.19999Z" fill="#008BAD"/>
<path d="M58.7201 49.41C60.1901 48.91 61.3901 50.26 61.8301 51.55C62.2501 52.78 62.8501 55.17 61.3701 55.93C60.9401 56.15 60.8101 56.76 61.0501 57.16C61.3101 57.6 61.8501 57.71 62.2801 57.48C64.6101 56.28 64.2701 53.01 63.5201 50.94C63.1101 49.82 62.4701 48.81 61.4501 48.15C60.5201 47.54 59.3101 47.31 58.2401 47.67C57.7801 47.83 57.4801 48.29 57.6101 48.78C57.7301 49.23 58.2501 49.57 58.7201 49.41Z" fill="black"/>
<path d="M93.2001 29.63C90.9201 27.79 88.0301 27 85.1401 27.61C82.5401 28.16 80.2201 29.97 78.9701 32.3C78.5701 33.05 78.7801 34.02 79.5401 34.46C80.2601 34.88 81.2901 34.65 81.7001 33.89C83.4901 30.57 87.9601 29.41 90.9801 31.86C91.6401 32.4 92.5601 32.51 93.2101 31.86C93.7501 31.31 93.8601 30.17 93.2001 29.63Z" fill="black"/>
<path d="M120.89 129.32C121.29 137.81 121.42 146.32 121.97 154.8C122.06 156.18 124.21 156.19 124.12 154.8C123.56 146.32 123.43 137.81 123.04 129.32C122.97 127.94 120.82 127.93 120.89 129.32Z" fill="#027D01"/>
<path d="M52.68 128.01C51.59 137.03 50.08 146 49.3 155.06C49.18 156.44 51.33 156.43 51.45 155.06C52.23 146 53.75 137.03 54.83 128.01C55 126.64 52.84 126.65 52.68 128.01Z" fill="#027D01"/>
<path d="M81.37 59.65C81.38 59.74 81.4 59.84 81.41 59.93C81.38 59.67 81.42 60.01 81.42 60.06C81.44 60.25 81.46 60.43 81.47 60.62C81.5 61.01 81.51 61.4 81.5 61.8C81.49 62.18 81.47 62.55 81.44 62.93C81.43 63.02 81.42 63.12 81.41 63.21C81.4 63.29 81.38 63.49 81.4 63.3C81.38 63.52 81.33 63.74 81.29 63.95C81.19 64.5 81.44 65.14 82.04 65.27C82.57 65.39 83.25 65.11 83.36 64.52C83.7 62.71 83.72 60.9 83.43 59.08C83.34 58.52 82.62 58.16 82.11 58.33C81.52 58.52 81.28 59.05 81.37 59.65Z" fill="black"/>
<path d="M82.81 62.78C86.11 62.49 89.43 62.69 92.67 63.41C94.02 63.71 94.6 61.64 93.24 61.33C89.82 60.57 86.3 60.31 82.81 60.62C82.23 60.67 81.73 61.08 81.73 61.7C81.74 62.24 82.23 62.83 82.81 62.78Z" fill="black"/>
<path d="M87.1602 68.39C87.7502 68.33 88.3502 68.34 88.9402 68.41C88.8602 68.4 88.7801 68.39 88.7001 68.38C89.1401 68.44 89.5701 68.54 89.9901 68.68C90.4401 68.83 90.9901 68.51 91.1001 68.05C91.2101 67.55 90.9502 67.1 90.4702 66.94C89.4102 66.59 88.2602 66.46 87.1602 66.58C86.9102 66.61 86.7001 66.66 86.5201 66.84C86.3601 67 86.2502 67.25 86.2602 67.48C86.2802 67.93 86.6602 68.44 87.1602 68.39Z" fill="black"/>
<path d="M36.79 112.07C35.85 105.16 33.73 92.38 33.73 92.38C33.73 92.38 36.18 91.66 38.47 88.49C41.74 83.98 44.23 84.51 46.38 82.68C48.53 80.85 46.77 79.8 46.77 79.8C46.77 79.8 48.96 80.5 50.73 79.77C52.26 79.13 54.39 75.75 51.74 73.68C51.74 73.68 57.23 73.81 55.83 69.55C54.72 66.15 45.01 64.26 38.98 60.65C33.35 57.28 29.2 58.64 27.39 60.41C25.57 62.17 25.9 62.76 24.54 62.96C23.19 63.16 20.48 63.98 19.74 65.4C19 66.82 18.47 67.45 17.06 68.31C15.64 69.17 12.43 72.15 12.31 76.67C12.19 81.18 11.92 86.66 14.74 89.92L13.71 105.93C13.71 105.93 3.92001 144.69 16 154.08C20.83 157.84 38.11 157.84 39.58 144.57C41.43 128.08 37.73 118.98 36.79 112.07Z" fill="#A95630"/>
<path d="M16.2199 78.95C16.9399 79.36 17.7399 79.59 18.5599 79.64C18.7499 79.65 18.9799 79.54 19.1099 79.41C19.2399 79.28 19.3499 79.05 19.3399 78.86C19.3299 78.66 19.2599 78.45 19.1099 78.31C18.9499 78.17 18.7699 78.1 18.5599 78.08C18.4599 78.07 18.3499 78.06 18.2499 78.05C18.3199 78.06 18.3899 78.07 18.4599 78.08C18.0699 78.03 17.6899 77.92 17.3199 77.77C17.3799 77.8 17.4399 77.82 17.5099 77.85C17.3399 77.78 17.1699 77.7 17.0099 77.6C16.8299 77.5 16.6099 77.47 16.4099 77.52C16.2299 77.57 16.0299 77.71 15.9499 77.88C15.7399 78.25 15.8399 78.73 16.2199 78.95Z" fill="black"/>
<path d="M17.97 78.64C17.91 79.15 18 79.67 18.1 80.17C18.19 80.61 18.29 81.05 18.39 81.49C18.6 82.4 18.84 83.3 19.11 84.19C19.23 84.59 19.66 84.85 20.07 84.73C20.47 84.62 20.73 84.18 20.61 83.77C20.35 82.91 20.12 82.04 19.91 81.17C19.81 80.73 19.71 80.29 19.62 79.86C19.53 79.45 19.47 79.07 19.52 78.64C19.57 78.22 19.13 77.86 18.74 77.86C18.28 77.86 18.02 78.22 17.97 78.64Z" fill="black"/>
<path d="M19.3199 80.83C17.1399 80.24 15.1199 82.16 15.5199 84.36C15.9799 86.92 18.9699 87.5 21.1499 87.74C23.3899 87.98 26.0699 87.06 26.5199 84.57C26.7599 83.25 26.4499 81.93 26.1099 80.65C25.7699 79.36 25.7499 78 25.3499 76.73C25.0099 75.64 24.4699 74.6 23.6699 73.77C22.8999 72.96 21.9099 72.38 20.9499 71.82C20.0799 71.32 19.2999 72.66 20.1599 73.16C21.7899 74.1 23.1399 75.09 23.7699 76.93C24.1899 78.14 24.1799 79.45 24.4999 80.69C24.7899 81.83 25.2199 83.08 24.9899 84.27C24.4699 86.94 20.8299 86.22 19.0299 85.73C18.0499 85.47 17.0799 85 16.9999 83.86C16.9299 82.83 17.9199 82.06 18.8899 82.33C19.8799 82.59 20.2899 81.09 19.3199 80.83Z" fill="black"/>
<path d="M24.74 86.37C26.93 88.11 29.48 87.19 31.05 85.11C31.8 84.12 32.31 82.91 32.28 81.65C32.24 80.2 31.66 78.74 31.4 77.31C30.93 74.78 31.05 72.07 29.62 69.83C28.79 68.53 27.59 67.4 26.16 66.81C25.23 66.43 24.83 67.93 25.75 68.31C26.67 68.69 27.52 69.53 28.1 70.33C29.25 71.94 29.32 73.75 29.58 75.64C29.73 76.74 29.92 77.84 30.16 78.93C30.4 80.02 30.9 81.21 30.69 82.34C30.33 84.31 27.89 86.88 25.86 85.27C25.06 84.65 23.95 85.75 24.74 86.37Z" fill="black"/>
<path d="M34.44 80.45C34.93 79.84 35.55 79.32 36.19 78.88C36.86 78.43 37.58 78.05 38.35 77.81C38.93 77.63 39.54 77.61 40.11 77.45C40.29 77.4 40.21 77.47 40.07 77.42C40.13 77.44 40.2 77.46 40.25 77.49C40.51 77.61 40.8 77.7 41.08 77.8C41.94 78.13 42.8 78.47 43.64 78.85C44.4 79.19 45.25 79.53 45.92 80.05C46.64 80.6 46.61 81.28 45.95 81.96C44.93 83 43.37 83.25 42.05 83.72C40.69 84.2 39.56 84.89 38.67 86.04C37.72 87.26 37.14 88.73 36.14 89.9C34.98 91.26 33.29 91.97 31.51 91.93C30.51 91.91 30.51 93.46 31.51 93.49C33.26 93.53 34.97 92.97 36.34 91.87C37.61 90.85 38.34 89.43 39.17 88.07C39.58 87.4 40.02 86.73 40.62 86.22C41.29 85.64 42.13 85.33 42.96 85.06C44.55 84.55 46.27 84.08 47.36 82.71C48.2 81.66 48.31 80.34 47.39 79.31C46.88 78.73 46.17 78.36 45.49 78.02C44.43 77.49 43.33 77.03 42.22 76.6C41.67 76.38 41.06 76.06 40.47 75.94C40.05 75.85 39.56 75.97 39.14 76.04C38.1 76.22 37.09 76.57 36.17 77.09C35.14 77.66 34.09 78.44 33.35 79.37C32.72 80.12 33.82 81.23 34.44 80.45Z" fill="black"/>
<path d="M31.89 66.27C37.16 69.03 42.83 71.16 48.41 73.2C50.14 73.83 53.11 75.45 52.02 77.8C51.16 79.67 48.26 79.45 46.74 78.72C45.84 78.28 45.05 79.62 45.95 80.06C47.65 80.89 49.69 81.1 51.44 80.31C53.14 79.55 54.02 77.89 53.62 76.05C53.16 73.93 51.41 72.75 49.52 71.97C48.54 71.57 47.53 71.27 46.53 70.92C45.29 70.48 44.09 69.9 42.88 69.4C39.44 67.99 35.96 66.65 32.67 64.92C31.79 64.46 31 65.8 31.89 66.27Z" fill="black"/>
<path d="M33.79 74.87C34.14 74.96 34.47 75.11 34.81 75.24C35.42 75.48 36.02 75.72 36.63 75.97C37.28 76.24 37.94 76.51 38.59 76.78C38.65 76.81 38.71 76.83 38.77 76.86C38.85 76.89 38.85 76.89 38.76 76.86C38.8 76.88 38.84 76.89 38.87 76.91C38.99 76.96 39.12 77.02 39.24 77.07C39.45 77.16 39.65 77.25 39.86 77.34C40.24 77.51 40.7 77.45 40.92 77.06C41.11 76.73 41.03 76.17 40.64 76C39.47 75.48 38.28 75 37.1 74.51C36.49 74.26 35.88 74.01 35.27 73.77C34.92 73.63 34.56 73.47 34.2 73.38C33.24 73.12 32.82 74.62 33.79 74.87Z" fill="black"/>
<path d="M36.3201 30.95C38.7001 33.05 39.0801 36.37 38.6201 39.35C38.5501 39.82 38.7401 40.29 39.2301 40.43C39.6501 40.54 40.2401 40.29 40.3101 39.82C40.8601 36.25 40.4301 32.24 37.5601 29.71C36.7101 28.97 35.4701 30.21 36.3201 30.95Z" fill="white"/>
<path d="M36.4699 31.47C36.3799 30.55 36.3199 29.6 36.3799 28.68C36.3699 28.76 36.3599 28.84 36.3499 28.91C36.3299 28.95 36.3099 28.99 36.2899 29.03C36.1899 29.13 36.0799 29.24 35.9799 29.34C35.9099 29.37 35.8399 29.4 35.7699 29.43C35.6899 29.44 35.6099 29.45 35.5399 29.46C35.5499 29.46 35.5499 29.46 35.5599 29.46C35.4799 29.45 35.3999 29.44 35.3299 29.43C35.6999 29.48 36.0799 29.61 36.4399 29.71C36.9599 29.85 37.4699 29.99 37.9799 30.14C38.0699 30.17 38.1599 30.19 38.2499 30.22C38.2799 30.23 38.2999 30.24 38.3299 30.25C38.3399 30.25 38.3499 30.26 38.3599 30.26C38.1699 30.21 37.9499 30.05 37.8599 29.87C37.9599 29.47 38.0699 29.07 38.1699 28.67C37.3899 29.19 36.6199 29.71 35.8499 30.24C35.6199 30.4 35.3899 30.56 35.1599 30.72C34.9699 30.86 34.8199 31.01 34.7599 31.24C34.6999 31.45 34.7299 31.73 34.8499 31.92C35.0899 32.29 35.6499 32.52 36.0499 32.23C36.9399 31.59 37.8499 30.99 38.7599 30.38C38.8599 30.31 38.9599 30.25 39.0599 30.18C39.4699 29.9 39.5999 29.43 39.3699 28.98C39.1899 28.62 38.7299 28.53 38.3799 28.43C37.9999 28.32 37.6199 28.21 37.2399 28.11C36.8799 28.01 36.5199 27.91 36.1499 27.82C36.0499 27.79 35.9399 27.77 35.8399 27.75C35.7499 27.73 35.6499 27.71 35.5499 27.71C35.0599 27.73 34.7199 28.08 34.6499 28.56C34.5899 29.04 34.6199 29.55 34.6299 30.04C34.6499 30.52 34.6799 31 34.7299 31.47C34.7499 31.71 34.8099 31.91 34.9899 32.09C35.1399 32.24 35.3899 32.36 35.6099 32.35C36.0299 32.33 36.5199 31.96 36.4699 31.47Z" fill="white"/>
<path d="M40.53 38.04C40.29 38.44 40.04 38.84 39.77 39.23C39.64 39.42 39.51 39.61 39.37 39.79C39.31 39.88 39.24 39.96 39.17 40.05C39.04 40.23 39.29 39.91 39.15 40.08C39.14 40.1 39.12 40.11 39.11 40.13C39.05 40.2 39.07 40.18 39.18 40.08C39.33 40.04 39.48 40 39.62 39.96C39.77 40 39.92 40.04 40.06 40.08C40.25 40.17 40.27 40.27 40.2 40.18C40.18 40.15 40.15 40.12 40.13 40.1C40.06 40.01 39.99 39.93 39.92 39.84C39.82 39.71 39.72 39.59 39.62 39.46C39.6 39.43 39.58 39.41 39.56 39.38C39.44 39.22 39.68 39.53 39.59 39.42C39.53 39.35 39.48 39.27 39.42 39.2C39.22 38.93 39.01 38.67 38.82 38.4C38.75 38.31 38.69 38.22 38.62 38.13C38.6 38.1 38.58 38.07 38.56 38.04C38.55 38.03 38.55 38.02 38.54 38.01C38.58 38.06 38.66 38.34 38.65 38.43C38.36 38.72 38.07 39.01 37.77 39.31C38.94 39.33 40.11 39.35 41.28 39.37C41.74 39.37 42.18 38.96 42.16 38.49C42.14 38.01 41.77 37.62 41.28 37.61C40.11 37.6 38.94 37.58 37.77 37.55C37.56 37.55 37.3 37.65 37.15 37.81C36.98 37.99 36.93 38.19 36.89 38.43C36.85 38.75 37.14 39.07 37.31 39.3C37.55 39.62 37.79 39.93 38.03 40.25C38.29 40.58 38.54 40.92 38.81 41.24C38.87 41.31 38.92 41.38 38.98 41.44C39.15 41.61 39.38 41.71 39.62 41.71C39.98 41.71 40.24 41.5 40.45 41.23C41.03 40.49 41.56 39.72 42.04 38.91C42.27 38.51 42.14 37.93 41.73 37.71C41.3 37.51 40.78 37.62 40.53 38.04Z" fill="white"/>
</g>
<defs>
<clipPath id="clip0_243_1145">
<rect width="149.38" height="156.24" fill="white"/>
</clipPath>
</defs>
</svg>
