<svg width="170" height="175" viewBox="0 0 170 175" fill="none" xmlns="http://www.w3.org/2000/svg">
<g clip-path="url(#clip0_243_1029)">
<path d="M45.88 86.03L44.96 73.03C44.96 73.03 50.21 68.31 50.86 60.96C51.14 57.87 50.69 52.09 46.83 51.14C47.09 51.27 46.89 44.99 43.58 43.61C41.43 42.71 39.52 44.32 39.34 44.1C35.97 39.93 32.22 44.17 32.22 44.17C32.22 44.17 30.17 42.13 27.63 42.64C23.84 43.4 23.76 45.65 23.76 45.65C23.76 45.65 19.96 43.51 16.26 46.63C13.49 48.96 13.38 54.77 13.68 59.92C14.01 65.71 18.93 72.13 23.24 74.97L23.36 86.98L45.88 86.03Z" fill="#E08F8B"/>
<path d="M48.47 51.03C47.45 50.24 46.34 49.57 45.2 48.97C43.36 48 41.37 47.19 39.29 47.01C38.35 46.93 37.36 47.01 36.48 47.36C35.52 47.73 34.94 48.59 34.59 49.52C34.18 50.61 34.18 51.88 34.75 52.91C35.29 53.91 36.33 54.68 37.24 55.31C38.25 56.01 39.34 56.57 40.44 57.11C41.2 57.48 42.04 57.79 42.73 58.29C43.64 58.95 44.51 57.44 43.61 56.78C43.12 56.43 42.55 56.19 42.01 55.93C41.17 55.53 40.33 55.12 39.52 54.66C38.13 53.88 35.8 52.64 36.06 50.74C36.14 50.14 36.46 49.28 37.01 49C37.68 48.66 38.57 48.68 39.3 48.74C40.99 48.89 42.65 49.59 44.15 50.36C44.88 50.74 45.59 51.15 46.29 51.59C46.52 51.74 46.76 51.89 46.99 52.05C47.09 52.12 47.56 52.47 47.26 52.23C47.63 52.52 48.13 52.59 48.49 52.23C48.78 51.96 48.84 51.32 48.47 51.03Z" fill="black"/>
<path d="M43.17 56.67C40.66 56.46 38.08 57.64 36.5 59.59C34.77 61.73 34.21 64.5 34.65 67.19C34.73 67.66 35.3 67.91 35.72 67.8C36.21 67.66 36.41 67.19 36.33 66.73C35.99 64.66 36.46 62.35 37.82 60.72C39.13 59.14 41.11 58.25 43.16 58.42C43.63 58.46 44.03 57.99 44.03 57.55C44.04 57.03 43.64 56.7 43.17 56.67Z" fill="black"/>
<path d="M18.14 54.38C18.79 55.01 19.57 55.48 20.43 55.77C20.63 55.84 20.91 55.79 21.09 55.68C21.27 55.58 21.44 55.37 21.48 55.17C21.59 54.7 21.34 54.27 20.88 54.12C20.76 54.08 20.64 54.03 20.52 53.99C20.59 54.02 20.66 54.05 20.72 54.08C20.32 53.91 19.95 53.69 19.61 53.43C19.67 53.47 19.73 53.52 19.78 53.56C19.63 53.44 19.48 53.31 19.34 53.18C19.18 53.03 18.96 52.93 18.74 52.93C18.53 52.93 18.28 53.02 18.14 53.18C17.99 53.34 17.88 53.56 17.89 53.78C17.9 54 17.98 54.22 18.14 54.38Z" fill="black"/>
<path d="M21.2 53.34C20.71 54.14 20.26 54.99 19.96 55.88C19.74 56.52 19.63 57.23 19.65 57.9C19.67 58.58 19.81 59.29 19.89 59.93C19.95 60.39 20.24 60.79 20.75 60.79C21.17 60.79 21.66 60.4 21.61 59.93C21.56 59.54 21.51 59.15 21.45 58.76C21.44 58.67 21.42 58.58 21.41 58.49C21.43 58.61 21.41 58.47 21.4 58.42C21.38 58.28 21.37 58.15 21.37 58.01C21.34 57.39 21.41 56.95 21.62 56.32C21.66 56.19 21.71 56.07 21.76 55.95C21.71 56.06 21.77 55.93 21.79 55.89C21.82 55.83 21.85 55.76 21.88 55.7C21.99 55.46 22.12 55.22 22.24 54.98C22.38 54.71 22.53 54.45 22.69 54.19C22.93 53.79 22.78 53.25 22.38 53.02C21.97 52.79 21.44 52.94 21.2 53.34Z" fill="black"/>
<path d="M20.82 56.45C18.25 55.25 15.51 57.43 16.04 60.2C16.31 61.61 17.36 62.53 18.61 63.12C20.07 63.81 21.65 64.5 23.29 64.55C26.2 64.63 28.29 62.23 28.92 59.57C29.31 57.92 29.19 56.16 28.8 54.52C28.1 51.63 26.36 49.11 24.3 47.01C23.53 46.22 22.32 47.43 23.09 48.22C25.35 50.51 27.14 53.36 27.41 56.6C27.56 58.35 27.25 60.26 26.06 61.62C24.35 63.57 21.86 62.72 19.83 61.81C18.75 61.32 17.56 60.67 17.69 59.3C17.79 58.23 18.96 57.46 19.97 57.93C20.95 58.39 21.82 56.92 20.82 56.45Z" fill="black"/>
<path d="M31.79 46.8C33.3 49.31 34.15 52.19 34.17 55.12C34.18 56.56 34.03 57.92 32.93 58.94C31.86 59.95 30.34 60.21 28.94 59.88C27.85 59.62 27.38 61.31 28.48 61.56C32.09 62.41 35.56 60.17 35.88 56.41C36.18 52.78 35.17 49.02 33.31 45.92C32.71 44.96 31.2 45.83 31.79 46.8Z" fill="black"/>
<path d="M33.6701 59.26C33.9801 59.8 34.4801 60.22 35.0501 60.46C35.3701 60.6 35.6801 60.7 36.0201 60.77C36.3801 60.84 36.7501 60.88 37.1201 60.92C37.3301 60.94 37.6001 60.81 37.7401 60.66C37.8901 60.51 38.0101 60.26 38.0001 60.04C37.9901 59.81 37.9201 59.58 37.7401 59.42C37.5601 59.25 37.3701 59.19 37.1201 59.16C36.9901 59.14 36.8601 59.13 36.7201 59.11C36.8001 59.12 36.8701 59.13 36.9501 59.14C36.5301 59.08 36.1101 59 35.7201 58.84C35.7901 58.87 35.8601 58.9 35.9301 58.93C35.7201 58.84 35.5301 58.73 35.3501 58.6C35.4101 58.65 35.4701 58.69 35.5301 58.74C35.4001 58.64 35.2801 58.52 35.1801 58.39C35.2301 58.45 35.2701 58.51 35.3201 58.57C35.2701 58.5 35.2201 58.43 35.1801 58.36C34.9501 57.96 34.3801 57.79 33.9901 58.05C33.5901 58.32 33.4301 58.84 33.6701 59.26Z" fill="black"/>
<path d="M39.24 45.6C39.48 46.45 39.72 47.3 39.95 48.15C40.07 48.59 40.57 48.9 41.02 48.76C41.47 48.61 41.76 48.16 41.63 47.69C41.39 46.84 41.15 45.99 40.92 45.14C40.8 44.7 40.3 44.39 39.85 44.53C39.4 44.67 39.1 45.13 39.24 45.6Z" fill="black"/>
<path d="M28.1902 114.1C28.1902 114.1 58.3102 86.77 109.17 88.47C160.03 90.18 169.04 175.21 169.04 175.21H28.4702L28.1902 114.1Z" fill="#E7E6E6"/>
<path d="M84.8401 109.58C82.7501 126.1 81.4501 142.71 81.0201 159.35C80.9001 164.15 80.8501 168.96 80.8501 173.76C80.8501 175.63 83.7501 175.63 83.7501 173.76C83.7201 157.11 84.4801 140.47 86.1201 123.9C86.5901 119.12 87.1401 114.34 87.7401 109.58C87.9801 107.73 85.0701 107.75 84.8401 109.58Z" fill="#B4E2EE"/>
<path d="M120.73 24.08C120.73 24.08 126.7 27.93 128.9 41.8C131.11 55.67 128.38 52.02 132.4 61.29C136.43 70.56 137.11 76.84 136.48 82.64C135.85 88.44 134.57 92.39 134.57 92.39L130.1 87.47C130.1 87.47 130.69 91.95 130.24 95.67C129.79 99.39 127.84 102.37 127.84 102.37L124.41 95.78C124.41 95.78 124.35 99.16 123.91 101.09C123.41 103.3 121.89 105.83 121.89 105.83C121.89 105.83 118.82 101.79 114.87 99.16C109.72 95.73 103.99 93.98 103.99 93.98L104.61 33.02L120.73 24.08Z" fill="#2D2D2D"/>
<path d="M90.8501 107.73C90.8501 107.73 98.6701 108.33 101.23 108.88C104.9 109.66 109.79 111.69 112.55 112.91C113.56 113.36 114.71 112.64 114.72 111.55C114.76 104.77 113.56 84.99 108.27 80.4L90.8501 107.73Z" fill="#B4E2EE"/>
<path d="M61.1301 64.64C61.1301 64.64 56.2701 72.69 55.4501 81.32C54.4501 91.75 57.9301 98.5 57.9301 98.5C57.9301 98.5 59.8501 97.12 61.7901 96.01C64.2301 94.61 71.4501 92.71 71.4501 92.71L71.6601 81.07L61.1301 64.64Z" fill="#2D2D2D"/>
<path d="M80.49 106.95C80.49 106.95 73.45 107.94 71.18 108.63C67.64 109.71 63.88 111.33 61.81 112.28C61.1 112.6 60.31 112.02 60.41 111.25C61.16 105.61 63.69 89.69 68.48 84.62L71.43 87.01L76.19 97.01L80.49 106.95Z" fill="#B4E2EE"/>
<path d="M110.04 36.95C110.04 36.95 122.33 33.74 126.65 26.21C130.97 18.68 130.56 11.85 130.56 11.85C130.56 11.85 125.92 15.05 123.37 16.06C120.82 17.08 117.66 17.83 117.66 17.83C117.66 17.83 118.02 17.02 119.3 13.7C120.58 10.38 120.95 7.79 120.95 7.79C120.95 7.79 117.57 12.11 113.72 13.19C109.87 14.27 106.26 14.06 106.26 14.06C106.26 14.06 109.84 11.61 110.94 9.78C112.05 7.95 113.65 4.11 113.65 4.11C113.65 4.11 108.94 6.03 104.85 6.13C100.75 6.24 98.42 5.76 96.86 6.53C95.3 7.29 93.89 9.6 93.89 9.6C93.89 9.6 94.29 7.44 90.98 6.22C87.67 5 86.08 4.65 84 3.61C82 2.61 79.11 0 79.11 0C79.11 0 78.18 1.69 78.19 3.6C78.21 6.32 80.47 8.91 80.47 8.91C80.47 8.91 79.33 9.64 76.42 8.95C72.87 8.11 70.55 5 70.55 5C70.55 5 69.67 6.64 70.1 8.4C70.53 10.16 71.65 11.02 71.65 11.02C71.65 11.02 69.46 10.89 67.35 9.24C65.25 7.6 64.47 6.05 64.47 6.05C64.47 6.05 59.14 9.45 58.19 17C57.24 24.55 57.81 27.48 59.55 32.01C61.29 36.54 63.94 41.1 63.94 41.1L110.04 36.95Z" fill="black"/>
<path d="M71.42 86.94C71.42 86.94 73.27 94.99 77.73 102.82C78.5 104.16 82.21 109.94 84.27 113.13C84.99 114.25 86.55 114.44 87.51 113.51C90.14 110.98 94.79 106.43 96.09 104.49C97.94 101.74 106.9 92.7 108 85.32C108.67 80.85 108.36 62.65 108.36 62.65C108.36 62.65 113.58 68.05 119.2 62.26C122.96 58.39 122.73 48.17 115.83 47.27C111.18 46.66 108.03 50.92 108.03 50.92C108.03 50.92 107.08 51.78 106.98 49.36C106.82 45.47 106.98 36.51 107.33 32.55C107.47 31.02 107.11 29.48 106.28 28.2C104.13 24.89 98.68 19.39 86.16 19.49C68.28 19.64 65.3 23.98 63.8 30.12C62.3 36.26 62.37 41.58 59.25 48.18C56.14 54.78 55.65 57.31 58.38 66.49C62.82 81.41 71.42 86.94 71.42 86.94Z" fill="#F6A7AD"/>
<path d="M83.26 55.23C83.31 55.43 83.27 55.05 83.27 55.25C83.27 55.28 83.27 55.31 83.27 55.34C83.27 55.41 83.27 55.38 83.28 55.26C83.29 55.29 83.25 55.38 83.24 55.41C83.23 55.44 83.22 55.47 83.21 55.5C83.25 55.4 83.26 55.38 83.23 55.44C83.2 55.48 83.18 55.53 83.15 55.58C83.06 55.75 83.27 55.47 83.13 55.61C83.08 55.66 83.03 55.7 82.99 55.75C82.88 55.86 83.07 55.71 82.98 55.76C82.87 55.82 82.77 55.89 82.66 55.95C82.47 56.05 82.83 55.89 82.62 55.97C82.56 55.99 82.49 56.02 82.43 56.04C82.31 56.08 82.19 56.1 82.07 56.13C81.87 56.18 82.18 56.13 82 56.14C81.93 56.14 81.86 56.15 81.78 56.14C81.75 56.14 81.57 56.11 81.71 56.14C81.85 56.17 81.63 56.12 81.61 56.11C81.56 56.1 81.51 56.08 81.46 56.06C81.27 56 81.61 56.15 81.43 56.05C81.37 56.02 81.32 55.99 81.26 55.96C81.24 55.95 81.09 55.84 81.19 55.92C81.29 56 81.13 55.86 81.11 55.84C81.07 55.8 81.04 55.76 81 55.73C80.87 55.58 81.08 55.88 80.98 55.7C80.95 55.64 80.92 55.59 80.88 55.53C80.8 55.39 80.9 55.63 80.88 55.53C80.87 55.48 80.85 55.43 80.83 55.37C80.82 55.32 80.78 55.23 80.79 55.18C80.8 55.29 80.81 55.32 80.8 55.25C80.8 55.22 80.8 55.19 80.8 55.15C80.8 55.11 80.78 54.98 80.81 54.96C80.8 54.99 80.8 55.03 80.79 55.06C80.8 55.02 80.8 54.97 80.81 54.93C80.9 54.49 80.68 53.97 80.2 53.86C79.76 53.76 79.23 53.99 79.13 54.47C78.94 55.35 79.15 56.22 79.72 56.91C80.21 57.51 80.99 57.85 81.76 57.88C83.41 57.94 85.34 56.59 84.91 54.77C84.8 54.33 84.28 54.02 83.84 54.16C83.41 54.31 83.15 54.75 83.26 55.23Z" fill="black"/>
<path d="M79.0401 54.44C79.0301 54.48 79.0201 54.53 79.0101 54.57C78.9801 54.66 78.9801 54.65 79.0201 54.54C79.0201 54.59 78.9201 54.73 78.8801 54.76C79.0401 54.62 78.8601 54.77 78.8201 54.81C78.7801 54.85 78.6401 55.03 78.7701 54.87C78.7201 54.93 78.6001 54.98 78.5301 55.02C78.4801 55.04 78.4401 55.07 78.3901 55.09C78.4801 55.05 78.4801 55.05 78.3801 55.09C78.2101 55.15 78.0301 55.19 77.8501 55.23C77.7501 55.25 77.7501 55.25 77.8501 55.23C77.8001 55.24 77.7501 55.24 77.6901 55.25C77.6601 55.25 77.6301 55.25 77.6001 55.25C77.5501 55.25 77.5101 55.25 77.4601 55.25C77.2501 55.24 77.6501 55.29 77.5101 55.26C77.4201 55.24 77.3301 55.22 77.2401 55.19C77.2001 55.18 77.1201 55.13 77.0801 55.13C77.2201 55.19 77.2501 55.2 77.1701 55.16C77.1501 55.15 77.1301 55.14 77.1101 55.13C77.0101 55.08 76.9201 55 76.8201 54.95C77.0201 55.05 76.9001 55.01 76.8301 54.95C76.7901 54.91 76.7501 54.87 76.7101 54.83C76.6901 54.81 76.6601 54.78 76.6401 54.75C76.5801 54.68 76.6001 54.7 76.6801 54.8C76.6801 54.77 76.5801 54.65 76.5601 54.62C76.5301 54.57 76.5101 54.52 76.4801 54.47C76.4401 54.38 76.4501 54.4 76.5001 54.52C76.4901 54.48 76.4701 54.44 76.4601 54.41C76.4101 54.26 76.3801 54.11 76.3501 53.96C76.3901 54.15 76.3401 53.84 76.3401 53.8C76.3401 53.69 76.3401 53.59 76.3401 53.48C76.3401 53.4 76.3501 53.32 76.3601 53.24C76.3401 53.44 76.3901 53.11 76.3901 53.08C76.4301 52.87 76.5001 52.67 76.5701 52.47C76.7301 52.04 76.3901 51.5 75.9601 51.4C75.4701 51.29 75.0601 51.55 74.8901 52.01C74.3901 53.36 74.4701 55.11 75.5701 56.16C76.4501 57 77.6701 57.19 78.8101 56.79C79.6901 56.48 80.4801 55.86 80.7101 54.91C80.8201 54.47 80.5701 53.95 80.1001 53.84C79.6601 53.73 79.1501 53.96 79.0401 54.44Z" fill="black"/>
<path d="M78.2602 44.31C77.2502 46.76 76.1802 49.18 75.0502 51.59C74.8502 52.01 74.9302 52.53 75.3602 52.78C75.7402 53 76.3502 52.9 76.5502 52.47C77.7402 49.93 78.8702 47.37 79.9302 44.78C80.1102 44.35 79.7402 43.82 79.3202 43.71C78.8302 43.57 78.4402 43.88 78.2602 44.31Z" fill="black"/>
<path d="M97.15 36.48C94.93 34.68 92.3 33.53 89.41 33.47C87.24 33.43 85.08 34 83.36 35.34C82.68 35.87 82.81 37.03 83.36 37.58C84.03 38.25 84.93 38.11 85.6 37.58C85.27 37.83 85.66 37.56 85.79 37.48C85.93 37.39 86.08 37.31 86.23 37.24C86.32 37.2 86.41 37.16 86.49 37.12C86.38 37.17 86.26 37.2 86.44 37.14C86.64 37.07 86.83 37 87.04 36.94C87.23 36.88 87.42 36.84 87.62 36.79C87.73 36.77 87.84 36.74 87.95 36.72C87.99 36.71 88.37 36.66 88.15 36.69C87.94 36.72 88.37 36.67 88.36 36.67C88.46 36.66 88.55 36.65 88.65 36.65C88.9 36.64 89.15 36.63 89.4 36.64C89.63 36.64 89.86 36.66 90.09 36.68C90.14 36.68 90.49 36.72 90.22 36.69C90.33 36.7 90.43 36.72 90.54 36.74C91.06 36.83 91.58 36.97 92.08 37.14C93 37.45 94.03 38.02 94.89 38.72C95.55 39.26 96.48 39.37 97.13 38.72C97.7 38.17 97.81 37.02 97.15 36.48Z" fill="black"/>
<path d="M77.8401 35.23C76.2601 33.79 74.0001 33.29 71.9201 33.34C70.5401 33.37 69.1501 33.64 67.8601 34.12C66.7201 34.54 65.5501 35.07 64.6701 35.95C63.2201 37.4 65.4701 39.64 66.9101 38.19C66.9701 38.13 67.0501 38.07 67.1101 38C67.2301 37.86 66.8201 38.18 67.1301 37.99C67.3101 37.88 67.4801 37.76 67.6701 37.66C67.8701 37.55 68.0801 37.44 68.3001 37.34C68.5201 37.24 68.3201 37.33 68.4601 37.27C68.5701 37.23 68.6801 37.19 68.7801 37.15C69.3201 36.96 69.8601 36.8 70.4201 36.68C71.0401 36.55 71.2601 36.53 71.9201 36.51C72.2001 36.5 72.4801 36.51 72.7601 36.52C72.8801 36.53 72.9901 36.54 73.1101 36.55C73.6301 36.59 72.9701 36.52 73.2601 36.56C73.7001 36.63 74.1401 36.74 74.5701 36.88C74.6501 36.91 74.7201 36.94 74.8001 36.97C74.4601 36.86 74.7101 36.93 74.7901 36.97C74.9301 37.04 75.0701 37.11 75.2101 37.19C75.3401 37.27 75.4601 37.36 75.5901 37.44C75.7701 37.55 75.4901 37.35 75.4601 37.34C75.5101 37.37 75.5701 37.43 75.6201 37.48C76.2501 38.06 77.2401 38.11 77.8601 37.48C78.4201 36.88 78.4701 35.81 77.8401 35.23Z" fill="black"/>
<path d="M82.9501 56.01C82.9501 56.01 86.9501 56.89 87.8201 59.14C88.2301 60.19 87.6201 61.03 86.4301 61.04C85.2401 61.05 83.5101 60.02 83.5101 60.02C83.5101 60.02 83.8801 61.97 82.3201 62.09C80.7601 62.21 79.7301 60.5 79.7301 60.5C79.7301 60.5 79.5201 62.47 77.8301 62.61C76.1401 62.75 75.8601 60.6 75.8601 60.6C75.8601 60.6 73.4501 62.99 71.8401 61.22C70.2301 59.45 72.5201 56.62 74.5101 55.91C76.5001 55.21 76.6801 55.52 76.6801 55.52C76.6801 55.52 77.3101 57.06 79.2601 55.54C79.2601 55.54 79.7401 56.62 81.1201 56.71C82.4801 56.79 82.9501 56.01 82.9501 56.01Z" fill="black"/>
<path d="M60.3901 31.65C60.6901 37.73 57.4801 43.19 56.0601 48.94C54.5901 54.89 55.2901 61.32 57.0301 67.14C58.7301 72.84 61.6001 78.37 65.4701 82.9C69.3801 87.48 75.1901 89.1 81.0401 89.17C86.9101 89.24 93.0601 87.58 97.3401 83.41C98.8101 81.98 96.5601 79.74 95.1001 81.17C91.6501 84.53 86.7301 85.89 82.0101 86C76.6501 86.12 71.3001 84.88 67.7101 80.67C64.2101 76.56 61.6301 71.47 60.0901 66.31C58.4901 60.95 57.7801 55.07 59.1701 49.59C60.6901 43.61 63.8801 37.99 63.5601 31.66C63.4701 29.62 60.2901 29.61 60.3901 31.65Z" fill="black"/>
<path d="M116.42 51.37C115.15 51.15 113.93 51.51 112.93 52.33C111.93 53.15 111.38 54.39 111.21 55.66C111.05 56.86 111.12 58.28 111.79 59.33C112.52 60.47 113.78 60.86 115.06 61.04C115.52 61.11 115.99 60.93 116.13 60.43C116.24 60.02 115.99 59.43 115.52 59.36C114.78 59.25 113.81 59.15 113.33 58.5C112.83 57.83 112.82 56.76 112.91 55.97C113.08 54.5 114.26 52.76 115.95 53.05C116.41 53.13 116.89 52.93 117.02 52.44C117.14 52.02 116.88 51.45 116.42 51.37Z" fill="black"/>
<path d="M71.3501 68.45C73.2601 70.34 76.3901 71.09 78.9701 71.33C83.2301 71.72 87.3101 70.25 90.4901 67.45C91.4801 66.58 90.0301 65.13 89.0401 66C86.2401 68.47 82.6801 69.62 78.9601 69.28C76.9101 69.09 74.1901 68.39 72.7901 67C71.8601 66.07 70.4101 67.52 71.3501 68.45Z" fill="black"/>
<path d="M87.73 63.37C87.74 64.82 88.37 66.3 89.5 67.22C90.96 68.41 92.83 68.58 94.6 68.09C95.12 67.95 95.49 67.36 95.32 66.83C95.15 66.3 94.61 65.96 94.06 66.11C93.86 66.17 93.65 66.22 93.44 66.26C93.38 66.27 93.33 66.28 93.27 66.29C93.4 66.27 93.41 66.27 93.29 66.29C93.21 66.3 93.13 66.31 93.04 66.31C92.86 66.32 92.68 66.32 92.49 66.31C92.4 66.31 92.32 66.29 92.23 66.29C92.15 66.28 92.18 66.29 92.32 66.3C92.27 66.29 92.23 66.28 92.18 66.28C92.02 66.25 91.86 66.21 91.71 66.16C91.65 66.14 91.58 66.12 91.52 66.09C91.35 66.03 91.72 66.19 91.46 66.06C91.33 66 91.21 65.93 91.09 65.86C91.03 65.82 90.97 65.78 90.91 65.74C90.74 65.63 91.08 65.9 90.89 65.73C90.79 65.64 90.69 65.55 90.6 65.46C90.54 65.4 90.49 65.34 90.44 65.28C90.36 65.18 90.38 65.12 90.45 65.3C90.4 65.18 90.28 65.06 90.21 64.95C90.14 64.83 90.08 64.7 90.01 64.58C89.92 64.39 90.09 64.78 90.02 64.6C89.99 64.53 89.96 64.45 89.94 64.38C89.9 64.25 89.86 64.11 89.83 63.98C89.82 63.92 89.81 63.86 89.8 63.81C89.75 63.52 89.81 63.98 89.8 63.79C89.79 63.65 89.78 63.52 89.78 63.38C89.78 62.84 89.31 62.33 88.76 62.36C88.21 62.38 87.73 62.8 87.73 63.37Z" fill="black"/>
<path d="M76.7901 75.21C78.3601 75.82 80.1501 75.9 81.8201 75.72C83.0501 75.58 84.6001 75.39 85.6301 74.64C86.0801 74.31 86.3001 73.75 86.0001 73.24C85.7401 72.8 85.0501 72.54 84.6001 72.87C84.4401 72.99 84.2701 73.07 84.0901 73.15C84.3301 73.04 84.0001 73.18 83.9101 73.21C83.7801 73.26 83.6401 73.3 83.5001 73.34C83.2101 73.42 82.9101 73.49 82.6101 73.55C82.2201 73.63 81.9901 73.66 81.7001 73.69C80.1601 73.85 78.7401 73.8 77.3301 73.24C76.8101 73.04 76.2101 73.46 76.0701 73.96C75.9101 74.53 76.2701 75.01 76.7901 75.21Z" fill="black"/>
<path d="M86.07 44.9C86.17 44.75 86.34 44.56 86.56 44.38C86.69 44.28 86.4 44.48 86.64 44.32C86.69 44.29 86.74 44.25 86.8 44.22C86.93 44.14 87.07 44.06 87.22 43.99C87.62 43.8 88.28 43.66 88.73 43.65C89.25 43.64 89.72 43.71 90.21 43.93C90.71 44.15 91.13 44.51 91.43 45.03C91.99 46 93.5 45.12 92.93 44.15C91.2 41.19 86.43 41.21 84.56 44.02C84.3 44.41 84.48 44.98 84.87 45.21C85.3 45.46 85.81 45.29 86.07 44.9Z" fill="black"/>
<path d="M68.12 44.43C68.22 44.28 68.39 44.09 68.61 43.91C68.74 43.81 68.45 44.01 68.69 43.85C68.74 43.82 68.79 43.78 68.85 43.75C68.98 43.67 69.12 43.59 69.27 43.52C69.67 43.33 70.33 43.19 70.78 43.18C71.3 43.17 71.77 43.24 72.26 43.46C72.76 43.68 73.18 44.04 73.48 44.56C74.04 45.53 75.55 44.65 74.98 43.68C73.25 40.72 68.48 40.74 66.61 43.55C66.35 43.94 66.53 44.51 66.92 44.74C67.36 44.99 67.86 44.82 68.12 44.43Z" fill="black"/>
<path d="M132.24 157.1C133.45 162.59 134.28 168.14 134.74 173.74C134.89 175.59 137.79 175.6 137.64 173.74C137.16 167.88 136.3 162.06 135.04 156.33C134.64 154.51 131.84 155.28 132.24 157.1Z" fill="#B4E2EE"/>
<path d="M46.35 162.04C48.05 145.17 42.23 111.24 42.23 111.24C42.23 111.24 43.9 111.03 47.95 107.97C51.64 105.18 55.49 97.02 55.49 97.02C55.49 97.02 61.85 96.06 59.25 87.06C57.75 81.87 57.71 79.05 55.28 77.39C52.85 75.74 44.22 73.03 41.73 74.73C39.24 76.43 39.5 77.18 37.87 77.13C36.24 77.09 32.9 77.49 31.74 79C30.58 80.51 29.83 81.14 27.99 81.86C26.15 82.58 21.78 85.42 20.71 90.69C19.64 95.96 18.2 102.33 20.84 106.73L16.34 125.29C16.34 125.29 7.81003 157.17 14.05 167.68C20.31 178.2 44.66 178.92 46.35 162.04Z" fill="#F6A7AD"/>
<path d="M25.2301 94.82C25.9301 95.51 26.7801 96.01 27.7101 96.32C27.9301 96.39 28.2301 96.34 28.4201 96.23C28.6101 96.12 28.8001 95.9 28.8501 95.68C28.9701 95.17 28.7001 94.7 28.2001 94.54C28.0701 94.5 27.9401 94.45 27.8101 94.39C27.8801 94.42 27.9601 94.45 28.0301 94.48C27.6001 94.3 27.2001 94.06 26.8301 93.78C26.8901 93.83 26.9501 93.88 27.0201 93.92C26.8501 93.79 26.7001 93.65 26.5501 93.51C26.3801 93.34 26.1301 93.24 25.9001 93.24C25.6701 93.24 25.4001 93.34 25.2501 93.51C25.0901 93.69 24.9701 93.92 24.9801 94.16C24.9701 94.41 25.0501 94.64 25.2301 94.82Z" fill="black"/>
<path d="M28.5399 93.69C28.0099 94.56 27.5299 95.48 27.1999 96.44C26.9699 97.13 26.8399 97.9 26.8599 98.63C26.8799 99.37 27.0399 100.13 27.1199 100.83C27.1799 101.33 27.4999 101.76 28.0499 101.76C28.4999 101.76 29.0399 101.33 28.9799 100.83C28.9299 100.41 28.8699 99.99 28.8099 99.57C28.7999 99.47 28.7799 99.38 28.7699 99.28C28.7899 99.41 28.7699 99.26 28.7599 99.21C28.7399 99.06 28.7299 98.92 28.7199 98.77C28.6899 98.1 28.7599 97.62 28.9899 96.94C29.0399 96.8 29.0899 96.67 29.1399 96.54C29.0899 96.66 29.1499 96.52 29.1699 96.47C29.1999 96.4 29.2299 96.33 29.2599 96.26C29.3799 96 29.5099 95.74 29.6499 95.48C29.7999 95.19 29.9599 94.9 30.1299 94.62C30.3899 94.19 30.2199 93.6 29.7999 93.35C29.3699 93.1 28.7999 93.26 28.5399 93.69Z" fill="black"/>
<path d="M28.1301 97.06C25.3501 95.76 22.3801 98.12 22.9501 101.12C23.2401 102.65 24.3801 103.64 25.7301 104.28C27.3101 105.03 29.0201 105.78 30.8001 105.83C33.9501 105.92 36.2201 103.32 36.8901 100.44C37.3101 98.65 37.1901 96.75 36.7601 94.97C36.0001 91.84 34.1201 89.11 31.8901 86.84C31.0501 85.99 29.7401 87.3 30.5801 88.15C33.0201 90.63 34.9601 93.71 35.2601 97.22C35.4201 99.12 35.0901 101.18 33.7901 102.66C31.9401 104.77 29.2401 103.85 27.0501 102.86C25.8801 102.33 24.5901 101.63 24.7301 100.14C24.8401 98.99 26.1001 98.15 27.2001 98.66C28.2701 99.16 29.2101 97.56 28.1301 97.06Z" fill="black"/>
<path d="M34.3699 103.9C36.2799 105.25 39.0299 105.61 40.9099 104.06C43.3199 102.07 43.9199 99.21 44.2499 96.23C44.7099 92.1 43.9699 87.7 41.4099 84.34C40.7399 83.47 39.9599 82.61 39.0199 82.03C37.9999 81.4 37.0699 83 38.0899 83.63C38.4499 83.86 38.4699 83.88 38.8499 84.24C39.2699 84.63 39.6499 85.06 39.9899 85.52C41.1399 87.06 41.8699 88.88 42.2399 90.76C42.8199 93.67 42.5099 96.76 41.7499 99.61C41.4099 100.88 40.4299 102.49 39.1599 103.05C37.9099 103.6 36.3299 103.03 35.3099 102.31C34.3299 101.61 33.3999 103.22 34.3699 103.9Z" fill="black"/>
<path d="M41.96 101.79C44.31 102.4 46.89 101.56 48.74 100.05C50.48 98.63 51.54 96.17 51.91 94C52.68 89.45 51.13 84.47 48.04 81.05C47.24 80.16 45.93 81.48 46.73 82.36C49.25 85.16 50.58 89.24 50.19 92.98C49.99 94.94 49.19 97.05 47.76 98.45C46.46 99.73 44.22 100.46 42.45 100C41.3 99.7 40.81 101.49 41.96 101.79Z" fill="black"/>
<path d="M53.77 90.52C53.09 89.94 52.48 89.3 51.93 88.6C51.79 88.43 51.48 88.33 51.28 88.33C51.05 88.33 50.78 88.43 50.63 88.6C50.47 88.78 50.35 89.01 50.36 89.25C50.37 89.33 50.38 89.41 50.39 89.5C50.43 89.66 50.51 89.79 50.63 89.91C51.18 90.61 51.8 91.25 52.47 91.83C52.66 91.99 52.87 92.1 53.12 92.1C53.35 92.1 53.62 92 53.77 91.83C53.93 91.65 54.05 91.42 54.04 91.18C54.03 90.94 53.95 90.68 53.77 90.52Z" fill="black"/>
<path d="M49.7 97.73C51.86 98.6 54.42 99.28 56.62 98.14C57.27 97.81 57.82 97.31 58.36 96.83C59.29 96 59.94 95.02 60.29 93.82C60.61 92.75 60.72 91.58 60.61 90.47C60.56 89.97 60.22 89.54 59.68 89.54C59.22 89.54 58.71 89.97 58.75 90.47C58.92 92.22 58.6 94.14 57.21 95.37C56.99 95.56 56.78 95.75 56.56 95.94C56.5 95.99 56.44 96.04 56.38 96.09C56.24 96.21 56.39 96.08 56.35 96.12C56.22 96.21 56.1 96.3 55.97 96.38C55.83 96.46 55.69 96.54 55.55 96.61C55.39 96.69 55.53 96.62 55.49 96.64C55.39 96.68 55.29 96.71 55.18 96.74C54.73 96.88 54.63 96.89 54.16 96.89C52.79 96.91 51.45 96.44 50.2 95.94C49.74 95.75 49.18 96.14 49.06 96.59C48.91 97.12 49.23 97.54 49.7 97.73Z" fill="black"/>
<path d="M2.93003 60.79C8.05003 65.45 10.39 72.24 10.73 79.03C10.92 82.77 10.6 86.55 9.96003 90.24C9.36003 93.7 8.42003 97.1 6.57003 100.11C5.92003 101.17 7.59003 102.15 8.24003 101.09C10.17 97.94 11.2 94.38 11.83 90.75C12.52 86.73 12.9 82.63 12.64 78.55C12.19 71.43 9.67003 64.31 4.30003 59.42C3.37003 58.59 2.00003 59.95 2.93003 60.79Z" fill="white"/>
<path d="M1.80007 62.05C1.63007 60.4 1.57007 58.74 1.62007 57.08C1.62007 56.99 1.63007 56.9 1.68007 56.83C1.73007 56.76 7.24007 58.27 7.24007 58.34C7.25007 58.34 3.16007 61.07 1.80007 62.05Z" fill="white"/>
<path d="M3.39009 62.05C3.22009 60.38 3.12009 58.67 3.22009 56.99C3.20009 57.13 3.18009 57.27 3.16009 57.41C3.12009 57.48 3.09009 57.56 3.05009 57.63C2.86009 57.82 2.67009 58.01 2.48009 58.2C2.36009 58.25 2.23009 58.31 2.11009 58.36C1.97009 58.38 1.83009 58.4 1.69009 58.42C1.70009 58.42 1.71009 58.42 1.73009 58.42C1.59009 58.4 1.45009 58.38 1.31009 58.36C1.99009 58.45 2.66009 58.68 3.32009 58.86C4.25009 59.11 5.19009 59.37 6.12009 59.64C6.28009 59.69 6.44009 59.73 6.60009 59.79C6.65009 59.81 6.70009 59.82 6.75009 59.84C6.77009 59.85 6.78009 59.85 6.80009 59.86C6.46009 59.78 6.06009 59.48 5.89009 59.15C6.08009 58.43 6.27009 57.7 6.46009 56.98C5.05009 57.92 3.65009 58.86 2.26009 59.82C1.83009 60.09 1.41009 60.38 1.00009 60.68C0.660089 60.93 0.390089 61.21 0.270089 61.63C0.170089 62.01 0.210089 62.52 0.430089 62.85C0.860089 63.52 1.88009 63.94 2.60009 63.42C4.21009 62.26 5.86009 61.17 7.51009 60.07C7.69009 59.95 7.87009 59.83 8.05009 59.71C8.80009 59.21 9.03009 58.34 8.62009 57.54C8.29009 56.89 7.46009 56.72 6.82009 56.54C6.13009 56.34 5.44009 56.15 4.75009 55.96C4.10009 55.78 3.44009 55.6 2.78009 55.44C2.59009 55.39 2.41009 55.35 2.22009 55.31C2.05009 55.28 1.87009 55.23 1.70009 55.24C0.810089 55.28 0.190089 55.92 0.0800894 56.78C-0.0399105 57.65 0.0200895 58.58 0.0500895 59.46C0.0800895 60.33 0.140089 61.19 0.230089 62.05C0.270089 62.48 0.380089 62.86 0.700089 63.17C0.980089 63.45 1.43009 63.65 1.82009 63.64C2.59009 63.6 3.48009 62.93 3.39009 62.05Z" fill="white"/>
<path d="M11.2301 99.93C9.92012 100.95 8.54012 101.88 7.10012 102.71C7.03012 102.75 6.94012 102.8 6.86012 102.79C6.77012 102.78 5.30012 97.53 5.35012 97.49C5.35012 97.49 9.68012 99.3 11.2301 99.93Z" fill="white"/>
<path d="M10.1102 98.81C10.4502 98.55 10.1402 98.79 10.0802 98.83C9.99017 98.9 9.90017 98.96 9.81017 99.03C9.66017 99.14 9.51017 99.25 9.36017 99.36C9.02017 99.61 8.67017 99.85 8.31017 100.09C7.97017 100.32 7.63017 100.54 7.29017 100.75C7.12017 100.86 6.94017 100.96 6.77017 101.07C6.68017 101.13 6.58017 101.18 6.48017 101.24C6.45017 101.26 6.42017 101.28 6.38017 101.3C6.11017 101.44 6.27017 101.42 6.85017 101.22C7.12017 101.29 7.38017 101.36 7.65017 101.44C7.63017 101.43 8.25017 102.05 8.21017 101.99C8.11017 101.85 8.39017 102.46 8.35017 102.32C8.34017 102.28 8.32017 102.24 8.31017 102.2C8.26017 102.07 8.22017 101.94 8.18017 101.81C8.05017 101.41 7.94017 101 7.82017 100.59C7.55017 99.67 7.30017 98.76 7.05017 97.83C7.01017 97.67 6.96017 97.51 6.93017 97.34C6.92017 97.29 6.91017 97.24 6.90017 97.19C6.90017 97.17 6.89017 97.15 6.89017 97.13C7.00017 97.47 6.93017 97.98 6.73017 98.31C6.13017 98.55 5.53017 98.8 4.94017 99.04C6.90017 99.86 8.85017 100.68 10.8202 101.48C11.1802 101.63 11.7302 101.5 12.0402 101.32C12.3702 101.13 12.6802 100.75 12.7702 100.37C12.8602 99.96 12.8402 99.51 12.6102 99.15C12.3702 98.78 12.0702 98.59 11.6602 98.42C9.70017 97.62 7.74017 96.8 5.78017 95.98C5.47017 95.85 5.04017 95.94 4.75017 96.06C4.43017 96.19 4.17017 96.41 3.99017 96.71C3.59017 97.38 3.86017 98.14 4.04017 98.82C4.22017 99.51 4.41017 100.19 4.61017 100.88C4.79017 101.5 4.96017 102.12 5.16017 102.74C5.25017 103.01 5.33017 103.32 5.47017 103.57C5.61017 103.83 5.81017 104.04 6.07017 104.19C6.75017 104.59 7.48017 104.37 8.11017 104C9.60017 103.13 11.0002 102.14 12.3702 101.08C12.6702 100.85 12.8402 100.31 12.8402 99.96C12.8402 99.57 12.6702 99.1 12.3702 98.84C12.0702 98.56 11.6702 98.36 11.2502 98.37C10.7802 98.36 10.4602 98.54 10.1102 98.81Z" fill="white"/>
</g>
<defs>
<clipPath id="clip0_243_1029">
<rect width="169.04" height="175.22" fill="white"/>
</clipPath>
</defs>
</svg>
