<svg width="200" height="200" viewBox="0 0 200 200" fill="none" xmlns="http://www.w3.org/2000/svg">
<g clip-path="url(#clip0_520_6464)">
<path d="M100 200C155.228 200 200 155.228 200 100C200 44.7715 155.228 0 100 0C44.7715 0 0 44.7715 0 100C0 155.228 44.7715 200 100 200Z" fill="#CFA5CF"/>
<path d="M161.67 142.27C157.91 119.4 148.64 98.5 116.4 92.87C98.6102 89.76 75.3102 89.2 48.6002 107.45C31.0102 119.47 41.0002 140.44 37.9502 142.98L30.6802 145.03C30.6802 145.03 31.1002 154.76 31.7802 161.56C32.3402 167.18 33.0402 171.55 33.8802 175.01C51.5002 190.56 74.6502 200 100 200C119.42 200 137.54 194.46 152.88 184.88L151.84 179.43C163.25 167.48 164.16 157.47 161.67 142.27Z" fill="#EC6723"/>
<path d="M113.07 160.83C110.68 166.11 109.36 172.25 112.08 177.67C114.26 182 118.55 184.79 122.97 186.46C127.1 188.01 132.09 189.12 136.49 188.3C141.8 187.3 146.81 184.29 150.91 180.88C156.27 176.42 160.7 170.37 161.84 163.36C162 162.35 160.46 161.92 160.29 162.93C159.35 168.78 156.04 173.87 151.82 177.92C148.01 181.57 143.32 184.66 138.25 186.21C134.18 187.46 129.98 186.88 125.94 185.75C121.73 184.57 117.46 182.49 114.75 178.94C110.82 173.79 111.95 167.17 114.45 161.64C114.88 160.7 113.5 159.89 113.07 160.83Z" fill="black"/>
<path d="M74.1003 95.95C71.7903 97.56 69.5503 99.26 67.3903 101.07C66.2903 102 65.2003 102.95 64.1403 103.92C63.4203 104.59 62.3903 105.34 62.3803 106.44C62.3803 107.49 63.3403 108.32 63.9603 109.06C64.8503 110.11 65.7403 111.17 66.6403 112.22C68.3203 114.2 70.0003 116.17 71.7803 118.06C71.8503 117.55 71.9103 117.04 71.9803 116.53C68.8503 117.95 65.7103 119.36 62.5903 120.79C61.5403 121.27 60.6703 121.95 61.0403 123.24C61.4703 124.74 62.3503 126.21 62.9803 127.63C65.8603 134.07 68.7403 140.52 71.6103 146.96C72.1203 148.1 73.8003 147.11 73.2903 145.98C70.7503 140.29 68.2103 134.61 65.6703 128.92C65.0603 127.56 64.4503 126.19 63.8403 124.83C63.6703 124.44 62.8403 123.16 62.9003 122.72C62.8803 122.88 63.1403 122.66 63.3303 122.57C63.7003 122.4 64.0803 122.23 64.4503 122.06C67.2803 120.77 70.1103 119.49 72.9403 118.2C73.5303 117.93 73.5303 117.09 73.1403 116.67C71.7103 115.15 70.3403 113.58 68.9903 111.99C68.2303 111.1 67.4803 110.21 66.7303 109.32C66.0703 108.54 65.1503 107.74 64.6403 106.86C64.3003 106.27 64.5503 106.17 65.0003 105.74C65.4403 105.32 65.8903 104.91 66.3403 104.51C67.2403 103.7 68.1603 102.91 69.1003 102.13C71.0203 100.54 73.0203 99.03 75.0603 97.61C76.1003 96.92 75.1303 95.23 74.1003 95.95Z" fill="#FFC11E"/>
<path d="M105.09 95.62C108.8 99.51 112.52 103.4 116.23 107.28C116.73 107.81 118.76 109.37 118.56 110.12C118.44 110.57 117.53 111.2 117.2 111.53C116.75 111.97 116.3 112.41 115.85 112.84C113.92 114.69 111.93 116.46 109.89 118.18C109.45 118.55 109.59 119.17 109.89 119.55C111.57 121.72 113.24 123.89 114.92 126.05C115.74 127.11 116.96 128.26 117.55 129.46C118.07 130.52 116.51 132.15 115.94 133.03C112.97 137.61 109.99 142.2 107.02 146.78C106.34 147.83 108.02 148.81 108.7 147.76C112.12 142.49 115.57 137.24 118.95 131.95C119.53 131.04 119.99 130.1 119.53 129.03C119.04 127.87 117.96 126.84 117.2 125.85C115.22 123.29 113.24 120.73 111.26 118.16C111.26 118.62 111.26 119.08 111.26 119.53C113.54 117.61 115.76 115.61 117.9 113.53C118.76 112.69 120.17 111.7 120.51 110.48C120.82 109.39 120.17 108.55 119.47 107.81C115.17 103.25 110.8 98.74 106.47 94.2C105.6 93.34 104.23 94.72 105.09 95.62Z" fill="#FFC11E"/>
<path d="M104.51 94.7101C106.38 78.9501 90.8902 70.4601 85.6802 97.2201C80.4702 123.97 77.8202 127.04 75.0802 159.63C73.3602 180.13 72.7102 191.03 72.4702 196.16C81.2202 198.66 90.4502 200 100 200C100.04 200 100.08 200 100.11 200C100.11 199.94 98.0802 148.98 104.51 94.7101Z" fill="#B9E2EE"/>
<path d="M66.3601 61.1299C66.3601 61.1299 60.7801 65.5899 57.9401 76.2099C55.1001 86.8199 55.2601 98.2999 68.8401 97.4299C68.8401 97.4299 57.3201 87.3199 66.3601 61.1299Z" fill="black"/>
<path d="M78.4999 100.83C78.4999 100.83 81.3199 104.81 92.3199 103.13C103.32 101.45 108.26 94.48 108.26 94.48C108.26 94.48 103.17 86.67 107.85 79.26C107.85 79.26 112.29 82.69 116.38 75.48C120.47 68.27 117.73 60.59 113.38 59.26C109.03 57.93 103.96 62.7 105.15 67.36C105.15 67.36 101.87 64.16 103.01 57.32C104.15 50.48 104.15 50.48 104.15 50.48L96.9099 46.39L82.5099 42.27L68.5999 50.7L67.6799 57.96C67.6799 57.96 61.1199 71.68 62.7299 83.42C64.3399 95.16 72.4099 101.25 78.4999 100.83Z" fill="#F6A6AC"/>
<path d="M62.8099 50.98C61.9699 57.73 66.3599 61.13 66.3599 61.13L67.7999 58.58C67.9799 60.29 68.6499 59.57 71.9599 59.54C75.2699 59.51 78.1999 59.4 78.1999 59.4C78.1999 59.4 77.9699 57.93 78.5599 52.48C79.0499 47.9 81.2699 44.63 81.9799 43.71C79.7899 46.78 79.7299 53.87 80.3799 56.8C81.0499 59.82 83.3399 58.73 87.7399 58.94C90.5199 59.06 93.8799 59.32 95.9899 59.49C96.9099 59.56 97.6099 58.7 97.3799 57.8C96.6099 54.83 96.6499 51.3 96.7399 49.46C96.5899 55.79 101.4 58.77 101.4 58.77C101.28 62.52 104.02 66.05 104.88 67.06C104.93 67.13 104.98 67.18 105.01 67.22C105.03 67.24 105.05 67.27 105.06 67.29C105.07 67.31 105.09 67.32 105.09 67.32C105.12 67.35 105.12 67.35 105.12 67.35C103.93 62.7 109 57.93 113.35 59.26C117.71 60.59 120.44 68.26 116.35 75.48C112.6 82.11 108.53 79.74 107.91 79.31C107.82 79.4 107.71 79.51 107.59 79.66C107.59 79.66 107.59 79.66 107.58 79.67C103.34 86.95 108.24 94.48 108.24 94.48C116.17 102.64 132.05 97.28 134.45 84.32C136.84 71.35 134.68 61.32 127.11 48.25C119.55 35.19 107.93 28.04 89.3899 29.46C70.8499 30.87 63.6499 44.23 62.8099 50.98Z" fill="black"/>
<path d="M117.8 64.33C118.02 65.03 118.19 65.77 118.29 66.54C120.24 67.79 118.29 69.15 120.49 70.13C122.91 71.2 123.06 66.57 117.8 64.33Z" fill="#B3202D"/>
<path d="M96.1099 64.6C96.1099 64.6 99.2099 64.3 103.44 64.33C104 64.34 104.58 64.34 105.18 64.36C105.32 63.83 105.53 63.32 105.81 62.84C104.8 62.8 103.87 62.78 103.02 62.78C99.0999 62.72 96.9399 62.87 96.9399 62.87L96.1099 64.6Z" fill="#B3202D"/>
<path d="M90.1698 63.6699C93.0798 64.4499 91.6098 66.8899 89.7398 66.7999C87.8698 66.7099 86.4398 67.0199 85.6998 67.2899C84.9598 67.5599 83.5398 67.7199 83.0698 66.3799C82.5298 64.7899 86.4798 62.6699 90.1698 63.6699Z" fill="white"/>
<path d="M72.8603 65.14C74.7203 65.99 74.4303 68.28 72.2503 68.08C70.0703 67.88 68.8903 68.23 68.0303 68.49C67.1703 68.75 66.4403 68.18 66.4503 66.97C66.4603 65.41 70.1303 63.9 72.8603 65.14Z" fill="white"/>
<path d="M81.8399 99.4301C77.7899 100.64 72.9699 99.3101 69.8599 96.5101C62.7499 90.1201 62.7299 79.2401 64.5999 70.6201C65.5899 66.0701 67.1199 61.6301 69.0399 57.3901C69.5699 56.2201 67.8299 55.1901 67.2999 56.3701C63.4499 64.8801 60.5899 74.6101 61.7999 84.0301C62.8499 92.2301 67.8499 100.6 76.6699 101.71C78.5299 101.94 80.5699 101.92 82.3799 101.38C83.6199 101.01 83.0899 99.0601 81.8399 99.4301Z" fill="black"/>
<path d="M66.1498 70.53C69.1998 73.59 72.3398 71.22 73.1598 69.85C73.9698 68.49 74.0298 67.92 74.0298 67.92C74.0298 67.92 76.2498 66.08 78.7498 67.92C78.7498 67.92 79.2998 71.45 81.0498 70.42C81.0498 70.42 85.3598 74.43 91.5198 70.25C97.6798 66.07 99.8898 59.98 96.4598 59.68C93.0198 59.37 83.7798 61.12 78.4898 65.34C78.4898 65.34 75.9798 63.93 74.1398 65.47C74.1398 65.47 69.8698 60.7 64.4098 59.65C58.9398 58.61 63.0898 67.47 66.1498 70.53ZM80.1098 66.42C80.1098 66.42 84.2798 62.68 91.1698 61.92C98.0598 61.16 93.0198 67.37 90.0998 69.08C87.1698 70.8 83.0898 70.48 81.2398 68.97C79.3998 67.47 80.1098 66.42 80.1098 66.42ZM69.5998 63.54C72.2998 65.31 73.4798 66.37 73.0898 67.87C72.6998 69.36 71.1198 70.13 71.1198 70.13C68.1998 72.35 64.0598 67.04 63.9498 63.76C63.8198 60.49 66.8898 61.77 69.5998 63.54Z" fill="#B3202D"/>
<path d="M76.79 76.25C76.79 76.26 76.74 76.39 76.78 76.29C76.82 76.19 76.77 76.3 76.76 76.32C76.73 76.38 76.69 76.44 76.65 76.5C76.58 76.6 76.72 76.42 76.67 76.48C76.65 76.51 76.62 76.53 76.6 76.56C76.55 76.61 76.49 76.65 76.45 76.7C76.47 76.68 76.56 76.62 76.49 76.67C76.46 76.69 76.43 76.71 76.4 76.73C76.37 76.75 76.34 76.77 76.31 76.78C76.29 76.79 76.17 76.84 76.28 76.8C76.39 76.76 76.26 76.81 76.24 76.81C76.2 76.82 76.17 76.83 76.13 76.84C76.1 76.85 76.04 76.85 76.02 76.86C76.06 76.83 76.16 76.85 76.04 76.86C75.97 76.87 75.9 76.87 75.83 76.86C75.82 76.86 75.67 76.84 75.78 76.86C75.89 76.88 75.76 76.85 75.73 76.85C75.66 76.83 75.58 76.81 75.51 76.79C75.39 76.75 75.59 76.84 75.52 76.79C75.49 76.77 75.45 76.76 75.42 76.74C75.4 76.73 75.28 76.67 75.37 76.71C75.41 76.74 75.41 76.74 75.39 76.72C75.35 76.68 75.37 76.7 75.42 76.77C75.41 76.75 75.39 76.72 75.38 76.7C75.31 76.59 75.42 76.84 75.38 76.7C75.36 76.64 75.35 76.57 75.34 76.51C75.32 76.43 75.35 76.66 75.34 76.54C75.34 76.5 75.33 76.45 75.33 76.41C75.3 76.06 75.04 75.72 74.66 75.74C74.32 75.76 73.96 76.04 73.99 76.41C74.01 76.64 74.03 76.88 74.1 77.1C74.21 77.4 74.37 77.63 74.63 77.82C75 78.1 75.52 78.23 75.98 78.21C76.96 78.16 77.76 77.53 78.09 76.62C78.21 76.29 77.96 75.87 77.62 75.79C77.24 75.69 76.92 75.89 76.79 76.25Z" fill="black"/>
<path d="M74.0201 76.19C74.0101 76.23 74.0001 76.27 73.9801 76.31C73.9401 76.43 74.0501 76.19 73.9801 76.3C73.9601 76.33 73.9501 76.36 73.9301 76.39C73.8701 76.48 73.9001 76.41 73.9501 76.37C73.9201 76.39 73.8901 76.44 73.8601 76.47C73.8401 76.49 73.7801 76.53 73.7701 76.56C73.7901 76.52 73.8801 76.48 73.7901 76.54C73.7601 76.56 73.7301 76.58 73.7001 76.6C73.6601 76.62 73.5801 76.7 73.6901 76.61C73.6601 76.63 73.5801 76.65 73.5401 76.66C73.5001 76.67 73.4601 76.68 73.4101 76.69C73.3301 76.71 73.5601 76.68 73.4301 76.69C73.3501 76.69 73.2301 76.67 73.1601 76.69C73.2101 76.68 73.3001 76.71 73.1801 76.69C73.1401 76.68 73.0901 76.67 73.0501 76.66C73.0101 76.65 72.9801 76.64 72.9401 76.62C72.8001 76.57 73.0601 76.69 72.9401 76.62C72.8701 76.58 72.8001 76.54 72.7301 76.49C72.6601 76.45 72.8301 76.58 72.7401 76.5C72.7101 76.47 72.6701 76.44 72.6401 76.41C72.6301 76.4 72.6201 76.39 72.6101 76.38C72.5601 76.32 72.5701 76.33 72.6301 76.41C72.6101 76.41 72.5801 76.33 72.5701 76.32C72.5501 76.29 72.5301 76.26 72.5101 76.22C72.5001 76.2 72.4901 76.18 72.4801 76.16C72.4601 76.11 72.4701 76.13 72.5001 76.22C72.4701 76.21 72.4401 76.02 72.4301 75.98C72.4301 75.97 72.4101 75.87 72.4101 75.87C72.4201 75.97 72.4301 75.99 72.4201 75.94C72.4201 75.92 72.4201 75.9 72.4201 75.87C72.4201 75.78 72.4201 75.69 72.4401 75.6C72.4601 75.44 72.3501 75.23 72.2401 75.12C72.1201 75 71.9301 74.92 71.7601 74.92C71.5901 74.93 71.4101 74.98 71.2801 75.12C71.1501 75.26 71.1101 75.41 71.0801 75.6C70.9401 76.67 71.7001 77.71 72.7201 77.98C73.8001 78.26 75.0301 77.68 75.3001 76.56C75.3801 76.22 75.1901 75.81 74.8301 75.73C74.5001 75.64 74.1101 75.83 74.0201 76.19Z" fill="black"/>
<path d="M72.3801 75.73C73.0901 73.03 73.8801 70.34 74.7501 67.69C75.0201 66.87 73.7201 66.51 73.4501 67.33C72.5801 69.98 71.7801 72.67 71.0801 75.37C70.8601 76.21 72.1601 76.57 72.3801 75.73Z" fill="black"/>
<path d="M93.4402 59.5599C91.8802 58.2499 89.8402 57.4999 87.7902 57.7199C85.6502 57.9499 83.8002 59.0199 82.0602 60.2199C81.6102 60.5299 81.4102 61.0999 81.7002 61.5999C81.9602 62.0399 82.6302 62.2699 83.0802 61.9599C84.4802 60.9999 86.0002 59.9999 87.7202 59.7499C89.2302 59.5299 90.8502 59.9999 92.0102 60.9799C92.4302 61.3299 93.0302 61.3899 93.4402 60.9799C93.8002 60.6299 93.8602 59.9099 93.4402 59.5599Z" fill="black"/>
<path d="M75.9501 60.8099C75.0101 59.3299 73.6301 58.0199 71.8301 57.7499C69.8901 57.4599 68.3301 58.4699 66.8901 59.6399C66.4701 59.9899 66.5301 60.7099 66.8901 61.0699C67.3101 61.4899 67.8901 61.4199 68.3201 61.0699C68.8101 60.6699 69.3201 60.2899 69.8901 59.9999C70.3601 59.7599 70.9401 59.6499 71.4101 59.7099C72.6401 59.8799 73.5601 60.8199 74.2001 61.8199C74.4901 62.2799 75.1001 62.4599 75.5801 62.1799C76.0501 61.9199 76.2501 61.2699 75.9501 60.8099Z" fill="black"/>
<path d="M89.0399 66.65C90.3399 66.65 90.3399 64.63 89.0399 64.63C87.7399 64.63 87.7399 66.65 89.0399 66.65Z" fill="black"/>
<path d="M71.9701 67.99C73.2701 67.99 73.2701 65.97 71.9701 65.97C70.6701 65.97 70.6701 67.99 71.9701 67.99Z" fill="black"/>
<path d="M95.6102 79.36C94.6902 79.38 93.7001 79.09 93.0201 78.51C92.6501 78.2 92.3902 77.9 92.1602 77.54C91.9002 77.11 91.7602 76.79 91.6502 76.27C91.5702 75.92 91.1601 75.71 90.8201 75.8C90.4601 75.9 90.2701 76.27 90.3501 76.63C90.8901 79.04 93.1302 80.77 95.6102 80.7C95.9702 80.69 96.2801 80.4 96.2801 80.03C96.2901 79.67 95.9802 79.35 95.6102 79.36Z" fill="black"/>
<path d="M92.0098 78.13C92.0098 78.13 86.6198 82.72 77.3398 83.4C77.3398 83.4 77.7698 90.38 84.9198 90.09C92.0698 89.8 93.5798 80.01 93.5798 80.01L92.0098 78.13Z" fill="black"/>
<path d="M80.7603 82.95C81.3703 85.67 83.7403 85.58 86.6103 83.97C88.9203 82.67 90.1602 80.19 90.5902 79.13C88.8302 80.26 85.4603 82.06 80.7603 82.95Z" fill="white"/>
<path d="M84.3198 90.08C84.5098 90.09 84.6998 90.09 84.9098 90.08C89.7898 89.88 92.0398 85.26 92.9798 82.35C91.5498 82.58 89.3298 83.17 87.6298 84.7C85.5598 86.56 84.6498 88.99 84.3198 90.08Z" fill="#F27D83"/>
<path d="M78.7403 93.3C80.4503 94.33 82.4603 94.84 84.4603 94.74C84.8203 94.72 85.1303 94.44 85.1303 94.07C85.1303 93.72 84.8203 93.38 84.4603 93.4C82.6903 93.49 80.9403 93.06 79.4203 92.15C78.6803 91.7 78.0003 92.86 78.7403 93.3Z" fill="black"/>
<path d="M111.06 73.75C111.86 73.94 112.67 73.53 113.06 72.83C113.48 72.09 113.43 71.19 113.32 70.38C113.11 68.87 112.25 67.37 110.69 66.97C109.85 66.75 109.49 68.05 110.33 68.27C111.28 68.51 111.77 69.43 111.96 70.37C112.05 70.83 112.12 71.38 112.01 71.84C111.96 72.06 111.89 72.22 111.73 72.36C111.7 72.38 111.58 72.45 111.59 72.44C111.5 72.47 111.51 72.48 111.42 72.45C110.57 72.25 110.21 73.55 111.06 73.75Z" fill="black"/>
<path d="M112.22 62.8001C111.69 62.9601 111.37 63.3701 111.03 63.7801C110.68 64.2201 110.34 64.6801 110.05 65.1601C109.5 66.0901 109.09 67.1301 108.93 68.2001C108.78 69.2301 108.83 70.3101 109.16 71.3101C109.48 72.2901 110.04 73.3701 111.05 73.7501C111.86 74.0601 112.21 72.7601 111.41 72.4501C111.11 72.3401 110.9 71.9001 110.75 71.6301C110.56 71.2701 110.42 70.9001 110.33 70.5001C110.15 69.7701 110.14 68.9901 110.28 68.2501C110.43 67.4701 110.71 66.7301 111.1 66.0401C111.31 65.6701 111.54 65.3101 111.8 64.9701C111.97 64.7401 112.3 64.1801 112.59 64.0901C113.41 63.8501 113.06 62.5501 112.22 62.8001Z" fill="black"/>
<path d="M106.4 78.19C107.02 79.41 108.38 79.97 109.66 80.18C109.84 80.21 110.01 80.21 110.18 80.11C110.32 80.03 110.45 79.87 110.49 79.71C110.56 79.38 110.39 78.94 110.02 78.88C109.73 78.83 109.44 78.77 109.15 78.69C109.01 78.65 108.87 78.6 108.73 78.54C108.64 78.51 108.83 78.59 108.75 78.55C108.72 78.53 108.69 78.52 108.66 78.51C108.59 78.48 108.53 78.44 108.46 78.41C108.35 78.35 108.25 78.28 108.15 78.22C108.05 78.15 108.22 78.28 108.16 78.23C108.14 78.21 108.11 78.19 108.09 78.17C108.04 78.13 108 78.09 107.96 78.05C107.91 78 107.86 77.95 107.82 77.9C107.8 77.88 107.78 77.85 107.76 77.83C107.7 77.76 107.77 77.83 107.78 77.86C107.76 77.8 107.7 77.74 107.67 77.69C107.63 77.63 107.6 77.57 107.57 77.51C107.41 77.2 106.94 77.08 106.65 77.27C106.32 77.47 106.22 77.85 106.4 78.19Z" fill="black"/>
<path d="M132.93 156.86C134.91 157.82 136.98 158.71 138.81 159.94C140.58 161.13 142.17 162.71 143.77 164.17C144.53 164.86 145.67 163.73 144.9 163.04C143.22 161.51 141.57 159.89 139.69 158.61C137.84 157.35 135.74 156.45 133.74 155.48C132.82 155.03 132 156.41 132.93 156.86Z" fill="black"/>
<path fill-rule="evenodd" clip-rule="evenodd" d="M33.8202 138.87C33.8202 138.87 29.9202 137.98 27.8402 136.08C23.6902 132.27 22.8402 129.12 22.4002 126.5C21.5902 121.68 23.4802 118.78 25.2402 118.43C25.2402 118.43 23.9602 114.32 26.7202 112.58C27.3602 112.23 28.0602 112.01 28.7802 111.93C29.5002 111.86 30.2402 111.93 30.9302 112.14C30.9302 112.14 31.2202 109.11 33.7702 108.56C36.3202 108.02 37.1302 109.29 37.1302 109.29C37.1302 109.29 37.8702 105.28 42.3602 105.71C46.8502 106.14 45.9202 112.22 45.9202 112.22C47.1702 112.13 48.4202 112.4 49.5202 113.01C50.6202 113.61 51.5202 114.53 52.1202 115.63C55.6202 121.66 52.5402 132.5 49.5802 135.62L50.9002 140.2L34.4402 143.72L33.8202 138.87Z" fill="#F6A6AC"/>
<path d="M35.8304 137.91C34.6204 138.14 33.3804 138.09 32.2004 137.74C31.0204 137.4 29.9404 136.78 29.0504 135.93C28.9104 135.76 28.7104 135.65 28.4904 135.63C28.2704 135.61 28.0504 135.68 27.8804 135.82C27.8004 135.89 27.7304 135.98 27.6704 136.07C27.6204 136.17 27.5904 136.27 27.5804 136.38C27.5704 136.49 27.5804 136.6 27.6104 136.7C27.6404 136.8 27.7004 136.9 27.7704 136.99C28.8504 138.06 30.1804 138.85 31.6304 139.29C33.0804 139.74 34.6204 139.83 36.1104 139.56C36.2204 139.54 36.3204 139.5 36.4204 139.44C36.5104 139.38 36.5904 139.3 36.6604 139.21C36.7204 139.12 36.7704 139.02 36.7904 138.91C36.8104 138.8 36.8204 138.69 36.8004 138.58C36.7804 138.47 36.7404 138.37 36.6804 138.27C36.6204 138.18 36.5404 138.1 36.4504 138.03C36.3604 137.97 36.2604 137.92 36.1504 137.9C36.0504 137.89 35.9404 137.89 35.8304 137.91Z" fill="black"/>
<path d="M46.5103 120.26C44.9503 120.96 43.2603 121.31 41.5503 121.29C40.1703 121.16 38.3403 120.7 37.5503 119.44C37.2803 119.01 37.1803 118.5 37.2503 118C37.3203 117.5 37.5603 117.04 37.9403 116.7C38.5203 116.26 39.1803 115.92 39.8803 115.72C41.7603 115.06 43.5203 113.41 45.6203 113.76C46.6703 113.93 46.8303 112.27 45.7803 112.11C43.9003 111.81 42.3303 112.74 40.7303 113.55C40.7303 113.48 40.7103 113.4 40.6803 113.34C40.2303 112.43 39.6903 111.57 39.0703 110.77C38.4103 109.88 37.5603 109.13 36.5903 108.6C36.4903 108.56 36.3803 108.54 36.2703 108.55C36.1603 108.55 36.0503 108.58 35.9503 108.62C35.8503 108.66 35.7603 108.73 35.6903 108.81C35.6203 108.89 35.5603 108.98 35.5203 109.08C35.4503 109.28 35.4503 109.5 35.5403 109.7C35.6203 109.9 35.7803 110.05 35.9803 110.14L36.1403 110.24L36.4103 110.42L36.6903 110.64L36.8203 110.75C37.0203 110.92 37.2103 111.11 37.3703 111.32C37.5403 111.51 37.7003 111.71 37.8603 111.91C38.1703 112.3 38.4303 112.7 38.7003 113.1L38.6603 113.03L38.7103 113.11C38.7403 113.15 38.7703 113.2 38.7903 113.25L38.9503 113.52C39.0503 113.69 39.1403 113.86 39.2303 114.04C39.2603 114.1 39.3003 114.15 39.3503 114.2C38.4303 114.48 37.5803 114.93 36.8303 115.53C36.7603 115.6 36.7003 115.68 36.6303 115.74C34.6903 114.03 32.4603 112.67 30.0403 111.74C29.8303 111.66 29.6103 111.67 29.4003 111.76C29.2003 111.85 29.0403 112.02 28.9603 112.22C28.8803 112.43 28.8903 112.65 28.9803 112.86C29.0703 113.06 29.2403 113.22 29.4403 113.3C31.7803 114.19 33.9203 115.53 35.7403 117.23C35.5003 118.07 35.5403 118.97 35.8503 119.79C36.1603 120.59 36.7303 121.26 37.4703 121.7C37.4603 121.76 37.4003 121.81 37.3603 121.86C37.3303 121.88 37.3103 121.9 37.2903 121.93C37.2903 121.97 37.1603 122.02 37.1203 122.06L37.0203 122.11L36.8703 122.17L36.7803 122.2C36.7303 122.22 36.6703 122.23 36.6203 122.23L36.2803 122.28L36.1803 122.27L36.0403 122.26C35.9003 122.26 35.7703 122.24 35.6303 122.22C35.6303 122.22 35.4203 122.2 35.5603 122.21L35.3703 122.15L34.9803 122.02C34.7103 121.91 34.4503 121.79 34.1803 121.68C33.9103 121.56 33.8303 121.48 33.6603 121.4C32.7203 120.84 31.8303 120.2 31.0103 119.48C29.0503 117.98 26.3803 116.97 23.9903 118.08C23.8103 118.19 23.6803 118.35 23.6203 118.55C23.5603 118.75 23.5703 118.96 23.6603 119.14C23.7503 119.33 23.9003 119.48 24.0903 119.56C24.2803 119.64 24.4903 119.65 24.6903 119.58C26.3003 118.84 28.1603 119.51 29.5303 120.46C30.2503 120.96 30.9003 121.56 31.6203 122.07C32.3403 122.58 33.2103 122.9 33.9003 123.46C34.2903 123.76 34.5703 124.18 34.6903 124.66C34.7703 125.03 34.7303 125.42 34.5803 125.77C34.4503 126.11 34.2203 126.41 33.9303 126.63C33.3103 127.05 32.5503 127.25 31.8003 127.17C29.8903 127.06 28.0903 126.23 26.7703 124.84C26.0103 124.05 24.7703 125.11 25.4903 125.9C26.9603 127.46 28.9303 128.48 31.0603 128.76C32.8103 128.99 34.8103 128.6 35.8003 127C36.0903 126.54 36.2803 126.02 36.3403 125.48C36.4103 124.94 36.3503 124.39 36.1803 123.88C36.6203 123.87 37.0503 123.8 37.4603 123.66C38.1003 123.44 38.6403 122.99 38.9603 122.39C39.3803 122.54 39.8103 122.66 40.2403 122.76C40.6003 122.83 40.9703 122.88 41.3403 122.91C40.6703 123.99 40.2403 125.2 40.0803 126.46C39.9303 127.72 40.0503 129 40.4503 130.21C40.5003 130.31 40.5603 130.4 40.6403 130.47C40.7203 130.54 40.8103 130.6 40.9203 130.64C41.0203 130.68 41.1303 130.7 41.2403 130.69C41.3503 130.69 41.4603 130.66 41.5603 130.61C41.7603 130.52 41.9103 130.35 41.9903 130.15C42.0703 129.94 42.0603 129.72 41.9703 129.52C41.6203 128.38 41.5703 127.18 41.8303 126.01C42.0903 124.85 42.6403 123.77 43.4303 122.89C43.4403 122.87 43.4403 122.84 43.4403 122.82C44.7403 122.61 46.0103 122.26 47.2303 121.77C48.1903 121.38 47.4903 119.87 46.5103 120.26Z" fill="black"/>
<path d="M30.88 145.8C39.47 143.93 48.06 142.03 56.68 140.27C57.69 140.06 57.26 138.52 56.25 138.72C47.63 140.48 39.04 142.37 30.45 144.25C29.45 144.48 29.88 146.02 30.88 145.8Z" fill="black"/>
<path d="M55.2801 189.17C58.4701 187.83 61.2001 185.21 62.6301 182.03C63.3001 180.54 63.4001 178.79 63.4701 177.18C63.7501 170.47 62.5901 163.64 61.3501 157.08C60.2201 151.1 58.8101 145.18 57.2401 139.3C56.9701 138.3 55.4301 138.73 55.6901 139.73C58.0701 148.64 60.1601 157.69 61.2701 166.86C61.6101 169.68 61.8701 172.53 61.8801 175.38C61.8901 177.1 61.8701 178.91 61.4301 180.58C60.6501 183.54 57.6801 186.44 54.8401 187.63C53.9201 188.01 54.3301 189.57 55.2801 189.17Z" fill="black"/>
<path d="M60.2605 125.77C59.9805 127.61 59.8205 129.47 59.7905 131.34C59.7905 131.44 59.7905 131.54 59.8405 131.62C59.9005 131.7 66.1505 130.31 66.1605 130.23C66.1605 130.23 61.7305 126.95 60.2605 125.77Z" fill="white"/>
<path d="M58.8206 125.37C58.5506 127.14 58.3706 128.92 58.3106 130.71C58.2906 131.27 58.2506 131.86 58.5506 132.37C58.8306 132.84 59.3406 133.13 59.8906 133.11C60.1806 133.1 60.4806 133.03 60.7606 132.98C62.2906 132.69 63.8106 132.34 65.3206 131.99C66.0606 131.82 67.0406 131.71 67.4506 130.98C67.6406 130.66 67.7206 130.19 67.6006 129.83C67.4706 129.44 67.2406 129.18 66.9106 128.94C65.3906 127.82 63.8806 126.69 62.3806 125.55C62.2506 125.45 62.1306 125.36 62.0006 125.26C61.9406 125.21 61.8806 125.17 61.8206 125.12C61.8006 125.1 61.7706 125.08 61.7506 125.06C61.6106 124.96 62.0406 125.29 61.9106 125.18C61.7106 125.03 61.5106 124.87 61.3206 124.71C61.0006 124.45 60.6906 124.27 60.2606 124.27C59.8906 124.27 59.4506 124.43 59.2006 124.71C58.7006 125.25 58.5506 126.3 59.2006 126.83C61.0406 128.3 62.9406 129.69 64.8306 131.09C65.0206 131.23 65.2206 131.38 65.4106 131.52C65.2306 130.84 65.0506 130.15 64.8706 129.47C64.9606 129.38 65.0506 129.29 65.1306 129.2C65.2806 128.98 65.4806 128.85 65.7406 128.79C65.7406 128.79 65.7306 128.79 65.7306 128.8C65.7106 128.8 65.7006 128.81 65.6806 128.81C65.6306 128.82 65.5906 128.84 65.5406 128.85C65.3906 128.89 65.2306 128.93 65.0806 128.97C64.5906 129.09 64.1006 129.2 63.6106 129.31C62.5206 129.56 61.4306 129.8 60.3306 130.02C60.1406 130.06 59.9506 130.1 59.7506 130.13C59.6606 130.15 59.3706 130.19 59.7506 130.13C60.0906 130.08 59.9506 130.11 59.8806 130.11C59.5806 130.12 60.3206 130.11 60.5906 130.31C60.7706 130.49 60.9506 130.67 61.1306 130.85C61.3806 131.42 61.2806 131.43 61.2906 131.08C61.2906 130.96 61.3006 130.83 61.3006 130.71C61.3106 130.5 61.3106 130.3 61.3206 130.09C61.3406 129.61 61.3706 129.14 61.4106 128.66C61.4506 128.21 61.4906 127.75 61.5406 127.3C61.5706 127.07 61.5906 126.85 61.6206 126.62C61.5606 126.99 61.6306 126.58 61.6306 126.53C61.6506 126.41 61.6706 126.28 61.6806 126.16C61.7406 125.75 61.7506 125.38 61.5306 125.01C61.3506 124.7 60.9906 124.4 60.6406 124.32C59.9506 124.16 58.9406 124.54 58.8206 125.37Z" fill="white"/>
<path d="M33.8004 103.38C35.2404 101.99 36.6204 100.68 38.5604 100.03C40.1404 99.5 41.8004 99.32 43.4504 99.25C45.5904 99.17 47.8104 99.17 49.9104 99.6C56.3004 100.91 61.9203 106.14 64.2003 112.21C66.0303 117.09 66.1904 123.25 62.4504 127.28C61.5504 128.25 63.0004 129.7 63.9004 128.73C70.1604 121.97 67.5204 111.37 62.1604 104.94C59.6404 101.91 56.3604 99.49 52.6104 98.2C48.5504 96.81 43.6103 96.75 39.4203 97.65C36.4903 98.28 34.4304 99.89 32.3304 101.91C31.4004 102.85 32.8504 104.3 33.8004 103.38Z" fill="white"/>
<path d="M132.27 138.39C132.17 128.77 132.07 119.15 131.97 109.53C131.96 108.21 129.91 108.21 129.92 109.53C130.02 119.15 130.12 128.77 130.22 138.39C130.23 139.71 132.28 139.71 132.27 138.39Z" fill="white"/>
<path d="M134.631 109.66C133.751 108.02 132.761 106.43 131.671 104.92C131.611 104.84 131.551 104.76 131.461 104.73C131.361 104.7 127.201 109.57 127.241 109.64C127.241 109.63 132.751 109.6 134.631 109.66Z" fill="white"/>
<path d="M135.931 108.9C135.151 107.46 134.301 106.06 133.361 104.72C133.051 104.28 132.761 103.77 132.301 103.48C131.801 103.17 131.191 103.14 130.691 103.44C130.451 103.58 130.271 103.79 130.081 103.99C129.021 105.14 128.011 106.34 127.011 107.54C126.801 107.79 126.591 108.04 126.391 108.3C126.081 108.69 125.711 109.09 125.751 109.63C125.811 110.43 126.391 111.13 127.251 111.13C129.711 111.11 132.181 111.08 134.651 111.15C135.431 111.17 136.181 110.44 136.151 109.65C136.111 108.82 135.491 108.18 134.651 108.15C132.191 108.08 129.721 108.11 127.251 108.13C127.751 108.63 128.251 109.13 128.751 109.63C128.751 109.67 128.401 110.65 128.611 110.29C128.721 110.1 128.331 110.64 128.451 110.49C128.481 110.46 128.511 110.42 128.531 110.38C128.681 110.19 128.831 110.01 128.981 109.83C129.441 109.28 129.901 108.74 130.371 108.19C130.831 107.65 131.291 107.12 131.761 106.59C131.921 106.4 132.091 106.22 132.261 106.04C132.321 105.98 132.371 105.92 132.431 105.86C132.451 105.84 132.471 105.83 132.491 105.81C132.321 106.01 131.821 106.2 131.481 106.21C131.231 106.14 130.981 106.07 130.721 106.01C130.391 105.63 130.301 105.54 130.431 105.72C130.471 105.78 130.511 105.83 130.551 105.89C130.601 105.96 130.661 106.04 130.711 106.11C130.851 106.31 131.001 106.52 131.141 106.73C131.411 107.13 131.671 107.53 131.921 107.93C132.431 108.74 132.911 109.57 133.361 110.41C133.731 111.1 134.751 111.37 135.411 110.95C136.091 110.5 136.321 109.64 135.931 108.9Z" fill="white"/>
<path d="M140.91 158.52C140.91 158.52 142.97 155.57 146.62 153.05C150.02 150.7 147.71 146.56 145.08 147.59C142.46 148.62 141.72 149.55 141.72 149.55L140.91 158.52Z" fill="#B86C51"/>
<path d="M128.2 167.84C128.2 167.84 140.39 160.25 141.58 157.58C142.77 154.91 143.26 151.85 143.6 150.51C143.94 149.17 145.05 146.22 143.67 144.9C142.29 143.58 137.3 145.14 137.3 145.14C137.3 145.14 136.07 143.77 134.51 144.07C132.95 144.37 130.41 146.12 130.41 146.12C130.41 146.12 129.45 144.82 127.99 145.19C124.82 145.99 123.05 147.73 123.05 147.73C123.05 147.73 122.64 145.79 120.77 146.18C118.9 146.57 114.16 152.53 113.65 154.99C113.14 157.45 112.47 162.11 112.47 162.11C112.47 162.11 114.18 167.41 119.22 168.12C124.25 168.85 128.2 167.84 128.2 167.84Z" fill="#F6A6AC"/>
<path d="M136.71 146.23C137.48 148.1 136.67 150 135.81 151.69C134.89 153.51 133.83 155.26 132.67 156.94C132.08 157.79 133.47 158.59 134.05 157.75C135.33 155.9 136.48 153.96 137.46 151.94C138.38 150.05 139.09 147.86 138.24 145.81C138.07 145.41 137.71 145.13 137.25 145.25C136.89 145.34 136.54 145.83 136.71 146.23Z" fill="black"/>
<path d="M129.86 146.26C130.18 148.17 129.28 150.01 128.27 151.57C127.15 153.31 125.9 154.97 124.7 156.65C124.1 157.49 125.49 158.29 126.08 157.46C127.38 155.62 128.79 153.81 129.96 151.88C131.07 150.04 131.77 147.99 131.4 145.83C131.23 144.82 129.69 145.25 129.86 146.26Z" fill="black"/>
<path d="M122.55 147.73C122.59 149.2 121.76 150.49 121.04 151.71C120.23 153.08 119.39 154.43 118.52 155.76C117.95 156.62 119.34 157.43 119.9 156.57C120.83 155.15 121.73 153.71 122.58 152.24C123.39 150.85 124.18 149.38 124.14 147.73C124.13 146.7 122.52 146.7 122.55 147.73Z" fill="black"/>
<path fill-rule="evenodd" clip-rule="evenodd" d="M130.47 76.8501C130.47 76.8501 126.55 68.7101 129.53 59.3701C129.72 58.6301 129.92 57.8901 130.16 57.1301C136 38.8701 165.82 33.1401 177.23 54.0401C188.64 74.9201 165.09 101.03 140.84 88.4001C139.62 87.7701 138.09 86.7301 136.53 85.3001C134.19 86.3401 130.34 87.1401 126.05 84.3301C125.14 83.7401 125.2 82.3801 126.17 81.8801C128.53 80.6501 130.47 76.8501 130.47 76.8501Z" fill="#F6F8F9"/>
<path d="M140.91 57.0702C141.53 59.8502 142.16 62.6302 142.78 65.4202C143.01 66.4302 144.55 66.0002 144.33 64.9902C143.71 62.2102 143.08 59.4302 142.46 56.6402C142.23 55.6402 140.69 56.0702 140.91 57.0702Z" fill="black"/>
<path d="M141.874 69.1002C143.849 67.9597 144.969 66.2016 144.376 65.1733C143.782 64.145 141.699 64.2359 139.724 65.3764C137.749 66.5169 136.629 68.275 137.222 69.3033C137.816 70.3316 139.899 70.2407 141.874 69.1002Z" fill="black"/>
<path d="M141.01 57.1501C141.3 57.6501 141.77 57.9701 142.31 58.1701C142.76 58.3501 143.25 58.3901 143.72 58.5301C143.78 58.5501 143.83 58.5701 143.89 58.5901C144.06 58.6501 143.89 58.6001 143.9 58.5901C143.9 58.5901 144.15 58.7201 144.16 58.7301C144.21 58.7601 144.26 58.7901 144.31 58.8301C144.43 58.9101 144.24 58.7701 144.31 58.8301C144.38 58.9001 144.46 58.9601 144.53 59.0301C144.56 59.0701 144.6 59.1001 144.63 59.1401C144.67 59.1801 144.79 59.2801 144.65 59.1601C144.72 59.2201 144.77 59.3301 144.81 59.4101C144.83 59.4401 144.93 59.6701 144.94 59.6701C144.9 59.5801 144.89 59.5601 144.91 59.6201C144.92 59.6501 144.93 59.6801 144.94 59.7001C144.96 59.7601 144.97 59.8101 144.99 59.8701C145.1 60.2701 145.57 60.5601 145.98 60.4301C146.4 60.3001 146.66 59.8801 146.54 59.4401C146.29 58.4901 145.6 57.6301 144.7 57.2101C144.2 56.9801 143.68 56.9001 143.15 56.7701C143.04 56.7401 142.92 56.7101 142.81 56.6701C142.65 56.6101 142.79 56.6801 142.81 56.6701C142.8 56.6801 142.66 56.5901 142.65 56.5901C142.61 56.5701 142.57 56.5401 142.52 56.5101C142.44 56.4601 142.62 56.6101 142.52 56.5101C142.51 56.5001 142.39 56.3901 142.4 56.3801C142.42 56.4001 142.44 56.4301 142.45 56.4501C142.43 56.4201 142.41 56.3801 142.39 56.3501C142.18 55.9901 141.66 55.8301 141.29 56.0601C140.93 56.2901 140.79 56.7701 141.01 57.1501Z" fill="black"/>
<path d="M150.72 64.58C150.89 67.29 151.15 70 151.5 72.69C151.56 73.12 151.83 73.49 152.3 73.49C152.69 73.49 153.16 73.12 153.1 72.69C152.75 70 152.48 67.29 152.32 64.58C152.26 63.56 150.66 63.55 150.72 64.58Z" fill="black"/>
<path d="M151.54 65.2001C153.93 64.9901 156.32 64.7801 158.72 64.5701C159.15 64.5301 159.52 64.2301 159.52 63.7701C159.52 63.3701 159.15 62.9301 158.72 62.9701C156.33 63.1801 153.94 63.3901 151.54 63.6001C151.11 63.6401 150.74 63.9401 150.74 64.4001C150.74 64.8001 151.11 65.2401 151.54 65.2001Z" fill="black"/>
<path d="M158 64.01C158.44 66.64 158.82 69.27 159.14 71.91C159.19 72.34 159.47 72.71 159.94 72.71C160.33 72.71 160.79 72.34 160.74 71.91C160.41 69.12 160.01 66.35 159.54 63.58C159.47 63.15 158.94 62.91 158.55 63.02C158.11 63.15 157.93 63.58 158 64.01Z" fill="black"/>
<path d="M150.817 75.5319C152.491 74.5654 153.441 73.0762 152.938 72.2058C152.436 71.3353 150.671 71.4131 148.997 72.3796C147.323 73.3461 146.374 74.8353 146.876 75.7058C147.379 76.5762 149.143 76.4984 150.817 75.5319Z" fill="black"/>
<path d="M158.525 75.1019C160.199 74.1354 161.149 72.6463 160.646 71.7758C160.144 70.9054 158.379 70.9832 156.705 71.9497C155.031 72.9162 154.082 74.4054 154.584 75.2758C155.087 76.1463 156.851 76.0684 158.525 75.1019Z" fill="black"/>
<path d="M168.6 58.2202C168.77 60.9302 169.03 63.6402 169.38 66.3302C169.44 66.7602 169.71 67.1302 170.18 67.1302C170.57 67.1302 171.04 66.7602 170.98 66.3302C170.63 63.6402 170.36 60.9302 170.2 58.2202C170.14 57.2002 168.54 57.1902 168.6 58.2202Z" fill="black"/>
<path d="M168.684 69.166C170.358 68.1995 171.308 66.7104 170.805 65.8399C170.302 64.9694 168.538 65.0473 166.864 66.0138C165.19 66.9803 164.24 68.4694 164.743 69.3399C165.246 70.2104 167.01 70.1325 168.684 69.166Z" fill="black"/>
</g>
<defs>
<clipPath id="clip0_520_6464">
<rect width="200" height="200" fill="white"/>
</clipPath>
</defs>
</svg>
