<svg width="200" height="200" viewBox="0 0 200 200" fill="none" xmlns="http://www.w3.org/2000/svg">
<g clip-path="url(#clip0_520_6463)">
<path d="M100 200C155.228 200 200 155.228 200 100C200 44.7715 155.228 0 100 0C44.7715 0 0 44.7715 0 100C0 155.228 44.7715 200 100 200Z" fill="#CFA5CF"/>
<path d="M163.2 143.41C159.44 120.54 150.17 99.6399 117.93 94.0099C100.14 90.8999 76.84 90.3399 50.13 108.59C32.54 120.61 42.53 141.58 39.48 144.12L32.21 146.17C32.21 146.17 32.63 155.9 33.31 162.7C33.89 168.44 34.6 172.89 35.47 176.38C52.89 191.11 75.4 200 100 200C119.92 200 138.47 194.18 154.06 184.14L153.38 180.57C164.79 168.62 165.7 158.61 163.2 143.41Z" fill="#EF9AC2"/>
<path d="M98.9501 114.57C99.0601 113.87 99.8901 113.56 100.43 114.03C102.77 116.08 107.97 121.17 109.55 127.09C110.91 132.19 110.57 135.53 110.19 137.2C110.04 137.84 109.29 138.13 108.76 137.72C106.74 136.15 102.27 132.3 100.55 127.77C98.2801 121.73 98.5701 116.9 98.9501 114.57Z" fill="#901E5E"/>
<path d="M114.14 84.1799C114.14 84.1799 116.78 90.0599 122.72 88.5099C127.34 87.2999 126.34 80.9399 126.34 80.9399C126.34 80.9399 131.87 81.7999 133.72 76.3399C135.06 72.3999 131.75 69.6799 131.75 69.6799C131.75 69.6799 136.94 68.0299 137.43 61.2799C137.95 54.1199 132.51 52.0699 132.51 52.0699C132.51 52.0699 135.43 46.9999 132.3 44.1799C128.5 40.7599 124.01 42.9899 124.01 42.9899C124.01 42.9899 123.42 35.0199 119.36 33.7399C112.07 31.4399 108.71 36.5699 108.71 36.5699C108.71 36.5699 109.78 32.2199 104.42 29.4299C99.97 27.1099 95.97 31.4399 95.97 31.4399C95.97 31.4399 94.48 25.7299 87.94 26.7399C83.07 27.4899 82.95 33.5299 82.95 33.5299C82.95 33.5299 78.17 31.2699 73.81 34.5699C67.63 39.2399 70.01 47.0699 70.01 47.0699C70.01 47.0699 64.43 46.0899 62.49 51.2199C60.3 56.9799 65.03 59.5099 65.03 59.5099C65.03 59.5099 62.07 64.6499 67.41 66.8899C69.82 67.8999 114.14 84.1799 114.14 84.1799Z" fill="black"/>
<path d="M125.78 68.0098C125.78 68.0098 127.1 57.7998 121.25 49.2998C115.02 40.2498 105.18 36.9898 90.8699 39.4598C76.5599 41.9298 71.0199 52.5398 68.8599 61.9498L108.24 67.0598L106.2 83.7798L117.14 85.3198L125.78 68.0098Z" fill="black"/>
<path d="M117.04 72.63C117.04 72.63 118.25 66.15 122.18 65.25C126.12 64.35 127.65 66.96 127.27 71.53C126.89 76.1 123.71 80.66 119 79.61C119 79.61 116.09 89.45 116.65 95.33C116.65 95.33 110.91 96.82 106.77 100.58C98.7299 107.87 98.4199 112.12 98.4199 112.12C97.7099 108.06 93.3599 106.75 93.3599 106.75C93.3599 106.75 76.2799 107.42 70.0899 98.16C61.5399 85.37 69.6499 61.99 69.6499 61.99C69.6499 61.99 70.3199 59.83 71.7699 57.45C71.7699 57.45 74.5099 57.54 76.7499 56.02C79.7999 53.95 79.8699 51.2 79.8699 51.2C79.8699 51.2 81.1499 54.69 86.9399 54.37C90.1399 54.19 92.3199 53.11 94.4399 49.72C94.4399 49.72 94.6699 53.64 99.1699 55.62C103 57.3 106.69 55.11 106.69 55.11C103.27 58.48 106.93 66.8 112.01 65.79C112.01 65.79 110.36 73.6 113.13 74.91C114.7 75.64 116.5 74.45 117.04 72.63Z" fill="#DC7B6A"/>
<path d="M97.48 104.18C93.11 105.25 88.35 105.2 83.95 104.33C79.33 103.41 75.49 101.17 72.47 97.53C65.18 88.73 66.92 77.07 69.38 66.81C70.41 62.51 71.67 57.98 74.06 54.23C74.92 52.87 72.77 51.62 71.91 52.97C69.52 56.71 68.21 61.2 67.14 65.48C65.84 70.65 64.69 76.06 64.65 81.4C64.58 92.21 70.57 103.4 81.54 106.33C86.85 107.75 92.79 107.9 98.14 106.59C99.7 106.2 99.04 103.8 97.48 104.18Z" fill="black"/>
<path d="M91.3898 100.84C88.6398 101.89 85.5198 101.87 82.8198 100.65C82.4498 100.48 81.9998 100.54 81.7798 100.92C81.5898 101.24 81.6798 101.79 82.0498 101.96C85.1198 103.34 88.6398 103.51 91.7898 102.3C92.1698 102.15 92.4398 101.79 92.3198 101.37C92.2298 101.01 91.7798 100.7 91.3898 100.84Z" fill="black"/>
<path d="M123.47 68.9299C122.19 69.0499 121.2 69.9299 120.71 71.0899C120.15 72.4299 120.37 73.8999 120.59 75.2799C120.65 75.6899 121.16 75.9099 121.52 75.8099C121.95 75.6899 122.11 75.2799 122.05 74.8799C121.89 73.8599 121.72 72.7599 122.07 71.7699C122.07 71.7599 122.12 71.6299 122.1 71.6799C122.08 71.7299 122.14 71.6099 122.14 71.5899C122.19 71.4899 122.25 71.3799 122.31 71.2799C122.34 71.2399 122.37 71.1899 122.4 71.1499C122.42 71.1199 122.47 71.0599 122.42 71.1199C122.49 71.0299 122.57 70.9499 122.65 70.8699C122.69 70.8299 122.72 70.7999 122.76 70.7699C122.85 70.6899 122.68 70.8199 122.78 70.7499C122.87 70.6799 122.97 70.6299 123.07 70.5699C123.11 70.5499 123.17 70.5199 123.09 70.5499C123.14 70.5299 123.18 70.5199 123.23 70.4999C123.29 70.4799 123.35 70.4699 123.41 70.4499C123.44 70.4399 123.6 70.4299 123.47 70.4399C123.88 70.3999 124.23 70.1199 124.23 69.6799C124.23 69.3099 123.88 68.8899 123.47 68.9299Z" fill="black"/>
<path d="M83.2799 78.8799C83.3299 77.5099 83.5399 76.1399 83.7699 74.7799C83.9999 73.4299 84.2499 72.0599 84.6399 70.7499C84.9299 69.7899 86.4399 70.1499 86.1599 71.1199C85.5399 73.2099 85.1899 75.4099 84.9499 77.5699C84.8399 78.5199 84.5899 79.8799 85.1399 80.7199C85.7399 81.6399 87.2199 81.2699 87.2999 80.1599C87.3699 79.1799 88.8599 79.0899 88.8599 80.1099C88.8599 80.5799 89.2099 81.0699 89.7199 81.0599C90.2299 81.0499 90.5599 80.5299 90.5299 80.0699C90.4799 79.0699 92.0299 79.0199 92.0899 80.0199C92.1599 81.3399 91.1099 82.5699 89.7699 82.6199C89.1199 82.6399 88.5199 82.3699 88.0799 81.9299C87.4899 82.5699 86.6299 82.9299 85.6699 82.7599C83.7499 82.4299 83.2199 80.5599 83.2799 78.8799Z" fill="black"/>
<path d="M122.02 81.3799C122.28 81.3599 122.56 81.2799 122.86 81.1399C123.33 80.9199 123.66 80.4999 123.8 79.9499C123.96 79.3099 123.82 78.5899 123.44 78.0599C122.74 77.1199 121.4 77.2899 121.34 77.2999C121.34 77.2999 120.8 77.3399 120.87 77.8599C120.93 78.2799 121.45 78.1999 121.45 78.1999C121.46 78.1999 122.32 78.0999 122.7 78.5999C122.93 78.9099 123.01 79.3399 122.91 79.7299C122.87 79.8899 122.76 80.1799 122.46 80.3199C122.1 80.4899 121.77 80.4499 121.54 80.3399C121.21 80.1799 121.09 79.8699 121.05 79.7099C121.05 79.7099 120.85 79.7399 120.56 79.7499C120.27 79.7599 120.08 79.7499 120.08 79.7499C120.1 79.8499 120.4 80.8399 121.17 81.2199C121.44 81.3499 121.72 81.3999 122.02 81.3799Z" fill="#FBE574"/>
<path d="M91.7 62.2798C91.95 62.1198 92.2 61.9698 92.46 61.8398C92.53 61.8098 92.59 61.7798 92.66 61.7498C92.52 61.8098 92.52 61.8098 92.66 61.7498C92.8 61.6998 92.94 61.6498 93.08 61.6098C93.22 61.5698 93.36 61.5298 93.51 61.4998C93.58 61.4898 93.65 61.4698 93.73 61.4598C93.57 61.4798 93.56 61.4798 93.71 61.4598C94 61.4398 94.28 61.4398 94.58 61.4598C94.73 61.4798 94.71 61.4698 94.53 61.4498C94.59 61.4598 94.66 61.4698 94.72 61.4898C94.85 61.5198 94.98 61.5498 95.1 61.5898C95.16 61.6098 95.58 61.7498 95.25 61.6298C95.37 61.6698 95.49 61.7398 95.6 61.7998C95.71 61.8598 95.82 61.9398 95.93 62.0098C96.05 62.0898 96.04 62.0898 95.9 61.9798C95.95 62.0198 96 62.0598 96.05 62.1098C96.15 62.1998 96.24 62.2898 96.33 62.3898C96.37 62.4398 96.42 62.4898 96.46 62.5398C96.36 62.4098 96.35 62.3998 96.43 62.5198C96.81 63.0798 97.58 63.3798 98.2 62.9798C98.75 62.6198 99.07 61.8098 98.66 61.2098C97.75 59.8798 96.36 59.0998 94.76 58.8998C93.24 58.7098 91.65 59.2098 90.39 60.0498C89.83 60.4198 89.53 61.2098 89.93 61.8198C90.29 62.3798 91.09 62.6798 91.7 62.2798Z" fill="black"/>
<path d="M74.3098 64.4199C74.3498 64.3899 74.7098 64.0999 74.4798 64.2699C74.5998 64.1799 74.7198 64.0999 74.8398 64.0199C75.0898 63.8599 75.3498 63.7199 75.6098 63.5999C75.3398 63.7299 75.7598 63.5499 75.8098 63.5299C75.9498 63.4799 76.0898 63.4399 76.2298 63.4099C76.3698 63.3699 76.5198 63.3499 76.6598 63.3199C76.3398 63.3799 76.7898 63.3099 76.8598 63.3099C76.9998 63.2999 77.1398 63.2999 77.2798 63.3099C77.3598 63.3099 77.7798 63.2899 77.4498 63.3199C77.6998 63.2999 78.0198 63.4599 78.2498 63.5299C78.3898 63.5799 78.3798 63.5799 78.2298 63.5199C78.2898 63.5499 78.3598 63.5799 78.4198 63.6099C78.5398 63.6699 78.6598 63.7399 78.7798 63.8199C78.8398 63.8599 78.8898 63.8999 78.9498 63.9399C78.8298 63.8399 78.8198 63.8399 78.9298 63.9299C79.0298 64.0299 79.1298 64.1199 79.2298 64.2199C79.6898 64.7099 80.5998 64.7199 81.0598 64.2199C81.5498 63.6899 81.5498 62.9199 81.0598 62.3899C79.9998 61.2599 78.4098 60.6599 76.8698 60.7299C75.2198 60.7999 73.7198 61.5299 72.4898 62.6099C71.9798 63.0599 71.9998 63.9899 72.4898 64.4399C73.0298 64.9199 73.7698 64.8899 74.3098 64.4199Z" fill="black"/>
<path d="M94.5101 107.22C95.8501 107.91 97.9501 109.39 98.4201 112.11C98.4201 112.11 98.7301 107.86 106.77 100.57C110.91 96.8198 116.65 95.3198 116.65 95.3198C116.55 94.2198 116.56 92.9898 116.66 91.6998C118.19 91.8398 119.64 92.4698 120.53 93.9998C123.7 98.1198 113.45 119.78 98.2701 120.69C93.6401 120.97 89.4701 116.51 86.5801 107.25L94.5101 107.22Z" fill="#901E5E"/>
<path d="M116.18 97.98C113.33 102.92 109.8 107.41 105.68 111.35C104.8 112.19 106.14 113.53 107.02 112.69C111.25 108.65 114.9 104 117.82 98.94C118.42 97.88 116.79 96.92 116.18 97.98Z" fill="#78111B"/>
<path d="M99.2701 115.4C99.8801 115.04 100.65 115.49 100.63 116.2C100.53 119.3 99.8901 126.56 96.3101 131.53C93.2201 135.81 90.4301 137.67 88.9001 138.43C88.3101 138.72 87.6101 138.32 87.5901 137.66C87.5201 135.1 87.6701 129.2 90.0801 125C93.3101 119.42 97.2301 116.59 99.2701 115.4Z" fill="#901E5E"/>
<path d="M102.08 112.51C100.95 111.3 99.2998 110.77 97.6798 111.14C96.1998 111.47 95.1598 112.55 94.4098 113.81C93.5398 115.27 92.9598 117.07 93.1198 118.78C93.2798 120.48 94.2598 122.19 95.7998 122.99C97.6098 123.92 99.6298 123.57 101.16 122.3C101.55 121.98 101.5 121.3 101.16 120.96C100.77 120.57 100.22 120.63 99.8198 120.96C97.9698 122.48 95.3598 121.22 95.0198 118.91C94.8298 117.63 95.2298 116.27 95.8198 115.15C96.0798 114.66 96.3598 114.2 96.7098 113.82C97.0098 113.48 97.3698 113.23 97.7198 113.09C98.2198 112.9 98.7298 112.84 99.1898 112.94C99.8098 113.07 100.29 113.37 100.74 113.85C101.57 114.74 102.91 113.4 102.08 112.51Z" fill="#78111B"/>
<path d="M95.61 122.3C94.92 123.41 94.26 124.53 93.63 125.68C93.39 126.11 93.51 126.73 93.97 126.97C94.41 127.2 95.01 127.09 95.26 126.63C95.89 125.49 96.55 124.36 97.24 123.25C97.5 122.83 97.34 122.19 96.9 121.96C96.44 121.71 95.89 121.85 95.61 122.3Z" fill="#78111B"/>
<path d="M91.4998 112.07C92.1098 113.27 92.9298 114.37 93.8898 115.32C94.2398 115.67 94.8798 115.7 95.2298 115.32C95.5698 114.95 95.6098 114.35 95.2298 113.98C94.8398 113.6 94.4798 113.19 94.1398 112.76C94.1898 112.82 94.2398 112.89 94.2898 112.95C93.8498 112.38 93.4598 111.76 93.1398 111.12C92.9098 110.68 92.2598 110.51 91.8498 110.78C91.3798 111.07 91.2498 111.6 91.4998 112.07Z" fill="#78111B"/>
<path d="M99.0198 69.4999C99.3798 68.9399 99.7598 68.3899 100.16 67.8599C100.24 67.7499 100.25 67.5399 100.22 67.4199C100.18 67.2899 100.08 67.1399 99.9598 67.0799C99.8298 67.0099 99.6598 66.9699 99.5198 67.0199C99.4698 67.0399 99.4298 67.0599 99.3798 67.0799C99.2898 67.1299 99.2198 67.1999 99.1698 67.2899C98.7698 67.8199 98.3898 68.3699 98.0298 68.9299C97.8698 69.1799 97.9698 69.5799 98.2398 69.7199C98.5198 69.8599 98.8498 69.7799 99.0198 69.4999Z" fill="black"/>
<path d="M100.32 70.6399C100.74 70.3399 101.17 70.0599 101.63 69.8099C101.75 69.7399 101.86 69.5999 101.89 69.4699C101.93 69.3299 101.91 69.1499 101.83 69.0299C101.66 68.7599 101.32 68.6699 101.04 68.8199C100.59 69.0699 100.15 69.3499 99.7302 69.6499C99.6102 69.7399 99.5102 69.8399 99.4702 69.9899C99.4302 70.1299 99.4502 70.3099 99.5302 70.4299C99.6102 70.5499 99.7302 70.6599 99.8702 70.6899C100.02 70.7299 100.19 70.7299 100.32 70.6399Z" fill="black"/>
<path d="M100.64 71.0899C100.73 69.7699 99.1001 68.8599 98.6201 68.6499C97.5801 68.1999 96.0401 67.7399 94.0301 67.8799C90.7301 68.0999 89.9301 69.5599 89.7701 70.3399C89.6401 70.9999 89.8101 72.2299 90.8601 72.5499C91.4301 72.7299 92.6301 72.5899 94.7901 72.6499C96.8401 72.7099 98.1901 72.8899 98.8301 72.7299C99.4701 72.5699 100.55 72.5099 100.64 71.0899Z" fill="white"/>
<path d="M96.3402 72.2998C98.5802 72.2998 98.5802 68.8298 96.3402 68.8298C94.1002 68.8298 94.1002 72.2998 96.3402 72.2998Z" fill="black"/>
<path d="M73.9502 68.3899C73.7102 67.7199 73.4402 67.0499 73.1502 66.3999C73.0902 66.2799 72.9302 66.1699 72.8102 66.1399C72.6702 66.0999 72.4902 66.1199 72.3702 66.1999C72.2502 66.2799 72.1402 66.3999 72.1102 66.5399C72.0702 66.6999 72.1002 66.8299 72.1702 66.9799C72.2402 67.1299 72.3002 67.2799 72.3702 67.4399C72.3502 67.3899 72.3302 67.3499 72.3102 67.2999C72.5002 67.7599 72.6802 68.2299 72.8502 68.6999C72.9002 68.8399 72.9802 68.9699 73.1102 69.0399C73.2302 69.1099 73.4202 69.1399 73.5502 69.0999C73.8202 69.0099 74.0502 68.6999 73.9502 68.3899Z" fill="black"/>
<path d="M72.1202 68.7099C71.7802 68.3199 71.4202 67.9499 71.0402 67.6099C70.9302 67.5099 70.7902 67.4399 70.6302 67.4399C70.4902 67.4399 70.3202 67.4999 70.2202 67.6099C70.1202 67.7199 70.0402 67.8599 70.0502 68.0199C70.0602 68.1699 70.1102 68.3199 70.2202 68.4299C70.6002 68.7799 70.9602 69.1499 71.3002 69.5299C71.3902 69.6399 71.5702 69.6999 71.7102 69.6999C71.8502 69.6999 72.0202 69.6399 72.1202 69.5299C72.2202 69.4199 72.3002 69.2799 72.2902 69.1199C72.2802 68.9599 72.2202 68.8299 72.1202 68.7099Z" fill="black"/>
<path d="M70.8701 70.3099C71.1901 69.0299 72.5601 68.1899 73.0501 68.0099C74.1201 67.6299 75.2801 67.4899 77.2701 67.7599C80.5401 68.1999 81.1101 69.2599 81.3501 70.1199C81.5301 70.7699 81.2601 71.7599 80.1901 72.0099C79.6101 72.1499 78.3401 72.1099 76.3201 72.1399C74.2701 72.1699 72.5801 72.2799 71.9501 72.0799C71.3101 71.8799 70.5701 71.4999 70.8701 70.3099Z" fill="white"/>
<path d="M77.3099 71.8799C79.5499 71.8799 79.5499 68.4099 77.3099 68.4099C75.0699 68.4099 75.0699 71.8799 77.3099 71.8799Z" fill="black"/>
<path d="M89.0599 86.6699C88.2699 87.1799 87.5899 87.8999 87.3199 88.8099C87.0399 89.7399 87.2299 90.8699 87.9499 91.5599C88.6599 92.2399 89.8299 92.4899 90.6899 91.9399C91.1899 91.6199 91.5099 91.0699 91.4699 90.4699C91.4299 89.8799 91.0999 89.3399 90.5799 89.0499C89.9199 88.6799 89.1899 88.8199 88.7099 89.4099C88.4299 89.7599 88.2499 90.1699 88.4399 90.6099C88.5299 90.8199 88.6799 90.9799 88.8799 91.0899C89.1799 91.2599 89.4899 91.2099 89.7899 91.0699C90.1799 90.8899 90.3099 90.2899 90.0799 89.9499C89.8199 89.5499 89.3799 89.4599 88.9599 89.6599C88.9499 89.6699 88.9299 89.6699 88.9199 89.6799C89.0599 89.6399 89.1999 89.6099 89.3299 89.5699C89.3199 89.5699 89.2999 89.5699 89.2899 89.5699C89.4299 89.6099 89.5699 89.6399 89.6999 89.6799C89.7399 89.8199 89.7699 89.9499 89.8099 90.0899C89.8099 90.4899 89.8499 90.6199 89.9399 90.4799C89.9699 90.3899 89.9199 90.5399 89.8999 90.5299L90.0199 90.3999C90.0199 90.4099 89.8899 90.4899 89.9699 90.4399C90.0499 90.3899 89.9099 90.4599 89.8999 90.4599C89.8499 90.4699 89.7999 90.4599 89.7499 90.4699C89.6199 90.4799 89.8399 90.4999 89.7199 90.4599C89.6199 90.4299 89.7699 90.4999 89.7999 90.5099C89.8799 90.5599 89.7399 90.4799 89.7499 90.4699L89.8099 90.5299C89.8899 90.5899 89.7599 90.4799 89.7699 90.4799C89.7899 90.4799 89.8099 90.5799 89.8299 90.5799C89.8099 90.5799 89.7899 90.4299 89.7999 90.5199C89.7999 90.5399 89.8399 90.6799 89.8099 90.5499C89.7799 90.3899 89.7899 90.7199 89.8099 90.5599C89.8199 90.4399 89.8199 90.5399 89.7999 90.5599C89.7999 90.5699 89.7899 90.5799 89.7899 90.5899C89.7799 90.6299 89.7799 90.6299 89.7999 90.5699C89.8599 90.5199 89.8099 90.5399 89.7899 90.5699C89.7999 90.5599 89.8899 90.4699 89.8299 90.5199C89.8199 90.5199 89.7699 90.5799 89.7699 90.5799C89.7699 90.5499 89.9099 90.4899 89.7899 90.5499C89.6499 90.6199 89.9199 90.5199 89.7799 90.5599C89.7399 90.5699 89.6499 90.5799 89.6199 90.5999C89.6199 90.5999 89.7899 90.5899 89.6999 90.5899C89.6699 90.5899 89.6499 90.5899 89.6199 90.5899C89.5799 90.5899 89.3799 90.5699 89.5099 90.5899C89.6399 90.6099 89.4599 90.5799 89.4299 90.5699C89.3799 90.5599 89.3199 90.5399 89.2699 90.5199C89.1799 90.4899 89.3399 90.5399 89.3399 90.5499C89.3299 90.5399 89.2799 90.5199 89.2699 90.5099C89.2399 90.4899 89.1399 90.4099 89.0999 90.4099C89.1199 90.4099 89.2399 90.5399 89.1299 90.4299C89.1099 90.4099 89.0899 90.3899 89.0699 90.3699C89.0499 90.3499 88.9299 90.2099 88.9999 90.3099C89.0699 90.4099 88.9599 90.2499 88.9499 90.2199C88.9299 90.1899 88.9199 90.1699 88.9099 90.1399C88.8399 90.0199 88.9299 90.1599 88.9199 90.1699C88.9199 90.1699 88.8299 89.8499 88.8199 89.8199C88.7899 89.6699 88.8199 89.9599 88.8199 89.7999C88.8199 89.7299 88.8099 89.6599 88.8199 89.5899C88.8199 89.5599 88.8399 89.3699 88.8199 89.4899C88.7999 89.6099 88.8399 89.4199 88.8399 89.3899C88.8499 89.3299 88.8699 89.2699 88.8899 89.2099C88.8999 89.1799 88.9099 89.1499 88.9199 89.1199C88.9599 88.9899 88.9099 89.1499 88.9099 89.1499C88.8999 89.1399 89.1199 88.7799 89.1299 88.7599C89.1299 88.7499 89.1799 88.6799 89.1799 88.6899C89.1799 88.6899 89.0799 88.8199 89.1599 88.7099C89.2099 88.6599 89.2499 88.5999 89.2999 88.5499C89.3999 88.4499 89.4999 88.3499 89.6099 88.2599C89.6199 88.2499 89.6599 88.2099 89.6799 88.1999C89.6399 88.2099 89.5699 88.2799 89.6599 88.2199C89.7299 88.1699 89.7899 88.1299 89.8599 88.0799C90.2199 87.8499 90.3999 87.3399 90.1499 86.9599C89.9499 86.5999 89.4499 86.4199 89.0599 86.6699Z" fill="black"/>
<path d="M86.8597 95.2399C88.3197 95.9699 90.0797 96.1099 91.6097 95.4999C92.0097 95.3399 92.3297 94.9399 92.1797 94.4899C92.0597 94.0999 91.5997 93.7499 91.1697 93.9199C90.8497 94.0499 90.5097 94.1499 90.1697 94.1999C90.1397 94.2099 89.9197 94.2299 90.1097 94.2099C90.0197 94.2199 89.9297 94.2299 89.8297 94.2299C89.6697 94.2399 89.5097 94.2399 89.3397 94.2399C89.2597 94.2399 89.1797 94.2299 89.0997 94.2299C89.0597 94.2299 88.8097 94.1899 89.0097 94.2199C88.8497 94.1999 88.6897 94.1699 88.5297 94.1299C88.3697 94.0899 88.2197 94.0399 88.0597 93.9899C88.0297 93.9799 87.7497 93.8699 87.9297 93.9499C87.8397 93.9099 87.7597 93.8699 87.6797 93.8299C87.2997 93.6399 86.7697 93.7099 86.5597 94.1199C86.3697 94.4899 86.4497 95.0399 86.8597 95.2399Z" fill="black"/>
<path fill-rule="evenodd" clip-rule="evenodd" d="M35.35 140.02C35.35 140.02 31.45 139.13 29.37 137.23C25.22 133.42 24.37 130.27 23.93 127.65C23.12 122.83 25.01 119.93 26.77 119.58C26.77 119.58 25.49 115.47 28.25 113.73C28.89 113.38 29.59 113.16 30.31 113.08C31.03 113.01 31.77 113.08 32.46 113.29C32.46 113.29 32.75 110.26 35.3 109.71C37.85 109.17 38.66 110.44 38.66 110.44C38.66 110.44 39.4 106.43 43.89 106.86C48.39 107.29 47.45 113.37 47.45 113.37C48.7 113.28 49.95 113.55 51.05 114.16C52.15 114.76 53.05 115.68 53.65 116.78C57.15 122.81 54.07 133.65 51.11 136.77L52.43 141.35L35.97 144.87L35.35 140.02Z" fill="#DC7B6A"/>
<path d="M37.37 139.05C36.16 139.28 34.92 139.23 33.74 138.88C32.56 138.54 31.48 137.92 30.59 137.07C30.45 136.9 30.25 136.79 30.03 136.77C29.81 136.75 29.59 136.82 29.42 136.96C29.34 137.03 29.27 137.12 29.21 137.21C29.16 137.31 29.13 137.41 29.12 137.52C29.11 137.63 29.12 137.74 29.15 137.84C29.18 137.94 29.24 138.04 29.31 138.13C30.39 139.2 31.72 139.99 33.17 140.43C34.62 140.88 36.16 140.97 37.65 140.7C37.76 140.68 37.86 140.64 37.96 140.58C38.05 140.52 38.13 140.44 38.2 140.35C38.26 140.26 38.31 140.16 38.33 140.05C38.35 139.94 38.36 139.83 38.34 139.72C38.32 139.61 38.28 139.51 38.22 139.41C38.16 139.32 38.08 139.24 37.99 139.17C37.9 139.11 37.8 139.06 37.69 139.04C37.59 139.03 37.48 139.03 37.37 139.05Z" fill="black"/>
<path d="M48.0499 121.4C46.4899 122.1 44.7999 122.45 43.0899 122.43C41.7099 122.3 39.8799 121.84 39.0899 120.58C38.8199 120.15 38.7199 119.64 38.7899 119.14C38.8599 118.64 39.0999 118.18 39.4799 117.84C40.0599 117.4 40.7199 117.06 41.4199 116.86C43.2999 116.2 45.0599 114.55 47.1599 114.9C48.2099 115.07 48.3699 113.41 47.3199 113.25C45.4399 112.95 43.8699 113.88 42.2699 114.69C42.2699 114.62 42.2499 114.54 42.2199 114.48C41.7699 113.57 41.2299 112.71 40.6099 111.91C39.9499 111.02 39.0999 110.27 38.1299 109.74C38.0299 109.7 37.9199 109.68 37.8099 109.69C37.6999 109.69 37.5899 109.72 37.4899 109.76C37.3899 109.8 37.2999 109.87 37.2299 109.95C37.1599 110.03 37.0999 110.12 37.0599 110.22C36.9899 110.42 36.9899 110.64 37.0799 110.84C37.1599 111.04 37.3199 111.19 37.5199 111.28L37.6799 111.38L37.9499 111.56L38.2299 111.78L38.3599 111.89C38.5599 112.06 38.7499 112.25 38.9099 112.46C39.0799 112.65 39.2399 112.85 39.3999 113.05C39.7099 113.44 39.9699 113.84 40.2399 114.24L40.1999 114.17L40.2499 114.25C40.2799 114.29 40.3099 114.34 40.3299 114.39L40.4899 114.66C40.5899 114.83 40.6799 115 40.7699 115.18C40.7999 115.24 40.8399 115.29 40.8899 115.34C39.9699 115.62 39.1199 116.07 38.3699 116.67C38.2999 116.74 38.2399 116.82 38.1699 116.88C36.2299 115.17 33.9999 113.81 31.5799 112.88C31.3699 112.8 31.1499 112.81 30.9399 112.9C30.7399 112.99 30.5799 113.16 30.4999 113.36C30.4199 113.57 30.4299 113.79 30.5199 114C30.6099 114.2 30.7799 114.36 30.9799 114.44C33.3199 115.33 35.4599 116.67 37.2799 118.37C37.0399 119.21 37.0799 120.11 37.3899 120.93C37.6999 121.73 38.2699 122.4 39.0099 122.84C38.9999 122.9 38.9399 122.95 38.8999 123C38.8699 123.02 38.8499 123.04 38.8299 123.07C38.8299 123.11 38.6999 123.16 38.6599 123.2L38.5599 123.25L38.4099 123.31L38.3199 123.34C38.2699 123.36 38.2099 123.37 38.1599 123.37L37.8199 123.42L37.7199 123.41L37.5799 123.4C37.4399 123.4 37.3099 123.38 37.1699 123.36C37.1699 123.36 36.9599 123.34 37.0999 123.35L36.9099 123.29L36.5199 123.16C36.2499 123.05 35.9899 122.93 35.7199 122.82C35.4499 122.7 35.3699 122.62 35.1999 122.54C34.2599 121.98 33.3699 121.34 32.5499 120.62C30.5899 119.12 27.9199 118.11 25.5299 119.22C25.3499 119.33 25.2199 119.49 25.1599 119.69C25.0999 119.89 25.1099 120.1 25.1999 120.28C25.2899 120.47 25.4399 120.62 25.6299 120.7C25.8199 120.78 26.0299 120.79 26.2299 120.72C27.8399 119.98 29.6999 120.65 31.0699 121.6C31.7899 122.1 32.4399 122.7 33.1599 123.21C33.8799 123.72 34.7499 124.04 35.4399 124.6C35.8299 124.9 36.1099 125.32 36.2299 125.8C36.3099 126.17 36.2699 126.56 36.1199 126.91C35.9899 127.25 35.7599 127.55 35.4699 127.77C34.8499 128.19 34.0899 128.39 33.3399 128.31C31.4299 128.2 29.6299 127.37 28.3099 125.98C27.5499 125.19 26.3099 126.25 27.0299 127.04C28.4999 128.6 30.4699 129.62 32.5999 129.9C34.3499 130.13 36.3499 129.74 37.3399 128.14C37.6299 127.68 37.8199 127.16 37.8799 126.62C37.9499 126.08 37.8899 125.53 37.7199 125.02C38.1599 125.01 38.5899 124.94 38.9999 124.8C39.6399 124.58 40.1799 124.13 40.4999 123.53C40.9199 123.68 41.3499 123.8 41.7799 123.9C42.1399 123.97 42.5099 124.02 42.8799 124.05C42.2099 125.13 41.7799 126.34 41.6199 127.6C41.4699 128.86 41.5899 130.14 41.9899 131.35C42.0399 131.45 42.0999 131.54 42.1799 131.61C42.2599 131.68 42.3499 131.74 42.4599 131.78C42.5599 131.82 42.6699 131.84 42.7799 131.83C42.8899 131.83 42.9999 131.8 43.0999 131.75C43.2999 131.66 43.4499 131.49 43.5299 131.29C43.6099 131.08 43.5999 130.86 43.5099 130.66C43.1599 129.52 43.1099 128.32 43.3699 127.15C43.6299 125.99 44.1799 124.91 44.9699 124.03C44.9799 124.01 44.9799 123.98 44.9799 123.96C46.2799 123.75 47.5499 123.4 48.7699 122.91C49.7299 122.52 49.0299 121.02 48.0499 121.4Z" fill="black"/>
<path d="M32.4999 147.22C41.0899 145.35 49.6799 143.45 58.2999 141.69C59.6699 141.41 59.0899 139.31 57.7199 139.59C49.0999 141.35 40.5099 143.24 31.9199 145.12C30.5499 145.42 31.1299 147.52 32.4999 147.22Z" fill="#E66FA9"/>
<path d="M57.53 190.32C60.55 188.92 63.35 186.12 64.56 182.97C65.15 181.43 65.25 179.68 65.3 178.05C65.52 171.34 64.37 164.52 63.12 157.95C62 152.03 60.6 146.17 59.05 140.35C58.69 139 56.59 139.57 56.95 140.93C59.29 149.72 61.37 158.65 62.49 167.69C62.84 170.55 63.11 173.42 63.14 176.3C63.16 178.06 63.15 179.88 62.71 181.58C62.66 181.77 62.43 182.44 62.5 182.29C62.26 182.83 61.92 183.34 61.6 183.84C60.3 185.85 58.6 187.43 56.42 188.44C55.16 189.03 56.26 190.9 57.53 190.32Z" fill="#E66FA9"/>
<path d="M61.97 125.51C61.69 127.35 61.53 129.21 61.5 131.08C61.5 131.18 61.5 131.28 61.55 131.36C61.61 131.44 67.86 130.05 67.87 129.97C67.87 129.97 63.44 126.69 61.97 125.51Z" fill="white"/>
<path d="M60.53 125.11C60.26 126.88 60.08 128.66 60.02 130.45C60 131.01 59.96 131.6 60.26 132.11C60.54 132.58 61.05 132.87 61.6 132.85C61.89 132.84 62.19 132.77 62.47 132.72C64 132.43 65.52 132.08 67.03 131.73C67.77 131.56 68.75 131.45 69.16 130.72C69.35 130.4 69.43 129.93 69.31 129.57C69.18 129.18 68.95 128.92 68.62 128.68C67.1 127.56 65.59 126.43 64.09 125.29C63.96 125.19 63.84 125.1 63.71 125C63.65 124.95 63.59 124.91 63.53 124.86C63.51 124.84 63.48 124.82 63.46 124.8C63.32 124.7 63.75 125.03 63.62 124.92C63.42 124.77 63.22 124.61 63.03 124.45C62.71 124.19 62.4 124.01 61.97 124.01C61.6 124.01 61.16 124.17 60.91 124.45C60.41 124.99 60.26 126.04 60.91 126.57C62.75 128.04 64.65 129.43 66.54 130.83C66.73 130.97 66.93 131.12 67.12 131.26C66.94 130.58 66.76 129.89 66.58 129.21C66.67 129.12 66.76 129.03 66.84 128.94C66.99 128.72 67.19 128.59 67.45 128.53C67.45 128.53 67.44 128.53 67.44 128.54C67.42 128.54 67.41 128.55 67.39 128.55C67.34 128.56 67.3 128.58 67.25 128.59C67.1 128.63 66.94 128.67 66.79 128.71C66.3 128.83 65.81 128.94 65.32 129.05C64.23 129.3 63.14 129.54 62.04 129.76C61.85 129.8 61.66 129.84 61.46 129.87C61.37 129.89 61.08 129.93 61.46 129.87C61.8 129.82 61.66 129.85 61.59 129.85C61.29 129.86 62.03 129.85 62.3 130.05C62.48 130.23 62.66 130.41 62.84 130.59C63.09 131.16 62.99 131.17 63 130.82C63 130.7 63.01 130.57 63.01 130.45C63.02 130.24 63.02 130.04 63.03 129.83C63.05 129.35 63.08 128.88 63.12 128.4C63.16 127.95 63.2 127.49 63.25 127.04C63.28 126.81 63.3 126.59 63.33 126.36C63.27 126.73 63.34 126.32 63.34 126.27C63.36 126.15 63.38 126.02 63.39 125.9C63.45 125.49 63.46 125.12 63.24 124.75C63.06 124.44 62.7 124.14 62.35 124.06C61.66 123.9 60.65 124.28 60.53 125.11Z" fill="white"/>
<path d="M35.5098 103.12C36.9498 101.73 38.3298 100.42 40.2698 99.7699C41.8498 99.2399 43.5098 99.0599 45.1598 98.9899C47.2998 98.9099 49.5198 98.9099 51.6198 99.3399C58.0098 100.65 63.6298 105.88 65.9098 111.95C67.7398 116.83 67.8998 122.99 64.1598 127.02C63.2598 127.99 64.7098 129.44 65.6098 128.47C71.8698 121.71 69.2298 111.11 63.8698 104.68C61.3498 101.65 58.0698 99.2299 54.3198 97.9399C50.2598 96.5499 45.3198 96.4899 41.1298 97.3899C38.1998 98.0199 36.1398 99.6299 34.0398 101.65C33.1098 102.59 34.5598 104.04 35.5098 103.12Z" fill="white"/>
<path d="M114.32 150.5C114.42 160.12 114.52 169.74 114.62 179.36C114.63 180.68 116.68 180.68 116.67 179.36C116.57 169.74 116.47 160.12 116.37 150.5C116.35 149.18 114.3 149.18 114.32 150.5Z" fill="white"/>
<path d="M111.95 179.24C112.83 180.88 113.82 182.47 114.91 183.98C114.97 184.06 115.03 184.14 115.12 184.17C115.22 184.2 119.38 179.33 119.34 179.26C119.35 179.26 113.83 179.3 111.95 179.24Z" fill="white"/>
<path d="M110.66 179.99C111.44 181.43 112.29 182.83 113.23 184.17C113.54 184.61 113.83 185.12 114.29 185.41C114.79 185.72 115.4 185.75 115.9 185.45C116.14 185.31 116.32 185.1 116.51 184.9C117.57 183.75 118.58 182.55 119.58 181.35C119.79 181.1 120 180.85 120.2 180.59C120.51 180.2 120.88 179.8 120.84 179.26C120.78 178.46 120.2 177.76 119.34 177.76C116.88 177.78 114.41 177.81 111.94 177.74C111.16 177.72 110.41 178.45 110.44 179.24C110.48 180.07 111.1 180.71 111.94 180.74C114.4 180.81 116.87 180.78 119.34 180.76C118.84 180.26 118.34 179.76 117.84 179.26C117.84 179.22 118.19 178.24 117.98 178.6C117.87 178.79 118.26 178.25 118.14 178.4C118.11 178.43 118.08 178.47 118.06 178.51C117.91 178.7 117.76 178.88 117.61 179.06C117.15 179.61 116.69 180.15 116.22 180.7C115.76 181.24 115.3 181.77 114.83 182.3C114.67 182.49 114.5 182.67 114.33 182.85C114.27 182.91 114.22 182.97 114.16 183.03C114.14 183.05 114.12 183.06 114.1 183.08C114.27 182.88 114.77 182.69 115.11 182.68C115.36 182.75 115.61 182.82 115.87 182.88C116.2 183.26 116.29 183.35 116.16 183.17C116.12 183.11 116.08 183.06 116.04 183C115.99 182.93 115.93 182.85 115.88 182.78C115.74 182.58 115.59 182.37 115.45 182.16C115.18 181.76 114.92 181.36 114.67 180.96C114.16 180.15 113.68 179.32 113.23 178.48C112.86 177.79 111.84 177.52 111.18 177.94C110.49 178.4 110.26 179.25 110.66 179.99Z" fill="white"/>
<path fill-rule="evenodd" clip-rule="evenodd" d="M133.24 81.21C133.24 81.21 129.32 73.07 132.3 63.73C132.49 62.99 132.69 62.25 132.93 61.49C138.77 43.23 168.59 37.5 180 58.4C191.41 79.28 167.86 105.39 143.61 92.76C142.39 92.13 140.86 91.09 139.3 89.66C136.96 90.7 133.11 91.5 128.82 88.69C127.91 88.1 127.97 86.74 128.94 86.24C131.3 85.01 133.24 81.21 133.24 81.21Z" fill="#F6F8F9"/>
<path d="M119.22 141.27C119.46 151.4 121.61 161.41 125.59 170.73C127.27 174.66 129.31 178.74 133.08 181.05C136.98 183.44 142.26 184.03 146.72 183.44C151.57 182.79 156.11 180.3 158.66 176.04C159.38 174.84 157.5 173.74 156.78 174.94C154.69 178.42 151.03 180.52 147.09 181.2C142.93 181.92 137.83 181.41 134.17 179.17C130.75 177.08 128.97 173.18 127.46 169.63C125.68 165.44 124.28 161.07 123.27 156.63C122.12 151.58 121.51 146.45 121.39 141.27C121.36 139.88 119.19 139.87 119.22 141.27Z" fill="#E66FA9"/>
<path d="M133.35 132.47C137.01 137.37 140.22 142.57 142.96 148.03C143.59 149.28 145.46 148.18 144.84 146.93C142.1 141.47 138.88 136.26 135.23 131.37C134.88 130.9 134.29 130.67 133.74 130.98C133.27 131.25 133 132.01 133.35 132.47Z" fill="#E66FA9"/>
<path d="M108.72 127.39C108.72 127.39 106.11 129.86 102.02 131.59C98.22 133.2 99.64 137.73 102.42 137.25C105.2 136.77 106.11 136.01 106.11 136.01L108.72 127.39Z" fill="#B86C51"/>
<path d="M123.04 120.84C123.04 120.84 109.57 125.81 107.87 128.18C106.17 130.55 105.07 133.45 104.46 134.69C103.85 135.93 102.17 138.59 103.26 140.17C104.35 141.75 109.55 141.22 109.55 141.22C109.55 141.22 110.48 142.81 112.07 142.83C113.66 142.85 116.5 141.65 116.5 141.65C116.5 141.65 117.18 143.12 118.69 143.05C121.96 142.9 124.04 141.56 124.04 141.56C124.04 141.56 124.05 143.54 125.96 143.54C127.87 143.53 133.72 138.66 134.71 136.35C135.7 134.04 137.31 129.61 137.31 129.61C137.31 129.61 136.7 124.07 131.91 122.36C127.11 120.65 123.04 120.84 123.04 120.84Z" fill="#DC7B6A"/>
<path d="M110.32 140.12C109.95 138.22 111.23 136.49 112.35 135.09C113.61 133.52 114.98 132.03 116.44 130.64C117.19 129.93 116.05 128.79 115.31 129.51C113.67 131.08 112.14 132.76 110.76 134.55C109.42 136.29 108.35 138.28 108.78 140.55C108.97 141.56 110.51 141.13 110.32 140.12Z" fill="black"/>
<path d="M117.06 141.69C117.12 139.78 118.3 138.19 119.58 136.87C121.05 135.36 122.64 133.97 124.18 132.53C124.94 131.82 123.8 130.69 123.05 131.4C121.39 132.95 119.64 134.44 118.1 136.11C116.67 137.66 115.53 139.53 115.46 141.69C115.42 142.72 117.03 142.72 117.06 141.69Z" fill="black"/>
<path d="M124.5 141.72C124.75 140.33 125.71 139.27 126.63 138.25C127.74 137.02 128.88 135.81 130.05 134.64C130.78 133.91 129.65 132.78 128.92 133.51C127.68 134.75 126.47 136.03 125.31 137.33C124.29 138.48 123.24 139.73 122.96 141.29C122.88 141.72 123.08 142.15 123.52 142.28C123.91 142.39 124.43 142.15 124.5 141.72Z" fill="black"/>
<path d="M143.9 61.7199C144.52 64.4999 145.15 67.2799 145.77 70.0699C146 71.0799 147.54 70.6499 147.32 69.6399C146.7 66.8599 146.07 64.0799 145.45 61.2899C145.22 60.2899 143.68 60.7199 143.9 61.7199Z" fill="black"/>
<path d="M144.859 73.7401C146.834 72.5996 147.954 70.8415 147.36 69.8132C146.767 68.7849 144.684 68.8758 142.709 70.0163C140.734 71.1568 139.614 72.9149 140.207 73.9432C140.801 74.9715 142.884 74.8806 144.859 73.7401Z" fill="black"/>
<path d="M144 61.8C144.29 62.3 144.76 62.62 145.3 62.82C145.75 63 146.24 63.04 146.71 63.18C146.77 63.2 146.82 63.22 146.88 63.24C147.05 63.3 146.88 63.25 146.89 63.24C146.89 63.24 147.14 63.37 147.15 63.38C147.2 63.41 147.25 63.44 147.3 63.48C147.42 63.56 147.23 63.42 147.3 63.48C147.37 63.55 147.45 63.61 147.52 63.68C147.55 63.72 147.59 63.75 147.62 63.79C147.66 63.83 147.78 63.93 147.64 63.81C147.71 63.87 147.76 63.98 147.8 64.06C147.82 64.09 147.92 64.32 147.93 64.32C147.89 64.23 147.88 64.21 147.9 64.27C147.91 64.3 147.92 64.33 147.93 64.35C147.95 64.41 147.96 64.46 147.98 64.52C148.09 64.92 148.56 65.21 148.97 65.08C149.39 64.95 149.65 64.53 149.53 64.09C149.28 63.14 148.59 62.28 147.69 61.86C147.19 61.63 146.67 61.55 146.14 61.42C146.03 61.39 145.91 61.36 145.8 61.32C145.64 61.26 145.78 61.33 145.8 61.32C145.79 61.33 145.65 61.24 145.64 61.24C145.6 61.22 145.56 61.19 145.51 61.16C145.43 61.11 145.61 61.26 145.51 61.16C145.5 61.15 145.38 61.04 145.39 61.03C145.41 61.05 145.43 61.08 145.44 61.1C145.42 61.07 145.4 61.03 145.38 61C145.17 60.64 144.65 60.48 144.28 60.71C143.92 60.94 143.77 61.42 144 61.8Z" fill="black"/>
<path d="M153.71 69.2299C153.88 71.9399 154.14 74.6499 154.49 77.3399C154.55 77.7699 154.82 78.1399 155.29 78.1399C155.68 78.1399 156.15 77.7699 156.09 77.3399C155.74 74.6499 155.47 71.9399 155.31 69.2299C155.25 68.2099 153.65 68.1999 153.71 69.2299Z" fill="black"/>
<path d="M154.53 69.8498C156.92 69.6398 159.31 69.4298 161.71 69.2198C162.14 69.1798 162.51 68.8798 162.51 68.4198C162.51 68.0198 162.14 67.5798 161.71 67.6198C159.32 67.8298 156.93 68.0398 154.53 68.2498C154.1 68.2898 153.73 68.5898 153.73 69.0498C153.73 69.4498 154.1 69.8898 154.53 69.8498Z" fill="black"/>
<path d="M160.99 68.6599C161.43 71.2899 161.81 73.9199 162.13 76.5599C162.18 76.9899 162.46 77.3599 162.93 77.3599C163.32 77.3599 163.78 76.9899 163.73 76.5599C163.4 73.7699 163 70.9999 162.53 68.2299C162.46 67.7999 161.93 67.5599 161.54 67.6699C161.1 67.7999 160.92 68.2299 160.99 68.6599Z" fill="black"/>
<path d="M153.798 80.1853C155.472 79.2188 156.422 77.7297 155.919 76.8592C155.417 75.9887 153.652 76.0666 151.978 77.0331C150.304 77.9996 149.355 79.4887 149.857 80.3592C150.36 81.2297 152.124 81.1518 153.798 80.1853Z" fill="black"/>
<path d="M161.507 79.7555C163.181 78.789 164.13 77.2999 163.628 76.4294C163.125 75.5589 161.361 75.6368 159.687 76.6033C158.013 77.5698 157.063 79.0589 157.566 79.9294C158.068 80.7999 159.833 80.722 161.507 79.7555Z" fill="black"/>
<path d="M171.59 62.8698C171.76 65.5798 172.02 68.2898 172.37 70.9798C172.43 71.4098 172.7 71.7798 173.17 71.7798C173.56 71.7798 174.03 71.4098 173.97 70.9798C173.62 68.2898 173.35 65.5798 173.19 62.8698C173.13 61.8498 171.53 61.8398 171.59 62.8698Z" fill="black"/>
<path d="M171.674 73.8146C173.348 72.8481 174.297 71.3589 173.795 70.4885C173.292 69.618 171.528 69.6959 169.854 70.6624C168.18 71.6289 167.23 73.118 167.733 73.9885C168.235 74.8589 170 74.7811 171.674 73.8146Z" fill="black"/>
</g>
<defs>
<clipPath id="clip0_520_6463">
<rect width="200" height="200" fill="white"/>
</clipPath>
</defs>
</svg>
