<svg width="200" height="200" viewBox="0 0 200 200" fill="none" xmlns="http://www.w3.org/2000/svg">
<g clip-path="url(#clip0_520_6465)">
<path d="M100 200C155.228 200 200 155.228 200 100C200 44.7715 155.228 0 100 0C44.7715 0 0 44.7715 0 100C0 155.228 44.7715 200 100 200Z" fill="#CFA5CF"/>
<path d="M100 200C139.73 200 174.04 176.83 190.18 143.27C189.41 139.92 188.36 136.05 187.01 131.38C178.26 101.09 152.29 89.4601 124.8 80.6901C108.96 75.6301 91.3301 76.8001 68.0201 84.1501C46.2501 91.0101 30.7001 120.01 26.9801 143.87C25.5001 153.39 24.3901 160.67 25.3501 166.53C43.6701 187.07 70.3201 200 100 200Z" fill="#E7E6E6"/>
<path d="M128.95 80.9501L122.06 81.4901L107.36 114.8C107.36 114.8 111.76 122.38 121.23 120.98C130.7 119.58 130.48 106.55 130.78 100.64C131.21 92.1401 128.95 80.9501 128.95 80.9501Z" fill="#A1A2A2"/>
<path d="M80.3201 104.08C80.2101 109.78 81.4001 118.82 88.8201 120.65C96.2401 122.48 101.19 117.53 101.19 117.53L96.3501 101.93L80.3201 104.08Z" fill="#A1A2A2"/>
<path d="M132.63 72.5101C132.63 72.5101 134.33 62.0601 128.61 53.1301C122.52 43.6201 112.52 39.9301 97.7301 41.9901C82.9501 44.0401 76.8901 54.7601 74.3501 64.3501L114.63 70.9401L111.97 88.0501L121.5 87.9401L132.63 72.5101Z" fill="black"/>
<path d="M123.49 76.9601C123.49 76.9601 124.95 70.3401 129.03 69.5501C133.1 68.7601 134.59 71.4901 134.05 76.1701C133.51 80.8501 130.08 85.4301 125.28 84.1901C125.28 84.1901 123.34 91.2801 120.9 96.8301C117.72 104.1 112.79 112.59 103.42 121.38L95.2801 115.18C95.2801 115.18 80.3601 115.14 73.2001 101.05C66.0401 86.9601 75.1701 64.3901 75.1701 64.3901C75.1701 64.3901 77.8001 56.7901 83.4101 54.4501C89.0201 52.1101 88.1201 55.8801 91.7701 57.4301C95.4301 58.9801 103.68 55.8201 106.63 53.4601C109.58 51.1001 114.22 51.8701 116.1 54.3601C117.98 56.8501 117.52 60.3801 116.2 63.0301C114.88 65.6801 118.43 68.1401 118.56 69.7401C118.68 71.3401 117.32 77.3601 115.82 82.8201C114.33 88.2701 115.77 88.2301 118.66 87.6301C121.55 87.0301 121.48 83.6101 123.49 76.9601Z" fill="#F4A5AB"/>
<path d="M94.1503 80.5302C94.1303 80.6302 94.1003 80.7302 94.0703 80.8302C94.0203 80.9802 94.0403 80.8302 94.0803 80.8202C94.0703 80.8202 94.0103 80.9602 94.0003 80.9702C93.9703 81.0202 93.9403 81.0702 93.9103 81.1102C93.9003 81.1302 93.8003 81.2602 93.8703 81.1702C93.9403 81.0702 93.8403 81.2002 93.8203 81.2202C93.7803 81.2602 93.7403 81.3002 93.7003 81.3402C93.6703 81.3702 93.6303 81.4002 93.6003 81.4302C93.4803 81.5402 93.5803 81.4202 93.6003 81.4302C93.5803 81.4202 93.3703 81.5802 93.3403 81.5902C93.3103 81.6102 93.2503 81.6502 93.2203 81.6502C93.3103 81.6102 93.3303 81.6002 93.2803 81.6202C93.2503 81.6302 93.2303 81.6402 93.2003 81.6502C93.1603 81.6602 93.1103 81.6802 93.0703 81.6902C93.0503 81.7002 92.8403 81.7402 92.9403 81.7202C93.0403 81.7102 92.8503 81.7202 92.8303 81.7202C92.8103 81.7202 92.6603 81.7002 92.6503 81.7102C92.6903 81.6902 92.8203 81.7402 92.6703 81.7102C92.6303 81.7002 92.5803 81.6902 92.5403 81.6802C92.5003 81.6702 92.4203 81.6302 92.3803 81.6302C92.4503 81.6302 92.5003 81.6802 92.3903 81.6302C92.3503 81.6102 92.3103 81.5902 92.2703 81.5602C92.2403 81.5402 92.0703 81.4602 92.2503 81.5502C92.1703 81.5102 92.1003 81.4202 92.0503 81.3602C92.0203 81.3202 91.9603 81.2802 91.9403 81.2302C92.0203 81.3902 91.9603 81.2502 91.9303 81.2102C91.8903 81.1502 91.8003 81.0402 91.8003 80.9702C91.8403 81.0602 91.8503 81.0802 91.8303 81.0302C91.8203 81.0002 91.8103 80.9802 91.8003 80.9502C91.7803 80.9002 91.7703 80.8402 91.7603 80.7902C91.6703 80.3902 91.1903 80.1202 90.8003 80.2402C90.3803 80.3702 90.1503 80.7702 90.2503 81.2002C90.5403 82.4202 91.7403 83.4002 93.0203 83.2702C94.2903 83.1402 95.4003 82.1902 95.6603 80.9302C95.7403 80.5302 95.5403 80.0702 95.1103 79.9702C94.7103 79.9002 94.2403 80.1102 94.1503 80.5302Z" fill="black"/>
<path d="M90.3199 80.5901C90.1899 80.8001 90.0599 81.0001 89.9199 81.2101C89.8699 81.2901 89.9999 81.1201 89.9099 81.2301C89.8699 81.2801 89.8299 81.3301 89.7899 81.3701C89.7499 81.4201 89.6999 81.4601 89.6599 81.5001C89.6399 81.5101 89.5099 81.6201 89.5999 81.5601C89.6899 81.4901 89.5399 81.6001 89.5299 81.6101C89.4699 81.6501 89.4099 81.6801 89.3499 81.7101C89.4799 81.6401 89.2899 81.7301 89.2699 81.7401C89.1999 81.7601 89.1299 81.7801 89.0599 81.8001C88.9399 81.8301 88.8199 81.8501 88.6999 81.8801C88.5199 81.9201 88.7799 81.8801 88.6199 81.8901C88.5499 81.8901 88.4699 81.8901 88.3999 81.8901C88.2499 81.8901 88.4399 81.9101 88.3799 81.8901C88.3299 81.8701 88.2699 81.8601 88.2099 81.8401C88.1199 81.8201 88.3399 81.9101 88.2099 81.8401C88.1599 81.8101 88.1099 81.7801 88.0599 81.7501C87.8999 81.6601 88.1599 81.8601 88.0299 81.7301C87.9899 81.7001 87.9599 81.6601 87.9199 81.6301C87.8999 81.6101 87.7899 81.4601 87.8499 81.5501C87.9099 81.6401 87.8199 81.5001 87.8099 81.4801C87.7799 81.4301 87.7499 81.3801 87.7299 81.3301C87.7999 81.4701 87.7199 81.2901 87.7099 81.2601C87.6899 81.2101 87.6799 81.1501 87.6699 81.0901C87.6499 81.0201 87.6499 80.9501 87.6599 81.0601C87.6499 80.9201 87.6499 80.7901 87.6599 80.6501C87.6699 80.4801 87.6199 80.7601 87.6699 80.5801C87.6899 80.5101 87.6999 80.4501 87.7199 80.3801C87.8299 79.9901 87.5899 79.5101 87.1699 79.4201C86.7599 79.3301 86.3199 79.5401 86.2099 79.9701C86.0099 80.7201 86.0499 81.5401 86.4299 82.2201C86.7599 82.8101 87.3699 83.2901 88.0499 83.4001C88.7999 83.5301 89.7499 83.3401 90.3799 82.9101C90.9599 82.5201 91.3399 81.9601 91.6899 81.3701C91.8999 81.0201 91.7799 80.5001 91.4099 80.3001C91.0099 80.1101 90.5499 80.2101 90.3199 80.5901Z" fill="black"/>
<path d="M87.7 80.1901C87.89 77.5301 88.66 74.9601 89.41 72.4201C89.7 71.4501 88.19 71.0401 87.9 72.0001C87.1 74.6801 86.33 77.3801 86.13 80.1801C86.1 80.6001 86.51 80.9601 86.91 80.9601C87.37 80.9801 87.67 80.6201 87.7 80.1901Z" fill="black"/>
<path d="M107.67 63.97C106.49 62.44 104.86 61.48 102.91 61.31C101.08 61.15 99.19 61.93 97.91 63.22C97.42 63.71 97.38 64.61 97.91 65.1C98.44 65.59 99.27 65.63 99.79 65.1C99.9 64.98 100.02 64.88 100.14 64.77C100.22 64.7 100.27 64.68 100.16 64.75C100.23 64.7 100.29 64.66 100.36 64.61C100.51 64.51 100.67 64.42 100.83 64.34C100.9 64.3 100.98 64.27 101.05 64.23C101.23 64.14 100.88 64.28 101.07 64.22C101.38 64.13 101.69 64.04 102 63.97C102.2 63.92 101.8 63.98 102.01 63.97C102.09 63.97 102.17 63.96 102.25 63.95C102.43 63.94 102.61 63.94 102.8 63.95C102.88 63.95 102.96 63.96 103.04 63.97C102.91 63.96 102.91 63.95 103.04 63.97C103.19 64 103.35 64.03 103.5 64.08C103.65 64.12 103.8 64.18 103.95 64.23C103.83 64.19 103.85 64.18 103.96 64.24C104.03 64.27 104.1 64.31 104.17 64.34C104.31 64.41 104.45 64.49 104.58 64.58C104.66 64.63 104.74 64.69 104.82 64.75C104.98 64.86 104.69 64.62 104.83 64.76C104.94 64.87 105.07 64.97 105.18 65.08C105.24 65.14 105.29 65.19 105.34 65.25C105.37 65.29 105.55 65.5 105.39 65.3C105.81 65.85 106.55 66.2 107.21 65.78C107.74 65.44 108.13 64.56 107.67 63.97Z" fill="black"/>
<path d="M87.4201 63.7001C86.1301 62.6101 84.5201 61.9501 82.8201 61.9601C81.1101 61.9701 79.5101 62.6301 78.2301 63.7401C77.7001 64.2001 77.7301 65.1601 78.2301 65.6201C78.7901 66.1401 79.5501 66.1101 80.1101 65.6201C80.1701 65.5701 80.2301 65.5101 80.2901 65.4601C80.1801 65.5401 80.1901 65.5401 80.3101 65.4501C80.4501 65.3601 80.5801 65.2701 80.7201 65.1901C80.8401 65.1201 80.9701 65.0501 81.0901 64.9901C81.1401 64.9601 81.2001 64.9401 81.2501 64.9101C81.1201 64.9701 81.1201 64.9601 81.2701 64.9101C81.5801 64.8101 81.8801 64.7301 82.2001 64.6501C82.4801 64.5901 82.0101 64.6501 82.3301 64.6301C82.4901 64.6201 82.6501 64.6101 82.8101 64.6101C82.9701 64.6101 83.1301 64.6201 83.2901 64.6301C83.6701 64.6501 83.0401 64.5701 83.4201 64.6401C83.7401 64.7001 84.0501 64.7801 84.3501 64.8901C84.4201 64.9101 84.6901 65.0401 84.4801 64.9401C84.6301 65.0101 84.7701 65.0801 84.9101 65.1601C85.0501 65.2401 85.1901 65.3201 85.3201 65.4201C85.3901 65.4701 85.4501 65.5101 85.5201 65.5601C85.4101 65.4801 85.4101 65.4801 85.5301 65.5801C86.0601 66.0301 86.9001 66.1401 87.4101 65.5801C87.8801 65.0801 87.9901 64.1801 87.4201 63.7001Z" fill="black"/>
<path d="M103.22 113.04C98.4201 114.04 93.1901 113.61 88.5101 112.23C83.7701 110.83 79.3301 107.61 76.1001 103.9C72.2701 99.5001 71.1501 92.9601 71.1901 87.3001C71.2101 84.0701 71.6701 80.8701 72.2701 77.7101C72.7201 75.3801 73.1401 73.0101 73.8301 70.7301C75.2501 66.0401 77.1201 61.2201 79.7601 57.0801C80.6801 55.6301 78.3801 54.3001 77.4701 55.7401C74.8701 59.8201 73.0501 64.5301 71.5601 69.1101C70.8201 71.3801 70.3701 73.7301 69.9001 76.0601C69.2201 79.4501 68.6701 82.8901 68.5601 86.3401C68.3601 92.4701 69.4601 99.5801 73.2701 104.58C75.0501 106.91 77.2801 108.8 79.6301 110.53C81.6801 112.04 83.7301 113.33 86.1301 114.22C91.6701 116.26 98.1501 116.8 103.94 115.58C105.6 115.25 104.89 112.68 103.22 113.04Z" fill="black"/>
<path d="M101.39 105.47C98.6601 106.82 95.4701 106.99 92.5901 106C91.6401 105.67 91.2301 107.18 92.1701 107.51C95.4501 108.63 99.0701 108.35 102.17 106.82C103.07 106.37 102.28 105.02 101.39 105.47Z" fill="black"/>
<path d="M130.25 73.9502C128.79 74.0402 127.36 74.8902 126.71 76.2302C126.04 77.6102 126.15 79.3402 127.08 80.5702C127.33 80.9102 127.75 81.0802 128.15 80.8502C128.48 80.6602 128.69 80.1202 128.43 79.7802C128.35 79.6702 128.27 79.5502 128.2 79.4302C128.16 79.3602 128.12 79.2802 128.08 79.2102C128.07 79.1902 128.03 79.0902 128.06 79.1702C128 79.0302 127.96 78.8802 127.92 78.7302C127.9 78.6602 127.89 78.5902 127.87 78.5302C127.84 78.4102 127.86 78.5202 127.86 78.4502C127.8 77.9302 127.86 77.4102 128.06 77.0202C128.19 76.7802 128.31 76.5902 128.43 76.4502C128.52 76.3502 128.61 76.2602 128.71 76.1702C128.71 76.1702 128.86 76.0402 128.82 76.0802C128.77 76.1202 128.92 76.0102 128.93 76.0002C129.04 75.9302 129.16 75.8602 129.27 75.7902C129.34 75.7502 129.41 75.7202 129.49 75.6902C129.39 75.7302 129.53 75.6802 129.56 75.6702C129.69 75.6302 129.81 75.5902 129.94 75.5602C130 75.5502 130.07 75.5302 130.14 75.5202C130.01 75.5402 130.23 75.5202 130.25 75.5202C130.67 75.4902 131.03 75.1802 131.03 74.7402C131.03 74.3302 130.68 73.9202 130.25 73.9502Z" fill="black"/>
<path d="M98.9801 85.8602C98.1001 87.7802 98.7001 90.0902 100.42 91.3202C100.75 91.5602 101.3 91.3902 101.49 91.0402C101.7 90.6402 101.57 90.2302 101.21 89.9702C101.09 89.8802 101.27 90.0302 101.2 89.9702C101.16 89.9402 101.12 89.9102 101.09 89.8702C101.02 89.8102 100.96 89.7502 100.9 89.6802C100.84 89.6102 100.78 89.5402 100.72 89.4802C100.83 89.6102 100.74 89.5102 100.72 89.4702C100.69 89.4302 100.66 89.3902 100.64 89.3502C100.54 89.1902 100.45 89.0202 100.37 88.8502C100.32 88.7502 100.43 89.0202 100.37 88.8402C100.36 88.8002 100.34 88.7702 100.33 88.7302C100.3 88.6402 100.27 88.5402 100.24 88.4402C100.22 88.3502 100.2 88.2602 100.18 88.1802C100.18 88.1602 100.15 88.0302 100.15 88.0302C100.15 88.0302 100.17 88.1902 100.16 88.0602C100.14 87.8702 100.14 87.6802 100.15 87.4902C100.15 87.4402 100.16 87.3902 100.16 87.3402C100.17 87.1902 100.14 87.4402 100.16 87.3402C100.18 87.2502 100.19 87.1602 100.21 87.0802C100.23 86.9802 100.26 86.8902 100.29 86.7902C100.3 86.7502 100.32 86.7102 100.33 86.6802C100.4 86.4902 100.26 86.8302 100.35 86.6502C100.52 86.2802 100.47 85.7902 100.07 85.5802C99.7101 85.4002 99.1601 85.4602 98.9801 85.8602Z" fill="black"/>
<path d="M96.7703 92.0802C96.5003 92.1802 96.2203 92.2602 95.9403 92.3302C95.8203 92.3602 95.7003 92.3802 95.5703 92.4002C95.5303 92.4102 95.4903 92.4102 95.4503 92.4202C95.5503 92.4102 95.5603 92.4002 95.4703 92.4202C95.4103 92.4302 95.3503 92.4302 95.2803 92.4402C95.0103 92.4602 94.7403 92.4702 94.4703 92.4602C94.3203 92.4502 94.1803 92.4402 94.0403 92.4302C93.8303 92.4102 94.2103 92.4602 94.0003 92.4302C93.9203 92.4202 93.8403 92.4002 93.7603 92.3902C93.3603 92.3102 92.9003 92.5002 92.8003 92.9402C92.7103 93.3202 92.9203 93.8202 93.3503 93.9002C94.6303 94.1402 95.9603 94.0702 97.1903 93.6102C97.5703 93.4702 97.8703 93.0702 97.7403 92.6502C97.6103 92.2502 97.1803 91.9202 96.7703 92.0802Z" fill="black"/>
<path d="M102.06 121.23C98.5599 141.2 97.8799 161.71 98.2299 181.95C98.3299 187.42 98.5199 192.89 98.8299 198.36C98.9099 199.85 101.24 199.86 101.15 198.36C100.02 178.28 100.15 158.01 102.13 137.99C102.66 132.59 103.36 127.2 104.3 121.85C104.56 120.38 102.32 119.75 102.06 121.23Z" fill="#A1A2A2"/>
<path d="M93.5402 140.48C97.1802 140.48 97.1802 134.83 93.5402 134.83C89.9102 134.83 89.9002 140.48 93.5402 140.48Z" fill="black"/>
<path d="M91.69 181.04C95.33 181.04 95.33 175.39 91.69 175.39C88.05 175.38 88.05 181.04 91.69 181.04Z" fill="black"/>
<path d="M152.72 133.88C155.67 146.07 158.28 158.45 158.31 171.04C158.31 172.08 159.93 172.08 159.92 171.04C159.89 158.31 157.25 145.77 154.27 133.45C154.03 132.45 152.47 132.87 152.72 133.88Z" fill="black"/>
<path d="M150.74 146.08C152.08 147.66 153.96 148.79 155.98 149.26C156.39 149.35 156.87 149.13 156.97 148.7C157.06 148.29 156.85 147.81 156.41 147.71C155.95 147.6 155.5 147.46 155.06 147.29C155.01 147.27 154.96 147.25 155.04 147.28C154.98 147.25 154.92 147.23 154.86 147.2C154.75 147.15 154.65 147.1 154.54 147.05C154.33 146.94 154.12 146.83 153.92 146.71C153.73 146.59 153.54 146.47 153.36 146.34C153.31 146.3 153.25 146.26 153.2 146.22C153.16 146.19 153.11 146.15 153.18 146.2C153.09 146.13 153 146.05 152.91 145.98C152.54 145.66 152.2 145.32 151.89 144.95C151.62 144.63 151.03 144.65 150.75 144.95C150.42 145.28 150.45 145.73 150.74 146.08Z" fill="black"/>
<path d="M88.6999 89.8601C90.2499 90.8801 92.4499 91.0901 94.2599 91.0301C96.0999 90.9601 97.8699 90.4401 99.2799 89.2301C100.04 88.5801 98.9399 87.4801 98.1799 88.1301C97.0599 89.0901 95.5599 89.4401 94.1199 89.4701C92.5999 89.5001 90.7899 89.3601 89.4899 88.5101C88.6499 87.9601 87.8599 89.3201 88.6999 89.8601Z" fill="black"/>
<path d="M106.46 71.5701C106.54 70.3501 105.14 69.5101 104.73 69.3201C103.84 68.9001 102.52 68.4801 100.79 68.6101C97.9601 68.8101 97.2701 70.1601 97.1301 70.8801C97.0101 71.4901 97.1601 72.6201 98.0601 72.9201C98.5501 73.0801 99.5801 72.9501 101.43 73.0101C103.19 73.0601 104.34 73.2301 104.89 73.0901C105.45 72.9301 106.38 72.8801 106.46 71.5701Z" fill="white"/>
<path d="M101.78 72.6302C103.77 72.6302 103.77 69.5402 101.78 69.5402C99.7901 69.5402 99.7901 72.6302 101.78 72.6302Z" fill="black"/>
<path d="M77.1399 71.0101C77.4199 69.8301 78.5899 69.0501 79.0099 68.8901C79.9299 68.5401 80.9199 68.4101 82.6299 68.6601C85.4399 69.0601 85.9299 70.0401 86.1299 70.8301C86.2799 71.4301 86.0499 72.3401 85.1299 72.5701C84.6299 72.7001 83.5399 72.6601 81.8099 72.6901C80.0499 72.7201 78.5999 72.8201 78.0599 72.6401C77.5199 72.4601 76.8799 72.1101 77.1399 71.0101Z" fill="white"/>
<path d="M82.2101 72.4001C84.2001 72.4001 84.2001 69.3101 82.2101 69.3101C80.2201 69.3101 80.2101 72.4001 82.2101 72.4001Z" fill="black"/>
<path d="M58.2002 152.24C53.6602 143.66 40.3202 137.94 31.7802 140.46C25.2502 142.39 18.6502 147.67 16.4302 154.93C23.2102 165.22 31.8402 174.19 41.8502 181.36C42.6802 181.21 43.5202 181.02 44.3802 180.78C61.3702 176.07 62.7402 160.82 58.2002 152.24Z" fill="#A1A2A2"/>
<path d="M41.51 172.97C14.33 178.24 19.28 125.89 18.8 122.75C17.96 117.21 16.76 108.79 16.55 104.59C16.23 98.0002 14.59 82.4802 15.6 79.9502C16.53 77.6202 17.45 77.3102 17.45 77.3102C17.45 77.3102 17.18 74.7502 17.7 73.4902C18.53 71.4902 20.04 71.4902 20.04 71.4902C20.04 71.4902 19.61 69.4302 21.46 68.2602C23.32 67.0902 24.65 68.1802 25.37 68.7102C26.46 69.5002 27.27 71.7702 27.27 71.7702C27.27 71.7702 28.45 70.0602 30.56 71.0202C36.38 73.6802 38.95 95.3702 38.95 95.3702C38.95 95.3702 45.9 98.2502 46.26 104.94C46.75 114.16 39.01 119.38 39.01 119.38C39.01 119.38 49.23 140.21 51.42 146.85C53.61 153.49 59.03 169.58 41.51 172.97Z" fill="#F6A6AC"/>
<path d="M35.51 103.49C32.01 106.21 30.33 110.85 31.12 115.19C31.3 116.17 32.79 115.75 32.61 114.78C31.91 110.96 33.55 106.95 36.6 104.59C36.93 104.33 36.87 103.77 36.6 103.49C36.29 103.16 35.84 103.24 35.51 103.49Z" fill="black"/>
<path d="M23.5803 93.4902C25.4403 94.2502 26.0403 96.8602 26.1203 98.6402C26.2103 100.79 25.6103 102.88 24.4003 104.66C23.8403 105.49 25.1803 106.26 25.7403 105.44C27.1903 103.3 27.8803 100.63 27.6203 98.0502C27.3803 95.6202 26.4103 92.9802 23.9903 91.9902C23.0703 91.6102 22.6703 93.1102 23.5803 93.4902Z" fill="black"/>
<path d="M39.6303 95.1502C38.5103 94.3702 37.1403 93.6902 35.7603 93.6202C34.6403 93.5602 33.5103 93.9502 32.6403 94.6602C30.5703 96.3602 31.2303 99.6902 32.8803 101.41C33.9803 102.55 35.4003 103.46 36.7503 104.26C37.6103 104.77 38.3903 103.43 37.5303 102.92C36.2803 102.18 34.9803 101.36 33.9703 100.31C33.1303 99.4302 32.6103 98.0002 33.0203 96.8102C33.2003 96.3002 33.3703 96.0202 33.7203 95.7602C34.1103 95.4602 34.6003 95.2702 35.0803 95.1902C36.4103 94.9802 37.7803 95.7502 38.8403 96.4802C39.6703 97.0602 40.4503 95.7202 39.6303 95.1502Z" fill="black"/>
<path d="M17.7899 78.7902C18.9299 78.4602 19.8799 79.3702 20.3199 80.3302C20.8899 81.5702 20.9999 83.0502 21.2299 84.3902C21.7299 87.2802 22.2299 90.1802 22.7299 93.0702C22.8999 94.0502 24.3899 93.6402 24.2199 92.6602C23.6199 89.2002 23.0299 85.7402 22.4199 82.2902C22.1699 80.8902 21.8399 79.4102 20.8199 78.3402C19.9299 77.4102 18.6199 76.9302 17.3599 77.3002C16.4199 77.5702 16.8299 79.0702 17.7899 78.7902Z" fill="black"/>
<path d="M20.6101 72.9402C23.5001 73.5102 24.3601 77.5602 24.9101 79.9502C25.6501 83.1602 26.1101 86.4502 26.6701 89.7002C26.8401 90.6802 28.3301 90.2702 28.1601 89.2902C27.5301 85.6302 27.0701 81.8902 26.0901 78.3102C25.3601 75.6302 24.1201 72.0702 21.0201 71.4502C20.0401 71.2502 19.6301 72.7402 20.6101 72.9402Z" fill="black"/>
<path d="M27.4302 71.7302C29.5302 77.4202 30.7602 83.3902 31.0702 89.4502C31.1202 90.4402 32.6702 90.4502 32.6202 89.4502C32.3102 83.2502 31.0702 77.1402 28.9202 71.3202C28.5902 70.3902 27.0902 70.7902 27.4302 71.7302Z" fill="black"/>
<path d="M24.7999 92.7902C27.5499 91.1402 30.7499 90.4802 33.9299 90.8802C34.3499 90.9302 34.6999 90.4902 34.6999 90.1102C34.6999 89.6502 34.3399 89.3902 33.9299 89.3402C30.4999 88.9102 26.9799 89.6802 24.0199 91.4602C23.1699 91.9602 23.9399 93.3002 24.7999 92.7902Z" fill="black"/>
<path d="M35.7102 121.47C36.9902 121.38 38.2302 121.01 39.3302 120.36C39.6802 120.15 39.8402 119.65 39.6102 119.3C39.3802 118.95 38.9202 118.8 38.5502 119.02C38.3002 119.16 38.0502 119.3 37.7902 119.41C37.7502 119.43 37.6002 119.52 37.7702 119.42C37.7102 119.46 37.6302 119.48 37.5602 119.5C37.4402 119.55 37.3102 119.59 37.1802 119.63C36.9302 119.71 36.6702 119.77 36.4102 119.83C36.2802 119.86 36.1502 119.89 36.0202 119.9C36.2502 119.89 35.9902 119.9 35.9402 119.91C35.8602 119.92 35.7902 119.92 35.7102 119.93C35.3102 119.96 34.9202 120.27 34.9402 120.7C34.9502 121.09 35.2802 121.51 35.7102 121.47Z" fill="black"/>
<path fill-rule="evenodd" clip-rule="evenodd" d="M96.4499 154.13C96.4499 154.13 90.1599 154.18 85.7599 153.48C81.3599 152.79 80.0199 159.01 86.5399 160.53C90.1899 161.38 91.1499 160.56 91.1499 160.56C88.4499 161.94 89.8599 164.74 92.6599 165.73C94.0499 166.22 95.7199 165.81 97.5199 165.46C96.5899 167.93 97.7199 172.3 106.01 168.64C106.01 168.64 104.8 172.26 110.03 172.26C115.26 172.26 135.19 163.84 135.19 163.84L123.62 156.01L97.0799 152.95L96.4499 154.13Z" fill="#F8A9AF"/>
<path d="M153.21 140.48C147.38 142.6 141.46 149.54 142.28 158.73C143.1 167.93 150.2 178.35 161.8 174.38C173.4 170.42 174.33 157.59 171.23 150.38C168.14 143.17 159.04 138.36 153.21 140.48Z" fill="#A1A2A2"/>
<path fill-rule="evenodd" clip-rule="evenodd" d="M90.6798 147.43C91.8798 145.82 92.6198 145.42 98.8998 147.25C105.18 149.08 109.46 147.3 113.25 146.71C117.05 146.12 123.43 145.3 129.15 147.03C129.15 147.03 144.49 143.36 154.66 144.07C159.64 144.42 162.48 147.24 163.41 149.3C166.23 155.55 166.07 163.57 158.95 168.79C151.83 174.01 138.22 162.17 135.2 163.85C131.44 165.95 128.96 164.86 123.46 166.18C123.46 166.18 115.78 163.49 116.76 160.92C117.74 158.35 112.52 157.53 106.45 156.79C100.38 156.05 100.13 156.52 95.5698 154.13C91.0198 151.74 89.5798 149.35 90.6798 147.43Z" fill="#F8A9AF"/>
<path fill-rule="evenodd" clip-rule="evenodd" d="M132.59 147.94C131.7 147.36 130.74 146.88 129.74 146.51C129.39 146.38 128.95 146.47 128.78 146.84C128.64 147.17 128.74 147.66 129.11 147.8C130.11 148.17 131.07 148.65 131.96 149.23C132.1 149.32 132.36 149.31 132.52 149.26C132.68 149.2 132.85 149.06 132.92 148.9C132.99 148.73 133.02 148.52 132.95 148.34C132.87 148.15 132.75 148.04 132.59 147.94Z" fill="black"/>
<path d="M91.4198 161.09C97.3998 160.81 103.35 160.02 109.19 158.72C110.15 158.51 109.74 157.04 108.78 157.25C103.06 158.51 97.2599 159.29 91.4099 159.56C90.4399 159.61 90.4398 161.14 91.4198 161.09Z" fill="black"/>
<path d="M97.4901 166.44C101.93 165.68 106.31 164.65 110.62 163.34C111.56 163.06 111.16 161.58 110.21 161.87C105.9 163.17 101.51 164.21 97.0801 164.97C96.1201 165.13 96.5301 166.6 97.4901 166.44Z" fill="black"/>
<path d="M106.53 169.96C109.39 169.14 112.22 168.23 115.02 167.23C115.41 167.09 115.67 166.71 115.55 166.29C115.45 165.92 115 165.62 114.61 165.76C111.81 166.76 108.98 167.67 106.12 168.49C105.18 168.76 105.58 170.23 106.53 169.96Z" fill="black"/>
<path d="M106.87 138.47C108.25 139.87 109.73 141.18 111.28 142.38C111.36 142.44 111.45 142.51 111.55 142.51C111.66 142.51 114.42 136.34 114.36 136.28C114.37 136.29 108.79 137.97 106.87 138.47Z" fill="white"/>
<path d="M105.75 139.59C106.99 140.84 108.29 142.02 109.67 143.11C110.1 143.45 110.51 143.84 111.04 144.02C111.77 144.26 112.54 143.93 112.94 143.3C113.03 143.16 113.1 143.01 113.17 142.87C113.9 141.39 114.56 139.87 115.22 138.36C115.41 137.93 115.59 137.5 115.77 137.06C115.92 136.69 116.05 136.27 115.9 135.87C115.59 135.09 114.85 134.5 113.96 134.77C111.47 135.52 108.98 136.29 106.46 136.95C105.66 137.16 105.1 138.09 105.36 138.89C105.63 139.71 106.45 140.22 107.3 139.99C109.82 139.33 112.31 138.56 114.8 137.81C114.15 137.44 113.5 137.07 112.86 136.71C112.85 136.69 112.88 135.85 112.86 135.9C112.85 135.91 112.85 135.93 112.85 135.94C112.83 135.99 112.81 136.04 112.79 136.09C112.76 136.15 112.74 136.22 112.71 136.28C112.69 136.32 112.68 136.36 112.66 136.4C112.59 136.58 112.84 135.97 112.74 136.22C112.53 136.71 112.32 137.2 112.1 137.68C111.62 138.76 111.14 139.84 110.63 140.9C110.54 141.08 110.45 141.27 110.36 141.45C110.33 141.51 110.29 141.57 110.27 141.63C110.18 141.85 110.48 141.38 110.46 141.39C110.69 141.25 110.92 141.12 111.16 140.98C111.44 140.98 111.72 140.98 112 140.98C112.07 141 112.48 141.3 112.21 141.08C112.12 141.01 112.03 140.94 111.93 140.86C111.73 140.7 111.53 140.54 111.33 140.37C110.95 140.06 110.58 139.74 110.21 139.41C109.46 138.74 108.72 138.05 108.02 137.33C107.44 136.74 106.36 136.7 105.79 137.33C105.17 137.99 105.13 138.96 105.75 139.59Z" fill="white"/>
<path d="M43.3399 105.65C45.8999 103.24 49.4399 101.65 52.6899 100.44C57.4099 98.6902 62.3599 97.8302 67.3899 98.0002C74.6099 98.2402 81.6299 100.34 87.7199 104.23C97.1499 110.25 104.12 120.11 107.83 130.58C108.47 132.38 109.03 134.23 109.37 136.11C109.48 136.74 109.54 136.99 109.55 137.75C109.55 137.98 109.53 138.4 109.54 138.12C109.52 138.48 109.51 138.21 109.65 138.07C108.73 139.11 110.25 140.64 111.18 139.6C111.86 138.84 111.75 137.69 111.64 136.76C111.45 135.08 111.02 133.43 110.53 131.82C109.02 126.94 106.77 122.25 104.02 117.95C100.51 112.44 96.0799 107.51 90.7699 103.69C84.6899 99.3202 77.5399 96.7102 70.0899 96.0102C64.3699 95.4802 58.6399 96.1202 53.1999 97.9802C49.2199 99.3402 44.9299 101.2 41.8199 104.13C40.7899 105.08 42.3199 106.61 43.3399 105.65Z" fill="white"/>
<path fill-rule="evenodd" clip-rule="evenodd" d="M133.05 86.8501C133.05 86.8501 129.13 78.7101 132.11 69.3701C132.3 68.6301 132.5 67.8901 132.74 67.1301C138.58 48.8701 168.4 43.1401 179.81 64.0401C191.22 84.9201 167.67 111.03 143.42 98.4001C142.2 97.7701 140.67 96.7301 139.11 95.3001C136.77 96.3401 132.92 97.1401 128.63 94.3301C127.72 93.7401 127.78 92.3801 128.75 91.8801C131.1 90.6501 133.05 86.8501 133.05 86.8501Z" fill="#F6F8F9"/>
<path d="M143.49 67.0801C144.11 69.8601 144.74 72.6401 145.36 75.4301C145.59 76.4401 147.13 76.0101 146.91 75.0001C146.29 72.2201 145.66 69.4401 145.04 66.6501C144.81 65.6501 143.26 66.0701 143.49 67.0801Z" fill="black"/>
<path d="M144.451 79.0985C146.426 77.958 147.546 76.1999 146.952 75.1716C146.359 74.1433 144.276 74.2342 142.301 75.3747C140.325 76.5152 139.205 78.2733 139.799 79.3016C140.393 80.3299 142.475 80.239 144.451 79.0985Z" fill="black"/>
<path d="M143.59 67.1601C143.88 67.6601 144.35 67.9801 144.89 68.1801C145.34 68.3601 145.83 68.4001 146.3 68.5401C146.36 68.5601 146.41 68.5801 146.47 68.6001C146.64 68.6601 146.47 68.6101 146.48 68.6001C146.48 68.6001 146.73 68.7301 146.74 68.7401C146.79 68.7701 146.84 68.8001 146.89 68.8401C147.01 68.9201 146.82 68.7801 146.89 68.8401C146.96 68.9101 147.04 68.9701 147.11 69.0401C147.14 69.0801 147.18 69.1101 147.21 69.1501C147.25 69.1901 147.37 69.2901 147.23 69.1701C147.3 69.2301 147.35 69.3401 147.39 69.4201C147.41 69.4501 147.51 69.6801 147.52 69.6801C147.48 69.5901 147.47 69.5701 147.49 69.6301C147.5 69.6601 147.51 69.6901 147.52 69.7101C147.54 69.7701 147.55 69.8201 147.57 69.8801C147.68 70.2801 148.15 70.5701 148.56 70.4401C148.98 70.3101 149.24 69.8901 149.12 69.4501C148.87 68.5001 148.18 67.6401 147.28 67.2201C146.78 66.9901 146.26 66.9101 145.73 66.7801C145.62 66.7501 145.5 66.7201 145.39 66.6801C145.23 66.6201 145.37 66.6901 145.39 66.6801C145.38 66.6901 145.24 66.6001 145.23 66.6001C145.19 66.5801 145.15 66.5501 145.1 66.5201C145.02 66.4701 145.2 66.6201 145.1 66.5201C145.09 66.5101 144.97 66.4001 144.98 66.3901C145 66.4101 145.02 66.4401 145.03 66.4601C145.01 66.4301 144.99 66.3901 144.97 66.3601C144.76 66.0001 144.24 65.8401 143.87 66.0701C143.51 66.3001 143.36 66.7701 143.59 67.1601Z" fill="black"/>
<path d="M153.3 74.59C153.47 77.3 153.73 80.01 154.08 82.7C154.14 83.13 154.41 83.5 154.88 83.5C155.27 83.5 155.74 83.13 155.68 82.7C155.33 80.01 155.06 77.3 154.9 74.59C154.84 73.57 153.24 73.56 153.3 74.59Z" fill="black"/>
<path d="M154.12 75.2101C156.51 75.0001 158.9 74.7901 161.3 74.5801C161.73 74.5401 162.1 74.2401 162.1 73.7801C162.1 73.3801 161.73 72.9401 161.3 72.9801C158.91 73.1901 156.52 73.4001 154.12 73.6101C153.69 73.6501 153.32 73.9501 153.32 74.4101C153.32 74.8101 153.68 75.2501 154.12 75.2101Z" fill="black"/>
<path d="M160.58 74.0101C161.02 76.6401 161.4 79.2701 161.72 81.9101C161.77 82.3401 162.05 82.7101 162.52 82.7101C162.91 82.7101 163.37 82.3401 163.32 81.9101C162.99 79.1201 162.59 76.3501 162.12 73.5801C162.05 73.1501 161.52 72.9101 161.13 73.0201C160.69 73.1501 160.51 73.5901 160.58 74.0101Z" fill="black"/>
<path d="M153.385 85.5352C155.059 84.5687 156.009 83.0795 155.506 82.2091C155.004 81.3386 153.239 81.4164 151.565 82.3829C149.891 83.3494 148.942 84.8386 149.444 85.7091C149.947 86.5795 151.711 86.5017 153.385 85.5352Z" fill="black"/>
<path d="M161.099 85.1139C162.773 84.1474 163.722 82.6583 163.22 81.7878C162.717 80.9173 160.953 80.9952 159.279 81.9617C157.605 82.9282 156.655 84.4173 157.158 85.2878C157.66 86.1583 159.425 86.0804 161.099 85.1139Z" fill="black"/>
<path d="M171.18 68.2301C171.35 70.9401 171.61 73.6501 171.96 76.3401C172.02 76.7701 172.29 77.1401 172.76 77.1401C173.15 77.1401 173.62 76.7701 173.56 76.3401C173.21 73.6501 172.94 70.9401 172.78 68.2301C172.72 67.2001 171.11 67.2001 171.18 68.2301Z" fill="black"/>
<path d="M171.266 79.173C172.94 78.2065 173.889 76.7173 173.387 75.8469C172.884 74.9764 171.12 75.0543 169.446 76.0208C167.772 76.9873 166.822 78.4764 167.325 79.3469C167.827 80.2173 169.592 80.1395 171.266 79.173Z" fill="black"/>
</g>
<defs>
<clipPath id="clip0_520_6465">
<rect width="200" height="200" fill="white"/>
</clipPath>
</defs>
</svg>
