<svg width="64" height="64" viewBox="0 0 64 64" fill="none" xmlns="http://www.w3.org/2000/svg">
<g clip-path="url(#clip0_712_10922)">
<path d="M32 64C49.6731 64 64 49.6731 64 32C64 14.3269 49.6731 0 32 0C14.3269 0 0 14.3269 0 32C0 49.6731 14.3269 64 32 64Z" fill="#CFA5CF"/>
<path d="M31.9999 63.9999C44.7135 63.9999 55.6927 56.5855 60.8575 45.8463C60.6111 44.7743 60.2751 43.5359 59.8431 42.0415C57.0431 32.3487 48.7327 28.6271 39.9359 25.8207C34.8671 24.2015 29.2255 24.5759 21.7663 26.9279C14.7999 29.1231 9.82391 38.4031 8.63351 46.0383C8.15991 49.0847 7.80471 51.4143 8.11191 53.2895C13.9743 59.8623 22.5023 63.9999 31.9999 63.9999Z" fill="#E7E6E6"/>
<path d="M41.2638 25.9041L39.059 26.0769L34.355 36.7361C34.355 36.7361 35.763 39.1617 38.7934 38.7137C41.8238 38.2657 41.7534 34.0961 41.8494 32.2049C41.987 29.4849 41.2638 25.9041 41.2638 25.9041Z" fill="#A1A2A2"/>
<path d="M25.7023 33.3057C25.6671 35.1297 26.0479 38.0225 28.4223 38.6081C30.7967 39.1937 32.3807 37.6097 32.3807 37.6097L30.8319 32.6177L25.7023 33.3057Z" fill="#A1A2A2"/>
<path d="M42.4416 23.2032C42.4416 23.2032 42.9856 19.8592 41.1552 17.0016C39.2064 13.9584 36.0064 12.7776 31.2736 13.4368C26.544 14.0928 24.6048 17.5232 23.792 20.592L36.6816 22.7008L35.8304 28.176L38.88 28.1408L42.4416 23.2032Z" fill="black"/>
<path d="M39.5168 24.6271C39.5168 24.6271 39.984 22.5087 41.2896 22.2559C42.592 22.0031 43.0688 22.8767 42.896 24.3743C42.7232 25.8719 41.6256 27.3375 40.0896 26.9407C40.0896 26.9407 39.4688 29.2095 38.688 30.9855C37.6704 33.3119 36.0928 36.0287 33.0944 38.8415L30.4896 36.8575C30.4896 36.8575 25.7152 36.8447 23.424 32.3359C21.1328 27.8271 24.0544 20.6047 24.0544 20.6047C24.0544 20.6047 24.896 18.1727 26.6912 17.4239C28.4864 16.6751 28.1984 17.8815 29.3664 18.3775C30.5376 18.8735 33.1776 17.8623 34.1216 17.1071C35.0656 16.3519 36.5504 16.5983 37.152 17.3951C37.7536 18.1919 37.6064 19.3215 37.184 20.1695C36.7616 21.0175 37.8976 21.8047 37.9392 22.3167C37.9776 22.8287 37.5424 24.7551 37.0624 26.5023C36.5856 28.2463 37.0464 28.2335 37.9712 28.0415C38.896 27.8495 38.8736 26.7551 39.5168 24.6271Z" fill="#F4A5AB"/>
<path d="M30.128 25.7696C30.1216 25.8016 30.112 25.8336 30.1024 25.8656C30.0864 25.9136 30.0928 25.8656 30.1056 25.8624C30.1024 25.8624 30.0832 25.9072 30.08 25.9104C30.0704 25.9264 30.0608 25.9424 30.0512 25.9552C30.048 25.9616 30.016 26.0032 30.0384 25.9744C30.0608 25.9424 30.0288 25.984 30.0224 25.9904C30.0096 26.0032 29.9968 26.016 29.984 26.0288C29.9744 26.0384 29.9616 26.048 29.952 26.0576C29.9136 26.0928 29.9456 26.0544 29.952 26.0576C29.9456 26.0544 29.8784 26.1056 29.8688 26.1088C29.8592 26.1152 29.84 26.128 29.8304 26.128C29.8592 26.1152 29.8656 26.112 29.8496 26.1184C29.84 26.1216 29.8336 26.1248 29.824 26.128C29.8112 26.1312 29.7952 26.1376 29.7824 26.1408C29.776 26.144 29.7088 26.1568 29.7408 26.1504C29.7728 26.1472 29.712 26.1504 29.7056 26.1504C29.6992 26.1504 29.6512 26.144 29.648 26.1472C29.6608 26.1408 29.7024 26.1568 29.6544 26.1472C29.6416 26.144 29.6256 26.1408 29.6128 26.1376C29.6 26.1344 29.5744 26.1216 29.5616 26.1216C29.584 26.1216 29.6 26.1376 29.5648 26.1216C29.552 26.1152 29.5392 26.1088 29.5264 26.0992C29.5168 26.0928 29.4624 26.0672 29.52 26.096C29.4944 26.0832 29.472 26.0544 29.456 26.0352C29.4464 26.0224 29.4272 26.0096 29.4208 25.9936C29.4464 26.0448 29.4272 26 29.4176 25.9872C29.4048 25.968 29.376 25.9328 29.376 25.9104C29.3888 25.9392 29.392 25.9456 29.3856 25.9296C29.3824 25.92 29.3792 25.9136 29.376 25.904C29.3696 25.888 29.3664 25.8688 29.3632 25.8528C29.3344 25.7248 29.1808 25.6384 29.056 25.6768C28.9216 25.7184 28.848 25.8464 28.88 25.984C28.9728 26.3744 29.3568 26.688 29.7664 26.6464C30.1728 26.6048 30.528 26.3008 30.6112 25.8976C30.6368 25.7696 30.5728 25.6224 30.4352 25.5904C30.3072 25.568 30.1568 25.6352 30.128 25.7696Z" fill="black"/>
<path d="M28.9025 25.7887C28.8609 25.8559 28.8193 25.9199 28.7745 25.9871C28.7585 26.0127 28.8001 25.9583 28.7713 25.9935C28.7585 26.0095 28.7457 26.0255 28.7329 26.0383C28.7201 26.0543 28.7041 26.0671 28.6913 26.0799C28.6849 26.0831 28.6433 26.1183 28.6721 26.0991C28.7009 26.0767 28.6529 26.1119 28.6497 26.1151C28.6305 26.1279 28.6113 26.1375 28.5921 26.1471C28.6337 26.1247 28.5729 26.1535 28.5665 26.1567C28.5441 26.1631 28.5217 26.1695 28.4993 26.1759C28.4609 26.1855 28.4225 26.1919 28.3841 26.2015C28.3265 26.2143 28.4097 26.2015 28.3585 26.2047C28.3361 26.2047 28.3105 26.2047 28.2881 26.2047C28.2401 26.2047 28.3009 26.2111 28.2817 26.2047C28.2657 26.1983 28.2465 26.1951 28.2273 26.1887C28.1985 26.1823 28.2689 26.2111 28.2273 26.1887C28.2113 26.1791 28.1953 26.1695 28.1793 26.1599C28.1281 26.1311 28.2113 26.1951 28.1697 26.1535C28.1569 26.1439 28.1473 26.1311 28.1345 26.1215C28.1281 26.1151 28.0929 26.0671 28.1121 26.0959C28.1313 26.1247 28.1025 26.0799 28.0993 26.0735C28.0897 26.0575 28.0801 26.0415 28.0737 26.0255C28.0961 26.0703 28.0705 26.0127 28.0673 26.0031C28.0609 25.9871 28.0577 25.9679 28.0545 25.9487C28.0481 25.9263 28.0481 25.9039 28.0513 25.9391C28.0481 25.8943 28.0481 25.8527 28.0513 25.8079C28.0545 25.7535 28.0385 25.8431 28.0545 25.7855C28.0609 25.7631 28.0641 25.7439 28.0705 25.7215C28.1057 25.5967 28.0289 25.4431 27.8945 25.4143C27.7633 25.3855 27.6225 25.4527 27.5873 25.5903C27.5233 25.8303 27.5361 26.0927 27.6577 26.3103C27.7633 26.4991 27.9585 26.6527 28.1761 26.6879C28.4161 26.7295 28.7201 26.6687 28.9217 26.5311C29.1073 26.4063 29.2289 26.2271 29.3409 26.0383C29.4081 25.9263 29.3697 25.7599 29.2513 25.6959C29.1233 25.6351 28.9761 25.6671 28.9025 25.7887Z" fill="black"/>
<path d="M28.0639 25.6608C28.1247 24.8096 28.3711 23.9872 28.6111 23.1744C28.7039 22.864 28.2207 22.7328 28.1279 23.04C27.8719 23.8976 27.6255 24.7616 27.5615 25.6576C27.5519 25.792 27.6831 25.9072 27.8111 25.9072C27.9583 25.9136 28.0543 25.7984 28.0639 25.6608Z" fill="black"/>
<path d="M34.4541 20.4704C34.0765 19.9808 33.5549 19.6736 32.9309 19.6192C32.3453 19.568 31.7405 19.8176 31.3309 20.2304C31.1741 20.3872 31.1613 20.6752 31.3309 20.832C31.5005 20.9888 31.7661 21.0016 31.9325 20.832C31.9677 20.7936 32.0061 20.7616 32.0445 20.7264C32.0701 20.704 32.0861 20.6976 32.0509 20.72C32.0733 20.704 32.0925 20.6912 32.1149 20.6752C32.1629 20.6432 32.2141 20.6144 32.2653 20.5888C32.2877 20.576 32.3133 20.5664 32.3357 20.5536C32.3933 20.5248 32.2813 20.5696 32.3421 20.5504C32.4413 20.5216 32.5405 20.4928 32.6397 20.4704C32.7037 20.4544 32.5757 20.4736 32.6429 20.4704C32.6685 20.4704 32.6941 20.4672 32.7197 20.464C32.7773 20.4608 32.8349 20.4608 32.8957 20.464C32.9213 20.464 32.9469 20.4672 32.9725 20.4704C32.9309 20.4672 32.9309 20.464 32.9725 20.4704C33.0205 20.48 33.0717 20.4896 33.1197 20.5056C33.1677 20.5184 33.2157 20.5376 33.2637 20.5536C33.2253 20.5408 33.2317 20.5376 33.2669 20.5568C33.2893 20.5664 33.3117 20.5792 33.3341 20.5888C33.3789 20.6112 33.4237 20.6368 33.4653 20.6656C33.4909 20.6816 33.5165 20.7008 33.5421 20.72C33.5933 20.7552 33.5005 20.6784 33.5453 20.7232C33.5805 20.7584 33.6221 20.7904 33.6573 20.8256C33.6765 20.8448 33.6925 20.8608 33.7085 20.88C33.7181 20.8928 33.7757 20.96 33.7245 20.896C33.8589 21.072 34.0957 21.184 34.3069 21.0496C34.4765 20.9408 34.6013 20.6592 34.4541 20.4704Z" fill="black"/>
<path d="M27.9741 20.384C27.5613 20.0352 27.0461 19.824 26.5021 19.8272C25.9549 19.8304 25.4429 20.0416 25.0333 20.3968C24.8637 20.544 24.8733 20.8512 25.0333 20.9984C25.2125 21.1648 25.4557 21.1552 25.6349 20.9984C25.6541 20.9824 25.6733 20.9632 25.6925 20.9472C25.6573 20.9728 25.6605 20.9728 25.6989 20.944C25.7437 20.9152 25.7853 20.8864 25.8301 20.8608C25.8685 20.8384 25.9101 20.816 25.9485 20.7968C25.9645 20.7872 25.9837 20.7808 25.9997 20.7712C25.9581 20.7904 25.9581 20.7872 26.0061 20.7712C26.1053 20.7392 26.2013 20.7136 26.3037 20.688C26.3933 20.6688 26.2429 20.688 26.3453 20.6816C26.3965 20.6784 26.4477 20.6752 26.4989 20.6752C26.5501 20.6752 26.6013 20.6784 26.6525 20.6816C26.7741 20.688 26.5725 20.6624 26.6941 20.6848C26.7965 20.704 26.8957 20.7296 26.9917 20.7648C27.0141 20.7712 27.1005 20.8128 27.0333 20.7808C27.0813 20.8032 27.1261 20.8256 27.1709 20.8512C27.2157 20.8768 27.2605 20.9024 27.3021 20.9344C27.3245 20.9504 27.3437 20.9632 27.3661 20.9792C27.3309 20.9536 27.3309 20.9536 27.3693 20.9856C27.5389 21.1296 27.8077 21.1648 27.9709 20.9856C28.1213 20.8256 28.1565 20.5376 27.9741 20.384Z" fill="black"/>
<path d="M33.0305 36.1727C31.4945 36.4927 29.8209 36.3551 28.3233 35.9135C26.8065 35.4655 25.3857 34.4351 24.3521 33.2479C23.1265 31.8399 22.7681 29.7471 22.7809 27.9359C22.7873 26.9023 22.9345 25.8783 23.1265 24.8671C23.2705 24.1215 23.4049 23.3631 23.6257 22.6335C24.0801 21.1327 24.6785 19.5903 25.5233 18.2655C25.8177 17.8015 25.0817 17.3759 24.7905 17.8367C23.9585 19.1423 23.3761 20.6495 22.8993 22.1151C22.6625 22.8415 22.5185 23.5935 22.3681 24.3391C22.1505 25.4239 21.9745 26.5247 21.9393 27.6287C21.8753 29.5903 22.2273 31.8655 23.4465 33.4655C24.0161 34.2111 24.7297 34.8159 25.4817 35.3695C26.1377 35.8527 26.7937 36.2655 27.5617 36.5503C29.3345 37.2031 31.4081 37.3759 33.2609 36.9855C33.7921 36.8799 33.5649 36.0575 33.0305 36.1727Z" fill="black"/>
<path d="M32.4448 33.7504C31.5712 34.1824 30.5504 34.2368 29.6288 33.92C29.3248 33.8144 29.1936 34.2976 29.4944 34.4032C30.544 34.7616 31.7024 34.672 32.6944 34.1824C32.9824 34.0384 32.7296 33.6064 32.4448 33.7504Z" fill="black"/>
<path d="M41.6801 23.6641C41.2129 23.6929 40.7553 23.9649 40.5473 24.3937C40.3329 24.8353 40.3681 25.3889 40.6657 25.7825C40.7457 25.8913 40.8801 25.9457 41.0081 25.8721C41.1137 25.8113 41.1809 25.6385 41.0977 25.5297C41.0721 25.4945 41.0465 25.4561 41.0241 25.4177C41.0113 25.3953 40.9985 25.3697 40.9857 25.3473C40.9825 25.3409 40.9697 25.3089 40.9793 25.3345C40.9601 25.2897 40.9473 25.2417 40.9345 25.1937C40.9281 25.1713 40.9249 25.1489 40.9185 25.1297C40.9089 25.0913 40.9153 25.1265 40.9153 25.1041C40.8961 24.9377 40.9153 24.7713 40.9793 24.6465C41.0209 24.5697 41.0593 24.5089 41.0977 24.4641C41.1265 24.4321 41.1553 24.4033 41.1873 24.3745C41.1873 24.3745 41.2353 24.3329 41.2225 24.3457C41.2065 24.3585 41.2545 24.3233 41.2577 24.3201C41.2929 24.2977 41.3313 24.2753 41.3665 24.2529C41.3889 24.2401 41.4113 24.2305 41.4369 24.2209C41.4049 24.2337 41.4497 24.2177 41.4593 24.2145C41.5009 24.2017 41.5393 24.1889 41.5809 24.1793C41.6001 24.1761 41.6225 24.1697 41.6449 24.1665C41.6033 24.1729 41.6737 24.1665 41.6801 24.1665C41.8145 24.1569 41.9297 24.0577 41.9297 23.9169C41.9297 23.7857 41.8177 23.6545 41.6801 23.6641Z" fill="black"/>
<path d="M31.6737 27.4752C31.3921 28.0896 31.5841 28.8288 32.1345 29.2224C32.2401 29.2992 32.4161 29.2448 32.4769 29.1328C32.5441 29.0048 32.5025 28.8736 32.3873 28.7904C32.3489 28.7616 32.4065 28.8096 32.3841 28.7904C32.3713 28.7808 32.3585 28.7712 32.3489 28.7584C32.3265 28.7392 32.3073 28.72 32.2881 28.6976C32.2689 28.6752 32.2497 28.6528 32.2305 28.6336C32.2657 28.6752 32.2369 28.6432 32.2305 28.6304C32.2209 28.6176 32.2113 28.6048 32.2049 28.592C32.1729 28.5408 32.1441 28.4864 32.1185 28.432C32.1025 28.4 32.1377 28.4864 32.1185 28.4288C32.1153 28.416 32.1089 28.4064 32.1057 28.3936C32.0961 28.3648 32.0865 28.3328 32.0769 28.3008C32.0705 28.272 32.0641 28.2432 32.0577 28.2176C32.0577 28.2112 32.0481 28.1696 32.0481 28.1696C32.0481 28.1696 32.0545 28.2208 32.0513 28.1792C32.0449 28.1184 32.0449 28.0576 32.0481 27.9968C32.0481 27.9808 32.0513 27.9648 32.0513 27.9488C32.0545 27.9008 32.0449 27.9808 32.0513 27.9488C32.0577 27.92 32.0609 27.8912 32.0673 27.8656C32.0737 27.8336 32.0833 27.8048 32.0929 27.7728C32.0961 27.76 32.1025 27.7472 32.1057 27.7376C32.1281 27.6768 32.0833 27.7856 32.1121 27.728C32.1665 27.6096 32.1505 27.4528 32.0225 27.3856C31.9073 27.328 31.7313 27.3472 31.6737 27.4752Z" fill="black"/>
<path d="M30.9664 29.4656C30.88 29.4976 30.7904 29.5232 30.7008 29.5456C30.6624 29.5552 30.624 29.5616 30.5824 29.568C30.5696 29.5712 30.5568 29.5712 30.544 29.5744C30.576 29.5712 30.5792 29.568 30.5504 29.5744C30.5312 29.5776 30.512 29.5776 30.4896 29.5808C30.4032 29.5872 30.3168 29.5904 30.2304 29.5872C30.1824 29.584 30.1376 29.5808 30.0928 29.5776C30.0256 29.5712 30.1472 29.5872 30.08 29.5776C30.0544 29.5744 30.0288 29.568 30.0032 29.5648C29.8752 29.5392 29.728 29.6 29.696 29.7408C29.6672 29.8624 29.7344 30.0224 29.872 30.048C30.2816 30.1248 30.7072 30.1024 31.1008 29.9552C31.2224 29.9104 31.3184 29.7824 31.2768 29.648C31.2352 29.52 31.0976 29.4144 30.9664 29.4656Z" fill="black"/>
<path d="M32.659 38.7937C31.539 45.1841 31.3214 51.7473 31.4334 58.2241C31.4654 59.9745 31.5262 61.7249 31.6254 63.4753C31.651 63.9521 32.3966 63.9553 32.3678 63.4753C32.0062 57.0497 32.0478 50.5633 32.6814 44.1569C32.851 42.4289 33.075 40.7041 33.3758 38.9921C33.459 38.5217 32.7422 38.3201 32.659 38.7937Z" fill="#A1A2A2"/>
<path d="M29.9329 44.9535C31.0977 44.9535 31.0977 43.1455 29.9329 43.1455C28.7713 43.1455 28.7681 44.9535 29.9329 44.9535Z" fill="black"/>
<path d="M29.3409 57.9328C30.5057 57.9328 30.5057 56.1248 29.3409 56.1248C28.1761 56.1216 28.1761 57.9328 29.3409 57.9328Z" fill="black"/>
<path d="M48.8705 42.8415C49.8145 46.7423 50.6497 50.7039 50.6593 54.7327C50.6593 55.0655 51.1777 55.0655 51.1745 54.7327C51.1649 50.6591 50.3201 46.6463 49.3665 42.7039C49.2897 42.3839 48.7905 42.5183 48.8705 42.8415Z" fill="black"/>
<path d="M48.2369 46.7456C48.6657 47.2512 49.2673 47.6128 49.9137 47.7632C50.0449 47.792 50.1985 47.7216 50.2305 47.584C50.2593 47.4528 50.1921 47.2992 50.0513 47.2672C49.9041 47.232 49.7601 47.1872 49.6193 47.1328C49.6033 47.1264 49.5873 47.12 49.6129 47.1296C49.5937 47.12 49.5745 47.1136 49.5553 47.104C49.5201 47.088 49.4881 47.072 49.4529 47.056C49.3857 47.0208 49.3185 46.9856 49.2545 46.9472C49.1937 46.9088 49.1329 46.8704 49.0753 46.8288C49.0593 46.816 49.0401 46.8032 49.0241 46.7904C49.0113 46.7808 48.9953 46.768 49.0177 46.784C48.9889 46.7616 48.9601 46.736 48.9313 46.7136C48.8129 46.6112 48.7041 46.5024 48.6049 46.384C48.5185 46.2816 48.3297 46.288 48.2401 46.384C48.1345 46.4896 48.1441 46.6336 48.2369 46.7456Z" fill="black"/>
<path d="M28.3838 28.7553C28.8798 29.0817 29.5838 29.1489 30.163 29.1297C30.7518 29.1073 31.3182 28.9409 31.7694 28.5537C32.0126 28.3457 31.6606 27.9937 31.4174 28.2017C31.059 28.5089 30.579 28.6209 30.1182 28.6305C29.6318 28.6401 29.0526 28.5953 28.6366 28.3233C28.3678 28.1473 28.115 28.5825 28.3838 28.7553Z" fill="black"/>
<path d="M34.0669 22.9024C34.0925 22.512 33.6445 22.2432 33.5133 22.1824C33.2285 22.048 32.8061 21.9136 32.2525 21.9552C31.3469 22.0192 31.1261 22.4512 31.0813 22.6816C31.0429 22.8768 31.0909 23.2384 31.3789 23.3344C31.5357 23.3856 31.8653 23.344 32.4573 23.3632C33.0205 23.3792 33.3885 23.4336 33.5645 23.3888C33.7437 23.3376 34.0413 23.3216 34.0669 22.9024Z" fill="white"/>
<path d="M32.5694 23.2415C33.2062 23.2415 33.2062 22.2527 32.5694 22.2527C31.9326 22.2527 31.9326 23.2415 32.5694 23.2415Z" fill="black"/>
<path d="M24.6847 22.7232C24.7743 22.3456 25.1487 22.096 25.2831 22.0448C25.5775 21.9328 25.8943 21.8912 26.4415 21.9712C27.3407 22.0992 27.4975 22.4128 27.5615 22.6656C27.6095 22.8576 27.5359 23.1488 27.2415 23.2224C27.0815 23.264 26.7327 23.2512 26.1791 23.2608C25.6159 23.2704 25.1519 23.3024 24.9791 23.2448C24.8063 23.1872 24.6015 23.0752 24.6847 22.7232Z" fill="white"/>
<path d="M26.3069 23.168C26.9437 23.168 26.9437 22.1792 26.3069 22.1792C25.6701 22.1792 25.6669 23.168 26.3069 23.168Z" fill="black"/>
<path d="M18.6242 48.7166C17.1714 45.971 12.9026 44.1406 10.1698 44.947C8.08021 45.5646 5.96821 47.2542 5.25781 49.5774C7.42741 52.8702 10.189 55.7406 13.3922 58.035C13.6578 57.987 13.9266 57.9262 14.2018 57.8494C19.6386 56.3422 20.077 51.4622 18.6242 48.7166Z" fill="#A1A2A2"/>
<path d="M13.2833 55.3503C4.58567 57.0367 6.16967 40.2847 6.01607 39.2799C5.74727 37.5071 5.36327 34.8127 5.29607 33.4687C5.19367 31.3599 4.66887 26.3935 4.99207 25.5839C5.28967 24.8383 5.58407 24.7391 5.58407 24.7391C5.58407 24.7391 5.49767 23.9199 5.66407 23.5167C5.92967 22.8767 6.41287 22.8767 6.41287 22.8767C6.41287 22.8767 6.27527 22.2175 6.86727 21.8431C7.46247 21.4687 7.88807 21.8175 8.11847 21.9871C8.46727 22.2399 8.72647 22.9663 8.72647 22.9663C8.72647 22.9663 9.10407 22.4191 9.77927 22.7263C11.6417 23.5775 12.4641 30.5183 12.4641 30.5183C12.4641 30.5183 14.6881 31.4399 14.8033 33.5807C14.9601 36.5311 12.4833 38.2015 12.4833 38.2015C12.4833 38.2015 15.7537 44.8671 16.4545 46.9919C17.1553 49.1167 18.8897 54.2655 13.2833 55.3503Z" fill="#F6A6AC"/>
<path d="M11.3633 33.1168C10.2433 33.9872 9.70569 35.472 9.95849 36.8608C10.0161 37.1744 10.4929 37.04 10.4353 36.7296C10.2113 35.5072 10.7361 34.224 11.7121 33.4688C11.8177 33.3856 11.7985 33.2064 11.7121 33.1168C11.6129 33.0112 11.4689 33.0368 11.3633 33.1168Z" fill="black"/>
<path d="M7.54578 29.9168C8.14098 30.16 8.33298 30.9952 8.35858 31.5648C8.38738 32.2528 8.19538 32.9216 7.80818 33.4912C7.62898 33.7568 8.05778 34.0032 8.23698 33.7408C8.70098 33.056 8.92178 32.2016 8.83858 31.376C8.76178 30.5984 8.45138 29.7536 7.67698 29.4368C7.38258 29.3152 7.25458 29.7952 7.54578 29.9168Z" fill="black"/>
<path d="M12.6815 30.4478C12.3231 30.1982 11.8847 29.9806 11.4431 29.9582C11.0847 29.939 10.7231 30.0638 10.4447 30.291C9.78229 30.835 9.99349 31.9006 10.5215 32.451C10.8735 32.8158 11.3279 33.107 11.7599 33.363C12.0351 33.5262 12.2847 33.0974 12.0095 32.9342C11.6095 32.6974 11.1935 32.435 10.8703 32.099C10.6015 31.8174 10.4351 31.3598 10.5663 30.979C10.6239 30.8158 10.6783 30.7262 10.7903 30.643C10.9151 30.547 11.0719 30.4862 11.2255 30.4606C11.6511 30.3934 12.0895 30.6398 12.4287 30.8734C12.6943 31.059 12.9439 30.6302 12.6815 30.4478Z" fill="black"/>
<path d="M5.69287 25.2127C6.05767 25.1071 6.36167 25.3983 6.50247 25.7055C6.68487 26.1023 6.72007 26.5759 6.79367 27.0047C6.95367 27.9295 7.11367 28.8575 7.27367 29.7823C7.32807 30.0959 7.80487 29.9647 7.75047 29.6511C7.55847 28.5439 7.36967 27.4367 7.17447 26.3327C7.09447 25.8847 6.98887 25.4111 6.66247 25.0687C6.37767 24.7711 5.95847 24.6175 5.55527 24.7359C5.25447 24.8223 5.38567 25.3023 5.69287 25.2127Z" fill="black"/>
<path d="M6.59514 23.3406C7.51994 23.523 7.79514 24.819 7.97114 25.5838C8.20794 26.611 8.35514 27.6638 8.53434 28.7038C8.58874 29.0174 9.06554 28.8862 9.01114 28.5726C8.80954 27.4014 8.66234 26.2046 8.34874 25.059C8.11514 24.2014 7.71834 23.0622 6.72634 22.8638C6.41274 22.7998 6.28154 23.2766 6.59514 23.3406Z" fill="black"/>
<path d="M8.77766 22.9535C9.44966 24.7743 9.84326 26.6847 9.94246 28.6239C9.95846 28.9407 10.4545 28.9439 10.4385 28.6239C10.3393 26.6399 9.94246 24.6847 9.25446 22.8223C9.14886 22.5247 8.66886 22.6527 8.77766 22.9535Z" fill="black"/>
<path d="M7.93606 29.6926C8.81606 29.1646 9.84006 28.9534 10.8577 29.0814C10.9921 29.0974 11.1041 28.9566 11.1041 28.835C11.1041 28.6878 10.9889 28.6046 10.8577 28.5886C9.76006 28.451 8.63366 28.6974 7.68646 29.267C7.41446 29.427 7.66086 29.8558 7.93606 29.6926Z" fill="black"/>
<path d="M11.4273 38.8702C11.8369 38.8414 12.2337 38.723 12.5857 38.515C12.6977 38.4478 12.7489 38.2878 12.6753 38.1758C12.6017 38.0638 12.4545 38.0158 12.3361 38.0862C12.2561 38.131 12.1761 38.1758 12.0929 38.211C12.0801 38.2174 12.0321 38.2462 12.0865 38.2142C12.0673 38.227 12.0417 38.2334 12.0193 38.2398C11.9809 38.2558 11.9393 38.2686 11.8977 38.2814C11.8177 38.307 11.7345 38.3262 11.6513 38.3454C11.6097 38.355 11.5681 38.3646 11.5265 38.3678C11.6001 38.3646 11.5169 38.3678 11.5009 38.371C11.4753 38.3742 11.4529 38.3742 11.4273 38.3774C11.2993 38.387 11.1745 38.4862 11.1809 38.6238C11.1841 38.7486 11.2897 38.883 11.4273 38.8702Z" fill="black"/>
<path fill-rule="evenodd" clip-rule="evenodd" d="M30.8641 49.3215C30.8641 49.3215 28.8513 49.3374 27.4433 49.1134C26.0353 48.8926 25.6065 50.883 27.6929 51.3694C28.8609 51.6414 29.1681 51.379 29.1681 51.379C28.3041 51.8206 28.7553 52.7166 29.6513 53.0334C30.0961 53.1902 30.6305 53.0591 31.2065 52.9471C30.9089 53.7375 31.2705 55.1358 33.9233 53.9646C33.9233 53.9646 33.5361 55.123 35.2097 55.123C36.8833 55.123 43.2609 52.4286 43.2609 52.4286L39.5585 49.923L31.0657 48.9438L30.8641 49.3215Z" fill="#F8A9AF"/>
<path d="M49.0274 44.9535C47.1618 45.6319 45.2674 47.8527 45.5298 50.7935C45.7922 53.7375 48.0642 57.0719 51.7762 55.8015C55.4882 54.5343 55.7858 50.4287 54.7938 48.1215C53.805 45.8143 50.893 44.2751 49.0274 44.9535Z" fill="#A1A2A2"/>
<path fill-rule="evenodd" clip-rule="evenodd" d="M29.0178 47.1776C29.4018 46.6624 29.6386 46.5344 31.6482 47.12C33.6578 47.7056 35.0274 47.136 36.2402 46.9472C37.4562 46.7584 39.4978 46.496 41.3282 47.0496C41.3282 47.0496 46.237 45.8752 49.4914 46.1024C51.085 46.2144 51.9938 47.1168 52.2914 47.776C53.1938 49.776 53.1426 52.3424 50.8642 54.0128C48.5858 55.6832 44.2306 51.8944 43.2642 52.432C42.061 53.104 41.2674 52.7552 39.5074 53.1776C39.5074 53.1776 37.0498 52.3168 37.3634 51.4944C37.677 50.672 36.0066 50.4096 34.0642 50.1728C32.1218 49.936 32.0418 50.0864 30.5826 49.3216C29.1266 48.5568 28.6658 47.792 29.0178 47.1776Z" fill="#F8A9AF"/>
<path fill-rule="evenodd" clip-rule="evenodd" d="M42.429 47.3408C42.1442 47.1552 41.837 47.0016 41.517 46.8832C41.405 46.8416 41.2642 46.8704 41.2098 46.9888C41.165 47.0944 41.197 47.2512 41.3154 47.296C41.6354 47.4144 41.9426 47.568 42.2274 47.7536C42.2722 47.7824 42.3554 47.7792 42.4066 47.7632C42.4578 47.744 42.5122 47.6992 42.5346 47.648C42.557 47.5936 42.5666 47.5264 42.5442 47.4688C42.5186 47.408 42.4802 47.3728 42.429 47.3408Z" fill="black"/>
<path d="M29.2546 51.5488C31.1682 51.4592 33.0722 51.2064 34.941 50.7904C35.2482 50.7232 35.117 50.2528 34.8098 50.32C32.9794 50.7232 31.1234 50.9728 29.2514 51.0592C28.941 51.0752 28.941 51.5648 29.2546 51.5488Z" fill="black"/>
<path d="M31.1968 53.2608C32.6176 53.0176 34.0192 52.688 35.3984 52.2688C35.6992 52.1792 35.5712 51.7056 35.2672 51.7984C33.888 52.2144 32.4832 52.5472 31.0656 52.7904C30.7584 52.8416 30.8896 53.312 31.1968 53.2608Z" fill="black"/>
<path d="M34.0896 54.3872C35.0048 54.1248 35.9104 53.8336 36.8064 53.5136C36.9312 53.4688 37.0144 53.3472 36.976 53.2128C36.944 53.0944 36.8 52.9984 36.6752 53.0432C35.7792 53.3632 34.8736 53.6544 33.9584 53.9168C33.6576 54.0032 33.7856 54.4736 34.0896 54.3872Z" fill="black"/>
<path d="M34.1982 44.3104C34.6398 44.7584 35.1134 45.1776 35.6094 45.5616C35.635 45.5808 35.6638 45.6032 35.6958 45.6032C35.731 45.6032 36.6142 43.6288 36.595 43.6096C36.5982 43.6128 34.8126 44.1504 34.1982 44.3104Z" fill="white"/>
<path d="M33.8397 44.6689C34.2365 45.0689 34.6525 45.4465 35.0941 45.7953C35.2317 45.9041 35.3629 46.0289 35.5325 46.0865C35.7661 46.1633 36.0125 46.0577 36.1405 45.8561C36.1693 45.8113 36.1917 45.7633 36.2141 45.7185C36.4477 45.2449 36.6589 44.7585 36.8701 44.2753C36.9309 44.1377 36.9885 44.0001 37.0461 43.8593C37.0941 43.7409 37.1357 43.6065 37.0877 43.4785C36.9885 43.2289 36.7517 43.0401 36.4669 43.1265C35.6701 43.3665 34.8733 43.6129 34.0669 43.8241C33.8109 43.8913 33.6317 44.1889 33.7149 44.4449C33.8013 44.7073 34.0637 44.8705 34.3357 44.7969C35.1421 44.5857 35.9389 44.3393 36.7357 44.0993C36.5277 43.9809 36.3197 43.8625 36.1149 43.7473C36.1117 43.7409 36.1213 43.4721 36.1149 43.4881C36.1117 43.4913 36.1117 43.4977 36.1117 43.5009C36.1053 43.5169 36.0989 43.5329 36.0925 43.5489C36.0829 43.5681 36.0765 43.5905 36.0669 43.6097C36.0605 43.6225 36.0573 43.6353 36.0509 43.6481C36.0285 43.7057 36.1085 43.5105 36.0765 43.5905C36.0093 43.7473 35.9421 43.9041 35.8717 44.0577C35.7181 44.4033 35.5645 44.7489 35.4013 45.0881C35.3725 45.1457 35.3437 45.2065 35.3149 45.2641C35.3053 45.2833 35.2925 45.3025 35.2861 45.3217C35.2573 45.3921 35.3533 45.2417 35.3469 45.2449C35.4205 45.2001 35.4941 45.1585 35.5709 45.1137C35.6605 45.1137 35.7501 45.1137 35.8397 45.1137C35.8621 45.1201 35.9933 45.2161 35.9069 45.1457C35.8781 45.1233 35.8493 45.1009 35.8173 45.0753C35.7533 45.0241 35.6893 44.9729 35.6253 44.9185C35.5037 44.8193 35.3853 44.7169 35.2669 44.6113C35.0269 44.3969 34.7901 44.1761 34.5661 43.9457C34.3805 43.7569 34.0349 43.7441 33.8525 43.9457C33.6541 44.1569 33.6413 44.4673 33.8397 44.6689Z" fill="white"/>
<path d="M13.8687 33.808C14.6879 33.0368 15.8207 32.528 16.8607 32.1408C18.3711 31.5808 19.9551 31.3056 21.5647 31.36C23.8751 31.4368 26.1215 32.1088 28.0703 33.3536C31.0879 35.28 33.3183 38.4352 34.5055 41.7856C34.7103 42.3616 34.8895 42.9536 34.9983 43.5552C35.0335 43.7568 35.0527 43.8368 35.0559 44.08C35.0559 44.1536 35.0495 44.288 35.0527 44.1984C35.0463 44.3136 35.0431 44.2272 35.0879 44.1824C34.7935 44.5152 35.2799 45.0048 35.5775 44.672C35.7951 44.4288 35.7599 44.0608 35.7247 43.7632C35.6639 43.2256 35.5263 42.6976 35.3695 42.1824C34.8863 40.6208 34.1663 39.12 33.2863 37.744C32.1631 35.9808 30.7455 34.4032 29.0463 33.1808C27.1007 31.7824 24.8127 30.9472 22.4287 30.7232C20.5983 30.5536 18.7647 30.7584 17.0239 31.3536C15.7503 31.7888 14.3775 32.384 13.3823 33.3216C13.0527 33.6256 13.5423 34.1152 13.8687 33.808Z" fill="white"/>
<path fill-rule="evenodd" clip-rule="evenodd" d="M42.5759 27.7921C42.5759 27.7921 41.3215 25.1873 42.2751 22.1985C42.3359 21.9617 42.3999 21.7249 42.4767 21.4817C44.3455 15.6385 53.8879 13.8049 57.5391 20.4929C61.1903 27.1745 53.6543 35.5297 45.8943 31.4881C45.5039 31.2865 45.0143 30.9537 44.5151 30.4961C43.7663 30.8289 42.5343 31.0849 41.1615 30.1857C40.8703 29.9969 40.8895 29.5617 41.1999 29.4017C41.9519 29.0081 42.5759 27.7921 42.5759 27.7921Z" fill="#F6F8F9"/>
<path d="M45.9166 21.4658C46.115 22.3554 46.3166 23.245 46.515 24.1378C46.5886 24.461 47.0814 24.3234 47.011 24.0002C46.8126 23.1106 46.611 22.221 46.4126 21.3282C46.339 21.0082 45.843 21.1426 45.9166 21.4658Z" fill="black"/>
<path d="M46.2241 25.3116C46.8562 24.9466 47.2146 24.384 47.0246 24.055C46.8346 23.7259 46.1682 23.755 45.5361 24.12C44.904 24.4849 44.5456 25.0475 44.7356 25.3766C44.9256 25.7056 45.592 25.6765 46.2241 25.3116Z" fill="black"/>
<path d="M45.9487 21.4913C46.0415 21.6513 46.1919 21.7537 46.3647 21.8177C46.5087 21.8753 46.6655 21.8881 46.8159 21.9329C46.8351 21.9393 46.8511 21.9457 46.8703 21.9521C46.9247 21.9713 46.8703 21.9553 46.8735 21.9521C46.8735 21.9521 46.9535 21.9937 46.9567 21.9969C46.9727 22.0065 46.9887 22.0161 47.0047 22.0289C47.0431 22.0545 46.9823 22.0097 47.0047 22.0289C47.0271 22.0513 47.0527 22.0705 47.0751 22.0929C47.0847 22.1057 47.0975 22.1153 47.1071 22.1281C47.1199 22.1409 47.1583 22.1729 47.1135 22.1345C47.1359 22.1537 47.1519 22.1889 47.1647 22.2145C47.1711 22.2241 47.2031 22.2977 47.2063 22.2977C47.1935 22.2689 47.1903 22.2625 47.1967 22.2817C47.1999 22.2913 47.2031 22.3009 47.2063 22.3073C47.2127 22.3265 47.2159 22.3425 47.2223 22.3617C47.2575 22.4897 47.4079 22.5825 47.5391 22.5409C47.6735 22.4993 47.7567 22.3649 47.7183 22.2241C47.6383 21.9201 47.4175 21.6449 47.1295 21.5105C46.9695 21.4369 46.8031 21.4113 46.6335 21.3697C46.5983 21.3601 46.5599 21.3505 46.5247 21.3377C46.4735 21.3185 46.5183 21.3409 46.5247 21.3377C46.5215 21.3409 46.4767 21.3121 46.4735 21.3121C46.4607 21.3057 46.4479 21.2961 46.4319 21.2865C46.4063 21.2705 46.4639 21.3185 46.4319 21.2865C46.4287 21.2833 46.3903 21.2481 46.3935 21.2449C46.3999 21.2513 46.4063 21.2609 46.4095 21.2673C46.4031 21.2577 46.3967 21.2449 46.3903 21.2353C46.3231 21.1201 46.1567 21.0689 46.0383 21.1425C45.9231 21.2161 45.8751 21.3665 45.9487 21.4913Z" fill="black"/>
<path d="M49.0557 23.8688C49.1101 24.736 49.1933 25.6032 49.3053 26.464C49.3245 26.6016 49.4109 26.72 49.5613 26.72C49.6861 26.72 49.8365 26.6016 49.8173 26.464C49.7053 25.6032 49.6189 24.736 49.5677 23.8688C49.5485 23.5424 49.0365 23.5392 49.0557 23.8688Z" fill="black"/>
<path d="M49.3185 24.0672C50.0833 24 50.8481 23.9328 51.6161 23.8656C51.7537 23.8528 51.8721 23.7568 51.8721 23.6096C51.8721 23.4816 51.7537 23.3408 51.6161 23.3536C50.8513 23.4208 50.0865 23.488 49.3185 23.5552C49.1809 23.568 49.0625 23.664 49.0625 23.8112C49.0625 23.9392 49.1777 24.08 49.3185 24.0672Z" fill="black"/>
<path d="M51.3856 23.6832C51.5264 24.5248 51.648 25.3664 51.7504 26.2112C51.7664 26.3488 51.856 26.4672 52.0064 26.4672C52.1312 26.4672 52.2784 26.3488 52.2624 26.2112C52.1568 25.3184 52.0288 24.432 51.8784 23.5456C51.856 23.408 51.6864 23.3312 51.5616 23.3664C51.4208 23.408 51.3632 23.5488 51.3856 23.6832Z" fill="black"/>
<path d="M49.0831 27.3713C49.6188 27.062 49.9226 26.5855 49.7618 26.307C49.601 26.0284 49.0364 26.0533 48.5007 26.3626C47.965 26.6719 47.6611 27.1484 47.822 27.427C47.9828 27.7055 48.5474 27.6806 49.0831 27.3713Z" fill="black"/>
<path d="M51.5513 27.2366C52.087 26.9273 52.3909 26.4507 52.2301 26.1722C52.0692 25.8937 51.5046 25.9186 50.9689 26.2278C50.4333 26.5371 50.1294 27.0137 50.2902 27.2922C50.451 27.5707 51.0157 27.5458 51.5513 27.2366Z" fill="black"/>
<path d="M54.7776 21.8336C54.832 22.7008 54.9152 23.568 55.0272 24.4288C55.0464 24.5664 55.1328 24.6848 55.2832 24.6848C55.408 24.6848 55.5584 24.5664 55.5392 24.4288C55.4272 23.568 55.3408 22.7008 55.2896 21.8336C55.2704 21.504 54.7552 21.504 54.7776 21.8336Z" fill="black"/>
<path d="M54.8048 25.3354C55.3404 25.0262 55.6443 24.5496 55.4835 24.2711C55.3227 23.9925 54.758 24.0174 54.2224 24.3267C53.6867 24.636 53.3828 25.1125 53.5436 25.3911C53.7045 25.6696 54.2691 25.6447 54.8048 25.3354Z" fill="black"/>
</g>
<defs>
<clipPath id="clip0_712_10922">
<rect width="64" height="64" fill="white"/>
</clipPath>
</defs>
</svg>
