<svg width="200" height="200" viewBox="0 0 200 200" fill="none" xmlns="http://www.w3.org/2000/svg">
<g clip-path="url(#clip0_520_6466)">
<path d="M100 200C155.228 200 200 155.228 200 100C200 44.7715 155.228 0 100 0C44.7715 0 0 44.7715 0 100C0 155.228 44.7715 200 100 200Z" fill="#CFA5CF"/>
<path d="M105.02 69.4099L109.63 67.1699C110.9 69.0499 118.92 83.1499 120.32 86.5299C124.81 97.3599 127.09 102.05 125.82 108.54C123.27 121.57 104.33 119.48 103.37 108.97C103.36 108.96 114.17 91.4899 105.02 69.4099Z" fill="black"/>
<path d="M122.08 145.91C122.08 145.91 124.15 148.34 126.98 147.02C129.76 145.72 128.37 142.86 128.37 142.86C128.37 142.86 129.72 145.01 131.89 144.06C134.85 142.76 132.91 141.44 132.91 141.44C132.91 141.44 136.47 141.8 137.56 138.84C138.78 135.52 134.52 133.05 134.52 133.05C134.52 133.05 132.17 123.52 124.86 117.87C114.75 110.06 106.3 109.89 99.75 109C89.79 107.65 86.15 107.11 86.15 107.11L63.28 110.85C63.28 110.85 43.49 115.35 37.31 125.07C32.34 132.87 34.05 139.26 34.05 139.26C34.05 139.26 29.79 142.44 31.73 145.52C33.67 148.6 37.33 146.89 37.33 146.89C37.33 146.89 36.64 149.4 38.59 150.43C41.21 151.82 43.04 149.97 43.04 149.97C43.04 149.97 41.44 152.48 44.41 153.97C47.38 155.45 48.98 152.37 48.98 152.37C48.98 152.37 47.47 155.96 50.35 157.39C52.63 158.53 53.43 157.28 53.43 157.28C53.43 157.28 53.16 162.72 55.19 170.69C55.19 170.69 53.14 182.22 52.84 188.19C66.89 195.73 82.95 200 100 200C107.52 200 114.85 199.16 121.89 197.59C121.11 185.85 117.81 151.53 117.81 151.53C123.75 152.48 122.08 145.91 122.08 145.91Z" fill="#008DB2"/>
<path d="M110.04 72.9299C110.04 72.9299 112.52 65.6799 104.85 56.3499C97.1802 47.0199 80.7902 37.8599 63.1402 51.4499C47.1602 63.7699 37.4202 98.9099 40.3802 114.84C43.2602 130.35 69.6202 132.58 74.4002 115.82C76.2602 109.28 71.2102 94.8899 71.2102 94.8899L110.04 72.9299Z" fill="black"/>
<path d="M73.1002 54.2399C76.4202 51.4499 79.8802 49.6299 83.2602 48.5999C83.0902 48.4399 82.9202 48.2799 82.7502 48.0999C80.4302 45.6499 80.4402 42.2099 80.5602 40.7999C80.5902 40.4499 80.9102 40.1999 81.2502 40.2699C82.3802 40.4999 84.8402 41.1899 86.6102 42.9799C87.6802 44.0599 88.4002 45.0899 88.8702 46.0399C89.1502 45.2599 89.5402 44.4499 90.1002 43.6499C91.9302 41.0399 94.9402 40.3299 96.4302 40.1399C96.9302 40.0799 97.3502 40.4899 97.3302 40.9999C97.2702 42.2799 96.9802 44.6699 95.6702 46.6299C95.3202 47.1499 94.9702 47.6099 94.6302 48.0099C96.9902 48.5199 99.1202 49.4299 100.88 50.6599C111.59 58.0699 110.13 67.6199 110.13 67.6199C110.13 67.6199 103.58 46.8299 85.7302 55.7999C67.8802 64.7799 68.6202 81.6899 68.6202 81.6899C68.6202 81.6899 67.7002 79.8999 66.0002 79.9299C63.8702 79.9699 62.5802 80.7699 62.5802 80.7699C62.5802 80.7699 61.7002 63.8299 73.1002 54.2399Z" fill="#00A94F"/>
<path d="M80.9602 39.96C82.0502 39.97 83.1002 40.27 84.1002 40.69C85.0702 41.1 86.0502 41.64 86.8302 42.36C87.6102 43.08 88.2602 43.96 88.7002 44.93C89.1202 45.86 89.3002 46.88 89.4102 47.89C90.8602 48.54 92.1502 49.98 91.9102 51.64C91.8002 52.4 90.6602 52.19 90.7702 51.44C90.8702 50.74 90.4202 50.1 89.9402 49.65C89.4502 49.19 88.8502 48.86 88.1902 48.75C87.0502 48.55 85.6902 49.17 85.3402 50.38C85.2502 50.69 85.0002 50.92 84.6702 50.86C84.3902 50.81 84.1102 50.48 84.2002 50.17C84.7202 48.4 86.4502 47.34 88.2002 47.55C88.1102 46.85 87.9602 46.16 87.6902 45.51C87.3402 44.66 86.7602 43.89 86.1002 43.28C85.4302 42.66 84.6202 42.21 83.8002 41.84C82.9502 41.46 82.0202 41.15 81.0802 41.14C80.7602 41.14 80.4802 40.95 80.4502 40.61C80.4102 40.31 80.6502 39.96 80.9602 39.96Z" fill="#008043"/>
<path d="M80.62 58.93C80.62 58.93 77.6399 61.17 75.7799 63.35C75.1799 64.05 74.25 65.22 73.48 66.33C72.94 67.11 72.4199 68.04 72.4199 68.04C72.4199 68.04 70.78 63.95 73.12 60.99C76.24 57.06 80.62 58.93 80.62 58.93Z" fill="#97CA51"/>
<path d="M73.0104 55.9099C73.5804 56.7399 74.7404 56.9099 75.6004 56.2799C76.4704 55.6499 76.7104 54.4699 76.1504 53.6399C75.8404 53.1899 75.3404 52.9399 74.8204 52.8999C74.8204 52.8999 74.0904 53.4199 73.7104 53.7299C73.1704 54.1799 72.7304 54.5499 72.7304 54.5499C72.6604 55.0099 72.7504 55.5199 73.0104 55.9099Z" fill="#E24497"/>
<path d="M93.6301 41.7499L95.2601 43.2699L94.2101 44.1799L92.5701 42.7399L92.4501 45.4599L91.2201 45.3999L91.2601 43.3599L89.7801 45.1299L89.3701 44.8999C89.3701 44.8999 90.1901 43.1799 91.5501 42.1199C91.9601 41.7999 92.6101 41.3499 93.3801 41.0099C94.2501 40.6299 95.2201 40.3799 95.2201 40.3799L95.4501 41.1599L93.6301 41.7499Z" fill="#97CA51"/>
<path d="M63.59 72.8599L65.57 73.4099L65.36 74.6399L63.53 73.9999L64.31 75.9299L63.43 76.3099L62.96 74.6099C62.96 74.6099 63 74.0799 63.14 73.2299C63.27 72.3799 63.41 71.9499 63.41 71.9499L64.54 70.7799L65 71.6999L63.59 72.8599Z" fill="#FAAE17"/>
<path d="M95.9503 52.1817C96.6189 52.062 97.0694 51.4537 96.9565 50.8231C96.8435 50.1925 96.2099 49.7784 95.5413 49.8981C94.8726 50.0179 94.4221 50.6262 94.5351 51.2568C94.648 51.8874 95.2816 52.3015 95.9503 52.1817Z" fill="white"/>
<path d="M101.9 55.97L103.49 54.26L104.7 55.35L103.25 57.02C103.25 57.02 103.2 56.98 103.1 56.9C103 56.81 102.72 56.57 102.49 56.4C102.04 56.07 101.9 55.97 101.9 55.97Z" fill="#E24497"/>
<path d="M86.9104 52.0701L87.0804 53.7501L81.0504 54.7901L80.8804 52.3001L86.9104 52.0701Z" fill="#FAAE17"/>
<path d="M66.4402 68.3999C66.5002 69.0599 67.0702 69.5399 67.7102 69.4799C68.3502 69.4199 68.8202 68.8299 68.7602 68.1699C68.7002 67.5099 68.1302 67.0299 67.4902 67.0899C66.8502 67.1499 66.3802 67.7399 66.4402 68.3999Z" fill="white"/>
<path d="M97.9603 111.12C97.9603 111.12 99.4603 119.02 89.8703 118.9C81.9303 118.8 77.0703 114.9 75.0003 112.06C75.0003 112.06 74.5503 106.38 73.1803 101.72C71.8103 97.06 70.7903 94.79 70.7903 94.79C70.7903 94.79 64.6703 95.97 61.6603 91.02C58.6503 86.07 59.8903 80.99 64.0903 79.96C68.2903 78.92 68.6103 81.39 70.0403 84.22C71.4803 87.05 76.2803 90.62 75.4203 81.3C75.4203 81.3 80.2003 78.34 83.6603 73.95C87.1203 69.55 88.5303 64.99 88.5303 64.99C88.5303 64.99 90.7003 66.88 96.0103 68.95C102.92 71.65 108.43 70.6 108.97 70.42C109.51 70.24 113.82 87.85 113.64 96.89C113.4 108.78 104.35 111.46 97.9603 111.12Z" fill="#F498A8"/>
<path d="M107.66 68.27C109.15 73.22 110.01 78.36 110.92 83.45C111.78 88.25 112.56 93.2 112.22 98.1C112.04 100.73 111.49 103.46 109.78 105.55C108.45 107.18 106.45 108.13 104.42 108.85C102.28 109.61 100.03 109.71 97.78 109.58C94.64 109.41 91.53 108.84 88.51 107.96C86.96 107.51 86.07 109.87 87.63 110.32C94.87 112.43 104.74 113.85 110.8 108.11C112.92 106.1 113.98 103.42 114.46 100.59C115.26 95.91 114.66 90.96 113.95 86.31C113 80.13 111.94 73.81 110.13 67.82C109.68 66.28 107.2 66.71 107.66 68.27Z" fill="black"/>
<path d="M63.9903 86.09C64.0603 86.12 64.1303 86.14 64.1903 86.17C64.2103 86.18 64.4203 86.29 64.2603 86.2C64.3803 86.26 64.4903 86.33 64.6003 86.41C64.7103 86.49 64.8103 86.57 64.9103 86.65C65.0503 86.76 64.8303 86.56 64.9603 86.7C65.0003 86.74 65.0403 86.79 65.0903 86.83C65.1803 86.93 65.2703 87.03 65.3503 87.13C65.3903 87.19 65.4303 87.25 65.4803 87.31C65.5903 87.45 65.4303 87.21 65.5203 87.37C65.6503 87.6 65.7803 87.84 65.8703 88.09C65.8903 88.15 65.9103 88.2 65.9303 88.26C65.9503 88.32 65.9503 88.31 65.9203 88.23C65.9303 88.26 65.9403 88.3 65.9503 88.33C65.9803 88.46 66.0203 88.59 66.0403 88.72C66.0603 88.85 66.0803 88.98 66.1003 89.11C66.1003 89.15 66.1103 89.18 66.1103 89.22C66.1103 89.13 66.1103 89.11 66.1103 89.18C66.1103 89.24 66.1103 89.3 66.1103 89.36C66.1103 89.62 66.0803 89.89 66.0203 90.15C66.0603 89.96 66.0103 90.17 66.0003 90.21C65.9803 90.28 65.9603 90.35 65.9303 90.42C65.8803 90.56 65.8203 90.69 65.7603 90.82C65.5703 91.22 65.8503 91.77 66.2603 91.9C66.7303 92.05 67.1303 91.83 67.3403 91.4C68.5703 88.86 67.1703 85.53 64.5803 84.52C64.1703 84.36 63.6403 84.59 63.5003 85.02C63.3603 85.45 63.5603 85.92 63.9903 86.09Z" fill="black"/>
<path d="M99.2704 89.9599C99.2204 89.3699 98.9704 88.7999 98.7704 88.2399C98.5504 87.6399 98.3204 87.0399 98.0804 86.4499C97.6004 85.2599 97.0904 84.0799 96.5604 82.9099C96.2104 82.1399 95.0204 82.6999 95.3704 83.4699C96.1704 85.2499 96.9304 87.0399 97.6004 88.8699C97.7404 89.2699 97.9504 89.6999 97.9704 90.1299C97.9804 90.3699 97.9104 90.7799 97.6904 90.9399C97.4904 91.0799 97.1404 91.0399 96.9304 90.9499C96.6204 90.8299 96.4804 90.5799 96.3804 90.2799C96.2604 89.9399 95.8004 89.8299 95.5004 89.9699C95.3804 90.0299 95.3004 90.1099 95.2404 90.2099C95.1104 90.3199 95.0304 90.4699 95.0004 90.6599C94.9904 90.7199 94.9804 90.7799 94.9704 90.8299C94.9704 90.8499 94.9704 90.8499 94.9604 90.8599C94.9604 90.8699 94.9604 90.8599 94.9504 90.8799C94.9204 90.9799 94.8904 91.0799 94.8604 91.1699C94.8404 91.2199 94.8204 91.2599 94.8004 91.3099C94.7904 91.3199 94.8004 91.3199 94.7904 91.3299C94.7904 91.3299 94.7904 91.3299 94.7804 91.3399C94.7204 91.4299 94.6704 91.5099 94.6004 91.5899C94.5804 91.5999 94.5704 91.6199 94.5504 91.6299C94.5104 91.6599 94.4704 91.6899 94.4404 91.7199C94.5504 91.6299 94.4604 91.7099 94.4104 91.7299C94.3804 91.7499 94.3404 91.7599 94.3104 91.7699C94.3004 91.7699 94.2004 91.7899 94.1804 91.7899C94.1704 91.7899 94.1504 91.7899 94.1404 91.7899C94.1404 91.7899 94.1404 91.7899 94.1304 91.7899C94.0704 91.7799 94.0004 91.7799 93.9304 91.7699C93.9104 91.7699 93.9204 91.7699 93.9104 91.7699C93.9004 91.7699 93.9004 91.7599 93.8804 91.7599C93.8304 91.7399 93.7704 91.7199 93.7204 91.6999C93.6904 91.6899 93.6404 91.6599 93.6304 91.6599C93.5904 91.6399 93.5504 91.6099 93.5204 91.5899C93.5104 91.5799 93.5004 91.5799 93.5004 91.5699C93.3804 91.4299 93.2604 91.2899 93.1504 91.1399C93.1404 91.1199 93.1204 91.0899 93.1104 91.0799C93.0804 91.0399 93.0604 90.9999 93.0304 90.9599C92.9704 90.8599 92.9204 90.7699 92.8704 90.6699C92.7804 90.4999 92.7004 90.3299 92.6304 90.1599C92.5004 89.8399 92.0604 89.6899 91.7504 89.8499C91.4204 90.0199 91.3004 90.3899 91.4404 90.7299C91.6404 91.2199 91.9204 91.6999 92.2304 92.1299C92.6104 92.6499 93.1304 92.9899 93.7704 93.0999C94.4704 93.2299 95.1504 92.9499 95.6204 92.4299C95.7604 92.2799 95.8604 92.0999 95.9504 91.9199C96.4404 92.2699 97.0604 92.4399 97.6904 92.3299C98.8104 92.1199 99.3504 90.9899 99.2704 89.9599Z" fill="black"/>
<path d="M100.56 117.3C99.63 119.53 97.84 121.48 95.65 122.52C93.94 123.33 91.89 123.49 90.02 123.45C85.92 123.38 81.34 122.36 78.14 119.66C77.34 118.98 76.4 120.32 77.2 120.99C80.81 124.04 86.17 125.18 90.79 125.07C92.91 125.02 95.11 124.73 96.98 123.66C99.26 122.35 101.08 120.29 102.09 117.86C102.5 116.9 100.96 116.34 100.56 117.3Z" fill="#006B83"/>
<path d="M106.14 81.27C105.59 81.52 103.48 81.18 101.62 81.44C99.66 81.71 98.73 82.14 98.19 82.06C97.19 81.9 96.85 80.73 96.87 80.07C96.89 79.28 97.4 77.74 100.34 77.02C102.13 76.59 103.59 76.8 104.6 77.08C105.06 77.21 106.38 77.92 106.8 79.15C107.19 80.29 106.69 81.02 106.14 81.27Z" fill="white"/>
<path d="M100.87 81.02C102.94 81.2 103.22 77.98 101.15 77.81C99.0798 77.63 98.7998 80.84 100.87 81.02Z" fill="black"/>
<path d="M82.1104 82.07C82.2304 80.77 83.3504 79.78 83.7704 79.55C84.6904 79.04 86.0604 78.4999 87.9004 78.5199C90.9304 78.5399 91.7704 79.93 91.9804 80.69C92.1504 81.33 92.0804 82.55 91.1504 82.93C90.6504 83.14 89.6404 82.93 87.6704 83.11C85.8004 83.29 83.8304 84.1 83.2404 83.98C82.6504 83.87 82.0004 83.28 82.1104 82.07Z" fill="white"/>
<path d="M86.2604 82.8699C88.3304 83.0499 88.6104 79.8299 86.5404 79.6599C84.4704 79.4699 84.1904 82.6899 86.2604 82.8699Z" fill="black"/>
<path d="M70.8003 94.7899C70.8003 94.7899 64.6703 95.9699 61.6603 91.0099C58.6503 86.0499 59.8903 80.9699 64.0903 79.9399C68.2903 78.8999 68.6103 81.3699 70.0503 84.1999C70.7303 85.5399 72.0103 87.1799 73.0803 87.2599L70.8003 94.7899Z" fill="#F498A8"/>
<path d="M63.9904 86.09C64.0604 86.12 64.1304 86.14 64.1904 86.17C64.2104 86.18 64.4204 86.29 64.2604 86.2C64.3804 86.26 64.4904 86.33 64.6004 86.41C64.7104 86.49 64.8104 86.57 64.9104 86.65C65.0504 86.76 64.8304 86.56 64.9604 86.7C65.0004 86.74 65.0404 86.79 65.0904 86.83C65.1804 86.93 65.2704 87.03 65.3504 87.13C65.3904 87.19 65.4404 87.25 65.4804 87.31C65.5904 87.45 65.4304 87.21 65.5204 87.37C65.6504 87.6 65.7804 87.84 65.8704 88.09C65.8904 88.15 65.9104 88.2 65.9304 88.26C65.9504 88.32 65.9504 88.31 65.9204 88.23C65.9304 88.26 65.9404 88.3 65.9504 88.33C65.9804 88.46 66.0204 88.59 66.0404 88.72C66.0604 88.85 66.0804 88.98 66.1004 89.12C66.1004 89.16 66.1104 89.19 66.1104 89.23C66.1104 89.14 66.1104 89.12 66.1104 89.19C66.1104 89.25 66.1104 89.31 66.1104 89.37C66.1104 89.63 66.0804 89.9 66.0204 90.16C66.0604 89.97 66.0104 90.18 66.0004 90.22C65.9804 90.29 65.9604 90.36 65.9304 90.43C65.8804 90.57 65.8204 90.7 65.7604 90.83C65.5704 91.23 65.8504 91.78 66.2604 91.91C66.7304 92.06 67.1404 91.84 67.3404 91.41C68.5704 88.87 67.1704 85.54 64.5804 84.52C64.1704 84.36 63.6404 84.59 63.5004 85.02C63.3604 85.45 63.5504 85.92 63.9904 86.09Z" fill="black"/>
<path d="M82.6701 76.76C82.6801 76.75 82.8701 76.51 82.7501 76.66C82.6301 76.8 82.8101 76.6 82.8401 76.57C82.9601 76.45 83.0801 76.34 83.2101 76.24C83.3301 76.14 83.4501 76.05 83.5701 75.97C83.6801 75.89 83.7401 75.86 83.5901 75.95C83.6601 75.91 83.7401 75.86 83.8101 75.82C84.1001 75.65 84.4001 75.51 84.7101 75.38C84.8801 75.31 85.0401 75.25 85.2101 75.2C85.0401 75.26 85.1301 75.23 85.2501 75.19C85.3401 75.17 85.4201 75.14 85.5101 75.12C85.8401 75.04 86.1801 74.97 86.5201 74.93C86.7001 74.91 86.8701 74.89 87.0501 74.88C87.2501 74.86 86.7301 74.88 87.0701 74.88C87.1401 74.88 87.2101 74.88 87.2801 74.88C87.6201 74.88 87.9701 74.91 88.3101 74.96C88.3801 74.97 88.4401 74.98 88.5101 74.99C88.8301 75.04 88.3301 74.94 88.5101 74.99C88.6801 75.04 88.8601 75.08 89.0301 75.14C89.6701 75.36 90.4801 75.06 90.7001 74.37C90.9101 73.72 90.6201 72.93 89.9301 72.7C86.7301 71.63 82.6901 72.63 80.5301 75.26C80.1001 75.79 80.2801 76.71 80.8401 77.07C81.4801 77.48 82.2101 77.32 82.6701 76.76Z" fill="black"/>
<path d="M98.6701 73.9C98.8101 73.78 98.9501 73.67 99.0901 73.56C99.1901 73.48 99.1801 73.5 99.0801 73.56C99.1601 73.51 99.2301 73.47 99.3101 73.42C99.6101 73.25 99.9301 73.13 100.25 72.99C100.01 73.09 100.24 72.99 100.3 72.98C100.39 72.96 100.48 72.93 100.57 72.91C100.75 72.87 100.93 72.83 101.12 72.8C101.29 72.77 101.45 72.75 101.62 72.74C101.75 72.73 101.85 72.73 101.66 72.73C101.75 72.73 101.85 72.73 101.94 72.73C102.29 72.73 102.64 72.76 102.99 72.82C103.06 72.83 103.13 72.85 103.21 72.86C102.93 72.81 103.18 72.85 103.24 72.87C103.42 72.92 103.59 72.97 103.76 73.03C103.91 73.09 104.06 73.15 104.21 73.21C104.21 73.21 104.51 73.36 104.35 73.28C104.19 73.19 104.45 73.34 104.48 73.36C104.63 73.45 104.78 73.55 104.92 73.66C104.98 73.7 105.03 73.75 105.09 73.79C105.36 74.01 104.91 73.61 105.16 73.85C105.64 74.33 106.44 74.51 106.99 74.01C107.47 73.57 107.66 72.69 107.15 72.18C104.49 69.54 99.8201 69.42 97.0001 71.88C96.4901 72.33 96.3601 73.19 96.8401 73.71C97.3101 74.25 98.1201 74.38 98.6701 73.9Z" fill="black"/>
<path d="M53.29 156.59C53.3 156.58 53.31 156.57 53.29 156.59V156.59Z" fill="#006B83"/>
<path d="M54.5703 154.38C54.5703 154.33 54.5803 154.27 54.5703 154.38V154.38Z" fill="#006B83"/>
<path d="M62.5602 149.39C62.2702 149.1 61.6902 149.05 61.4002 149.39C59.8602 151.17 57.6502 152.28 55.3202 152.4C54.8802 152.42 54.5002 152.76 54.5002 153.22C54.5002 153.37 54.5602 153.5 54.6302 153.63C54.6102 153.7 54.5902 153.76 54.5902 153.84C54.5902 154 54.5902 154.16 54.5702 154.32C54.5702 154.36 54.5602 154.39 54.5602 154.43C54.5602 154.4 54.5602 154.4 54.5602 154.38C54.5602 154.39 54.5602 154.39 54.5602 154.4C54.5502 154.48 54.5302 154.56 54.5102 154.64C54.4702 154.8 54.4302 154.95 54.3702 155.11C54.3602 155.14 54.3502 155.18 54.3302 155.21C54.3202 155.24 54.2602 155.39 54.3102 155.26C54.3502 155.15 54.3102 155.26 54.3002 155.29C54.2802 155.33 54.2602 155.37 54.2402 155.41C54.1702 155.55 54.0902 155.68 54.0102 155.81C53.9702 155.88 53.9202 155.94 53.8702 156.01C53.8502 156.03 53.8402 156.05 53.8202 156.07C53.7202 156.19 53.6002 156.31 53.4902 156.42C53.4302 156.48 53.3702 156.53 53.3102 156.58C53.2802 156.6 53.2502 156.62 53.2302 156.65C53.2602 156.62 53.2702 156.61 53.2902 156.6C53.2702 156.62 53.2502 156.64 53.2302 156.65C52.8802 156.9 52.6802 157.37 52.9402 157.77C53.1602 158.11 53.6902 158.33 54.0602 158.06C55.3902 157.11 56.2202 155.59 56.2302 153.95C58.6602 153.62 60.9502 152.42 62.5702 150.55C62.8502 150.22 62.8902 149.72 62.5602 149.39Z" fill="#006B83"/>
<path d="M112.96 132.85C115.53 137.22 116.83 142.21 116.72 147.28C116.7 148.33 118.33 148.33 118.35 147.28C118.47 141.94 117.08 136.63 114.37 132.03C113.84 131.12 112.42 131.94 112.96 132.85Z" fill="#006B83"/>
<path d="M62.5002 167.31L65.3502 163.6C71.7402 165.88 76.5802 161.52 76.5802 161.52C77.1602 162.44 79.5502 162.93 79.5502 162.93C79.5502 162.93 78.7902 164.73 82.2702 165.67C85.7502 166.61 87.4802 165.26 88.1702 163.54C88.8702 161.83 87.1902 161 87.1902 161C87.1902 161 90.2102 162.05 91.6002 159.72C92.9902 157.39 91.4402 156.13 91.4402 156.13C96.2402 156.75 95.4602 151.95 93.7602 151.03C92.0602 150.11 83.4402 146.65 83.4402 146.65L85.7202 145.29C85.7202 145.29 86.9202 145.49 93.1202 145.47C99.3102 145.45 100.62 144.57 100.57 142.33C100.53 140.09 97.3102 140.27 90.7202 139.81C84.3402 139.36 82.5902 139.78 82.4902 139.8C82.5302 139.67 83.1402 137.8 82.4902 134.86C81.8002 131.82 76.6302 131.6 76.9302 134.76C77.2302 137.92 75.0502 140.03 72.7102 141.92C70.3802 143.82 67.5402 146.64 65.8802 148.92C64.7002 150.54 57.5102 155.1 53.4302 157.62C51.7502 158.65 50.6002 159.35 50.6002 159.35L51.4902 157.79C51.1602 157.72 50.7902 157.61 50.3602 157.39C47.4802 155.95 48.9902 152.37 48.9902 152.37C48.9902 152.37 47.3902 155.45 44.4202 153.97C41.4502 152.49 43.0502 149.97 43.0502 149.97C43.0502 149.97 41.2102 151.81 38.6002 150.43C36.6602 149.4 37.3402 146.89 37.3402 146.89C37.3402 146.89 35.8402 147.58 34.2602 147.28C31.5202 152.73 27.7602 161.22 27.4302 168.77C32.0702 173.66 37.2002 178.09 42.7402 181.96C46.4302 180.68 50.1802 178.24 53.4202 175.71C58.6402 171.64 62.5002 167.31 62.5002 167.31Z" fill="#F5A0AC"/>
<path d="M76.83 144.67C77.75 143.91 78.67 143.15 79.58 142.39C80 142.04 80.41 141.65 80.87 141.34C81.31 141.03 81.82 140.89 82.33 140.75C83.13 140.53 82.79 139.29 81.99 139.5C81.43 139.65 80.85 139.82 80.35 140.13C79.81 140.47 79.33 140.92 78.84 141.33C77.86 142.14 76.89 142.95 75.91 143.76C75.64 143.98 75.68 144.44 75.91 144.67C76.18 144.93 76.56 144.89 76.83 144.67Z" fill="black"/>
<path d="M90.6002 155.41C88.3002 154.47 85.9902 153.57 83.6602 152.71C83.3302 152.59 82.9502 152.85 82.8602 153.16C82.7602 153.52 82.9802 153.83 83.3102 153.96C85.6402 154.82 87.9502 155.72 90.2502 156.66C90.5702 156.79 90.9602 156.52 91.0502 156.21C91.1502 155.83 90.9202 155.54 90.6002 155.41Z" fill="black"/>
<path d="M86.8502 160.34C85.3402 159.83 83.8402 159.3 82.3502 158.74C82.0202 158.62 81.6402 158.88 81.5502 159.19C81.4502 159.55 81.6702 159.86 82.0002 159.99C83.4902 160.54 84.9902 161.08 86.5002 161.59C86.8302 161.7 87.2102 161.46 87.3002 161.14C87.4002 160.78 87.1802 160.45 86.8502 160.34Z" fill="black"/>
<path d="M82.1901 163.03C80.0301 162.83 77.9201 161.96 76.2501 160.58C75.9801 160.36 75.6001 160.32 75.3401 160.58C75.1101 160.81 75.0701 161.27 75.3401 161.49C77.3001 163.11 79.6601 164.09 82.1901 164.32C82.5401 164.35 82.8401 164 82.8401 163.67C82.8401 163.31 82.5401 163.07 82.1901 163.03Z" fill="black"/>
<path d="M75.6501 161.17C72.9101 164.2 68.3801 164.57 65.1501 162.09C64.4901 161.58 63.8401 162.71 64.5001 163.21C68.1701 166.02 73.4801 165.51 76.5701 162.09C77.1301 161.47 76.2101 160.55 75.6501 161.17Z" fill="black"/>
<path d="M65.37 163.01C64.29 164.17 63.27 165.38 62.31 166.64C62.1 166.91 62.26 167.38 62.54 167.53C62.88 167.71 63.21 167.59 63.43 167.3C63.48 167.23 63.54 167.16 63.59 167.09C63.72 166.92 63.56 167.13 63.63 167.04C63.66 167.01 63.68 166.97 63.71 166.94C63.83 166.79 63.94 166.64 64.06 166.5C64.3 166.21 64.53 165.92 64.78 165.63C65.27 165.06 65.77 164.49 66.28 163.94C66.51 163.69 66.54 163.27 66.28 163.03C66.03 162.78 65.62 162.75 65.37 163.01Z" fill="black"/>
<path d="M136.23 141.36C136.23 141.36 136.09 141.13 135.73 140.89C134.39 141.57 132.91 141.43 132.91 141.43C132.91 141.43 134.85 142.76 131.89 144.05C129.72 145 128.37 142.85 128.37 142.85C128.37 142.85 129.76 145.72 126.98 147.01C124.14 148.33 122.08 145.9 122.08 145.9C122.08 145.9 123.41 151.21 119.35 151.58L126.25 165.33L119 165.05L93.9901 164.07L93.9801 163.96L93.8101 163.95C90.4901 162.51 87.3501 163.49 86.0101 164.03C83.1901 165.18 81.9701 167.4 81.9701 167.4C81.9701 167.4 82.5901 166.21 79.6901 165.55C76.4601 164.81 74.8901 165.42 74.0901 166.9C73.2901 168.37 74.7401 169.27 74.7401 169.27C74.7401 169.27 72.0901 168.04 70.5901 170C69.0901 171.95 70.3901 173.23 70.3901 173.23C66.0601 172.22 66.3201 176.59 67.7701 177.58C69.2301 178.57 76.7701 182.48 76.7701 182.48L74.5501 183.48C74.5501 183.48 73.4701 183.19 67.8101 182.61C62.9801 182.12 61.3501 182.54 60.8601 183.92C60.7801 184.16 60.7201 184.42 60.7001 184.71C60.5201 186.72 63.4801 186.86 69.4501 187.9C75.2301 188.91 76.8801 188.7 76.9701 188.69C76.9201 188.8 80.8901 187.33 83.2001 185.85C83.8601 185.43 85.2001 184.73 86.7001 183.87C89.3201 182.37 92.4401 180.36 93.4001 178.37C96.4201 178.07 108.68 180.6 120.29 182.47C123.36 182.97 126.38 183.42 129.17 183.76C142.15 185.34 146.17 180.36 148.25 177.22C154.87 167.29 136.23 141.36 136.23 141.36Z" fill="#F5A0AC"/>
<path d="M70.7901 173.79C71.8801 173.98 72.9701 174.18 74.0301 174.51C74.8101 174.76 75.7701 175.09 76.2401 175.81C76.5901 176.35 76.6401 177.11 76.0401 177.45C75.2901 177.86 74.1601 177.71 73.4101 177.38C73.0901 177.24 72.71 177.29 72.52 177.61C72.36 177.89 72.4301 178.35 72.7501 178.5C74.3001 179.19 77.2201 179.37 77.7101 177.22C77.9201 176.32 77.6101 175.4 77.0001 174.72C76.3701 174.03 75.4801 173.65 74.6201 173.35C73.4801 172.96 72.3001 172.75 71.1201 172.54C70.7801 172.48 70.4201 172.63 70.3201 172.99C70.2501 173.31 70.4401 173.73 70.7901 173.79Z" fill="black"/>
<path d="M76.1903 170.49C76.2503 170.52 76.3203 170.54 76.3803 170.57C76.3003 170.54 76.4903 170.62 76.5103 170.63C76.6503 170.69 76.7803 170.76 76.9103 170.83C77.1703 170.97 77.3003 171.06 77.4803 171.24C77.6503 171.42 77.7403 171.55 77.8003 171.83C77.8503 172.05 77.8303 172.42 77.8003 172.65C77.7803 172.79 77.7503 172.92 77.7003 173.03C77.6703 173.09 77.6303 173.14 77.5903 173.2C77.5203 173.31 77.6203 173.18 77.5303 173.27C77.4803 173.32 77.4303 173.38 77.3803 173.43C77.3603 173.45 77.2403 173.55 77.2803 173.52C77.3203 173.49 77.1903 173.58 77.1703 173.59C77.1103 173.63 77.0503 173.66 76.9903 173.69C76.9603 173.7 76.8103 173.77 76.9303 173.72C76.8803 173.74 76.8203 173.76 76.7703 173.78C76.6603 173.81 76.5503 173.84 76.4403 173.86C76.2903 173.89 76.5303 173.86 76.4003 173.86C76.3503 173.86 76.2903 173.87 76.2403 173.87C76.1803 173.87 76.1203 173.87 76.0603 173.86C75.8903 173.86 76.1403 173.88 76.0203 173.86C75.6803 173.8 75.3203 173.95 75.2203 174.31C75.1303 174.62 75.3303 175.04 75.6703 175.11C77.1003 175.36 78.8003 174.53 79.0603 173C79.2203 172.08 79.1303 171.16 78.5003 170.43C77.9903 169.85 77.2403 169.54 76.5503 169.26C76.2303 169.13 75.8403 169.4 75.7503 169.71C75.6403 170.06 75.8703 170.36 76.1903 170.49Z" fill="black"/>
<path d="M83.7301 173.4C82.6401 174.26 81.6501 175.24 80.8001 176.34C80.0101 177.36 79.3901 178.59 79.6801 179.92C79.9601 181.19 81.1001 182 82.3901 181.94C83.7401 181.87 84.7901 181.02 85.7201 180.11C86.9301 178.93 88.1801 177.79 89.4901 176.72C89.7601 176.5 89.7201 176.04 89.4901 175.81C89.2201 175.54 88.8501 175.59 88.5801 175.81C87.3401 176.81 86.1501 177.88 85.0101 179C84.1901 179.8 82.9901 181.05 81.7001 180.56C80.3501 180.05 81.0001 178.3 81.5701 177.47C82.4001 176.27 83.5101 175.22 84.6501 174.32C84.9301 174.1 84.8701 173.63 84.6501 173.41C84.3701 173.12 84.0001 173.18 83.7301 173.4Z" fill="black"/>
<path d="M80.5199 167.13C80.7199 167.27 80.8899 167.44 81.0299 167.68C81.1199 167.84 81.1399 167.89 81.1899 168.02C81.2099 168.1 81.2299 168.17 81.2499 168.25C81.2599 168.28 81.2599 168.32 81.2699 168.35C81.2599 168.29 81.2599 168.3 81.2699 168.38C81.2699 168.45 81.2799 168.52 81.2799 168.58C81.2799 168.61 81.2499 168.85 81.2699 168.74C81.2399 168.89 81.1999 169.04 81.1499 169.19C81.1899 169.09 81.1099 169.27 81.1099 169.28C81.0699 169.35 81.0299 169.42 80.9899 169.48C80.9299 169.57 80.8799 169.64 80.7499 169.76C80.6899 169.81 80.6399 169.87 80.5799 169.92C80.6599 169.86 80.5099 169.96 80.4999 169.97C80.4299 170.02 80.3499 170.06 80.2699 170.1C80.0999 170.19 80.3299 170.09 80.1999 170.13C80.0899 170.16 79.9899 170.19 79.8799 170.21C80.0399 170.18 79.8399 170.21 79.8099 170.21C79.7399 170.21 79.6699 170.22 79.5999 170.22C79.2499 170.22 79.0499 170.19 78.7199 170.11C78.3599 170.03 77.9999 169.91 77.6699 169.75C77.3499 169.6 76.9699 169.66 76.7799 169.98C76.6199 170.26 76.6899 170.72 77.0099 170.87C78.1699 171.42 79.6699 171.81 80.8999 171.24C82.1499 170.66 82.8099 169.2 82.5099 167.87C82.3399 167.1 81.8399 166.44 81.1899 166C80.8999 165.81 80.4699 165.94 80.2999 166.23C80.1099 166.56 80.2299 166.94 80.5199 167.13Z" fill="black"/>
<path d="M91.5702 168.27C89.7302 168.37 87.8102 168.71 86.2502 169.76C84.8302 170.72 83.8302 172.14 83.6002 173.85C83.5502 174.2 83.9302 174.5 84.2502 174.5C84.6402 174.5 84.8502 174.2 84.9002 173.85C85.0702 172.55 86.0102 171.43 87.0902 170.75C88.4302 169.92 90.0202 169.64 91.5702 169.55C92.3902 169.51 92.4002 168.22 91.5702 168.27Z" fill="black"/>
<path d="M96.9502 97.46C96.9702 97.45 96.3102 102.6 91.9502 103.09C87.5902 103.58 84.3702 98.93 84.4502 94.31C84.4502 94.31 85.0102 92.93 86.3402 94.54C87.6802 96.16 92.2002 99.3 96.9502 97.46Z" fill="black"/>
<path d="M87.0503 94.4C87.0803 97.01 89.7103 99.67 92.2703 99.93C94.0503 100.11 94.9203 98.68 95.3403 97.47C91.6803 97.91 88.4403 95.81 87.0503 94.4Z" fill="white"/>
<path d="M85.0303 97.84C85.9503 100.46 87.8903 102.59 90.3603 103.04C90.2803 102.06 89.7103 100.52 88.3603 99.2C87.2503 98.12 86.0303 97.74 85.0303 97.84Z" fill="#EC145A"/>
<path d="M97.9302 96.47C95.9602 97.46 93.7102 97.51 91.6202 96.87C90.5702 96.55 89.5702 96.08 88.6202 95.53C87.7502 95.02 86.8202 94.46 86.2902 93.57C86.3302 93.51 86.3702 93.46 86.4102 93.4C86.7002 92.96 86.9202 92.48 87.0602 91.97C87.1302 91.7 87.0402 91.37 86.7402 91.27C86.4802 91.19 86.1202 91.3 86.0402 91.59C86.0002 91.76 85.9402 91.92 85.8802 92.09C85.8502 92.17 85.8102 92.25 85.7802 92.33C85.7602 92.37 85.7402 92.42 85.7202 92.46C85.7202 92.47 85.7102 92.48 85.7102 92.49C85.6202 92.64 85.5302 92.79 85.4302 92.93C85.3802 93 85.3302 93.07 85.2702 93.13C85.2402 93.16 85.2102 93.2 85.1802 93.23C85.1702 93.24 85.1502 93.26 85.1402 93.28C85.0202 93.4 84.8902 93.52 84.7502 93.62C84.7302 93.63 84.6402 93.69 84.7202 93.64C84.6802 93.66 84.6502 93.68 84.6102 93.7C84.5702 93.72 84.5302 93.73 84.5002 93.75C84.4902 93.76 84.4802 93.76 84.4802 93.76C84.4802 93.76 84.4802 93.76 84.4702 93.76C84.4302 93.77 84.3902 93.78 84.3502 93.78C84.3302 93.78 84.3202 93.78 84.3002 93.79C84.3002 93.79 84.3002 93.79 84.2902 93.79C84.2402 93.79 84.1902 93.79 84.1402 93.78C84.1302 93.78 84.0602 93.77 84.0402 93.76C84.0202 93.75 83.9502 93.73 83.9402 93.73C83.8902 93.72 83.8502 93.7 83.8002 93.68C83.7602 93.67 83.7202 93.65 83.6802 93.64C83.5002 93.47 83.2702 93.41 83.0302 93.51C82.7902 93.61 82.6702 93.89 82.7202 94.14C82.8002 94.52 83.2302 94.65 83.5602 94.75C83.8802 94.85 84.2102 94.9 84.5402 94.85C84.8402 94.8 85.1102 94.67 85.3602 94.5C85.4202 94.46 85.4802 94.41 85.5302 94.37C86.0902 95.16 86.8502 95.74 87.6902 96.25C88.8002 96.93 89.9802 97.51 91.2302 97.9C93.5902 98.62 96.1402 98.58 98.3802 97.46C99.0202 97.14 98.5602 96.16 97.9302 96.47Z" fill="black"/>
<path d="M85.7203 103.48C86.8803 104.44 88.2603 105.07 89.7403 105.38C90.0403 105.44 90.3303 105.14 90.3503 104.87C90.3803 104.54 90.1403 104.32 89.8403 104.26C89.2703 104.14 88.5803 103.9 88.0103 103.62C87.4503 103.35 86.8803 102.97 86.3803 102.56C86.1403 102.37 85.7603 102.46 85.5903 102.7C85.4003 102.96 85.4903 103.29 85.7203 103.48Z" fill="black"/>
<path fill-rule="evenodd" clip-rule="evenodd" d="M125.22 84.9999C125.22 84.9999 121.01 76.2399 124.21 66.1999C124.41 65.4099 124.63 64.6099 124.89 63.7899C131.17 44.1499 163.24 37.9999 175.49 60.4699C187.75 82.9199 162.44 110.99 136.36 97.4099C135.05 96.7299 133.4 95.6199 131.72 94.0799C129.2 95.1999 125.06 96.0599 120.45 93.0399C119.48 92.3999 119.54 90.9399 120.58 90.4099C123.13 89.0799 125.22 84.9999 125.22 84.9999Z" fill="white"/>
<path d="M51.5903 145.53C47.9103 149.64 45.6803 155.16 46.2103 160.73C46.7003 165.87 49.3903 170.61 53.6803 173.51C54.6703 174.18 55.6103 172.57 54.6203 171.9C50.8103 169.32 48.3703 164.93 48.0403 160.35C47.6803 155.39 49.6203 150.52 52.9103 146.85C53.7003 145.95 52.3903 144.63 51.5903 145.53Z" fill="white"/>
<path d="M55.2005 169.25C55.8305 170.72 56.3605 172.23 56.7805 173.77C56.8005 173.85 56.8205 173.94 56.8005 174.01C56.7705 174.09 51.5205 174.18 51.5005 174.12C51.4905 174.12 54.2305 170.54 55.2005 169.25Z" fill="white"/>
<path d="M53.8803 170.02C54.0103 170.32 53.7603 169.74 53.8803 170.02C53.9203 170.12 53.9603 170.21 53.9903 170.3C54.0603 170.49 54.1403 170.67 54.2103 170.86C54.3503 171.23 54.4903 171.61 54.6203 171.98C54.8803 172.73 55.1303 173.48 55.3203 174.25C55.3003 174.11 55.2803 173.98 55.2703 173.84C55.2703 173.87 55.2803 173.89 55.2803 173.92C55.3003 173.78 55.3203 173.65 55.3303 173.51C55.3303 173.54 55.3203 173.56 55.3203 173.59C55.4503 173.37 55.5803 173.14 55.7103 172.92C56.1803 172.33 56.6303 172.5 56.3203 172.54C56.4603 172.52 56.5903 172.5 56.7303 172.49C56.1003 172.57 55.4503 172.55 54.8203 172.57C53.9603 172.59 53.1003 172.61 52.2303 172.61C51.9903 172.61 51.7403 172.63 51.5003 172.6C51.6403 172.62 51.7703 172.64 51.9103 172.65C51.6503 172.61 51.8603 172.3 52.5603 173.04C52.6403 173.66 52.7203 174.27 52.8003 174.89C54.0403 173.27 55.2803 171.65 56.5103 170.02C56.7303 169.72 56.7603 169.18 56.6603 168.84C56.5603 168.49 56.2903 168.1 55.9603 167.93C55.6103 167.74 55.1803 167.65 54.7803 167.78C54.3803 167.91 54.1203 168.15 53.8703 168.48C52.6403 170.11 51.4003 171.73 50.1603 173.35C49.9603 173.61 49.9403 174.02 49.9803 174.32C50.0303 174.66 50.1603 174.95 50.4003 175.2C50.9003 175.73 51.6803 175.67 52.3403 175.67C53.0203 175.67 53.7103 175.66 54.3903 175.64C55.0103 175.63 55.6403 175.61 56.2603 175.58C56.5403 175.57 56.8503 175.56 57.1203 175.49C57.3903 175.42 57.6603 175.29 57.8503 175.08C58.3803 174.51 58.3603 173.81 58.1603 173.11C57.7103 171.52 57.1403 169.98 56.4903 168.47C56.3503 168.14 55.9003 167.86 55.5803 167.77C55.2103 167.67 54.7303 167.71 54.4003 167.92C54.0703 168.13 53.7903 168.44 53.7003 168.83C53.6203 169.27 53.7103 169.62 53.8803 170.02Z" fill="white"/>
<path d="M108.39 145.53C111.68 149.2 113.62 154.07 113.26 159.03C112.93 163.61 110.49 168 106.68 170.58C105.69 171.25 106.62 172.86 107.62 172.19C111.91 169.29 114.59 164.55 115.09 159.41C115.63 153.85 113.38 148.32 109.71 144.21C108.9 143.32 107.59 144.64 108.39 145.53Z" fill="white"/>
<path d="M107.16 147.56C106.87 145.99 106.69 144.4 106.61 142.8C106.61 142.72 106.6 142.63 106.65 142.56C106.7 142.49 111.84 143.55 111.85 143.62C111.85 143.62 108.39 146.51 107.16 147.56Z" fill="white"/>
<path d="M108.63 147.15C108.53 146.58 108.44 146.01 108.36 145.44C108.38 145.58 108.4 145.71 108.41 145.85C108.34 145.31 108.28 144.77 108.23 144.23C108.19 143.72 108.08 143.15 108.14 142.64C108.12 142.78 108.1 142.91 108.09 143.05C108.1 143.03 108.11 143 108.12 142.98C107.99 143.2 107.86 143.43 107.73 143.65C107.51 143.78 107.28 143.91 107.06 144.04C107.06 144.04 107.06 144.04 107.07 144.04C106.93 144.06 106.8 144.08 106.66 144.09C106.7 144.09 106.75 144.1 106.79 144.1C106.65 144.08 106.52 144.06 106.38 144.05C107.87 144.25 109.36 144.61 110.82 144.94C110.96 144.97 111.1 145 111.23 145.04C111.27 145.05 111.31 145.06 111.35 145.07C111.37 145.07 111.38 145.08 111.4 145.08C111.12 145.03 110.67 144.64 110.52 144.39C110.6 143.77 110.68 143.16 110.76 142.54C109.56 143.54 108.36 144.55 107.16 145.55C106.8 145.86 106.43 146.16 106.07 146.47C105.46 146.99 105.5 148.1 106.07 148.63C106.72 149.23 107.58 149.18 108.23 148.63C109.63 147.44 111.05 146.25 112.47 145.07C112.62 144.94 112.77 144.82 112.92 144.69C113.43 144.26 113.48 143.38 113.16 142.84C112.78 142.19 112.07 142.08 111.41 141.93C110.75 141.78 110.09 141.65 109.43 141.51C108.82 141.39 108.21 141.26 107.6 141.15C107.31 141.1 107.01 141.03 106.72 141.02C106.55 141.01 106.44 141.02 106.24 141.07C105.42 141.3 105.05 142.1 105.08 142.89C105.15 144.59 105.37 146.28 105.68 147.95C105.75 148.31 106.08 148.69 106.38 148.86C106.71 149.05 107.19 149.13 107.56 149.01C108.41 148.76 108.79 147.99 108.63 147.15Z" fill="white"/>
<path fill-rule="evenodd" clip-rule="evenodd" d="M165.67 78.55H137.06C136.44 78.55 135.94 78.05 135.94 77.43V72.75C135.94 72.13 136.44 71.63 137.06 71.63H165.67C166.29 71.63 166.79 72.13 166.79 72.75V77.43C166.79 78.05 166.29 78.55 165.67 78.55Z" fill="black"/>
<path fill-rule="evenodd" clip-rule="evenodd" d="M163.17 86.4801H139.54C138.06 86.4801 136.86 85.2801 136.86 83.8001V70.8801C136.86 69.4001 138.06 68.2001 139.54 68.2001H163.17C164.65 68.2001 165.85 69.4001 165.85 70.8801V83.8001C165.85 85.2801 164.65 86.4801 163.17 86.4801Z" fill="black"/>
<path d="M146.02 83.1501C148.969 83.1501 151.36 80.7593 151.36 77.8101C151.36 74.8609 148.969 72.4701 146.02 72.4701C143.07 72.4701 140.68 74.8609 140.68 77.8101C140.68 80.7593 143.07 83.1501 146.02 83.1501Z" stroke="white" stroke-width="0.6575" stroke-miterlimit="10"/>
<path d="M155 73.92H162.5" stroke="white" stroke-width="0.6575" stroke-miterlimit="10"/>
<path d="M155 77.04H162.5" stroke="white" stroke-width="0.6575" stroke-miterlimit="10"/>
<path d="M155 80.6101H162.5" stroke="white" stroke-width="0.6272" stroke-miterlimit="10"/>
<path d="M140.57 69.57L157.06 58.05" stroke="black" stroke-width="0.9184" stroke-miterlimit="10"/>
</g>
<defs>
<clipPath id="clip0_520_6466">
<rect width="200" height="200" fill="white"/>
</clipPath>
</defs>
</svg>
