<svg width="200" height="200" viewBox="0 0 200 200" fill="none" xmlns="http://www.w3.org/2000/svg">
<g clip-path="url(#clip0_240_387)">
<path d="M35.7839 193.858C28.6939 186.478 30.1739 176.608 32.6639 160.648C36.5039 136.038 52.5339 106.128 74.9839 99.0581C99.0239 91.4781 117.204 90.2781 133.544 95.4881C161.894 104.538 185.024 119.268 194.044 150.508C200.064 171.338 200.004 199.768 200.004 199.768H43.8039C43.8039 199.768 39.3139 197.538 35.7839 193.858Z" fill="#E7E6E6"/>
<path d="M137.814 95.7481L130.714 96.2981L115.554 130.648C115.554 130.648 120.094 138.458 129.854 137.018C139.614 135.578 139.394 122.138 139.704 116.048C140.144 107.288 137.814 95.7481 137.814 95.7481Z" fill="#A1A2A2"/>
<path d="M87.6639 119.608C87.5539 125.488 88.7739 134.808 96.4339 136.698C104.094 138.588 109.194 133.478 109.194 133.478L104.204 117.388L87.6639 119.608Z" fill="#A1A2A2"/>
<path d="M141.604 87.0481C141.604 87.0481 143.364 76.2781 137.454 67.0581C131.174 57.2581 120.854 53.4481 105.614 55.5681C90.3739 57.6881 84.1239 68.7381 81.5039 78.6281L123.054 85.4281L120.304 103.078L130.134 102.968L141.604 87.0481Z" fill="black"/>
<path d="M132.184 91.6281C132.184 91.6281 133.694 84.8081 137.894 83.9881C142.094 83.1781 143.634 85.9881 143.074 90.8181C142.514 95.6481 138.984 100.368 134.024 99.0881C134.024 99.0881 132.014 106.398 129.514 112.128C126.234 119.628 121.154 128.388 111.494 137.448L103.104 131.058C103.104 131.058 87.7139 131.018 80.3239 116.478C72.9339 101.938 82.3639 78.6681 82.3639 78.6681C82.3639 78.6681 85.0739 70.8281 90.8539 68.4181C96.6339 66.0081 95.7039 69.8981 99.4839 71.4881C103.264 73.0781 111.764 69.8281 114.804 67.3881C117.844 64.9481 122.634 65.7481 124.574 68.3181C126.514 70.8881 126.044 74.5181 124.684 77.2581C123.324 79.9981 126.984 82.5281 127.114 84.1781C127.244 85.8281 125.834 92.0381 124.294 97.6681C122.754 103.288 124.244 103.248 127.224 102.628C130.184 102.028 130.104 98.4881 132.184 91.6281Z" fill="#F4A5AB"/>
<path d="M101.924 95.3181C101.904 95.4181 101.874 95.5281 101.844 95.6281C101.794 95.7781 101.814 95.6381 101.854 95.6181C101.844 95.6181 101.784 95.7581 101.774 95.7681C101.744 95.8181 101.714 95.8681 101.684 95.9181C101.674 95.9381 101.574 96.0781 101.644 95.9781C101.714 95.8781 101.614 96.0081 101.594 96.0281C101.554 96.0681 101.514 96.1081 101.474 96.1581C101.444 96.1881 101.404 96.2281 101.364 96.2581C101.234 96.3681 101.344 96.2481 101.374 96.2581C101.354 96.2481 101.134 96.4081 101.104 96.4281C101.074 96.4481 101.014 96.4881 100.974 96.4881C101.074 96.4481 101.094 96.4381 101.034 96.4581C101.004 96.4681 100.984 96.4781 100.954 96.4881C100.904 96.5081 100.864 96.5181 100.814 96.5281C100.794 96.5381 100.574 96.5781 100.674 96.5581C100.784 96.5481 100.584 96.5581 100.564 96.5581C100.544 96.5581 100.394 96.5381 100.374 96.5481C100.414 96.5181 100.544 96.5781 100.394 96.5481C100.344 96.5381 100.304 96.5281 100.254 96.5181C100.214 96.5081 100.134 96.4581 100.094 96.4581C100.164 96.4581 100.214 96.5181 100.104 96.4581C100.064 96.4381 100.024 96.4081 99.9839 96.3881C99.9439 96.3681 99.7839 96.2881 99.9639 96.3781C99.8839 96.3381 99.8139 96.2481 99.7539 96.1881C99.7239 96.1481 99.6639 96.1081 99.6439 96.0581C99.7239 96.2281 99.6639 96.0781 99.6339 96.0381C99.5939 95.9781 99.5039 95.8581 99.4939 95.7881C99.5339 95.8881 99.5439 95.9081 99.5239 95.8481C99.5139 95.8181 99.5039 95.7981 99.4939 95.7681C99.4739 95.7181 99.4639 95.6581 99.4539 95.5981C99.3539 95.1881 98.8639 94.9081 98.4639 95.0381C98.0339 95.1781 97.7939 95.5881 97.9039 96.0281C98.1939 97.2881 99.4439 98.2981 100.754 98.1681C102.064 98.0281 103.204 97.0581 103.484 95.7581C103.574 95.3481 103.364 94.8681 102.924 94.7681C102.504 94.6681 102.014 94.8781 101.924 95.3181Z" fill="black"/>
<path d="M97.984 95.3781C97.854 95.5981 97.7139 95.7981 97.5739 96.0081C97.5239 96.0881 97.6539 95.9081 97.5639 96.0281C97.5239 96.0781 97.4839 96.1281 97.4339 96.1781C97.3939 96.2281 97.3439 96.2681 97.2939 96.3181C97.2739 96.3281 97.1439 96.4481 97.2239 96.3781C97.3139 96.3081 97.1639 96.4181 97.1439 96.4281C97.0839 96.4681 97.0139 96.4981 96.9539 96.5281C97.0839 96.4581 96.8939 96.5481 96.8639 96.5581C96.7939 96.5781 96.7239 96.5981 96.6439 96.6181C96.5239 96.6481 96.3939 96.6681 96.2739 96.6981C96.0839 96.7381 96.3639 96.6981 96.1839 96.7081C96.1039 96.7081 96.0339 96.7081 95.9539 96.7081C95.8039 96.7081 95.9939 96.7281 95.9239 96.7081C95.8639 96.6881 95.8039 96.6681 95.7539 96.6581C95.6639 96.6381 95.8839 96.7281 95.7539 96.6581C95.7039 96.6281 95.6539 96.5981 95.5939 96.5681C95.4339 96.4681 95.7039 96.6781 95.5639 96.5481C95.5239 96.5181 95.4939 96.4781 95.4539 96.4481C95.4339 96.4281 95.3139 96.2781 95.3839 96.3681C95.4539 96.4681 95.3539 96.3181 95.3439 96.2981C95.3139 96.2481 95.2839 96.1881 95.2539 96.1381C95.3339 96.2781 95.2439 96.0981 95.2339 96.0681C95.2139 96.0081 95.2039 95.9581 95.1939 95.8981C95.1739 95.8281 95.1739 95.7481 95.1839 95.8681C95.1739 95.7281 95.1739 95.5881 95.1839 95.4381C95.1939 95.2681 95.1439 95.5481 95.1939 95.3681C95.2139 95.2981 95.2239 95.2281 95.2439 95.1581C95.3539 94.7481 95.1039 94.2681 94.6839 94.1681C94.2639 94.0681 93.8139 94.2981 93.6939 94.7281C93.4839 95.4981 93.5239 96.3481 93.9239 97.0481C94.2639 97.6581 94.8939 98.1481 95.5939 98.2681C96.3639 98.3981 97.3439 98.2081 98.0039 97.7581C98.5939 97.3581 98.9939 96.7781 99.3539 96.1681C99.5739 95.8081 99.4439 95.2681 99.0639 95.0681C98.6939 94.8781 98.214 94.9881 97.984 95.3781Z" fill="black"/>
<path d="M95.2739 94.9681C95.4639 92.2281 96.2639 89.5781 97.0339 86.9581C97.3339 85.9581 95.7739 85.5381 95.4839 86.5281C94.6639 89.2981 93.8639 92.0781 93.6639 94.9681C93.6339 95.3981 94.0539 95.7781 94.4739 95.7781C94.9339 95.7781 95.2439 95.4081 95.2739 94.9681Z" fill="black"/>
<path d="M115.874 78.2381C114.654 76.6581 112.974 75.6681 110.974 75.4981C109.084 75.3381 107.144 76.1281 105.814 77.4681C105.304 77.9781 105.264 78.9081 105.814 79.4081C106.364 79.9081 107.214 79.9481 107.754 79.4081C107.874 79.2881 107.994 79.1781 108.124 79.0681C108.204 78.9981 108.254 78.9681 108.144 79.0481C108.214 78.9981 108.284 78.9481 108.354 78.9081C108.514 78.8081 108.674 78.7081 108.844 78.6281C108.914 78.5881 108.994 78.5581 109.074 78.5181C109.254 78.4281 108.894 78.5681 109.094 78.5081C109.414 78.4181 109.734 78.3281 110.054 78.2481C110.254 78.1981 109.854 78.2581 110.064 78.2481C110.144 78.2481 110.234 78.2381 110.314 78.2281C110.504 78.2181 110.694 78.2181 110.874 78.2281C110.954 78.2381 111.034 78.2381 111.114 78.2481C110.984 78.2381 110.974 78.2281 111.114 78.2481C111.274 78.2781 111.434 78.3181 111.584 78.3581C111.744 78.3981 111.894 78.4581 112.044 78.5081C111.914 78.4681 111.944 78.4581 112.054 78.5181C112.124 78.5581 112.204 78.5881 112.274 78.6281C112.414 78.7081 112.554 78.7881 112.694 78.8781C112.784 78.9281 112.864 78.9981 112.944 79.0481C113.114 79.1581 112.814 78.9181 112.954 79.0581C113.074 79.1681 113.194 79.2681 113.314 79.3881C113.374 79.4481 113.424 79.5081 113.484 79.5681C113.514 79.6081 113.694 79.8181 113.544 79.6181C113.984 80.1881 114.744 80.5481 115.414 80.1081C115.934 79.7581 116.334 78.8481 115.874 78.2381Z" fill="black"/>
<path d="M94.9839 77.9581C93.6539 76.8381 91.9939 76.1581 90.2339 76.1681C88.4739 76.1781 86.8239 76.8681 85.5039 77.9981C84.9639 78.4681 84.9839 79.4581 85.5039 79.9381C86.0839 80.4681 86.8639 80.4381 87.4439 79.9381C87.5039 79.8881 87.5739 79.8281 87.6339 79.7781C87.5239 79.8681 87.5239 79.8581 87.6539 79.7681C87.7939 79.6781 87.9339 79.5881 88.0739 79.4981C88.2039 79.4281 88.3239 79.3581 88.4639 79.2981C88.5239 79.2681 88.5739 79.2481 88.6339 79.2181C88.4939 79.2781 88.5039 79.2781 88.6539 79.2181C88.9739 79.1181 89.2839 79.0281 89.6139 78.9581C89.9039 78.8881 89.4139 78.9581 89.7439 78.9381C89.9139 78.9281 90.0739 78.9181 90.2439 78.9081C90.4139 78.9081 90.5739 78.9181 90.7439 78.9281C91.1339 78.9481 90.4839 78.8681 90.8739 78.9381C91.2039 78.9981 91.5239 79.0781 91.8339 79.1881C91.9039 79.2081 92.1839 79.3381 91.9639 79.2381C92.1139 79.3081 92.2639 79.3781 92.4039 79.4681C92.5439 79.5481 92.6939 79.6381 92.8239 79.7281C92.8939 79.7781 92.9639 79.8281 93.0239 79.8781C92.9139 79.7881 92.9139 79.7981 93.0339 79.8981C93.5839 80.3581 94.4439 80.4781 94.9739 79.8981C95.4539 79.3881 95.5739 78.4481 94.9839 77.9581Z" fill="black"/>
<path d="M111.274 128.838C106.314 129.878 100.904 129.428 96.0739 127.998C91.2339 126.568 86.7239 123.278 83.3939 119.518C79.3839 114.978 78.1939 108.188 78.2439 102.298C78.2739 98.9081 78.7539 95.5581 79.3939 92.2281C79.8539 89.8281 80.2939 87.3881 81.0139 85.0581C82.4839 80.2681 84.3839 75.3681 87.0839 71.1281C88.0339 69.6381 85.6639 68.2581 84.7139 69.7481C82.0139 73.9881 80.1239 78.8781 78.5839 83.6481C77.8539 85.9081 77.4039 88.2481 76.9339 90.5681C76.2139 94.1181 75.6339 97.7181 75.5139 101.348C75.3139 107.598 76.4239 114.848 80.2539 119.978C82.0539 122.388 84.3339 124.338 86.7339 126.128C88.9039 127.748 91.0939 129.148 93.6539 130.078C99.3639 132.178 106.034 132.728 112.004 131.478C113.734 131.118 113.004 128.478 111.274 128.838Z" fill="black"/>
<path d="M109.384 121.038C106.564 122.428 103.274 122.598 100.314 121.588C99.3339 121.248 98.9139 122.808 99.8839 123.138C103.264 124.298 107.004 124.008 110.194 122.428C111.134 121.968 110.314 120.578 109.384 121.038Z" fill="black"/>
<path d="M139.154 88.5281C137.644 88.6181 136.174 89.4981 135.504 90.8781C134.814 92.2981 134.924 94.0881 135.884 95.3581C136.144 95.7081 136.574 95.8881 136.984 95.6481C137.324 95.4481 137.534 94.8981 137.274 94.5481C137.184 94.4381 137.104 94.3181 137.034 94.1881C136.994 94.1181 136.954 94.0381 136.914 93.9581C136.904 93.9381 136.854 93.8381 136.894 93.9181C136.834 93.7681 136.784 93.6181 136.744 93.4681C136.724 93.3981 136.714 93.3281 136.694 93.2581C136.664 93.1281 136.684 93.2481 136.684 93.1781C136.624 92.6381 136.684 92.0981 136.894 91.6981C137.024 91.4481 137.144 91.2481 137.274 91.1081C137.364 91.0081 137.464 90.9081 137.564 90.8181C137.564 90.8181 137.714 90.6881 137.674 90.7181C137.624 90.7581 137.774 90.6481 137.794 90.6381C137.904 90.5581 138.024 90.4881 138.144 90.4281C138.214 90.3881 138.294 90.3481 138.364 90.3181C138.264 90.3581 138.404 90.3081 138.444 90.2981C138.574 90.2581 138.704 90.2181 138.844 90.1881C138.914 90.1781 138.974 90.1581 139.044 90.1481C138.904 90.1681 139.134 90.1481 139.154 90.1481C139.584 90.1181 139.964 89.7981 139.964 89.3381C139.964 88.9181 139.594 88.4981 139.154 88.5281Z" fill="black"/>
<path d="M106.904 100.808C105.994 102.788 106.614 105.168 108.394 106.448C108.734 106.698 109.304 106.518 109.494 106.158C109.714 105.738 109.574 105.318 109.204 105.058C109.084 104.968 109.264 105.118 109.194 105.048C109.154 105.018 109.114 104.978 109.074 104.948C109.004 104.888 108.934 104.818 108.874 104.758C108.814 104.688 108.754 104.618 108.694 104.548C108.814 104.678 108.714 104.578 108.694 104.538C108.664 104.498 108.634 104.458 108.604 104.408C108.494 104.238 108.414 104.068 108.324 103.898C108.274 103.798 108.394 104.078 108.324 103.888C108.314 103.848 108.294 103.808 108.284 103.768C108.254 103.668 108.224 103.568 108.194 103.468C108.174 103.378 108.154 103.288 108.134 103.198C108.134 103.178 108.104 103.048 108.104 103.048C108.104 103.048 108.124 103.218 108.114 103.078C108.094 102.878 108.094 102.688 108.104 102.488C108.104 102.438 108.114 102.388 108.114 102.338C108.124 102.178 108.094 102.438 108.114 102.338C108.134 102.248 108.144 102.158 108.164 102.068C108.184 101.968 108.214 101.868 108.254 101.768C108.264 101.728 108.284 101.688 108.294 101.648C108.364 101.448 108.224 101.798 108.314 101.608C108.494 101.228 108.434 100.728 108.024 100.508C107.654 100.338 107.094 100.398 106.904 100.808Z" fill="black"/>
<path d="M104.634 107.228C104.354 107.328 104.064 107.418 103.774 107.488C103.644 107.518 103.524 107.538 103.394 107.558C103.354 107.568 103.314 107.568 103.264 107.578C103.374 107.568 103.384 107.558 103.284 107.578C103.224 107.588 103.154 107.588 103.094 107.598C102.814 107.618 102.544 107.628 102.264 107.618C102.114 107.608 101.964 107.598 101.814 107.588C101.594 107.568 101.984 107.618 101.774 107.578C101.694 107.568 101.604 107.548 101.524 107.538C101.114 107.458 100.634 107.648 100.534 108.098C100.444 108.498 100.654 109.008 101.094 109.088C102.414 109.338 103.784 109.258 105.054 108.788C105.444 108.638 105.754 108.238 105.614 107.798C105.494 107.398 105.054 107.068 104.634 107.228Z" fill="black"/>
<path d="M110.084 137.288C107.384 152.648 105.324 168.008 105.464 183.628C105.504 188.558 105.714 193.488 105.984 198.408C106.074 199.938 108.464 199.948 108.384 198.408C107.924 190.328 107.684 182.228 107.984 174.138C108.264 166.838 109.004 159.568 110.044 152.328C110.744 147.508 111.544 142.718 112.394 137.918C112.664 136.418 110.354 135.768 110.084 137.288Z" fill="#A1A2A2"/>
<path d="M101.304 157.148C105.054 157.148 105.064 151.318 101.304 151.318C97.5539 151.318 97.5439 157.148 101.304 157.148Z" fill="black"/>
<path d="M100.234 189.178C103.984 189.178 103.994 183.348 100.234 183.348C96.4839 183.348 96.4739 189.178 100.234 189.178Z" fill="black"/>
<path d="M163.464 157.268C166.724 170.788 169.164 184.888 169.194 198.828C169.194 199.898 170.864 199.898 170.864 198.828C170.834 184.748 168.364 170.488 165.074 156.828C164.824 155.778 163.214 156.218 163.464 157.268Z" fill="black"/>
<path d="M160.284 162.918C161.664 164.548 163.604 165.718 165.684 166.198C166.104 166.298 166.604 166.068 166.704 165.618C166.804 165.198 166.574 164.698 166.124 164.598C165.644 164.488 165.184 164.348 164.734 164.168C164.684 164.148 164.624 164.128 164.704 164.158C164.644 164.128 164.584 164.108 164.514 164.078C164.404 164.028 164.294 163.978 164.184 163.918C163.964 163.808 163.754 163.688 163.544 163.568C163.344 163.448 163.154 163.318 162.974 163.188C162.924 163.148 162.864 163.108 162.814 163.068C162.774 163.038 162.724 162.998 162.794 163.048C162.694 162.968 162.604 162.898 162.514 162.818C162.134 162.488 161.784 162.138 161.464 161.758C161.184 161.428 160.574 161.448 160.284 161.758C159.964 162.098 159.984 162.558 160.284 162.918Z" fill="black"/>
<path d="M96.3039 104.948C97.9039 105.998 100.164 106.218 102.044 106.148C103.944 106.078 105.764 105.548 107.224 104.298C108.014 103.628 106.874 102.488 106.084 103.158C104.924 104.148 103.384 104.508 101.894 104.538C100.334 104.568 98.4639 104.428 97.1239 103.548C96.2439 102.988 95.4439 104.378 96.3039 104.948Z" fill="black"/>
<path d="M106.894 86.2981C108.694 84.5181 111.414 85.2381 113.244 86.5481C113.594 86.7981 114.144 86.6081 114.344 86.2581C114.584 85.8581 114.414 85.4081 114.054 85.1581C112.794 84.2581 111.304 83.6481 109.744 83.6181C108.274 83.5881 106.804 84.1281 105.754 85.1581C105.024 85.8881 106.164 87.0281 106.894 86.2981Z" fill="black"/>
<path d="M85.5439 85.9881C87.3439 84.2081 90.0639 84.9281 91.8939 86.2381C92.2439 86.4881 92.7939 86.2981 92.9939 85.9481C93.2339 85.5481 93.0639 85.0981 92.7039 84.8481C91.4439 83.9481 89.9539 83.3381 88.3939 83.3081C86.9239 83.2781 85.4539 83.8181 84.4039 84.8481C83.6639 85.5781 84.8039 86.7181 85.5439 85.9881Z" fill="black"/>
<path d="M37.6039 157.128C28.7939 159.728 19.8439 168.238 21.0939 179.518C22.3439 190.798 33.0739 203.578 50.6039 198.718C68.1339 193.858 69.5439 178.128 64.8639 169.278C60.1639 160.428 46.4139 154.528 37.6039 157.128Z" fill="#A1A2A2"/>
<path d="M39.2239 187.878C11.4439 181.258 38.3839 134.188 39.2739 131.038C40.8439 125.478 43.3039 117.058 44.8939 113.018C47.3839 106.688 52.4539 91.4181 54.4739 89.4681C56.3339 87.6781 57.3339 87.7681 57.3339 87.7681C57.3339 87.7681 58.1639 85.2481 59.1939 84.2781C60.8239 82.7581 62.2439 83.3981 62.2439 83.3981C62.2439 83.3981 62.7139 81.2781 64.9539 80.9681C67.1939 80.6581 67.9839 82.2581 68.4439 83.0581C69.1239 84.2681 68.9239 86.7381 68.9239 86.7381C68.9239 86.7381 70.7639 85.6281 72.3339 87.4381C76.6639 92.4181 69.8539 113.888 69.8539 113.888C69.8539 113.888 75.1539 119.558 72.6439 125.988C69.1839 134.858 59.6839 136.458 59.6839 136.458C59.6839 136.458 60.4139 160.378 59.6539 167.548C58.8939 174.728 57.1239 192.138 39.2239 187.878Z" fill="#E08F8B"/>
<path d="M63.2239 120.028C58.8139 121.068 55.1639 124.688 54.0739 129.088C53.8239 130.088 55.3639 130.508 55.6139 129.508C56.5739 125.618 59.7539 122.488 63.6439 121.568C64.6539 121.338 64.2339 119.788 63.2239 120.028Z" fill="black"/>
<path d="M56.1539 105.528C57.6339 107.088 57.0939 109.758 56.3839 111.548C55.5839 113.548 54.1239 115.268 52.2839 116.388C51.4039 116.918 52.2139 118.308 53.0939 117.768C55.3539 116.388 57.0639 114.278 57.9939 111.808C58.8739 109.458 59.1439 106.368 57.2839 104.408C56.5739 103.648 55.4439 104.778 56.1539 105.528Z" fill="black"/>
<path d="M70.6139 114.028C69.8839 112.818 68.8839 111.518 67.5839 110.888C66.5539 110.378 65.3239 110.208 64.2139 110.538C61.7639 111.248 60.8039 114.268 61.4339 116.528C61.8939 118.218 62.9639 119.828 63.9639 121.248C64.2139 121.598 64.6639 121.768 65.0539 121.538C65.4039 121.338 65.5939 120.798 65.3439 120.448C64.8539 119.748 64.3939 119.018 63.9639 118.268C63.5639 117.558 63.1539 116.828 62.9439 116.028C62.6739 114.958 62.8639 113.568 63.6539 112.738C64.3139 112.038 65.0539 111.818 66.0439 112.028C67.4839 112.328 68.5039 113.638 69.2239 114.838C69.7639 115.718 71.1439 114.918 70.6139 114.028Z" fill="black"/>
<path d="M56.9339 89.2781C60.0139 89.7281 58.3239 94.2781 57.8539 96.0781C57.1039 98.9581 56.3539 101.848 55.6039 104.728C55.3439 105.728 56.8839 106.148 57.1439 105.148C58.0539 101.638 58.9739 98.1281 59.8739 94.6181C60.2439 93.1581 60.5939 91.5581 60.0439 90.0881C59.5939 88.9181 58.6339 87.9181 57.3539 87.7281C56.3539 87.5881 55.9239 89.1281 56.9339 89.2781Z" fill="black"/>
<path d="M62.2739 85.0781C64.6239 86.7581 63.7139 91.0081 63.2439 93.3281C62.5639 96.6581 61.6039 99.9481 60.7439 103.238C60.4839 104.238 62.0239 104.658 62.2839 103.658C63.2839 99.8081 64.5139 95.9381 65.0939 91.9981C65.5039 89.1381 65.7239 85.5881 63.0839 83.6981C62.2339 83.0981 61.4439 84.4881 62.2739 85.0781Z" fill="black"/>
<path d="M69.0739 86.8981C68.6239 93.1381 67.2139 99.2581 64.9239 105.088C64.5439 106.048 66.0939 106.458 66.4639 105.508C68.8039 99.5481 70.2139 93.2781 70.6739 86.8981C70.7539 85.8781 69.1539 85.8781 69.0739 86.8981Z" fill="black"/>
<path d="M57.5739 105.438C60.8539 105.058 64.1539 105.758 66.9639 107.488C67.8439 108.028 68.6439 106.648 67.7739 106.108C64.7439 104.248 61.1139 103.428 57.5739 103.838C57.1439 103.888 56.7739 104.168 56.7739 104.638C56.7739 105.038 57.1439 105.488 57.5739 105.438Z" fill="black"/>
<path d="M55.8039 137.068C56.9639 137.498 58.2439 137.658 59.4839 137.528C59.7039 137.508 59.8839 137.458 60.0539 137.298C60.1939 137.158 60.2939 136.928 60.2839 136.728C60.2639 136.338 59.9339 135.878 59.4839 135.928C58.9039 135.988 58.3339 135.988 57.7539 135.918C57.5339 135.898 57.9239 135.948 57.7139 135.908C57.6439 135.898 57.5639 135.888 57.4939 135.868C57.3539 135.838 57.2239 135.818 57.0839 135.778C56.7939 135.708 56.5039 135.618 56.2239 135.518C55.8339 135.378 55.3339 135.678 55.2439 136.078C55.1439 136.538 55.3839 136.918 55.8039 137.068Z" fill="black"/>
<path d="M47.5339 192.368C21.4239 203.938 14.3239 150.168 13.1239 147.128C11.0039 141.748 7.85394 133.568 6.67394 129.388C4.82394 122.848 -0.396055 107.618 0.0239446 104.848C0.423945 102.288 1.27394 101.768 1.27394 101.768C1.27394 101.768 0.403945 99.2581 0.643945 97.8681C1.01394 95.6681 2.54394 95.3181 2.54394 95.3181C2.54394 95.3181 1.63394 93.3481 3.23394 91.7481C4.83394 90.1381 6.42394 90.9381 7.27394 91.2981C8.54394 91.8381 9.88394 93.9381 9.88394 93.9381C9.88394 93.9381 10.6739 91.9481 13.0239 92.4281C19.4839 93.7581 27.0839 114.968 27.0839 114.968C27.0839 114.968 34.7439 116.258 36.6439 122.898C39.2639 132.048 32.6839 139.078 32.6839 139.078C32.6839 139.078 47.7639 157.658 51.4939 163.828C55.2139 169.988 64.3639 184.918 47.5339 192.368Z" fill="#F6A6AC"/>
<path d="M25.5839 123.778C22.6239 127.398 21.9339 132.418 23.7739 136.718C23.9439 137.118 24.5239 137.198 24.8639 137.008C25.2739 136.778 25.3239 136.308 25.1539 135.918C23.6239 132.348 24.2539 127.928 26.7139 124.918C27.3639 124.118 26.2339 122.978 25.5839 123.778Z" fill="black"/>
<path d="M10.9939 116.588C13.1239 116.928 14.3239 119.208 14.8739 121.098C15.5139 123.278 15.3839 125.578 14.5639 127.688C14.1939 128.648 15.7339 129.058 16.1039 128.108C17.0639 125.638 17.1339 122.818 16.2939 120.288C15.5439 118.028 13.9639 115.458 11.4139 115.048C10.4139 114.878 9.98394 116.418 10.9939 116.588Z" fill="black"/>
<path d="M27.6639 114.578C25.3539 113.658 22.4139 113.418 20.6839 115.548C18.9139 117.728 20.1539 120.918 22.2539 122.368C23.6339 123.318 25.3439 123.908 26.9339 124.418C27.9139 124.728 28.3339 123.188 27.3539 122.878C25.8939 122.418 24.3239 121.868 23.0539 120.988C22.0139 120.268 21.1939 118.828 21.4739 117.538C21.5139 117.358 21.5639 117.198 21.6239 117.018C21.7339 116.678 21.5539 117.068 21.7039 116.848C21.8439 116.638 21.8139 116.648 21.9639 116.488C22.2739 116.148 22.6439 115.878 23.0739 115.698C24.3839 115.148 25.9739 115.618 27.2239 116.118C27.6239 116.278 28.1039 115.948 28.2039 115.558C28.3439 115.108 28.0639 114.738 27.6639 114.578Z" fill="black"/>
<path d="M1.98394 103.158C2.99394 102.588 4.14394 103.248 4.79394 104.048C5.63394 105.088 6.07394 106.468 6.58394 107.688C7.77394 110.528 8.97394 113.378 10.1639 116.218C10.3339 116.618 10.6939 116.898 11.1439 116.778C11.5239 116.678 11.8639 116.188 11.7039 115.798C10.2739 112.398 8.86394 108.998 7.42394 105.608C6.86394 104.288 6.22394 102.948 5.02394 102.088C3.89394 101.288 2.39394 101.088 1.17394 101.778C0.283943 102.288 1.08394 103.668 1.98394 103.158Z" fill="black"/>
<path d="M3.47395 96.6381C6.44395 96.5381 8.23395 100.348 9.33395 102.588C10.8139 105.628 12.0239 108.808 13.3339 111.918C13.7239 112.848 15.2739 112.438 14.8739 111.498C13.4039 107.998 12.0839 104.398 10.3339 101.028C8.97395 98.4081 6.86395 94.9381 3.48395 95.0481C2.45395 95.0781 2.44395 96.6781 3.47395 96.6381Z" fill="black"/>
<path d="M10.0339 93.8781C13.4639 99.1181 16.0739 104.828 17.7739 110.858C18.0539 111.848 19.5939 111.428 19.3139 110.438C17.5739 104.288 14.9039 98.4281 11.4139 93.0781C10.8539 92.2181 9.47395 93.0181 10.0339 93.8781Z" fill="black"/>
<path d="M12.2539 115.608C14.5539 113.378 17.5939 111.948 20.7939 111.628C21.2239 111.588 21.5939 111.288 21.5939 110.828C21.5939 110.428 21.2239 109.988 20.7939 110.028C17.1639 110.388 13.7539 111.938 11.1239 114.478C10.3839 115.198 11.5139 116.328 12.2539 115.608Z" fill="black"/>
<path d="M29.8539 141.938C31.1139 141.548 32.2639 140.878 33.2239 139.968C33.5239 139.678 33.5339 139.128 33.2239 138.838C32.8939 138.538 32.4139 138.528 32.0939 138.838C31.9939 138.938 31.8839 139.038 31.7739 139.128C31.7239 139.168 31.6739 139.218 31.6139 139.258C31.5939 139.278 31.5039 139.348 31.5939 139.278C31.6939 139.208 31.5939 139.278 31.5739 139.298C31.3439 139.468 31.1039 139.628 30.8539 139.778C30.6139 139.918 30.3639 140.048 30.1039 140.158C30.0739 140.168 30.0439 140.188 30.0139 140.198C30.0539 140.178 30.1639 140.138 30.0639 140.178C30.0039 140.198 29.9339 140.228 29.8739 140.248C29.7339 140.298 29.5839 140.348 29.4339 140.398C29.0339 140.518 28.7439 140.958 28.8739 141.378C29.0039 141.788 29.4239 142.068 29.8539 141.938Z" fill="black"/>
<path d="M28.7739 94.5281L31.0239 97.9581C31.4539 98.6181 30.9139 99.5181 30.0539 99.5481L26.0339 99.6981C24.5739 99.7981 24.7339 98.9881 25.0739 98.2981L26.8439 94.7181C27.2239 93.9581 28.3339 93.8481 28.7739 94.5281Z" fill="white"/>
<path d="M29.8439 97.3281C34.2239 94.5281 39.6039 93.5481 44.6839 94.6781C45.9539 94.9581 46.4939 93.0081 45.2239 92.7181C39.6239 91.4681 33.6639 92.4781 28.8239 95.5681C27.7239 96.2781 28.7439 98.0281 29.8439 97.3281Z" fill="white"/>
</g>
<defs>
<clipPath id="clip0_240_387">
<rect width="200" height="200" fill="white"/>
</clipPath>
</defs>
</svg>
