<svg width="200" height="200" viewBox="0 0 200 200" fill="none" xmlns="http://www.w3.org/2000/svg">
<g clip-path="url(#clip0_243_787)">
<path d="M26.24 159.99C23.49 173.24 22 199.84 22 199.84H178.21C178.21 199.84 175.91 175.43 174.53 169.52C162.67 118.92 117.85 98.29 69.57 110.86C38.61 118.92 31.43 140.65 26.24 159.99Z" fill="#EC6723"/>
<path d="M80.49 108.57C91.84 117.6 105.07 133.33 110.11 159.47C112.03 169.45 113.08 191.9 113.95 199.83H143.63C141.23 181.93 132.47 137.75 120.14 119.32C117.38 115.19 114.7 111.62 112.16 108.56C102.15 106.84 91.47 106.83 80.49 108.57Z" fill="#B2E1EE"/>
<path d="M136.3 121.42C139.43 124.56 142.37 127.9 145.05 131.44C146.34 133.15 147.57 134.89 148.75 136.68C148.99 137.05 149.62 137.69 149.59 138.16C149.57 138.56 149.07 138.96 148.81 139.2C147.94 140.01 146.94 140.64 145.89 141.19C144.56 141.89 145.74 143.9 147.07 143.21C148.86 142.27 151.75 140.61 151.9 138.33C151.98 137.12 151.18 136.14 150.55 135.18C149.8 134.05 149.02 132.93 148.22 131.83C145.12 127.55 141.68 123.52 137.95 119.78C136.89 118.7 135.24 120.35 136.3 121.42Z" fill="#FFC11E"/>
<path d="M142.9 79.21C142.9 79.21 148.79 85 150.81 97.55C152.83 110.09 151.28 123.28 135.76 120.68C135.75 120.67 150.2 110.41 142.9 79.21Z" fill="black"/>
<path d="M124.25 123.44C124.25 123.44 120.54 127.68 108.09 124.45C95.6301 121.22 90.7701 112.61 90.7701 112.61C90.7701 112.61 97.5501 104.23 93.0401 95.15C93.0401 95.15 87.5201 98.58 83.6801 89.79C79.8401 81 83.8801 72.5 89.0501 71.49C94.2101 70.48 99.4801 76.56 97.5601 81.77C97.5601 81.77 101.71 78.47 101.21 70.47C100.71 62.47 100.7 62.47 100.7 62.47L109.51 58.62L126.56 55.58L141.55 66.92L141.75 75.38C141.75 75.38 147.67 91.94 144.44 105.25C141.2 118.59 131.2 124.64 124.25 123.44Z" fill="#F6A6AC"/>
<path d="M148.18 67.95C148.34 75.82 142.9 79.21 142.9 79.21L141.54 76.11C141.13 78.06 140.44 77.15 136.64 76.72C132.84 76.3 129.47 75.82 129.47 75.82C129.47 75.82 129.9 74.16 129.87 67.81C129.84 62.48 127.67 58.46 126.97 57.32C129.13 61.11 128.35 69.28 127.26 72.56C126.13 75.95 123.63 74.44 118.54 74.15C115.33 73.96 111.43 73.86 108.99 73.8C107.92 73.78 107.22 72.7 107.59 71.7C108.83 68.37 109.2 64.31 109.31 62.18C108.73 69.48 102.85 72.34 102.85 72.34C102.55 76.66 98.98 80.41 97.87 81.47C97.8 81.54 97.74 81.59 97.7 81.63C97.67 81.66 97.65 81.68 97.63 81.7C97.61 81.72 97.6 81.73 97.59 81.73C97.56 81.76 97.55 81.76 97.55 81.76C99.47 76.55 94.2 70.47 89.04 71.48C83.87 72.49 79.82 81 83.67 89.78C87.21 97.85 92.16 95.61 92.93 95.18C93.03 95.29 93.14 95.44 93.26 95.62C93.26 95.62 93.26 95.62 93.27 95.63C97.29 104.51 90.76 112.58 90.76 112.58C80.68 121.04 63.04 113 61.81 97.8C60.59 82.6 64.27 71.32 74.51 57.17C84.76 43.07 98.97 36.23 120.14 40.05C141.31 43.87 148.01 60.1 148.18 67.95Z" fill="black"/>
<path d="M83.35 76.82C83.01 77.6 82.74 78.43 82.53 79.31C80.14 80.52 82.22 82.31 79.57 83.17C76.65 84.12 77.03 78.78 83.35 76.82Z" fill="#B3202D"/>
<path d="M108.27 79.69C108.27 79.69 104.73 78.98 99.88 78.51C99.23 78.45 98.57 78.39 97.87 78.34C97.77 77.72 97.58 77.1 97.33 76.52C98.5 76.6 99.57 76.68 100.55 76.78C105.07 77.18 107.54 77.6 107.54 77.6L108.27 79.69Z" fill="#B3202D"/>
<path d="M115.21 79.32C111.77 79.88 113.17 82.85 115.33 82.97C117.49 83.09 119.1 83.61 119.92 84.02C120.74 84.43 122.36 84.77 123.05 83.28C123.87 81.51 119.58 78.61 115.21 79.32Z" fill="white"/>
<path d="M134.95 83.06C132.71 83.82 132.78 86.49 135.3 86.52C137.83 86.55 139.15 87.09 140.1 87.49C141.06 87.89 141.96 87.33 142.09 85.93C142.27 84.12 138.24 81.95 134.95 83.06Z" fill="white"/>
<path d="M119.83 123.65C125.52 126.01 132.48 124.39 137.1 120.57C145.92 113.28 147.33 100.52 146.09 89.88C145.45 84.41 144.2 79.02 142.45 73.8C141.98 72.38 139.72 72.99 140.2 74.42C143.23 83.48 145.21 93.54 143.67 103.08C142.24 111.98 136.59 121.94 126.55 122.33C124.53 122.41 122.34 122.18 120.45 121.39C119.07 120.83 118.46 123.09 119.83 123.65Z" fill="black"/>
<path d="M145.32 77.74C138.91 78.3 133.44 83.28 133.44 83.28C131.5 81.29 128.45 82.61 128.45 82.61C122.86 77.13 112.44 74.03 108.44 73.97C104.45 73.91 106.28 81.17 112.88 86.71C119.48 92.25 124.91 88.15 124.91 88.15C126.79 89.54 127.85 85.55 127.85 85.55C130.95 83.73 133.28 86.1 133.28 86.1C133.28 86.1 133.28 86.77 134.05 88.43C134.83 90.1 138.16 93.2 142.03 90.04C145.91 86.89 151.73 77.19 145.32 77.74ZM124.86 86.48C122.56 87.99 117.82 87.88 114.66 85.55C111.5 83.23 106.44 75.5 114.27 77.18C122.1 78.87 126.46 83.66 126.46 83.66C126.46 83.66 127.15 84.96 124.86 86.48ZM145.37 82.53C144.85 86.28 139.47 91.9 136.37 89.01C136.37 89.01 134.65 87.93 134.37 86.17C134.09 84.41 135.57 83.33 138.89 81.61C142.21 79.89 145.89 78.78 145.37 82.53Z" fill="#B3202D"/>
<path d="M127.59 95.71C127.84 96.76 128.74 97.57 129.81 97.71C130.36 97.78 130.97 97.7 131.46 97.41C131.97 97.1 132.19 96.57 132.3 96.01C132.38 95.61 132.19 95.15 131.76 95.05C131.38 94.96 130.88 95.17 130.8 95.59C130.79 95.67 130.77 95.75 130.75 95.83C130.74 95.87 130.67 96.03 130.68 96.06C130.73 95.95 130.74 95.93 130.71 95.98C130.7 96 130.69 96.02 130.68 96.04C130.67 96.07 130.64 96.09 130.63 96.12C130.7 96.03 130.72 96.01 130.68 96.05C130.66 96.07 130.65 96.08 130.63 96.1C130.64 96.06 130.75 96.02 130.65 96.07C130.63 96.08 130.6 96.1 130.58 96.11C130.53 96.14 130.55 96.13 130.64 96.08C130.61 96.08 130.57 96.11 130.54 96.11C130.46 96.13 130.36 96.14 130.28 96.17C130.39 96.16 130.42 96.15 130.36 96.16C130.33 96.16 130.31 96.16 130.28 96.17C130.24 96.17 130.21 96.17 130.17 96.17C130.12 96.17 130.06 96.17 130.01 96.16C129.86 96.15 130.13 96.19 130.03 96.16C129.94 96.14 129.86 96.12 129.77 96.1C129.75 96.09 129.74 96.09 129.72 96.08C129.67 96.06 129.69 96.07 129.78 96.11C129.75 96.11 129.69 96.07 129.66 96.05C129.59 96.01 129.52 95.97 129.46 95.92C129.38 95.87 129.6 96.05 129.49 95.94C129.46 95.91 129.43 95.89 129.4 95.86C129.37 95.83 129.34 95.8 129.32 95.77C129.3 95.75 129.22 95.64 129.29 95.74C129.36 95.84 129.28 95.72 129.27 95.7C129.25 95.67 129.23 95.63 129.21 95.6C129.19 95.57 129.17 95.53 129.15 95.49C129.08 95.37 129.19 95.61 129.16 95.52C129.13 95.44 129.1 95.35 129.08 95.27C128.98 94.87 128.51 94.6 128.12 94.73C127.73 94.88 127.49 95.28 127.59 95.71Z" fill="black"/>
<path d="M130.79 95.97C130.87 96.58 131.28 97.11 131.78 97.45C132.34 97.84 133.03 97.92 133.68 97.81C134.9 97.61 135.79 96.42 135.75 95.21C135.74 94.8 135.4 94.41 134.97 94.43C134.56 94.45 134.18 94.77 134.19 95.21C134.19 95.26 134.19 95.31 134.19 95.37C134.19 95.39 134.19 95.4 134.19 95.42C134.18 95.49 134.18 95.49 134.19 95.42C134.2 95.35 134.2 95.35 134.19 95.42C134.19 95.44 134.18 95.45 134.18 95.47C134.17 95.52 134.15 95.57 134.14 95.62C134.13 95.64 134.13 95.65 134.12 95.67C134.09 95.75 134.1 95.74 134.14 95.63C134.15 95.65 134.09 95.73 134.08 95.75C134.06 95.79 134.04 95.83 134.01 95.86C134 95.88 133.98 95.9 133.97 95.93C133.94 95.98 133.95 95.96 134.01 95.88C133.99 95.94 133.88 96.03 133.83 96.07C133.81 96.09 133.79 96.11 133.77 96.12C133.73 96.16 133.74 96.14 133.82 96.08C133.81 96.11 133.73 96.14 133.71 96.15C133.67 96.17 133.63 96.19 133.59 96.22C133.44 96.31 133.75 96.17 133.58 96.23C133.49 96.26 133.39 96.29 133.3 96.31C133.16 96.34 133.27 96.29 133.32 96.31C133.29 96.3 133.19 96.32 133.16 96.32C133.12 96.32 133.07 96.32 133.03 96.32C132.89 96.31 133 96.29 133.05 96.33C133.03 96.31 132.92 96.3 132.89 96.29C132.84 96.28 132.8 96.26 132.75 96.25C132.66 96.23 132.86 96.31 132.74 96.24C132.69 96.21 132.64 96.18 132.59 96.15C132.47 96.08 132.67 96.23 132.6 96.16C132.57 96.13 132.54 96.1 132.5 96.07C132.49 96.06 132.39 95.97 132.4 95.96C132.46 96.04 132.48 96.06 132.44 96.02C132.43 96 132.41 95.98 132.4 95.96C132.38 95.92 132.36 95.89 132.34 95.85C132.28 95.73 132.35 95.82 132.35 95.87C132.35 95.84 132.31 95.75 132.31 95.72C132.3 95.67 132.29 95.62 132.28 95.57C132.26 95.39 132.07 95.19 131.92 95.1C131.75 95 131.51 94.96 131.32 95.02C131.13 95.08 130.95 95.2 130.85 95.38C130.77 95.57 130.76 95.75 130.79 95.97Z" fill="black"/>
<path d="M135.77 94.96C135.28 91.77 134.68 88.59 133.99 85.43C133.78 84.45 132.27 84.87 132.49 85.84C133.18 89 133.78 92.18 134.27 95.37C134.33 95.79 134.86 96.02 135.23 95.91C135.67 95.79 135.83 95.37 135.77 94.96Z" fill="black"/>
<path d="M117.83 83.38C119.33 83.38 119.33 81.05 117.83 81.05C116.33 81.05 116.33 83.38 117.83 83.38Z" fill="black"/>
<path d="M138 86.8C139.5 86.8 139.5 84.47 138 84.47C136.49 84.46 136.49 86.8 138 86.8Z" fill="black"/>
<path d="M124.14 113.38C122.37 114.21 120.33 114.51 118.39 114.21C117.98 114.15 117.55 114.32 117.43 114.75C117.33 115.12 117.56 115.64 117.97 115.71C120.35 116.08 122.73 115.74 124.92 114.72C125.3 114.54 125.4 113.99 125.2 113.66C124.98 113.27 124.52 113.2 124.14 113.38Z" fill="black"/>
<path d="M89.65 86.93C89.78 86.91 89.57 86.9 89.55 86.89C89.48 86.86 89.41 86.8 89.35 86.74C89.22 86.6 89.14 86.39 89.11 86.16C89.04 85.55 89.2 84.89 89.39 84.31C89.73 83.24 90.44 82.37 91.54 82.21C91.96 82.15 92.19 81.62 92.08 81.25C91.96 80.8 91.54 80.64 91.12 80.71C89.32 80.98 88.17 82.65 87.76 84.31C87.54 85.19 87.39 86.18 87.73 87.05C88.11 88.02 89.01 88.58 90.05 88.44C90.47 88.38 90.69 87.85 90.59 87.48C90.49 87.03 90.07 86.88 89.65 86.93Z" fill="black"/>
<path d="M89.45 77.19C89.57 77.24 89.75 77.62 89.83 77.73C89.97 77.94 90.11 78.16 90.24 78.38C90.47 78.76 90.68 79.16 90.85 79.57C91.23 80.45 91.49 81.4 91.54 82.36C91.58 83.25 91.46 84.13 91.15 84.97C90.91 85.62 90.39 86.74 89.66 86.94C88.69 87.2 89.1 88.7 90.07 88.44C91.19 88.14 91.95 86.98 92.4 85.98C92.91 84.85 93.15 83.6 93.09 82.36C93.03 81.08 92.68 79.86 92.15 78.69C91.67 77.64 90.98 76.14 89.86 75.68C89.47 75.52 89.01 75.85 88.9 76.22C88.78 76.68 89.07 77.03 89.45 77.19Z" fill="black"/>
<path d="M93.53 93.25C93.51 93.29 93.38 93.5 93.49 93.32C93.45 93.38 93.39 93.44 93.35 93.49C93.26 93.59 93.15 93.73 93.03 93.79C93.21 93.69 93 93.8 92.96 93.83C92.9 93.87 92.84 93.91 92.77 93.95C92.65 94.02 92.52 94.08 92.4 94.14C92.35 94.16 92.37 94.16 92.46 94.12C92.42 94.14 92.38 94.15 92.34 94.17C92.26 94.2 92.18 94.23 92.1 94.25C91.94 94.3 91.77 94.34 91.6 94.37C91.52 94.39 91.43 94.4 91.35 94.42C91.31 94.43 91.27 94.43 91.22 94.44C91.32 94.43 91.33 94.43 91.24 94.44C91.07 94.46 90.9 94.47 90.73 94.48C90.32 94.51 89.93 94.82 89.95 95.26C89.97 95.66 90.29 96.07 90.73 96.04C91.59 95.98 92.41 95.84 93.2 95.49C93.89 95.19 94.48 94.68 94.89 94.05C95.11 93.71 94.97 93.18 94.61 92.99C94.21 92.77 93.76 92.89 93.53 93.25Z" fill="black"/>
<path d="M145.38 142.84C149.51 148.61 153.41 155.22 153.32 162.51C153.24 169.22 151.46 175.91 147.47 181.36C146.58 182.57 148.61 183.74 149.49 182.54C153.71 176.77 155.57 169.59 155.66 162.51C155.76 154.8 151.78 147.78 147.4 141.66C146.53 140.45 144.51 141.62 145.38 142.84Z" fill="#FFC11E"/>
<path d="M161.76 169.64C163.73 179.49 165.12 189.39 165.94 199.4C166.02 200.39 167.58 200.4 167.5 199.4C166.67 189.25 165.27 179.21 163.27 169.23C163.07 168.24 161.57 168.66 161.76 169.64Z" fill="black"/>
<path d="M85.94 122.05C84.63 127.36 83.74 132.76 83.3 138.21C83.19 139.55 83.11 140.88 83.06 142.22C83.02 143.29 82.92 144.37 83.62 145.26C85.01 147.03 88.18 146.97 90.19 146.85C91.68 146.77 91.69 144.43 90.19 144.52C89.02 144.59 87.83 144.57 86.68 144.33C86.34 144.26 85.86 144.2 85.6 143.94C85.26 143.61 85.37 143.11 85.39 142.66C85.46 140.43 85.62 138.2 85.85 135.98C86.31 131.49 87.12 127.04 88.2 122.66C88.55 121.22 86.3 120.59 85.94 122.05Z" fill="#FFC11E"/>
<path d="M89.12 145.7C88.79 149.89 88.83 154.12 89.39 158.29C89.91 162.18 91.27 165.58 93.43 168.84C97.2 174.54 102.31 179.26 108.65 181.92C110.03 182.5 110.64 180.24 109.27 179.67C103.41 177.21 98.65 172.62 95.23 167.33C93.23 164.24 92.04 161.05 91.61 157.4C91.15 153.52 91.15 149.59 91.45 145.7C91.58 144.21 89.24 144.21 89.12 145.7Z" fill="#FFC11E"/>
<path d="M90.41 172.3L98.01 165.85C98.01 165.85 97.5 165.39 98.04 159.64C98.3 156.9 99.72 155.08 103.66 149.43C106.37 145.54 108.01 143.91 110.5 146.16C110.5 146.16 115.29 142.13 117.68 139.85C120.07 137.58 127.4 139.11 124.12 145C124.12 145 126.8 142.94 128.97 145.27C131.14 147.6 130.01 150.95 130.01 150.95C130.01 150.95 133.38 150.01 134.81 152.05C136.24 154.08 134.53 157.48 134.53 157.48C134.53 157.48 135.67 156.63 137.13 158.64C138.59 160.65 137.15 162.39 131.74 167.65C126.33 172.91 119.13 179.56 112.51 178.65L104.88 187.34L90.41 172.3Z" fill="#F5A0AC"/>
<path d="M123.18 144.87C121.25 146.91 119.35 149 117.49 151.11C117.17 151.48 117.13 152.04 117.49 152.4C117.82 152.73 118.45 152.77 118.78 152.4C120.64 150.28 122.53 148.2 124.47 146.16C124.81 145.8 124.83 145.22 124.47 144.87C124.13 144.53 123.52 144.51 123.18 144.87Z" fill="black"/>
<path d="M129.28 150.82C127.3 152.65 125.31 154.48 123.33 156.31C122.97 156.64 122.99 157.26 123.33 157.6C123.69 157.96 124.26 157.94 124.62 157.6C126.6 155.77 128.59 153.94 130.57 152.11C130.93 151.78 130.91 151.16 130.57 150.82C130.21 150.46 129.64 150.49 129.28 150.82Z" fill="black"/>
<path d="M133.68 157.01C132.08 158.59 130.49 160.18 128.89 161.76C128.55 162.1 128.53 162.72 128.89 163.05C129.26 163.39 129.82 163.41 130.18 163.05C131.78 161.47 133.37 159.88 134.97 158.3C135.31 157.96 135.33 157.34 134.97 157.01C134.61 156.68 134.04 156.65 133.68 157.01Z" fill="black"/>
<path d="M109.83 146.16C109 147.14 108.17 148.12 107.35 149.1C107.19 149.29 107.08 149.49 107.08 149.75C107.08 149.97 107.18 150.24 107.35 150.4C107.69 150.71 108.31 150.79 108.64 150.4C109.47 149.42 110.3 148.44 111.12 147.46C111.28 147.27 111.39 147.07 111.39 146.81C111.39 146.59 111.29 146.32 111.12 146.16C110.78 145.85 110.16 145.78 109.83 146.16Z" fill="black"/>
<path d="M113.42 103.08C117.59 102.43 121.87 102.83 125.87 104.17C126.82 104.49 127.23 102.99 126.28 102.67C122 101.24 117.46 100.89 113 101.58C112.02 101.73 112.44 103.23 113.42 103.08Z" fill="black"/>
<path d="M111.64 101.22C111.73 101.38 111.82 101.55 111.9 101.72C111.95 101.82 111.99 101.91 112.03 102.01C111.98 101.9 112.06 102.1 112.07 102.12C112.21 102.48 112.32 102.86 112.41 103.24C112.45 103.42 112.49 103.61 112.52 103.79C112.53 103.83 112.53 103.87 112.54 103.91C112.53 103.84 112.53 103.85 112.54 103.94C112.55 104.03 112.56 104.13 112.57 104.22C112.6 104.61 112.6 105 112.57 105.39C112.54 105.8 112.95 106.19 113.35 106.17C113.79 106.15 114.1 105.83 114.13 105.39C114.24 103.67 113.83 101.93 112.98 100.42C112.78 100.06 112.26 99.92 111.92 100.14C111.56 100.39 111.43 100.84 111.64 101.22Z" fill="black"/>
<path d="M114.38 75.91C116.15 76.49 117.91 77.23 119.77 77.48C121.72 77.75 123.84 77.73 125.75 77.21C127.2 76.81 126.58 74.56 125.13 74.96C123.53 75.4 121.57 75.44 120.02 75.18C118.3 74.89 116.66 74.21 115.01 73.66C113.57 73.18 112.95 75.44 114.38 75.91Z" fill="black"/>
<path d="M131.73 77.4C133.97 78.58 136.38 79.4 138.88 79.79C139.48 79.88 140.16 79.64 140.32 78.97C140.45 78.41 140.15 77.63 139.5 77.53C138.32 77.35 137.16 77.08 136.03 76.71C134.86 76.33 134 75.96 132.91 75.38C132.37 75.1 131.62 75.22 131.31 75.8C131.02 76.34 131.15 77.09 131.73 77.4Z" fill="black"/>
<path d="M64.82 187.43C69.51 183.86 74.12 180.2 78.8 176.62C81.06 174.89 83.33 173.19 85.64 171.53C86.06 171.23 86.48 170.93 86.89 170.63C87.09 170.48 87.5 170.29 87.65 170.09C87.68 170.07 87.72 170.04 87.75 170.02C88.05 169.84 87.85 169.78 87.14 169.85C87.07 169.9 87.05 169.68 87.2 169.91C87.3 170.06 87.51 170.2 87.64 170.32C93.03 175.49 97.99 181.13 103.17 186.51C103.9 187.27 104.74 187.99 105.4 188.81C105.44 188.86 105.71 189.06 105.73 189.15C105.91 189.71 105.3 190.1 104.95 190.51C104.54 190.99 104.13 191.46 103.72 191.94C101.92 194.02 100.06 196.04 98.14 198.01C97.32 198.85 98.61 200.15 99.43 199.3C101.27 197.41 103.06 195.48 104.79 193.48C105.66 192.48 106.72 191.48 107.44 190.37C108.12 189.31 107.55 188.41 106.77 187.6C103.59 184.3 100.43 181 97.27 177.68C94.63 174.91 92.03 172.09 89.31 169.4C88.81 168.9 88.12 167.98 87.31 168.16C86.5 168.35 85.59 169.32 84.91 169.81C83.65 170.71 82.4 171.63 81.16 172.56C75.34 176.91 69.66 181.46 63.88 185.87C62.97 186.55 63.88 188.14 64.82 187.43Z" fill="black"/>
<path d="M66.3299 158.74C64.8899 169.91 63.4399 181.09 61.9999 192.26C61.8499 193.42 63.6799 193.41 63.8299 192.26C65.2699 181.09 66.7199 169.91 68.1599 158.74C68.3099 157.58 66.4799 157.59 66.3299 158.74Z" fill="black"/>
<path d="M142.12 173.6C140.35 173.86 138.56 174.01 136.76 174.03C136.67 174.03 136.57 174.03 136.49 173.98C136.41 173.92 137.78 167.92 137.86 167.91C137.87 167.91 141 172.18 142.12 173.6Z" fill="white"/>
<path d="M141.74 172.22C141.62 172.24 141.5 172.25 141.39 172.27C140.99 172.33 141.7 172.23 141.3 172.28C141.1 172.3 140.9 172.33 140.71 172.35C140.25 172.4 139.8 172.44 139.34 172.48C138.9 172.51 138.47 172.54 138.03 172.56C137.81 172.57 137.59 172.58 137.37 172.58C137.25 172.58 137.13 172.59 137.01 172.59C136.97 172.59 136.93 172.59 136.89 172.59C136.61 172.58 136.73 172.63 137.23 172.74C137.4 172.91 137.57 173.08 137.75 173.26C137.71 173.21 137.95 174.22 137.95 173.92C137.95 173.92 137.87 174.43 137.92 174.15C137.95 174 137.98 173.85 138.01 173.69C138.11 173.21 138.21 172.74 138.31 172.27C138.54 171.22 138.78 170.17 139.04 169.13C139.08 168.95 139.13 168.77 139.18 168.58C139.2 168.52 139.21 168.46 139.23 168.4C139.23 168.38 139.24 168.36 139.25 168.34C139.21 168.56 138.85 169.02 138.61 169.16C137.95 168.99 137.3 168.82 136.64 168.64C137.73 170.13 138.83 171.62 139.94 173.09C140.33 173.6 140.72 174.12 141.12 174.62C141.33 174.89 141.81 175.04 142.14 175.04C142.49 175.04 142.91 174.88 143.16 174.62C143.41 174.35 143.6 173.99 143.58 173.6C143.56 173.19 143.41 172.9 143.16 172.58C143.1 172.51 143.05 172.44 142.99 172.37C142.96 172.33 142.93 172.29 142.9 172.25C142.87 172.22 143.13 172.55 143.04 172.44C143.02 172.41 142.99 172.38 142.97 172.35C142.81 172.15 142.66 171.94 142.5 171.74C142.14 171.27 141.79 170.79 141.43 170.32C140.79 169.46 140.15 168.59 139.51 167.73C139.38 167.55 139.24 167.37 139.11 167.19C138.65 166.56 137.88 166.26 137.14 166.67C136.5 167.04 136.38 167.83 136.22 168.49C136.04 169.25 135.86 170 135.69 170.76C135.53 171.48 135.37 172.2 135.22 172.92C135.18 173.11 135.14 173.31 135.11 173.5C135.09 173.61 135.05 173.83 135.05 173.98C135.07 174.92 135.89 175.45 136.76 175.48C138.67 175.53 140.62 175.28 142.5 175C142.83 174.95 143.2 174.61 143.36 174.34C143.54 174.03 143.62 173.58 143.51 173.23C143.4 172.88 143.18 172.55 142.85 172.37C142.49 172.17 142.15 172.16 141.74 172.22Z" fill="white"/>
<path d="M110.17 138.93C117.72 131.31 130.01 132.84 137.6 139.55C141.17 142.7 143.38 147.41 144.58 151.97C145.25 154.53 145.38 157.11 144.8 159.7C143.92 163.66 142.84 167.42 139.7 170.23C138.75 171.08 140.15 172.47 141.09 171.62C144.34 168.71 145.56 164.93 146.55 160.83C147.24 157.99 147.32 155.18 146.69 152.32C146.18 150.02 145.31 147.8 144.31 145.67C143.12 143.14 141.75 140.8 139.73 138.83C135.79 134.99 130.54 132.48 125.07 131.9C119.13 131.27 113 133.26 108.78 137.52C107.89 138.44 109.28 139.83 110.17 138.93Z" fill="white"/>
</g>
<defs>
<clipPath id="clip0_243_787">
<rect width="200" height="200" fill="white"/>
</clipPath>
</defs>
</svg>
