<svg width="200" height="200" viewBox="0 0 200 200" fill="none" xmlns="http://www.w3.org/2000/svg">
<g clip-path="url(#clip0_240_510)">
<path d="M128.49 162.56L153.32 151.24L165.4 170.34C165.4 170.34 151.91 185.5 150.76 195.44C140.12 197.92 128.49 162.56 128.49 162.56Z" fill="#E08F8B"/>
<path d="M67.75 165.39L47.03 152.1L34.6 170.34C34.6 170.34 47.2 184.4 48.34 194.34C61.58 195.82 67.75 165.39 67.75 165.39Z" fill="#E08F8B"/>
<path d="M120.96 77.43L125.88 75.04C127.24 77.05 135.79 92.1 137.29 95.7C142.08 107.26 144.52 112.26 143.16 119.19C140.44 133.09 120.22 130.87 119.19 119.65C119.19 119.65 130.72 101.01 120.96 77.43Z" fill="black"/>
<path d="M134.61 165.09C134.61 165.09 137 190.86 137.38 199.68H64.28C64.08 194.42 67.78 185.56 67.78 185.56C65.61 177.05 65.9 171.24 65.9 171.24C65.9 171.24 65.05 172.58 62.61 171.36C59.54 169.82 61.15 166 61.15 166C61.15 166 59.44 169.29 56.27 167.71C53.1 166.13 54.81 163.44 54.81 163.44C54.81 163.44 52.85 165.41 50.06 163.93C47.99 162.83 48.72 160.15 48.72 160.15C48.72 160.15 44.82 161.98 42.75 158.69C40.68 155.4 45.23 152 45.23 152C45.23 152 43.41 145.18 48.71 136.85C55.31 126.48 76.43 121.68 76.43 121.68L100.84 117.68C100.84 117.68 104.72 118.25 115.35 119.7C122.34 120.65 131.36 120.84 142.15 129.17C149.95 135.19 152.46 145.37 152.46 145.37C152.46 145.37 157 148 155.7 151.55C154.54 154.7 150.74 154.32 150.74 154.32C150.74 154.32 152.82 155.74 149.66 157.12C147.35 158.13 145.91 155.84 145.91 155.84C145.91 155.84 147.39 158.9 144.43 160.28C141.4 161.69 139.2 159.09 139.2 159.09C139.2 159.09 140.95 166.1 134.61 165.09Z" fill="#008DB2"/>
<path d="M126.31 81.19C126.31 81.19 128.96 73.45 120.77 63.49C112.58 53.53 95.08 43.75 76.25 58.26C59.2 71.41 48.8 108.93 51.96 125.92C55.04 142.48 83.17 144.86 88.27 126.96C90.26 119.98 84.87 104.62 84.87 104.62L126.31 81.19Z" fill="black"/>
<path d="M86.89 61.25C90.43 58.27 94.13 56.33 97.74 55.23C97.56 55.06 97.37 54.89 97.2 54.7C94.73 52.08 94.74 48.41 94.87 46.91C94.9 46.53 95.25 46.27 95.61 46.34C96.82 46.59 99.44 47.32 101.33 49.23C102.47 50.38 103.24 51.48 103.75 52.5C104.04 51.67 104.46 50.81 105.06 49.95C107.01 47.16 110.22 46.41 111.82 46.21C112.35 46.14 112.8 46.58 112.78 47.13C112.72 48.5 112.4 51.04 111.01 53.13C110.64 53.69 110.27 54.17 109.9 54.61C112.42 55.16 114.69 56.13 116.57 57.43C128 65.34 126.44 75.54 126.44 75.54C126.44 75.54 119.45 53.35 100.39 62.93C81.33 72.5 82.12 90.55 82.12 90.55C82.12 90.55 81.13 88.64 79.33 88.67C77.05 88.72 75.68 89.57 75.68 89.57C75.68 89.57 74.72 71.49 86.89 61.25Z" fill="#00A94F"/>
<path d="M95.28 46C96.44 46.01 97.57 46.33 98.63 46.78C99.66 47.22 100.71 47.79 101.54 48.56C102.37 49.33 103.07 50.27 103.54 51.31C103.98 52.3 104.18 53.39 104.29 54.47C105.84 55.16 107.22 56.7 106.96 58.47C106.84 59.28 105.62 59.06 105.74 58.25C105.85 57.51 105.37 56.82 104.86 56.34C104.33 55.85 103.7 55.5 102.99 55.38C101.77 55.16 100.32 55.82 99.94 57.12C99.84 57.45 99.58 57.7 99.22 57.64C98.92 57.59 98.62 57.24 98.72 56.91C99.27 55.02 101.12 53.88 102.99 54.11C102.89 53.36 102.73 52.63 102.44 51.93C102.06 51.03 101.45 50.2 100.74 49.55C100.03 48.89 99.16 48.41 98.28 48.02C97.38 47.62 96.38 47.28 95.38 47.27C95.04 47.27 94.74 47.07 94.71 46.7C94.69 46.38 94.94 46 95.28 46Z" fill="#008043"/>
<path d="M94.92 66.25C94.92 66.25 91.74 68.64 89.76 70.97C89.12 71.72 88.13 72.96 87.3 74.16C86.73 74.99 86.17 75.98 86.17 75.98C86.17 75.98 84.42 71.62 86.92 68.45C90.24 64.26 94.92 66.25 94.92 66.25Z" fill="#97CA51"/>
<path d="M86.8 63.03C87.4 63.92 88.64 64.09 89.57 63.43C90.5 62.76 90.76 61.5 90.15 60.62C89.82 60.14 89.28 59.87 88.73 59.83C88.73 59.83 87.95 60.39 87.55 60.72C86.97 61.2 86.51 61.59 86.51 61.59C86.42 62.06 86.51 62.61 86.8 63.03Z" fill="#E24497"/>
<path d="M108.8 47.91L110.54 49.53L109.42 50.5L107.66 48.96L107.54 51.87L106.23 51.8L106.27 49.62L104.69 51.51L104.25 51.26C104.25 51.26 105.12 49.42 106.58 48.3C107.02 47.96 107.71 47.47 108.53 47.11C109.45 46.7 110.49 46.44 110.49 46.44L110.73 47.27L108.8 47.91Z" fill="#97CA51"/>
<path d="M76.74 81.12L78.86 81.7L78.64 83.02L76.68 82.33L77.51 84.39L76.57 84.8L76.07 82.99C76.07 82.99 76.12 82.42 76.26 81.52C76.4 80.61 76.55 80.16 76.55 80.16L77.75 78.91L78.25 79.88L76.74 81.12Z" fill="#FAAE17"/>
<path d="M111.284 59.051C111.996 58.9234 112.475 58.2736 112.355 57.5995C112.234 56.9254 111.559 56.4823 110.847 56.6099C110.135 56.7375 109.655 57.3873 109.776 58.0614C109.897 58.7355 110.572 59.1785 111.284 59.051Z" fill="white"/>
<path d="M117.63 63.09L119.32 61.26L120.61 62.43L119.07 64.22C119.07 64.22 119.01 64.17 118.91 64.09C118.8 64 118.5 63.74 118.25 63.56C117.78 63.2 117.63 63.09 117.63 63.09Z" fill="#E24497"/>
<path d="M101.63 58.93L101.81 60.72L95.37 61.83L95.19 59.18L101.63 58.93Z" fill="#FAAE17"/>
<path d="M79.78 76.36C79.84 77.06 80.45 77.58 81.13 77.51C81.81 77.44 82.32 76.82 82.25 76.12C82.19 75.42 81.58 74.9 80.9 74.97C80.22 75.03 79.71 75.65 79.78 76.36Z" fill="white"/>
<path d="M113.42 121.95C113.42 121.95 115.02 130.39 104.78 130.26C96.31 130.15 91.12 125.99 88.91 122.96C88.91 122.96 88.43 116.9 86.96 111.92C85.49 106.94 84.41 104.52 84.41 104.52C84.41 104.52 77.88 105.78 74.66 100.49C71.45 95.2 72.77 89.79 77.25 88.68C81.73 87.57 82.07 90.2 83.6 93.22C85.13 96.24 90.26 100.05 89.34 90.1C89.34 90.1 94.44 86.94 98.13 82.25C101.82 77.56 103.33 72.69 103.33 72.69C103.33 72.69 105.65 74.71 111.32 76.92C118.7 79.8 124.58 78.68 125.15 78.49C125.73 78.3 130.32 97.1 130.13 106.74C129.91 119.46 120.25 122.31 113.42 121.95Z" fill="#F498A8"/>
<path d="M123.78 76.22C125.37 81.51 126.29 86.99 127.26 92.42C128.18 97.55 129.01 102.83 128.65 108.06C128.45 110.87 127.87 113.78 126.05 116.01C124.63 117.75 122.49 118.77 120.33 119.54C118.04 120.35 115.65 120.45 113.24 120.32C109.89 120.13 106.57 119.53 103.35 118.59C101.69 118.11 100.75 120.63 102.41 121.11C110.14 123.36 120.67 124.88 127.14 118.75C129.4 116.61 130.53 113.74 131.05 110.72C131.9 105.72 131.26 100.44 130.5 95.48C129.49 88.88 128.35 82.14 126.43 75.74C125.94 74.09 123.28 74.56 123.78 76.22Z" fill="black"/>
<path d="M77.17 95.24C77.24 95.27 77.31 95.3 77.39 95.33C77.41 95.34 77.64 95.46 77.46 95.36C77.58 95.43 77.7 95.5 77.82 95.58C77.94 95.66 78.04 95.75 78.15 95.84C78.3 95.96 78.07 95.74 78.21 95.89C78.25 95.94 78.3 95.98 78.34 96.03C78.44 96.13 78.53 96.24 78.61 96.35C78.66 96.41 78.7 96.48 78.75 96.54C78.86 96.69 78.69 96.43 78.79 96.61C78.93 96.86 79.06 97.11 79.17 97.38C79.19 97.44 79.22 97.5 79.24 97.56C79.26 97.62 79.26 97.61 79.23 97.52C79.24 97.56 79.25 97.59 79.26 97.63C79.3 97.77 79.33 97.91 79.36 98.05C79.39 98.19 79.4 98.33 79.42 98.47C79.42 98.51 79.43 98.55 79.43 98.59C79.43 98.49 79.43 98.48 79.43 98.54C79.43 98.6 79.43 98.67 79.43 98.73C79.43 99.01 79.4 99.29 79.34 99.57C79.38 99.36 79.33 99.59 79.32 99.63C79.3 99.7 79.27 99.78 79.25 99.85C79.2 100 79.14 100.14 79.07 100.28C78.86 100.7 79.17 101.3 79.6 101.43C80.1 101.59 80.53 101.35 80.75 100.9C82.06 98.19 80.56 94.64 77.8 93.55C77.36 93.38 76.79 93.62 76.65 94.08C76.49 94.56 76.7 95.05 77.17 95.24Z" fill="black"/>
<path d="M114.82 99.37C114.77 98.74 114.5 98.13 114.28 97.54C114.05 96.9 113.8 96.26 113.54 95.63C113.03 94.36 112.48 93.1 111.92 91.85C111.55 91.02 110.28 91.63 110.65 92.45C111.5 94.35 112.32 96.26 113.03 98.21C113.18 98.63 113.4 99.1 113.42 99.55C113.43 99.81 113.35 100.25 113.12 100.41C112.91 100.56 112.53 100.51 112.3 100.42C111.97 100.29 111.82 100.02 111.71 99.7C111.59 99.34 111.09 99.22 110.77 99.37C110.64 99.43 110.56 99.52 110.5 99.63C110.36 99.74 110.27 99.91 110.24 100.11C110.23 100.17 110.22 100.23 110.21 100.3C110.21 100.32 110.21 100.33 110.2 100.34C110.2 100.35 110.2 100.34 110.19 100.36C110.16 100.46 110.13 100.57 110.09 100.67C110.07 100.72 110.05 100.77 110.03 100.82C110.02 100.84 110.03 100.83 110.02 100.84C110.02 100.84 110.02 100.84 110.01 100.85C109.95 100.94 109.89 101.03 109.82 101.12C109.8 101.14 109.79 101.15 109.77 101.17C109.73 101.2 109.69 101.23 109.65 101.27C109.76 101.17 109.67 101.26 109.62 101.28C109.59 101.3 109.55 101.31 109.51 101.33C109.5 101.33 109.4 101.35 109.37 101.36C109.36 101.36 109.34 101.36 109.33 101.36C109.32 101.36 109.33 101.36 109.32 101.36C109.25 101.35 109.18 101.35 109.11 101.34C109.09 101.34 109.1 101.34 109.09 101.34C109.08 101.34 109.08 101.33 109.06 101.33C109 101.31 108.94 101.29 108.89 101.27C108.86 101.26 108.81 101.23 108.8 101.22C108.76 101.2 108.72 101.17 108.68 101.14C108.67 101.13 108.66 101.13 108.66 101.12C108.53 100.97 108.4 100.82 108.29 100.66C108.27 100.64 108.26 100.61 108.25 100.59C108.22 100.55 108.2 100.5 108.17 100.46C108.11 100.36 108.05 100.25 108 100.15C107.91 99.97 107.82 99.79 107.74 99.61C107.6 99.27 107.13 99.1 106.8 99.28C106.45 99.47 106.31 99.85 106.47 100.22C106.69 100.74 106.98 101.25 107.31 101.71C107.71 102.26 108.27 102.62 108.95 102.75C109.7 102.89 110.42 102.59 110.92 102.03C111.07 101.87 111.18 101.68 111.28 101.48C111.8 101.86 112.46 102.03 113.14 101.92C114.33 101.68 114.91 100.47 114.82 99.37Z" fill="black"/>
<path d="M116.2 128.56C115.21 130.94 113.3 133.03 110.96 134.14C109.13 135.01 106.95 135.17 104.95 135.14C100.57 135.06 95.68 133.98 92.27 131.09C91.41 130.36 90.41 131.79 91.26 132.51C95.11 135.77 100.83 136.99 105.76 136.87C108.02 136.82 110.38 136.51 112.37 135.36C114.81 133.96 116.75 131.76 117.83 129.17C118.27 128.12 116.63 127.52 116.2 128.56Z" fill="#006B83"/>
<path d="M122.15 90.09C121.56 90.36 119.31 90 117.33 90.27C115.24 90.56 114.25 91.02 113.67 90.93C112.6 90.76 112.24 89.51 112.26 88.8C112.29 87.96 112.83 86.31 115.97 85.55C117.88 85.09 119.44 85.31 120.52 85.61C121.02 85.75 122.42 86.5 122.87 87.82C123.27 89.05 122.74 89.82 122.15 90.09Z" fill="white"/>
<path d="M116.51 90.2C118.72 90.39 119.02 86.96 116.81 86.77C114.6 86.57 114.3 90.01 116.51 90.2Z" fill="black"/>
<path d="M96.51 90.95C96.64 89.56 97.84 88.51 98.29 88.26C99.27 87.72 100.73 87.14 102.7 87.16C105.93 87.18 106.83 88.66 107.05 89.48C107.23 90.16 107.16 91.47 106.16 91.87C105.62 92.09 104.55 91.87 102.45 92.07C100.46 92.26 98.35 93.12 97.72 93C97.08 92.87 96.39 92.24 96.51 90.95Z" fill="white"/>
<path d="M100.86 91.92C103.07 92.11 103.37 88.68 101.16 88.49C98.94 88.29 98.64 91.73 100.86 91.92Z" fill="black"/>
<path d="M84.43 104.53C84.43 104.53 77.89 105.79 74.67 100.5C71.45 95.21 72.78 89.79 77.27 88.68C81.75 87.57 82.1 90.21 83.63 93.23C84.36 94.67 85.72 96.42 86.86 96.49L84.43 104.53Z" fill="#F498A8"/>
<path d="M77.17 95.24C77.24 95.27 77.31 95.3 77.39 95.33C77.41 95.34 77.64 95.46 77.46 95.36C77.58 95.43 77.7 95.5 77.82 95.58C77.94 95.66 78.04 95.75 78.15 95.84C78.3 95.96 78.07 95.74 78.21 95.89C78.25 95.94 78.3 95.98 78.34 96.03C78.44 96.13 78.53 96.24 78.61 96.35C78.66 96.41 78.7 96.48 78.75 96.54C78.86 96.69 78.69 96.43 78.79 96.61C78.93 96.86 79.06 97.11 79.17 97.38C79.19 97.44 79.22 97.5 79.24 97.56C79.26 97.62 79.26 97.61 79.23 97.52C79.24 97.56 79.25 97.59 79.26 97.63C79.3 97.77 79.33 97.91 79.36 98.05C79.39 98.19 79.4 98.33 79.42 98.47C79.42 98.51 79.43 98.55 79.43 98.59C79.43 98.49 79.43 98.47 79.43 98.54C79.43 98.6 79.43 98.67 79.43 98.73C79.43 99.01 79.4 99.29 79.34 99.57C79.38 99.36 79.33 99.59 79.32 99.63C79.3 99.7 79.27 99.78 79.25 99.85C79.2 100 79.14 100.14 79.07 100.28C78.86 100.7 79.17 101.3 79.6 101.43C80.1 101.59 80.53 101.35 80.75 100.9C82.06 98.19 80.56 94.63 77.8 93.54C77.36 93.37 76.79 93.61 76.65 94.07C76.49 94.56 76.7 95.05 77.17 95.24Z" fill="black"/>
<path d="M97.1 85.28C97.11 85.27 97.32 85.02 97.18 85.18C97.05 85.33 97.25 85.11 97.28 85.08C97.41 84.96 97.54 84.84 97.68 84.73C97.81 84.63 97.94 84.53 98.07 84.44C98.19 84.36 98.25 84.33 98.09 84.42C98.17 84.37 98.25 84.32 98.33 84.28C98.64 84.1 98.96 83.95 99.29 83.82C99.47 83.75 99.65 83.68 99.83 83.62C99.65 83.68 99.74 83.65 99.87 83.61C99.96 83.58 100.05 83.56 100.15 83.54C100.5 83.45 100.86 83.38 101.22 83.34C101.41 83.32 101.6 83.3 101.79 83.28C102 83.26 101.45 83.28 101.81 83.28C101.89 83.28 101.96 83.28 102.04 83.28C102.41 83.28 102.78 83.31 103.14 83.36C103.21 83.37 103.28 83.38 103.35 83.4C103.69 83.45 103.16 83.34 103.35 83.4C103.53 83.45 103.72 83.5 103.9 83.56C104.59 83.79 105.45 83.47 105.69 82.74C105.91 82.04 105.61 81.2 104.87 80.95C101.46 79.81 97.14 80.88 94.84 83.68C94.38 84.24 94.57 85.23 95.17 85.62C95.84 86.05 96.61 85.88 97.1 85.28Z" fill="black"/>
<path d="M114.18 82.23C114.32 82.1 114.48 81.99 114.63 81.87C114.74 81.79 114.72 81.8 114.62 81.87C114.7 81.82 114.78 81.77 114.87 81.72C115.2 81.54 115.53 81.41 115.88 81.26C115.62 81.37 115.87 81.26 115.93 81.25C116.02 81.22 116.12 81.2 116.22 81.17C116.41 81.12 116.61 81.09 116.8 81.05C116.98 81.02 117.15 81 117.33 80.99C117.47 80.98 117.57 80.98 117.37 80.98C117.47 80.98 117.57 80.98 117.67 80.98C118.05 80.98 118.42 81.02 118.79 81.08C118.87 81.09 118.94 81.11 119.02 81.12C118.72 81.07 118.99 81.11 119.06 81.13C119.25 81.18 119.43 81.24 119.62 81.3C119.78 81.36 119.94 81.42 120.1 81.5C120.1 81.5 120.42 81.66 120.25 81.57C120.08 81.48 120.36 81.64 120.39 81.66C120.55 81.76 120.71 81.87 120.86 81.98C120.92 82.03 120.98 82.08 121.04 82.12C121.33 82.35 120.85 81.93 121.11 82.19C121.62 82.7 122.48 82.9 123.07 82.36C123.58 81.89 123.79 80.95 123.24 80.4C120.41 77.59 115.42 77.45 112.4 80.08C111.85 80.56 111.72 81.48 112.23 82.04C112.72 82.61 113.6 82.74 114.18 82.23Z" fill="black"/>
<path d="M48.5 174.53C46.97 173.02 42.45 168.33 42.45 168.33C42.45 168.33 44.4 165.86 44.72 162.38C44.91 160.27 44.46 156.71 45.05 155.07C46.38 151.36 48.72 150.14 49.34 147.13C49.8 144.9 47.68 142.96 44.54 143.22C41.47 143.48 39.78 147.11 39.32 149.12C38.69 151.88 36.72 155.42 35.31 154.74C33.69 153.97 33.09 150.26 32.17 145.64C30.58 137.64 31.25 129.3 26 129.67C21.91 129.95 21.48 134.39 23.1 140.19C24.06 143.61 25.91 148.97 24.97 149.26C24.46 149.41 21.58 145.18 18.51 140.43C15.98 136.52 13.78 132.59 10.48 132.47C6.48998 132.33 4.51999 136.36 8.46999 141.06C13.2 146.68 19.06 151.62 18.16 152.45C17.61 152.95 12.43 149.93 9.35998 148.7C5.92998 147.32 1.45999 146.2 0.209985 149.52C-1.04001 152.84 3.32998 154.33 6.48998 155.44C9.75998 156.59 16.1 158.4 15.81 159.01C15.49 159.7 1.03999 154.92 2.12999 161.39C3.00998 166.61 11.02 164.03 15.04 165.94C16.83 166.79 17.29 170.86 21.59 173.46C24.84 175.43 28.19 176.06 28.19 176.06C28.19 176.06 30.94 183.19 41.23 192.22C42.91 193.72 50.45 198.3 55.69 192.88C60.94 187.45 54.99 180.93 48.5 174.53Z" fill="#F498A8"/>
<path d="M19.22 161.01C19.98 157.48 23.01 154.78 26.13 153.24C26.94 152.84 26.38 151.55 25.56 151.95C21.95 153.73 18.69 156.79 17.82 160.85C17.74 161.22 18.09 161.59 18.44 161.63C18.85 161.68 19.14 161.38 19.22 161.01Z" fill="black"/>
<path d="M37.29 153.38C34.67 154.6 32.83 157.28 32.72 160.18C32.7 160.56 32.94 160.91 33.34 160.96C33.7 161 34.1 160.72 34.12 160.34C34.22 157.93 35.67 155.69 37.86 154.67C38.68 154.29 38.12 153 37.29 153.38Z" fill="black"/>
<path d="M65.74 170.49C65.76 170.47 65.76 170.47 65.74 170.49V170.49Z" fill="#006B83"/>
<path d="M67.11 168.13C67.11 168.07 67.12 168.01 67.11 168.13V168.13Z" fill="#006B83"/>
<path d="M75.64 162.81C75.33 162.5 74.72 162.45 74.41 162.81C72.77 164.71 70.4 165.9 67.92 166.02C67.45 166.04 67.05 166.4 67.05 166.89C67.05 167.05 67.11 167.19 67.19 167.33C67.17 167.4 67.14 167.47 67.15 167.55C67.15 167.72 67.15 167.9 67.13 168.07C67.13 168.11 67.12 168.15 67.12 168.18C67.12 168.15 67.12 168.15 67.12 168.13C67.12 168.14 67.12 168.14 67.12 168.15C67.11 168.23 67.09 168.32 67.07 168.4C67.03 168.57 66.98 168.73 66.92 168.9C66.91 168.94 66.89 168.97 66.88 169.01C66.87 169.04 66.81 169.2 66.86 169.07C66.91 168.95 66.86 169.07 66.85 169.1C66.83 169.14 66.81 169.19 66.79 169.23C66.72 169.38 66.64 169.52 66.55 169.65C66.5 169.72 66.45 169.79 66.4 169.86C66.38 169.88 66.36 169.91 66.34 169.93C66.23 170.06 66.11 170.19 65.98 170.31C65.92 170.37 65.85 170.43 65.79 170.48C65.76 170.5 65.73 170.53 65.7 170.55C65.73 170.52 65.75 170.5 65.76 170.49C65.74 170.51 65.71 170.53 65.69 170.55C65.32 170.81 65.11 171.32 65.38 171.74C65.62 172.11 66.18 172.34 66.57 172.05C67.99 171.04 68.88 169.41 68.89 167.66C71.49 167.3 73.93 166.03 75.65 164.03C75.95 163.69 75.99 163.16 75.64 162.81Z" fill="#006B83"/>
<path d="M129.43 145.15C132.17 149.81 133.56 155.14 133.44 160.55C133.42 161.67 135.16 161.67 135.18 160.55C135.3 154.84 133.82 149.19 130.93 144.27C130.37 143.3 128.86 144.18 129.43 145.15Z" fill="#006B83"/>
<path d="M151.5 174.53C153.03 173.02 157.55 168.33 157.55 168.33C157.55 168.33 155.6 165.86 155.28 162.38C155.09 160.27 155.54 156.71 154.95 155.07C153.62 151.36 151.28 150.14 150.66 147.13C150.2 144.9 152.32 142.96 155.46 143.22C158.53 143.48 160.22 147.11 160.68 149.12C161.31 151.88 163.28 155.42 164.69 154.74C166.31 153.97 166.91 150.26 167.83 145.64C169.42 137.64 168.75 129.3 174 129.67C178.09 129.95 178.52 134.39 176.9 140.19C175.94 143.61 174.09 148.97 175.03 149.26C175.54 149.41 178.42 145.18 181.49 140.43C184.02 136.52 186.22 132.59 189.52 132.47C193.51 132.33 195.48 136.36 191.53 141.06C186.8 146.68 180.94 151.62 181.84 152.45C182.39 152.95 187.57 149.93 190.64 148.7C194.07 147.32 198.54 146.2 199.79 149.52C201.04 152.84 196.67 154.33 193.51 155.44C190.24 156.59 183.9 158.4 184.19 159.01C184.51 159.7 198.96 154.92 197.87 161.39C196.99 166.61 188.98 164.03 184.96 165.94C183.17 166.79 182.71 170.86 178.41 173.46C175.16 175.43 171.81 176.06 171.81 176.06C171.81 176.06 169.06 183.19 158.77 192.22C157.09 193.72 149.55 198.3 144.31 192.88C139.06 187.45 145.01 180.93 151.5 174.53Z" fill="#F498A8"/>
<path d="M180.78 161.01C180.02 157.48 176.99 154.78 173.87 153.24C173.06 152.84 173.62 151.55 174.44 151.95C178.05 153.73 181.31 156.79 182.18 160.85C182.26 161.22 181.91 161.59 181.56 161.63C181.15 161.68 180.86 161.38 180.78 161.01Z" fill="black"/>
<path d="M162.71 153.38C165.33 154.6 167.17 157.28 167.28 160.18C167.3 160.56 167.06 160.91 166.66 160.96C166.3 161 165.9 160.72 165.88 160.34C165.78 157.93 164.33 155.69 162.14 154.67C161.32 154.29 161.88 153 162.71 153.38Z" fill="black"/>
<path d="M97.92 100.67C97.92 100.81 97.92 100.96 97.91 101.1C97.9 101.17 97.85 101.32 97.91 101.12C97.89 101.17 97.89 101.25 97.88 101.3C97.83 101.55 97.78 101.84 97.65 102.06C97.76 101.87 97.66 102.04 97.64 102.08C97.61 102.14 97.59 102.19 97.56 102.25C97.49 102.38 97.42 102.5 97.34 102.62C97.31 102.67 97.27 102.72 97.23 102.77C97.2 102.82 97.13 102.97 97.21 102.79C97.16 102.9 97.03 103.01 96.94 103.09C96.85 103.19 96.75 103.28 96.65 103.37C96.6 103.41 96.56 103.45 96.51 103.49C96.35 103.63 96.66 103.39 96.49 103.51C96.27 103.66 96.05 103.8 95.8 103.92C95.76 103.94 95.58 104.04 95.78 103.93C95.73 103.96 95.67 103.98 95.61 104C95.48 104.05 95.34 104.09 95.2 104.12C95.08 104.15 94.95 104.16 94.84 104.19C95.05 104.13 94.89 104.18 94.82 104.19C94.74 104.2 94.66 104.2 94.57 104.2C94.12 104.21 93.7 104.59 93.72 105.05C93.74 105.51 94.09 105.91 94.57 105.9C97.3 105.85 99.7 103.39 99.62 100.65C99.61 100.2 99.24 99.78 98.77 99.8C98.32 99.84 97.91 100.19 97.92 100.67Z" fill="black"/>
<path d="M102.35 112.42C103.97 113.56 106.2 113.63 107.93 112.7C108.32 112.49 108.48 111.91 108.24 111.53C107.98 111.13 107.49 111 107.07 111.22C106.99 111.27 106.9 111.31 106.81 111.35C106.73 111.39 106.74 111.38 106.82 111.35C106.77 111.37 106.73 111.38 106.69 111.4C106.51 111.47 106.32 111.52 106.14 111.56C106.05 111.58 105.95 111.6 105.86 111.61C106.04 111.58 105.79 111.61 105.73 111.62C105.53 111.63 105.32 111.64 105.12 111.62C105.07 111.62 105.02 111.61 104.98 111.61C104.96 111.61 104.8 111.59 104.91 111.6C105.02 111.61 104.86 111.59 104.84 111.59C104.79 111.58 104.75 111.57 104.7 111.56C104.51 111.52 104.33 111.47 104.14 111.41C104.09 111.39 104.05 111.38 104 111.36C103.98 111.35 103.84 111.3 103.93 111.34C104.02 111.38 103.88 111.32 103.87 111.31C103.83 111.29 103.78 111.27 103.74 111.25C103.56 111.16 103.38 111.05 103.22 110.93C102.85 110.67 102.26 110.85 102.05 111.24C101.81 111.69 101.96 112.15 102.35 112.42Z" fill="black"/>
<path d="M97.79 105.09C101.35 109.19 107.17 110.36 112.1 108.17C113.1 107.73 112.23 106.26 111.24 106.7C106.98 108.59 102.02 107.37 99 103.88C98.27 103.06 97.07 104.27 97.79 105.09Z" fill="black"/>
</g>
<defs>
<clipPath id="clip0_240_510">
<rect width="200" height="200" fill="white"/>
</clipPath>
</defs>
</svg>
