<svg width="200" height="200" viewBox="0 0 200 200" fill="none" xmlns="http://www.w3.org/2000/svg">
<g clip-path="url(#clip0_243_686)">
<path d="M142.54 164.17L145.82 200.28H171.89L162.29 156.5L142.54 164.17Z" fill="#A85630"/>
<path fill-rule="evenodd" clip-rule="evenodd" d="M35.9 148.43C35.9 148.43 23.26 167.1 26.55 176.83C29.84 186.55 50.35 199.81 56.93 200.28C63.51 200.75 62.87 179.91 62.87 179.91L49.05 168.5L55.2 160.29L35.9 148.43Z" fill="#8C4520"/>
<path d="M76.86 50.65L75.2 50.46C73.58 50.28 73.49 49.13 72.8 50.61C69.75 57.09 67.01 68.16 63.59 92.06C59.15 123.2 65.12 124.79 70.4 125.35C76.79 126.03 87.69 121.13 91.2 105.19C94.05 92.17 76.86 50.65 76.86 50.65Z" fill="black"/>
<path d="M26.8301 148.71C29.8601 167.52 54.2701 176.36 54.2701 176.36L59.9001 165.38C58.5501 182.64 55.2801 185.09 56.9201 200.27L146.05 200.28L144.86 177.62C160.07 176.4 174.61 171.19 174.61 171.19C174.61 171.19 155.64 121.18 136.28 115.72C126.22 112.88 92.7801 110.63 70.9101 115.02C50.7101 119.07 26.8301 148.71 26.8301 148.71Z" fill="#545554"/>
<path d="M73.05 59.43C73.05 59.43 69.84 85.51 72.19 97.14C74.54 108.77 82.86 109.84 86.49 110.13C86.49 110.13 86.51 117.6 88.92 119.5C95.68 124.82 108.86 120.73 112.83 115.07C116.8 109.41 115.65 57.19 115.65 57.19C115.65 57.19 80.2 52.26 73.05 59.43Z" fill="#A65630"/>
<path d="M70.4101 65.76L75.4801 64.05L77.2101 58.51L77.8001 63.09L86.2701 62.75L89.0701 57.94L88.9601 62.85L100.53 64.68L103.54 60.04L102.92 65.58L111.1 67.66C111.1 67.66 106.61 98.13 116.39 129.09C120.19 141.12 132.61 138.46 136.56 136.69C145.02 132.91 146.5 125.92 146.99 119.74C147.89 108.58 141.21 93.71 130.54 64.57C126.43 53.34 121.62 45.01 115.15 41.39C107.45 37.08 98.6201 37.36 90.0701 39.57C86.8901 40.39 83.3801 41.58 80.2001 43.39C75.9201 45.82 72.1601 50.26 71.1501 55.08C70.4701 58.34 69.8501 62.59 70.4101 65.76Z" fill="black"/>
<path d="M95.27 111.35C95.51 110.25 94.88 109.61 94.03 109.3C94.15 108.64 94.11 107.96 93.85 107.35C93.39 106.26 92.36 105.54 91.17 105.49C90.35 105.46 89.64 105.8 89.13 106.36C88.89 106.18 88.6 106.04 88.27 105.96C87.71 105.83 87.04 105.97 86.57 106.3C86.31 106.48 86.08 106.72 85.93 107C85.57 106.95 85.21 107 84.88 107.13C84.15 107.43 83.61 108.06 83.35 108.79C83.09 109.52 83.2 110.27 83.71 110.86C83.74 110.9 83.78 110.92 83.81 110.96C83.24 111.56 82.94 112.41 83.18 113.25C83.37 113.92 83.86 114.47 84.47 114.79C84.81 114.96 85.19 115.05 85.57 115.06C85.69 115.06 85.81 115.04 85.93 115.01V115.02C86.06 115.34 86.23 115.61 86.46 115.87C86.84 116.3 87.36 116.59 87.93 116.66C88.59 116.75 89.24 116.57 89.73 116.13C89.95 115.93 90.13 115.69 90.26 115.43C90.28 115.39 90.29 115.35 90.3 115.31C90.5 115.47 90.71 115.61 90.95 115.71C91.55 115.94 92.19 115.87 92.74 115.54C93.59 115.02 93.85 114.13 93.8 113.22C94.53 112.85 95.09 112.17 95.27 111.35Z" fill="black"/>
<path d="M84.8301 76.19C84.1301 77.8 83.4601 79.42 82.8601 81.07C82.5501 81.91 82.2501 82.75 81.9701 83.6C81.7701 84.21 81.5601 84.84 81.5601 85.49C81.5501 86.96 82.6901 88.06 84.1701 88.08C85.7601 88.1 86.9201 86.9 87.1401 85.39C87.2101 84.95 86.7501 84.54 86.3301 84.53C85.8401 84.52 85.5401 84.89 85.4701 85.34C85.3401 86.2 84.2801 86.73 83.5401 86.23C82.8301 85.75 83.4201 84.49 83.6201 83.89C84.4501 81.45 85.3801 79.05 86.4201 76.68C86.6001 76.27 86.2701 75.76 85.8701 75.64C85.4001 75.49 85.0101 75.78 84.8301 76.19Z" fill="black"/>
<path d="M85.82 85.19C85.5 85.88 85.65 86.76 86.06 87.38C86.54 88.11 87.27 88.58 88.13 88.7C88.85 88.8 89.59 88.58 90.16 88.13C90.76 87.66 91 86.89 91.18 86.18C91.28 85.76 91.09 85.26 90.63 85.14C90.22 85.03 89.7 85.24 89.59 85.69C89.52 85.96 89.45 86.23 89.36 86.49C89.3 86.66 89.44 86.36 89.35 86.52C89.32 86.57 89.29 86.63 89.26 86.68C89.24 86.71 89.23 86.73 89.21 86.76C89.17 86.81 89.19 86.8 89.25 86.72C89.22 86.73 89.16 86.81 89.14 86.84C89.13 86.85 89.03 86.95 89.02 86.94C89.12 86.87 89.13 86.86 89.06 86.91C89.04 86.92 89.03 86.93 89.01 86.94C88.96 86.97 88.91 86.99 88.86 87.01C88.71 87.08 89.03 86.96 88.83 87.02C88.78 87.03 88.72 87.05 88.67 87.06C88.64 87.07 88.62 87.07 88.59 87.07C88.5 87.08 88.52 87.08 88.64 87.07C88.64 87.09 88.34 87.06 88.31 87.06C88.12 87.05 88.49 87.11 88.31 87.06C88.26 87.05 88.2 87.03 88.15 87.02C88.11 87.01 88.01 86.99 87.97 86.95C88.08 87 88.09 87.01 88 86.96C87.98 86.95 87.96 86.94 87.94 86.93C87.88 86.89 87.81 86.85 87.75 86.81C87.72 86.79 87.7 86.77 87.67 86.75C87.75 86.82 87.76 86.83 87.72 86.79C87.68 86.74 87.63 86.7 87.59 86.66C87.56 86.63 87.4 86.46 87.54 86.61C87.5 86.57 87.36 86.36 87.37 86.3C87.4 86.4 87.41 86.42 87.39 86.36C87.38 86.33 87.37 86.3 87.36 86.28C87.34 86.22 87.33 86.17 87.32 86.11C87.28 85.94 87.31 86.26 87.32 86.09C87.32 86.03 87.32 85.97 87.33 85.92C87.33 85.75 87.28 86.09 87.34 85.89C87.36 85.82 87.39 85.76 87.41 85.7C87.49 85.52 87.44 85.23 87.35 85.07C87.25 84.89 87.06 84.72 86.86 84.66C86.65 84.61 86.42 84.61 86.23 84.72C86.02 84.82 85.91 84.98 85.82 85.19Z" fill="black"/>
<path d="M79.3501 89.32C78.7001 89.68 78.0701 90.1 77.4901 90.56C77.3901 90.62 77.3201 90.69 77.2601 90.78C77.1901 90.87 77.1401 90.96 77.1201 91.08C77.0801 91.28 77.1101 91.54 77.2301 91.71C77.3501 91.89 77.5301 92.04 77.7501 92.08C77.9501 92.12 78.2101 92.1 78.3801 91.97C78.9701 91.51 79.5901 91.09 80.2401 90.73C80.4201 90.63 80.5601 90.4 80.6101 90.21C80.6501 90.01 80.6201 89.75 80.5001 89.58C80.3801 89.4 80.2001 89.25 79.9801 89.21C79.7501 89.17 79.5501 89.21 79.3501 89.32Z" fill="black"/>
<path d="M83.6901 90.18C83.4301 90.57 83.1801 90.96 82.9201 91.35C82.8601 91.45 82.8301 91.56 82.8301 91.67C82.8101 91.78 82.8201 91.89 82.8601 91.99C82.9201 92.18 83.0801 92.38 83.2601 92.47C83.4601 92.56 83.6901 92.61 83.9001 92.53C83.9601 92.5 84.0301 92.47 84.0901 92.44C84.2101 92.36 84.3101 92.26 84.3801 92.13C84.6401 91.74 84.8901 91.35 85.1501 90.96C85.2101 90.86 85.2401 90.75 85.2401 90.64C85.2601 90.53 85.2501 90.42 85.2101 90.32C85.1501 90.13 84.9901 89.93 84.8101 89.84C84.6101 89.75 84.3801 89.7 84.1701 89.78C84.1101 89.81 84.0401 89.84 83.9801 89.87C83.8501 89.95 83.7601 90.05 83.6901 90.18Z" fill="black"/>
<path d="M89.0001 90.87C89.0101 90.9 89.0301 90.93 89.0401 90.96C89.0101 90.9 88.9801 90.83 88.9501 90.77C89.1601 91.23 89.3201 91.71 89.4301 92.2C89.4701 92.39 89.6701 92.59 89.8301 92.68C90.0101 92.78 90.2801 92.81 90.4701 92.74C90.6701 92.67 90.8601 92.53 90.9501 92.34C90.9801 92.27 91.0001 92.2 91.0301 92.13C91.0601 91.98 91.0601 91.84 91.0101 91.7C90.8801 91.1 90.6601 90.54 90.4001 89.99C90.3401 89.89 90.2701 89.82 90.1801 89.76C90.0901 89.69 90.0001 89.64 89.8801 89.62C89.6801 89.58 89.4201 89.61 89.2501 89.73C89.0701 89.85 88.9201 90.03 88.8801 90.25C88.8701 90.32 88.8701 90.4 88.8601 90.47C88.8801 90.61 88.9201 90.75 89.0001 90.87Z" fill="black"/>
<path d="M93.7801 88.97C94.0401 89.24 94.3101 89.52 94.5701 89.79C94.6501 89.87 94.7401 89.92 94.8501 89.95C94.9501 90 95.0601 90.02 95.1801 90.01C95.2901 90.01 95.3901 89.98 95.4901 89.93C95.5901 89.89 95.6801 89.83 95.7501 89.75C95.8901 89.58 95.9901 89.37 95.9701 89.14C95.9601 89.07 95.9401 89 95.9301 88.93C95.8801 88.79 95.8101 88.67 95.7001 88.57C95.4401 88.3 95.1701 88.02 94.9101 87.75C94.8301 87.67 94.7401 87.62 94.6301 87.59C94.5301 87.54 94.4201 87.52 94.3001 87.53C94.1901 87.53 94.0901 87.56 93.9901 87.61C93.8901 87.65 93.8001 87.71 93.7301 87.79C93.5901 87.96 93.4901 88.17 93.5101 88.4C93.5201 88.47 93.5401 88.54 93.5501 88.61C93.6001 88.75 93.6801 88.87 93.7801 88.97Z" fill="black"/>
<path d="M97.4001 89.86C97.4701 91.05 98.1901 92 99.0901 92.73C99.9701 93.44 101.22 93.83 102.32 93.44C102.69 93.31 103.01 92.97 102.9 92.54C102.81 92.18 102.4 91.82 102 91.96C101.9 92 101.8 92.03 101.69 92.05C101.63 92.06 101.57 92.07 101.51 92.08C101.59 92.07 101.57 92.08 101.5 92.08C101.39 92.08 101.29 92.08 101.18 92.07C101.12 92.06 101.06 92.06 101 92.05C101.08 92.06 101.05 92.06 100.99 92.04C100.89 92.01 100.78 91.98 100.68 91.94C100.63 91.92 100.57 91.9 100.52 91.87C100.46 91.85 100.45 91.83 100.51 91.87C100.32 91.76 100.14 91.65 99.9601 91.52C99.9201 91.49 99.8901 91.46 99.8501 91.43C99.7501 91.35 99.9701 91.55 99.8101 91.4C99.7301 91.33 99.6601 91.26 99.5901 91.18C99.4501 91.03 99.3301 90.88 99.2001 90.72C99.1301 90.63 99.2501 90.81 99.2001 90.71C99.1701 90.66 99.1401 90.62 99.1101 90.57C99.0601 90.48 99.0201 90.39 98.9801 90.3C98.9701 90.29 98.9301 90.16 98.9501 90.24C98.9801 90.33 98.9301 90.16 98.9201 90.14C98.9101 90.1 98.9001 90.05 98.8901 90.01C98.8901 89.99 98.8701 89.77 98.8801 89.95C98.8601 89.56 98.6101 89.16 98.1701 89.15C97.8301 89.14 97.3801 89.44 97.4001 89.86Z" fill="black"/>
<path d="M82.3001 97.7C85.2901 97.97 88.3401 97.68 91.2201 96.8C94.0501 95.93 96.9501 94.57 99.1301 92.51C100.07 91.62 98.7301 90.11 97.7901 91.01C95.8101 92.88 93.1301 94.15 90.5401 94.91C87.9001 95.68 85.1601 95.94 82.4201 95.69C81.1201 95.57 81.0101 97.58 82.3001 97.7Z" fill="black"/>
<path d="M98.91 91.08C97.72 91.1 96.71 92.47 95.73 93.06C94.61 93.73 93.44 94.26 92.24 94.77C90.48 95.51 88.58 95.53 86.68 95.73C85.64 95.84 84.7 96.07 83.68 96.33C83.52 96.37 83.38 96.45 83.27 96.54C82.98 96.74 82.79 97.08 82.9 97.53C83.79 101.17 86.89 104.11 90.83 103.24C94.16 102.5 97.01 100.1 98.83 97.29C99.26 96.63 99.63 95.93 99.97 95.21C100.3 94.52 100.84 93.54 100.86 92.76C100.9 91.75 99.82 91.07 98.91 91.08Z" fill="black"/>
<path d="M93.3401 97.25C91.5201 99.51 91.7101 101.73 92.0101 102.91C94.8301 101.93 97.2301 99.77 98.8301 97.3C99.2501 96.65 99.6201 95.96 99.9501 95.26C98.2401 95.01 95.1801 94.97 93.3401 97.25Z" fill="#EA525F"/>
<path d="M76.36 68.14C77.87 66.47 80.86 65.67 82.12 68.02C83.12 69.88 86.04 68.37 85.04 66.5C82.81 62.36 77.15 62.39 74.14 65.72C72.73 67.27 74.93 69.71 76.36 68.14Z" fill="black"/>
<path d="M105.62 69.89C104.84 67.76 102.89 66.21 100.75 65.59C98.0801 64.82 95.5201 65.7 93.4501 67.42C91.8201 68.77 94.0401 71.2 95.6701 69.85C98.0201 67.9 101.59 68.36 102.71 71.41C103.42 73.4 106.34 71.86 105.62 69.89Z" fill="black"/>
<path d="M68.6501 71.08C67.9801 78.46 67.7701 85.96 68.3401 93.35C68.5201 95.73 68.9001 97.88 69.7401 100.11C72.0501 106.23 76.9401 110.9 83.5201 111.97C89.9101 113 96.4501 110.68 102.12 107.94C104.02 107.02 102.51 104.1 100.6 105.02C93.3801 108.51 83.2601 111.59 76.7201 105.1C73.5601 101.97 72.0601 98.1 71.6601 93.84C70.9501 86.38 71.2601 78.71 71.9401 71.26C72.1201 69.16 68.8401 68.98 68.6501 71.08Z" fill="black"/>
<path d="M75.76 71.61C75.76 71.61 72.92 72.86 73.52 75.3C73.98 77.16 75.15 76.98 76.78 76.38C78.38 75.8 79.28 75.84 80.37 76.5C81.46 77.16 83.19 77.2 83.58 75.39C83.97 73.58 80.89 69.2 75.76 71.61Z" fill="white"/>
<path d="M94.7001 73.18C94.7001 73.18 91.9701 74.01 92.3201 76.48C92.6801 78.96 95.5101 77.52 96.8601 77.7C98.2101 77.89 99.5401 79.92 101.37 79.58C103.2 79.24 104.3 78 102.86 75.46C101.42 72.93 98.6401 71.92 94.7001 73.18Z" fill="white"/>
<path d="M80.6301 75.84C78.2001 76.85 76.6201 73.01 79.0601 71.99C81.4901 70.98 83.0701 74.82 80.6301 75.84Z" fill="black"/>
<path d="M99.6001 77.52C97.1701 78.53 95.5901 74.69 98.0301 73.67C100.46 72.67 102.04 76.51 99.6001 77.52Z" fill="black"/>
<path d="M61.2701 140.13C59.6601 147.74 59.0801 155.51 58.9701 163.28C58.9401 165.87 58.9501 168.47 59.0001 171.06C59.0101 171.55 59.3401 172 59.8601 172.02C60.3201 172.05 60.8301 171.66 60.8201 171.16C60.6701 162.95 60.8101 154.69 61.9701 146.55C62.2501 144.59 62.5901 142.64 63.0001 140.7C63.1001 140.22 62.9201 139.71 62.4201 139.55C61.9901 139.4 61.3701 139.64 61.2701 140.13Z" fill="#3A3A3A"/>
<path d="M59.2701 195.27L72.7901 167.5C76.0701 166.82 78.4901 164.87 79.4401 161.87C80.3901 158.87 85.4901 156.61 88.4001 156.07C91.3101 155.53 93.0301 151.26 89.9401 150.22C86.8501 149.18 83.6401 150.49 81.7501 151.52C79.8601 152.55 78.0801 151.49 78.0301 149.31C77.9701 147.13 78.0701 137.44 78.0901 133.77C78.1201 130.1 76.8901 128.55 74.7001 128.7C72.5101 128.84 72.5601 132.69 72.3601 138C72.1601 143.31 72.5101 145.95 71.8701 145.92C71.2301 145.89 71.3201 142.66 71.3201 136.29C71.3201 129.92 71.2701 125.99 69.2001 125.52C67.1301 125.06 65.2401 126.18 65.3601 131.95C65.4801 137.72 65.9001 144.38 65.0801 145.03C64.2601 145.68 63.4501 139.7 63.3401 135.24C63.2301 130.78 62.5901 129.7 61.1201 129.53C59.6401 129.36 57.6201 131.35 57.8201 137.21C57.8201 137.21 57.2901 135.78 55.5401 135.78C53.7901 135.77 52.9201 138.95 53.4401 145.44C53.9601 151.93 55.5001 152.54 55.5601 156.12C55.6301 159.7 55.8301 162.83 58.1001 164.7L44.4401 180.3L59.2701 195.27Z" fill="#8C4520"/>
<path d="M69.5001 159.79C69.7901 158.24 70.6801 156.91 71.8201 155.84C73.0201 154.72 74.5601 153.98 76.2301 154.08C77.1001 154.13 77.1001 152.77 76.2301 152.72C74.2501 152.6 72.3901 153.48 70.9501 154.79C69.6101 156 68.5201 157.62 68.1901 159.42C68.1201 159.78 68.2901 160.15 68.6601 160.25C69.0001 160.35 69.4301 160.15 69.5001 159.79Z" fill="black"/>
<path d="M63.22 153.21C65.7 152.33 68.31 152 70.93 152.23C71.8 152.3 71.79 150.95 70.93 150.87C68.2 150.64 65.44 150.99 62.86 151.9C62.04 152.19 62.39 153.5 63.22 153.21Z" fill="black"/>
<path d="M71.1301 168.16C72.9901 168.24 74.8601 167.74 76.4201 166.72C76.7301 166.52 76.8501 166.12 76.6601 165.79C76.4801 165.48 76.0401 165.35 75.7301 165.55C74.3501 166.45 72.7601 166.88 71.1201 166.8C70.7501 166.78 70.4401 167.12 70.4401 167.48C70.4501 167.87 70.7601 168.15 71.1301 168.16Z" fill="black"/>
<path d="M57.1001 137.81C57.0701 140.69 57.3201 143.63 58.6501 146.23C59.0501 147.01 60.2201 146.32 59.8201 145.55C58.6001 143.17 58.4301 140.44 58.4601 137.81C58.4701 136.93 57.1101 136.93 57.1001 137.81Z" fill="black"/>
<path fill-rule="evenodd" clip-rule="evenodd" d="M53.93 181.52C53.93 181.52 51.1 181.69 47.94 181.38C44.78 181.07 41.1 178.26 37.87 179.51C34.64 180.76 34.1 184.72 40.06 186.34C46.02 187.95 46.63 189.33 48.07 193.45C49.51 197.57 50.21 200.53 54.89 198.64C54.89 198.64 56.9 200.98 59.67 200.07C62.43 199.16 62.89 198.09 62.89 198.09C62.89 198.09 67.23 199.66 70.19 195.98C73.15 192.3 74.6 187.59 76.28 182.73C77.96 177.86 72.17 175.72 70.4 179.4C70.4 179.4 70.76 176.5 67.94 175.52C65.11 174.54 63.85 176.64 62.79 179.27C61.73 181.9 60.6 184.56 60.6 184.56C60.6 184.56 60.67 182.23 61.08 180.23C61.49 178.23 58.22 175.5 56.24 177.49C54.26 179.48 53.93 181.52 53.93 181.52Z" fill="#A85630"/>
<path fill-rule="evenodd" clip-rule="evenodd" d="M51.5699 189.15C53.2099 186.62 53.8899 183.25 55.1099 180.49C55.4499 179.72 55.9799 178.37 56.7399 177.93C58.2799 177.05 59.5699 177.77 60.0499 179.07C60.6199 180.63 59.7499 182.89 59.3199 184.4C59.0699 185.28 60.4699 185.5 60.7199 184.63C61.4799 181.95 62.7299 176.39 58.3099 176.09C56.4399 175.96 55.1299 177.26 54.3099 178.8C52.7599 181.75 52.2499 185.48 50.4599 188.26C49.9699 189.02 51.0699 189.91 51.5699 189.15Z" fill="black"/>
<path fill-rule="evenodd" clip-rule="evenodd" d="M55.99 196.52C57.58 192.63 59.21 188.75 60.67 184.8C60.98 183.95 59.69 183.37 59.37 184.23C57.92 188.18 56.29 192.05 54.69 195.95C54.35 196.79 55.65 197.37 55.99 196.52Z" fill="black"/>
<path fill-rule="evenodd" clip-rule="evenodd" d="M45.93 191.53C46.94 194.2 48.28 197.66 51.07 198.96C53.62 200.14 55.54 197.63 56.45 195.56C56.82 194.72 55.52 194.15 55.15 194.99C54.82 195.75 54.38 196.56 53.77 197.14C52.35 198.49 50.85 197.33 49.84 196.1C48.62 194.62 47.92 192.8 47.25 191.03C46.93 190.17 45.61 190.68 45.93 191.53Z" fill="black"/>
<path fill-rule="evenodd" clip-rule="evenodd" d="M56.06 195.93C56.91 195.6 56.4 194.28 55.55 194.61C54.7 194.94 55.21 196.26 56.06 195.93Z" fill="black"/>
<path fill-rule="evenodd" clip-rule="evenodd" d="M45.29 181.51C48.12 181.78 50.95 182.08 53.78 182.4C54.69 182.5 54.91 181.1 54.01 181C51.18 180.68 48.35 180.38 45.52 180.11C44.61 180.02 44.38 181.42 45.29 181.51Z" fill="black"/>
<path fill-rule="evenodd" clip-rule="evenodd" d="M74.65 184.37C74.65 184.37 76.49 179.57 79.57 182.76C82.64 185.95 78.1 195.44 76.6 196.93C75.11 198.43 70.8 198.23 70.19 195.97C69.58 193.71 74.65 184.37 74.65 184.37Z" fill="#A85630"/>
<path d="M69.66 197.66C73.64 194.49 74.91 188.94 76.78 184.46C76.95 184.05 76.59 183.56 76.21 183.45C75.74 183.31 75.37 183.62 75.2 184.02C74.27 186.24 73.53 188.53 72.53 190.72C71.56 192.86 70.36 195.01 68.5 196.49C67.67 197.15 68.84 198.31 69.66 197.66Z" fill="black"/>
<path d="M68.87 181.04C67.92 184.09 66.53 187.02 65.23 189.93C64.63 191.28 64.02 192.63 63.43 193.98C62.67 195.74 61.9 197.91 59.91 198.57C58.91 198.9 59.34 200.49 60.35 200.16C62.46 199.47 63.63 197.66 64.47 195.71C65.12 194.21 65.78 192.71 66.44 191.22C67.86 188.03 69.41 184.82 70.45 181.48C70.78 180.46 69.19 180.03 68.87 181.04Z" fill="black"/>
<path d="M40.85 170.77L44.4 169.56C45.08 169.33 45.75 170.01 45.59 170.77L44.81 174.36C44.57 175.68 43.88 175.35 43.35 174.9L40.58 172.52C39.99 172.02 40.15 171.01 40.85 170.77Z" fill="white"/>
<path d="M43.16 170.58C42.01 167.03 42.18 163.09 43.79 159.7C45.1 156.95 47.2 154.3 50.08 153.1C50.66 152.86 50.41 151.89 49.81 152.14C42.85 155.04 39.98 164.02 42.2 170.84C42.39 171.45 43.35 171.19 43.16 170.58Z" fill="white"/>
</g>
<defs>
<clipPath id="clip0_243_686">
<rect width="200" height="200" fill="white"/>
</clipPath>
</defs>
</svg>
