<svg width="200" height="200" viewBox="0 0 200 200" fill="none" xmlns="http://www.w3.org/2000/svg">
<g clip-path="url(#clip0_243_885)">
<path d="M16.34 121.23C15.66 115.33 14.7 106.36 14.63 101.9C14.52 94.91 13.35 78.41 14.51 75.77C15.58 73.34 16.56 73.04 16.56 73.04C16.56 73.04 16.36 70.32 16.96 69C17.91 66.91 19.52 66.97 19.52 66.97C19.52 66.97 19.13 64.78 21.15 63.6C23.17 62.42 24.54 63.64 25.28 64.22C26.4 65.1 27.18 67.53 27.18 67.53C27.18 67.53 28.49 65.76 30.7 66.86C36.77 69.89 38.71 92.96 38.71 92.96C38.71 92.96 45.97 96.27 46.11 103.36C46.29 113.14 37.9 118.39 37.9 118.39C37.9 118.39 16.73 124.57 16.34 121.23Z" fill="#B86C51"/>
<path d="M35.6201 100.92C31.7201 103.73 29.7101 108.55 30.4101 113.29C30.4801 113.73 31.0301 113.97 31.4201 113.86C31.8901 113.74 32.0601 113.29 31.9901 112.85C31.4101 108.9 33.2101 104.67 36.4501 102.33C37.3001 101.73 36.4801 100.3 35.6201 100.92Z" fill="black"/>
<path d="M22.3 90.33C24.34 91.24 24.93 93.85 24.97 95.88C25.01 98.19 24.28 100.43 22.92 102.29C22.3 103.14 23.72 103.97 24.34 103.12C25.94 100.93 26.75 98.17 26.6 95.46C26.46 93 25.57 90 23.13 88.91C22.17 88.48 21.34 89.89 22.3 90.33Z" fill="black"/>
<path d="M39.39 92.74C38.22 91.87 36.79 91.11 35.31 90.99C34.15 90.9 32.94 91.27 32.03 91.98C29.78 93.74 30.34 97.25 32.06 99.16C33.18 100.41 34.66 101.42 36.06 102.31C36.95 102.88 37.78 101.46 36.89 100.89C35.59 100.06 34.25 99.14 33.22 97.99C32.38 97.05 31.9 95.54 32.34 94.31C32.7 93.31 33.52 92.75 34.58 92.62C36.02 92.45 37.45 93.32 38.56 94.14C38.92 94.41 39.48 94.2 39.68 93.85C39.93 93.44 39.74 93 39.39 92.74Z" fill="black"/>
<path d="M16.9001 74.61C18.2501 74.27 19.2401 75.54 19.6201 76.67C20.0601 77.97 20.1401 79.4 20.3301 80.75C20.7501 83.82 21.1801 86.89 21.6001 89.96C21.7401 91 23.3301 90.56 23.1801 89.52C22.6701 85.83 22.1701 82.15 21.6501 78.46C21.4401 76.99 21.1501 75.44 20.1501 74.29C19.2301 73.23 17.8401 72.68 16.4601 73.02C15.4401 73.28 15.8701 74.87 16.9001 74.61Z" fill="black"/>
<path d="M20.0901 68.53C23.0701 69.23 23.8401 73.45 24.3401 75.97C25.0301 79.45 25.4001 83.01 25.8801 86.53C26.0201 87.57 27.6101 87.13 27.4601 86.09C26.9201 82.14 26.5701 78.09 25.6301 74.21C24.9501 71.38 23.7401 67.7 20.5201 66.95C19.5001 66.7 19.0601 68.29 20.0901 68.53Z" fill="black"/>
<path d="M27.35 67.52C29.37 73.63 30.45 79.99 30.55 86.42C30.57 87.48 32.21 87.48 32.19 86.42C32.08 79.85 30.99 73.32 28.93 67.08C28.6 66.09 27.02 66.51 27.35 67.52Z" fill="black"/>
<path d="M23.8101 89.69C26.6901 88.09 30.0801 87.46 33.3301 87.99C33.7701 88.06 34.2101 87.88 34.3401 87.42C34.4501 87.03 34.2101 86.48 33.7701 86.41C30.0601 85.81 26.2701 86.45 22.9801 88.28C22.0601 88.79 22.8901 90.21 23.8101 89.69Z" fill="black"/>
<path d="M34.33 120.5C35.69 120.45 37.01 120.09 38.21 119.44C38.59 119.23 38.74 118.68 38.5 118.32C38.25 117.94 37.78 117.81 37.38 118.03C37.25 118.1 37.13 118.16 37 118.23C36.93 118.27 36.85 118.3 36.78 118.33C36.61 118.41 36.91 118.28 36.75 118.34C36.47 118.45 36.19 118.55 35.91 118.62C35.63 118.7 35.35 118.76 35.07 118.8C35 118.8 34.79 118.86 35 118.8C34.93 118.82 34.85 118.82 34.79 118.82C34.64 118.83 34.48 118.84 34.33 118.85C33.9 118.87 33.49 119.22 33.51 119.67C33.52 120.11 33.87 120.52 34.33 120.5Z" fill="black"/>
<path d="M168.84 142.94C154.85 120.36 125.24 117.1 103.13 117.1C72.22 117.11 55.22 125.81 40.42 146.7C32.66 157.66 36.98 181.81 40.11 200.3H186.23C183.34 182.68 177.92 157.6 168.84 142.94Z" fill="#EF9AC2"/>
<path d="M148.8 168.15C149.7 172.87 150.75 177.57 151.58 182.31C152.54 187.79 153.08 193.34 153.54 198.88C153.7 200.81 156.73 200.83 156.57 198.88C156.09 193.15 155.52 187.43 154.54 181.77C153.71 176.94 152.64 172.16 151.72 167.35C151.36 165.43 148.44 166.24 148.8 168.15Z" fill="#E66FA9"/>
<path d="M105.66 139.81C105.79 139 106.75 138.64 107.37 139.18C110.08 141.55 116.1 147.44 117.93 154.29C119.5 160.2 119.11 164.06 118.67 165.99C118.5 166.74 117.62 167.06 117.02 166.59C114.68 164.77 109.5 160.31 107.52 155.07C104.88 148.11 105.23 142.51 105.66 139.81Z" fill="#901E5E"/>
<path d="M123.25 104.63C123.25 104.63 126.31 111.44 133.18 109.65C138.53 108.25 137.37 100.88 137.37 100.88C137.37 100.88 143.77 101.88 145.91 95.56C147.46 91 143.63 87.86 143.63 87.86C143.63 87.86 149.64 85.95 150.21 78.13C150.82 69.84 144.51 67.47 144.51 67.47C144.51 67.47 147.89 61.6 144.26 58.34C139.86 54.38 134.67 56.97 134.67 56.97C134.67 56.97 133.98 47.74 129.29 46.26C120.86 43.6 116.96 49.53 116.96 49.53C116.96 49.53 118.2 44.5 111.99 41.26C106.84 38.57 102.21 43.59 102.21 43.59C102.21 43.59 100.49 36.98 92.9199 38.15C87.2899 39.02 87.1499 46 87.1499 46C87.1499 46 81.6099 43.39 76.5699 47.2C69.4199 52.61 72.1799 61.68 72.1799 61.68C72.1799 61.68 65.7199 60.54 63.4699 66.48C60.9399 73.15 66.4099 76.08 66.4099 76.08C66.4099 76.08 62.9799 82.03 69.1599 84.63C71.9399 85.78 123.25 104.63 123.25 104.63Z" fill="black"/>
<path d="M136.72 85.92C136.72 85.92 138.25 74.1 131.47 64.26C124.27 53.78 112.87 50 96.3098 52.87C79.7498 55.73 73.3298 68.01 70.8198 78.9L116.4 84.81L114.04 104.17L126.7 105.95L136.72 85.92Z" fill="black"/>
<path d="M126.6 91.26C126.6 91.26 128 83.76 132.56 82.72C137.12 81.68 138.89 84.7 138.46 89.99C138.02 95.28 134.34 100.56 128.88 99.34C128.88 99.34 125.51 110.73 126.16 117.53C126.16 117.53 119.52 119.26 114.72 123.6C105.41 132.04 105.05 136.95 105.05 136.95C104.23 132.25 99.1998 130.73 99.1998 130.73C99.1998 130.73 79.4298 131.5 72.2698 120.79C62.3798 105.99 71.7598 78.92 71.7598 78.92C71.7598 78.92 72.5298 76.42 74.2198 73.66C74.2198 73.66 77.3898 73.77 79.9798 72.01C83.5098 69.61 83.5898 66.44 83.5898 66.44C83.5898 66.44 85.0698 70.47 91.7698 70.1C95.4698 69.9 97.9998 68.64 100.45 64.72C100.45 64.72 100.71 69.26 105.93 71.55C110.36 73.5 114.64 70.96 114.64 70.96C110.68 74.86 114.92 84.49 120.79 83.32C120.79 83.32 118.88 92.36 122.09 93.88C123.9 94.75 125.97 93.37 126.6 91.26Z" fill="#DC7B6A"/>
<path d="M103.96 127.79C98.8399 129.05 93.2399 128.98 88.0999 127.92C82.7799 126.83 78.3499 124.18 74.8999 119.95C70.9799 115.16 69.0699 108.99 68.8699 102.85C68.6699 96.69 69.9999 90.5 71.4299 84.55C72.6199 79.57 74.0699 74.31 76.8599 69.96C77.8599 68.39 75.3699 66.95 74.3699 68.51C71.6199 72.81 70.1099 77.98 68.8699 82.89C67.3099 89.08 65.9099 95.57 65.9699 101.97C66.0699 114.25 72.9799 126.9 85.4199 130.25C91.5899 131.92 98.5099 132.1 104.73 130.57C106.53 130.12 105.77 127.34 103.96 127.79Z" fill="black"/>
<path d="M96.9199 123.92C93.7299 125.14 90.1199 125.11 86.9999 123.7C86.5699 123.51 86.0499 123.58 85.7999 124.02C85.5799 124.4 85.6799 125.03 86.1199 125.22C89.6699 126.82 93.7499 127.01 97.3999 125.61C97.8399 125.44 98.1499 125.02 98.0099 124.53C97.8799 124.11 97.3599 123.75 96.9199 123.92Z" fill="black"/>
<path d="M134.05 86.98C132.56 87.12 131.42 88.13 130.85 89.48C130.2 91.03 130.45 92.73 130.71 94.33C130.78 94.8 131.37 95.06 131.79 94.94C132.29 94.8 132.48 94.33 132.4 93.86C132.21 92.68 132.01 91.41 132.42 90.26C132.43 90.25 132.48 90.1 132.46 90.16C132.43 90.22 132.5 90.07 132.51 90.06C132.57 89.94 132.63 89.82 132.71 89.71C132.74 89.66 132.78 89.61 132.81 89.56C132.83 89.53 132.89 89.45 132.83 89.52C132.91 89.42 133 89.32 133.1 89.23C133.14 89.19 133.19 89.15 133.23 89.11C133.34 89.01 133.14 89.17 133.26 89.09C133.37 89.01 133.48 88.95 133.59 88.89C133.63 88.86 133.7 88.83 133.61 88.87C133.66 88.85 133.72 88.83 133.77 88.81C133.84 88.79 133.91 88.77 133.98 88.76C134.01 88.75 134.2 88.73 134.05 88.75C134.52 88.7 134.93 88.38 134.93 87.87C134.93 87.42 134.53 86.93 134.05 86.98Z" fill="black"/>
<path d="M87.5299 98.49C87.5899 96.9 87.8299 95.31 88.0899 93.75C88.3499 92.18 88.6399 90.6 89.0999 89.08C89.4299 87.97 91.1899 88.39 90.8499 89.51C90.1299 91.92 89.7299 94.48 89.4499 96.98C89.3299 98.08 89.0299 99.65 89.6699 100.62C90.3699 101.68 92.0799 101.26 92.1699 99.97C92.2499 98.83 93.9699 98.73 93.9699 99.92C93.9699 100.46 94.3699 101.03 94.9699 101.02C95.5599 101.01 95.9399 100.41 95.9099 99.87C95.8499 98.71 97.6499 98.66 97.7099 99.82C97.7899 101.35 96.5699 102.77 95.0199 102.83C94.2699 102.86 93.5799 102.54 93.0599 102.04C92.3799 102.78 91.3799 103.2 90.2699 103C88.0699 102.6 87.4499 100.44 87.5299 98.49Z" fill="black"/>
<path d="M132.37 101.39C132.68 101.37 133 101.28 133.34 101.12C133.88 100.87 134.27 100.38 134.43 99.75C134.62 99.01 134.46 98.17 134.01 97.56C133.2 96.47 131.65 96.67 131.58 96.67C131.58 96.67 130.96 96.72 131.04 97.32C131.11 97.81 131.72 97.71 131.72 97.71C131.73 97.71 132.73 97.59 133.16 98.18C133.43 98.54 133.52 99.04 133.41 99.48C133.36 99.67 133.23 100 132.89 100.16C132.47 100.35 132.09 100.31 131.83 100.19C131.45 100.01 131.31 99.65 131.27 99.46C131.27 99.46 131.04 99.49 130.7 99.51C130.36 99.53 130.14 99.51 130.14 99.51C130.17 99.63 130.51 100.77 131.4 101.21C131.7 101.35 132.03 101.41 132.37 101.39Z" fill="#FBE574"/>
<path d="M100.12 82.17C100.4 81.98 100.7 81.81 101.01 81.66C101.09 81.62 101.16 81.59 101.24 81.55C101.08 81.62 101.08 81.62 101.24 81.55C101.4 81.5 101.56 81.44 101.72 81.39C101.88 81.34 102.05 81.3 102.21 81.27C102.29 81.25 102.38 81.24 102.46 81.22C102.27 81.24 102.27 81.24 102.44 81.22C102.78 81.2 103.1 81.2 103.44 81.22C103.61 81.24 103.59 81.24 103.38 81.21C103.46 81.22 103.53 81.24 103.6 81.25C103.75 81.28 103.9 81.32 104.04 81.36C104.11 81.38 104.6 81.54 104.22 81.41C104.36 81.46 104.5 81.54 104.63 81.61C104.76 81.68 104.89 81.77 105.02 81.85C105.15 81.95 105.14 81.94 104.99 81.82C105.05 81.87 105.11 81.92 105.16 81.97C105.27 82.07 105.38 82.18 105.48 82.29C105.53 82.35 105.58 82.4 105.63 82.46C105.51 82.31 105.5 82.3 105.6 82.43C106.04 83.07 106.93 83.43 107.65 82.97C108.29 82.56 108.66 81.61 108.19 80.92C107.13 79.38 105.52 78.48 103.68 78.25C101.92 78.03 100.08 78.61 98.6198 79.58C97.9698 80.01 97.6298 80.92 98.0798 81.63C98.4898 82.28 99.4198 82.63 100.12 82.17Z" fill="black"/>
<path d="M77.14 81.75C77.19 81.71 77.6 81.38 77.33 81.58C77.47 81.48 77.61 81.38 77.75 81.29C78.04 81.1 78.34 80.95 78.64 80.8C78.33 80.95 78.81 80.74 78.87 80.72C79.03 80.67 79.19 80.62 79.36 80.58C79.52 80.54 79.69 80.51 79.86 80.48C79.49 80.55 80.01 80.47 80.09 80.47C80.25 80.46 80.41 80.46 80.57 80.47C80.66 80.47 81.15 80.45 80.77 80.48C81.06 80.46 81.43 80.64 81.7 80.73C81.86 80.79 81.85 80.79 81.68 80.72C81.75 80.75 81.82 80.79 81.9 80.82C82.04 80.89 82.18 80.97 82.31 81.06C82.38 81.1 82.44 81.15 82.51 81.2C82.37 81.09 82.36 81.08 82.49 81.19C82.6 81.3 82.72 81.41 82.83 81.53C83.37 82.1 84.41 82.11 84.95 81.53C85.51 80.92 85.52 80.02 84.95 79.41C83.73 78.1 81.88 77.4 80.09 77.48C78.18 77.56 76.45 78.41 75.02 79.65C74.43 80.17 74.45 81.24 75.02 81.77C75.66 82.33 76.51 82.31 77.14 81.75Z" fill="black"/>
<path d="M100.52 131.31C102.07 132.11 104.5 133.83 105.05 136.97C105.05 136.97 105.41 132.05 114.72 123.62C119.51 119.28 126.16 117.55 126.16 117.55C126.04 116.28 126.06 114.85 126.17 113.36C127.94 113.52 129.62 114.25 130.65 116.03C134.33 120.8 122.45 145.88 104.89 146.92C99.5299 147.24 94.6999 142.08 91.3599 131.37L100.52 131.31Z" fill="#901E5E"/>
<path d="M125.61 120.6C122.31 126.32 118.22 131.52 113.45 136.08C112.43 137.06 113.98 138.6 115 137.63C119.9 132.95 124.12 127.58 127.5 121.71C128.2 120.49 126.31 119.38 125.61 120.6Z" fill="#78111B"/>
<path d="M106.03 140.77C106.74 140.36 107.63 140.87 107.6 141.69C107.48 145.28 106.75 153.68 102.6 159.44C99.03 164.4 95.8 166.55 94.02 167.43C93.33 167.77 92.53 167.3 92.51 166.54C92.43 163.58 92.6 156.75 95.4 151.89C99.13 145.43 103.68 142.15 106.03 140.77Z" fill="#901E5E"/>
<path d="M109.28 137.42C107.97 136.02 106.07 135.4 104.19 135.83C102.48 136.22 101.28 137.46 100.41 138.92C99.4098 140.61 98.7298 142.69 98.9198 144.67C99.0998 146.63 100.23 148.62 102.03 149.55C104.12 150.63 106.46 150.22 108.24 148.75C108.7 148.37 108.63 147.59 108.24 147.2C107.79 146.75 107.15 146.82 106.69 147.2C104.55 148.96 101.53 147.5 101.13 144.82C100.91 143.34 101.37 141.77 102.05 140.47C102.35 139.91 102.68 139.38 103.08 138.93C103.43 138.54 103.84 138.24 104.25 138.09C104.83 137.87 105.42 137.8 105.95 137.91C106.67 138.06 107.23 138.41 107.74 138.96C108.7 140 110.25 138.45 109.28 137.42Z" fill="#78111B"/>
<path d="M101.79 148.76C100.99 150.04 100.23 151.34 99.5 152.67C99.23 153.17 99.36 153.89 99.89 154.17C100.4 154.44 101.09 154.31 101.39 153.78C102.11 152.45 102.88 151.15 103.68 149.87C103.98 149.38 103.8 148.64 103.29 148.37C102.75 148.08 102.12 148.24 101.79 148.76Z" fill="#78111B"/>
<path d="M97.03 136.92C97.74 138.31 98.68 139.59 99.8 140.68C100.21 141.08 100.95 141.12 101.35 140.68C101.75 140.25 101.79 139.56 101.35 139.13C100.9 138.69 100.48 138.21 100.09 137.71C100.15 137.78 100.2 137.86 100.26 137.93C99.75 137.27 99.3 136.56 98.92 135.81C98.66 135.3 97.9 135.11 97.42 135.42C96.9 135.76 96.75 136.37 97.03 136.92Z" fill="#78111B"/>
<path d="M105.02 88.81C105.42 88.16 105.84 87.53 106.29 86.92C106.38 86.79 106.4 86.56 106.36 86.41C106.32 86.26 106.2 86.09 106.06 86.02C105.91 85.94 105.72 85.9 105.55 85.95C105.38 86.01 105.26 86.11 105.16 86.25C104.71 86.86 104.29 87.5 103.89 88.14C103.71 88.43 103.82 88.88 104.13 89.04C104.44 89.22 104.83 89.13 105.02 88.81Z" fill="black"/>
<path d="M106.52 90.08C106.99 89.73 107.48 89.4 107.99 89.11C108.13 89.03 108.25 88.88 108.29 88.72C108.33 88.56 108.31 88.35 108.22 88.21C108.03 87.91 107.64 87.79 107.32 87.97C106.81 88.27 106.32 88.59 105.85 88.94C105.71 89.05 105.6 89.15 105.55 89.33C105.51 89.49 105.53 89.7 105.62 89.84C105.71 89.98 105.85 90.1 106.01 90.14C106.18 90.19 106.38 90.19 106.52 90.08Z" fill="black"/>
<path d="M77.78 87.72C77.29 87.07 76.77 86.44 76.23 85.83C76 85.57 75.53 85.58 75.3 85.83C75.05 86.1 75.05 86.49 75.3 86.76C75.74 87.25 76.1601 87.76 76.5601 88.28C76.5301 88.24 76.49 88.19 76.46 88.15C76.52 88.23 76.58 88.31 76.64 88.39C76.75 88.53 76.85 88.64 77.03 88.69C77.19 88.73 77.4001 88.71 77.5401 88.62C77.6801 88.53 77.8 88.39 77.84 88.23C77.88 88.06 77.88 87.86 77.78 87.72Z" fill="black"/>
<path d="M75.92 88.68C75.42 88.37 74.89 88.1 74.36 87.86C74.19 87.78 74.03 87.74 73.85 87.79C73.7 87.83 73.53 87.95 73.46 88.09C73.38 88.24 73.34 88.43 73.39 88.6C73.44 88.75 73.54 88.92 73.69 88.99C74.23 89.23 74.75 89.51 75.25 89.81C75.54 89.99 75.99 89.88 76.15 89.57C76.32 89.26 76.23 88.87 75.92 88.68Z" fill="black"/>
<path d="M107 89.77C105.7 88.38 103.89 87.54 102 87.43C100.05 87.32 98.13 88.08 96.69 89.37C95.82 90.15 97.11 91.43 97.97 90.65C100.23 88.62 103.67 88.85 105.71 91.04C106.51 91.91 107.79 90.63 107 89.77Z" fill="black"/>
<path d="M84.81 88.32C83.42 87.11 81.59 86.4 79.73 86.53C77.92 86.65 76.21 87.46 74.98 88.79C74.19 89.65 75.47 90.94 76.26 90.07C78.16 88.01 81.38 87.73 83.53 89.6C83.9 89.92 84.45 89.96 84.81 89.6C85.14 89.27 85.18 88.64 84.81 88.32Z" fill="black"/>
<path d="M96.92 111.08C99.35 111.43 101.83 111.34 104.06 110.19C106.26 109.06 107.92 107.04 108.74 104.72C109.13 103.61 107.37 103.14 106.99 104.24C106.33 106.13 104.92 107.71 103.15 108.62C101.4 109.52 99.33 109.6 97.41 109.32C96.93 109.25 96.43 109.44 96.29 109.95C96.17 110.39 96.43 111.01 96.92 111.08Z" fill="black"/>
<path d="M105.51 101.47C105.66 102.8 106.43 103.94 107.6 104.6C108.87 105.32 110.38 105.35 111.77 105.05C112.23 104.95 112.55 104.38 112.4 103.93C112.24 103.44 111.78 103.19 111.28 103.3C111.15 103.33 111.02 103.35 110.89 103.38C110.83 103.39 110.69 103.4 110.82 103.39C110.76 103.4 110.7 103.4 110.64 103.41C110.36 103.43 110.08 103.44 109.8 103.42C109.73 103.41 109.65 103.41 109.58 103.4C109.68 103.41 109.63 103.41 109.56 103.39C109.43 103.37 109.3 103.34 109.17 103.3C109.04 103.27 108.92 103.22 108.79 103.18C108.53 103.09 108.85 103.21 108.73 103.15C108.67 103.12 108.62 103.1 108.56 103.07C108.46 103.02 108.36 102.96 108.27 102.9C108.23 102.87 108.19 102.84 108.15 102.81C108.06 102.75 108.25 102.9 108.13 102.79C107.96 102.64 107.8 102.49 107.66 102.31C107.78 102.46 107.67 102.32 107.65 102.28C107.62 102.23 107.58 102.18 107.55 102.12C107.53 102.08 107.5 102.03 107.48 101.99C107.47 101.97 107.38 101.78 107.43 101.9C107.48 102 107.42 101.86 107.41 101.84C107.39 101.78 107.37 101.72 107.35 101.66C107.34 101.61 107.32 101.57 107.31 101.52C107.3 101.48 107.27 101.24 107.3 101.47C107.25 101 106.92 100.54 106.39 100.56C105.97 100.58 105.45 100.97 105.51 101.47Z" fill="black"/>
<path d="M101.66 115.03C103.79 115.2 106 114.3 107.41 112.69C107.72 112.33 107.79 111.75 107.41 111.41C107.07 111.1 106.46 111.03 106.13 111.41C105.98 111.58 105.83 111.74 105.66 111.89C105.57 111.97 105.48 112.05 105.39 112.12C105.33 112.17 105.31 112.18 105.39 112.12C105.35 112.15 105.3 112.18 105.26 112.21C105.08 112.34 104.89 112.46 104.69 112.57C104.59 112.63 104.48 112.68 104.37 112.73C104.32 112.75 104.27 112.77 104.23 112.8C104.07 112.87 104.29 112.78 104.19 112.82C103.76 112.97 103.34 113.11 102.89 113.18C102.87 113.18 102.7 113.21 102.81 113.19C102.92 113.18 102.75 113.19 102.73 113.2C102.61 113.21 102.49 113.22 102.37 113.22C102.13 113.23 101.89 113.22 101.66 113.2C101.19 113.16 100.73 113.64 100.75 114.11C100.77 114.65 101.15 114.99 101.66 115.03Z" fill="black"/>
<path d="M53.7 200.3C52.58 184.96 37.93 137.04 37.93 137.04C37.93 137.04 39.39 136.6 42.53 133.23C45.39 130.16 47.55 122.26 47.55 122.26C47.55 122.26 53.09 120.41 49.35 112.77C47.2 108.37 46.72 105.85 44.29 104.75C41.86 103.65 33.73 102.58 31.77 104.49C29.81 106.4 30.16 107.03 28.7 107.24C27.24 107.46 24.31 108.34 23.52 109.87C22.72 111.41 22.15 112.08 20.62 113.01C19.09 113.94 15.62 117.16 15.49 122.04C15.36 126.92 15.07 132.83 18.11 136.35L17 153.66C17 153.66 17.38 182.57 20.69 200.31L53.7 200.3Z" fill="#DA7B6A"/>
<path d="M20.23 125.06C20.89 125.52 21.68 125.83 22.47 125.95C22.7 125.98 22.91 125.99 23.12 125.87C23.29 125.77 23.46 125.57 23.51 125.37C23.56 125.15 23.55 124.91 23.43 124.72C23.32 124.55 23.14 124.37 22.93 124.33C22.53 124.27 22.14 124.16 21.76 124.01C21.83 124.04 21.89 124.07 21.96 124.09C21.65 123.96 21.36 123.8 21.08 123.61C20.91 123.49 20.63 123.47 20.43 123.53C20.24 123.58 20.02 123.73 19.93 123.92C19.83 124.11 19.78 124.35 19.85 124.57C19.91 124.78 20.04 124.93 20.23 125.06Z" fill="black"/>
<path d="M22.9301 123.57C22.6001 124.42 22.3101 125.3 22.1901 126.21C22.1001 126.91 22.1101 127.61 22.2501 128.3C22.3801 128.94 22.6301 129.56 22.8201 130.18C22.9501 130.61 23.4101 130.89 23.8501 130.77C24.2801 130.65 24.5701 130.17 24.4401 129.74C24.2601 129.15 24.0301 128.57 23.9001 127.97C23.8801 127.89 23.8701 127.81 23.8501 127.73C23.8401 127.67 23.8301 127.62 23.8401 127.71C23.8201 127.56 23.8101 127.42 23.8101 127.27C23.8001 127.1 23.8101 126.93 23.8201 126.76C23.8301 126.66 23.8301 126.56 23.8401 126.46C23.8501 126.3 23.8201 126.53 23.8501 126.43C24.0101 125.61 24.2601 124.8 24.5601 124.02C24.7201 123.6 24.3801 123.1 23.9701 122.99C23.4901 122.85 23.0901 123.15 22.9301 123.57Z" fill="black"/>
<path d="M23.0399 126.56C20.3499 125.84 18.1099 128.56 19.1399 131.08C19.6599 132.36 20.7599 133.04 22.0399 133.41C23.5699 133.85 25.2299 134.23 26.8299 134.01C29.7199 133.61 31.3099 130.89 31.4699 128.17C31.5699 126.44 31.0899 124.7 30.3799 123.14C29.1899 120.53 27.1099 118.48 24.8099 116.84C23.9299 116.21 23.0899 117.67 23.9599 118.29C26.5199 120.12 28.6699 122.55 29.4999 125.64C29.9699 127.38 29.9699 129.42 28.8899 130.95C27.4599 132.97 24.8999 132.43 22.8599 131.9C21.7599 131.62 20.6399 131.14 20.5499 129.85C20.4699 128.74 21.5499 127.91 22.5999 128.2C23.6399 128.46 24.0899 126.84 23.0399 126.56Z" fill="black"/>
<path d="M29.62 131.65C30.84 132.22 32.13 132.43 33.45 132.14C34.57 131.9 35.29 131.3 35.96 130.4C37.66 128.13 37.61 125.15 37.3 122.44C36.9 118.92 35.55 115.41 32.85 113.01C32.12 112.36 31.32 111.78 30.41 111.42C29.41 111.02 28.97 112.64 29.96 113.04C29.78 112.97 30.04 113.08 30.18 113.16C30.34 113.25 30.49 113.34 30.65 113.44C31.08 113.71 31.47 114.03 31.84 114.38C33 115.46 33.89 116.8 34.52 118.25C35.49 120.5 35.8 122.98 35.74 125.41C35.7 127.12 35.42 128.54 34.25 129.86C33.34 130.89 31.6 130.74 30.46 130.21C29.5 129.75 28.64 131.19 29.62 131.65Z" fill="black"/>
<path d="M36.2901 128.64C38.3501 128.8 40.4001 127.72 41.7901 126.25C43.1801 124.78 43.7901 122.52 43.8701 120.54C44.0401 116.3 41.8201 111.84 38.5101 109.24C37.6701 108.58 36.4701 109.76 37.3201 110.43C40.1101 112.62 42.0701 116.18 42.2001 119.75C42.3201 123.15 40.2601 127.27 36.3001 126.95C35.2101 126.88 35.2201 128.56 36.2901 128.64Z" fill="black"/>
<path d="M44.9401 116.69C44.5101 116.44 44.1001 116.16 43.7001 115.85C43.7601 115.89 43.8101 115.94 43.8701 115.98C43.6301 115.79 43.3901 115.59 43.1601 115.39C42.9901 115.24 42.7901 115.14 42.5701 115.14C42.3601 115.14 42.1201 115.23 41.9801 115.39C41.8301 115.55 41.7201 115.76 41.7301 115.98C41.7401 116.2 41.8101 116.42 41.9801 116.57C42.6301 117.16 43.3401 117.68 44.1001 118.13C44.2901 118.24 44.5401 118.27 44.7501 118.21C44.9401 118.16 45.1601 118.01 45.2501 117.82C45.4501 117.43 45.3401 116.93 44.9401 116.69Z" fill="black"/>
<path d="M42.3401 123.77C44.3401 124.19 46.7701 124.5 48.5401 123.22C49.0701 122.84 49.4901 122.37 49.9001 121.86C50.1901 121.49 50.5001 121.13 50.7201 120.71C51.0201 120.13 51.2101 119.51 51.3001 118.86C51.4501 117.76 51.3801 116.61 51.0801 115.53C50.7901 114.49 49.1701 114.93 49.4601 115.98C49.4901 116.11 49.5301 116.23 49.5501 116.36C49.5701 116.45 49.5901 116.54 49.6001 116.64C49.6101 116.68 49.6501 116.96 49.6301 116.81C49.6901 117.28 49.7101 117.76 49.6801 118.23C49.6301 119.07 49.3301 119.88 48.7801 120.58C48.4501 121 48.1101 121.39 47.7101 121.75C47.5701 121.88 47.8001 121.7 47.6801 121.78C47.6201 121.82 47.5701 121.86 47.5101 121.9C47.3801 121.98 47.2501 122.06 47.1101 122.13C47.0701 122.15 47.0301 122.17 46.9901 122.18C47.0201 122.17 47.1501 122.12 47.0101 122.17C46.9301 122.2 46.8601 122.23 46.7801 122.25C46.6001 122.31 46.4201 122.35 46.2401 122.39C46.1901 122.4 46.1301 122.41 46.0801 122.42C45.9301 122.44 46.1101 122.42 46.0101 122.43C45.8901 122.44 45.7701 122.45 45.6501 122.46C45.3701 122.48 45.0801 122.47 44.8001 122.46C44.1101 122.43 43.4401 122.31 42.7701 122.17C42.3301 122.08 41.8601 122.3 41.7401 122.76C41.6401 123.16 41.9001 123.68 42.3401 123.77Z" fill="black"/>
<path d="M15.6799 150.99L40.4099 146.71C40.4099 146.71 54.2599 180.23 56.3599 200.31H20.1299C16.9399 182.14 15.6799 150.99 15.6799 150.99Z" fill="#EF9AC2"/>
<path d="M41.1701 144.92C32.9501 146.22 24.7201 147.51 16.5001 148.84C14.6501 149.14 15.4401 151.95 17.2801 151.65C25.5001 150.32 33.7201 149.03 41.9501 147.73C43.7901 147.44 43.0101 144.63 41.1701 144.92Z" fill="#E66FA9"/>
<path d="M59.13 198.27C58.96 195.79 58.18 193.32 57.5 190.95C56.39 187.07 55.16 183.24 53.9 179.41C51.18 171.13 48.3 162.9 45.45 154.66C44.52 151.96 43.54 149.27 42.72 146.53C42.16 144.67 39.24 145.46 39.8 147.33C41.65 153.49 43.95 159.53 46.04 165.6C48.85 173.76 51.68 181.92 54.13 190.19C54.63 191.88 55.11 193.57 55.53 195.28C55.68 195.89 55.82 196.51 55.94 197.13C55.99 197.4 56.04 197.67 56.08 197.93C56.01 197.46 56.1 198.14 56.11 198.27C56.23 200.2 59.26 200.22 59.13 198.27Z" fill="#E66FA9"/>
<path d="M49.6 74.9C52.13 76.97 54.5 78.89 55.95 81.91C57.1 84.3 57.69 86.95 58.14 89.54C58.66 92.6 58.91 95.59 58.61 98.69C58.3 101.88 57.71 105.35 56.14 108.19C55.51 109.32 57.25 110.34 57.88 109.21C59.33 106.59 59.99 103.54 60.4 100.6C60.84 97.46 60.85 94.43 60.43 91.3C59.76 86.34 58.66 81.07 55.25 77.21C54 75.8 52.49 74.67 51.03 73.49C50.02 72.66 48.59 74.08 49.6 74.9Z" fill="white"/>
<path d="M49.12 76.84C48.6 75.51 48.17 74.14 47.84 72.74C47.82 72.67 47.81 72.59 47.83 72.52C47.86 72.45 52.78 72.45 52.8 72.51C52.8 72.52 50.02 75.72 49.12 76.84Z" fill="white"/>
<path d="M50.4401 76.48C50.1801 75.8 49.9301 75.11 49.7201 74.41C49.6201 74.08 49.5201 73.74 49.4201 73.4C49.3701 73.22 49.3201 73.03 49.2701 72.85C49.2501 72.76 49.2201 72.67 49.2001 72.57C49.1901 72.54 49.1801 72.51 49.1801 72.48C49.1301 72.22 49.1201 72.36 49.1501 72.9C49.0301 73.1 48.9201 73.3 48.8001 73.5C48.8101 73.49 48.1501 73.86 48.2201 73.84C48.2901 73.82 47.7601 73.89 47.9001 73.88C47.9401 73.88 47.9801 73.87 48.0201 73.87C48.1501 73.86 48.2701 73.86 48.4001 73.86C48.7801 73.85 49.1601 73.85 49.5401 73.84C50.4001 73.83 51.2601 73.83 52.1301 73.85C52.2801 73.85 52.4301 73.86 52.5801 73.86C52.6301 73.86 52.6701 73.87 52.7201 73.87C52.7401 73.87 52.7501 73.87 52.7701 73.87C52.4601 73.88 52.0601 73.72 51.8401 73.48C51.8401 72.83 51.8401 72.19 51.8401 71.54C50.6001 72.97 49.3401 74.39 48.1601 75.86C47.9201 76.15 47.7601 76.44 47.7601 76.83C47.7601 77.17 47.9101 77.57 48.1601 77.8C48.6601 78.26 49.6201 78.4 50.1001 77.8C51.2901 76.33 52.5401 74.9 53.7801 73.48C54.2801 72.9 54.3101 72.12 53.7801 71.54C53.3401 71.06 52.6201 71.12 52.0201 71.11C51.4001 71.1 50.7801 71.1 50.1501 71.1C49.5701 71.1 48.9801 71.1 48.4001 71.12C48.2401 71.12 48.0801 71.13 47.9201 71.14C47.7701 71.15 47.6201 71.16 47.4801 71.2C46.6601 71.43 46.3701 72.26 46.5101 73.03C46.6401 73.74 46.8701 74.44 47.0801 75.13C47.3001 75.83 47.5401 76.52 47.8001 77.2C47.9301 77.54 48.1001 77.83 48.4301 78.02C48.7201 78.19 49.1601 78.26 49.4901 78.16C50.1301 77.95 50.7201 77.2 50.4401 76.48Z" fill="white"/>
<path d="M60.1901 108.5C59.1001 109.42 57.9401 110.27 56.7301 111.04C56.6701 111.08 56.6001 111.12 56.5301 111.12C56.4501 111.12 54.9901 106.64 55.0401 106.61C55.0401 106.6 58.8301 108.01 60.1901 108.5Z" fill="white"/>
<path d="M59.22 107.53C58.94 107.77 58.66 108 58.37 108.22C58.34 108.25 58.07 108.45 58.25 108.32C58.42 108.19 58.2 108.36 58.16 108.39C58.01 108.51 57.85 108.62 57.7 108.73C57.42 108.94 57.13 109.14 56.84 109.33C56.55 109.53 56.24 109.78 55.91 109.92C56.14 109.86 56.37 109.8 56.6 109.73C56.7 109.75 56.79 109.77 56.89 109.79C57.09 109.91 57.29 110.02 57.49 110.14C57.45 110.1 57.77 110.52 57.68 110.37C57.63 110.28 57.85 110.81 57.77 110.57C57.73 110.46 57.68 110.34 57.64 110.23C57.51 109.88 57.4 109.52 57.28 109.17C57.02 108.4 56.77 107.62 56.53 106.84C56.49 106.7 56.45 106.56 56.41 106.43C56.4 106.39 56.39 106.35 56.38 106.31C56.32 106.11 56.41 106.64 56.42 106.6C56.36 106.83 56.3 107.06 56.23 107.29C55.71 107.5 55.2 107.71 54.68 107.92C56.4 108.56 58.11 109.19 59.83 109.81C60.51 110.05 61.36 109.54 61.52 108.85C61.7 108.08 61.29 107.43 60.56 107.16C58.84 106.54 57.13 105.9 55.41 105.27C54.87 105.07 54.13 105.4 53.86 105.9C53.53 106.52 53.75 107.1 53.94 107.71C54.12 108.3 54.31 108.88 54.5 109.47C54.67 110 54.85 110.53 55.04 111.05C55.13 111.29 55.21 111.54 55.33 111.76C55.48 112.04 55.72 112.24 56.01 112.36C56.58 112.6 57.14 112.41 57.64 112.09C58.87 111.29 60.05 110.41 61.17 109.46C61.72 109 61.68 107.99 61.17 107.52C60.57 106.99 59.81 107.03 59.22 107.53Z" fill="white"/>
</g>
<defs>
<clipPath id="clip0_243_885">
<rect width="200" height="200" fill="white"/>
</clipPath>
</defs>
</svg>
