<svg width="200" height="200" viewBox="0 0 200 200" fill="none" xmlns="http://www.w3.org/2000/svg">
<g clip-path="url(#clip0_243_582)">
<path d="M94.3495 166.248C94.3495 166.248 81.7695 190.068 67.4195 179.998C51.9995 169.168 41.9095 142.708 41.9095 142.708C44.1195 139.658 56.6095 138.608 56.6095 138.608L70.5395 151.198L78.5095 150.258C78.5095 150.258 81.3995 154.408 85.8195 158.788C89.9695 162.888 94.3495 166.248 94.3495 166.248Z" fill="#CF806F"/>
<path d="M177.78 200.428H157.32V170.998L176.19 168.698L177.78 200.428Z" fill="#CF806F"/>
<path d="M70.5396 151.198C70.5396 151.198 75.9896 143.788 82.3996 135.758C87.7196 129.088 93.1496 122.038 101.61 119.498C120.27 113.918 118.85 133.008 118.85 133.008L88.3596 169.878C88.3596 169.878 81.5795 165.018 77.9195 160.598C76.0995 158.598 74.5595 156.768 73.4095 155.268C71.4795 152.788 70.5396 151.198 70.5396 151.198Z" fill="#802A84"/>
<path d="M134.94 115.318C134.94 115.318 142.7 114.408 154.13 122.048C165.56 129.688 176.26 136.998 178.39 171.098C178.39 171.098 172.66 172.328 168.43 172.928C163.82 173.578 158.84 173.518 158.84 173.518L159.92 200.418H89.8196C89.8196 200.418 91.6996 190.548 87.2896 171.538C86.8196 169.498 87.3596 165.008 87.1796 162.778C85.9096 146.748 85.8396 128.268 92.0696 124.028C107.33 113.668 134.94 115.318 134.94 115.318Z" fill="#802A84"/>
<path d="M49.6396 100.068L52.8796 105.018C53.5096 105.978 52.7196 107.268 51.4896 107.308L45.6996 107.518C43.5896 107.658 43.8196 106.488 44.3096 105.498L46.8596 100.338C47.3996 99.2482 48.9996 99.0882 49.6396 100.068Z" fill="white"/>
<path d="M139.51 72.0182C139.51 72.0182 140.93 68.0182 143.84 66.0182C148.27 62.9882 155.17 61.6782 161.31 68.1382C166.35 73.4382 165.22 85.7682 158.68 103.058C154.93 112.978 157.55 121.588 157.55 121.588C157.55 121.588 146.16 117.398 141.69 105.238C139.2 98.4082 139.51 72.0182 139.51 72.0182Z" fill="black"/>
<path d="M92.6596 72.6382C92.6596 72.6382 87.6896 97.5782 92.3496 107.958C97.0096 118.338 102.75 123.818 120.55 121.468C131.76 119.988 136.59 117.638 136.59 117.638L137.11 108.278L135.61 76.1682L110.69 65.0182L92.6596 72.6382Z" fill="#CF806F"/>
<path d="M136.86 104.928L138.12 119.308C138.12 119.308 137.16 127.268 127.08 131.738C126.01 132.218 124.97 132.628 123.96 132.978C116.99 135.408 109.47 131.128 108.98 124.458L108.06 112.158L136.86 104.928Z" fill="#CF806F"/>
<path d="M135.69 78.3682C135.69 78.3682 121.5 75.7382 115.67 71.3082C110.56 67.4282 110.06 66.2682 110.06 66.2682C110.06 66.2682 99.1896 76.2982 89.6996 72.1382C85.3396 70.2282 84.8896 66.8982 84.8896 66.8982C84.8896 66.8982 91.9096 63.4282 94.6496 59.9682C100.63 52.3982 110.83 46.8682 123.13 49.7982C145 55.0082 146.53 72.1782 146.53 72.1782C146.53 72.1782 153.36 74.4582 151.67 87.3282C149.43 104.438 137.1 108.298 137.1 108.298L135.69 78.3682Z" fill="black"/>
<path d="M134 91.7082C134 91.7082 134.7 89.9182 136.34 88.6082C137.8 87.4582 140.04 86.6982 142.56 87.7782C147.79 90.0082 146.68 96.0382 143.89 99.7582C141.1 103.478 134.71 101.738 134.71 101.738L134 91.7082Z" fill="#CF806F"/>
<path d="M128.29 71.3982C128.29 71.3982 125.43 92.4182 128.4 93.8782C131.47 95.3782 133.99 91.7182 133.99 91.7182C133.99 91.7182 135.04 89.2382 137.07 88.1182L137.09 75.2282L128.29 71.3982Z" fill="black"/>
<path d="M95.3196 83.6182C94.5096 82.5682 95.0696 78.9882 100.03 79.9882C103.64 80.7182 104.96 82.3182 104.19 84.5482C103.58 86.3482 101 85.3482 99.0996 84.9282C97.2296 84.5082 96.0596 84.5782 95.3196 83.6182Z" fill="white"/>
<path d="M121.75 88.7382C122.66 88.1682 123.32 84.4182 118.13 83.5682C114.36 82.9582 111.83 84.1482 112.47 86.8582C112.86 88.4982 114.9 88.3482 116.89 88.6282C118.87 88.9082 120.32 89.6282 121.75 88.7382Z" fill="white"/>
<path d="M91.6796 69.4982C90.9496 74.5382 90.3396 79.6082 89.8396 84.6782C89.0996 92.1282 87.8996 100.228 90.3396 107.478C92.1796 112.928 95.9896 118.908 101.35 121.468C109.12 125.168 118.96 123.738 127.01 121.828C128.96 121.368 127.95 118.408 126 118.868C118.53 120.638 107.59 122.448 100.88 117.598C95.6796 113.838 92.5196 106.688 92.0996 100.448C91.4296 90.4982 93.3196 79.9982 94.7396 70.1582C95.0196 68.1582 91.9596 67.4982 91.6796 69.4982Z" fill="black"/>
<path d="M114.55 79.3382C114.73 79.2782 114.92 79.2282 115.11 79.1882C115.19 79.1682 115.26 79.1582 115.34 79.1382C115.36 79.1382 115.73 79.0682 115.47 79.1082C115.21 79.1482 115.55 79.0982 115.6 79.0982C115.7 79.0882 115.79 79.0882 115.89 79.0782C116.06 79.0682 116.24 79.0682 116.41 79.0782C116.6 79.0882 116.79 79.0982 116.99 79.1182C117.3 79.1482 116.77 79.0782 116.97 79.1182C117.06 79.1382 117.16 79.1482 117.25 79.1682C117.61 79.2382 117.96 79.3382 118.31 79.4682C118.38 79.4982 118.45 79.5282 118.53 79.5482C118.72 79.6082 118.25 79.4082 118.52 79.5482C118.69 79.6282 118.87 79.7182 119.04 79.8082C119.19 79.8882 119.34 79.9782 119.49 80.0782C119.57 80.1282 119.65 80.1882 119.73 80.2382C119.77 80.2682 120.04 80.4682 119.85 80.3182C119.66 80.1682 119.95 80.3982 119.96 80.4082C120.02 80.4582 120.08 80.5082 120.13 80.5582C120.27 80.6882 120.41 80.8182 120.54 80.9582C120.61 81.0282 120.67 81.0982 120.73 81.1782C120.76 81.2082 120.78 81.2382 120.8 81.2682C120.87 81.3582 120.85 81.3282 120.73 81.1682C120.72 81.2482 121.01 81.5682 121.06 81.6482C121.51 82.3482 122.5 82.6982 123.25 82.2182C123.96 81.7682 124.3 80.7882 123.82 80.0282C121.73 76.7482 117.47 75.0882 113.73 76.2582C112.93 76.5082 112.34 77.3882 112.61 78.2282C112.84 79.0282 113.7 79.6082 114.55 79.3382Z" fill="black"/>
<path d="M104.32 74.4282C103.02 73.4782 101.33 73.0082 99.7296 73.0682C97.9596 73.1282 96.3496 73.7582 94.9796 74.8682C94.3296 75.3982 94.3896 76.5882 94.9796 77.1282C95.6696 77.7582 96.5496 77.6982 97.2396 77.1282C97.4096 76.9882 97.2396 77.1582 97.1696 77.1782C97.2396 77.1582 97.3196 77.0682 97.3896 77.0282C97.5096 76.9482 97.6296 76.8782 97.7496 76.8082C97.8896 76.7282 98.0296 76.6582 98.1696 76.5882C98.3696 76.4982 98.1596 76.6182 98.0796 76.6282C98.1496 76.6182 98.2596 76.5582 98.3296 76.5382C98.6096 76.4382 98.9096 76.3682 99.1996 76.3082C99.2696 76.2982 99.3396 76.2882 99.4096 76.2682C99.0396 76.3782 99.2196 76.2882 99.3496 76.2782C99.5096 76.2682 99.6696 76.2582 99.8296 76.2482C99.9696 76.2482 100.11 76.2482 100.26 76.2582C100.35 76.2582 100.44 76.2682 100.53 76.2782C100.58 76.2782 100.83 76.3182 100.58 76.2782C100.33 76.2482 100.58 76.2782 100.63 76.2882C100.72 76.3082 100.8 76.3182 100.89 76.3382C101.03 76.3682 101.17 76.4082 101.3 76.4482C101.45 76.4982 101.6 76.5482 101.75 76.5982C101.95 76.6682 101.47 76.4682 101.66 76.5582C101.74 76.5982 101.82 76.6282 101.9 76.6682C102.18 76.8082 102.45 76.9782 102.71 77.1682C103.39 77.6682 104.52 77.2982 104.9 76.5982C105.34 75.7782 105.04 74.9582 104.32 74.4282Z" fill="black"/>
<path d="M118.09 87.6982C120.15 87.6982 120.15 84.4982 118.09 84.4982C116.04 84.4982 116.03 87.6982 118.09 87.6982Z" fill="black"/>
<path d="M100.43 84.3782C102.49 84.3782 102.49 81.1782 100.43 81.1782C98.3696 81.1882 98.3696 84.3782 100.43 84.3782Z" fill="black"/>
<path d="M141.26 91.9382C140.48 91.6182 139.5 91.8382 138.82 92.2982C138.09 92.7982 137.63 93.5682 137.49 94.4382C137.35 95.3182 137.47 96.1782 138 96.9182C138.49 97.6082 139.24 98.2382 140.1 98.3682C140.51 98.4282 140.98 98.2682 141.08 97.8082C141.17 97.4282 140.96 96.8882 140.52 96.8282C140.45 96.8182 140.39 96.8082 140.33 96.7882C140.31 96.7782 140.08 96.7082 140.17 96.7382C140.26 96.7782 140.07 96.6882 140.04 96.6682C139.97 96.6282 139.9 96.5782 139.83 96.5382C139.69 96.4582 139.89 96.6082 139.76 96.4882C139.7 96.4382 139.65 96.3882 139.6 96.3382C139.55 96.2882 139.5 96.2282 139.45 96.1782C139.44 96.1682 139.3 95.9882 139.39 96.1082C139.3 95.9882 139.24 95.8682 139.16 95.7382C139.07 95.5782 139.18 95.8282 139.13 95.6782C139.11 95.6082 139.08 95.5282 139.06 95.4482C139.05 95.4182 139.05 95.3882 139.04 95.3482C139.05 95.4382 139.05 95.4482 139.05 95.3882C139.05 95.3082 139.04 95.2282 139.04 95.1482C139.04 95.0782 139.04 95.0082 139.05 94.9382C139.05 94.8982 139.08 94.6882 139.05 94.8582C139.07 94.7182 139.11 94.5682 139.15 94.4282C139.17 94.3582 139.2 94.2882 139.22 94.2182C139.16 94.3682 139.24 94.1782 139.26 94.1482C139.3 94.0782 139.34 94.0082 139.39 93.9382C139.41 93.9082 139.43 93.8782 139.45 93.8482C139.4 93.9082 139.4 93.9182 139.43 93.8782C139.48 93.8382 139.52 93.7782 139.57 93.7382C139.59 93.7182 139.62 93.6882 139.65 93.6682C139.58 93.7182 139.58 93.7282 139.65 93.6682C139.77 93.5982 139.89 93.5182 140.02 93.4682C139.86 93.5382 140.07 93.4582 140.09 93.4482C140.16 93.4282 140.22 93.4082 140.29 93.3982C140.47 93.3582 140.18 93.3882 140.35 93.3882C140.42 93.3882 140.49 93.3882 140.55 93.3882C140.71 93.3782 140.43 93.3582 140.63 93.3982C140.7 93.4182 140.78 93.4382 140.85 93.4682C141.24 93.6282 141.74 93.2982 141.83 92.9082C141.93 92.4582 141.68 92.1082 141.26 91.9382Z" fill="black"/>
<path d="M111.64 93.8182C111.63 93.8482 111.62 93.8782 111.61 93.8982C111.66 93.7882 111.67 93.7582 111.64 93.8182C111.61 93.8782 111.59 93.9382 111.56 93.9882C111.51 94.0982 111.46 94.1982 111.41 94.2982C111.29 94.5282 111.16 94.7582 111.02 94.9782C110.98 95.0382 110.94 95.0982 110.9 95.1582C110.87 95.1982 110.8 95.3582 110.89 95.1882C110.85 95.2782 110.75 95.3582 110.68 95.4282C110.65 95.4482 110.52 95.5382 110.61 95.4882C110.72 95.4282 110.52 95.5382 110.5 95.5482C110.43 95.5882 110.36 95.6282 110.28 95.6582C110.41 95.6082 110.26 95.6582 110.21 95.6682C110.14 95.6882 110.08 95.6982 110.01 95.7182C110.19 95.6782 109.99 95.7182 109.95 95.7182C109.88 95.7182 109.81 95.7182 109.75 95.7082C109.94 95.7282 109.7 95.6882 109.66 95.6782C109.63 95.6682 109.59 95.6582 109.56 95.6482C109.66 95.6882 109.67 95.6882 109.59 95.6582C109.54 95.6282 109.49 95.5982 109.44 95.5682C109.29 95.4682 109.54 95.6782 109.42 95.5482C109.38 95.5082 109.34 95.4682 109.3 95.4282C109.24 95.3682 109.21 95.2982 109.28 95.4082C109.24 95.3482 109.2 95.2882 109.17 95.2282C109.13 95.1682 109.1 95.0982 109.07 95.0382C108.99 94.8882 109.12 95.1782 109.05 95.0082C108.96 94.7582 108.89 94.4982 108.85 94.2382C108.79 93.8282 108.25 93.5582 107.87 93.6782C107.42 93.8282 107.24 94.2182 107.31 94.6582C107.42 95.3682 107.71 96.0782 108.22 96.5982C108.82 97.2182 109.69 97.4382 110.53 97.2582C111.96 96.9482 112.72 95.4982 113.21 94.2482C113.36 93.8582 113.04 93.3582 112.65 93.2682C112.17 93.1582 111.81 93.3982 111.64 93.8182Z" fill="black"/>
<path d="M107.14 94.0482C107.03 94.3782 106.84 94.6382 106.51 94.7682C106.26 94.8682 105.82 94.9282 105.59 94.7482C104.85 94.1882 105.46 92.8582 105.69 92.2082C106.44 90.0182 107.31 87.8582 108.23 85.7382C108.4 85.3382 108.35 84.8882 107.94 84.6482C107.6 84.4482 107.02 84.5382 106.85 84.9382C106.23 86.3782 105.63 87.8382 105.06 89.2982C104.78 90.0182 104.52 90.7282 104.27 91.4582C104.01 92.1982 103.68 92.9782 103.66 93.7682C103.63 95.0482 104.41 96.2982 105.74 96.4282C107.11 96.5682 108.27 95.7582 108.69 94.4682C108.99 93.4982 107.45 93.0782 107.14 94.0482Z" fill="black"/>
<path d="M73.7496 122.848C73.7496 122.848 72.8095 117.728 70.3495 117.978C67.3995 118.268 67.5895 120.158 67.8495 123.548C68.0795 126.538 67.6096 128.828 66.7896 129.938C65.9696 131.028 73.7496 122.848 73.7496 122.848Z" fill="#B86C51"/>
<path d="M58.6896 139.838C58.6896 139.838 61.3596 136.628 61.9596 135.928C65.1896 132.158 80.7296 110.578 84.2796 111.558C86.9696 112.298 85.4096 114.668 85.4096 114.668C85.4096 114.668 87.9296 111.208 90.2996 112.508C92.6696 113.818 91.1096 115.918 91.1096 115.918C91.1096 115.918 92.5596 115.028 93.7096 116.348C94.6896 117.478 93.2496 120.188 93.2496 120.188C93.2496 120.188 95.0196 120.328 94.1796 123.248C93.3896 126.018 87.2296 133.328 87.2296 133.328C87.2296 133.328 82.9896 141.698 73.1196 146.138L70.5496 151.178L63.6596 144.948L58.6896 139.838Z" fill="#B86C51"/>
<path d="M85.8196 113.268C82.6096 116.128 79.6196 119.218 76.8496 122.508C76.5296 122.878 76.7296 123.518 77.1096 123.768C77.5596 124.068 78.0496 123.888 78.3696 123.508C81.0396 120.338 83.9396 117.378 87.0396 114.618C87.8996 113.848 86.6896 112.498 85.8196 113.268Z" fill="black"/>
<path d="M90.1895 115.098C86.4995 118.348 83.1395 121.948 80.1595 125.848C79.4495 126.778 80.9695 127.768 81.6695 126.848C84.5595 123.068 87.8195 119.598 91.3895 116.448C92.2695 115.688 91.0595 114.328 90.1895 115.098Z" fill="black"/>
<path d="M91.6995 119.868C88.7495 122.728 85.9795 125.768 83.3895 128.968C83.0795 129.348 83.2695 129.968 83.6495 130.228C84.0895 130.518 84.5995 130.358 84.9095 129.968C87.3995 126.898 90.0695 123.978 92.9095 121.228C93.7395 120.408 92.5395 119.058 91.6995 119.868Z" fill="black"/>
<path d="M73.2096 146.528C75.4396 146.538 77.6696 145.418 78.9996 143.628C79.2796 143.258 79.2996 142.688 78.8996 142.378C78.5396 142.098 77.9396 142.078 77.6496 142.478C77.5096 142.668 77.3596 142.848 77.1996 143.028C77.1096 143.118 77.0296 143.208 76.9396 143.298C76.8996 143.338 76.8496 143.378 76.9196 143.318C76.8796 143.358 76.8396 143.388 76.7896 143.428C76.6096 143.578 76.4196 143.718 76.2196 143.848C76.1196 143.918 76.0096 143.988 75.8996 144.048C75.8496 144.078 75.7996 144.098 75.7496 144.128C75.6096 144.208 75.7796 144.118 75.6996 144.158C75.2696 144.368 74.8296 144.528 74.3696 144.638C74.3496 144.638 74.1896 144.678 74.2796 144.658C74.3796 144.638 74.2096 144.668 74.1896 144.668C74.0696 144.688 73.9396 144.708 73.8196 144.718C73.5696 144.748 73.3196 144.758 73.0696 144.758C72.5996 144.758 72.1996 145.268 72.2496 145.718C72.3096 146.228 72.7096 146.528 73.2096 146.528Z" fill="black"/>
<path d="M56.7296 137.768C56.7296 137.768 57.4696 135.708 56.8196 131.818C56.1696 127.918 55.4396 123.438 57.5996 121.008C60.9096 117.278 60.2996 115.948 58.8496 114.778C57.0096 113.288 52.7896 114.528 51.1996 119.168C50.1896 122.108 49.3096 123.688 48.7096 124.528C47.1096 121.718 40.2896 109.938 36.5096 108.418C33.6796 107.278 32.9096 109.858 32.9096 109.858C32.9096 109.858 30.1896 107.008 28.2596 107.068C25.7096 107.148 25.2496 109.308 25.2496 109.308C25.2496 109.308 23.6296 109.138 22.4596 110.768C21.1796 112.548 22.9796 115.388 22.9796 115.388C22.9796 115.388 21.7896 119.138 24.0796 123.578C26.3696 128.018 27.9796 129.238 28.5996 130.268C29.2196 131.298 30.0396 135.348 35.9496 140.508C40.2296 144.238 43.3096 144.618 43.3096 144.618L48.2596 153.218L63.6496 144.958L56.7296 137.768Z" fill="#CF806F"/>
<path d="M43.7396 120.368C39.1196 120.408 34.6296 122.068 31.0896 125.028C30.2096 125.758 31.4396 127.048 32.3096 126.318C35.4896 123.658 39.5696 122.178 43.7196 122.148C44.8596 122.138 44.8896 120.358 43.7396 120.368Z" fill="black"/>
<path d="M34.9596 129.948C40.1496 129.768 43.3296 134.508 45.3596 138.648C45.8696 139.678 47.4196 138.818 46.9196 137.798C44.6096 133.088 40.8396 127.978 34.9896 128.178C33.8496 128.218 33.8096 129.988 34.9596 129.948Z" fill="black"/>
<path d="M23.5696 115.928C24.3996 115.438 25.3296 115.728 25.9796 116.388C26.6796 117.098 26.8896 118.108 27.2496 119.008C28.1696 121.348 29.7096 123.598 31.4696 125.378C32.2696 126.188 33.5696 124.968 32.7596 124.158C30.7896 122.168 29.4596 119.768 28.4596 117.178C28.0096 116.018 27.3196 114.948 26.1896 114.348C25.0896 113.758 23.7996 113.718 22.7096 114.358C21.7296 114.948 22.5796 116.508 23.5696 115.928Z" fill="black"/>
<path d="M25.4196 109.978C27.7896 111.338 29.1696 113.678 30.4696 115.988C31.8096 118.358 33.3396 120.618 34.7696 122.938C35.3696 123.908 36.9296 123.058 36.3296 122.088C34.7996 119.618 33.1996 117.208 31.7696 114.678C30.3996 112.258 28.7996 109.878 26.3296 108.458C25.3496 107.888 24.4196 109.408 25.4196 109.978Z" fill="black"/>
<path d="M32.4896 110.788C34.9796 114.008 37.0696 117.488 38.9696 121.078C39.5096 122.088 41.0696 121.238 40.5296 120.228C38.5596 116.498 36.3596 112.908 33.7796 109.558C33.4896 109.178 32.8496 109.218 32.5196 109.528C32.1496 109.888 32.1996 110.408 32.4896 110.788Z" fill="black"/>
<path d="M58.3396 154.358C59.2096 153.378 60.1796 152.538 61.1996 151.888C61.7396 151.548 62.2996 151.238 62.8796 150.978C63.4796 150.708 63.9596 150.528 64.6396 150.328C65.1996 150.168 65.5796 149.598 65.4396 149.008C65.2996 148.458 64.6896 148.048 64.1196 148.208C61.3296 149.018 58.7696 150.588 56.8396 152.768C56.4596 153.188 56.3496 153.878 56.7996 154.308C57.1896 154.698 57.9296 154.808 58.3396 154.358Z" fill="white"/>
<path d="M55.6296 137.188C55.6196 137.228 55.4896 137.528 55.5796 137.318C55.5396 137.408 55.4996 137.498 55.4496 137.588C55.3696 137.748 55.2796 137.898 55.1896 138.048C55.0996 138.198 54.9996 138.338 54.8896 138.488C54.8596 138.528 54.8296 138.568 54.7996 138.608C54.8696 138.518 54.8696 138.518 54.8096 138.598C54.7496 138.668 54.6996 138.728 54.6396 138.798C54.3896 139.068 54.1196 139.308 53.8296 139.538C53.7496 139.598 53.7496 139.598 53.8296 139.538C53.7896 139.568 53.7496 139.598 53.7096 139.628C53.6496 139.668 53.5796 139.708 53.5196 139.748C53.3496 139.858 53.1696 139.948 52.9896 140.038C52.5696 140.248 52.3896 140.848 52.6296 141.248C52.8896 141.678 53.3896 141.828 53.8396 141.608C55.4696 140.798 56.6896 139.378 57.3396 137.688C57.5096 137.248 57.1596 136.698 56.7196 136.588C56.2196 136.448 55.8096 136.718 55.6296 137.188Z" fill="black"/>
<path d="M53.4596 151.918C57.2496 147.488 62.5196 144.608 68.2996 143.818C68.8896 143.738 69.2196 143.028 69.0996 142.498C68.9496 141.878 68.3596 141.628 67.7796 141.698C61.6896 142.528 55.9596 145.658 51.9696 150.338C51.0596 151.398 52.5496 152.988 53.4596 151.918Z" fill="white"/>
<path d="M156.71 162.318C157.51 170.878 158.19 179.468 158.73 188.048C158.83 189.558 161.19 189.568 161.09 188.048C160.55 179.468 159.88 170.878 159.07 162.318C158.94 160.818 156.57 160.808 156.71 162.318Z" fill="black"/>
<path d="M50.8396 103.518C55.7196 100.418 61.6996 99.1382 67.4196 100.188C72.2296 101.068 77.2496 103.288 80.2496 107.288C80.8496 108.088 82.2196 107.308 81.6096 106.498C78.3496 102.148 73.0996 99.6382 67.8396 98.6682C61.7096 97.5482 55.2996 98.8182 50.0496 102.158C49.1896 102.698 49.9796 104.058 50.8396 103.518Z" fill="white"/>
<path d="M86.7896 159.868C85.7096 165.198 84.8796 170.458 86.5996 175.748C87.2796 177.848 88.0796 179.848 88.3796 182.038C88.6596 184.018 88.7896 186.038 88.8296 188.048C88.8496 189.308 90.8096 189.308 90.7896 188.048C90.7196 184.088 90.2396 180.298 88.9396 176.548C88.0596 174.008 87.4496 171.528 87.4996 168.818C87.5496 165.968 88.1196 163.178 88.6796 160.388C88.9296 159.158 87.0396 158.638 86.7896 159.868Z" fill="black"/>
<path d="M107.6 104.128C107.58 104.118 108.35 110.218 113.52 110.788C118.68 111.368 122.49 105.868 122.4 100.398C122.4 100.398 121.74 98.7682 120.16 100.668C118.58 102.588 113.23 106.308 107.6 104.128Z" fill="black"/>
<path d="M119.32 100.518C119.29 103.608 116.18 106.758 113.14 107.058C111.03 107.268 110 105.578 109.51 104.148C113.84 104.668 117.69 102.188 119.32 100.518Z" fill="white"/>
<path d="M121.72 104.578C120.63 107.688 118.34 110.198 115.41 110.728C115.5 109.568 116.18 107.748 117.78 106.188C119.09 104.908 120.54 104.458 121.72 104.578Z" fill="#EC145A"/>
<path d="M106.45 102.958C108.78 104.128 111.44 104.188 113.91 103.428C115.15 103.048 116.34 102.498 117.46 101.848C118.49 101.248 119.59 100.578 120.22 99.5282C120.17 99.4582 120.12 99.3982 120.08 99.3282C119.74 98.8082 119.47 98.2382 119.31 97.6382C119.22 97.3182 119.34 96.9282 119.69 96.8182C120 96.7182 120.42 96.8482 120.51 97.1982C120.56 97.3982 120.63 97.5982 120.7 97.7882C120.74 97.8882 120.78 97.9782 120.82 98.0682C120.84 98.1182 120.87 98.1682 120.89 98.2182C120.89 98.2282 120.9 98.2382 120.91 98.2482C121.01 98.4282 121.12 98.5982 121.24 98.7682C121.3 98.8482 121.36 98.9282 121.43 99.0082C121.46 99.0482 121.5 99.0882 121.53 99.1282C121.54 99.1382 121.57 99.1682 121.58 99.1782C121.72 99.3282 121.87 99.4582 122.04 99.5782C122.06 99.5882 122.17 99.6582 122.08 99.6082C122.12 99.6282 122.17 99.6582 122.21 99.6782C122.25 99.6982 122.3 99.7182 122.34 99.7382C122.36 99.7482 122.36 99.7482 122.37 99.7482C122.37 99.7482 122.37 99.7482 122.38 99.7482C122.43 99.7582 122.47 99.7682 122.52 99.7782C122.54 99.7782 122.56 99.7782 122.57 99.7882C122.58 99.7882 122.58 99.7882 122.59 99.7882C122.65 99.7882 122.7 99.7782 122.76 99.7782C122.77 99.7782 122.86 99.7582 122.88 99.7582C122.91 99.7482 122.99 99.7282 123 99.7282C123.06 99.7082 123.11 99.6882 123.17 99.6682C123.22 99.6482 123.26 99.6382 123.31 99.6182C123.53 99.4182 123.79 99.3382 124.08 99.4582C124.36 99.5782 124.5 99.9082 124.44 100.198C124.35 100.648 123.84 100.798 123.45 100.928C123.07 101.048 122.68 101.108 122.29 101.048C121.93 100.998 121.61 100.828 121.32 100.638C121.25 100.588 121.18 100.538 121.11 100.478C120.45 101.418 119.54 102.098 118.55 102.698C117.23 103.498 115.84 104.198 114.36 104.648C111.56 105.508 108.55 105.458 105.9 104.128C105.16 103.758 105.71 102.588 106.45 102.958Z" fill="black"/>
<path d="M120.9 111.258C119.52 112.398 117.89 113.138 116.15 113.508C115.8 113.578 115.46 113.228 115.43 112.898C115.4 112.498 115.68 112.248 116.04 112.178C116.72 112.038 117.53 111.748 118.21 111.428C118.87 111.108 119.54 110.658 120.14 110.178C120.42 109.948 120.87 110.058 121.07 110.338C121.28 110.638 121.18 111.028 120.9 111.258Z" fill="black"/>
</g>
<defs>
<clipPath id="clip0_243_582">
<rect width="200" height="200" fill="white"/>
</clipPath>
</defs>
</svg>
