<svg width="200" height="200" viewBox="0 0 200 200" fill="none" xmlns="http://www.w3.org/2000/svg">
<g clip-path="url(#clip0_243_1145)">
<path d="M52.65 123.06C50.65 117.22 46.63 106.58 46.63 106.58C46.63 106.58 48.28 104.79 50.15 101.2C52.06 97.54 56.33 97.41 57.91 94.92C59.49 92.42 58.1 92.78 58.1 92.78C58.1 92.78 62.42 94.12 63.4 89.62C64.38 85.12 46.5 85.39 43.98 83.56C43.98 83.56 50.47 79.44 54.82 76.75C55.91 76.08 58.7 73.58 56.14 70.98C53.9 68.69 50.3 72.31 45 74.39C39.8 76.43 36.94 78.05 35.64 80.35C34.34 82.66 34.72 83.05 33.56 83.77C32.4 84.49 30.15 86.29 29.74 87.86C29.33 89.43 28.97 90.2 27.87 91.54C26.77 92.88 24.45 96.83 25.1 100.93C25.76 105.03 26.45 110.06 29.48 111.88C29.48 111.88 30.53 117.05 31.28 126.68C32.97 148.33 29.58 166.29 41.82 169.94C46.71 171.4 61.73 165.61 60.78 153.1C59.61 137.57 54.65 128.9 52.65 123.06Z" fill="#8C4520"/>
<path d="M29.1599 101.44C29.4899 101.48 29.8199 101.46 30.1599 101.42C30.5099 101.37 30.8499 101.29 31.1799 101.17C31.3699 101.1 31.5199 101.01 31.6199 100.83C31.7099 100.67 31.7499 100.44 31.6999 100.26C31.6399 100.08 31.5299 99.91 31.3599 99.82C31.1899 99.73 30.9699 99.67 30.7899 99.74C30.4899 99.85 30.1899 99.93 29.8699 99.98C29.9399 99.97 29.9999 99.96 30.0699 99.95C29.7699 99.99 29.4699 99.99 29.1699 99.96C28.9899 99.94 28.7599 100.06 28.6399 100.18C28.5099 100.31 28.4099 100.52 28.4199 100.71C28.4299 100.9 28.4899 101.1 28.6399 101.24C28.6899 101.28 28.7399 101.32 28.7899 101.36C28.8999 101.4 29.0199 101.44 29.1599 101.44Z" fill="black"/>
<path d="M30.36 100.17C30.41 101.05 30.84 101.86 31.21 102.65C31.56 103.41 31.95 104.17 32.35 104.9C32.54 105.24 33.04 105.38 33.37 105.17C33.72 104.95 33.84 104.52 33.64 104.15C33.26 103.46 32.9 102.76 32.57 102.05C32.4 101.7 32.25 101.34 32.09 100.98C32.07 100.93 32.07 100.93 32.09 100.98C32.07 100.93 32.05 100.89 32.03 100.84C32 100.76 31.97 100.68 31.94 100.6C31.91 100.52 31.89 100.43 31.87 100.35C31.86 100.3 31.85 100.25 31.84 100.2C31.85 100.27 31.85 100.26 31.84 100.17C31.82 99.78 31.51 99.41 31.1 99.43C30.72 99.44 30.33 99.75 30.36 100.17Z" fill="black"/>
<path d="M31.7301 101.95C29.7201 102.28 28.3601 104.8 29.2801 106.64C29.7401 107.55 30.6401 108.03 31.6401 108.02C32.7801 108.01 34.0701 107.7 35.1401 107.3C37.1301 106.55 39.0501 104.81 39.0101 102.52C38.9901 101.32 38.4901 100.21 37.9601 99.16C37.4601 98.18 37.2401 97.09 36.7301 96.11C36.2601 95.21 35.5401 94.37 34.6201 93.9C33.7001 93.43 32.6801 93.29 31.6701 93.17C30.7201 93.05 30.7301 94.54 31.6701 94.66C33.3901 94.87 34.7601 95.36 35.5301 97.04C35.9701 98.02 36.2401 99.04 36.7301 100C37.2001 100.93 37.7001 102 37.4801 103.07C37.0301 105.32 34.4601 106.07 32.5301 106.41C31.6501 106.57 30.6101 106.61 30.4801 105.49C30.3701 104.51 31.2101 103.53 32.1401 103.37C33.0701 103.23 32.6701 101.8 31.7301 101.95Z" fill="black"/>
<path d="M37.8801 104.75C40.3401 105.53 42.2201 103.29 43.0701 101.27C43.5201 100.21 43.8001 99.03 43.6001 97.88C43.3801 96.61 42.5801 95.44 42.1001 94.25C41.2601 92.18 40.9601 89.66 39.2301 88.09C38.2501 87.2 36.9001 86.58 35.5601 86.62C34.6001 86.65 34.6001 88.14 35.5601 88.11C36.4501 88.08 37.3601 88.46 38.0401 89.02C39.4701 90.19 39.7201 92.14 40.3301 93.78C40.6701 94.7 41.0501 95.61 41.4801 96.5C41.9401 97.46 42.3001 98.27 42.1101 99.35C41.8201 101 40.4001 103.98 38.2701 103.31C37.3601 103.02 36.9701 104.46 37.8801 104.75Z" fill="black"/>
<path d="M46.2001 96.65C47.4601 94.79 49.3701 93.5 51.4201 92.66C51.5101 92.62 51.6101 92.59 51.7001 92.57C51.4401 92.62 51.5001 92.59 51.6201 92.6C51.8701 92.63 52.1301 92.66 52.3801 92.69C53.2501 92.8 54.1201 92.93 54.9901 93.09C55.6901 93.22 56.4901 93.34 57.1101 93.7C57.2201 93.77 57.3101 93.81 57.3401 93.92C57.5301 94.54 56.8701 95.25 56.4701 95.65C55.3901 96.71 53.9601 97.28 52.7001 98.08C51.4601 98.86 50.4801 99.87 49.7201 101.12C48.9001 102.48 48.3201 104.01 47.3001 105.24C46.2401 106.52 44.8001 107.44 43.1701 107.8C42.2401 108.01 42.6301 109.45 43.5701 109.24C45.1301 108.89 46.5601 108.08 47.7201 106.98C48.9601 105.79 49.7001 104.28 50.5001 102.78C51.3801 101.13 52.4201 99.94 54.0601 99C55.5201 98.17 57.0701 97.41 58.1101 96.03C58.8101 95.1 59.2901 93.7 58.3201 92.77C58.2501 92.7 57.9401 92.47 58.1501 92.62C58.0001 92.5 57.8701 92.41 57.7001 92.32C57.2901 92.1 56.8201 91.98 56.3801 91.87C55.3401 91.61 54.2701 91.45 53.2101 91.3C52.6301 91.22 51.9201 91.02 51.3301 91.12C49.9801 91.35 48.5501 92.34 47.5201 93.16C46.5501 93.94 45.6301 94.85 44.9301 95.89C44.3701 96.69 45.6601 97.44 46.2001 96.65Z" fill="black"/>
<path d="M43.79 84.28C48.83 85.61 54.12 86.22 59.29 86.8C60.98 86.99 63.52 87.86 62.49 90.1C61.69 91.85 59.19 92.61 57.43 92.21C56.5 92 56.0999 93.43 57.03 93.65C59.27 94.16 61.9 93.36 63.33 91.52C64.68 89.78 64.32 87.14 62.3 86.07C61.23 85.5 59.99 85.37 58.8 85.26C57.51 85.14 56.26 84.98 54.99 84.77C51.37 84.19 47.72 83.78 44.18 82.84C43.26 82.6 42.86 84.04 43.79 84.28Z" fill="black"/>
<path d="M45.3601 91.45C45.4001 91.45 45.4601 91.47 45.5001 91.46C45.3301 91.49 45.3201 91.43 45.4301 91.45C45.4701 91.46 45.5101 91.46 45.5501 91.47C45.7501 91.5 45.9501 91.54 46.1401 91.57C46.7101 91.67 47.2901 91.79 47.8601 91.9C48.9001 92.11 49.9501 92.32 50.9901 92.56C51.3801 92.65 51.8001 92.44 51.9101 92.04C52.0101 91.66 51.7801 91.21 51.3901 91.12C50.3301 90.88 49.2601 90.66 48.2001 90.45C47.2701 90.27 46.3101 90 45.3601 89.95C44.9601 89.93 44.6201 90.31 44.6201 90.69C44.6201 91.13 44.9601 91.43 45.3601 91.45Z" fill="black"/>
<path d="M38.9201 189.88C42.0201 177.17 46.9001 151.23 53.3901 142.98C53.3901 142.98 71.0801 113.99 101.81 116.12C132.54 118.25 143.82 125.56 155.07 135.98C167.52 147.51 174.37 200.25 174.37 200.25H140H50.2701C47.3101 200.24 38.1301 193.13 38.9201 189.88Z" fill="#11A906"/>
<path d="M120.11 122.33C120.11 122.33 122.6 133.15 116.05 137.2C109.5 141.26 96.13 137.61 91.03 128.01C86.58 119.63 88.67 113.95 88.67 113.95L120.11 122.33Z" fill="#A95630"/>
<path d="M99.79 70.14C99.79 70.14 140 75.01 141.89 68.19C143.28 63.16 139.27 38.85 100.8 47.19C88.35 49.89 78.45 60.32 77.98 74.88C77.66 84.99 80.31 98.35 85.73 106.4C91.85 115.49 95.88 114.53 95.88 114.53L99.79 70.14Z" fill="black"/>
<path d="M88.2101 117.46C88.5701 113.32 89.8301 106.11 89.8301 106.11C88.8801 106.25 86.8601 106.34 83.8501 103.96C80.7201 101.49 76.2501 93.41 80.6401 88.98C83.2301 86.37 86.1101 85.11 89.4001 88.94C93.1201 93.26 96.5101 92.85 96.3101 87.41C96.1101 81.96 92.9501 69.21 98.3001 66.31C103.65 63.41 109.03 66.12 119.14 64.93C123.55 64.41 126.65 63.33 130.31 62.14C134.48 60.78 139.31 64.86 140.41 70.19C141.01 73.12 142.31 95.91 141.72 101.05C141.18 105.72 136.73 123.61 118.76 123.55C109.59 123.51 88.2101 117.46 88.2101 117.46Z" fill="#A95630"/>
<path d="M138.98 63.75C140.04 74.14 141.48 84.41 140.8 94.89C140.59 98.07 140.21 101.24 139.47 104.35C139.16 105.67 138.79 106.98 138.33 108.25C138.25 108.47 138.16 108.69 138.08 108.92C137.96 109.23 138.04 109.03 138.02 109.08C137.95 109.25 137.87 109.43 137.79 109.6C136.26 112.97 134.11 116.07 131.33 118.52C126.69 122.61 120.6 123.93 114.57 122.9C112.59 122.56 111.73 125.6 113.73 125.94C119.7 126.96 125.82 126.2 130.93 122.77C134.63 120.29 137.58 116.79 139.68 112.88C141.9 108.74 142.92 104.15 143.52 99.52C144.39 92.78 144.27 85.93 143.79 79.16C143.42 74 142.67 68.89 142.15 63.75C141.93 61.75 138.78 61.73 138.98 63.75Z" fill="black"/>
<path d="M126.76 74.86C127.07 74.46 127.4 74.09 127.77 73.74C128.15 73.39 128.3 73.27 128.75 72.98C128.94 72.86 129.14 72.75 129.34 72.65C129.44 72.6 129.54 72.55 129.65 72.5C129.47 72.58 129.79 72.45 129.82 72.44C130.03 72.37 130.24 72.3 130.46 72.25C130.57 72.22 130.68 72.2 130.79 72.18C130.83 72.17 131.18 72.12 130.95 72.15C132.74 71.94 134.32 72.56 135.58 73.87C136.17 74.48 137.21 74.47 137.81 73.87C138.42 73.26 138.4 72.25 137.81 71.64C136.06 69.83 133.49 68.74 130.95 69C128.4 69.27 126.1 70.62 124.53 72.64C124.01 73.31 123.87 74.21 124.53 74.87C125.07 75.41 126.24 75.54 126.76 74.86Z" fill="black"/>
<path d="M116.02 94.3C116.29 95.88 117.49 97.33 119.17 97.42C120.87 97.51 122.22 95.87 122.05 94.23C122 93.76 121.67 93.31 121.15 93.33C120.7 93.35 120.2 93.73 120.25 94.23C120.26 94.36 120.26 94.49 120.26 94.62C120.26 94.82 120.3 94.46 120.26 94.64C120.24 94.71 120.23 94.79 120.2 94.86C120.19 94.89 120.12 95.1 120.17 94.96C120.22 94.83 120.13 95.03 120.12 95.05C120.09 95.11 120.06 95.16 120.02 95.21C120 95.24 119.99 95.26 119.97 95.29C120.04 95.2 120.06 95.18 120.01 95.23C119.97 95.27 119.93 95.32 119.88 95.37C119.86 95.39 119.84 95.41 119.81 95.43C119.74 95.49 119.75 95.48 119.85 95.4C119.85 95.43 119.72 95.49 119.7 95.5C119.68 95.51 119.66 95.52 119.64 95.53C119.55 95.57 119.56 95.57 119.68 95.52C119.63 95.56 119.38 95.63 119.31 95.62C119.35 95.61 119.38 95.61 119.42 95.6C119.38 95.6 119.33 95.61 119.29 95.61C119.25 95.61 119.12 95.63 119.1 95.6C119.22 95.62 119.25 95.62 119.18 95.61C119.15 95.6 119.12 95.6 119.08 95.59C119.02 95.58 118.95 95.56 118.89 95.54C118.86 95.53 118.83 95.52 118.8 95.51C118.74 95.49 118.76 95.5 118.86 95.54C118.86 95.54 118.69 95.45 118.68 95.45C118.67 95.44 118.51 95.34 118.51 95.34C118.6 95.41 118.62 95.43 118.57 95.38C118.55 95.36 118.52 95.34 118.5 95.32C118.4 95.23 118.32 95.14 118.24 95.04C118.11 94.89 118.32 95.17 118.22 95.02C118.19 94.96 118.15 94.91 118.11 94.86C118.05 94.76 117.94 94.62 117.93 94.51C117.98 94.62 117.98 94.63 117.94 94.54C117.93 94.51 117.92 94.48 117.91 94.45C117.89 94.39 117.87 94.32 117.85 94.26C117.81 94.12 117.78 93.98 117.75 93.83C117.67 93.36 117.07 93.06 116.64 93.2C116.14 93.35 115.93 93.8 116.02 94.3Z" fill="black"/>
<path d="M120.2 94.51C120.47 96.35 122.67 97.19 124.28 96.61C125.06 96.33 125.74 95.78 126.09 95.01C126.43 94.25 126.55 93.35 126.22 92.57C126.13 92.34 126.03 92.16 125.81 92.03C125.62 91.92 125.33 91.87 125.12 91.94C124.7 92.08 124.3 92.58 124.49 93.05C124.54 93.18 124.57 93.31 124.61 93.44C124.62 93.51 124.62 93.48 124.6 93.36C124.6 93.4 124.61 93.44 124.61 93.49C124.61 93.55 124.61 93.62 124.61 93.68C124.61 93.73 124.62 93.84 124.6 93.87C124.62 93.75 124.62 93.72 124.61 93.79C124.6 93.82 124.6 93.85 124.59 93.88C124.57 93.96 124.54 94.19 124.48 94.24C124.53 94.12 124.54 94.11 124.5 94.2C124.49 94.23 124.47 94.26 124.46 94.28C124.43 94.33 124.4 94.39 124.37 94.44C124.25 94.63 124.47 94.35 124.35 94.48C124.31 94.53 124.26 94.58 124.22 94.62C124.21 94.63 124.08 94.76 124.07 94.75C124.16 94.68 124.17 94.67 124.12 94.71C124.09 94.73 124.07 94.75 124.04 94.76C123.98 94.79 123.93 94.83 123.87 94.86C123.83 94.88 123.79 94.9 123.75 94.92C123.86 94.88 123.88 94.87 123.82 94.89C123.68 94.93 123.55 94.97 123.42 95C123.24 95.04 123.6 95 123.4 95C123.34 95 123.27 95.01 123.21 95.01C123.15 95.01 123.08 95.01 123.02 95C122.98 95 122.93 94.99 122.89 94.99C122.92 94.99 122.96 95 122.99 95C122.88 95.03 122.66 94.92 122.56 94.89C122.5 94.87 122.52 94.88 122.61 94.92C122.58 94.91 122.55 94.89 122.52 94.87C122.47 94.84 122.34 94.8 122.31 94.74C122.33 94.76 122.36 94.78 122.38 94.8C122.35 94.77 122.31 94.74 122.28 94.71C122.27 94.7 122.14 94.57 122.14 94.57C122.2 94.66 122.22 94.67 122.18 94.62C122.16 94.59 122.14 94.56 122.12 94.54C122.1 94.51 122.02 94.41 122.02 94.36C122.06 94.47 122.07 94.48 122.03 94.39C122.01 94.34 122 94.32 122 94.3C121.97 94.21 121.96 94.12 121.94 94.03C121.87 93.56 121.26 93.26 120.83 93.4C120.32 93.56 120.13 94 120.2 94.51Z" fill="black"/>
<path d="M126.28 92.71C125.48 89.52 124.05 86.54 123.11 83.39C122.78 82.28 121.04 82.75 121.37 83.87C122.31 87.01 123.73 90 124.54 93.19C124.83 94.31 126.57 93.84 126.28 92.71Z" fill="black"/>
<path d="M125.18 81.5C125.52 79.63 127.11 78.61 127.66 78.29C128.87 77.59 130.22 76.87 132.54 76.96C137 77.13 137.51 78.6 137.75 79.67C137.95 80.55 137.7 82.28 136.48 82.8C135.82 83.08 134.58 82.78 132.08 83.02C129.71 83.25 127.15 84.36 126.41 84.19C125.68 84.02 124.88 83.17 125.18 81.5Z" fill="white"/>
<path d="M129.81 83.1C132.34 83.1 132.35 79.16 129.81 79.16C127.27 79.16 127.27 83.1 129.81 83.1Z" fill="black"/>
<path d="M103.9 84.6C104.16 82.9 105.73 81.64 106.3 81.35C107.55 80.72 109.41 80.06 111.85 80.13C115.85 80.26 116.87 82.1 117.08 83.11C117.26 83.95 117.07 85.55 115.8 86.02C115.12 86.27 113.8 85.96 111.18 86.15C108.69 86.32 106.02 87.32 105.24 87.14C104.47 86.96 103.66 86.16 103.9 84.6Z" fill="white"/>
<path d="M109.69 85.97C112.14 85.97 112.14 82.16 109.69 82.16C107.24 82.17 107.24 85.97 109.69 85.97Z" fill="black"/>
<path d="M120.5 49.6C122.69 48.65 124.86 47.85 126.96 47.21C121.16 44.09 113.4 42.73 103.14 45.5C71.13 54.12 78.1 84.5 78.1 84.5C78.1 84.5 84.2 78.1 92.82 72.8C98.01 65.99 107.76 55.13 120.5 49.6Z" fill="#016A81"/>
<path d="M126.96 47.2C124.86 47.85 122.7 48.64 120.5 49.6C107.75 55.13 98.0101 65.99 92.8101 72.8C97.4001 69.98 102.7 67.46 108.18 66.38C127.6 62.54 140.34 67.22 142.44 68.08C142.52 68.05 142.6 68.01 142.69 67.97C145.56 66.69 150.49 63.18 152.2 55.27C154.47 44.83 143.5 42.12 126.96 47.2Z" fill="#008BAD"/>
<path d="M83.7201 93.41C85.1901 92.91 86.3901 94.26 86.8301 95.55C87.2501 96.78 87.8501 99.17 86.3701 99.93C85.9401 100.15 85.8101 100.76 86.0501 101.16C86.3101 101.6 86.8501 101.71 87.2801 101.48C89.6101 100.28 89.2701 97.01 88.5201 94.94C88.1101 93.82 87.4701 92.81 86.4501 92.15C85.5201 91.54 84.3101 91.31 83.2401 91.67C82.7801 91.83 82.4801 92.29 82.6101 92.78C82.7301 93.23 83.2501 93.57 83.7201 93.41Z" fill="black"/>
<path d="M118.2 73.63C115.92 71.79 113.03 71 110.14 71.61C107.54 72.16 105.22 73.97 103.97 76.3C103.57 77.05 103.78 78.02 104.54 78.46C105.26 78.88 106.29 78.65 106.7 77.89C108.49 74.57 112.96 73.41 115.98 75.86C116.64 76.4 117.56 76.51 118.21 75.86C118.75 75.31 118.86 74.17 118.2 73.63Z" fill="black"/>
<path d="M145.89 173.32C146.29 181.81 146.42 190.32 146.97 198.8C147.06 200.18 149.21 200.19 149.12 198.8C148.56 190.32 148.43 181.81 148.04 173.32C147.97 171.94 145.82 171.93 145.89 173.32Z" fill="#027D01"/>
<path d="M77.68 172.01C76.59 181.03 75.08 190 74.3 199.06C74.18 200.44 76.33 200.43 76.45 199.06C77.23 190 78.75 181.03 79.83 172.01C80 170.64 77.84 170.65 77.68 172.01Z" fill="#027D01"/>
<path d="M106.37 103.65C106.38 103.74 106.4 103.84 106.41 103.93C106.38 103.67 106.42 104.01 106.42 104.06C106.44 104.25 106.46 104.43 106.47 104.62C106.5 105.01 106.51 105.4 106.5 105.8C106.49 106.18 106.47 106.55 106.44 106.93C106.43 107.02 106.42 107.12 106.41 107.21C106.4 107.29 106.38 107.49 106.4 107.3C106.38 107.52 106.33 107.74 106.29 107.95C106.19 108.5 106.44 109.14 107.04 109.27C107.57 109.39 108.25 109.11 108.36 108.52C108.7 106.71 108.72 104.9 108.43 103.08C108.34 102.52 107.62 102.16 107.11 102.33C106.52 102.52 106.28 103.05 106.37 103.65Z" fill="black"/>
<path d="M107.81 106.78C111.11 106.49 114.43 106.69 117.67 107.41C119.02 107.71 119.6 105.64 118.24 105.33C114.82 104.57 111.3 104.31 107.81 104.62C107.23 104.67 106.73 105.08 106.73 105.7C106.74 106.24 107.23 106.83 107.81 106.78Z" fill="black"/>
<path d="M112.16 112.39C112.75 112.33 113.35 112.34 113.94 112.41C113.86 112.4 113.78 112.39 113.7 112.38C114.14 112.44 114.57 112.54 114.99 112.68C115.44 112.83 115.99 112.51 116.1 112.05C116.21 111.55 115.95 111.1 115.47 110.94C114.41 110.59 113.26 110.46 112.16 110.58C111.91 110.61 111.7 110.66 111.52 110.84C111.36 111 111.25 111.25 111.26 111.48C111.28 111.93 111.66 112.44 112.16 112.39Z" fill="black"/>
<path d="M61.79 156.07C60.85 149.16 58.73 136.38 58.73 136.38C58.73 136.38 61.18 135.66 63.47 132.49C66.74 127.98 69.23 128.51 71.38 126.68C73.53 124.85 71.77 123.8 71.77 123.8C71.77 123.8 73.96 124.5 75.73 123.77C77.26 123.13 79.39 119.75 76.74 117.68C76.74 117.68 82.23 117.81 80.83 113.55C79.72 110.15 70.01 108.26 63.98 104.65C58.35 101.28 54.2 102.64 52.39 104.41C50.57 106.17 50.9 106.76 49.54 106.96C48.19 107.16 45.48 107.98 44.74 109.4C44 110.82 43.47 111.45 42.06 112.31C40.64 113.17 37.43 116.15 37.31 120.67C37.19 125.18 36.92 130.66 39.74 133.92L38.71 149.93C38.71 149.93 28.92 188.69 41 198.08C45.83 201.84 63.11 201.84 64.58 188.57C66.43 172.08 62.73 162.98 61.79 156.07Z" fill="#A95630"/>
<path d="M41.2199 122.95C41.9399 123.36 42.7399 123.59 43.5599 123.64C43.7499 123.65 43.9799 123.54 44.1099 123.41C44.2399 123.28 44.3499 123.05 44.3399 122.86C44.3299 122.66 44.2599 122.45 44.1099 122.31C43.9499 122.17 43.7699 122.1 43.5599 122.08C43.4599 122.07 43.3499 122.06 43.2499 122.05C43.3199 122.06 43.3899 122.07 43.4599 122.08C43.0699 122.03 42.6899 121.92 42.3199 121.77C42.3799 121.8 42.4399 121.82 42.5099 121.85C42.3399 121.78 42.1699 121.7 42.0099 121.6C41.8299 121.5 41.6099 121.47 41.4099 121.52C41.2299 121.57 41.0299 121.71 40.9499 121.88C40.7399 122.25 40.8399 122.73 41.2199 122.95Z" fill="black"/>
<path d="M42.97 122.64C42.91 123.15 43 123.67 43.1 124.17C43.19 124.61 43.29 125.05 43.39 125.49C43.6 126.4 43.84 127.3 44.11 128.19C44.23 128.59 44.66 128.85 45.07 128.73C45.47 128.62 45.73 128.18 45.61 127.77C45.35 126.91 45.12 126.04 44.91 125.17C44.81 124.73 44.71 124.29 44.62 123.86C44.53 123.45 44.47 123.07 44.52 122.64C44.57 122.22 44.13 121.86 43.74 121.86C43.28 121.86 43.02 122.22 42.97 122.64Z" fill="black"/>
<path d="M44.3199 124.83C42.1399 124.24 40.1199 126.16 40.5199 128.36C40.9799 130.92 43.9699 131.5 46.1499 131.74C48.3899 131.98 51.0699 131.06 51.5199 128.57C51.7599 127.25 51.4499 125.93 51.1099 124.65C50.7699 123.36 50.7499 122 50.3499 120.73C50.0099 119.64 49.4699 118.6 48.6699 117.77C47.8999 116.96 46.9099 116.38 45.9499 115.82C45.0799 115.32 44.2999 116.66 45.1599 117.16C46.7899 118.1 48.1399 119.09 48.7699 120.93C49.1899 122.14 49.1799 123.45 49.4999 124.69C49.7899 125.83 50.2199 127.08 49.9899 128.27C49.4699 130.94 45.8299 130.22 44.0299 129.73C43.0499 129.47 42.0799 129 41.9999 127.86C41.9299 126.83 42.9199 126.06 43.8899 126.33C44.8799 126.59 45.2899 125.09 44.3199 124.83Z" fill="black"/>
<path d="M49.74 130.37C51.93 132.11 54.48 131.19 56.05 129.11C56.8 128.12 57.31 126.91 57.28 125.65C57.24 124.2 56.66 122.74 56.4 121.31C55.93 118.78 56.05 116.07 54.62 113.83C53.79 112.53 52.59 111.4 51.16 110.81C50.23 110.43 49.83 111.93 50.75 112.31C51.67 112.69 52.52 113.53 53.1 114.33C54.25 115.94 54.32 117.75 54.58 119.64C54.73 120.74 54.92 121.84 55.16 122.93C55.4 124.02 55.9 125.21 55.69 126.34C55.33 128.31 52.89 130.88 50.86 129.27C50.06 128.65 48.95 129.75 49.74 130.37Z" fill="black"/>
<path d="M59.44 124.45C59.93 123.84 60.55 123.32 61.19 122.88C61.86 122.43 62.58 122.05 63.35 121.81C63.93 121.63 64.54 121.61 65.11 121.45C65.29 121.4 65.21 121.47 65.07 121.42C65.13 121.44 65.2 121.46 65.25 121.49C65.51 121.61 65.8 121.7 66.08 121.8C66.94 122.13 67.8 122.47 68.64 122.85C69.4 123.19 70.25 123.53 70.92 124.05C71.64 124.6 71.61 125.28 70.95 125.96C69.93 127 68.37 127.25 67.05 127.72C65.69 128.2 64.56 128.89 63.67 130.04C62.72 131.26 62.14 132.73 61.14 133.9C59.98 135.26 58.29 135.97 56.51 135.93C55.51 135.91 55.51 137.46 56.51 137.49C58.26 137.53 59.97 136.97 61.34 135.87C62.61 134.85 63.34 133.43 64.17 132.07C64.58 131.4 65.02 130.73 65.62 130.22C66.29 129.64 67.13 129.33 67.96 129.06C69.55 128.55 71.27 128.08 72.36 126.71C73.2 125.66 73.31 124.34 72.39 123.31C71.88 122.73 71.17 122.36 70.49 122.02C69.43 121.49 68.33 121.03 67.22 120.6C66.67 120.38 66.06 120.06 65.47 119.94C65.05 119.85 64.56 119.97 64.14 120.04C63.1 120.22 62.09 120.57 61.17 121.09C60.14 121.66 59.09 122.44 58.35 123.37C57.72 124.12 58.82 125.23 59.44 124.45Z" fill="black"/>
<path d="M56.89 110.27C62.16 113.03 67.83 115.16 73.41 117.2C75.14 117.83 78.11 119.45 77.02 121.8C76.16 123.67 73.26 123.45 71.74 122.72C70.84 122.28 70.05 123.62 70.95 124.06C72.65 124.89 74.69 125.1 76.44 124.31C78.14 123.55 79.02 121.89 78.62 120.05C78.16 117.93 76.41 116.75 74.52 115.97C73.54 115.57 72.53 115.27 71.53 114.92C70.29 114.48 69.09 113.9 67.88 113.4C64.44 111.99 60.96 110.65 57.67 108.92C56.79 108.46 56 109.8 56.89 110.27Z" fill="black"/>
<path d="M58.79 118.87C59.14 118.96 59.47 119.11 59.81 119.24C60.42 119.48 61.02 119.72 61.63 119.97C62.28 120.24 62.94 120.51 63.59 120.78C63.65 120.81 63.71 120.83 63.77 120.86C63.85 120.89 63.85 120.89 63.76 120.86C63.8 120.88 63.84 120.89 63.87 120.91C63.99 120.96 64.12 121.02 64.24 121.07C64.45 121.16 64.65 121.25 64.86 121.34C65.24 121.51 65.7 121.45 65.92 121.06C66.11 120.73 66.03 120.17 65.64 120C64.47 119.48 63.28 119 62.1 118.51C61.49 118.26 60.88 118.01 60.27 117.77C59.92 117.63 59.56 117.47 59.2 117.38C58.24 117.12 57.82 118.62 58.79 118.87Z" fill="black"/>
<path d="M61.3201 74.95C63.7001 77.05 64.0801 80.37 63.6201 83.35C63.5501 83.82 63.7401 84.29 64.2301 84.43C64.6501 84.54 65.2401 84.29 65.3101 83.82C65.8601 80.25 65.4301 76.24 62.5601 73.71C61.7101 72.97 60.4701 74.21 61.3201 74.95Z" fill="white"/>
<path d="M61.4699 75.47C61.3799 74.55 61.3199 73.6 61.3799 72.68C61.3699 72.76 61.3599 72.84 61.3499 72.91C61.3299 72.95 61.3099 72.99 61.2899 73.03C61.1899 73.13 61.0799 73.24 60.9799 73.34C60.9099 73.37 60.8399 73.4 60.7699 73.43C60.6899 73.44 60.6099 73.45 60.5399 73.46C60.5499 73.46 60.5499 73.46 60.5599 73.46C60.4799 73.45 60.3999 73.44 60.3299 73.43C60.6999 73.48 61.0799 73.61 61.4399 73.71C61.9599 73.85 62.4699 73.99 62.9799 74.14C63.0699 74.17 63.1599 74.19 63.2499 74.22C63.2799 74.23 63.2999 74.24 63.3299 74.25C63.3399 74.25 63.3499 74.26 63.3599 74.26C63.1699 74.21 62.9499 74.05 62.8599 73.87C62.9599 73.47 63.0699 73.07 63.1699 72.67C62.3899 73.19 61.6199 73.71 60.8499 74.24C60.6199 74.4 60.3899 74.56 60.1599 74.72C59.9699 74.86 59.8199 75.01 59.7599 75.24C59.6999 75.45 59.7299 75.73 59.8499 75.92C60.0899 76.29 60.6499 76.52 61.0499 76.23C61.9399 75.59 62.8499 74.99 63.7599 74.38C63.8599 74.31 63.9599 74.25 64.0599 74.18C64.4699 73.9 64.5999 73.43 64.3699 72.98C64.1899 72.62 63.7299 72.53 63.3799 72.43C62.9999 72.32 62.6199 72.21 62.2399 72.11C61.8799 72.01 61.5199 71.91 61.1499 71.82C61.0499 71.79 60.9399 71.77 60.8399 71.75C60.7499 71.73 60.6499 71.71 60.5499 71.71C60.0599 71.73 59.7199 72.08 59.6499 72.56C59.5899 73.04 59.6199 73.55 59.6299 74.04C59.6499 74.52 59.6799 75 59.7299 75.47C59.7499 75.71 59.8099 75.91 59.9899 76.09C60.1399 76.24 60.3899 76.36 60.6099 76.35C61.0299 76.33 61.5199 75.96 61.4699 75.47Z" fill="white"/>
<path d="M65.53 82.04C65.29 82.44 65.04 82.84 64.77 83.23C64.64 83.42 64.51 83.61 64.37 83.79C64.31 83.88 64.24 83.96 64.17 84.05C64.04 84.23 64.29 83.91 64.15 84.08C64.14 84.1 64.12 84.11 64.11 84.13C64.05 84.2 64.07 84.18 64.18 84.08C64.33 84.04 64.48 84 64.62 83.96C64.77 84 64.92 84.04 65.06 84.08C65.25 84.17 65.27 84.27 65.2 84.18C65.18 84.15 65.15 84.12 65.13 84.1C65.06 84.01 64.99 83.93 64.92 83.84C64.82 83.71 64.72 83.59 64.62 83.46C64.6 83.43 64.58 83.41 64.56 83.38C64.44 83.22 64.68 83.53 64.59 83.42C64.53 83.35 64.48 83.27 64.42 83.2C64.22 82.93 64.01 82.67 63.82 82.4C63.75 82.31 63.69 82.22 63.62 82.13C63.6 82.1 63.58 82.07 63.56 82.04C63.55 82.03 63.55 82.02 63.54 82.01C63.58 82.06 63.66 82.34 63.65 82.43C63.36 82.72 63.07 83.01 62.77 83.31C63.94 83.33 65.11 83.35 66.28 83.37C66.74 83.37 67.18 82.96 67.16 82.49C67.14 82.01 66.77 81.62 66.28 81.61C65.11 81.6 63.94 81.58 62.77 81.55C62.56 81.55 62.3 81.65 62.15 81.81C61.98 81.99 61.93 82.19 61.89 82.43C61.85 82.75 62.14 83.07 62.31 83.3C62.55 83.62 62.79 83.93 63.03 84.25C63.29 84.58 63.54 84.92 63.81 85.24C63.87 85.31 63.92 85.38 63.98 85.44C64.15 85.61 64.38 85.71 64.62 85.71C64.98 85.71 65.24 85.5 65.45 85.23C66.03 84.49 66.56 83.72 67.04 82.91C67.27 82.51 67.14 81.93 66.73 81.71C66.3 81.51 65.78 81.62 65.53 82.04Z" fill="white"/>
</g>
<defs>
<clipPath id="clip0_243_1145">
<rect width="200" height="200" fill="white"/>
</clipPath>
</defs>
</svg>
