<svg width="200" height="200" viewBox="0 0 200 200" fill="none" xmlns="http://www.w3.org/2000/svg">
<g clip-path="url(#clip0_243_1029)">
<path d="M60.88 111.03L59.96 98.03C59.96 98.03 65.21 93.31 65.86 85.96C66.14 82.87 65.69 77.09 61.83 76.14C62.09 76.27 61.89 69.99 58.58 68.61C56.43 67.71 54.52 69.32 54.34 69.1C50.97 64.93 47.22 69.17 47.22 69.17C47.22 69.17 45.17 67.13 42.63 67.64C38.84 68.4 38.76 70.65 38.76 70.65C38.76 70.65 34.96 68.51 31.26 71.63C28.49 73.96 28.38 79.77 28.68 84.92C29.01 90.71 33.93 97.13 38.24 99.97L38.36 111.98L60.88 111.03Z" fill="#E08F8B"/>
<path d="M63.47 76.03C62.45 75.24 61.34 74.57 60.2 73.97C58.36 73 56.37 72.19 54.29 72.01C53.35 71.93 52.36 72.01 51.48 72.36C50.52 72.73 49.94 73.59 49.59 74.52C49.18 75.61 49.18 76.88 49.75 77.91C50.29 78.91 51.33 79.68 52.24 80.31C53.25 81.01 54.34 81.57 55.44 82.11C56.2 82.48 57.04 82.79 57.73 83.29C58.64 83.95 59.51 82.44 58.61 81.78C58.12 81.43 57.55 81.19 57.01 80.93C56.17 80.53 55.33 80.12 54.52 79.66C53.13 78.88 50.8 77.64 51.06 75.74C51.14 75.14 51.46 74.28 52.01 74C52.68 73.66 53.57 73.68 54.3 73.74C55.99 73.89 57.65 74.59 59.15 75.36C59.88 75.74 60.59 76.15 61.29 76.59C61.52 76.74 61.76 76.89 61.99 77.05C62.09 77.12 62.56 77.47 62.26 77.23C62.63 77.52 63.13 77.59 63.49 77.23C63.78 76.96 63.84 76.32 63.47 76.03Z" fill="black"/>
<path d="M58.17 81.67C55.66 81.46 53.08 82.64 51.5 84.59C49.77 86.73 49.21 89.5 49.65 92.19C49.73 92.66 50.3 92.91 50.72 92.8C51.21 92.66 51.41 92.19 51.33 91.73C50.99 89.66 51.46 87.35 52.82 85.72C54.13 84.14 56.11 83.25 58.16 83.42C58.63 83.46 59.03 82.99 59.03 82.55C59.04 82.03 58.64 81.7 58.17 81.67Z" fill="black"/>
<path d="M33.14 79.38C33.79 80.01 34.57 80.48 35.43 80.77C35.63 80.84 35.91 80.79 36.09 80.68C36.27 80.58 36.44 80.37 36.48 80.17C36.59 79.7 36.34 79.27 35.88 79.12C35.76 79.08 35.64 79.03 35.52 78.99C35.59 79.02 35.66 79.05 35.72 79.08C35.32 78.91 34.95 78.69 34.61 78.43C34.67 78.47 34.73 78.52 34.78 78.56C34.63 78.44 34.48 78.31 34.34 78.18C34.18 78.03 33.96 77.93 33.74 77.93C33.53 77.93 33.28 78.02 33.14 78.18C32.99 78.34 32.88 78.56 32.89 78.78C32.9 79 32.98 79.22 33.14 79.38Z" fill="black"/>
<path d="M36.2 78.34C35.71 79.14 35.26 79.99 34.96 80.88C34.74 81.52 34.63 82.23 34.65 82.9C34.67 83.58 34.81 84.29 34.89 84.93C34.95 85.39 35.24 85.79 35.75 85.79C36.17 85.79 36.66 85.4 36.61 84.93C36.56 84.54 36.51 84.15 36.45 83.76C36.44 83.67 36.42 83.58 36.41 83.49C36.43 83.61 36.41 83.47 36.4 83.42C36.38 83.28 36.37 83.15 36.37 83.01C36.34 82.39 36.41 81.95 36.62 81.32C36.66 81.19 36.71 81.07 36.76 80.95C36.71 81.06 36.77 80.93 36.79 80.89C36.82 80.83 36.85 80.76 36.88 80.7C36.99 80.46 37.12 80.22 37.24 79.98C37.38 79.71 37.53 79.45 37.69 79.19C37.93 78.79 37.78 78.25 37.38 78.02C36.97 77.79 36.44 77.94 36.2 78.34Z" fill="black"/>
<path d="M35.82 81.45C33.25 80.25 30.51 82.43 31.04 85.2C31.31 86.61 32.36 87.53 33.61 88.12C35.07 88.81 36.65 89.5 38.29 89.55C41.2 89.63 43.29 87.23 43.92 84.57C44.31 82.92 44.19 81.16 43.8 79.52C43.1 76.63 41.36 74.11 39.3 72.01C38.53 71.22 37.32 72.43 38.09 73.22C40.35 75.51 42.14 78.36 42.41 81.6C42.56 83.35 42.25 85.26 41.06 86.62C39.35 88.57 36.86 87.72 34.83 86.81C33.75 86.32 32.56 85.67 32.69 84.3C32.79 83.23 33.96 82.46 34.97 82.93C35.95 83.39 36.82 81.92 35.82 81.45Z" fill="black"/>
<path d="M46.79 71.8C48.3 74.31 49.15 77.19 49.17 80.12C49.18 81.56 49.03 82.92 47.93 83.94C46.86 84.95 45.34 85.21 43.94 84.88C42.85 84.62 42.38 86.31 43.48 86.56C47.09 87.41 50.56 85.17 50.88 81.41C51.18 77.78 50.17 74.02 48.31 70.92C47.71 69.96 46.2 70.83 46.79 71.8Z" fill="black"/>
<path d="M48.6701 84.26C48.9801 84.8 49.4801 85.22 50.0501 85.46C50.3701 85.6 50.6801 85.7 51.0201 85.77C51.3801 85.84 51.7501 85.88 52.1201 85.92C52.3301 85.94 52.6001 85.81 52.7401 85.66C52.8901 85.51 53.0101 85.26 53.0001 85.04C52.9901 84.81 52.9201 84.58 52.7401 84.42C52.5601 84.25 52.3701 84.19 52.1201 84.16C51.9901 84.14 51.8601 84.13 51.7201 84.11C51.8001 84.12 51.8701 84.13 51.9501 84.14C51.5301 84.08 51.1101 84 50.7201 83.84C50.7901 83.87 50.8601 83.9 50.9301 83.93C50.7201 83.84 50.5301 83.73 50.3501 83.6C50.4101 83.65 50.4701 83.69 50.5301 83.74C50.4001 83.64 50.2801 83.52 50.1801 83.39C50.2301 83.45 50.2701 83.51 50.3201 83.57C50.2701 83.5 50.2201 83.43 50.1801 83.36C49.9501 82.96 49.3801 82.79 48.9901 83.05C48.5901 83.32 48.4301 83.84 48.6701 84.26Z" fill="black"/>
<path d="M54.24 70.6C54.48 71.45 54.72 72.3 54.95 73.15C55.07 73.59 55.57 73.9 56.02 73.76C56.47 73.61 56.76 73.16 56.63 72.69C56.39 71.84 56.15 70.99 55.92 70.14C55.8 69.7 55.3 69.39 54.85 69.53C54.4 69.67 54.1 70.13 54.24 70.6Z" fill="black"/>
<path d="M43.1902 139.1C43.1902 139.1 73.3102 111.77 124.17 113.47C175.03 115.18 184.04 200.21 184.04 200.21H43.4702L43.1902 139.1Z" fill="#E7E6E6"/>
<path d="M99.8401 134.58C97.7501 151.1 96.4501 167.71 96.0201 184.35C95.9001 189.15 95.8501 193.96 95.8501 198.76C95.8501 200.63 98.7501 200.63 98.7501 198.76C98.7201 182.11 99.4801 165.47 101.12 148.9C101.59 144.12 102.14 139.34 102.74 134.58C102.98 132.73 100.07 132.75 99.8401 134.58Z" fill="#B4E2EE"/>
<path d="M135.73 49.08C135.73 49.08 141.7 52.93 143.9 66.8C146.11 80.67 143.38 77.02 147.4 86.29C151.43 95.56 152.11 101.84 151.48 107.64C150.85 113.44 149.57 117.39 149.57 117.39L145.1 112.47C145.1 112.47 145.69 116.95 145.24 120.67C144.79 124.39 142.84 127.37 142.84 127.37L139.41 120.78C139.41 120.78 139.35 124.16 138.91 126.09C138.41 128.3 136.89 130.83 136.89 130.83C136.89 130.83 133.82 126.79 129.87 124.16C124.72 120.73 118.99 118.98 118.99 118.98L119.61 58.02L135.73 49.08Z" fill="#2D2D2D"/>
<path d="M105.85 132.73C105.85 132.73 113.67 133.33 116.23 133.88C119.9 134.66 124.79 136.69 127.55 137.91C128.56 138.36 129.71 137.64 129.72 136.55C129.76 129.77 128.56 109.99 123.27 105.4L105.85 132.73Z" fill="#B4E2EE"/>
<path d="M76.1301 89.64C76.1301 89.64 71.2701 97.69 70.4501 106.32C69.4501 116.75 72.9301 123.5 72.9301 123.5C72.9301 123.5 74.8501 122.12 76.7901 121.01C79.2301 119.61 86.4501 117.71 86.4501 117.71L86.6601 106.07L76.1301 89.64Z" fill="#2D2D2D"/>
<path d="M95.49 131.95C95.49 131.95 88.45 132.94 86.18 133.63C82.64 134.71 78.88 136.33 76.81 137.28C76.1 137.6 75.31 137.02 75.41 136.25C76.16 130.61 78.69 114.69 83.48 109.62L86.43 112.01L91.19 122.01L95.49 131.95Z" fill="#B4E2EE"/>
<path d="M125.04 61.95C125.04 61.95 137.33 58.74 141.65 51.21C145.97 43.68 145.56 36.85 145.56 36.85C145.56 36.85 140.92 40.05 138.37 41.06C135.82 42.08 132.66 42.83 132.66 42.83C132.66 42.83 133.02 42.02 134.3 38.7C135.58 35.38 135.95 32.79 135.95 32.79C135.95 32.79 132.57 37.11 128.72 38.19C124.87 39.27 121.26 39.06 121.26 39.06C121.26 39.06 124.84 36.61 125.94 34.78C127.05 32.95 128.65 29.11 128.65 29.11C128.65 29.11 123.94 31.03 119.85 31.13C115.75 31.24 113.42 30.76 111.86 31.53C110.3 32.29 108.89 34.6 108.89 34.6C108.89 34.6 109.29 32.44 105.98 31.22C102.67 30 101.08 29.65 99 28.61C97 27.61 94.11 25 94.11 25C94.11 25 93.18 26.69 93.19 28.6C93.21 31.32 95.47 33.91 95.47 33.91C95.47 33.91 94.33 34.64 91.42 33.95C87.87 33.11 85.55 30 85.55 30C85.55 30 84.67 31.64 85.1 33.4C85.53 35.16 86.65 36.02 86.65 36.02C86.65 36.02 84.46 35.89 82.35 34.24C80.25 32.6 79.47 31.05 79.47 31.05C79.47 31.05 74.14 34.45 73.19 42C72.24 49.55 72.81 52.48 74.55 57.01C76.29 61.54 78.94 66.1 78.94 66.1L125.04 61.95Z" fill="black"/>
<path d="M86.42 111.94C86.42 111.94 88.27 119.99 92.73 127.82C93.5 129.16 97.21 134.94 99.27 138.13C99.99 139.25 101.55 139.44 102.51 138.51C105.14 135.98 109.79 131.43 111.09 129.49C112.94 126.74 121.9 117.7 123 110.32C123.67 105.85 123.36 87.65 123.36 87.65C123.36 87.65 128.58 93.05 134.2 87.26C137.96 83.39 137.73 73.17 130.83 72.27C126.18 71.66 123.03 75.92 123.03 75.92C123.03 75.92 122.08 76.78 121.98 74.36C121.82 70.47 121.98 61.51 122.33 57.55C122.47 56.02 122.11 54.48 121.28 53.2C119.13 49.89 113.68 44.39 101.16 44.49C83.28 44.64 80.3 48.98 78.8 55.12C77.3 61.26 77.37 66.58 74.25 73.18C71.14 79.78 70.65 82.31 73.38 91.49C77.82 106.41 86.42 111.94 86.42 111.94Z" fill="#F6A7AD"/>
<path d="M98.26 80.23C98.31 80.43 98.27 80.05 98.27 80.25C98.27 80.28 98.27 80.31 98.27 80.34C98.27 80.41 98.27 80.38 98.28 80.26C98.29 80.29 98.25 80.38 98.24 80.41C98.23 80.44 98.22 80.47 98.21 80.5C98.25 80.4 98.26 80.38 98.23 80.44C98.2 80.48 98.18 80.53 98.15 80.58C98.06 80.75 98.27 80.47 98.13 80.61C98.08 80.66 98.03 80.7 97.99 80.75C97.88 80.86 98.07 80.71 97.98 80.76C97.87 80.82 97.77 80.89 97.66 80.95C97.47 81.05 97.83 80.89 97.62 80.97C97.56 80.99 97.49 81.02 97.43 81.04C97.31 81.08 97.19 81.1 97.07 81.13C96.87 81.18 97.18 81.13 97 81.14C96.93 81.14 96.86 81.15 96.78 81.14C96.75 81.14 96.57 81.11 96.71 81.14C96.85 81.17 96.63 81.12 96.61 81.11C96.56 81.1 96.51 81.08 96.46 81.06C96.27 81 96.61 81.15 96.43 81.05C96.37 81.02 96.32 80.99 96.26 80.96C96.24 80.95 96.09 80.84 96.19 80.92C96.29 81 96.13 80.86 96.11 80.84C96.07 80.8 96.04 80.76 96 80.73C95.87 80.58 96.08 80.88 95.98 80.7C95.95 80.64 95.92 80.59 95.88 80.53C95.8 80.39 95.9 80.63 95.88 80.53C95.87 80.48 95.85 80.43 95.83 80.37C95.82 80.32 95.78 80.23 95.79 80.18C95.8 80.29 95.81 80.32 95.8 80.25C95.8 80.22 95.8 80.19 95.8 80.15C95.8 80.11 95.78 79.98 95.81 79.96C95.8 79.99 95.8 80.03 95.79 80.06C95.8 80.02 95.8 79.97 95.81 79.93C95.9 79.49 95.68 78.97 95.2 78.86C94.76 78.76 94.23 78.99 94.13 79.47C93.94 80.35 94.15 81.22 94.72 81.91C95.21 82.51 95.99 82.85 96.76 82.88C98.41 82.94 100.34 81.59 99.91 79.77C99.8 79.33 99.28 79.02 98.84 79.16C98.41 79.31 98.15 79.75 98.26 80.23Z" fill="black"/>
<path d="M94.0401 79.44C94.0301 79.48 94.0201 79.53 94.0101 79.57C93.9801 79.66 93.9801 79.65 94.0201 79.54C94.0201 79.59 93.9201 79.73 93.8801 79.76C94.0401 79.62 93.8601 79.77 93.8201 79.81C93.7801 79.85 93.6401 80.03 93.7701 79.87C93.7201 79.93 93.6001 79.98 93.5301 80.02C93.4801 80.04 93.4401 80.07 93.3901 80.09C93.4801 80.05 93.4801 80.05 93.3801 80.09C93.2101 80.15 93.0301 80.19 92.8501 80.23C92.7501 80.25 92.7501 80.25 92.8501 80.23C92.8001 80.24 92.7501 80.24 92.6901 80.25C92.6601 80.25 92.6301 80.25 92.6001 80.25C92.5501 80.25 92.5101 80.25 92.4601 80.25C92.2501 80.24 92.6501 80.29 92.5101 80.26C92.4201 80.24 92.3301 80.22 92.2401 80.19C92.2001 80.18 92.1201 80.13 92.0801 80.13C92.2201 80.19 92.2501 80.2 92.1701 80.16C92.1501 80.15 92.1301 80.14 92.1101 80.13C92.0101 80.08 91.9201 80 91.8201 79.95C92.0201 80.05 91.9001 80.01 91.8301 79.95C91.7901 79.91 91.7501 79.87 91.7101 79.83C91.6901 79.81 91.6601 79.78 91.6401 79.75C91.5801 79.68 91.6001 79.7 91.6801 79.8C91.6801 79.77 91.5801 79.65 91.5601 79.62C91.5301 79.57 91.5101 79.52 91.4801 79.47C91.4401 79.38 91.4501 79.4 91.5001 79.52C91.4901 79.48 91.4701 79.44 91.4601 79.41C91.4101 79.26 91.3801 79.11 91.3501 78.96C91.3901 79.15 91.3401 78.84 91.3401 78.8C91.3401 78.69 91.3401 78.59 91.3401 78.48C91.3401 78.4 91.3501 78.32 91.3601 78.24C91.3401 78.44 91.3901 78.11 91.3901 78.08C91.4301 77.87 91.5001 77.67 91.5701 77.47C91.7301 77.04 91.3901 76.5 90.9601 76.4C90.4701 76.29 90.0601 76.55 89.8901 77.01C89.3901 78.36 89.4701 80.11 90.5701 81.16C91.4501 82 92.6701 82.19 93.8101 81.79C94.6901 81.48 95.4801 80.86 95.7101 79.91C95.8201 79.47 95.5701 78.95 95.1001 78.84C94.6601 78.73 94.1501 78.96 94.0401 79.44Z" fill="black"/>
<path d="M93.2602 69.31C92.2502 71.76 91.1802 74.18 90.0502 76.59C89.8502 77.01 89.9302 77.53 90.3602 77.78C90.7402 78 91.3502 77.9 91.5502 77.47C92.7402 74.93 93.8702 72.37 94.9302 69.78C95.1102 69.35 94.7402 68.82 94.3202 68.71C93.8302 68.57 93.4402 68.88 93.2602 69.31Z" fill="black"/>
<path d="M112.15 61.48C109.93 59.68 107.3 58.53 104.41 58.47C102.24 58.43 100.08 59 98.36 60.34C97.68 60.87 97.81 62.03 98.36 62.58C99.03 63.25 99.93 63.11 100.6 62.58C100.27 62.83 100.66 62.56 100.79 62.48C100.93 62.39 101.08 62.31 101.23 62.24C101.32 62.2 101.41 62.16 101.49 62.12C101.38 62.17 101.26 62.2 101.44 62.14C101.64 62.07 101.83 62 102.04 61.94C102.23 61.88 102.42 61.84 102.62 61.79C102.73 61.77 102.84 61.74 102.95 61.72C102.99 61.71 103.37 61.66 103.15 61.69C102.94 61.72 103.37 61.67 103.36 61.67C103.46 61.66 103.55 61.65 103.65 61.65C103.9 61.64 104.15 61.63 104.4 61.64C104.63 61.64 104.86 61.66 105.09 61.68C105.14 61.68 105.49 61.72 105.22 61.69C105.33 61.7 105.43 61.72 105.54 61.74C106.06 61.83 106.58 61.97 107.08 62.14C108 62.45 109.03 63.02 109.89 63.72C110.55 64.26 111.48 64.37 112.13 63.72C112.7 63.17 112.81 62.02 112.15 61.48Z" fill="black"/>
<path d="M92.8401 60.23C91.2601 58.79 89.0001 58.29 86.9201 58.34C85.5401 58.37 84.1501 58.64 82.8601 59.12C81.7201 59.54 80.5501 60.07 79.6701 60.95C78.2201 62.4 80.4701 64.64 81.9101 63.19C81.9701 63.13 82.0501 63.07 82.1101 63C82.2301 62.86 81.8201 63.18 82.1301 62.99C82.3101 62.88 82.4801 62.76 82.6701 62.66C82.8701 62.55 83.0801 62.44 83.3001 62.34C83.5201 62.24 83.3201 62.33 83.4601 62.27C83.5701 62.23 83.6801 62.19 83.7801 62.15C84.3201 61.96 84.8601 61.8 85.4201 61.68C86.0401 61.55 86.2601 61.53 86.9201 61.51C87.2001 61.5 87.4801 61.51 87.7601 61.52C87.8801 61.53 87.9901 61.54 88.1101 61.55C88.6301 61.59 87.9701 61.52 88.2601 61.56C88.7001 61.63 89.1401 61.74 89.5701 61.88C89.6501 61.91 89.7201 61.94 89.8001 61.97C89.4601 61.86 89.7101 61.93 89.7901 61.97C89.9301 62.04 90.0701 62.11 90.2101 62.19C90.3401 62.27 90.4601 62.36 90.5901 62.44C90.7701 62.55 90.4901 62.35 90.4601 62.34C90.5101 62.37 90.5701 62.43 90.6201 62.48C91.2501 63.06 92.2401 63.11 92.8601 62.48C93.4201 61.88 93.4701 60.81 92.8401 60.23Z" fill="black"/>
<path d="M97.9501 81.01C97.9501 81.01 101.95 81.89 102.82 84.14C103.23 85.19 102.62 86.03 101.43 86.04C100.24 86.05 98.5101 85.02 98.5101 85.02C98.5101 85.02 98.8801 86.97 97.3201 87.09C95.7601 87.21 94.7301 85.5 94.7301 85.5C94.7301 85.5 94.5201 87.47 92.8301 87.61C91.1401 87.75 90.8601 85.6 90.8601 85.6C90.8601 85.6 88.4501 87.99 86.8401 86.22C85.2301 84.45 87.5201 81.62 89.5101 80.91C91.5001 80.21 91.6801 80.52 91.6801 80.52C91.6801 80.52 92.3101 82.06 94.2601 80.54C94.2601 80.54 94.7401 81.62 96.1201 81.71C97.4801 81.79 97.9501 81.01 97.9501 81.01Z" fill="black"/>
<path d="M75.3901 56.65C75.6901 62.73 72.4801 68.19 71.0601 73.94C69.5901 79.89 70.2901 86.32 72.0301 92.14C73.7301 97.84 76.6001 103.37 80.4701 107.9C84.3801 112.48 90.1901 114.1 96.0401 114.17C101.91 114.24 108.06 112.58 112.34 108.41C113.81 106.98 111.56 104.74 110.1 106.17C106.65 109.53 101.73 110.89 97.0101 111C91.6501 111.12 86.3001 109.88 82.7101 105.67C79.2101 101.56 76.6301 96.47 75.0901 91.31C73.4901 85.95 72.7801 80.07 74.1701 74.59C75.6901 68.61 78.8801 62.99 78.5601 56.66C78.4701 54.62 75.2901 54.61 75.3901 56.65Z" fill="black"/>
<path d="M131.42 76.37C130.15 76.15 128.93 76.51 127.93 77.33C126.93 78.15 126.38 79.39 126.21 80.66C126.05 81.86 126.12 83.28 126.79 84.33C127.52 85.47 128.78 85.86 130.06 86.04C130.52 86.11 130.99 85.93 131.13 85.43C131.24 85.02 130.99 84.43 130.52 84.36C129.78 84.25 128.81 84.15 128.33 83.5C127.83 82.83 127.82 81.76 127.91 80.97C128.08 79.5 129.26 77.76 130.95 78.05C131.41 78.13 131.89 77.93 132.02 77.44C132.14 77.02 131.88 76.45 131.42 76.37Z" fill="black"/>
<path d="M86.3501 93.45C88.2601 95.34 91.3901 96.09 93.9701 96.33C98.2301 96.72 102.31 95.25 105.49 92.45C106.48 91.58 105.03 90.13 104.04 91C101.24 93.47 97.6801 94.62 93.9601 94.28C91.9101 94.09 89.1901 93.39 87.7901 92C86.8601 91.07 85.4101 92.52 86.3501 93.45Z" fill="black"/>
<path d="M102.73 88.37C102.74 89.82 103.37 91.3 104.5 92.22C105.96 93.41 107.83 93.58 109.6 93.09C110.12 92.95 110.49 92.36 110.32 91.83C110.15 91.3 109.61 90.96 109.06 91.11C108.86 91.17 108.65 91.22 108.44 91.26C108.38 91.27 108.33 91.28 108.27 91.29C108.4 91.27 108.41 91.27 108.29 91.29C108.21 91.3 108.13 91.31 108.04 91.31C107.86 91.32 107.68 91.32 107.49 91.31C107.4 91.31 107.32 91.29 107.23 91.29C107.15 91.28 107.18 91.29 107.32 91.3C107.27 91.29 107.23 91.28 107.18 91.28C107.02 91.25 106.86 91.21 106.71 91.16C106.65 91.14 106.58 91.12 106.52 91.09C106.35 91.03 106.72 91.19 106.46 91.06C106.33 91 106.21 90.93 106.09 90.86C106.03 90.82 105.97 90.78 105.91 90.74C105.74 90.63 106.08 90.9 105.89 90.73C105.79 90.64 105.69 90.55 105.6 90.46C105.54 90.4 105.49 90.34 105.44 90.28C105.36 90.18 105.38 90.12 105.45 90.3C105.4 90.18 105.28 90.06 105.21 89.95C105.14 89.83 105.08 89.7 105.01 89.58C104.92 89.39 105.09 89.78 105.02 89.6C104.99 89.53 104.96 89.45 104.94 89.38C104.9 89.25 104.86 89.11 104.83 88.98C104.82 88.92 104.81 88.86 104.8 88.81C104.75 88.52 104.81 88.98 104.8 88.79C104.79 88.65 104.78 88.52 104.78 88.38C104.78 87.84 104.31 87.33 103.76 87.36C103.21 87.38 102.73 87.8 102.73 88.37Z" fill="black"/>
<path d="M91.7901 100.21C93.3601 100.82 95.1501 100.9 96.8201 100.72C98.0501 100.58 99.6001 100.39 100.63 99.64C101.08 99.31 101.3 98.75 101 98.24C100.74 97.8 100.05 97.54 99.6001 97.87C99.4401 97.99 99.2701 98.07 99.0901 98.15C99.3301 98.04 99.0001 98.18 98.9101 98.21C98.7801 98.26 98.6401 98.3 98.5001 98.34C98.2101 98.42 97.9101 98.49 97.6101 98.55C97.2201 98.63 96.9901 98.66 96.7001 98.69C95.1601 98.85 93.7401 98.8 92.3301 98.24C91.8101 98.04 91.2101 98.46 91.0701 98.96C90.9101 99.53 91.2701 100.01 91.7901 100.21Z" fill="black"/>
<path d="M101.07 69.9C101.17 69.75 101.34 69.56 101.56 69.38C101.69 69.28 101.4 69.48 101.64 69.32C101.69 69.29 101.74 69.25 101.8 69.22C101.93 69.14 102.07 69.06 102.22 68.99C102.62 68.8 103.28 68.66 103.73 68.65C104.25 68.64 104.72 68.71 105.21 68.93C105.71 69.15 106.13 69.51 106.43 70.03C106.99 71 108.5 70.12 107.93 69.15C106.2 66.19 101.43 66.21 99.56 69.02C99.3 69.41 99.48 69.98 99.87 70.21C100.3 70.46 100.81 70.29 101.07 69.9Z" fill="black"/>
<path d="M83.12 69.43C83.22 69.28 83.39 69.09 83.61 68.91C83.74 68.81 83.45 69.01 83.69 68.85C83.74 68.82 83.79 68.78 83.85 68.75C83.98 68.67 84.12 68.59 84.27 68.52C84.67 68.33 85.33 68.19 85.78 68.18C86.3 68.17 86.77 68.24 87.26 68.46C87.76 68.68 88.18 69.04 88.48 69.56C89.04 70.53 90.55 69.65 89.98 68.68C88.25 65.72 83.48 65.74 81.61 68.55C81.35 68.94 81.53 69.51 81.92 69.74C82.36 69.99 82.86 69.82 83.12 69.43Z" fill="black"/>
<path d="M147.24 182.1C148.45 187.59 149.28 193.14 149.74 198.74C149.89 200.59 152.79 200.6 152.64 198.74C152.16 192.88 151.3 187.06 150.04 181.33C149.64 179.51 146.84 180.28 147.24 182.1Z" fill="#B4E2EE"/>
<path d="M61.35 187.04C63.05 170.17 57.23 136.24 57.23 136.24C57.23 136.24 58.9 136.03 62.95 132.97C66.64 130.18 70.49 122.02 70.49 122.02C70.49 122.02 76.85 121.06 74.25 112.06C72.75 106.87 72.71 104.05 70.28 102.39C67.85 100.74 59.22 98.03 56.73 99.73C54.24 101.43 54.5 102.18 52.87 102.13C51.24 102.09 47.9 102.49 46.74 104C45.58 105.51 44.83 106.14 42.99 106.86C41.15 107.58 36.78 110.42 35.71 115.69C34.64 120.96 33.2 127.33 35.84 131.73L31.34 150.29C31.34 150.29 22.81 182.17 29.05 192.68C35.31 203.2 59.66 203.92 61.35 187.04Z" fill="#F6A7AD"/>
<path d="M40.2301 119.82C40.9301 120.51 41.7801 121.01 42.7101 121.32C42.9301 121.39 43.2301 121.34 43.4201 121.23C43.6101 121.12 43.8001 120.9 43.8501 120.68C43.9701 120.17 43.7001 119.7 43.2001 119.54C43.0701 119.5 42.9401 119.45 42.8101 119.39C42.8801 119.42 42.9601 119.45 43.0301 119.48C42.6001 119.3 42.2001 119.06 41.8301 118.78C41.8901 118.83 41.9501 118.88 42.0201 118.92C41.8501 118.79 41.7001 118.65 41.5501 118.51C41.3801 118.34 41.1301 118.24 40.9001 118.24C40.6701 118.24 40.4001 118.34 40.2501 118.51C40.0901 118.69 39.9701 118.92 39.9801 119.16C39.9701 119.41 40.0501 119.64 40.2301 119.82Z" fill="black"/>
<path d="M43.5399 118.69C43.0099 119.56 42.5299 120.48 42.1999 121.44C41.9699 122.13 41.8399 122.9 41.8599 123.63C41.8799 124.37 42.0399 125.13 42.1199 125.83C42.1799 126.33 42.4999 126.76 43.0499 126.76C43.4999 126.76 44.0399 126.33 43.9799 125.83C43.9299 125.41 43.8699 124.99 43.8099 124.57C43.7999 124.47 43.7799 124.38 43.7699 124.28C43.7899 124.41 43.7699 124.26 43.7599 124.21C43.7399 124.06 43.7299 123.92 43.7199 123.77C43.6899 123.1 43.7599 122.62 43.9899 121.94C44.0399 121.8 44.0899 121.67 44.1399 121.54C44.0899 121.66 44.1499 121.52 44.1699 121.47C44.1999 121.4 44.2299 121.33 44.2599 121.26C44.3799 121 44.5099 120.74 44.6499 120.48C44.7999 120.19 44.9599 119.9 45.1299 119.62C45.3899 119.19 45.2199 118.6 44.7999 118.35C44.3699 118.1 43.7999 118.26 43.5399 118.69Z" fill="black"/>
<path d="M43.1301 122.06C40.3501 120.76 37.3801 123.12 37.9501 126.12C38.2401 127.65 39.3801 128.64 40.7301 129.28C42.3101 130.03 44.0201 130.78 45.8001 130.83C48.9501 130.92 51.2201 128.32 51.8901 125.44C52.3101 123.65 52.1901 121.75 51.7601 119.97C51.0001 116.84 49.1201 114.11 46.8901 111.84C46.0501 110.99 44.7401 112.3 45.5801 113.15C48.0201 115.63 49.9601 118.71 50.2601 122.22C50.4201 124.12 50.0901 126.18 48.7901 127.66C46.9401 129.77 44.2401 128.85 42.0501 127.86C40.8801 127.33 39.5901 126.63 39.7301 125.14C39.8401 123.99 41.1001 123.15 42.2001 123.66C43.2701 124.16 44.2101 122.56 43.1301 122.06Z" fill="black"/>
<path d="M49.3699 128.9C51.2799 130.25 54.0299 130.61 55.9099 129.06C58.3199 127.07 58.9199 124.21 59.2499 121.23C59.7099 117.1 58.9699 112.7 56.4099 109.34C55.7399 108.47 54.9599 107.61 54.0199 107.03C52.9999 106.4 52.0699 108 53.0899 108.63C53.4499 108.86 53.4699 108.88 53.8499 109.24C54.2699 109.63 54.6499 110.06 54.9899 110.52C56.1399 112.06 56.8699 113.88 57.2399 115.76C57.8199 118.67 57.5099 121.76 56.7499 124.61C56.4099 125.88 55.4299 127.49 54.1599 128.05C52.9099 128.6 51.3299 128.03 50.3099 127.31C49.3299 126.61 48.3999 128.22 49.3699 128.9Z" fill="black"/>
<path d="M56.96 126.79C59.31 127.4 61.89 126.56 63.74 125.05C65.48 123.63 66.54 121.17 66.91 119C67.68 114.45 66.13 109.47 63.04 106.05C62.24 105.16 60.93 106.48 61.73 107.36C64.25 110.16 65.58 114.24 65.19 117.98C64.99 119.94 64.19 122.05 62.76 123.45C61.46 124.73 59.22 125.46 57.45 125C56.3 124.7 55.81 126.49 56.96 126.79Z" fill="black"/>
<path d="M68.77 115.52C68.09 114.94 67.48 114.3 66.93 113.6C66.79 113.43 66.48 113.33 66.28 113.33C66.05 113.33 65.78 113.43 65.63 113.6C65.47 113.78 65.35 114.01 65.36 114.25C65.37 114.33 65.38 114.41 65.39 114.5C65.43 114.66 65.51 114.79 65.63 114.91C66.18 115.61 66.8 116.25 67.47 116.83C67.66 116.99 67.87 117.1 68.12 117.1C68.35 117.1 68.62 117 68.77 116.83C68.93 116.65 69.05 116.42 69.04 116.18C69.03 115.94 68.95 115.68 68.77 115.52Z" fill="black"/>
<path d="M64.7 122.73C66.86 123.6 69.42 124.28 71.62 123.14C72.27 122.81 72.82 122.31 73.36 121.83C74.29 121 74.94 120.02 75.29 118.82C75.61 117.75 75.72 116.58 75.61 115.47C75.56 114.97 75.22 114.54 74.68 114.54C74.22 114.54 73.71 114.97 73.75 115.47C73.92 117.22 73.6 119.14 72.21 120.37C71.99 120.56 71.78 120.75 71.56 120.94C71.5 120.99 71.44 121.04 71.38 121.09C71.24 121.21 71.39 121.08 71.35 121.12C71.22 121.21 71.1 121.3 70.97 121.38C70.83 121.46 70.69 121.54 70.55 121.61C70.39 121.69 70.53 121.62 70.49 121.64C70.39 121.68 70.29 121.71 70.18 121.74C69.73 121.88 69.63 121.89 69.16 121.89C67.79 121.91 66.45 121.44 65.2 120.94C64.74 120.75 64.18 121.14 64.06 121.59C63.91 122.12 64.23 122.54 64.7 122.73Z" fill="black"/>
<path d="M17.93 85.79C23.05 90.45 25.39 97.24 25.73 104.03C25.92 107.77 25.6 111.55 24.96 115.24C24.36 118.7 23.42 122.1 21.57 125.11C20.92 126.17 22.59 127.15 23.24 126.09C25.17 122.94 26.2 119.38 26.83 115.75C27.52 111.73 27.9 107.63 27.64 103.55C27.19 96.43 24.67 89.31 19.3 84.42C18.37 83.59 17 84.95 17.93 85.79Z" fill="white"/>
<path d="M16.8001 87.05C16.6301 85.4 16.5701 83.74 16.6201 82.08C16.6201 81.99 16.6301 81.9 16.6801 81.83C16.7301 81.76 22.2401 83.27 22.2401 83.34C22.2501 83.34 18.1601 86.07 16.8001 87.05Z" fill="white"/>
<path d="M18.3901 87.05C18.2201 85.38 18.1201 83.67 18.2201 81.99C18.2001 82.13 18.1801 82.27 18.1601 82.41C18.1201 82.48 18.0901 82.56 18.0501 82.63C17.8601 82.82 17.6701 83.01 17.4801 83.2C17.3601 83.25 17.2301 83.31 17.1101 83.36C16.9701 83.38 16.8301 83.4 16.6901 83.42C16.7001 83.42 16.7101 83.42 16.7301 83.42C16.5901 83.4 16.4501 83.38 16.3101 83.36C16.9901 83.45 17.6601 83.68 18.3201 83.86C19.2501 84.11 20.1901 84.37 21.1201 84.64C21.2801 84.69 21.4401 84.73 21.6001 84.79C21.6501 84.81 21.7001 84.82 21.7501 84.84C21.7701 84.85 21.7801 84.85 21.8001 84.86C21.4601 84.78 21.0601 84.48 20.8901 84.15C21.0801 83.43 21.2701 82.7 21.4601 81.98C20.0501 82.92 18.6501 83.86 17.2601 84.82C16.8301 85.09 16.4101 85.38 16.0001 85.68C15.6601 85.93 15.3901 86.21 15.2701 86.63C15.1701 87.01 15.2101 87.52 15.4301 87.85C15.8601 88.52 16.8801 88.94 17.6001 88.42C19.2101 87.26 20.8601 86.17 22.5101 85.07C22.6901 84.95 22.8701 84.83 23.0501 84.71C23.8001 84.21 24.0301 83.34 23.6201 82.54C23.2901 81.89 22.4601 81.72 21.8201 81.54C21.1301 81.34 20.4401 81.15 19.7501 80.96C19.1001 80.78 18.4401 80.6 17.7801 80.44C17.5901 80.39 17.4101 80.35 17.2201 80.31C17.0501 80.28 16.8701 80.23 16.7001 80.24C15.8101 80.28 15.1901 80.92 15.0801 81.78C14.9601 82.65 15.0201 83.58 15.0501 84.46C15.0801 85.33 15.1401 86.19 15.2301 87.05C15.2701 87.48 15.3801 87.86 15.7001 88.17C15.9801 88.45 16.4301 88.65 16.8201 88.64C17.5901 88.6 18.4801 87.93 18.3901 87.05Z" fill="white"/>
<path d="M26.2301 124.93C24.9201 125.95 23.5401 126.88 22.1001 127.71C22.0301 127.75 21.9401 127.8 21.8601 127.79C21.7701 127.78 20.3001 122.53 20.3501 122.49C20.3501 122.49 24.6801 124.3 26.2301 124.93Z" fill="white"/>
<path d="M25.1102 123.81C25.4502 123.55 25.1402 123.79 25.0802 123.83C24.9902 123.9 24.9002 123.96 24.8102 124.03C24.6602 124.14 24.5102 124.25 24.3602 124.36C24.0202 124.61 23.6702 124.85 23.3102 125.09C22.9702 125.32 22.6302 125.54 22.2902 125.75C22.1202 125.86 21.9402 125.96 21.7702 126.07C21.6802 126.13 21.5802 126.18 21.4802 126.24C21.4502 126.26 21.4202 126.28 21.3802 126.3C21.1102 126.44 21.2702 126.42 21.8502 126.22C22.1202 126.29 22.3802 126.36 22.6502 126.44C22.6302 126.43 23.2502 127.05 23.2102 126.99C23.1102 126.85 23.3902 127.46 23.3502 127.32C23.3402 127.28 23.3202 127.24 23.3102 127.2C23.2602 127.07 23.2202 126.94 23.1802 126.81C23.0502 126.41 22.9402 126 22.8202 125.59C22.5502 124.67 22.3002 123.76 22.0502 122.83C22.0102 122.67 21.9602 122.51 21.9302 122.34C21.9202 122.29 21.9102 122.24 21.9002 122.19C21.9002 122.17 21.8902 122.15 21.8902 122.13C22.0002 122.47 21.9302 122.98 21.7302 123.31C21.1302 123.55 20.5302 123.8 19.9402 124.04C21.9002 124.86 23.8502 125.68 25.8202 126.48C26.1802 126.63 26.7302 126.5 27.0402 126.32C27.3702 126.13 27.6802 125.75 27.7702 125.37C27.8602 124.96 27.8402 124.51 27.6102 124.15C27.3702 123.78 27.0702 123.59 26.6602 123.42C24.7002 122.62 22.7402 121.8 20.7802 120.98C20.4702 120.85 20.0402 120.94 19.7502 121.06C19.4302 121.19 19.1702 121.41 18.9902 121.71C18.5902 122.38 18.8602 123.14 19.0402 123.82C19.2202 124.51 19.4102 125.19 19.6102 125.88C19.7902 126.5 19.9602 127.12 20.1602 127.74C20.2502 128.01 20.3302 128.32 20.4702 128.57C20.6102 128.83 20.8102 129.04 21.0702 129.19C21.7502 129.59 22.4802 129.37 23.1102 129C24.6002 128.13 26.0002 127.14 27.3702 126.08C27.6702 125.85 27.8402 125.31 27.8402 124.96C27.8402 124.57 27.6702 124.1 27.3702 123.84C27.0702 123.56 26.6702 123.36 26.2502 123.37C25.7802 123.36 25.4602 123.54 25.1102 123.81Z" fill="white"/>
</g>
<defs>
<clipPath id="clip0_243_1029">
<rect width="200" height="200" fill="white"/>
</clipPath>
</defs>
</svg>
