<svg width="200" height="200" viewBox="0 0 200 200" fill="none" xmlns="http://www.w3.org/2000/svg">
<g clip-path="url(#clip0_259_537)">
<path d="M18.58 53.64C25.51 50.2 36.4 49.93 44.29 49.26C50 48.78 58.42 48.73 65.75 49.24C81.03 51.7 84.95 53.65 88.98 60.6C91.76 65.4 91.83 71.48 88.98 75.75C85.2 81.4 81 82.97 74.47 83.5C74.64 84.44 74.94 85.42 75.36 86.35C76.43 88.66 78.57 91.21 80.31 93.04C81.22 94 80.45 95.57 79.17 95.39C75.79 94.91 70.81 93.44 67.31 89.14C65.39 86.79 64.6 85.16 64.18 83.86C56.31 84 49.28 83.95 41.25 84.2C40.81 84.21 40.4 84.22 39.97 84.23C39.97 84.23 35.27 84.3 29.19 84.3C17.38 84.3 12.27 79 10.72 72.04C8.65 62.82 11.02 57.39 18.58 53.64Z" fill="#A4CF61"/>
<path d="M90.38 170.79C90.38 170.79 83.44 168.9 81.33 166.79L74.6 171.84L81.96 188.25L86.59 187.83L90.38 170.79Z" fill="#BA6D51"/>
<path d="M183.65 194.84L184.64 184.28L159.18 181.72L157.21 200.29H183.35C183.35 200.29 183.37 197.8 183.65 194.84Z" fill="#CF806F"/>
<path d="M90.38 170.79C90.38 170.79 87.4 169.89 84.45 168.83C80.79 167.51 78.3 166.04 78.3 166.04C77.05 165.02 76.1 163.83 76.65 162.35C78.44 157.48 82.89 146.7 90.38 136.39C100.48 122.5 110.58 120.3 110.58 120.3C118.15 118.09 151.08 120.13 163.44 126.61C171.7 130.94 181.54 137.68 185.37 146.18C188.96 154.15 190.15 173.98 189.31 182.82C189.21 183.89 188.27 184.96 187.22 185.18C183 186.09 173.18 187.43 158.64 184.89L157.49 200.3L82.41 200.31C82.76 199.76 90.38 170.79 90.38 170.79Z" fill="#802A84"/>
<path d="M160.25 73.9C160.25 73.9 162 69.75 165.22 67.82C170.1 64.89 177.5 63.94 183.6 71.17C188.61 77.11 186.63 90.1 178.61 108.02C174.01 118.3 176.24 127.59 176.24 127.59C176.24 127.59 164.43 122.43 160.47 109.26C158.25 101.86 160.25 73.9 160.25 73.9Z" fill="black"/>
<path d="M110.56 71.6001C110.56 71.6001 103.71 97.7201 108 109.02C112.29 120.32 118.01 126.49 137.04 125.12C149.01 124.26 154.28 122.08 154.28 122.08L155.42 112.2L155.86 78.0801L130.16 64.6801L110.56 71.6001Z" fill="#CF806F"/>
<path d="M155.37 108.62L155.8 123.94C155.8 123.94 154.28 132.31 143.32 136.42C142.15 136.86 141.02 137.22 139.94 137.53C132.4 139.67 124.7 134.65 124.6 127.55L124.41 114.45L155.37 108.62Z" fill="#CF806F"/>
<path d="M155.8 80.3901C155.8 80.3901 140.93 76.7001 135.02 71.6401C129.85 67.2101 129.39 65.9401 129.39 65.9401C129.39 65.9401 117.24 75.8901 107.44 70.8801C102.94 68.5801 102.68 65.0201 102.68 65.0201C102.68 65.0201 110.34 61.7901 113.46 58.2901C120.28 50.6401 131.43 45.4301 144.29 49.3201C167.14 56.2201 167.68 74.5201 167.68 74.5201C167.68 74.5201 174.77 77.3701 172.17 90.9001C168.71 108.89 155.41 112.2 155.41 112.2L155.8 80.3901Z" fill="black"/>
<path d="M153.17 94.43C153.17 94.43 154.02 92.57 155.85 91.3C157.47 90.17 159.89 89.51 162.49 90.81C167.89 93.51 166.33 99.82 163.14 103.59C159.95 107.36 153.29 105.11 153.29 105.11L153.17 94.43Z" fill="#CF806F"/>
<path d="M148.4 72.53C148.4 72.53 144.03 94.63 147.1 96.36C150.26 98.14 153.16 94.42 153.16 94.42C153.16 94.42 154.43 91.86 156.65 90.8L157.49 77.14L148.4 72.53Z" fill="black"/>
<path d="M112.69 83.4101C111.9 82.2401 112.71 78.4801 117.91 79.8601C121.69 80.8601 122.99 82.6401 122.03 84.9601C121.27 86.8301 118.59 85.6101 116.61 85.0401C114.66 84.4701 113.41 84.4701 112.69 83.4101Z" fill="white"/>
<path d="M140.37 90.5101C141.38 89.9701 142.31 86.0301 136.86 84.8101C132.9 83.9201 130.15 85.0201 130.66 87.9301C130.97 89.6901 133.14 89.6601 135.24 90.0801C137.31 90.5001 138.8 91.3501 140.37 90.5101Z" fill="white"/>
<path d="M109.72 68.2001C108.63 73.5001 107.67 78.8301 106.81 84.1701C105.55 92.0201 103.77 100.53 105.89 108.36C107.49 114.25 111.15 120.84 116.67 123.88C124.67 128.29 135.19 127.4 143.85 125.88C145.95 125.51 145.06 122.31 142.97 122.68C134.95 124.09 123.23 125.31 116.42 119.75C111.14 115.43 108.25 107.65 108.2 101.02C108.12 90.4301 110.79 79.4201 112.91 69.0801C113.34 67.0001 110.15 66.1101 109.72 68.2001Z" fill="black"/>
<path d="M135.01 101.78C134.89 103.13 135.43 104.45 136.29 105.46C137.16 106.49 138.42 107.13 139.76 107.23C140.2 107.26 140.63 106.82 140.61 106.38C140.59 105.89 140.24 105.57 139.76 105.53C139.7 105.53 139.63 105.52 139.57 105.51C139.79 105.56 139.59 105.51 139.54 105.5C139.41 105.48 139.29 105.44 139.16 105.41C139.1 105.39 139.04 105.37 138.98 105.35C138.9 105.32 138.81 105.28 138.94 105.34C138.82 105.29 138.71 105.23 138.59 105.17C138.48 105.11 138.37 105.04 138.26 104.97C138.21 104.93 138.15 104.9 138.1 104.86C137.94 104.75 138.2 104.95 138.07 104.83C137.87 104.65 137.67 104.47 137.49 104.26C137.47 104.24 137.34 104.07 137.41 104.17C137.48 104.27 137.36 104.09 137.34 104.07C137.27 103.96 137.2 103.85 137.13 103.74C137.07 103.63 137.01 103.51 136.95 103.39C136.94 103.36 136.92 103.33 136.91 103.3C136.95 103.39 136.96 103.41 136.93 103.35C136.91 103.29 136.88 103.23 136.86 103.17C136.82 103.05 136.78 102.92 136.75 102.8C136.73 102.74 136.72 102.67 136.71 102.61C136.7 102.58 136.68 102.37 136.69 102.5C136.7 102.63 136.68 102.41 136.68 102.39C136.68 102.33 136.67 102.26 136.67 102.2C136.67 102.06 136.67 101.92 136.69 101.78C136.73 101.34 136.27 100.91 135.84 100.93C135.37 100.95 135.05 101.31 135.01 101.78Z" fill="black"/>
<path d="M130.8 111.75C130.63 111.85 130.46 111.95 130.28 112.03C130.46 111.95 130.17 112.07 130.14 112.08C130.05 112.11 129.95 112.14 129.86 112.17C129.77 112.2 129.67 112.22 129.57 112.24C129.53 112.25 129.22 112.29 129.43 112.27C129.25 112.29 129.06 112.3 128.88 112.3C128.7 112.3 128.51 112.29 128.33 112.27C128.54 112.29 128.23 112.25 128.19 112.24C128.09 112.22 128 112.2 127.9 112.17C127.81 112.14 127.71 112.12 127.62 112.08C127.59 112.07 127.3 111.95 127.48 112.03C127.3 111.95 127.13 111.86 126.96 111.75C126.58 111.52 126.01 111.66 125.8 112.05C125.58 112.46 125.7 112.96 126.1 113.21C127.77 114.24 129.99 114.24 131.66 113.21C132.04 112.98 132.22 112.44 131.96 112.05C131.72 111.67 131.21 111.5 130.8 111.75Z" fill="black"/>
<path d="M135.41 105C132.19 108.29 127.19 109.13 123.09 107.01C122.12 106.51 121.26 107.97 122.23 108.47C127 110.94 132.84 110.05 136.61 106.2C137.38 105.41 136.18 104.21 135.41 105Z" fill="black"/>
<path d="M133.43 80.06C133.62 80.01 133.82 79.98 134.02 79.94C134.34 79.88 133.77 79.96 133.98 79.94C134.08 79.93 134.18 79.92 134.28 79.91C134.68 79.88 135.07 79.9 135.47 79.93C135.7 79.95 135.47 79.94 135.38 79.91C135.47 79.94 135.58 79.94 135.68 79.96C135.88 80 136.07 80.04 136.26 80.09C136.45 80.14 136.64 80.2 136.83 80.26C136.92 80.29 137.02 80.33 137.11 80.36C137.41 80.47 136.9 80.26 137.09 80.35C137.43 80.51 137.77 80.68 138.1 80.88C138.27 80.99 138.43 81.1 138.6 81.22C138.86 81.4 138.43 81.07 138.59 81.21C138.66 81.28 138.74 81.34 138.82 81.4C139.12 81.66 139.39 81.95 139.65 82.26C139.81 82.45 139.6 82.26 139.6 82.2C139.6 82.24 139.74 82.4 139.77 82.44C139.89 82.62 140.01 82.81 140.11 83C140.54 83.78 141.67 84.1 142.43 83.61C143.22 83.1 143.5 82.12 143.04 81.29C141.02 77.65 136.55 75.77 132.53 76.77C131.67 76.98 131.07 78 131.35 78.86C131.64 79.77 132.51 80.29 133.43 80.06Z" fill="black"/>
<path d="M123.07 74.4401C121.63 73.2401 119.92 72.5701 118.04 72.4901C116.34 72.4201 114.54 72.9001 113.15 73.9001C112.43 74.4201 112.01 75.4001 112.54 76.2201C113 76.9301 114.09 77.3801 114.86 76.8301C115.12 76.6401 115.39 76.4701 115.67 76.3301C115.69 76.3201 115.9 76.1901 115.92 76.2101C115.91 76.2001 115.57 76.3401 115.83 76.2501C115.99 76.1901 116.15 76.1401 116.31 76.0901C116.47 76.0401 116.64 76.0001 116.8 75.9701C116.87 75.9501 116.95 75.9401 117.02 75.9301C117.25 75.8801 116.99 75.9401 116.9 75.9401C117.24 75.9301 117.57 75.8801 117.91 75.8901C118.06 75.8901 118.21 75.9101 118.36 75.9201C118.68 75.9401 118.09 75.8701 118.3 75.9101C118.37 75.9201 118.45 75.9301 118.52 75.9501C118.83 76.0101 119.14 76.0901 119.45 76.1901C119.54 76.2201 119.63 76.2601 119.71 76.2901C119.92 76.3601 119.42 76.1501 119.62 76.2501C119.77 76.3301 119.92 76.4001 120.07 76.4801C120.2 76.5501 120.33 76.6301 120.45 76.7101C120.53 76.7601 120.6 76.8201 120.68 76.8701C120.86 76.9901 120.36 76.6101 120.65 76.8501C121.33 77.4201 122.39 77.5701 123.05 76.8501C123.64 76.2101 123.79 75.0501 123.07 74.4401Z" fill="black"/>
<path d="M132.29 88.67C134.47 88.67 134.48 85.28 132.29 85.28C130.11 85.28 130.1 88.67 132.29 88.67Z" fill="black"/>
<path d="M114.01 83.8701C116.19 83.8701 116.2 80.4801 114.01 80.4801C111.82 80.4801 111.82 83.8701 114.01 83.8701Z" fill="black"/>
<path d="M161 95.2001C160.1 94.7701 159.05 94.8701 158.2 95.3801C157.4 95.8501 156.88 96.6901 156.68 97.5901C156.48 98.5001 156.58 99.4201 157.08 100.22C157.56 101 158.34 101.69 159.25 101.89C159.68 101.98 160.19 101.76 160.29 101.3C160.39 100.87 160.16 100.36 159.7 100.26C159.63 100.25 159.57 100.23 159.5 100.21C159.46 100.2 159.41 100.18 159.37 100.16C159.45 100.19 159.47 100.2 159.41 100.17C159.35 100.13 159.28 100.1 159.22 100.06C159.19 100.04 158.98 99.8901 159.12 100C159 99.9101 158.89 99.8001 158.78 99.6901C158.73 99.6301 158.68 99.5701 158.63 99.5101C158.74 99.6401 158.59 99.4401 158.58 99.4301C158.5 99.3001 158.42 99.1701 158.36 99.0301C158.44 99.1901 158.35 99.0001 158.34 98.9601C158.31 98.8801 158.3 98.8001 158.28 98.7201C158.27 98.6601 158.27 98.6801 158.28 98.7801C158.28 98.7401 158.27 98.7101 158.27 98.6701C158.26 98.5801 158.26 98.5001 158.26 98.4101C158.26 98.3301 158.27 98.2601 158.27 98.1801C158.28 98.0001 158.24 98.3001 158.28 98.1001C158.32 97.9501 158.35 97.8001 158.4 97.6501C158.42 97.6101 158.49 97.4301 158.43 97.5701C158.46 97.5001 158.5 97.4301 158.53 97.3701C158.57 97.2901 158.62 97.2201 158.67 97.1501C158.71 97.1001 158.7 97.1101 158.65 97.1701C158.67 97.1401 158.7 97.1101 158.72 97.0901C158.77 97.0401 158.83 96.9901 158.87 96.9401C158.92 96.9001 158.9 96.9101 158.84 96.9601C158.88 96.9301 158.92 96.9001 158.96 96.8801C159.02 96.8401 159.09 96.8001 159.15 96.7701C159.19 96.7501 159.39 96.6801 159.22 96.7301C159.36 96.6801 159.5 96.6401 159.65 96.6101C159.46 96.6501 159.67 96.6101 159.72 96.6101C159.79 96.6101 159.86 96.6101 159.94 96.6101C160.11 96.6101 159.82 96.5801 160.03 96.6301C160.08 96.6401 160.3 96.7401 160.12 96.6501C160.52 96.8401 161.05 96.7701 161.28 96.3501C161.51 95.9801 161.43 95.4001 161 95.2001Z" fill="black"/>
<path d="M129.41 95.09C129.19 95.56 128.92 96.01 128.62 96.43C128.59 96.47 128.44 96.66 128.58 96.49C128.54 96.54 128.5 96.59 128.46 96.63C128.38 96.72 128.31 96.8 128.22 96.88C128.19 96.9 128.17 96.93 128.14 96.95C128.24 96.87 128.27 96.85 128.22 96.89C128.16 96.92 128.1 96.96 128.04 97C128 97.02 127.77 97.11 127.94 97.05C127.87 97.07 127.8 97.1 127.73 97.12C127.66 97.14 127.59 97.15 127.51 97.16C127.7 97.13 127.49 97.15 127.44 97.15C127.37 97.15 127.22 97.14 127.38 97.16C127.3 97.15 127.22 97.11 127.13 97.1C127.07 97.08 127.08 97.09 127.16 97.12C127.12 97.1 127.08 97.08 127.05 97.06C126.99 97.03 126.94 96.99 126.89 96.96C127.05 97.06 126.91 96.97 126.87 96.93C126.82 96.89 126.78 96.84 126.74 96.79C126.61 96.66 126.81 96.91 126.72 96.76C126.68 96.7 126.64 96.63 126.61 96.57C126.57 96.5 126.54 96.44 126.51 96.37C126.57 96.5 126.53 96.41 126.5 96.33C126.46 96.21 126.42 96.08 126.39 95.95C126.38 95.89 126.37 95.82 126.35 95.76C126.34 95.66 126.34 95.67 126.35 95.79C126.34 95.75 126.34 95.7 126.34 95.66C126.3 95.22 125.98 94.79 125.49 94.81C125.07 94.83 124.6 95.19 124.64 95.66C124.72 96.49 124.95 97.29 125.49 97.94C126.08 98.65 126.98 98.92 127.87 98.79C129.35 98.57 130.27 97.19 130.86 95.92C131.05 95.52 130.99 94.99 130.56 94.76C130.2 94.59 129.61 94.66 129.41 95.09Z" fill="black"/>
<path d="M124.53 95.26C124.31 95.83 123.4 96.31 122.86 95.86C122.1 95.21 122.85 93.82 123.13 93.14C124.07 90.86 125.14 88.64 126.24 86.44C126.73 85.47 125.27 84.61 124.78 85.58C124.04 87.06 123.32 88.55 122.64 90.05C122.3 90.81 121.96 91.58 121.64 92.35C121.33 93.09 120.97 93.83 120.88 94.63C120.73 95.97 121.46 97.42 122.87 97.64C124.37 97.88 125.62 97.1 126.16 95.71C126.33 95.28 125.98 94.78 125.57 94.67C125.09 94.53 124.7 94.83 124.53 95.26Z" fill="black"/>
<path d="M118.27 153.8C118.27 153.8 101.83 148.64 102.96 142.48C103.39 140.15 105.53 139.39 107.42 140.18C109.31 140.97 116.26 144.76 120.2 145.7C124.14 146.65 131.72 147.59 136.77 153.75C141.82 159.9 159.81 200.3 159.81 200.3L136.46 200.25C136.25 199.62 131.1 175.21 131.1 175.21C131.1 175.21 130.19 175.24 128.81 174.89C127.76 174.63 126.76 173.94 126.76 173.94C126.76 173.94 129.94 176.68 128.26 178.36C126.58 180.04 121.95 179.2 119 176.68C116.05 174.16 117.53 171.81 117.53 171.81C117.53 171.81 115.79 171.96 114.93 169.76C113.9 167.16 114.46 164.63 114.46 164.63C114.46 164.63 111.29 160.12 114.27 156.22C115.46 154.65 118.27 153.8 118.27 153.8Z" fill="#CF806F"/>
<path d="M159.98 165.19C159.6 169.73 158.91 174.24 158.32 178.76C157.61 184.2 156.9 189.65 156.19 195.09C156.05 196.17 157.75 196.16 157.89 195.09C158.6 189.65 159.31 184.2 160.02 178.76C160.61 174.25 161.3 169.73 161.68 165.19C161.77 164.1 160.07 164.1 159.98 165.19Z" fill="black"/>
<path d="M155.63 166.99C156.53 168.93 157.67 170.73 158.99 172.42C159.27 172.77 159.9 172.73 160.19 172.42C160.53 172.05 160.48 171.59 160.19 171.22C159.65 170.53 159.03 169.64 158.53 168.82C158 167.95 157.52 167.06 157.1 166.14C156.91 165.74 156.3 165.6 155.94 165.84C155.52 166.1 155.43 166.56 155.63 166.99Z" fill="black"/>
<path d="M159.67 198.82C157.94 195.18 156.24 191.52 154.51 187.88C154.04 186.89 152.58 187.75 153.05 188.74C154.78 192.38 156.48 196.04 158.21 199.68C158.68 200.66 160.14 199.8 159.67 198.82Z" fill="black"/>
<path d="M133.33 172.57C131.2 174.46 128.1 173.85 125.84 172.59C124.89 172.06 124.03 173.52 124.98 174.05C127.96 175.71 131.8 176.19 134.53 173.76C135.34 173.04 134.14 171.84 133.33 172.57Z" fill="black"/>
<path d="M122.41 160.78C120.38 160.62 118.15 161.06 116.49 162.28C115.64 162.9 114.92 163.69 114.5 164.66C113.99 165.83 113.92 167.08 114.17 168.33C114.26 168.78 114.79 169.04 115.21 168.92C115.68 168.79 115.89 168.33 115.8 167.88C115.44 166.14 116.17 164.51 117.6 163.57C119.02 162.63 120.73 162.34 122.41 162.48C122.87 162.52 123.26 162.06 123.26 161.63C123.26 161.14 122.87 160.82 122.41 160.78Z" fill="black"/>
<path d="M120.67 153.4C116.72 152.98 113.01 155.66 112.08 159.51C111.82 160.57 113.46 161.02 113.72 159.96C114.07 158.52 114.88 157.2 116.07 156.31C117.4 155.32 119.04 154.92 120.67 155.1C121.13 155.15 121.52 154.68 121.52 154.25C121.52 153.75 121.13 153.45 120.67 153.4Z" fill="black"/>
<path d="M126.84 174.88C128.21 175.95 127.09 177.68 125.75 178.15C125.06 178.39 124.17 178.33 123.46 178.23C122.73 178.13 121.99 177.91 121.33 177.57C120.03 176.89 118.91 175.66 118.8 174.14C118.68 172.54 119.55 170.95 120.8 169.98C122.46 168.7 124.64 168.39 126.68 168.46C127.77 168.5 127.77 166.8 126.68 166.76C124.31 166.68 121.81 167.12 119.87 168.57C118.15 169.86 116.93 172.02 117.11 174.22C117.29 176.35 118.72 178.17 120.61 179.1C122.34 179.95 124.87 180.45 126.68 179.59C127.72 179.1 128.65 178.15 129.03 177.05C129.44 175.87 129.01 174.45 128.03 173.68C127.67 173.4 127.19 173.33 126.83 173.68C126.55 173.97 126.48 174.6 126.84 174.88Z" fill="black"/>
<path d="M134.14 174.05L132.04 179.94L131.09 175.21L134.14 174.05Z" fill="black"/>
<path d="M94.27 155.64C94.2 159.11 92.63 162.36 91.69 165.64C90.63 169.32 89.59 173 88.53 176.68C86.41 184.12 84.28 191.55 82.16 198.99C81.86 200.04 83.5 200.49 83.8 199.44C85.97 191.85 88.14 184.25 90.31 176.66C91.36 172.98 92.39 169.29 93.46 165.62C94.43 162.32 95.89 159.13 95.97 155.63C95.98 154.55 94.29 154.55 94.27 155.64Z" fill="black"/>
<path d="M54 112.35C53.61 112.27 21.79 107.72 19.04 107.3C15.54 106.76 12.43 112.56 22.81 114.63C32.09 116.49 37.02 118.29 37.02 118.29C37.02 118.29 30.26 119 30.61 123.43C30.61 123.43 30.57 124.88 31.61 126.28C31.61 126.28 29.83 128.98 31.31 130.58C32.79 132.18 33.76 132.2 33.76 132.2C33.76 132.2 34.47 138.19 38.86 137.63L42.28 137.37C42.28 137.37 44.66 141.99 53.61 140.89C53.61 140.89 57.02 170.69 59.29 182.86C61.56 195.03 68.63 197.15 74.59 197.83C80.55 198.51 89.17 191.9 83.52 173.62C77.87 155.34 69.8 135.5 68.29 131.04C65.32 122.31 59.28 113.46 54 112.35Z" fill="#CF806F"/>
<path d="M52.63 118.51C49.63 118.96 46.62 119.36 43.63 119.85C41.58 120.18 39.2 120.93 38.43 123.09C37.75 125 38.66 127.27 40.48 128.17C41.61 128.73 42.94 128.76 44.17 128.87C45.81 129.01 47.46 129.15 49.1 129.3C48.8 129 48.5 128.7 48.2 128.4C48.04 131.5 49.27 134.81 52 136.5C54.32 137.94 57.62 137.68 59.4 135.5C60.13 134.61 58.86 133.33 58.13 134.23C56.77 135.9 54.39 136 52.68 134.8C50.65 133.37 49.88 130.78 50.01 128.41C50.04 127.89 49.57 127.55 49.11 127.51C47.91 127.41 46.71 127.3 45.5 127.2C44.37 127.1 43.18 127.1 42.07 126.84C40.33 126.43 39.22 124.35 40.65 122.91C41.9 121.65 44.18 121.59 45.83 121.34C48.26 120.98 50.69 120.62 53.11 120.26C54.25 120.08 53.76 118.34 52.63 118.51Z" fill="black"/>
<path d="M37.75 122.18C38.4 122.42 39.07 122.61 39.75 122.76C39.99 122.81 40.23 122.79 40.44 122.67C40.63 122.56 40.8 122.35 40.85 122.13C40.9 121.9 40.89 121.64 40.76 121.44C40.64 121.25 40.45 121.08 40.22 121.03C39.54 120.88 38.87 120.69 38.22 120.45C38.01 120.37 37.71 120.43 37.53 120.54C37.34 120.65 37.17 120.86 37.12 121.08C37.07 121.31 37.08 121.57 37.21 121.77C37.34 121.97 37.51 122.1 37.75 122.18Z" fill="black"/>
<path d="M40.57 126.35C39.67 126.31 38.77 126.3 37.87 126.2C37.79 126.19 37.71 126.18 37.63 126.17C37.42 126.15 37.78 126.19 37.66 126.17C37.62 126.16 37.58 126.16 37.54 126.15C37.34 126.12 37.15 126.09 36.95 126.05C36.43 125.95 35.92 125.82 35.41 125.7C34.95 125.59 34.41 125.85 34.3 126.33C34.19 126.8 34.44 127.31 34.93 127.44C35.88 127.68 36.84 127.89 37.81 128C38.73 128.1 39.65 128.11 40.57 128.15C41.04 128.17 41.49 127.72 41.47 127.25C41.45 126.74 41.08 126.37 40.57 126.35Z" fill="black"/>
<path d="M44.91 128.99C45.49 129.71 44.7 130.84 44.09 131.24C43.06 131.9 41.76 131.94 40.58 131.9C39.2 131.85 37.82 131.7 36.46 131.49C35.14 131.29 33.73 131.1 32.55 130.44C31.54 129.88 30.63 131.43 31.64 131.99C33.19 132.85 35.01 133.09 36.74 133.33C38.49 133.57 40.33 133.83 42.11 133.67C43.64 133.53 45.21 133.02 46.15 131.73C47.04 130.5 47.15 128.93 46.19 127.73C45.45 126.82 44.19 128.1 44.91 128.99Z" fill="black"/>
<path d="M43.25 133.9C43.6 134.17 44.17 134.57 44.25 135.05C44.31 135.45 43.91 135.78 43.6 135.96C43.53 136 43.46 136.03 43.4 136.07C43.34 136.1 43.36 136.09 43.45 136.05C43.4 136.07 43.35 136.09 43.31 136.1C43.13 136.15 42.96 136.21 42.78 136.25C42.34 136.35 41.95 136.41 41.56 136.45C39.76 136.64 37.88 136.68 36.08 136.48C35.6 136.43 35.18 136.93 35.18 137.38C35.18 137.91 35.59 138.23 36.08 138.28C38.26 138.52 40.58 138.47 42.74 138.09C43.9 137.89 45.05 137.45 45.7 136.4C46.72 134.77 45.44 133.31 44.17 132.35C43.78 132.06 43.16 132.29 42.94 132.67C42.65 133.13 42.86 133.6 43.25 133.9Z" fill="black"/>
<path d="M67.97 65.1C55.68 65.03 43.4 64.96 31.11 64.89C29.24 64.88 29.24 67.79 31.11 67.8C43.4 67.87 55.68 67.94 67.97 68.01C69.84 68.02 69.84 65.11 67.97 65.1Z" fill="black"/>
<path d="M41.79 58.6301C39.27 59.6601 36.75 60.6901 34.23 61.7101C32.93 62.2401 31.62 62.7701 30.32 63.3101C29.14 63.7901 27.65 64.2101 27.74 65.7801C27.81 67.1401 29.22 67.9201 30.17 68.6701C31.27 69.5301 32.39 70.3701 33.52 71.2001C35.65 72.7601 37.84 74.2401 40.06 75.6601C41.64 76.6701 43.1 74.1501 41.53 73.1501C39.57 71.9001 37.65 70.6001 35.76 69.2501C34.84 68.5901 33.92 67.9101 33.01 67.2201C32.6 66.9101 32.2 66.6001 31.79 66.2801C31.58 66.1101 31.36 65.9401 31.15 65.7701C31.01 65.6601 30.87 65.5401 30.72 65.4301C30.47 65.1501 30.44 65.2701 30.65 65.8101C30.53 66.0201 30.4 66.2401 30.28 66.4501C30.37 66.3501 31.07 66.1301 31.35 66.0201C31.87 65.8101 32.39 65.5901 32.91 65.3801C34 64.9401 35.08 64.4901 36.17 64.0501C38.3 63.1801 40.43 62.3101 42.55 61.4401C43.28 61.1401 43.79 60.4701 43.57 59.6501C43.39 58.9601 42.52 58.3301 41.79 58.6301Z" fill="black"/>
</g>
<defs>
<clipPath id="clip0_259_537">
<rect width="200" height="200" fill="white"/>
</clipPath>
</defs>
</svg>
