<svg width="200" height="200" viewBox="0 0 200 200" fill="none" xmlns="http://www.w3.org/2000/svg">
<g clip-path="url(#clip0_259_441)">
<path d="M180.99 53.64C174.05 50.2 163.17 49.92 155.28 49.26C149.57 48.78 141.14 48.73 133.82 49.24C118.53 51.7 114.62 53.65 110.59 60.6C107.81 65.4 107.74 71.48 110.59 75.75C114.37 81.4 118.57 82.97 125.1 83.5C124.93 84.44 124.63 85.42 124.21 86.35C123.14 88.66 121 91.21 119.26 93.04C118.35 94 119.12 95.57 120.4 95.39C123.78 94.91 128.76 93.44 132.26 89.14C134.18 86.79 134.97 85.16 135.39 83.86C143.26 84 150.29 83.95 158.32 84.2C158.76 84.21 159.17 84.22 159.6 84.23C159.6 84.23 164.3 84.3 170.38 84.3C182.19 84.3 187.3 79 188.85 72.04C190.91 62.82 188.55 57.39 180.99 53.64Z" fill="#A4CF61"/>
<path d="M109.18 170.79C109.18 170.79 116.12 168.9 118.23 166.79L124.96 171.84L117.6 188.25L112.97 187.83L109.18 170.79Z" fill="#BA6D51"/>
<path d="M15.92 194.84L14.93 184.28L40.39 181.72L42.36 200.29H16.21C16.21 200.29 16.19 197.8 15.92 194.84Z" fill="#CF806F"/>
<path d="M109.18 170.79C109.18 170.79 112.16 169.89 115.11 168.83C118.77 167.51 121.26 166.04 121.26 166.04C122.51 165.02 123.46 163.83 122.91 162.35C121.12 157.48 116.67 146.7 109.18 136.39C99.08 122.5 88.98 120.3 88.98 120.3C81.41 118.09 48.48 120.13 36.12 126.61C27.87 130.94 18.03 137.67 14.2 146.17C10.61 154.14 9.42 173.97 10.26 182.81C10.36 183.88 11.3 184.95 12.35 185.17C16.57 186.08 26.39 187.42 40.93 184.88L42.08 200.29L117.16 200.3C116.8 199.76 109.18 170.79 109.18 170.79Z" fill="#802A84"/>
<path d="M39.31 73.9C39.31 73.9 37.56 69.75 34.34 67.82C29.46 64.89 22.06 63.94 15.96 71.17C10.95 77.11 12.93 90.1 20.95 108.02C25.55 118.3 23.32 127.59 23.32 127.59C23.32 127.59 35.13 122.43 39.09 109.26C41.31 101.86 39.31 73.9 39.31 73.9Z" fill="black"/>
<path d="M89.01 71.6001C89.01 71.6001 95.86 97.7201 91.57 109.02C87.28 120.32 81.56 126.49 62.53 125.12C50.56 124.26 45.29 122.08 45.29 122.08L44.15 112.2L43.71 78.0801L69.41 64.6801L89.01 71.6001Z" fill="#CF806F"/>
<path d="M44.2 108.62L43.77 123.94C43.77 123.94 45.29 132.31 56.25 136.42C57.42 136.86 58.55 137.22 59.63 137.53C67.17 139.67 74.87 134.65 74.97 127.55L75.16 114.45L44.2 108.62Z" fill="#CF806F"/>
<path d="M43.76 80.39C43.76 80.39 58.63 76.7 64.54 71.64C69.71 67.21 70.17 65.94 70.17 65.94C70.17 65.94 82.32 75.89 92.12 70.88C96.62 68.58 96.88 65.02 96.88 65.02C96.88 65.02 89.22 61.79 86.1 58.29C79.28 50.65 68.12 45.43 55.27 49.32C32.42 56.22 31.88 74.52 31.88 74.52C31.88 74.52 24.79 77.37 27.39 90.9C30.85 108.89 44.15 112.2 44.15 112.2L43.76 80.39Z" fill="black"/>
<path d="M46.4 94.43C46.4 94.43 45.55 92.57 43.72 91.3C42.1 90.17 39.68 89.51 37.08 90.81C31.68 93.51 33.24 99.82 36.43 103.59C39.62 107.36 46.28 105.11 46.28 105.11L46.4 94.43Z" fill="#CF806F"/>
<path d="M51.16 72.53C51.16 72.53 55.53 94.63 52.46 96.36C49.3 98.14 46.4 94.42 46.4 94.42C46.4 94.42 45.13 91.86 42.91 90.8L42.07 77.14L51.16 72.53Z" fill="black"/>
<path d="M86.88 83.41C87.67 82.24 86.86 78.48 81.66 79.86C77.88 80.86 76.58 82.64 77.54 84.96C78.3 86.83 80.98 85.61 82.96 85.04C84.91 84.47 86.16 84.47 86.88 83.41Z" fill="white"/>
<path d="M59.2 90.51C58.19 89.97 57.26 86.03 62.71 84.81C66.67 83.92 69.42 85.02 68.91 87.93C68.6 89.69 66.43 89.66 64.33 90.08C62.26 90.5 60.77 91.35 59.2 90.51Z" fill="white"/>
<path d="M89.85 68.2C90.94 73.5 91.9 78.83 92.76 84.17C94.02 92.02 95.8 100.53 93.68 108.36C92.08 114.25 88.42 120.84 82.9 123.88C74.9 128.29 64.38 127.4 55.72 125.88C53.62 125.51 54.51 122.31 56.6 122.68C64.62 124.09 76.34 125.31 83.15 119.75C88.43 115.43 91.32 107.65 91.37 101.02C91.45 90.43 88.78 79.42 86.66 69.08C86.22 67 89.42 66.11 89.85 68.2Z" fill="black"/>
<path d="M62.86 101.78C62.88 102 62.93 102.35 62.85 102.56C62.92 102.37 62.85 102.53 62.84 102.59C62.83 102.65 62.82 102.72 62.8 102.78C62.77 102.91 62.74 103.03 62.7 103.15C62.68 103.21 62.66 103.27 62.63 103.33C62.57 103.51 62.69 103.21 62.62 103.37C62.56 103.49 62.51 103.6 62.44 103.72C62.38 103.83 62.31 103.94 62.23 104.05C62.19 104.1 62.15 104.16 62.12 104.21C62.24 104.04 62.1 104.23 62.07 104.27C61.9 104.47 61.72 104.65 61.52 104.82C61.5 104.84 61.47 104.86 61.44 104.88C61.52 104.82 61.53 104.81 61.48 104.85C61.43 104.89 61.38 104.93 61.32 104.96C61.21 105.03 61.1 105.1 60.99 105.16C60.88 105.22 60.76 105.28 60.64 105.33C60.58 105.36 60.6 105.35 60.69 105.31C60.66 105.32 60.63 105.33 60.6 105.34C60.54 105.36 60.48 105.38 60.42 105.4C60.3 105.44 60.17 105.47 60.04 105.5C60.01 105.51 59.8 105.55 59.93 105.52C60.06 105.5 59.81 105.53 59.78 105.53C59.34 105.56 58.91 105.9 58.93 106.38C58.95 106.81 59.3 107.27 59.78 107.23C61.12 107.12 62.38 106.49 63.25 105.46C64.11 104.44 64.65 103.12 64.53 101.78C64.49 101.34 64.17 100.91 63.68 100.93C63.28 100.95 62.82 101.31 62.86 101.78Z" fill="black"/>
<path d="M67.91 113.21C69.58 114.24 71.8 114.24 73.47 113.21C73.85 112.98 74.03 112.44 73.77 112.05C73.53 111.67 73.01 111.5 72.61 111.75C72.44 111.85 72.27 111.95 72.09 112.03C72.27 111.95 71.98 112.07 71.95 112.08C71.86 112.11 71.76 112.14 71.67 112.17C71.58 112.2 71.48 112.22 71.38 112.24C71.34 112.25 71.03 112.29 71.24 112.27C71.06 112.29 70.87 112.3 70.69 112.3C70.51 112.3 70.32 112.29 70.14 112.27C70.35 112.29 70.04 112.25 70 112.24C69.9 112.22 69.81 112.2 69.71 112.17C69.62 112.14 69.52 112.12 69.43 112.08C69.4 112.07 69.11 111.95 69.29 112.03C69.11 111.95 68.94 111.86 68.77 111.75C68.39 111.52 67.82 111.66 67.61 112.05C67.38 112.47 67.5 112.96 67.91 113.21Z" fill="black"/>
<path d="M62.95 106.19C66.72 110.04 72.56 110.93 77.33 108.46C78.3 107.96 77.44 106.49 76.47 107C72.37 109.12 67.37 108.28 64.15 104.99C63.39 104.21 62.19 105.41 62.95 106.19Z" fill="black"/>
<path d="M67.03 76.79C63.01 75.8 58.54 77.68 56.52 81.31C56.09 82.09 56.31 83.2 57.13 83.63C57.93 84.05 58.99 83.85 59.45 83.02C59.55 82.85 59.65 82.67 59.76 82.51C59.81 82.43 59.88 82.35 59.93 82.26C60.05 82.07 59.67 82.57 59.92 82.27C60.18 81.97 60.45 81.68 60.75 81.41C60.81 81.36 60.87 81.31 60.93 81.25C61.23 80.99 60.73 81.39 60.92 81.26C61.08 81.14 61.24 81.03 61.41 80.92C61.75 80.7 62.1 80.53 62.47 80.35C62.68 80.25 62.08 80.49 62.45 80.36C62.53 80.33 62.6 80.3 62.68 80.28C62.87 80.21 63.06 80.15 63.25 80.1C63.44 80.05 63.64 80 63.83 79.97C63.93 79.95 64.03 79.94 64.12 79.92C64.35 79.88 63.69 79.95 64.08 79.93C64.48 79.9 64.87 79.88 65.27 79.91C65.35 79.92 65.43 79.92 65.51 79.93C65.91 79.96 65.25 79.88 65.47 79.92C65.69 79.96 65.9 80 66.12 80.05C66.98 80.26 68 79.77 68.21 78.87C68.42 78 67.95 77.02 67.03 76.79Z" fill="black"/>
<path d="M78.9 76.84C79.07 76.7 78.9 76.85 78.82 76.89C78.9 76.85 78.98 76.78 79.05 76.73C79.17 76.65 79.3 76.57 79.43 76.49C79.58 76.41 79.73 76.33 79.88 76.26C80.08 76.16 79.87 76.28 79.78 76.3C79.86 76.28 79.96 76.23 80.04 76.2C80.34 76.09 80.65 76.01 80.96 75.95C81.03 75.94 81.11 75.92 81.18 75.91C81.55 75.84 80.9 75.93 81.12 75.92C81.29 75.91 81.46 75.89 81.63 75.89C81.95 75.88 82.27 75.9 82.59 75.93C82.82 75.95 82.25 75.87 82.47 75.92C82.56 75.94 82.66 75.95 82.75 75.97C82.9 76 83.04 76.04 83.19 76.08C83.35 76.13 83.51 76.18 83.67 76.24C83.72 76.26 83.96 76.35 83.73 76.26C83.48 76.16 83.78 76.29 83.83 76.32C84.13 76.47 84.42 76.65 84.69 76.85C85.41 77.37 86.61 77 87.01 76.24C87.47 75.36 87.17 74.48 86.4 73.92C85.02 72.92 83.21 72.44 81.51 72.51C79.64 72.59 77.92 73.26 76.48 74.46C75.8 75.03 75.85 76.28 76.48 76.86C77.23 77.51 78.17 77.45 78.9 76.84Z" fill="black"/>
<path d="M67.28 88.67C69.46 88.67 69.47 85.28 67.28 85.28C65.09 85.28 65.09 88.67 67.28 88.67Z" fill="black"/>
<path d="M85.56 83.87C87.74 83.87 87.75 80.48 85.56 80.48C83.37 80.48 83.37 83.87 85.56 83.87Z" fill="black"/>
<path d="M39.42 96.6601C39.25 96.7401 39.43 96.6601 39.48 96.6401C39.53 96.6301 39.57 96.6201 39.62 96.6101C39.52 96.6201 39.51 96.6201 39.57 96.6201C39.64 96.6201 39.71 96.6101 39.79 96.6101C39.84 96.6101 40.09 96.6501 39.89 96.6101C40.04 96.6401 40.18 96.6801 40.32 96.7301C40.16 96.6801 40.36 96.7501 40.39 96.7701C40.46 96.8001 40.52 96.8401 40.58 96.8801C40.63 96.9101 40.75 97.0101 40.64 96.9201C40.69 96.9701 40.75 97.0101 40.8 97.0701C40.83 97.1101 40.95 97.2401 40.86 97.1301C40.91 97.2001 40.96 97.2701 41 97.3501C41.04 97.4201 41.07 97.4901 41.11 97.5501C41.14 97.6001 41.13 97.6001 41.1 97.5201C41.12 97.5701 41.14 97.6201 41.15 97.6601C41.2 97.8101 41.24 97.9601 41.27 98.1101C41.32 98.3501 41.26 97.9501 41.28 98.1901C41.29 98.2701 41.29 98.3401 41.29 98.4201C41.29 98.4901 41.29 98.5701 41.29 98.6401C41.28 98.7301 41.25 98.8401 41.29 98.6901C41.27 98.7701 41.25 98.8501 41.23 98.9301C41.22 98.9501 41.14 99.1601 41.18 99.0701C41.22 98.9801 41.12 99.1801 41.11 99.2001C41.07 99.2801 41.02 99.3501 40.97 99.4301C40.95 99.4601 40.82 99.6401 40.92 99.5101C40.87 99.5701 40.82 99.6301 40.77 99.6901C40.67 99.8001 40.55 99.9101 40.43 100C40.56 99.8901 40.39 100.02 40.36 100.04C40.3 100.08 40.23 100.11 40.17 100.15C40.03 100.24 40.28 100.12 40.08 100.19C40 100.22 39.93 100.24 39.85 100.25C39.42 100.34 39.12 100.87 39.26 101.29C39.41 101.75 39.84 101.98 40.3 101.88C41.21 101.68 41.99 100.99 42.47 100.21C42.97 99.4101 43.07 98.4901 42.87 97.5801C42.67 96.6801 42.15 95.8501 41.35 95.3701C40.5 94.8601 39.45 94.7601 38.55 95.1901C38.15 95.3801 38.01 95.9901 38.25 96.3501C38.52 96.7701 38.99 96.8701 39.42 96.6601Z" fill="black"/>
<path d="M68.69 95.95C69.28 97.21 70.2 98.6 71.68 98.82C72.57 98.95 73.48 98.68 74.06 97.97C74.6 97.31 74.83 96.52 74.91 95.69C74.95 95.25 74.49 94.82 74.06 94.84C73.56 94.86 73.26 95.21 73.21 95.69C73.21 95.73 73.2 95.78 73.2 95.82C73.22 95.71 73.22 95.69 73.21 95.76C73.19 95.84 73.18 95.91 73.17 95.99C73.14 96.12 73.11 96.25 73.06 96.37C73.05 96.4 72.96 96.6 73.05 96.41C73.02 96.47 73 96.53 72.97 96.58C72.94 96.65 72.9 96.71 72.86 96.77C72.84 96.8 72.83 96.82 72.81 96.85C72.87 96.77 72.89 96.76 72.85 96.8C72.8 96.85 72.75 96.91 72.7 96.96C72.66 97 72.51 97.09 72.68 96.99C72.63 97.02 72.58 97.06 72.52 97.09C72.46 97.13 72.35 97.15 72.47 97.12C72.39 97.14 72.31 97.16 72.22 97.18C72.16 97.19 72.17 97.19 72.27 97.17C72.23 97.17 72.2 97.17 72.16 97.17C72.12 97.17 71.86 97.15 72.06 97.18C71.99 97.17 71.91 97.15 71.84 97.14C71.77 97.12 71.7 97.1 71.63 97.07C71.8 97.13 71.6 97.05 71.56 97.03C71.5 97 71.44 96.95 71.37 96.92C71.24 96.86 71.51 97.06 71.37 96.92C71.28 96.83 71.19 96.75 71.11 96.65C71.07 96.6 71.03 96.55 70.99 96.51C71.12 96.67 70.99 96.51 70.96 96.47C70.65 96.04 70.37 95.58 70.15 95.1C69.96 94.7 69.35 94.56 68.99 94.8C68.58 95.05 68.49 95.51 68.69 95.95Z" fill="black"/>
<path d="M73.4 95.71C73.94 97.1 75.19 97.88 76.69 97.64C78.1 97.41 78.83 95.97 78.68 94.63C78.59 93.83 78.23 93.08 77.92 92.35C77.6 91.58 77.27 90.81 76.92 90.05C76.24 88.54 75.52 87.05 74.78 85.58C74.29 84.6 72.83 85.46 73.32 86.44C74.43 88.64 75.5 90.86 76.43 93.14C76.72 93.84 77.42 95.12 76.74 95.82C76.23 96.35 75.25 95.84 75.03 95.26C74.86 94.83 74.46 94.54 73.99 94.67C73.58 94.77 73.23 95.28 73.4 95.71Z" fill="black"/>
<path d="M81.3 153.8C81.3 153.8 97.74 148.64 96.61 142.48C96.18 140.15 94.04 139.39 92.15 140.18C90.26 140.97 83.31 144.76 79.37 145.7C75.43 146.65 67.85 147.59 62.8 153.75C57.75 159.9 39.76 200.3 39.76 200.3L63.11 200.25C63.32 199.62 68.47 175.21 68.47 175.21C68.47 175.21 69.38 175.24 70.76 174.89C71.81 174.63 72.81 173.94 72.81 173.94C72.81 173.94 69.63 176.68 71.31 178.36C72.99 180.04 77.62 179.2 80.57 176.68C83.52 174.16 82.04 171.81 82.04 171.81C82.04 171.81 83.78 171.96 84.64 169.76C85.67 167.16 85.11 164.63 85.11 164.63C85.11 164.63 88.28 160.12 85.3 156.22C84.11 154.65 81.3 153.8 81.3 153.8Z" fill="#CF806F"/>
<path d="M37.88 165.19C38.26 169.73 38.95 174.24 39.54 178.76C40.25 184.2 40.96 189.65 41.67 195.09C41.81 196.16 43.51 196.17 43.37 195.09C42.66 189.65 41.95 184.2 41.24 178.76C40.65 174.25 39.96 169.73 39.58 165.19C39.49 164.11 37.79 164.1 37.88 165.19Z" fill="black"/>
<path d="M42.47 166.13C42.04 167.05 41.56 167.95 41.04 168.81C40.54 169.63 39.92 170.52 39.38 171.21C39.11 171.56 39.01 172.07 39.38 172.41C39.69 172.69 40.29 172.78 40.58 172.41C41.9 170.73 43.04 168.92 43.94 166.98C44.13 166.58 44.07 166.05 43.64 165.82C43.25 165.63 42.67 165.7 42.47 166.13Z" fill="black"/>
<path d="M41.36 199.67C43.09 196.03 44.79 192.37 46.52 188.73C46.99 187.75 45.53 186.89 45.06 187.87C43.33 191.51 41.63 195.17 39.9 198.81C39.43 199.8 40.89 200.66 41.36 199.67Z" fill="black"/>
<path d="M65.04 173.77C67.76 176.2 71.61 175.72 74.59 174.06C75.54 173.53 74.69 172.06 73.73 172.6C71.46 173.86 68.36 174.47 66.24 172.58C65.43 171.84 64.22 173.04 65.04 173.77Z" fill="black"/>
<path d="M77.15 162.48C78.83 162.34 80.54 162.64 81.96 163.57C83.39 164.51 84.11 166.14 83.76 167.88C83.67 168.33 83.89 168.8 84.35 168.92C84.77 169.04 85.3 168.78 85.39 168.33C85.64 167.1 85.58 165.87 85.09 164.71C84.66 163.72 83.94 162.91 83.08 162.28C81.42 161.06 79.19 160.61 77.16 160.78C76.7 160.82 76.31 161.14 76.31 161.63C76.3 162.06 76.69 162.51 77.15 162.48Z" fill="black"/>
<path d="M78.89 155.1C80.53 154.93 82.16 155.33 83.49 156.31C84.68 157.2 85.5 158.52 85.84 159.96C86.1 161.02 87.73 160.57 87.48 159.51C86.56 155.67 82.84 152.99 78.89 153.4C78.43 153.45 78.04 153.76 78.04 154.25C78.04 154.67 78.43 155.15 78.89 155.1Z" fill="black"/>
<path d="M71.52 173.68C70.65 174.36 70.22 175.55 70.41 176.63C70.6 177.71 71.38 178.61 72.25 179.23C73.9 180.4 76.45 180.12 78.24 179.41C80.16 178.65 81.87 177.1 82.33 175.01C82.8 172.86 81.9 170.56 80.31 169.09C78.33 167.24 75.51 166.68 72.88 166.77C71.79 166.81 71.79 168.5 72.88 168.47C76.13 168.36 80.44 169.63 80.75 173.5C81.02 176.91 77.19 178.56 74.32 178.27C72.78 178.11 71.17 176.11 72.72 174.89C73.08 174.61 73.01 173.99 72.72 173.69C72.37 173.32 71.88 173.4 71.52 173.68Z" fill="black"/>
<path d="M65.42 174.05L67.53 179.94L68.48 175.21L65.42 174.05Z" fill="black"/>
<path d="M103.6 155.64C103.67 159.13 105.14 162.33 106.11 165.63C107.19 169.3 108.21 172.99 109.26 176.67C111.43 184.26 113.6 191.86 115.77 199.45C116.07 200.5 117.71 200.05 117.41 199C115.29 191.56 113.16 184.13 111.04 176.69C110.01 173.09 108.98 169.48 107.95 165.88C106.99 162.52 105.38 159.18 105.3 155.64C105.28 154.55 103.58 154.55 103.6 155.64Z" fill="black"/>
<path d="M145.56 112.35C145.95 112.27 177.77 107.72 180.52 107.3C184.02 106.76 187.13 112.56 176.75 114.63C167.47 116.49 162.54 118.29 162.54 118.29C162.54 118.29 169.3 119 168.95 123.43C168.95 123.43 168.99 124.88 167.95 126.28C167.95 126.28 169.73 128.98 168.25 130.58C166.77 132.18 165.8 132.2 165.8 132.2C165.8 132.2 165.09 138.19 160.7 137.63L157.28 137.37C157.28 137.37 154.9 141.99 145.95 140.89C145.95 140.89 142.54 170.69 140.27 182.86C138 195.03 130.93 197.15 124.97 197.83C119.01 198.51 110.39 191.9 116.04 173.62C121.68 155.35 129.78 135.49 131.29 131.03C134.24 122.31 140.28 113.46 145.56 112.35Z" fill="#CF806F"/>
<path d="M146.46 120.25C148.83 120.6 151.19 120.95 153.56 121.31C155.26 121.56 157.63 121.61 158.92 122.91C160.26 124.26 159.34 126.36 157.65 126.8C156.56 127.09 155.37 127.09 154.26 127.18C153 127.29 151.73 127.4 150.47 127.51C150.01 127.55 149.54 127.89 149.57 128.41C149.7 130.79 148.93 133.38 146.9 134.8C145.19 136 142.81 135.9 141.45 134.23C140.72 133.33 139.45 134.61 140.18 135.5C141.96 137.68 145.25 137.94 147.58 136.5C150.31 134.81 151.55 131.5 151.38 128.4C151.08 128.7 150.78 129 150.48 129.3C152.06 129.16 153.64 129.03 155.22 128.89C156.48 128.78 157.82 128.76 158.99 128.22C160.87 127.36 161.84 125.05 161.14 123.1C160.39 120.99 158.09 120.22 156.08 119.88C153.05 119.37 149.99 118.97 146.94 118.52C145.8 118.34 145.31 120.08 146.46 120.25Z" fill="black"/>
<path d="M161.34 120.44C160.69 120.68 160.02 120.87 159.34 121.02C159.13 121.07 158.91 121.25 158.8 121.43C158.69 121.62 158.64 121.91 158.71 122.12C158.87 122.6 159.32 122.86 159.82 122.75C160.5 122.6 161.17 122.41 161.82 122.17C162.04 122.09 162.23 121.97 162.36 121.76C162.47 121.57 162.52 121.28 162.45 121.07C162.38 120.85 162.24 120.64 162.04 120.53C161.83 120.43 161.57 120.36 161.34 120.44Z" fill="black"/>
<path d="M158.99 128.15C159.91 128.11 160.83 128.1 161.75 128C162.73 127.89 163.68 127.68 164.63 127.44C165.09 127.33 165.41 126.79 165.26 126.33C165.11 125.86 164.64 125.58 164.15 125.7C163.65 125.83 163.15 125.95 162.64 126.05C162.44 126.09 162.25 126.12 162.05 126.15C162.01 126.16 161.97 126.16 161.93 126.17C161.76 126.2 162.07 126.15 161.96 126.17C161.87 126.18 161.78 126.19 161.69 126.2C160.79 126.29 159.89 126.3 158.99 126.35C158.52 126.37 158.07 126.75 158.09 127.25C158.11 127.72 158.49 128.17 158.99 128.15Z" fill="black"/>
<path d="M153.39 127.72C152.45 128.89 152.52 130.43 153.38 131.65C154.32 132.99 155.9 133.52 157.47 133.67C159.2 133.83 161 133.58 162.71 133.35C164.49 133.11 166.35 132.88 167.94 131.99C168.95 131.43 168.05 129.87 167.03 130.44C165.88 131.08 164.53 131.27 163.25 131.47C161.85 131.69 160.43 131.85 159.01 131.9C157.85 131.94 156.61 131.91 155.59 131.3C154.94 130.92 154.06 129.76 154.67 129C155.38 128.1 154.11 126.82 153.39 127.72Z" fill="black"/>
<path d="M155.41 132.34C154.15 133.29 152.87 134.76 153.88 136.39C154.53 137.44 155.68 137.88 156.84 138.08C159 138.46 161.32 138.51 163.5 138.27C163.98 138.22 164.4 137.89 164.4 137.37C164.4 136.92 163.99 136.42 163.5 136.47C161.7 136.67 159.82 136.63 158.02 136.44C157.63 136.4 157.28 136.35 156.85 136.25C156.65 136.21 156.46 136.15 156.27 136.09C156.2 136.07 156.06 136.01 156.21 136.07C156.13 136.03 156.05 135.99 155.97 135.95C155.66 135.77 155.26 135.44 155.32 135.04C155.4 134.57 155.97 134.16 156.32 133.89C156.71 133.6 156.91 133.11 156.64 132.66C156.42 132.28 155.8 132.05 155.41 132.34Z" fill="black"/>
<path d="M131.6 68C143.89 67.93 156.17 67.86 168.46 67.79C170.33 67.78 170.34 64.87 168.46 64.88C156.17 64.95 143.89 65.02 131.6 65.09C129.72 65.11 129.72 68.02 131.6 68Z" fill="black"/>
<path d="M157 61.43C159.13 62.3 161.26 63.17 163.38 64.04C164.42 64.47 165.46 64.89 166.51 65.32C167.03 65.53 167.55 65.75 168.07 65.96C168.35 66.07 169.16 66.33 169.27 66.44C169.15 66.23 169.02 66.01 168.9 65.8C169.1 65.26 169.08 65.14 168.83 65.42C168.72 65.51 168.62 65.59 168.51 65.68C168.3 65.85 168.08 66.02 167.87 66.19C167.43 66.54 166.99 66.88 166.54 67.22C165.63 67.91 164.72 68.58 163.79 69.25C161.9 70.6 159.98 71.9 158.02 73.15C156.45 74.15 157.9 76.67 159.49 75.66C161.72 74.24 163.9 72.75 166.03 71.2C167.16 70.38 168.27 69.53 169.38 68.67C170.33 67.93 171.74 67.14 171.81 65.78C171.9 64.22 170.4 63.79 169.23 63.31C167.93 62.78 166.62 62.25 165.32 61.71C162.8 60.68 160.28 59.65 157.76 58.63C157.03 58.33 156.16 58.95 155.97 59.65C155.76 60.48 156.27 61.14 157 61.43Z" fill="black"/>
</g>
<defs>
<clipPath id="clip0_259_441">
<rect width="200" height="200" fill="white"/>
</clipPath>
</defs>
</svg>
