<svg width="200" height="200" viewBox="0 0 200 200" fill="none" xmlns="http://www.w3.org/2000/svg">
<g clip-path="url(#clip0_243_1621)">
<path d="M173.88 156.31C170.26 134.25 160.26 109.48 129.15 104.05C108.58 100.46 72.6701 98.17 42.8101 128.65C28.1201 143.63 18.6001 163.99 30.1201 180.27C32.6101 183.8 37.5101 188.43 44.0001 190.41L41.4501 200.39H160.46L157.57 191.46C173.55 188.27 177.5 178.38 173.88 156.31Z" fill="#EF9AC2"/>
<path d="M123.25 167.31C125.08 170.73 127.59 173.85 130.12 176.76C133.7 180.87 137.75 184.68 142.35 187.64C146.35 190.21 150.89 192.11 155.69 192.19C159.75 192.26 163.92 191.21 167.34 189C172.08 185.95 174.83 180.96 175.72 175.47C175.93 174.15 173.91 173.58 173.7 174.91C172.95 179.56 170.86 183.95 166.95 186.74C163.89 188.92 160.15 190.03 156.4 190.09C146.81 190.25 138.5 182.94 132.46 176.24C129.71 173.19 127 169.89 125.06 166.25C124.42 165.06 122.61 166.12 123.25 167.31Z" fill="#E66FA9"/>
<path d="M102.6 121.85C102.71 121.17 103.51 120.87 104.03 121.32C106.28 123.29 111.31 128.2 112.83 133.92C114.14 138.84 113.82 142.06 113.45 143.67C113.31 144.29 112.58 144.57 112.07 144.17C110.12 142.65 105.81 138.94 104.15 134.57C101.96 128.76 102.24 124.09 102.6 121.85Z" fill="#901E5E"/>
<path d="M117.26 92.53C117.26 92.53 119.81 98.21 125.54 96.71C130 95.55 129.03 89.4 129.03 89.4C129.03 89.4 134.37 90.23 136.15 84.96C137.44 81.16 134.25 78.54 134.25 78.54C134.25 78.54 139.26 76.95 139.73 70.43C140.24 63.52 134.98 61.55 134.98 61.55C134.98 61.55 137.8 56.66 134.77 53.94C131.1 50.64 126.78 52.79 126.78 52.79C126.78 52.79 126.21 45.1 122.3 43.87C115.28 41.66 112.03 46.6 112.03 46.6C112.03 46.6 113.06 42.41 107.89 39.71C103.6 37.47 99.74 41.65 99.74 41.65C99.74 41.65 98.31 36.14 92 37.12C87.31 37.85 87.19 43.67 87.19 43.67C87.19 43.67 82.58 41.49 78.38 44.67C72.42 49.18 74.72 56.73 74.72 56.73C74.72 56.73 69.34 55.78 67.46 60.73C65.35 66.29 69.91 68.73 69.91 68.73C69.91 68.73 67.05 73.68 72.2 75.85C74.5 76.82 117.26 92.53 117.26 92.53Z" fill="black"/>
<path d="M128.49 76.93C128.49 76.93 129.76 67.08 124.12 58.88C118.11 50.15 108.62 47 94.8201 49.39C81.0201 51.78 75.6701 62.01 73.5801 71.08L111.57 76.01L109.6 92.14L120.15 93.63L128.49 76.93Z" fill="black"/>
<path d="M120.06 81.39C120.06 81.39 121.23 75.14 125.02 74.27C128.82 73.4 130.3 75.92 129.93 80.32C129.57 84.73 126.49 89.13 121.95 88.12C121.95 88.12 119.14 97.61 119.68 103.28C119.68 103.28 114.14 104.72 110.15 108.34C102.39 115.37 102.1 119.47 102.1 119.47C101.42 115.55 97.22 114.29 97.22 114.29C97.22 114.29 80.75 114.94 74.77 106C66.52 93.67 74.35 71.1 74.35 71.1C74.35 71.1 74.99 69.02 76.4 66.72C76.4 66.72 79.04 66.81 81.2 65.34C84.14 63.34 84.21 60.69 84.21 60.69C84.21 60.69 85.44 64.05 91.03 63.74C94.11 63.57 96.22 62.52 98.27 59.26C98.27 59.26 98.49 63.04 102.83 64.95C106.52 66.57 110.09 64.46 110.09 64.46C106.79 67.71 110.32 75.73 115.22 74.76C115.22 74.76 113.63 82.29 116.3 83.56C117.8 84.29 119.53 83.14 120.06 81.39Z" fill="#DC7B6A"/>
<path d="M101.19 111.83C96.9401 112.87 92.3001 112.82 88.0201 111.95C83.6001 111.05 79.9301 108.87 77.0401 105.38C70.0401 96.91 71.7101 85.69 74.0701 75.82C75.0701 71.66 76.2801 67.27 78.6001 63.64C79.4301 62.33 77.3501 61.13 76.5301 62.43C74.2501 66.02 72.9801 70.3 71.9501 74.4C70.6701 79.49 69.5201 84.82 69.5301 90.08C69.5401 100.51 75.4001 111.21 86.0001 113.95C91.0901 115.27 96.7301 115.4 101.84 114.15C103.33 113.78 102.69 111.46 101.19 111.83Z" fill="black"/>
<path d="M95.3199 108.61C92.6599 109.63 89.6599 109.6 87.0499 108.43C86.6899 108.27 86.2599 108.33 86.0499 108.69C85.8699 109 85.9499 109.53 86.3099 109.69C89.2699 111.02 92.6699 111.18 95.7099 110.02C96.0799 109.88 96.3299 109.53 96.2199 109.12C96.1199 108.76 95.6899 108.46 95.3199 108.61Z" fill="black"/>
<path d="M126.26 77.8199C125.02 77.9399 124.07 78.7799 123.59 79.9099C123.05 81.1999 123.26 82.6199 123.47 83.9499C123.53 84.3399 124.02 84.5599 124.37 84.4599C124.79 84.3499 124.94 83.9499 124.88 83.5599C124.72 82.5799 124.56 81.5099 124.89 80.5599C124.89 80.5499 124.94 80.4199 124.92 80.4699C124.9 80.5199 124.95 80.3999 124.96 80.3899C125.01 80.2899 125.06 80.1899 125.12 80.0999C125.15 80.0599 125.17 80.0199 125.2 79.9799C125.22 79.9499 125.27 79.8899 125.22 79.9499C125.29 79.8599 125.37 79.7799 125.44 79.7099C125.48 79.6799 125.51 79.6399 125.55 79.6099C125.64 79.5299 125.48 79.6599 125.57 79.5899C125.66 79.5299 125.75 79.4699 125.85 79.4199C125.89 79.3999 125.94 79.3699 125.87 79.3999C125.91 79.3799 125.96 79.3699 126.01 79.3499C126.07 79.3299 126.13 79.3199 126.18 79.2999C126.21 79.2899 126.36 79.2799 126.24 79.2899C126.63 79.2499 126.97 78.9799 126.97 78.5599C127 78.1799 126.66 77.7799 126.26 77.8199Z" fill="black"/>
<path d="M87.4899 87.41C87.5399 86.09 87.7399 84.76 87.9599 83.46C88.1799 82.15 88.4199 80.84 88.7999 79.57C89.0799 78.65 90.5399 78.99 90.2599 79.93C89.6599 81.94 89.3199 84.07 89.0899 86.15C88.9899 87.06 88.7399 88.38 89.2699 89.19C89.8499 90.08 91.2799 89.73 91.3499 88.65C91.4099 87.7 92.8499 87.62 92.8499 88.6C92.8499 89.05 93.1899 89.53 93.6799 89.52C94.1699 89.51 94.4899 89.01 94.4599 88.56C94.4099 87.59 95.9099 87.55 95.9599 88.51C96.0299 89.78 95.0099 90.97 93.7199 91.02C93.0899 91.04 92.5199 90.78 92.0899 90.36C91.5199 90.98 90.6899 91.33 89.7599 91.16C87.9499 90.84 87.4299 89.04 87.4899 87.41Z" fill="black"/>
<path d="M124.87 89.82C125.12 89.8 125.39 89.72 125.68 89.59C126.13 89.38 126.45 88.97 126.59 88.44C126.75 87.82 126.61 87.12 126.24 86.62C125.57 85.71 124.27 85.88 124.22 85.88C124.22 85.88 123.7 85.92 123.77 86.42C123.83 86.83 124.33 86.74 124.33 86.74C124.34 86.74 125.17 86.64 125.53 87.13C125.75 87.43 125.83 87.85 125.74 88.22C125.7 88.38 125.59 88.66 125.31 88.79C124.96 88.95 124.64 88.92 124.42 88.81C124.1 88.66 123.99 88.36 123.95 88.21C123.95 88.21 123.76 88.24 123.48 88.25C123.2 88.26 123.01 88.25 123.01 88.25C123.03 88.35 123.32 89.3 124.06 89.67C124.31 89.8 124.58 89.85 124.87 89.82Z" fill="#FBE574"/>
<path d="M95.6101 71.4C95.8501 71.24 96.0901 71.1 96.3501 70.97C96.4101 70.94 96.4801 70.91 96.5401 70.88C96.4101 70.94 96.4001 70.94 96.5401 70.88C96.6701 70.83 96.8101 70.78 96.9401 70.74C97.0801 70.7 97.2101 70.67 97.3501 70.64C97.4201 70.63 97.4901 70.61 97.5601 70.6C97.4001 70.62 97.4001 70.62 97.5401 70.6C97.8201 70.58 98.0901 70.58 98.3801 70.6C98.5201 70.62 98.5101 70.61 98.3301 70.59C98.3901 70.6 98.4501 70.61 98.5201 70.62C98.6401 70.65 98.7701 70.68 98.8901 70.71C98.9501 70.73 99.3501 70.86 99.0401 70.75C99.1601 70.79 99.2701 70.86 99.3801 70.92C99.4901 70.98 99.5901 71.05 99.7001 71.12C99.8101 71.2 99.8001 71.19 99.6701 71.09C99.7201 71.13 99.7701 71.17 99.8101 71.21C99.9001 71.29 99.9901 71.38 100.08 71.48C100.12 71.53 100.16 71.57 100.2 71.62C100.1 71.49 100.09 71.48 100.17 71.6C100.54 72.14 101.28 72.43 101.88 72.05C102.41 71.71 102.72 70.92 102.33 70.34C101.45 69.05 100.11 68.3 98.5701 68.11C97.1001 67.93 95.5701 68.41 94.3501 69.22C93.8101 69.58 93.5201 70.34 93.9001 70.93C94.2501 71.49 95.0301 71.78 95.6101 71.4Z" fill="black"/>
<path d="M78.84 73.46C78.88 73.43 79.23 73.15 79 73.32C79.11 73.23 79.23 73.15 79.35 73.08C79.59 72.93 79.84 72.79 80.1 72.67C79.84 72.8 80.24 72.62 80.29 72.6C80.42 72.55 80.56 72.51 80.7 72.48C80.84 72.45 80.98 72.42 81.11 72.39C80.8 72.44 81.24 72.38 81.3 72.38C81.43 72.37 81.57 72.37 81.7 72.38C81.78 72.38 82.19 72.36 81.87 72.39C82.11 72.37 82.42 72.52 82.65 72.59C82.78 72.64 82.77 72.64 82.63 72.58C82.69 72.61 82.75 72.64 82.81 72.67C82.93 72.73 83.04 72.8 83.15 72.87C83.21 72.91 83.26 72.94 83.31 72.98C83.19 72.89 83.18 72.88 83.29 72.97C83.39 73.06 83.48 73.15 83.58 73.25C84.03 73.73 84.9 73.74 85.34 73.25C85.81 72.74 85.82 72 85.34 71.49C84.32 70.4 82.78 69.82 81.29 69.88C79.7 69.95 78.25 70.65 77.07 71.69C76.58 72.12 76.6 73.02 77.07 73.45C77.6 73.94 78.31 73.92 78.84 73.46Z" fill="black"/>
<path d="M98.3199 114.76C99.6099 115.42 101.64 116.86 102.09 119.47C102.09 119.47 102.39 115.37 110.15 108.34C114.14 104.72 119.68 103.28 119.68 103.28C119.58 102.22 119.6 101.03 119.69 99.7899C121.17 99.9199 122.57 100.53 123.42 102.01C126.48 105.99 116.59 126.88 101.95 127.76C97.4799 128.03 93.4599 123.73 90.6699 114.8L98.3199 114.76Z" fill="#901E5E"/>
<path d="M119.23 105.84C116.48 110.6 113.07 114.94 109.1 118.74C108.25 119.55 109.54 120.84 110.39 120.03C114.47 116.13 117.99 111.65 120.81 106.76C121.39 105.74 119.81 104.82 119.23 105.84Z" fill="#78111B"/>
<path d="M102.92 122.65C103.51 122.3 104.25 122.73 104.23 123.42C104.13 126.42 103.52 133.41 100.07 138.21C97.09 142.34 94.4 144.13 92.92 144.87C92.35 145.15 91.68 144.76 91.66 144.13C91.59 141.66 91.73 135.97 94.07 131.92C97.16 126.53 100.95 123.79 102.92 122.65Z" fill="#901E5E"/>
<path d="M105.62 119.86C104.53 118.69 102.94 118.18 101.37 118.54C99.9501 118.86 98.9401 119.9 98.2201 121.12C97.3801 122.53 96.8201 124.26 96.9701 125.92C97.1201 127.56 98.0701 129.21 99.5601 129.99C101.3 130.89 103.25 130.55 104.74 129.33C105.12 129.02 105.06 128.36 104.74 128.04C104.36 127.66 103.83 127.73 103.45 128.04C101.67 129.51 99.1501 128.29 98.8201 126.06C98.6301 124.83 99.0201 123.51 99.5901 122.43C99.8401 121.96 100.11 121.52 100.45 121.14C100.74 120.81 101.09 120.57 101.42 120.44C101.91 120.26 102.4 120.2 102.84 120.29C103.44 120.42 103.9 120.71 104.33 121.16C105.14 122.01 106.43 120.71 105.62 119.86Z" fill="#78111B"/>
<path d="M99.38 129.3C98.71 130.37 98.08 131.45 97.47 132.56C97.24 132.98 97.35 133.57 97.8 133.81C98.23 134.04 98.8 133.93 99.05 133.48C99.65 132.38 100.29 131.29 100.96 130.22C101.21 129.81 101.06 129.2 100.63 128.97C100.18 128.74 99.65 128.87 99.38 129.3Z" fill="#78111B"/>
<path d="M95.4101 119.44C96.0001 120.6 96.7901 121.66 97.7201 122.57C98.0601 122.9 98.6701 122.94 99.0101 122.57C99.3401 122.21 99.3701 121.64 99.0101 121.28C98.6301 120.91 98.2801 120.52 97.9601 120.1C98.0101 120.16 98.0601 120.22 98.1001 120.28C97.6801 119.73 97.3001 119.14 96.9901 118.51C96.7701 118.08 96.1401 117.93 95.7401 118.18C95.3101 118.47 95.1801 118.98 95.4101 119.44Z" fill="#78111B"/>
<path d="M102.67 78.3699C103.01 77.8299 103.38 77.2999 103.77 76.7899C103.85 76.6799 103.86 76.4799 103.83 76.3599C103.79 76.2299 103.69 76.0899 103.57 76.0299C103.44 75.9599 103.28 75.9299 103.14 75.9699C103.1 75.9899 103.05 76.0099 103.01 76.0299C102.93 76.0799 102.86 76.1499 102.81 76.2299C102.42 76.7399 102.06 77.2699 101.71 77.8099C101.55 78.0599 101.65 78.4299 101.91 78.5699C102.19 78.7199 102.51 78.6299 102.67 78.3699Z" fill="black"/>
<path d="M103.93 79.4699C104.33 79.1799 104.75 78.9099 105.19 78.6699C105.31 78.5999 105.41 78.4699 105.45 78.3399C105.49 78.2099 105.47 78.0299 105.39 77.9099C105.22 77.6499 104.9 77.5599 104.63 77.7099C104.19 77.9499 103.77 78.2199 103.37 78.5099C103.25 78.5999 103.16 78.6899 103.11 78.8399C103.07 78.9699 103.09 79.1499 103.17 79.2699C103.25 79.3899 103.36 79.4899 103.5 79.5299C103.64 79.5599 103.81 79.5599 103.93 79.4699Z" fill="black"/>
<path d="M104.24 79.8999C104.33 78.6299 102.75 77.7499 102.29 77.5499C101.29 77.1099 99.8001 76.6699 97.8601 76.7999C94.6801 77.0099 93.9001 78.4199 93.7501 79.1699C93.6201 79.7999 93.7901 80.9899 94.8001 81.2999C95.3501 81.4699 96.5101 81.3399 98.5901 81.3999C100.57 81.4599 101.87 81.6299 102.48 81.4799C103.11 81.3299 104.15 81.2699 104.24 79.8999Z" fill="white"/>
<path d="M100.09 81.07C102.25 81.07 102.25 77.72 100.09 77.72C97.93 77.72 97.93 81.07 100.09 81.07Z" fill="black"/>
<path d="M78.48 77.3C78.25 76.65 77.99 76.01 77.71 75.38C77.66 75.26 77.5 75.16 77.38 75.12C77.25 75.08 77.07 75.1 76.95 75.18C76.83 75.26 76.73 75.37 76.69 75.51C76.65 75.66 76.68 75.79 76.75 75.94C76.82 76.09 76.88 76.23 76.94 76.38C76.92 76.34 76.9 76.29 76.88 76.25C77.07 76.69 77.24 77.14 77.4 77.6C77.45 77.74 77.53 77.86 77.66 77.93C77.78 78 77.95 78.03 78.09 77.99C78.37 77.9 78.59 77.59 78.48 77.3Z" fill="black"/>
<path d="M76.72 77.6C76.39 77.22 76.04 76.87 75.67 76.53C75.56 76.43 75.43 76.37 75.28 76.37C75.14 76.37 74.98 76.43 74.89 76.53C74.79 76.64 74.72 76.78 74.73 76.92C74.74 77.06 74.78 77.21 74.89 77.31C75.26 77.64 75.61 78 75.94 78.38C76.03 78.48 76.2 78.54 76.33 78.54C76.47 78.54 76.63 78.48 76.72 78.38C76.82 78.27 76.89 78.13 76.88 77.99C76.88 77.84 76.82 77.72 76.72 77.6Z" fill="black"/>
<path d="M75.5201 79.15C75.8301 77.91 77.1501 77.1 77.6201 76.93C78.6501 76.56 79.7701 76.43 81.7001 76.68C84.8601 77.1 85.4101 78.13 85.6301 78.95C85.8001 79.57 85.5401 80.53 84.5101 80.77C83.9501 80.9 82.7201 80.87 80.7701 80.9C78.7901 80.93 77.1601 81.04 76.5501 80.84C75.9501 80.66 75.2301 80.29 75.5201 79.15Z" fill="white"/>
<path d="M81.7301 80.67C83.8901 80.67 83.8901 77.32 81.7301 77.32C79.5701 77.31 79.5701 80.67 81.7301 80.67Z" fill="black"/>
<path d="M93.0699 94.93C92.2999 95.42 91.6599 96.11 91.3899 97C91.1199 97.9 91.2999 98.99 91.9999 99.66C92.6899 100.31 93.8099 100.55 94.6399 100.02C95.1199 99.71 95.4299 99.18 95.3899 98.6C95.3499 98.03 95.0299 97.51 94.5299 97.23C93.8899 96.88 93.1799 97.01 92.7299 97.58C92.4599 97.92 92.2899 98.31 92.4699 98.74C92.5599 98.95 92.6999 99.1 92.8999 99.21C93.1899 99.37 93.4899 99.33 93.7799 99.19C94.1599 99.02 94.2799 98.44 94.0599 98.11C93.8099 97.72 93.3799 97.64 92.9799 97.83C92.9699 97.84 92.9499 97.84 92.9399 97.85C93.0699 97.81 93.2099 97.78 93.3399 97.74C93.3299 97.74 93.3099 97.74 93.2999 97.74C93.4299 97.78 93.5699 97.81 93.6999 97.85C93.7399 97.98 93.7699 98.11 93.8099 98.25C93.8099 98.64 93.8499 98.76 93.9299 98.62C93.9599 98.54 93.9099 98.68 93.8899 98.67L94.0099 98.54C94.0099 98.55 93.8799 98.62 93.9599 98.58C94.0399 98.54 93.8999 98.6 93.8999 98.6C93.8499 98.61 93.8099 98.6 93.7599 98.61C93.6399 98.62 93.8499 98.64 93.7299 98.6C93.6299 98.57 93.7799 98.64 93.8099 98.65C93.8899 98.69 93.7599 98.62 93.7599 98.61C93.7599 98.61 93.8099 98.67 93.8199 98.67C93.8899 98.73 93.7699 98.62 93.7799 98.62C93.7999 98.62 93.8199 98.71 93.8399 98.72C93.8199 98.72 93.7999 98.58 93.8099 98.66C93.8099 98.68 93.8399 98.81 93.8199 98.69C93.7899 98.54 93.7999 98.86 93.8199 98.7C93.8299 98.59 93.8299 98.68 93.8099 98.7C93.8099 98.71 93.7999 98.72 93.7999 98.73C93.7899 98.77 93.7899 98.77 93.8099 98.71C93.8699 98.66 93.8199 98.68 93.7999 98.71C93.8099 98.7 93.8999 98.61 93.8399 98.66C93.8299 98.66 93.7799 98.71 93.7799 98.72C93.7799 98.69 93.9099 98.64 93.7999 98.69C93.6599 98.76 93.9299 98.66 93.7899 98.7C93.7599 98.71 93.6599 98.72 93.6399 98.74C93.6399 98.74 93.8099 98.73 93.7199 98.73C93.6899 98.73 93.6699 98.73 93.6399 98.73C93.5999 98.73 93.4099 98.71 93.5299 98.73C93.6599 98.75 93.4799 98.72 93.4499 98.71C93.3999 98.7 93.3499 98.68 93.2999 98.66C93.2199 98.63 93.3599 98.68 93.3599 98.69C93.3499 98.68 93.2999 98.66 93.2899 98.65C93.2599 98.63 93.1599 98.55 93.1299 98.55C93.1499 98.55 93.2699 98.67 93.1599 98.57C93.1399 98.55 93.1199 98.53 93.0999 98.51C93.0799 98.49 92.9699 98.36 93.0399 98.45C93.1099 98.54 92.9999 98.39 92.9899 98.36C92.9799 98.33 92.9599 98.31 92.9499 98.28C92.8799 98.17 92.9699 98.3 92.9599 98.31C92.9599 98.31 92.8699 98 92.8599 97.97C92.8299 97.82 92.8599 98.1 92.8599 97.95C92.8599 97.88 92.8499 97.81 92.8599 97.74C92.8599 97.71 92.8799 97.53 92.8599 97.64C92.8399 97.75 92.8799 97.57 92.8799 97.54C92.8899 97.48 92.9099 97.43 92.9299 97.37C92.9399 97.34 92.9499 97.31 92.9599 97.29C92.9999 97.16 92.9499 97.32 92.9499 97.32C92.9399 97.31 93.1499 96.96 93.1699 96.94C93.1699 96.93 93.2199 96.87 93.2199 96.87C93.2199 96.87 93.1199 96.99 93.1999 96.89C93.2399 96.84 93.2899 96.79 93.3399 96.74C93.4299 96.64 93.5399 96.55 93.6399 96.46C93.6499 96.45 93.6899 96.41 93.7099 96.4C93.6699 96.41 93.5999 96.48 93.6899 96.42C93.7499 96.38 93.8199 96.33 93.8899 96.29C94.2399 96.07 94.4099 95.58 94.1699 95.21C93.9299 94.87 93.4399 94.69 93.0699 94.93Z" fill="black"/>
<path d="M90.9401 103.2C92.3501 103.9 94.0401 104.03 95.5201 103.45C95.9001 103.3 96.2101 102.91 96.0701 102.48C95.9501 102.11 95.5101 101.76 95.1001 101.93C94.7901 102.05 94.4601 102.15 94.1301 102.2C94.1001 102.2 93.8801 102.22 94.0701 102.21C93.9801 102.22 93.8901 102.23 93.8001 102.23C93.6401 102.24 93.4901 102.24 93.3301 102.24C93.2501 102.24 93.1701 102.23 93.1001 102.23C93.0601 102.23 92.8201 102.2 93.0101 102.22C92.8501 102.2 92.7001 102.17 92.5501 102.13C92.4001 102.09 92.2501 102.05 92.1001 102C92.0701 101.99 91.8101 101.88 91.9801 101.96C91.9001 101.92 91.8201 101.89 91.7401 101.85C91.3701 101.67 90.8701 101.74 90.6601 102.13C90.4701 102.48 90.5501 103 90.9401 103.2Z" fill="black"/>
<path d="M115.49 155.27C115.49 155.27 108.97 149.96 102.53 155.22C98.2501 158.71 97.7301 162.28 96.4401 164.96C96.2401 165.39 95.0401 167.66 93.0701 169.71C90.1001 172.82 87.0601 175.75 88.3101 178C89.8001 180.67 91.7601 181.01 95.4201 177.58C97.8501 175.3 99.2001 173.85 99.9201 173.22C100.12 173.04 100.42 173.27 100.31 173.51C99.8101 174.61 98.7301 176.95 97.6801 178.86C95.0101 183.75 92.8901 187.99 95.3801 190.07C98.8901 193 101.9 186.91 103.4 184.52C104.6 182.6 106.3 180.01 106.91 179.11C106.95 179.06 107.03 179.1 107 179.16C106.47 180.61 104.53 185.91 103.9 188.31C103.17 191.1 102.01 193.78 103.84 195.38C105.67 196.97 108.18 196.58 109.19 194.49C109.84 193.13 113.43 183.98 114.32 181.71C114.34 181.65 114.43 181.68 114.41 181.74C114.21 182.77 113.77 185.12 113.42 187.48C112.95 190.63 112.9 193.98 113.59 195.65C114.82 198.6 118.37 198.37 119.7 195.27C120.62 193.11 123.23 179.29 123.23 179.29C123.23 179.29 123.11 183.88 125.6 187.08C128.09 190.28 131.69 191.01 133.32 188.45C134.95 185.89 131.47 179.63 131.37 176.71C131.28 173.79 131.74 171.44 131.27 167.12C130.71 162.01 127.96 158.62 123.91 156.4C119.55 153.99 115.49 155.27 115.49 155.27Z" fill="#B86C51"/>
<path d="M115.84 169.85C116.14 172.19 116.93 174.3 118.51 176.08C119.96 177.73 122.2 179.03 124.42 179.19C125.35 179.26 125.35 177.81 124.42 177.74C122.59 177.6 120.73 176.4 119.54 175.06C118.24 173.59 117.54 171.79 117.3 169.86C117.25 169.47 117 169.13 116.57 169.13C116.21 169.12 115.79 169.45 115.84 169.85Z" fill="black"/>
<path d="M98.8702 170.64C102.76 176.74 110.37 181.69 117.82 180.81C118.74 180.7 118.75 179.25 117.82 179.36C110.88 180.18 103.77 175.62 100.13 169.91C99.6202 169.12 98.3602 169.85 98.8702 170.64Z" fill="black"/>
<path d="M89.9801 145.13C89.0601 147.78 91.9401 145.75 93.6501 144.79C96.1901 143.37 97.0801 143.01 100.53 140.26C103.98 137.5 105.9 134.88 108.09 135.67C110.28 136.47 110.56 138.42 109.91 140.16C109.27 141.9 105.2 147.76 100.09 150.28C100.09 150.28 102.38 149.63 107.7 147.61C111.6 146.13 113.96 143.25 115.95 145.45C118.91 148.75 114.88 151.59 114.88 151.59C114.88 151.59 117.18 151.99 117.05 154.29C116.94 156.23 114.32 158.72 112.36 159.99C112.36 159.99 114.74 159.3 115.45 161.18C116.18 163.11 113.39 166.54 107.24 168.8C104.32 169.88 99.8401 171.17 96.2101 171.32C92.1101 171.5 89.0401 171.25 85.5901 172.2C82.4501 173.07 79.3301 175.49 79.3301 175.49L68.0901 155.93C68.0901 155.93 72.4001 153.84 73.7101 153.28C78.4601 151.25 78.5701 148.39 80.3301 145.18C81.8101 142.47 83.6601 140.37 85.5501 137.85C87.4501 135.33 87.9901 132.85 89.9101 132.71C92.7801 132.5 93.8901 136.55 92.7801 139.46C91.7501 142.18 90.5301 143.54 89.9801 145.13Z" fill="#DA7B6A"/>
<path d="M101.27 158.22C106.52 157.67 111.47 155.66 115.62 152.4C116.47 151.73 115.27 150.56 114.44 151.22C110.68 154.19 106.04 156.06 101.28 156.55C100.21 156.66 100.2 158.33 101.27 158.22Z" fill="black"/>
<path d="M102.52 164.48C106.41 164.33 110.35 162.96 113.45 160.57C113.81 160.29 114 159.85 113.75 159.42C113.54 159.07 112.96 158.84 112.6 159.12C109.74 161.33 106.13 162.66 102.52 162.8C101.45 162.85 101.44 164.52 102.52 164.48Z" fill="black"/>
<path d="M137.48 147.12C143.42 150.02 148.93 153.72 153.83 158.15C154.83 159.05 156.32 157.57 155.31 156.67C150.28 152.12 144.63 148.29 138.54 145.32C137.33 144.72 136.27 146.53 137.48 147.12Z" fill="#E66FA9"/>
<path d="M66.1201 155.49C70.5601 162.72 75.0201 169.94 79.3701 177.22C80.0601 178.38 81.8801 177.32 81.1801 176.16C76.8301 168.87 72.3701 161.65 67.9301 154.43C67.2201 153.28 65.4101 154.34 66.1201 155.49Z" fill="#E66FA9"/>
<path d="M66.42 153.67C62.09 155.29 57.88 157.23 53.85 159.48C52.67 160.14 53.73 161.95 54.91 161.29C58.79 159.13 62.82 157.25 66.98 155.69C67.51 155.49 67.87 154.98 67.71 154.4C67.57 153.89 66.96 153.47 66.42 153.67Z" fill="#E66FA9"/>
<path d="M30.95 182.08C34.56 188.15 41.3 192.15 48.45 191.68C54.33 191.3 60.06 189.1 65.34 186.61C70.74 184.06 75.87 180.95 80.81 177.6C81.92 176.85 80.87 175.03 79.75 175.79C72.56 180.66 64.89 185.21 56.58 187.87C54.3 188.6 51.96 189.21 49.58 189.48C48.77 189.57 47.95 189.63 47.14 189.63C46.82 189.63 46.51 189.62 46.19 189.6C46.04 189.59 45.9 189.58 45.75 189.56C45.5 189.54 45.55 189.54 45.51 189.53C40.07 188.72 35.57 185.72 32.77 181.02C32.07 179.86 30.26 180.92 30.95 182.08Z" fill="#E66FA9"/>
</g>
<defs>
<clipPath id="clip0_243_1621">
<rect width="200" height="200" fill="white"/>
</clipPath>
</defs>
</svg>
