<svg width="200" height="200" viewBox="0 0 200 200" fill="none" xmlns="http://www.w3.org/2000/svg">
<path fill-rule="evenodd" clip-rule="evenodd" d="M54.6999 99.02C54.6999 99.02 58.7699 90.5499 55.6799 80.8399C55.4899 80.0799 55.2699 79.2999 55.0199 78.5099C48.9399 59.5199 17.9299 53.5599 6.07989 75.2899C-5.78011 96.9999 18.6999 124.15 43.9199 111.02C45.1899 110.36 46.7799 109.29 48.4099 107.8C50.8399 108.88 54.8499 109.71 59.3099 106.79C60.2499 106.17 60.1899 104.76 59.1899 104.25C56.7199 102.97 54.6999 99.02 54.6999 99.02Z" fill="white"/>
<path fill-rule="evenodd" clip-rule="evenodd" d="M30.3901 97.3299L37.7501 101.88V78.8299L30.3901 74.7899V97.3299Z" fill="#03A74B"/>
<path fill-rule="evenodd" clip-rule="evenodd" d="M23.02 78.8299L30.38 74.7899V97.3399L23.02 101.89V78.8299Z" fill="#0D7B3E"/>
<path fill-rule="evenodd" clip-rule="evenodd" d="M25.6602 91.87C25.4702 91.85 25.2802 91.92 25.1402 92.05L24.0602 93C23.9202 93.13 23.8302 93.3 23.8202 93.49C23.8102 93.68 23.8702 93.87 24.0002 94.01C24.1402 94.16 24.3302 94.25 24.5402 94.25C24.7102 94.25 24.8802 94.19 25.0102 94.07L26.0902 93.12C26.2302 92.99 26.3202 92.82 26.3302 92.63C26.3402 92.44 26.2802 92.25 26.1502 92.11C26.0202 91.96 25.8502 91.88 25.6602 91.87Z" fill="#126634"/>
<path fill-rule="evenodd" clip-rule="evenodd" d="M28.8801 89.02C28.6901 89.01 28.5101 89.07 28.3601 89.2L27.2801 90.15C27.1401 90.28 27.0501 90.45 27.0401 90.64C27.0301 90.83 27.0901 91.01 27.2201 91.16C27.3601 91.31 27.5501 91.4 27.7601 91.4C27.9301 91.4 28.1001 91.34 28.2301 91.22L29.3101 90.27C29.6101 90.01 29.6301 89.55 29.3701 89.26C29.2401 89.12 29.0701 89.03 28.8801 89.02Z" fill="#126634"/>
<path fill-rule="evenodd" clip-rule="evenodd" d="M37.75 78.83L45.16 74.64C45.61 74.39 46.16 74.71 46.16 75.22V95.74C46.16 96.03 46.02 96.3 45.78 96.46L37.76 101.88V78.83H37.75Z" fill="#0D7B3E"/>
<path fill-rule="evenodd" clip-rule="evenodd" d="M23.0201 78.83L15.6001 74.63C15.1601 74.38 14.6101 74.7 14.6101 75.21V95.74C14.6101 96.03 14.7501 96.3 15.0001 96.47L23.0201 101.88V78.83Z" fill="#03A74B"/>
<path fill-rule="evenodd" clip-rule="evenodd" d="M22.7002 93.82L21.5002 93.04C21.1702 92.83 20.7202 92.92 20.5102 93.25C20.3002 93.58 20.3902 94.03 20.7202 94.24L21.9202 95.02C22.0402 95.09 22.1702 95.13 22.3102 95.13C22.5602 95.13 22.7802 95.01 22.9102 94.8C23.1202 94.48 23.0302 94.04 22.7002 93.82Z" fill="#126634"/>
<path fill-rule="evenodd" clip-rule="evenodd" d="M38.73 91.5199C38.37 91.3599 37.94 91.5199 37.78 91.8799L37.2 93.1899C37.12 93.3599 37.12 93.5599 37.19 93.7399C37.26 93.9199 37.39 94.0599 37.57 94.1399C37.66 94.1799 37.76 94.1999 37.86 94.1999C38.14 94.1999 38.4 94.0299 38.52 93.7699L39.1 92.4599C39.18 92.2899 39.18 92.0899 39.11 91.9099C39.04 91.7399 38.91 91.5999 38.73 91.5199Z" fill="#126634"/>
<path fill-rule="evenodd" clip-rule="evenodd" d="M34.9301 90.8C34.7701 90.69 34.5901 90.64 34.4001 90.67C34.2101 90.7 34.0501 90.8 33.9301 90.96C33.7001 91.28 33.7701 91.73 34.0901 91.96L35.2501 92.8C35.3701 92.89 35.5201 92.94 35.6701 92.94C35.9001 92.94 36.1201 92.83 36.2501 92.65C36.4801 92.33 36.4101 91.88 36.0901 91.65L34.9301 90.8Z" fill="#126634"/>
<path fill-rule="evenodd" clip-rule="evenodd" d="M31.4501 88.2599C31.2901 88.1499 31.1101 88.0999 30.9201 88.1299C30.7301 88.1599 30.5701 88.2599 30.4501 88.4199C30.3401 88.5699 30.2901 88.7599 30.3201 88.9499C30.3501 89.1399 30.4501 89.3099 30.6101 89.4199L31.7701 90.2699C31.8901 90.3599 32.0401 90.4099 32.1901 90.4099C32.4201 90.4099 32.6401 90.2999 32.7701 90.1199C32.8801 89.9699 32.9301 89.7799 32.9001 89.5899C32.8701 89.3999 32.7701 89.2399 32.6101 89.1199L31.4501 88.2599Z" fill="#126634"/>
<path fill-rule="evenodd" clip-rule="evenodd" d="M40.8502 87.9799C40.7802 87.7999 40.6502 87.6599 40.4702 87.5799C40.1102 87.4199 39.6802 87.5799 39.5202 87.9499L38.9402 89.2599C38.8602 89.4299 38.8602 89.6299 38.9302 89.8099C39.0002 89.9899 39.1302 90.1299 39.3102 90.2099C39.4002 90.2499 39.5002 90.2699 39.6002 90.2699C39.8802 90.2699 40.1402 90.0999 40.2602 89.8399L40.8402 88.5299C40.9202 88.3599 40.9202 88.1599 40.8502 87.9799Z" fill="#126634"/>
<path fill-rule="evenodd" clip-rule="evenodd" d="M26.34 84.9199C26.31 81.8899 23.8 79.4399 20.7 79.4399C17.6 79.4399 15.09 81.8899 15.06 84.9099C15.06 84.9199 15.06 84.9299 15.06 84.9299C15.06 84.9399 15.06 84.9499 15.05 84.9599C15.05 85.3999 15.11 85.8399 15.21 86.2499C15.21 86.2599 15.22 86.2699 15.22 86.2799C15.26 86.4399 15.31 86.5999 15.37 86.7599C16.28 89.5199 19.01 91.4699 20.17 92.1899C20.33 92.2899 20.51 92.3399 20.69 92.3399C20.88 92.3399 21.06 92.2899 21.22 92.1899C22.38 91.4699 25.11 89.5299 26.03 86.7699C26.08 86.6099 26.13 86.4499 26.17 86.2899C26.17 86.2799 26.18 86.2699 26.18 86.2599C26.28 85.8499 26.34 85.4099 26.34 84.9699C26.34 84.9599 26.34 84.9499 26.34 84.9399C26.34 84.9299 26.34 84.9299 26.34 84.9199Z" fill="#ED2838"/>
<path fill-rule="evenodd" clip-rule="evenodd" d="M20.6902 86.55C19.7802 86.55 19.0401 85.83 19.0501 84.94C19.0501 84.05 19.7902 83.33 20.6902 83.33C21.6002 83.33 22.3401 84.05 22.3401 84.94C22.3401 85.83 21.6102 86.55 20.6902 86.55Z" fill="white"/>
<path fill-rule="evenodd" clip-rule="evenodd" d="M45.8501 78.7999C45.8201 75.7699 43.3101 73.3199 40.2101 73.3199C37.1101 73.3199 34.6001 75.7699 34.5701 78.7899C34.5701 78.7999 34.5701 78.8099 34.5701 78.8099C34.5701 78.8199 34.5701 78.8299 34.5601 78.8399C34.5601 79.2799 34.6201 79.7199 34.7201 80.1299C34.7201 80.1399 34.7301 80.1499 34.7301 80.1599C34.7701 80.3199 34.8201 80.4799 34.8801 80.6399C35.7901 83.3999 38.5201 85.3499 39.6801 86.0699C39.8401 86.1699 40.0201 86.2199 40.2001 86.2199C40.3901 86.2199 40.5701 86.1699 40.7301 86.0699C41.8901 85.3499 44.6201 83.4099 45.5401 80.6499C45.5901 80.4899 45.6401 80.3299 45.6801 80.1699C45.6801 80.1599 45.6901 80.1499 45.6901 80.1399C45.7901 79.7299 45.8501 79.2899 45.8501 78.8499C45.8501 78.8399 45.8501 78.8299 45.8501 78.8199C45.8601 78.8199 45.8601 78.8099 45.8501 78.7999Z" fill="#F26E21"/>
<path fill-rule="evenodd" clip-rule="evenodd" d="M40.2102 80.44C39.3002 80.44 38.5602 79.72 38.5702 78.83C38.5702 77.94 39.3102 77.22 40.2102 77.22C41.1202 77.22 41.8602 77.94 41.8602 78.83C41.8602 79.72 41.1202 80.44 40.2102 80.44Z" fill="white"/>
<path d="M192.23 163.72C194.73 175.74 196.07 199.53 196.07 199.53C196.07 199.53 159.89 199.45 154.2 199.53C119.35 200 89.4102 199.79 54.4202 199.54C54.4202 199.54 56.5002 177.72 57.7602 172.37C68.5102 126.48 109.15 107.78 152.93 119.17C181.01 126.48 187.53 146.18 192.23 163.72Z" fill="#EC6723"/>
<path d="M143.04 117.09C132.75 125.28 120.75 139.55 116.18 163.25C114.44 172.3 113.49 192.6 112.7 199.8C104.75 199.66 93.73 199.96 85.79 199.8C87.96 183.57 95.91 143.56 107.09 126.84C109.6 123.09 112.02 119.86 114.33 117.09C123.4 115.52 133.08 115.51 143.04 117.09Z" fill="#B2E1EE"/>
<path d="M90.9301 127.24C87.5401 130.63 84.4301 134.29 81.6201 138.17C80.9301 139.12 80.2601 140.09 79.6101 141.07C79.0501 141.91 78.2401 142.86 78.2701 143.93C78.3301 146.08 81.0101 147.63 82.6701 148.5C83.8801 149.13 84.9501 147.31 83.7401 146.67C82.8401 146.2 81.9901 145.66 81.2301 144.98C80.9601 144.74 80.5301 144.42 80.4501 144.05C80.3401 143.59 80.8101 143.1 81.0601 142.72C82.1501 141.05 83.3001 139.41 84.5101 137.82C86.9401 134.61 89.6001 131.58 92.4401 128.74C93.3901 127.77 91.8901 126.27 90.9301 127.24Z" fill="#FFC11E"/>
<path d="M86.4401 90.4601C86.4401 90.4601 81.1001 95.7101 79.2701 107.09C77.4401 118.47 78.8401 130.42 92.9201 128.06C92.9301 128.06 79.8201 118.76 86.4401 90.4601Z" fill="black"/>
<path d="M103.36 130.57C103.36 130.57 106.72 134.42 118.02 131.49C129.32 128.56 133.72 120.76 133.72 120.76C133.72 120.76 127.57 113.16 131.66 104.93C131.66 104.93 136.66 108.04 140.15 100.07C143.64 92.1001 139.97 84.3901 135.28 83.4701C130.6 82.5501 125.82 88.0701 127.57 92.8001C127.57 92.8001 123.8 89.8101 124.26 82.5601C124.72 75.3101 124.72 75.3101 124.72 75.3101L116.73 71.8201L101.27 69.0701L87.6702 79.3401L87.4902 87.0101C87.4902 87.0101 82.1202 102.03 85.0502 114.1C87.9802 126.17 97.0602 131.66 103.36 130.57Z" fill="#F6A6AC"/>
<path d="M81.6501 80.2601C81.5001 87.3901 86.4401 90.4701 86.4401 90.4701L87.6701 87.6601C88.0401 89.4201 88.6701 88.6001 92.1201 88.2201C95.5701 87.8401 98.6201 87.4001 98.6201 87.4001C98.6201 87.4001 98.2301 85.8901 98.2601 80.1401C98.2801 75.3101 100.25 71.6701 100.89 70.6301C98.9301 74.0601 99.6401 81.4701 100.62 84.4501C101.65 87.5201 103.91 86.1501 108.53 85.8901C111.44 85.7201 114.98 85.6301 117.19 85.5801C118.16 85.5601 118.8 84.5801 118.46 83.6701C117.34 80.6501 117 76.9701 116.9 75.0401C117.43 81.6601 122.76 84.2501 122.76 84.2501C123.03 88.1701 126.27 91.5601 127.28 92.5301C127.34 92.5901 127.4 92.6401 127.44 92.6801C127.46 92.7001 127.49 92.7301 127.5 92.7401C127.52 92.7601 127.53 92.7601 127.54 92.7701C127.57 92.7901 127.58 92.8001 127.58 92.8001C125.84 88.0701 130.61 82.5601 135.29 83.4801C139.98 84.4001 143.65 92.1101 140.16 100.08C136.95 107.39 132.46 105.36 131.76 104.98C131.67 105.08 131.57 105.22 131.46 105.38C131.46 105.38 131.46 105.38 131.45 105.39C127.8 113.44 133.72 120.76 133.72 120.76C142.86 128.43 158.85 121.14 159.97 107.35C161.08 93.5701 157.74 83.3401 148.45 70.5101C139.17 57.6901 126.28 51.4801 107.09 54.9501C87.8901 58.4101 81.8101 73.1301 81.6501 80.2601Z" fill="black"/>
<path d="M140.44 88.29C140.75 89 141 89.75 141.18 90.55C143.34 91.65 141.46 93.27 143.86 94.05C146.52 94.92 146.18 90.07 140.44 88.29Z" fill="#B3202D"/>
<path d="M117.85 90.9C117.85 90.9 121.06 90.26 125.46 89.83C126.05 89.78 126.65 89.72 127.28 89.67C127.37 89.11 127.54 88.55 127.77 88.02C126.71 88.09 125.74 88.17 124.85 88.26C120.75 88.62 118.52 89 118.52 89L117.85 90.9Z" fill="#B3202D"/>
<path d="M111.56 90.5601C114.68 91.0601 113.41 93.7601 111.45 93.8701C109.49 93.9801 108.03 94.4501 107.29 94.8201C106.55 95.1901 105.08 95.5001 104.45 94.1501C103.7 92.5501 107.6 89.9201 111.56 90.5601Z" fill="white"/>
<path d="M93.6502 93.9501C95.6802 94.6301 95.6202 97.0601 93.3302 97.0801C91.0402 97.1001 89.8402 97.6001 88.9702 97.9601C88.1002 98.3301 87.2802 97.8101 87.1602 96.5401C87.0102 94.9201 90.6702 92.9501 93.6502 93.9501Z" fill="white"/>
<path d="M106.8 128.72C102.15 130.64 96.4802 129.38 92.7802 126.12C85.4602 119.65 84.6002 108.87 85.7102 99.7901C86.2802 95.1401 87.4102 90.5601 88.8902 86.1201C89.3202 84.8301 87.2802 84.2701 86.8502 85.5601C83.9002 94.3601 82.1502 104.1 83.8102 113.34C85.3902 122.1 91.3402 131.12 100.97 131.68C103.06 131.8 105.4 131.58 107.35 130.77C108.61 130.25 108.06 128.2 106.8 128.72Z" fill="black"/>
<path d="M87.2402 100.29C90.7502 103.16 93.7702 100.34 94.4802 98.83C95.1802 97.32 95.1802 96.72 95.1802 96.72C95.1802 96.72 97.3002 94.56 100.1 96.22C100.1 96.22 101.06 99.84 102.77 98.58C102.77 98.58 107.69 102.3 113.68 97.28C119.66 92.25 121.32 85.67 117.7 85.72C114.08 85.77 104.63 88.58 99.5602 93.55C99.5602 93.55 96.7902 92.35 95.0402 94.15C95.0402 94.15 90.0802 89.63 84.2702 89.12C78.4402 88.63 83.7202 97.43 87.2402 100.29ZM101.36 94.51C101.36 94.51 105.31 90.16 112.41 88.63C119.51 87.1 114.92 94.12 112.06 96.22C109.19 98.33 104.89 98.43 102.81 97.06C100.73 95.68 101.36 94.51 101.36 94.51ZM90.0802 92.64C93.0902 94.2 94.4302 95.18 94.1802 96.78C93.9302 98.37 92.3702 99.35 92.3702 99.35C89.5602 101.98 84.6802 96.88 84.2102 93.48C83.7302 90.07 87.0702 91.08 90.0802 92.64Z" fill="#B3202D"/>
<path d="M98.9601 105.05C98.9401 105.12 98.9201 105.19 98.9001 105.26C98.8501 105.4 98.9501 105.16 98.9101 105.23C98.8901 105.26 98.8801 105.3 98.8601 105.33C98.8201 105.39 98.7701 105.45 98.7401 105.51C98.8101 105.37 98.7901 105.45 98.7401 105.5C98.7201 105.52 98.7001 105.54 98.6801 105.56C98.6501 105.59 98.6201 105.62 98.5801 105.65C98.5101 105.71 98.5901 105.63 98.6201 105.62C98.5601 105.65 98.5001 105.7 98.4401 105.74C98.4001 105.76 98.3501 105.78 98.3201 105.8C98.3501 105.78 98.4401 105.75 98.3501 105.78C98.2701 105.81 98.1801 105.82 98.1001 105.85C98.0101 105.87 98.2801 105.84 98.1201 105.85C98.0801 105.85 98.0401 105.85 98.0001 105.86C97.9601 105.86 97.9201 105.86 97.8801 105.86C97.8501 105.86 97.7101 105.85 97.8301 105.86C97.9501 105.87 97.8001 105.85 97.7801 105.85C97.7401 105.84 97.7001 105.83 97.6601 105.82C97.6301 105.81 97.5701 105.78 97.5501 105.78C97.6101 105.77 97.6701 105.84 97.5601 105.78C97.5501 105.77 97.5301 105.76 97.5201 105.76C97.4801 105.73 97.4901 105.75 97.5601 105.8C97.5401 105.82 97.4701 105.65 97.5301 105.78C97.5801 105.88 97.5301 105.77 97.5101 105.75C97.5001 105.73 97.4301 105.62 97.4901 105.72C97.5501 105.82 97.4901 105.71 97.4801 105.68C97.4701 105.65 97.4601 105.61 97.4501 105.57C97.4301 105.49 97.4201 105.41 97.4001 105.34C97.3301 104.98 96.8701 104.74 96.5301 104.85C96.1401 104.98 95.9601 105.33 96.0401 105.72C96.1301 106.22 96.3301 106.69 96.7801 106.97C97.2201 107.25 97.7901 107.33 98.3001 107.26C99.2701 107.13 100.08 106.4 100.31 105.45C100.4 105.09 100.2 104.67 99.8201 104.58C99.4701 104.47 99.0601 104.66 98.9601 105.05Z" fill="black"/>
<path d="M96.0602 105.29C96.0502 105.38 96.0202 105.45 96.0002 105.54C95.9802 105.62 96.0702 105.41 96.0102 105.52C95.9902 105.56 95.9702 105.6 95.9402 105.64C95.9302 105.65 95.9202 105.67 95.9102 105.68C95.8702 105.74 95.8702 105.73 95.9402 105.65C95.9402 105.66 95.8702 105.73 95.8602 105.74C95.8302 105.77 95.8002 105.79 95.7802 105.82C95.6702 105.92 95.9102 105.75 95.7702 105.82C95.7302 105.84 95.7002 105.87 95.6602 105.89C95.6402 105.9 95.6102 105.92 95.5802 105.93C95.6002 105.92 95.6202 105.91 95.6502 105.9C95.6002 105.95 95.4502 105.96 95.3802 105.98C95.2902 106 95.5302 105.97 95.4002 105.98C95.3502 105.98 95.3002 105.99 95.2502 105.99C95.2102 105.99 95.1702 105.98 95.1302 105.98C95.0802 105.98 95.1002 105.98 95.2002 105.99C95.1802 105.99 95.1502 105.98 95.1302 105.98C95.0402 105.96 94.9602 105.94 94.8702 105.91C94.7502 105.87 94.9502 105.96 94.8802 105.91C94.8502 105.89 94.8102 105.87 94.7702 105.85C94.7502 105.84 94.6702 105.77 94.6502 105.77C94.7002 105.77 94.7602 105.86 94.6602 105.77C94.6002 105.71 94.5502 105.63 94.4802 105.58C94.5302 105.62 94.5502 105.68 94.4902 105.59C94.4702 105.56 94.4502 105.52 94.4302 105.49C94.4202 105.47 94.3602 105.39 94.3702 105.36C94.4102 105.45 94.4202 105.47 94.4002 105.42C94.3902 105.4 94.3802 105.38 94.3802 105.35C94.3702 105.33 94.3202 105.12 94.3202 105.12C94.3302 105.22 94.3402 105.25 94.3302 105.19C94.3302 105.17 94.3302 105.14 94.3202 105.12C94.3202 105.07 94.3202 105.03 94.3202 104.98C94.3302 104.61 93.9902 104.26 93.6102 104.27C93.2202 104.29 92.9202 104.58 92.9002 104.98C92.8702 106.08 93.6702 107.16 94.7802 107.34C95.3602 107.44 95.9902 107.37 96.4902 107.02C96.9502 106.71 97.3202 106.23 97.4002 105.66C97.4302 105.46 97.4302 105.29 97.3302 105.12C97.2402 104.97 97.0802 104.83 96.9102 104.8C96.6002 104.72 96.1202 104.9 96.0602 105.29Z" fill="black"/>
<path d="M94.2802 105.12C94.7302 102.22 95.2702 99.34 95.8902 96.48C96.0802 95.59 94.7202 95.22 94.5302 96.1C93.9002 98.96 93.3602 101.84 92.9202 104.74C92.8602 105.12 93.0202 105.5 93.4102 105.61C93.7402 105.7 94.2202 105.5 94.2802 105.12Z" fill="black"/>
<path d="M109.8 93.7301C111.26 93.7301 111.26 91.4601 109.8 91.4601C108.34 91.4601 108.34 93.7301 109.8 93.7301Z" fill="black"/>
<path d="M92.1601 96.9401C93.5201 96.9401 93.5201 94.8201 92.1601 94.8201C90.8001 94.8201 90.8001 96.9401 92.1601 96.9401Z" fill="black"/>
<path d="M102.74 122.67C104.72 123.6 106.88 123.9 109.04 123.57C109.42 123.51 109.63 123.04 109.53 122.7C109.42 122.3 109.04 122.15 108.66 122.21C106.91 122.48 105.05 122.21 103.45 121.46C103.1 121.3 102.69 121.36 102.48 121.71C102.31 122.01 102.4 122.51 102.74 122.67Z" fill="black"/>
<path d="M134.35 98.83C135.25 98.95 136.06 98.49 136.42 97.65C136.77 96.84 136.63 95.91 136.43 95.08C136.06 93.58 135.02 92.07 133.39 91.82C133.01 91.76 132.63 91.91 132.52 92.31C132.43 92.64 132.63 93.12 133.01 93.18C134.01 93.33 134.65 94.12 134.96 95.09C135.12 95.6 135.26 96.18 135.22 96.72C135.2 96.92 135.13 97.14 135.03 97.27C134.96 97.35 134.92 97.39 134.82 97.44C134.85 97.43 134.6 97.46 134.74 97.48C134.36 97.43 133.98 97.57 133.87 97.97C133.77 98.29 133.97 98.78 134.35 98.83Z" fill="black"/>
<path d="M134.54 87.27C133.54 87.68 132.93 88.98 132.5 89.92C132 90.99 131.67 92.14 131.61 93.32C131.56 94.42 131.76 95.52 132.2 96.53C132.61 97.46 133.31 98.56 134.35 98.83C135.23 99.06 135.6 97.7 134.73 97.47C134.09 97.3 133.63 96.33 133.4 95.76C133.09 94.98 132.98 94.15 133.02 93.32C133.06 92.48 133.28 91.64 133.61 90.86C133.78 90.46 133.98 90.08 134.2 89.71C134.32 89.51 134.44 89.31 134.57 89.12C134.64 89.02 134.8 88.68 134.91 88.63C135.27 88.48 135.51 88.16 135.4 87.76C135.32 87.43 134.89 87.13 134.54 87.27Z" fill="black"/>
<path d="M130 103.91C130.37 104.48 130.91 104.94 131.53 105.22C132.24 105.54 132.99 105.67 133.77 105.72C134.14 105.74 134.49 105.38 134.48 105.01C134.46 104.61 134.17 104.33 133.77 104.3C133.61 104.29 133.46 104.27 133.3 104.26C133.22 104.25 133.22 104.25 133.31 104.26C133.27 104.25 133.23 104.25 133.19 104.24C133.11 104.23 133.04 104.21 132.96 104.2C132.81 104.17 132.66 104.13 132.51 104.09C132.44 104.07 132.36 104.04 132.29 104.02C132.25 104.01 132.22 103.99 132.18 103.98C132.26 104.02 132.28 104.02 132.23 104C132.12 103.95 132 103.89 131.89 103.83C131.83 103.8 131.77 103.76 131.72 103.72C131.68 103.7 131.49 103.6 131.66 103.68C131.55 103.62 131.45 103.5 131.37 103.41C131.33 103.36 131.27 103.31 131.24 103.26C131.34 103.43 131.23 103.23 131.21 103.2C131.01 102.89 130.57 102.73 130.24 102.95C129.94 103.14 129.78 103.58 130 103.91Z" fill="black"/>
<path d="M82.3602 147.1C78.4002 152.64 74.7902 159 74.8702 165.98C74.9502 172.41 76.6402 178.93 80.4702 184.17C81.2702 185.26 83.1002 184.2 82.3002 183.1C78.6802 178.14 77.0602 172.08 76.9902 165.98C76.9102 159.38 80.4602 153.39 84.1902 148.17C84.9902 147.06 83.1502 146 82.3602 147.1Z" fill="#FFC11E"/>
<path d="M136.06 129.88C137.04 133.85 137.77 137.88 138.19 141.96C138.4 143.97 138.55 146 138.61 148.02C138.62 148.3 138.72 148.83 138.53 149.09C138.32 149.38 137.75 149.46 137.43 149.52C136.39 149.74 135.31 149.76 134.25 149.7C132.89 149.62 132.89 151.74 134.25 151.82C136.05 151.92 138.81 151.97 140.12 150.48C140.79 149.71 140.76 148.78 140.72 147.82C140.67 146.54 140.6 145.26 140.49 143.98C140.09 139.04 139.29 134.14 138.1 129.32C137.77 127.99 135.73 128.55 136.06 129.88Z" fill="#FFC11E"/>
<path d="M133.09 150.76C133.36 154.19 133.36 157.65 132.98 161.07C132.6 164.52 131.52 167.52 129.63 170.42C126.53 175.19 122.22 179.33 116.93 181.56C115.69 182.08 116.24 184.13 117.49 183.6C123.21 181.19 127.83 176.96 131.24 171.82C133.2 168.86 134.46 165.79 134.94 162.27C135.46 158.46 135.5 154.59 135.2 150.76C135.11 149.41 132.99 149.4 133.09 150.76Z" fill="#FFC11E"/>
<path d="M160.5 162.58C161.7 171.9 162.91 181.22 164.11 190.53C164.24 191.57 165.9 191.59 165.77 190.53C164.57 181.21 163.36 171.89 162.16 162.58C162.02 161.54 160.36 161.53 160.5 162.58Z" fill="black"/>
<path d="M104.49 88.52C104.94 88.18 105.42 87.87 105.91 87.6C106.17 87.46 106.45 87.33 106.72 87.2C106.84 87.15 106.86 87.14 106.78 87.17C106.85 87.14 106.92 87.11 106.99 87.09C107.11 87.04 107.24 87 107.36 86.95C107.89 86.76 108.44 86.62 109 86.51C109.13 86.49 109.26 86.46 109.39 86.44C109.52 86.42 109.54 86.42 109.44 86.43C109.51 86.42 109.59 86.41 109.66 86.4C109.96 86.37 110.26 86.35 110.56 86.34C111.11 86.32 111.64 85.87 111.62 85.28C111.59 84.72 111.15 84.2 110.56 84.22C108 84.3 105.47 85.14 103.41 86.68C102.97 87.01 102.7 87.61 103.03 88.13C103.32 88.57 104.02 88.87 104.49 88.52Z" fill="black"/>
<path d="M95.2501 87.4201C92.8201 86.2001 89.9801 86.1901 87.5501 87.4001C87.0501 87.6501 86.8701 88.3901 87.1701 88.8501C87.5001 89.3601 88.0901 89.4901 88.6201 89.2301C89.4301 88.8301 90.4601 88.6001 91.4001 88.6001C92.0101 88.6001 92.2901 88.6401 92.8001 88.7601C93.3601 88.8901 93.7601 89.0401 94.1801 89.2501C94.6701 89.5001 95.3501 89.4001 95.6301 88.8701C95.8901 88.3801 95.7801 87.6801 95.2501 87.4201Z" fill="black"/>
<path d="M103.27 112.79C107.97 112.83 112.58 110.88 115.83 107.47C116.46 106.81 115.46 105.81 114.83 106.47C111.84 109.62 107.62 111.41 103.27 111.38C102.36 111.37 102.36 112.78 103.27 112.79Z" fill="black"/>
<path d="M114.35 105.25C114.65 105.96 115.04 106.61 115.56 107.19C116.04 107.72 116.62 108.18 117.24 108.53C117.56 108.71 118.02 108.62 118.21 108.28C118.38 107.95 118.3 107.5 117.96 107.31C117.82 107.23 117.68 107.15 117.54 107.06C117.48 107.02 117.42 106.98 117.36 106.93C117.33 106.91 117.3 106.89 117.27 106.86C117.2 106.81 117.39 106.96 117.29 106.88C117.04 106.68 116.81 106.46 116.59 106.23C116.54 106.18 116.49 106.12 116.44 106.06C116.42 106.03 116.39 106 116.37 105.97C116.36 105.95 116.34 105.94 116.33 105.92C116.3 105.88 116.31 105.9 116.37 105.97C116.37 105.93 116.26 105.82 116.24 105.79C116.19 105.72 116.15 105.66 116.1 105.59C116.02 105.46 115.94 105.32 115.87 105.19C115.84 105.12 115.8 105.06 115.77 104.99C115.75 104.95 115.73 104.91 115.71 104.87C115.69 104.83 115.63 104.69 115.71 104.88C115.64 104.7 115.56 104.56 115.39 104.46C115.24 104.37 115.02 104.33 114.85 104.39C114.68 104.45 114.51 104.55 114.43 104.71C114.34 104.86 114.28 105.08 114.35 105.25Z" fill="black"/>
<path d="M109.76 116.01C110.31 116.09 110.81 115.99 111.32 115.8C111.74 115.64 112.16 115.46 112.55 115.24C113.33 114.81 114.01 114.23 114.53 113.51C114.75 113.21 114.59 112.71 114.28 112.54C113.91 112.35 113.55 112.47 113.31 112.79C113.29 112.82 113.26 112.86 113.24 112.89C113.28 112.83 113.27 112.85 113.23 112.89C113.17 112.96 113.11 113.03 113.04 113.1C112.93 113.22 112.8 113.34 112.68 113.44C112.65 113.47 112.62 113.49 112.58 113.52C112.54 113.55 112.47 113.6 112.55 113.54C112.48 113.59 112.41 113.64 112.34 113.69C112.19 113.79 112.04 113.88 111.88 113.97C111.73 114.05 111.58 114.13 111.43 114.2C111.35 114.24 111.28 114.27 111.2 114.31C111.15 114.33 111.07 114.37 111.16 114.33C111.12 114.35 111.08 114.36 111.04 114.38C110.87 114.45 110.7 114.52 110.52 114.57C110.46 114.59 110.4 114.6 110.34 114.62C110.33 114.62 110.19 114.65 110.26 114.64C110.32 114.63 110.19 114.64 110.18 114.64C110.16 114.64 110 114.63 110.12 114.65C109.76 114.6 109.34 114.74 109.25 115.14C109.19 115.47 109.37 115.95 109.76 116.01Z" fill="black"/>
<path d="M102.54 170.1C95.2001 170.07 93.6601 169.04 93.7101 166.38C93.7601 163.72 97.5701 163.94 105.39 163.4C112.95 162.87 115.03 163.36 115.15 163.39C115.1 163.24 114.38 161.02 115.16 157.54C115.97 153.94 122.1 153.67 121.75 157.42C121.4 161.16 123.98 163.66 126.75 165.91C129.51 168.16 132.88 171.5 134.85 174.21C136.25 176.13 151.92 184.71 151.92 184.71C152.31 184.63 142.18 199.85 142.18 199.85L138.86 195.98L135.48 191.58C127.9 194.28 122.17 189.11 122.17 189.11C121.49 190.2 118.65 190.78 118.65 190.78C118.65 190.78 119.55 192.91 115.42 194.03C111.3 195.15 109.24 193.54 108.42 191.51C107.59 189.48 109.58 188.5 109.58 188.5C109.58 188.5 106.01 189.74 104.35 186.98C102.7 184.22 104.54 182.72 104.54 182.72C98.8501 183.45 99.7801 177.77 101.78 176.68C103.79 175.58 114.01 171.49 114.01 171.49L111.31 169.88C111.31 169.89 109.88 170.13 102.54 170.1Z" fill="#F5A0AC"/>
<path d="M122.94 168.06C121.78 167.1 120.63 166.14 119.47 165.18C118.91 164.71 118.35 164.2 117.74 163.8C117.14 163.41 116.43 163.2 115.75 163.02C114.8 162.76 114.39 164.24 115.34 164.5C115.95 164.66 116.55 164.83 117.07 165.2C117.61 165.57 118.09 166.03 118.59 166.45C119.68 167.35 120.77 168.25 121.85 169.16C122.17 169.42 122.62 169.47 122.93 169.16C123.21 168.87 123.26 168.32 122.94 168.06Z" fill="black"/>
<path d="M105.95 183.35C108.67 182.24 111.41 181.17 114.17 180.15C114.56 180.01 114.82 179.63 114.71 179.21C114.61 178.84 114.16 178.53 113.77 178.67C111.01 179.69 108.27 180.75 105.55 181.87C105.17 182.03 104.9 182.38 105.01 182.81C105.11 183.18 105.56 183.51 105.95 183.35Z" fill="black"/>
<path d="M110.39 189.19C112.18 188.59 113.95 187.96 115.72 187.3C116.11 187.16 116.37 186.78 116.26 186.36C116.16 185.99 115.71 185.68 115.32 185.82C113.55 186.48 111.78 187.11 109.99 187.71C109.6 187.84 109.34 188.24 109.45 188.65C109.56 189.04 110 189.33 110.39 189.19Z" fill="black"/>
<path d="M115.51 192.45C118.51 192.18 121.32 191.02 123.63 189.09C123.95 188.83 123.9 188.28 123.63 188.01C123.31 187.69 122.87 187.74 122.55 188.01C120.57 189.65 118.07 190.68 115.51 190.92C115.1 190.96 114.74 191.25 114.74 191.69C114.74 192.06 115.09 192.48 115.51 192.45Z" fill="black"/>
<path d="M122.17 189.78C125.84 193.83 132.13 194.44 136.48 191.11C137.25 190.52 136.49 189.18 135.71 189.79C131.88 192.73 126.51 192.29 123.26 188.7C122.59 187.97 121.51 189.05 122.17 189.78Z" fill="black"/>
<path d="M134.35 191.97C134.96 192.62 135.55 193.29 136.13 193.97C136.41 194.3 136.69 194.63 136.96 194.97C137.1 195.14 137.24 195.32 137.38 195.49C137.41 195.53 137.44 195.57 137.48 195.61C137.5 195.63 137.51 195.65 137.53 195.67C137.5 195.63 137.5 195.63 137.53 195.67C137.6 195.76 137.67 195.86 137.74 195.95C137.98 196.27 138.41 196.47 138.79 196.23C139.1 196.03 139.32 195.52 139.07 195.18C137.93 193.68 136.73 192.25 135.45 190.88C135.18 190.59 134.64 190.58 134.37 190.88C134.07 191.2 134.06 191.66 134.35 191.97Z" fill="black"/>
<path d="M60.8701 165.63L62.3601 153.44C66.7601 152.18 69.3501 150.29 70.2101 148.69C72.0401 145.3 72.4901 144.05 72.4901 144.05C72.4901 144.05 72.8301 145.71 76.2001 144.03C79.9401 142.16 80.9901 140.31 80.5901 138.23C80.2001 136.15 78.0601 136.44 78.0601 136.44C78.0601 136.44 81.6301 135.51 81.5401 132.4C81.4402 129.29 79.1401 129.08 79.1401 129.08C84.1801 126.6 80.4201 122.53 78.2101 122.73C75.9901 122.93 65.4801 125.15 65.4801 125.15L66.8401 122.4C66.8401 122.4 68.1301 121.82 74.1201 117.84C79.2301 114.45 80.4902 112.73 79.8601 110.99C79.7501 110.69 79.5901 110.39 79.3801 110.08C77.9401 107.97 74.9401 110.2 68.2701 113.98C61.8101 117.63 60.3701 119.15 60.2901 119.24C60.2501 119.09 57.5501 123.71 56.4801 127.01C56.1701 127.95 51.0001 139.15 50.2201 141.19C49.9201 141.98 43.5901 157.19 43.2601 159.68C43.0801 161.11 60.8701 165.63 60.8701 165.63Z" fill="#F5A0AC"/>
<path d="M69.7402 131.07C73.0302 130.35 76.3402 129.71 79.6702 129.15C80.1102 129.08 80.3502 128.54 80.2402 128.14C80.1102 127.68 79.6702 127.49 79.2302 127.57C75.9102 128.13 72.6002 128.77 69.3002 129.49C68.2802 129.72 68.7102 131.29 69.7402 131.07Z" fill="black"/>
<path d="M70.9301 138.32C73.6201 137.69 76.3301 137.14 79.0501 136.68C79.4901 136.61 79.7301 136.07 79.6201 135.67C79.4901 135.21 79.0501 135.02 78.6101 135.1C75.8901 135.56 73.1801 136.11 70.4901 136.74C69.4701 136.99 69.9001 138.56 70.9301 138.32Z" fill="black"/>
<path d="M153.88 186.29C160.2 188.85 166.28 191.99 172.05 195.64C172.95 196.21 173.79 194.78 172.89 194.21C166.99 190.49 160.78 187.32 154.32 184.7C153.34 184.29 152.91 185.89 153.88 186.29Z" fill="black"/>
<path d="M96.2502 155.93C97.5602 156.89 98.9302 157.77 100.36 158.55C100.43 158.59 100.51 158.63 100.6 158.62C100.69 158.61 102.14 153.21 102.09 153.18C102.08 153.18 97.7602 155.27 96.2502 155.93Z" fill="white"/>
<path d="M95.5902 157.06C96.7402 157.9 97.9402 158.68 99.1802 159.39C99.5902 159.62 100.02 159.92 100.51 159.92C101 159.93 101.49 159.71 101.73 159.26C101.85 159.04 101.92 158.8 101.99 158.56C102.39 157.26 102.73 155.95 103.07 154.63C103.24 153.99 103.58 153.13 103.2 152.51C102.81 151.88 102.06 151.73 101.41 152.04C99.4802 152.98 97.5502 153.93 95.5802 154.79C94.9502 155.07 94.7602 156.03 95.1102 156.58C95.5302 157.23 96.2202 157.34 96.9002 157.05C98.8702 156.19 100.8 155.23 102.73 154.3C102.13 154.14 101.54 153.99 100.94 153.83C100.95 153.85 100.76 153.12 100.76 153.19C100.73 152.67 100.83 152.77 100.8 152.89C100.79 152.93 100.78 152.98 100.77 153.02C100.74 153.16 100.7 153.3 100.67 153.44C100.56 153.87 100.45 154.29 100.34 154.71C100.09 155.65 99.8402 156.58 99.5702 157.51C99.5202 157.68 99.4702 157.84 99.4202 158.01C99.4002 158.06 99.3802 158.11 99.3702 158.17C99.3302 158.29 99.2202 158.37 99.4802 157.92C99.3502 158.15 100.24 157.33 99.9302 157.48C100.15 157.42 100.37 157.36 100.59 157.3C101.02 157.45 101.14 157.47 100.96 157.38C100.91 157.35 100.87 157.33 100.82 157.3C100.73 157.25 100.63 157.19 100.54 157.14C100.37 157.04 100.2 156.94 100.02 156.84C99.6602 156.63 99.3102 156.41 98.9602 156.19C98.2602 155.74 97.5702 155.27 96.9002 154.78C96.3502 154.37 95.4202 154.67 95.1102 155.25C94.7702 155.95 95.0002 156.62 95.5902 157.06Z" fill="white"/>
<path d="M80.8201 119.68C89.7901 131.22 96.1901 144.65 99.5801 158.87C99.8501 159.99 101.57 159.51 101.3 158.4C97.8401 143.86 91.2501 130.21 82.0801 118.42C81.3801 117.51 80.1301 118.78 80.8201 119.68Z" fill="white"/>
<path d="M40.2901 157.86L63.7901 164.68L57.85 199.45H26.3L40.2901 157.86Z" fill="#EC6723"/>
<path d="M63.11 165.64C61.74 174.74 60.29 183.86 59.27 193C59.17 193.9 60.58 193.89 60.68 193C61.68 183.98 63.12 174.99 64.47 166.01C64.61 165.13 63.25 164.74 63.11 165.64Z" fill="black"/>
</svg>
