<svg width="200" height="200" viewBox="0 0 200 200" fill="none" xmlns="http://www.w3.org/2000/svg">
<g clip-path="url(#clip0_258_19)">
<path d="M3 198.75C3 198.75 3.13 174.53 5.97 157.75C10.34 131.89 28.59 100.45 54.17 93.0099C81.55 85.0399 102.25 83.7799 120.85 89.2599C153.13 98.7699 178.77 114.45 189.75 147.09C197.71 170.73 196.47 199.02 196.47 199.02L165.39 198.74L3 198.75Z" fill="#E7E6E6"/>
<path d="M40.86 160.62C40.42 164.33 40.05 168.04 39.75 171.77C39.65 172.99 41.55 172.98 41.65 171.77C41.96 168.05 42.33 164.33 42.76 160.62C42.82 160.11 42.28 159.67 41.81 159.67C41.25 159.67 40.92 160.11 40.86 160.62Z" fill="black"/>
<path d="M125.37 90.6499L114.88 87.2899L100.37 120.16C100.37 120.16 102.71 129.56 113.85 128.07C121.67 127.03 125.51 113.13 125.86 106.19C126.36 96.2099 125.37 90.6499 125.37 90.6499Z" fill="#A1A2A2"/>
<path d="M68.61 107.58C68.48 114.28 69.87 124.89 78.59 127.04C87.31 129.19 93.12 123.38 93.12 123.38L87.43 105.06L68.61 107.58Z" fill="#A1A2A2"/>
<path d="M130.03 70.5C130.03 70.5 132.03 58.2299 125.31 47.74C118.16 36.58 106.41 32.24 89.05 34.65C71.69 37.06 64.58 49.65 61.59 60.91L108.9 68.65L105.77 88.75L116.96 88.6199L130.03 70.5Z" fill="black"/>
<path d="M119.31 75.72C119.31 75.72 121.03 67.95 125.81 67.02C130.6 66.09 132.34 69.3 131.71 74.8C131.07 80.3 127.05 85.68 121.41 84.22C121.41 84.22 119.13 92.54 116.27 99.07C112.54 107.61 106.75 117.58 95.74 127.9L86.18 120.62C86.18 120.62 68.66 120.58 60.24 104.02C51.82 87.46 62.56 60.96 62.56 60.96C62.56 60.96 65.65 52.03 72.23 49.28C78.81 46.53 77.76 50.96 82.05 52.78C86.34 54.6 96.04 50.89 99.5 48.11C102.96 45.33 108.41 46.24 110.62 49.17C112.83 52.1 112.29 56.24 110.74 59.36C109.19 62.48 113.36 65.36 113.51 67.24C113.66 69.12 112.05 76.19 110.3 82.6C108.55 89 110.24 88.96 113.63 88.25C117.02 87.54 116.94 83.53 119.31 75.72Z" fill="#F4A5AB"/>
<path d="M84.84 79.92C84.82 80.04 84.78 80.15 84.74 80.27C84.68 80.44 84.71 80.28 84.75 80.26C84.74 80.26 84.67 80.42 84.66 80.44C84.63 80.5 84.59 80.55 84.56 80.61C84.54 80.63 84.44 80.79 84.52 80.68C84.6 80.57 84.49 80.72 84.47 80.74C84.43 80.79 84.38 80.84 84.33 80.88C84.29 80.92 84.25 80.96 84.21 80.99C84.06 81.12 84.19 80.98 84.22 80.99C84.2 80.98 83.95 81.16 83.91 81.18C83.87 81.2 83.81 81.25 83.76 81.25C83.87 81.21 83.89 81.2 83.83 81.22C83.8 81.23 83.77 81.24 83.74 81.25C83.69 81.27 83.64 81.28 83.58 81.3C83.56 81.31 83.31 81.35 83.42 81.34C83.54 81.32 83.32 81.34 83.29 81.35C83.27 81.35 83.09 81.33 83.08 81.34C83.13 81.31 83.28 81.38 83.1 81.34C83.05 81.33 83 81.32 82.94 81.3C82.9 81.29 82.8 81.24 82.76 81.24C82.85 81.24 82.9 81.3 82.77 81.24C82.72 81.21 82.68 81.19 82.63 81.16C82.59 81.13 82.4 81.04 82.6 81.15C82.51 81.1 82.43 81 82.36 80.93C82.32 80.89 82.26 80.84 82.23 80.78C82.32 80.97 82.25 80.8 82.22 80.75C82.18 80.68 82.07 80.55 82.06 80.46C82.1 80.57 82.11 80.59 82.09 80.53C82.08 80.5 82.07 80.47 82.06 80.44C82.04 80.38 82.02 80.31 82.01 80.25C81.9 79.78 81.34 79.46 80.88 79.61C80.39 79.77 80.12 80.24 80.24 80.74C80.58 82.17 81.99 83.33 83.49 83.17C84.98 83.01 86.28 81.9 86.6 80.42C86.7 79.95 86.46 79.41 85.96 79.29C85.51 79.17 84.95 79.42 84.84 79.92Z" fill="black"/>
<path d="M80.36 79.98C80.21 80.23 80.05 80.46 79.9 80.7C79.84 80.79 80 80.59 79.88 80.72C79.83 80.78 79.78 80.83 79.73 80.89C79.68 80.94 79.63 81 79.57 81.05C79.55 81.07 79.39 81.2 79.49 81.12C79.59 81.04 79.42 81.16 79.4 81.18C79.33 81.22 79.26 81.26 79.19 81.3C79.34 81.22 79.12 81.33 79.09 81.33C79.01 81.36 78.93 81.38 78.84 81.4C78.7 81.44 78.56 81.46 78.42 81.49C78.21 81.53 78.52 81.49 78.32 81.5C78.23 81.5 78.15 81.5 78.06 81.5C77.88 81.5 78.11 81.52 78.03 81.5C77.97 81.48 77.9 81.46 77.83 81.45C77.73 81.43 77.98 81.53 77.83 81.45C77.77 81.42 77.71 81.38 77.65 81.35C77.47 81.24 77.77 81.47 77.62 81.33C77.58 81.29 77.54 81.25 77.5 81.21C77.48 81.19 77.34 81.01 77.42 81.12C77.49 81.23 77.39 81.06 77.37 81.04C77.33 80.98 77.3 80.92 77.27 80.86C77.36 81.02 77.26 80.81 77.25 80.78C77.23 80.72 77.21 80.65 77.2 80.59C77.18 80.51 77.18 80.42 77.19 80.56C77.18 80.4 77.18 80.24 77.19 80.08C77.2 79.88 77.15 80.21 77.2 80C77.22 79.92 77.24 79.84 77.26 79.76C77.39 79.3 77.1 78.74 76.62 78.63C76.14 78.52 75.63 78.78 75.49 79.27C75.25 80.15 75.3 81.11 75.75 81.91C76.14 82.6 76.86 83.16 77.65 83.3C78.53 83.45 79.65 83.23 80.39 82.72C81.07 82.26 81.52 81.6 81.93 80.91C82.18 80.5 82.04 79.88 81.6 79.66C81.17 79.42 80.62 79.54 80.36 79.98Z" fill="black"/>
<path d="M77.28 79.52C77.5 76.4 78.4 73.38 79.29 70.4C79.63 69.27 77.86 68.78 77.52 69.91C76.59 73.06 75.68 76.23 75.45 79.52C75.41 80.01 75.9 80.44 76.37 80.44C76.88 80.44 77.24 80.02 77.28 79.52Z" fill="black"/>
<path d="M100.73 60.4699C99.34 58.6699 97.43 57.5499 95.15 57.3499C93 57.1599 90.78 58.0699 89.27 59.5899C88.69 60.1699 88.65 61.2199 89.27 61.7999C89.89 62.3699 90.86 62.4199 91.48 61.7999C91.61 61.6599 91.75 61.5399 91.9 61.4099C91.99 61.3299 92.05 61.2999 91.92 61.3899C92 61.3399 92.07 61.2799 92.15 61.2299C92.33 61.1099 92.51 61.0099 92.7 60.9099C92.78 60.8699 92.87 60.8299 92.96 60.7899C93.17 60.6899 92.76 60.8499 92.98 60.7799C93.35 60.6699 93.71 60.5699 94.08 60.4799C94.31 60.4299 93.85 60.4899 94.09 60.4799C94.18 60.4799 94.28 60.4599 94.37 60.4599C94.58 60.4499 94.8 60.4499 95.01 60.4599C95.1 60.4699 95.19 60.4799 95.29 60.4799C95.14 60.4699 95.13 60.4499 95.29 60.4899C95.47 60.5299 95.65 60.5699 95.83 60.6199C96.01 60.6699 96.18 60.7399 96.36 60.7999C96.22 60.7499 96.24 60.7499 96.37 60.8099C96.45 60.8499 96.54 60.8899 96.62 60.9299C96.78 61.0199 96.94 61.1099 97.1 61.2099C97.2 61.2699 97.29 61.3399 97.39 61.4099C97.58 61.5399 97.24 61.2599 97.4 61.4199C97.53 61.5499 97.68 61.6599 97.81 61.7999C97.87 61.8699 97.94 61.9299 98 61.9999C98.04 62.0399 98.24 62.2899 98.06 62.0599C98.56 62.6999 99.42 63.1199 100.19 62.6199C100.8 62.1899 101.26 61.1599 100.73 60.4699Z" fill="black"/>
<path d="M76.95 60.15C75.43 58.87 73.55 58.1 71.54 58.11C69.54 58.12 67.66 58.9 66.15 60.2C65.53 60.73 65.56 61.87 66.15 62.41C66.81 63.02 67.69 62.98 68.36 62.41C68.43 62.35 68.5 62.29 68.58 62.23C68.45 62.33 68.46 62.33 68.6 62.22C68.76 62.12 68.91 62.01 69.08 61.92C69.22 61.84 69.37 61.76 69.52 61.69C69.58 61.66 69.65 61.63 69.71 61.6C69.56 61.66 69.56 61.66 69.73 61.6C70.09 61.48 70.45 61.39 70.82 61.3C71.15 61.22 70.6 61.3 70.97 61.28C71.16 61.27 71.35 61.25 71.54 61.25C71.73 61.25 71.92 61.26 72.11 61.27C72.56 61.3 71.82 61.2 72.26 61.29C72.63 61.36 73 61.45 73.36 61.58C73.44 61.61 73.76 61.75 73.51 61.64C73.68 61.72 73.85 61.8 74.02 61.9C74.18 61.99 74.35 62.09 74.5 62.2C74.58 62.25 74.65 62.31 74.73 62.37C74.6 62.27 74.61 62.28 74.75 62.39C75.37 62.92 76.35 63.05 76.96 62.39C77.48 61.77 77.61 60.71 76.95 60.15Z" fill="black"/>
<path d="M95.5 118.09C89.89 119.27 83.76 118.76 78.28 117.16C72.86 115.57 67.89 111.98 64.08 107.85C59.36 102.73 57.89 95.09 57.87 88.33C57.86 84.42 58.39 80.53 59.13 76.69C59.66 73.95 60.15 71.15 60.96 68.48C62.63 62.95 64.83 57.26 67.95 52.38C69.03 50.68 66.33 49.12 65.26 50.81C62.21 55.59 60.08 61.13 58.32 66.5C57.45 69.17 56.92 71.92 56.37 74.67C55.56 78.7 54.91 82.79 54.79 86.9C54.58 94.1 55.9 102.4 60.38 108.25C62.48 110.99 65.13 113.21 67.9 115.25C70.33 117.03 72.76 118.54 75.6 119.56C82.07 121.89 89.6 122.51 96.33 121.09C98.29 120.68 97.46 117.68 95.5 118.09Z" fill="black"/>
<path d="M93.35 109.2C90.14 110.79 86.39 110.98 83.02 109.83C81.9 109.45 81.42 111.22 82.53 111.6C86.38 112.92 90.64 112.59 94.27 110.79C95.33 110.26 94.4 108.68 93.35 109.2Z" fill="black"/>
<path d="M127.25 72.1799C125.53 72.2899 123.86 73.2799 123.09 74.8599C122.3 76.4799 122.43 78.5099 123.53 79.9599C123.83 80.3499 124.32 80.5599 124.78 80.2899C125.17 80.0599 125.41 79.4299 125.11 79.0399C125.01 78.9099 124.92 78.7799 124.83 78.6299C124.78 78.5399 124.74 78.4599 124.69 78.3699C124.68 78.3499 124.63 78.2299 124.66 78.3199C124.59 78.1499 124.54 77.9799 124.49 77.8099C124.47 77.7299 124.45 77.6499 124.44 77.5699C124.41 77.4199 124.43 77.5599 124.42 77.4699C124.35 76.8599 124.42 76.2399 124.66 75.7899C124.81 75.5099 124.95 75.2799 125.09 75.1199C125.19 74.9999 125.3 74.8899 125.42 74.7899C125.42 74.7899 125.6 74.6399 125.54 74.6799C125.48 74.7299 125.66 74.5999 125.67 74.5799C125.8 74.4899 125.93 74.4099 126.07 74.3399C126.15 74.2999 126.24 74.2499 126.32 74.2199C126.21 74.2699 126.37 74.2099 126.41 74.1899C126.56 74.1399 126.71 74.0999 126.86 74.0599C126.94 74.0399 127.01 74.0299 127.09 74.0199C126.93 74.0399 127.2 74.0199 127.22 74.0199C127.71 73.9899 128.14 73.6199 128.14 73.0999C128.16 72.6299 127.74 72.1499 127.25 72.1799Z" fill="black"/>
<path d="M94 91.92C93.73 92.11 93.45 92.28 93.16 92.43C93.01 92.51 92.85 92.61 92.68 92.66C92.71 92.65 92.75 92.63 92.78 92.62C92.74 92.64 92.7 92.65 92.66 92.67C92.58 92.7 92.5 92.73 92.41 92.76C92.1 92.87 91.78 92.96 91.46 93.03C91.32 93.06 91.15 93.12 91.01 93.11C91.14 93.09 91.16 93.09 91.06 93.1C91.02 93.11 90.97 93.11 90.93 93.11C90.84 93.12 90.75 93.13 90.67 93.13C90.19 93.16 89.73 93.53 89.75 94.05C89.77 94.52 90.15 95 90.67 94.97C92.19 94.87 93.68 94.38 94.94 93.5C95.33 93.23 95.55 92.69 95.27 92.25C95 91.86 94.42 91.62 94 91.92Z" fill="black"/>
<path d="M94.14 127.71C90.97 145.71 88.76 163.75 88.95 182.05C89.01 187.66 89.24 193.27 89.56 198.88C89.66 200.63 92.39 200.64 92.29 198.88C91.27 180.79 91.61 162.82 94.14 144.86C94.91 139.37 95.82 133.9 96.78 128.44C97.08 126.72 94.45 125.98 94.14 127.71Z" fill="#A1A2A2"/>
<path d="M84.14 150.32C88.41 150.32 88.42 143.68 84.14 143.68C79.87 143.69 79.86 150.32 84.14 150.32Z" fill="black"/>
<path d="M82.92 186.8C87.19 186.8 87.2 180.16 82.92 180.16C78.65 180.16 78.64 186.8 82.92 186.8Z" fill="black"/>
<path d="M154.93 150.46C157.85 162.54 159.97 174.91 161.04 187.28C161.37 191.09 161.58 194.9 161.59 198.72C161.59 199.94 163.49 199.94 163.49 198.72C163.46 185.22 161.32 171.66 158.64 158.46C158.06 155.61 157.44 152.77 156.76 149.95C156.47 148.77 154.64 149.27 154.93 150.46Z" fill="black"/>
<path d="M151.31 156.9C152.89 158.76 155.09 160.09 157.46 160.63C157.94 160.74 158.51 160.48 158.63 159.97C158.74 159.49 158.48 158.92 157.97 158.8C157.43 158.68 156.9 158.51 156.39 158.31C156.34 158.29 156.27 158.26 156.36 158.3C156.29 158.27 156.22 158.24 156.15 158.21C156.02 158.15 155.9 158.09 155.78 158.03C155.53 157.9 155.29 157.77 155.05 157.63C154.83 157.49 154.61 157.35 154.4 157.2C154.34 157.16 154.28 157.11 154.21 157.06C154.17 157.03 154.1 156.98 154.18 157.04C154.07 156.95 153.96 156.87 153.86 156.78C153.43 156.41 153.03 156 152.66 155.57C152.34 155.19 151.65 155.21 151.32 155.57C150.94 155.96 150.96 156.49 151.31 156.9Z" fill="black"/>
<path d="M84.18 91.7899C85.35 92.1799 86.6 92.1699 87.82 92.0399C88.89 91.9299 89.95 91.7499 90.97 91.4299C92.99 90.7999 94.8 89.6899 96.02 87.9399C96.69 86.9699 95.11 86.0499 94.44 87.0099C93.47 88.3999 91.93 89.2299 90.34 89.6999C88.6 90.2199 86.44 90.6099 84.68 90.0199C83.55 89.6499 83.06 91.4199 84.18 91.7899Z" fill="black"/>
<path d="M74.74 69.5599C74.1 67.9499 72.49 67.3399 71.94 67.1499C70.74 66.7499 69.39 66.3499 67.34 66.8599C63.39 67.8299 63.21 69.2299 63.19 70.2299C63.18 71.0599 63.71 72.5499 64.89 72.7899C65.53 72.9199 66.58 72.4199 68.85 72.1799C71.01 71.9499 73.5 72.4699 74.12 72.1799C74.76 71.8999 75.31 70.9999 74.74 69.5599Z" fill="white"/>
<path d="M69.08 71.8699C71.39 71.8699 71.39 68.2799 69.08 68.2799C66.77 68.2799 66.77 71.8699 69.08 71.8699Z" fill="black"/>
<path d="M97.25 70.54C96.86 69.03 95.32 68.03 94.77 67.82C93.57 67.36 91.83 66.94 89.63 67.23C86.01 67.72 85.27 69.48 85.17 70.41C85.09 71.19 85.4 72.62 86.6 72.93C87.24 73.1 88.41 72.69 90.8 72.62C93.07 72.55 95.59 73.2 96.28 72.97C96.96 72.74 97.61 71.94 97.25 70.54Z" fill="white"/>
<path d="M91.95 72.33C94.18 72.33 94.19 68.86 91.95 68.86C89.72 68.87 89.72 72.33 91.95 72.33Z" fill="black"/>
<path d="M60.3199 138.15C60.3199 138.15 63.0599 134.7 64.7399 129.53C66.3099 124.72 71.9799 125.98 71.6899 129.43C71.3899 132.87 70.5599 134.06 70.5599 134.06L60.3199 138.15Z" fill="#E08F8B"/>
<path d="M45.08 166.63L53.82 156.33C53.82 156.33 58.47 139.36 61.19 137.04C63.9 134.71 67.33 133.07 68.78 132.2C70.23 131.33 73.31 129 75.34 130.16C77.38 131.32 77.28 137.72 77.28 137.72C77.28 137.72 79.32 138.69 79.51 140.63C79.7 142.57 78.54 146.16 78.54 146.16C78.54 146.16 80.4 146.83 80.48 148.68C80.65 152.68 79.22 155.37 79.22 155.37C79.22 155.37 81.64 155.18 81.84 157.5C82.03 159.83 76.7 167.49 73.99 168.94C71.28 170.39 66.04 172.82 66.04 172.82L61.87 183.49C61.87 183.49 54.47 187.58 51.01 184.27C41.22 174.85 45.08 166.63 45.08 166.63Z" fill="#F4A5AB"/>
<path d="M76.21 136.82C73.48 136.53 71.13 138.16 69.22 139.92C67.21 141.77 65.36 143.78 63.65 145.9C63.32 146.31 63.25 146.88 63.65 147.29C63.99 147.63 64.7 147.71 65.04 147.29C66.61 145.33 68.31 143.47 70.14 141.74C71.81 140.16 73.75 138.52 76.21 138.78C76.74 138.84 77.19 138.29 77.19 137.8C77.19 137.22 76.73 136.87 76.21 136.82Z" fill="black"/>
<path d="M78.57 144.87C75.92 145.18 73.75 146.7 71.99 148.64C70.12 150.69 68.49 152.98 66.78 155.16C66.45 155.58 66.37 156.14 66.78 156.55C67.12 156.89 67.84 156.97 68.17 156.55C69.76 154.52 71.3 152.43 72.98 150.48C74.43 148.8 76.27 147.11 78.57 146.84C79.1 146.78 79.55 146.43 79.55 145.86C79.55 145.37 79.1 144.81 78.57 144.87Z" fill="black"/>
<path d="M78.87 154.05C76.99 154.55 75.56 155.91 74.27 157.29C72.79 158.86 71.36 160.46 69.98 162.11C69.64 162.52 69.58 163.1 69.98 163.5C70.33 163.85 71.03 163.91 71.37 163.5C72.69 161.94 74.04 160.41 75.44 158.92C76.57 157.72 77.75 156.39 79.4 155.95C80.61 155.62 80.1 153.72 78.87 154.05Z" fill="black"/>
<path d="M38.65 169.89C36.77 173.48 36.59 178.86 40.36 184.71C44.14 190.56 49.62 193.36 55.86 193.36C62.1 193.36 61.86 183.47 61.86 183.47C61.86 183.47 54.71 185.78 49.19 178.73C44.44 172.66 46.01 165.52 46.01 165.52C46.01 165.52 40.55 166.28 38.65 169.89Z" fill="#A1A2A2"/>
<path d="M30.33 181.4C33.53 177.33 37.24 173.64 41.38 170.52C41.97 170.08 42.27 169.34 41.87 168.65C41.53 168.07 40.59 167.71 40 168.16C35.66 171.43 31.75 175.2 28.39 179.46C27.93 180.04 27.83 180.83 28.39 181.39C28.87 181.87 29.87 181.98 30.33 181.4Z" fill="#A1A2A2"/>
<path d="M57.16 188.88C56.75 190.26 56.28 191.63 55.77 192.98C55.25 194.34 54.78 195.44 54.15 196.78C53.85 197.42 53.95 198.28 54.64 198.65C55.25 198.97 56.18 198.85 56.51 198.16C57.81 195.39 58.92 192.54 59.8 189.61C60 188.93 59.55 188.09 58.85 187.93C58.11 187.76 57.38 188.15 57.16 188.88Z" fill="#A1A2A2"/>
</g>
<defs>
<clipPath id="clip0_258_19">
<rect width="200" height="200" fill="white"/>
</clipPath>
</defs>
</svg>
