<svg width="200" height="200" viewBox="0 0 200 200" fill="none" xmlns="http://www.w3.org/2000/svg">
<g clip-path="url(#clip0_259_188)">
<path d="M94.5202 69.07L99.5402 66.63C100.92 68.68 109.65 84.03 111.17 87.71C116.05 99.51 118.55 104.61 117.16 111.67C114.38 125.85 93.7602 123.59 92.7102 112.14C92.7202 112.13 104.48 93.11 94.5202 69.07Z" fill="black"/>
<path d="M108.45 158.48C108.45 158.48 111.57 191.44 111.96 200.44H37.68C37.47 195.08 40.27 179.36 40.27 179.36C38.06 170.68 38.35 164.76 38.35 164.76C38.35 164.76 37.48 166.13 34.99 164.88C31.86 163.31 33.5 159.41 33.5 159.41C33.5 159.41 31.76 162.77 28.53 161.15C25.3 159.53 27.04 156.8 27.04 156.8C27.04 156.8 25.04 158.81 22.19 157.3C20.08 156.18 20.82 153.45 20.82 153.45C20.82 153.45 16.84 155.31 14.73 151.96C12.62 148.6 17.26 145.14 17.26 145.14C17.26 145.14 15.41 138.19 20.81 129.69C27.54 119.11 49.09 114.21 49.09 114.21L73.99 110.13C73.99 110.13 77.95 110.72 88.79 112.19C95.92 113.16 105.12 113.35 116.13 121.85C124.09 128 126.64 138.37 126.64 138.37C126.64 138.37 131.27 141.06 129.95 144.67C128.77 147.89 124.89 147.5 124.89 147.5C124.89 147.5 127.01 148.95 123.78 150.36C121.42 151.39 119.95 149.05 119.95 149.05C119.95 149.05 121.46 152.17 118.44 153.58C115.35 155.02 113.1 152.37 113.1 152.37C113.1 152.37 114.91 159.51 108.45 158.48Z" fill="#008DB2"/>
<path d="M99.99 72.9C99.99 72.9 102.69 65 94.33 54.84C85.97 44.68 68.13 34.71 48.92 49.51C31.52 62.92 20.92 101.19 24.14 118.53C27.28 135.42 55.98 137.85 61.18 119.59C63.21 112.47 57.71 96.8 57.71 96.8L99.99 72.9Z" fill="black"/>
<path d="M59.77 52.56C63.38 49.52 67.15 47.54 70.84 46.42C70.65 46.25 70.47 46.07 70.28 45.88C67.76 43.21 67.77 39.46 67.9 37.93C67.93 37.54 68.28 37.28 68.65 37.35C69.88 37.6 72.56 38.35 74.49 40.3C75.65 41.47 76.44 42.6 76.96 43.63C77.26 42.78 77.69 41.9 78.3 41.03C80.29 38.18 83.57 37.42 85.2 37.21C85.74 37.14 86.2 37.59 86.18 38.14C86.12 39.54 85.79 42.13 84.38 44.26C84 44.83 83.62 45.32 83.24 45.77C85.81 46.33 88.13 47.32 90.05 48.65C101.69 56.72 100.1 67.12 100.1 67.12C100.1 67.12 92.97 44.48 73.53 54.26C54.09 64.03 54.9 82.44 54.9 82.44C54.9 82.44 53.89 80.49 52.05 80.53C49.73 80.58 48.33 81.45 48.33 81.45C48.33 81.45 47.36 63 59.77 52.56Z" fill="#00A94F"/>
<path d="M68.3199 37C69.4999 37.01 70.6499 37.33 71.7399 37.79C72.7899 38.24 73.8599 38.82 74.7099 39.61C75.5499 40.39 76.2699 41.35 76.7499 42.41C77.1999 43.42 77.3999 44.53 77.5199 45.63C79.0999 46.34 80.4999 47.91 80.2399 49.71C80.1199 50.53 78.8799 50.31 78.9999 49.49C79.1099 48.73 78.6199 48.03 78.0999 47.54C77.5599 47.04 76.9099 46.69 76.1999 46.56C74.9499 46.34 73.4799 47.01 73.0899 48.33C72.9899 48.67 72.7199 48.92 72.3599 48.86C72.0499 48.81 71.7499 48.45 71.8499 48.11C72.4099 46.18 74.2899 45.02 76.2099 45.26C76.1099 44.5 75.9499 43.75 75.6499 43.04C75.2699 42.12 74.6399 41.28 73.9199 40.61C73.1899 39.94 72.3099 39.44 71.4099 39.05C70.4899 38.64 69.4699 38.3 68.4499 38.29C68.1099 38.29 67.7999 38.08 67.7599 37.71C67.7199 37.39 67.9799 37 68.3199 37Z" fill="#008043"/>
<path d="M67.9601 57.66C67.9601 57.66 64.7101 60.1 62.6901 62.47C62.0401 63.23 61.0201 64.5 60.1901 65.72C59.6101 66.57 59.0401 67.58 59.0401 67.58C59.0401 67.58 57.2601 63.13 59.8101 59.9C63.1801 55.63 67.9601 57.66 67.9601 57.66Z" fill="#97CA51"/>
<path d="M59.67 54.37C60.29 55.27 61.55 55.45 62.49 54.77C63.43 54.09 63.7 52.8 63.08 51.9C62.74 51.41 62.2 51.13 61.63 51.09C61.63 51.09 60.83 51.66 60.42 52C59.83 52.49 59.36 52.89 59.36 52.89C59.29 53.38 59.38 53.95 59.67 54.37Z" fill="#E24497"/>
<path d="M82.12 38.95L83.89 40.61L82.75 41.6L80.96 40.03L80.83 42.99L79.5 42.91L79.54 40.69L77.93 42.62L77.49 42.37C77.49 42.37 78.38 40.49 79.87 39.35C80.31 39 81.01 38.5 81.85 38.13C82.79 37.72 83.85 37.45 83.85 37.45L84.1 38.3L82.12 38.95Z" fill="#97CA51"/>
<path d="M49.41 72.83L51.57 73.42L51.34 74.76L49.34 74.06L50.19 76.17L49.23 76.59L48.72 74.74C48.72 74.74 48.77 74.16 48.91 73.24C49.06 72.31 49.2 71.85 49.2 71.85L50.43 70.58L50.94 71.57L49.41 72.83Z" fill="#FAAE17"/>
<path d="M84.6492 50.311C85.3777 50.1805 85.8687 49.5195 85.746 48.8345C85.6234 48.1496 84.9334 47.7001 84.205 47.8305C83.4765 47.961 82.9854 48.622 83.1081 49.307C83.2308 49.9919 83.9208 50.4414 84.6492 50.311Z" fill="white"/>
<path d="M91.1199 54.4399L92.8499 52.5699L94.1599 53.7599L92.5899 55.5799C92.5899 55.5799 92.5299 55.5299 92.4299 55.4399C92.3199 55.3399 92.0099 55.0799 91.7599 54.8999C91.2799 54.5499 91.1199 54.4399 91.1199 54.4399Z" fill="#E24497"/>
<path d="M74.81 50.1899L74.99 52.0099L68.42 53.1499L68.23 50.4399L74.81 50.1899Z" fill="#FAAE17"/>
<path d="M52.5099 67.97C52.5699 68.69 53.1899 69.21 53.8899 69.14C54.5899 69.07 55.0999 68.43 55.0399 67.72C54.9799 67 54.3599 66.48 53.6599 66.55C52.9599 66.62 52.4499 67.25 52.5099 67.97Z" fill="white"/>
<path d="M86.8301 114.48C86.8301 114.48 88.4601 123.09 78.0201 122.95C69.3801 122.84 64.0901 118.59 61.8301 115.5C61.8301 115.5 61.3401 109.32 59.8501 104.24C58.3501 99.16 57.2501 96.7 57.2501 96.7C57.2501 96.7 50.5901 97.99 47.3101 92.59C44.0301 87.2 45.3901 81.67 49.9601 80.55C54.5301 79.42 54.8801 82.11 56.4401 85.19C58.0001 88.27 63.2301 92.16 62.3001 82.01C62.3001 82.01 67.5001 78.79 71.2701 74C75.0401 69.21 76.5701 64.24 76.5701 64.24C76.5701 64.24 78.9401 66.3 84.7201 68.55C92.2501 71.49 98.2401 70.34 98.8301 70.15C99.4201 69.96 104.11 89.13 103.91 98.97C103.65 111.93 93.8001 114.85 86.8301 114.48Z" fill="#F498A8"/>
<path d="M97.4001 67.83C99.0201 73.22 99.9601 78.82 100.95 84.36C101.89 89.59 102.74 94.98 102.37 100.31C102.17 103.18 101.57 106.14 99.7101 108.42C98.2601 110.19 96.0801 111.23 93.8701 112.02C91.5401 112.85 89.0901 112.95 86.6401 112.82C83.2201 112.63 79.8301 112.01 76.5501 111.06C74.8601 110.57 73.9001 113.14 75.6001 113.63C83.4801 115.92 94.2301 117.48 100.83 111.22C103.13 109.04 104.29 106.11 104.82 103.03C105.69 97.93 105.04 92.55 104.26 87.48C103.23 80.75 102.07 73.87 100.11 67.34C99.6001 65.66 96.8901 66.13 97.4001 67.83Z" fill="black"/>
<path d="M49.85 87.23C49.92 87.26 50 87.29 50.07 87.32C50.09 87.33 50.32 87.45 50.14 87.35C50.27 87.42 50.39 87.5 50.51 87.58C50.63 87.66 50.74 87.75 50.85 87.84C51 87.96 50.76 87.74 50.91 87.89C50.96 87.94 51 87.98 51.05 88.03C51.15 88.14 51.24 88.25 51.33 88.36C51.38 88.42 51.42 88.49 51.47 88.55C51.59 88.7 51.41 88.44 51.52 88.62C51.67 88.87 51.8 89.13 51.9 89.4C51.92 89.46 51.95 89.52 51.97 89.59C51.99 89.65 51.99 89.64 51.96 89.55C51.97 89.59 51.98 89.63 51.99 89.66C52.03 89.8 52.06 89.94 52.09 90.08C52.12 90.22 52.13 90.37 52.15 90.51C52.15 90.55 52.16 90.59 52.16 90.63C52.16 90.53 52.16 90.51 52.16 90.58C52.16 90.65 52.16 90.71 52.16 90.78C52.16 91.07 52.13 91.36 52.07 91.64C52.11 91.43 52.06 91.66 52.05 91.7C52.03 91.78 52 91.85 51.98 91.92C51.93 92.07 51.86 92.21 51.79 92.36C51.58 92.79 51.89 93.4 52.33 93.54C52.84 93.7 53.28 93.46 53.51 93C54.85 90.24 53.32 86.61 50.5 85.5C50.05 85.32 49.47 85.58 49.32 86.04C49.16 86.53 49.37 87.04 49.85 87.23Z" fill="black"/>
<path d="M88.26 91.4401C88.21 90.8001 87.93 90.1701 87.71 89.5701C87.47 88.9201 87.22 88.2701 86.96 87.6201C86.44 86.3201 85.88 85.0401 85.31 83.7601C84.93 82.9201 83.63 83.5301 84.01 84.3701C84.88 86.3001 85.71 88.2601 86.44 90.2501C86.6 90.6801 86.82 91.1501 86.84 91.6201C86.85 91.8901 86.77 92.3301 86.53 92.5001C86.31 92.6501 85.93 92.6001 85.7 92.5101C85.36 92.3801 85.21 92.1001 85.1 91.7801C84.97 91.4101 84.47 91.2901 84.14 91.4401C84.01 91.5001 83.92 91.6001 83.86 91.7001C83.72 91.8201 83.63 91.9801 83.6 92.1901C83.59 92.2501 83.58 92.3201 83.57 92.3801C83.57 92.4101 83.57 92.4101 83.56 92.4201C83.56 92.4301 83.56 92.4201 83.55 92.4401C83.52 92.5501 83.49 92.6501 83.45 92.7601C83.43 92.8101 83.41 92.8601 83.39 92.9101C83.38 92.9301 83.39 92.9201 83.38 92.9301C83.38 92.9301 83.38 92.9301 83.37 92.9401C83.31 93.0401 83.25 93.1201 83.18 93.2101C83.16 93.2301 83.15 93.2401 83.13 93.2601C83.09 93.2901 83.05 93.3201 83.01 93.3601C83.13 93.2601 83.03 93.3501 82.98 93.3701C82.94 93.3901 82.91 93.4001 82.87 93.4201C82.86 93.4201 82.75 93.4401 82.73 93.4501C82.72 93.4501 82.7 93.4501 82.69 93.4501C82.68 93.4501 82.69 93.4501 82.68 93.4501C82.61 93.4401 82.53 93.4401 82.46 93.4301C82.44 93.4301 82.44 93.4301 82.44 93.4301C82.43 93.4301 82.43 93.4201 82.41 93.4201C82.35 93.4001 82.29 93.3801 82.23 93.3601C82.2 93.3501 82.15 93.3201 82.14 93.3101C82.1 93.2801 82.06 93.2601 82.02 93.2301C82.01 93.2201 82 93.2201 82 93.2101C81.87 93.0501 81.73 92.9101 81.62 92.7401C81.6 92.7201 81.59 92.6901 81.57 92.6701C81.54 92.6301 81.51 92.5801 81.49 92.5301C81.43 92.4301 81.37 92.3201 81.31 92.2101C81.21 92.0301 81.12 91.8401 81.05 91.6501C80.91 91.3001 80.42 91.1301 80.09 91.3101C79.73 91.5001 79.6 91.8901 79.75 92.2701C79.97 92.8101 80.27 93.3201 80.61 93.7901C81.02 94.3501 81.59 94.7201 82.28 94.8501C83.05 94.9901 83.78 94.6901 84.29 94.1201C84.44 93.9501 84.55 93.7601 84.65 93.5601C85.18 93.9501 85.86 94.1201 86.55 94.0101C87.76 93.8001 88.35 92.5601 88.26 91.4401Z" fill="black"/>
<path d="M89.6701 121.22C88.6601 123.64 86.7101 125.78 84.3301 126.91C82.4701 127.8 80.2301 127.96 78.2001 127.93C73.7301 127.85 68.7501 126.75 65.2601 123.8C64.3801 123.06 63.3701 124.52 64.2301 125.25C68.1601 128.57 73.9901 129.82 79.0201 129.7C81.3301 129.64 83.7301 129.33 85.7601 128.16C88.2501 126.73 90.2201 124.49 91.3301 121.84C91.7801 120.77 90.1101 120.16 89.6701 121.22Z" fill="#006B83"/>
<path d="M95.7402 81.98C95.1402 82.25 92.8502 81.89 90.8202 82.16C88.6902 82.45 87.6802 82.92 87.0902 82.83C86.0002 82.66 85.6302 81.38 85.6502 80.66C85.6802 79.8 86.2302 78.12 89.4302 77.34C91.3802 76.87 92.9702 77.1 94.0702 77.41C94.5802 77.55 96.0102 78.32 96.4602 79.67C96.8802 80.91 96.3402 81.7 95.7402 81.98Z" fill="white"/>
<path d="M90.0001 81.7099C92.2501 81.8999 92.5601 78.3999 90.3001 78.2099C88.0501 78.0099 87.7501 81.5099 90.0001 81.7099Z" fill="black"/>
<path d="M69.5802 82.86C69.7102 81.45 70.9302 80.37 71.3902 80.11C72.3902 79.56 73.8802 78.97 75.8902 78.98C79.1802 79 80.1102 80.52 80.3302 81.34C80.5202 82.04 80.4402 83.37 79.4302 83.78C78.8802 84 77.7902 83.78 75.6402 83.98C73.6102 84.17 71.4602 85.05 70.8102 84.93C70.1602 84.81 69.4602 84.16 69.5802 82.86Z" fill="white"/>
<path d="M74.1002 83.72C76.3502 83.91 76.6602 80.41 74.4002 80.22C72.1502 80.02 71.8402 83.52 74.1002 83.72Z" fill="black"/>
<path d="M57.2601 96.7101C57.2601 96.7101 50.5901 98.0001 47.3101 92.6001C44.0301 87.2001 45.3801 81.6701 49.9601 80.5401C54.5301 79.4101 54.8801 82.1001 56.4501 85.1801C57.1901 86.6401 58.5801 88.4301 59.7501 88.5101L57.2601 96.7101Z" fill="#F498A8"/>
<path d="M49.85 87.23C49.92 87.26 50 87.29 50.07 87.32C50.09 87.33 50.32 87.45 50.14 87.35C50.27 87.42 50.39 87.5 50.51 87.58C50.63 87.66 50.74 87.75 50.85 87.84C51 87.96 50.76 87.74 50.91 87.89C50.96 87.94 51 87.98 51.05 88.03C51.15 88.14 51.24 88.25 51.33 88.36C51.38 88.42 51.42 88.49 51.47 88.55C51.59 88.7 51.41 88.44 51.52 88.62C51.67 88.87 51.8 89.13 51.9 89.4C51.92 89.46 51.95 89.52 51.97 89.59C51.99 89.65 51.99 89.64 51.96 89.55C51.97 89.59 51.98 89.63 51.99 89.66C52.03 89.8 52.06 89.94 52.09 90.08C52.12 90.22 52.13 90.37 52.15 90.51C52.15 90.55 52.16 90.59 52.16 90.63C52.16 90.53 52.16 90.51 52.16 90.58C52.16 90.65 52.16 90.71 52.16 90.78C52.16 91.07 52.13 91.36 52.07 91.64C52.12 91.43 52.06 91.66 52.05 91.7C52.03 91.78 52 91.85 51.98 91.92C51.93 92.07 51.86 92.21 51.79 92.36C51.58 92.79 51.89 93.4 52.33 93.54C52.84 93.7 53.28 93.46 53.51 93C54.85 90.23 53.32 86.61 50.5 85.5C50.05 85.32 49.47 85.58 49.32 86.04C49.16 86.53 49.37 87.04 49.85 87.23Z" fill="black"/>
<path d="M70.1902 77.07C70.2002 77.06 70.4102 76.8 70.2702 76.96C70.1402 77.12 70.3402 76.89 70.3702 76.86C70.5002 76.73 70.6302 76.61 70.7702 76.5C70.9002 76.4 71.0302 76.3 71.1702 76.2C71.2902 76.11 71.3502 76.08 71.1902 76.18C71.2702 76.13 71.3502 76.08 71.4302 76.04C71.7502 75.86 72.0702 75.7 72.4102 75.57C72.5902 75.5 72.7702 75.43 72.9602 75.37C72.7702 75.43 72.8702 75.4 73.0002 75.36C73.0902 75.33 73.1902 75.31 73.2802 75.28C73.6402 75.19 74.0102 75.12 74.3702 75.07C74.5602 75.05 74.7602 75.03 74.9502 75.01C75.1702 74.99 74.6002 75.01 74.9702 75.01C75.0502 75.01 75.1202 75.01 75.2002 75.01C75.5802 75.01 75.9502 75.04 76.3202 75.1C76.3902 75.11 76.4602 75.13 76.5402 75.14C76.8902 75.19 76.3502 75.08 76.5402 75.14C76.7302 75.19 76.9202 75.24 77.1002 75.3C77.8002 75.54 78.6802 75.21 78.9202 74.46C79.1502 73.75 78.8402 72.89 78.0802 72.64C74.6002 71.47 70.2002 72.56 67.8502 75.43C67.3802 76 67.5802 77.01 68.1902 77.41C68.9002 77.85 69.6802 77.68 70.1902 77.07Z" fill="black"/>
<path d="M87.61 73.96C87.76 73.83 87.91 73.71 88.07 73.6C88.18 73.51 88.17 73.53 88.06 73.6C88.14 73.55 88.23 73.5 88.31 73.45C88.64 73.26 88.99 73.13 89.34 72.99C89.08 73.1 89.33 72.99 89.39 72.98C89.49 72.95 89.58 72.93 89.68 72.9C89.88 72.85 90.07 72.81 90.27 72.78C90.45 72.75 90.63 72.73 90.81 72.72C90.95 72.71 91.06 72.71 90.86 72.71C90.96 72.71 91.06 72.71 91.16 72.71C91.54 72.71 91.93 72.75 92.3 72.81C92.38 72.82 92.46 72.84 92.54 72.85C92.23 72.8 92.51 72.84 92.58 72.86C92.77 72.91 92.96 72.97 93.15 73.04C93.32 73.1 93.48 73.17 93.64 73.24C93.64 73.24 93.96 73.41 93.79 73.31C93.62 73.21 93.9 73.38 93.93 73.4C94.1 73.5 94.26 73.61 94.41 73.73C94.47 73.78 94.53 73.83 94.59 73.88C94.89 74.12 94.39 73.68 94.66 73.95C95.19 74.47 96.06 74.67 96.66 74.12C97.18 73.64 97.39 72.68 96.83 72.12C93.94 69.25 88.85 69.12 85.78 71.8C85.22 72.29 85.08 73.23 85.61 73.8C86.12 74.34 87.01 74.48 87.61 73.96Z" fill="black"/>
<path d="M38.1899 163.99C38.2099 163.97 38.2199 163.97 38.1899 163.99V163.99Z" fill="#006B83"/>
<path d="M39.5901 161.58C39.6001 161.52 39.6001 161.46 39.5901 161.58V161.58Z" fill="#006B83"/>
<path d="M48.29 156.16C47.97 155.84 47.35 155.79 47.03 156.16C45.36 158.1 42.94 159.31 40.41 159.43C39.93 159.45 39.52 159.82 39.52 160.32C39.52 160.48 39.58 160.63 39.66 160.77C39.64 160.84 39.61 160.91 39.62 161C39.62 161.18 39.62 161.35 39.6 161.53C39.6 161.57 39.59 161.61 39.59 161.65C39.59 161.62 39.59 161.61 39.59 161.6C39.59 161.61 39.59 161.61 39.59 161.62C39.57 161.71 39.56 161.79 39.54 161.88C39.5 162.05 39.45 162.22 39.39 162.39C39.38 162.43 39.36 162.46 39.35 162.5C39.34 162.53 39.28 162.69 39.33 162.56C39.38 162.44 39.33 162.56 39.32 162.59C39.3 162.63 39.28 162.68 39.26 162.72C39.18 162.87 39.1 163.01 39.01 163.15C38.96 163.22 38.91 163.3 38.86 163.37C38.84 163.39 38.82 163.42 38.8 163.44C38.69 163.57 38.57 163.7 38.44 163.82C38.38 163.88 38.31 163.94 38.24 163.99C38.21 164.01 38.18 164.04 38.15 164.06C38.18 164.03 38.2 164.01 38.21 164C38.19 164.02 38.16 164.04 38.14 164.06C37.76 164.33 37.54 164.85 37.82 165.28C38.06 165.65 38.63 165.89 39.04 165.6C40.49 164.57 41.4 162.91 41.41 161.12C44.06 160.76 46.55 159.46 48.31 157.42C48.61 157.05 48.65 156.51 48.29 156.16Z" fill="#006B83"/>
<path d="M103.17 138.14C105.97 142.9 107.38 148.33 107.26 153.85C107.24 155 109.01 154.99 109.04 153.85C109.17 148.03 107.66 142.26 104.7 137.24C104.12 136.26 102.58 137.15 103.17 138.14Z" fill="#006B83"/>
<path d="M81.5801 151.89C88.3201 151.87 89.7401 150.91 89.6901 148.47C89.6401 146.03 86.1401 146.23 78.9601 145.73C72.0101 145.24 70.1001 145.7 69.9901 145.72C70.0401 145.58 70.7001 143.54 69.9901 140.34C69.2401 137.03 63.6101 136.79 63.9301 140.23C64.2501 143.67 61.8801 145.96 59.3401 148.03C56.8101 150.1 53.7101 153.17 51.9001 155.65C50.6101 157.41 42.7901 162.38 38.3401 165.12C36.5101 166.25 35.2601 167 35.2601 167L36.2301 165.3C35.8701 165.22 35.4701 165.1 35.0001 164.87C31.8701 163.3 33.5101 159.4 33.5101 159.4C33.5101 159.4 31.7701 162.76 28.5401 161.14C25.3101 159.52 27.0501 156.79 27.0501 156.79C27.0501 156.79 25.0501 158.8 22.2001 157.29C20.0901 156.17 20.8301 153.44 20.8301 153.44C20.8301 153.44 19.2001 154.2 17.4801 153.87C12.7301 163.32 5.15009 181.21 14.3501 189.93C20.8501 196.08 30.8701 190.67 38.3301 184.84C44.0301 180.38 48.2401 175.67 48.2401 175.67L51.3401 171.63C58.3001 174.11 63.5701 169.36 63.5701 169.36C64.2001 170.36 66.8001 170.89 66.8001 170.89C66.8001 170.89 65.9801 172.85 69.7701 173.87C73.5601 174.9 75.4401 173.42 76.2001 171.55C76.9601 169.68 75.1301 168.79 75.1301 168.79C75.1301 168.79 78.4101 169.93 79.9301 167.4C81.4501 164.87 79.7501 163.49 79.7501 163.49C84.9801 164.16 84.1201 158.94 82.2801 157.94C80.4301 156.93 71.0401 153.17 71.0401 153.17L73.5201 151.69C73.5201 151.69 74.8301 151.91 81.5801 151.89Z" fill="#F5A0AC"/>
<path d="M63.83 151.01C64.83 150.18 65.83 149.35 66.83 148.52C67.29 148.14 67.74 147.72 68.23 147.38C68.71 147.05 69.26 146.89 69.82 146.74C70.69 146.5 70.32 145.15 69.45 145.38C68.84 145.54 68.21 145.73 67.67 146.07C67.08 146.44 66.56 146.93 66.03 147.37C64.97 148.25 63.9 149.13 62.84 150.01C62.55 150.25 62.59 150.75 62.84 151.01C63.13 151.3 63.54 151.25 63.83 151.01Z" fill="black"/>
<path d="M78.8202 162.7C76.3202 161.68 73.8002 160.7 71.2702 159.76C70.9102 159.63 70.5002 159.91 70.4002 160.25C70.2902 160.64 70.5302 160.98 70.8902 161.12C73.4202 162.05 75.9402 163.03 78.4402 164.06C78.7902 164.2 79.2102 163.9 79.3102 163.57C79.4202 163.16 79.1702 162.85 78.8202 162.7Z" fill="black"/>
<path d="M74.73 168.07C73.09 167.52 71.46 166.94 69.83 166.33C69.47 166.2 69.06 166.48 68.96 166.82C68.85 167.21 69.09 167.55 69.45 167.69C71.07 168.29 72.7 168.87 74.35 169.43C74.71 169.55 75.12 169.29 75.22 168.94C75.33 168.55 75.1 168.19 74.73 168.07Z" fill="black"/>
<path d="M69.6601 171.01C67.3101 170.79 65.0101 169.85 63.1901 168.34C62.9001 168.1 62.4801 168.05 62.1901 168.34C61.9401 168.59 61.9001 169.09 62.1901 169.34C64.3201 171.11 66.9001 172.17 69.6501 172.42C70.0301 172.45 70.3501 172.07 70.3501 171.72C70.3701 171.3 70.0401 171.04 69.6601 171.01Z" fill="black"/>
<path d="M62.5502 168.97C59.5602 172.27 54.6302 172.67 51.1102 169.97C50.3902 169.42 49.6902 170.64 50.4002 171.19C54.3902 174.25 60.1802 173.69 63.5402 169.97C64.1502 169.3 63.1602 168.3 62.5502 168.97Z" fill="black"/>
<path d="M51.35 170.98C50.17 172.24 49.06 173.56 48.02 174.93C47.8 175.22 47.96 175.73 48.27 175.89C48.64 176.09 48.99 175.95 49.23 175.64C49.29 175.56 49.35 175.49 49.41 175.41C49.55 175.23 49.37 175.46 49.45 175.35C49.48 175.31 49.51 175.27 49.54 175.24C49.67 175.08 49.79 174.92 49.92 174.76C50.18 174.44 50.44 174.12 50.7 173.81C51.23 173.18 51.78 172.57 52.34 171.97C52.59 171.7 52.63 171.24 52.34 170.97C52.07 170.73 51.62 170.69 51.35 170.98Z" fill="black"/>
<path d="M128.5 147.41C128.5 147.41 128.35 147.16 127.95 146.9C126.49 147.64 124.88 147.49 124.88 147.49C124.88 147.49 127 148.94 123.77 150.35C121.41 151.38 119.94 149.04 119.94 149.04C119.94 149.04 121.45 152.16 118.43 153.57C115.34 155.01 113.09 152.36 113.09 152.36C113.09 152.36 114.54 158.14 110.11 158.54L117.63 173.51L109.74 173.2L82.5102 172.14L82.5002 172.02L82.3102 172.01C78.6902 170.44 75.2702 171.5 73.8202 172.1C70.7502 173.36 69.4202 175.77 69.4202 175.77C69.4202 175.77 70.1002 174.48 66.9402 173.76C63.4302 172.96 61.7102 173.62 60.8402 175.22C59.9702 176.82 61.5502 177.8 61.5502 177.8C61.5502 177.8 58.6602 176.47 57.0302 178.59C55.4002 180.71 56.8102 182.11 56.8102 182.11C52.1002 181.01 52.3702 185.77 53.9602 186.84C55.5502 187.92 63.7602 192.18 63.7602 192.18L61.3502 193.27C61.3502 193.27 60.1702 192.95 54.0102 192.33C48.7502 191.8 46.9702 192.25 46.4502 193.76C46.3602 194.02 46.3002 194.3 46.2702 194.62C46.0802 196.81 49.2902 196.97 55.8002 198.09C62.1002 199.19 63.8802 198.96 63.9902 198.95C63.9302 199.07 68.2602 197.47 70.7702 195.86C71.4902 195.4 72.9502 194.64 74.5802 193.7C77.4302 192.07 80.8302 189.88 81.8802 187.71C85.1702 187.39 98.5202 190.14 111.16 192.18C114.5 192.72 117.79 193.21 120.83 193.58C134.97 195.3 139.33 189.87 141.6 186.46C148.8 175.64 128.5 147.41 128.5 147.41Z" fill="#F5A0AC"/>
<path d="M57.2502 182.72C58.4402 182.93 59.6302 183.15 60.7802 183.51C61.6302 183.78 62.6802 184.14 63.1902 184.93C63.5702 185.52 63.6302 186.35 62.9702 186.71C62.1502 187.16 60.9202 186.99 60.1102 186.63C59.7602 186.48 59.3502 186.53 59.1502 186.88C58.9702 187.18 59.0502 187.69 59.4002 187.84C61.0802 188.59 64.2702 188.79 64.8002 186.45C65.0202 185.47 64.7002 184.47 64.0302 183.73C63.3502 182.98 62.3802 182.56 61.4402 182.24C60.2002 181.82 58.9102 181.59 57.6202 181.36C57.2502 181.29 56.8602 181.46 56.7502 181.85C56.6602 182.19 56.8702 182.65 57.2502 182.72Z" fill="black"/>
<path d="M63.1401 179.12C63.2101 179.15 63.2801 179.18 63.3501 179.2C63.2601 179.16 63.4701 179.25 63.4901 179.26C63.6401 179.33 63.7801 179.4 63.9301 179.48C64.2201 179.64 64.3601 179.73 64.5501 179.92C64.7401 180.11 64.8301 180.25 64.9001 180.56C64.9501 180.8 64.9401 181.21 64.9001 181.45C64.8801 181.6 64.8501 181.75 64.7901 181.86C64.7601 181.92 64.7201 181.98 64.6801 182.04C64.6001 182.16 64.7101 182.02 64.6201 182.12C64.5601 182.18 64.5101 182.24 64.4501 182.29C64.4301 182.31 64.2901 182.42 64.3401 182.38C64.3901 182.34 64.2401 182.44 64.2201 182.46C64.1601 182.5 64.0901 182.54 64.0201 182.57C63.9901 182.58 63.8201 182.65 63.9501 182.6C63.8901 182.62 63.8301 182.64 63.7701 182.66C63.6501 182.7 63.5301 182.72 63.4101 182.75C63.2401 182.78 63.5101 182.75 63.3601 182.75C63.3001 182.75 63.2501 182.76 63.1901 182.76C63.1301 182.76 63.0601 182.76 63.0001 182.75C62.8101 182.74 63.0901 182.77 62.9501 182.74C62.5801 182.67 62.1901 182.84 62.0801 183.23C61.9901 183.57 62.2001 184.03 62.5701 184.1C64.1201 184.38 65.9801 183.47 66.2601 181.81C66.4301 180.8 66.3401 179.8 65.6501 179.01C65.1001 178.38 64.2801 178.04 63.5201 177.74C63.1701 177.6 62.7501 177.9 62.6501 178.23C62.5301 178.66 62.7801 178.98 63.1401 179.12Z" fill="black"/>
<path d="M71.3403 182.29C70.1503 183.23 69.0703 184.29 68.1503 185.49C67.2903 186.61 66.6203 187.94 66.9303 189.39C67.2303 190.78 68.4803 191.66 69.8803 191.58C71.3603 191.5 72.4903 190.58 73.5003 189.59C74.8203 188.3 76.1703 187.06 77.6103 185.9C77.9103 185.66 77.8603 185.16 77.6103 184.9C77.3203 184.6 76.9103 184.66 76.6103 184.9C75.2603 185.99 73.9603 187.15 72.7203 188.37C71.8303 189.25 70.5203 190.61 69.1203 190.07C67.6503 189.51 68.3603 187.61 68.9803 186.7C69.8803 185.39 71.0903 184.25 72.3303 183.27C72.6303 183.03 72.5703 182.52 72.3303 182.27C72.0403 181.99 71.6303 182.06 71.3403 182.29Z" fill="black"/>
<path d="M67.8502 175.47C68.0702 175.62 68.2502 175.81 68.4102 176.07C68.5102 176.25 68.5302 176.3 68.5802 176.44C68.6102 176.52 68.6302 176.61 68.6502 176.69C68.6602 176.73 68.6702 176.76 68.6702 176.8C68.6602 176.74 68.6602 176.75 68.6702 176.83C68.6702 176.9 68.6802 176.98 68.6802 177.05C68.6802 177.08 68.6502 177.35 68.6702 177.23C68.6402 177.4 68.6002 177.56 68.5302 177.72C68.5702 177.62 68.4902 177.81 68.4802 177.82C68.4402 177.89 68.4002 177.97 68.3502 178.04C68.2902 178.13 68.2302 178.22 68.0902 178.35C68.0302 178.41 67.9702 178.47 67.9002 178.52C67.9902 178.45 67.8302 178.57 67.8102 178.58C67.7302 178.63 67.6402 178.68 67.5602 178.72C67.3702 178.82 67.6202 178.71 67.4902 178.75C67.3802 178.79 67.2602 178.81 67.1402 178.83C67.3202 178.8 67.1002 178.83 67.0602 178.83C66.9802 178.83 66.9102 178.84 66.8302 178.84C66.4402 178.84 66.2302 178.81 65.8702 178.73C65.4802 178.64 65.0902 178.51 64.7202 178.34C64.3802 178.18 63.9602 178.24 63.7602 178.59C63.5802 178.9 63.6702 179.39 64.0102 179.55C65.2802 180.15 66.9002 180.58 68.2402 179.95C69.6002 179.32 70.3202 177.72 69.9902 176.28C69.8002 175.44 69.2702 174.72 68.5602 174.24C68.2402 174.03 67.7802 174.18 67.6002 174.49C67.4002 174.85 67.5302 175.26 67.8502 175.47Z" fill="black"/>
<path d="M79.8702 176.7C77.8702 176.81 75.7802 177.18 74.0802 178.33C72.5302 179.37 71.4402 180.92 71.2002 182.79C71.1502 183.17 71.5602 183.49 71.9002 183.49C72.3202 183.49 72.5502 183.16 72.6002 182.79C72.7902 181.38 73.8102 180.15 74.9902 179.42C76.4402 178.51 78.1802 178.21 79.8702 178.12C80.7702 178.06 80.7802 176.65 79.8702 176.7Z" fill="black"/>
<path d="M85.74 99.61C85.76 99.6 85.05 105.21 80.3 105.74C75.55 106.27 72.05 101.21 72.13 96.18C72.13 96.18 72.74 94.68 74.19 96.43C75.64 98.19 80.56 101.61 85.74 99.61Z" fill="black"/>
<path d="M74.96 96.28C74.99 99.12 77.85 102.02 80.64 102.3C82.58 102.5 83.53 100.94 83.98 99.62C80 100.1 76.46 97.82 74.96 96.28Z" fill="white"/>
<path d="M72.75 100.02C73.75 102.88 75.86 105.19 78.55 105.68C78.47 104.61 77.84 102.94 76.37 101.5C75.17 100.33 73.84 99.9099 72.75 100.02Z" fill="#EC145A"/>
<path d="M86.8001 98.53C84.6501 99.6 82.2101 99.66 79.9301 98.96C78.7901 98.61 77.7001 98.1 76.6701 97.5C75.7201 96.94 74.7101 96.33 74.1301 95.36C74.1701 95.3 74.2201 95.24 74.2601 95.18C74.5801 94.7 74.8201 94.18 74.9701 93.63C75.0501 93.33 74.9501 92.97 74.6201 92.87C74.3401 92.78 73.9501 92.9 73.8601 93.22C73.8101 93.4 73.7501 93.58 73.6801 93.76C73.6501 93.85 73.6101 93.94 73.5701 94.02C73.5501 94.07 73.5301 94.11 73.5001 94.16C73.5001 94.17 73.4901 94.18 73.4801 94.19C73.3901 94.35 73.2901 94.51 73.1801 94.67C73.1301 94.75 73.0701 94.82 73.0101 94.89C72.9801 94.93 72.9501 94.96 72.9201 95C72.9101 95.01 72.8901 95.04 72.8701 95.05C72.7401 95.18 72.6001 95.31 72.4501 95.42C72.4301 95.43 72.3301 95.49 72.4201 95.45C72.3801 95.47 72.3401 95.5 72.3001 95.52C72.2601 95.54 72.2201 95.56 72.1801 95.58C72.1701 95.59 72.1601 95.59 72.1601 95.59C72.1601 95.59 72.1601 95.59 72.1501 95.59C72.1101 95.6 72.0601 95.61 72.0201 95.62C72.0001 95.62 71.9901 95.62 71.9701 95.63C71.9601 95.63 71.9601 95.63 71.9601 95.63C71.9101 95.63 71.8501 95.63 71.8001 95.62C71.7901 95.62 71.7101 95.6 71.6901 95.6C71.6601 95.59 71.5901 95.57 71.5801 95.57C71.5301 95.55 71.4801 95.54 71.4301 95.52C71.3901 95.5 71.3401 95.49 71.3001 95.47C71.1001 95.29 70.8601 95.21 70.6001 95.33C70.3401 95.44 70.2101 95.75 70.2601 96.02C70.3501 96.44 70.8101 96.58 71.1701 96.69C71.5201 96.8 71.8701 96.85 72.2401 96.8C72.5701 96.75 72.8601 96.6 73.1301 96.42C73.2001 96.38 73.2601 96.32 73.3201 96.28C73.9301 97.14 74.7601 97.77 75.6701 98.32C76.8801 99.06 78.1701 99.7 79.5301 100.11C82.1001 100.9 84.8801 100.85 87.3101 99.63C87.9901 99.26 87.4801 98.19 86.8001 98.53Z" fill="black"/>
<path d="M73.51 106.17C74.78 107.21 76.28 107.9 77.88 108.24C78.2 108.31 78.52 107.98 78.54 107.68C78.57 107.32 78.31 107.08 77.98 107.02C77.35 106.89 76.61 106.63 75.99 106.33C75.38 106.04 74.76 105.63 74.22 105.18C73.96 104.97 73.55 105.07 73.36 105.33C73.16 105.6 73.25 105.95 73.51 106.17Z" fill="black"/>
<path fill-rule="evenodd" clip-rule="evenodd" d="M130.99 89.06C130.99 89.06 126.41 79.53 129.89 68.59C130.11 67.73 130.35 66.86 130.63 65.96C137.47 44.58 172.38 37.87 185.73 62.34C199.08 86.78 171.52 117.35 143.13 102.56C141.71 101.82 139.91 100.61 138.08 98.93C135.34 100.15 130.83 101.08 125.81 97.8C124.75 97.1 124.82 95.52 125.95 94.94C128.72 93.51 130.99 89.06 130.99 89.06Z" fill="white"/>
<path fill-rule="evenodd" clip-rule="evenodd" d="M171.66 69.2599C171.37 61.7699 165.58 55.8199 158.65 55.9599C151.74 56.0999 146.31 62.2699 146.47 69.7599C146.47 69.7799 146.47 69.7999 146.48 69.8199C146.48 69.8399 146.47 69.8699 146.47 69.8899C146.51 70.9899 146.67 72.0499 146.93 73.0699C146.94 73.0999 146.95 73.1199 146.95 73.1499C147.06 73.5499 147.17 73.9399 147.31 74.3299C149.56 81.1299 155.8 85.8099 158.45 87.5399C158.81 87.7799 159.23 87.8999 159.63 87.8899C160.05 87.8799 160.44 87.7499 160.8 87.4899C163.33 85.6599 169.29 80.7399 171.13 73.8599C171.23 73.4699 171.32 73.0699 171.4 72.6699C171.4 72.6399 171.42 72.6199 171.42 72.5899C171.62 71.5599 171.71 70.4899 171.68 69.3899C171.68 69.3699 171.67 69.3399 171.68 69.3199C171.68 69.2999 171.68 69.2799 171.69 69.2599H171.66Z" fill="#E92A37"/>
<path fill-rule="evenodd" clip-rule="evenodd" d="M159.18 73.5699C157.15 73.6099 155.45 71.8599 155.39 69.6599C155.32 67.4499 156.91 65.6399 158.93 65.5899C160.97 65.5499 162.67 67.3099 162.73 69.5099C162.81 71.7099 161.22 73.5299 159.18 73.5699Z" fill="white"/>
<path d="M159.75 94.7399C162.23 94.7399 164.24 93.6923 164.24 92.3999C164.24 91.1076 162.23 90.0599 159.75 90.0599C157.27 90.0599 155.26 91.1076 155.26 92.3999C155.26 93.6923 157.27 94.7399 159.75 94.7399Z" fill="#E92A37"/>
<path d="M36.3501 151.94C32.3501 156.4 29.9301 162.38 30.4801 168.43C30.9901 174.04 33.9301 179.24 38.6201 182.4C39.7001 183.13 40.7201 181.38 39.6401 180.65C35.4801 177.84 32.8301 173.04 32.4701 168.05C32.0901 162.66 34.2001 157.36 37.7701 153.38C38.6501 152.41 37.2201 150.97 36.3501 151.94Z" fill="white"/>
<path d="M40.27 177.77C40.95 179.37 41.53 181.01 41.99 182.69C42.01 182.78 42.04 182.87 42.01 182.95C41.98 183.04 36.26 183.14 36.24 183.07C36.24 183.08 39.22 179.18 40.27 177.77Z" fill="white"/>
<path d="M38.8401 178.61C38.9801 178.94 38.7101 178.31 38.8401 178.61C38.8801 178.71 38.9201 178.81 38.9601 178.91C39.0401 179.11 39.1201 179.31 39.2001 179.52C39.3601 179.93 39.5101 180.33 39.6501 180.74C39.9301 181.55 40.2101 182.38 40.4101 183.21C40.3901 183.06 40.3701 182.92 40.3501 182.77C40.3501 182.8 40.3601 182.83 40.3601 182.86C40.3801 182.71 40.4001 182.57 40.4201 182.42C40.4201 182.45 40.4101 182.48 40.4101 182.51C40.5501 182.27 40.7001 182.02 40.8401 181.78C41.3501 181.14 41.8501 181.32 41.5101 181.37C41.6601 181.35 41.8001 181.33 41.9501 181.31C41.2701 181.4 40.5601 181.38 39.8701 181.4C38.9301 181.42 37.9901 181.44 37.0501 181.44C36.7901 181.44 36.5201 181.46 36.2601 181.42C36.4101 181.44 36.5501 181.46 36.7001 181.48C36.4101 181.43 36.6501 181.1 37.4101 181.9C37.5001 182.57 37.5801 183.24 37.6701 183.92C39.0201 182.15 40.3701 180.39 41.7001 178.61C41.9401 178.29 41.9701 177.7 41.8701 177.33C41.7601 176.94 41.4701 176.53 41.1101 176.34C40.7201 176.14 40.2601 176.03 39.8301 176.17C39.3901 176.31 39.1101 176.57 38.8401 176.93C37.5101 178.71 36.1501 180.47 34.8101 182.24C34.5901 182.52 34.5701 182.97 34.6101 183.3C34.6601 183.67 34.8101 183.98 35.0701 184.26C35.6201 184.84 36.4601 184.77 37.1901 184.77C37.9301 184.77 38.6801 184.76 39.4201 184.74C40.1001 184.73 40.7801 184.71 41.4601 184.68C41.7601 184.67 42.1101 184.66 42.4001 184.59C42.6901 184.52 42.9901 184.38 43.2001 184.15C43.7701 183.53 43.7601 182.77 43.5401 182C43.0501 180.27 42.4301 178.6 41.7201 176.94C41.5701 176.58 41.0801 176.27 40.7301 176.18C40.3301 176.07 39.8001 176.12 39.4501 176.35C39.0901 176.58 38.7801 176.92 38.6901 177.34C38.5601 177.8 38.6501 178.18 38.8401 178.61Z" fill="white"/>
<path d="M98.1902 151.94C101.76 155.93 103.88 161.22 103.49 166.61C103.14 171.61 100.49 176.41 96.3202 179.21C95.2502 179.93 96.2602 181.69 97.3402 180.96C102.03 177.8 104.95 172.6 105.48 166.99C106.04 160.95 103.61 154.96 99.6102 150.5C98.7502 149.54 97.3202 150.98 98.1902 151.94Z" fill="white"/>
<path d="M96.8501 154.15C96.5401 152.44 96.3401 150.71 96.2501 148.97C96.2501 148.88 96.2401 148.78 96.2901 148.71C96.3401 148.63 101.94 149.79 101.95 149.86C101.96 149.87 98.1901 153.02 96.8501 154.15Z" fill="white"/>
<path d="M98.4601 153.71C98.3501 153.09 98.2501 152.47 98.1601 151.85C98.1801 152 98.2001 152.14 98.2201 152.29C98.1401 151.7 98.0801 151.11 98.0201 150.53C97.9701 149.98 97.8601 149.35 97.9201 148.8C97.9001 148.95 97.8801 149.09 97.8601 149.24C97.8701 149.21 97.8801 149.19 97.8901 149.16C97.7501 149.4 97.6001 149.65 97.4601 149.89C97.2201 150.03 96.9701 150.18 96.7301 150.32H96.7401C96.5901 150.34 96.4501 150.36 96.3001 150.38C96.3501 150.38 96.3901 150.39 96.4401 150.39C96.2901 150.37 96.1501 150.35 96.0001 150.33C97.6201 150.55 99.2401 150.94 100.84 151.3C100.99 151.33 101.14 151.37 101.29 151.41C101.34 151.42 101.38 151.44 101.43 151.45C101.45 151.45 101.46 151.46 101.48 151.47C101.17 151.42 100.68 150.99 100.52 150.72C100.61 150.05 100.69 149.38 100.78 148.7C99.4701 149.79 98.1701 150.89 96.8601 151.98C96.4601 152.31 96.0701 152.65 95.6701 152.98C95.0001 153.55 95.0401 154.76 95.6701 155.33C96.3801 155.98 97.3101 155.93 98.0201 155.33C99.5501 154.03 101.09 152.74 102.63 151.46C102.79 151.32 102.96 151.18 103.12 151.05C103.68 150.58 103.73 149.63 103.38 149.03C102.96 148.32 102.2 148.2 101.47 148.04C100.75 147.88 100.04 147.73 99.3201 147.58C98.6601 147.44 97.9901 147.31 97.3301 147.19C97.0201 147.13 96.6801 147.06 96.3701 147.05C96.1901 147.04 96.0701 147.05 95.8501 147.11C94.9601 147.36 94.5501 148.23 94.5901 149.09C94.6701 150.94 94.9101 152.78 95.2401 154.6C95.3101 154.99 95.6701 155.4 96.0001 155.59C96.3601 155.8 96.8801 155.89 97.2801 155.76C98.2101 155.46 98.6201 154.63 98.4601 153.71Z" fill="white"/>
</g>
<defs>
<clipPath id="clip0_259_188">
<rect width="200" height="200" fill="white"/>
</clipPath>
</defs>
</svg>
