<svg width="200" height="200" viewBox="0 0 200 200" fill="none" xmlns="http://www.w3.org/2000/svg">
<path fill-rule="evenodd" clip-rule="evenodd" d="M166.38 199.98H34.5801C34.9901 197.47 43.1301 151.13 51.9801 140.22C60.8301 129.31 73.3201 123.74 88.3501 122.24C90.5901 122.02 108.61 121.98 115.32 123.32C130.28 126.28 140.63 133.4 148.48 142.4C156.33 151.4 164.89 189.17 166.38 199.98Z" fill="#11A906"/>
<path fill-rule="evenodd" clip-rule="evenodd" d="M54.96 199.98L55.76 182.23C55.76 182.23 61.07 180.39 63.11 176.72C65.15 173.06 71.36 171.65 75.3 171.84C79.24 172.03 81.15 166.04 78.06 164.27C74.23 162.09 71.64 163.03 68.9 163.81C66.16 164.59 64.13 162.64 64.64 159.75C65.15 156.86 67.86 144.13 68.88 139.31C69.89 134.49 68.71 132.07 65.82 131.58C62.93 131.09 61.97 136.17 60.28 143.1C58.59 150.04 58.35 153.62 57.52 153.37C56.7 153.13 57.67 148.91 59.38 140.52C61.08 132.13 62.07 126.94 59.5 125.69C56.93 124.44 54.16 125.33 52.77 132.96C51.39 140.59 50.15 149.49 48.91 150.1C47.66 150.71 48.21 142.58 49.27 136.68C50.33 130.78 49.78 129.15 47.9 128.48C46.02 127.8 42.85 129.79 41.54 137.57C41.54 137.57 41.23 135.53 38.95 134.98C36.68 134.43 34.69 138.35 33.63 147.06C32.57 155.76 34.41 157.04 33.54 161.78C32.67 166.52 32.13 172.84 37.85 176.85L33 199.98H54.96Z" fill="#A95630"/>
<path fill-rule="evenodd" clip-rule="evenodd" d="M50.5 182.54C52.9 183.22 55.51 183.16 57.85 182.29C58.36 182.1 58.71 181.61 58.56 181.05C58.43 180.56 57.83 180.15 57.32 180.34C55.26 181.1 53.13 181.18 51.05 180.59C50.53 180.44 49.95 180.77 49.81 181.3C49.65 181.83 49.98 182.39 50.5 182.54Z" fill="black"/>
<path fill-rule="evenodd" clip-rule="evenodd" d="M50.8801 170.76C51.6201 168.94 53.1701 167.51 54.8301 166.53C56.6801 165.44 58.8401 164.95 60.9301 165.58C62.1801 165.95 62.7101 164 61.4701 163.63C56.4801 162.14 50.8301 165.57 48.9401 170.22C48.7301 170.72 49.1601 171.33 49.6501 171.46C50.2201 171.62 50.6701 171.26 50.8801 170.76Z" fill="black"/>
<path fill-rule="evenodd" clip-rule="evenodd" d="M44.2201 160.42C47.7001 160.03 51.1801 160.4 54.5001 161.49C55.7401 161.9 56.2701 159.95 55.0401 159.54C51.5701 158.4 47.8601 157.99 44.2201 158.4C43.6801 158.46 43.2101 158.82 43.2101 159.41C43.2201 159.91 43.6801 160.48 44.2201 160.42Z" fill="black"/>
<path fill-rule="evenodd" clip-rule="evenodd" d="M40.35 138.1C39.53 141.92 39.05 145.89 40.08 149.72C40.42 150.97 42.36 150.44 42.03 149.18C41.09 145.71 41.55 142.1 42.3 138.64C42.57 137.37 40.62 136.83 40.35 138.1Z" fill="black"/>
<path fill-rule="evenodd" clip-rule="evenodd" d="M113.4 199.98L115.76 186.45C115.76 186.45 111.53 182.61 110.92 178.36C110.31 174.12 105.11 170.33 101.45 168.94C97.78 167.55 98.09 161.17 101.53 160.75C105.78 160.22 107.83 162.14 110.07 163.96C112.31 165.78 114.83 164.76 115.36 161.84C115.88 158.92 117.77 145.91 118.5 140.99C119.23 136.07 121.14 134.27 123.95 134.96C126.77 135.65 125.9 140.79 125.06 147.97C124.22 155.14 123.22 158.6 124.06 158.7C124.9 158.8 125.45 154.45 126.77 145.91C128.09 137.36 128.97 132.1 131.75 131.96C134.53 131.81 136.76 133.75 135.41 141.46C134.06 149.17 132.13 158 133.06 159.06C133.99 160.12 136.28 152.29 137.34 146.34C138.4 140.39 139.46 139.08 141.4 139.19C143.35 139.3 145.57 142.43 144.09 150.24C144.09 150.24 145.08 148.45 147.35 148.84C149.62 149.23 150.09 153.7 148.07 162.28C146.05 170.86 143.93 171.33 143.1 176.11C142.27 180.9 140.59 187.04 133.98 188.52L134.5 199.98H113.4Z" fill="#A95630"/>
<path fill-rule="evenodd" clip-rule="evenodd" d="M120.54 186.79C120.71 186.81 120.37 186.76 120.32 186.75C120.19 186.73 120.06 186.7 119.93 186.68C119.65 186.62 119.38 186.55 119.11 186.47C118.85 186.39 118.6 186.31 118.35 186.21C118.29 186.19 118.23 186.16 118.16 186.14C118 186.08 118.28 186.19 118.12 186.13C117.98 186.07 117.85 186.01 117.71 185.94C117.23 185.71 116.76 185.44 116.32 185.14C116.21 185.06 116.1 184.99 115.99 184.91C115.97 184.9 115.78 184.75 115.85 184.81C115.91 184.86 115.77 184.74 115.76 184.73C115.54 184.55 115.32 184.36 115.11 184.16C114.73 183.8 114.06 183.75 113.68 184.16C113.32 184.55 113.27 185.2 113.68 185.59C115.58 187.39 117.95 188.49 120.54 188.82C121.07 188.89 121.57 188.31 121.55 187.81C121.53 187.2 121.11 186.86 120.54 186.79Z" fill="black"/>
<path fill-rule="evenodd" clip-rule="evenodd" d="M126.15 177.76C126.08 175.09 124.93 172.58 123.28 170.51C121.67 168.47 119.43 167.04 116.83 166.74C116.29 166.68 115.82 167.25 115.82 167.75C115.82 168.35 116.28 168.7 116.83 168.76C118.87 168.99 120.63 170.35 121.86 171.94C123.14 173.6 124.08 175.64 124.13 177.76C124.16 179.05 126.18 179.06 126.15 177.76Z" fill="black"/>
<path fill-rule="evenodd" clip-rule="evenodd" d="M134.65 168.76C131.41 166.9 127.82 165.79 124.11 165.47C123.57 165.42 123.1 165.97 123.1 166.48C123.1 167.06 123.56 167.44 124.11 167.49C127.46 167.78 130.72 168.84 133.64 170.51C134.76 171.15 135.78 169.4 134.65 168.76Z" fill="black"/>
<path fill-rule="evenodd" clip-rule="evenodd" d="M143.05 150.78C142.53 154.38 141.73 158.03 139.59 161.04C139.27 161.48 139.51 162.16 139.95 162.42C140.46 162.72 141.02 162.5 141.33 162.06C143.56 158.92 144.45 155.07 144.99 151.32C145.07 150.78 144.86 150.24 144.28 150.08C143.81 149.95 143.12 150.24 143.05 150.78Z" fill="black"/>
<path d="M87.15 125.05C87.15 125.05 83.42 135.4 89.38 140.17C95.34 144.94 108.93 142.94 115.09 134.1C120.47 126.38 119.08 120.54 119.08 120.54L87.15 125.05Z" fill="#A95630"/>
<path d="M113.34 76.11C113.34 76.11 73.1901 76.12 72.1501 69.19C71.3801 64.07 78.2101 40.63 115.07 53.41C127 57.55 135.5 68.99 134.23 83.36C133.35 93.35 129.15 106.18 122.86 113.46C115.76 121.68 111.9 120.25 111.9 120.25L113.34 76.11Z" fill="black"/>
<path d="M119.12 124.05C119.26 119.93 118.87 112.69 118.87 112.69C119.79 112.94 121.76 113.27 125.01 111.29C128.38 109.23 133.74 101.81 129.95 96.93C127.72 94.05 125.03 92.47 121.33 95.85C117.16 99.66 113.87 98.86 114.72 93.52C115.57 88.18 120.19 76.01 115.27 72.52C110.35 69.03 104.74 71.06 94.9301 68.69C90.6501 67.66 87.7301 66.22 84.2701 64.62C80.3201 62.79 75.0901 66.22 73.3701 71.34C72.4301 74.15 68.4401 96.42 68.4101 101.55C68.3801 106.21 70.6401 124.34 88.3301 126.41C97.3601 127.46 119.12 124.05 119.12 124.05Z" fill="#A95630"/>
<path d="M72.48 64.56C71.51 68.85 70.35 73.09 69.46 77.4C68.09 84.03 67.03 90.78 66.84 97.55C66.58 106.77 68.32 116.13 75.06 122.91C79.76 127.64 86.17 129.7 92.77 129.37C94.77 129.27 94.78 126.14 92.77 126.24C87.35 126.51 82.05 125.11 77.99 121.39C75.18 118.81 73.07 115.38 71.78 111.92C70.23 107.74 69.9 103.23 69.94 98.81C70 92.37 70.93 85.97 72.18 79.67C73.13 74.87 74.42 70.16 75.49 65.4C75.94 63.44 72.93 62.6 72.48 64.56Z" fill="black"/>
<path d="M92.8201 97.3701C92.8001 97.4301 92.7801 97.5001 92.7601 97.5601C92.7501 97.5901 92.6501 97.8201 92.7101 97.7001C92.7701 97.5801 92.6701 97.7801 92.6601 97.8001C92.6301 97.8601 92.6001 97.9101 92.5701 97.9701C92.5301 98.0301 92.4901 98.1001 92.4501 98.1601C92.4201 98.2101 92.3301 98.3801 92.4401 98.1801C92.3901 98.2801 92.2701 98.3801 92.1901 98.4601C92.1501 98.5001 92.1001 98.5401 92.0501 98.5801C91.9001 98.7201 92.2101 98.4801 92.0401 98.5901C92.0101 98.6101 91.7301 98.8001 91.7201 98.7801C91.8301 98.7401 91.8401 98.7301 91.7501 98.7701C91.7301 98.7801 91.7101 98.7801 91.6901 98.7901C91.6301 98.8101 91.5601 98.8301 91.5001 98.8401C91.4601 98.8501 91.4101 98.8601 91.3701 98.8601C91.4101 98.8501 91.4401 98.8501 91.4801 98.8401C91.4501 98.8701 91.3001 98.8501 91.2501 98.8501C91.2201 98.8501 91.0001 98.8301 91.1501 98.8501C91.3001 98.8701 91.0801 98.8301 91.0501 98.8201C90.9901 98.8001 90.9301 98.7801 90.8701 98.7601C90.8101 98.7401 90.8301 98.7501 90.9401 98.7901C90.9001 98.7701 90.8601 98.7501 90.8301 98.7301C90.8101 98.7201 90.7901 98.7101 90.7701 98.7001C90.6901 98.6401 90.7001 98.6501 90.8001 98.7301C90.7601 98.7201 90.7001 98.6401 90.6701 98.6101C90.6501 98.5901 90.5501 98.5001 90.5501 98.4801C90.6201 98.5801 90.6401 98.6001 90.6001 98.5401C90.5801 98.5201 90.5701 98.4901 90.5501 98.4701C90.5201 98.4201 90.4901 98.3701 90.4601 98.3101C90.4501 98.2801 90.4301 98.2601 90.4201 98.2301C90.3901 98.1701 90.4001 98.1901 90.4501 98.3001C90.3901 98.2501 90.3601 98.0201 90.3401 97.9401C90.3301 97.9001 90.3201 97.8601 90.3201 97.8201C90.3301 97.8601 90.3301 97.9001 90.3401 97.9301C90.3201 97.9201 90.3301 97.7701 90.3301 97.7401C90.3301 97.6701 90.3401 97.5901 90.3401 97.5201C90.3501 97.4501 90.3401 97.4801 90.3301 97.6001C90.3401 97.5601 90.3501 97.5201 90.3601 97.4801C90.4601 97.0301 90.2201 96.4901 89.7401 96.3801C89.2901 96.2801 88.7501 96.5201 88.6401 97.0001C88.4601 97.8001 88.5701 98.6701 89.0201 99.3601C89.5001 100.11 90.2601 100.54 91.1501 100.62C92.8301 100.76 94.1401 99.3101 94.5801 97.8201C94.7101 97.3701 94.4201 96.8301 93.9601 96.7201C93.4401 96.6401 92.9601 96.8901 92.8201 97.3701Z" fill="black"/>
<path d="M88.6801 97.0801C88.6701 97.1101 88.59 97.3401 88.64 97.2101C88.7 97.0801 88.5901 97.3001 88.5701 97.3201C88.5501 97.3501 88.5401 97.3701 88.5201 97.4001C88.4801 97.4501 88.5001 97.4301 88.5701 97.3401C88.5601 97.3801 88.4801 97.4401 88.4501 97.4801C88.4201 97.5101 88.3901 97.5401 88.3601 97.5601C88.2901 97.6201 88.3001 97.6101 88.4001 97.5301C88.4001 97.5501 88.2501 97.6301 88.2401 97.6301C88.2101 97.6501 88.0001 97.7701 88.2001 97.6601C88.1401 97.6901 88.0701 97.7101 88.0001 97.7301C87.9201 97.7501 87.8101 97.7901 87.7301 97.7901C87.7601 97.7901 87.8001 97.7801 87.8301 97.7801C87.7801 97.7801 87.74 97.7901 87.69 97.7901C87.56 97.8001 87.4401 97.7901 87.3101 97.7801C87.2101 97.7701 87.23 97.7701 87.37 97.7901C87.33 97.7801 87.2901 97.7801 87.2501 97.7701C87.1901 97.7601 87.1301 97.7401 87.0701 97.7301C87.0101 97.7101 86.9601 97.6901 86.9001 97.6701C86.7301 97.6101 87.0701 97.7501 86.8601 97.6501C86.7701 97.6101 86.5801 97.5301 86.5201 97.4401C86.6101 97.5101 86.6301 97.5301 86.5801 97.4801C86.5601 97.4601 86.53 97.4401 86.51 97.4201C86.46 97.3701 86.4101 97.3201 86.3601 97.2601C86.2101 97.0901 86.4101 97.3601 86.3301 97.2201C86.3001 97.1701 86.2701 97.1201 86.2401 97.0701C86.2101 97.0201 86.1901 96.9601 86.1601 96.9101C86.2801 97.1001 86.1801 96.9501 86.1601 96.8701C86.1401 96.8001 86.1201 96.7301 86.1101 96.6601C86.1101 96.6401 86.1 96.6201 86.1 96.6001C86.08 96.5001 86.0901 96.5201 86.1101 96.6601C86.0701 96.6401 86.1 96.3001 86.1 96.2601C86.11 96.0301 86.06 96.4001 86.1 96.2201C86.11 96.1601 86.1201 96.1001 86.1401 96.0401C86.1501 96.0201 86.1701 95.8801 86.2001 95.8701C86.1501 95.9901 86.1401 96.0001 86.1801 95.9201C86.2001 95.8801 86.2201 95.8501 86.2401 95.8101C86.4701 95.4001 86.35 94.8201 85.92 94.5901C85.5 94.3701 84.9401 94.4701 84.7001 94.9101C84.0401 96.0801 84.2501 97.6201 85.1801 98.5901C86.1401 99.5901 87.7101 99.8201 88.9501 99.2601C89.6501 98.9501 90.1901 98.2801 90.3801 97.5501C90.5001 97.1001 90.23 96.5601 89.76 96.4501C89.31 96.3501 88.8101 96.6001 88.6801 97.0801Z" fill="black"/>
<path d="M86.2801 95.75C87.4201 92.78 89.1501 90.08 90.4101 87.17C90.6001 86.73 90.5401 86.21 90.0901 85.95C89.7101 85.73 89.0601 85.83 88.8701 86.27C87.5401 89.32 85.7501 92.16 84.5601 95.27C84.3901 95.72 84.7501 96.25 85.1801 96.37C85.6901 96.51 86.1101 96.2 86.2801 95.75Z" fill="black"/>
<path d="M87.1201 83.6501C86.8201 81.7901 85.2701 80.7501 84.7201 80.4201C83.5401 79.7001 82.2101 78.9601 79.9101 79.0001C75.4801 79.0801 74.9501 80.5301 74.7001 81.5801C74.4901 82.4501 74.7001 84.1601 75.8901 84.7101C76.5301 85.0001 77.7701 84.7201 80.2401 85.0101C82.5801 85.2801 85.1001 86.4301 85.8401 86.2801C86.5801 86.1301 87.3901 85.3101 87.1201 83.6501Z" fill="white"/>
<path d="M82.5501 85.14C85.0601 85.14 85.0701 81.24 82.5501 81.24C80.0401 81.24 80.0301 85.14 82.5501 85.14Z" fill="black"/>
<path d="M107.59 89.8501C107.54 88.1501 106.15 86.7301 105.61 86.3701C104.45 85.6001 102.7 84.7301 100.29 84.5101C96.3401 84.1601 95.1201 85.8501 94.7901 86.8201C94.5201 87.6301 94.5101 89.2201 95.7001 89.8301C96.3401 90.1601 97.6701 90.0101 100.23 90.5001C102.66 90.9601 105.17 92.2601 105.96 92.1801C106.75 92.1101 107.64 91.4201 107.59 89.8501Z" fill="white"/>
<path d="M101.95 90.53C104.38 90.53 104.38 86.76 101.95 86.76C99.5201 86.75 99.5201 90.53 101.95 90.53Z" fill="black"/>
<path d="M95.4101 53.4301C93.3601 52.2301 91.3301 51.1901 89.3401 50.3101C95.4201 47.9401 103.21 47.5201 112.99 51.4601C143.46 63.7501 133 92.8201 133 92.8201C133 92.8201 127.76 85.8001 119.9 79.5501C115.59 72.2301 107.29 60.3901 95.4101 53.4301Z" fill="#016A81"/>
<path d="M89.3301 50.31C91.3301 51.2 93.3601 52.24 95.4001 53.43C107.29 60.39 115.59 72.23 119.89 79.55C115.71 76.23 110.8 73.12 105.53 71.4C86.8801 65.32 73.7901 68.4 71.6101 69C71.5401 68.96 71.4601 68.91 71.3801 68.86C68.7101 67.26 64.2801 63.22 63.5301 55.24C62.5501 44.7 73.6601 43.34 89.3301 50.31Z" fill="#008BAD"/>
<path d="M127.19 99.32C124.92 98.23 122.55 99.72 121.52 101.79C120.5 103.85 119.77 106.97 122.02 108.49C122.42 108.76 123.01 108.57 123.24 108.17C123.5 107.73 123.32 107.22 122.92 106.95C122.35 106.57 122.26 105.74 122.33 105.07C122.42 104.27 122.7 103.41 123.05 102.69C123.39 102.01 123.83 101.39 124.5 101.02C125.06 100.71 125.74 100.6 126.28 100.86C126.71 101.07 127.24 100.98 127.5 100.54C127.74 100.15 127.62 99.53 127.19 99.32Z" fill="black"/>
<path d="M90.89 106.69C90.96 106.68 91.23 106.63 91.29 106.68C91.29 106.68 91.16 106.65 91.25 106.67C91.28 106.68 91.31 106.68 91.34 106.69C91.42 106.71 91.49 106.73 91.56 106.75C91.6 106.76 91.66 106.81 91.55 106.75C91.57 106.76 91.6 106.78 91.63 106.79C91.69 106.82 91.74 106.86 91.8 106.9C91.79 106.9 91.71 106.83 91.77 106.88C91.79 106.9 91.81 106.92 91.84 106.94C91.9 106.99 91.95 107.05 92 107.11C92.03 107.14 92.05 107.17 92.07 107.2C92.06 107.19 92.01 107.11 92.05 107.18C92.08 107.24 92.13 107.29 92.16 107.35C92.23 107.47 92.3 107.6 92.36 107.73C92.31 107.61 92.38 107.79 92.4 107.83C92.43 107.9 92.45 107.97 92.47 108.04C92.49 108.1 92.5 108.16 92.52 108.23C92.53 108.29 92.58 108.41 92.57 108.48C92.57 108.46 92.56 108.33 92.57 108.46C92.57 108.49 92.57 108.51 92.58 108.54C92.58 108.6 92.58 108.66 92.58 108.73C92.58 108.86 92.61 108.63 92.58 108.75C92.58 108.75 92.56 108.85 92.55 108.85C92.56 108.83 92.57 108.8 92.58 108.78C92.57 108.8 92.56 108.81 92.56 108.83C92.56 108.84 92.55 108.84 92.55 108.85C92.52 108.89 92.53 108.88 92.58 108.81C92.58 108.81 92.53 108.86 92.52 108.87C92.47 108.93 92.55 108.84 92.56 108.84C92.47 108.91 92.58 108.8 92.59 108.84C92.59 108.86 92.44 108.87 92.44 108.88C92.45 108.86 92.58 108.87 92.47 108.87C92.35 108.87 92.5 108.89 92.51 108.88C92.51 108.88 92.29 108.83 92.41 108.86C92.49 108.88 92.43 108.87 92.4 108.85C92.37 108.83 92.34 108.82 92.32 108.8C92.21 108.74 92.39 108.88 92.31 108.79C92.3 108.78 92.25 108.73 92.24 108.72C92.24 108.74 92.31 108.83 92.26 108.74C92.25 108.73 92.22 108.66 92.21 108.65C92.22 108.65 92.25 108.78 92.24 108.7C92.24 108.68 92.23 108.65 92.22 108.63C92.19 108.53 92.25 108.64 92.22 108.67V108.6C92.21 108.53 92.21 108.65 92.21 108.66C92.22 108.65 92.27 108.48 92.26 108.47C92.27 108.49 92.18 108.61 92.25 108.5C92.26 108.49 92.3 108.42 92.3 108.42C92.31 108.43 92.19 108.54 92.28 108.45C92.29 108.44 92.35 108.39 92.35 108.38C92.35 108.39 92.24 108.45 92.31 108.41C92.33 108.4 92.4 108.34 92.42 108.35C92.42 108.35 92.3 108.4 92.36 108.38C92.41 108.36 92.51 108.37 92.32 108.38C92.35 108.38 92.42 108.39 92.31 108.37C92.25 108.36 92.24 108.36 92.28 108.37C92.33 108.38 92.31 108.37 92.21 108.33C92.17 108.3 92.13 108.26 92.1 108.22C92.05 108.16 92.03 108.09 92.04 108C92 107.93 91.99 107.86 92.03 107.8C92.03 107.79 92.04 107.78 92.04 107.77C92.03 107.8 92.01 107.82 92 107.84C91.97 107.91 92.07 107.78 92.01 107.83C91.99 107.85 91.97 107.87 91.95 107.89C92.04 107.79 91.96 107.88 91.91 107.91C91.59 108.09 91.46 108.56 91.66 108.87C91.87 109.2 92.27 109.31 92.62 109.12C93.16 108.82 93.61 108.12 93.3 107.51C93.05 107.03 92.44 106.88 91.95 107.04C90.98 107.36 90.5 108.61 91.08 109.48C91.36 109.9 91.78 110.18 92.28 110.24C92.84 110.31 93.39 110.08 93.71 109.62C94 109.19 94 108.67 93.93 108.18C93.86 107.72 93.71 107.28 93.49 106.86C93 105.9 92.01 105.18 90.89 105.31C90.53 105.35 90.17 105.6 90.19 106.01C90.21 106.33 90.5 106.74 90.89 106.69Z" fill="black"/>
<path d="M91.6901 114.08C93.4201 114.38 95.3601 114.33 96.8301 113.24C97.1301 113.02 97.2901 112.63 97.0801 112.28C96.9101 111.98 96.4301 111.8 96.1201 112.03C95.5201 112.48 94.8901 112.7 94.1901 112.8C94.1101 112.81 93.8501 112.83 93.7001 112.84C93.5001 112.85 93.3101 112.85 93.1101 112.84C92.9101 112.83 92.7201 112.82 92.5201 112.8C92.5001 112.8 92.2301 112.76 92.3401 112.78C92.2401 112.77 92.1501 112.75 92.0501 112.73C91.6901 112.67 91.2801 112.83 91.1901 113.22C91.1201 113.56 91.3001 114.02 91.6901 114.08Z" fill="black"/>
<path d="M98.76 78.54C101.04 81.06 104.04 82.9 107.3 83.85C108.08 84.08 109.04 83.57 109.22 82.76C109.41 81.92 108.97 81.08 108.13 80.84C107.76 80.73 107.39 80.62 107.03 80.48C106.87 80.42 106.71 80.36 106.55 80.3C106.55 80.3 106.18 80.14 106.38 80.23C106.56 80.31 106.3 80.19 106.27 80.18C105.57 79.86 104.89 79.5 104.23 79.09C103.92 78.9 103.62 78.69 103.32 78.48C103.23 78.42 103.15 78.35 103.06 78.29C103.03 78.27 102.82 78.1 102.96 78.22C103.11 78.34 102.89 78.16 102.87 78.14C102.79 78.07 102.7 78 102.62 77.94C102.03 77.44 101.48 76.91 100.96 76.33C100.41 75.72 99.3 75.73 98.75 76.33C98.17 76.98 98.17 77.89 98.76 78.54Z" fill="black"/>
<path d="M86.3 72.83C86.38 72.77 86.03 72.99 85.97 73.03C85.91 73.06 85.52 73.26 85.63 73.21C85.3 73.35 84.96 73.45 84.62 73.54C83.75 73.79 82.86 73.98 81.97 74.14C80.3 74.42 78.54 74.5 76.81 74.43C75.97 74.39 75.25 75.17 75.25 75.99C75.25 76.87 75.97 77.52 76.81 77.55C78.89 77.64 80.96 77.48 83 77.12C84.95 76.77 86.94 76.3 88.52 75.04C89.18 74.51 89.07 73.38 88.52 72.83C87.86 72.18 86.96 72.3 86.3 72.83Z" fill="black"/>
</svg>
