<svg width="200" height="200" viewBox="0 0 200 200" fill="none" xmlns="http://www.w3.org/2000/svg">
<path d="M146.44 153.39L149.58 199.9H174.55L165.36 143.51L146.44 153.39Z" fill="#A85630"/>
<path d="M82.32 42.12L80.73 41.94C79.17 41.77 79.09 40.66 78.43 42.08C75.51 48.29 72.88 58.89 69.61 81.79C65.35 111.62 71.08 113.14 76.13 113.68C82.25 114.33 92.69 109.64 96.05 94.37C98.79 81.89 82.32 42.12 82.32 42.12Z" fill="black"/>
<path d="M30.02 143.51C40.63 161.84 58.95 165.72 58.95 165.72L66.08 152.01C64.78 168.54 62.34 185.36 63.91 199.9H149.58L147.46 163.73C162.03 162.56 175.96 157.57 175.96 157.57C175.96 157.57 157.79 109.67 139.25 104.44C129.61 101.72 97.59 99.56 76.64 103.77C57.28 107.66 30.02 143.51 30.02 143.51Z" fill="#545554"/>
<path d="M78.6701 50.53C78.6701 50.53 75.6001 75.51 77.8501 86.65C80.1001 97.79 88.0701 98.81 91.5401 99.09C91.5401 99.09 91.5601 106.24 93.8701 108.06C100.34 113.15 112.97 109.23 116.77 103.81C120.58 98.39 119.47 48.37 119.47 48.37C119.47 48.37 85.5201 43.66 78.6701 50.53Z" fill="#A65630"/>
<path d="M76.14 56.59L81 54.95L82.65 49.64L83.21 54.02L91.32 53.7L94 49.09L93.9 53.8L104.98 55.56L107.86 51.12L107.27 56.43L115.11 58.42C115.11 58.42 110.8 87.6 120.17 117.26C123.81 128.79 135.71 126.23 139.49 124.54C147.59 120.92 149.01 114.22 149.48 108.3C150.34 97.61 143.94 83.37 133.73 55.45C129.79 44.7 125.18 36.72 118.99 33.25C111.63 29.11 103.17 29.39 94.98 31.5C91.93 32.29 88.57 33.43 85.52 35.16C81.42 37.49 77.82 41.74 76.85 46.35C76.2 49.48 75.61 53.56 76.14 56.59Z" fill="black"/>
<path d="M99.96 100.26C100.19 99.2 99.59 98.59 98.77 98.3C98.88 97.67 98.85 97.02 98.6 96.43C98.16 95.38 97.17 94.69 96.04 94.65C95.26 94.62 94.58 94.95 94.09 95.49C93.86 95.31 93.58 95.18 93.26 95.11C92.72 94.99 92.09 95.12 91.63 95.43C91.38 95.6 91.16 95.83 91.01 96.1C90.67 96.05 90.32 96.1 90.01 96.23C89.32 96.51 88.8 97.12 88.55 97.82C88.3 98.52 88.41 99.24 88.89 99.8C88.92 99.83 88.95 99.86 88.98 99.89C88.44 100.46 88.15 101.28 88.38 102.08C88.56 102.72 89.03 103.25 89.61 103.55C89.93 103.72 90.3 103.8 90.66 103.81C90.78 103.81 90.89 103.79 91 103.77V103.78C91.13 104.09 91.29 104.35 91.51 104.6C91.87 105.01 92.37 105.29 92.91 105.36C93.54 105.44 94.16 105.28 94.64 104.85C94.85 104.66 95.03 104.43 95.15 104.18C95.17 104.14 95.17 104.1 95.19 104.06C95.38 104.21 95.58 104.35 95.81 104.44C96.38 104.66 97 104.6 97.52 104.27C98.33 103.77 98.59 102.92 98.54 102.05C99.24 101.69 99.78 101.04 99.96 100.26Z" fill="black"/>
<path d="M89.96 66.58C89.28 68.12 88.65 69.68 88.07 71.25C87.77 72.05 87.49 72.86 87.21 73.67C87.02 74.25 86.82 74.86 86.82 75.48C86.81 76.89 87.91 77.95 89.32 77.96C90.84 77.97 91.95 76.83 92.17 75.38C92.23 74.95 91.79 74.57 91.4 74.56C90.93 74.55 90.64 74.9 90.58 75.33C90.46 76.16 89.44 76.66 88.73 76.18C88.05 75.72 88.62 74.52 88.81 73.94C89.6 71.6 90.5 69.3 91.49 67.04C91.66 66.65 91.34 66.16 90.96 66.04C90.51 65.91 90.13 66.18 89.96 66.58Z" fill="black"/>
<path d="M90.9 75.2C90.6 75.86 90.74 76.7 91.13 77.3C91.59 78 92.29 78.45 93.11 78.57C93.8 78.67 94.51 78.46 95.05 78.03C95.62 77.58 95.86 76.84 96.0199 76.16C96.1199 75.76 95.93 75.28 95.49 75.16C95.09 75.06 94.6 75.25 94.49 75.69C94.43 75.95 94.3499 76.2 94.2699 76.46C94.2199 76.62 94.35 76.33 94.26 76.49C94.23 76.54 94.2 76.6 94.17 76.65C94.15 76.68 94.14 76.7 94.12 76.72C94.08 76.77 94.1 76.75 94.16 76.68C94.13 76.69 94.07 76.77 94.05 76.79C94.04 76.8 93.94 76.89 93.93 76.89C94.03 76.82 94.04 76.81 93.97 76.86C93.96 76.87 93.94 76.88 93.93 76.89C93.88 76.92 93.84 76.94 93.79 76.96C93.65 77.03 93.95 76.91 93.76 76.97C93.71 76.98 93.66 77 93.61 77.01C93.58 77.02 93.56 77.02 93.53 77.02C93.44 77.03 93.46 77.03 93.58 77.02C93.58 77.04 93.2899 77.01 93.2699 77.01C93.0899 77 93.4499 77.06 93.2699 77.01C93.2199 77 93.17 76.98 93.12 76.97C93.08 76.96 92.98 76.94 92.95 76.91C93.05 76.96 93.06 76.96 92.98 76.92C92.96 76.91 92.94 76.9 92.93 76.89C92.87 76.85 92.81 76.82 92.75 76.77C92.73 76.75 92.7 76.73 92.68 76.72C92.75 76.78 92.77 76.79 92.72 76.75C92.68 76.71 92.6299 76.67 92.5899 76.62C92.5599 76.59 92.41 76.42 92.54 76.57C92.5 76.53 92.37 76.33 92.38 76.27C92.41 76.36 92.42 76.38 92.4 76.33C92.39 76.3 92.38 76.28 92.38 76.25C92.36 76.2 92.3499 76.14 92.3399 76.09C92.2999 75.92 92.3299 76.23 92.3399 76.07C92.3399 76.02 92.34 75.96 92.35 75.9C92.35 75.74 92.3 76.06 92.36 75.87C92.38 75.81 92.4 75.75 92.43 75.69C92.51 75.52 92.46 75.24 92.37 75.08C92.28 74.91 92.09 74.74 91.9 74.69C91.7 74.64 91.48 74.64 91.29 74.75C91.09 74.85 90.99 75 90.9 75.2Z" fill="black"/>
<path d="M84.71 79.16C84.08 79.51 83.49 79.9 82.92 80.35C82.83 80.4 82.76 80.48 82.7 80.56C82.63 80.64 82.59 80.74 82.57 80.84C82.53 81.03 82.56 81.28 82.68 81.44C82.8 81.61 82.97 81.75 83.18 81.79C83.38 81.82 83.62 81.81 83.78 81.68C84.34 81.24 84.94 80.84 85.57 80.49C85.74 80.39 85.88 80.18 85.92 79.99C85.96 79.8 85.93 79.55 85.81 79.39C85.69 79.22 85.52 79.08 85.31 79.04C85.09 79.01 84.9 79.05 84.71 79.16Z" fill="black"/>
<path d="M88.86 79.9799C88.61 80.3499 88.37 80.7299 88.12 81.0999C88.06 81.1999 88.04 81.2999 88.04 81.4099C88.02 81.5099 88.03 81.6199 88.07 81.7199C88.13 81.8999 88.28 82.0999 88.46 82.1799C88.65 82.2699 88.87 82.3099 89.08 82.2299C89.14 82.1999 89.2 82.1699 89.26 82.1399C89.38 82.0599 89.47 81.9599 89.54 81.8399C89.79 81.4699 90.03 81.0899 90.28 80.7199C90.34 80.6199 90.36 80.5199 90.36 80.4099C90.38 80.3099 90.37 80.1999 90.33 80.0999C90.27 79.9199 90.12 79.7199 89.94 79.6399C89.75 79.5499 89.53 79.5099 89.32 79.5899C89.26 79.6199 89.2 79.6499 89.14 79.6799C89.02 79.7599 88.93 79.8599 88.86 79.9799Z" fill="black"/>
<path d="M93.9501 80.64C93.9601 80.67 93.9801 80.7 93.9901 80.73C93.9601 80.67 93.9301 80.61 93.9001 80.55C94.1001 80.99 94.2601 81.45 94.3601 81.92C94.4001 82.1 94.5901 82.3 94.7501 82.38C94.9201 82.47 95.1801 82.5 95.3701 82.43C95.5601 82.36 95.7401 82.23 95.8301 82.04C95.8501 81.97 95.8801 81.91 95.9001 81.84C95.9301 81.7 95.9201 81.56 95.8801 81.42C95.7601 80.85 95.5501 80.31 95.2901 79.78C95.2401 79.69 95.1601 79.62 95.0801 79.56C95.0001 79.49 94.9001 79.45 94.8001 79.43C94.6101 79.39 94.3601 79.42 94.2001 79.54C94.0301 79.66 93.8901 79.83 93.8501 80.04C93.8401 80.11 93.8401 80.18 93.8301 80.25C93.8301 80.39 93.8701 80.52 93.9501 80.64Z" fill="black"/>
<path d="M98.53 78.82C98.78 79.08 99.03 79.35 99.29 79.61C99.37 79.69 99.46 79.74 99.56 79.77C99.66 79.82 99.76 79.83 99.87 79.83C99.98 79.83 100.08 79.8 100.17 79.75C100.27 79.71 100.35 79.66 100.42 79.58C100.56 79.42 100.65 79.21 100.63 79C100.62 78.93 100.61 78.8599 100.59 78.7999C100.55 78.6699 100.47 78.5499 100.37 78.4599C100.12 78.1999 99.87 77.9299 99.61 77.6699C99.53 77.5899 99.44 77.5399 99.34 77.5099C99.24 77.4599 99.14 77.45 99.03 77.45C98.92 77.45 98.82 77.4799 98.73 77.5299C98.63 77.5699 98.55 77.62 98.48 77.7C98.34 77.86 98.25 78.0699 98.27 78.2799C98.28 78.3499 98.29 78.4199 98.31 78.4799C98.36 78.6099 98.43 78.72 98.53 78.82Z" fill="black"/>
<path d="M102 79.67C102.06 80.81 102.75 81.72 103.62 82.42C104.46 83.1 105.66 83.47 106.72 83.1C107.08 82.98 107.38 82.65 107.28 82.24C107.19 81.9 106.8 81.55 106.42 81.68C106.32 81.71 106.23 81.74 106.12 81.76C106.06 81.77 106.01 81.78 105.95 81.79C106.02 81.78 106 81.79 105.94 81.79C105.84 81.79 105.73 81.79 105.63 81.78C105.57 81.77 105.52 81.77 105.46 81.76C105.54 81.77 105.51 81.77 105.45 81.75C105.35 81.72 105.25 81.69 105.16 81.66C105.11 81.64 105.06 81.62 105.01 81.6C104.95 81.58 104.94 81.56 105 81.6C104.82 81.5 104.64 81.39 104.48 81.26C104.45 81.23 104.41 81.2 104.38 81.18C104.29 81.11 104.5 81.29 104.35 81.15C104.28 81.08 104.21 81.01 104.14 80.94C104.01 80.8 103.89 80.65 103.77 80.5C103.7 80.41 103.82 80.59 103.77 80.49C103.74 80.44 103.71 80.4 103.69 80.35C103.64 80.27 103.6 80.18 103.56 80.09C103.55 80.08 103.51 79.95 103.53 80.03C103.56 80.12 103.51 79.95 103.51 79.94C103.5 79.9 103.49 79.86 103.48 79.82C103.48 79.8 103.46 79.59 103.47 79.76C103.45 79.38 103.21 79 102.79 79C102.41 78.99 101.97 79.27 102 79.67Z" fill="black"/>
<path d="M87.53 87.19C90.4 87.45 93.32 87.17 96.07 86.33C98.79 85.5 101.56 84.19 103.64 82.22C104.54 81.37 103.26 79.92 102.36 80.78C100.47 82.57 97.9 83.79 95.42 84.51C92.89 85.25 90.27 85.5 87.64 85.26C86.4 85.15 86.29 87.07 87.53 87.19Z" fill="black"/>
<path d="M103.44 80.84C102.3 80.85 101.33 82.17 100.39 82.74C99.31 83.38 98.2 83.89 97.04 84.38C95.36 85.09 93.53 85.11 91.72 85.3C90.72 85.4 89.82 85.63 88.85 85.88C88.69 85.92 88.56 85.99 88.46 86.08C88.18 86.27 88 86.6 88.11 87.03C88.96 90.52 91.93 93.33 95.71 92.5C98.9 91.8 101.63 89.5 103.38 86.8C103.79 86.16 104.15 85.49 104.47 84.81C104.78 84.15 105.3 83.21 105.32 82.47C105.35 81.49 104.31 80.83 103.44 80.84Z" fill="black"/>
<path d="M98.11 86.75C96.37 88.92 96.55 91.05 96.84 92.17C99.54 91.23 101.84 89.16 103.37 86.8C103.77 86.18 104.13 85.52 104.44 84.85C102.8 84.61 99.87 84.57 98.11 86.75Z" fill="#EA525F"/>
<path d="M81.84 58.87C83.29 57.27 86.15 56.51 87.36 58.75C88.32 60.53 91.12 59.08 90.15 57.29C88.01 53.32 82.59 53.36 79.71 56.54C78.36 58.04 80.47 60.38 81.84 58.87Z" fill="black"/>
<path d="M109.87 60.55C109.13 58.51 107.25 57.02 105.2 56.43C102.64 55.7 100.19 56.53 98.2101 58.18C96.6501 59.48 98.7801 61.8 100.34 60.51C102.59 58.64 106.01 59.08 107.08 62.01C107.77 63.9 110.56 62.43 109.87 60.55Z" fill="black"/>
<path d="M74.4601 61.69C73.8201 68.75 73.6201 75.95 74.1701 83.02C74.3501 85.3 74.7101 87.36 75.5101 89.49C77.7201 95.35 82.4101 99.83 88.7101 100.85C94.8301 101.84 101.1 99.61 106.52 96.99C108.34 96.11 106.89 93.31 105.06 94.2C98.1501 97.54 88.4501 100.49 82.1801 94.28C79.1501 91.28 77.7201 87.57 77.3301 83.5C76.6501 76.36 76.9501 69 77.6001 61.87C77.7901 59.84 74.6401 59.67 74.4601 61.69Z" fill="black"/>
<path d="M81.27 62.2C81.27 62.2 78.55 63.4 79.13 65.73C79.57 67.51 80.69 67.34 82.26 66.76C83.79 66.2 84.65 66.24 85.7 66.87C86.75 67.5 88.41 67.54 88.77 65.81C89.13 64.09 86.18 59.89 81.27 62.2Z" fill="white"/>
<path d="M99.4101 63.6999C99.4101 63.6999 96.7901 64.4899 97.1301 66.8699C97.4701 69.2399 100.19 67.8599 101.48 68.0399C102.77 68.2199 104.04 70.1599 105.8 69.8399C107.55 69.5199 108.6 68.3299 107.23 65.8899C105.84 63.4599 103.19 62.4899 99.4101 63.6999Z" fill="white"/>
<path d="M85.9301 66.24C83.6001 67.21 82.0901 63.53 84.4201 62.56C86.7601 61.59 88.2701 65.27 85.9301 66.24Z" fill="black"/>
<path d="M104.1 67.86C101.77 68.83 100.26 65.15 102.59 64.18C104.92 63.21 106.44 66.89 104.1 67.86Z" fill="black"/>
<path d="M67.39 127.82C65.85 135.11 65.29 142.55 65.19 149.99C65.16 152.47 65.17 154.96 65.22 157.44C65.23 157.91 65.55 158.34 66.04 158.36C66.48 158.39 66.97 158.01 66.96 157.54C66.82 149.67 66.95 141.77 68.06 133.97C68.33 132.09 68.65 130.22 69.05 128.37C69.15 127.91 68.97 127.42 68.49 127.27C68.08 127.13 67.48 127.36 67.39 127.82Z" fill="#3A3A3A"/>
<path d="M117.44 170.53C117.32 163.76 116.73 161.95 116.7 161.84C116.83 161.87 114.3 157.7 112.13 155.4C111.51 154.74 104.78 145.72 103.48 144.21C102.98 143.63 97.64 133.09 87.04 133.74C78.24 134.28 48.72 160.67 48.72 160.67C48.72 160.67 47.32 160.19 42.39 156.31C37.46 152.43 33.76 148.86 33.76 148.86C33.76 148.86 22.13 166.7 25.68 178.54C27.46 184.46 30.76 187.54 34.82 188.96C41.36 191.24 49.02 190.54 53.06 187.73C61.74 181.71 75.87 165.84 75.87 165.84L88.03 150.65C87.98 153.48 87.87 155.58 88.78 156.97C90.7 159.91 91.51 160.82 91.51 160.82C91.51 160.82 90.03 160.38 89.91 163.81C89.78 167.62 90.81 169.27 92.65 169.86C94.49 170.45 95.19 168.61 95.19 168.61C95.19 168.61 94.38 171.88 96.92 173.15C99.46 174.42 100.63 172.67 100.63 172.67C100.43 177.79 105.32 176.55 106.12 174.69C106.92 172.82 109.71 163.43 109.71 163.43L111.32 165.72C111.32 165.72 111.22 167.01 111.81 173.54C112.31 179.11 113.13 180.87 114.81 181.12C115.1 181.16 115.41 181.17 115.74 181.13C118.05 180.9 117.57 177.52 117.44 170.53Z" fill="#A85630"/>
<path d="M103.12 164.23C102.26 167.18 101.33 170.12 100.34 173.02C100.03 173.93 101.47 174.32 101.78 173.42C102.77 170.51 103.7 167.58 104.56 164.63C104.83 163.7 103.39 163.31 103.12 164.23Z" fill="black"/>
<path d="M96.7899 162.03C96.1199 164.46 95.3799 166.87 94.5699 169.25C94.4399 169.63 94.7199 170.07 95.0899 170.17C95.4999 170.28 95.8799 170.03 96.0099 169.65C96.8199 167.27 97.5699 164.86 98.2299 162.43C98.4799 161.5 97.0399 161.1 96.7899 162.03Z" fill="black"/>
<path d="M118.18 172.82C118.49 176.68 118.2 180.7 116.33 184.16C114.73 187.1 112.18 189.42 109.22 190.96C102.57 194.41 94.11 193.37 87.77 189.7C84.21 187.64 81.38 184.45 80.77 180.27C80.58 178.94 78.56 179.51 78.75 180.83C79.98 189.25 89 193.81 96.63 194.88C104.48 195.98 112.82 193.27 117.37 186.5C120.07 182.49 120.66 177.55 120.29 172.82C120.17 171.48 118.07 171.47 118.18 172.82Z" fill="white"/>
<path d="M83.41 179.66C82.12 178.26 80.74 176.94 79.28 175.72C79.2 175.66 79.12 175.59 79.02 175.58C78.92 175.57 76.02 181.45 76.08 181.5C76.09 181.5 81.54 180.07 83.41 179.66Z" fill="white"/>
<path d="M84.5 178.57C83.36 177.33 82.16 176.16 80.89 175.07C80.48 174.72 80.06 174.27 79.53 174.13C78.79 173.92 78.11 174.2 77.69 174.82C77.6 174.95 77.53 175.08 77.46 175.22C76.7 176.62 76.01 178.07 75.32 179.51C75.17 179.81 75.03 180.12 74.89 180.43C74.68 180.9 74.43 181.38 74.61 181.91C74.89 182.7 75.64 183.2 76.49 182.98C78.93 182.34 81.36 181.68 83.82 181.14C84.6 180.97 85.13 180.02 84.89 179.26C84.62 178.44 83.85 178.01 83.01 178.19C80.55 178.74 78.12 179.4 75.68 180.03C76.31 180.39 76.93 180.74 77.56 181.1C77.53 181.01 77.51 182.17 77.58 181.84C77.63 181.61 77.38 182.28 77.49 182.04C77.56 181.89 77.63 181.74 77.7 181.59C77.91 181.13 78.13 180.68 78.36 180.22C78.86 179.19 79.37 178.17 79.9 177.15C79.99 176.97 80.09 176.79 80.19 176.61C80.22 176.55 80.26 176.5 80.29 176.44C80.3 176.42 80.32 176.4 80.32 176.38C80.23 176.59 79.69 176.97 79.44 177.04C79.17 177.04 78.9 177.04 78.63 177.04C78.21 176.75 78.08 176.68 78.26 176.83C78.31 176.87 78.36 176.92 78.42 176.96C78.51 177.03 78.59 177.11 78.68 177.18C78.87 177.34 79.06 177.51 79.24 177.67C79.6 177.99 79.95 178.31 80.29 178.64C81 179.31 81.68 180.01 82.34 180.73C82.88 181.32 83.96 181.32 84.5 180.73C85.08 180.11 85.08 179.2 84.5 178.57Z" fill="white"/>
</svg>
