<svg width="200" height="200" viewBox="0 0 200 200" fill="none" xmlns="http://www.w3.org/2000/svg">
<g clip-path="url(#clip0_520_6189)">
<path d="M100 200C155.228 200 200 155.228 200 100C200 44.7715 155.228 0 100 0C44.7715 0 0 44.7715 0 100C0 155.228 44.7715 200 100 200Z" fill="#F1AF3E"/>
<path d="M99.9999 200C127.13 200 151.73 189.19 169.75 171.65C165.84 155.2 159.99 134.76 154.47 126.65C142.22 108.64 116.32 106.01 96.9899 106C69.9599 105.98 55.0999 112.9 42.1799 129.55C37.4399 135.65 32.0799 152.68 27.9399 169.33C46.1299 188.23 71.6899 200 99.9999 200Z" fill="#EF9AC2"/>
<path d="M136.93 160.98C137.72 165.11 138.63 169.21 139.36 173.35C140.2 178.15 140.67 183 141.08 187.85C141.22 189.54 143.87 189.55 143.73 187.85C143.31 182.85 142.82 177.85 141.96 172.9C141.23 168.67 140.29 164.48 139.49 160.27C139.16 158.61 136.61 159.31 136.93 160.98Z" fill="#E66FA9"/>
<path d="M99.2002 125.86C99.3102 125.15 100.15 124.83 100.7 125.31C103.07 127.38 108.34 132.53 109.93 138.53C111.3 143.69 110.97 147.07 110.58 148.76C110.43 149.41 109.67 149.7 109.14 149.29C107.09 147.7 102.57 143.8 100.83 139.22C98.5202 133.11 98.8202 128.22 99.2002 125.86Z" fill="#901E5E"/>
<path d="M114.59 95.1C114.59 95.1 117.26 101.05 123.28 99.49C127.96 98.27 126.94 91.82 126.94 91.82C126.94 91.82 132.54 92.69 134.41 87.17C135.76 83.18 132.42 80.43 132.42 80.43C132.42 80.43 137.67 78.76 138.17 71.92C138.7 64.67 133.19 62.6 133.19 62.6C133.19 62.6 136.15 57.47 132.97 54.61C129.12 51.15 124.58 53.41 124.58 53.41C124.58 53.41 123.98 45.34 119.88 44.05C112.51 41.72 109.1 46.91 109.1 46.91C109.1 46.91 110.18 42.51 104.76 39.68C100.25 37.33 96.2101 41.71 96.2101 41.71C96.2101 41.71 94.7101 35.93 88.0901 36.95C83.1701 37.71 83.0401 43.82 83.0401 43.82C83.0401 43.82 78.2001 41.54 73.7901 44.87C67.5401 49.6 69.9501 57.53 69.9501 57.53C69.9501 57.53 64.3001 56.53 62.3301 61.73C60.1201 67.56 64.9001 70.12 64.9001 70.12C64.9001 70.12 61.9001 75.32 67.3101 77.59C69.7101 78.61 114.59 95.1 114.59 95.1Z" fill="black"/>
<path d="M126.36 78.7401C126.36 78.7401 127.7 68.4001 121.77 59.8001C115.47 50.6401 105.5 47.3401 91.0202 49.8401C76.5402 52.3401 70.9302 63.0801 68.7402 72.6001L108.6 77.7701L106.54 94.7001L117.61 96.2601L126.36 78.7401Z" fill="black"/>
<path d="M117.52 83.4101C117.52 83.4101 118.74 76.8501 122.73 75.9401C126.71 75.0301 128.27 77.6701 127.89 82.2901C127.51 86.9101 124.28 91.5401 119.52 90.4701C119.52 90.4701 116.58 100.43 117.14 106.38C117.14 106.38 111.33 107.89 107.14 111.69C99 119.07 98.69 123.37 98.69 123.37C97.97 119.26 93.57 117.93 93.57 117.93C93.57 117.93 76.28 118.61 70.02 109.23C61.37 96.2901 69.58 72.6101 69.58 72.6101C69.58 72.6101 70.26 70.4201 71.73 68.0101C71.73 68.0101 74.5 68.1101 76.77 66.5601C79.85 64.4701 79.93 61.6901 79.93 61.6901C79.93 61.6901 81.22 65.2201 87.09 64.8901C90.33 64.7101 92.54 63.6101 94.68 60.1801C94.68 60.1801 94.91 64.1501 99.47 66.1501C103.34 67.8501 107.09 65.6401 107.09 65.6401C103.62 69.0501 107.34 77.4701 112.47 76.4501C112.47 76.4501 110.8 84.3501 113.61 85.6801C115.15 86.4501 116.97 85.2501 117.52 83.4101Z" fill="#DC7B6A"/>
<path d="M97.7203 115.35C93.2603 116.44 88.3903 116.39 83.9003 115.47C79.3503 114.54 75.5703 112.34 72.5503 108.78C65.0303 99.91 66.7603 88.04 69.2503 77.61C70.3003 73.22 71.5703 68.6 74.0203 64.77C74.8903 63.4 72.7103 62.13 71.8403 63.5C69.4203 67.29 68.1003 71.83 67.0103 76.16C65.6403 81.61 64.4103 87.34 64.5003 92.98C64.6603 103.72 70.7903 114.67 81.6803 117.53C87.0403 118.94 93.0103 119.09 98.4003 117.77C99.9603 117.39 99.3003 114.96 97.7203 115.35Z" fill="black"/>
<path d="M124.03 79.6601C122.73 79.7901 121.73 80.6701 121.23 81.8501C120.66 83.2001 120.88 84.6901 121.11 86.0901C121.17 86.5001 121.69 86.7301 122.06 86.6301C122.5 86.5101 122.66 86.1001 122.6 85.6801C122.44 84.6501 122.26 83.5301 122.62 82.5301C122.62 82.5201 122.67 82.3901 122.65 82.4401C122.63 82.4901 122.69 82.3701 122.69 82.3501C122.74 82.2401 122.8 82.1401 122.86 82.0401C122.89 82.0001 122.92 81.9501 122.95 81.9101C122.97 81.8801 123.02 81.8201 122.97 81.8801C123.04 81.7901 123.12 81.7001 123.21 81.6201C123.25 81.5801 123.29 81.5501 123.32 81.5201C123.41 81.4401 123.24 81.5701 123.34 81.5001C123.43 81.4301 123.53 81.3801 123.63 81.3201C123.67 81.3001 123.73 81.2701 123.65 81.3001C123.7 81.2801 123.74 81.2601 123.79 81.2501C123.85 81.2301 123.91 81.2201 123.97 81.2001C124 81.1901 124.16 81.1801 124.03 81.1901C124.44 81.1501 124.8 80.8701 124.8 80.4201C124.8 80.0501 124.44 79.6201 124.03 79.6601Z" fill="black"/>
<path d="M122.56 92.26C122.83 92.24 123.11 92.16 123.41 92.02C123.88 91.8 124.22 91.37 124.36 90.82C124.52 90.17 124.38 89.44 123.99 88.91C123.29 87.96 121.92 88.13 121.87 88.14C121.87 88.14 121.33 88.18 121.4 88.71C121.46 89.14 121.99 89.05 121.99 89.05C122 89.05 122.87 88.95 123.25 89.46C123.48 89.77 123.57 90.21 123.47 90.6C123.43 90.76 123.32 91.06 123.02 91.2C122.65 91.37 122.32 91.34 122.09 91.23C121.76 91.07 121.64 90.75 121.6 90.6C121.6 90.6 121.4 90.63 121.1 90.64C120.81 90.65 120.61 90.64 120.61 90.64C120.63 90.74 120.93 91.74 121.71 92.12C121.97 92.23 122.26 92.28 122.56 92.26Z" fill="#FBE574"/>
<path d="M94.7099 118.42C96.0699 119.12 98.1899 120.62 98.6699 123.36C98.6699 123.36 98.9799 119.06 107.12 111.68C111.31 107.88 117.12 106.37 117.12 106.37C117.01 105.26 117.03 104.01 117.13 102.71C118.68 102.85 120.15 103.49 121.05 105.04C124.26 109.21 113.88 131.14 98.5199 132.05C93.8299 132.33 89.6099 127.82 86.6899 118.45L94.7099 118.42Z" fill="#901E5E"/>
<path d="M116.64 109.06C113.76 114.06 110.18 118.61 106.01 122.6C105.12 123.45 106.47 124.81 107.36 123.95C111.64 119.86 115.33 115.16 118.29 110.03C118.91 108.96 117.26 108 116.64 109.06Z" fill="#78111B"/>
<path d="M99.5301 126.7C100.15 126.34 100.93 126.79 100.9 127.51C100.8 130.65 100.16 138 96.5301 143.03C93.4101 147.37 90.5801 149.24 89.0301 150.02C88.4301 150.32 87.7201 149.91 87.7101 149.24C87.6401 146.65 87.7901 140.68 90.2401 136.43C93.4901 130.77 97.4701 127.9 99.5301 126.7Z" fill="#901E5E"/>
<path d="M102.37 123.77C101.22 122.54 99.5601 122.01 97.9201 122.38C96.4201 122.72 95.3701 123.81 94.6101 125.08C93.7301 126.56 93.1401 128.38 93.3001 130.11C93.4601 131.83 94.4501 133.57 96.0201 134.38C97.8501 135.32 99.8901 134.97 101.45 133.68C101.85 133.35 101.79 132.67 101.45 132.33C101.05 131.93 100.5 132 100.1 132.33C98.2301 133.87 95.5901 132.6 95.2401 130.25C95.0501 128.96 95.4501 127.58 96.0501 126.44C96.3101 125.95 96.6001 125.48 96.9501 125.09C97.2601 124.75 97.6201 124.49 97.9701 124.36C98.4801 124.17 99.0001 124.11 99.4601 124.2C100.09 124.33 100.58 124.64 101.03 125.12C101.86 126.03 103.21 124.67 102.37 123.77Z" fill="#78111B"/>
<path d="M95.82 133.68C95.12 134.8 94.45 135.94 93.82 137.1C93.58 137.54 93.7 138.16 94.16 138.41C94.61 138.65 95.21 138.54 95.47 138.07C96.1 136.91 96.77 135.77 97.47 134.65C97.74 134.22 97.57 133.58 97.13 133.34C96.66 133.09 96.1 133.23 95.82 133.68Z" fill="#78111B"/>
<path d="M91.66 123.33C92.28 124.54 93.11 125.66 94.08 126.62C94.44 126.97 95.08 127 95.43 126.62C95.78 126.24 95.81 125.64 95.43 125.27C95.03 124.88 94.67 124.47 94.33 124.03C94.38 124.09 94.43 124.16 94.48 124.22C94.03 123.64 93.64 123.02 93.31 122.37C93.08 121.92 92.42 121.76 92 122.03C91.55 122.32 91.42 122.85 91.66 123.33Z" fill="#78111B"/>
<path d="M91.0504 73.3901C93.4104 75.8801 97.5304 75.4501 100.02 73.4401C100.54 73.0301 100.48 72.0801 100.02 71.6601C99.4704 71.1601 98.7904 71.2201 98.2404 71.6601C98.4504 71.4901 98.0804 71.7701 98.0404 71.7901C97.9104 71.8701 97.7804 71.9501 97.6504 72.0201C97.5104 72.0901 97.3704 72.1601 97.2304 72.2201C97.4604 72.1201 97.0304 72.2901 96.9804 72.3001C96.6804 72.4001 96.3704 72.4701 96.0604 72.5301C95.9104 72.5501 95.9004 72.5601 96.0404 72.5401C95.9604 72.5501 95.8804 72.5601 95.8104 72.5601C95.6704 72.5701 95.5404 72.5801 95.4004 72.5801C95.2604 72.5801 95.1204 72.5801 94.9804 72.5701C94.9004 72.5601 94.8204 72.5601 94.7404 72.5501C94.8804 72.5701 94.8804 72.5701 94.7304 72.5401C94.4304 72.4701 94.1404 72.4001 93.8504 72.3001C93.7104 72.2501 93.7104 72.2501 93.8404 72.3001C93.7704 72.2701 93.7104 72.2401 93.6404 72.2101C93.5104 72.1401 93.3904 72.0701 93.2704 72.0001C93.2104 71.9601 93.1504 71.9201 93.1004 71.8801C93.2204 71.9701 93.2204 71.9701 93.1104 71.8901C93.0104 71.8001 92.9104 71.7101 92.8204 71.6101C92.3704 71.1301 91.4904 71.1201 91.0404 71.6101C90.5804 72.1201 90.5704 72.8801 91.0504 73.3901Z" fill="black"/>
<path d="M74.0702 76.9801C76.9702 77.6401 80.1402 76.5401 82.0302 74.2501C82.4502 73.7401 82.5602 72.9601 82.0302 72.4701C81.5702 72.0401 80.6902 71.9301 80.2502 72.4701C80.0602 72.7001 79.8502 72.9201 79.6302 73.1301C79.5202 73.2301 79.4102 73.3301 79.3002 73.4201C79.2802 73.4401 79.1002 73.5701 79.2102 73.4901C79.3202 73.4101 79.1302 73.5401 79.1202 73.5601C78.8602 73.7401 78.5902 73.9101 78.3202 74.0601C78.1902 74.1301 78.0602 74.1901 77.9202 74.2601C77.8202 74.3101 77.8002 74.3101 77.9202 74.2601C77.8402 74.2901 77.7602 74.3201 77.6702 74.3501C77.4002 74.4401 77.1302 74.5101 76.8502 74.5701C76.7802 74.5801 76.7102 74.5901 76.6402 74.6101C76.4502 74.6501 76.8402 74.5901 76.6502 74.6101C76.4902 74.6201 76.3302 74.6401 76.1602 74.6501C75.8802 74.6601 75.6002 74.6601 75.3202 74.6501C75.2402 74.6501 75.1602 74.6401 75.0702 74.6301C75.0302 74.6301 74.8202 74.5901 75.0002 74.6201C75.1802 74.6601 74.9802 74.6101 74.9402 74.6101C74.8702 74.6001 74.8002 74.5801 74.7302 74.5701C74.0902 74.4201 73.3302 74.7701 73.1802 75.4501C73.0502 76.0701 73.3802 76.8201 74.0702 76.9801Z" fill="black"/>
<path d="M99.3404 77.7401C99.6204 77.1701 99.9304 76.6101 100.25 76.0601C100.4 75.8101 100.31 75.4401 100.05 75.3101C99.7804 75.1701 99.4504 75.2401 99.3004 75.5101C98.9704 76.0601 98.6704 76.6201 98.3904 77.1901C98.3204 77.3201 98.2904 77.4701 98.3304 77.6101C98.3704 77.7401 98.4604 77.8801 98.5804 77.9401C98.8304 78.0701 99.2004 78.0201 99.3404 77.7401Z" fill="black"/>
<path d="M100.78 78.5801C101.02 78.3701 101.26 78.1601 101.52 77.9701C101.48 78.0001 101.45 78.0301 101.41 78.0601C101.55 77.9501 101.69 77.8501 101.83 77.7501C101.95 77.6701 102.04 77.5701 102.08 77.4201C102.12 77.2901 102.1 77.1101 102.02 77.0001C101.94 76.8801 101.83 76.7801 101.69 76.7501C101.55 76.7201 101.38 76.7201 101.27 76.8101C100.83 77.1201 100.4 77.4601 100 77.8201C99.9003 77.9101 99.8403 78.0801 99.8403 78.2101C99.8403 78.3501 99.9003 78.5101 100 78.6001C100.11 78.7001 100.24 78.7701 100.39 78.7601C100.54 78.7401 100.67 78.6801 100.78 78.5801Z" fill="black"/>
<path d="M90.4903 80.2801C90.9903 81.4501 92.4003 82.0401 92.8903 82.1301C93.9603 82.3301 95.4903 82.4301 97.3303 81.8801C100.36 80.9801 100.8 79.4501 100.79 78.6901C100.78 78.0501 100.48 77.1401 98.8603 77.0301C98.2903 76.9901 97.7903 77.3001 95.7703 77.7001C93.8503 78.0801 91.6303 77.9001 91.0703 78.1901C90.5103 78.4601 90.0303 79.2001 90.4903 80.2801Z" fill="white"/>
<path d="M74.5503 80.4101C74.2803 79.7801 74.0003 79.1601 73.6803 78.5501C73.5503 78.2901 73.1703 78.2001 72.9303 78.3501C72.6703 78.5201 72.5903 78.8301 72.7303 79.1001C73.0203 79.6501 73.2803 80.2201 73.5303 80.8001C73.5103 80.7601 73.4903 80.7101 73.4703 80.6701C73.4703 80.6801 73.4803 80.6901 73.4803 80.7001C73.5403 80.8401 73.6003 80.9501 73.7303 81.0301C73.8503 81.1001 74.0203 81.1301 74.1503 81.0901C74.2803 81.0501 74.4103 80.9601 74.4803 80.8401C74.5603 80.7101 74.6003 80.5401 74.5503 80.4101Z" fill="black"/>
<path d="M72.8403 80.8001C72.4903 80.4501 72.1303 80.1201 71.7403 79.8101C71.6903 79.7601 71.6303 79.7201 71.5603 79.7001C71.4903 79.6701 71.4203 79.6501 71.3503 79.6501C71.2103 79.6501 71.0503 79.7101 70.9603 79.8101C70.8603 79.9201 70.7903 80.0501 70.8003 80.2001C70.8103 80.3401 70.8503 80.5001 70.9603 80.5901C71.3503 80.9001 71.7103 81.2301 72.0603 81.5801C72.1603 81.6801 72.3103 81.7401 72.4503 81.7401C72.5903 81.7401 72.7503 81.6801 72.8403 81.5801C72.9403 81.4701 73.0103 81.3401 73.0003 81.1901C72.9903 81.0401 72.9403 80.9101 72.8403 80.8001Z" fill="black"/>
<path d="M82.42 80.92C82.28 82.18 81.1 83.15 80.66 83.38C79.7 83.88 78.26 84.42 76.34 84.43C73.18 84.44 72.31 83.11 72.11 82.37C71.94 81.75 72.14 80.57 73.12 80.19C73.65 79.98 74.57 80.18 76.63 79.97C78.58 79.78 80.65 78.97 81.27 79.08C81.88 79.19 82.54 79.75 82.42 80.92Z" fill="white"/>
<path d="M83.8401 91.15C83.8101 89.81 83.9301 88.46 84.0701 87.13C84.2101 85.8 84.3701 84.45 84.6701 83.15C84.8901 82.2 86.3901 82.46 86.1701 83.42C85.6901 85.49 85.4901 87.66 85.3801 89.78C85.3301 90.71 85.1701 92.05 85.7601 92.83C86.4001 93.69 87.8201 93.24 87.8301 92.15C87.8301 91.19 89.2801 91.01 89.3501 92.01C89.3801 92.46 89.7501 92.93 90.2501 92.88C90.7501 92.84 91.0301 92.32 90.9801 91.86C90.8701 90.89 92.3801 90.75 92.5001 91.72C92.6501 93 91.7001 94.26 90.4001 94.39C89.7701 94.45 89.1701 94.22 88.7101 93.82C88.1801 94.48 87.3601 94.88 86.4101 94.78C84.5101 94.58 83.8701 92.79 83.8401 91.15Z" fill="black"/>
<path d="M101.19 88.2301C99.2602 90.3001 98.2002 93.1501 98.4902 95.9901C98.7602 98.6801 100.12 101.19 102.25 102.86C102.91 103.38 103.84 102.45 103.18 101.93C99.1802 98.8001 98.6302 92.9101 102.12 89.1601C102.7 88.5401 101.77 87.6101 101.19 88.2301Z" fill="black"/>
<path d="M74.7701 92.0401C78.8501 94.7701 80.2801 100.17 78.0901 104.57C77.7101 105.32 78.8501 105.99 79.2201 105.23C81.7501 100.17 80.1301 94.0401 75.4301 90.9101C74.7301 90.4401 74.0701 91.5701 74.7701 92.0401Z" fill="black"/>
<path d="M91.3503 97.3201C91.2103 97.3201 91.4403 97.3501 91.2903 97.3101C91.2103 97.2901 91.1203 97.2701 91.0403 97.2401C90.8603 97.1901 90.6803 97.1301 90.5003 97.0701C90.0903 96.9501 89.6603 96.8601 89.2303 96.8601C88.2403 96.8601 87.2403 97.4101 86.8103 98.3201C86.3903 99.2101 86.5103 100.28 87.0703 101.09C87.6303 101.9 88.5603 102.19 89.4803 102.37C89.4803 101.94 89.4803 101.5 89.4803 101.07C88.5503 101.44 87.7403 102.18 87.6003 103.21C87.4803 104.06 87.7903 105.06 88.4303 105.65C89.1403 106.31 90.1803 106.52 91.1003 106.26C91.4803 106.15 91.8503 105.97 92.1903 105.77C92.3103 105.7 92.4303 105.62 92.5503 105.54C92.6103 105.5 92.9403 105.35 92.7403 105.42C93.0803 105.3 93.3103 104.96 93.2103 104.59C93.1203 104.26 92.7303 104 92.3803 104.12C91.4703 104.45 90.7303 105.38 89.6703 104.88C89.1903 104.65 88.9403 104.15 88.9103 103.64C88.8803 103.1 89.2903 102.58 89.8303 102.37C90.1103 102.26 90.3203 102.04 90.3203 101.72C90.3203 101.44 90.1103 101.13 89.8303 101.07C89.2703 100.96 88.5503 100.86 88.1903 100.36C87.8503 99.8901 87.7603 99.2201 88.1103 98.7401C88.9303 97.6001 90.3003 98.6201 91.3303 98.6501C92.2103 98.6901 92.2103 97.3401 91.3503 97.3201Z" fill="black"/>
<path d="M96.3804 110.96C93.8304 112.33 90.8105 112.6 88.0505 111.76C87.1405 111.48 86.7405 112.91 87.6605 113.19C90.8005 114.15 94.2404 113.79 97.1304 112.24C97.9704 111.79 97.2204 110.51 96.3804 110.96Z" fill="black"/>
<path d="M75.9505 84.7501C78.6905 84.7501 78.6905 80.5001 75.9505 80.5001C73.2105 80.4901 73.2105 84.7501 75.9505 84.7501Z" fill="black"/>
<path d="M75.3503 82.4901C76.2503 82.4901 76.2503 81.0901 75.3503 81.0901C74.4503 81.0901 74.4503 82.4901 75.3503 82.4901Z" fill="white"/>
<path d="M76.7505 83.7502C77.1105 83.7502 77.1105 83.1902 76.7505 83.1902C76.3905 83.1902 76.3905 83.7502 76.7505 83.7502Z" fill="white"/>
<path d="M94.3402 82.7601C97.0802 82.7601 97.0802 78.5101 94.3402 78.5101C91.6002 78.5101 91.6002 82.7601 94.3402 82.7601Z" fill="black"/>
<path d="M93.6701 80.5602C94.5701 80.5602 94.5701 79.1602 93.6701 79.1602C92.7701 79.1602 92.7701 80.5602 93.6701 80.5602Z" fill="white"/>
<path d="M95.2099 81.6202C95.5699 81.6202 95.5699 81.0602 95.2099 81.0602C94.8499 81.0602 94.8499 81.6202 95.2099 81.6202Z" fill="white"/>
<path d="M57.97 160.28C57.16 164.49 56.23 168.68 55.5 172.91C54.65 177.86 54.15 182.86 53.73 187.86C53.59 189.56 56.24 189.55 56.38 187.86C56.78 183.01 57.26 178.16 58.1 173.36C58.82 169.22 59.74 165.12 60.53 160.99C60.85 159.32 58.29 158.6 57.97 160.28Z" fill="#E66FA9"/>
<path d="M62.1497 107.93C62.1497 107.93 62.2797 109.23 63.0997 111.1C63.7997 112.68 65.1097 114.18 65.1097 114.18L58.5597 118.19C58.5597 118.19 61.8297 122.91 57.5197 126.5C54.9097 128.67 52.1197 126.01 52.1197 126.01C52.1197 126.01 50.7597 128.19 48.4497 127.19C46.1397 126.19 46.3797 122.1 46.3797 122.1C46.3797 122.1 40.2197 122.71 40.9597 118.14C41.6997 113.57 44.4397 113.75 44.4397 113.75C44.4397 113.75 41.0597 110.53 43.4697 108.49C47.7297 104.88 52.0297 111.07 52.0297 111.07L62.1497 107.93Z" fill="white"/>
<path d="M61.6997 106.63C58.6397 107.85 55.3797 108.69 52.1497 109.33C51.0897 109.54 51.5397 111.16 52.5997 110.95C55.8297 110.31 59.0897 109.47 62.1497 108.25C62.5697 108.08 62.8697 107.69 62.7397 107.22C62.6297 106.82 62.1297 106.46 61.6997 106.63Z" fill="#A3A3A3"/>
<path d="M60.9997 111.25C58.6197 112.6 56.0897 113.65 53.4497 114.39C52.4097 114.68 52.8497 116.3 53.8997 116.01C56.6697 115.24 59.3497 114.12 61.8497 112.7C62.7897 112.17 61.9397 110.72 60.9997 111.25Z" fill="#A3A3A3"/>
<path d="M64.6796 113.45C62.5896 114.93 60.4496 116.33 58.3596 117.82C57.9896 118.08 57.8096 118.55 58.0596 118.97C58.2696 119.34 58.8396 119.54 59.2096 119.27C61.2996 117.79 63.4396 116.39 65.5296 114.9C65.8996 114.64 66.0796 114.17 65.8296 113.75C65.6196 113.39 65.0596 113.19 64.6796 113.45Z" fill="#A3A3A3"/>
<path d="M50.4898 107.89C48.5598 106.24 45.2998 106.18 43.3898 107.91C41.3798 109.73 41.6298 113.11 44.0298 114.46C44.0998 113.95 44.1598 113.44 44.2298 112.92C41.3998 113.43 39.3498 116.49 40.0998 119.3C40.8298 122.04 43.9398 123.66 46.6198 122.89C46.2998 122.48 45.9898 122.07 45.6698 121.65C44.2398 123.93 45.3298 126.99 47.8998 127.85C49.7198 128.45 52.6298 128.08 53.5098 126.14C53.0298 126.14 52.5398 126.14 52.0598 126.14C53.3398 127.97 55.6698 128.35 57.6198 127.35C59.8598 126.2 60.9598 123.61 60.4798 121.2C60.2698 120.14 58.6498 120.59 58.8598 121.65C59.1798 123.25 58.3998 124.95 56.9898 125.78C55.8698 126.44 54.3098 126.44 53.5198 125.3C53.1998 124.84 52.3498 124.67 52.0698 125.3C51.5498 126.44 49.8298 126.58 48.7498 126.34C46.9798 125.96 46.1798 124.02 47.1298 122.51C47.5198 121.89 46.8698 121.08 46.1798 121.27C44.3698 121.79 42.2398 120.72 41.7298 118.85C41.1898 116.86 42.7698 114.88 44.6898 114.53C45.4198 114.4 45.4898 113.33 44.8898 112.99C43.3298 112.11 43.3898 109.95 44.7898 108.93C46.0198 108.04 48.1398 108.06 49.3098 109.06C50.1098 109.78 51.3098 108.59 50.4898 107.89Z" fill="#A3A3A3"/>
<path d="M126.54 121.17C125.89 121.26 125.58 122 126.03 122.4C126.88 123.18 128.04 124.36 128.82 125.7C130.2 128.07 131.73 129.72 134.8 129.1C138.85 128.29 139.07 122.71 134.33 121.44C131.52 120.69 128.39 120.92 126.54 121.17Z" fill="#A8DEEC"/>
<path d="M51.5497 60.4101C51.9597 60.8801 51.6997 61.5201 51.1097 61.4701C49.9897 61.3801 48.3797 61.3301 46.9397 61.6101C44.3997 62.1101 41.6697 61.4501 40.4097 59.7401C38.0997 56.5901 42.2697 53.5001 46.5197 55.8201C49.0397 57.2001 50.3797 59.0601 51.5497 60.4101Z" fill="#A8DEEC"/>
<path d="M53.2897 90.3401C53.7197 90.2501 53.7697 89.8501 53.3997 89.6001C52.5597 89.0301 51.2197 88.3501 49.3897 88.0501C46.9997 87.6601 43.7697 88.1201 42.4797 90.3201C40.5897 93.5601 44.8297 95.8901 47.1197 94.7501C49.2197 93.7001 49.2997 92.2301 50.8697 91.2401C51.8297 90.6301 52.6297 90.4701 53.2897 90.3401Z" fill="#A8DEEC"/>
<path d="M128.82 63.3101C128.23 63.5401 127.8 63.1301 128.01 62.5601C128.48 61.2801 129.45 59.4901 131.34 57.7601C133.81 55.5001 138.07 53.5301 141.61 55.0101C146.82 57.1901 144.24 62.5701 140.49 63.0401C137.05 63.4701 135.55 62.6701 132.8 62.7701C131.1 62.8301 129.72 62.9601 128.82 63.3101Z" fill="#A8DEEC"/>
<path d="M134.32 123.97C134.39 123.99 134.45 124.01 134.52 124.04C134.59 124.07 134.39 123.98 134.49 124.03C134.52 124.05 134.56 124.06 134.59 124.08C134.65 124.11 134.71 124.15 134.77 124.19C134.8 124.21 134.82 124.22 134.85 124.24C134.87 124.25 134.88 124.26 134.9 124.27C134.94 124.3 134.92 124.28 134.85 124.23C134.87 124.27 134.96 124.32 134.99 124.35C135.04 124.4 135.09 124.45 135.14 124.5C135.16 124.52 135.18 124.55 135.2 124.57C135.21 124.58 135.22 124.6 135.24 124.61C135.27 124.65 135.26 124.63 135.2 124.56C135.21 124.61 135.29 124.69 135.32 124.73C135.36 124.79 135.39 124.85 135.42 124.91C135.43 124.94 135.45 124.97 135.46 125C135.5 125.09 135.47 125.02 135.45 124.97C135.49 125.1 135.54 125.23 135.58 125.37C135.59 125.43 135.6 125.5 135.61 125.56C135.56 125.39 135.6 125.49 135.6 125.54C135.6 125.58 135.61 125.62 135.61 125.65C135.61 125.71 135.61 125.78 135.61 125.84C135.61 125.88 135.6 125.92 135.6 125.95C135.6 125.92 135.61 125.89 135.61 125.86C135.61 125.89 135.6 125.91 135.6 125.94C135.54 126.26 135.69 126.64 136.04 126.72C136.35 126.79 136.76 126.63 136.82 126.28C136.95 125.53 136.81 124.76 136.41 124.1C136.01 123.46 135.4 122.96 134.67 122.75C134.35 122.66 133.97 122.86 133.89 123.19C133.8 123.53 133.98 123.87 134.32 123.97Z" fill="#80C8DE"/>
<path d="M41.1997 56.73C40.5397 57.62 40.8397 58.93 41.5597 59.68C41.7897 59.92 42.2197 59.93 42.4497 59.68C42.6797 59.43 42.6997 59.04 42.4497 58.79C42.4097 58.75 42.3797 58.71 42.3497 58.68C42.2897 58.62 42.3797 58.73 42.3897 58.73C42.3697 58.71 42.3597 58.69 42.3397 58.67C42.2797 58.59 42.2297 58.5 42.1897 58.41C42.1797 58.39 42.1697 58.37 42.1597 58.35C42.2397 58.52 42.1997 58.44 42.1797 58.4C42.1597 58.36 42.1497 58.31 42.1397 58.27C42.1097 58.17 42.0897 58.07 42.0797 57.97C42.0897 58.03 42.0997 58.08 42.0997 58.14C42.0797 58 42.0797 57.86 42.0997 57.72C42.0897 57.78 42.0797 57.83 42.0797 57.89C42.0997 57.77 42.1297 57.67 42.1597 57.56C42.1797 57.49 42.0897 57.71 42.1397 57.61C42.1497 57.58 42.1697 57.56 42.1797 57.53C42.2097 57.48 42.2397 57.43 42.2797 57.38C42.3697 57.26 42.3797 57.03 42.3397 56.89C42.2997 56.74 42.1897 56.59 42.0497 56.51C41.8997 56.43 41.7297 56.39 41.5597 56.45C41.4097 56.5 41.2997 56.6 41.1997 56.73Z" fill="#80C8DE"/>
<path d="M141.73 58.4C141.74 58.54 141.74 58.67 141.72 58.81C141.73 58.75 141.74 58.7 141.74 58.64C141.72 58.79 141.67 58.94 141.62 59.09C141.64 59.04 141.66 58.99 141.68 58.94C141.63 59.06 141.57 59.17 141.5 59.27C141.48 59.3 141.46 59.35 141.43 59.37C141.45 59.34 141.47 59.32 141.49 59.29C141.48 59.31 141.47 59.32 141.45 59.34C141.41 59.39 141.37 59.44 141.32 59.48C141.28 59.52 141.23 59.57 141.18 59.61C141.14 59.64 141.06 59.69 141.22 59.58C141.19 59.6 141.16 59.62 141.14 59.64C141.03 59.71 140.92 59.77 140.79 59.83C140.84 59.81 140.89 59.79 140.94 59.77C140.8 59.83 140.65 59.87 140.49 59.89C140.55 59.88 140.6 59.87 140.66 59.87C140.53 59.89 140.41 59.89 140.28 59.88C140.13 59.87 139.94 59.96 139.83 60.06C139.72 60.17 139.64 60.35 139.65 60.51C139.67 60.88 139.93 61.11 140.28 61.14C141.72 61.27 143.12 59.86 142.98 58.42C142.96 58.25 142.92 58.1 142.8 57.97C142.69 57.86 142.51 57.78 142.35 57.79C142.04 57.78 141.69 58.05 141.73 58.4Z" fill="#80C8DE"/>
<path d="M44.2895 89.81C43.8495 90.03 43.5595 90.43 43.3795 90.87C43.2195 91.26 43.2095 91.75 43.3495 92.15C43.4095 92.31 43.4895 92.44 43.6395 92.53C43.7795 92.61 43.9695 92.64 44.1295 92.59C44.2795 92.54 44.4295 92.45 44.5095 92.3C44.5895 92.16 44.6295 91.97 44.5695 91.81C44.5395 91.73 44.5195 91.64 44.5095 91.55C44.5195 91.61 44.5295 91.66 44.5295 91.72C44.5195 91.6 44.5195 91.49 44.5295 91.37C44.5195 91.43 44.5095 91.48 44.5095 91.54C44.5295 91.42 44.5595 91.3 44.6095 91.18C44.5895 91.23 44.5695 91.28 44.5495 91.33C44.5995 91.22 44.6595 91.12 44.7295 91.03C44.6995 91.07 44.6595 91.12 44.6295 91.16C44.6995 91.07 44.7695 91 44.8595 90.93C44.8195 90.96 44.7695 91 44.7295 91.03C44.7895 90.98 44.8595 90.94 44.9295 90.9C45.0695 90.83 45.1795 90.67 45.2195 90.52C45.2595 90.37 45.2395 90.17 45.1595 90.03C44.9495 89.74 44.5995 89.66 44.2895 89.81Z" fill="#80C8DE"/>
<path fill-rule="evenodd" clip-rule="evenodd" d="M132.8 96.0501C132.8 96.0501 129.06 88.2701 131.9 79.3601C132.08 78.6601 132.27 77.9501 132.51 77.2201C138.09 59.7801 166.56 54.3101 177.45 74.2701C188.34 94.2001 165.86 119.13 142.7 107.07C141.54 106.47 140.08 105.48 138.58 104.11C136.34 105.1 132.67 105.87 128.57 103.19C127.7 102.62 127.76 101.33 128.68 100.85C130.94 99.6801 132.8 96.0501 132.8 96.0501Z" fill="white"/>
<path d="M153.7 102.44C157.389 102.44 160.38 99.4493 160.38 95.7601C160.38 92.0708 157.389 89.0801 153.7 89.0801C150.011 89.0801 147.02 92.0708 147.02 95.7601C147.02 99.4493 150.011 102.44 153.7 102.44Z" fill="#E8E8E8"/>
<path d="M161.162 73.5476L154.067 72.3229L150.352 93.844L157.447 95.0687L161.162 73.5476Z" fill="#E8E8E8"/>
<path d="M157.61 76.5301C159.598 76.5301 161.21 74.9183 161.21 72.9301C161.21 70.9419 159.598 69.3301 157.61 69.3301C155.622 69.3301 154.01 70.9419 154.01 72.9301C154.01 74.9183 155.622 76.5301 157.61 76.5301Z" fill="#E8E8E8"/>
<path d="M153.67 99.8001C155.901 99.8001 157.71 97.9913 157.71 95.7601C157.71 93.5289 155.901 91.7201 153.67 91.7201C151.439 91.7201 149.63 93.5289 149.63 95.7601C149.63 97.9913 151.439 99.8001 153.67 99.8001Z" fill="#EE2737"/>
<path d="M153.89 94.64C152.97 94.48 152.35 93.6 152.51 92.68L154.98 78.4C155.14 77.48 156.02 76.86 156.94 77.02C157.86 77.18 158.48 78.06 158.32 78.98L155.85 93.26C155.69 94.18 154.81 94.8 153.89 94.64Z" fill="#EE2737"/>
<path d="M153.83 87.2601L151.55 86.8701L151.76 85.6801L154.04 86.0701C154.37 86.1301 154.59 86.4401 154.53 86.7701C154.48 87.1001 154.16 87.3201 153.83 87.2601Z" fill="black"/>
<path d="M154.51 83.37L152.23 82.98L152.44 81.79L154.72 82.18C155.05 82.24 155.27 82.55 155.21 82.88C155.15 83.2 154.84 83.42 154.51 83.37Z" fill="black"/>
<path d="M155.18 79.4701L152.9 79.0801L153.11 77.8901L155.39 78.2801C155.72 78.3401 155.94 78.6501 155.88 78.9801C155.82 79.3101 155.51 79.5301 155.18 79.4701Z" fill="black"/>
<path d="M155.85 75.5701L153.57 75.1801L153.78 73.9901L156.06 74.3801C156.39 74.4401 156.61 74.7501 156.55 75.0801C156.49 75.4101 156.18 75.6301 155.85 75.5701Z" fill="black"/>
</g>
<defs>
<clipPath id="clip0_520_6189">
<rect width="200" height="200" fill="white"/>
</clipPath>
</defs>
</svg>
