<svg width="200" height="200" viewBox="0 0 200 200" fill="none" xmlns="http://www.w3.org/2000/svg">
<g clip-path="url(#clip0_520_6188)">
<path d="M100 200C155.228 200 200 155.228 200 100C200 44.7715 155.228 0 100 0C44.7715 0 0 44.7715 0 100C0 155.228 44.7715 200 100 200Z" fill="#F1AF3E"/>
<path d="M164.9 129.54C158.38 106.87 80.18 79.08 54.29 90.38C31.66 100.25 27.44 145.4 26.77 168.1C45.04 187.72 71.08 200 100 200C126.91 200 151.33 189.37 169.31 172.08C169.53 161.45 169.08 144.06 164.9 129.54Z" fill="#E7E6E6"/>
<path d="M168.2 139.38C163.02 112 158.71 78.2699 96.36 78.9299C34.01 79.5899 40.56 121.03 40.73 129.54C41.06 145.47 50.9 164.93 59.83 169.2C68.19 173.2 84.25 177.34 102.03 177.39C125.54 177.44 173.59 167.83 168.2 139.38Z" fill="#E7E6E6"/>
<path d="M96.3698 78.9299C82.8198 79.0699 81.8898 79.1099 72.7498 82.3599C72.7498 82.3599 67.2698 83.7499 68.5098 91.3499C70.0698 100.88 77.0798 120.65 91.4798 121.82C97.1298 122.28 100.93 115.25 100.93 115.25C105.12 119.32 110.86 122.19 116.85 119.2C124.59 115.33 125.36 91.0799 124.79 81.8999C116.69 80.0999 106.6 78.8199 96.3698 78.9299Z" fill="#A3A3A3"/>
<path d="M73.5102 77.86C73.5102 77.86 69.7502 80.89 70.0002 82.51C71.4302 91.9 91.2002 115.25 100.93 115.25C108.65 115.25 116.85 102.37 116.85 102.37L73.5102 77.86Z" fill="#F5A1AC"/>
<path d="M67.4498 71.19C67.4498 71.19 65.8998 61.39 71.2998 53.04C77.0498 44.16 86.4398 40.74 100.29 42.73C114.14 44.72 119.77 54.79 122.11 63.78L84.3298 69.78L86.7498 85.83L77.8198 85.69L67.4498 71.19Z" fill="black"/>
<path d="M75.99 75.3999C75.99 75.3999 74.65 69.1899 70.83 68.4399C67.01 67.6899 65.61 70.2399 66.1 74.6299C66.59 79.0199 69.78 83.3299 74.29 82.1899C74.29 82.1899 76 88.4299 78.25 93.6499C81.2 100.48 84.52 107.02 94.94 110.96C96.66 111.61 102.27 111.38 102.27 111.38C102.27 111.38 115.13 111.89 121.91 98.7099C128.68 85.5299 121.34 63.8599 121.34 63.8599C121.34 63.8599 118.91 56.7199 113.66 54.5099C108.41 52.2899 109.24 55.8299 105.81 57.2699C102.37 58.7099 94.65 55.7099 91.9 53.4799C89.15 51.2499 84.8 51.9599 83.02 54.2899C81.24 56.6199 81.66 59.9199 82.89 62.4199C84.12 64.9099 80.78 67.1999 80.65 68.6999C80.53 70.1999 81.78 75.8499 83.16 80.9699C84.54 86.0899 83.18 86.0399 80.48 85.4699C77.76 84.8499 77.85 81.6399 75.99 75.3999Z" fill="#F5A1AC"/>
<path d="M97.93 61.8C97.91 61.86 97.89 61.92 97.87 61.98C97.93 61.73 97.91 61.9 97.86 61.98C97.79 62.11 97.72 62.23 97.64 62.35C97.56 62.47 97.59 62.4 97.66 62.33C97.61 62.38 97.57 62.43 97.53 62.48C97.43 62.59 97.32 62.69 97.21 62.79C97.15 62.85 97.08 62.9 97.02 62.95C97.1 62.88 97.14 62.86 97.03 62.94C96.91 63.03 96.78 63.11 96.66 63.19C96.41 63.34 96.16 63.48 95.9 63.6C95.87 63.62 95.68 63.69 95.84 63.63C96.01 63.57 95.82 63.64 95.79 63.65C95.63 63.71 95.46 63.77 95.29 63.81C95.12 63.86 94.94 63.9 94.76 63.94C94.68 63.96 94.6 63.97 94.52 63.98C94.38 64.01 94.67 63.97 94.43 63.99C94.25 64 94.08 64.01 93.9 64C93.82 64 93.74 64 93.66 63.99C93.64 63.99 93.4 63.97 93.53 63.98C93.68 64 93.37 63.95 93.34 63.95C93.26 63.93 93.19 63.92 93.11 63.9C93.01 63.87 92.92 63.85 92.83 63.81C92.79 63.8 92.55 63.7 92.74 63.78C92.15 63.52 91.37 63.59 91.04 64.23C90.75 64.77 90.85 65.65 91.49 65.93C93.32 66.74 95.28 66.58 97.08 65.78C98.51 65.14 99.87 64 100.34 62.45C100.53 61.83 100.11 61.07 99.47 60.92C98.79 60.77 98.13 61.13 97.93 61.8Z" fill="black"/>
<path d="M116.1 62.05C115.97 62.13 115.84 62.21 115.71 62.28C115.67 62.3 115.25 62.49 115.49 62.39C115.21 62.51 114.92 62.59 114.62 62.66C114.57 62.67 114.11 62.73 114.39 62.71C114.24 62.72 114.09 62.74 113.94 62.74C113.79 62.74 113.64 62.74 113.49 62.73C113.41 62.72 113.34 62.72 113.26 62.71C113.39 62.73 113.41 62.73 113.32 62.72C113.06 62.66 112.8 62.61 112.54 62.53C112.49 62.51 112.08 62.34 112.34 62.46C112.21 62.4 112.08 62.34 111.96 62.27C111.84 62.2 111.71 62.13 111.59 62.05C111.55 62.02 111.2 61.75 111.41 61.93C111.19 61.75 110.99 61.55 110.8 61.34C110.36 60.85 109.48 60.86 109.04 61.34C108.56 61.86 108.58 62.58 109.04 63.1C111.12 65.43 114.71 65.9 117.34 64.22C117.89 63.87 118.16 63.1 117.79 62.52C117.45 61.94 116.69 61.67 116.1 62.05Z" fill="black"/>
<path d="M102.48 103.93C105.59 104.85 108.98 104.47 111.82 102.91C112.65 102.46 111.91 101.19 111.08 101.65C108.58 103.02 105.6 103.33 102.87 102.53C101.96 102.25 101.57 103.66 102.48 103.93Z" fill="black"/>
<path d="M69.7202 73.4699C69.7702 73.4699 69.8202 73.4799 69.7402 73.4699C69.8002 73.4799 69.8602 73.4899 69.9202 73.5099C69.9702 73.5199 70.0102 73.5399 70.0602 73.5499C70.1702 73.5799 69.9802 73.5099 70.0802 73.5599C70.1802 73.5999 70.2702 73.6599 70.3602 73.7199C70.4002 73.7499 70.4402 73.7699 70.4802 73.7999C70.3902 73.7299 70.5102 73.8399 70.5302 73.8499C70.7002 74.0099 70.7902 74.1099 70.8702 74.2399C70.9302 74.3299 70.9902 74.4299 71.0402 74.5299C71.0602 74.5699 71.0902 74.6199 71.1102 74.6599C71.1702 74.7799 71.0602 74.5099 71.1402 74.7299C71.5002 75.7399 71.3502 76.8299 71.2102 77.8899C71.1602 78.2799 71.5802 78.6199 71.9402 78.6199C72.3802 78.6199 72.6202 78.2799 72.6702 77.8899C72.8402 76.5699 72.9602 75.2099 72.3902 73.9599C71.9002 72.8899 70.9002 72.0999 69.7202 72.0199C69.3302 71.9899 68.9902 72.3799 68.9902 72.7499C68.9902 73.1599 69.3202 73.4499 69.7202 73.4699Z" fill="black"/>
<path d="M102.07 79.26C102.31 80.45 103.36 81.33 104.54 81.46C105.74 81.59 106.87 80.67 107.14 79.53C107.23 79.16 107.02 78.72 106.63 78.63C106.25 78.54 105.83 78.74 105.73 79.14C105.72 79.19 105.7 79.24 105.69 79.29C105.68 79.31 105.63 79.45 105.67 79.35C105.72 79.25 105.65 79.38 105.64 79.4C105.62 79.45 105.59 79.49 105.56 79.54C105.55 79.55 105.54 79.57 105.53 79.58C105.48 79.64 105.49 79.64 105.55 79.56C105.54 79.6 105.49 79.63 105.46 79.66C105.43 79.69 105.4 79.72 105.37 79.75C105.34 79.78 105.24 79.9 105.36 79.77C105.31 79.83 105.21 79.87 105.14 79.91C105.12 79.92 105.09 79.93 105.07 79.95C105.02 79.97 105.04 79.97 105.13 79.93C105.1 79.95 105.04 79.96 105.01 79.97C104.97 79.98 104.93 79.99 104.89 80C104.86 80.01 104.84 80.01 104.81 80.01C104.75 80.02 104.78 80.02 104.88 80C104.87 80.02 104.76 80 104.74 80C104.72 80 104.52 79.98 104.61 79.99C104.71 80.01 104.53 79.97 104.51 79.97C104.46 79.96 104.41 79.94 104.36 79.93C104.34 79.92 104.2 79.86 104.3 79.91C104.4 79.96 104.27 79.89 104.25 79.88C104.16 79.84 104.09 79.78 104.01 79.73C103.94 79.68 104.11 79.82 104.01 79.73C103.97 79.69 103.93 79.66 103.89 79.62C103.83 79.56 103.75 79.5 103.71 79.43C103.8 79.59 103.73 79.45 103.7 79.41C103.67 79.37 103.64 79.32 103.62 79.28C103.6 79.24 103.58 79.2 103.56 79.16C103.52 79.08 103.61 79.3 103.56 79.17C103.53 79.07 103.5 78.97 103.48 78.87C103.4 78.49 102.94 78.24 102.58 78.36C102.18 78.49 101.99 78.86 102.07 79.26Z" fill="black"/>
<path d="M110.98 78.59C110.81 75.96 110.09 73.43 109.36 70.91C109.1 70.01 107.68 70.39 107.95 71.3C108.65 73.69 109.35 76.1 109.52 78.59C109.55 78.98 109.84 79.32 110.25 79.32C110.63 79.32 111.01 78.99 110.98 78.59Z" fill="black"/>
<path d="M105.8 79.68C106.13 80.24 106.47 80.76 107.01 81.15C107.29 81.34 107.61 81.5099 107.94 81.5899C108.34 81.6799 108.77 81.6399 109.17 81.5599C109.8 81.4299 110.4 80.9499 110.69 80.3799C110.99 79.7899 110.99 79.15 110.98 78.51C110.97 78.13 110.65 77.76 110.25 77.78C109.86 77.8 109.51 78.1 109.52 78.51C109.53 78.76 109.54 79.01 109.52 79.25C109.52 79.3 109.52 79.37 109.51 79.41C109.53 79.33 109.53 79.3 109.51 79.4C109.49 79.49 109.47 79.6 109.42 79.68C109.51 79.52 109.42 79.67 109.4 79.71C109.37 79.76 109.34 79.8 109.31 79.85C109.41 79.71 109.3 79.8499 109.28 79.8799C109.24 79.9199 109.2 79.96 109.15 80C109.24 79.92 109.17 79.9799 109.11 80.0199C109.07 80.0499 109.03 80.0699 108.99 80.0899C108.96 80.0999 108.94 80.1199 108.91 80.1299C108.99 80.0999 109 80.09 108.95 80.11C108.9 80.12 108.84 80.14 108.79 80.15C108.73 80.16 108.67 80.17 108.77 80.16C108.7 80.17 108.63 80.18 108.56 80.18C108.49 80.18 108.42 80.19 108.35 80.18C108.17 80.18 108.43 80.22 108.28 80.17C108.25 80.16 108.07 80.1 108.21 80.16C108.15 80.13 108.09 80.1 108.03 80.07C107.93 80.01 107.83 79.9399 107.73 79.8799C107.66 79.8299 107.8 79.95 107.71 79.86C107.67 79.82 107.62 79.7799 107.58 79.7399C107.54 79.6999 107.5 79.65 107.47 79.61C107.58 79.73 107.47 79.6 107.45 79.57C107.31 79.37 107.2 79.16 107.07 78.96C106.87 78.63 106.4 78.4799 106.07 78.6999C105.73 78.8899 105.59 79.33 105.8 79.68Z" fill="black"/>
<path d="M119.6 79.9099C118.87 80.8799 118.14 81.8399 117.4 82.8099C116.8 83.5999 115.97 84.4199 115.84 85.4399C115.7 86.5099 116.23 87.7199 116.51 88.7399C116.84 89.9299 117.16 91.1199 117.49 92.3199C117.73 93.1799 119.07 92.8199 118.83 91.9499C118.54 90.9099 118.26 89.8599 117.97 88.8199C117.83 88.2999 117.68 87.7799 117.54 87.2599C117.41 86.7899 117.14 86.1699 117.2 85.6699C117.26 85.1999 117.64 84.7899 117.91 84.4299C118.23 84.0099 118.55 83.5799 118.87 83.1599C119.51 82.3099 120.15 81.4699 120.79 80.6199C121.34 79.8999 120.13 79.1999 119.6 79.9099Z" fill="black"/>
<path d="M89.6599 81.75C90.5399 82.51 91.4799 83.2 92.4099 83.89C92.8899 84.24 93.3698 84.6 93.8398 84.97C94.1898 85.24 94.8598 85.63 95.0598 86.04C95.2798 86.48 94.9599 87.31 94.8699 87.77C94.7599 88.38 94.6398 88.99 94.5298 89.6C94.2898 90.87 94.0498 92.15 93.8198 93.43C93.6598 94.31 94.9999 94.68 95.1599 93.8C95.4099 92.41 95.6698 91.03 95.9298 89.65C96.0598 88.98 96.1799 88.3 96.2999 87.63C96.4199 86.99 96.6198 86.29 96.3998 85.66C96.2198 85.13 95.7598 84.77 95.3398 84.42C94.8598 84.02 94.3598 83.64 93.8598 83.27C92.7698 82.45 91.6598 81.67 90.6298 80.78C89.9698 80.19 88.9799 81.17 89.6599 81.75Z" fill="black"/>
<path d="M104.03 94.6799C104.93 94.9199 105.89 94.9799 106.81 94.9199C107.77 94.8499 108.74 94.6699 109.6 94.2199C109.95 94.0399 110.06 93.5499 109.86 93.2199C109.65 92.8699 109.21 92.7699 108.86 92.9599C108.82 92.9799 108.79 92.9999 108.75 93.0199C108.73 93.0299 108.58 93.0999 108.66 93.0599C108.73 93.0299 108.61 93.0799 108.6 93.0899C108.56 93.1099 108.52 93.1199 108.47 93.1399C108.28 93.2099 108.09 93.2599 107.9 93.3099C107.7 93.3599 107.49 93.3999 107.29 93.4299C107.21 93.4399 107.35 93.4199 107.22 93.4399C107.17 93.4499 107.12 93.4499 107.07 93.4599C106.96 93.4699 106.84 93.4799 106.73 93.4899C106.31 93.5199 105.88 93.5099 105.46 93.4799C105.36 93.4699 105.27 93.4599 105.17 93.4499C105.12 93.4399 105.01 93.4299 105.12 93.4399C105.07 93.4299 105.03 93.4299 104.98 93.4199C104.79 93.3899 104.6 93.3499 104.41 93.2999C104.03 93.1999 103.61 93.4299 103.51 93.8099C103.41 94.1599 103.65 94.5699 104.03 94.6799Z" fill="black"/>
<path d="M100.49 89.32C100.7 92.15 112.19 92.18 111.72 88.42C111.33 85.35 100.21 85.48 100.49 89.32Z" fill="black"/>
<path d="M109.48 90.82C109.38 89.68 108.05 87.62 105.35 87.27C103.37 87.75 101.49 88.72 100.77 89.97C101.94 91.41 106.63 91.77 109.48 90.82Z" fill="#EE445C"/>
<path d="M100.91 90.17C101.88 88.55 104.25 87.77 106.02 87.7C107.02 87.66 108.01 87.76 108.97 88.04C109.66 88.24 110.61 88.65 110.83 89.38C111.19 90.57 113.07 90.06 112.7 88.86C111.91 86.28 108.51 85.71 106.2 85.75C103.67 85.8 100.59 86.9 99.22 89.18C98.59 90.26 100.27 91.24 100.91 90.17Z" fill="black"/>
<path d="M94.2202 111.54C98.9702 112.55 104.09 112.25 108.76 110.99C113.69 109.66 117.66 106.77 120.7 102.67C124.19 97.9699 125.9 92.1399 126.14 86.3399C126.39 80.5099 125.15 74.6399 123.83 68.9899C122.74 64.3299 121.4 59.3899 118.84 55.3099C118.1 54.1299 116.23 55.2199 116.97 56.3999C119.18 59.9199 120.37 64.0999 121.38 68.0999C122.57 72.7599 123.61 77.5699 123.92 82.3799C124.58 92.5099 120.44 104.66 110.04 108.33C105.28 110.01 99.7502 110.52 94.8002 109.46C93.4302 109.16 92.8502 111.25 94.2202 111.54Z" fill="black"/>
<path d="M96.6002 67.62C96.6002 67.62 92.3502 67.41 91.2002 68.53C90.0502 69.65 90.1302 72.56 93.2102 72.62C96.2902 72.69 100.23 72.57 100.86 71.21C101.5 69.86 101.7 67.67 96.6002 67.62Z" fill="white"/>
<path d="M115.3 67.1699C115.3 67.1699 111.21 66.9699 110.11 68.0299C109.01 69.0899 109.09 71.8699 112.05 71.9299C115.01 71.9999 118.8 71.8899 119.41 70.5999C120.02 69.3099 120.2 67.2199 115.3 67.1699Z" fill="white"/>
<path d="M96.1001 70.8599C97.4501 70.8599 97.4601 68.7599 96.1001 68.7599C94.7401 68.7499 94.7401 70.8599 96.1001 70.8599Z" fill="black"/>
<path d="M114.99 70.6C116.34 70.6 116.35 68.5 114.99 68.5C113.64 68.5 113.63 70.6 114.99 70.6Z" fill="black"/>
<path d="M99.9199 115.53C101.24 119.87 101.92 124.4 102.44 128.89C103.11 134.68 103.47 140.51 103.7 146.33C104.2 158.52 104.13 170.74 103.89 182.94C103.79 188.22 103.64 193.5 103.49 198.78C103.45 200.13 105.56 200.13 105.59 198.78C105.88 188.28 106.15 177.78 106.16 167.28C106.18 155.03 105.99 142.72 104.71 130.52C104.16 125.3 103.47 120.01 101.94 114.98C101.56 113.68 99.5199 114.23 99.9199 115.53Z" fill="#A3A3A3"/>
<path d="M45.5299 86.1399C45.6499 85.1999 46.0499 84.2399 46.9099 83.7599C47.9199 83.1999 49.1899 83.3399 50.2999 83.4099C51.4899 83.4799 52.7699 83.5899 53.6399 82.6099C54.4399 81.7099 54.9099 80.4899 55.0899 79.3199C55.1599 78.8799 54.9799 78.4299 54.5099 78.2999C54.1199 78.1899 53.5599 78.4299 53.4899 78.8799C53.3999 79.4699 53.2499 80.0499 52.9799 80.5899C52.7799 80.9999 52.5099 81.5799 52.0499 81.7399C51.5299 81.9199 50.8299 81.7799 50.2999 81.7499C49.6299 81.7099 48.9599 81.6599 48.2899 81.7199C47.1499 81.8199 45.9899 82.1699 45.1799 83.0199C44.3599 83.8799 44.0199 84.9999 43.8699 86.1499C43.8099 86.5999 44.2899 86.9799 44.6999 86.9799C45.1999 86.9699 45.4699 86.5899 45.5299 86.1399Z" fill="black"/>
<path d="M41.8698 80.6899C41.9998 79.9999 42.4498 79.5999 43.0898 79.4299C43.7598 79.2599 44.5498 79.3099 45.2998 79.2599C46.1898 79.1899 47.0398 78.9999 47.7498 78.4299C48.4598 77.8499 48.8598 76.9499 48.8598 76.0399C48.8698 74.9699 47.2098 74.9699 47.1998 76.0399C47.1898 76.6299 46.8198 77.1899 46.2898 77.3999C45.6198 77.6699 44.9098 77.6199 44.1698 77.6499C43.3598 77.6799 42.5398 77.7699 41.8198 78.1599C41.0298 78.5799 40.4498 79.3799 40.2698 80.2499C40.1798 80.6899 40.3998 81.1499 40.8498 81.2699C41.2498 81.3899 41.7798 81.1399 41.8698 80.6899Z" fill="black"/>
<path d="M20.8901 140.89C20.5501 140.1 20.9201 139.14 21.1201 138.37C21.3701 137.4 21.5501 136.41 21.3101 135.42C21.0501 134.36 20.4601 133.43 20.3201 132.33C20.2001 131.33 20.4501 130.37 21.2501 129.72C22.0801 129.05 20.9001 127.88 20.0801 128.55C19.1901 129.27 18.7401 130.36 18.6401 131.49C18.5301 132.82 19.0401 134.03 19.5001 135.24C19.9301 136.38 19.6501 137.34 19.3701 138.47C19.0901 139.59 18.9801 140.64 19.4501 141.73C19.8901 142.7 21.3201 141.86 20.8901 140.89Z" fill="black"/>
<path d="M14.45 135.78C13.84 137.72 13.85 139.86 14.51 141.79C14.65 142.21 15.08 142.49 15.53 142.37C15.94 142.26 16.25 141.78 16.11 141.35C15.54 139.66 15.51 137.92 16.05 136.22C16.19 135.79 15.89 135.31 15.47 135.2C15.03 135.07 14.59 135.35 14.45 135.78Z" fill="black"/>
<path d="M178.48 132.12C176.86 133.82 176.1 135.88 176.97 138.15C177.39 139.24 177.88 140.28 178 141.46C178.11 142.47 178.16 144.04 177.46 144.87C176.77 145.68 177.94 146.86 178.63 146.04C180.1 144.31 179.91 141.34 179.21 139.32C178.86 138.3 178.2 137.28 178.21 136.17C178.22 135.05 178.91 134.08 179.65 133.3C180.39 132.52 179.22 131.35 178.48 132.12Z" fill="black"/>
<path d="M181.43 139.36C182.14 141.05 182.16 142.78 181.48 144.48C181.32 144.88 181.66 145.41 182.06 145.5C182.54 145.61 182.91 145.35 183.08 144.92C183.84 143.02 183.83 140.8 183.03 138.92C182.86 138.51 182.48 138.21 182.01 138.34C181.62 138.44 181.25 138.94 181.43 139.36Z" fill="black"/>
<path d="M106.89 148.38C109.99 151.29 98.0101 148.87 95.6201 148.27C91.4801 147.2 88.7301 145.65 87.1101 147.22C82.9801 152.2 93.4501 156.29 99.9701 156.95C99.9701 156.95 97.6901 157.29 92.1701 157.61C88.1301 157.85 84.9001 156.24 84.0101 158.98C82.6901 163.07 87.3801 163.99 87.3801 163.99C83.6901 166.8 89.4801 170.2 92.9301 170.41C92.9301 170.41 90.5501 170.75 90.6601 172.69C91.5401 177.86 107.67 176.3 112.79 173.63C119.06 170.36 133.04 169.55 137.88 169.39L141.33 143.8C141.33 143.8 128.77 149.02 124.52 149.12C119.5 149.25 118.29 146.73 115.45 144.59C113.06 142.79 110.6 141.66 107.93 140.19C105.25 138.71 103.79 136.74 102.03 137.38C96.6601 140.5 104.4 146.67 106.89 148.38Z" fill="#F5A1AC"/>
<path d="M101.52 162.93C97.01 164.41 92.17 164.61 87.56 163.47C86.55 163.22 86.11 164.78 87.13 165.04C92.01 166.25 97.17 166.08 101.95 164.5C102.94 164.17 102.52 162.6 101.52 162.93Z" fill="black"/>
<path d="M102.89 168.97C99.6399 170.28 95.9399 170.61 92.5199 169.79C91.4999 169.55 91.0699 171.11 92.0899 171.36C95.7799 172.24 99.8199 171.95 103.33 170.54C103.73 170.38 104.02 170 103.9 169.54C103.78 169.15 103.3 168.8 102.89 168.97Z" fill="black"/>
<path d="M165.79 127.06C165.79 127.06 175.17 146.84 159.96 163.09C152.15 171.43 125.21 172.92 125.21 172.92L121.45 146.69L165.79 127.06Z" fill="#E7E6E6"/>
<path d="M131.47 172.41L127.09 143.87L121.45 146.69L125.21 172.92C125.21 172.92 127.74 172.81 131.47 172.41Z" fill="#A3A3A3"/>
<path d="M121.61 147.41C129.24 143.4 137.2 140.07 145.05 136.55C146 136.12 145.18 134.72 144.23 135.15C136.38 138.68 128.42 142.01 120.79 146.01C119.86 146.5 120.68 147.9 121.61 147.41Z" fill="black"/>
<path d="M162.35 116.14C166.38 126.24 169.23 137.61 167.11 148.49C166.64 150.92 165.86 153.24 164.97 155.55C164.01 158.03 162.87 160.2 160.89 162.02C157.66 164.98 153.64 166.76 149.35 167.56C147.77 167.85 146.18 167.99 144.59 168.17C143.58 168.28 142.51 168.35 141.68 169C140.62 169.84 142.12 171.32 143.17 170.49C143.05 170.58 143.07 170.55 143.27 170.49C143.45 170.44 143.64 170.4 143.83 170.37C144.33 170.28 144.85 170.24 145.36 170.19C146.98 170.03 148.6 169.85 150.19 169.53C154.52 168.68 158.56 166.82 161.9 163.92C165.79 160.54 167.68 155.32 168.84 150.41C170.04 145.32 170.14 140.01 169.52 134.83C168.72 128.2 166.84 121.77 164.37 115.57C163.89 114.34 161.85 114.88 162.35 116.14Z" fill="#A3A3A3"/>
<path d="M124.62 151.31C122.9 153.42 126.2 152.52 128.07 152.21C130.85 151.75 131.79 151.73 135.84 150.35C139.89 148.98 142.52 147.22 144.25 148.67C145.98 150.12 145.59 151.99 144.43 153.36C143.27 154.73 137.63 158.73 132.13 159.33C132.13 159.33 134.43 159.5 139.95 159.41C143.99 159.35 147.1 157.5 148.18 160.17C149.79 164.15 145.18 165.42 145.18 165.42C145.18 165.42 147.14 166.55 146.26 168.6C145.52 170.33 142.31 171.74 140.1 172.24C140.1 172.24 142.5 172.4 142.53 174.35C142.56 176.35 138.88 178.55 132.53 178.58C129.51 178.59 125 178.29 121.64 177.23C117.84 176.04 115.13 174.79 111.66 174.52C108.5 174.28 95.2199 174.57 95.2199 174.57L89.9399 149.29C89.9399 149.29 102.84 153.56 107.08 153.35C112.09 153.1 113.12 150.5 115.8 148.15C118.05 146.17 120.42 144.87 122.99 143.2C125.55 141.53 126.87 139.45 128.67 139.96C131.35 140.72 131.02 144.77 129.05 147.06C127.21 149.21 125.64 150.05 124.62 151.31Z" fill="#F59DA9"/>
<path d="M130.64 167C135.52 168.21 140.68 168.04 145.45 166.46C146.44 166.13 146.01 164.57 145.02 164.89C140.51 166.38 135.68 166.57 131.07 165.43C130.06 165.19 129.63 166.75 130.64 167Z" fill="black"/>
<path d="M129.72 173.12C133.32 174.27 137.38 174.28 140.98 173.13C141.97 172.81 141.55 171.25 140.55 171.56C137.2 172.63 133.49 172.61 130.15 171.55C129.15 171.24 128.72 172.81 129.72 173.12Z" fill="black"/>
<path d="M63.38 134.9C63.38 134.9 55.9 161.62 65.87 170.67C74.73 178.72 106.49 176.95 106.49 176.95L109.58 150.36L63.38 134.9Z" fill="#E7E6E6"/>
<path d="M75.1999 139.74C87.0699 140.86 97.9399 146.13 108.5 151.3C109.44 151.76 110.26 150.36 109.32 149.9C98.4799 144.6 87.3699 139.27 75.1999 138.12C74.1599 138.02 74.1599 139.64 75.1999 139.74Z" fill="black"/>
<path d="M77.58 130.15C79.48 133.32 81 136.7 82.12 140.23C82.43 141.22 84 140.8 83.69 139.8C82.54 136.14 80.96 132.62 78.99 129.33C78.45 128.44 77.04 129.25 77.58 130.15Z" fill="black"/>
<path d="M104.47 146.26L110.16 148.39C110.98 148.7 111.47 149.54 111.34 150.4L106.97 178.06C106.81 179.04 105.91 179.72 104.92 179.6L98.7701 178.84C97.7301 178.71 97.0101 177.74 97.1801 176.71L102.01 147.69C102.19 146.54 103.38 145.85 104.47 146.26Z" fill="#A3A3A3"/>
<path d="M40.3102 134.99C41.7602 144.71 45.6602 154.17 52.1802 161.59C59.4402 169.85 69.8502 174.3 80.2802 177.05C86.6802 178.74 93.3402 179.59 99.9402 178.81C101.27 178.65 101.28 176.55 99.9402 176.71C88.9302 178.01 77.3202 174.91 67.4102 170.22C58.3302 165.93 51.3602 158.95 47.0002 149.91C44.6502 145.03 43.1402 139.78 42.3402 134.42C42.1402 133.1 40.1102 133.66 40.3102 134.99Z" fill="#A3A3A3"/>
<path d="M96.74 137.35C100.43 137.35 100.44 131.62 96.74 131.62C93.05 131.61 93.04 137.35 96.74 137.35Z" fill="black"/>
<path d="M97.78 191.93C101.47 191.93 101.48 186.2 97.78 186.2C94.09 186.19 94.08 191.93 97.78 191.93Z" fill="black"/>
<path fill-rule="evenodd" clip-rule="evenodd" d="M134.48 80.2999C134.48 80.2999 129.9 73.6599 131.23 65.0099C131.29 64.3399 131.37 63.6499 131.48 62.9399C134.1 46.0299 159.61 36.8499 172.55 53.6999C185.5 70.5299 168.35 96.8099 145.22 89.0299C144.06 88.6399 142.57 87.9399 140.99 86.8899C139.07 88.1299 135.78 89.3699 131.61 87.4899C130.73 87.0899 130.59 85.8899 131.38 85.3199C133.29 83.9199 134.48 80.2999 134.48 80.2999Z" fill="white"/>
<path d="M153 84.1599C156.689 84.1599 159.68 81.1692 159.68 77.4799C159.68 73.7907 156.689 70.7999 153 70.7999C149.311 70.7999 146.32 73.7907 146.32 77.4799C146.32 81.1692 149.311 84.1599 153 84.1599Z" fill="#E8E8E8"/>
<path d="M160.462 55.2679L153.367 54.0432L149.652 75.5643L156.747 76.7891L160.462 55.2679Z" fill="#E8E8E8"/>
<path d="M156.91 58.2499C158.898 58.2499 160.51 56.6382 160.51 54.6499C160.51 52.6617 158.898 51.0499 156.91 51.0499C154.921 51.0499 153.31 52.6617 153.31 54.6499C153.31 56.6382 154.921 58.2499 156.91 58.2499Z" fill="#E8E8E8"/>
<path d="M152.97 81.5199C155.201 81.5199 157.01 79.7112 157.01 77.4799C157.01 75.2487 155.201 73.4399 152.97 73.4399C150.738 73.4399 148.93 75.2487 148.93 77.4799C148.93 79.7112 150.738 81.5199 152.97 81.5199Z" fill="#008DB2"/>
<path d="M152.56 80.49L152.4 80.46C151.52 80.31 150.93 79.47 151.08 78.59L152.44 70.68C152.59 69.8 153.43 69.21 154.31 69.36L154.47 69.39C155.35 69.54 155.94 70.38 155.79 71.26L154.43 79.17C154.27 80.06 153.44 80.65 152.56 80.49Z" fill="#008DB2"/>
<path d="M153.13 68.9799L150.85 68.5899L151.06 67.3999L153.34 67.7899C153.67 67.8499 153.89 68.1599 153.83 68.4899C153.78 68.8199 153.46 69.0399 153.13 68.9799Z" fill="black"/>
<path d="M153.81 65.0899L151.53 64.6999L151.74 63.5099L154.02 63.8999C154.35 63.9599 154.57 64.2699 154.51 64.5999C154.45 64.9199 154.14 65.1399 153.81 65.0899Z" fill="black"/>
<path d="M154.48 61.19L152.2 60.8L152.41 59.61L154.69 60C155.02 60.06 155.24 60.37 155.18 60.7C155.12 61.03 154.81 61.25 154.48 61.19Z" fill="black"/>
<path d="M155.15 57.29L152.87 56.9L153.08 55.71L155.36 56.1C155.69 56.16 155.91 56.47 155.85 56.8C155.79 57.13 155.48 57.35 155.15 57.29Z" fill="black"/>
</g>
<defs>
<clipPath id="clip0_520_6188">
<rect width="200" height="200" fill="white"/>
</clipPath>
</defs>
</svg>
